%
M48
M72
T01C0.0320
T02C0.0360
T03C0.0400
T04C0.1250
%
T01
X3533Y7500
X4533Y7500
X6033Y7500
X7033Y7500
X8533Y7500
X9533Y7500
X11033Y7500
X12033Y7500
X13533Y7500
X14533Y7500
X16033Y7500
X17033Y7500
X18533Y7500
X19533Y7500
X21033Y7500
X22033Y7500
X23533Y7500
X24533Y7500
X24033Y8500
X23033Y8500
X21533Y8500
X20533Y8500
X19033Y8500
X18033Y8500
X16533Y8500
X15533Y8500
X14033Y8500
X13033Y8500
X11533Y8500
X10533Y8500
X9033Y8500
X8033Y8500
X6533Y8500
X5533Y8500
X4033Y8500
X3033Y8500
X10533Y15500
X11533Y15500
X11533Y16500
X11533Y17500
X10533Y17500
X11533Y18500
X11533Y19500
X11533Y20500
X11533Y21500
X11533Y22500
X14533Y22500
X14533Y21500
X14533Y20500
X14533Y19500
X14533Y18500
X14533Y17500
X14533Y16500
X14533Y15500
X21533Y14500
X23533Y14500
X24533Y16500
X24533Y17500
X24533Y18500
X24533Y19500
X24533Y20500
X24533Y21500
X24533Y22500
X21533Y22500
X21533Y21500
X21533Y20500
X21533Y19500
X21533Y18500
X21533Y17500
X21533Y16500
X26283Y12000
X26283Y11500
X26283Y11000
X28033Y8500
X29033Y8500
X28533Y7500
X29533Y7500
X31033Y7500
X32033Y7500
X33533Y7500
X34533Y7500
X36033Y7500
X37033Y7500
X38533Y7500
X39533Y7500
X41033Y7500
X42033Y7500
X43533Y7500
X44533Y7500
X46033Y7500
X47033Y7500
X48533Y7500
X49533Y7500
X49033Y8500
X48033Y8500
X46533Y8500
X45533Y8500
X44033Y8500
X43033Y8500
X41533Y8500
X40533Y8500
X39033Y8500
X38033Y8500
X36533Y8500
X35533Y8500
X34033Y8500
X33033Y8500
X31533Y8500
X30533Y8500
X43533Y12500
X45533Y12500
X45533Y14500
X43533Y14500
X43533Y15500
X42533Y18500
X40533Y18500
X40533Y19500
X42533Y19500
X42533Y20500
X40533Y20500
X40533Y21500
X42533Y21500
X42533Y22500
X40533Y22500
X40533Y23500
X42533Y23500
X42533Y24500
X40533Y24500
X40533Y25500
X42533Y25500
X42533Y26500
X40533Y26500
X40533Y27500
X42533Y27500
X42533Y28500
X40533Y28500
X40533Y29500
X42533Y29500
X42533Y30500
X40533Y30500
X40533Y31500
X42533Y31500
X48533Y31500
X48533Y30500
X48533Y29500
X48533Y28500
X48533Y27500
X48533Y26500
X48533Y25500
X48533Y24500
X48533Y23500
X48533Y22500
X48533Y21500
X48533Y20500
X48533Y19500
X48533Y18500
X57533Y20000
X58033Y21500
X61033Y21000
X63533Y20500
X63533Y19500
X63533Y18500
X63533Y17500
X62033Y17000
X63533Y16500
X63533Y15500
X62533Y15000
X66533Y15500
X66533Y16500
X66533Y17500
X66533Y18500
X66533Y19500
X66533Y20500
X66533Y21500
X66533Y22500
X66533Y23500
X66533Y24500
X63533Y24500
X63533Y23500
X63533Y22500
X63533Y21500
X58533Y23500
X57033Y24500
X51283Y27000
X51283Y27500
X51283Y28000
X52533Y29000
X52033Y30000
X54033Y32000
X53533Y34000
X53033Y36000
X60033Y34500
X63533Y34500
X63533Y33500
X63533Y32500
X63533Y31500
X63533Y30500
X63533Y29500
X63533Y28500
X66533Y28500
X66533Y29500
X66533Y30500
X66533Y31500
X66533Y32500
X66533Y33500
X66533Y34500
X66533Y35500
X66533Y36500
X66533Y37500
X63533Y37500
X63533Y36500
X63533Y35500
X60533Y36500
X59533Y32500
X59033Y30500
X64533Y26500
X66533Y26500
X76283Y27000
X76283Y27500
X76283Y28000
X86533Y27500
X88533Y28500
X88533Y29500
X88533Y30500
X88533Y31500
X88533Y32500
X88533Y33500
X88533Y34500
X88533Y35500
X88533Y36500
X88533Y37500
X91533Y37500
X91533Y36500
X91533Y35500
X91533Y34500
X91533Y33500
X91533Y32500
X91533Y31500
X91533Y30500
X91533Y29500
X91533Y28500
X91533Y26500
X89533Y26500
X88533Y24500
X88533Y23500
X88533Y22500
X87533Y22000
X88533Y21500
X88533Y20500
X87033Y20000
X88533Y19500
X88533Y18500
X86533Y18000
X85033Y18500
X88533Y17500
X88533Y16500
X88533Y15500
X86033Y16000
X85533Y16500
X91533Y16500
X91533Y15500
X91533Y17500
X91533Y18500
X91533Y19500
X91533Y20500
X91533Y21500
X91533Y22500
X91533Y23500
X91533Y24500
X84033Y22500
X84533Y20500
X78033Y19000
X77533Y20000
X78533Y17000
X79033Y15000
X76283Y12000
X76283Y11500
X76283Y11000
X78033Y8500
X79033Y8500
X80533Y8500
X81533Y8500
X83033Y8500
X84033Y8500
X85533Y8500
X86533Y8500
X88033Y8500
X89033Y8500
X90533Y8500
X91533Y8500
X93033Y8500
X94033Y8500
X95533Y8500
X96533Y8500
X98033Y8500
X99033Y8500
X98533Y7500
X99533Y7500
X97033Y7500
X96033Y7500
X94533Y7500
X93533Y7500
X92033Y7500
X91033Y7500
X89533Y7500
X88533Y7500
X87033Y7500
X86033Y7500
X84533Y7500
X83533Y7500
X82033Y7500
X81033Y7500
X79533Y7500
X78533Y7500
X74533Y7500
X73533Y7500
X73033Y8500
X74033Y8500
X72033Y7500
X71033Y7500
X70533Y8500
X71533Y8500
X69533Y7500
X68533Y7500
X68033Y8500
X69033Y8500
X67033Y7500
X66033Y7500
X64533Y7500
X63533Y7500
X62033Y7500
X61033Y7500
X59533Y7500
X58533Y7500
X57033Y7500
X56033Y7500
X54533Y7500
X53533Y7500
X53033Y8500
X54033Y8500
X55533Y8500
X56533Y8500
X58033Y8500
X59033Y8500
X60533Y8500
X61533Y8500
X63033Y8500
X64033Y8500
X65533Y8500
X66533Y8500
X51283Y11000
X51283Y11500
X51283Y12000
X34533Y15500
X34533Y18500
X34533Y19500
X34533Y20500
X34533Y21500
X34533Y22500
X34533Y23500
X34533Y24500
X34533Y25500
X34533Y26500
X34533Y27500
X34533Y28500
X34533Y29500
X34533Y30500
X34533Y31500
X26283Y28000
X26283Y27500
X26283Y27000
X61533Y19000
X83533Y32500
X101283Y28000
X101283Y27500
X101283Y27000
X103533Y25000
X109533Y24500
X109533Y25500
X109533Y26500
X109533Y27500
X109533Y28500
X109533Y29500
X109533Y30500
X112533Y30500
X112533Y29500
X112533Y28500
X112533Y27500
X112533Y26500
X112533Y25500
X112533Y24500
X113533Y24500
X115533Y24500
X115533Y25500
X115533Y26500
X115533Y27500
X118533Y27500
X118533Y26500
X118533Y25500
X118533Y24500
X121033Y24500
X121033Y25500
X121033Y26500
X121033Y27500
X124033Y27500
X124033Y26500
X124033Y25500
X124033Y24500
X124033Y22500
X122033Y22500
X118533Y22500
X116533Y22500
X115533Y20500
X115533Y19500
X115533Y18500
X115533Y17500
X115533Y16500
X115533Y15500
X115533Y14500
X118533Y14500
X118533Y15500
X118533Y16500
X118533Y17500
X118533Y18500
X118533Y19500
X118533Y20500
X112533Y20500
X112533Y19500
X112533Y18500
X112533Y17500
X112533Y16500
X112533Y15500
X112533Y14500
X109533Y14500
X109533Y15500
X109533Y16500
X109533Y17500
X109533Y18500
X109533Y19500
X109533Y20500
X110533Y22500
X112533Y22500
X103033Y16000
X101283Y12000
X101283Y11500
X101283Y11000
X103033Y8500
X104033Y8500
X105533Y8500
X106533Y8500
X108033Y8500
X109033Y8500
X110533Y8500
X111533Y8500
X113033Y8500
X114033Y8500
X115533Y8500
X116533Y8500
X118033Y8500
X119033Y8500
X120533Y8500
X121533Y8500
X123033Y8500
X124033Y8500
X123533Y7500
X124533Y7500
X122033Y7500
X121033Y7500
X119533Y7500
X118533Y7500
X117033Y7500
X116033Y7500
X114533Y7500
X113533Y7500
X112033Y7500
X111033Y7500
X109533Y7500
X108533Y7500
X107033Y7500
X106033Y7500
X104533Y7500
X103533Y7500
X115533Y30500
X115533Y31500
X115533Y32500
X115533Y33500
X118533Y33500
X118533Y32500
X118533Y31500
X119533Y31000
X118533Y30500
X121033Y30500
X121033Y31500
X121033Y32500
X121033Y33500
X124033Y33500
X124033Y32500
X124033Y31500
X124033Y30500
X112533Y33500
X112533Y34500
X112533Y35500
X112533Y36500
X112533Y37500
X113533Y37500
X112533Y38500
X112533Y39500
X109533Y39500
X109533Y38500
X109533Y37500
X109533Y36500
X109533Y35500
X109533Y34500
X109033Y34000
X108533Y33500
X108033Y33000
X107533Y32500
X107033Y32000
X109533Y33500
X102533Y33500
X104033Y37000
X103533Y39000
X101283Y44000
X101283Y44500
X101283Y45000
X115533Y39500
X115533Y38500
X115533Y37500
X115533Y36500
X118533Y36500
X118533Y37500
X118533Y38500
X118533Y39500
X121033Y39500
X121033Y38500
X121033Y37500
X121033Y36500
X124033Y36500
X124033Y37500
X124033Y38500
X124033Y39500
X76283Y44000
X76283Y44500
X76283Y45000
X51283Y45000
X51283Y44500
X51283Y44000
X26283Y44000
X26283Y44500
X26283Y45000
T02
X30033Y39500
X31033Y39500
X31033Y38500
X30033Y38500
X30033Y37500
X31033Y37500
X31033Y36500
X30033Y36500
X30033Y35500
X31033Y35500
X31033Y34500
X30033Y34500
X30033Y33500
X31033Y33500
X31033Y32500
X30033Y32500
X30033Y31500
X31033Y31500
X31033Y30500
X30033Y30500
X30033Y29500
X31033Y29500
X31033Y28500
X30033Y28500
X30033Y27500
X31033Y27500
X31033Y26500
X30033Y26500
X30033Y25500
X31033Y25500
X31033Y24500
X30033Y24500
X30033Y23500
X31033Y23500
X31033Y22500
X30033Y22500
X30033Y21500
X31033Y21500
X31033Y20500
X30033Y20500
X30033Y19500
X31033Y19500
X31033Y18500
X30033Y18500
X30033Y17500
X31033Y17500
X31033Y16500
X30033Y16500
X30033Y15500
X31033Y15500
X55033Y15500
X56033Y15500
X56033Y16500
X55033Y16500
X55033Y17500
X56033Y17500
X56033Y18500
X55033Y18500
X55033Y19500
X56033Y19500
X56033Y20500
X55033Y20500
X55033Y21500
X56033Y21500
X56033Y22500
X55033Y22500
X55033Y23500
X56033Y23500
X56033Y24500
X55033Y24500
X55033Y25500
X56033Y25500
X56033Y26500
X55033Y26500
X55033Y27500
X56033Y27500
X56033Y28500
X55033Y28500
X55033Y29500
X56033Y29500
X56033Y30500
X55033Y30500
X55033Y31500
X56033Y31500
X56033Y32500
X55033Y32500
X55033Y33500
X56033Y33500
X56033Y34500
X55033Y34500
X55033Y35500
X56033Y35500
X56033Y36500
X55033Y36500
X55033Y37500
X56033Y37500
X56033Y38500
X55033Y38500
X55033Y39500
X56033Y39500
X80033Y39500
X81033Y39500
X81033Y38500
X80033Y38500
X80033Y37500
X81033Y37500
X81033Y36500
X80033Y36500
X80033Y35500
X81033Y35500
X81033Y34500
X80033Y34500
X80033Y33500
X81033Y33500
X81033Y32500
X80033Y32500
X80033Y31500
X81033Y31500
X81033Y30500
X80033Y30500
X80033Y29500
X81033Y29500
X81033Y28500
X80033Y28500
X80033Y27500
X81033Y27500
X81033Y26500
X80033Y26500
X80033Y25500
X81033Y25500
X81033Y24500
X80033Y24500
X80033Y23500
X81033Y23500
X81033Y22500
X80033Y22500
X80033Y21500
X81033Y21500
X81033Y20500
X80033Y20500
X80033Y19500
X81033Y19500
X81033Y18500
X80033Y18500
X80033Y17500
X81033Y17500
X81033Y16500
X80033Y16500
X80033Y15500
X81033Y15500
X105033Y15500
X106033Y15500
X106033Y16500
X105033Y16500
X105033Y17500
X106033Y17500
X106033Y18500
X105033Y18500
X105033Y19500
X106033Y19500
X106033Y20500
X105033Y20500
X105033Y21500
X106033Y21500
X106033Y22500
X105033Y22500
X105033Y23500
X106033Y23500
X106033Y24500
X105033Y24500
X105033Y25500
X106033Y25500
X106033Y26500
X105033Y26500
X105033Y27500
X106033Y27500
X106033Y28500
X105033Y28500
X105033Y29500
X106033Y29500
X106033Y30500
X105033Y30500
X105033Y31500
X106033Y31500
X106033Y32500
X105033Y32500
X105033Y33500
X106033Y33500
X106033Y34500
X105033Y34500
X105033Y35500
X106033Y35500
X106033Y36500
X105033Y36500
X105033Y37500
X106033Y37500
X106033Y38500
X105033Y38500
X105033Y39500
X106033Y39500
X6033Y39500
X5033Y39500
X5033Y38500
X6033Y38500
X6033Y37500
X5033Y37500
X5033Y36500
X6033Y36500
X6033Y35500
X5033Y35500
X5033Y34500
X6033Y34500
X6033Y33500
X5033Y33500
X5033Y32500
X6033Y32500
X6033Y31500
X5033Y31500
X5033Y30500
X6033Y30500
X6033Y29500
X5033Y29500
X5033Y28500
X6033Y28500
X6033Y27500
X5033Y27500
X5033Y26500
X6033Y26500
X6033Y25500
X5033Y25500
X5033Y24500
X6033Y24500
X6033Y23500
X5033Y23500
X5033Y22500
X6033Y22500
X6033Y21500
X5033Y21500
X5033Y20500
X6033Y20500
X6033Y19500
X5033Y19500
X5033Y18500
X6033Y18500
X6033Y17500
X5033Y17500
X5033Y16500
X6033Y16500
X6033Y15500
X5033Y15500
T03
X17533Y15500
X18533Y15500
X18533Y16500
X17533Y16500
X17533Y17500
X18533Y17500
X18533Y18500
X17533Y18500
X17533Y19500
X18533Y19500
X18533Y20500
X17533Y20500
X17533Y21500
X18533Y21500
X18533Y22500
X17533Y22500
T04
X23803Y48000
X28803Y48000
X48803Y48000
X53783Y48000
X73783Y48000
X78783Y48000
X98783Y48000
X103783Y48000
X123783Y48000
X3803Y48000
M30
