G75*
%MOIN*%
%OFA0B0*%
%FSLAX24Y24*%
%IPPOS*%
%LPD*%
%AMOC8*
5,1,8,0,0,1.08239X$1,22.5*
%
%ADD10OC8,0.0624*%
%ADD11R,0.0960X0.5320*%
%ADD12C,0.1500*%
%ADD13C,0.0384*%
%ADD14OC8,0.0720*%
%ADD15OC8,0.0672*%
%ADD16OC8,0.0846*%
%ADD17C,0.1560*%
%ADD18C,0.0576*%
D10*
X021533Y014500D03*
X023533Y014500D03*
X024533Y016500D03*
X024533Y017500D03*
X024533Y018500D03*
X024533Y019500D03*
X024533Y020500D03*
X024533Y021500D03*
X024533Y022500D03*
X021533Y022500D03*
X021533Y021500D03*
X021533Y020500D03*
X021533Y019500D03*
X021533Y018500D03*
X021533Y017500D03*
X021533Y016500D03*
X014533Y016500D03*
X014533Y015500D03*
X011533Y015500D03*
X010533Y015500D03*
X011533Y016500D03*
X011533Y017500D03*
X010533Y017500D03*
X011533Y018500D03*
X011533Y019500D03*
X011533Y020500D03*
X011533Y021500D03*
X011533Y022500D03*
X014533Y022500D03*
X014533Y021500D03*
X014533Y020500D03*
X014533Y019500D03*
X014533Y018500D03*
X014533Y017500D03*
X034533Y018500D03*
X036033Y018500D03*
X036033Y019500D03*
X034533Y019500D03*
X034533Y020500D03*
X036033Y020500D03*
X036033Y021500D03*
X034533Y021500D03*
X034533Y022500D03*
X036033Y022500D03*
X036033Y023500D03*
X034533Y023500D03*
X034533Y024500D03*
X036033Y024500D03*
X036033Y025500D03*
X034533Y025500D03*
X034533Y026500D03*
X036033Y026500D03*
X036033Y027500D03*
X034533Y027500D03*
X034533Y028500D03*
X036033Y028500D03*
X036033Y029500D03*
X034533Y029500D03*
X034533Y030500D03*
X036033Y030500D03*
X036033Y031500D03*
X034533Y031500D03*
X039033Y031500D03*
X039033Y030500D03*
X039033Y029500D03*
X039033Y028500D03*
X039033Y027500D03*
X039033Y026500D03*
X039033Y025500D03*
X039033Y024500D03*
X039033Y023500D03*
X039033Y022500D03*
X039033Y021500D03*
X039033Y020500D03*
X039033Y019500D03*
X039033Y018500D03*
X040533Y018500D03*
X042533Y018500D03*
X044033Y018500D03*
X044033Y019500D03*
X042533Y019500D03*
X040533Y019500D03*
X040533Y020500D03*
X042533Y020500D03*
X044033Y020500D03*
X044033Y021500D03*
X042533Y021500D03*
X040533Y021500D03*
X040533Y022500D03*
X042533Y022500D03*
X044033Y022500D03*
X044033Y023500D03*
X042533Y023500D03*
X040533Y023500D03*
X040533Y024500D03*
X042533Y024500D03*
X044033Y024500D03*
X044033Y025500D03*
X042533Y025500D03*
X040533Y025500D03*
X040533Y026500D03*
X042533Y026500D03*
X044033Y026500D03*
X044033Y027500D03*
X042533Y027500D03*
X040533Y027500D03*
X040533Y028500D03*
X042533Y028500D03*
X044033Y028500D03*
X044033Y029500D03*
X042533Y029500D03*
X040533Y029500D03*
X040533Y030500D03*
X042533Y030500D03*
X044033Y030500D03*
X044033Y031500D03*
X042533Y031500D03*
X040533Y031500D03*
X040533Y033500D03*
X038533Y033500D03*
X043533Y033500D03*
X045533Y033500D03*
X047033Y031500D03*
X048533Y031500D03*
X048533Y030500D03*
X047033Y030500D03*
X047033Y029500D03*
X048533Y029500D03*
X048533Y028500D03*
X047033Y028500D03*
X047033Y027500D03*
X048533Y027500D03*
X048533Y026500D03*
X047033Y026500D03*
X047033Y025500D03*
X048533Y025500D03*
X048533Y024500D03*
X047033Y024500D03*
X047033Y023500D03*
X048533Y023500D03*
X048533Y022500D03*
X047033Y022500D03*
X047033Y021500D03*
X048533Y021500D03*
X048533Y020500D03*
X047033Y020500D03*
X047033Y019500D03*
X048533Y019500D03*
X048533Y018500D03*
X047033Y018500D03*
X065533Y018500D03*
X065533Y017500D03*
X065533Y016500D03*
X065533Y015500D03*
X068533Y015500D03*
X068533Y016500D03*
X068533Y017500D03*
X068533Y018500D03*
X068533Y019500D03*
X068533Y020500D03*
X068533Y021500D03*
X068533Y022500D03*
X068533Y023500D03*
X068533Y024500D03*
X065533Y024500D03*
X065533Y023500D03*
X065533Y022500D03*
X065533Y021500D03*
X065533Y020500D03*
X065533Y019500D03*
X066533Y026500D03*
X068533Y026500D03*
X068533Y028500D03*
X068533Y029500D03*
X068533Y030500D03*
X068533Y031500D03*
X068533Y032500D03*
X068533Y033500D03*
X068533Y034500D03*
X068533Y035500D03*
X068533Y036500D03*
X068533Y037500D03*
X065533Y037500D03*
X065533Y036500D03*
X065533Y035500D03*
X065533Y034500D03*
X065533Y033500D03*
X065533Y032500D03*
X065533Y031500D03*
X065533Y030500D03*
X065533Y029500D03*
X065533Y028500D03*
X088533Y028500D03*
X088533Y029500D03*
X088533Y030500D03*
X088533Y031500D03*
X088533Y032500D03*
X088533Y033500D03*
X088533Y034500D03*
X088533Y035500D03*
X088533Y036500D03*
X088533Y037500D03*
X091533Y037500D03*
X091533Y036500D03*
X091533Y035500D03*
X091533Y034500D03*
X091533Y033500D03*
X091533Y032500D03*
X091533Y031500D03*
X091533Y030500D03*
X091533Y029500D03*
X091533Y028500D03*
X091533Y026500D03*
X089533Y026500D03*
X088533Y024500D03*
X088533Y023500D03*
X088533Y022500D03*
X088533Y021500D03*
X088533Y020500D03*
X088533Y019500D03*
X088533Y018500D03*
X088533Y017500D03*
X088533Y016500D03*
X088533Y015500D03*
X091533Y015500D03*
X091533Y016500D03*
X091533Y017500D03*
X091533Y018500D03*
X091533Y019500D03*
X091533Y020500D03*
X091533Y021500D03*
X091533Y022500D03*
X091533Y023500D03*
X091533Y024500D03*
X109533Y024500D03*
X109533Y023500D03*
X112533Y023500D03*
X112533Y024500D03*
X112533Y025500D03*
X112533Y026500D03*
X112533Y027500D03*
X112533Y028500D03*
X112533Y029500D03*
X109533Y029500D03*
X109533Y028500D03*
X109533Y027500D03*
X109533Y026500D03*
X109533Y025500D03*
X115533Y023500D03*
X116533Y023500D03*
X117533Y023500D03*
X117533Y022500D03*
X118533Y021000D03*
X120533Y021000D03*
X120533Y019500D03*
X120533Y018500D03*
X121533Y018500D03*
X122533Y018500D03*
X120533Y017500D03*
X120533Y016500D03*
X121533Y016500D03*
X120533Y015500D03*
X120533Y014500D03*
X122533Y014500D03*
X120533Y013500D03*
X120533Y012500D03*
X117533Y012500D03*
X117533Y013500D03*
X116533Y013500D03*
X115533Y013500D03*
X117533Y014500D03*
X117533Y015500D03*
X116533Y015500D03*
X117533Y016500D03*
X117533Y017500D03*
X115533Y017500D03*
X117533Y018500D03*
X117533Y019500D03*
X112533Y019500D03*
X112533Y018500D03*
X112533Y017500D03*
X112533Y016500D03*
X112533Y015500D03*
X112533Y014500D03*
X112533Y013500D03*
X109533Y013500D03*
X109533Y014500D03*
X109533Y015500D03*
X109533Y016500D03*
X109533Y017500D03*
X109533Y018500D03*
X109533Y019500D03*
X110533Y021000D03*
X112533Y021000D03*
X117533Y024500D03*
X117533Y025500D03*
X116533Y025500D03*
X117533Y026500D03*
X117533Y027500D03*
X115533Y027500D03*
X117533Y028500D03*
X117533Y029500D03*
X118533Y031000D03*
X120533Y031000D03*
X120533Y029500D03*
X120533Y028500D03*
X121533Y028500D03*
X122533Y028500D03*
X120533Y027500D03*
X120533Y026500D03*
X121533Y026500D03*
X120533Y025500D03*
X120533Y024500D03*
X122533Y024500D03*
X120533Y023500D03*
X120533Y022500D03*
X112533Y031000D03*
X110533Y031000D03*
X115533Y033500D03*
X116533Y033500D03*
X117533Y033500D03*
X117533Y032500D03*
X120533Y032500D03*
X120533Y033500D03*
X120533Y034500D03*
X122533Y034500D03*
X120533Y035500D03*
X120533Y036500D03*
X121533Y036500D03*
X120533Y037500D03*
X120533Y038500D03*
X121533Y038500D03*
X122533Y038500D03*
X120533Y039500D03*
X120533Y041000D03*
X118533Y041000D03*
X117533Y039500D03*
X117533Y038500D03*
X117533Y037500D03*
X115533Y037500D03*
X117533Y036500D03*
X117533Y035500D03*
X116533Y035500D03*
X117533Y034500D03*
X091533Y039500D03*
X089533Y039500D03*
X068533Y039500D03*
X066533Y039500D03*
X103533Y008500D03*
X107533Y008500D03*
X112033Y008500D03*
X116033Y008500D03*
D11*
X003158Y003625D03*
X004408Y003625D03*
X005658Y003625D03*
X006908Y003625D03*
X008158Y003625D03*
X009408Y003625D03*
X010658Y003625D03*
X011908Y003625D03*
X013158Y003625D03*
X014408Y003625D03*
X015658Y003625D03*
X016908Y003625D03*
X018158Y003625D03*
X019408Y003625D03*
X020658Y003625D03*
X021908Y003625D03*
X023158Y003625D03*
X024408Y003625D03*
X028158Y003625D03*
X029408Y003625D03*
X030658Y003625D03*
X031908Y003625D03*
X033158Y003625D03*
X034408Y003625D03*
X035658Y003625D03*
X036908Y003625D03*
X038158Y003625D03*
X039408Y003625D03*
X040658Y003625D03*
X041908Y003625D03*
X043158Y003625D03*
X044408Y003625D03*
X045658Y003625D03*
X046908Y003625D03*
X048158Y003625D03*
X049408Y003625D03*
X053158Y003625D03*
X054408Y003625D03*
X055658Y003625D03*
X056908Y003625D03*
X058158Y003625D03*
X059408Y003625D03*
X060658Y003625D03*
X061908Y003625D03*
X063158Y003625D03*
X064408Y003625D03*
X065658Y003625D03*
X066908Y003625D03*
X068158Y003625D03*
X069408Y003625D03*
X070658Y003625D03*
X071908Y003625D03*
X073158Y003625D03*
X074408Y003625D03*
X078158Y003625D03*
X079408Y003625D03*
X080658Y003625D03*
X081908Y003625D03*
X083158Y003625D03*
X084408Y003625D03*
X085658Y003625D03*
X086908Y003625D03*
X088158Y003625D03*
X089408Y003625D03*
X090658Y003625D03*
X091908Y003625D03*
X093158Y003625D03*
X094408Y003625D03*
X095658Y003625D03*
X096908Y003625D03*
X098158Y003625D03*
X099408Y003625D03*
X103158Y003625D03*
X104408Y003625D03*
X105658Y003625D03*
X106908Y003625D03*
X108158Y003625D03*
X109408Y003625D03*
X110658Y003625D03*
X111908Y003625D03*
X113158Y003625D03*
X114408Y003625D03*
X115658Y003625D03*
X116908Y003625D03*
X118158Y003625D03*
X119408Y003625D03*
X120658Y003625D03*
X121908Y003625D03*
X123158Y003625D03*
X124408Y003625D03*
D12*
X123783Y048000D03*
X103783Y048000D03*
X098783Y048000D03*
X078783Y048000D03*
X073783Y048000D03*
X053783Y048000D03*
X048803Y048000D03*
X028803Y048000D03*
X023803Y048000D03*
X003803Y048000D03*
D13*
X026283Y045000D03*
X026283Y044500D03*
X026283Y044000D03*
X051283Y044000D03*
X051283Y044500D03*
X051283Y045000D03*
X076283Y045000D03*
X076283Y044500D03*
X076283Y044000D03*
X101283Y044000D03*
X101283Y044500D03*
X101283Y045000D03*
X101283Y028000D03*
X101283Y027500D03*
X101283Y027000D03*
X076283Y027000D03*
X076283Y027500D03*
X076283Y028000D03*
X051283Y028000D03*
X051283Y027500D03*
X051283Y027000D03*
X026283Y027000D03*
X026283Y027500D03*
X026283Y028000D03*
X026283Y012000D03*
X026283Y011500D03*
X026283Y011000D03*
X051283Y011000D03*
X051283Y011500D03*
X051283Y012000D03*
X076283Y012000D03*
X076283Y011500D03*
X076283Y011000D03*
X101283Y011000D03*
X101283Y011500D03*
X101283Y012000D03*
D14*
X018533Y015500D03*
X017533Y015500D03*
X017533Y016500D03*
X018533Y016500D03*
X018533Y017500D03*
X017533Y017500D03*
X017533Y018500D03*
X018533Y018500D03*
X018533Y019500D03*
X017533Y019500D03*
X017533Y020500D03*
X018533Y020500D03*
X018533Y021500D03*
X017533Y021500D03*
X017533Y022500D03*
X018533Y022500D03*
D15*
X030033Y022500D03*
X031033Y022500D03*
X031033Y021500D03*
X030033Y021500D03*
X030033Y020500D03*
X031033Y020500D03*
X031033Y019500D03*
X030033Y019500D03*
X030033Y018500D03*
X031033Y018500D03*
X031033Y017500D03*
X030033Y017500D03*
X030033Y016500D03*
X031033Y016500D03*
X031033Y015500D03*
X030033Y015500D03*
X030033Y023500D03*
X031033Y023500D03*
X031033Y024500D03*
X030033Y024500D03*
X030033Y025500D03*
X031033Y025500D03*
X031033Y026500D03*
X030033Y026500D03*
X030033Y027500D03*
X031033Y027500D03*
X031033Y028500D03*
X030033Y028500D03*
X030033Y029500D03*
X031033Y029500D03*
X031033Y030500D03*
X030033Y030500D03*
X030033Y031500D03*
X031033Y031500D03*
X031033Y032500D03*
X030033Y032500D03*
X030033Y033500D03*
X031033Y033500D03*
X031033Y034500D03*
X030033Y034500D03*
X030033Y035500D03*
X031033Y035500D03*
X031033Y036500D03*
X030033Y036500D03*
X030033Y037500D03*
X031033Y037500D03*
X031033Y038500D03*
X030033Y038500D03*
X030033Y039500D03*
X031033Y039500D03*
X055033Y039500D03*
X056033Y039500D03*
X056033Y038500D03*
X055033Y038500D03*
X055033Y037500D03*
X056033Y037500D03*
X056033Y036500D03*
X055033Y036500D03*
X055033Y035500D03*
X056033Y035500D03*
X056033Y034500D03*
X055033Y034500D03*
X055033Y033500D03*
X056033Y033500D03*
X056033Y032500D03*
X055033Y032500D03*
X055033Y031500D03*
X056033Y031500D03*
X056033Y030500D03*
X055033Y030500D03*
X055033Y029500D03*
X056033Y029500D03*
X056033Y028500D03*
X055033Y028500D03*
X055033Y027500D03*
X056033Y027500D03*
X056033Y026500D03*
X055033Y026500D03*
X055033Y025500D03*
X056033Y025500D03*
X056033Y024500D03*
X055033Y024500D03*
X055033Y023500D03*
X056033Y023500D03*
X056033Y022500D03*
X055033Y022500D03*
X055033Y021500D03*
X056033Y021500D03*
X056033Y020500D03*
X055033Y020500D03*
X055033Y019500D03*
X056033Y019500D03*
X056033Y018500D03*
X055033Y018500D03*
X055033Y017500D03*
X056033Y017500D03*
X056033Y016500D03*
X055033Y016500D03*
X055033Y015500D03*
X056033Y015500D03*
X080033Y015500D03*
X081033Y015500D03*
X081033Y016500D03*
X080033Y016500D03*
X080033Y017500D03*
X081033Y017500D03*
X081033Y018500D03*
X080033Y018500D03*
X080033Y019500D03*
X081033Y019500D03*
X081033Y020500D03*
X080033Y020500D03*
X080033Y021500D03*
X081033Y021500D03*
X081033Y022500D03*
X080033Y022500D03*
X080033Y023500D03*
X081033Y023500D03*
X081033Y024500D03*
X080033Y024500D03*
X080033Y025500D03*
X081033Y025500D03*
X081033Y026500D03*
X080033Y026500D03*
X080033Y027500D03*
X081033Y027500D03*
X081033Y028500D03*
X080033Y028500D03*
X080033Y029500D03*
X081033Y029500D03*
X081033Y030500D03*
X080033Y030500D03*
X080033Y031500D03*
X081033Y031500D03*
X081033Y032500D03*
X080033Y032500D03*
X080033Y033500D03*
X081033Y033500D03*
X081033Y034500D03*
X080033Y034500D03*
X080033Y035500D03*
X081033Y035500D03*
X081033Y036500D03*
X080033Y036500D03*
X080033Y037500D03*
X081033Y037500D03*
X081033Y038500D03*
X080033Y038500D03*
X080033Y039500D03*
X081033Y039500D03*
X105033Y039500D03*
X106033Y039500D03*
X106033Y038500D03*
X105033Y038500D03*
X105033Y037500D03*
X106033Y037500D03*
X106033Y036500D03*
X105033Y036500D03*
X105033Y035500D03*
X106033Y035500D03*
X106033Y034500D03*
X105033Y034500D03*
X105033Y033500D03*
X106033Y033500D03*
X106033Y032500D03*
X105033Y032500D03*
X105033Y031500D03*
X106033Y031500D03*
X106033Y030500D03*
X105033Y030500D03*
X105033Y029500D03*
X106033Y029500D03*
X106033Y028500D03*
X105033Y028500D03*
X105033Y027500D03*
X106033Y027500D03*
X106033Y026500D03*
X105033Y026500D03*
X105033Y025500D03*
X106033Y025500D03*
X106033Y024500D03*
X105033Y024500D03*
X105033Y023500D03*
X106033Y023500D03*
X106033Y022500D03*
X105033Y022500D03*
X105033Y021500D03*
X106033Y021500D03*
X106033Y020500D03*
X105033Y020500D03*
X105033Y019500D03*
X106033Y019500D03*
X106033Y018500D03*
X105033Y018500D03*
X105033Y017500D03*
X106033Y017500D03*
X106033Y016500D03*
X105033Y016500D03*
X105033Y015500D03*
X106033Y015500D03*
X006033Y015500D03*
X005033Y015500D03*
X005033Y016500D03*
X006033Y016500D03*
X006033Y017500D03*
X005033Y017500D03*
X005033Y018500D03*
X006033Y018500D03*
X006033Y019500D03*
X005033Y019500D03*
X005033Y020500D03*
X006033Y020500D03*
X006033Y021500D03*
X005033Y021500D03*
X005033Y022500D03*
X006033Y022500D03*
X006033Y023500D03*
X005033Y023500D03*
X005033Y024500D03*
X006033Y024500D03*
X006033Y025500D03*
X005033Y025500D03*
X005033Y026500D03*
X006033Y026500D03*
X006033Y027500D03*
X005033Y027500D03*
X005033Y028500D03*
X006033Y028500D03*
X006033Y029500D03*
X005033Y029500D03*
X005033Y030500D03*
X006033Y030500D03*
X006033Y031500D03*
X005033Y031500D03*
X005033Y032500D03*
X006033Y032500D03*
X006033Y033500D03*
X005033Y033500D03*
X005033Y034500D03*
X006033Y034500D03*
X006033Y035500D03*
X005033Y035500D03*
X005033Y036500D03*
X006033Y036500D03*
X006033Y037500D03*
X005033Y037500D03*
X005033Y038500D03*
X006033Y038500D03*
X006033Y039500D03*
X005033Y039500D03*
D16*
X007549Y043500D03*
X009518Y043500D03*
D17*
X004533Y044500D03*
X023533Y044500D03*
X029533Y044500D03*
X048533Y044500D03*
X054533Y044500D03*
X073533Y044500D03*
X079533Y044500D03*
X098533Y044500D03*
X104533Y044500D03*
X123533Y044500D03*
X104533Y011500D03*
X079533Y011500D03*
X054533Y011500D03*
X029533Y011500D03*
X004533Y011500D03*
D18*
X003033Y008000D03*
X006533Y008000D03*
X012033Y008000D03*
X014533Y008000D03*
X017033Y008000D03*
X019533Y008000D03*
X020533Y008000D03*
X032033Y008000D03*
X034533Y008000D03*
X037033Y008000D03*
X039533Y008000D03*
X042033Y008000D03*
X044533Y008000D03*
X045533Y008000D03*
X047033Y008000D03*
X053033Y008000D03*
X055533Y008000D03*
X057033Y008000D03*
X059533Y008000D03*
X062033Y008000D03*
X064533Y008000D03*
X067033Y008000D03*
X069533Y008000D03*
X070533Y008000D03*
X071533Y008000D03*
X078033Y008000D03*
X080533Y008000D03*
X082033Y008000D03*
X084533Y008000D03*
X087033Y008000D03*
X089533Y008000D03*
X092033Y008000D03*
X094533Y008000D03*
X095533Y008000D03*
X097033Y008000D03*
X105533Y008000D03*
X114533Y008000D03*
X117033Y008000D03*
X119533Y007000D03*
X120533Y007000D03*
X111033Y014000D03*
X119533Y017500D03*
X111533Y024500D03*
X113533Y025500D03*
X115033Y025000D03*
X119533Y027500D03*
X111533Y029000D03*
X111033Y028000D03*
X107033Y026500D03*
X107033Y025500D03*
X087533Y022000D03*
X084533Y020500D03*
X087033Y020000D03*
X085033Y018500D03*
X086533Y018000D03*
X085533Y016500D03*
X086033Y016000D03*
X079033Y014500D03*
X078533Y017000D03*
X078033Y019000D03*
X077533Y020000D03*
X084033Y022500D03*
X086533Y027500D03*
X083533Y032500D03*
X102533Y033500D03*
X104033Y036000D03*
X119533Y037500D03*
X066533Y015500D03*
X068033Y015000D03*
X064033Y017000D03*
X061533Y019000D03*
X057533Y020000D03*
X058033Y021500D03*
X061033Y021000D03*
X058533Y023500D03*
X057033Y024500D03*
X052533Y028000D03*
X052033Y030000D03*
X054033Y032000D03*
X053533Y034000D03*
X053033Y036000D03*
X060033Y034500D03*
X059533Y032500D03*
X063033Y031500D03*
X062033Y031000D03*
X059033Y030500D03*
X062533Y029000D03*
X060533Y036500D03*
X043533Y015500D03*
X035033Y015500D03*
M02*
