G75*
G70*
%OFA0B0*%
%FSLAX24Y24*%
%IPPOS*%
%LPD*%
%AMOC8*
5,1,8,0,0,1.08239X$1,22.5*
%
%ADD10C,0.0110*%
%ADD11R,0.5160X0.0750*%
%ADD12OC8,0.0520*%
%ADD13OC8,0.0630*%
%ADD14C,0.0150*%
%ADD15C,0.0400*%
%ADD16C,0.0160*%
%ADD17C,0.0100*%
D10*
X005233Y002885D02*
X005037Y002688D01*
X005627Y002688D01*
X005627Y003081D02*
X005037Y003081D01*
X005233Y002885D01*
X005135Y003332D02*
X005037Y003431D01*
X005627Y003431D01*
X005627Y003529D02*
X005627Y003332D01*
X006037Y003332D02*
X006037Y003628D01*
X006135Y003726D01*
X006332Y003726D01*
X006430Y003628D01*
X006430Y003332D01*
X006627Y003332D02*
X006037Y003332D01*
X006037Y003081D02*
X006430Y003081D01*
X006627Y002885D01*
X006430Y002688D01*
X006037Y002688D01*
X006430Y003529D02*
X006627Y003726D01*
X006529Y003977D02*
X006627Y004075D01*
X006627Y004272D01*
X006529Y004370D01*
X006430Y004370D01*
X006332Y004272D01*
X006332Y004075D01*
X006233Y003977D01*
X006135Y003977D01*
X006037Y004075D01*
X006037Y004272D01*
X006135Y004370D01*
X005627Y004406D02*
X005627Y004603D01*
X005627Y004505D02*
X005037Y004505D01*
X005135Y004406D01*
X005037Y003968D02*
X005627Y003968D01*
X005627Y004066D02*
X005627Y003869D01*
X005135Y003869D02*
X005037Y003968D01*
X005627Y004944D02*
X005037Y005337D01*
X005037Y005588D02*
X005233Y005785D01*
X005037Y005982D01*
X005627Y005982D01*
X005627Y006233D02*
X005627Y006429D01*
X005627Y006331D02*
X005037Y006331D01*
X005135Y006233D01*
X005135Y006770D02*
X005037Y006868D01*
X005627Y006868D01*
X005627Y006770D02*
X005627Y006966D01*
X005529Y007307D02*
X005627Y007405D01*
X005627Y007602D01*
X005529Y007700D01*
X005430Y007700D01*
X005332Y007602D01*
X005332Y007504D01*
X005332Y007602D02*
X005233Y007700D01*
X005135Y007700D01*
X005037Y007602D01*
X005037Y007405D01*
X005135Y007307D01*
X005627Y007951D02*
X005037Y008345D01*
X005037Y008596D02*
X005233Y008793D01*
X005037Y008989D01*
X005627Y008989D01*
X005627Y009240D02*
X005627Y009437D01*
X005627Y009339D02*
X005037Y009339D01*
X005135Y009240D01*
X005135Y009777D02*
X005037Y009876D01*
X005627Y009876D01*
X005627Y009974D02*
X005627Y009777D01*
X005529Y010315D02*
X005627Y010413D01*
X005627Y010610D01*
X005529Y010708D01*
X005332Y010708D01*
X005233Y010610D01*
X005233Y010511D01*
X005332Y010315D01*
X005037Y010315D01*
X005037Y010708D01*
X005627Y010959D02*
X005037Y011353D01*
X005037Y011604D02*
X005233Y011800D01*
X005037Y011997D01*
X005627Y011997D01*
X005627Y012248D02*
X005627Y012445D01*
X005627Y012346D02*
X005037Y012346D01*
X005135Y012248D01*
X005135Y012785D02*
X005037Y012884D01*
X005627Y012884D01*
X005627Y012982D02*
X005627Y012785D01*
X005627Y013322D02*
X005529Y013322D01*
X005135Y013716D01*
X005037Y013716D01*
X005037Y013322D01*
X005627Y013967D02*
X005037Y014360D01*
X005037Y014611D02*
X005233Y014808D01*
X005037Y015005D01*
X005627Y015005D01*
X005627Y015256D02*
X005627Y015453D01*
X005627Y015354D02*
X005037Y015354D01*
X005135Y015256D01*
X005135Y015793D02*
X005037Y015891D01*
X005627Y015891D01*
X005627Y015793D02*
X005627Y015990D01*
X005529Y016330D02*
X005627Y016428D01*
X005627Y016625D01*
X005529Y016724D01*
X005135Y016724D01*
X005037Y016625D01*
X005037Y016428D01*
X005135Y016330D01*
X005233Y016330D01*
X005332Y016428D01*
X005332Y016724D01*
X005627Y016975D02*
X005037Y017368D01*
X005037Y017619D02*
X005233Y017816D01*
X005037Y018013D01*
X005627Y018013D01*
X005627Y018264D02*
X005233Y018657D01*
X005135Y018657D01*
X005037Y018559D01*
X005037Y018362D01*
X005135Y018264D01*
X005627Y018264D02*
X005627Y018657D01*
X005529Y018908D02*
X005627Y019007D01*
X005627Y019203D01*
X005529Y019302D01*
X005135Y019302D01*
X005529Y018908D01*
X005135Y018908D01*
X005037Y019007D01*
X005037Y019203D01*
X005135Y019302D01*
X005332Y019553D02*
X005332Y019848D01*
X005430Y019946D01*
X005529Y019946D01*
X005627Y019848D01*
X005627Y019651D01*
X005529Y019553D01*
X005332Y019553D01*
X005135Y019749D01*
X005037Y019946D01*
X005627Y020197D02*
X005037Y020591D01*
X005037Y020842D02*
X005233Y021039D01*
X005037Y021235D01*
X005627Y021235D01*
X005627Y021486D02*
X005233Y021880D01*
X005135Y021880D01*
X005037Y021781D01*
X005037Y021585D01*
X005135Y021486D01*
X005627Y021486D02*
X005627Y021880D01*
X005529Y022131D02*
X005627Y022229D01*
X005627Y022426D01*
X005529Y022524D01*
X005135Y022524D01*
X005529Y022131D01*
X005135Y022131D01*
X005037Y022229D01*
X005037Y022426D01*
X005135Y022524D01*
X005135Y022775D02*
X005233Y022775D01*
X005332Y022874D01*
X005332Y023169D01*
X005529Y023169D02*
X005135Y023169D01*
X005037Y023071D01*
X005037Y022874D01*
X005135Y022775D01*
X005529Y022775D02*
X005627Y022874D01*
X005627Y023071D01*
X005529Y023169D01*
X005627Y020842D02*
X005037Y020842D01*
X005037Y017619D02*
X005627Y017619D01*
X005627Y014611D02*
X005037Y014611D01*
X005037Y011604D02*
X005627Y011604D01*
X005627Y008596D02*
X005037Y008596D01*
X005037Y005588D02*
X005627Y005588D01*
D11*
X046995Y003735D03*
X047057Y004798D03*
X047057Y005923D03*
X047057Y007173D03*
X047057Y008423D03*
X047057Y009673D03*
X047057Y010923D03*
X047057Y012173D03*
X047057Y013423D03*
X047057Y014673D03*
X047057Y015923D03*
X047057Y017173D03*
X047057Y018423D03*
X047057Y019673D03*
X047057Y020923D03*
X047057Y022173D03*
X047057Y023423D03*
X047057Y024548D03*
D12*
X040182Y017133D03*
X038182Y017133D03*
X035182Y017133D03*
X033182Y017133D03*
X029682Y017133D03*
X027682Y017133D03*
X024682Y017133D03*
X022682Y017133D03*
X020182Y017133D03*
X018182Y017133D03*
X015682Y017133D03*
X013682Y017133D03*
X011182Y017133D03*
X009182Y017133D03*
X009182Y010633D03*
X011182Y010633D03*
X013682Y010633D03*
X015682Y010633D03*
X018182Y010633D03*
X020182Y010633D03*
X022682Y010633D03*
X024682Y010633D03*
X027682Y010633D03*
X029682Y010633D03*
X033182Y010633D03*
X035182Y010633D03*
X038182Y010633D03*
X040182Y010633D03*
X040182Y004133D03*
X038182Y004133D03*
X035182Y004133D03*
X033182Y004133D03*
X029682Y004133D03*
X027682Y004133D03*
X024682Y004133D03*
X022682Y004133D03*
X020182Y004133D03*
X018182Y004133D03*
X015682Y004133D03*
X013682Y004133D03*
X011182Y004133D03*
X009182Y004133D03*
X026682Y022133D03*
X026682Y023133D03*
X026682Y024133D03*
X026682Y025133D03*
X030682Y025133D03*
X030682Y024133D03*
X030682Y023133D03*
X030682Y022133D03*
D13*
X016182Y022133D03*
X016182Y023133D03*
X016182Y024133D03*
X016182Y025133D03*
X012182Y025133D03*
X012182Y024133D03*
X012182Y023133D03*
X012182Y022133D03*
D14*
X013932Y023633D02*
X014932Y024633D01*
X018182Y024633D01*
X018682Y024133D01*
X025432Y024133D01*
X025682Y024383D01*
X026682Y023383D01*
X026682Y023133D01*
X026432Y023133D01*
X024182Y023133D01*
X025682Y024383D02*
X026432Y025133D01*
X026682Y025133D01*
X027932Y021633D02*
X028432Y021133D01*
X032182Y021133D01*
X036682Y021133D01*
X043182Y021133D01*
X043932Y021883D01*
X037182Y021633D02*
X036682Y021133D01*
X037432Y017633D02*
X034432Y017633D01*
X033932Y017133D01*
X033432Y017133D01*
X033182Y017133D01*
X032432Y016633D02*
X034432Y016633D01*
X034932Y017133D01*
X035182Y017133D01*
X035432Y017133D01*
X035932Y016633D01*
X039432Y016633D01*
X039932Y017133D01*
X040182Y017133D01*
X038182Y017133D02*
X037932Y017133D01*
X037432Y017633D01*
X032432Y016633D02*
X031932Y017133D01*
X029932Y017133D01*
X029682Y017133D01*
X029432Y017133D01*
X028932Y017633D01*
X026432Y017633D01*
X025932Y017133D01*
X024932Y017133D01*
X024682Y017133D01*
X024682Y015883D02*
X020432Y015883D01*
X019432Y016633D02*
X017932Y016633D01*
X017432Y017133D01*
X015932Y017133D01*
X015682Y017133D01*
X014682Y015883D02*
X018182Y015883D01*
X019432Y016633D02*
X019932Y017133D01*
X020182Y017133D01*
X019932Y017633D02*
X019432Y017133D01*
X018432Y017133D01*
X018182Y017133D01*
X019932Y017633D02*
X021932Y017633D01*
X022432Y017133D01*
X022682Y017133D01*
X022682Y015133D02*
X022932Y014883D01*
X027432Y014883D01*
X027682Y015133D01*
X031432Y011633D02*
X031682Y011883D01*
X031432Y011633D02*
X029932Y011633D01*
X028932Y010633D01*
X027932Y010633D01*
X027682Y010633D01*
X027432Y010633D01*
X026932Y011133D01*
X024182Y011133D01*
X023682Y010633D01*
X022932Y010633D01*
X022682Y010633D01*
X023932Y010133D02*
X020932Y010133D01*
X020432Y010633D01*
X020182Y010633D01*
X019932Y010633D01*
X019432Y010133D01*
X016432Y010133D01*
X015932Y010633D01*
X015682Y010633D01*
X015432Y011133D02*
X015182Y010883D01*
X015182Y010383D01*
X013682Y010383D01*
X013682Y010633D01*
X013432Y010633D01*
X011432Y010633D01*
X011182Y010633D01*
X009182Y010633D02*
X008932Y010633D01*
X006682Y010633D01*
X006682Y007633D01*
X008182Y006133D01*
X008182Y004383D01*
X009182Y004383D01*
X009182Y004133D01*
X009182Y003883D01*
X010432Y002633D01*
X013182Y002633D01*
X013432Y002883D01*
X012932Y003383D02*
X013182Y003633D01*
X014432Y003633D01*
X014932Y004133D01*
X015432Y004133D01*
X015682Y004133D01*
X015932Y004133D01*
X016182Y004383D01*
X017682Y004383D01*
X017932Y004633D01*
X020932Y004633D01*
X020432Y004133D01*
X020182Y004133D01*
X019932Y003633D02*
X019682Y003883D01*
X018682Y003883D01*
X018432Y004133D01*
X018182Y004133D01*
X019932Y003633D02*
X019932Y003383D01*
X019932Y003633D02*
X023432Y003633D01*
X022932Y004133D01*
X022682Y004133D01*
X023432Y003633D02*
X024932Y003633D01*
X025432Y004133D01*
X027432Y004133D01*
X027682Y004133D01*
X027432Y004633D02*
X027182Y004383D01*
X025182Y004383D01*
X024932Y004133D01*
X024682Y004133D01*
X024432Y004133D01*
X023932Y004633D01*
X020932Y004633D01*
X027432Y004633D02*
X028932Y004633D01*
X029432Y004133D01*
X029682Y004133D01*
X029932Y004133D01*
X030432Y003633D01*
X035932Y003633D01*
X039432Y003633D01*
X039932Y004133D01*
X040182Y004133D01*
X040432Y004133D01*
X044182Y004133D01*
X044432Y003883D01*
X046995Y003735D01*
X047057Y005923D02*
X044682Y005633D01*
X044432Y005633D01*
X043432Y004633D01*
X038932Y004633D01*
X038432Y004133D01*
X038182Y004133D01*
X037932Y004133D01*
X037432Y004633D01*
X033932Y004633D01*
X033432Y004133D01*
X033182Y004133D01*
X032932Y004133D01*
X032182Y004883D01*
X028682Y004883D01*
X028432Y005133D01*
X035182Y004133D02*
X035432Y004133D01*
X035932Y003633D01*
X035432Y010133D02*
X033932Y010133D01*
X033432Y010633D01*
X033182Y010633D01*
X032932Y010633D01*
X031682Y010633D01*
X030682Y011383D02*
X029932Y010633D01*
X029682Y010633D01*
X029682Y010383D01*
X028932Y010383D01*
X028682Y010133D01*
X025432Y010133D01*
X024932Y010633D01*
X024682Y010633D01*
X024432Y010633D01*
X023932Y010133D01*
X018182Y010633D02*
X017932Y010633D01*
X017432Y011133D01*
X015432Y011133D01*
X009182Y010883D02*
X009182Y010633D01*
X009182Y010883D02*
X009182Y011883D01*
X008432Y012633D01*
X008682Y012633D01*
X008682Y015883D01*
X009182Y017133D02*
X009182Y017383D01*
X009682Y017383D01*
X009682Y019633D01*
X010432Y018633D02*
X010432Y018383D01*
X010182Y018133D01*
X010182Y017383D01*
X011182Y017383D01*
X011182Y017133D01*
X011432Y017133D01*
X013432Y017133D01*
X013682Y017133D01*
X013682Y016883D01*
X014682Y015883D01*
X008432Y012633D02*
X008182Y012633D01*
X010682Y005883D02*
X011932Y004633D01*
X011432Y004133D01*
X011182Y004133D01*
X011932Y004633D02*
X012432Y004133D01*
X013432Y004133D01*
X013682Y004133D01*
X030682Y011383D02*
X034682Y011383D01*
X034682Y011633D01*
X034682Y011383D02*
X039682Y011383D01*
X040182Y010883D01*
X040182Y010633D01*
X040432Y010633D01*
X041682Y010633D01*
X038182Y010633D02*
X037932Y010633D01*
X035932Y010633D01*
X035432Y010133D01*
D15*
X036182Y009883D03*
X037182Y009883D03*
X037682Y010133D03*
X038932Y010633D03*
X039432Y010633D03*
X040932Y011133D03*
X041682Y010633D03*
X040682Y009633D03*
X041182Y008633D03*
X041182Y008133D03*
X041182Y007633D03*
X041182Y007133D03*
X040182Y008633D03*
X039682Y008633D03*
X038932Y008883D03*
X036182Y007633D03*
X036182Y007133D03*
X036182Y006633D03*
X036182Y006133D03*
X036932Y005883D03*
X038682Y005633D03*
X039432Y005133D03*
X038682Y006633D03*
X037182Y007133D03*
X034682Y007883D03*
X033682Y007383D03*
X032182Y007633D03*
X030682Y008633D03*
X031682Y009133D03*
X033682Y009383D03*
X034182Y009383D03*
X034682Y009383D03*
X031682Y010633D03*
X029682Y009383D03*
X029182Y009383D03*
X028682Y009633D03*
X028182Y008883D03*
X026682Y007883D03*
X025932Y008133D03*
X025682Y008883D03*
X024182Y008133D03*
X023182Y006633D03*
X021682Y007133D03*
X021182Y006133D03*
X019182Y006633D03*
X018932Y007133D03*
X018682Y007883D03*
X017182Y008633D03*
X017182Y009133D03*
X018682Y008883D03*
X020182Y009883D03*
X022182Y009383D03*
X019682Y011133D03*
X018682Y012133D03*
X019182Y012633D03*
X018682Y013633D03*
X019682Y013883D03*
X019182Y015133D03*
X018182Y015883D03*
X017432Y016383D03*
X016682Y016633D03*
X017182Y017633D03*
X017182Y018133D03*
X018682Y018633D03*
X018932Y017633D03*
X020932Y016883D03*
X020432Y015883D03*
X022682Y015133D03*
X021682Y014633D03*
X021682Y013883D03*
X023182Y013633D03*
X023182Y013133D03*
X023682Y012633D03*
X024182Y012133D03*
X023182Y011633D03*
X021682Y012133D03*
X021182Y012633D03*
X024182Y013633D03*
X026682Y013133D03*
X028182Y013633D03*
X028182Y014133D03*
X029182Y014633D03*
X027682Y015133D03*
X028682Y015633D03*
X028932Y016883D03*
X030432Y017633D03*
X031432Y017633D03*
X032182Y018133D03*
X032182Y018633D03*
X031682Y018883D03*
X031182Y018883D03*
X032182Y019633D03*
X031682Y019883D03*
X031182Y019883D03*
X032182Y021133D03*
X034182Y021633D03*
X036182Y020633D03*
X037182Y020133D03*
X038682Y019383D03*
X038682Y018883D03*
X039182Y017883D03*
X037182Y018633D03*
X034682Y020133D03*
X033932Y019633D03*
X033682Y018883D03*
X033682Y017633D03*
X031932Y016383D03*
X030932Y016383D03*
X031682Y015633D03*
X032682Y015133D03*
X032182Y014633D03*
X031682Y013133D03*
X030682Y013133D03*
X030682Y012133D03*
X031682Y011883D03*
X032182Y012133D03*
X034682Y011633D03*
X036932Y012633D03*
X037182Y011883D03*
X038682Y011883D03*
X038682Y012383D03*
X039182Y013133D03*
X039682Y013133D03*
X041182Y014133D03*
X041932Y014133D03*
X042932Y014383D03*
X043932Y013383D03*
X043932Y012883D03*
X043932Y011883D03*
X043182Y010133D03*
X043682Y008383D03*
X043682Y007883D03*
X043932Y006133D03*
X040682Y003633D03*
X039432Y003133D03*
X036182Y002883D03*
X033682Y005633D03*
X030682Y005383D03*
X028682Y005883D03*
X028182Y006133D03*
X028182Y006633D03*
X028432Y007383D03*
X026682Y006883D03*
X026682Y006133D03*
X025682Y006133D03*
X026432Y004883D03*
X028432Y005133D03*
X026432Y003633D03*
X024682Y002883D03*
X021182Y003133D03*
X019932Y003383D03*
X019432Y003383D03*
X018682Y003133D03*
X019182Y002633D03*
X017682Y003633D03*
X015682Y003133D03*
X015182Y003133D03*
X015182Y003633D03*
X013932Y002633D03*
X013432Y002883D03*
X012932Y003383D03*
X012432Y003383D03*
X010432Y003383D03*
X010432Y004383D03*
X009682Y005633D03*
X009682Y006133D03*
X010682Y005883D03*
X012182Y005383D03*
X012182Y006633D03*
X012182Y007133D03*
X012182Y007633D03*
X012682Y008133D03*
X010682Y007633D03*
X010432Y008383D03*
X009682Y008133D03*
X008182Y008133D03*
X008182Y006133D03*
X008432Y003883D03*
X014182Y005133D03*
X014682Y005883D03*
X014682Y006383D03*
X014182Y006883D03*
X014682Y007383D03*
X015182Y007133D03*
X014932Y008133D03*
X016932Y007383D03*
X016682Y006633D03*
X017182Y005633D03*
X016682Y004883D03*
X018682Y005633D03*
X023182Y005633D03*
X023182Y005133D03*
X014182Y009883D03*
X013182Y009883D03*
X014682Y010883D03*
X015182Y012383D03*
X014182Y012383D03*
X014182Y013383D03*
X014182Y013883D03*
X014432Y014383D03*
X015182Y013383D03*
X016932Y013883D03*
X017182Y013133D03*
X017182Y011883D03*
X016932Y014883D03*
X014682Y016633D03*
X012682Y016633D03*
X011682Y016633D03*
X012182Y017633D03*
X010682Y017883D03*
X010432Y018633D03*
X010682Y019133D03*
X009682Y019633D03*
X009682Y020133D03*
X010182Y020133D03*
X009682Y020633D03*
X007682Y021633D03*
X008932Y023133D03*
X010182Y022133D03*
X012682Y022633D03*
X014182Y023133D03*
X013932Y023633D03*
X015682Y022633D03*
X014932Y022133D03*
X014432Y021133D03*
X014182Y020633D03*
X015182Y020383D03*
X015182Y019883D03*
X016682Y019633D03*
X017182Y019383D03*
X017182Y020133D03*
X018682Y019633D03*
X019182Y019633D03*
X019682Y020883D03*
X017432Y021883D03*
X018182Y022133D03*
X020682Y022133D03*
X021182Y023133D03*
X022182Y022133D03*
X023432Y022883D03*
X024182Y023133D03*
X025432Y023633D03*
X027432Y023633D03*
X028432Y022633D03*
X028682Y021633D03*
X027932Y021633D03*
X029182Y020633D03*
X028182Y020383D03*
X029182Y019883D03*
X028682Y019383D03*
X028182Y019633D03*
X029182Y018883D03*
X026682Y019633D03*
X025682Y020633D03*
X024182Y019883D03*
X023182Y020383D03*
X023682Y020883D03*
X023182Y019383D03*
X024182Y018633D03*
X023182Y018133D03*
X021182Y018633D03*
X024682Y015883D03*
X025932Y015883D03*
X025932Y015383D03*
X026182Y011633D03*
X028932Y011383D03*
X036182Y013633D03*
X036182Y014133D03*
X036182Y014633D03*
X037182Y014883D03*
X036182Y015633D03*
X036682Y015883D03*
X038682Y014883D03*
X039432Y014883D03*
X039682Y015883D03*
X042432Y017883D03*
X041432Y018883D03*
X041932Y019883D03*
X043182Y019383D03*
X043682Y018883D03*
X043932Y018383D03*
X039182Y020633D03*
X039682Y021633D03*
X041182Y022383D03*
X041682Y022133D03*
X042432Y023133D03*
X042432Y023633D03*
X041932Y024133D03*
X041182Y023883D03*
X043432Y023133D03*
X043932Y023133D03*
X043932Y021883D03*
X037182Y021633D03*
X036682Y022383D03*
X034682Y023383D03*
X035682Y023883D03*
X037182Y024133D03*
X036182Y025383D03*
X031432Y025133D03*
X019932Y025383D03*
X019682Y024633D03*
X018682Y024133D03*
X016932Y025383D03*
X011682Y024633D03*
X010682Y025883D03*
X006182Y023133D03*
X012182Y020883D03*
X012432Y019633D03*
X012682Y019133D03*
X014182Y017883D03*
X009932Y015633D03*
X009432Y015633D03*
X008682Y015883D03*
X009432Y016133D03*
X012682Y015133D03*
X010682Y014133D03*
X009682Y013633D03*
X008182Y012633D03*
X008182Y012133D03*
X009682Y012383D03*
X010682Y012133D03*
X009682Y011133D03*
X008682Y010133D03*
X012182Y012883D03*
X007182Y019133D03*
X043932Y015383D03*
D16*
X042682Y017113D02*
X042682Y017595D01*
X042647Y017561D01*
X042508Y017503D01*
X042356Y017503D01*
X042217Y017561D01*
X042110Y017667D01*
X042052Y017807D01*
X042052Y017958D01*
X042110Y018098D01*
X042165Y018153D01*
X039449Y018153D01*
X039504Y018098D01*
X039562Y017958D01*
X039562Y017807D01*
X039504Y017667D01*
X039397Y017561D01*
X039258Y017503D01*
X039106Y017503D01*
X038967Y017561D01*
X038860Y017667D01*
X038802Y017807D01*
X038802Y017903D01*
X033949Y017903D01*
X034004Y017848D01*
X034062Y017708D01*
X034062Y017557D01*
X034004Y017417D01*
X033897Y017311D01*
X033758Y017253D01*
X033622Y017253D01*
X033622Y017133D01*
X033182Y017133D01*
X032742Y017133D01*
X032742Y017315D01*
X032830Y017403D01*
X031739Y017403D01*
X031724Y017388D01*
X031826Y017388D01*
X032038Y017388D01*
X032538Y016888D01*
X032805Y016888D01*
X032742Y016951D01*
X032742Y017133D01*
X033182Y017133D01*
X033182Y017403D01*
X033182Y017403D01*
X033182Y017133D01*
X033182Y016888D01*
X033182Y016888D01*
X033182Y017133D01*
X033622Y017133D01*
X033622Y016951D01*
X033559Y016888D01*
X034326Y016888D01*
X034742Y017303D01*
X034742Y017315D01*
X035000Y017573D01*
X035364Y017573D01*
X035622Y017315D01*
X035622Y017303D01*
X035687Y017238D01*
X036038Y016888D01*
X037805Y016888D01*
X037742Y016951D01*
X037742Y017133D01*
X037742Y017315D01*
X038000Y017573D01*
X038182Y017573D01*
X038182Y017133D01*
X037742Y017133D01*
X038182Y017133D01*
X038182Y017573D01*
X038364Y017573D01*
X038622Y017315D01*
X038622Y017133D01*
X038182Y017133D01*
X038182Y016888D01*
X038182Y016888D01*
X038182Y017133D01*
X038622Y017133D01*
X038622Y016951D01*
X038559Y016888D01*
X039326Y016888D01*
X039677Y017238D01*
X039742Y017303D01*
X039742Y017315D01*
X040000Y017573D01*
X040364Y017573D01*
X040622Y017315D01*
X040622Y017113D01*
X042682Y017113D01*
X042682Y017170D02*
X040622Y017170D01*
X040608Y017329D02*
X042682Y017329D01*
X042682Y017487D02*
X040450Y017487D01*
X039914Y017487D02*
X038450Y017487D01*
X038608Y017329D02*
X039756Y017329D01*
X039609Y017170D02*
X038622Y017170D01*
X038622Y017011D02*
X039450Y017011D01*
X039482Y017646D02*
X042132Y017646D01*
X042053Y017804D02*
X039561Y017804D01*
X039560Y017963D02*
X042054Y017963D01*
X042133Y018121D02*
X039481Y018121D01*
X038803Y017804D02*
X034022Y017804D01*
X034062Y017646D02*
X038882Y017646D01*
X038182Y017487D02*
X038182Y017487D01*
X038182Y017329D02*
X038182Y017329D01*
X038182Y017170D02*
X038182Y017170D01*
X038182Y017011D02*
X038182Y017011D01*
X037742Y017011D02*
X035914Y017011D01*
X035755Y017170D02*
X037742Y017170D01*
X037756Y017329D02*
X035608Y017329D01*
X035450Y017487D02*
X037914Y017487D01*
X034914Y017487D02*
X034033Y017487D01*
X033915Y017329D02*
X034756Y017329D01*
X034609Y017170D02*
X033622Y017170D01*
X033622Y017011D02*
X034450Y017011D01*
X033182Y017011D02*
X033182Y017011D01*
X033182Y017170D02*
X033182Y017170D01*
X033182Y017329D02*
X033182Y017329D01*
X032756Y017329D02*
X032097Y017329D01*
X032255Y017170D02*
X032742Y017170D01*
X032742Y017011D02*
X032414Y017011D01*
X028941Y017263D02*
X028826Y017378D01*
X028059Y017378D01*
X028122Y017315D01*
X028122Y017133D01*
X027682Y017133D01*
X027242Y017133D01*
X027242Y017315D01*
X027305Y017378D01*
X026538Y017378D01*
X026187Y017027D01*
X026038Y016878D01*
X025049Y016878D01*
X025034Y016863D01*
X027330Y016863D01*
X027242Y016951D01*
X027242Y017133D01*
X027682Y017133D01*
X027682Y017378D01*
X027682Y017378D01*
X027682Y017133D01*
X027682Y016863D01*
X027682Y016863D01*
X027682Y017133D01*
X028122Y017133D01*
X028122Y016951D01*
X028034Y016863D01*
X028552Y016863D01*
X028552Y016958D01*
X028610Y017098D01*
X028717Y017205D01*
X028856Y017263D01*
X028941Y017263D01*
X028876Y017329D02*
X028108Y017329D01*
X028122Y017170D02*
X028682Y017170D01*
X028574Y017011D02*
X028122Y017011D01*
X027682Y017011D02*
X027682Y017011D01*
X027682Y017170D02*
X027682Y017170D01*
X027682Y017329D02*
X027682Y017329D01*
X027256Y017329D02*
X026488Y017329D01*
X026330Y017170D02*
X027242Y017170D01*
X027242Y017011D02*
X026171Y017011D01*
X024330Y016863D02*
X024242Y016951D01*
X024242Y017315D01*
X024330Y017403D01*
X023087Y017403D01*
X022952Y017537D01*
X022952Y017538D01*
X022837Y017653D01*
X019312Y017653D01*
X019312Y017557D01*
X019254Y017417D01*
X019147Y017311D01*
X019008Y017253D01*
X018856Y017253D01*
X018717Y017311D01*
X018610Y017417D01*
X018552Y017557D01*
X018552Y017708D01*
X018610Y017848D01*
X018665Y017903D01*
X017489Y017903D01*
X017469Y017883D01*
X017504Y017848D01*
X017562Y017708D01*
X017562Y017557D01*
X017504Y017417D01*
X017474Y017388D01*
X017538Y017388D01*
X017687Y017238D01*
X017742Y017183D01*
X017742Y017315D01*
X018000Y017573D01*
X018182Y017573D01*
X018182Y017133D01*
X017792Y017133D01*
X017793Y017133D01*
X018182Y017133D01*
X018182Y017573D01*
X018364Y017573D01*
X018622Y017315D01*
X018622Y017133D01*
X018182Y017133D01*
X018182Y016888D01*
X018182Y016888D01*
X018182Y017133D01*
X018622Y017133D01*
X018622Y016951D01*
X018559Y016888D01*
X019326Y016888D01*
X019677Y017238D01*
X019742Y017303D01*
X019742Y017315D01*
X020000Y017573D01*
X020364Y017573D01*
X020622Y017315D01*
X020622Y017110D01*
X020717Y017205D01*
X020856Y017263D01*
X021008Y017263D01*
X021147Y017205D01*
X021254Y017098D01*
X021312Y016958D01*
X021312Y016863D01*
X022330Y016863D01*
X022242Y016951D01*
X022242Y017133D01*
X022242Y017315D01*
X022500Y017573D01*
X022682Y017573D01*
X022682Y017133D01*
X022242Y017133D01*
X022682Y017133D01*
X022682Y017573D01*
X022864Y017573D01*
X023122Y017315D01*
X023122Y017133D01*
X022682Y017133D01*
X022682Y016863D01*
X022682Y016863D01*
X022682Y017133D01*
X023122Y017133D01*
X023122Y016951D01*
X023034Y016863D01*
X024330Y016863D01*
X024242Y017011D02*
X023122Y017011D01*
X023122Y017170D02*
X024242Y017170D01*
X024256Y017329D02*
X023108Y017329D01*
X023002Y017487D02*
X022950Y017487D01*
X022844Y017646D02*
X019312Y017646D01*
X019283Y017487D02*
X019914Y017487D01*
X019756Y017329D02*
X019165Y017329D01*
X019450Y017011D02*
X018622Y017011D01*
X018622Y017170D02*
X019609Y017170D01*
X020450Y017487D02*
X022414Y017487D01*
X022256Y017329D02*
X020608Y017329D01*
X020622Y017170D02*
X020682Y017170D01*
X021182Y017170D02*
X022242Y017170D01*
X022242Y017011D02*
X021290Y017011D01*
X022682Y017011D02*
X022682Y017011D01*
X022682Y017170D02*
X022682Y017170D01*
X022682Y017329D02*
X022682Y017329D01*
X022682Y017487D02*
X022682Y017487D01*
X020165Y016153D02*
X017739Y016153D01*
X017647Y016061D01*
X017508Y016003D01*
X017356Y016003D01*
X017217Y016061D01*
X017110Y016167D01*
X017052Y016307D01*
X017052Y016458D01*
X017110Y016598D01*
X017217Y016705D01*
X017356Y016763D01*
X017441Y016763D01*
X017326Y016878D01*
X016974Y016878D01*
X017004Y016848D01*
X017062Y016708D01*
X017062Y016557D01*
X017004Y016417D01*
X016897Y016311D01*
X016758Y016253D01*
X016606Y016253D01*
X016467Y016311D01*
X016375Y016403D01*
X014989Y016403D01*
X014897Y016311D01*
X014758Y016253D01*
X014606Y016253D01*
X014467Y016311D01*
X014360Y016417D01*
X014302Y016557D01*
X014302Y016708D01*
X014360Y016848D01*
X014467Y016955D01*
X014606Y017013D01*
X014758Y017013D01*
X014897Y016955D01*
X014989Y016863D01*
X015330Y016863D01*
X015242Y016951D01*
X015242Y017315D01*
X015500Y017573D01*
X015864Y017573D01*
X016049Y017388D01*
X016890Y017388D01*
X016860Y017417D01*
X016802Y017557D01*
X016802Y017688D01*
X016337Y018153D01*
X014449Y018153D01*
X014504Y018098D01*
X014562Y017958D01*
X014562Y017807D01*
X014504Y017667D01*
X014397Y017561D01*
X014258Y017503D01*
X014106Y017503D01*
X013967Y017561D01*
X013860Y017667D01*
X013802Y017807D01*
X013802Y017903D01*
X012449Y017903D01*
X012504Y017848D01*
X012562Y017708D01*
X012562Y017557D01*
X012504Y017417D01*
X012397Y017311D01*
X012258Y017253D01*
X012106Y017253D01*
X011967Y017311D01*
X011860Y017417D01*
X011802Y017557D01*
X011802Y017653D01*
X010989Y017653D01*
X010897Y017561D01*
X010758Y017503D01*
X010606Y017503D01*
X010467Y017561D01*
X010360Y017667D01*
X010302Y017807D01*
X010302Y017958D01*
X010360Y018098D01*
X010467Y018205D01*
X010606Y018263D01*
X010758Y018263D01*
X010897Y018205D01*
X010989Y018113D01*
X011377Y018113D01*
X010737Y018753D01*
X010606Y018753D01*
X010467Y018811D01*
X010360Y018917D01*
X010302Y019057D01*
X010302Y019153D01*
X010162Y019153D01*
X010162Y016037D01*
X010099Y015975D01*
X010147Y015955D01*
X010254Y015848D01*
X010312Y015708D01*
X010312Y015557D01*
X010254Y015417D01*
X010147Y015311D01*
X010008Y015253D01*
X009877Y015253D01*
X009527Y014903D01*
X009412Y014903D01*
X009412Y013900D01*
X009467Y013955D01*
X009606Y014013D01*
X009737Y014013D01*
X010452Y014728D01*
X010587Y014863D01*
X012415Y014863D01*
X012360Y014917D01*
X012302Y015057D01*
X012302Y015208D01*
X012360Y015348D01*
X012467Y015455D01*
X012515Y015475D01*
X011737Y016253D01*
X011606Y016253D01*
X011467Y016311D01*
X011360Y016417D01*
X011302Y016557D01*
X011302Y016693D01*
X011182Y016693D01*
X011000Y016693D01*
X010742Y016951D01*
X010742Y017133D01*
X010742Y017315D01*
X011000Y017573D01*
X011182Y017573D01*
X011182Y017133D01*
X010742Y017133D01*
X011182Y017133D01*
X011182Y017573D01*
X011364Y017573D01*
X011622Y017315D01*
X011622Y017133D01*
X011182Y017133D01*
X011182Y016693D01*
X011182Y017133D01*
X011622Y017133D01*
X011622Y017013D01*
X011758Y017013D01*
X011897Y016955D01*
X012004Y016848D01*
X012062Y016708D01*
X012062Y016578D01*
X013027Y015613D01*
X013377Y015613D01*
X012737Y016253D01*
X012606Y016253D01*
X012467Y016311D01*
X012360Y016417D01*
X012302Y016557D01*
X012302Y016708D01*
X012360Y016848D01*
X012467Y016955D01*
X012606Y017013D01*
X012758Y017013D01*
X012897Y016955D01*
X013004Y016848D01*
X013062Y016708D01*
X013062Y016578D01*
X013777Y015863D01*
X017837Y015863D01*
X018027Y015863D01*
X018277Y015613D01*
X018837Y015613D01*
X019087Y015863D01*
X019277Y015863D01*
X020052Y015863D01*
X020052Y015958D01*
X020110Y016098D01*
X020165Y016153D01*
X020094Y016060D02*
X017646Y016060D01*
X017218Y016060D02*
X013580Y016060D01*
X013738Y015902D02*
X020052Y015902D01*
X020087Y015403D02*
X019449Y015403D01*
X019504Y015348D01*
X019562Y015208D01*
X019562Y015057D01*
X019504Y014917D01*
X019449Y014863D01*
X021375Y014863D01*
X021467Y014955D01*
X021606Y015013D01*
X021758Y015013D01*
X021897Y014955D01*
X021989Y014863D01*
X028875Y014863D01*
X028915Y014903D01*
X028587Y014903D01*
X028452Y015037D01*
X028087Y015403D01*
X026312Y015403D01*
X026312Y015307D01*
X026254Y015167D01*
X026147Y015061D01*
X026008Y015003D01*
X025856Y015003D01*
X025717Y015061D01*
X025625Y015153D01*
X024587Y015153D01*
X024452Y015287D01*
X024337Y015403D01*
X022777Y015403D01*
X022527Y015153D01*
X022337Y015153D01*
X020337Y015153D01*
X020202Y015287D01*
X020202Y015288D01*
X020087Y015403D01*
X020222Y015267D02*
X019537Y015267D01*
X019562Y015109D02*
X025668Y015109D01*
X026196Y015109D02*
X028381Y015109D01*
X028539Y014950D02*
X021902Y014950D01*
X021462Y014950D02*
X019518Y014950D01*
X018967Y015743D02*
X018147Y015743D01*
X017089Y016219D02*
X013421Y016219D01*
X013263Y016377D02*
X014400Y016377D01*
X014311Y016536D02*
X013104Y016536D01*
X013062Y016694D02*
X013498Y016694D01*
X013500Y016693D02*
X013242Y016951D01*
X013242Y017133D01*
X013242Y017315D01*
X013500Y017573D01*
X013682Y017573D01*
X013682Y017133D01*
X013242Y017133D01*
X013682Y017133D01*
X013682Y017573D01*
X013864Y017573D01*
X014122Y017315D01*
X014122Y017133D01*
X013682Y017133D01*
X013682Y016693D01*
X013500Y016693D01*
X013682Y016694D02*
X013682Y016694D01*
X013682Y016693D02*
X013682Y017133D01*
X014122Y017133D01*
X014122Y016951D01*
X013864Y016693D01*
X013682Y016693D01*
X013682Y016853D02*
X013682Y016853D01*
X013682Y017011D02*
X013682Y017011D01*
X013682Y017170D02*
X013682Y017170D01*
X013682Y017329D02*
X013682Y017329D01*
X013682Y017487D02*
X013682Y017487D01*
X013882Y017646D02*
X012562Y017646D01*
X012533Y017487D02*
X013414Y017487D01*
X013256Y017329D02*
X012415Y017329D01*
X012603Y017011D02*
X011761Y017011D01*
X011622Y017170D02*
X013242Y017170D01*
X013242Y017011D02*
X012761Y017011D01*
X012999Y016853D02*
X013340Y016853D01*
X013866Y016694D02*
X014302Y016694D01*
X014365Y016853D02*
X014024Y016853D01*
X014122Y017011D02*
X014603Y017011D01*
X014761Y017011D02*
X015242Y017011D01*
X015242Y017170D02*
X014122Y017170D01*
X014108Y017329D02*
X015256Y017329D01*
X015414Y017487D02*
X013950Y017487D01*
X014482Y017646D02*
X016802Y017646D01*
X016831Y017487D02*
X015950Y017487D01*
X016527Y017963D02*
X014560Y017963D01*
X014561Y017804D02*
X016685Y017804D01*
X016368Y018121D02*
X014481Y018121D01*
X013803Y017804D02*
X012522Y017804D01*
X011802Y017646D02*
X010982Y017646D01*
X010914Y017487D02*
X010162Y017487D01*
X010162Y017329D02*
X010756Y017329D01*
X010742Y017170D02*
X010162Y017170D01*
X010162Y017011D02*
X010742Y017011D01*
X010840Y016853D02*
X010162Y016853D01*
X010162Y016694D02*
X010998Y016694D01*
X011182Y016694D02*
X011182Y016694D01*
X011182Y016853D02*
X011182Y016853D01*
X011182Y017011D02*
X011182Y017011D01*
X011182Y017170D02*
X011182Y017170D01*
X011182Y017329D02*
X011182Y017329D01*
X011182Y017487D02*
X011182Y017487D01*
X011450Y017487D02*
X011831Y017487D01*
X011949Y017329D02*
X011608Y017329D01*
X011999Y016853D02*
X012365Y016853D01*
X012302Y016694D02*
X012062Y016694D01*
X012104Y016536D02*
X012311Y016536D01*
X012263Y016377D02*
X012400Y016377D01*
X012421Y016219D02*
X012771Y016219D01*
X012929Y016060D02*
X012580Y016060D01*
X012738Y015902D02*
X013088Y015902D01*
X013246Y015743D02*
X012897Y015743D01*
X012405Y015585D02*
X010312Y015585D01*
X010298Y015743D02*
X012246Y015743D01*
X012088Y015902D02*
X010201Y015902D01*
X010162Y016060D02*
X011929Y016060D01*
X011771Y016219D02*
X010162Y016219D01*
X010162Y016377D02*
X011400Y016377D01*
X011311Y016536D02*
X010162Y016536D01*
X010162Y017646D02*
X010382Y017646D01*
X010303Y017804D02*
X010162Y017804D01*
X010162Y017963D02*
X010304Y017963D01*
X010383Y018121D02*
X010162Y018121D01*
X010162Y018280D02*
X011210Y018280D01*
X011368Y018121D02*
X010981Y018121D01*
X011051Y018438D02*
X010162Y018438D01*
X010162Y018597D02*
X010893Y018597D01*
X010600Y018755D02*
X010162Y018755D01*
X010162Y018914D02*
X010363Y018914D01*
X010302Y019073D02*
X010162Y019073D01*
X014964Y016377D02*
X016400Y016377D01*
X016964Y016377D02*
X017052Y016377D01*
X017053Y016536D02*
X017084Y016536D01*
X017062Y016694D02*
X017206Y016694D01*
X017351Y016853D02*
X016999Y016853D01*
X017597Y017329D02*
X017756Y017329D01*
X017914Y017487D02*
X017533Y017487D01*
X017562Y017646D02*
X018552Y017646D01*
X018581Y017487D02*
X018450Y017487D01*
X018608Y017329D02*
X018699Y017329D01*
X018182Y017329D02*
X018182Y017329D01*
X018182Y017487D02*
X018182Y017487D01*
X018182Y017170D02*
X018182Y017170D01*
X018182Y017011D02*
X018182Y017011D01*
X018592Y017804D02*
X017522Y017804D01*
X012438Y015426D02*
X010258Y015426D01*
X010043Y015267D02*
X012327Y015267D01*
X012302Y015109D02*
X009733Y015109D01*
X009575Y014950D02*
X012346Y014950D01*
X010516Y014792D02*
X009412Y014792D01*
X009412Y014633D02*
X010357Y014633D01*
X010199Y014475D02*
X009412Y014475D01*
X009412Y014316D02*
X010040Y014316D01*
X009882Y014158D02*
X009412Y014158D01*
X009412Y013999D02*
X009574Y013999D01*
X011182Y010903D02*
X011182Y010633D01*
X010757Y010633D01*
X010757Y010633D01*
X011182Y010633D01*
X011182Y010903D01*
X011182Y010903D01*
X011182Y010828D02*
X011182Y010828D01*
X011182Y010670D02*
X011182Y010670D01*
X011182Y010633D02*
X011622Y010633D01*
X011622Y010815D01*
X011534Y010903D01*
X013330Y010903D01*
X013242Y010815D01*
X013242Y010633D01*
X013682Y010633D01*
X013682Y010903D01*
X013682Y010903D01*
X013682Y010633D01*
X014122Y010633D01*
X014122Y010815D01*
X014034Y010903D01*
X014302Y010903D01*
X014302Y010807D01*
X014360Y010667D01*
X014467Y010561D01*
X014606Y010503D01*
X014758Y010503D01*
X014897Y010561D01*
X015004Y010667D01*
X015062Y010807D01*
X015062Y010958D01*
X015004Y011098D01*
X014949Y011153D01*
X019302Y011153D01*
X019302Y011057D01*
X019360Y010917D01*
X019467Y010811D01*
X019606Y010753D01*
X019691Y010753D01*
X019677Y010738D01*
X019677Y010738D01*
X019326Y010388D01*
X018559Y010388D01*
X018622Y010451D01*
X018622Y010633D01*
X018182Y010633D01*
X017742Y010633D01*
X017742Y010815D01*
X018000Y011073D01*
X018182Y011073D01*
X018182Y010633D01*
X018182Y011073D01*
X018364Y011073D01*
X018622Y010815D01*
X018622Y010633D01*
X018182Y010633D01*
X018182Y010388D01*
X018182Y010388D01*
X018182Y010633D01*
X017742Y010633D01*
X017742Y010451D01*
X017805Y010388D01*
X016538Y010388D01*
X016122Y010803D01*
X016122Y010815D01*
X015864Y011073D01*
X015500Y011073D01*
X015242Y010815D01*
X015242Y010451D01*
X015500Y010193D01*
X015864Y010193D01*
X015938Y010266D01*
X016177Y010027D01*
X016326Y009878D01*
X017102Y009878D01*
X016837Y009613D01*
X014449Y009613D01*
X014504Y009667D01*
X014562Y009807D01*
X014562Y009958D01*
X014504Y010098D01*
X014397Y010205D01*
X014258Y010263D01*
X014106Y010263D01*
X013967Y010205D01*
X013875Y010113D01*
X013489Y010113D01*
X013397Y010205D01*
X013258Y010263D01*
X013106Y010263D01*
X012967Y010205D01*
X012860Y010098D01*
X012802Y009958D01*
X012802Y009807D01*
X012860Y009667D01*
X012915Y009613D01*
X011777Y009613D01*
X011197Y010193D01*
X011364Y010193D01*
X011622Y010451D01*
X011622Y010633D01*
X011182Y010633D01*
X011182Y010208D01*
X011182Y010208D01*
X011182Y010633D01*
X011182Y010511D02*
X011182Y010511D01*
X011182Y010353D02*
X011182Y010353D01*
X011366Y010194D02*
X012956Y010194D01*
X012834Y010036D02*
X011354Y010036D01*
X011513Y009877D02*
X012802Y009877D01*
X012839Y009718D02*
X011671Y009718D01*
X011524Y010353D02*
X013340Y010353D01*
X013242Y010451D02*
X013500Y010193D01*
X013682Y010193D01*
X013682Y010633D01*
X013242Y010633D01*
X013242Y010451D01*
X013242Y010511D02*
X011622Y010511D01*
X011622Y010670D02*
X013242Y010670D01*
X013255Y010828D02*
X011609Y010828D01*
X013408Y010194D02*
X013498Y010194D01*
X013682Y010194D02*
X013682Y010194D01*
X013682Y010193D02*
X013682Y010633D01*
X014122Y010633D01*
X014122Y010451D01*
X013864Y010193D01*
X013682Y010193D01*
X013682Y010353D02*
X013682Y010353D01*
X013682Y010511D02*
X013682Y010511D01*
X013682Y010670D02*
X013682Y010670D01*
X013682Y010828D02*
X013682Y010828D01*
X014109Y010828D02*
X014302Y010828D01*
X014359Y010670D02*
X014122Y010670D01*
X014122Y010511D02*
X014586Y010511D01*
X014778Y010511D02*
X015242Y010511D01*
X015242Y010670D02*
X015005Y010670D01*
X015062Y010828D02*
X015255Y010828D01*
X015414Y010987D02*
X015050Y010987D01*
X014957Y011145D02*
X019302Y011145D01*
X019331Y010987D02*
X018450Y010987D01*
X018609Y010828D02*
X019449Y010828D01*
X019608Y010670D02*
X018622Y010670D01*
X018622Y010511D02*
X019450Y010511D01*
X020534Y010903D02*
X020622Y010815D01*
X020622Y010803D01*
X020687Y010738D01*
X021038Y010388D01*
X022305Y010388D01*
X022242Y010451D01*
X022242Y010633D01*
X022242Y010815D01*
X022330Y010903D01*
X020534Y010903D01*
X020609Y010828D02*
X022255Y010828D01*
X022242Y010670D02*
X020756Y010670D01*
X020914Y010511D02*
X022242Y010511D01*
X022242Y010633D02*
X022682Y010633D01*
X022242Y010633D01*
X022682Y010633D02*
X022682Y010388D01*
X022682Y010388D01*
X022682Y010633D01*
X022682Y010903D01*
X022682Y010903D01*
X022682Y010633D01*
X023122Y010633D01*
X023122Y010815D01*
X023034Y010903D01*
X023587Y010903D01*
X023777Y010903D01*
X024277Y011403D01*
X025875Y011403D01*
X025967Y011311D01*
X026106Y011253D01*
X026258Y011253D01*
X026397Y011311D01*
X026489Y011403D01*
X028552Y011403D01*
X028552Y011307D01*
X028610Y011167D01*
X028717Y011061D01*
X028856Y011003D01*
X029008Y011003D01*
X029147Y011061D01*
X029254Y011167D01*
X029312Y011307D01*
X029312Y011458D01*
X029254Y011598D01*
X029147Y011705D01*
X029008Y011763D01*
X028877Y011763D01*
X028777Y011863D01*
X026489Y011863D01*
X026449Y011903D01*
X030375Y011903D01*
X030467Y011811D01*
X030606Y011753D01*
X030758Y011753D01*
X030897Y011811D01*
X031004Y011917D01*
X031062Y012057D01*
X031062Y012208D01*
X031004Y012348D01*
X030949Y012403D01*
X031915Y012403D01*
X031860Y012348D01*
X031802Y012208D01*
X031802Y012057D01*
X031860Y011917D01*
X031967Y011811D01*
X032106Y011753D01*
X032258Y011753D01*
X032397Y011811D01*
X032489Y011903D01*
X034415Y011903D01*
X034360Y011848D01*
X034302Y011708D01*
X034302Y011638D01*
X030788Y011638D01*
X030576Y011638D01*
X029938Y010999D01*
X029864Y011073D01*
X029500Y011073D01*
X029242Y010815D01*
X029242Y010638D01*
X028826Y010638D01*
X028677Y010488D01*
X028576Y010388D01*
X028059Y010388D01*
X028122Y010451D01*
X028122Y010633D01*
X027682Y010633D01*
X027242Y010633D01*
X027242Y010815D01*
X027500Y011073D01*
X027682Y011073D01*
X027682Y010633D01*
X027682Y011073D01*
X027864Y011073D01*
X028122Y010815D01*
X028122Y010633D01*
X027682Y010633D01*
X027682Y010388D01*
X027682Y010388D01*
X027682Y010633D01*
X027242Y010633D01*
X027242Y010451D01*
X027305Y010388D01*
X025538Y010388D01*
X025187Y010738D01*
X025187Y010738D01*
X025122Y010803D01*
X025122Y010815D01*
X024864Y011073D01*
X024500Y011073D01*
X024242Y010815D01*
X024242Y010803D01*
X024177Y010738D01*
X023826Y010388D01*
X023059Y010388D01*
X023122Y010451D01*
X023122Y010633D01*
X022682Y010633D01*
X022682Y010670D02*
X022682Y010670D01*
X022682Y010828D02*
X022682Y010828D01*
X022682Y010511D02*
X022682Y010511D01*
X023122Y010511D02*
X023950Y010511D01*
X024108Y010670D02*
X023122Y010670D01*
X023109Y010828D02*
X024255Y010828D01*
X024414Y010987D02*
X023861Y010987D01*
X024020Y011145D02*
X028632Y011145D01*
X028553Y011304D02*
X026381Y011304D01*
X025983Y011304D02*
X024178Y011304D01*
X024950Y010987D02*
X027414Y010987D01*
X027255Y010828D02*
X025109Y010828D01*
X025256Y010670D02*
X027242Y010670D01*
X027242Y010511D02*
X025414Y010511D01*
X027682Y010511D02*
X027682Y010511D01*
X027682Y010670D02*
X027682Y010670D01*
X027682Y010828D02*
X027682Y010828D01*
X027682Y010987D02*
X027682Y010987D01*
X027950Y010987D02*
X029414Y010987D01*
X029255Y010828D02*
X028109Y010828D01*
X028122Y010670D02*
X029242Y010670D01*
X028700Y010511D02*
X028122Y010511D01*
X029232Y011145D02*
X030084Y011145D01*
X030243Y011304D02*
X029311Y011304D01*
X029310Y011462D02*
X030401Y011462D01*
X030560Y011621D02*
X029231Y011621D01*
X028860Y011780D02*
X030542Y011780D01*
X030822Y011780D02*
X032042Y011780D01*
X031851Y011938D02*
X031013Y011938D01*
X031062Y012097D02*
X031802Y012097D01*
X031821Y012255D02*
X031043Y012255D01*
X032322Y011780D02*
X034331Y011780D01*
X034830Y010903D02*
X033534Y010903D01*
X033622Y010815D01*
X033622Y010633D01*
X033182Y010633D01*
X032742Y010633D01*
X032742Y010815D01*
X032830Y010903D01*
X031777Y010903D01*
X030987Y010113D01*
X035875Y010113D01*
X035967Y010205D01*
X036106Y010263D01*
X036258Y010263D01*
X036397Y010205D01*
X036504Y010098D01*
X036562Y009958D01*
X036562Y009807D01*
X036504Y009667D01*
X036449Y009613D01*
X036587Y009613D01*
X036802Y009828D01*
X036802Y009958D01*
X036860Y010098D01*
X036967Y010205D01*
X037106Y010263D01*
X037258Y010263D01*
X037315Y010239D01*
X037360Y010348D01*
X037467Y010455D01*
X037606Y010513D01*
X037742Y010513D01*
X037742Y010633D01*
X037742Y010815D01*
X037830Y010903D01*
X035534Y010903D01*
X035622Y010815D01*
X035622Y010451D01*
X035364Y010193D01*
X035000Y010193D01*
X034742Y010451D01*
X034742Y010815D01*
X034830Y010903D01*
X034755Y010828D02*
X033609Y010828D01*
X033622Y010670D02*
X034742Y010670D01*
X034742Y010511D02*
X033622Y010511D01*
X033622Y010451D02*
X033364Y010193D01*
X033182Y010193D01*
X033000Y010193D01*
X032742Y010451D01*
X032742Y010633D01*
X033182Y010633D01*
X033182Y010903D01*
X033182Y010903D01*
X033182Y010633D01*
X033182Y010193D01*
X033182Y010633D01*
X033622Y010633D01*
X033622Y010451D01*
X033524Y010353D02*
X034840Y010353D01*
X034998Y010194D02*
X033366Y010194D01*
X033182Y010194D02*
X033182Y010194D01*
X033182Y010353D02*
X033182Y010353D01*
X033182Y010511D02*
X033182Y010511D01*
X033182Y010670D02*
X033182Y010670D01*
X033182Y010828D02*
X033182Y010828D01*
X032755Y010828D02*
X031703Y010828D01*
X031544Y010670D02*
X032742Y010670D01*
X032742Y010511D02*
X031386Y010511D01*
X031227Y010353D02*
X032840Y010353D01*
X032998Y010194D02*
X031069Y010194D01*
X035366Y010194D02*
X035956Y010194D01*
X036408Y010194D02*
X036956Y010194D01*
X036834Y010036D02*
X036530Y010036D01*
X036562Y009877D02*
X036802Y009877D01*
X036693Y009718D02*
X036525Y009718D01*
X037237Y009113D02*
X038625Y009113D01*
X038717Y009205D01*
X038856Y009263D01*
X039008Y009263D01*
X039147Y009205D01*
X039254Y009098D01*
X039312Y008958D01*
X039312Y008807D01*
X039254Y008667D01*
X039199Y008613D01*
X039302Y008613D01*
X039302Y008708D01*
X039360Y008848D01*
X039467Y008955D01*
X039606Y009013D01*
X039737Y009013D01*
X040302Y009578D01*
X040302Y009708D01*
X040360Y009848D01*
X040415Y009903D01*
X039527Y009903D01*
X039337Y009903D01*
X038987Y010253D01*
X038856Y010253D01*
X038717Y010311D01*
X038610Y010417D01*
X038604Y010432D01*
X038364Y010193D01*
X038182Y010193D01*
X038062Y010193D01*
X038062Y010057D01*
X038004Y009917D01*
X037912Y009825D01*
X037912Y009787D01*
X037777Y009653D01*
X037237Y009113D01*
X037367Y009243D02*
X038808Y009243D01*
X039056Y009243D02*
X039967Y009243D01*
X040125Y009401D02*
X037526Y009401D01*
X037684Y009560D02*
X040284Y009560D01*
X040306Y009718D02*
X037843Y009718D01*
X037964Y009877D02*
X040389Y009877D01*
X039808Y009084D02*
X039260Y009084D01*
X039312Y008926D02*
X039438Y008926D01*
X039326Y008767D02*
X039296Y008767D01*
X039204Y010036D02*
X038053Y010036D01*
X038182Y010193D02*
X038182Y010633D01*
X037742Y010633D01*
X038182Y010633D01*
X038182Y010903D01*
X038182Y010903D01*
X038182Y010633D01*
X038552Y010633D01*
X038552Y010633D01*
X038182Y010633D01*
X038182Y010193D01*
X038182Y010194D02*
X038182Y010194D01*
X038182Y010353D02*
X038182Y010353D01*
X038182Y010511D02*
X038182Y010511D01*
X038182Y010670D02*
X038182Y010670D01*
X038182Y010828D02*
X038182Y010828D01*
X037755Y010828D02*
X035609Y010828D01*
X035622Y010670D02*
X037742Y010670D01*
X037603Y010511D02*
X035622Y010511D01*
X035524Y010353D02*
X037365Y010353D01*
X038366Y010194D02*
X039045Y010194D01*
X038675Y010353D02*
X038524Y010353D01*
X038949Y005903D02*
X042682Y005903D01*
X042682Y004388D01*
X040549Y004388D01*
X040364Y004573D01*
X040000Y004573D01*
X039742Y004315D01*
X039742Y004303D01*
X039677Y004238D01*
X039677Y004238D01*
X039326Y003888D01*
X038559Y003888D01*
X038622Y003951D01*
X038622Y004133D01*
X038182Y004133D01*
X037742Y004133D01*
X037742Y004315D01*
X038000Y004573D01*
X038182Y004573D01*
X038182Y004133D01*
X038182Y004573D01*
X038364Y004573D01*
X038622Y004315D01*
X038622Y004133D01*
X038182Y004133D01*
X038182Y003888D01*
X038182Y003888D01*
X038182Y004133D01*
X037742Y004133D01*
X037742Y003951D01*
X037805Y003888D01*
X036038Y003888D01*
X035622Y004303D01*
X035622Y004315D01*
X035364Y004573D01*
X035000Y004573D01*
X034742Y004315D01*
X034742Y003951D01*
X034805Y003888D01*
X033559Y003888D01*
X033622Y003951D01*
X033622Y004133D01*
X033182Y004133D01*
X032742Y004133D01*
X032742Y004315D01*
X033000Y004573D01*
X033182Y004573D01*
X033182Y004133D01*
X033182Y004573D01*
X033364Y004573D01*
X033622Y004315D01*
X033622Y004133D01*
X033182Y004133D01*
X033182Y003888D01*
X033182Y003888D01*
X033182Y004133D01*
X032742Y004133D01*
X032742Y003951D01*
X032805Y003888D01*
X030538Y003888D01*
X030187Y004238D01*
X030187Y004238D01*
X030122Y004303D01*
X030122Y004315D01*
X029864Y004573D01*
X029500Y004573D01*
X029426Y004499D01*
X029038Y004888D01*
X028826Y004888D01*
X027326Y004888D01*
X027177Y004738D01*
X027076Y004638D01*
X026724Y004638D01*
X026754Y004667D01*
X026812Y004807D01*
X026812Y004903D01*
X027837Y004903D01*
X028027Y004903D01*
X028432Y005308D01*
X028452Y005287D01*
X028587Y005153D01*
X030375Y005153D01*
X030467Y005061D01*
X030606Y005003D01*
X030737Y005003D01*
X030837Y004903D01*
X039125Y004903D01*
X039217Y004811D01*
X039356Y004753D01*
X039508Y004753D01*
X039647Y004811D01*
X039754Y004917D01*
X039812Y005057D01*
X039812Y005208D01*
X039754Y005348D01*
X039647Y005455D01*
X039508Y005513D01*
X039356Y005513D01*
X039217Y005455D01*
X039125Y005363D01*
X038949Y005363D01*
X039004Y005417D01*
X039062Y005557D01*
X039062Y005708D01*
X039004Y005848D01*
X038949Y005903D01*
X039043Y005755D02*
X042682Y005755D01*
X042682Y005596D02*
X039062Y005596D01*
X039013Y005438D02*
X039200Y005438D01*
X039664Y005438D02*
X042682Y005438D01*
X042682Y005279D02*
X039783Y005279D01*
X039812Y005121D02*
X042682Y005121D01*
X042682Y004962D02*
X039773Y004962D01*
X039630Y004804D02*
X042682Y004804D01*
X042682Y004645D02*
X029280Y004645D01*
X029122Y004804D02*
X039234Y004804D01*
X039755Y004328D02*
X038609Y004328D01*
X038622Y004169D02*
X039608Y004169D01*
X039450Y004011D02*
X038622Y004011D01*
X038182Y004011D02*
X038182Y004011D01*
X038182Y004169D02*
X038182Y004169D01*
X038182Y004328D02*
X038182Y004328D01*
X038182Y004487D02*
X038182Y004487D01*
X037914Y004487D02*
X035450Y004487D01*
X035609Y004328D02*
X037755Y004328D01*
X037742Y004169D02*
X035756Y004169D01*
X035914Y004011D02*
X037742Y004011D01*
X038450Y004487D02*
X039914Y004487D01*
X040450Y004487D02*
X042682Y004487D01*
X034914Y004487D02*
X033450Y004487D01*
X033609Y004328D02*
X034755Y004328D01*
X034742Y004169D02*
X033622Y004169D01*
X033622Y004011D02*
X034742Y004011D01*
X033182Y004011D02*
X033182Y004011D01*
X033182Y004169D02*
X033182Y004169D01*
X033182Y004328D02*
X033182Y004328D01*
X033182Y004487D02*
X033182Y004487D01*
X032914Y004487D02*
X029950Y004487D01*
X030109Y004328D02*
X032755Y004328D01*
X032742Y004169D02*
X030256Y004169D01*
X030414Y004011D02*
X032742Y004011D01*
X030777Y004962D02*
X028087Y004962D01*
X028245Y005121D02*
X030407Y005121D01*
X029177Y004027D02*
X028826Y004378D01*
X028059Y004378D01*
X028122Y004315D01*
X028122Y004133D01*
X027682Y004133D01*
X027293Y004133D01*
X027292Y004133D01*
X027682Y004133D01*
X027682Y004378D01*
X027682Y004378D01*
X027682Y004133D01*
X027682Y003693D01*
X027500Y003693D01*
X027242Y003951D01*
X027242Y004128D01*
X027076Y004128D01*
X025288Y004128D01*
X025187Y004027D01*
X025122Y003962D01*
X025122Y003951D01*
X024864Y003693D01*
X024500Y003693D01*
X024242Y003951D01*
X024242Y003962D01*
X024177Y004027D01*
X023826Y004378D01*
X023059Y004378D01*
X023122Y004315D01*
X023122Y004133D01*
X022682Y004133D01*
X022242Y004133D01*
X022242Y004315D01*
X022305Y004378D01*
X021038Y004378D01*
X020687Y004027D01*
X020622Y003962D01*
X020622Y003951D01*
X020364Y003693D01*
X020000Y003693D01*
X019742Y003951D01*
X019742Y004315D01*
X019805Y004378D01*
X018559Y004378D01*
X018622Y004315D01*
X018622Y004133D01*
X018182Y004133D01*
X017793Y004133D01*
X017792Y004133D01*
X018182Y004133D01*
X018182Y004378D01*
X018182Y004378D01*
X018182Y004133D01*
X018182Y003693D01*
X018062Y003693D01*
X018062Y003557D01*
X018004Y003417D01*
X017949Y003363D01*
X018375Y003363D01*
X018467Y003455D01*
X018606Y003513D01*
X018758Y003513D01*
X018897Y003455D01*
X019004Y003348D01*
X019024Y003300D01*
X019052Y003328D01*
X019052Y003458D01*
X019110Y003598D01*
X019217Y003705D01*
X019356Y003763D01*
X019508Y003763D01*
X019647Y003705D01*
X019754Y003598D01*
X019812Y003458D01*
X019812Y003307D01*
X019754Y003167D01*
X019647Y003061D01*
X019508Y003003D01*
X019377Y003003D01*
X019349Y002975D01*
X019397Y002955D01*
X019504Y002848D01*
X019562Y002708D01*
X019562Y002613D01*
X024415Y002613D01*
X024360Y002667D01*
X024302Y002807D01*
X024302Y002958D01*
X024360Y003098D01*
X024415Y003153D01*
X021562Y003153D01*
X021562Y003057D01*
X021504Y002917D01*
X021397Y002811D01*
X021258Y002753D01*
X021106Y002753D01*
X020967Y002811D01*
X020860Y002917D01*
X020802Y003057D01*
X020802Y003208D01*
X020860Y003348D01*
X020967Y003455D01*
X021106Y003513D01*
X021237Y003513D01*
X021337Y003613D01*
X026052Y003613D01*
X026052Y003708D01*
X026110Y003848D01*
X026217Y003955D01*
X026356Y004013D01*
X026508Y004013D01*
X026647Y003955D01*
X026754Y003848D01*
X026812Y003708D01*
X026812Y003613D01*
X030091Y003613D01*
X029938Y003766D01*
X029864Y003693D01*
X029500Y003693D01*
X029242Y003951D01*
X029242Y003962D01*
X029177Y004027D01*
X029193Y004011D02*
X028122Y004011D01*
X028122Y003951D02*
X028122Y004133D01*
X027682Y004133D01*
X027682Y003693D01*
X027864Y003693D01*
X028122Y003951D01*
X028024Y003852D02*
X029340Y003852D01*
X029499Y003694D02*
X027865Y003694D01*
X027682Y003694D02*
X027682Y003694D01*
X027682Y003852D02*
X027682Y003852D01*
X027682Y004011D02*
X027682Y004011D01*
X027682Y004169D02*
X027682Y004169D01*
X027682Y004328D02*
X027682Y004328D01*
X028109Y004328D02*
X028876Y004328D01*
X029035Y004169D02*
X028122Y004169D01*
X027499Y003694D02*
X026812Y003694D01*
X026750Y003852D02*
X027340Y003852D01*
X027242Y004011D02*
X026512Y004011D01*
X026352Y004011D02*
X025171Y004011D01*
X025187Y004027D02*
X025187Y004027D01*
X025024Y003852D02*
X026114Y003852D01*
X026052Y003694D02*
X024865Y003694D01*
X024499Y003694D02*
X022865Y003694D01*
X022864Y003693D02*
X023122Y003951D01*
X023122Y004133D01*
X022682Y004133D01*
X022682Y004378D01*
X022682Y004378D01*
X022682Y004133D01*
X022682Y003693D01*
X022500Y003693D01*
X022242Y003951D01*
X022242Y004133D01*
X022682Y004133D01*
X022682Y003693D01*
X022864Y003693D01*
X022682Y003694D02*
X022682Y003694D01*
X022682Y003852D02*
X022682Y003852D01*
X022682Y004011D02*
X022682Y004011D01*
X022682Y004169D02*
X022682Y004169D01*
X022682Y004328D02*
X022682Y004328D01*
X023109Y004328D02*
X023876Y004328D01*
X024035Y004169D02*
X023122Y004169D01*
X023122Y004011D02*
X024193Y004011D01*
X024340Y003852D02*
X023024Y003852D01*
X022499Y003694D02*
X020365Y003694D01*
X020524Y003852D02*
X022340Y003852D01*
X022242Y004011D02*
X020671Y004011D01*
X020829Y004169D02*
X022242Y004169D01*
X022255Y004328D02*
X020988Y004328D01*
X019999Y003694D02*
X019658Y003694D01*
X019780Y003535D02*
X021259Y003535D01*
X020889Y003377D02*
X019812Y003377D01*
X019775Y003218D02*
X020806Y003218D01*
X020802Y003060D02*
X019645Y003060D01*
X019451Y002901D02*
X020876Y002901D01*
X021488Y002901D02*
X024302Y002901D01*
X024329Y002743D02*
X019548Y002743D01*
X019052Y003377D02*
X018975Y003377D01*
X019084Y003535D02*
X018053Y003535D01*
X017963Y003377D02*
X018389Y003377D01*
X018364Y003693D02*
X018622Y003951D01*
X018622Y004133D01*
X018182Y004133D01*
X018182Y003693D01*
X018364Y003693D01*
X018365Y003694D02*
X019206Y003694D01*
X019742Y004011D02*
X018622Y004011D01*
X018622Y004169D02*
X019742Y004169D01*
X019755Y004328D02*
X018609Y004328D01*
X018182Y004328D02*
X018182Y004328D01*
X018182Y004169D02*
X018182Y004169D01*
X018182Y004011D02*
X018182Y004011D01*
X018182Y003852D02*
X018182Y003852D01*
X018182Y003694D02*
X018182Y003694D01*
X018524Y003852D02*
X019840Y003852D01*
X021562Y003060D02*
X024344Y003060D01*
X026732Y004645D02*
X027084Y004645D01*
X027242Y004804D02*
X026811Y004804D01*
X028404Y005279D02*
X028460Y005279D01*
X029865Y003694D02*
X030010Y003694D01*
X018182Y010511D02*
X018182Y010511D01*
X018182Y010670D02*
X018182Y010670D01*
X018182Y010828D02*
X018182Y010828D01*
X018182Y010987D02*
X018182Y010987D01*
X017914Y010987D02*
X015950Y010987D01*
X016109Y010828D02*
X017755Y010828D01*
X017742Y010670D02*
X016256Y010670D01*
X016414Y010511D02*
X017742Y010511D01*
X017101Y009877D02*
X014562Y009877D01*
X014530Y010036D02*
X016169Y010036D01*
X016010Y010194D02*
X015866Y010194D01*
X015498Y010194D02*
X014408Y010194D01*
X014024Y010353D02*
X015340Y010353D01*
X014525Y009718D02*
X016943Y009718D01*
X013956Y010194D02*
X013866Y010194D01*
X010340Y007466D02*
X010162Y007287D01*
X010162Y006228D01*
X010162Y006037D01*
X010027Y005903D01*
X009989Y005903D01*
X009969Y005883D01*
X009989Y005863D01*
X010337Y005863D01*
X010527Y005863D01*
X010662Y005728D01*
X010662Y004690D01*
X010754Y004598D01*
X010812Y004458D01*
X010812Y004385D01*
X011000Y004573D01*
X011182Y004573D01*
X011182Y004133D01*
X010742Y004133D01*
X010742Y004155D01*
X010647Y004061D01*
X010599Y004041D01*
X011027Y003613D01*
X012125Y003613D01*
X012217Y003705D01*
X012356Y003763D01*
X012508Y003763D01*
X012647Y003705D01*
X012682Y003670D01*
X012717Y003705D01*
X012856Y003763D01*
X012951Y003763D01*
X013076Y003888D01*
X013305Y003888D01*
X013242Y003951D01*
X013242Y004133D01*
X013242Y004315D01*
X013330Y004403D01*
X012527Y004403D01*
X012337Y004403D01*
X010587Y006153D01*
X010587Y006153D01*
X010452Y006287D01*
X010452Y007325D01*
X010360Y007417D01*
X010340Y007466D01*
X010437Y007340D02*
X010215Y007340D01*
X010162Y007182D02*
X010452Y007182D01*
X010452Y007023D02*
X010162Y007023D01*
X010162Y006865D02*
X010452Y006865D01*
X010452Y006706D02*
X010162Y006706D01*
X010162Y006548D02*
X010452Y006548D01*
X010452Y006389D02*
X010162Y006389D01*
X010162Y006231D02*
X010509Y006231D01*
X010668Y006072D02*
X010162Y006072D01*
X010038Y005913D02*
X010826Y005913D01*
X010985Y005755D02*
X010635Y005755D01*
X010662Y005596D02*
X011143Y005596D01*
X011302Y005438D02*
X010662Y005438D01*
X010662Y005279D02*
X011460Y005279D01*
X011619Y005121D02*
X010662Y005121D01*
X010662Y004962D02*
X011777Y004962D01*
X011936Y004804D02*
X010662Y004804D01*
X010707Y004645D02*
X012094Y004645D01*
X012253Y004487D02*
X011450Y004487D01*
X011364Y004573D02*
X011622Y004315D01*
X011622Y004133D01*
X011182Y004133D01*
X011182Y004573D01*
X011364Y004573D01*
X011182Y004487D02*
X011182Y004487D01*
X011182Y004328D02*
X011182Y004328D01*
X011182Y004169D02*
X011182Y004169D01*
X011182Y004133D02*
X011182Y003693D01*
X011000Y003693D01*
X010742Y003951D01*
X010742Y004133D01*
X011182Y004133D01*
X011622Y004133D01*
X011622Y003951D01*
X011364Y003693D01*
X011182Y003693D01*
X011182Y004133D01*
X011182Y004011D02*
X011182Y004011D01*
X011182Y003852D02*
X011182Y003852D01*
X011182Y003694D02*
X011182Y003694D01*
X010999Y003694D02*
X010946Y003694D01*
X010840Y003852D02*
X010788Y003852D01*
X010742Y004011D02*
X010629Y004011D01*
X010800Y004487D02*
X010914Y004487D01*
X011609Y004328D02*
X013255Y004328D01*
X013242Y004169D02*
X011622Y004169D01*
X011622Y004011D02*
X013242Y004011D01*
X013242Y004133D02*
X013682Y004133D01*
X013242Y004133D01*
X013041Y003852D02*
X011524Y003852D01*
X011365Y003694D02*
X012206Y003694D01*
X012658Y003694D02*
X012706Y003694D01*
X013682Y003888D02*
X013682Y004133D01*
X013682Y004403D01*
X013682Y004403D01*
X013682Y004133D01*
X014122Y004133D01*
X014122Y004315D01*
X014034Y004403D01*
X015330Y004403D01*
X015315Y004388D01*
X014826Y004388D01*
X014677Y004238D01*
X014326Y003888D01*
X014059Y003888D01*
X014122Y003951D01*
X014122Y004133D01*
X013682Y004133D01*
X013682Y003888D01*
X013682Y003888D01*
X013682Y004011D02*
X013682Y004011D01*
X013682Y004169D02*
X013682Y004169D01*
X013682Y004328D02*
X013682Y004328D01*
X014109Y004328D02*
X014767Y004328D01*
X014608Y004169D02*
X014122Y004169D01*
X014122Y004011D02*
X014450Y004011D01*
X022642Y015267D02*
X024472Y015267D01*
X026296Y015267D02*
X028222Y015267D01*
X032449Y019363D02*
X033087Y019363D01*
X033202Y019478D01*
X033202Y019728D01*
X033337Y019863D01*
X034337Y020863D01*
X034527Y020863D01*
X035875Y020863D01*
X035967Y020955D01*
X036106Y021013D01*
X036258Y021013D01*
X036397Y020955D01*
X036504Y020848D01*
X036562Y020708D01*
X036562Y020557D01*
X036504Y020417D01*
X036449Y020363D01*
X036587Y020363D01*
X036952Y020728D01*
X037087Y020863D01*
X038875Y020863D01*
X038967Y020955D01*
X039106Y021013D01*
X039237Y021013D01*
X039337Y021113D01*
X042682Y021113D01*
X042682Y021558D01*
X042662Y021537D01*
X042527Y021403D01*
X039989Y021403D01*
X039897Y021311D01*
X039758Y021253D01*
X039606Y021253D01*
X039467Y021311D01*
X039360Y021417D01*
X039302Y021557D01*
X039302Y021688D01*
X038337Y022653D01*
X036949Y022653D01*
X037004Y022598D01*
X037062Y022458D01*
X037062Y022307D01*
X037004Y022167D01*
X036897Y022061D01*
X036758Y022003D01*
X036627Y022003D01*
X036162Y021537D01*
X036027Y021403D01*
X034489Y021403D01*
X034397Y021311D01*
X034258Y021253D01*
X034106Y021253D01*
X033967Y021311D01*
X033875Y021403D01*
X028989Y021403D01*
X028897Y021311D01*
X028758Y021253D01*
X028606Y021253D01*
X028467Y021311D01*
X028360Y021417D01*
X028302Y021557D01*
X028302Y021708D01*
X028360Y021848D01*
X028415Y021903D01*
X027487Y021903D01*
X028802Y020588D01*
X028802Y020708D01*
X028860Y020848D01*
X028967Y020955D01*
X029106Y021013D01*
X029258Y021013D01*
X029397Y020955D01*
X029504Y020848D01*
X029562Y020708D01*
X029562Y020613D01*
X031587Y020613D01*
X031777Y020613D01*
X032277Y020113D01*
X032412Y019978D01*
X032412Y019940D01*
X032504Y019848D01*
X032562Y019708D01*
X032562Y019557D01*
X032504Y019417D01*
X032449Y019363D01*
X032476Y019390D02*
X033114Y019390D01*
X033202Y019548D02*
X032558Y019548D01*
X032562Y019707D02*
X033202Y019707D01*
X033339Y019865D02*
X032487Y019865D01*
X032366Y020024D02*
X033498Y020024D01*
X033656Y020182D02*
X032208Y020182D01*
X032049Y020341D02*
X033815Y020341D01*
X033973Y020499D02*
X031891Y020499D01*
X034132Y020658D02*
X029562Y020658D01*
X029517Y020816D02*
X034291Y020816D01*
X034353Y021292D02*
X039511Y021292D01*
X039346Y021451D02*
X036075Y021451D01*
X036234Y021609D02*
X039302Y021609D01*
X039222Y021768D02*
X036392Y021768D01*
X036551Y021926D02*
X039063Y021926D01*
X038905Y022085D02*
X036922Y022085D01*
X037036Y022243D02*
X038746Y022243D01*
X038588Y022402D02*
X037062Y022402D01*
X037020Y022560D02*
X038429Y022560D01*
X039853Y021292D02*
X042682Y021292D01*
X042682Y021134D02*
X028256Y021134D01*
X028098Y021292D02*
X028511Y021292D01*
X028346Y021451D02*
X027939Y021451D01*
X027781Y021609D02*
X028302Y021609D01*
X028327Y021768D02*
X027622Y021768D01*
X028699Y022363D02*
X029337Y022363D01*
X030202Y023228D01*
X030242Y023268D01*
X030242Y023315D01*
X030330Y023403D01*
X027739Y023403D01*
X027647Y023311D01*
X027508Y023253D01*
X027356Y023253D01*
X027217Y023311D01*
X027110Y023417D01*
X027052Y023557D01*
X027052Y023708D01*
X027110Y023848D01*
X027217Y023955D01*
X027356Y024013D01*
X027508Y024013D01*
X027647Y023955D01*
X027739Y023863D01*
X030330Y023863D01*
X030242Y023951D01*
X030242Y024315D01*
X030500Y024573D01*
X030864Y024573D01*
X031122Y024315D01*
X031122Y023951D01*
X031034Y023863D01*
X034377Y023863D01*
X033837Y024403D01*
X031527Y024403D01*
X031337Y024403D01*
X030956Y024784D01*
X030864Y024693D01*
X030500Y024693D01*
X030290Y024903D01*
X028027Y024903D01*
X027162Y024037D01*
X027122Y023997D01*
X027122Y023951D01*
X026864Y023693D01*
X026500Y023693D01*
X026242Y023951D01*
X026242Y024315D01*
X026500Y024573D01*
X026864Y024573D01*
X026956Y024481D01*
X027702Y025228D01*
X027837Y025363D01*
X030290Y025363D01*
X030330Y025403D01*
X027034Y025403D01*
X027122Y025315D01*
X027122Y025133D01*
X026682Y025133D01*
X026242Y025133D01*
X026242Y025315D01*
X026330Y025403D01*
X020777Y025403D01*
X020062Y024688D01*
X020062Y024557D01*
X020004Y024417D01*
X019897Y024311D01*
X019758Y024253D01*
X019606Y024253D01*
X019467Y024311D01*
X019360Y024417D01*
X019302Y024557D01*
X019302Y024708D01*
X019360Y024848D01*
X019467Y024955D01*
X019606Y025013D01*
X019737Y025013D01*
X019765Y025041D01*
X019717Y025061D01*
X019625Y025153D01*
X017239Y025153D01*
X017147Y025061D01*
X017008Y025003D01*
X016856Y025003D01*
X016717Y025061D01*
X016677Y025100D01*
X016677Y024928D01*
X016387Y024638D01*
X015977Y024638D01*
X015687Y024928D01*
X015687Y025052D01*
X015337Y025403D01*
X012612Y025403D01*
X012677Y025338D01*
X012677Y024928D01*
X012412Y024663D01*
X012412Y024603D01*
X012677Y024338D01*
X012677Y023928D01*
X012612Y023863D01*
X013337Y023863D01*
X013527Y023863D01*
X013951Y023439D01*
X013967Y023455D01*
X014106Y023513D01*
X014258Y023513D01*
X014397Y023455D01*
X014504Y023348D01*
X014562Y023208D01*
X014562Y023057D01*
X014504Y022917D01*
X014449Y022863D01*
X015375Y022863D01*
X015452Y022940D01*
X015452Y023537D01*
X015452Y023728D01*
X015587Y023863D01*
X015752Y023863D01*
X015687Y023928D01*
X015687Y024338D01*
X015977Y024628D01*
X016387Y024628D01*
X016677Y024338D01*
X016677Y023928D01*
X016612Y023863D01*
X025125Y023863D01*
X025217Y023955D01*
X025356Y024013D01*
X025508Y024013D01*
X025647Y023955D01*
X025754Y023848D01*
X025812Y023708D01*
X025812Y023557D01*
X025754Y023417D01*
X025647Y023311D01*
X025508Y023253D01*
X025356Y023253D01*
X025217Y023311D01*
X025125Y023403D01*
X023737Y023403D01*
X024277Y022863D01*
X026330Y022863D01*
X026242Y022951D01*
X026242Y023133D01*
X026242Y023315D01*
X026500Y023573D01*
X026682Y023573D01*
X026682Y023133D01*
X026242Y023133D01*
X026682Y023133D01*
X026682Y023573D01*
X026864Y023573D01*
X027122Y023315D01*
X027122Y023133D01*
X026682Y023133D01*
X026682Y022863D01*
X026682Y022863D01*
X026682Y023133D01*
X027122Y023133D01*
X027122Y022951D01*
X027034Y022863D01*
X028125Y022863D01*
X028217Y022955D01*
X028356Y023013D01*
X028508Y023013D01*
X028647Y022955D01*
X028754Y022848D01*
X028812Y022708D01*
X028812Y022557D01*
X028754Y022417D01*
X028699Y022363D01*
X028739Y022402D02*
X029376Y022402D01*
X029535Y022560D02*
X028812Y022560D01*
X028808Y022719D02*
X029693Y022719D01*
X029852Y022878D02*
X028725Y022878D01*
X028139Y022878D02*
X027049Y022878D01*
X027122Y023036D02*
X030010Y023036D01*
X030169Y023195D02*
X027122Y023195D01*
X027084Y023353D02*
X027174Y023353D01*
X027071Y023512D02*
X026925Y023512D01*
X027052Y023670D02*
X025812Y023670D01*
X025793Y023512D02*
X026439Y023512D01*
X026280Y023353D02*
X025690Y023353D01*
X025174Y023353D02*
X023787Y023353D01*
X023945Y023195D02*
X026242Y023195D01*
X026242Y023036D02*
X024104Y023036D01*
X024262Y022878D02*
X026315Y022878D01*
X026682Y022878D02*
X026682Y022878D01*
X026682Y023036D02*
X026682Y023036D01*
X026682Y023195D02*
X026682Y023195D01*
X026682Y023353D02*
X026682Y023353D01*
X026682Y023512D02*
X026682Y023512D01*
X026364Y023829D02*
X025762Y023829D01*
X025569Y023987D02*
X026242Y023987D01*
X026242Y024146D02*
X016677Y024146D01*
X016677Y024304D02*
X019482Y024304D01*
X019341Y024463D02*
X016552Y024463D01*
X016393Y024622D02*
X019302Y024622D01*
X019332Y024780D02*
X016529Y024780D01*
X016677Y024939D02*
X019451Y024939D01*
X019680Y025097D02*
X017184Y025097D01*
X016680Y025097D02*
X016677Y025097D01*
X015971Y024622D02*
X012412Y024622D01*
X012529Y024780D02*
X015835Y024780D01*
X015687Y024939D02*
X012677Y024939D01*
X012677Y025097D02*
X015642Y025097D01*
X015484Y025256D02*
X012677Y025256D01*
X012552Y024463D02*
X015812Y024463D01*
X015687Y024304D02*
X012677Y024304D01*
X012677Y024146D02*
X015687Y024146D01*
X015687Y023987D02*
X012677Y023987D01*
X013561Y023829D02*
X015553Y023829D01*
X015452Y023670D02*
X013720Y023670D01*
X013878Y023512D02*
X014104Y023512D01*
X014260Y023512D02*
X015452Y023512D01*
X015452Y023353D02*
X014499Y023353D01*
X014562Y023195D02*
X015452Y023195D01*
X015452Y023036D02*
X014553Y023036D01*
X014464Y022878D02*
X015389Y022878D01*
X016677Y023987D02*
X025295Y023987D01*
X026242Y024304D02*
X019882Y024304D01*
X020023Y024463D02*
X026390Y024463D01*
X026500Y024693D02*
X026242Y024951D01*
X026242Y025133D01*
X026682Y025133D01*
X026682Y025403D01*
X026682Y025403D01*
X026682Y025133D01*
X026682Y024693D01*
X026500Y024693D01*
X026412Y024780D02*
X020155Y024780D01*
X020062Y024622D02*
X027096Y024622D01*
X026952Y024780D02*
X027254Y024780D01*
X027110Y024939D02*
X027413Y024939D01*
X027571Y025097D02*
X027122Y025097D01*
X027122Y025133D02*
X027122Y024951D01*
X026864Y024693D01*
X026682Y024693D01*
X026682Y025133D01*
X027122Y025133D01*
X027122Y025256D02*
X027730Y025256D01*
X027905Y024780D02*
X030412Y024780D01*
X030390Y024463D02*
X027588Y024463D01*
X027746Y024622D02*
X031118Y024622D01*
X030974Y024463D02*
X031277Y024463D01*
X031122Y024304D02*
X033935Y024304D01*
X034094Y024146D02*
X031122Y024146D01*
X031122Y023987D02*
X034252Y023987D01*
X030959Y024780D02*
X030952Y024780D01*
X030242Y024304D02*
X027429Y024304D01*
X027270Y024146D02*
X030242Y024146D01*
X030242Y023987D02*
X027569Y023987D01*
X027295Y023987D02*
X027122Y023987D01*
X027102Y023829D02*
X027000Y023829D01*
X027690Y023353D02*
X030280Y023353D01*
X028853Y021292D02*
X034011Y021292D01*
X036015Y020975D02*
X029349Y020975D01*
X029015Y020975D02*
X028415Y020975D01*
X028573Y020816D02*
X028847Y020816D01*
X028802Y020658D02*
X028732Y020658D01*
X026682Y024780D02*
X026682Y024780D01*
X026682Y024939D02*
X026682Y024939D01*
X026682Y025097D02*
X026682Y025097D01*
X026682Y025256D02*
X026682Y025256D01*
X026242Y025256D02*
X020630Y025256D01*
X020472Y025097D02*
X026242Y025097D01*
X026254Y024939D02*
X020313Y024939D01*
X036349Y020975D02*
X039015Y020975D01*
X037041Y020816D02*
X036517Y020816D01*
X036562Y020658D02*
X036882Y020658D01*
X036723Y020499D02*
X036538Y020499D01*
X042575Y021451D02*
X042682Y021451D01*
D17*
X042432Y021633D02*
X039682Y021633D01*
X038432Y022883D01*
X030682Y022883D01*
X030682Y023133D01*
X030432Y023133D01*
X029432Y022133D01*
X026932Y022133D01*
X026682Y022133D01*
X026432Y022133D01*
X023432Y022133D01*
X022932Y021633D01*
X019432Y021633D01*
X019182Y021383D01*
X017432Y021383D01*
X017182Y021633D01*
X013682Y021633D01*
X013682Y021133D01*
X014182Y020633D01*
X014432Y021133D02*
X015182Y020383D01*
X015932Y021133D01*
X019432Y021133D01*
X019682Y021383D01*
X019932Y021383D01*
X020932Y020383D01*
X019432Y020383D01*
X018682Y019633D01*
X018182Y019633D02*
X017932Y019883D01*
X017682Y019883D01*
X017182Y019383D01*
X016682Y019633D02*
X016682Y018883D01*
X018432Y018883D01*
X018682Y018633D01*
X018682Y019133D02*
X022932Y019133D01*
X023182Y019383D01*
X026432Y019383D01*
X026682Y019633D01*
X026182Y020633D02*
X027932Y018883D01*
X029182Y018883D01*
X029432Y019133D01*
X030932Y019133D01*
X031682Y019883D01*
X032182Y019883D02*
X031682Y020383D01*
X029432Y020383D01*
X029182Y020633D01*
X028182Y020383D02*
X026932Y021633D01*
X024432Y021633D01*
X023682Y020883D01*
X023682Y020383D02*
X023182Y020383D01*
X020932Y020383D01*
X019682Y020883D02*
X019432Y020883D01*
X018182Y019633D01*
X018682Y019133D01*
X019182Y019633D02*
X019432Y019883D01*
X024182Y019883D01*
X023682Y020383D02*
X024432Y021133D01*
X026682Y021133D01*
X028182Y019633D01*
X028682Y019383D02*
X030682Y019383D01*
X031182Y019883D01*
X031682Y019383D02*
X031182Y018883D01*
X031682Y018883D02*
X031932Y019133D01*
X033182Y019133D01*
X033432Y019383D01*
X033682Y019383D01*
X033932Y019133D01*
X037932Y019133D01*
X038682Y019883D01*
X041932Y019883D01*
X042682Y020633D01*
X044682Y020633D01*
X047057Y020923D01*
X047057Y022173D02*
X044682Y021883D01*
X043682Y020883D01*
X039432Y020883D01*
X039182Y020633D01*
X037182Y020633D01*
X036682Y020133D01*
X034682Y020133D01*
X034432Y020633D02*
X033432Y019633D01*
X033432Y019383D01*
X033932Y019633D02*
X036682Y019633D01*
X037182Y020133D01*
X036182Y020633D02*
X034432Y020633D01*
X034182Y021633D02*
X035932Y021633D01*
X036682Y022383D01*
X035182Y023383D02*
X033932Y024633D01*
X031432Y024633D01*
X030932Y025133D01*
X030682Y025133D01*
X030432Y025133D01*
X027932Y025133D01*
X026932Y024133D01*
X026682Y024133D01*
X027432Y023633D02*
X034432Y023633D01*
X034682Y023383D01*
X034932Y023133D01*
X040432Y023133D01*
X041182Y022383D01*
X041682Y022633D02*
X041682Y022133D01*
X041682Y022633D02*
X042932Y022633D01*
X043432Y023133D01*
X043932Y023133D02*
X042432Y021633D01*
X041682Y022633D02*
X041682Y023383D01*
X035182Y023383D01*
X035682Y023883D02*
X035932Y023633D01*
X040932Y023633D01*
X041182Y023883D01*
X041932Y024133D02*
X042182Y024383D01*
X044682Y024383D01*
X047057Y024548D01*
X047057Y023423D02*
X044682Y023633D01*
X042432Y023633D01*
X042432Y023133D02*
X040682Y024883D01*
X035682Y024883D01*
X034682Y025883D01*
X011682Y025883D01*
X008932Y023133D01*
X008932Y022633D02*
X007682Y022633D01*
X006932Y021883D01*
X006932Y019133D01*
X007182Y019133D01*
X006432Y019133D02*
X006432Y022383D01*
X006932Y022383D01*
X009932Y025383D01*
X010682Y025383D01*
X011432Y026133D01*
X035432Y026133D01*
X036182Y025383D01*
X035682Y023883D02*
X034682Y024883D01*
X031682Y024883D01*
X031432Y025133D01*
X034432Y025633D02*
X035932Y024133D01*
X037182Y024133D01*
X034432Y025633D02*
X020682Y025633D01*
X019682Y024633D01*
X019932Y025383D02*
X016932Y025383D01*
X016182Y025133D02*
X015932Y025133D01*
X015432Y025633D01*
X011932Y025633D01*
X008932Y022633D01*
X009432Y022383D02*
X011682Y024633D01*
X012182Y024383D02*
X012182Y024883D01*
X012182Y025133D01*
X012182Y024383D02*
X012182Y024133D01*
X011682Y023633D02*
X013432Y023633D01*
X013932Y023133D01*
X014182Y023133D01*
X014932Y022133D02*
X015932Y022133D01*
X016182Y022133D01*
X015682Y022633D02*
X015682Y023633D01*
X025432Y023633D01*
X024182Y022633D02*
X028432Y022633D01*
X026932Y022133D02*
X026682Y022133D01*
X026932Y022133D02*
X029182Y019883D01*
X031682Y019383D02*
X031932Y019383D01*
X032182Y019633D01*
X032182Y019883D01*
X033682Y018883D02*
X033932Y018633D01*
X037182Y018633D01*
X037432Y018383D01*
X043932Y018383D01*
X043682Y018883D02*
X043182Y019383D01*
X043182Y019883D02*
X042682Y019383D01*
X038682Y019383D01*
X038682Y018883D02*
X041432Y018883D01*
X042432Y017883D02*
X044432Y017883D01*
X044682Y018133D01*
X047057Y018423D01*
X047057Y019673D02*
X044682Y019883D01*
X043182Y019883D01*
X039182Y017883D02*
X038932Y018133D01*
X032682Y018133D01*
X032182Y018633D01*
X031932Y018383D02*
X032182Y018133D01*
X031932Y018383D02*
X024432Y018383D01*
X024182Y018633D01*
X021182Y018633D01*
X022932Y017883D02*
X023182Y017633D01*
X025932Y017633D01*
X026182Y017883D01*
X030182Y017883D01*
X030432Y017633D01*
X030932Y018133D02*
X023182Y018133D01*
X017182Y018133D01*
X017182Y017633D02*
X016432Y018383D01*
X012932Y018383D01*
X011682Y019633D01*
X010682Y019633D01*
X010432Y019383D01*
X009932Y019383D01*
X009932Y016133D01*
X009432Y015633D01*
X009182Y015883D02*
X006932Y018133D01*
X006682Y018133D01*
X006182Y018633D01*
X006182Y022633D01*
X006682Y022633D01*
X009932Y025883D01*
X010682Y025883D01*
X011682Y023633D02*
X010182Y022133D01*
X009432Y022383D02*
X007932Y022383D01*
X007182Y021633D01*
X007682Y021133D01*
X009182Y021133D01*
X009682Y020633D01*
X009682Y020133D02*
X010932Y021383D01*
X012932Y021383D01*
X014432Y019883D01*
X015182Y019883D01*
X015432Y019383D02*
X016682Y020633D01*
X017182Y020633D01*
X017932Y019883D01*
X017182Y020133D02*
X016682Y020133D01*
X015682Y019133D01*
X012682Y019133D01*
X012432Y019633D02*
X011932Y020133D01*
X010182Y020133D01*
X012182Y020883D02*
X013682Y019383D01*
X015432Y019383D01*
X014182Y017883D02*
X013932Y018133D01*
X011682Y018133D01*
X010682Y019133D01*
X010682Y017883D02*
X011932Y017883D01*
X012182Y017633D01*
X012682Y016633D02*
X013682Y015633D01*
X017932Y015633D01*
X018182Y015383D01*
X018932Y015383D01*
X019182Y015633D01*
X020182Y015633D01*
X020432Y015383D01*
X022432Y015383D01*
X022682Y015633D01*
X024432Y015633D01*
X024682Y015383D01*
X025932Y015383D01*
X026182Y015633D01*
X028182Y015633D01*
X028682Y015133D01*
X031682Y015133D01*
X032682Y016133D01*
X036432Y016133D01*
X036682Y015883D01*
X036182Y015633D02*
X032682Y015633D01*
X031682Y014633D01*
X029182Y014633D01*
X021682Y014633D01*
X017182Y014633D01*
X016932Y014883D01*
X016682Y015133D01*
X012682Y015133D01*
X012932Y015383D02*
X017682Y015383D01*
X017932Y015133D01*
X019182Y015133D01*
X019682Y013883D02*
X021682Y013883D01*
X022182Y014383D01*
X027932Y014383D01*
X028182Y014133D01*
X036182Y014133D01*
X041182Y014133D01*
X041932Y014883D01*
X043932Y014883D01*
X044682Y015633D01*
X047057Y015923D01*
X047057Y017173D02*
X044682Y016883D01*
X040682Y016883D01*
X039682Y015883D01*
X039182Y015383D02*
X043932Y015383D01*
X044682Y014383D02*
X047057Y014673D01*
X047057Y013423D02*
X044682Y013133D01*
X043932Y012383D01*
X038682Y012383D01*
X038682Y011883D02*
X043932Y011883D01*
X044182Y011383D02*
X044682Y011883D01*
X047057Y012173D01*
X047057Y010923D02*
X044682Y010633D01*
X043682Y009633D01*
X041182Y009633D01*
X040182Y008633D01*
X039682Y008133D01*
X036682Y008133D01*
X036182Y007633D01*
X036182Y007133D02*
X036932Y007883D01*
X040432Y007883D01*
X041182Y008633D01*
X041932Y009383D01*
X044682Y009383D01*
X047057Y009673D01*
X047057Y008423D02*
X044682Y008633D01*
X044432Y008883D01*
X041932Y008883D01*
X041182Y008133D01*
X040682Y007633D01*
X037182Y007633D01*
X036182Y006633D01*
X028182Y006633D01*
X027182Y005633D01*
X023182Y005633D01*
X018682Y005633D01*
X018432Y005383D02*
X018682Y005133D01*
X023182Y005133D01*
X023432Y005383D01*
X027432Y005383D01*
X028182Y006133D01*
X028432Y006383D01*
X035932Y006383D01*
X036182Y006133D01*
X036682Y006633D01*
X038682Y006633D01*
X044432Y006633D01*
X044682Y006883D01*
X047057Y007173D01*
X043932Y006133D02*
X037182Y006133D01*
X036932Y005883D01*
X038432Y005383D02*
X038682Y005633D01*
X038432Y005383D02*
X033932Y005383D01*
X033682Y005633D01*
X033432Y005883D01*
X028682Y005883D01*
X028432Y005633D02*
X028682Y005383D01*
X030682Y005383D01*
X030932Y005133D01*
X039432Y005133D01*
X040682Y003633D02*
X039432Y002383D01*
X019432Y002383D01*
X019182Y002633D01*
X018682Y002133D01*
X010182Y002133D01*
X008432Y003883D01*
X009182Y004633D02*
X009682Y004633D01*
X010932Y003383D01*
X012432Y003383D01*
X012932Y002883D02*
X013432Y003383D01*
X014932Y003383D01*
X015182Y003133D01*
X015182Y003633D02*
X017682Y003633D01*
X018682Y003133D02*
X015682Y003133D01*
X013932Y002633D02*
X018682Y002633D01*
X019432Y003383D01*
X021182Y003133D02*
X021432Y003383D01*
X026432Y003383D01*
X026432Y003633D01*
X026432Y003383D02*
X039182Y003383D01*
X039432Y003133D01*
X036182Y002883D02*
X024682Y002883D01*
X026432Y004883D02*
X026682Y005133D01*
X027932Y005133D01*
X028432Y005633D01*
X026682Y006133D02*
X025682Y006133D01*
X021182Y006133D01*
X014932Y006133D01*
X014682Y006383D01*
X014932Y006633D02*
X016682Y006633D01*
X016932Y006883D02*
X018682Y006883D01*
X018932Y007133D01*
X018682Y007383D02*
X016932Y007383D01*
X016682Y007133D02*
X016932Y006883D01*
X016682Y007133D02*
X015182Y007133D01*
X014682Y007383D02*
X015182Y007883D01*
X018682Y007883D01*
X018932Y008133D01*
X024182Y008133D01*
X023932Y007383D02*
X028432Y007383D01*
X028682Y007133D01*
X032932Y007133D01*
X033682Y007883D01*
X034182Y007883D01*
X034932Y007133D01*
X036182Y007133D01*
X037182Y007133D02*
X040682Y007133D01*
X041182Y007633D01*
X041932Y008383D01*
X043682Y008383D01*
X043682Y007883D02*
X041932Y007883D01*
X041182Y007133D01*
X039682Y008633D02*
X039432Y008383D01*
X035432Y008383D01*
X034932Y007883D01*
X034682Y007883D01*
X034432Y008133D02*
X034682Y008383D01*
X034932Y008383D01*
X035432Y008883D01*
X038932Y008883D01*
X039682Y008633D02*
X040682Y009633D01*
X039432Y010133D02*
X038932Y010633D01*
X039432Y010633D02*
X038932Y011133D01*
X031682Y011133D01*
X030682Y010133D01*
X029182Y010133D01*
X028682Y009633D01*
X028432Y009383D01*
X022182Y009383D01*
X017432Y009383D01*
X017182Y009133D01*
X016932Y009383D02*
X017432Y009883D01*
X020182Y009883D01*
X018682Y008883D02*
X025682Y008883D01*
X026182Y008383D01*
X030432Y008383D01*
X030682Y008133D01*
X032182Y008133D01*
X032182Y007633D01*
X032182Y008133D02*
X034432Y008133D01*
X034682Y008633D02*
X035182Y009133D01*
X036932Y009133D01*
X037682Y009883D01*
X037682Y010133D01*
X037182Y009883D02*
X036682Y009383D01*
X034682Y009383D01*
X034182Y009383D02*
X034182Y008633D01*
X030682Y008633D01*
X030432Y008883D02*
X030682Y009133D01*
X031682Y009133D01*
X030432Y008883D02*
X028182Y008883D01*
X029182Y009383D02*
X029682Y009883D01*
X036182Y009883D01*
X034682Y008633D02*
X034182Y008633D01*
X033682Y009383D02*
X033432Y009633D01*
X029932Y009633D01*
X029682Y009383D01*
X026682Y007883D02*
X026432Y007633D01*
X021182Y007633D01*
X018932Y007633D01*
X018682Y007383D01*
X018432Y008133D02*
X018932Y008633D01*
X025432Y008633D01*
X025932Y008133D01*
X026932Y007133D02*
X026682Y006883D01*
X026932Y007133D02*
X028182Y007133D01*
X028432Y006883D01*
X033182Y006883D01*
X033682Y007383D01*
X039432Y010133D02*
X043182Y010133D01*
X044182Y011383D02*
X041182Y011383D01*
X040932Y011133D01*
X039182Y012633D02*
X043682Y012633D01*
X043932Y012883D01*
X043932Y013383D02*
X039932Y013383D01*
X039682Y013133D01*
X039182Y013133D02*
X036682Y013133D01*
X036432Y012883D01*
X031932Y012883D01*
X031682Y013133D01*
X032182Y013133D02*
X031682Y013633D01*
X031182Y013633D01*
X030682Y013133D01*
X030932Y013883D02*
X029682Y012633D01*
X036932Y012633D01*
X036932Y012133D02*
X037182Y011883D01*
X038182Y012883D01*
X038932Y012883D01*
X039182Y012633D01*
X041432Y013633D02*
X036682Y013633D01*
X036182Y013133D01*
X032182Y013133D01*
X030932Y013883D02*
X035932Y013883D01*
X036182Y013633D01*
X036432Y014383D02*
X038932Y014383D01*
X039432Y014883D01*
X039182Y015383D02*
X038682Y014883D01*
X037182Y016383D01*
X032182Y016383D01*
X031932Y016383D01*
X032182Y016383D02*
X031682Y016883D01*
X030932Y016883D01*
X030682Y016633D01*
X029182Y016633D01*
X028932Y016883D01*
X028682Y016633D02*
X028932Y016383D01*
X030932Y016383D01*
X031682Y015633D02*
X029182Y015633D01*
X028432Y016383D01*
X017432Y016383D01*
X016682Y016633D02*
X014682Y016633D01*
X012932Y015383D02*
X011682Y016633D01*
X009932Y015633D02*
X009432Y015133D01*
X009182Y015133D01*
X009182Y013633D01*
X009682Y013133D01*
X011932Y013133D01*
X012182Y012883D01*
X012432Y012133D02*
X010682Y012133D01*
X009932Y012883D01*
X009432Y012883D01*
X008932Y013383D01*
X008932Y015633D01*
X009182Y015883D01*
X009432Y016133D02*
X006432Y019133D01*
X007682Y021633D02*
X011432Y021633D01*
X011932Y022133D01*
X012182Y022133D01*
X012182Y022383D01*
X012182Y022883D01*
X012182Y023133D01*
X012682Y022633D02*
X015682Y022633D01*
X017432Y021883D02*
X017682Y021633D01*
X018932Y021633D01*
X019432Y022133D01*
X020682Y022133D01*
X022182Y022133D01*
X023182Y022633D02*
X018682Y022633D01*
X018182Y022133D01*
X021182Y023133D02*
X021432Y023383D01*
X023432Y023383D01*
X024182Y022633D01*
X023432Y022883D02*
X023182Y022633D01*
X025682Y020633D02*
X026182Y020633D01*
X028682Y021633D02*
X034182Y021633D01*
X030932Y018133D02*
X031432Y017633D01*
X033682Y017633D01*
X032682Y015133D02*
X036932Y015133D01*
X037182Y014883D01*
X036432Y014383D02*
X036182Y014633D01*
X032182Y014633D01*
X029682Y012633D02*
X028182Y012633D01*
X028182Y013633D01*
X026682Y013133D02*
X023182Y013133D01*
X022682Y013133D02*
X023182Y013633D01*
X023682Y014133D02*
X022432Y014133D01*
X021682Y013383D01*
X018932Y013383D01*
X018682Y013633D01*
X017682Y013633D01*
X016432Y014883D01*
X014432Y014883D01*
X014182Y014633D01*
X010682Y014633D01*
X009682Y013633D01*
X010682Y014133D02*
X010932Y014383D01*
X014432Y014383D01*
X014682Y013883D02*
X016932Y013883D01*
X017182Y013633D02*
X017682Y013633D01*
X017182Y013633D02*
X016932Y013383D01*
X016682Y013383D01*
X016682Y013133D01*
X017182Y012633D01*
X019182Y012633D01*
X018682Y012133D02*
X021682Y012133D01*
X023682Y012133D01*
X024182Y012633D01*
X028182Y012633D01*
X028682Y011633D02*
X026182Y011633D01*
X024182Y011633D01*
X023682Y011133D01*
X019682Y011133D01*
X019432Y011383D01*
X014182Y011383D01*
X014182Y012383D01*
X014182Y012883D02*
X014682Y012883D01*
X015182Y012383D01*
X014182Y012883D02*
X012932Y011633D01*
X010432Y011633D01*
X009682Y012383D01*
X009932Y011383D02*
X014182Y011383D01*
X014432Y011133D02*
X010432Y011133D01*
X010182Y010883D01*
X011682Y009383D01*
X016932Y009383D01*
X016682Y009133D02*
X011682Y009133D01*
X009932Y007383D01*
X009932Y006133D01*
X009682Y006133D01*
X009182Y006133D02*
X009682Y006633D01*
X009682Y008133D01*
X010182Y008633D02*
X010432Y008383D01*
X010182Y008633D02*
X008682Y008633D01*
X008182Y008133D01*
X010682Y007633D02*
X010682Y006383D01*
X012432Y004633D01*
X016432Y004633D01*
X016682Y004883D01*
X017182Y005383D02*
X017182Y005633D01*
X017182Y005383D02*
X014432Y005383D01*
X014182Y005133D01*
X014682Y005883D02*
X012682Y005883D01*
X012182Y005383D01*
X010432Y005633D02*
X009682Y005633D01*
X010432Y005633D02*
X010432Y004383D01*
X009182Y004633D02*
X009182Y006133D01*
X012182Y006633D02*
X013932Y006633D01*
X014182Y006883D01*
X014182Y007383D02*
X014932Y006633D01*
X014182Y007383D02*
X012432Y007383D01*
X012182Y007133D01*
X012182Y007633D02*
X014432Y007633D01*
X014932Y008133D01*
X016432Y008883D02*
X017182Y008133D01*
X018432Y008133D01*
X017182Y008633D02*
X016682Y009133D01*
X016432Y008883D02*
X013432Y008883D01*
X012682Y008133D01*
X013182Y009883D02*
X014182Y009883D01*
X014682Y010883D02*
X014432Y011133D01*
X012432Y012133D02*
X014182Y013883D01*
X014682Y013883D02*
X014182Y013383D01*
X015182Y013383D02*
X015682Y013383D01*
X017182Y011883D01*
X017432Y011633D01*
X023182Y011633D01*
X024182Y012133D02*
X030682Y012133D01*
X032182Y012133D02*
X036932Y012133D01*
X041432Y013633D02*
X041932Y014133D01*
X042932Y014383D02*
X044682Y014383D01*
X028932Y011383D02*
X028682Y011633D01*
X024182Y013633D02*
X023682Y014133D01*
X022682Y013133D02*
X017182Y013133D01*
X021182Y012633D02*
X023682Y012633D01*
X028432Y015883D02*
X028682Y015633D01*
X028432Y015883D02*
X025932Y015883D01*
X028682Y016633D02*
X021182Y016633D01*
X020932Y016883D01*
X019182Y017883D02*
X022932Y017883D01*
X019182Y017883D02*
X018932Y017633D01*
X008182Y012133D02*
X005932Y012133D01*
X005932Y022883D01*
X006182Y023133D01*
X009932Y011383D02*
X009682Y011133D01*
X010182Y010883D02*
X009432Y010133D01*
X008682Y010133D01*
X017182Y005383D02*
X018432Y005383D01*
X019182Y006633D02*
X023182Y006633D01*
X023932Y007383D01*
X021682Y007133D02*
X021182Y007633D01*
X012932Y002883D02*
X010932Y002883D01*
X010432Y003383D01*
M02*
