  0
SECTION
  2
HEADER
  9
$ACADVER
  1
AC1009
  9
$FILLMODE
 70
1
  9
$EXTMIN
 10
0.0000
 20
-5.1200
 30
0.0000
  9
$EXTMAX
 10
127.0015
 20
62.6943
 30
0.0000
  0
ENDSEC
  0
SECTION
  2
TABLES
  0
TABLE
  2
LTYPE
 70
1
  0
LTYPE
  2
CONTINUOUS
 70
64
  3
Solid line
 72
65
 73
0
 40
0
  0
ENDTAB
  0
TABLE
  2
LAYER
 70
255
  0
LAYER
  2
30
 70
64
 62
253
  6
CONTINUOUS
  0
ENDTAB
  0
ENDSEC
  0
SECTION
  2
BLOCKS
  0
BLOCK
  8
0
  2
RECT
 70
64
 10
0.0000
 20
0.0000
 30
0.0000
  3
RECT
  0
SOLID
  8
0
 10
-0.5000
 20
-0.5000
 30
0.0000
 11
0.5000
 21
-0.5000
 31
0.0000
 12
-0.5000
 22
0.5000
 32
0.0000
 13
0.5000
 23
0.5000
 33
0.0000
  0
ENDBLK
  8
0
  0
BLOCK
  8
0
  2
PIE
 70
64
 10
0.0000
 20
0.0000
 30
0.0000
  3
PIE
  0
POLYLINE
  8
0
 66
1
 10
0.0000
 20
0.0000
 30
0.0000
 40
0.5000
 41
0.5000
 70
0
  0
VERTEX
  8
0
 10
0.0000
 20
-0.2500
 30
0.0000
 42
1.0000
  0
VERTEX
  8
0
 10
0.0000
 20
0.2500
 30
0.0000
 42
1.0000
  0
VERTEX
  8
0
 10
0.0000
 20
-0.2500
 30
0.0000
  0
SEQEND
  8
0
  0
ENDBLK
  8
0
  0
BLOCK
  8
0
  2
OCTAGONP
 70
64
 10
0.0000
 20
0.0000
 30
0.0000
  3
OCTAGONP
  0
POLYLINE
  8
0
 66
1
 10
0.0000
 20
0.0000
 30
0.0000
 40
0.5000
 41
0.5000
 70
0
  0
VERTEX
  8
0
 10
-0.2500
 20
-0.1036
 30
0.0000
  0
VERTEX
  8
0
 10
-0.2500
 20
0.1036
 30
0.0000
  0
VERTEX
  8
0
 10
-0.1036
 20
0.2500
 30
0.0000
  0
VERTEX
  8
0
 10
0.1036
 20
0.2500
 30
0.0000
  0
VERTEX
  8
0
 10
0.2500
 20
0.1036
 30
0.0000
  0
VERTEX
  8
0
 10
0.2500
 20
-0.1036
 30
0.0000
  0
VERTEX
  8
0
 10
0.1036
 20
-0.2500
 30
0.0000
  0
VERTEX
  8
0
 10
-0.1036
 20
-0.2500
 30
0.0000
  0
VERTEX
  8
0
 10
-0.2500
 20
-0.1036
 30
0.0000
  0
VERTEX
  8
0
 10
-0.2500
 20
0.1036
 30
0.0000
  0
SEQEND
  8
0
  0
ENDBLK
  8
0
  0
BLOCK
  8
0
  2
SQUAREP
 70
64
 10
0.0000
 20
0.0000
 30
0.0000
  3
SQUAREP
  0
SOLID
  8
0
 10
-0.5000
 20
-0.5000
 30
0.0000
 11
0.5000
 21
-0.5000
 31
0.0000
 12
-0.5000
 22
0.5000
 32
0.0000
 13
0.5000
 23
0.5000
 33
0.0000
  0
ENDBLK
  8
0
  0
BLOCK
  8
0
  2
ROUNDP
 70
64
 10
0.0000
 20
0.0000
 30
0.0000
  3
ROUNDP
  0
POLYLINE
  8
0
 66
1
 10
0.0000
 20
0.0000
 30
0.0000
 40
0.5000
 41
0.5000
 70
0
  0
VERTEX
  8
0
 10
0.0000
 20
-0.2500
 30
0.0000
 42
1.0000
  0
VERTEX
  8
0
 10
0.0000
 20
0.2500
 30
0.0000
 42
1.0000
  0
VERTEX
  8
0
 10
0.0000
 20
-0.2500
 30
0.0000
  0
SEQEND
  8
0
  0
ENDBLK
  8
0
  0
BLOCK
  8
0
  2
ANNULUSP
 70
64
 10
0.0000
 20
0.0000
 30
0.0000
  3
ANNULUSP
  0
POLYLINE
  8
0
 66
1
 10
0.0000
 20
0.0000
 30
0.0000
 40
0.5000
 41
0.5000
 70
0
  0
VERTEX
  8
0
 10
0.0000
 20
-0.2500
 30
0.0000
 42
1.0000
  0
VERTEX
  8
0
 10
0.0000
 20
0.2500
 30
0.0000
 42
1.0000
  0
VERTEX
  8
0
 10
0.0000
 20
-0.2500
 30
0.0000
  0
SEQEND
  8
0
  0
ENDBLK
  8
0
  0
BLOCK
  8
0
  2
THERMALP
 70
64
 10
0.0000
 20
0.0000
 30
0.0000
  3
THERMALP
  0
POLYLINE
  8
0
 66
1
 10
0.0000
 20
0.0000
 30
0.0000
 40
0.1000
 41
0.1000
 70
0
  0
VERTEX
  8
0
 10
-0.2379
 20
0.4500
 30
0.0000
  0
VERTEX
  8
0
 10
0.2379
 20
0.4500
 30
0.0000
  0
SEQEND
  8
0
  0
POLYLINE
  8
0
 66
1
 10
0.0000
 20
0.0000
 30
0.0000
 40
0.0500
 41
0.0500
 70
0
  0
VERTEX
  8
0
 10
0.2379
 20
0.4250
 30
0.0000
 42
1.0000
  0
VERTEX
  8
0
 10
0.2379
 20
0.4750
 30
0.0000
  0
SEQEND
  8
0
  0
POLYLINE
  8
0
 66
1
 10
0.0000
 20
0.0000
 30
0.0000
 40
0.0500
 41
0.0500
 70
0
  0
VERTEX
  8
0
 10
-0.2379
 20
0.4750
 30
0.0000
 42
1.0000
  0
VERTEX
  8
0
 10
-0.2379
 20
0.4250
 30
0.0000
  0
SEQEND
  8
0
  0
POLYLINE
  8
0
 66
1
 10
0.0000
 20
0.0000
 30
0.0000
 40
0.1000
 41
0.1000
 70
0
  0
VERTEX
  8
0
 10
0.4500
 20
0.2379
 30
0.0000
  0
VERTEX
  8
0
 10
0.4500
 20
-0.2379
 30
0.0000
  0
SEQEND
  8
0
  0
POLYLINE
  8
0
 66
1
 10
0.0000
 20
0.0000
 30
0.0000
 40
0.0500
 41
0.0500
 70
0
  0
VERTEX
  8
0
 10
0.4250
 20
-0.2379
 30
0.0000
 42
1.0000
  0
VERTEX
  8
0
 10
0.4750
 20
-0.2379
 30
0.0000
  0
SEQEND
  8
0
  0
POLYLINE
  8
0
 66
1
 10
0.0000
 20
0.0000
 30
0.0000
 40
0.0500
 41
0.0500
 70
0
  0
VERTEX
  8
0
 10
0.4750
 20
0.2379
 30
0.0000
 42
1.0000
  0
VERTEX
  8
0
 10
0.4250
 20
0.2379
 30
0.0000
  0
SEQEND
  8
0
  0
POLYLINE
  8
0
 66
1
 10
0.0000
 20
0.0000
 30
0.0000
 40
0.1000
 41
0.1000
 70
0
  0
VERTEX
  8
0
 10
0.2379
 20
-0.4500
 30
0.0000
  0
VERTEX
  8
0
 10
-0.2379
 20
-0.4500
 30
0.0000
  0
SEQEND
  8
0
  0
POLYLINE
  8
0
 66
1
 10
0.0000
 20
0.0000
 30
0.0000
 40
0.0500
 41
0.0500
 70
0
  0
VERTEX
  8
0
 10
-0.2379
 20
-0.4250
 30
0.0000
 42
1.0000
  0
VERTEX
  8
0
 10
-0.2379
 20
-0.4750
 30
0.0000
  0
SEQEND
  8
0
  0
POLYLINE
  8
0
 66
1
 10
0.0000
 20
0.0000
 30
0.0000
 40
0.0500
 41
0.0500
 70
0
  0
VERTEX
  8
0
 10
0.2379
 20
-0.4750
 30
0.0000
 42
1.0000
  0
VERTEX
  8
0
 10
0.2379
 20
-0.4250
 30
0.0000
  0
SEQEND
  8
0
  0
POLYLINE
  8
0
 66
1
 10
0.0000
 20
0.0000
 30
0.0000
 40
0.1000
 41
0.1000
 70
0
  0
VERTEX
  8
0
 10
-0.4500
 20
-0.2379
 30
0.0000
  0
VERTEX
  8
0
 10
-0.4500
 20
0.2379
 30
0.0000
  0
SEQEND
  8
0
  0
POLYLINE
  8
0
 66
1
 10
0.0000
 20
0.0000
 30
0.0000
 40
0.0500
 41
0.0500
 70
0
  0
VERTEX
  8
0
 10
-0.4250
 20
0.2379
 30
0.0000
 42
1.0000
  0
VERTEX
  8
0
 10
-0.4750
 20
0.2379
 30
0.0000
  0
SEQEND
  8
0
  0
POLYLINE
  8
0
 66
1
 10
0.0000
 20
0.0000
 30
0.0000
 40
0.0500
 41
0.0500
 70
0
  0
VERTEX
  8
0
 10
-0.4750
 20
-0.2379
 30
0.0000
 42
1.0000
  0
VERTEX
  8
0
 10
-0.4250
 20
-0.2379
 30
0.0000
  0
SEQEND
  8
0
  0
ENDBLK
  8
0
  0
BLOCK
  8
0
  2
OCTAGONV
 70
64
 10
0.0000
 20
0.0000
 30
0.0000
  3
OCTAGONV
  0
POLYLINE
  8
0
 66
1
 10
0.0000
 20
0.0000
 30
0.0000
 40
0.5000
 41
0.5000
 70
0
  0
VERTEX
  8
0
 10
-0.2500
 20
-0.1036
 30
0.0000
  0
VERTEX
  8
0
 10
-0.2500
 20
0.1036
 30
0.0000
  0
VERTEX
  8
0
 10
-0.1036
 20
0.2500
 30
0.0000
  0
VERTEX
  8
0
 10
0.1036
 20
0.2500
 30
0.0000
  0
VERTEX
  8
0
 10
0.2500
 20
0.1036
 30
0.0000
  0
VERTEX
  8
0
 10
0.2500
 20
-0.1036
 30
0.0000
  0
VERTEX
  8
0
 10
0.1036
 20
-0.2500
 30
0.0000
  0
VERTEX
  8
0
 10
-0.1036
 20
-0.2500
 30
0.0000
  0
VERTEX
  8
0
 10
-0.2500
 20
-0.1036
 30
0.0000
  0
VERTEX
  8
0
 10
-0.2500
 20
0.1036
 30
0.0000
  0
SEQEND
  8
0
  0
ENDBLK
  8
0
  0
BLOCK
  8
0
  2
SQUAREV
 70
64
 10
0.0000
 20
0.0000
 30
0.0000
  3
SQUAREV
  0
SOLID
  8
0
 10
-0.5000
 20
-0.5000
 30
0.0000
 11
0.5000
 21
-0.5000
 31
0.0000
 12
-0.5000
 22
0.5000
 32
0.0000
 13
0.5000
 23
0.5000
 33
0.0000
  0
ENDBLK
  8
0
  0
BLOCK
  8
0
  2
ROUNDV
 70
64
 10
0.0000
 20
0.0000
 30
0.0000
  3
ROUNDV
  0
POLYLINE
  8
0
 66
1
 10
0.0000
 20
0.0000
 30
0.0000
 40
0.5000
 41
0.5000
 70
0
  0
VERTEX
  8
0
 10
0.0000
 20
-0.2500
 30
0.0000
 42
1.0000
  0
VERTEX
  8
0
 10
0.0000
 20
0.2500
 30
0.0000
 42
1.0000
  0
VERTEX
  8
0
 10
0.0000
 20
-0.2500
 30
0.0000
  0
SEQEND
  8
0
  0
ENDBLK
  8
0
  0
BLOCK
  8
0
  2
ANNULUSV
 70
64
 10
0.0000
 20
0.0000
 30
0.0000
  3
ANNULUSV
  0
POLYLINE
  8
0
 66
1
 10
0.0000
 20
0.0000
 30
0.0000
 40
0.5000
 41
0.5000
 70
0
  0
VERTEX
  8
0
 10
0.0000
 20
-0.2500
 30
0.0000
 42
1.0000
  0
VERTEX
  8
0
 10
0.0000
 20
0.2500
 30
0.0000
 42
1.0000
  0
VERTEX
  8
0
 10
0.0000
 20
-0.2500
 30
0.0000
  0
SEQEND
  8
0
  0
ENDBLK
  8
0
  0
BLOCK
  8
0
  2
THERMALV
 70
64
 10
0.0000
 20
0.0000
 30
0.0000
  3
THERMALV
  0
POLYLINE
  8
0
 66
1
 10
0.0000
 20
0.0000
 30
0.0000
 40
0.1000
 41
0.1000
 70
0
  0
VERTEX
  8
0
 10
-0.2379
 20
0.4500
 30
0.0000
  0
VERTEX
  8
0
 10
0.2379
 20
0.4500
 30
0.0000
  0
SEQEND
  8
0
  0
POLYLINE
  8
0
 66
1
 10
0.0000
 20
0.0000
 30
0.0000
 40
0.0500
 41
0.0500
 70
0
  0
VERTEX
  8
0
 10
0.2379
 20
0.4250
 30
0.0000
 42
1.0000
  0
VERTEX
  8
0
 10
0.2379
 20
0.4750
 30
0.0000
  0
SEQEND
  8
0
  0
POLYLINE
  8
0
 66
1
 10
0.0000
 20
0.0000
 30
0.0000
 40
0.0500
 41
0.0500
 70
0
  0
VERTEX
  8
0
 10
-0.2379
 20
0.4750
 30
0.0000
 42
1.0000
  0
VERTEX
  8
0
 10
-0.2379
 20
0.4250
 30
0.0000
  0
SEQEND
  8
0
  0
POLYLINE
  8
0
 66
1
 10
0.0000
 20
0.0000
 30
0.0000
 40
0.1000
 41
0.1000
 70
0
  0
VERTEX
  8
0
 10
0.4500
 20
0.2379
 30
0.0000
  0
VERTEX
  8
0
 10
0.4500
 20
-0.2379
 30
0.0000
  0
SEQEND
  8
0
  0
POLYLINE
  8
0
 66
1
 10
0.0000
 20
0.0000
 30
0.0000
 40
0.0500
 41
0.0500
 70
0
  0
VERTEX
  8
0
 10
0.4250
 20
-0.2379
 30
0.0000
 42
1.0000
  0
VERTEX
  8
0
 10
0.4750
 20
-0.2379
 30
0.0000
  0
SEQEND
  8
0
  0
POLYLINE
  8
0
 66
1
 10
0.0000
 20
0.0000
 30
0.0000
 40
0.0500
 41
0.0500
 70
0
  0
VERTEX
  8
0
 10
0.4750
 20
0.2379
 30
0.0000
 42
1.0000
  0
VERTEX
  8
0
 10
0.4250
 20
0.2379
 30
0.0000
  0
SEQEND
  8
0
  0
POLYLINE
  8
0
 66
1
 10
0.0000
 20
0.0000
 30
0.0000
 40
0.1000
 41
0.1000
 70
0
  0
VERTEX
  8
0
 10
0.2379
 20
-0.4500
 30
0.0000
  0
VERTEX
  8
0
 10
-0.2379
 20
-0.4500
 30
0.0000
  0
SEQEND
  8
0
  0
POLYLINE
  8
0
 66
1
 10
0.0000
 20
0.0000
 30
0.0000
 40
0.0500
 41
0.0500
 70
0
  0
VERTEX
  8
0
 10
-0.2379
 20
-0.4250
 30
0.0000
 42
1.0000
  0
VERTEX
  8
0
 10
-0.2379
 20
-0.4750
 30
0.0000
  0
SEQEND
  8
0
  0
POLYLINE
  8
0
 66
1
 10
0.0000
 20
0.0000
 30
0.0000
 40
0.0500
 41
0.0500
 70
0
  0
VERTEX
  8
0
 10
0.2379
 20
-0.4750
 30
0.0000
 42
1.0000
  0
VERTEX
  8
0
 10
0.2379
 20
-0.4250
 30
0.0000
  0
SEQEND
  8
0
  0
POLYLINE
  8
0
 66
1
 10
0.0000
 20
0.0000
 30
0.0000
 40
0.1000
 41
0.1000
 70
0
  0
VERTEX
  8
0
 10
-0.4500
 20
-0.2379
 30
0.0000
  0
VERTEX
  8
0
 10
-0.4500
 20
0.2379
 30
0.0000
  0
SEQEND
  8
0
  0
POLYLINE
  8
0
 66
1
 10
0.0000
 20
0.0000
 30
0.0000
 40
0.0500
 41
0.0500
 70
0
  0
VERTEX
  8
0
 10
-0.4250
 20
0.2379
 30
0.0000
 42
1.0000
  0
VERTEX
  8
0
 10
-0.4750
 20
0.2379
 30
0.0000
  0
SEQEND
  8
0
  0
POLYLINE
  8
0
 66
1
 10
0.0000
 20
0.0000
 30
0.0000
 40
0.0500
 41
0.0500
 70
0
  0
VERTEX
  8
0
 10
-0.4750
 20
-0.2379
 30
0.0000
 42
1.0000
  0
VERTEX
  8
0
 10
-0.4250
 20
-0.2379
 30
0.0000
  0
SEQEND
  8
0
  0
ENDBLK
  8
0
  0
BLOCK
  8
0
  2
LONGP100
 70
64
 10
0.0000
 20
0.0000
 30
0.0000
  3
LONGP100
  0
POLYLINE
  8
0
 66
1
 10
0.0000
 20
0.0000
 30
0.0000
 40
0.5000
 41
0.5000
 70
0
  0
VERTEX
  8
0
 10
-0.7500
 20
-0.1036
 30
0.0000
  0
VERTEX
  8
0
 10
-0.7500
 20
0.1036
 30
0.0000
  0
VERTEX
  8
0
 10
-0.6036
 20
0.2500
 30
0.0000
  0
VERTEX
  8
0
 10
0.6036
 20
0.2500
 30
0.0000
  0
VERTEX
  8
0
 10
0.7500
 20
0.1036
 30
0.0000
  0
VERTEX
  8
0
 10
0.7500
 20
-0.1036
 30
0.0000
  0
VERTEX
  8
0
 10
0.6036
 20
-0.2500
 30
0.0000
  0
VERTEX
  8
0
 10
-0.6036
 20
-0.2500
 30
0.0000
  0
VERTEX
  8
0
 10
-0.7500
 20
-0.1036
 30
0.0000
  0
VERTEX
  8
0
 10
-0.7500
 20
0.1036
 30
0.0000
  0
SEQEND
  8
0
  0
ENDBLK
  8
0
  0
ENDSEC
  0
SECTION
  2
ENTITIES
  0
INSERT
  8
30
  2
OCTAGONP
 10
91.4400
 20
29.2100
 30
0.0000
 41
1.7068
 42
1.7068
 43
1.0000
 50
180.0000
  0
INSERT
  8
30
  2
OCTAGONP
 10
86.3600
 20
29.2100
 30
0.0000
 41
1.7068
 42
1.7068
 43
1.0000
 50
180.0000
  0
INSERT
  8
30
  2
OCTAGONP
 10
40.6400
 20
10.1600
 30
0.0000
 41
1.7068
 42
1.7068
 43
1.0000
 50
270.0000
  0
INSERT
  8
30
  2
OCTAGONP
 10
40.6400
 20
5.0800
 30
0.0000
 41
1.7068
 42
1.7068
 43
1.0000
 50
270.0000
  0
INSERT
  8
30
  2
OCTAGONP
 10
81.2800
 20
16.5100
 30
0.0000
 41
1.7068
 42
1.7068
 43
1.0000
 50
180.0000
  0
INSERT
  8
30
  2
OCTAGONP
 10
76.2000
 20
16.5100
 30
0.0000
 41
1.7068
 42
1.7068
 43
1.0000
 50
180.0000
  0
INSERT
  8
30
  2
OCTAGONP
 10
73.6600
 20
11.4300
 30
0.0000
 41
1.7068
 42
1.7068
 43
1.0000
 50
90.0000
  0
INSERT
  8
30
  2
OCTAGONP
 10
73.6600
 20
16.5100
 30
0.0000
 41
1.7068
 42
1.7068
 43
1.0000
 50
90.0000
  0
INSERT
  8
30
  2
OCTAGONP
 10
78.7400
 20
21.5900
 30
0.0000
 41
1.7068
 42
1.7068
 43
1.0000
 50
90.0000
  0
INSERT
  8
30
  2
OCTAGONP
 10
78.7400
 20
26.6700
 30
0.0000
 41
1.7068
 42
1.7068
 43
1.0000
 50
90.0000
  0
INSERT
  8
30
  2
OCTAGONP
 10
53.3400
 20
48.2600
 30
0.0000
 41
1.7068
 42
1.7068
 43
1.0000
 50
90.0000
  0
INSERT
  8
30
  2
OCTAGONP
 10
53.3400
 20
53.3400
 30
0.0000
 41
1.7068
 42
1.7068
 43
1.0000
 50
90.0000
  0
INSERT
  8
30
  2
OCTAGONP
 10
53.3400
 20
43.1800
 30
0.0000
 41
1.7068
 42
1.7068
 43
1.0000
 50
0.0000
  0
INSERT
  8
30
  2
OCTAGONP
 10
58.4200
 20
43.1800
 30
0.0000
 41
1.7068
 42
1.7068
 43
1.0000
 50
0.0000
  0
INSERT
  8
30
  2
OCTAGONP
 10
40.6400
 20
43.1800
 30
0.0000
 41
1.7068
 42
1.7068
 43
1.0000
 50
180.0000
  0
INSERT
  8
30
  2
OCTAGONP
 10
35.5600
 20
43.1800
 30
0.0000
 41
1.7068
 42
1.7068
 43
1.0000
 50
180.0000
  0
INSERT
  8
30
  2
OCTAGONP
 10
30.4800
 20
50.8000
 30
0.0000
 41
1.7068
 42
1.7068
 43
1.0000
 50
90.0000
  0
INSERT
  8
30
  2
OCTAGONP
 10
30.4800
 20
55.8800
 30
0.0000
 41
1.7068
 42
1.7068
 43
1.0000
 50
90.0000
  0
INSERT
  8
30
  2
OCTAGONP
 10
27.9400
 20
10.1600
 30
0.0000
 41
1.7068
 42
1.7068
 43
1.0000
 50
270.0000
  0
INSERT
  8
30
  2
OCTAGONP
 10
27.9400
 20
5.0800
 30
0.0000
 41
1.7068
 42
1.7068
 43
1.0000
 50
270.0000
  0
INSERT
  8
30
  2
LONGP100
 10
50.8000
 20
5.0800
 30
0.0000
 41
1.7068
 42
1.7068
 43
1.0000
 50
180.0000
  0
INSERT
  8
30
  2
LONGP100
 10
50.8000
 20
7.6200
 30
0.0000
 41
1.7068
 42
1.7068
 43
1.0000
 50
180.0000
  0
INSERT
  8
30
  2
LONGP100
 10
50.8000
 20
10.1600
 30
0.0000
 41
1.7068
 42
1.7068
 43
1.0000
 50
180.0000
  0
INSERT
  8
30
  2
LONGP100
 10
50.8000
 20
12.7000
 30
0.0000
 41
1.7068
 42
1.7068
 43
1.0000
 50
180.0000
  0
INSERT
  8
30
  2
LONGP100
 10
50.8000
 20
15.2400
 30
0.0000
 41
1.7068
 42
1.7068
 43
1.0000
 50
180.0000
  0
INSERT
  8
30
  2
LONGP100
 10
50.8000
 20
17.7800
 30
0.0000
 41
1.7068
 42
1.7068
 43
1.0000
 50
180.0000
  0
INSERT
  8
30
  2
LONGP100
 10
50.8000
 20
20.3200
 30
0.0000
 41
1.7068
 42
1.7068
 43
1.0000
 50
180.0000
  0
INSERT
  8
30
  2
LONGP100
 10
43.1800
 20
20.3200
 30
0.0000
 41
1.7068
 42
1.7068
 43
1.0000
 50
180.0000
  0
INSERT
  8
30
  2
LONGP100
 10
43.1800
 20
17.7800
 30
0.0000
 41
1.7068
 42
1.7068
 43
1.0000
 50
180.0000
  0
INSERT
  8
30
  2
LONGP100
 10
43.1800
 20
15.2400
 30
0.0000
 41
1.7068
 42
1.7068
 43
1.0000
 50
180.0000
  0
INSERT
  8
30
  2
LONGP100
 10
43.1800
 20
12.7000
 30
0.0000
 41
1.7068
 42
1.7068
 43
1.0000
 50
180.0000
  0
INSERT
  8
30
  2
LONGP100
 10
43.1800
 20
10.1600
 30
0.0000
 41
1.7068
 42
1.7068
 43
1.0000
 50
180.0000
  0
INSERT
  8
30
  2
LONGP100
 10
43.1800
 20
7.6200
 30
0.0000
 41
1.7068
 42
1.7068
 43
1.0000
 50
180.0000
  0
INSERT
  8
30
  2
LONGP100
 10
43.1800
 20
5.0800
 30
0.0000
 41
1.7068
 42
1.7068
 43
1.0000
 50
180.0000
  0
INSERT
  8
30
  2
LONGP100
 10
38.1000
 20
5.0800
 30
0.0000
 41
1.7068
 42
1.7068
 43
1.0000
 50
180.0000
  0
INSERT
  8
30
  2
LONGP100
 10
38.1000
 20
7.6200
 30
0.0000
 41
1.7068
 42
1.7068
 43
1.0000
 50
180.0000
  0
INSERT
  8
30
  2
LONGP100
 10
38.1000
 20
10.1600
 30
0.0000
 41
1.7068
 42
1.7068
 43
1.0000
 50
180.0000
  0
INSERT
  8
30
  2
LONGP100
 10
38.1000
 20
12.7000
 30
0.0000
 41
1.7068
 42
1.7068
 43
1.0000
 50
180.0000
  0
INSERT
  8
30
  2
LONGP100
 10
38.1000
 20
15.2400
 30
0.0000
 41
1.7068
 42
1.7068
 43
1.0000
 50
180.0000
  0
INSERT
  8
30
  2
LONGP100
 10
38.1000
 20
17.7800
 30
0.0000
 41
1.7068
 42
1.7068
 43
1.0000
 50
180.0000
  0
INSERT
  8
30
  2
LONGP100
 10
38.1000
 20
20.3200
 30
0.0000
 41
1.7068
 42
1.7068
 43
1.0000
 50
180.0000
  0
INSERT
  8
30
  2
LONGP100
 10
30.4800
 20
20.3200
 30
0.0000
 41
1.7068
 42
1.7068
 43
1.0000
 50
180.0000
  0
INSERT
  8
30
  2
LONGP100
 10
30.4800
 20
17.7800
 30
0.0000
 41
1.7068
 42
1.7068
 43
1.0000
 50
180.0000
  0
INSERT
  8
30
  2
LONGP100
 10
30.4800
 20
15.2400
 30
0.0000
 41
1.7068
 42
1.7068
 43
1.0000
 50
180.0000
  0
INSERT
  8
30
  2
LONGP100
 10
30.4800
 20
12.7000
 30
0.0000
 41
1.7068
 42
1.7068
 43
1.0000
 50
180.0000
  0
INSERT
  8
30
  2
LONGP100
 10
30.4800
 20
10.1600
 30
0.0000
 41
1.7068
 42
1.7068
 43
1.0000
 50
180.0000
  0
INSERT
  8
30
  2
LONGP100
 10
30.4800
 20
7.6200
 30
0.0000
 41
1.7068
 42
1.7068
 43
1.0000
 50
180.0000
  0
INSERT
  8
30
  2
LONGP100
 10
30.4800
 20
5.0800
 30
0.0000
 41
1.7068
 42
1.7068
 43
1.0000
 50
180.0000
  0
INSERT
  8
30
  2
LONGP100
 10
76.2000
 20
6.3500
 30
0.0000
 41
1.7068
 42
1.7068
 43
1.0000
 50
90.0000
  0
INSERT
  8
30
  2
LONGP100
 10
78.7400
 20
6.3500
 30
0.0000
 41
1.7068
 42
1.7068
 43
1.0000
 50
90.0000
  0
INSERT
  8
30
  2
LONGP100
 10
81.2800
 20
6.3500
 30
0.0000
 41
1.7068
 42
1.7068
 43
1.0000
 50
90.0000
  0
INSERT
  8
30
  2
LONGP100
 10
83.8200
 20
6.3500
 30
0.0000
 41
1.7068
 42
1.7068
 43
1.0000
 50
90.0000
  0
INSERT
  8
30
  2
LONGP100
 10
86.3600
 20
6.3500
 30
0.0000
 41
1.7068
 42
1.7068
 43
1.0000
 50
90.0000
  0
INSERT
  8
30
  2
LONGP100
 10
88.9000
 20
6.3500
 30
0.0000
 41
1.7068
 42
1.7068
 43
1.0000
 50
90.0000
  0
INSERT
  8
30
  2
LONGP100
 10
91.4400
 20
6.3500
 30
0.0000
 41
1.7068
 42
1.7068
 43
1.0000
 50
90.0000
  0
INSERT
  8
30
  2
LONGP100
 10
93.9800
 20
6.3500
 30
0.0000
 41
1.7068
 42
1.7068
 43
1.0000
 50
90.0000
  0
INSERT
  8
30
  2
LONGP100
 10
93.9800
 20
13.9700
 30
0.0000
 41
1.7068
 42
1.7068
 43
1.0000
 50
90.0000
  0
INSERT
  8
30
  2
LONGP100
 10
91.4400
 20
13.9700
 30
0.0000
 41
1.7068
 42
1.7068
 43
1.0000
 50
90.0000
  0
INSERT
  8
30
  2
LONGP100
 10
88.9000
 20
13.9700
 30
0.0000
 41
1.7068
 42
1.7068
 43
1.0000
 50
90.0000
  0
INSERT
  8
30
  2
LONGP100
 10
86.3600
 20
13.9700
 30
0.0000
 41
1.7068
 42
1.7068
 43
1.0000
 50
90.0000
  0
INSERT
  8
30
  2
LONGP100
 10
83.8200
 20
13.9700
 30
0.0000
 41
1.7068
 42
1.7068
 43
1.0000
 50
90.0000
  0
INSERT
  8
30
  2
LONGP100
 10
81.2800
 20
13.9700
 30
0.0000
 41
1.7068
 42
1.7068
 43
1.0000
 50
90.0000
  0
INSERT
  8
30
  2
LONGP100
 10
78.7400
 20
13.9700
 30
0.0000
 41
1.7068
 42
1.7068
 43
1.0000
 50
90.0000
  0
INSERT
  8
30
  2
LONGP100
 10
76.2000
 20
13.9700
 30
0.0000
 41
1.7068
 42
1.7068
 43
1.0000
 50
90.0000
  0
INSERT
  8
30
  2
LONGP100
 10
81.2800
 20
19.0500
 30
0.0000
 41
1.7068
 42
1.7068
 43
1.0000
 50
90.0000
  0
INSERT
  8
30
  2
LONGP100
 10
83.8200
 20
19.0500
 30
0.0000
 41
1.7068
 42
1.7068
 43
1.0000
 50
90.0000
  0
INSERT
  8
30
  2
LONGP100
 10
86.3600
 20
19.0500
 30
0.0000
 41
1.7068
 42
1.7068
 43
1.0000
 50
90.0000
  0
INSERT
  8
30
  2
LONGP100
 10
88.9000
 20
19.0500
 30
0.0000
 41
1.7068
 42
1.7068
 43
1.0000
 50
90.0000
  0
INSERT
  8
30
  2
LONGP100
 10
91.4400
 20
19.0500
 30
0.0000
 41
1.7068
 42
1.7068
 43
1.0000
 50
90.0000
  0
INSERT
  8
30
  2
LONGP100
 10
93.9800
 20
19.0500
 30
0.0000
 41
1.7068
 42
1.7068
 43
1.0000
 50
90.0000
  0
INSERT
  8
30
  2
LONGP100
 10
96.5200
 20
19.0500
 30
0.0000
 41
1.7068
 42
1.7068
 43
1.0000
 50
90.0000
  0
INSERT
  8
30
  2
LONGP100
 10
96.5200
 20
26.6700
 30
0.0000
 41
1.7068
 42
1.7068
 43
1.0000
 50
90.0000
  0
INSERT
  8
30
  2
LONGP100
 10
93.9800
 20
26.6700
 30
0.0000
 41
1.7068
 42
1.7068
 43
1.0000
 50
90.0000
  0
INSERT
  8
30
  2
LONGP100
 10
91.4400
 20
26.6700
 30
0.0000
 41
1.7068
 42
1.7068
 43
1.0000
 50
90.0000
  0
INSERT
  8
30
  2
LONGP100
 10
88.9000
 20
26.6700
 30
0.0000
 41
1.7068
 42
1.7068
 43
1.0000
 50
90.0000
  0
INSERT
  8
30
  2
LONGP100
 10
86.3600
 20
26.6700
 30
0.0000
 41
1.7068
 42
1.7068
 43
1.0000
 50
90.0000
  0
INSERT
  8
30
  2
LONGP100
 10
83.8200
 20
26.6700
 30
0.0000
 41
1.7068
 42
1.7068
 43
1.0000
 50
90.0000
  0
INSERT
  8
30
  2
LONGP100
 10
81.2800
 20
26.6700
 30
0.0000
 41
1.7068
 42
1.7068
 43
1.0000
 50
90.0000
  0
INSERT
  8
30
  2
LONGP100
 10
93.9800
 20
31.7500
 30
0.0000
 41
1.7068
 42
1.7068
 43
1.0000
 50
180.0000
  0
INSERT
  8
30
  2
LONGP100
 10
93.9800
 20
34.2900
 30
0.0000
 41
1.7068
 42
1.7068
 43
1.0000
 50
180.0000
  0
INSERT
  8
30
  2
LONGP100
 10
93.9800
 20
36.8300
 30
0.0000
 41
1.7068
 42
1.7068
 43
1.0000
 50
180.0000
  0
INSERT
  8
30
  2
LONGP100
 10
93.9800
 20
39.3700
 30
0.0000
 41
1.7068
 42
1.7068
 43
1.0000
 50
180.0000
  0
INSERT
  8
30
  2
LONGP100
 10
93.9800
 20
41.9100
 30
0.0000
 41
1.7068
 42
1.7068
 43
1.0000
 50
180.0000
  0
INSERT
  8
30
  2
LONGP100
 10
93.9800
 20
44.4500
 30
0.0000
 41
1.7068
 42
1.7068
 43
1.0000
 50
180.0000
  0
INSERT
  8
30
  2
LONGP100
 10
93.9800
 20
46.9900
 30
0.0000
 41
1.7068
 42
1.7068
 43
1.0000
 50
180.0000
  0
INSERT
  8
30
  2
LONGP100
 10
86.3600
 20
46.9900
 30
0.0000
 41
1.7068
 42
1.7068
 43
1.0000
 50
180.0000
  0
INSERT
  8
30
  2
LONGP100
 10
86.3600
 20
44.4500
 30
0.0000
 41
1.7068
 42
1.7068
 43
1.0000
 50
180.0000
  0
INSERT
  8
30
  2
LONGP100
 10
86.3600
 20
41.9100
 30
0.0000
 41
1.7068
 42
1.7068
 43
1.0000
 50
180.0000
  0
INSERT
  8
30
  2
LONGP100
 10
86.3600
 20
39.3700
 30
0.0000
 41
1.7068
 42
1.7068
 43
1.0000
 50
180.0000
  0
INSERT
  8
30
  2
LONGP100
 10
86.3600
 20
36.8300
 30
0.0000
 41
1.7068
 42
1.7068
 43
1.0000
 50
180.0000
  0
INSERT
  8
30
  2
LONGP100
 10
86.3600
 20
34.2900
 30
0.0000
 41
1.7068
 42
1.7068
 43
1.0000
 50
180.0000
  0
INSERT
  8
30
  2
LONGP100
 10
86.3600
 20
31.7500
 30
0.0000
 41
1.7068
 42
1.7068
 43
1.0000
 50
180.0000
  0
INSERT
  8
30
  2
LONGP100
 10
60.9600
 20
36.8300
 30
0.0000
 41
1.7068
 42
1.7068
 43
1.0000
 50
90.0000
  0
INSERT
  8
30
  2
LONGP100
 10
63.5000
 20
36.8300
 30
0.0000
 41
1.7068
 42
1.7068
 43
1.0000
 50
90.0000
  0
INSERT
  8
30
  2
LONGP100
 10
66.0400
 20
36.8300
 30
0.0000
 41
1.7068
 42
1.7068
 43
1.0000
 50
90.0000
  0
INSERT
  8
30
  2
LONGP100
 10
68.5800
 20
36.8300
 30
0.0000
 41
1.7068
 42
1.7068
 43
1.0000
 50
90.0000
  0
INSERT
  8
30
  2
LONGP100
 10
71.1200
 20
36.8300
 30
0.0000
 41
1.7068
 42
1.7068
 43
1.0000
 50
90.0000
  0
INSERT
  8
30
  2
LONGP100
 10
73.6600
 20
36.8300
 30
0.0000
 41
1.7068
 42
1.7068
 43
1.0000
 50
90.0000
  0
INSERT
  8
30
  2
LONGP100
 10
76.2000
 20
36.8300
 30
0.0000
 41
1.7068
 42
1.7068
 43
1.0000
 50
90.0000
  0
INSERT
  8
30
  2
LONGP100
 10
78.7400
 20
36.8300
 30
0.0000
 41
1.7068
 42
1.7068
 43
1.0000
 50
90.0000
  0
INSERT
  8
30
  2
LONGP100
 10
78.7400
 20
44.4500
 30
0.0000
 41
1.7068
 42
1.7068
 43
1.0000
 50
90.0000
  0
INSERT
  8
30
  2
LONGP100
 10
76.2000
 20
44.4500
 30
0.0000
 41
1.7068
 42
1.7068
 43
1.0000
 50
90.0000
  0
INSERT
  8
30
  2
LONGP100
 10
73.6600
 20
44.4500
 30
0.0000
 41
1.7068
 42
1.7068
 43
1.0000
 50
90.0000
  0
INSERT
  8
30
  2
LONGP100
 10
71.1200
 20
44.4500
 30
0.0000
 41
1.7068
 42
1.7068
 43
1.0000
 50
90.0000
  0
INSERT
  8
30
  2
LONGP100
 10
68.5800
 20
44.4500
 30
0.0000
 41
1.7068
 42
1.7068
 43
1.0000
 50
90.0000
  0
INSERT
  8
30
  2
LONGP100
 10
66.0400
 20
44.4500
 30
0.0000
 41
1.7068
 42
1.7068
 43
1.0000
 50
90.0000
  0
INSERT
  8
30
  2
LONGP100
 10
63.5000
 20
44.4500
 30
0.0000
 41
1.7068
 42
1.7068
 43
1.0000
 50
90.0000
  0
INSERT
  8
30
  2
LONGP100
 10
60.9600
 20
44.4500
 30
0.0000
 41
1.7068
 42
1.7068
 43
1.0000
 50
90.0000
  0
INSERT
  8
30
  2
LONGP100
 10
53.3400
 20
25.4000
 30
0.0000
 41
1.7068
 42
1.7068
 43
1.0000
 50
180.0000
  0
INSERT
  8
30
  2
LONGP100
 10
53.3400
 20
27.9400
 30
0.0000
 41
1.7068
 42
1.7068
 43
1.0000
 50
180.0000
  0
INSERT
  8
30
  2
LONGP100
 10
53.3400
 20
30.4800
 30
0.0000
 41
1.7068
 42
1.7068
 43
1.0000
 50
180.0000
  0
INSERT
  8
30
  2
LONGP100
 10
53.3400
 20
33.0200
 30
0.0000
 41
1.7068
 42
1.7068
 43
1.0000
 50
180.0000
  0
INSERT
  8
30
  2
LONGP100
 10
53.3400
 20
35.5600
 30
0.0000
 41
1.7068
 42
1.7068
 43
1.0000
 50
180.0000
  0
INSERT
  8
30
  2
LONGP100
 10
53.3400
 20
38.1000
 30
0.0000
 41
1.7068
 42
1.7068
 43
1.0000
 50
180.0000
  0
INSERT
  8
30
  2
LONGP100
 10
53.3400
 20
40.6400
 30
0.0000
 41
1.7068
 42
1.7068
 43
1.0000
 50
180.0000
  0
INSERT
  8
30
  2
LONGP100
 10
45.7200
 20
40.6400
 30
0.0000
 41
1.7068
 42
1.7068
 43
1.0000
 50
180.0000
  0
INSERT
  8
30
  2
LONGP100
 10
45.7200
 20
38.1000
 30
0.0000
 41
1.7068
 42
1.7068
 43
1.0000
 50
180.0000
  0
INSERT
  8
30
  2
LONGP100
 10
45.7200
 20
35.5600
 30
0.0000
 41
1.7068
 42
1.7068
 43
1.0000
 50
180.0000
  0
INSERT
  8
30
  2
LONGP100
 10
45.7200
 20
33.0200
 30
0.0000
 41
1.7068
 42
1.7068
 43
1.0000
 50
180.0000
  0
INSERT
  8
30
  2
LONGP100
 10
45.7200
 20
30.4800
 30
0.0000
 41
1.7068
 42
1.7068
 43
1.0000
 50
180.0000
  0
INSERT
  8
30
  2
LONGP100
 10
45.7200
 20
27.9400
 30
0.0000
 41
1.7068
 42
1.7068
 43
1.0000
 50
180.0000
  0
INSERT
  8
30
  2
LONGP100
 10
45.7200
 20
25.4000
 30
0.0000
 41
1.7068
 42
1.7068
 43
1.0000
 50
180.0000
  0
INSERT
  8
30
  2
LONGP100
 10
33.0200
 20
48.2600
 30
0.0000
 41
1.7068
 42
1.7068
 43
1.0000
 50
90.0000
  0
INSERT
  8
30
  2
LONGP100
 10
35.5600
 20
48.2600
 30
0.0000
 41
1.7068
 42
1.7068
 43
1.0000
 50
90.0000
  0
INSERT
  8
30
  2
LONGP100
 10
38.1000
 20
48.2600
 30
0.0000
 41
1.7068
 42
1.7068
 43
1.0000
 50
90.0000
  0
INSERT
  8
30
  2
LONGP100
 10
40.6400
 20
48.2600
 30
0.0000
 41
1.7068
 42
1.7068
 43
1.0000
 50
90.0000
  0
INSERT
  8
30
  2
LONGP100
 10
43.1800
 20
48.2600
 30
0.0000
 41
1.7068
 42
1.7068
 43
1.0000
 50
90.0000
  0
INSERT
  8
30
  2
LONGP100
 10
45.7200
 20
48.2600
 30
0.0000
 41
1.7068
 42
1.7068
 43
1.0000
 50
90.0000
  0
INSERT
  8
30
  2
LONGP100
 10
48.2600
 20
48.2600
 30
0.0000
 41
1.7068
 42
1.7068
 43
1.0000
 50
90.0000
  0
INSERT
  8
30
  2
LONGP100
 10
50.8000
 20
48.2600
 30
0.0000
 41
1.7068
 42
1.7068
 43
1.0000
 50
90.0000
  0
INSERT
  8
30
  2
LONGP100
 10
50.8000
 20
55.8800
 30
0.0000
 41
1.7068
 42
1.7068
 43
1.0000
 50
90.0000
  0
INSERT
  8
30
  2
LONGP100
 10
48.2600
 20
55.8800
 30
0.0000
 41
1.7068
 42
1.7068
 43
1.0000
 50
90.0000
  0
INSERT
  8
30
  2
LONGP100
 10
45.7200
 20
55.8800
 30
0.0000
 41
1.7068
 42
1.7068
 43
1.0000
 50
90.0000
  0
INSERT
  8
30
  2
LONGP100
 10
43.1800
 20
55.8800
 30
0.0000
 41
1.7068
 42
1.7068
 43
1.0000
 50
90.0000
  0
INSERT
  8
30
  2
LONGP100
 10
40.6400
 20
55.8800
 30
0.0000
 41
1.7068
 42
1.7068
 43
1.0000
 50
90.0000
  0
INSERT
  8
30
  2
LONGP100
 10
38.1000
 20
55.8800
 30
0.0000
 41
1.7068
 42
1.7068
 43
1.0000
 50
90.0000
  0
INSERT
  8
30
  2
LONGP100
 10
35.5600
 20
55.8800
 30
0.0000
 41
1.7068
 42
1.7068
 43
1.0000
 50
90.0000
  0
INSERT
  8
30
  2
LONGP100
 10
33.0200
 20
55.8800
 30
0.0000
 41
1.7068
 42
1.7068
 43
1.0000
 50
90.0000
  0
INSERT
  8
30
  2
LONGP100
 10
38.1000
 20
25.4000
 30
0.0000
 41
1.7068
 42
1.7068
 43
1.0000
 50
180.0000
  0
INSERT
  8
30
  2
LONGP100
 10
38.1000
 20
27.9400
 30
0.0000
 41
1.7068
 42
1.7068
 43
1.0000
 50
180.0000
  0
INSERT
  8
30
  2
LONGP100
 10
38.1000
 20
30.4800
 30
0.0000
 41
1.7068
 42
1.7068
 43
1.0000
 50
180.0000
  0
INSERT
  8
30
  2
LONGP100
 10
38.1000
 20
33.0200
 30
0.0000
 41
1.7068
 42
1.7068
 43
1.0000
 50
180.0000
  0
INSERT
  8
30
  2
LONGP100
 10
38.1000
 20
35.5600
 30
0.0000
 41
1.7068
 42
1.7068
 43
1.0000
 50
180.0000
  0
INSERT
  8
30
  2
LONGP100
 10
38.1000
 20
38.1000
 30
0.0000
 41
1.7068
 42
1.7068
 43
1.0000
 50
180.0000
  0
INSERT
  8
30
  2
LONGP100
 10
38.1000
 20
40.6400
 30
0.0000
 41
1.7068
 42
1.7068
 43
1.0000
 50
180.0000
  0
INSERT
  8
30
  2
LONGP100
 10
30.4800
 20
40.6400
 30
0.0000
 41
1.7068
 42
1.7068
 43
1.0000
 50
180.0000
  0
INSERT
  8
30
  2
LONGP100
 10
30.4800
 20
38.1000
 30
0.0000
 41
1.7068
 42
1.7068
 43
1.0000
 50
180.0000
  0
INSERT
  8
30
  2
LONGP100
 10
30.4800
 20
35.5600
 30
0.0000
 41
1.7068
 42
1.7068
 43
1.0000
 50
180.0000
  0
INSERT
  8
30
  2
LONGP100
 10
30.4800
 20
33.0200
 30
0.0000
 41
1.7068
 42
1.7068
 43
1.0000
 50
180.0000
  0
INSERT
  8
30
  2
LONGP100
 10
30.4800
 20
30.4800
 30
0.0000
 41
1.7068
 42
1.7068
 43
1.0000
 50
180.0000
  0
INSERT
  8
30
  2
LONGP100
 10
30.4800
 20
27.9400
 30
0.0000
 41
1.7068
 42
1.7068
 43
1.0000
 50
180.0000
  0
INSERT
  8
30
  2
LONGP100
 10
30.4800
 20
25.4000
 30
0.0000
 41
1.7068
 42
1.7068
 43
1.0000
 50
180.0000
  0
INSERT
  8
30
  2
OCTAGONP
 10
43.1800
 20
27.9400
 30
0.0000
 41
1.9202
 42
1.9202
 43
1.0000
 50
0.0000
  0
INSERT
  8
30
  2
OCTAGONP
 10
68.5800
 20
34.2900
 30
0.0000
 41
1.9202
 42
1.9202
 43
1.0000
 50
0.0000
  0
INSERT
  8
30
  2
OCTAGONP
 10
71.1200
 20
46.9900
 30
0.0000
 41
1.9202
 42
1.9202
 43
1.0000
 50
0.0000
  0
INSERT
  8
30
  2
OCTAGONP
 10
96.5200
 20
36.8300
 30
0.0000
 41
1.9202
 42
1.9202
 43
1.0000
 50
0.0000
  0
INSERT
  8
30
  2
OCTAGONP
 10
68.5800
 20
46.9900
 30
0.0000
 41
1.9202
 42
1.9202
 43
1.0000
 50
0.0000
  0
INSERT
  8
30
  2
OCTAGONP
 10
96.5200
 20
39.3700
 30
0.0000
 41
1.9202
 42
1.9202
 43
1.0000
 50
0.0000
  0
INSERT
  8
30
  2
OCTAGONP
 10
66.0400
 20
46.9900
 30
0.0000
 41
1.9202
 42
1.9202
 43
1.0000
 50
0.0000
  0
INSERT
  8
30
  2
OCTAGONP
 10
96.5200
 20
41.9100
 30
0.0000
 41
1.9202
 42
1.9202
 43
1.0000
 50
0.0000
  0
INSERT
  8
30
  2
OCTAGONP
 10
53.3400
 20
12.7000
 30
0.0000
 41
1.9202
 42
1.9202
 43
1.0000
 50
0.0000
  0
INSERT
  8
30
  2
OCTAGONP
 10
81.2800
 20
3.8100
 30
0.0000
 41
1.9202
 42
1.9202
 43
1.0000
 50
0.0000
  0
INSERT
  8
30
  2
ROUNDP
 10
66.0400
 20
5.0800
 30
0.0000
 41
1.7068
 42
1.7068
 43
1.0000
 50
90.0000
  0
INSERT
  8
30
  2
ROUNDP
 10
66.0400
 20
20.3200
 30
0.0000
 41
1.7068
 42
1.7068
 43
1.0000
 50
90.0000
  0
INSERT
  8
30
  2
ROUNDP
 10
58.4200
 20
20.3200
 30
0.0000
 41
1.7068
 42
1.7068
 43
1.0000
 50
90.0000
  0
INSERT
  8
30
  2
ROUNDP
 10
58.4200
 20
5.0800
 30
0.0000
 41
1.7068
 42
1.7068
 43
1.0000
 50
90.0000
  0
INSERT
  8
30
  2
OCTAGONP
 10
68.5800
 20
57.1500
 30
0.0000
 41
1.7068
 42
1.7068
 43
1.0000
 50
180.0000
  0
INSERT
  8
30
  2
OCTAGONP
 10
60.9600
 20
57.1500
 30
0.0000
 41
1.7068
 42
1.7068
 43
1.0000
 50
180.0000
  0
INSERT
  8
30
  2
OCTAGONP
 10
68.5800
 20
49.5300
 30
0.0000
 41
1.7068
 42
1.7068
 43
1.0000
 50
180.0000
  0
INSERT
  8
30
  2
OCTAGONP
 10
60.9600
 20
49.5300
 30
0.0000
 41
1.7068
 42
1.7068
 43
1.0000
 50
180.0000
  0
INSERT
  8
30
  2
OCTAGONP
 10
68.5800
 20
52.0700
 30
0.0000
 41
1.7068
 42
1.7068
 43
1.0000
 50
180.0000
  0
INSERT
  8
30
  2
OCTAGONP
 10
60.9600
 20
52.0700
 30
0.0000
 41
1.7068
 42
1.7068
 43
1.0000
 50
180.0000
  0
INSERT
  8
30
  2
OCTAGONP
 10
68.5800
 20
54.6100
 30
0.0000
 41
1.7068
 42
1.7068
 43
1.0000
 50
180.0000
  0
INSERT
  8
30
  2
OCTAGONP
 10
60.9600
 20
54.6100
 30
0.0000
 41
1.7068
 42
1.7068
 43
1.0000
 50
180.0000
  0
INSERT
  8
30
  2
OCTAGONP
 10
30.4800
 20
58.4200
 30
0.0000
 41
1.7068
 42
1.7068
 43
1.0000
 50
0.0000
  0
INSERT
  8
30
  2
OCTAGONP
 10
38.1000
 20
58.4200
 30
0.0000
 41
1.7068
 42
1.7068
 43
1.0000
 50
0.0000
  0
INSERT
  8
30
  2
LONGP100
 10
71.1200
 20
49.5300
 30
0.0000
 41
1.7068
 42
1.7068
 43
1.0000
 50
90.0000
  0
INSERT
  8
30
  2
LONGP100
 10
73.6600
 20
49.5300
 30
0.0000
 41
1.7068
 42
1.7068
 43
1.0000
 50
90.0000
  0
INSERT
  8
30
  2
LONGP100
 10
76.2000
 20
49.5300
 30
0.0000
 41
1.7068
 42
1.7068
 43
1.0000
 50
90.0000
  0
INSERT
  8
30
  2
LONGP100
 10
78.7400
 20
49.5300
 30
0.0000
 41
1.7068
 42
1.7068
 43
1.0000
 50
90.0000
  0
INSERT
  8
30
  2
LONGP100
 10
78.7400
 20
57.1500
 30
0.0000
 41
1.7068
 42
1.7068
 43
1.0000
 50
90.0000
  0
INSERT
  8
30
  2
LONGP100
 10
76.2000
 20
57.1500
 30
0.0000
 41
1.7068
 42
1.7068
 43
1.0000
 50
90.0000
  0
INSERT
  8
30
  2
LONGP100
 10
73.6600
 20
57.1500
 30
0.0000
 41
1.7068
 42
1.7068
 43
1.0000
 50
90.0000
  0
INSERT
  8
30
  2
LONGP100
 10
71.1200
 20
57.1500
 30
0.0000
 41
1.7068
 42
1.7068
 43
1.0000
 50
90.0000
  0
INSERT
  8
30
  2
RECT
 10
8.9535
 20
4.2545
 30
0.0000
 41
17.1451
 42
2.1591
 43
1.0000
 50
180.0000
  0
INSERT
  8
30
  2
RECT
 10
8.9535
 20
7.4295
 30
0.0000
 41
17.1451
 42
2.1591
 43
1.0000
 50
180.0000
  0
INSERT
  8
30
  2
RECT
 10
8.9535
 20
10.6045
 30
0.0000
 41
17.1451
 42
2.1591
 43
1.0000
 50
180.0000
  0
INSERT
  8
30
  2
RECT
 10
8.9535
 20
13.7795
 30
0.0000
 41
17.1451
 42
2.1591
 43
1.0000
 50
180.0000
  0
INSERT
  8
30
  2
RECT
 10
8.9535
 20
16.9545
 30
0.0000
 41
17.1451
 42
2.1591
 43
1.0000
 50
180.0000
  0
INSERT
  8
30
  2
RECT
 10
8.9535
 20
20.1295
 30
0.0000
 41
17.1451
 42
2.1591
 43
1.0000
 50
180.0000
  0
INSERT
  8
30
  2
RECT
 10
8.9535
 20
23.3045
 30
0.0000
 41
17.1451
 42
2.1591
 43
1.0000
 50
180.0000
  0
INSERT
  8
30
  2
RECT
 10
8.9535
 20
26.4795
 30
0.0000
 41
17.1451
 42
2.1591
 43
1.0000
 50
180.0000
  0
INSERT
  8
30
  2
RECT
 10
8.9535
 20
29.6545
 30
0.0000
 41
17.1451
 42
2.1591
 43
1.0000
 50
180.0000
  0
INSERT
  8
30
  2
RECT
 10
8.9535
 20
32.8295
 30
0.0000
 41
17.1451
 42
2.1591
 43
1.0000
 50
180.0000
  0
INSERT
  8
30
  2
RECT
 10
8.9535
 20
36.0045
 30
0.0000
 41
17.1451
 42
2.1591
 43
1.0000
 50
180.0000
  0
INSERT
  8
30
  2
RECT
 10
8.9535
 20
39.1795
 30
0.0000
 41
17.1451
 42
2.1591
 43
1.0000
 50
180.0000
  0
INSERT
  8
30
  2
RECT
 10
8.9535
 20
42.3545
 30
0.0000
 41
17.1451
 42
2.1591
 43
1.0000
 50
180.0000
  0
INSERT
  8
30
  2
RECT
 10
8.9535
 20
45.5295
 30
0.0000
 41
17.1451
 42
2.1591
 43
1.0000
 50
180.0000
  0
INSERT
  8
30
  2
RECT
 10
8.9535
 20
48.7045
 30
0.0000
 41
17.1451
 42
2.1591
 43
1.0000
 50
180.0000
  0
INSERT
  8
30
  2
RECT
 10
8.9535
 20
51.8795
 30
0.0000
 41
17.1451
 42
2.1591
 43
1.0000
 50
180.0000
  0
INSERT
  8
30
  2
RECT
 10
8.9535
 20
55.0545
 30
0.0000
 41
17.1451
 42
2.1591
 43
1.0000
 50
180.0000
  0
INSERT
  8
30
  2
RECT
 10
8.9535
 20
58.2295
 30
0.0000
 41
17.1451
 42
2.1591
 43
1.0000
 50
180.0000
  0
INSERT
  8
30
  2
SQUAREP
 10
25.1460
 20
3.4290
 30
0.0000
 41
1.7068
 42
1.7068
 43
1.0000
 50
180.0000
  0
INSERT
  8
30
  2
SQUAREP
 10
21.3360
 20
4.6990
 30
0.0000
 41
1.7068
 42
1.7068
 43
1.0000
 50
180.0000
  0
INSERT
  8
30
  2
SQUAREP
 10
25.1460
 20
7.2390
 30
0.0000
 41
1.7068
 42
1.7068
 43
1.0000
 50
180.0000
  0
INSERT
  8
30
  2
SQUAREP
 10
21.3360
 20
8.5090
 30
0.0000
 41
1.7068
 42
1.7068
 43
1.0000
 50
180.0000
  0
INSERT
  8
30
  2
SQUAREP
 10
25.1460
 20
9.7790
 30
0.0000
 41
1.7068
 42
1.7068
 43
1.0000
 50
180.0000
  0
INSERT
  8
30
  2
SQUAREP
 10
21.3360
 20
11.0490
 30
0.0000
 41
1.7068
 42
1.7068
 43
1.0000
 50
180.0000
  0
INSERT
  8
30
  2
SQUAREP
 10
25.1460
 20
13.5890
 30
0.0000
 41
1.7068
 42
1.7068
 43
1.0000
 50
180.0000
  0
INSERT
  8
30
  2
SQUAREP
 10
21.3360
 20
14.8590
 30
0.0000
 41
1.7068
 42
1.7068
 43
1.0000
 50
180.0000
  0
INSERT
  8
30
  2
SQUAREP
 10
25.1460
 20
16.1290
 30
0.0000
 41
1.7068
 42
1.7068
 43
1.0000
 50
180.0000
  0
INSERT
  8
30
  2
SQUAREP
 10
21.3360
 20
17.3990
 30
0.0000
 41
1.7068
 42
1.7068
 43
1.0000
 50
180.0000
  0
INSERT
  8
30
  2
SQUAREP
 10
25.1460
 20
19.9390
 30
0.0000
 41
1.7068
 42
1.7068
 43
1.0000
 50
180.0000
  0
INSERT
  8
30
  2
SQUAREP
 10
21.3360
 20
21.2090
 30
0.0000
 41
1.7068
 42
1.7068
 43
1.0000
 50
180.0000
  0
INSERT
  8
30
  2
SQUAREP
 10
25.1460
 20
22.4790
 30
0.0000
 41
1.7068
 42
1.7068
 43
1.0000
 50
180.0000
  0
INSERT
  8
30
  2
SQUAREP
 10
21.3360
 20
23.7490
 30
0.0000
 41
1.7068
 42
1.7068
 43
1.0000
 50
180.0000
  0
INSERT
  8
30
  2
SQUAREP
 10
25.1460
 20
26.2890
 30
0.0000
 41
1.7068
 42
1.7068
 43
1.0000
 50
180.0000
  0
INSERT
  8
30
  2
SQUAREP
 10
21.3360
 20
27.5590
 30
0.0000
 41
1.7068
 42
1.7068
 43
1.0000
 50
180.0000
  0
INSERT
  8
30
  2
SQUAREP
 10
25.1460
 20
28.8290
 30
0.0000
 41
1.7068
 42
1.7068
 43
1.0000
 50
180.0000
  0
INSERT
  8
30
  2
SQUAREP
 10
21.3360
 20
30.0990
 30
0.0000
 41
1.7068
 42
1.7068
 43
1.0000
 50
180.0000
  0
INSERT
  8
30
  2
SQUAREP
 10
25.1460
 20
32.6390
 30
0.0000
 41
1.7068
 42
1.7068
 43
1.0000
 50
180.0000
  0
INSERT
  8
30
  2
SQUAREP
 10
21.3360
 20
33.9090
 30
0.0000
 41
1.7068
 42
1.7068
 43
1.0000
 50
180.0000
  0
INSERT
  8
30
  2
SQUAREP
 10
25.1460
 20
35.1790
 30
0.0000
 41
1.7068
 42
1.7068
 43
1.0000
 50
180.0000
  0
INSERT
  8
30
  2
SQUAREP
 10
21.3360
 20
36.4490
 30
0.0000
 41
1.7068
 42
1.7068
 43
1.0000
 50
180.0000
  0
INSERT
  8
30
  2
SQUAREP
 10
25.1460
 20
38.9890
 30
0.0000
 41
1.7068
 42
1.7068
 43
1.0000
 50
180.0000
  0
INSERT
  8
30
  2
SQUAREP
 10
21.3360
 20
40.2590
 30
0.0000
 41
1.7068
 42
1.7068
 43
1.0000
 50
180.0000
  0
INSERT
  8
30
  2
SQUAREP
 10
25.1460
 20
41.5290
 30
0.0000
 41
1.7068
 42
1.7068
 43
1.0000
 50
180.0000
  0
INSERT
  8
30
  2
SQUAREP
 10
21.3360
 20
42.7990
 30
0.0000
 41
1.7068
 42
1.7068
 43
1.0000
 50
180.0000
  0
INSERT
  8
30
  2
SQUAREP
 10
25.1460
 20
45.3390
 30
0.0000
 41
1.7068
 42
1.7068
 43
1.0000
 50
180.0000
  0
INSERT
  8
30
  2
SQUAREP
 10
21.3360
 20
46.6090
 30
0.0000
 41
1.7068
 42
1.7068
 43
1.0000
 50
180.0000
  0
INSERT
  8
30
  2
SQUAREP
 10
25.1460
 20
47.8790
 30
0.0000
 41
1.7068
 42
1.7068
 43
1.0000
 50
180.0000
  0
INSERT
  8
30
  2
SQUAREP
 10
21.3360
 20
49.1490
 30
0.0000
 41
1.7068
 42
1.7068
 43
1.0000
 50
180.0000
  0
INSERT
  8
30
  2
SQUAREP
 10
25.1460
 20
51.6890
 30
0.0000
 41
1.7068
 42
1.7068
 43
1.0000
 50
180.0000
  0
INSERT
  8
30
  2
SQUAREP
 10
21.3360
 20
52.9590
 30
0.0000
 41
1.7068
 42
1.7068
 43
1.0000
 50
180.0000
  0
INSERT
  8
30
  2
SQUAREP
 10
25.1460
 20
54.2290
 30
0.0000
 41
1.7068
 42
1.7068
 43
1.0000
 50
180.0000
  0
INSERT
  8
30
  2
SQUAREP
 10
21.3360
 20
55.4990
 30
0.0000
 41
1.7068
 42
1.7068
 43
1.0000
 50
180.0000
  0
INSERT
  8
30
  2
SQUAREP
 10
25.1460
 20
58.0390
 30
0.0000
 41
1.7068
 42
1.7068
 43
1.0000
 50
180.0000
  0
INSERT
  8
30
  2
SQUAREP
 10
21.3360
 20
59.3090
 30
0.0000
 41
1.7068
 42
1.7068
 43
1.0000
 50
180.0000
  0
ENDSEC
  0
EOF
