G75*
G70*
%OFA0B0*%
%FSLAX24Y24*%
%IPPOS*%
%LPD*%
%AMOC8*
5,1,8,0,0,1.08239X$1,22.5*
%
%ADD10C,0.0000*%
%ADD11C,0.0060*%
%ADD12C,0.0050*%
%ADD13C,0.0080*%
%ADD14C,0.0040*%
D10*
X006915Y003026D02*
X000665Y003026D01*
X000665Y025526D01*
X008165Y025526D01*
X008165Y026526D01*
X050159Y026511D01*
X050159Y002041D01*
X006915Y002026D01*
X006915Y003026D01*
X047535Y004226D02*
X047538Y004283D01*
X047545Y004340D01*
X047558Y004396D01*
X047576Y004450D01*
X047599Y004503D01*
X047627Y004553D01*
X047659Y004601D01*
X047695Y004645D01*
X047735Y004686D01*
X047779Y004724D01*
X047825Y004757D01*
X047875Y004785D01*
X047927Y004809D01*
X047981Y004829D01*
X048037Y004843D01*
X048093Y004852D01*
X048151Y004856D01*
X048208Y004855D01*
X048265Y004848D01*
X048321Y004836D01*
X048376Y004820D01*
X048429Y004798D01*
X048480Y004772D01*
X048528Y004741D01*
X048574Y004706D01*
X048616Y004666D01*
X048654Y004624D01*
X048688Y004577D01*
X048718Y004528D01*
X048743Y004477D01*
X048763Y004423D01*
X048779Y004368D01*
X048789Y004312D01*
X048794Y004255D01*
X048794Y004197D01*
X048789Y004140D01*
X048779Y004084D01*
X048763Y004029D01*
X048743Y003975D01*
X048718Y003924D01*
X048688Y003875D01*
X048654Y003828D01*
X048616Y003786D01*
X048574Y003746D01*
X048528Y003711D01*
X048480Y003680D01*
X048429Y003654D01*
X048376Y003632D01*
X048321Y003616D01*
X048265Y003604D01*
X048208Y003597D01*
X048151Y003596D01*
X048093Y003600D01*
X048037Y003609D01*
X047981Y003623D01*
X047927Y003643D01*
X047875Y003667D01*
X047825Y003695D01*
X047779Y003728D01*
X047735Y003766D01*
X047695Y003807D01*
X047659Y003851D01*
X047627Y003899D01*
X047599Y003949D01*
X047576Y004002D01*
X047558Y004056D01*
X047545Y004112D01*
X047538Y004169D01*
X047535Y004226D01*
X047535Y024226D02*
X047538Y024283D01*
X047545Y024340D01*
X047558Y024396D01*
X047576Y024450D01*
X047599Y024503D01*
X047627Y024553D01*
X047659Y024601D01*
X047695Y024645D01*
X047735Y024686D01*
X047779Y024724D01*
X047825Y024757D01*
X047875Y024785D01*
X047927Y024809D01*
X047981Y024829D01*
X048037Y024843D01*
X048093Y024852D01*
X048151Y024856D01*
X048208Y024855D01*
X048265Y024848D01*
X048321Y024836D01*
X048376Y024820D01*
X048429Y024798D01*
X048480Y024772D01*
X048528Y024741D01*
X048574Y024706D01*
X048616Y024666D01*
X048654Y024624D01*
X048688Y024577D01*
X048718Y024528D01*
X048743Y024477D01*
X048763Y024423D01*
X048779Y024368D01*
X048789Y024312D01*
X048794Y024255D01*
X048794Y024197D01*
X048789Y024140D01*
X048779Y024084D01*
X048763Y024029D01*
X048743Y023975D01*
X048718Y023924D01*
X048688Y023875D01*
X048654Y023828D01*
X048616Y023786D01*
X048574Y023746D01*
X048528Y023711D01*
X048480Y023680D01*
X048429Y023654D01*
X048376Y023632D01*
X048321Y023616D01*
X048265Y023604D01*
X048208Y023597D01*
X048151Y023596D01*
X048093Y023600D01*
X048037Y023609D01*
X047981Y023623D01*
X047927Y023643D01*
X047875Y023667D01*
X047825Y023695D01*
X047779Y023728D01*
X047735Y023766D01*
X047695Y023807D01*
X047659Y023851D01*
X047627Y023899D01*
X047599Y023949D01*
X047576Y024002D01*
X047558Y024056D01*
X047545Y024112D01*
X047538Y024169D01*
X047535Y024226D01*
D11*
X046815Y024226D02*
X046821Y024349D01*
X046837Y024471D01*
X046865Y024590D01*
X046904Y024707D01*
X046953Y024820D01*
X047012Y024927D01*
X047080Y025029D01*
X047158Y025125D01*
X047244Y025213D01*
X047337Y025292D01*
X047437Y025363D01*
X047544Y025425D01*
X047655Y025476D01*
X047771Y025517D01*
X047890Y025548D01*
X048012Y025567D01*
X048134Y025576D01*
X048257Y025573D01*
X048379Y025559D01*
X048500Y025534D01*
X048617Y025498D01*
X048731Y025452D01*
X048840Y025395D01*
X048944Y025329D01*
X049041Y025254D01*
X049130Y025170D01*
X049212Y025078D01*
X049285Y024979D01*
X049349Y024874D01*
X049403Y024764D01*
X049447Y024649D01*
X049480Y024531D01*
X049502Y024410D01*
X049514Y024287D01*
X049514Y024165D01*
X049502Y024042D01*
X049480Y023921D01*
X049447Y023803D01*
X049403Y023688D01*
X049349Y023578D01*
X049285Y023473D01*
X049212Y023374D01*
X049130Y023282D01*
X049041Y023198D01*
X048944Y023123D01*
X048840Y023057D01*
X048731Y023000D01*
X048617Y022954D01*
X048500Y022918D01*
X048379Y022893D01*
X048257Y022879D01*
X048134Y022876D01*
X048012Y022885D01*
X047890Y022904D01*
X047771Y022935D01*
X047655Y022976D01*
X047544Y023027D01*
X047437Y023089D01*
X047337Y023160D01*
X047244Y023239D01*
X047158Y023327D01*
X047080Y023423D01*
X047012Y023525D01*
X046953Y023632D01*
X046904Y023745D01*
X046865Y023862D01*
X046837Y023981D01*
X046821Y024103D01*
X046815Y024226D01*
X040908Y020563D02*
X040908Y020456D01*
X041122Y020242D01*
X041335Y020242D02*
X040908Y020242D01*
X041015Y020025D02*
X040908Y019918D01*
X040908Y019705D01*
X041015Y019598D01*
X041228Y019598D01*
X041335Y019705D01*
X041335Y019918D01*
X041228Y020025D01*
X041015Y020025D01*
X040908Y019274D02*
X040908Y019061D01*
X040801Y019168D02*
X041228Y019168D01*
X041335Y019274D01*
X041335Y018843D02*
X041335Y018523D01*
X041228Y018416D01*
X041015Y018416D01*
X040908Y018523D01*
X040908Y018843D01*
X041015Y018199D02*
X041122Y018199D01*
X041122Y017772D01*
X041228Y017772D02*
X041015Y017772D01*
X040908Y017879D01*
X040908Y018092D01*
X041015Y018199D01*
X041335Y018092D02*
X041335Y017879D01*
X041228Y017772D01*
X041335Y017554D02*
X041015Y017554D01*
X040908Y017447D01*
X040908Y017127D01*
X041335Y017127D01*
X041335Y016910D02*
X041015Y016910D01*
X040908Y016803D01*
X040908Y016483D01*
X041335Y016483D01*
X041228Y016265D02*
X041015Y016265D01*
X040908Y016158D01*
X040908Y015945D01*
X041015Y015838D01*
X041228Y015838D01*
X041335Y015945D01*
X041335Y016158D01*
X041228Y016265D01*
X041228Y015621D02*
X041335Y015514D01*
X041335Y015300D01*
X041228Y015194D01*
X040801Y015194D01*
X040695Y015300D01*
X040695Y015514D01*
X040801Y015621D01*
X040908Y014332D02*
X040908Y014011D01*
X041015Y013905D01*
X041122Y014011D01*
X041122Y014225D01*
X041228Y014332D01*
X041335Y014225D01*
X041335Y013905D01*
X041335Y013687D02*
X040908Y013687D01*
X040908Y013260D02*
X041228Y013260D01*
X041335Y013367D01*
X041335Y013687D01*
X041228Y013043D02*
X041122Y013043D01*
X041015Y012936D01*
X041015Y012616D01*
X041015Y012936D02*
X040908Y013043D01*
X040801Y013043D01*
X040695Y012936D01*
X040695Y012616D01*
X041335Y012616D01*
X041335Y012936D01*
X041228Y013043D01*
X041335Y011754D02*
X041335Y011326D01*
X040695Y011326D01*
X040801Y011109D02*
X040695Y011002D01*
X040695Y010789D01*
X040801Y010682D01*
X040908Y010682D01*
X041015Y010789D01*
X041015Y011002D01*
X041122Y011109D01*
X041228Y011109D01*
X041335Y011002D01*
X041335Y010789D01*
X041228Y010682D01*
X041122Y010682D01*
X041015Y010789D01*
X041015Y011002D02*
X040908Y011109D01*
X040801Y011109D01*
X040695Y010464D02*
X041335Y010037D01*
X041335Y009714D02*
X041335Y009500D01*
X041335Y009607D02*
X040908Y009607D01*
X040908Y009500D01*
X040908Y009283D02*
X041015Y009176D01*
X041015Y008963D01*
X040908Y008856D01*
X040801Y008856D01*
X040695Y008963D01*
X040695Y009176D01*
X040801Y009283D01*
X040908Y009283D01*
X041015Y009176D02*
X041122Y009283D01*
X041228Y009283D01*
X041335Y009176D01*
X041335Y008963D01*
X041228Y008856D01*
X041122Y008856D01*
X041015Y008963D01*
X040695Y009607D02*
X040588Y009607D01*
X038165Y009776D02*
X037915Y009526D01*
X038165Y009276D01*
X038165Y008776D01*
X037915Y008526D01*
X037415Y008526D01*
X037165Y008776D01*
X037165Y009276D01*
X037415Y009526D01*
X037165Y009776D01*
X037165Y010276D01*
X037415Y010526D01*
X037165Y010776D01*
X037165Y011276D01*
X037415Y011526D01*
X037165Y011776D01*
X037165Y012276D01*
X037415Y012526D01*
X037165Y012776D01*
X037165Y013276D01*
X037415Y013526D01*
X037165Y013776D01*
X037165Y014276D01*
X037415Y014526D01*
X037165Y014776D01*
X037165Y015276D01*
X037415Y015526D01*
X037165Y015776D01*
X037165Y016276D01*
X037415Y016526D01*
X037165Y016776D01*
X037165Y017276D01*
X037415Y017526D01*
X037165Y017776D01*
X037165Y018276D01*
X037415Y018526D01*
X037165Y018776D01*
X037165Y019276D01*
X037415Y019526D01*
X037165Y019776D01*
X037165Y020276D01*
X037415Y020526D01*
X037915Y020526D01*
X038165Y020276D01*
X038165Y019776D01*
X037915Y019526D01*
X038165Y019276D01*
X038165Y018776D01*
X037915Y018526D01*
X038165Y018276D01*
X038165Y017776D01*
X037915Y017526D01*
X038165Y017276D01*
X038165Y016776D01*
X037915Y016526D01*
X038165Y016276D01*
X038165Y015776D01*
X037915Y015526D01*
X038165Y015276D01*
X038165Y014776D01*
X037915Y014526D01*
X038165Y014276D01*
X038165Y013776D01*
X037915Y013526D01*
X038165Y013276D01*
X038165Y012776D01*
X037915Y012526D01*
X038165Y012276D01*
X038165Y011776D01*
X037915Y011526D01*
X038165Y011276D01*
X038165Y010776D01*
X037915Y010526D01*
X038165Y010276D01*
X038165Y009776D01*
X035849Y010989D02*
X035208Y010989D01*
X035208Y011310D01*
X035315Y011416D01*
X035528Y011416D01*
X035635Y011310D01*
X035635Y010989D01*
X035635Y010772D02*
X035315Y010772D01*
X035208Y010665D01*
X035315Y010558D01*
X035635Y010558D01*
X035635Y010345D02*
X035208Y010345D01*
X035208Y010452D01*
X035315Y010558D01*
X035208Y010127D02*
X035635Y010127D01*
X035635Y009807D01*
X035528Y009700D01*
X035208Y009700D01*
X034995Y009483D02*
X034995Y009269D01*
X034995Y009376D02*
X035528Y009376D01*
X035635Y009269D01*
X035635Y009163D01*
X035528Y009056D01*
X034165Y009276D02*
X034165Y008776D01*
X033915Y008526D01*
X033415Y008526D01*
X033165Y008776D01*
X033165Y009276D01*
X033415Y009526D01*
X033165Y009776D01*
X033165Y010276D01*
X033415Y010526D01*
X033165Y010776D01*
X033165Y011276D01*
X033415Y011526D01*
X033165Y011776D01*
X033165Y012276D01*
X033415Y012526D01*
X033165Y012776D01*
X033165Y013276D01*
X033415Y013526D01*
X033165Y013776D01*
X033165Y014276D01*
X033415Y014526D01*
X033165Y014776D01*
X033165Y015276D01*
X033415Y015526D01*
X033165Y015776D01*
X033165Y016276D01*
X033415Y016526D01*
X033165Y016776D01*
X033165Y017276D01*
X033415Y017526D01*
X033165Y017776D01*
X033165Y018276D01*
X033415Y018526D01*
X033165Y018776D01*
X033165Y019276D01*
X033415Y019526D01*
X033165Y019776D01*
X033165Y020276D01*
X033415Y020526D01*
X033915Y020526D01*
X034165Y020276D01*
X034165Y019776D01*
X033915Y019526D01*
X034165Y019276D01*
X034165Y018776D01*
X033915Y018526D01*
X034165Y018276D01*
X034165Y017776D01*
X033915Y017526D01*
X034165Y017276D01*
X034165Y016776D01*
X033915Y016526D01*
X034165Y016276D01*
X034165Y015776D01*
X033915Y015526D01*
X034165Y015276D01*
X034165Y014776D01*
X033915Y014526D01*
X034165Y014276D01*
X034165Y013776D01*
X033915Y013526D01*
X034165Y013276D01*
X034165Y012776D01*
X033915Y012526D01*
X034165Y012276D01*
X034165Y011776D01*
X033915Y011526D01*
X034165Y011276D01*
X034165Y010776D01*
X033915Y010526D01*
X034165Y010276D01*
X034165Y009776D01*
X033915Y009526D01*
X034165Y009276D01*
X034365Y007326D02*
X034465Y007326D01*
X034365Y007326D02*
X034365Y007226D01*
X034865Y007326D02*
X034965Y007326D01*
X034965Y007226D01*
X034965Y006826D02*
X034965Y006726D01*
X034865Y006726D01*
X034465Y006726D02*
X034365Y006726D01*
X034365Y006826D01*
X034365Y006326D02*
X034465Y006326D01*
X034365Y006326D02*
X034365Y006226D01*
X034365Y005826D02*
X034365Y005726D01*
X034465Y005726D01*
X034865Y005726D02*
X034965Y005726D01*
X034965Y005826D01*
X035195Y006090D02*
X035302Y006196D01*
X035302Y005556D01*
X035195Y005556D02*
X035409Y005556D01*
X035732Y005663D02*
X036159Y006090D01*
X036159Y005663D01*
X036053Y005556D01*
X035839Y005556D01*
X035732Y005663D01*
X035732Y006090D01*
X035839Y006196D01*
X036053Y006196D01*
X036159Y006090D01*
X036377Y005876D02*
X036377Y005663D01*
X036484Y005556D01*
X036697Y005556D01*
X036804Y005663D01*
X036804Y005876D01*
X036697Y005983D01*
X036484Y005983D01*
X036377Y005876D01*
X037021Y005876D02*
X037128Y005983D01*
X037342Y005983D01*
X037448Y005876D01*
X037448Y005556D01*
X037666Y005556D02*
X037666Y005983D01*
X037773Y005983D01*
X037879Y005876D01*
X037986Y005983D01*
X038093Y005876D01*
X038093Y005556D01*
X037879Y005556D02*
X037879Y005876D01*
X038365Y005826D02*
X038365Y005726D01*
X038465Y005726D01*
X038865Y005726D02*
X038965Y005726D01*
X038965Y005826D01*
X038965Y006226D02*
X038965Y006326D01*
X038865Y006326D01*
X038465Y006326D02*
X038365Y006326D01*
X038365Y006226D01*
X037842Y006556D02*
X037629Y006556D01*
X037736Y006556D02*
X037736Y007196D01*
X037629Y007090D01*
X037411Y007090D02*
X036984Y006663D01*
X037091Y006556D01*
X037304Y006556D01*
X037411Y006663D01*
X037411Y007090D01*
X037304Y007196D01*
X037091Y007196D01*
X036984Y007090D01*
X036984Y006663D01*
X036767Y006663D02*
X036767Y007090D01*
X036660Y007196D01*
X036446Y007196D01*
X036340Y007090D01*
X036340Y006983D01*
X036446Y006876D01*
X036767Y006876D01*
X036767Y006663D02*
X036660Y006556D01*
X036446Y006556D01*
X036340Y006663D01*
X036122Y006556D02*
X036122Y007196D01*
X035909Y006983D01*
X035695Y007196D01*
X035695Y006556D01*
X034965Y006326D02*
X034965Y006226D01*
X034965Y006326D02*
X034865Y006326D01*
X037021Y006196D02*
X037021Y005556D01*
X035593Y004696D02*
X035593Y004056D01*
X035486Y004056D02*
X035700Y004056D01*
X035269Y004056D02*
X035269Y004376D01*
X035162Y004483D01*
X034948Y004483D01*
X034948Y004269D02*
X035269Y004269D01*
X035269Y004056D02*
X034948Y004056D01*
X034842Y004163D01*
X034948Y004269D01*
X034624Y004376D02*
X034624Y004056D01*
X034624Y004376D02*
X034517Y004483D01*
X034197Y004483D01*
X034197Y004056D01*
X033979Y004056D02*
X033659Y004056D01*
X033552Y004163D01*
X033552Y004376D01*
X033659Y004483D01*
X033979Y004483D01*
X033979Y003949D01*
X033873Y003842D01*
X033766Y003842D01*
X033229Y004056D02*
X033015Y004056D01*
X033122Y004056D02*
X033122Y004483D01*
X033015Y004483D01*
X033122Y004696D02*
X033122Y004803D01*
X032798Y004590D02*
X032691Y004696D01*
X032478Y004696D01*
X032371Y004590D01*
X032371Y004483D01*
X032478Y004376D01*
X032691Y004376D01*
X032798Y004269D01*
X032798Y004163D01*
X032691Y004056D01*
X032478Y004056D01*
X032371Y004163D01*
X031509Y004163D02*
X031402Y004269D01*
X031189Y004269D01*
X031082Y004376D01*
X031189Y004483D01*
X031509Y004483D01*
X031509Y004163D02*
X031402Y004056D01*
X031082Y004056D01*
X030864Y004056D02*
X030864Y004483D01*
X030437Y004483D02*
X030437Y004163D01*
X030544Y004056D01*
X030864Y004056D01*
X030220Y004163D02*
X030220Y004376D01*
X030113Y004483D01*
X029793Y004483D01*
X029793Y004696D02*
X029793Y004056D01*
X030113Y004056D01*
X030220Y004163D01*
X029469Y004056D02*
X029256Y004056D01*
X029362Y004056D02*
X029362Y004483D01*
X029256Y004483D01*
X029038Y004483D02*
X028718Y004483D01*
X028611Y004376D01*
X028611Y004163D01*
X028718Y004056D01*
X029038Y004056D01*
X029038Y003949D02*
X029038Y004483D01*
X029362Y004696D02*
X029362Y004803D01*
X028394Y004376D02*
X028394Y004269D01*
X027967Y004269D01*
X027967Y004163D02*
X027967Y004376D01*
X028073Y004483D01*
X028287Y004483D01*
X028394Y004376D01*
X028287Y004056D02*
X028073Y004056D01*
X027967Y004163D01*
X027749Y004056D02*
X027749Y004696D01*
X027322Y004696D02*
X027749Y004056D01*
X027322Y004056D02*
X027322Y004696D01*
X027105Y004696D02*
X026678Y004056D01*
X026460Y004163D02*
X026353Y004269D01*
X026140Y004269D01*
X026033Y004376D01*
X026140Y004483D01*
X026460Y004483D01*
X026460Y004163D02*
X026353Y004056D01*
X026033Y004056D01*
X025816Y004056D02*
X025816Y004483D01*
X025816Y004056D02*
X025495Y004056D01*
X025389Y004163D01*
X025389Y004483D01*
X025171Y004376D02*
X025064Y004483D01*
X024744Y004483D01*
X024744Y004696D02*
X024744Y004056D01*
X025064Y004056D01*
X025171Y004163D01*
X025171Y004376D01*
X024420Y004056D02*
X024207Y004056D01*
X024314Y004056D02*
X024314Y004483D01*
X024207Y004483D01*
X023989Y004483D02*
X023669Y004483D01*
X023562Y004376D01*
X023669Y004269D01*
X023883Y004269D01*
X023989Y004163D01*
X023883Y004056D01*
X023562Y004056D01*
X023345Y004163D02*
X023345Y004376D01*
X023238Y004483D01*
X023025Y004483D01*
X022918Y004376D01*
X022918Y004163D01*
X023025Y004056D01*
X023238Y004056D01*
X023345Y004163D01*
X022700Y004376D02*
X022594Y004269D01*
X022273Y004269D01*
X022273Y004056D02*
X022273Y004696D01*
X022594Y004696D01*
X022700Y004590D01*
X022700Y004376D01*
X021411Y004376D02*
X020984Y004376D01*
X020122Y004376D02*
X019695Y004376D01*
X019695Y004163D02*
X020122Y004590D01*
X019909Y004590D02*
X019909Y004163D01*
X020122Y004163D02*
X019695Y004590D01*
X019915Y006026D02*
X018415Y006026D01*
X018165Y006276D01*
X018165Y006776D01*
X018415Y007026D01*
X018165Y007276D01*
X018165Y007776D01*
X018415Y008026D01*
X018165Y008276D01*
X018165Y008776D01*
X018415Y009026D01*
X018165Y009276D01*
X018165Y009776D01*
X018415Y010026D01*
X018165Y010276D01*
X018165Y010776D01*
X018415Y011026D01*
X018165Y011276D01*
X018165Y011776D01*
X018415Y012026D01*
X018165Y012276D01*
X018165Y012776D01*
X018415Y013026D01*
X018165Y013276D01*
X018165Y013776D01*
X018415Y014026D01*
X018165Y014276D01*
X018165Y014776D01*
X018415Y015026D01*
X018165Y015276D01*
X018165Y015776D01*
X018415Y016026D01*
X018165Y016276D01*
X018165Y016776D01*
X018415Y017026D01*
X018165Y017276D01*
X018165Y017776D01*
X018415Y018026D01*
X018165Y018276D01*
X018165Y018776D01*
X018415Y019026D01*
X018165Y019276D01*
X018165Y019776D01*
X018415Y020026D01*
X018165Y020276D01*
X018165Y020776D01*
X018415Y021026D01*
X018165Y021276D01*
X018165Y021776D01*
X018415Y022026D01*
X018165Y022276D01*
X018165Y022776D01*
X018415Y023026D01*
X019915Y023026D01*
X020165Y022776D01*
X020165Y022276D01*
X019915Y022026D01*
X020165Y021776D01*
X020165Y021276D01*
X019915Y021026D01*
X020165Y020776D01*
X020165Y020276D01*
X019915Y020026D01*
X020165Y019776D01*
X020165Y019276D01*
X019915Y019026D01*
X020165Y018776D01*
X020165Y018276D01*
X019915Y018026D01*
X020165Y017776D01*
X020165Y017276D01*
X019915Y017026D01*
X020165Y016776D01*
X020165Y016276D01*
X019915Y016026D01*
X020165Y015776D01*
X020165Y015276D01*
X019915Y015026D01*
X020165Y014776D01*
X020165Y014276D01*
X019915Y014026D01*
X020165Y013776D01*
X020165Y013276D01*
X019915Y013026D01*
X020165Y012776D01*
X020165Y012276D01*
X019915Y012026D01*
X020165Y011776D01*
X020165Y011276D01*
X019915Y011026D01*
X020165Y010776D01*
X020165Y010276D01*
X019915Y010026D01*
X020165Y009776D01*
X020165Y009276D01*
X019915Y009026D01*
X020165Y008776D01*
X020165Y008276D01*
X019915Y008026D01*
X020165Y007776D01*
X020165Y007276D01*
X019915Y007026D01*
X020165Y006776D01*
X020165Y006276D01*
X019915Y006026D01*
X016965Y005326D02*
X016865Y005326D01*
X016965Y005326D02*
X016965Y005226D01*
X016465Y005326D02*
X016365Y005326D01*
X016365Y005226D01*
X015736Y005196D02*
X015629Y005090D01*
X015736Y005196D02*
X015736Y004556D01*
X015842Y004556D02*
X015629Y004556D01*
X015411Y004663D02*
X015304Y004556D01*
X015091Y004556D01*
X014984Y004663D01*
X015411Y005090D01*
X015411Y004663D01*
X015411Y005090D02*
X015304Y005196D01*
X015091Y005196D01*
X014984Y005090D01*
X014984Y004663D01*
X014767Y004663D02*
X014767Y005090D01*
X014660Y005196D01*
X014446Y005196D01*
X014340Y005090D01*
X014340Y004983D01*
X014446Y004876D01*
X014767Y004876D01*
X014767Y004663D02*
X014660Y004556D01*
X014446Y004556D01*
X014340Y004663D01*
X014122Y004556D02*
X014122Y005196D01*
X013909Y004983D01*
X013695Y005196D01*
X013695Y004556D01*
X013839Y004196D02*
X014053Y004196D01*
X014159Y004090D01*
X013732Y003663D01*
X013839Y003556D01*
X014053Y003556D01*
X014159Y003663D01*
X014159Y004090D01*
X014377Y003876D02*
X014377Y003663D01*
X014484Y003556D01*
X014697Y003556D01*
X014804Y003663D01*
X014804Y003876D01*
X014697Y003983D01*
X014484Y003983D01*
X014377Y003876D01*
X013839Y004196D02*
X013732Y004090D01*
X013732Y003663D01*
X013409Y003556D02*
X013195Y003556D01*
X013302Y003556D02*
X013302Y004196D01*
X013195Y004090D01*
X012965Y004226D02*
X012965Y004326D01*
X012865Y004326D01*
X012465Y004326D02*
X012365Y004326D01*
X012365Y004226D01*
X012365Y003826D02*
X012365Y003726D01*
X012465Y003726D01*
X012865Y003726D02*
X012965Y003726D01*
X012965Y003826D01*
X012965Y004726D02*
X012865Y004726D01*
X012965Y004726D02*
X012965Y004826D01*
X012465Y004726D02*
X012365Y004726D01*
X012365Y004826D01*
X012365Y005226D02*
X012365Y005326D01*
X012465Y005326D01*
X012865Y005326D02*
X012965Y005326D01*
X012965Y005226D01*
X015021Y004196D02*
X015021Y003556D01*
X015021Y003876D02*
X015128Y003983D01*
X015342Y003983D01*
X015448Y003876D01*
X015448Y003556D01*
X015666Y003556D02*
X015666Y003983D01*
X015773Y003983D01*
X015879Y003876D01*
X015986Y003983D01*
X016093Y003876D01*
X016093Y003556D01*
X015879Y003556D02*
X015879Y003876D01*
X016365Y003826D02*
X016365Y003726D01*
X016465Y003726D01*
X016865Y003726D02*
X016965Y003726D01*
X016965Y003826D01*
X016965Y004226D02*
X016965Y004326D01*
X016865Y004326D01*
X016465Y004326D02*
X016365Y004326D01*
X016365Y004226D01*
X016365Y004726D02*
X016365Y004826D01*
X016365Y004726D02*
X016465Y004726D01*
X016865Y004726D02*
X016965Y004726D01*
X016965Y004826D01*
X016635Y007556D02*
X015995Y007556D01*
X016208Y007769D01*
X015995Y007983D01*
X016635Y007983D01*
X016528Y008200D02*
X016635Y008307D01*
X016635Y008521D01*
X016528Y008627D01*
X016101Y008627D01*
X015995Y008521D01*
X015995Y008307D01*
X016101Y008200D01*
X016208Y008200D01*
X016315Y008307D01*
X016315Y008627D01*
X016528Y008845D02*
X016101Y009272D01*
X016528Y009272D01*
X016635Y009165D01*
X016635Y008952D01*
X016528Y008845D01*
X016101Y008845D01*
X015995Y008952D01*
X015995Y009165D01*
X016101Y009272D01*
X016208Y009489D02*
X016635Y009916D01*
X016635Y010134D02*
X015995Y010561D01*
X015995Y010778D02*
X016635Y010778D01*
X016422Y010992D01*
X016635Y011205D01*
X015995Y011205D01*
X016101Y011423D02*
X015995Y011530D01*
X015995Y011743D01*
X016101Y011850D01*
X016528Y011423D01*
X016635Y011530D01*
X016635Y011743D01*
X016528Y011850D01*
X016101Y011850D01*
X016208Y012068D02*
X016635Y012495D01*
X016635Y012712D02*
X016635Y012926D01*
X016635Y012819D02*
X015995Y012819D01*
X016101Y012712D01*
X016208Y012495D02*
X016635Y012068D01*
X016528Y011423D02*
X016101Y011423D01*
X017695Y011526D02*
X018122Y011526D01*
X018122Y011313D02*
X017695Y011740D01*
X017909Y011740D02*
X017909Y011313D01*
X017695Y011313D02*
X018122Y011740D01*
X018122Y013313D02*
X017695Y013740D01*
X017909Y013740D02*
X017909Y013313D01*
X017695Y013313D02*
X018122Y013740D01*
X018122Y013526D02*
X017695Y013526D01*
X016315Y013894D02*
X016315Y014321D01*
X016528Y015183D02*
X016422Y015289D01*
X016422Y015610D01*
X016315Y015610D02*
X016635Y015610D01*
X016635Y015289D01*
X016528Y015183D01*
X016208Y015289D02*
X016208Y015503D01*
X016315Y015610D01*
X016635Y015827D02*
X016635Y016041D01*
X016635Y015934D02*
X015995Y015934D01*
X015995Y015827D01*
X016208Y016364D02*
X016528Y016364D01*
X016635Y016471D01*
X016528Y016578D01*
X016635Y016685D01*
X016528Y016791D01*
X016208Y016791D01*
X016208Y017116D02*
X016208Y017329D01*
X016315Y017436D01*
X016635Y017436D01*
X016635Y017116D01*
X016528Y017009D01*
X016422Y017116D01*
X016422Y017436D01*
X016528Y017653D02*
X016635Y017760D01*
X016635Y018080D01*
X016742Y018080D02*
X016849Y017974D01*
X016849Y017867D01*
X016742Y018080D02*
X016208Y018080D01*
X016315Y018298D02*
X016208Y018405D01*
X016208Y018725D01*
X016422Y018618D02*
X016422Y018405D01*
X016315Y018298D01*
X016635Y018298D02*
X016635Y018618D01*
X016528Y018725D01*
X016422Y018618D01*
X016528Y019587D02*
X016635Y019694D01*
X016635Y020014D01*
X016208Y020014D01*
X016315Y020231D02*
X016208Y020338D01*
X016208Y020659D01*
X016422Y020552D02*
X016528Y020659D01*
X016635Y020552D01*
X016635Y020231D01*
X016422Y020338D02*
X016315Y020231D01*
X016422Y020338D02*
X016422Y020552D01*
X016422Y020876D02*
X016422Y021303D01*
X016315Y021303D01*
X016208Y021196D01*
X016208Y020983D01*
X016315Y020876D01*
X016528Y020876D01*
X016635Y020983D01*
X016635Y021196D01*
X016528Y021521D02*
X016315Y021521D01*
X016208Y021627D01*
X016208Y021948D01*
X015995Y021948D02*
X016635Y021948D01*
X016635Y021627D01*
X016528Y021521D01*
X017695Y021526D02*
X018122Y021526D01*
X018122Y021313D02*
X017695Y021740D01*
X017909Y021740D02*
X017909Y021313D01*
X017695Y021313D02*
X018122Y021740D01*
X018122Y020740D02*
X017695Y020313D01*
X017695Y020526D02*
X018122Y020526D01*
X018122Y020313D02*
X017695Y020740D01*
X017909Y020740D02*
X017909Y020313D01*
X017909Y019740D02*
X017909Y019313D01*
X018122Y019313D02*
X017695Y019740D01*
X017695Y019526D02*
X018122Y019526D01*
X018122Y019740D02*
X017695Y019313D01*
X016528Y019587D02*
X016208Y019587D01*
X017695Y017740D02*
X018122Y017313D01*
X018122Y017526D02*
X017695Y017526D01*
X017695Y017313D02*
X018122Y017740D01*
X017909Y017740D02*
X017909Y017313D01*
X016528Y017653D02*
X016208Y017653D01*
X017695Y015740D02*
X018122Y015313D01*
X018122Y015526D02*
X017695Y015526D01*
X017695Y015313D02*
X018122Y015740D01*
X017909Y015740D02*
X017909Y015313D01*
X025995Y015289D02*
X025995Y015503D01*
X026101Y015610D01*
X026528Y015183D01*
X026635Y015289D01*
X026635Y015503D01*
X026528Y015610D01*
X026101Y015610D01*
X026315Y015827D02*
X026315Y016254D01*
X026635Y016147D02*
X025995Y016147D01*
X026315Y015827D01*
X025995Y015289D02*
X026101Y015183D01*
X026528Y015183D01*
X026528Y014965D02*
X026101Y014965D01*
X025995Y014858D01*
X025995Y014645D01*
X026101Y014538D01*
X026208Y014538D01*
X026315Y014645D01*
X026315Y014965D01*
X026528Y014965D02*
X026635Y014858D01*
X026635Y014645D01*
X026528Y014538D01*
X026635Y014321D02*
X025995Y014321D01*
X026208Y014107D01*
X025995Y013894D01*
X026635Y013894D01*
X026635Y013249D02*
X025995Y013676D01*
X026101Y013032D02*
X026208Y013032D01*
X026315Y012925D01*
X026422Y013032D01*
X026528Y013032D01*
X026635Y012925D01*
X026635Y012711D01*
X026528Y012605D01*
X026528Y012387D02*
X026101Y012387D01*
X026528Y011960D01*
X026635Y012067D01*
X026635Y012280D01*
X026528Y012387D01*
X026101Y012387D02*
X025995Y012280D01*
X025995Y012067D01*
X026101Y011960D01*
X026528Y011960D01*
X026528Y011743D02*
X026101Y011743D01*
X025995Y011636D01*
X025995Y011422D01*
X026101Y011316D01*
X026208Y011316D01*
X026315Y011422D01*
X026315Y011743D01*
X026528Y011743D02*
X026635Y011636D01*
X026635Y011422D01*
X026528Y011316D01*
X026635Y011098D02*
X025995Y011098D01*
X026208Y010885D01*
X025995Y010671D01*
X026635Y010671D01*
X026635Y010026D02*
X025995Y010454D01*
X025995Y009596D02*
X026635Y009596D01*
X026635Y009489D02*
X026635Y009703D01*
X026528Y009272D02*
X026101Y009272D01*
X026528Y008845D01*
X026635Y008952D01*
X026635Y009165D01*
X026528Y009272D01*
X026101Y009272D02*
X025995Y009165D01*
X025995Y008952D01*
X026101Y008845D01*
X026528Y008845D01*
X026528Y008627D02*
X026101Y008627D01*
X025995Y008521D01*
X025995Y008307D01*
X026101Y008200D01*
X026208Y008200D01*
X026315Y008307D01*
X026315Y008627D01*
X026528Y008627D02*
X026635Y008521D01*
X026635Y008307D01*
X026528Y008200D01*
X026635Y007983D02*
X025995Y007983D01*
X026208Y007769D01*
X025995Y007556D01*
X026635Y007556D01*
X028165Y007776D02*
X028415Y007526D01*
X028165Y007276D01*
X028165Y006776D01*
X028415Y006526D01*
X029915Y006526D01*
X030165Y006776D01*
X030165Y007276D01*
X029915Y007526D01*
X030165Y007776D01*
X030165Y008276D01*
X029915Y008526D01*
X030165Y008776D01*
X030165Y009276D01*
X029915Y009526D01*
X030165Y009776D01*
X030165Y010276D01*
X029915Y010526D01*
X030165Y010776D01*
X030165Y011276D01*
X029915Y011526D01*
X030165Y011776D01*
X030165Y012276D01*
X029915Y012526D01*
X030165Y012776D01*
X030165Y013276D01*
X029915Y013526D01*
X030165Y013776D01*
X030165Y014276D01*
X029915Y014526D01*
X030165Y014776D01*
X030165Y015276D01*
X029915Y015526D01*
X030165Y015776D01*
X030165Y016276D01*
X029915Y016526D01*
X030165Y016776D01*
X030165Y017276D01*
X029915Y017526D01*
X030165Y017776D01*
X030165Y018276D01*
X029915Y018526D01*
X030165Y018776D01*
X030165Y019276D01*
X029915Y019526D01*
X030165Y019776D01*
X030165Y020276D01*
X029915Y020526D01*
X030165Y020776D01*
X030165Y021276D01*
X029915Y021526D01*
X030165Y021776D01*
X030165Y022276D01*
X029915Y022526D01*
X030165Y022776D01*
X030165Y023276D01*
X029915Y023526D01*
X028415Y023526D01*
X028165Y023276D01*
X028165Y022776D01*
X028415Y022526D01*
X028165Y022276D01*
X028165Y021776D01*
X028415Y021526D01*
X028165Y021276D01*
X028165Y020776D01*
X028415Y020526D01*
X028165Y020276D01*
X028165Y019776D01*
X028415Y019526D01*
X028165Y019276D01*
X028165Y018776D01*
X028415Y018526D01*
X028165Y018276D01*
X028165Y017776D01*
X028415Y017526D01*
X028165Y017276D01*
X028165Y016776D01*
X028415Y016526D01*
X028165Y016276D01*
X028165Y015776D01*
X028415Y015526D01*
X028165Y015276D01*
X028165Y014776D01*
X028415Y014526D01*
X028165Y014276D01*
X028165Y013776D01*
X028415Y013526D01*
X028165Y013276D01*
X028165Y012776D01*
X028415Y012526D01*
X028165Y012276D01*
X028165Y011776D01*
X028415Y011526D01*
X028165Y011276D01*
X028165Y010776D01*
X028415Y010526D01*
X028165Y010276D01*
X028165Y009776D01*
X028415Y009526D01*
X028165Y009276D01*
X028165Y008776D01*
X028415Y008526D01*
X028165Y008276D01*
X028165Y007776D01*
X028122Y008763D02*
X027695Y009190D01*
X027909Y009190D02*
X027909Y008763D01*
X027695Y008763D02*
X028122Y009190D01*
X028122Y008976D02*
X027695Y008976D01*
X027695Y009763D02*
X028122Y010190D01*
X027909Y010190D02*
X027909Y009763D01*
X028122Y009763D02*
X027695Y010190D01*
X027695Y009976D02*
X028122Y009976D01*
X026101Y009489D02*
X025995Y009596D01*
X027695Y011763D02*
X028122Y012190D01*
X027909Y012190D02*
X027909Y011763D01*
X028122Y011763D02*
X027695Y012190D01*
X027695Y011976D02*
X028122Y011976D01*
X026315Y012818D02*
X026315Y012925D01*
X026101Y013032D02*
X025995Y012925D01*
X025995Y012711D01*
X026101Y012605D01*
X027695Y013763D02*
X028122Y014190D01*
X027909Y014190D02*
X027909Y013763D01*
X028122Y013763D02*
X027695Y014190D01*
X027695Y013976D02*
X028122Y013976D01*
X028122Y015763D02*
X027695Y016190D01*
X027909Y016190D02*
X027909Y015763D01*
X027695Y015763D02*
X028122Y016190D01*
X028122Y015976D02*
X027695Y015976D01*
X026315Y017116D02*
X026315Y017543D01*
X026528Y018405D02*
X025995Y018405D01*
X025995Y018832D02*
X026528Y018832D01*
X026635Y018726D01*
X026635Y018512D01*
X026528Y018405D01*
X026635Y019050D02*
X026635Y019370D01*
X026528Y019477D01*
X026422Y019370D01*
X026422Y019157D01*
X026315Y019050D01*
X026208Y019157D01*
X026208Y019477D01*
X026315Y019694D02*
X026208Y019801D01*
X026208Y020015D01*
X026315Y020121D01*
X026422Y020121D01*
X026422Y019694D01*
X026528Y019694D02*
X026315Y019694D01*
X026528Y019694D02*
X026635Y019801D01*
X026635Y020015D01*
X026635Y020983D02*
X025995Y020983D01*
X026208Y020983D02*
X026208Y021304D01*
X026315Y021410D01*
X026528Y021410D01*
X026635Y021304D01*
X026635Y020983D01*
X026528Y021628D02*
X026635Y021735D01*
X026635Y021948D01*
X026528Y022055D01*
X026315Y022055D01*
X026208Y021948D01*
X026208Y021735D01*
X026315Y021628D01*
X026528Y021628D01*
X026208Y022273D02*
X026208Y022486D01*
X026101Y022379D02*
X026528Y022379D01*
X026635Y022486D01*
X026635Y022810D02*
X025995Y022810D01*
X026208Y022916D02*
X026208Y023130D01*
X026315Y023237D01*
X026635Y023237D01*
X026315Y022810D02*
X026208Y022916D01*
X027695Y022190D02*
X028122Y021763D01*
X028122Y021976D02*
X027695Y021976D01*
X027695Y021763D02*
X028122Y022190D01*
X027909Y022190D02*
X027909Y021763D01*
X027909Y021190D02*
X027909Y020763D01*
X028122Y020763D02*
X027695Y021190D01*
X027695Y020976D02*
X028122Y020976D01*
X028122Y021190D02*
X027695Y020763D01*
X027695Y020190D02*
X028122Y019763D01*
X028122Y019976D02*
X027695Y019976D01*
X027695Y019763D02*
X028122Y020190D01*
X027909Y020190D02*
X027909Y019763D01*
X027909Y018190D02*
X027909Y017763D01*
X028122Y017763D02*
X027695Y018190D01*
X027695Y017976D02*
X028122Y017976D01*
X028122Y018190D02*
X027695Y017763D01*
X034995Y017972D02*
X035208Y018185D01*
X034995Y018399D01*
X035635Y018399D01*
X035528Y018616D02*
X035635Y018723D01*
X035635Y018937D01*
X035528Y019043D01*
X035101Y019043D01*
X034995Y018937D01*
X034995Y018723D01*
X035101Y018616D01*
X035208Y018616D01*
X035315Y018723D01*
X035315Y019043D01*
X035528Y019261D02*
X035101Y019261D01*
X034995Y019368D01*
X034995Y019581D01*
X035101Y019688D01*
X035528Y019261D01*
X035635Y019368D01*
X035635Y019581D01*
X035528Y019688D01*
X035101Y019688D01*
X035101Y019905D02*
X034995Y020012D01*
X035635Y020012D01*
X035635Y019905D02*
X035635Y020119D01*
X035635Y017972D02*
X034995Y017972D01*
X035208Y017110D02*
X035208Y016789D01*
X035315Y016683D01*
X035422Y016789D01*
X035422Y017003D01*
X035528Y017110D01*
X035635Y017003D01*
X035635Y016683D01*
X035528Y016465D02*
X035422Y016358D01*
X035422Y016145D01*
X035315Y016038D01*
X035208Y016145D01*
X035208Y016465D01*
X035528Y016465D02*
X035635Y016358D01*
X035635Y016038D01*
X035422Y015821D02*
X035422Y015394D01*
X035528Y015394D02*
X035315Y015394D01*
X035208Y015500D01*
X035208Y015714D01*
X035315Y015821D01*
X035422Y015821D01*
X035635Y015714D02*
X035635Y015500D01*
X035528Y015394D01*
X035635Y015070D02*
X035635Y014857D01*
X035635Y014963D02*
X034995Y014963D01*
X034995Y014857D01*
X035315Y014639D02*
X035635Y014639D01*
X035315Y014639D02*
X035208Y014532D01*
X035208Y014212D01*
X035635Y014212D01*
X035635Y013995D02*
X035208Y013995D01*
X035635Y013995D02*
X035635Y013674D01*
X035528Y013568D01*
X035208Y013568D01*
X035208Y012599D02*
X035208Y012492D01*
X035422Y012278D01*
X035635Y012278D02*
X035208Y012278D01*
X035315Y012061D02*
X035422Y012061D01*
X035422Y011634D01*
X035528Y011634D02*
X035315Y011634D01*
X035208Y011741D01*
X035208Y011954D01*
X035315Y012061D01*
X035635Y011954D02*
X035635Y011741D01*
X035528Y011634D01*
X038365Y007326D02*
X038465Y007326D01*
X038365Y007326D02*
X038365Y007226D01*
X038865Y007326D02*
X038965Y007326D01*
X038965Y007226D01*
X038965Y006826D02*
X038965Y006726D01*
X038865Y006726D01*
X038465Y006726D02*
X038365Y006726D01*
X038365Y006826D01*
X035593Y004696D02*
X035486Y004696D01*
X029038Y003949D02*
X028931Y003842D01*
X028825Y003842D01*
X024314Y004696D02*
X024314Y004803D01*
X018122Y008313D02*
X017695Y008740D01*
X017909Y008740D02*
X017909Y008313D01*
X017695Y008313D02*
X018122Y008740D01*
X018122Y008526D02*
X017695Y008526D01*
X017695Y009313D02*
X018122Y009740D01*
X017909Y009740D02*
X017909Y009313D01*
X018122Y009313D02*
X017695Y009740D01*
X017695Y009526D02*
X018122Y009526D01*
X016635Y009489D02*
X016208Y009916D01*
X008635Y003914D02*
X008635Y003700D01*
X008635Y003807D02*
X007995Y003807D01*
X008101Y003700D01*
X008208Y003483D02*
X008635Y003483D01*
X008315Y003483D02*
X008315Y003056D01*
X008208Y003056D02*
X007995Y003269D01*
X008208Y003483D01*
X008208Y003056D02*
X008635Y003056D01*
X008422Y024306D02*
X007995Y024306D01*
X008422Y024306D02*
X008635Y024519D01*
X008422Y024733D01*
X007995Y024733D01*
X008101Y024950D02*
X007995Y025057D01*
X008635Y025057D01*
X008635Y024950D02*
X008635Y025164D01*
X046815Y004226D02*
X046821Y004349D01*
X046837Y004471D01*
X046865Y004590D01*
X046904Y004707D01*
X046953Y004820D01*
X047012Y004927D01*
X047080Y005029D01*
X047158Y005125D01*
X047244Y005213D01*
X047337Y005292D01*
X047437Y005363D01*
X047544Y005425D01*
X047655Y005476D01*
X047771Y005517D01*
X047890Y005548D01*
X048012Y005567D01*
X048134Y005576D01*
X048257Y005573D01*
X048379Y005559D01*
X048500Y005534D01*
X048617Y005498D01*
X048731Y005452D01*
X048840Y005395D01*
X048944Y005329D01*
X049041Y005254D01*
X049130Y005170D01*
X049212Y005078D01*
X049285Y004979D01*
X049349Y004874D01*
X049403Y004764D01*
X049447Y004649D01*
X049480Y004531D01*
X049502Y004410D01*
X049514Y004287D01*
X049514Y004165D01*
X049502Y004042D01*
X049480Y003921D01*
X049447Y003803D01*
X049403Y003688D01*
X049349Y003578D01*
X049285Y003473D01*
X049212Y003374D01*
X049130Y003282D01*
X049041Y003198D01*
X048944Y003123D01*
X048840Y003057D01*
X048731Y003000D01*
X048617Y002954D01*
X048500Y002918D01*
X048379Y002893D01*
X048257Y002879D01*
X048134Y002876D01*
X048012Y002885D01*
X047890Y002904D01*
X047771Y002935D01*
X047655Y002976D01*
X047544Y003027D01*
X047437Y003089D01*
X047337Y003160D01*
X047244Y003239D01*
X047158Y003327D01*
X047080Y003423D01*
X047012Y003525D01*
X046953Y003632D01*
X046904Y003745D01*
X046865Y003862D01*
X046837Y003981D01*
X046821Y004103D01*
X046815Y004226D01*
D12*
X038790Y008901D02*
X038790Y009051D01*
X038790Y008976D02*
X038340Y008976D01*
X038415Y008901D01*
X036940Y008776D02*
X036940Y008626D01*
X036865Y008551D01*
X036715Y008626D02*
X036715Y008776D01*
X036790Y008851D01*
X036865Y008851D01*
X036940Y008776D01*
X036715Y008626D02*
X036640Y008551D01*
X036565Y008551D01*
X036490Y008626D01*
X036490Y008776D01*
X036565Y008851D01*
X036490Y009011D02*
X036790Y009011D01*
X036940Y009161D01*
X036790Y009311D01*
X036490Y009311D01*
X036715Y009472D02*
X036490Y009697D01*
X036940Y009697D01*
X036715Y009772D02*
X036715Y009472D01*
X034790Y009051D02*
X034790Y008901D01*
X034790Y008976D02*
X034340Y008976D01*
X034415Y008901D01*
X032940Y008776D02*
X032940Y008626D01*
X032865Y008551D01*
X032715Y008626D02*
X032715Y008776D01*
X032790Y008851D01*
X032865Y008851D01*
X032940Y008776D01*
X032715Y008626D02*
X032640Y008551D01*
X032565Y008551D01*
X032490Y008626D01*
X032490Y008776D01*
X032565Y008851D01*
X032490Y009011D02*
X032790Y009011D01*
X032940Y009161D01*
X032790Y009311D01*
X032490Y009311D01*
X032565Y009472D02*
X032490Y009547D01*
X032490Y009697D01*
X032565Y009772D01*
X032640Y009772D01*
X032715Y009697D01*
X032790Y009772D01*
X032865Y009772D01*
X032940Y009697D01*
X032940Y009547D01*
X032865Y009472D01*
X032715Y009622D02*
X032715Y009697D01*
X030790Y007001D02*
X030790Y006851D01*
X030790Y006926D02*
X030340Y006926D01*
X030415Y006851D01*
X027990Y006776D02*
X027990Y006626D01*
X027915Y006551D01*
X027765Y006626D02*
X027690Y006551D01*
X027615Y006551D01*
X027540Y006626D01*
X027540Y006776D01*
X027615Y006851D01*
X027765Y006776D02*
X027840Y006851D01*
X027915Y006851D01*
X027990Y006776D01*
X027765Y006776D02*
X027765Y006626D01*
X027840Y007011D02*
X027540Y007011D01*
X027840Y007011D02*
X027990Y007161D01*
X027840Y007311D01*
X027540Y007311D01*
X027615Y007472D02*
X027540Y007547D01*
X027990Y007547D01*
X027990Y007472D02*
X027990Y007622D01*
X020790Y006501D02*
X020790Y006351D01*
X020790Y006426D02*
X020340Y006426D01*
X020415Y006351D01*
X017990Y006276D02*
X017990Y006126D01*
X017915Y006051D01*
X017765Y006126D02*
X017765Y006276D01*
X017840Y006351D01*
X017915Y006351D01*
X017990Y006276D01*
X017765Y006126D02*
X017690Y006051D01*
X017615Y006051D01*
X017540Y006126D01*
X017540Y006276D01*
X017615Y006351D01*
X017540Y006511D02*
X017840Y006511D01*
X017990Y006661D01*
X017840Y006811D01*
X017540Y006811D01*
X017615Y006972D02*
X017540Y007047D01*
X017540Y007197D01*
X017615Y007272D01*
X017690Y007272D01*
X017990Y006972D01*
X017990Y007272D01*
X032540Y019876D02*
X032990Y019876D01*
X032990Y019801D02*
X032990Y019951D01*
X032990Y020184D02*
X032690Y020485D01*
X032615Y020485D01*
X032540Y020410D01*
X032540Y020259D01*
X032615Y020184D01*
X032540Y019876D02*
X032615Y019801D01*
X032990Y020184D02*
X032990Y020485D01*
X036540Y020410D02*
X036540Y020259D01*
X036615Y020184D01*
X036540Y020410D02*
X036615Y020485D01*
X036690Y020485D01*
X036990Y020184D01*
X036990Y020485D01*
X036990Y019951D02*
X036990Y019801D01*
X036990Y019876D02*
X036540Y019876D01*
X036615Y019801D01*
X027990Y022726D02*
X027915Y022651D01*
X027990Y022726D02*
X027990Y022876D01*
X027915Y022951D01*
X027840Y022951D01*
X027765Y022876D01*
X027765Y022801D01*
X027765Y022876D02*
X027690Y022951D01*
X027615Y022951D01*
X027540Y022876D01*
X027540Y022726D01*
X027615Y022651D01*
X027765Y023111D02*
X027765Y023411D01*
X027990Y023336D02*
X027540Y023336D01*
X027765Y023111D01*
X017990Y022836D02*
X017540Y022836D01*
X017765Y022611D01*
X017765Y022911D01*
X017840Y022451D02*
X017915Y022451D01*
X017990Y022376D01*
X017990Y022226D01*
X017915Y022151D01*
X017765Y022301D02*
X017765Y022376D01*
X017840Y022451D01*
X017765Y022376D02*
X017690Y022451D01*
X017615Y022451D01*
X017540Y022376D01*
X017540Y022226D01*
X017615Y022151D01*
D13*
X047496Y024226D02*
X047499Y024287D01*
X047507Y024347D01*
X047521Y024406D01*
X047540Y024464D01*
X047564Y024520D01*
X047593Y024574D01*
X047627Y024624D01*
X047666Y024671D01*
X047708Y024715D01*
X047755Y024754D01*
X047804Y024790D01*
X047857Y024820D01*
X047913Y024846D01*
X047970Y024866D01*
X048029Y024881D01*
X048089Y024891D01*
X048150Y024895D01*
X048211Y024893D01*
X048271Y024887D01*
X048331Y024874D01*
X048389Y024856D01*
X048445Y024833D01*
X048499Y024805D01*
X048551Y024773D01*
X048599Y024735D01*
X048643Y024694D01*
X048684Y024648D01*
X048720Y024599D01*
X048752Y024547D01*
X048779Y024493D01*
X048800Y024436D01*
X048817Y024377D01*
X048828Y024317D01*
X048833Y024256D01*
X048833Y024196D01*
X048828Y024135D01*
X048817Y024075D01*
X048800Y024016D01*
X048779Y023959D01*
X048752Y023905D01*
X048720Y023853D01*
X048684Y023804D01*
X048643Y023758D01*
X048599Y023717D01*
X048551Y023679D01*
X048500Y023647D01*
X048445Y023619D01*
X048389Y023596D01*
X048331Y023578D01*
X048271Y023565D01*
X048211Y023559D01*
X048150Y023557D01*
X048089Y023561D01*
X048029Y023571D01*
X047970Y023586D01*
X047913Y023606D01*
X047857Y023632D01*
X047804Y023662D01*
X047755Y023698D01*
X047708Y023737D01*
X047666Y023781D01*
X047627Y023828D01*
X047593Y023878D01*
X047564Y023932D01*
X047540Y023988D01*
X047521Y024046D01*
X047507Y024105D01*
X047499Y024165D01*
X047496Y024226D01*
X047496Y004226D02*
X047499Y004287D01*
X047507Y004347D01*
X047521Y004406D01*
X047540Y004464D01*
X047564Y004520D01*
X047593Y004574D01*
X047627Y004624D01*
X047666Y004671D01*
X047708Y004715D01*
X047755Y004754D01*
X047804Y004790D01*
X047857Y004820D01*
X047913Y004846D01*
X047970Y004866D01*
X048029Y004881D01*
X048089Y004891D01*
X048150Y004895D01*
X048211Y004893D01*
X048271Y004887D01*
X048331Y004874D01*
X048389Y004856D01*
X048445Y004833D01*
X048499Y004805D01*
X048551Y004773D01*
X048599Y004735D01*
X048643Y004694D01*
X048684Y004648D01*
X048720Y004599D01*
X048752Y004547D01*
X048779Y004493D01*
X048800Y004436D01*
X048817Y004377D01*
X048828Y004317D01*
X048833Y004256D01*
X048833Y004196D01*
X048828Y004135D01*
X048817Y004075D01*
X048800Y004016D01*
X048779Y003959D01*
X048752Y003905D01*
X048720Y003853D01*
X048684Y003804D01*
X048643Y003758D01*
X048599Y003717D01*
X048551Y003679D01*
X048500Y003647D01*
X048445Y003619D01*
X048389Y003596D01*
X048331Y003578D01*
X048271Y003565D01*
X048211Y003559D01*
X048150Y003557D01*
X048089Y003561D01*
X048029Y003571D01*
X047970Y003586D01*
X047913Y003606D01*
X047857Y003632D01*
X047804Y003662D01*
X047755Y003698D01*
X047708Y003737D01*
X047666Y003781D01*
X047627Y003828D01*
X047593Y003878D01*
X047564Y003932D01*
X047540Y003988D01*
X047521Y004046D01*
X047507Y004105D01*
X047499Y004165D01*
X047496Y004226D01*
D14*
X007799Y004546D02*
X007646Y004546D01*
X007722Y004546D02*
X007722Y005006D01*
X007646Y004929D01*
X007492Y004929D02*
X007492Y004853D01*
X007415Y004776D01*
X007185Y004776D01*
X007185Y004546D02*
X007415Y004546D01*
X007492Y004623D01*
X007492Y004699D01*
X007415Y004776D01*
X007492Y004929D02*
X007415Y005006D01*
X007185Y005006D01*
X007185Y004546D01*
X007339Y003881D02*
X007492Y003728D01*
X007492Y003421D01*
X007646Y003421D02*
X007799Y003421D01*
X007722Y003421D02*
X007722Y003881D01*
X007646Y003804D01*
X007492Y003651D02*
X007185Y003651D01*
X007185Y003728D02*
X007185Y003421D01*
X007185Y003728D02*
X007339Y003881D01*
X007415Y005796D02*
X007492Y005873D01*
X007415Y005796D02*
X007262Y005796D01*
X007185Y005873D01*
X007185Y006179D01*
X007262Y006256D01*
X007415Y006256D01*
X007492Y006179D01*
X007646Y006179D02*
X007722Y006256D01*
X007722Y005796D01*
X007646Y005796D02*
X007799Y005796D01*
X007799Y007046D02*
X007646Y007046D01*
X007722Y007046D02*
X007722Y007506D01*
X007646Y007429D01*
X007492Y007429D02*
X007415Y007506D01*
X007185Y007506D01*
X007185Y007046D01*
X007415Y007046D01*
X007492Y007123D01*
X007492Y007429D01*
X007492Y008296D02*
X007185Y008296D01*
X007185Y008756D01*
X007492Y008756D01*
X007646Y008679D02*
X007722Y008756D01*
X007722Y008296D01*
X007646Y008296D02*
X007799Y008296D01*
X007339Y008526D02*
X007185Y008526D01*
X007185Y009546D02*
X007185Y010006D01*
X007492Y010006D01*
X007646Y009929D02*
X007722Y010006D01*
X007722Y009546D01*
X007646Y009546D02*
X007799Y009546D01*
X007339Y009776D02*
X007185Y009776D01*
X007185Y010796D02*
X007185Y011256D01*
X007185Y011026D02*
X007492Y011026D01*
X007646Y011179D02*
X007722Y011256D01*
X007722Y010796D01*
X007646Y010796D02*
X007799Y010796D01*
X007492Y010796D02*
X007492Y011256D01*
X007339Y012046D02*
X007415Y012123D01*
X007415Y012506D01*
X007339Y012506D02*
X007492Y012506D01*
X007646Y012429D02*
X007722Y012506D01*
X007722Y012046D01*
X007646Y012046D02*
X007799Y012046D01*
X007339Y012046D02*
X007262Y012046D01*
X007185Y012123D01*
X007185Y013296D02*
X007185Y013756D01*
X007262Y013526D02*
X007492Y013296D01*
X007646Y013296D02*
X007799Y013296D01*
X007722Y013296D02*
X007722Y013756D01*
X007646Y013679D01*
X007492Y013756D02*
X007185Y013449D01*
X007185Y014546D02*
X007492Y014546D01*
X007646Y014546D02*
X007799Y014546D01*
X007722Y014546D02*
X007722Y015006D01*
X007646Y014929D01*
X007185Y015006D02*
X007185Y014546D01*
X007185Y015796D02*
X007185Y016256D01*
X007339Y016103D01*
X007492Y016256D01*
X007492Y015796D01*
X007646Y015796D02*
X007799Y015796D01*
X007722Y015796D02*
X007722Y016256D01*
X007646Y016179D01*
X007646Y017046D02*
X007799Y017046D01*
X007722Y017046D02*
X007722Y017506D01*
X007646Y017429D01*
X007492Y017506D02*
X007492Y017046D01*
X007185Y017506D01*
X007185Y017046D01*
X007185Y018296D02*
X007185Y018756D01*
X007415Y018756D01*
X007492Y018679D01*
X007492Y018526D01*
X007415Y018449D01*
X007185Y018449D01*
X007646Y018296D02*
X007799Y018296D01*
X007722Y018296D02*
X007722Y018756D01*
X007646Y018679D01*
X007646Y019546D02*
X007799Y019546D01*
X007722Y019546D02*
X007722Y020006D01*
X007646Y019929D01*
X007492Y019929D02*
X007415Y020006D01*
X007185Y020006D01*
X007185Y019546D01*
X007185Y019699D02*
X007415Y019699D01*
X007492Y019776D01*
X007492Y019929D01*
X007339Y019699D02*
X007492Y019546D01*
X007415Y020796D02*
X007262Y020796D01*
X007185Y020873D01*
X007262Y021026D02*
X007415Y021026D01*
X007492Y020949D01*
X007492Y020873D01*
X007415Y020796D01*
X007646Y020796D02*
X007799Y020796D01*
X007722Y020796D02*
X007722Y021256D01*
X007646Y021179D01*
X007492Y021179D02*
X007415Y021256D01*
X007262Y021256D01*
X007185Y021179D01*
X007185Y021103D01*
X007262Y021026D01*
X007339Y022046D02*
X007339Y022506D01*
X007492Y022506D02*
X007185Y022506D01*
X007646Y022429D02*
X007722Y022506D01*
X007722Y022046D01*
X007646Y022046D02*
X007799Y022046D01*
X007799Y023296D02*
X007646Y023296D01*
X007722Y023296D02*
X007722Y023756D01*
X007646Y023679D01*
X007492Y023756D02*
X007492Y023373D01*
X007415Y023296D01*
X007262Y023296D01*
X007185Y023373D01*
X007185Y023756D01*
X007339Y024546D02*
X007492Y024699D01*
X007492Y025006D01*
X007646Y024929D02*
X007722Y025006D01*
X007722Y024546D01*
X007646Y024546D02*
X007799Y024546D01*
X007339Y024546D02*
X007185Y024699D01*
X007185Y025006D01*
M02*
