%
M48
M72
T01C0.0320
T02C0.0400
T03C0.1102
T04C0.1250
%
T01
X7500Y8500
X11500Y8500
X7500Y11500
X7500Y13000
X7500Y14500
X7500Y16000
X7500Y18500
X10500Y18500
X12500Y16500
X9000Y21000
T02
X13500Y4500
X14500Y4500
X15500Y4500
X16500Y4500
X17500Y4500
X18500Y4500
X19500Y4500
X20500Y4500
X21500Y4500
X22500Y4500
X22500Y5500
X21500Y5500
X20500Y5500
X19500Y5500
X18500Y5500
X17500Y5500
X16500Y5500
X15500Y5500
X14500Y5500
X13500Y5500
X13500Y20500
X14500Y20500
X15500Y20500
X16500Y20500
X17500Y20500
X18500Y20500
X19500Y20500
X20500Y20500
X21500Y20500
X22500Y20500
X22500Y21500
X21500Y21500
X20500Y21500
X19500Y21500
X18500Y21500
X17500Y21500
X16500Y21500
X15500Y21500
X14500Y21500
X13500Y21500
T03
X29500Y22750
X29500Y2750
T04
X48000Y2750
X48000Y22750
M30
