G75*
%MOIN*%
%OFA0B0*%
%FSLAX24Y24*%
%IPPOS*%
%LPD*%
%AMOC8*
5,1,8,0,0,1.08239X$1,22.5*
%
%ADD10C,0.0170*%
%ADD11R,0.5160X0.0800*%
%ADD12OC8,0.0600*%
%ADD13C,0.0320*%
%ADD14C,0.0480*%
D10*
X014679Y001085D02*
X014944Y001085D01*
X015033Y001173D01*
X015033Y001262D01*
X014944Y001350D01*
X014679Y001350D01*
X014679Y001085D02*
X014679Y001615D01*
X014944Y001615D01*
X015033Y001527D01*
X015033Y001439D01*
X014944Y001350D01*
X015324Y001173D02*
X015412Y001085D01*
X015589Y001085D01*
X015677Y001173D01*
X015968Y001173D02*
X016322Y001527D01*
X016322Y001173D01*
X016233Y001085D01*
X016057Y001085D01*
X015968Y001173D01*
X015968Y001527D01*
X016057Y001615D01*
X016233Y001615D01*
X016322Y001527D01*
X016613Y001527D02*
X016613Y001439D01*
X016701Y001350D01*
X016878Y001350D01*
X016966Y001262D01*
X016966Y001173D01*
X016878Y001085D01*
X016701Y001085D01*
X016613Y001173D01*
X016613Y001262D01*
X016701Y001350D01*
X016878Y001350D02*
X016966Y001439D01*
X016966Y001527D01*
X016878Y001615D01*
X016701Y001615D01*
X016613Y001527D01*
X015677Y001527D02*
X015589Y001615D01*
X015412Y001615D01*
X015324Y001527D01*
X015324Y001173D01*
X017257Y001173D02*
X017346Y001085D01*
X017434Y001085D01*
X017523Y001173D01*
X017523Y001615D01*
X017611Y001615D02*
X017434Y001615D01*
X017902Y001085D02*
X018256Y001615D01*
X018546Y001615D02*
X018900Y001085D01*
X018900Y001615D01*
X018546Y001615D02*
X018546Y001085D01*
X019191Y001173D02*
X019191Y001350D01*
X019279Y001439D01*
X019456Y001439D01*
X019545Y001350D01*
X019545Y001262D01*
X019191Y001262D01*
X019191Y001173D02*
X019279Y001085D01*
X019456Y001085D01*
X019836Y001173D02*
X019836Y001350D01*
X019924Y001439D01*
X020189Y001439D01*
X020189Y000997D01*
X020101Y000908D01*
X020012Y000908D01*
X019924Y001085D02*
X020189Y001085D01*
X019924Y001085D02*
X019836Y001173D01*
X020480Y001085D02*
X020657Y001085D01*
X020568Y001085D02*
X020568Y001439D01*
X020480Y001439D01*
X020568Y001615D02*
X020568Y001704D01*
X020910Y001615D02*
X020910Y001085D01*
X021175Y001085D01*
X021263Y001173D01*
X021263Y001350D01*
X021175Y001439D01*
X020910Y001439D01*
X021554Y001439D02*
X021554Y001173D01*
X021643Y001085D01*
X021908Y001085D01*
X021908Y001439D01*
X022199Y001350D02*
X022287Y001439D01*
X022553Y001439D01*
X022464Y001262D02*
X022287Y001262D01*
X022199Y001350D01*
X022199Y001085D02*
X022464Y001085D01*
X022553Y001173D01*
X022464Y001262D01*
X022843Y001085D02*
X023197Y001615D01*
X023488Y001615D02*
X023753Y001615D01*
X023842Y001527D01*
X023842Y001350D01*
X023753Y001262D01*
X023488Y001262D01*
X023488Y001085D02*
X023488Y001615D01*
X024133Y001350D02*
X024133Y001173D01*
X024221Y001085D01*
X024398Y001085D01*
X024486Y001173D01*
X024486Y001350D01*
X024398Y001439D01*
X024221Y001439D01*
X024133Y001350D01*
X024777Y001350D02*
X024865Y001262D01*
X025042Y001262D01*
X025131Y001173D01*
X025042Y001085D01*
X024777Y001085D01*
X024777Y001350D02*
X024865Y001439D01*
X025131Y001439D01*
X025422Y001439D02*
X025510Y001439D01*
X025510Y001085D01*
X025422Y001085D02*
X025598Y001085D01*
X025851Y001085D02*
X026117Y001085D01*
X026205Y001173D01*
X026205Y001350D01*
X026117Y001439D01*
X025851Y001439D01*
X025851Y001615D02*
X025851Y001085D01*
X026496Y001173D02*
X026496Y001439D01*
X026496Y001173D02*
X026584Y001085D01*
X026850Y001085D01*
X026850Y001439D01*
X027140Y001350D02*
X027229Y001439D01*
X027494Y001439D01*
X027406Y001262D02*
X027229Y001262D01*
X027140Y001350D01*
X027140Y001085D02*
X027406Y001085D01*
X027494Y001173D01*
X027406Y001262D01*
X025510Y001615D02*
X025510Y001704D01*
D11*
X003625Y002125D03*
X003625Y003375D03*
X003625Y004625D03*
X003625Y005875D03*
X003625Y007125D03*
X003625Y008375D03*
X003625Y009625D03*
X003625Y010875D03*
X003625Y012125D03*
X003625Y013375D03*
X003625Y014625D03*
X003625Y015875D03*
X003625Y017125D03*
X003625Y018375D03*
X003625Y019625D03*
X003625Y020875D03*
X003625Y022125D03*
X003625Y023375D03*
D12*
X013500Y021500D03*
X014500Y021500D03*
X015500Y021500D03*
X016500Y021500D03*
X017500Y021500D03*
X018500Y021500D03*
X019500Y021500D03*
X020500Y021500D03*
X021500Y021500D03*
X022500Y021500D03*
X022500Y020500D03*
X021500Y020500D03*
X020500Y020500D03*
X019500Y020500D03*
X018500Y020500D03*
X017500Y020500D03*
X016500Y020500D03*
X015500Y020500D03*
X014500Y020500D03*
X013500Y020500D03*
X013500Y005500D03*
X014500Y005500D03*
X015500Y005500D03*
X016500Y005500D03*
X017500Y005500D03*
X018500Y005500D03*
X019500Y005500D03*
X020500Y005500D03*
X021500Y005500D03*
X022500Y005500D03*
X022500Y004500D03*
X021500Y004500D03*
X020500Y004500D03*
X019500Y004500D03*
X018500Y004500D03*
X017500Y004500D03*
X016500Y004500D03*
X015500Y004500D03*
X014500Y004500D03*
X013500Y004500D03*
D13*
X003750Y002000D02*
X003625Y002125D01*
X003750Y002000D02*
X011000Y002000D01*
X013500Y004500D01*
X014060Y004500D01*
X014500Y004500D01*
X014940Y004500D01*
X015500Y004500D01*
X016060Y004500D01*
X016500Y004500D01*
X017060Y004500D01*
X017500Y004500D01*
X018060Y004500D01*
X018500Y004500D01*
X019060Y004500D01*
X019500Y004500D01*
X020060Y004500D01*
X020500Y004500D01*
X021060Y004500D01*
X021500Y004500D01*
X021940Y004500D01*
X022500Y004500D01*
X023500Y005500D01*
X023500Y020500D01*
X022500Y021500D01*
X023060Y021500D01*
X023060Y021732D01*
X022732Y022060D01*
X022500Y022060D01*
X022500Y021500D01*
X022500Y021500D01*
X022500Y021500D01*
X023060Y021500D01*
X023060Y021268D01*
X022834Y021042D01*
X023120Y020757D01*
X023120Y020243D01*
X022757Y019880D01*
X022243Y019880D01*
X022000Y020123D01*
X021757Y019880D01*
X021243Y019880D01*
X021000Y020123D01*
X020757Y019880D01*
X020243Y019880D01*
X020000Y020123D01*
X019757Y019880D01*
X019243Y019880D01*
X019000Y020123D01*
X018757Y019880D01*
X018243Y019880D01*
X018000Y020123D01*
X017757Y019880D01*
X017243Y019880D01*
X017000Y020123D01*
X016757Y019880D01*
X016243Y019880D01*
X016000Y020123D01*
X015757Y019880D01*
X015243Y019880D01*
X015000Y020123D01*
X014757Y019880D01*
X014243Y019880D01*
X014000Y020123D01*
X013757Y019880D01*
X013243Y019880D01*
X012880Y020243D01*
X012880Y020757D01*
X013166Y021042D01*
X012940Y021268D01*
X012940Y021500D01*
X013500Y021500D01*
X011000Y019000D01*
X010500Y018500D01*
X012500Y016500D01*
X012254Y016425D02*
X049680Y016425D01*
X049680Y016107D02*
X012572Y016107D01*
X012891Y015788D02*
X049680Y015788D01*
X049680Y015470D02*
X013209Y015470D01*
X013528Y015151D02*
X049680Y015151D01*
X049680Y014833D02*
X013846Y014833D01*
X014165Y014514D02*
X049680Y014514D01*
X049680Y014196D02*
X014483Y014196D01*
X014802Y013877D02*
X049680Y013877D01*
X049680Y013559D02*
X015120Y013559D01*
X015439Y013240D02*
X049680Y013240D01*
X049680Y012922D02*
X015757Y012922D01*
X016076Y012603D02*
X049680Y012603D01*
X049680Y012285D02*
X016394Y012285D01*
X016713Y011966D02*
X049680Y011966D01*
X049680Y011648D02*
X017031Y011648D01*
X017350Y011329D02*
X049680Y011329D01*
X049680Y011011D02*
X017668Y011011D01*
X017987Y010692D02*
X049680Y010692D01*
X049680Y010374D02*
X018305Y010374D01*
X018624Y010055D02*
X049680Y010055D01*
X049680Y009737D02*
X018942Y009737D01*
X019261Y009418D02*
X049680Y009418D01*
X049680Y009100D02*
X019579Y009100D01*
X019898Y008781D02*
X049680Y008781D01*
X049680Y008463D02*
X020216Y008463D01*
X020535Y008144D02*
X049680Y008144D01*
X049680Y007826D02*
X020853Y007826D01*
X021172Y007507D02*
X049680Y007507D01*
X049680Y007189D02*
X021490Y007189D01*
X021809Y006870D02*
X049680Y006870D01*
X049680Y006552D02*
X022127Y006552D01*
X022446Y006233D02*
X049680Y006233D01*
X049680Y005915D02*
X022962Y005915D01*
X023120Y005757D02*
X022757Y006120D01*
X022559Y006120D01*
X008772Y019907D01*
X008595Y019980D01*
X006525Y019980D01*
X006525Y020089D01*
X006520Y020101D01*
X006520Y020514D01*
X006471Y020631D01*
X006465Y020638D01*
X006465Y020835D01*
X006000Y020835D01*
X006000Y020915D01*
X006465Y020915D01*
X006465Y021112D01*
X006471Y021119D01*
X006520Y021236D01*
X006520Y021649D01*
X006525Y021661D01*
X006525Y022589D01*
X006520Y022601D01*
X006520Y022899D01*
X006525Y022911D01*
X006525Y023630D01*
X007814Y023630D01*
X007931Y023679D01*
X008021Y023769D01*
X008070Y023886D01*
X008070Y024680D01*
X049680Y024680D01*
X049680Y000820D01*
X027713Y000820D01*
X027723Y000830D01*
X027723Y000830D01*
X027771Y000878D01*
X027837Y000944D01*
X027837Y000944D01*
X027837Y000944D01*
X027849Y000971D01*
X027899Y001093D01*
X027899Y001254D01*
X027878Y001306D01*
X027899Y001358D01*
X027899Y001519D01*
X027837Y001668D01*
X027723Y001782D01*
X027575Y001844D01*
X027148Y001844D01*
X027039Y001798D01*
X026930Y001844D01*
X026769Y001844D01*
X026673Y001804D01*
X026576Y001844D01*
X026415Y001844D01*
X026306Y001798D01*
X026197Y001844D01*
X026195Y001844D01*
X026195Y001845D01*
X026081Y001959D01*
X025932Y002020D01*
X025771Y002020D01*
X025768Y002019D01*
X025739Y002047D01*
X025591Y002109D01*
X025429Y002109D01*
X025281Y002047D01*
X025167Y001933D01*
X025130Y001844D01*
X024785Y001844D01*
X024663Y001793D01*
X024636Y001782D01*
X024632Y001778D01*
X024627Y001782D01*
X024478Y001844D01*
X024140Y001844D01*
X024110Y001831D01*
X024071Y001870D01*
X023983Y001959D01*
X023834Y002020D01*
X023407Y002020D01*
X023352Y001998D01*
X023197Y002028D01*
X023039Y001997D01*
X022905Y001907D01*
X022806Y001758D01*
X022782Y001782D01*
X022633Y001844D01*
X022207Y001844D01*
X022098Y001798D01*
X021989Y001844D01*
X021827Y001844D01*
X021731Y001804D01*
X021635Y001844D01*
X021474Y001844D01*
X021365Y001798D01*
X021256Y001844D01*
X021254Y001844D01*
X021253Y001845D01*
X021139Y001959D01*
X020990Y002020D01*
X020829Y002020D01*
X020826Y002019D01*
X020798Y002047D01*
X020649Y002109D01*
X020488Y002109D01*
X020339Y002047D01*
X020225Y001933D01*
X020188Y001844D01*
X019843Y001844D01*
X019718Y001792D01*
X019695Y001782D01*
X019695Y001782D01*
X019695Y001782D01*
X019690Y001778D01*
X019686Y001782D01*
X019537Y001844D01*
X019244Y001844D01*
X019243Y001845D01*
X019129Y001959D01*
X018981Y002020D01*
X018820Y002020D01*
X018727Y001982D01*
X018705Y001997D01*
X018665Y002005D01*
X018627Y002020D01*
X018587Y002020D01*
X018547Y002028D01*
X018507Y002020D01*
X018466Y002020D01*
X018428Y002005D01*
X018401Y002000D01*
X018255Y002028D01*
X018097Y001997D01*
X017963Y001907D01*
X017935Y001864D01*
X017840Y001959D01*
X017692Y002020D01*
X017354Y002020D01*
X017205Y001959D01*
X017156Y001910D01*
X017107Y001959D01*
X016959Y002020D01*
X016621Y002020D01*
X016499Y001970D01*
X016472Y001959D01*
X016472Y001959D01*
X016472Y001959D01*
X016467Y001954D01*
X016463Y001959D01*
X016314Y002020D01*
X015976Y002020D01*
X015855Y001970D01*
X015827Y001959D01*
X015823Y001954D01*
X015818Y001959D01*
X015669Y002020D01*
X015332Y002020D01*
X015206Y001969D01*
X015183Y001959D01*
X015183Y001959D01*
X015183Y001959D01*
X015178Y001954D01*
X015174Y001959D01*
X015025Y002020D01*
X014599Y002020D01*
X014450Y001959D01*
X014336Y001845D01*
X014274Y001696D01*
X014274Y001004D01*
X014336Y000856D01*
X014371Y000820D01*
X007070Y000820D01*
X007070Y001614D01*
X007021Y001731D01*
X006931Y001821D01*
X006814Y001870D01*
X006465Y001870D01*
X006465Y002085D01*
X006000Y002085D01*
X006000Y002165D01*
X006465Y002165D01*
X006465Y002362D01*
X006471Y002369D01*
X006520Y002486D01*
X006520Y002899D01*
X006525Y002911D01*
X006525Y003020D01*
X006595Y003020D01*
X006772Y003093D01*
X006907Y003228D01*
X006907Y003228D01*
X009699Y006020D01*
X013143Y006020D01*
X012880Y005757D01*
X012880Y005243D01*
X013166Y004958D01*
X012940Y004732D01*
X012940Y004500D01*
X013500Y004500D01*
X013500Y004500D01*
X013500Y003940D01*
X013732Y003940D01*
X014000Y004208D01*
X014268Y003940D01*
X014500Y003940D01*
X014732Y003940D01*
X015000Y004208D01*
X015268Y003940D01*
X015500Y003940D01*
X015732Y003940D01*
X016000Y004208D01*
X016268Y003940D01*
X016500Y003940D01*
X016732Y003940D01*
X017000Y004208D01*
X017268Y003940D01*
X017500Y003940D01*
X017732Y003940D01*
X018000Y004208D01*
X018268Y003940D01*
X018500Y003940D01*
X018732Y003940D01*
X019000Y004208D01*
X019268Y003940D01*
X019500Y003940D01*
X019732Y003940D01*
X020000Y004208D01*
X020268Y003940D01*
X020500Y003940D01*
X020732Y003940D01*
X021000Y004208D01*
X021268Y003940D01*
X021500Y003940D01*
X021732Y003940D01*
X022000Y004208D01*
X022268Y003940D01*
X022500Y003940D01*
X022732Y003940D01*
X023060Y004268D01*
X023060Y004500D01*
X023060Y004732D01*
X022834Y004958D01*
X023120Y005243D01*
X023120Y005757D01*
X023120Y005596D02*
X049680Y005596D01*
X049680Y005278D02*
X023120Y005278D01*
X022836Y004959D02*
X049680Y004959D01*
X049680Y004641D02*
X023060Y004641D01*
X023060Y004500D02*
X022500Y004500D01*
X022500Y004500D01*
X023060Y004500D01*
X023060Y004322D02*
X028850Y004322D01*
X028640Y004240D02*
X029117Y004427D01*
X029117Y004427D01*
X029629Y004465D01*
X029629Y004465D01*
X030128Y004351D01*
X030128Y004351D01*
X030572Y004095D01*
X030572Y004095D01*
X030921Y003719D01*
X030921Y003719D01*
X031144Y003257D01*
X031144Y003257D01*
X031220Y002750D01*
X031144Y002243D01*
X030921Y001781D01*
X030921Y001781D01*
X030572Y001405D01*
X030572Y001405D01*
X030128Y001149D01*
X030128Y001149D01*
X029629Y001035D01*
X029629Y001035D01*
X029117Y001073D01*
X029117Y001073D01*
X028640Y001260D01*
X028640Y001260D01*
X028239Y001580D01*
X028239Y001580D01*
X028239Y001580D01*
X027950Y002004D01*
X027950Y002004D01*
X027799Y002494D01*
X027799Y003006D01*
X027950Y003496D01*
X027950Y003496D01*
X028239Y003920D01*
X028239Y003920D01*
X028239Y003920D01*
X028640Y004240D01*
X028640Y004240D01*
X028344Y004004D02*
X022795Y004004D01*
X022500Y004004D02*
X022500Y004004D01*
X022500Y003940D02*
X022500Y004500D01*
X022500Y004500D01*
X022500Y004500D01*
X022500Y003940D01*
X022205Y004004D02*
X021795Y004004D01*
X021500Y004004D02*
X021500Y004004D01*
X021500Y003940D02*
X021500Y004500D01*
X021500Y004500D01*
X021500Y004500D01*
X021500Y004500D01*
X022500Y004500D01*
X022500Y004322D02*
X022500Y004322D01*
X021500Y004322D02*
X021500Y004322D01*
X021500Y004500D02*
X021500Y003940D01*
X021205Y004004D02*
X020795Y004004D01*
X020500Y004004D02*
X020500Y004004D01*
X020500Y003940D02*
X020500Y004500D01*
X020500Y004500D01*
X020500Y004500D01*
X020500Y004500D01*
X021500Y004500D01*
X020500Y004500D02*
X020500Y003940D01*
X020205Y004004D02*
X019795Y004004D01*
X019500Y004004D02*
X019500Y004004D01*
X019500Y003940D02*
X019500Y004500D01*
X019500Y004500D01*
X019500Y004500D01*
X019500Y004500D01*
X020500Y004500D01*
X020500Y004322D02*
X020500Y004322D01*
X019500Y004322D02*
X019500Y004322D01*
X019500Y004500D02*
X019500Y003940D01*
X019205Y004004D02*
X018795Y004004D01*
X018500Y004004D02*
X018500Y004004D01*
X018500Y003940D02*
X018500Y004500D01*
X018500Y004500D01*
X018500Y004500D01*
X018500Y004500D01*
X019500Y004500D01*
X018500Y004500D02*
X018500Y003940D01*
X018205Y004004D02*
X017795Y004004D01*
X017500Y004004D02*
X017500Y004004D01*
X017500Y003940D02*
X017500Y004500D01*
X017500Y004500D01*
X017500Y004500D01*
X017500Y004500D01*
X018500Y004500D01*
X018500Y004322D02*
X018500Y004322D01*
X017500Y004322D02*
X017500Y004322D01*
X017500Y004500D02*
X017500Y003940D01*
X017205Y004004D02*
X016795Y004004D01*
X016500Y004004D02*
X016500Y004004D01*
X016500Y003940D02*
X016500Y004500D01*
X016500Y004500D01*
X016500Y004500D01*
X016500Y004500D01*
X017500Y004500D01*
X016500Y004500D02*
X016500Y003940D01*
X016205Y004004D02*
X015795Y004004D01*
X015500Y004004D02*
X015500Y004004D01*
X015500Y003940D02*
X015500Y004500D01*
X015500Y004500D01*
X015500Y004500D01*
X015500Y004500D01*
X016500Y004500D01*
X016500Y004322D02*
X016500Y004322D01*
X015500Y004322D02*
X015500Y004322D01*
X015500Y004500D02*
X015500Y003940D01*
X015205Y004004D02*
X014795Y004004D01*
X014500Y004004D02*
X014500Y004004D01*
X014500Y003940D02*
X014500Y004500D01*
X014500Y004500D01*
X015500Y004500D01*
X014500Y004500D02*
X014500Y004500D01*
X014500Y004500D01*
X014500Y003940D01*
X014205Y004004D02*
X013795Y004004D01*
X013500Y004004D02*
X013500Y004004D01*
X013500Y003940D02*
X013500Y004500D01*
X013500Y004500D01*
X013500Y004500D01*
X014500Y004500D01*
X014500Y004322D02*
X014500Y004322D01*
X013500Y004322D02*
X013500Y004322D01*
X013500Y004500D02*
X012940Y004500D01*
X012940Y004268D01*
X013268Y003940D01*
X013500Y003940D01*
X013205Y004004D02*
X007682Y004004D01*
X008001Y004322D02*
X012940Y004322D01*
X012940Y004641D02*
X008319Y004641D01*
X008638Y004959D02*
X013164Y004959D01*
X012880Y005278D02*
X008956Y005278D01*
X009275Y005596D02*
X012880Y005596D01*
X013038Y005915D02*
X009593Y005915D01*
X009500Y006500D02*
X006500Y003500D01*
X003750Y003500D01*
X003625Y003375D01*
X006000Y002093D02*
X020448Y002093D01*
X020689Y002093D02*
X025390Y002093D01*
X025630Y002093D02*
X027923Y002093D01*
X027825Y002411D02*
X006489Y002411D01*
X006520Y002730D02*
X027799Y002730D01*
X027812Y003048D02*
X006663Y003048D01*
X007045Y003367D02*
X027910Y003367D01*
X028079Y003685D02*
X007364Y003685D01*
X006979Y001774D02*
X014306Y001774D01*
X014274Y001456D02*
X007070Y001456D01*
X007070Y001137D02*
X014274Y001137D01*
X015827Y001959D02*
X015827Y001959D01*
X015827Y001959D01*
X015500Y005500D02*
X014000Y007000D01*
X009000Y007000D01*
X008000Y006000D01*
X003750Y006000D01*
X003625Y005875D01*
X003750Y007000D02*
X008000Y007000D01*
X008500Y007500D01*
X014500Y007500D01*
X016500Y005500D01*
X017500Y005500D02*
X013500Y009500D01*
X003750Y009500D01*
X003625Y009625D01*
X003750Y008500D02*
X007500Y008500D01*
X011500Y008500D01*
X013301Y009020D02*
X014341Y007980D01*
X008405Y007980D01*
X008228Y007907D01*
X008093Y007772D01*
X007801Y007480D01*
X006525Y007480D01*
X006525Y007589D01*
X006520Y007601D01*
X006520Y008014D01*
X006471Y008131D01*
X006465Y008138D01*
X006465Y008335D01*
X006000Y008335D01*
X006000Y008415D01*
X006465Y008415D01*
X006465Y008612D01*
X006471Y008619D01*
X006520Y008736D01*
X006520Y009020D01*
X013301Y009020D01*
X013540Y008781D02*
X006520Y008781D01*
X006465Y008463D02*
X013859Y008463D01*
X014177Y008144D02*
X006465Y008144D01*
X006520Y007826D02*
X008147Y007826D01*
X007828Y007507D02*
X006525Y007507D01*
X003750Y007000D02*
X003625Y007125D01*
X003625Y008375D02*
X003750Y008500D01*
X003625Y010875D02*
X003750Y011000D01*
X013000Y011000D01*
X018500Y005500D01*
X019500Y005500D02*
X011500Y013500D01*
X004000Y013500D01*
X003875Y013375D01*
X003625Y013375D01*
X004000Y014500D02*
X006500Y014500D01*
X007000Y014000D01*
X012000Y014000D01*
X020500Y005500D01*
X021500Y005500D02*
X010000Y017000D01*
X004000Y017000D01*
X003875Y017125D01*
X003625Y017125D01*
X006000Y018335D02*
X006000Y018415D01*
X006465Y018415D01*
X006465Y018612D01*
X006471Y018619D01*
X006520Y018736D01*
X006520Y019020D01*
X008301Y019020D01*
X009841Y017480D01*
X006525Y017480D01*
X006525Y017589D01*
X006520Y017601D01*
X006520Y018014D01*
X006471Y018131D01*
X006465Y018138D01*
X006465Y018335D01*
X006000Y018335D01*
X006000Y018336D02*
X008985Y018336D01*
X009304Y018018D02*
X006518Y018018D01*
X006520Y017699D02*
X009622Y017699D01*
X010343Y018336D02*
X049680Y018336D01*
X049680Y018018D02*
X010661Y018018D01*
X010980Y017699D02*
X049680Y017699D01*
X049680Y017381D02*
X011298Y017381D01*
X011617Y017062D02*
X049680Y017062D01*
X049680Y016744D02*
X011935Y016744D01*
X010215Y016107D02*
X006465Y016107D01*
X006465Y016112D02*
X006471Y016119D01*
X006520Y016236D01*
X006520Y016520D01*
X009801Y016520D01*
X011841Y014480D01*
X007199Y014480D01*
X006772Y014907D01*
X006595Y014980D01*
X006525Y014980D01*
X006525Y015089D01*
X006520Y015101D01*
X006520Y015514D01*
X006471Y015631D01*
X006465Y015638D01*
X006465Y015835D01*
X006000Y015835D01*
X006000Y015915D01*
X006465Y015915D01*
X006465Y016112D01*
X006520Y016425D02*
X009896Y016425D01*
X010533Y015788D02*
X006465Y015788D01*
X006520Y015470D02*
X010852Y015470D01*
X011170Y015151D02*
X006520Y015151D01*
X006846Y014833D02*
X011489Y014833D01*
X011807Y014514D02*
X007165Y014514D01*
X007500Y014500D02*
X007500Y016000D01*
X003750Y016000D01*
X003625Y015875D01*
X003625Y014625D02*
X003875Y014625D01*
X004000Y014500D01*
X006525Y013020D02*
X011301Y013020D01*
X012841Y011480D01*
X006520Y011480D01*
X006520Y011764D01*
X006471Y011881D01*
X006465Y011888D01*
X006465Y012085D01*
X006000Y012085D01*
X006000Y012165D01*
X006465Y012165D01*
X006465Y012362D01*
X006471Y012369D01*
X006520Y012486D01*
X006520Y012899D01*
X006525Y012911D01*
X006525Y013020D01*
X006525Y012922D02*
X011400Y012922D01*
X011718Y012603D02*
X006520Y012603D01*
X006465Y012285D02*
X012037Y012285D01*
X012355Y011966D02*
X006465Y011966D01*
X006520Y011648D02*
X012674Y011648D01*
X007500Y011500D02*
X007500Y012000D01*
X003750Y012000D01*
X003625Y012125D01*
X007500Y012000D02*
X007500Y013000D01*
X007500Y018500D02*
X003750Y018500D01*
X003625Y018375D01*
X003625Y019625D02*
X004375Y019625D01*
X004500Y019500D01*
X008500Y019500D01*
X022500Y005500D01*
X022790Y001774D02*
X022816Y001774D01*
X024636Y001782D02*
X024636Y001782D01*
X027731Y001774D02*
X028107Y001774D01*
X027899Y001456D02*
X028395Y001456D01*
X027899Y001137D02*
X028955Y001137D01*
X030076Y001137D02*
X049680Y001137D01*
X049680Y001456D02*
X048723Y001456D01*
X048892Y001542D02*
X048892Y001542D01*
X048469Y001326D01*
X048469Y001326D01*
X048000Y001252D01*
X048000Y001252D01*
X047531Y001326D01*
X047531Y001326D01*
X047108Y001542D01*
X047108Y001542D01*
X046772Y001878D01*
X046772Y001878D01*
X046556Y002301D01*
X046556Y002301D01*
X046482Y002770D01*
X046482Y002770D01*
X046556Y003239D01*
X046556Y003239D01*
X046772Y003662D01*
X046772Y003662D01*
X047108Y003998D01*
X047108Y003998D01*
X047531Y004214D01*
X047531Y004214D01*
X048000Y004288D01*
X048000Y004288D01*
X048469Y004214D01*
X048469Y004214D01*
X048892Y003998D01*
X048892Y003998D01*
X049228Y003662D01*
X049228Y003662D01*
X049444Y003239D01*
X049444Y003239D01*
X049518Y002770D01*
X049444Y002301D01*
X049444Y002301D01*
X049228Y001878D01*
X049228Y001878D01*
X048892Y001542D01*
X049124Y001774D02*
X049680Y001774D01*
X049680Y002093D02*
X049338Y002093D01*
X049461Y002411D02*
X049680Y002411D01*
X049680Y002730D02*
X049512Y002730D01*
X049474Y003048D02*
X049680Y003048D01*
X049680Y003367D02*
X049379Y003367D01*
X049205Y003685D02*
X049680Y003685D01*
X049680Y004004D02*
X048882Y004004D01*
X049680Y004322D02*
X030179Y004322D01*
X030657Y004004D02*
X047118Y004004D01*
X046795Y003685D02*
X030937Y003685D01*
X031091Y003367D02*
X046621Y003367D01*
X046526Y003048D02*
X031175Y003048D01*
X031217Y002730D02*
X046488Y002730D01*
X046539Y002411D02*
X031169Y002411D01*
X031144Y002243D02*
X031144Y002243D01*
X031071Y002093D02*
X046662Y002093D01*
X046876Y001774D02*
X030915Y001774D01*
X030619Y001456D02*
X047277Y001456D01*
X030572Y001405D02*
X030572Y001405D01*
X014500Y005500D02*
X013500Y006500D01*
X009500Y006500D01*
X010024Y018655D02*
X049680Y018655D01*
X049680Y018973D02*
X009706Y018973D01*
X009387Y019292D02*
X049680Y019292D01*
X049680Y019610D02*
X009069Y019610D01*
X008720Y019929D02*
X013195Y019929D01*
X012880Y020247D02*
X006520Y020247D01*
X006499Y020566D02*
X012880Y020566D01*
X013007Y020884D02*
X006000Y020884D01*
X006506Y021203D02*
X013006Y021203D01*
X012940Y021500D02*
X013500Y021500D01*
X013500Y021500D01*
X013500Y022060D01*
X013732Y022060D01*
X014000Y021792D01*
X014268Y022060D01*
X014500Y022060D01*
X014500Y021500D01*
X014500Y021500D01*
X015500Y021500D01*
X015500Y021500D01*
X015500Y022060D01*
X015732Y022060D01*
X016000Y021792D01*
X016268Y022060D01*
X016500Y022060D01*
X016500Y021500D01*
X016500Y021500D01*
X017500Y021500D01*
X017500Y021500D01*
X017500Y022060D01*
X017732Y022060D01*
X018000Y021792D01*
X018268Y022060D01*
X018500Y022060D01*
X018500Y021500D01*
X018500Y021500D01*
X019500Y021500D01*
X019500Y021500D01*
X019500Y022060D01*
X019732Y022060D01*
X020000Y021792D01*
X020268Y022060D01*
X020500Y022060D01*
X020500Y021500D01*
X020500Y021500D01*
X021500Y021500D01*
X021500Y021500D01*
X021500Y022060D01*
X021732Y022060D01*
X022000Y021792D01*
X022268Y022060D01*
X022500Y022060D01*
X022500Y021500D01*
X022500Y021500D01*
X021500Y021500D01*
X021500Y021500D01*
X021500Y022060D01*
X021268Y022060D01*
X021000Y021792D01*
X020732Y022060D01*
X020500Y022060D01*
X020500Y021500D01*
X020500Y021500D01*
X020500Y021500D01*
X019500Y021500D01*
X019500Y021500D01*
X019500Y022060D01*
X019268Y022060D01*
X019000Y021792D01*
X018732Y022060D01*
X018500Y022060D01*
X018500Y021500D01*
X018500Y021500D01*
X018940Y021500D01*
X019500Y021500D01*
X019940Y021500D01*
X020500Y021500D01*
X020940Y021500D01*
X021500Y021500D01*
X021940Y021500D01*
X022500Y021500D01*
X022500Y021521D02*
X022500Y021521D01*
X022500Y021840D02*
X022500Y021840D01*
X022952Y021840D02*
X028062Y021840D01*
X027950Y022004D02*
X028239Y021580D01*
X028239Y021580D01*
X028239Y021580D01*
X028640Y021260D01*
X029117Y021073D01*
X029117Y021073D01*
X029629Y021035D01*
X030128Y021149D01*
X030128Y021149D01*
X030572Y021405D01*
X030572Y021405D01*
X030921Y021781D01*
X031144Y022243D01*
X031220Y022750D01*
X031220Y022750D01*
X031144Y023257D01*
X030921Y023719D01*
X030572Y024095D01*
X030128Y024351D01*
X029629Y024465D01*
X029629Y024465D01*
X029117Y024427D01*
X028640Y024240D01*
X028239Y023920D01*
X027950Y023496D01*
X027799Y023006D01*
X027799Y022494D01*
X027950Y022004D01*
X027950Y022004D01*
X027903Y022158D02*
X006525Y022158D01*
X006525Y021840D02*
X013048Y021840D01*
X012940Y021732D02*
X012940Y021500D01*
X012940Y021521D02*
X006520Y021521D01*
X006525Y022477D02*
X027804Y022477D01*
X027799Y022795D02*
X006520Y022795D01*
X006525Y023114D02*
X027832Y023114D01*
X027931Y023432D02*
X006525Y023432D01*
X008003Y023751D02*
X028124Y023751D01*
X028239Y023920D02*
X028239Y023920D01*
X028239Y023920D01*
X028426Y024069D02*
X008070Y024069D01*
X008070Y024388D02*
X029017Y024388D01*
X029117Y024427D02*
X029117Y024427D01*
X028640Y024240D02*
X028640Y024240D01*
X027950Y023496D02*
X027950Y023496D01*
X029969Y024388D02*
X049680Y024388D01*
X049680Y024069D02*
X048753Y024069D01*
X048892Y023998D02*
X048469Y024214D01*
X048000Y024288D01*
X048000Y024288D01*
X047531Y024214D01*
X047531Y024214D01*
X047108Y023998D01*
X047108Y023998D01*
X046772Y023662D01*
X046556Y023239D01*
X046482Y022770D01*
X046556Y022301D01*
X046556Y022301D01*
X046772Y021878D01*
X046772Y021878D01*
X047108Y021542D01*
X047531Y021326D01*
X048000Y021252D01*
X048469Y021326D01*
X048892Y021542D01*
X048892Y021542D01*
X049228Y021878D01*
X049444Y022301D01*
X049518Y022770D01*
X049444Y023239D01*
X049228Y023662D01*
X048892Y023998D01*
X049140Y023751D02*
X049680Y023751D01*
X049228Y023662D02*
X049228Y023662D01*
X049345Y023432D02*
X049680Y023432D01*
X049444Y023239D02*
X049444Y023239D01*
X049464Y023114D02*
X049680Y023114D01*
X049680Y022795D02*
X049514Y022795D01*
X049472Y022477D02*
X049680Y022477D01*
X049444Y022301D02*
X049444Y022301D01*
X049371Y022158D02*
X049680Y022158D01*
X049680Y021840D02*
X049190Y021840D01*
X049228Y021878D02*
X049228Y021878D01*
X048851Y021521D02*
X049680Y021521D01*
X049680Y021203D02*
X030221Y021203D01*
X030680Y021521D02*
X047149Y021521D01*
X047108Y021542D02*
X047108Y021542D01*
X046810Y021840D02*
X030949Y021840D01*
X030921Y021781D02*
X030921Y021781D01*
X031103Y022158D02*
X046629Y022158D01*
X046528Y022477D02*
X031179Y022477D01*
X031144Y022243D02*
X031144Y022243D01*
X031213Y022795D02*
X046486Y022795D01*
X046482Y022770D02*
X046482Y022770D01*
X046536Y023114D02*
X031165Y023114D01*
X031059Y023432D02*
X046655Y023432D01*
X046556Y023239D02*
X046556Y023239D01*
X046772Y023662D02*
X046772Y023662D01*
X046860Y023751D02*
X030892Y023751D01*
X030596Y024069D02*
X047247Y024069D01*
X047531Y021326D02*
X047531Y021326D01*
X048000Y021252D02*
X048000Y021252D01*
X048469Y021326D02*
X048469Y021326D01*
X049680Y020884D02*
X022993Y020884D01*
X023120Y020566D02*
X049680Y020566D01*
X049680Y020247D02*
X023120Y020247D01*
X022805Y019929D02*
X049680Y019929D01*
X030572Y024095D02*
X030572Y024095D01*
X030128Y024351D02*
X030128Y024351D01*
X028313Y021521D02*
X023060Y021521D01*
X022994Y021203D02*
X028788Y021203D01*
X028640Y021260D02*
X028640Y021260D01*
X029629Y021035D02*
X029629Y021035D01*
X022195Y019929D02*
X021805Y019929D01*
X021195Y019929D02*
X020805Y019929D01*
X020195Y019929D02*
X019805Y019929D01*
X019195Y019929D02*
X018805Y019929D01*
X018195Y019929D02*
X017805Y019929D01*
X017195Y019929D02*
X016805Y019929D01*
X016195Y019929D02*
X015805Y019929D01*
X015195Y019929D02*
X014805Y019929D01*
X014195Y019929D02*
X013805Y019929D01*
X013940Y021500D02*
X013500Y021500D01*
X014500Y021500D01*
X014500Y021500D01*
X014500Y022060D01*
X014732Y022060D01*
X015000Y021792D01*
X015268Y022060D01*
X015500Y022060D01*
X015500Y021500D01*
X016500Y021500D01*
X016500Y021500D01*
X016500Y022060D01*
X016732Y022060D01*
X017000Y021792D01*
X017268Y022060D01*
X017500Y022060D01*
X017500Y021500D01*
X018500Y021500D01*
X018500Y021500D01*
X017940Y021500D01*
X017500Y021500D01*
X017500Y021500D01*
X017500Y021500D01*
X016940Y021500D01*
X016500Y021500D01*
X016500Y021500D01*
X015940Y021500D01*
X015500Y021500D01*
X015500Y021500D01*
X015500Y021500D01*
X014940Y021500D01*
X014500Y021500D01*
X014500Y021500D01*
X013940Y021500D01*
X013952Y021840D02*
X014048Y021840D01*
X014500Y021840D02*
X014500Y021840D01*
X014500Y021521D02*
X014500Y021521D01*
X014952Y021840D02*
X015048Y021840D01*
X015500Y021840D02*
X015500Y021840D01*
X015500Y021521D02*
X015500Y021521D01*
X015952Y021840D02*
X016048Y021840D01*
X016500Y021840D02*
X016500Y021840D01*
X016500Y021521D02*
X016500Y021521D01*
X016952Y021840D02*
X017048Y021840D01*
X017500Y021840D02*
X017500Y021840D01*
X017500Y021521D02*
X017500Y021521D01*
X017952Y021840D02*
X018048Y021840D01*
X018500Y021840D02*
X018500Y021840D01*
X018500Y021521D02*
X018500Y021521D01*
X018952Y021840D02*
X019048Y021840D01*
X019500Y021840D02*
X019500Y021840D01*
X019500Y021521D02*
X019500Y021521D01*
X019500Y021500D02*
X019500Y021500D01*
X019952Y021840D02*
X020048Y021840D01*
X020500Y021840D02*
X020500Y021840D01*
X020500Y021521D02*
X020500Y021521D01*
X020952Y021840D02*
X021048Y021840D01*
X021500Y021840D02*
X021500Y021840D01*
X021500Y021521D02*
X021500Y021521D01*
X021500Y021500D02*
X021500Y021500D01*
X021952Y021840D02*
X022048Y021840D01*
X013500Y021840D02*
X013500Y021840D01*
X013500Y022060D02*
X013500Y021500D01*
X013500Y021500D01*
X013500Y021500D01*
X013500Y021521D02*
X013500Y021521D01*
X013268Y022060D02*
X012940Y021732D01*
X013268Y022060D02*
X013500Y022060D01*
X011000Y019000D02*
X009000Y021000D01*
X004500Y021000D01*
X004375Y020875D01*
X003625Y020875D01*
X006520Y018973D02*
X008348Y018973D01*
X008667Y018655D02*
X006486Y018655D01*
D14*
X007500Y018500D03*
X010500Y018500D03*
X012500Y016500D03*
X007500Y016000D03*
X007500Y014500D03*
X007500Y013000D03*
X007500Y011500D03*
X007500Y008500D03*
X011500Y008500D03*
X009000Y021000D03*
M02*
