G75*
G70*
%OFA0B0*%
%FSLAX24Y24*%
%IPPOS*%
%LPD*%
%AMOC8*
5,1,8,0,0,1.08239X$1,22.5*
%
%ADD10O,0.0624X0.1144*%
%ADD11OC8,0.0756*%
%ADD12OC8,0.0624*%
%ADD13C,0.1512*%
%ADD14C,0.0672*%
%ADD15OC8,0.0672*%
%ADD16C,0.1560*%
%ADD17OC8,0.1800*%
%ADD18C,0.1020*%
%ADD19OC8,0.1020*%
%ADD20O,0.1144X0.0624*%
%ADD21O,0.0846X0.1551*%
%ADD22C,0.0852*%
%ADD23C,0.1488*%
%ADD24OC8,0.1488*%
%ADD25C,0.0480*%
D10*
X098433Y073101D03*
X097433Y073101D03*
X096433Y073101D03*
X095433Y073101D03*
X094433Y073101D03*
X093433Y073101D03*
X092433Y073101D03*
X091433Y073101D03*
X090433Y073101D03*
X089433Y073101D03*
X088433Y073101D03*
X087433Y073101D03*
X086433Y073101D03*
X085433Y073101D03*
X084433Y073101D03*
X083433Y073101D03*
X082433Y073101D03*
X081433Y073101D03*
X080433Y073101D03*
X079433Y073101D03*
X079433Y067101D03*
X080433Y067101D03*
X081433Y067101D03*
X082433Y067101D03*
X083433Y067101D03*
X084433Y067101D03*
X085433Y067101D03*
X086433Y067101D03*
X087433Y067101D03*
X088433Y067101D03*
X089433Y067101D03*
X090433Y067101D03*
X091433Y067101D03*
X092433Y067101D03*
X093433Y067101D03*
X094433Y067101D03*
X095433Y067101D03*
X096433Y067101D03*
X097433Y067101D03*
X098433Y067101D03*
X065433Y067101D03*
X064433Y067101D03*
X063433Y067101D03*
X062433Y067101D03*
X061433Y067101D03*
X060433Y067101D03*
X059433Y067101D03*
X058433Y067101D03*
X057433Y067101D03*
X056433Y067101D03*
X055433Y067101D03*
X054433Y067101D03*
X053433Y067101D03*
X052433Y067101D03*
X051433Y067101D03*
X050433Y067101D03*
X049433Y067101D03*
X048433Y067101D03*
X047433Y067101D03*
X046433Y067101D03*
X045433Y067101D03*
X044433Y067101D03*
X043433Y067101D03*
X042433Y067101D03*
X041433Y067101D03*
X041433Y073101D03*
X042433Y073101D03*
X043433Y073101D03*
X044433Y073101D03*
X045433Y073101D03*
X046433Y073101D03*
X047433Y073101D03*
X048433Y073101D03*
X049433Y073101D03*
X050433Y073101D03*
X051433Y073101D03*
X052433Y073101D03*
X053433Y073101D03*
X054433Y073101D03*
X055433Y073101D03*
X056433Y073101D03*
X057433Y073101D03*
X058433Y073101D03*
X059433Y073101D03*
X060433Y073101D03*
X061433Y073101D03*
X062433Y073101D03*
X063433Y073101D03*
X064433Y073101D03*
X065433Y073101D03*
X059433Y045101D03*
X058433Y045101D03*
X057433Y045101D03*
X056433Y045101D03*
X055433Y045101D03*
X054433Y045101D03*
X053433Y045101D03*
X052433Y045101D03*
X048433Y045101D03*
X047433Y045101D03*
X046433Y045101D03*
X045433Y045101D03*
X044433Y045101D03*
X043433Y045101D03*
X042433Y045101D03*
X041433Y045101D03*
X041433Y042101D03*
X042433Y042101D03*
X043433Y042101D03*
X044433Y042101D03*
X045433Y042101D03*
X046433Y042101D03*
X047433Y042101D03*
X048433Y042101D03*
X052433Y042101D03*
X053433Y042101D03*
X054433Y042101D03*
X055433Y042101D03*
X056433Y042101D03*
X057433Y042101D03*
X058433Y042101D03*
X059433Y042101D03*
X059433Y032101D03*
X058433Y032101D03*
X057433Y032101D03*
X056433Y032101D03*
X055433Y032101D03*
X054433Y032101D03*
X053433Y032101D03*
X052433Y032101D03*
X048433Y032101D03*
X047433Y032101D03*
X046433Y032101D03*
X045433Y032101D03*
X044433Y032101D03*
X043433Y032101D03*
X042433Y032101D03*
X041433Y032101D03*
X041433Y029101D03*
X042433Y029101D03*
X043433Y029101D03*
X044433Y029101D03*
X045433Y029101D03*
X046433Y029101D03*
X047433Y029101D03*
X048433Y029101D03*
X052433Y029101D03*
X053433Y029101D03*
X054433Y029101D03*
X055433Y029101D03*
X056433Y029101D03*
X057433Y029101D03*
X058433Y029101D03*
X059433Y029101D03*
X063433Y029101D03*
X064433Y029101D03*
X065433Y029101D03*
X066433Y029101D03*
X067433Y029101D03*
X068433Y029101D03*
X069433Y029101D03*
X069433Y032101D03*
X068433Y032101D03*
X067433Y032101D03*
X066433Y032101D03*
X065433Y032101D03*
X064433Y032101D03*
X063433Y032101D03*
X063433Y024101D03*
X064433Y024101D03*
X065433Y024101D03*
X066433Y024101D03*
X067433Y024101D03*
X068433Y024101D03*
X069433Y024101D03*
X070433Y024101D03*
X073433Y024101D03*
X074433Y024101D03*
X075433Y024101D03*
X076433Y024101D03*
X077433Y024101D03*
X078433Y024101D03*
X079433Y024101D03*
X083433Y024101D03*
X084433Y024101D03*
X085433Y024101D03*
X086433Y024101D03*
X087433Y024101D03*
X088433Y024101D03*
X089433Y024101D03*
X093433Y024101D03*
X094433Y024101D03*
X095433Y024101D03*
X096433Y024101D03*
X097433Y024101D03*
X098433Y024101D03*
X099433Y024101D03*
X100433Y024101D03*
X104433Y024101D03*
X105433Y024101D03*
X106433Y024101D03*
X107433Y024101D03*
X108433Y024101D03*
X109433Y024101D03*
X110433Y024101D03*
X111433Y024101D03*
X111433Y021101D03*
X110433Y021101D03*
X109433Y021101D03*
X108433Y021101D03*
X107433Y021101D03*
X106433Y021101D03*
X105433Y021101D03*
X104433Y021101D03*
X100433Y021101D03*
X099433Y021101D03*
X098433Y021101D03*
X097433Y021101D03*
X096433Y021101D03*
X095433Y021101D03*
X094433Y021101D03*
X093433Y021101D03*
X089433Y021101D03*
X088433Y021101D03*
X087433Y021101D03*
X086433Y021101D03*
X085433Y021101D03*
X084433Y021101D03*
X083433Y021101D03*
X079433Y021101D03*
X078433Y021101D03*
X077433Y021101D03*
X076433Y021101D03*
X075433Y021101D03*
X074433Y021101D03*
X073433Y021101D03*
X070433Y021101D03*
X069433Y021101D03*
X068433Y021101D03*
X067433Y021101D03*
X066433Y021101D03*
X065433Y021101D03*
X064433Y021101D03*
X063433Y021101D03*
X059433Y021101D03*
X058433Y021101D03*
X057433Y021101D03*
X056433Y021101D03*
X055433Y021101D03*
X054433Y021101D03*
X053433Y021101D03*
X052433Y021101D03*
X048433Y021101D03*
X047433Y021101D03*
X046433Y021101D03*
X045433Y021101D03*
X044433Y021101D03*
X043433Y021101D03*
X042433Y021101D03*
X041433Y021101D03*
X041433Y024101D03*
X042433Y024101D03*
X043433Y024101D03*
X044433Y024101D03*
X045433Y024101D03*
X046433Y024101D03*
X047433Y024101D03*
X048433Y024101D03*
X052433Y024101D03*
X053433Y024101D03*
X054433Y024101D03*
X055433Y024101D03*
X056433Y024101D03*
X057433Y024101D03*
X058433Y024101D03*
X059433Y024101D03*
X058433Y016101D03*
X057433Y016101D03*
X056433Y016101D03*
X055433Y016101D03*
X054433Y016101D03*
X053433Y016101D03*
X052433Y016101D03*
X048433Y016101D03*
X047433Y016101D03*
X046433Y016101D03*
X045433Y016101D03*
X044433Y016101D03*
X043433Y016101D03*
X042433Y016101D03*
X041433Y016101D03*
X041433Y013101D03*
X042433Y013101D03*
X043433Y013101D03*
X044433Y013101D03*
X045433Y013101D03*
X046433Y013101D03*
X047433Y013101D03*
X048433Y013101D03*
X052433Y013101D03*
X053433Y013101D03*
X054433Y013101D03*
X055433Y013101D03*
X056433Y013101D03*
X057433Y013101D03*
X058433Y013101D03*
X063433Y013101D03*
X064433Y013101D03*
X065433Y013101D03*
X066433Y013101D03*
X067433Y013101D03*
X068433Y013101D03*
X069433Y013101D03*
X070433Y013101D03*
X073433Y013101D03*
X074433Y013101D03*
X075433Y013101D03*
X076433Y013101D03*
X077433Y013101D03*
X078433Y013101D03*
X079433Y013101D03*
X083433Y013101D03*
X084433Y013101D03*
X085433Y013101D03*
X086433Y013101D03*
X087433Y013101D03*
X088433Y013101D03*
X089433Y013101D03*
X093433Y013101D03*
X094433Y013101D03*
X095433Y013101D03*
X096433Y013101D03*
X097433Y013101D03*
X098433Y013101D03*
X099433Y013101D03*
X100433Y013101D03*
X104433Y013101D03*
X105433Y013101D03*
X106433Y013101D03*
X107433Y013101D03*
X108433Y013101D03*
X109433Y013101D03*
X110433Y013101D03*
X111433Y013101D03*
X111433Y016101D03*
X110433Y016101D03*
X109433Y016101D03*
X108433Y016101D03*
X107433Y016101D03*
X106433Y016101D03*
X105433Y016101D03*
X104433Y016101D03*
X100433Y016101D03*
X099433Y016101D03*
X098433Y016101D03*
X097433Y016101D03*
X096433Y016101D03*
X095433Y016101D03*
X094433Y016101D03*
X093433Y016101D03*
X089433Y016101D03*
X088433Y016101D03*
X087433Y016101D03*
X086433Y016101D03*
X085433Y016101D03*
X084433Y016101D03*
X083433Y016101D03*
X079433Y016101D03*
X078433Y016101D03*
X077433Y016101D03*
X076433Y016101D03*
X075433Y016101D03*
X074433Y016101D03*
X073433Y016101D03*
X070433Y016101D03*
X069433Y016101D03*
X068433Y016101D03*
X067433Y016101D03*
X066433Y016101D03*
X065433Y016101D03*
X064433Y016101D03*
X063433Y016101D03*
X048433Y008601D03*
X047433Y008601D03*
X046433Y008601D03*
X045433Y008601D03*
X044433Y008601D03*
X043433Y008601D03*
X042433Y008601D03*
X041433Y008601D03*
X041433Y005601D03*
X042433Y005601D03*
X043433Y005601D03*
X044433Y005601D03*
X045433Y005601D03*
X046433Y005601D03*
X047433Y005601D03*
X048433Y005601D03*
X052433Y005101D03*
X053433Y005101D03*
X054433Y005101D03*
X055433Y005101D03*
X056433Y005101D03*
X057433Y005101D03*
X058433Y005101D03*
X063433Y005101D03*
X064433Y005101D03*
X065433Y005101D03*
X066433Y005101D03*
X067433Y005101D03*
X068433Y005101D03*
X069433Y005101D03*
X073433Y005101D03*
X074433Y005101D03*
X075433Y005101D03*
X076433Y005101D03*
X077433Y005101D03*
X078433Y005101D03*
X079433Y005101D03*
X080433Y005101D03*
X083433Y005101D03*
X084433Y005101D03*
X085433Y005101D03*
X086433Y005101D03*
X087433Y005101D03*
X088433Y005101D03*
X089433Y005101D03*
X093433Y005101D03*
X094433Y005101D03*
X095433Y005101D03*
X096433Y005101D03*
X097433Y005101D03*
X098433Y005101D03*
X099433Y005101D03*
X100433Y005101D03*
X104433Y005601D03*
X105433Y005601D03*
X106433Y005601D03*
X107433Y005601D03*
X108433Y005601D03*
X109433Y005601D03*
X110433Y005601D03*
X111433Y005601D03*
X111433Y008601D03*
X110433Y008601D03*
X109433Y008601D03*
X108433Y008601D03*
X107433Y008601D03*
X106433Y008601D03*
X105433Y008601D03*
X104433Y008601D03*
X100433Y008101D03*
X099433Y008101D03*
X098433Y008101D03*
X097433Y008101D03*
X096433Y008101D03*
X095433Y008101D03*
X094433Y008101D03*
X093433Y008101D03*
X089433Y008101D03*
X088433Y008101D03*
X087433Y008101D03*
X086433Y008101D03*
X085433Y008101D03*
X084433Y008101D03*
X083433Y008101D03*
X080433Y008101D03*
X079433Y008101D03*
X078433Y008101D03*
X077433Y008101D03*
X076433Y008101D03*
X075433Y008101D03*
X074433Y008101D03*
X073433Y008101D03*
X069433Y008101D03*
X068433Y008101D03*
X067433Y008101D03*
X066433Y008101D03*
X065433Y008101D03*
X064433Y008101D03*
X063433Y008101D03*
X058433Y008101D03*
X057433Y008101D03*
X056433Y008101D03*
X055433Y008101D03*
X054433Y008101D03*
X053433Y008101D03*
X052433Y008101D03*
X083433Y029101D03*
X084433Y029101D03*
X085433Y029101D03*
X086433Y029101D03*
X087433Y029101D03*
X088433Y029101D03*
X089433Y029101D03*
X093433Y029101D03*
X094433Y029101D03*
X095433Y029101D03*
X096433Y029101D03*
X097433Y029101D03*
X098433Y029101D03*
X099433Y029101D03*
X099433Y032101D03*
X098433Y032101D03*
X097433Y032101D03*
X096433Y032101D03*
X095433Y032101D03*
X094433Y032101D03*
X093433Y032101D03*
X089433Y032101D03*
X088433Y032101D03*
X087433Y032101D03*
X086433Y032101D03*
X085433Y032101D03*
X084433Y032101D03*
X083433Y032101D03*
X104433Y031601D03*
X105433Y031601D03*
X106433Y031601D03*
X107433Y031601D03*
X108433Y031601D03*
X109433Y031601D03*
X110433Y031601D03*
X111433Y031601D03*
X111433Y028601D03*
X110433Y028601D03*
X109433Y028601D03*
X108433Y028601D03*
X107433Y028601D03*
X106433Y028601D03*
X105433Y028601D03*
X104433Y028601D03*
X123433Y029101D03*
X124433Y029101D03*
X125433Y029101D03*
X126433Y029101D03*
X127433Y029101D03*
X128433Y029101D03*
X129433Y029101D03*
X129433Y032101D03*
X128433Y032101D03*
X127433Y032101D03*
X126433Y032101D03*
X125433Y032101D03*
X124433Y032101D03*
X123433Y032101D03*
X135433Y032101D03*
X136433Y032101D03*
X137433Y032101D03*
X138433Y032101D03*
X139433Y032101D03*
X140433Y032101D03*
X141433Y032101D03*
X142433Y032101D03*
X142433Y029101D03*
X141433Y029101D03*
X140433Y029101D03*
X139433Y029101D03*
X138433Y029101D03*
X137433Y029101D03*
X136433Y029101D03*
X135433Y029101D03*
X135433Y024101D03*
X136433Y024101D03*
X137433Y024101D03*
X138433Y024101D03*
X139433Y024101D03*
X140433Y024101D03*
X141433Y024101D03*
X142433Y024101D03*
X146433Y024101D03*
X147433Y024101D03*
X148433Y024101D03*
X149433Y024101D03*
X150433Y024101D03*
X151433Y024101D03*
X152433Y024101D03*
X152433Y021101D03*
X151433Y021101D03*
X150433Y021101D03*
X149433Y021101D03*
X148433Y021101D03*
X147433Y021101D03*
X146433Y021101D03*
X142433Y021101D03*
X141433Y021101D03*
X140433Y021101D03*
X139433Y021101D03*
X138433Y021101D03*
X137433Y021101D03*
X136433Y021101D03*
X135433Y021101D03*
X132433Y021101D03*
X131433Y021101D03*
X130433Y021101D03*
X129433Y021101D03*
X128433Y021101D03*
X127433Y021101D03*
X126433Y021101D03*
X125433Y021101D03*
X124433Y021101D03*
X123433Y021101D03*
X123433Y024101D03*
X124433Y024101D03*
X125433Y024101D03*
X126433Y024101D03*
X127433Y024101D03*
X128433Y024101D03*
X129433Y024101D03*
X130433Y024101D03*
X131433Y024101D03*
X132433Y024101D03*
X132433Y016101D03*
X131433Y016101D03*
X130433Y016101D03*
X129433Y016101D03*
X128433Y016101D03*
X127433Y016101D03*
X126433Y016101D03*
X125433Y016101D03*
X124433Y016101D03*
X123433Y016101D03*
X123433Y013101D03*
X124433Y013101D03*
X125433Y013101D03*
X126433Y013101D03*
X127433Y013101D03*
X128433Y013101D03*
X129433Y013101D03*
X130433Y013101D03*
X131433Y013101D03*
X132433Y013101D03*
X135433Y013101D03*
X136433Y013101D03*
X137433Y013101D03*
X138433Y013101D03*
X139433Y013101D03*
X140433Y013101D03*
X141433Y013101D03*
X142433Y013101D03*
X146433Y013101D03*
X147433Y013101D03*
X148433Y013101D03*
X149433Y013101D03*
X150433Y013101D03*
X151433Y013101D03*
X152433Y013101D03*
X152433Y016101D03*
X151433Y016101D03*
X150433Y016101D03*
X149433Y016101D03*
X148433Y016101D03*
X147433Y016101D03*
X146433Y016101D03*
X142433Y016101D03*
X141433Y016101D03*
X140433Y016101D03*
X139433Y016101D03*
X138433Y016101D03*
X137433Y016101D03*
X136433Y016101D03*
X135433Y016101D03*
X135433Y008101D03*
X136433Y008101D03*
X137433Y008101D03*
X138433Y008101D03*
X139433Y008101D03*
X140433Y008101D03*
X141433Y008101D03*
X142433Y008101D03*
X146433Y008101D03*
X147433Y008101D03*
X148433Y008101D03*
X149433Y008101D03*
X150433Y008101D03*
X151433Y008101D03*
X152433Y008101D03*
X152433Y005101D03*
X151433Y005101D03*
X150433Y005101D03*
X149433Y005101D03*
X148433Y005101D03*
X147433Y005101D03*
X146433Y005101D03*
X142433Y005101D03*
X141433Y005101D03*
X140433Y005101D03*
X139433Y005101D03*
X138433Y005101D03*
X137433Y005101D03*
X136433Y005101D03*
X135433Y005101D03*
X132433Y005101D03*
X131433Y005101D03*
X130433Y005101D03*
X129433Y005101D03*
X128433Y005101D03*
X127433Y005101D03*
X126433Y005101D03*
X125433Y005101D03*
X124433Y005101D03*
X123433Y005101D03*
X123433Y008101D03*
X124433Y008101D03*
X125433Y008101D03*
X126433Y008101D03*
X127433Y008101D03*
X128433Y008101D03*
X129433Y008101D03*
X130433Y008101D03*
X131433Y008101D03*
X132433Y008101D03*
D11*
X134433Y007601D03*
X134433Y005601D03*
X145433Y005601D03*
X145433Y007601D03*
X145433Y013601D03*
X145433Y015601D03*
X134433Y015601D03*
X134433Y013601D03*
X122433Y013601D03*
X122433Y015601D03*
X122433Y021601D03*
X122433Y023601D03*
X117433Y028101D03*
X122433Y029601D03*
X122433Y031601D03*
X117433Y032101D03*
X103433Y031101D03*
X103433Y029101D03*
X092433Y029601D03*
X092433Y031601D03*
X082433Y031101D03*
X082433Y029101D03*
X082433Y023601D03*
X082433Y021601D03*
X092433Y021601D03*
X092433Y023601D03*
X103433Y023601D03*
X103433Y021601D03*
X103433Y015601D03*
X103433Y013601D03*
X103433Y008101D03*
X103433Y006101D03*
X092433Y005601D03*
X092433Y007601D03*
X082433Y007601D03*
X082433Y005601D03*
X072433Y005601D03*
X072433Y007601D03*
X062433Y007601D03*
X062433Y005601D03*
X051433Y005601D03*
X051433Y007601D03*
X051433Y013601D03*
X051433Y015601D03*
X062433Y015601D03*
X062433Y013601D03*
X072433Y013601D03*
X072433Y015601D03*
X082433Y015601D03*
X082433Y013601D03*
X092433Y013601D03*
X092433Y015601D03*
X072433Y021601D03*
X072433Y023601D03*
X062433Y023601D03*
X062433Y021601D03*
X051433Y021601D03*
X051433Y023601D03*
X040433Y023601D03*
X040433Y021601D03*
X040433Y015601D03*
X040433Y013601D03*
X040433Y008101D03*
X040433Y006101D03*
X006433Y010101D03*
X005433Y010101D03*
X004433Y010101D03*
X004433Y009101D03*
X002433Y009101D03*
X002433Y005101D03*
X004433Y005101D03*
X004433Y014101D03*
X005433Y014101D03*
X006433Y014101D03*
X002933Y027101D03*
X002933Y031101D03*
X062433Y031601D03*
X062433Y029601D03*
X063433Y044101D03*
X063433Y048101D03*
X072433Y048101D03*
X073433Y048101D03*
X074433Y048101D03*
X075433Y048101D03*
X076433Y048101D03*
X077433Y048101D03*
X078433Y048101D03*
X086433Y048101D03*
X087433Y048101D03*
X088433Y048101D03*
X089433Y048101D03*
X090433Y048101D03*
X091433Y048101D03*
X097433Y048101D03*
X098433Y048101D03*
X099433Y048101D03*
X100433Y048101D03*
X101433Y048101D03*
X102433Y048101D03*
X103433Y048101D03*
X104433Y048101D03*
X104433Y044101D03*
X103433Y044101D03*
X102433Y044101D03*
X101433Y044101D03*
X100433Y044101D03*
X099433Y044101D03*
X098433Y044101D03*
X097433Y044101D03*
X091433Y044101D03*
X090433Y044101D03*
X089433Y044101D03*
X088433Y044101D03*
X087433Y044101D03*
X086433Y044101D03*
X078433Y044101D03*
X077433Y044101D03*
X076433Y044101D03*
X075433Y044101D03*
X074433Y044101D03*
X073433Y044101D03*
X072433Y044101D03*
X086433Y060101D03*
X087433Y060101D03*
X088433Y060101D03*
X089433Y060101D03*
X090433Y060101D03*
X091433Y060101D03*
X091433Y064101D03*
X090433Y064101D03*
X089433Y064101D03*
X088433Y064101D03*
X087433Y064101D03*
X086433Y064101D03*
X038433Y066101D03*
X037433Y066101D03*
X036433Y066101D03*
X035433Y066101D03*
X034433Y066101D03*
X033433Y066101D03*
X032433Y066101D03*
X031433Y066101D03*
X030433Y066101D03*
X029433Y066101D03*
X029433Y065101D03*
X031433Y065101D03*
X033433Y065101D03*
X035433Y065101D03*
X037433Y065101D03*
X037433Y061101D03*
X035433Y061101D03*
X033433Y061101D03*
X031433Y061101D03*
X029433Y061101D03*
X029433Y070101D03*
X030433Y070101D03*
X031433Y070101D03*
X032433Y070101D03*
X033433Y070101D03*
X034433Y070101D03*
X035433Y070101D03*
X036433Y070101D03*
X037433Y070101D03*
X038433Y070101D03*
X134433Y031601D03*
X134433Y029601D03*
X144433Y028601D03*
X145433Y028601D03*
X146433Y028601D03*
X146433Y030601D03*
X145433Y030601D03*
X144433Y032601D03*
X145433Y023601D03*
X145433Y021601D03*
X134433Y021601D03*
X134433Y023601D03*
X122433Y007601D03*
X122433Y005601D03*
D12*
X120433Y005101D03*
X119433Y005101D03*
X118433Y005101D03*
X117433Y005101D03*
X116433Y005101D03*
X115433Y005101D03*
X114433Y005101D03*
X113433Y005101D03*
X113433Y009101D03*
X114433Y009101D03*
X115433Y009101D03*
X116433Y009101D03*
X117433Y009101D03*
X118433Y009101D03*
X119433Y009101D03*
X120433Y009101D03*
X120433Y012101D03*
X119433Y012101D03*
X118433Y012101D03*
X117433Y012101D03*
X116433Y012101D03*
X115433Y012101D03*
X114433Y012101D03*
X113433Y012101D03*
X113433Y016101D03*
X114433Y016101D03*
X115433Y016101D03*
X116433Y016101D03*
X117433Y016101D03*
X118433Y016101D03*
X119433Y016101D03*
X120433Y016101D03*
X120433Y021101D03*
X119433Y021101D03*
X118433Y021101D03*
X117433Y021101D03*
X116433Y021101D03*
X115433Y021101D03*
X114433Y021101D03*
X113433Y021101D03*
X113433Y025101D03*
X114433Y025101D03*
X115433Y025101D03*
X116433Y025101D03*
X117433Y025101D03*
X118433Y025101D03*
X119433Y025101D03*
X120433Y025101D03*
X095433Y044101D03*
X094433Y044101D03*
X083433Y044101D03*
X082433Y044101D03*
X076933Y050101D03*
X074933Y050101D03*
X071433Y051101D03*
X070433Y051101D03*
X064933Y051101D03*
X062933Y051101D03*
X057933Y050101D03*
X055933Y050101D03*
X050933Y050101D03*
X048933Y050101D03*
X046433Y051101D03*
X043933Y050101D03*
X041933Y050101D03*
X046433Y047101D03*
X020933Y052101D03*
X018933Y052101D03*
X016433Y053101D03*
X016433Y054101D03*
X013933Y053101D03*
X011933Y053101D03*
X006933Y053101D03*
X004933Y053101D03*
X016433Y056101D03*
X016433Y049101D03*
X013933Y042101D03*
X011933Y042101D03*
X006933Y042101D03*
X004933Y042101D03*
X019433Y063101D03*
X018933Y065101D03*
X020933Y065101D03*
X023433Y063101D03*
X013933Y064101D03*
X011933Y064101D03*
X006933Y065101D03*
X004933Y065101D03*
X043433Y063101D03*
X044433Y063101D03*
X044433Y064101D03*
X048433Y063101D03*
X049433Y063101D03*
X049433Y064101D03*
X053433Y063101D03*
X054433Y063101D03*
X054433Y064101D03*
X058433Y063101D03*
X059433Y063101D03*
X059433Y064101D03*
X063433Y063101D03*
X064433Y063101D03*
X064433Y064101D03*
X069933Y063101D03*
X071933Y063101D03*
X071433Y058101D03*
X070433Y058101D03*
X082433Y058101D03*
X083433Y058101D03*
X094433Y058101D03*
X095433Y058101D03*
X095433Y051101D03*
X094433Y051101D03*
X089933Y051101D03*
X087933Y051101D03*
X083433Y051101D03*
X082433Y051101D03*
X099933Y050101D03*
X101933Y050101D03*
X007433Y009101D03*
X006433Y009101D03*
X005433Y009101D03*
X003433Y009101D03*
X003433Y005101D03*
X005433Y005101D03*
X006433Y005101D03*
X007433Y005101D03*
D13*
X002433Y002101D03*
X037433Y002101D03*
X072433Y002101D03*
X108433Y002101D03*
X153433Y002101D03*
X153433Y035101D03*
X153433Y041101D03*
X108433Y041101D03*
X108433Y035101D03*
X072433Y035101D03*
X072433Y041101D03*
X037433Y041101D03*
X037433Y035101D03*
X002433Y035101D03*
X002433Y041101D03*
X002433Y074101D03*
X037433Y074101D03*
X072433Y074101D03*
X108433Y074101D03*
X153433Y074101D03*
D14*
X031433Y032101D03*
X031433Y016101D03*
D15*
X030433Y016101D03*
X029433Y016101D03*
X028433Y016101D03*
X027433Y016101D03*
X026433Y016101D03*
X025433Y016101D03*
X024433Y016101D03*
X023433Y016101D03*
X022433Y016101D03*
X021433Y016101D03*
X020433Y016101D03*
X019433Y016101D03*
X018433Y016101D03*
X017433Y016101D03*
X016433Y016101D03*
X015433Y016101D03*
X014433Y016101D03*
X013433Y016101D03*
X012433Y016101D03*
X012433Y015101D03*
X013433Y015101D03*
X014433Y015101D03*
X015433Y015101D03*
X016433Y015101D03*
X017433Y015101D03*
X018433Y015101D03*
X019433Y015101D03*
X020433Y015101D03*
X021433Y015101D03*
X022433Y015101D03*
X023433Y015101D03*
X024433Y015101D03*
X025433Y015101D03*
X026433Y015101D03*
X027433Y015101D03*
X028433Y015101D03*
X029433Y015101D03*
X030433Y015101D03*
X031433Y015101D03*
X031433Y031101D03*
X030433Y031101D03*
X029433Y031101D03*
X028433Y031101D03*
X027433Y031101D03*
X026433Y031101D03*
X025433Y031101D03*
X024433Y031101D03*
X023433Y031101D03*
X022433Y031101D03*
X021433Y031101D03*
X020433Y031101D03*
X019433Y031101D03*
X018433Y031101D03*
X017433Y031101D03*
X016433Y031101D03*
X015433Y031101D03*
X014433Y031101D03*
X013433Y031101D03*
X012433Y031101D03*
X012433Y032101D03*
X013433Y032101D03*
X014433Y032101D03*
X015433Y032101D03*
X016433Y032101D03*
X017433Y032101D03*
X018433Y032101D03*
X019433Y032101D03*
X020433Y032101D03*
X021433Y032101D03*
X022433Y032101D03*
X023433Y032101D03*
X024433Y032101D03*
X025433Y032101D03*
X026433Y032101D03*
X027433Y032101D03*
X028433Y032101D03*
X029433Y032101D03*
X030433Y032101D03*
D16*
X033733Y031391D03*
X010133Y031391D03*
X010133Y015391D03*
X033733Y015391D03*
D17*
X003433Y016101D03*
X003433Y022101D03*
X003433Y051101D03*
X003433Y062101D03*
D18*
X024433Y062101D03*
X006433Y026101D03*
X004433Y026101D03*
D19*
X004433Y032101D03*
X006433Y032101D03*
X024433Y056101D03*
D20*
X021433Y056101D03*
X021433Y057101D03*
X021433Y058101D03*
X021433Y059101D03*
X021433Y060101D03*
X018433Y060101D03*
X018433Y059101D03*
X018433Y058101D03*
X018433Y057101D03*
X018433Y056101D03*
X018433Y055101D03*
X018433Y054101D03*
X018433Y053101D03*
X021433Y053101D03*
X021433Y054101D03*
X021433Y055101D03*
X014433Y055101D03*
X014433Y056101D03*
X014433Y057101D03*
X014433Y058101D03*
X014433Y059101D03*
X014433Y060101D03*
X011433Y060101D03*
X011433Y059101D03*
X011433Y058101D03*
X011433Y057101D03*
X011433Y056101D03*
X011433Y055101D03*
X011433Y054101D03*
X014433Y054101D03*
X007433Y054101D03*
X007433Y055101D03*
X007433Y056101D03*
X007433Y057101D03*
X007433Y058101D03*
X007433Y059101D03*
X007433Y060101D03*
X004433Y060101D03*
X004433Y059101D03*
X004433Y058101D03*
X004433Y057101D03*
X004433Y056101D03*
X004433Y055101D03*
X004433Y054101D03*
X004433Y049101D03*
X004433Y048101D03*
X004433Y047101D03*
X004433Y046101D03*
X004433Y045101D03*
X004433Y044101D03*
X004433Y043101D03*
X007433Y043101D03*
X007433Y044101D03*
X007433Y045101D03*
X007433Y046101D03*
X007433Y047101D03*
X007433Y048101D03*
X007433Y049101D03*
X011433Y049101D03*
X011433Y048101D03*
X011433Y047101D03*
X011433Y046101D03*
X011433Y045101D03*
X011433Y044101D03*
X011433Y043101D03*
X014433Y043101D03*
X014433Y044101D03*
X014433Y045101D03*
X014433Y046101D03*
X014433Y047101D03*
X014433Y048101D03*
X014433Y049101D03*
X041433Y051101D03*
X041433Y052101D03*
X041433Y053101D03*
X041433Y054101D03*
X041433Y055101D03*
X041433Y056101D03*
X041433Y057101D03*
X041433Y058101D03*
X044433Y058101D03*
X044433Y057101D03*
X044433Y056101D03*
X044433Y055101D03*
X044433Y054101D03*
X044433Y053101D03*
X044433Y052101D03*
X044433Y051101D03*
X048433Y051101D03*
X048433Y052101D03*
X048433Y053101D03*
X048433Y054101D03*
X048433Y055101D03*
X048433Y056101D03*
X048433Y057101D03*
X048433Y058101D03*
X051433Y058101D03*
X051433Y057101D03*
X051433Y056101D03*
X051433Y055101D03*
X051433Y054101D03*
X051433Y053101D03*
X051433Y052101D03*
X051433Y051101D03*
X055433Y051101D03*
X055433Y052101D03*
X055433Y053101D03*
X055433Y054101D03*
X055433Y055101D03*
X055433Y056101D03*
X055433Y057101D03*
X055433Y058101D03*
X058433Y058101D03*
X058433Y057101D03*
X058433Y056101D03*
X058433Y055101D03*
X058433Y054101D03*
X058433Y053101D03*
X058433Y052101D03*
X058433Y051101D03*
X062433Y052101D03*
X062433Y053101D03*
X062433Y054101D03*
X062433Y055101D03*
X062433Y056101D03*
X062433Y057101D03*
X062433Y058101D03*
X065433Y058101D03*
X065433Y057101D03*
X065433Y056101D03*
X065433Y055101D03*
X065433Y054101D03*
X065433Y053101D03*
X065433Y052101D03*
X074433Y052101D03*
X074433Y053101D03*
X074433Y054101D03*
X074433Y055101D03*
X074433Y056101D03*
X074433Y057101D03*
X074433Y058101D03*
X077433Y058101D03*
X077433Y057101D03*
X077433Y056101D03*
X077433Y055101D03*
X077433Y054101D03*
X077433Y053101D03*
X077433Y052101D03*
X077433Y051101D03*
X074433Y051101D03*
X087433Y052101D03*
X087433Y053101D03*
X087433Y054101D03*
X087433Y055101D03*
X087433Y056101D03*
X087433Y057101D03*
X087433Y058101D03*
X090433Y058101D03*
X090433Y057101D03*
X090433Y056101D03*
X090433Y055101D03*
X090433Y054101D03*
X090433Y053101D03*
X090433Y052101D03*
X099433Y052101D03*
X099433Y053101D03*
X099433Y054101D03*
X099433Y055101D03*
X099433Y056101D03*
X099433Y057101D03*
X099433Y058101D03*
X102433Y058101D03*
X102433Y057101D03*
X102433Y056101D03*
X102433Y055101D03*
X102433Y054101D03*
X102433Y053101D03*
X102433Y052101D03*
X102433Y051101D03*
X099433Y051101D03*
X072433Y064101D03*
X072433Y065101D03*
X072433Y066101D03*
X072433Y067101D03*
X072433Y068101D03*
X072433Y069101D03*
X072433Y070101D03*
X072433Y071101D03*
X069433Y071101D03*
X069433Y070101D03*
X069433Y069101D03*
X069433Y068101D03*
X069433Y067101D03*
X069433Y066101D03*
X069433Y065101D03*
X069433Y064101D03*
X021433Y066101D03*
X021433Y067101D03*
X021433Y068101D03*
X021433Y069101D03*
X021433Y070101D03*
X021433Y071101D03*
X021433Y072101D03*
X018433Y072101D03*
X018433Y071101D03*
X018433Y070101D03*
X018433Y069101D03*
X018433Y068101D03*
X018433Y067101D03*
X018433Y066101D03*
X014433Y066101D03*
X014433Y065101D03*
X011433Y065101D03*
X011433Y066101D03*
X011433Y067101D03*
X011433Y068101D03*
X011433Y069101D03*
X011433Y070101D03*
X011433Y071101D03*
X011433Y072101D03*
X014433Y072101D03*
X014433Y071101D03*
X014433Y070101D03*
X014433Y069101D03*
X014433Y068101D03*
X014433Y067101D03*
X007433Y067101D03*
X007433Y068101D03*
X007433Y069101D03*
X007433Y070101D03*
X007433Y071101D03*
X007433Y072101D03*
X004433Y072101D03*
X004433Y071101D03*
X004433Y070101D03*
X004433Y069101D03*
X004433Y068101D03*
X004433Y067101D03*
X004433Y066101D03*
X007433Y066101D03*
D21*
X112453Y064061D03*
X114413Y064061D03*
X114413Y068141D03*
X112453Y068141D03*
X112453Y073061D03*
X114413Y073061D03*
X121453Y073061D03*
X123413Y073061D03*
X130453Y073061D03*
X132413Y073061D03*
X139453Y073061D03*
X141413Y073061D03*
X148453Y073061D03*
X150413Y073061D03*
X150413Y068141D03*
X148453Y068141D03*
X148453Y064061D03*
X150413Y064061D03*
X141413Y064061D03*
X139453Y064061D03*
X132413Y064061D03*
X130453Y064061D03*
X123413Y064061D03*
X121453Y064061D03*
X121453Y068141D03*
X123413Y068141D03*
X130453Y068141D03*
X132413Y068141D03*
X139453Y068141D03*
X141413Y068141D03*
X141413Y059141D03*
X139453Y059141D03*
X132413Y059141D03*
X130453Y059141D03*
X123413Y059141D03*
X121453Y059141D03*
X121453Y055061D03*
X123413Y055061D03*
X130453Y055061D03*
X132413Y055061D03*
X139453Y055061D03*
X141413Y055061D03*
X148453Y055061D03*
X150413Y055061D03*
X150413Y059141D03*
X148453Y059141D03*
X148453Y050141D03*
X150413Y050141D03*
X150413Y046061D03*
X148453Y046061D03*
X141413Y046061D03*
X139453Y046061D03*
X132413Y046061D03*
X130453Y046061D03*
X123413Y046061D03*
X121453Y046061D03*
X121453Y050141D03*
X123413Y050141D03*
X130453Y050141D03*
X132413Y050141D03*
X139453Y050141D03*
X141413Y050141D03*
X141413Y041141D03*
X139453Y041141D03*
X132413Y041141D03*
X130453Y041141D03*
X123413Y041141D03*
X121453Y041141D03*
X114413Y041141D03*
X112453Y041141D03*
X112453Y046061D03*
X114413Y046061D03*
X114413Y050141D03*
X112453Y050141D03*
X112453Y055061D03*
X114413Y055061D03*
X114413Y059141D03*
X112453Y059141D03*
X148453Y041141D03*
X150413Y041141D03*
D22*
X151203Y043601D03*
X147663Y043601D03*
X142203Y043601D03*
X138663Y043601D03*
X133203Y043601D03*
X129663Y043601D03*
X124203Y043601D03*
X120663Y043601D03*
X115203Y043601D03*
X111663Y043601D03*
X111663Y052601D03*
X115203Y052601D03*
X120663Y052601D03*
X124203Y052601D03*
X129663Y052601D03*
X133203Y052601D03*
X138663Y052601D03*
X142203Y052601D03*
X147663Y052601D03*
X151203Y052601D03*
X151203Y061601D03*
X147663Y061601D03*
X142203Y061601D03*
X138663Y061601D03*
X133203Y061601D03*
X129663Y061601D03*
X124203Y061601D03*
X120663Y061601D03*
X115203Y061601D03*
X111663Y061601D03*
X111663Y070601D03*
X115203Y070601D03*
X120663Y070601D03*
X124203Y070601D03*
X129663Y070601D03*
X133203Y070601D03*
X138663Y070601D03*
X142203Y070601D03*
X147663Y070601D03*
X151203Y070601D03*
D23*
X037433Y059101D03*
X033433Y059101D03*
D24*
X033433Y050101D03*
X037433Y050101D03*
D25*
X037933Y051601D03*
X042433Y052851D03*
X045683Y054101D03*
X046433Y054101D03*
X046933Y056101D03*
X047433Y057101D03*
X045183Y056601D03*
X043683Y058601D03*
X044433Y060101D03*
X046183Y059601D03*
X047683Y060601D03*
X049183Y059101D03*
X050433Y059101D03*
X052683Y058101D03*
X049933Y057101D03*
X053433Y056101D03*
X056683Y055851D03*
X056933Y056351D03*
X059683Y053601D03*
X060183Y054101D03*
X064183Y055101D03*
X068183Y055601D03*
X066683Y053101D03*
X069933Y051601D03*
X076183Y051101D03*
X075933Y053601D03*
X075933Y054101D03*
X076433Y055101D03*
X075933Y056351D03*
X079933Y053101D03*
X082933Y054601D03*
X086183Y049601D03*
X080433Y048851D03*
X079433Y045851D03*
X080433Y045101D03*
X079433Y044851D03*
X070633Y041501D03*
X066433Y041351D03*
X064433Y043601D03*
X066933Y046101D03*
X067433Y046601D03*
X067933Y047101D03*
X058683Y043351D03*
X053433Y043351D03*
X055433Y046101D03*
X055933Y049101D03*
X056433Y051101D03*
X050433Y051101D03*
X047433Y049101D03*
X045683Y050101D03*
X042933Y050601D03*
X039933Y048601D03*
X041433Y047601D03*
X040933Y046601D03*
X043433Y046851D03*
X043433Y047601D03*
X045433Y046351D03*
X045933Y045851D03*
X048433Y046351D03*
X039433Y044601D03*
X038433Y046101D03*
X039433Y041101D03*
X040833Y039901D03*
X048233Y035901D03*
X055633Y033701D03*
X056233Y033701D03*
X057433Y034901D03*
X058433Y034301D03*
X059033Y034501D03*
X058833Y035301D03*
X057833Y035901D03*
X057233Y035901D03*
X061633Y033301D03*
X065433Y033701D03*
X066433Y034101D03*
X066433Y035301D03*
X067033Y035501D03*
X068633Y035301D03*
X069033Y035701D03*
X069833Y036101D03*
X070633Y035901D03*
X071033Y033901D03*
X069833Y033501D03*
X070633Y032501D03*
X070433Y030101D03*
X071033Y028901D03*
X069433Y027901D03*
X068833Y026501D03*
X067833Y025701D03*
X067433Y026101D03*
X066833Y026101D03*
X066233Y026101D03*
X065233Y026101D03*
X066433Y027901D03*
X062433Y028701D03*
X061633Y028701D03*
X058833Y026901D03*
X059633Y026501D03*
X058833Y025701D03*
X058233Y025701D03*
X060233Y025301D03*
X060833Y024101D03*
X061233Y023301D03*
X060833Y022501D03*
X061633Y022501D03*
X059633Y023301D03*
X059433Y022501D03*
X060033Y020701D03*
X061233Y019701D03*
X062633Y019901D03*
X062633Y019101D03*
X059033Y019101D03*
X058633Y019501D03*
X053433Y017501D03*
X049433Y015301D03*
X044833Y012301D03*
X044233Y011501D03*
X043833Y010501D03*
X049433Y006901D03*
X052433Y008901D03*
X054433Y010101D03*
X056233Y009301D03*
X058233Y010501D03*
X058233Y011901D03*
X057033Y011701D03*
X056433Y011701D03*
X053433Y011901D03*
X059633Y012701D03*
X061633Y014501D03*
X063633Y014701D03*
X064433Y014501D03*
X065233Y015301D03*
X062033Y016501D03*
X059033Y015501D03*
X065633Y011901D03*
X066033Y012301D03*
X067633Y011301D03*
X067233Y010101D03*
X065433Y009301D03*
X065233Y010101D03*
X064433Y010501D03*
X063233Y009501D03*
X063233Y008901D03*
X063033Y006901D03*
X065233Y006901D03*
X067033Y006501D03*
X068033Y006901D03*
X069233Y006901D03*
X070033Y008701D03*
X071433Y009901D03*
X070433Y010101D03*
X069833Y010501D03*
X073033Y009301D03*
X073833Y009301D03*
X074833Y009301D03*
X075833Y008901D03*
X074433Y006901D03*
X073033Y006901D03*
X072433Y004701D03*
X070233Y005301D03*
X071233Y003501D03*
X067233Y001701D03*
X065833Y002501D03*
X063833Y003301D03*
X059833Y005101D03*
X058033Y006501D03*
X056233Y006501D03*
X054433Y007301D03*
X054233Y006501D03*
X054233Y003301D03*
X055033Y002901D03*
X043633Y004101D03*
X039033Y006701D03*
X033033Y009701D03*
X033633Y013501D03*
X034633Y013901D03*
X032033Y015501D03*
X035033Y017901D03*
X035633Y018101D03*
X036633Y018501D03*
X037433Y019501D03*
X038233Y018701D03*
X036633Y016501D03*
X032433Y018901D03*
X031633Y021301D03*
X030633Y021701D03*
X030033Y025501D03*
X029633Y027101D03*
X031433Y027101D03*
X033833Y028901D03*
X035233Y029701D03*
X037033Y027901D03*
X039633Y031101D03*
X042633Y028301D03*
X045233Y026701D03*
X046433Y024901D03*
X047233Y022501D03*
X052433Y024901D03*
X053433Y026301D03*
X054633Y026301D03*
X055033Y026701D03*
X055633Y026901D03*
X056433Y027901D03*
X057233Y027101D03*
X056033Y025701D03*
X057033Y022901D03*
X055233Y022501D03*
X053433Y022501D03*
X052833Y027901D03*
X050633Y028301D03*
X054833Y028301D03*
X067433Y023101D03*
X073433Y027101D03*
X076433Y027101D03*
X077233Y026501D03*
X076833Y026101D03*
X078833Y026901D03*
X079233Y026101D03*
X085033Y023101D03*
X086233Y025701D03*
X090233Y022701D03*
X094033Y024901D03*
X094033Y025501D03*
X093233Y026301D03*
X096233Y026501D03*
X096833Y026501D03*
X102033Y028701D03*
X102833Y031101D03*
X101633Y032501D03*
X101033Y033501D03*
X100033Y033501D03*
X099433Y033501D03*
X097233Y033901D03*
X095833Y034701D03*
X089433Y033301D03*
X086433Y033301D03*
X084833Y032901D03*
X082633Y033701D03*
X079633Y030701D03*
X077633Y032701D03*
X089433Y030701D03*
X097233Y030701D03*
X105233Y025301D03*
X104433Y024901D03*
X107833Y025501D03*
X108233Y026501D03*
X109833Y027301D03*
X110233Y026901D03*
X112233Y028301D03*
X111033Y030901D03*
X117433Y029501D03*
X121633Y026101D03*
X118433Y022901D03*
X112233Y020701D03*
X113833Y019701D03*
X114033Y018701D03*
X114633Y017701D03*
X113233Y017301D03*
X110233Y019501D03*
X108433Y019701D03*
X107633Y018501D03*
X106833Y018301D03*
X106233Y018301D03*
X106233Y018901D03*
X106833Y019101D03*
X105433Y018701D03*
X108833Y018301D03*
X108833Y017701D03*
X108233Y014501D03*
X110033Y014101D03*
X114433Y013301D03*
X108833Y011101D03*
X108033Y011301D03*
X110233Y009701D03*
X104433Y007701D03*
X107233Y006701D03*
X108433Y004301D03*
X106433Y003701D03*
X106033Y003301D03*
X097833Y006701D03*
X098833Y009701D03*
X098233Y010101D03*
X099833Y010501D03*
X100033Y011301D03*
X101833Y011101D03*
X101633Y012301D03*
X098633Y012301D03*
X097833Y011701D03*
X097433Y014701D03*
X091033Y016701D03*
X087433Y017501D03*
X086833Y019701D03*
X085433Y019101D03*
X082233Y020701D03*
X081233Y020701D03*
X078633Y019901D03*
X078233Y022701D03*
X074233Y019501D03*
X070833Y017501D03*
X068433Y018701D03*
X073433Y014501D03*
X075233Y015301D03*
X080033Y013301D03*
X080433Y012101D03*
X082233Y010901D03*
X084233Y011701D03*
X086833Y011701D03*
X087633Y011101D03*
X089233Y011901D03*
X084033Y009701D03*
X082033Y008901D03*
X078433Y009701D03*
X075833Y010901D03*
X072033Y012301D03*
X081233Y014501D03*
X082433Y014501D03*
X094233Y019901D03*
X096433Y019901D03*
X097833Y019301D03*
X097433Y018901D03*
X101833Y018901D03*
X105833Y022501D03*
X108233Y022901D03*
X098833Y023301D03*
X098433Y022901D03*
X096433Y022701D03*
X117033Y017301D03*
X126033Y022501D03*
X131033Y022501D03*
X136433Y023301D03*
X140233Y025301D03*
X135833Y027701D03*
X131033Y025701D03*
X128233Y025501D03*
X126033Y030301D03*
X146033Y025301D03*
X140233Y017301D03*
X136233Y014501D03*
X131033Y014901D03*
X127633Y014501D03*
X127433Y011901D03*
X124433Y010501D03*
X128833Y008901D03*
X129233Y006501D03*
X129233Y003901D03*
X137833Y011901D03*
X089033Y006301D03*
X087033Y007101D03*
X086433Y007101D03*
X086233Y006301D03*
X077233Y005901D03*
X076233Y003301D03*
X043033Y019501D03*
X041033Y023301D03*
X027633Y025701D03*
X027233Y025301D03*
X024033Y025901D03*
X023433Y025701D03*
X020633Y026101D03*
X022233Y027501D03*
X023633Y028301D03*
X023633Y028901D03*
X021633Y029701D03*
X018433Y029301D03*
X013033Y030501D03*
X011233Y026301D03*
X007033Y025101D03*
X014233Y018501D03*
X015433Y011501D03*
X018033Y010101D03*
X016433Y007901D03*
X016433Y007101D03*
X017633Y005301D03*
X018433Y003901D03*
X022833Y006501D03*
X023433Y010901D03*
X022033Y011501D03*
X028633Y013101D03*
X040233Y035301D03*
X062183Y040351D03*
X064833Y035501D03*
X088933Y043601D03*
X095433Y047601D03*
X096433Y046601D03*
X095933Y049601D03*
X096933Y050601D03*
X097433Y053101D03*
X094433Y055101D03*
X098183Y056101D03*
X100433Y059101D03*
X101433Y060601D03*
X102933Y060101D03*
X104683Y057101D03*
X096933Y060601D03*
X088933Y061601D03*
X087433Y065851D03*
X082433Y065851D03*
X080433Y065101D03*
X080683Y064601D03*
X078683Y065351D03*
X079683Y063101D03*
X080683Y061101D03*
X076683Y062601D03*
X073683Y064101D03*
X070433Y062601D03*
X067183Y065101D03*
X064433Y065601D03*
X062933Y065351D03*
X062433Y065101D03*
X062433Y063101D03*
X063683Y062101D03*
X061183Y060601D03*
X059183Y059601D03*
X058433Y061601D03*
X058933Y062101D03*
X054433Y061101D03*
X046683Y064601D03*
X044683Y061101D03*
X037433Y063601D03*
X036433Y062101D03*
X040433Y065101D03*
X039933Y066101D03*
X035933Y065601D03*
X036433Y068851D03*
X040183Y069851D03*
X048933Y068351D03*
X050683Y068351D03*
X053933Y068851D03*
X054433Y068351D03*
X059433Y068351D03*
X061933Y069351D03*
X063433Y070351D03*
X064933Y069851D03*
X063933Y068851D03*
X064433Y068351D03*
X066183Y068601D03*
X070933Y071601D03*
X077433Y070101D03*
X082433Y069601D03*
X084683Y071851D03*
X088433Y071851D03*
X093433Y071851D03*
X066683Y060601D03*
X066683Y059101D03*
X062433Y059101D03*
X061183Y058101D03*
X042433Y057101D03*
X029933Y065601D03*
X020183Y065101D03*
X006433Y055351D03*
X009183Y054101D03*
X021683Y047101D03*
X051433Y072101D03*
X056683Y074351D03*
X060433Y074351D03*
X103683Y052101D03*
X103683Y051351D03*
X107183Y046101D03*
X116683Y052351D03*
X116683Y054101D03*
X129183Y047601D03*
X091933Y050601D03*
M02*
