G75*
G70*
%OFA0B0*%
%FSLAX24Y24*%
%IPPOS*%
%LPD*%
%AMOC8*
5,1,8,0,0,1.08239X$1,22.5*
%
%ADD10OC8,0.0720*%
%ADD11R,0.5285X0.0960*%
%ADD12C,0.1500*%
%ADD13C,0.1323*%
D10*
X036681Y023526D03*
X035681Y023526D03*
X035681Y022526D03*
X036681Y022526D03*
X036681Y021526D03*
X035681Y021526D03*
X035681Y020526D03*
X036681Y020526D03*
X036681Y019526D03*
X035681Y019526D03*
X035681Y018526D03*
X036681Y018526D03*
X036681Y017526D03*
X035681Y017526D03*
X035681Y016526D03*
X036681Y016526D03*
X036681Y015526D03*
X035681Y015526D03*
X035681Y014526D03*
X036681Y014526D03*
X036681Y013526D03*
X035681Y013526D03*
X035681Y012526D03*
X036681Y012526D03*
X036681Y011526D03*
X035681Y011526D03*
X035681Y010526D03*
X036681Y010526D03*
X036681Y009526D03*
X035681Y009526D03*
X035681Y008526D03*
X036681Y008526D03*
X036681Y007526D03*
X035681Y007526D03*
X035681Y006526D03*
X036681Y006526D03*
X036681Y005526D03*
X035681Y005526D03*
X035681Y004526D03*
X036681Y004526D03*
X029181Y006026D03*
X028181Y006026D03*
X028181Y007026D03*
X029181Y007026D03*
X029181Y008026D03*
X028181Y008026D03*
X028181Y009026D03*
X029181Y009026D03*
X029181Y010026D03*
X028181Y010026D03*
X028181Y011026D03*
X029181Y011026D03*
X029181Y012026D03*
X028181Y012026D03*
X028181Y013026D03*
X029181Y013026D03*
X029181Y014026D03*
X028181Y014026D03*
X028181Y015026D03*
X029181Y015026D03*
X029181Y016026D03*
X028181Y016026D03*
X028181Y017026D03*
X029181Y017026D03*
X029181Y018026D03*
X028181Y018026D03*
X028181Y019026D03*
X029181Y019026D03*
X029181Y020026D03*
X028181Y020026D03*
X028181Y021026D03*
X029181Y021026D03*
X029181Y022026D03*
X028181Y022026D03*
X015681Y021526D03*
X014681Y021526D03*
X014681Y020526D03*
X015681Y020526D03*
X015681Y019526D03*
X014681Y019526D03*
X014681Y018526D03*
X015681Y018526D03*
X015681Y017526D03*
X014681Y017526D03*
X014681Y016526D03*
X015681Y016526D03*
X015681Y015526D03*
X014681Y015526D03*
X014681Y014526D03*
X015681Y014526D03*
X015681Y013526D03*
X014681Y013526D03*
X014681Y012526D03*
X015681Y012526D03*
X015681Y011526D03*
X014681Y011526D03*
X014681Y010526D03*
X015681Y010526D03*
X015681Y009526D03*
X014681Y009526D03*
X014681Y008526D03*
X015681Y008526D03*
X015681Y007526D03*
X014681Y007526D03*
X014681Y006526D03*
X015681Y006526D03*
X015681Y005526D03*
X014681Y005526D03*
D11*
X046673Y006156D03*
X046673Y007406D03*
X046673Y008656D03*
X046673Y009896D03*
X046673Y011156D03*
X046673Y012396D03*
X046673Y013656D03*
X046673Y014906D03*
X046673Y016156D03*
X046673Y017396D03*
X046673Y018636D03*
X046673Y019896D03*
X046676Y021146D03*
X046675Y022396D03*
X046674Y023641D03*
X046676Y024870D03*
X046673Y004886D03*
X046673Y003681D03*
D12*
X002181Y004276D03*
X002181Y024276D03*
D13*
X020681Y024276D03*
X020681Y004276D03*
M02*
