G75*
G70*
%OFA0B0*%
%FSLAX24Y24*%
%IPPOS*%
%LPD*%
%AMOC8*
5,1,8,0,0,1.08239X$1,22.5*
%
%ADD10C,0.0150*%
%ADD11OC8,0.0600*%
%ADD12R,0.5125X0.0800*%
%ADD13C,0.0160*%
D10*
X034682Y018526D02*
X034432Y018526D01*
X016432Y018526D01*
X014932Y020026D01*
X014432Y020026D01*
X013932Y020526D01*
X013682Y020526D01*
X014432Y021026D02*
X014932Y021026D01*
X015932Y020026D01*
X020932Y020026D01*
X021182Y020026D01*
X022182Y020026D02*
X022182Y019776D01*
X022182Y019276D01*
X022182Y019026D01*
X016432Y016526D02*
X014932Y018026D01*
X014432Y018026D01*
X013932Y018526D01*
X013682Y018526D01*
X014682Y018526D02*
X014682Y018776D01*
X014682Y019026D01*
X006182Y019026D01*
X003681Y018636D01*
X003691Y019896D02*
X006182Y019526D01*
X013432Y019526D01*
X013682Y019526D01*
X014682Y019526D02*
X014682Y019276D01*
X014682Y019026D01*
X014682Y017526D02*
X014682Y017276D01*
X014682Y016776D01*
X014682Y016526D01*
X014932Y016026D02*
X014432Y016026D01*
X013932Y016526D01*
X013682Y016526D01*
X013932Y016026D02*
X014432Y015526D01*
X014682Y015526D01*
X014682Y015276D01*
X014682Y014776D01*
X014682Y014526D01*
X014932Y014026D02*
X014432Y014026D01*
X013932Y014526D01*
X013682Y014526D01*
X013932Y014026D02*
X014432Y013526D01*
X014682Y013526D01*
X014682Y013276D01*
X014682Y013026D01*
X008682Y013026D01*
X007182Y011526D01*
X006182Y011526D01*
X003691Y011156D01*
X003691Y012396D02*
X006182Y012526D01*
X007182Y013526D01*
X013432Y013526D01*
X013682Y013526D01*
X013932Y014026D02*
X006182Y014026D01*
X003691Y013656D01*
X003691Y014906D02*
X006182Y015276D01*
X006432Y015526D01*
X013432Y015526D01*
X013682Y015526D01*
X013932Y016026D02*
X006182Y016026D01*
X003691Y016156D01*
X003681Y017396D02*
X006182Y017526D01*
X013432Y017526D01*
X013682Y017526D01*
X014932Y016026D02*
X016432Y014526D01*
X034432Y014526D01*
X034682Y014526D01*
X034682Y016526D02*
X034432Y016526D01*
X016432Y016526D01*
X014932Y014026D02*
X016432Y012526D01*
X034432Y012526D01*
X034682Y012526D01*
X034682Y010526D02*
X034432Y010526D01*
X016432Y010526D01*
X014932Y012026D01*
X014432Y012026D01*
X013932Y012526D01*
X013682Y012526D01*
X014682Y012526D02*
X014682Y012776D01*
X014682Y013026D01*
X014682Y011526D02*
X014682Y011276D01*
X014682Y010776D01*
X014682Y010526D01*
X014682Y010276D01*
X014682Y010026D01*
X020932Y010026D01*
X021182Y010026D01*
X021182Y009026D02*
X020932Y009026D01*
X014432Y009026D01*
X013932Y009526D01*
X013682Y009526D01*
X013432Y009526D01*
X008182Y009526D01*
X006182Y007526D01*
X003691Y007406D01*
X003691Y006156D02*
X006182Y006276D01*
X007432Y007526D01*
X013432Y007526D01*
X013682Y007526D01*
X013932Y007526D01*
X014432Y008026D01*
X020932Y008026D01*
X021182Y008026D01*
X022182Y008026D02*
X022182Y007776D01*
X022182Y007526D01*
X014932Y007526D01*
X014682Y007526D01*
X014932Y007026D02*
X014432Y007026D01*
X013932Y006526D01*
X013682Y006526D01*
X014682Y006526D02*
X014682Y006276D01*
X014682Y006026D01*
X008932Y006026D01*
X008182Y005276D01*
X006182Y005276D01*
X003691Y004886D01*
X003691Y003681D02*
X006182Y004026D01*
X007432Y004026D01*
X008932Y005526D01*
X013432Y005526D01*
X013682Y005526D01*
X014682Y005526D02*
X014682Y005776D01*
X014682Y006026D01*
X015432Y006526D02*
X014932Y007026D01*
X015432Y006526D02*
X034432Y006526D01*
X034682Y006526D01*
X027650Y003168D02*
X027374Y003168D01*
X027283Y003076D01*
X027374Y002984D01*
X027558Y002984D01*
X027650Y002893D01*
X027558Y002801D01*
X027283Y002801D01*
X027005Y002801D02*
X027005Y003168D01*
X026638Y003168D02*
X026638Y002893D01*
X026730Y002801D01*
X027005Y002801D01*
X026361Y002893D02*
X026361Y003076D01*
X026269Y003168D01*
X025994Y003168D01*
X025994Y003351D02*
X025994Y002801D01*
X026269Y002801D01*
X026361Y002893D01*
X025640Y002801D02*
X025457Y002801D01*
X025548Y002801D02*
X025548Y003168D01*
X025457Y003168D01*
X025548Y003351D02*
X025548Y003443D01*
X025179Y003168D02*
X024904Y003168D01*
X024812Y003076D01*
X024904Y002984D01*
X025087Y002984D01*
X025179Y002893D01*
X025087Y002801D01*
X024812Y002801D01*
X024534Y002893D02*
X024534Y003076D01*
X024443Y003168D01*
X024259Y003168D01*
X024167Y003076D01*
X024167Y002893D01*
X024259Y002801D01*
X024443Y002801D01*
X024534Y002893D01*
X023890Y003076D02*
X023890Y003260D01*
X023798Y003351D01*
X023523Y003351D01*
X023523Y002801D01*
X023523Y002984D02*
X023798Y002984D01*
X023890Y003076D01*
X023245Y003351D02*
X022878Y002801D01*
X022601Y002893D02*
X022509Y002984D01*
X022326Y002984D01*
X022234Y003076D01*
X022326Y003168D01*
X022601Y003168D01*
X022601Y002893D02*
X022509Y002801D01*
X022234Y002801D01*
X021956Y002801D02*
X021956Y003168D01*
X021589Y003168D02*
X021589Y002893D01*
X021681Y002801D01*
X021956Y002801D01*
X021312Y002893D02*
X021312Y003076D01*
X021220Y003168D01*
X020945Y003168D01*
X020945Y003351D02*
X020945Y002801D01*
X021220Y002801D01*
X021312Y002893D01*
X020591Y002801D02*
X020408Y002801D01*
X020499Y002801D02*
X020499Y003168D01*
X020408Y003168D01*
X020499Y003351D02*
X020499Y003443D01*
X020130Y003168D02*
X019855Y003168D01*
X019763Y003076D01*
X019763Y002893D01*
X019855Y002801D01*
X020130Y002801D01*
X020130Y002709D02*
X020130Y003168D01*
X019486Y003076D02*
X019486Y002984D01*
X019119Y002984D01*
X019119Y002893D02*
X019119Y003076D01*
X019210Y003168D01*
X019394Y003168D01*
X019486Y003076D01*
X019394Y002801D02*
X019210Y002801D01*
X019119Y002893D01*
X018841Y002801D02*
X018841Y003351D01*
X018474Y003351D02*
X018841Y002801D01*
X018474Y002801D02*
X018474Y003351D01*
X018197Y003351D02*
X017830Y002801D01*
X017460Y002893D02*
X017460Y003351D01*
X017369Y003351D02*
X017552Y003351D01*
X017460Y002893D02*
X017369Y002801D01*
X017277Y002801D01*
X017185Y002893D01*
X016908Y002893D02*
X016816Y002801D01*
X016632Y002801D01*
X016541Y002893D01*
X016541Y002984D01*
X016632Y003076D01*
X016816Y003076D01*
X016908Y002984D01*
X016908Y002893D01*
X016816Y003076D02*
X016908Y003168D01*
X016908Y003260D01*
X016816Y003351D01*
X016632Y003351D01*
X016541Y003260D01*
X016541Y003168D01*
X016632Y003076D01*
X016263Y002893D02*
X016171Y002801D01*
X015988Y002801D01*
X015896Y002893D01*
X016263Y003260D01*
X016263Y002893D01*
X016263Y003260D02*
X016171Y003351D01*
X015988Y003351D01*
X015896Y003260D01*
X015896Y002893D01*
X015619Y002893D02*
X015527Y002801D01*
X015343Y002801D01*
X015252Y002893D01*
X015252Y003260D01*
X015343Y003351D01*
X015527Y003351D01*
X015619Y003260D01*
X014974Y003260D02*
X014974Y003168D01*
X014882Y003076D01*
X014607Y003076D01*
X014607Y002801D02*
X014882Y002801D01*
X014974Y002893D01*
X014974Y002984D01*
X014882Y003076D01*
X014974Y003260D02*
X014882Y003351D01*
X014607Y003351D01*
X014607Y002801D01*
X019947Y002617D02*
X020038Y002617D01*
X020130Y002709D01*
X022182Y007026D02*
X022182Y007276D01*
X022182Y007526D01*
X022182Y008026D02*
X022182Y008276D01*
X022182Y008776D01*
X022182Y009026D01*
X014682Y009526D02*
X014682Y009776D01*
X014682Y010026D01*
X008182Y010026D01*
X007182Y009026D01*
X006182Y009026D01*
X003691Y008656D01*
X003691Y009896D02*
X006182Y010026D01*
X007682Y011526D01*
X013432Y011526D01*
X013682Y011526D01*
X014432Y021026D02*
X013932Y021526D01*
X013682Y021526D01*
X013432Y021526D01*
X006182Y021526D01*
X003691Y021146D01*
X003681Y022396D02*
X006182Y022026D01*
X014682Y022026D01*
X014682Y022276D01*
X014682Y022526D01*
X014682Y022026D02*
X014682Y021776D01*
X014682Y021526D01*
D11*
X014682Y021526D03*
X013682Y021526D03*
X013682Y022526D03*
X014682Y022526D03*
X014682Y023526D03*
X013682Y023526D03*
X013682Y020526D03*
X014682Y020526D03*
X014682Y019526D03*
X013682Y019526D03*
X013682Y018526D03*
X014682Y018526D03*
X014682Y017526D03*
X013682Y017526D03*
X013682Y016526D03*
X014682Y016526D03*
X014682Y015526D03*
X013682Y015526D03*
X013682Y014526D03*
X014682Y014526D03*
X014682Y013526D03*
X013682Y013526D03*
X013682Y012526D03*
X014682Y012526D03*
X014682Y011526D03*
X013682Y011526D03*
X013682Y010526D03*
X014682Y010526D03*
X014682Y009526D03*
X013682Y009526D03*
X013682Y008526D03*
X014682Y008526D03*
X014682Y007526D03*
X013682Y007526D03*
X013682Y006526D03*
X014682Y006526D03*
X014682Y005526D03*
X013682Y005526D03*
X013682Y004526D03*
X014682Y004526D03*
X021182Y006026D03*
X022182Y006026D03*
X022182Y007026D03*
X021182Y007026D03*
X021182Y008026D03*
X022182Y008026D03*
X022182Y009026D03*
X021182Y009026D03*
X021182Y010026D03*
X022182Y010026D03*
X022182Y011026D03*
X021182Y011026D03*
X021182Y012026D03*
X022182Y012026D03*
X022182Y013026D03*
X021182Y013026D03*
X021182Y014026D03*
X022182Y014026D03*
X022182Y015026D03*
X021182Y015026D03*
X021182Y016026D03*
X022182Y016026D03*
X022182Y017026D03*
X021182Y017026D03*
X021182Y018026D03*
X022182Y018026D03*
X022182Y019026D03*
X021182Y019026D03*
X021182Y020026D03*
X022182Y020026D03*
X022182Y021026D03*
X021182Y021026D03*
X021182Y022026D03*
X022182Y022026D03*
X034682Y021526D03*
X035682Y021526D03*
X035682Y020526D03*
X034682Y020526D03*
X034682Y019526D03*
X035682Y019526D03*
X035682Y018526D03*
X034682Y018526D03*
X034682Y017526D03*
X035682Y017526D03*
X035682Y016526D03*
X034682Y016526D03*
X034682Y015526D03*
X035682Y015526D03*
X035682Y014526D03*
X034682Y014526D03*
X034682Y013526D03*
X035682Y013526D03*
X035682Y012526D03*
X034682Y012526D03*
X034682Y011526D03*
X035682Y011526D03*
X035682Y010526D03*
X034682Y010526D03*
X034682Y009526D03*
X035682Y009526D03*
X035682Y008526D03*
X034682Y008526D03*
X034682Y007526D03*
X035682Y007526D03*
X035682Y006526D03*
X034682Y006526D03*
X034682Y005526D03*
X035682Y005526D03*
D12*
X003691Y003681D03*
X003691Y004886D03*
X003691Y006156D03*
X003691Y007406D03*
X003691Y008656D03*
X003691Y009896D03*
X003691Y011156D03*
X003691Y012396D03*
X003691Y013656D03*
X003691Y014906D03*
X003691Y016156D03*
X003681Y017396D03*
X003681Y018636D03*
X003691Y019896D03*
X003691Y021146D03*
X003681Y022396D03*
X003691Y023641D03*
X003679Y024870D03*
D13*
X006182Y024290D02*
X006182Y024221D01*
X006328Y024221D01*
X006433Y024115D01*
X006433Y023166D01*
X006328Y023061D01*
X006182Y023061D01*
X006182Y022976D01*
X006318Y022976D01*
X006423Y022870D01*
X006423Y022476D01*
X006182Y022476D01*
X006182Y022316D01*
X006423Y022316D01*
X006423Y021921D01*
X006333Y021831D01*
X013306Y021831D01*
X013308Y021831D01*
X013483Y022006D01*
X013881Y022006D01*
X014056Y021831D01*
X014058Y021831D01*
X014202Y021687D01*
X014202Y021725D01*
X014483Y022006D01*
X014662Y022006D01*
X014662Y021546D01*
X014343Y021546D01*
X014383Y021506D01*
X014662Y021506D01*
X014662Y021331D01*
X014702Y021331D01*
X014702Y021506D01*
X015162Y021506D01*
X015162Y021327D01*
X015112Y021277D01*
X015237Y021152D01*
X016058Y020331D01*
X020806Y020331D01*
X020808Y020331D01*
X020983Y020506D01*
X021381Y020506D01*
X021662Y020225D01*
X021662Y019827D01*
X021381Y019546D01*
X020983Y019546D01*
X020808Y019721D01*
X020806Y019721D01*
X016058Y019721D01*
X015806Y019721D01*
X015162Y020365D01*
X015162Y020327D01*
X015112Y020277D01*
X015237Y020152D01*
X016558Y018831D01*
X020702Y018831D01*
X020702Y019225D01*
X020983Y019506D01*
X021381Y019506D01*
X021662Y019225D01*
X021662Y018831D01*
X021702Y018831D01*
X021702Y019006D01*
X022162Y019006D01*
X022162Y018831D01*
X022202Y018831D01*
X022202Y019006D01*
X022662Y019006D01*
X022662Y018831D01*
X034306Y018831D01*
X034308Y018831D01*
X034483Y019006D01*
X034881Y019006D01*
X035162Y018725D01*
X035162Y018327D01*
X034881Y018046D01*
X034483Y018046D01*
X034308Y018221D01*
X034306Y018221D01*
X022662Y018221D01*
X022662Y018046D01*
X022202Y018046D01*
X022202Y018221D01*
X022162Y018221D01*
X022162Y018046D01*
X021702Y018046D01*
X021702Y018221D01*
X021662Y018221D01*
X021662Y018046D01*
X021202Y018046D01*
X021202Y018221D01*
X021162Y018221D01*
X021162Y018046D01*
X020702Y018046D01*
X020702Y018221D01*
X016558Y018221D01*
X016306Y018221D01*
X015162Y019365D01*
X015162Y019327D01*
X014881Y019046D01*
X014702Y019046D01*
X014702Y019506D01*
X015021Y019506D01*
X014981Y019546D01*
X014702Y019546D01*
X014702Y019721D01*
X014662Y019721D01*
X014662Y019546D01*
X014202Y019546D01*
X014202Y019725D01*
X014252Y019775D01*
X013931Y020096D01*
X013881Y020046D01*
X013483Y020046D01*
X013202Y020327D01*
X013202Y020725D01*
X013483Y021006D01*
X013881Y021006D01*
X014056Y020831D01*
X014058Y020831D01*
X014202Y020687D01*
X014202Y020725D01*
X014252Y020775D01*
X013931Y021096D01*
X013881Y021046D01*
X013483Y021046D01*
X013308Y021221D01*
X013306Y021221D01*
X006433Y021221D01*
X006433Y020671D01*
X006328Y020566D01*
X006182Y020566D01*
X006182Y020476D01*
X006328Y020476D01*
X006433Y020370D01*
X006433Y019831D01*
X013306Y019831D01*
X013308Y019831D01*
X013483Y020006D01*
X013881Y020006D01*
X014162Y019725D01*
X014162Y019327D01*
X013881Y019046D01*
X013483Y019046D01*
X013308Y019221D01*
X013306Y019221D01*
X006308Y019221D01*
X006182Y019221D01*
X006182Y019216D01*
X006318Y019216D01*
X006423Y019110D01*
X006423Y018716D01*
X006182Y018716D01*
X006182Y018556D01*
X006423Y018556D01*
X006423Y018161D01*
X006318Y018056D01*
X006182Y018056D01*
X006182Y017976D01*
X006318Y017976D01*
X006423Y017870D01*
X006423Y017831D01*
X013306Y017831D01*
X013308Y017831D01*
X013483Y018006D01*
X013881Y018006D01*
X014162Y017725D01*
X014162Y017327D01*
X013881Y017046D01*
X013483Y017046D01*
X013308Y017221D01*
X013306Y017221D01*
X006423Y017221D01*
X006423Y016921D01*
X006318Y016816D01*
X006182Y016816D01*
X006182Y016736D01*
X006328Y016736D01*
X006433Y016630D01*
X006433Y016236D01*
X006182Y016236D01*
X006182Y016076D01*
X006433Y016076D01*
X006433Y015831D01*
X006558Y015831D01*
X013306Y015831D01*
X013308Y015831D01*
X013483Y016006D01*
X013881Y016006D01*
X014162Y015725D01*
X014162Y015327D01*
X013881Y015046D01*
X013483Y015046D01*
X013308Y015221D01*
X013306Y015221D01*
X006558Y015221D01*
X006487Y015149D01*
X006433Y015096D01*
X006433Y014431D01*
X006328Y014326D01*
X006182Y014326D01*
X006182Y014236D01*
X006328Y014236D01*
X006433Y014130D01*
X006433Y013736D01*
X006182Y013736D01*
X006182Y013576D01*
X006433Y013576D01*
X006433Y013208D01*
X007056Y013831D01*
X007308Y013831D01*
X013306Y013831D01*
X013308Y013831D01*
X013483Y014006D01*
X013881Y014006D01*
X014162Y013725D01*
X014162Y013327D01*
X013881Y013046D01*
X013483Y013046D01*
X013308Y013221D01*
X013306Y013221D01*
X007308Y013221D01*
X006487Y012399D01*
X006433Y012346D01*
X006433Y011921D01*
X006328Y011816D01*
X006182Y011816D01*
X006182Y011736D01*
X006328Y011736D01*
X006433Y011630D01*
X006433Y011236D01*
X006182Y011236D01*
X006182Y011076D01*
X006433Y011076D01*
X006433Y010708D01*
X007556Y011831D01*
X007808Y011831D01*
X013306Y011831D01*
X013308Y011831D01*
X013483Y012006D01*
X013881Y012006D01*
X014162Y011725D01*
X014162Y011327D01*
X013881Y011046D01*
X013483Y011046D01*
X013308Y011221D01*
X013306Y011221D01*
X007808Y011221D01*
X006487Y009899D01*
X006433Y009846D01*
X006433Y009421D01*
X006328Y009316D01*
X006182Y009316D01*
X006182Y009236D01*
X006328Y009236D01*
X006433Y009130D01*
X006433Y008736D01*
X006182Y008736D01*
X006182Y008576D01*
X006433Y008576D01*
X006433Y008208D01*
X008056Y009831D01*
X008308Y009831D01*
X013306Y009831D01*
X013308Y009831D01*
X013483Y010006D01*
X013881Y010006D01*
X014056Y009831D01*
X014058Y009831D01*
X014202Y009687D01*
X014202Y009725D01*
X014483Y010006D01*
X014662Y010006D01*
X014662Y009546D01*
X014343Y009546D01*
X014383Y009506D01*
X014662Y009506D01*
X014662Y009331D01*
X014702Y009331D01*
X014702Y009506D01*
X015162Y009506D01*
X015162Y009331D01*
X020806Y009331D01*
X020808Y009331D01*
X020983Y009506D01*
X021381Y009506D01*
X021662Y009225D01*
X021662Y008827D01*
X021381Y008546D01*
X020983Y008546D01*
X020808Y008721D01*
X020806Y008721D01*
X015162Y008721D01*
X015162Y008546D01*
X014702Y008546D01*
X014702Y008721D01*
X014662Y008721D01*
X014662Y008546D01*
X014202Y008546D01*
X014202Y008725D01*
X014252Y008775D01*
X013931Y009096D01*
X013881Y009046D01*
X013483Y009046D01*
X013308Y009221D01*
X013306Y009221D01*
X008308Y009221D01*
X006433Y007346D01*
X006433Y006958D01*
X007306Y007831D01*
X007558Y007831D01*
X013306Y007831D01*
X013308Y007831D01*
X013483Y008006D01*
X013881Y008006D01*
X013931Y007956D01*
X014127Y008152D01*
X014127Y008152D01*
X014252Y008277D01*
X014202Y008327D01*
X014202Y008506D01*
X014662Y008506D01*
X014662Y008331D01*
X014702Y008331D01*
X014702Y008506D01*
X015162Y008506D01*
X015162Y008331D01*
X020806Y008331D01*
X020808Y008331D01*
X020983Y008506D01*
X021381Y008506D01*
X021662Y008225D01*
X021662Y007827D01*
X021381Y007546D01*
X020983Y007546D01*
X020808Y007721D01*
X020806Y007721D01*
X015162Y007721D01*
X015162Y007546D01*
X014702Y007546D01*
X014702Y007721D01*
X014662Y007721D01*
X014662Y007546D01*
X014383Y007546D01*
X014343Y007506D01*
X014662Y007506D01*
X014662Y007331D01*
X014702Y007331D01*
X014702Y007506D01*
X015162Y007506D01*
X015162Y007327D01*
X015112Y007277D01*
X015237Y007152D01*
X015558Y006831D01*
X020702Y006831D01*
X020702Y007225D01*
X020983Y007506D01*
X021381Y007506D01*
X021662Y007225D01*
X021662Y006831D01*
X021702Y006831D01*
X021702Y007006D01*
X022162Y007006D01*
X022162Y006831D01*
X022202Y006831D01*
X022202Y007006D01*
X022662Y007006D01*
X022662Y006831D01*
X034306Y006831D01*
X034308Y006831D01*
X034483Y007006D01*
X034881Y007006D01*
X035162Y006725D01*
X035162Y006327D01*
X034881Y006046D01*
X034483Y006046D01*
X034308Y006221D01*
X034306Y006221D01*
X022662Y006221D01*
X022662Y006046D01*
X022202Y006046D01*
X022202Y006221D01*
X022162Y006221D01*
X022162Y006046D01*
X021702Y006046D01*
X021702Y006221D01*
X021662Y006221D01*
X021662Y006046D01*
X021202Y006046D01*
X021202Y006221D01*
X021162Y006221D01*
X021162Y006046D01*
X020702Y006046D01*
X020702Y006221D01*
X015558Y006221D01*
X015306Y006221D01*
X015162Y006365D01*
X015162Y006327D01*
X014881Y006046D01*
X014702Y006046D01*
X014702Y006506D01*
X015021Y006506D01*
X014981Y006546D01*
X014702Y006546D01*
X014702Y006721D01*
X014662Y006721D01*
X014662Y006546D01*
X014383Y006546D01*
X014343Y006506D01*
X014662Y006506D01*
X014662Y006046D01*
X014483Y006046D01*
X014202Y006327D01*
X014202Y006365D01*
X014058Y006221D01*
X014056Y006221D01*
X013881Y006046D01*
X013483Y006046D01*
X013202Y006327D01*
X013202Y006725D01*
X013483Y007006D01*
X013881Y007006D01*
X013931Y006956D01*
X014252Y007277D01*
X014202Y007327D01*
X014202Y007365D01*
X014058Y007221D01*
X014056Y007221D01*
X013881Y007046D01*
X013483Y007046D01*
X013308Y007221D01*
X013306Y007221D01*
X007558Y007221D01*
X006487Y006149D01*
X006433Y006096D01*
X006433Y005681D01*
X006328Y005576D01*
X006182Y005576D01*
X006182Y005466D01*
X006328Y005466D01*
X006433Y005360D01*
X006433Y004966D01*
X006182Y004966D01*
X006182Y004806D01*
X006433Y004806D01*
X006433Y004411D01*
X006353Y004331D01*
X007306Y004331D01*
X008806Y005831D01*
X009058Y005831D01*
X013306Y005831D01*
X013308Y005831D01*
X006433Y005831D01*
X006433Y005989D02*
X013467Y005989D01*
X013483Y006006D02*
X013308Y005831D01*
X013483Y006006D02*
X013881Y006006D01*
X014162Y005725D01*
X014162Y005327D01*
X013881Y005046D01*
X013483Y005046D01*
X013308Y005221D01*
X013306Y005221D01*
X009058Y005221D01*
X007737Y003899D01*
X007558Y003721D01*
X006433Y003721D01*
X006433Y003356D01*
X008319Y003356D01*
X008512Y003162D01*
X008512Y002889D01*
X008512Y002356D01*
X019777Y002356D01*
X019642Y002491D01*
X019642Y002583D01*
X019624Y002600D01*
X019520Y002496D01*
X019337Y002496D01*
X019084Y002496D01*
X019026Y002554D01*
X018967Y002496D01*
X018715Y002496D01*
X018658Y002553D01*
X018601Y002496D01*
X018348Y002496D01*
X018169Y002674D01*
X018169Y002760D01*
X018067Y002606D01*
X017956Y002496D01*
X017703Y002496D01*
X017599Y002600D01*
X017587Y002588D01*
X017495Y002496D01*
X017242Y002496D01*
X017151Y002496D01*
X017046Y002600D01*
X017034Y002588D01*
X017033Y002586D01*
X016942Y002496D01*
X016759Y002496D01*
X016506Y002496D01*
X016414Y002588D01*
X016402Y002600D01*
X016389Y002588D01*
X016389Y002587D01*
X016298Y002496D01*
X016114Y002496D01*
X015861Y002496D01*
X015770Y002588D01*
X015757Y002600D01*
X015742Y002585D01*
X015653Y002496D01*
X015400Y002496D01*
X015217Y002496D01*
X015113Y002600D01*
X015100Y002588D01*
X015099Y002586D01*
X015009Y002496D01*
X014481Y002496D01*
X014302Y002674D01*
X014302Y002927D01*
X014302Y003225D01*
X014302Y003478D01*
X014481Y003656D01*
X014756Y003656D01*
X015009Y003656D01*
X015096Y003569D01*
X015100Y003564D01*
X015100Y003564D01*
X015113Y003552D01*
X015125Y003564D01*
X015217Y003656D01*
X015470Y003656D01*
X015653Y003656D01*
X015745Y003564D01*
X015757Y003552D01*
X015861Y003656D01*
X016045Y003656D01*
X016298Y003656D01*
X016386Y003568D01*
X016389Y003564D01*
X016389Y003564D01*
X016402Y003552D01*
X016414Y003564D01*
X016414Y003564D01*
X016506Y003656D01*
X016689Y003656D01*
X016942Y003656D01*
X017030Y003568D01*
X017034Y003564D01*
X017092Y003506D01*
X017242Y003656D01*
X017334Y003656D01*
X017587Y003656D01*
X017678Y003656D01*
X017857Y003478D01*
X017857Y003392D01*
X017960Y003546D01*
X018070Y003656D01*
X018323Y003656D01*
X018335Y003644D01*
X018348Y003656D01*
X018601Y003656D01*
X018658Y003599D01*
X018715Y003656D01*
X018967Y003656D01*
X019146Y003478D01*
X019146Y003473D01*
X019268Y003473D01*
X019520Y003473D01*
X019612Y003381D01*
X019624Y003369D01*
X019636Y003380D01*
X019639Y003383D01*
X019729Y003473D01*
X019981Y003473D01*
X020195Y003473D01*
X020195Y003569D01*
X020373Y003748D01*
X020626Y003748D01*
X020768Y003606D01*
X020819Y003656D01*
X021071Y003656D01*
X021250Y003478D01*
X021250Y003473D01*
X021346Y003473D01*
X021405Y003414D01*
X021463Y003473D01*
X021716Y003473D01*
X021773Y003416D01*
X021830Y003473D01*
X022083Y003473D01*
X022141Y003414D01*
X022199Y003473D01*
X022727Y003473D01*
X022867Y003333D01*
X023008Y003546D01*
X023119Y003656D01*
X023372Y003656D01*
X023384Y003644D01*
X023397Y003656D01*
X023672Y003656D01*
X023924Y003656D01*
X023924Y003656D01*
X024013Y003568D01*
X024016Y003564D01*
X024120Y003460D01*
X024133Y003473D01*
X024386Y003473D01*
X024569Y003473D01*
X024673Y003369D01*
X024687Y003382D01*
X024688Y003383D01*
X024737Y003432D01*
X024777Y003473D01*
X025243Y003473D01*
X025243Y003569D01*
X025422Y003748D01*
X025675Y003748D01*
X025817Y003606D01*
X025867Y003656D01*
X026120Y003656D01*
X026299Y003478D01*
X026299Y003473D01*
X026395Y003473D01*
X026454Y003414D01*
X026512Y003473D01*
X026764Y003473D01*
X026822Y003416D01*
X026879Y003473D01*
X027131Y003473D01*
X027190Y003414D01*
X027248Y003473D01*
X027776Y003473D01*
X027955Y003294D01*
X027955Y003041D01*
X027943Y003030D01*
X027955Y003019D01*
X027955Y002766D01*
X027776Y002588D01*
X027773Y002585D01*
X027684Y002496D01*
X027432Y002496D01*
X027156Y002496D01*
X027144Y002508D01*
X027131Y002496D01*
X026879Y002496D01*
X026604Y002496D01*
X026499Y002600D01*
X026487Y002588D01*
X026483Y002583D01*
X026395Y002496D01*
X026143Y002496D01*
X025867Y002496D01*
X025817Y002546D01*
X025766Y002496D01*
X025330Y002496D01*
X025272Y002554D01*
X025214Y002496D01*
X025214Y002496D01*
X024961Y002496D01*
X024686Y002496D01*
X024627Y002554D01*
X024569Y002496D01*
X024386Y002496D01*
X024133Y002496D01*
X023937Y002692D01*
X023924Y002679D01*
X023828Y002679D01*
X023828Y002674D01*
X023649Y002496D01*
X023397Y002496D01*
X023218Y002674D01*
X023218Y002760D01*
X023115Y002606D01*
X023005Y002496D01*
X022752Y002496D01*
X022694Y002554D01*
X022635Y002496D01*
X022108Y002496D01*
X022095Y002508D01*
X022083Y002496D01*
X021830Y002496D01*
X021555Y002496D01*
X021451Y002600D01*
X021438Y002588D01*
X021434Y002584D01*
X021346Y002496D01*
X021094Y002496D01*
X020819Y002496D01*
X020768Y002546D01*
X020718Y002496D01*
X020348Y002496D01*
X020346Y002493D01*
X020257Y002404D01*
X020256Y002404D01*
X020253Y002401D01*
X020208Y002356D01*
X049852Y002356D01*
X049852Y026196D01*
X007262Y026196D01*
X007262Y025389D01*
X007069Y025196D01*
X006938Y025196D01*
X006932Y025196D01*
X006931Y025196D01*
X006795Y025196D01*
X006422Y025196D01*
X006422Y024395D01*
X006317Y024290D01*
X006182Y024290D01*
X006182Y024222D02*
X028105Y024222D01*
X028102Y024276D02*
X028109Y024132D01*
X028109Y024132D01*
X028128Y023990D01*
X028128Y023990D01*
X028161Y023850D01*
X028161Y023850D01*
X028206Y023713D01*
X028206Y023713D01*
X028263Y023581D01*
X028263Y023581D01*
X028332Y023455D01*
X028332Y023455D01*
X028412Y023336D01*
X028412Y023336D01*
X028503Y023224D01*
X028503Y023224D01*
X028604Y023121D01*
X028604Y023121D01*
X028713Y023028D01*
X028831Y022945D01*
X028831Y022945D01*
X028955Y022873D01*
X029086Y022813D01*
X029221Y022765D01*
X029361Y022729D01*
X029503Y022706D01*
X029646Y022696D01*
X029790Y022700D01*
X029933Y022716D01*
X030074Y022745D01*
X030211Y022787D01*
X030344Y022841D01*
X030344Y022841D01*
X030472Y022908D01*
X030472Y022908D01*
X030593Y022985D01*
X030593Y022985D01*
X030707Y023073D01*
X030707Y023073D01*
X030812Y023171D01*
X030812Y023171D01*
X030812Y023171D01*
X030908Y023279D01*
X030908Y023279D01*
X030993Y023394D01*
X030993Y023394D01*
X031068Y023517D01*
X031068Y023517D01*
X031131Y023646D01*
X031131Y023646D01*
X031182Y023781D01*
X031182Y023781D01*
X031221Y023919D01*
X031221Y023919D01*
X031247Y024061D01*
X031247Y024061D01*
X031260Y024204D01*
X031260Y024204D01*
X031260Y024348D01*
X031260Y024348D01*
X031247Y024491D01*
X031221Y024632D01*
X031221Y024632D01*
X031182Y024771D01*
X031182Y024771D01*
X031131Y024905D01*
X031131Y024905D01*
X031068Y025034D01*
X031068Y025034D01*
X030993Y025157D01*
X030993Y025157D01*
X030908Y025273D01*
X030908Y025273D01*
X030812Y025380D01*
X030812Y025380D01*
X030707Y025478D01*
X030707Y025478D01*
X030593Y025567D01*
X030593Y025567D01*
X030472Y025644D01*
X030344Y025710D01*
X030344Y025710D01*
X030211Y025765D01*
X030074Y025806D01*
X029933Y025836D01*
X029790Y025852D01*
X029646Y025855D01*
X029503Y025846D01*
X029361Y025823D01*
X029221Y025787D01*
X029086Y025739D01*
X028955Y025679D01*
X028831Y025607D01*
X028831Y025607D01*
X028713Y025524D01*
X028713Y025524D01*
X028604Y025431D01*
X028604Y025431D01*
X028503Y025328D01*
X028503Y025328D01*
X028503Y025328D01*
X028412Y025216D01*
X028412Y025216D01*
X028332Y025097D01*
X028332Y025097D01*
X028263Y024971D01*
X028263Y024971D01*
X028206Y024839D01*
X028206Y024839D01*
X028161Y024702D01*
X028161Y024702D01*
X028128Y024562D01*
X028128Y024562D01*
X028109Y024419D01*
X028109Y024419D01*
X028102Y024276D01*
X028107Y024380D02*
X006407Y024380D01*
X006422Y024539D02*
X028125Y024539D01*
X028160Y024698D02*
X006422Y024698D01*
X006422Y024856D02*
X028213Y024856D01*
X028287Y025015D02*
X006422Y025015D01*
X006422Y025173D02*
X028383Y025173D01*
X028507Y025332D02*
X007205Y025332D01*
X007262Y025490D02*
X028674Y025490D01*
X028903Y025649D02*
X007262Y025649D01*
X007262Y025807D02*
X029300Y025807D01*
X030070Y025807D02*
X049852Y025807D01*
X049852Y025649D02*
X030463Y025649D01*
X030691Y025490D02*
X049852Y025490D01*
X049852Y025332D02*
X030855Y025332D01*
X030981Y025173D02*
X047853Y025173D01*
X047992Y025231D02*
X048372Y025231D01*
X048723Y025085D01*
X048992Y024817D01*
X049137Y024466D01*
X049137Y024086D01*
X048992Y023735D01*
X048723Y023466D01*
X048372Y023321D01*
X047992Y023321D01*
X047641Y023466D01*
X047372Y023735D01*
X047227Y024086D01*
X047227Y024466D01*
X047372Y024817D01*
X047641Y025085D01*
X047992Y025231D01*
X047570Y025015D02*
X031078Y025015D01*
X031150Y024856D02*
X047412Y024856D01*
X047323Y024698D02*
X031203Y024698D01*
X031238Y024539D02*
X047257Y024539D01*
X047227Y024380D02*
X031257Y024380D01*
X031247Y024491D02*
X031247Y024491D01*
X031260Y024222D02*
X047227Y024222D01*
X047236Y024063D02*
X031248Y024063D01*
X031217Y023905D02*
X047302Y023905D01*
X047368Y023746D02*
X031169Y023746D01*
X031103Y023588D02*
X047520Y023588D01*
X047731Y023429D02*
X031014Y023429D01*
X030900Y023271D02*
X049852Y023271D01*
X049852Y023429D02*
X048634Y023429D01*
X048844Y023588D02*
X049852Y023588D01*
X049852Y023746D02*
X048996Y023746D01*
X049062Y023905D02*
X049852Y023905D01*
X049852Y024063D02*
X049128Y024063D01*
X049137Y024222D02*
X049852Y024222D01*
X049852Y024380D02*
X049137Y024380D01*
X049107Y024539D02*
X049852Y024539D01*
X049852Y024698D02*
X049041Y024698D01*
X048952Y024856D02*
X049852Y024856D01*
X049852Y025015D02*
X048794Y025015D01*
X048511Y025173D02*
X049852Y025173D01*
X049852Y025966D02*
X007262Y025966D01*
X007262Y026124D02*
X049852Y026124D01*
X049852Y023112D02*
X030748Y023112D01*
X030544Y022954D02*
X049852Y022954D01*
X049852Y022795D02*
X030231Y022795D01*
X029135Y022795D02*
X015092Y022795D01*
X015162Y022725D02*
X015162Y022546D01*
X014702Y022546D01*
X014702Y023006D01*
X014881Y023006D01*
X015162Y022725D01*
X015162Y022636D02*
X049852Y022636D01*
X049852Y022478D02*
X022409Y022478D01*
X022381Y022506D02*
X022662Y022225D01*
X022662Y022046D01*
X022202Y022046D01*
X022202Y022506D01*
X022381Y022506D01*
X022202Y022478D02*
X022162Y022478D01*
X022162Y022506D02*
X022162Y022046D01*
X021702Y022046D01*
X021702Y022225D01*
X021983Y022506D01*
X022162Y022506D01*
X022162Y022319D02*
X022202Y022319D01*
X022202Y022161D02*
X022162Y022161D01*
X022162Y022006D02*
X022162Y021546D01*
X021983Y021546D01*
X021702Y021827D01*
X021702Y022006D01*
X022162Y022006D01*
X022162Y022002D02*
X022202Y022002D01*
X022202Y022006D02*
X022662Y022006D01*
X022662Y021827D01*
X022381Y021546D01*
X022202Y021546D01*
X022202Y022006D01*
X022202Y021844D02*
X022162Y021844D01*
X022162Y021685D02*
X022202Y021685D01*
X022202Y021506D02*
X022381Y021506D01*
X022662Y021225D01*
X022662Y021046D01*
X022202Y021046D01*
X022202Y021506D01*
X022162Y021506D02*
X022162Y021046D01*
X021702Y021046D01*
X021702Y021225D01*
X021983Y021506D01*
X022162Y021506D01*
X022162Y021368D02*
X022202Y021368D01*
X022202Y021210D02*
X022162Y021210D01*
X022162Y021051D02*
X022202Y021051D01*
X022202Y021006D02*
X022662Y021006D01*
X022662Y020827D01*
X022381Y020546D01*
X022202Y020546D01*
X022202Y021006D01*
X022162Y021006D02*
X022162Y020546D01*
X021983Y020546D01*
X021702Y020827D01*
X021702Y021006D01*
X022162Y021006D01*
X022162Y020892D02*
X022202Y020892D01*
X022202Y020734D02*
X022162Y020734D01*
X022162Y020575D02*
X022202Y020575D01*
X022202Y020506D02*
X022381Y020506D01*
X022662Y020225D01*
X022662Y020046D01*
X022202Y020046D01*
X022202Y020506D01*
X022162Y020506D02*
X022162Y020046D01*
X021702Y020046D01*
X021702Y020225D01*
X021983Y020506D01*
X022162Y020506D01*
X022162Y020417D02*
X022202Y020417D01*
X022202Y020258D02*
X022162Y020258D01*
X022162Y020100D02*
X022202Y020100D01*
X022202Y020006D02*
X022662Y020006D01*
X022662Y019827D01*
X022381Y019546D01*
X022202Y019546D01*
X022202Y020006D01*
X022162Y020006D02*
X022162Y019546D01*
X021983Y019546D01*
X021702Y019827D01*
X021702Y020006D01*
X022162Y020006D01*
X022162Y019941D02*
X022202Y019941D01*
X022202Y019783D02*
X022162Y019783D01*
X022162Y019624D02*
X022202Y019624D01*
X022202Y019506D02*
X022381Y019506D01*
X022662Y019225D01*
X022662Y019046D01*
X022202Y019046D01*
X022202Y019506D01*
X022162Y019506D02*
X022162Y019046D01*
X021702Y019046D01*
X021702Y019225D01*
X021983Y019506D01*
X022162Y019506D01*
X022162Y019466D02*
X022202Y019466D01*
X022202Y019307D02*
X022162Y019307D01*
X022162Y019149D02*
X022202Y019149D01*
X022202Y018990D02*
X022162Y018990D01*
X022162Y018831D02*
X022202Y018831D01*
X022662Y018831D02*
X034309Y018831D01*
X034467Y018990D02*
X022662Y018990D01*
X022662Y019149D02*
X034381Y019149D01*
X034483Y019046D02*
X034881Y019046D01*
X035162Y019327D01*
X035162Y019725D01*
X034881Y020006D01*
X034483Y020006D01*
X034202Y019725D01*
X034202Y019327D01*
X034483Y019046D01*
X034222Y019307D02*
X022580Y019307D01*
X022421Y019466D02*
X034202Y019466D01*
X034202Y019624D02*
X022459Y019624D01*
X022618Y019783D02*
X034260Y019783D01*
X034419Y019941D02*
X022662Y019941D01*
X022662Y020100D02*
X034429Y020100D01*
X034483Y020046D02*
X034202Y020327D01*
X034202Y020725D01*
X034483Y021006D01*
X034881Y021006D01*
X035162Y020725D01*
X035162Y020327D01*
X034881Y020046D01*
X034483Y020046D01*
X034271Y020258D02*
X022628Y020258D01*
X022470Y020417D02*
X034202Y020417D01*
X034202Y020575D02*
X022410Y020575D01*
X022569Y020734D02*
X034211Y020734D01*
X034370Y020892D02*
X022662Y020892D01*
X022662Y021051D02*
X034478Y021051D01*
X034483Y021046D02*
X034202Y021327D01*
X034202Y021725D01*
X034483Y022006D01*
X034881Y022006D01*
X035162Y021725D01*
X035162Y021327D01*
X034881Y021046D01*
X034483Y021046D01*
X034319Y021210D02*
X022662Y021210D01*
X022519Y021368D02*
X034202Y021368D01*
X034202Y021527D02*
X014362Y021527D01*
X014321Y021844D02*
X014043Y021844D01*
X013884Y022002D02*
X014480Y022002D01*
X014483Y022046D02*
X014202Y022327D01*
X014202Y022506D01*
X014662Y022506D01*
X014662Y022046D01*
X014483Y022046D01*
X014368Y022161D02*
X013996Y022161D01*
X013881Y022046D02*
X013483Y022046D01*
X013202Y022327D01*
X013202Y022725D01*
X013483Y023006D01*
X013881Y023006D01*
X014162Y022725D01*
X014162Y022327D01*
X013881Y022046D01*
X014154Y022319D02*
X014210Y022319D01*
X014202Y022478D02*
X014162Y022478D01*
X014202Y022546D02*
X014202Y022725D01*
X014483Y023006D01*
X014662Y023006D01*
X014662Y022546D01*
X014202Y022546D01*
X014202Y022636D02*
X014162Y022636D01*
X014092Y022795D02*
X014272Y022795D01*
X014431Y022954D02*
X013933Y022954D01*
X013881Y023046D02*
X014162Y023327D01*
X014162Y023506D01*
X013702Y023506D01*
X013702Y023046D01*
X013881Y023046D01*
X013947Y023112D02*
X014417Y023112D01*
X014483Y023046D02*
X014202Y023327D01*
X014202Y023506D01*
X014662Y023506D01*
X014662Y023046D01*
X014483Y023046D01*
X014662Y023112D02*
X014702Y023112D01*
X014702Y023046D02*
X014702Y023506D01*
X015162Y023506D01*
X015162Y023327D01*
X014881Y023046D01*
X014702Y023046D01*
X014702Y022954D02*
X014662Y022954D01*
X014662Y022795D02*
X014702Y022795D01*
X014702Y022636D02*
X014662Y022636D01*
X014702Y022506D02*
X015162Y022506D01*
X015162Y022327D01*
X014881Y022046D01*
X014702Y022046D01*
X014702Y022506D01*
X014702Y022478D02*
X014662Y022478D01*
X014662Y022319D02*
X014702Y022319D01*
X014702Y022161D02*
X014662Y022161D01*
X014662Y022002D02*
X014702Y022002D01*
X014702Y022006D02*
X014881Y022006D01*
X015162Y021725D01*
X015162Y021546D01*
X014702Y021546D01*
X014702Y022006D01*
X014702Y021844D02*
X014662Y021844D01*
X014662Y021685D02*
X014702Y021685D01*
X014702Y021368D02*
X014662Y021368D01*
X015162Y021368D02*
X020846Y021368D01*
X020983Y021506D02*
X020702Y021225D01*
X020702Y020827D01*
X020983Y020546D01*
X021381Y020546D01*
X021662Y020827D01*
X021662Y021225D01*
X021381Y021506D01*
X020983Y021506D01*
X020983Y021546D02*
X020702Y021827D01*
X020702Y022225D01*
X020983Y022506D01*
X021381Y022506D01*
X021662Y022225D01*
X021662Y021827D01*
X021381Y021546D01*
X020983Y021546D01*
X020844Y021685D02*
X015162Y021685D01*
X015043Y021844D02*
X020702Y021844D01*
X020702Y022002D02*
X014884Y022002D01*
X014996Y022161D02*
X020702Y022161D01*
X020797Y022319D02*
X015154Y022319D01*
X015162Y022478D02*
X020955Y022478D01*
X021409Y022478D02*
X021955Y022478D01*
X021797Y022319D02*
X021567Y022319D01*
X021662Y022161D02*
X021702Y022161D01*
X021702Y022002D02*
X021662Y022002D01*
X021662Y021844D02*
X021702Y021844D01*
X021844Y021685D02*
X021520Y021685D01*
X021519Y021368D02*
X021846Y021368D01*
X021702Y021210D02*
X021662Y021210D01*
X021662Y021051D02*
X021702Y021051D01*
X021702Y020892D02*
X021662Y020892D01*
X021569Y020734D02*
X021795Y020734D01*
X021954Y020575D02*
X021410Y020575D01*
X021470Y020417D02*
X021894Y020417D01*
X021736Y020258D02*
X021628Y020258D01*
X021662Y020100D02*
X021702Y020100D01*
X021702Y019941D02*
X021662Y019941D01*
X021618Y019783D02*
X021746Y019783D01*
X021905Y019624D02*
X021459Y019624D01*
X021421Y019466D02*
X021943Y019466D01*
X021784Y019307D02*
X021580Y019307D01*
X021662Y019149D02*
X021702Y019149D01*
X021702Y018990D02*
X021662Y018990D01*
X021662Y018831D02*
X021702Y018831D01*
X021702Y018197D02*
X021662Y018197D01*
X021662Y018006D02*
X021662Y017827D01*
X021381Y017546D01*
X021202Y017546D01*
X021202Y018006D01*
X021662Y018006D01*
X021702Y018006D02*
X022162Y018006D01*
X022162Y017546D01*
X021983Y017546D01*
X021702Y017827D01*
X021702Y018006D01*
X021702Y017880D02*
X021662Y017880D01*
X021557Y017722D02*
X021807Y017722D01*
X021966Y017563D02*
X021398Y017563D01*
X021381Y017506D02*
X021662Y017225D01*
X021662Y016831D01*
X021702Y016831D01*
X021702Y017006D01*
X022162Y017006D01*
X022162Y016831D01*
X022202Y016831D01*
X022202Y017006D01*
X022662Y017006D01*
X022662Y016831D01*
X034306Y016831D01*
X034308Y016831D01*
X034483Y017006D01*
X034881Y017006D01*
X035162Y016725D01*
X035162Y016327D01*
X034881Y016046D01*
X034483Y016046D01*
X034308Y016221D01*
X034306Y016221D01*
X022662Y016221D01*
X022662Y016046D01*
X022202Y016046D01*
X022202Y016221D01*
X022162Y016221D01*
X022162Y016046D01*
X021702Y016046D01*
X021702Y016221D01*
X021662Y016221D01*
X021662Y016046D01*
X021202Y016046D01*
X021202Y016221D01*
X021162Y016221D01*
X021162Y016046D01*
X020702Y016046D01*
X020702Y016221D01*
X016558Y016221D01*
X016306Y016221D01*
X015162Y017365D01*
X015162Y017327D01*
X014881Y017046D01*
X014702Y017046D01*
X014702Y017506D01*
X015021Y017506D01*
X014981Y017546D01*
X014702Y017546D01*
X014702Y017721D01*
X014662Y017721D01*
X014662Y017546D01*
X014202Y017546D01*
X014202Y017725D01*
X014252Y017775D01*
X013931Y018096D01*
X013881Y018046D01*
X013483Y018046D01*
X013202Y018327D01*
X013202Y018725D01*
X013483Y019006D01*
X013881Y019006D01*
X014056Y018831D01*
X014058Y018831D01*
X014202Y018687D01*
X014202Y018725D01*
X014483Y019006D01*
X014662Y019006D01*
X014662Y018546D01*
X014343Y018546D01*
X014383Y018506D01*
X014662Y018506D01*
X014662Y018331D01*
X014702Y018331D01*
X014702Y018506D01*
X015162Y018506D01*
X015162Y018327D01*
X015112Y018277D01*
X015237Y018152D01*
X016558Y016831D01*
X020702Y016831D01*
X020702Y017225D01*
X020983Y017506D01*
X021381Y017506D01*
X021482Y017405D02*
X021882Y017405D01*
X021983Y017506D02*
X021702Y017225D01*
X021702Y017046D01*
X022162Y017046D01*
X022162Y017506D01*
X021983Y017506D01*
X022162Y017563D02*
X022202Y017563D01*
X022202Y017546D02*
X022202Y018006D01*
X022662Y018006D01*
X022662Y017827D01*
X022381Y017546D01*
X022202Y017546D01*
X022202Y017506D02*
X022381Y017506D01*
X022662Y017225D01*
X022662Y017046D01*
X022202Y017046D01*
X022202Y017506D01*
X022202Y017405D02*
X022162Y017405D01*
X022162Y017246D02*
X022202Y017246D01*
X022202Y017087D02*
X022162Y017087D01*
X022162Y016929D02*
X022202Y016929D01*
X022662Y016929D02*
X034406Y016929D01*
X034483Y017046D02*
X034202Y017327D01*
X034202Y017506D01*
X034662Y017506D01*
X034662Y017046D01*
X034483Y017046D01*
X034442Y017087D02*
X022662Y017087D01*
X022641Y017246D02*
X034283Y017246D01*
X034202Y017405D02*
X022482Y017405D01*
X022398Y017563D02*
X034202Y017563D01*
X034202Y017546D02*
X034202Y017725D01*
X034483Y018006D01*
X034662Y018006D01*
X034662Y017546D01*
X034202Y017546D01*
X034202Y017722D02*
X022557Y017722D01*
X022662Y017880D02*
X034358Y017880D01*
X034662Y017880D02*
X034702Y017880D01*
X034702Y018006D02*
X034881Y018006D01*
X035162Y017725D01*
X035162Y017546D01*
X034702Y017546D01*
X034702Y018006D01*
X034702Y017722D02*
X034662Y017722D01*
X034662Y017563D02*
X034702Y017563D01*
X034702Y017506D02*
X035162Y017506D01*
X035162Y017327D01*
X034881Y017046D01*
X034702Y017046D01*
X034702Y017506D01*
X034702Y017405D02*
X034662Y017405D01*
X034662Y017246D02*
X034702Y017246D01*
X034702Y017087D02*
X034662Y017087D01*
X034922Y017087D02*
X035442Y017087D01*
X035483Y017046D02*
X035202Y017327D01*
X035202Y017506D01*
X035662Y017506D01*
X035662Y017046D01*
X035483Y017046D01*
X035483Y017006D02*
X035202Y016725D01*
X035202Y016546D01*
X035662Y016546D01*
X035662Y017006D01*
X035483Y017006D01*
X035406Y016929D02*
X034958Y016929D01*
X035116Y016770D02*
X035248Y016770D01*
X035202Y016612D02*
X035162Y016612D01*
X035202Y016506D02*
X035662Y016506D01*
X035662Y016046D01*
X035483Y016046D01*
X035202Y016327D01*
X035202Y016506D01*
X035202Y016453D02*
X035162Y016453D01*
X035130Y016295D02*
X035234Y016295D01*
X035393Y016136D02*
X034971Y016136D01*
X034881Y016006D02*
X035162Y015725D01*
X035162Y015546D01*
X034702Y015546D01*
X034702Y016006D01*
X034881Y016006D01*
X034909Y015978D02*
X035455Y015978D01*
X035483Y016006D02*
X035202Y015725D01*
X035202Y015546D01*
X035662Y015546D01*
X035662Y016006D01*
X035483Y016006D01*
X035662Y015978D02*
X035702Y015978D01*
X035702Y016006D02*
X035881Y016006D01*
X036162Y015725D01*
X036162Y015546D01*
X035702Y015546D01*
X035702Y016006D01*
X035702Y016046D02*
X035702Y016506D01*
X036162Y016506D01*
X036162Y016327D01*
X035881Y016046D01*
X035702Y016046D01*
X035702Y016136D02*
X035662Y016136D01*
X035662Y016295D02*
X035702Y016295D01*
X035702Y016453D02*
X035662Y016453D01*
X035702Y016546D02*
X035702Y017006D01*
X035881Y017006D01*
X036162Y016725D01*
X036162Y016546D01*
X035702Y016546D01*
X035702Y016612D02*
X035662Y016612D01*
X035662Y016770D02*
X035702Y016770D01*
X035702Y016929D02*
X035662Y016929D01*
X035702Y017046D02*
X035702Y017506D01*
X036162Y017506D01*
X036162Y017327D01*
X035881Y017046D01*
X035702Y017046D01*
X035702Y017087D02*
X035662Y017087D01*
X035662Y017246D02*
X035702Y017246D01*
X035702Y017405D02*
X035662Y017405D01*
X035662Y017546D02*
X035202Y017546D01*
X035202Y017725D01*
X035483Y018006D01*
X035662Y018006D01*
X035662Y017546D01*
X035662Y017563D02*
X035702Y017563D01*
X035702Y017546D02*
X035702Y018006D01*
X035881Y018006D01*
X036162Y017725D01*
X036162Y017546D01*
X035702Y017546D01*
X035702Y017722D02*
X035662Y017722D01*
X035662Y017880D02*
X035702Y017880D01*
X035702Y018046D02*
X035881Y018046D01*
X036162Y018327D01*
X036162Y018506D01*
X035702Y018506D01*
X035702Y018046D01*
X035662Y018046D02*
X035483Y018046D01*
X035202Y018327D01*
X035202Y018506D01*
X035662Y018506D01*
X035662Y018046D01*
X035662Y018197D02*
X035702Y018197D01*
X035702Y018356D02*
X035662Y018356D01*
X035662Y018546D02*
X035202Y018546D01*
X035202Y018725D01*
X035483Y019006D01*
X035662Y019006D01*
X035662Y018546D01*
X035702Y018546D02*
X035702Y019006D01*
X035881Y019006D01*
X036162Y018725D01*
X036162Y018546D01*
X035702Y018546D01*
X035702Y018673D02*
X035662Y018673D01*
X035662Y018831D02*
X035702Y018831D01*
X035702Y018990D02*
X035662Y018990D01*
X035662Y019046D02*
X035483Y019046D01*
X035202Y019327D01*
X035202Y019506D01*
X035662Y019506D01*
X035662Y019046D01*
X035702Y019046D02*
X035702Y019506D01*
X036162Y019506D01*
X036162Y019327D01*
X035881Y019046D01*
X035702Y019046D01*
X035702Y019149D02*
X035662Y019149D01*
X035662Y019307D02*
X035702Y019307D01*
X035702Y019466D02*
X035662Y019466D01*
X035662Y019546D02*
X035202Y019546D01*
X035202Y019725D01*
X035483Y020006D01*
X035662Y020006D01*
X035662Y019546D01*
X035702Y019546D02*
X035702Y020006D01*
X035881Y020006D01*
X036162Y019725D01*
X036162Y019546D01*
X035702Y019546D01*
X035702Y019624D02*
X035662Y019624D01*
X035662Y019783D02*
X035702Y019783D01*
X035702Y019941D02*
X035662Y019941D01*
X035662Y020046D02*
X035483Y020046D01*
X035202Y020327D01*
X035202Y020506D01*
X035662Y020506D01*
X035662Y020046D01*
X035702Y020046D02*
X035702Y020506D01*
X036162Y020506D01*
X036162Y020327D01*
X035881Y020046D01*
X035702Y020046D01*
X035702Y020100D02*
X035662Y020100D01*
X035662Y020258D02*
X035702Y020258D01*
X035702Y020417D02*
X035662Y020417D01*
X035662Y020546D02*
X035202Y020546D01*
X035202Y020725D01*
X035483Y021006D01*
X035662Y021006D01*
X035662Y020546D01*
X035662Y020575D02*
X035702Y020575D01*
X035702Y020546D02*
X036162Y020546D01*
X036162Y020725D01*
X035881Y021006D01*
X035702Y021006D01*
X035702Y020546D01*
X035702Y020734D02*
X035662Y020734D01*
X035662Y020892D02*
X035702Y020892D01*
X035702Y021046D02*
X035702Y021506D01*
X036162Y021506D01*
X036162Y021327D01*
X035881Y021046D01*
X035702Y021046D01*
X035702Y021051D02*
X035662Y021051D01*
X035662Y021046D02*
X035483Y021046D01*
X035202Y021327D01*
X035202Y021506D01*
X035662Y021506D01*
X035662Y021046D01*
X035662Y021210D02*
X035702Y021210D01*
X035702Y021368D02*
X035662Y021368D01*
X035662Y021546D02*
X035202Y021546D01*
X035202Y021725D01*
X035483Y022006D01*
X035662Y022006D01*
X035662Y021546D01*
X035702Y021546D02*
X035702Y022006D01*
X035881Y022006D01*
X036162Y021725D01*
X036162Y021546D01*
X035702Y021546D01*
X035702Y021685D02*
X035662Y021685D01*
X035662Y021844D02*
X035702Y021844D01*
X035702Y022002D02*
X035662Y022002D01*
X035480Y022002D02*
X034884Y022002D01*
X035043Y021844D02*
X035321Y021844D01*
X035202Y021685D02*
X035162Y021685D01*
X035162Y021527D02*
X049852Y021527D01*
X049852Y021685D02*
X036162Y021685D01*
X036043Y021844D02*
X049852Y021844D01*
X049852Y022002D02*
X035884Y022002D01*
X036162Y021368D02*
X049852Y021368D01*
X049852Y021210D02*
X036045Y021210D01*
X035886Y021051D02*
X049852Y021051D01*
X049852Y020892D02*
X035994Y020892D01*
X036153Y020734D02*
X049852Y020734D01*
X049852Y020575D02*
X036162Y020575D01*
X036162Y020417D02*
X049852Y020417D01*
X049852Y020258D02*
X036093Y020258D01*
X035935Y020100D02*
X049852Y020100D01*
X049852Y019941D02*
X035945Y019941D01*
X036104Y019783D02*
X049852Y019783D01*
X049852Y019624D02*
X036162Y019624D01*
X036162Y019466D02*
X049852Y019466D01*
X049852Y019307D02*
X036142Y019307D01*
X035984Y019149D02*
X049852Y019149D01*
X049852Y018990D02*
X035897Y018990D01*
X036055Y018831D02*
X049852Y018831D01*
X049852Y018673D02*
X036162Y018673D01*
X036162Y018356D02*
X049852Y018356D01*
X049852Y018514D02*
X035162Y018514D01*
X035162Y018356D02*
X035202Y018356D01*
X035332Y018197D02*
X035032Y018197D01*
X035006Y017880D02*
X035358Y017880D01*
X035202Y017722D02*
X035162Y017722D01*
X035162Y017563D02*
X035202Y017563D01*
X035202Y017405D02*
X035162Y017405D01*
X035081Y017246D02*
X035283Y017246D01*
X035922Y017087D02*
X049852Y017087D01*
X049852Y016929D02*
X035958Y016929D01*
X036116Y016770D02*
X049852Y016770D01*
X049852Y016612D02*
X036162Y016612D01*
X036162Y016453D02*
X049852Y016453D01*
X049852Y016295D02*
X036130Y016295D01*
X035971Y016136D02*
X049852Y016136D01*
X049852Y015978D02*
X035909Y015978D01*
X036068Y015819D02*
X049852Y015819D01*
X049852Y015661D02*
X036162Y015661D01*
X036162Y015506D02*
X036162Y015327D01*
X035881Y015046D01*
X035702Y015046D01*
X035702Y015506D01*
X036162Y015506D01*
X036162Y015502D02*
X049852Y015502D01*
X049852Y015343D02*
X036162Y015343D01*
X036020Y015185D02*
X049852Y015185D01*
X049852Y015026D02*
X021662Y015026D01*
X021702Y015046D02*
X021702Y015225D01*
X021983Y015506D01*
X022162Y015506D01*
X022162Y015046D01*
X021702Y015046D01*
X021702Y015006D02*
X022162Y015006D01*
X022162Y014831D01*
X022202Y014831D01*
X022202Y015006D01*
X022662Y015006D01*
X022662Y014831D01*
X034306Y014831D01*
X034308Y014831D01*
X034483Y015006D01*
X034881Y015006D01*
X035162Y014725D01*
X035162Y014327D01*
X034881Y014046D01*
X034483Y014046D01*
X034308Y014221D01*
X034306Y014221D01*
X022662Y014221D01*
X022662Y014046D01*
X022202Y014046D01*
X022202Y014221D01*
X022162Y014221D01*
X022162Y014046D01*
X021702Y014046D01*
X021702Y014221D01*
X021662Y014221D01*
X021662Y014046D01*
X021202Y014046D01*
X021202Y014221D01*
X021162Y014221D01*
X021162Y014046D01*
X020702Y014046D01*
X020702Y014221D01*
X016558Y014221D01*
X016306Y014221D01*
X015162Y015365D01*
X015162Y015327D01*
X014881Y015046D01*
X014702Y015046D01*
X014702Y015506D01*
X015021Y015506D01*
X014981Y015546D01*
X014702Y015546D01*
X014702Y015721D01*
X014662Y015721D01*
X014662Y015546D01*
X014202Y015546D01*
X014202Y015725D01*
X014252Y015775D01*
X013931Y016096D01*
X013881Y016046D01*
X013483Y016046D01*
X013202Y016327D01*
X013202Y016725D01*
X013483Y017006D01*
X013881Y017006D01*
X014056Y016831D01*
X014058Y016831D01*
X014202Y016687D01*
X014202Y016725D01*
X014483Y017006D01*
X014662Y017006D01*
X014662Y016546D01*
X014343Y016546D01*
X014383Y016506D01*
X014662Y016506D01*
X014662Y016331D01*
X014702Y016331D01*
X014702Y016506D01*
X015162Y016506D01*
X015162Y016327D01*
X015112Y016277D01*
X015237Y016152D01*
X016558Y014831D01*
X020702Y014831D01*
X020702Y015225D01*
X020983Y015506D01*
X021381Y015506D01*
X021662Y015225D01*
X021662Y014831D01*
X021702Y014831D01*
X021702Y015006D01*
X021702Y014868D02*
X021662Y014868D01*
X021662Y015185D02*
X021702Y015185D01*
X021821Y015343D02*
X021543Y015343D01*
X021385Y015502D02*
X021979Y015502D01*
X021983Y015546D02*
X021702Y015827D01*
X021702Y016006D01*
X022162Y016006D01*
X022162Y015546D01*
X021983Y015546D01*
X021869Y015661D02*
X021496Y015661D01*
X021381Y015546D02*
X021662Y015827D01*
X021662Y016006D01*
X021202Y016006D01*
X021202Y015546D01*
X021381Y015546D01*
X021202Y015661D02*
X021162Y015661D01*
X021162Y015546D02*
X020983Y015546D01*
X020702Y015827D01*
X020702Y016006D01*
X021162Y016006D01*
X021162Y015546D01*
X020979Y015502D02*
X015887Y015502D01*
X015729Y015661D02*
X020869Y015661D01*
X020710Y015819D02*
X015570Y015819D01*
X015411Y015978D02*
X020702Y015978D01*
X020702Y016136D02*
X015253Y016136D01*
X015130Y016295D02*
X016232Y016295D01*
X016073Y016453D02*
X015162Y016453D01*
X015162Y016546D02*
X014702Y016546D01*
X014702Y017006D01*
X014881Y017006D01*
X015162Y016725D01*
X015162Y016546D01*
X015162Y016612D02*
X015915Y016612D01*
X015756Y016770D02*
X015116Y016770D01*
X014958Y016929D02*
X015598Y016929D01*
X015439Y017087D02*
X014922Y017087D01*
X014702Y017087D02*
X014662Y017087D01*
X014662Y017046D02*
X014483Y017046D01*
X014202Y017327D01*
X014202Y017506D01*
X014662Y017506D01*
X014662Y017046D01*
X014662Y016929D02*
X014702Y016929D01*
X014702Y016770D02*
X014662Y016770D01*
X014662Y016612D02*
X014702Y016612D01*
X014702Y016453D02*
X014662Y016453D01*
X014248Y016770D02*
X014119Y016770D01*
X013958Y016929D02*
X014406Y016929D01*
X014442Y017087D02*
X013922Y017087D01*
X014081Y017246D02*
X014283Y017246D01*
X014202Y017405D02*
X014162Y017405D01*
X014162Y017563D02*
X014202Y017563D01*
X014202Y017722D02*
X014162Y017722D01*
X014146Y017880D02*
X014006Y017880D01*
X013988Y018039D02*
X006182Y018039D01*
X006413Y017880D02*
X013358Y017880D01*
X013332Y018197D02*
X006423Y018197D01*
X006423Y018356D02*
X013202Y018356D01*
X013202Y018514D02*
X006423Y018514D01*
X006182Y018673D02*
X013202Y018673D01*
X013309Y018831D02*
X006423Y018831D01*
X006423Y018990D02*
X013467Y018990D01*
X013381Y019149D02*
X006385Y019149D01*
X006433Y019941D02*
X013419Y019941D01*
X013429Y020100D02*
X006433Y020100D01*
X006433Y020258D02*
X013271Y020258D01*
X013202Y020417D02*
X006387Y020417D01*
X006337Y020575D02*
X013202Y020575D01*
X013211Y020734D02*
X006433Y020734D01*
X006433Y020892D02*
X013370Y020892D01*
X013478Y021051D02*
X006433Y021051D01*
X006433Y021210D02*
X013319Y021210D01*
X013886Y021051D02*
X013976Y021051D01*
X013994Y020892D02*
X014134Y020892D01*
X014155Y020734D02*
X014211Y020734D01*
X014343Y020546D02*
X014662Y020546D01*
X014662Y020721D01*
X014702Y020721D01*
X014702Y020546D01*
X014981Y020546D01*
X015021Y020506D01*
X014702Y020506D01*
X014702Y020331D01*
X014662Y020331D01*
X014662Y020506D01*
X014383Y020506D01*
X014343Y020546D01*
X014662Y020575D02*
X014702Y020575D01*
X014702Y020417D02*
X014662Y020417D01*
X015131Y020258D02*
X015268Y020258D01*
X015289Y020100D02*
X015427Y020100D01*
X015448Y019941D02*
X015585Y019941D01*
X015606Y019783D02*
X015744Y019783D01*
X015765Y019624D02*
X020905Y019624D01*
X020943Y019466D02*
X015924Y019466D01*
X016082Y019307D02*
X020784Y019307D01*
X020702Y019149D02*
X016241Y019149D01*
X016399Y018990D02*
X020702Y018990D01*
X020702Y018831D02*
X016558Y018831D01*
X016171Y018356D02*
X015162Y018356D01*
X015192Y018197D02*
X020702Y018197D01*
X020702Y018006D02*
X021162Y018006D01*
X021162Y017546D01*
X020983Y017546D01*
X020702Y017827D01*
X020702Y018006D01*
X020702Y017880D02*
X015509Y017880D01*
X015668Y017722D02*
X020807Y017722D01*
X020966Y017563D02*
X015826Y017563D01*
X015985Y017405D02*
X020882Y017405D01*
X020723Y017246D02*
X016143Y017246D01*
X016302Y017087D02*
X020702Y017087D01*
X020702Y016929D02*
X016460Y016929D01*
X015281Y017246D02*
X015081Y017246D01*
X014702Y017246D02*
X014662Y017246D01*
X014662Y017405D02*
X014702Y017405D01*
X014702Y017563D02*
X014662Y017563D01*
X015350Y018039D02*
X049852Y018039D01*
X049852Y018197D02*
X036032Y018197D01*
X036006Y017880D02*
X049852Y017880D01*
X049852Y017722D02*
X036162Y017722D01*
X036162Y017563D02*
X049852Y017563D01*
X049852Y017405D02*
X036162Y017405D01*
X036081Y017246D02*
X049852Y017246D01*
X049852Y014868D02*
X036019Y014868D01*
X035881Y015006D02*
X036162Y014725D01*
X036162Y014546D01*
X035702Y014546D01*
X035702Y015006D01*
X035881Y015006D01*
X035662Y015006D02*
X035662Y014546D01*
X035202Y014546D01*
X035202Y014725D01*
X035483Y015006D01*
X035662Y015006D01*
X035662Y015046D02*
X035483Y015046D01*
X035202Y015327D01*
X035202Y015506D01*
X035662Y015506D01*
X035662Y015046D01*
X035662Y015185D02*
X035702Y015185D01*
X035702Y015343D02*
X035662Y015343D01*
X035662Y015502D02*
X035702Y015502D01*
X035702Y015661D02*
X035662Y015661D01*
X035662Y015819D02*
X035702Y015819D01*
X035297Y015819D02*
X035068Y015819D01*
X035162Y015661D02*
X035202Y015661D01*
X035202Y015502D02*
X035162Y015502D01*
X035162Y015506D02*
X035162Y015327D01*
X034881Y015046D01*
X034702Y015046D01*
X034702Y015506D01*
X035162Y015506D01*
X035162Y015343D02*
X035202Y015343D01*
X035344Y015185D02*
X035020Y015185D01*
X035019Y014868D02*
X035345Y014868D01*
X035202Y014709D02*
X035162Y014709D01*
X035162Y014551D02*
X035202Y014551D01*
X035202Y014506D02*
X035662Y014506D01*
X035662Y014046D01*
X035483Y014046D01*
X035202Y014327D01*
X035202Y014506D01*
X035202Y014392D02*
X035162Y014392D01*
X035069Y014234D02*
X035295Y014234D01*
X035454Y014075D02*
X034910Y014075D01*
X034881Y014006D02*
X035162Y013725D01*
X035162Y013546D01*
X034702Y013546D01*
X034702Y014006D01*
X034881Y014006D01*
X034970Y013917D02*
X035394Y013917D01*
X035483Y014006D02*
X035202Y013725D01*
X035202Y013546D01*
X035662Y013546D01*
X035662Y014006D01*
X035483Y014006D01*
X035662Y014075D02*
X035702Y014075D01*
X035702Y014046D02*
X035702Y014506D01*
X036162Y014506D01*
X036162Y014327D01*
X035881Y014046D01*
X035702Y014046D01*
X035702Y014006D02*
X035881Y014006D01*
X036162Y013725D01*
X036162Y013546D01*
X035702Y013546D01*
X035702Y014006D01*
X035702Y013917D02*
X035662Y013917D01*
X035662Y013758D02*
X035702Y013758D01*
X035702Y013599D02*
X035662Y013599D01*
X035662Y013506D02*
X035662Y013046D01*
X035483Y013046D01*
X035202Y013327D01*
X035202Y013506D01*
X035662Y013506D01*
X035702Y013506D02*
X036162Y013506D01*
X036162Y013327D01*
X035881Y013046D01*
X035702Y013046D01*
X035702Y013506D01*
X035702Y013441D02*
X035662Y013441D01*
X035662Y013282D02*
X035702Y013282D01*
X035702Y013124D02*
X035662Y013124D01*
X035662Y013006D02*
X035662Y012546D01*
X035202Y012546D01*
X035202Y012725D01*
X035483Y013006D01*
X035662Y013006D01*
X035702Y013006D02*
X035881Y013006D01*
X036162Y012725D01*
X036162Y012546D01*
X035702Y012546D01*
X035702Y013006D01*
X035702Y012965D02*
X035662Y012965D01*
X035662Y012807D02*
X035702Y012807D01*
X035702Y012648D02*
X035662Y012648D01*
X035662Y012506D02*
X035662Y012046D01*
X035483Y012046D01*
X035202Y012327D01*
X035202Y012506D01*
X035662Y012506D01*
X035662Y012490D02*
X035702Y012490D01*
X035702Y012506D02*
X036162Y012506D01*
X036162Y012327D01*
X035881Y012046D01*
X035702Y012046D01*
X035702Y012506D01*
X035702Y012331D02*
X035662Y012331D01*
X035662Y012173D02*
X035702Y012173D01*
X035702Y012006D02*
X035881Y012006D01*
X036162Y011725D01*
X036162Y011546D01*
X035702Y011546D01*
X035702Y012006D01*
X035662Y012006D02*
X035662Y011546D01*
X035202Y011546D01*
X035202Y011725D01*
X035483Y012006D01*
X035662Y012006D01*
X035662Y011856D02*
X035702Y011856D01*
X035702Y011697D02*
X035662Y011697D01*
X035662Y011506D02*
X035662Y011046D01*
X035483Y011046D01*
X035202Y011327D01*
X035202Y011506D01*
X035662Y011506D01*
X035702Y011506D02*
X036162Y011506D01*
X036162Y011327D01*
X035881Y011046D01*
X035702Y011046D01*
X035702Y011506D01*
X035702Y011380D02*
X035662Y011380D01*
X035662Y011221D02*
X035702Y011221D01*
X035702Y011063D02*
X035662Y011063D01*
X035662Y011006D02*
X035662Y010546D01*
X035202Y010546D01*
X035202Y010725D01*
X035483Y011006D01*
X035662Y011006D01*
X035702Y011006D02*
X035881Y011006D01*
X036162Y010725D01*
X036162Y010546D01*
X035702Y010546D01*
X035702Y011006D01*
X035702Y010904D02*
X035662Y010904D01*
X035662Y010746D02*
X035702Y010746D01*
X035702Y010587D02*
X035662Y010587D01*
X035662Y010506D02*
X035662Y010046D01*
X035483Y010046D01*
X035202Y010327D01*
X035202Y010506D01*
X035662Y010506D01*
X035702Y010506D02*
X036162Y010506D01*
X036162Y010327D01*
X035881Y010046D01*
X035702Y010046D01*
X035702Y010506D01*
X035702Y010429D02*
X035662Y010429D01*
X035662Y010270D02*
X035702Y010270D01*
X035702Y010112D02*
X035662Y010112D01*
X035662Y010006D02*
X035662Y009546D01*
X035202Y009546D01*
X035202Y009725D01*
X035483Y010006D01*
X035662Y010006D01*
X035702Y010006D02*
X035881Y010006D01*
X036162Y009725D01*
X036162Y009546D01*
X035702Y009546D01*
X035702Y010006D01*
X035702Y009953D02*
X035662Y009953D01*
X035662Y009794D02*
X035702Y009794D01*
X035702Y009636D02*
X035662Y009636D01*
X035662Y009506D02*
X035662Y009046D01*
X035483Y009046D01*
X035202Y009327D01*
X035202Y009506D01*
X035662Y009506D01*
X035662Y009477D02*
X035702Y009477D01*
X035702Y009506D02*
X036162Y009506D01*
X036162Y009327D01*
X035881Y009046D01*
X035702Y009046D01*
X035702Y009506D01*
X035702Y009319D02*
X035662Y009319D01*
X035662Y009160D02*
X035702Y009160D01*
X035702Y009006D02*
X035881Y009006D01*
X036162Y008725D01*
X036162Y008546D01*
X035702Y008546D01*
X035702Y009006D01*
X035702Y009002D02*
X035662Y009002D01*
X035662Y009006D02*
X035662Y008546D01*
X035202Y008546D01*
X035202Y008725D01*
X035483Y009006D01*
X035662Y009006D01*
X035662Y008843D02*
X035702Y008843D01*
X035702Y008685D02*
X035662Y008685D01*
X035662Y008506D02*
X035662Y008046D01*
X035483Y008046D01*
X035202Y008327D01*
X035202Y008506D01*
X035662Y008506D01*
X035702Y008506D02*
X036162Y008506D01*
X036162Y008327D01*
X035881Y008046D01*
X035702Y008046D01*
X035702Y008506D01*
X035702Y008368D02*
X035662Y008368D01*
X035662Y008209D02*
X035702Y008209D01*
X035702Y008050D02*
X035662Y008050D01*
X035662Y008006D02*
X035662Y007546D01*
X035202Y007546D01*
X035202Y007725D01*
X035483Y008006D01*
X035662Y008006D01*
X035702Y008006D02*
X035881Y008006D01*
X036162Y007725D01*
X036162Y007546D01*
X035702Y007546D01*
X035702Y008006D01*
X035702Y007892D02*
X035662Y007892D01*
X035662Y007733D02*
X035702Y007733D01*
X035702Y007575D02*
X035662Y007575D01*
X035662Y007506D02*
X035662Y007046D01*
X035483Y007046D01*
X035202Y007327D01*
X035202Y007506D01*
X035662Y007506D01*
X035702Y007506D02*
X036162Y007506D01*
X036162Y007327D01*
X035881Y007046D01*
X035702Y007046D01*
X035702Y007506D01*
X035702Y007416D02*
X035662Y007416D01*
X035662Y007258D02*
X035702Y007258D01*
X035702Y007099D02*
X035662Y007099D01*
X035662Y007006D02*
X035662Y006546D01*
X035202Y006546D01*
X035202Y006725D01*
X035483Y007006D01*
X035662Y007006D01*
X035702Y007006D02*
X035881Y007006D01*
X036162Y006725D01*
X036162Y006546D01*
X035702Y006546D01*
X035702Y007006D01*
X035702Y006941D02*
X035662Y006941D01*
X035662Y006782D02*
X035702Y006782D01*
X035702Y006624D02*
X035662Y006624D01*
X035662Y006506D02*
X035662Y006046D01*
X035483Y006046D01*
X035202Y006327D01*
X035202Y006506D01*
X035662Y006506D01*
X035702Y006506D02*
X036162Y006506D01*
X036162Y006327D01*
X035881Y006046D01*
X035702Y006046D01*
X035702Y006506D01*
X035702Y006465D02*
X035662Y006465D01*
X035662Y006306D02*
X035702Y006306D01*
X035702Y006148D02*
X035662Y006148D01*
X035662Y006006D02*
X035662Y005546D01*
X035202Y005546D01*
X035202Y005725D01*
X035483Y006006D01*
X035662Y006006D01*
X035662Y005989D02*
X035702Y005989D01*
X035702Y006006D02*
X035881Y006006D01*
X036162Y005725D01*
X036162Y005546D01*
X035702Y005546D01*
X035702Y006006D01*
X035702Y005831D02*
X035662Y005831D01*
X035662Y005672D02*
X035702Y005672D01*
X035702Y005506D02*
X036162Y005506D01*
X036162Y005327D01*
X035881Y005046D01*
X035702Y005046D01*
X035702Y005506D01*
X035662Y005506D02*
X035662Y005046D01*
X035483Y005046D01*
X035202Y005327D01*
X035202Y005506D01*
X035662Y005506D01*
X035662Y005355D02*
X035702Y005355D01*
X035702Y005197D02*
X035662Y005197D01*
X035332Y005197D02*
X035032Y005197D01*
X035162Y005327D02*
X034881Y005046D01*
X034702Y005046D01*
X034702Y005506D01*
X035162Y005506D01*
X035162Y005327D01*
X035162Y005355D02*
X035202Y005355D01*
X035162Y005546D02*
X034702Y005546D01*
X034702Y006006D01*
X034881Y006006D01*
X035162Y005725D01*
X035162Y005546D01*
X035162Y005672D02*
X035202Y005672D01*
X035308Y005831D02*
X035056Y005831D01*
X034897Y005989D02*
X035467Y005989D01*
X035381Y006148D02*
X034983Y006148D01*
X035141Y006306D02*
X035223Y006306D01*
X035202Y006465D02*
X035162Y006465D01*
X035162Y006624D02*
X035202Y006624D01*
X035260Y006782D02*
X035104Y006782D01*
X034946Y006941D02*
X035418Y006941D01*
X035430Y007099D02*
X034934Y007099D01*
X034881Y007046D02*
X034483Y007046D01*
X034202Y007327D01*
X034202Y007725D01*
X034483Y008006D01*
X034881Y008006D01*
X035162Y007725D01*
X035162Y007327D01*
X034881Y007046D01*
X035093Y007258D02*
X035271Y007258D01*
X035202Y007416D02*
X035162Y007416D01*
X035162Y007575D02*
X035202Y007575D01*
X035211Y007733D02*
X035153Y007733D01*
X034995Y007892D02*
X035369Y007892D01*
X035479Y008050D02*
X034885Y008050D01*
X034881Y008046D02*
X034483Y008046D01*
X034202Y008327D01*
X034202Y008725D01*
X034483Y009006D01*
X034881Y009006D01*
X035162Y008725D01*
X035162Y008327D01*
X034881Y008046D01*
X035044Y008209D02*
X035320Y008209D01*
X035202Y008368D02*
X035162Y008368D01*
X035162Y008526D02*
X049852Y008526D01*
X049852Y008368D02*
X036162Y008368D01*
X036044Y008209D02*
X049852Y008209D01*
X049852Y008050D02*
X035885Y008050D01*
X035995Y007892D02*
X049852Y007892D01*
X049852Y007733D02*
X036153Y007733D01*
X036162Y007575D02*
X049852Y007575D01*
X049852Y007416D02*
X036162Y007416D01*
X036093Y007258D02*
X049852Y007258D01*
X049852Y007099D02*
X035934Y007099D01*
X035946Y006941D02*
X049852Y006941D01*
X049852Y006782D02*
X036104Y006782D01*
X036162Y006624D02*
X049852Y006624D01*
X049852Y006465D02*
X036162Y006465D01*
X036141Y006306D02*
X049852Y006306D01*
X049852Y006148D02*
X035983Y006148D01*
X035897Y005989D02*
X049852Y005989D01*
X049852Y005831D02*
X036056Y005831D01*
X036162Y005672D02*
X049852Y005672D01*
X049852Y005514D02*
X030661Y005514D01*
X030707Y005478D02*
X030707Y005478D01*
X030812Y005380D01*
X030908Y005273D01*
X030993Y005157D01*
X031068Y005034D01*
X031131Y004905D01*
X031182Y004771D01*
X031221Y004632D01*
X031247Y004491D01*
X031260Y004348D01*
X031260Y004348D01*
X031260Y004204D01*
X031247Y004061D01*
X031247Y004061D01*
X031221Y003919D01*
X031182Y003781D01*
X031182Y003781D01*
X031131Y003646D01*
X031068Y003517D01*
X030993Y003394D01*
X030908Y003279D01*
X030908Y003279D01*
X030812Y003171D01*
X030707Y003073D01*
X030707Y003073D01*
X030593Y002985D01*
X030472Y002908D01*
X030344Y002841D01*
X030211Y002787D01*
X030074Y002745D01*
X029933Y002716D01*
X029790Y002700D01*
X029646Y002696D01*
X029503Y002706D01*
X029361Y002729D01*
X029221Y002765D01*
X029086Y002813D01*
X028955Y002873D01*
X028831Y002945D01*
X028831Y002945D01*
X028713Y003028D01*
X028604Y003121D01*
X028604Y003121D01*
X028503Y003224D01*
X028412Y003336D01*
X028332Y003455D01*
X028263Y003581D01*
X028263Y003581D01*
X028206Y003713D01*
X028161Y003850D01*
X028128Y003990D01*
X028109Y004132D01*
X028102Y004276D01*
X028109Y004419D01*
X028109Y004419D01*
X028128Y004562D01*
X028161Y004702D01*
X028206Y004839D01*
X028263Y004971D01*
X028332Y005097D01*
X028412Y005216D01*
X028503Y005328D01*
X028604Y005431D01*
X028713Y005524D01*
X028831Y005607D01*
X028955Y005679D01*
X029086Y005739D01*
X029221Y005787D01*
X029361Y005823D01*
X029503Y005846D01*
X029646Y005855D01*
X029790Y005852D01*
X029933Y005836D01*
X030074Y005806D01*
X030211Y005765D01*
X030344Y005710D01*
X030344Y005710D01*
X030472Y005644D01*
X030593Y005567D01*
X030593Y005567D01*
X030707Y005478D01*
X030812Y005380D02*
X030812Y005380D01*
X030834Y005355D02*
X034202Y005355D01*
X034202Y005327D02*
X034483Y005046D01*
X034662Y005046D01*
X034662Y005506D01*
X034202Y005506D01*
X034202Y005327D01*
X034332Y005197D02*
X030964Y005197D01*
X030993Y005157D02*
X030993Y005157D01*
X031066Y005038D02*
X047594Y005038D01*
X047641Y005085D02*
X047992Y005231D01*
X048372Y005231D01*
X048723Y005085D01*
X048992Y004817D01*
X049137Y004466D01*
X049137Y004086D01*
X048992Y003735D01*
X048723Y003466D01*
X048372Y003321D01*
X047992Y003321D01*
X047641Y003466D01*
X047372Y003735D01*
X047227Y004086D01*
X047227Y004466D01*
X047372Y004817D01*
X047641Y005085D01*
X047435Y004880D02*
X031141Y004880D01*
X031131Y004905D02*
X031131Y004905D01*
X031182Y004771D02*
X031182Y004771D01*
X031196Y004721D02*
X047333Y004721D01*
X047267Y004563D02*
X031234Y004563D01*
X031221Y004632D02*
X031221Y004632D01*
X031247Y004491D02*
X031247Y004491D01*
X031255Y004404D02*
X047227Y004404D01*
X047227Y004245D02*
X031260Y004245D01*
X031260Y004204D02*
X031260Y004204D01*
X031250Y004087D02*
X047227Y004087D01*
X047292Y003928D02*
X031223Y003928D01*
X031221Y003919D02*
X031221Y003919D01*
X031178Y003770D02*
X047358Y003770D01*
X047496Y003611D02*
X031114Y003611D01*
X031131Y003646D02*
X031131Y003646D01*
X031068Y003517D02*
X031068Y003517D01*
X031029Y003453D02*
X047674Y003453D01*
X048690Y003453D02*
X049852Y003453D01*
X049852Y003611D02*
X048868Y003611D01*
X049006Y003770D02*
X049852Y003770D01*
X049852Y003928D02*
X049072Y003928D01*
X049137Y004087D02*
X049852Y004087D01*
X049852Y004245D02*
X049137Y004245D01*
X049137Y004404D02*
X049852Y004404D01*
X049852Y004563D02*
X049097Y004563D01*
X049031Y004721D02*
X049852Y004721D01*
X049852Y004880D02*
X048929Y004880D01*
X048770Y005038D02*
X049852Y005038D01*
X049852Y005197D02*
X048454Y005197D01*
X047910Y005197D02*
X036032Y005197D01*
X036162Y005355D02*
X049852Y005355D01*
X049852Y003294D02*
X030919Y003294D01*
X030993Y003394D02*
X030993Y003394D01*
X030812Y003171D02*
X030812Y003171D01*
X030774Y003136D02*
X049852Y003136D01*
X049852Y002977D02*
X030581Y002977D01*
X030593Y002985D02*
X030593Y002985D01*
X030288Y002819D02*
X049852Y002819D01*
X049852Y002660D02*
X027848Y002660D01*
X027776Y002588D02*
X027776Y002588D01*
X027690Y002501D02*
X049852Y002501D01*
X049852Y008685D02*
X036162Y008685D01*
X036043Y008843D02*
X049852Y008843D01*
X049852Y009002D02*
X035885Y009002D01*
X035995Y009160D02*
X049852Y009160D01*
X049852Y009319D02*
X036154Y009319D01*
X036162Y009477D02*
X049852Y009477D01*
X049852Y009636D02*
X036162Y009636D01*
X036092Y009794D02*
X049852Y009794D01*
X049852Y009953D02*
X035934Y009953D01*
X035947Y010112D02*
X049852Y010112D01*
X049852Y010270D02*
X036105Y010270D01*
X036162Y010429D02*
X049852Y010429D01*
X049852Y010587D02*
X036162Y010587D01*
X036141Y010746D02*
X049852Y010746D01*
X049852Y010904D02*
X035982Y010904D01*
X035898Y011063D02*
X049852Y011063D01*
X049852Y011221D02*
X036056Y011221D01*
X036162Y011380D02*
X049852Y011380D01*
X049852Y011538D02*
X015851Y011538D01*
X016009Y011380D02*
X020857Y011380D01*
X020983Y011506D02*
X020702Y011225D01*
X020702Y010831D01*
X016558Y010831D01*
X015237Y012152D01*
X015112Y012277D01*
X015162Y012327D01*
X015162Y012506D01*
X014702Y012506D01*
X014702Y012331D01*
X014662Y012331D01*
X014702Y012331D01*
X014662Y012331D02*
X014662Y012506D01*
X014383Y012506D01*
X014343Y012546D01*
X014662Y012546D01*
X014662Y013006D01*
X014483Y013006D01*
X014202Y012725D01*
X014202Y012687D01*
X014058Y012831D01*
X014056Y012831D01*
X013881Y013006D01*
X013483Y013006D01*
X013202Y012725D01*
X013202Y012327D01*
X013483Y012046D01*
X013881Y012046D01*
X013931Y012096D01*
X014127Y011900D01*
X014127Y011899D01*
X014252Y011775D01*
X014202Y011725D01*
X014202Y011546D01*
X014662Y011546D01*
X014662Y011721D01*
X014702Y011721D01*
X014702Y011546D01*
X014981Y011546D01*
X015021Y011506D01*
X014702Y011506D01*
X014702Y011046D01*
X014881Y011046D01*
X015162Y011327D01*
X015162Y011365D01*
X016306Y010221D01*
X016558Y010221D01*
X020702Y010221D01*
X020702Y010046D01*
X021162Y010046D01*
X021162Y010221D01*
X021202Y010221D01*
X021202Y010046D01*
X021662Y010046D01*
X021662Y010221D01*
X021702Y010221D01*
X021702Y010046D01*
X022162Y010046D01*
X022162Y010221D01*
X022202Y010221D01*
X022202Y010046D01*
X022662Y010046D01*
X022662Y010221D01*
X034308Y010221D01*
X034483Y010046D01*
X034881Y010046D01*
X035162Y010327D01*
X035162Y010725D01*
X034881Y011006D01*
X034483Y011006D01*
X034308Y010831D01*
X022662Y010831D01*
X022662Y011006D01*
X022202Y011006D01*
X022202Y010831D01*
X022162Y010831D01*
X022162Y011006D01*
X021702Y011006D01*
X021702Y010831D01*
X021662Y010831D01*
X021662Y011225D01*
X021381Y011506D01*
X020983Y011506D01*
X020983Y011546D02*
X020702Y011827D01*
X020702Y012006D01*
X021162Y012006D01*
X021162Y011546D01*
X020983Y011546D01*
X020832Y011697D02*
X015692Y011697D01*
X015534Y011856D02*
X020702Y011856D01*
X020702Y012046D02*
X021162Y012046D01*
X021162Y012221D01*
X021202Y012221D01*
X021202Y012046D01*
X021662Y012046D01*
X021662Y012221D01*
X021702Y012221D01*
X021702Y012046D01*
X022162Y012046D01*
X022162Y012221D01*
X022202Y012221D01*
X022202Y012046D01*
X022662Y012046D01*
X022662Y012221D01*
X034306Y012221D01*
X034308Y012221D01*
X034483Y012046D01*
X034881Y012046D01*
X035162Y012327D01*
X035162Y012725D01*
X034881Y013006D01*
X034483Y013006D01*
X034308Y012831D01*
X034306Y012831D01*
X022662Y012831D01*
X022662Y013006D01*
X022202Y013006D01*
X022202Y012831D01*
X022162Y012831D01*
X022162Y013006D01*
X021702Y013006D01*
X021702Y012831D01*
X021662Y012831D01*
X021662Y013225D01*
X021381Y013506D01*
X020983Y013506D01*
X020702Y013225D01*
X020702Y012831D01*
X016558Y012831D01*
X015237Y014152D01*
X015112Y014277D01*
X015162Y014327D01*
X015162Y014506D01*
X014702Y014506D01*
X014702Y014331D01*
X014662Y014331D01*
X014662Y014506D01*
X014383Y014506D01*
X014343Y014546D01*
X014662Y014546D01*
X014662Y015006D01*
X014483Y015006D01*
X014202Y014725D01*
X014202Y014687D01*
X014058Y014831D01*
X014056Y014831D01*
X013881Y015006D01*
X013483Y015006D01*
X013202Y014725D01*
X013202Y014327D01*
X013483Y014046D01*
X013881Y014046D01*
X013931Y014096D01*
X014252Y013775D01*
X014202Y013725D01*
X014202Y013546D01*
X014662Y013546D01*
X014662Y013721D01*
X014702Y013721D01*
X014702Y013546D01*
X014981Y013546D01*
X015021Y013506D01*
X014702Y013506D01*
X014702Y013046D01*
X014881Y013046D01*
X015162Y013327D01*
X015162Y013365D01*
X016306Y012221D01*
X016558Y012221D01*
X020702Y012221D01*
X020702Y012046D01*
X020702Y012173D02*
X015217Y012173D01*
X015162Y012331D02*
X016195Y012331D01*
X016037Y012490D02*
X015162Y012490D01*
X015162Y012546D02*
X014702Y012546D01*
X014702Y013006D01*
X014881Y013006D01*
X015162Y012725D01*
X015162Y012546D01*
X015162Y012648D02*
X015878Y012648D01*
X015720Y012807D02*
X015080Y012807D01*
X014921Y012965D02*
X015561Y012965D01*
X015403Y013124D02*
X014959Y013124D01*
X015117Y013282D02*
X015244Y013282D01*
X014702Y013282D02*
X014662Y013282D01*
X014662Y013124D02*
X014702Y013124D01*
X014662Y013046D02*
X014483Y013046D01*
X014202Y013327D01*
X014202Y013506D01*
X014662Y013506D01*
X014662Y013046D01*
X014662Y012965D02*
X014702Y012965D01*
X014702Y012807D02*
X014662Y012807D01*
X014662Y012648D02*
X014702Y012648D01*
X014702Y012490D02*
X014662Y012490D01*
X014284Y012807D02*
X014082Y012807D01*
X013921Y012965D02*
X014443Y012965D01*
X014405Y013124D02*
X013959Y013124D01*
X014117Y013282D02*
X014247Y013282D01*
X014202Y013441D02*
X014162Y013441D01*
X014162Y013599D02*
X014202Y013599D01*
X014235Y013758D02*
X014129Y013758D01*
X014110Y013917D02*
X013970Y013917D01*
X013951Y014075D02*
X013910Y014075D01*
X013454Y014075D02*
X006433Y014075D01*
X006433Y013917D02*
X013394Y013917D01*
X013295Y014234D02*
X006330Y014234D01*
X006394Y014392D02*
X013202Y014392D01*
X013202Y014551D02*
X006433Y014551D01*
X006433Y014709D02*
X013202Y014709D01*
X013345Y014868D02*
X006433Y014868D01*
X006433Y015026D02*
X015500Y015026D01*
X015659Y014868D02*
X015019Y014868D01*
X014881Y015006D02*
X015162Y014725D01*
X015162Y014546D01*
X014702Y014546D01*
X014702Y015006D01*
X014881Y015006D01*
X014662Y015046D02*
X014483Y015046D01*
X014202Y015327D01*
X014202Y015506D01*
X014662Y015506D01*
X014662Y015046D01*
X014662Y015185D02*
X014702Y015185D01*
X014702Y015343D02*
X014662Y015343D01*
X014662Y015502D02*
X014702Y015502D01*
X014702Y015661D02*
X014662Y015661D01*
X014202Y015661D02*
X014162Y015661D01*
X014162Y015502D02*
X014202Y015502D01*
X014202Y015343D02*
X014162Y015343D01*
X014020Y015185D02*
X014344Y015185D01*
X014345Y014868D02*
X014019Y014868D01*
X014180Y014709D02*
X014202Y014709D01*
X014662Y014709D02*
X014702Y014709D01*
X014702Y014551D02*
X014662Y014551D01*
X014662Y014392D02*
X014702Y014392D01*
X015162Y014392D02*
X016134Y014392D01*
X015976Y014551D02*
X015162Y014551D01*
X015162Y014709D02*
X015817Y014709D01*
X016363Y015026D02*
X020702Y015026D01*
X020702Y014868D02*
X016521Y014868D01*
X016204Y015185D02*
X020702Y015185D01*
X020821Y015343D02*
X016046Y015343D01*
X015342Y015185D02*
X015020Y015185D01*
X015162Y015343D02*
X015183Y015343D01*
X014702Y014868D02*
X014662Y014868D01*
X015155Y014234D02*
X016293Y014234D01*
X015631Y013758D02*
X020771Y013758D01*
X020702Y013827D02*
X020983Y013546D01*
X021162Y013546D01*
X021162Y014006D01*
X020702Y014006D01*
X020702Y013827D01*
X020702Y013917D02*
X015473Y013917D01*
X015314Y014075D02*
X020702Y014075D01*
X021162Y014075D02*
X021202Y014075D01*
X021202Y014006D02*
X021662Y014006D01*
X021662Y013827D01*
X021381Y013546D01*
X021202Y013546D01*
X021202Y014006D01*
X021202Y013917D02*
X021162Y013917D01*
X021162Y013758D02*
X021202Y013758D01*
X021202Y013599D02*
X021162Y013599D01*
X020930Y013599D02*
X015790Y013599D01*
X015948Y013441D02*
X020918Y013441D01*
X020760Y013282D02*
X016107Y013282D01*
X016265Y013124D02*
X020702Y013124D01*
X020702Y012965D02*
X016424Y012965D01*
X015375Y012014D02*
X049852Y012014D01*
X049852Y011856D02*
X036031Y011856D01*
X036162Y011697D02*
X049852Y011697D01*
X049852Y012173D02*
X036008Y012173D01*
X036162Y012331D02*
X049852Y012331D01*
X049852Y012490D02*
X036162Y012490D01*
X036162Y012648D02*
X049852Y012648D01*
X049852Y012807D02*
X036080Y012807D01*
X035921Y012965D02*
X049852Y012965D01*
X049852Y013124D02*
X035959Y013124D01*
X036117Y013282D02*
X049852Y013282D01*
X049852Y013441D02*
X036162Y013441D01*
X036162Y013599D02*
X049852Y013599D01*
X049852Y013758D02*
X036129Y013758D01*
X035970Y013917D02*
X049852Y013917D01*
X049852Y014075D02*
X035910Y014075D01*
X036069Y014234D02*
X049852Y014234D01*
X049852Y014392D02*
X036162Y014392D01*
X036162Y014551D02*
X049852Y014551D01*
X049852Y014709D02*
X036162Y014709D01*
X035702Y014709D02*
X035662Y014709D01*
X035662Y014551D02*
X035702Y014551D01*
X035702Y014392D02*
X035662Y014392D01*
X035662Y014234D02*
X035702Y014234D01*
X035235Y013758D02*
X035129Y013758D01*
X035162Y013599D02*
X035202Y013599D01*
X035162Y013506D02*
X035162Y013327D01*
X034881Y013046D01*
X034702Y013046D01*
X034702Y013506D01*
X035162Y013506D01*
X035162Y013441D02*
X035202Y013441D01*
X035247Y013282D02*
X035117Y013282D01*
X034959Y013124D02*
X035405Y013124D01*
X035443Y012965D02*
X034921Y012965D01*
X035080Y012807D02*
X035284Y012807D01*
X035202Y012648D02*
X035162Y012648D01*
X035162Y012490D02*
X035202Y012490D01*
X035202Y012331D02*
X035162Y012331D01*
X035008Y012173D02*
X035356Y012173D01*
X035333Y011856D02*
X035031Y011856D01*
X035162Y011725D02*
X034881Y012006D01*
X034702Y012006D01*
X034702Y011546D01*
X035162Y011546D01*
X035162Y011725D01*
X035162Y011697D02*
X035202Y011697D01*
X035162Y011506D02*
X035162Y011327D01*
X034881Y011046D01*
X034702Y011046D01*
X034702Y011506D01*
X035162Y011506D01*
X035162Y011380D02*
X035202Y011380D01*
X035308Y011221D02*
X035056Y011221D01*
X034898Y011063D02*
X035466Y011063D01*
X035382Y010904D02*
X034982Y010904D01*
X035141Y010746D02*
X035223Y010746D01*
X035202Y010587D02*
X035162Y010587D01*
X035162Y010429D02*
X035202Y010429D01*
X035259Y010270D02*
X035105Y010270D01*
X034947Y010112D02*
X035418Y010112D01*
X035430Y009953D02*
X034934Y009953D01*
X034881Y010006D02*
X035162Y009725D01*
X035162Y009546D01*
X034702Y009546D01*
X034702Y010006D01*
X034881Y010006D01*
X034702Y009953D02*
X034662Y009953D01*
X034662Y010006D02*
X034662Y009546D01*
X034202Y009546D01*
X034202Y009725D01*
X034483Y010006D01*
X034662Y010006D01*
X034662Y009794D02*
X034702Y009794D01*
X034702Y009636D02*
X034662Y009636D01*
X034662Y009506D02*
X034662Y009046D01*
X034483Y009046D01*
X034202Y009327D01*
X034202Y009506D01*
X034662Y009506D01*
X034662Y009477D02*
X034702Y009477D01*
X034702Y009506D02*
X035162Y009506D01*
X035162Y009327D01*
X034881Y009046D01*
X034702Y009046D01*
X034702Y009506D01*
X034702Y009319D02*
X034662Y009319D01*
X034662Y009160D02*
X034702Y009160D01*
X034885Y009002D02*
X035479Y009002D01*
X035369Y009160D02*
X034995Y009160D01*
X035154Y009319D02*
X035210Y009319D01*
X035202Y009477D02*
X035162Y009477D01*
X035162Y009636D02*
X035202Y009636D01*
X035272Y009794D02*
X035092Y009794D01*
X034430Y009953D02*
X022662Y009953D01*
X022662Y010006D02*
X022662Y009827D01*
X022381Y009546D01*
X022202Y009546D01*
X022202Y010006D01*
X022662Y010006D01*
X022662Y010112D02*
X034418Y010112D01*
X034272Y009794D02*
X022629Y009794D01*
X022471Y009636D02*
X034202Y009636D01*
X034202Y009477D02*
X022409Y009477D01*
X022381Y009506D02*
X022662Y009225D01*
X022662Y009046D01*
X022202Y009046D01*
X022202Y009506D01*
X022381Y009506D01*
X022202Y009477D02*
X022162Y009477D01*
X022162Y009506D02*
X022162Y009046D01*
X021702Y009046D01*
X021702Y009225D01*
X021983Y009506D01*
X022162Y009506D01*
X022162Y009546D02*
X021983Y009546D01*
X021702Y009827D01*
X021702Y010006D01*
X022162Y010006D01*
X022162Y009546D01*
X022162Y009636D02*
X022202Y009636D01*
X022202Y009794D02*
X022162Y009794D01*
X022162Y009953D02*
X022202Y009953D01*
X022202Y010112D02*
X022162Y010112D01*
X021702Y010112D02*
X021662Y010112D01*
X021662Y010006D02*
X021662Y009827D01*
X021381Y009546D01*
X021202Y009546D01*
X021202Y010006D01*
X021662Y010006D01*
X021662Y009953D02*
X021702Y009953D01*
X021735Y009794D02*
X021629Y009794D01*
X021471Y009636D02*
X021893Y009636D01*
X021955Y009477D02*
X021409Y009477D01*
X021568Y009319D02*
X021796Y009319D01*
X021702Y009160D02*
X021662Y009160D01*
X021662Y009002D02*
X021702Y009002D01*
X021702Y009006D02*
X022162Y009006D01*
X022162Y008546D01*
X021983Y008546D01*
X021702Y008827D01*
X021702Y009006D01*
X021702Y008843D02*
X021662Y008843D01*
X021520Y008685D02*
X021844Y008685D01*
X021983Y008506D02*
X022162Y008506D01*
X022162Y008046D01*
X021702Y008046D01*
X021702Y008225D01*
X021983Y008506D01*
X021845Y008368D02*
X021519Y008368D01*
X021662Y008209D02*
X021702Y008209D01*
X021702Y008050D02*
X021662Y008050D01*
X021702Y008006D02*
X022162Y008006D01*
X022162Y007546D01*
X021983Y007546D01*
X021702Y007827D01*
X021702Y008006D01*
X021702Y007892D02*
X021662Y007892D01*
X021568Y007733D02*
X021796Y007733D01*
X021954Y007575D02*
X021410Y007575D01*
X021470Y007416D02*
X021894Y007416D01*
X021983Y007506D02*
X021702Y007225D01*
X021702Y007046D01*
X022162Y007046D01*
X022162Y007506D01*
X021983Y007506D01*
X022162Y007575D02*
X022202Y007575D01*
X022202Y007546D02*
X022202Y008006D01*
X022662Y008006D01*
X022662Y007827D01*
X022381Y007546D01*
X022202Y007546D01*
X022202Y007506D02*
X022381Y007506D01*
X022662Y007225D01*
X022662Y007046D01*
X022202Y007046D01*
X022202Y007506D01*
X022202Y007416D02*
X022162Y007416D01*
X022162Y007258D02*
X022202Y007258D01*
X022202Y007099D02*
X022162Y007099D01*
X022162Y006941D02*
X022202Y006941D01*
X022662Y006941D02*
X034418Y006941D01*
X034430Y007099D02*
X022662Y007099D01*
X022629Y007258D02*
X034271Y007258D01*
X034202Y007416D02*
X022470Y007416D01*
X022410Y007575D02*
X034202Y007575D01*
X034211Y007733D02*
X022568Y007733D01*
X022662Y007892D02*
X034369Y007892D01*
X034479Y008050D02*
X022662Y008050D01*
X022662Y008046D02*
X022202Y008046D01*
X022202Y008506D01*
X022381Y008506D01*
X022662Y008225D01*
X022662Y008046D01*
X022662Y008209D02*
X034320Y008209D01*
X034202Y008368D02*
X022519Y008368D01*
X022381Y008546D02*
X022662Y008827D01*
X022662Y009006D01*
X022202Y009006D01*
X022202Y008546D01*
X022381Y008546D01*
X022520Y008685D02*
X034202Y008685D01*
X034202Y008526D02*
X014162Y008526D01*
X014162Y008368D02*
X014202Y008368D01*
X014162Y008327D02*
X013881Y008046D01*
X013483Y008046D01*
X013202Y008327D01*
X013202Y008725D01*
X013483Y009006D01*
X013881Y009006D01*
X014162Y008725D01*
X014162Y008327D01*
X014184Y008209D02*
X014044Y008209D01*
X014025Y008050D02*
X013885Y008050D01*
X013479Y008050D02*
X007138Y008050D01*
X006979Y007892D02*
X013369Y007892D01*
X013320Y008209D02*
X007297Y008209D01*
X007455Y008368D02*
X013202Y008368D01*
X013202Y008526D02*
X007614Y008526D01*
X007772Y008685D02*
X013202Y008685D01*
X013321Y008843D02*
X007931Y008843D01*
X008089Y009002D02*
X013479Y009002D01*
X013369Y009160D02*
X008248Y009160D01*
X007861Y009636D02*
X006433Y009636D01*
X006433Y009794D02*
X008019Y009794D01*
X007702Y009477D02*
X006433Y009477D01*
X006331Y009319D02*
X007544Y009319D01*
X007385Y009160D02*
X006403Y009160D01*
X006433Y009002D02*
X007227Y009002D01*
X007068Y008843D02*
X006433Y008843D01*
X006182Y008685D02*
X006910Y008685D01*
X006751Y008526D02*
X006433Y008526D01*
X006433Y008368D02*
X006592Y008368D01*
X006434Y008209D02*
X006433Y008209D01*
X006821Y007733D02*
X007208Y007733D01*
X007050Y007575D02*
X006662Y007575D01*
X006504Y007416D02*
X006891Y007416D01*
X006733Y007258D02*
X006433Y007258D01*
X006433Y007099D02*
X006574Y007099D01*
X006961Y006624D02*
X013202Y006624D01*
X013202Y006465D02*
X006803Y006465D01*
X006644Y006306D02*
X013223Y006306D01*
X013381Y006148D02*
X006485Y006148D01*
X006424Y005672D02*
X008647Y005672D01*
X008489Y005514D02*
X006182Y005514D01*
X006433Y005355D02*
X008330Y005355D01*
X008172Y005197D02*
X006433Y005197D01*
X006433Y005038D02*
X008013Y005038D01*
X007855Y004880D02*
X006182Y004880D01*
X006433Y004721D02*
X007696Y004721D01*
X007537Y004563D02*
X006433Y004563D01*
X006426Y004404D02*
X007379Y004404D01*
X007924Y004087D02*
X013442Y004087D01*
X013483Y004046D02*
X013202Y004327D01*
X013202Y004506D01*
X013662Y004506D01*
X013662Y004046D01*
X013483Y004046D01*
X013662Y004087D02*
X013702Y004087D01*
X013702Y004046D02*
X013702Y004506D01*
X014162Y004506D01*
X014162Y004327D01*
X013881Y004046D01*
X013702Y004046D01*
X013702Y004245D02*
X013662Y004245D01*
X013662Y004404D02*
X013702Y004404D01*
X013702Y004546D02*
X013702Y005006D01*
X013881Y005006D01*
X014162Y004725D01*
X014162Y004546D01*
X013702Y004546D01*
X013702Y004563D02*
X013662Y004563D01*
X013662Y004546D02*
X013202Y004546D01*
X013202Y004725D01*
X013483Y005006D01*
X013662Y005006D01*
X013662Y004546D01*
X013662Y004721D02*
X013702Y004721D01*
X013702Y004880D02*
X013662Y004880D01*
X013357Y004880D02*
X008717Y004880D01*
X008876Y005038D02*
X028300Y005038D01*
X028332Y005097D02*
X028332Y005097D01*
X028399Y005197D02*
X015032Y005197D01*
X015162Y005327D02*
X015162Y005506D01*
X014702Y005506D01*
X014702Y005046D01*
X014881Y005046D01*
X015162Y005327D01*
X015162Y005355D02*
X028530Y005355D01*
X028503Y005328D02*
X028503Y005328D01*
X028503Y005328D01*
X028604Y005431D02*
X028604Y005431D01*
X028701Y005514D02*
X014162Y005514D01*
X014202Y005506D02*
X014662Y005506D01*
X014662Y005046D01*
X014483Y005046D01*
X014202Y005327D01*
X014202Y005506D01*
X014202Y005546D02*
X014202Y005725D01*
X014483Y006006D01*
X014662Y006006D01*
X014662Y005546D01*
X014202Y005546D01*
X014202Y005672D02*
X014162Y005672D01*
X014056Y005831D02*
X014308Y005831D01*
X014467Y005989D02*
X013897Y005989D01*
X013983Y006148D02*
X014381Y006148D01*
X014223Y006306D02*
X014144Y006306D01*
X014662Y006306D02*
X014702Y006306D01*
X014702Y006148D02*
X014662Y006148D01*
X014702Y006006D02*
X014881Y006006D01*
X015162Y005725D01*
X015162Y005546D01*
X014702Y005546D01*
X014702Y006006D01*
X014702Y005989D02*
X014662Y005989D01*
X014662Y005831D02*
X014702Y005831D01*
X014702Y005672D02*
X014662Y005672D01*
X014662Y005355D02*
X014702Y005355D01*
X014702Y005197D02*
X014662Y005197D01*
X014662Y005006D02*
X014662Y004546D01*
X014202Y004546D01*
X014202Y004725D01*
X014483Y005006D01*
X014662Y005006D01*
X014702Y005006D02*
X014881Y005006D01*
X015162Y004725D01*
X015162Y004546D01*
X014702Y004546D01*
X014702Y005006D01*
X014702Y004880D02*
X014662Y004880D01*
X014662Y004721D02*
X014702Y004721D01*
X014702Y004563D02*
X014662Y004563D01*
X014662Y004506D02*
X014662Y004046D01*
X014483Y004046D01*
X014202Y004327D01*
X014202Y004506D01*
X014662Y004506D01*
X014702Y004506D02*
X015162Y004506D01*
X015162Y004327D01*
X014881Y004046D01*
X014702Y004046D01*
X014702Y004506D01*
X014702Y004404D02*
X014662Y004404D01*
X014662Y004245D02*
X014702Y004245D01*
X014702Y004087D02*
X014662Y004087D01*
X014442Y004087D02*
X013922Y004087D01*
X014080Y004245D02*
X014284Y004245D01*
X014202Y004404D02*
X014162Y004404D01*
X014162Y004563D02*
X014202Y004563D01*
X014202Y004721D02*
X014162Y004721D01*
X014007Y004880D02*
X014357Y004880D01*
X014332Y005197D02*
X014032Y005197D01*
X014162Y005355D02*
X014202Y005355D01*
X015007Y004880D02*
X028223Y004880D01*
X028206Y004839D02*
X028206Y004839D01*
X028167Y004721D02*
X015162Y004721D01*
X015162Y004563D02*
X028128Y004563D01*
X028128Y004562D02*
X028128Y004562D01*
X028161Y004702D02*
X028161Y004702D01*
X028263Y004971D02*
X028263Y004971D01*
X028412Y005216D02*
X028412Y005216D01*
X028944Y005672D02*
X022507Y005672D01*
X022381Y005546D02*
X022662Y005827D01*
X022662Y006006D01*
X022202Y006006D01*
X022202Y005546D01*
X022381Y005546D01*
X022202Y005672D02*
X022162Y005672D01*
X022162Y005546D02*
X021983Y005546D01*
X021702Y005827D01*
X021702Y006006D01*
X022162Y006006D01*
X022162Y005546D01*
X022162Y005831D02*
X022202Y005831D01*
X022202Y005989D02*
X022162Y005989D01*
X022162Y006148D02*
X022202Y006148D01*
X022662Y006148D02*
X034381Y006148D01*
X034483Y006006D02*
X034202Y005725D01*
X034202Y005546D01*
X034662Y005546D01*
X034662Y006006D01*
X034483Y006006D01*
X034467Y005989D02*
X022662Y005989D01*
X022662Y005831D02*
X029411Y005831D01*
X029956Y005831D02*
X034308Y005831D01*
X034202Y005672D02*
X030418Y005672D01*
X030472Y005644D02*
X030472Y005644D01*
X030908Y005273D02*
X030908Y005273D01*
X031068Y005034D02*
X031068Y005034D01*
X028206Y003713D02*
X028206Y003713D01*
X028187Y003770D02*
X007607Y003770D01*
X007766Y003928D02*
X028142Y003928D01*
X028128Y003990D02*
X028128Y003990D01*
X028115Y004087D02*
X014922Y004087D01*
X015080Y004245D02*
X028103Y004245D01*
X028109Y004132D02*
X028109Y004132D01*
X028108Y004404D02*
X015162Y004404D01*
X015009Y003656D02*
X015009Y003656D01*
X015053Y003611D02*
X015172Y003611D01*
X015698Y003611D02*
X015817Y003611D01*
X016298Y003656D02*
X016298Y003656D01*
X016343Y003611D02*
X016461Y003611D01*
X016942Y003656D02*
X016942Y003656D01*
X016987Y003611D02*
X017197Y003611D01*
X017034Y003564D02*
X017034Y003564D01*
X017723Y003611D02*
X018025Y003611D01*
X017898Y003453D02*
X017857Y003453D01*
X018645Y003611D02*
X018670Y003611D01*
X019012Y003611D02*
X020236Y003611D01*
X020763Y003611D02*
X020774Y003611D01*
X021116Y003611D02*
X023074Y003611D01*
X022947Y003453D02*
X022747Y003453D01*
X022179Y003453D02*
X022103Y003453D01*
X021810Y003453D02*
X021736Y003453D01*
X021443Y003453D02*
X021366Y003453D01*
X021438Y002588D02*
X021438Y002588D01*
X021352Y002501D02*
X021549Y002501D01*
X021346Y002496D02*
X021346Y002496D01*
X020813Y002501D02*
X020723Y002501D01*
X020346Y002493D02*
X020346Y002493D01*
X019642Y002501D02*
X019526Y002501D01*
X019079Y002501D02*
X018973Y002501D01*
X018709Y002501D02*
X018606Y002501D01*
X018342Y002501D02*
X017962Y002501D01*
X018102Y002660D02*
X018184Y002660D01*
X017698Y002501D02*
X017501Y002501D01*
X017145Y002501D02*
X016948Y002501D01*
X017034Y002588D02*
X017034Y002588D01*
X016500Y002501D02*
X016303Y002501D01*
X016389Y002588D02*
X016389Y002588D01*
X015856Y002501D02*
X015659Y002501D01*
X015653Y002496D02*
X015653Y002496D01*
X015211Y002501D02*
X015014Y002501D01*
X015100Y002588D02*
X015100Y002588D01*
X014475Y002501D02*
X008512Y002501D01*
X008512Y002660D02*
X014317Y002660D01*
X014302Y002819D02*
X008512Y002819D01*
X008512Y002977D02*
X014302Y002977D01*
X014302Y003136D02*
X008512Y003136D01*
X008380Y003294D02*
X014302Y003294D01*
X014302Y003453D02*
X006433Y003453D01*
X006433Y003611D02*
X014436Y003611D01*
X013284Y004245D02*
X008083Y004245D01*
X008241Y004404D02*
X013202Y004404D01*
X013202Y004563D02*
X008400Y004563D01*
X008559Y004721D02*
X013202Y004721D01*
X013332Y005197D02*
X009034Y005197D01*
X007120Y006782D02*
X013260Y006782D01*
X013418Y006941D02*
X007278Y006941D01*
X007437Y007099D02*
X013430Y007099D01*
X013934Y007099D02*
X014074Y007099D01*
X014095Y007258D02*
X014233Y007258D01*
X014662Y007416D02*
X014702Y007416D01*
X014702Y007575D02*
X014662Y007575D01*
X015162Y007575D02*
X020954Y007575D01*
X020894Y007416D02*
X015162Y007416D01*
X015131Y007258D02*
X020735Y007258D01*
X020702Y007099D02*
X015290Y007099D01*
X015448Y006941D02*
X020702Y006941D01*
X021629Y007258D02*
X021735Y007258D01*
X021702Y007099D02*
X021662Y007099D01*
X021662Y006941D02*
X021702Y006941D01*
X021702Y006148D02*
X021662Y006148D01*
X021662Y006006D02*
X021662Y005827D01*
X021381Y005546D01*
X021202Y005546D01*
X021202Y006006D01*
X021662Y006006D01*
X021662Y005989D02*
X021702Y005989D01*
X021702Y005831D02*
X021662Y005831D01*
X021507Y005672D02*
X021857Y005672D01*
X021202Y005672D02*
X021162Y005672D01*
X021162Y005546D02*
X020983Y005546D01*
X020702Y005827D01*
X020702Y006006D01*
X021162Y006006D01*
X021162Y005546D01*
X021162Y005831D02*
X021202Y005831D01*
X021202Y005989D02*
X021162Y005989D01*
X021162Y006148D02*
X021202Y006148D01*
X020702Y006148D02*
X014983Y006148D01*
X014897Y005989D02*
X020702Y005989D01*
X020702Y005831D02*
X015056Y005831D01*
X015162Y005672D02*
X020857Y005672D01*
X019709Y003453D02*
X019540Y003453D01*
X022088Y002501D02*
X022102Y002501D01*
X022641Y002501D02*
X022747Y002501D01*
X023010Y002501D02*
X023391Y002501D01*
X023232Y002660D02*
X023151Y002660D01*
X023655Y002501D02*
X024127Y002501D01*
X023969Y002660D02*
X023813Y002660D01*
X024569Y002496D02*
X024569Y002496D01*
X024575Y002501D02*
X024680Y002501D01*
X025219Y002501D02*
X025325Y002501D01*
X025772Y002501D02*
X025862Y002501D01*
X026395Y002496D02*
X026395Y002496D01*
X026401Y002501D02*
X026598Y002501D01*
X026487Y002588D02*
X026487Y002588D01*
X027137Y002501D02*
X027151Y002501D01*
X027684Y002496D02*
X027684Y002496D01*
X027955Y002819D02*
X029073Y002819D01*
X029086Y002813D02*
X029086Y002813D01*
X028785Y002977D02*
X027955Y002977D01*
X027955Y003136D02*
X028589Y003136D01*
X028604Y003121D02*
X028604Y003121D01*
X028713Y003028D02*
X028713Y003028D01*
X028503Y003224D02*
X028503Y003224D01*
X028446Y003294D02*
X027955Y003294D01*
X027796Y003453D02*
X028334Y003453D01*
X028332Y003455D02*
X028332Y003455D01*
X028412Y003336D02*
X028412Y003336D01*
X028250Y003611D02*
X026165Y003611D01*
X026415Y003453D02*
X026492Y003453D01*
X026784Y003453D02*
X026859Y003453D01*
X027151Y003453D02*
X027228Y003453D01*
X028161Y003850D02*
X028161Y003850D01*
X025822Y003611D02*
X025811Y003611D01*
X025285Y003611D02*
X023969Y003611D01*
X024016Y003564D02*
X024016Y003564D01*
X024589Y003453D02*
X024757Y003453D01*
X022202Y007733D02*
X022162Y007733D01*
X022162Y007892D02*
X022202Y007892D01*
X022202Y008050D02*
X022162Y008050D01*
X022162Y008209D02*
X022202Y008209D01*
X022202Y008368D02*
X022162Y008368D01*
X022162Y008685D02*
X022202Y008685D01*
X022202Y008843D02*
X022162Y008843D01*
X022162Y009002D02*
X022202Y009002D01*
X022202Y009160D02*
X022162Y009160D01*
X022162Y009319D02*
X022202Y009319D01*
X022568Y009319D02*
X034210Y009319D01*
X034369Y009160D02*
X022662Y009160D01*
X022662Y009002D02*
X034479Y009002D01*
X034321Y008843D02*
X022662Y008843D01*
X021162Y009546D02*
X020983Y009546D01*
X020702Y009827D01*
X020702Y010006D01*
X021162Y010006D01*
X021162Y009546D01*
X021162Y009636D02*
X021202Y009636D01*
X021202Y009794D02*
X021162Y009794D01*
X021162Y009953D02*
X021202Y009953D01*
X021202Y010112D02*
X021162Y010112D01*
X020702Y010112D02*
X014947Y010112D01*
X014881Y010046D02*
X015162Y010327D01*
X015162Y010506D01*
X014702Y010506D01*
X014702Y010046D01*
X014881Y010046D01*
X014881Y010006D02*
X015162Y009725D01*
X015162Y009546D01*
X014702Y009546D01*
X014702Y010006D01*
X014881Y010006D01*
X014934Y009953D02*
X020702Y009953D01*
X020735Y009794D02*
X015092Y009794D01*
X015162Y009636D02*
X020893Y009636D01*
X020955Y009477D02*
X015162Y009477D01*
X014702Y009477D02*
X014662Y009477D01*
X014662Y009636D02*
X014702Y009636D01*
X014702Y009794D02*
X014662Y009794D01*
X014662Y009953D02*
X014702Y009953D01*
X014662Y010046D02*
X014483Y010046D01*
X014202Y010327D01*
X014202Y010506D01*
X014662Y010506D01*
X014662Y010046D01*
X014662Y010112D02*
X014702Y010112D01*
X014702Y010270D02*
X014662Y010270D01*
X014662Y010429D02*
X014702Y010429D01*
X014702Y010546D02*
X014702Y011006D01*
X014881Y011006D01*
X015162Y010725D01*
X015162Y010546D01*
X014702Y010546D01*
X014662Y010546D02*
X014202Y010546D01*
X014202Y010725D01*
X014483Y011006D01*
X014662Y011006D01*
X014662Y010546D01*
X014662Y010587D02*
X014702Y010587D01*
X014702Y010746D02*
X014662Y010746D01*
X014662Y010904D02*
X014702Y010904D01*
X014662Y011046D02*
X014483Y011046D01*
X014202Y011327D01*
X014202Y011506D01*
X014662Y011506D01*
X014662Y011046D01*
X014662Y011063D02*
X014702Y011063D01*
X014702Y011221D02*
X014662Y011221D01*
X014662Y011380D02*
X014702Y011380D01*
X014702Y011697D02*
X014662Y011697D01*
X014988Y011538D02*
X014162Y011538D01*
X014162Y011380D02*
X014202Y011380D01*
X014308Y011221D02*
X014056Y011221D01*
X013898Y011063D02*
X014466Y011063D01*
X014382Y010904D02*
X013982Y010904D01*
X013881Y011006D02*
X014162Y010725D01*
X014162Y010327D01*
X013881Y010046D01*
X013483Y010046D01*
X013202Y010327D01*
X013202Y010725D01*
X013483Y011006D01*
X013881Y011006D01*
X014141Y010746D02*
X014223Y010746D01*
X014202Y010587D02*
X014162Y010587D01*
X014162Y010429D02*
X014202Y010429D01*
X014259Y010270D02*
X014105Y010270D01*
X013947Y010112D02*
X014418Y010112D01*
X014430Y009953D02*
X013934Y009953D01*
X014095Y009794D02*
X014272Y009794D01*
X015105Y010270D02*
X016256Y010270D01*
X016098Y010429D02*
X015162Y010429D01*
X015162Y010587D02*
X015939Y010587D01*
X015781Y010746D02*
X015141Y010746D01*
X014982Y010904D02*
X015622Y010904D01*
X015464Y011063D02*
X014898Y011063D01*
X015056Y011221D02*
X015305Y011221D01*
X016168Y011221D02*
X020702Y011221D01*
X020702Y011063D02*
X016326Y011063D01*
X016485Y010904D02*
X020702Y010904D01*
X021507Y011380D02*
X021857Y011380D01*
X021983Y011506D02*
X021702Y011225D01*
X021702Y011046D01*
X022162Y011046D01*
X022162Y011506D01*
X021983Y011506D01*
X021983Y011546D02*
X021702Y011827D01*
X021702Y012006D01*
X022162Y012006D01*
X022162Y011546D01*
X021983Y011546D01*
X021832Y011697D02*
X021532Y011697D01*
X021662Y011827D02*
X021381Y011546D01*
X021202Y011546D01*
X021202Y012006D01*
X021662Y012006D01*
X021662Y011827D01*
X021662Y011856D02*
X021702Y011856D01*
X021702Y012173D02*
X021662Y012173D01*
X021202Y012173D02*
X021162Y012173D01*
X021162Y011856D02*
X021202Y011856D01*
X021202Y011697D02*
X021162Y011697D01*
X021662Y011221D02*
X021702Y011221D01*
X021702Y011063D02*
X021662Y011063D01*
X021662Y010904D02*
X021702Y010904D01*
X022162Y010904D02*
X022202Y010904D01*
X022202Y011046D02*
X022202Y011506D01*
X022381Y011506D01*
X022662Y011225D01*
X022662Y011046D01*
X022202Y011046D01*
X022202Y011063D02*
X022162Y011063D01*
X022162Y011221D02*
X022202Y011221D01*
X022202Y011380D02*
X022162Y011380D01*
X022202Y011546D02*
X022202Y012006D01*
X022662Y012006D01*
X022662Y011827D01*
X022381Y011546D01*
X022202Y011546D01*
X022202Y011697D02*
X022162Y011697D01*
X022162Y011856D02*
X022202Y011856D01*
X022202Y012173D02*
X022162Y012173D01*
X022662Y012173D02*
X034356Y012173D01*
X034483Y012006D02*
X034202Y011725D01*
X034202Y011546D01*
X034662Y011546D01*
X034662Y012006D01*
X034483Y012006D01*
X034333Y011856D02*
X022662Y011856D01*
X022532Y011697D02*
X034202Y011697D01*
X034202Y011506D02*
X034662Y011506D01*
X034662Y011046D01*
X034483Y011046D01*
X034202Y011327D01*
X034202Y011506D01*
X034202Y011380D02*
X022507Y011380D01*
X022662Y011221D02*
X034308Y011221D01*
X034466Y011063D02*
X022662Y011063D01*
X022662Y010904D02*
X034382Y010904D01*
X034662Y011063D02*
X034702Y011063D01*
X034702Y011221D02*
X034662Y011221D01*
X034662Y011380D02*
X034702Y011380D01*
X034702Y011697D02*
X034662Y011697D01*
X034662Y011856D02*
X034702Y011856D01*
X034443Y012965D02*
X022662Y012965D01*
X022662Y013046D02*
X022202Y013046D01*
X022202Y013506D01*
X022381Y013506D01*
X022662Y013225D01*
X022662Y013046D01*
X022662Y013124D02*
X034405Y013124D01*
X034483Y013046D02*
X034202Y013327D01*
X034202Y013506D01*
X034662Y013506D01*
X034662Y013046D01*
X034483Y013046D01*
X034662Y013124D02*
X034702Y013124D01*
X034702Y013282D02*
X034662Y013282D01*
X034662Y013441D02*
X034702Y013441D01*
X034662Y013546D02*
X034202Y013546D01*
X034202Y013725D01*
X034483Y014006D01*
X034662Y014006D01*
X034662Y013546D01*
X034662Y013599D02*
X034702Y013599D01*
X034702Y013758D02*
X034662Y013758D01*
X034662Y013917D02*
X034702Y013917D01*
X034454Y014075D02*
X022662Y014075D01*
X022662Y014006D02*
X022662Y013827D01*
X022381Y013546D01*
X022202Y013546D01*
X022202Y014006D01*
X022662Y014006D01*
X022662Y013917D02*
X034394Y013917D01*
X034235Y013758D02*
X022593Y013758D01*
X022434Y013599D02*
X034202Y013599D01*
X034202Y013441D02*
X022446Y013441D01*
X022604Y013282D02*
X034247Y013282D01*
X034345Y014868D02*
X022662Y014868D01*
X022662Y015046D02*
X022202Y015046D01*
X022202Y015506D01*
X022381Y015506D01*
X022662Y015225D01*
X022662Y015046D01*
X022662Y015185D02*
X034344Y015185D01*
X034483Y015046D02*
X034202Y015327D01*
X034202Y015506D01*
X034662Y015506D01*
X034662Y015046D01*
X034483Y015046D01*
X034662Y015185D02*
X034702Y015185D01*
X034702Y015343D02*
X034662Y015343D01*
X034662Y015502D02*
X034702Y015502D01*
X034662Y015546D02*
X034202Y015546D01*
X034202Y015725D01*
X034483Y016006D01*
X034662Y016006D01*
X034662Y015546D01*
X034662Y015661D02*
X034702Y015661D01*
X034702Y015819D02*
X034662Y015819D01*
X034662Y015978D02*
X034702Y015978D01*
X034455Y015978D02*
X022662Y015978D01*
X022662Y016006D02*
X022662Y015827D01*
X022381Y015546D01*
X022202Y015546D01*
X022202Y016006D01*
X022662Y016006D01*
X022662Y016136D02*
X034393Y016136D01*
X034297Y015819D02*
X022654Y015819D01*
X022496Y015661D02*
X034202Y015661D01*
X034202Y015502D02*
X022385Y015502D01*
X022202Y015502D02*
X022162Y015502D01*
X022162Y015661D02*
X022202Y015661D01*
X022202Y015819D02*
X022162Y015819D01*
X022162Y015978D02*
X022202Y015978D01*
X022202Y016136D02*
X022162Y016136D01*
X021702Y016136D02*
X021662Y016136D01*
X021662Y015978D02*
X021702Y015978D01*
X021710Y015819D02*
X021654Y015819D01*
X021202Y015819D02*
X021162Y015819D01*
X021162Y015978D02*
X021202Y015978D01*
X021202Y016136D02*
X021162Y016136D01*
X021662Y016929D02*
X021702Y016929D01*
X021702Y017087D02*
X021662Y017087D01*
X021641Y017246D02*
X021723Y017246D01*
X021202Y017563D02*
X021162Y017563D01*
X021162Y017722D02*
X021202Y017722D01*
X021202Y017880D02*
X021162Y017880D01*
X021162Y018197D02*
X021202Y018197D01*
X022162Y018197D02*
X022202Y018197D01*
X022202Y017880D02*
X022162Y017880D01*
X022162Y017722D02*
X022202Y017722D01*
X022662Y018197D02*
X034332Y018197D01*
X035162Y018673D02*
X035202Y018673D01*
X035309Y018831D02*
X035055Y018831D01*
X034897Y018990D02*
X035467Y018990D01*
X035381Y019149D02*
X034984Y019149D01*
X035142Y019307D02*
X035222Y019307D01*
X035202Y019466D02*
X035162Y019466D01*
X035162Y019624D02*
X035202Y019624D01*
X035260Y019783D02*
X035104Y019783D01*
X034945Y019941D02*
X035419Y019941D01*
X035429Y020100D02*
X034935Y020100D01*
X035093Y020258D02*
X035271Y020258D01*
X035202Y020417D02*
X035162Y020417D01*
X035162Y020575D02*
X035202Y020575D01*
X035211Y020734D02*
X035153Y020734D01*
X034994Y020892D02*
X035370Y020892D01*
X035478Y021051D02*
X034886Y021051D01*
X035045Y021210D02*
X035319Y021210D01*
X035202Y021368D02*
X035162Y021368D01*
X034321Y021844D02*
X022662Y021844D01*
X022662Y022002D02*
X034480Y022002D01*
X034202Y021685D02*
X022520Y021685D01*
X022662Y022161D02*
X049852Y022161D01*
X049852Y022319D02*
X022567Y022319D01*
X020702Y021210D02*
X015180Y021210D01*
X015338Y021051D02*
X020702Y021051D01*
X020702Y020892D02*
X015497Y020892D01*
X015655Y020734D02*
X020795Y020734D01*
X020954Y020575D02*
X015814Y020575D01*
X015972Y020417D02*
X020894Y020417D01*
X016012Y018514D02*
X014375Y018514D01*
X014309Y018831D02*
X014055Y018831D01*
X013897Y018990D02*
X014467Y018990D01*
X014483Y019046D02*
X014202Y019327D01*
X014202Y019506D01*
X014662Y019506D01*
X014662Y019046D01*
X014483Y019046D01*
X014381Y019149D02*
X013984Y019149D01*
X014142Y019307D02*
X014222Y019307D01*
X014202Y019466D02*
X014162Y019466D01*
X014162Y019624D02*
X014202Y019624D01*
X014244Y019783D02*
X014104Y019783D01*
X014085Y019941D02*
X013945Y019941D01*
X014662Y019624D02*
X014702Y019624D01*
X014702Y019466D02*
X014662Y019466D01*
X014662Y019307D02*
X014702Y019307D01*
X014702Y019149D02*
X014662Y019149D01*
X014702Y019006D02*
X014881Y019006D01*
X015162Y018725D01*
X015162Y018546D01*
X014702Y018546D01*
X014702Y019006D01*
X014702Y018990D02*
X014662Y018990D01*
X014662Y018831D02*
X014702Y018831D01*
X014702Y018673D02*
X014662Y018673D01*
X014662Y018356D02*
X014702Y018356D01*
X015162Y018673D02*
X015854Y018673D01*
X015695Y018831D02*
X015055Y018831D01*
X014897Y018990D02*
X015537Y018990D01*
X015378Y019149D02*
X014984Y019149D01*
X015142Y019307D02*
X015220Y019307D01*
X013442Y017087D02*
X006423Y017087D01*
X006423Y016929D02*
X013406Y016929D01*
X013248Y016770D02*
X006182Y016770D01*
X006433Y016612D02*
X013202Y016612D01*
X013202Y016453D02*
X006433Y016453D01*
X006433Y016295D02*
X013234Y016295D01*
X013393Y016136D02*
X006182Y016136D01*
X006433Y015978D02*
X013455Y015978D01*
X013909Y015978D02*
X014049Y015978D01*
X014068Y015819D02*
X014207Y015819D01*
X013344Y015185D02*
X006522Y015185D01*
X006433Y013758D02*
X006983Y013758D01*
X006824Y013599D02*
X006182Y013599D01*
X006433Y013441D02*
X006666Y013441D01*
X006507Y013282D02*
X006433Y013282D01*
X006894Y012807D02*
X013284Y012807D01*
X013202Y012648D02*
X006736Y012648D01*
X006577Y012490D02*
X013202Y012490D01*
X013202Y012331D02*
X006433Y012331D01*
X006433Y012173D02*
X013356Y012173D01*
X013333Y011856D02*
X006368Y011856D01*
X006367Y011697D02*
X007422Y011697D01*
X007263Y011538D02*
X006433Y011538D01*
X006433Y011380D02*
X007105Y011380D01*
X006946Y011221D02*
X006182Y011221D01*
X006433Y011063D02*
X006788Y011063D01*
X006629Y010904D02*
X006433Y010904D01*
X006433Y010746D02*
X006471Y010746D01*
X007016Y010429D02*
X013202Y010429D01*
X013202Y010587D02*
X007175Y010587D01*
X007333Y010746D02*
X013223Y010746D01*
X013382Y010904D02*
X007492Y010904D01*
X007650Y011063D02*
X013466Y011063D01*
X014162Y011697D02*
X014202Y011697D01*
X014171Y011856D02*
X014031Y011856D01*
X014013Y012014D02*
X006433Y012014D01*
X007053Y012965D02*
X013443Y012965D01*
X013405Y013124D02*
X007211Y013124D01*
X006858Y010270D02*
X013259Y010270D01*
X013418Y010112D02*
X006699Y010112D01*
X006541Y009953D02*
X013430Y009953D01*
X013885Y009002D02*
X014025Y009002D01*
X014043Y008843D02*
X014183Y008843D01*
X014202Y008685D02*
X014162Y008685D01*
X014662Y008685D02*
X014702Y008685D01*
X014702Y008368D02*
X014662Y008368D01*
X015162Y008368D02*
X020845Y008368D01*
X020844Y008685D02*
X015162Y008685D01*
X014702Y006624D02*
X014662Y006624D01*
X014662Y006465D02*
X014702Y006465D01*
X015141Y006306D02*
X015220Y006306D01*
X021662Y012965D02*
X021702Y012965D01*
X021702Y013046D02*
X021702Y013225D01*
X021983Y013506D01*
X022162Y013506D01*
X022162Y013046D01*
X021702Y013046D01*
X021702Y013124D02*
X021662Y013124D01*
X021604Y013282D02*
X021760Y013282D01*
X021918Y013441D02*
X021446Y013441D01*
X021434Y013599D02*
X021930Y013599D01*
X021983Y013546D02*
X021702Y013827D01*
X021702Y014006D01*
X022162Y014006D01*
X022162Y013546D01*
X021983Y013546D01*
X022162Y013599D02*
X022202Y013599D01*
X022202Y013441D02*
X022162Y013441D01*
X022162Y013282D02*
X022202Y013282D01*
X022202Y013124D02*
X022162Y013124D01*
X022162Y012965D02*
X022202Y012965D01*
X022202Y013758D02*
X022162Y013758D01*
X022162Y013917D02*
X022202Y013917D01*
X022202Y014075D02*
X022162Y014075D01*
X021702Y014075D02*
X021662Y014075D01*
X021662Y013917D02*
X021702Y013917D01*
X021771Y013758D02*
X021593Y013758D01*
X022162Y014868D02*
X022202Y014868D01*
X022202Y015185D02*
X022162Y015185D01*
X022162Y015343D02*
X022202Y015343D01*
X022543Y015343D02*
X034202Y015343D01*
X035662Y014868D02*
X035702Y014868D01*
X035321Y008843D02*
X035043Y008843D01*
X035162Y008685D02*
X035202Y008685D01*
X034702Y005989D02*
X034662Y005989D01*
X034662Y005831D02*
X034702Y005831D01*
X034702Y005672D02*
X034662Y005672D01*
X034662Y005355D02*
X034702Y005355D01*
X034702Y005197D02*
X034662Y005197D01*
X014702Y013441D02*
X014662Y013441D01*
X014662Y013599D02*
X014702Y013599D01*
X013321Y021844D02*
X006346Y021844D01*
X006423Y022002D02*
X013480Y022002D01*
X013368Y022161D02*
X006423Y022161D01*
X006182Y022319D02*
X013210Y022319D01*
X013202Y022478D02*
X006423Y022478D01*
X006423Y022636D02*
X013202Y022636D01*
X013272Y022795D02*
X006423Y022795D01*
X006340Y022954D02*
X013431Y022954D01*
X013483Y023046D02*
X013202Y023327D01*
X013202Y023506D01*
X013662Y023506D01*
X013662Y023046D01*
X013483Y023046D01*
X013417Y023112D02*
X006379Y023112D01*
X006433Y023271D02*
X013258Y023271D01*
X013202Y023429D02*
X006433Y023429D01*
X006433Y023588D02*
X013202Y023588D01*
X013202Y023546D02*
X013202Y023725D01*
X013483Y024006D01*
X013662Y024006D01*
X013662Y023546D01*
X013202Y023546D01*
X013224Y023746D02*
X006433Y023746D01*
X006433Y023905D02*
X013382Y023905D01*
X013662Y023905D02*
X013702Y023905D01*
X013702Y024006D02*
X013702Y023546D01*
X014162Y023546D01*
X014162Y023725D01*
X013881Y024006D01*
X013702Y024006D01*
X013702Y023746D02*
X013662Y023746D01*
X013662Y023588D02*
X013702Y023588D01*
X013702Y023429D02*
X013662Y023429D01*
X013662Y023271D02*
X013702Y023271D01*
X013702Y023112D02*
X013662Y023112D01*
X014106Y023271D02*
X014258Y023271D01*
X014202Y023429D02*
X014162Y023429D01*
X014202Y023546D02*
X014202Y023725D01*
X014483Y024006D01*
X014662Y024006D01*
X014662Y023546D01*
X014202Y023546D01*
X014202Y023588D02*
X014162Y023588D01*
X014140Y023746D02*
X014224Y023746D01*
X014382Y023905D02*
X013982Y023905D01*
X014662Y023905D02*
X014702Y023905D01*
X014702Y024006D02*
X014702Y023546D01*
X015162Y023546D01*
X015162Y023725D01*
X014881Y024006D01*
X014702Y024006D01*
X014702Y023746D02*
X014662Y023746D01*
X014662Y023588D02*
X014702Y023588D01*
X014702Y023429D02*
X014662Y023429D01*
X014662Y023271D02*
X014702Y023271D01*
X014947Y023112D02*
X028614Y023112D01*
X028604Y023121D02*
X028604Y023121D01*
X028465Y023271D02*
X015106Y023271D01*
X015162Y023429D02*
X028349Y023429D01*
X028260Y023588D02*
X015162Y023588D01*
X015140Y023746D02*
X028195Y023746D01*
X028148Y023905D02*
X014982Y023905D01*
X014933Y022954D02*
X028818Y022954D01*
X028118Y024063D02*
X006433Y024063D01*
M02*
