%
M48
M72
T01C0.0320
T02C0.0400
T03C0.1250
%
T01
X5100Y5260
X6100Y5260
X7100Y5260
X8100Y5260
X9100Y5260
X10100Y5260
X11100Y5260
X13100Y6260
X15100Y5260
X16100Y5260
X17100Y5260
X18100Y5260
X19100Y5260
X20100Y5260
X21100Y5260
X21100Y8260
X20100Y8260
X19100Y8260
X18100Y8260
X17100Y8260
X16100Y8260
X15100Y8260
X13100Y8260
X11100Y8260
X10100Y8260
X9100Y8260
X8100Y8260
X7100Y8260
X6100Y8260
X5100Y8260
X15100Y11260
X16100Y11260
X17100Y11260
X18100Y11260
X19100Y11260
X20100Y11260
X21100Y11260
X21100Y14260
X20100Y14260
X19100Y14260
X18100Y14260
X17100Y14260
X16100Y14260
X15100Y14260
X19100Y15760
X21100Y15760
X21100Y17260
X20100Y17260
X19100Y17260
X18100Y17260
X17100Y17260
X16100Y17260
X15100Y17260
X13100Y18260
X11100Y17260
X8100Y17260
X5100Y17260
X5100Y17260
X5100Y20260
X5100Y20260
X8100Y20260
X11100Y20260
X13100Y20260
X15100Y20260
X16100Y20260
X17100Y20260
X18100Y20260
X19100Y20260
X20100Y20260
X21100Y20260
X32100Y20260
X34100Y20260
X35100Y20260
X36100Y20260
X37100Y20260
X38100Y20260
X39100Y20260
X40100Y20260
X40100Y17260
X39100Y17260
X38100Y17260
X37100Y17260
X36100Y17260
X35100Y17260
X34100Y17260
X32100Y18260
X38100Y8260
X38100Y6260
X37100Y6260
X36100Y6260
X35100Y6260
X34100Y6260
X32100Y6260
X30600Y6260
X32100Y4260
X34100Y3260
X35100Y3260
X36100Y3260
X37100Y3260
X38100Y3260
X39100Y3260
X40100Y3260
X40100Y6260
X39100Y6260
X42100Y8260
X30600Y2260
T02
X25100Y6760
X24100Y6760
X24100Y7760
X25100Y7760
X25100Y8760
X24100Y8760
X24100Y9760
X25100Y9760
X25100Y10760
X24100Y10760
X24100Y11760
X25100Y11760
X25100Y12760
X24100Y12760
X24100Y13760
X25100Y13760
X25100Y14760
X24100Y14760
X24100Y15760
X25100Y15760
X25100Y16760
X24100Y16760
X24100Y17760
X25100Y17760
X25100Y18760
X24100Y18760
X30650Y8260
X36550Y8260
T03
X2100Y2510
X2100Y22510
M30
