G75*
%MOIN*%
%OFA0B0*%
%FSLAX24Y24*%
%IPPOS*%
%LPD*%
%AMOC8*
5,1,8,0,0,1.08239X$1,22.5*
%
%ADD10OC8,0.0624*%
%ADD11C,0.1500*%
%ADD12OC8,0.0672*%
%ADD13OC8,0.0720*%
D10*
X010000Y011500D03*
X011000Y011500D03*
X012000Y011500D03*
X013000Y011500D03*
X014000Y011500D03*
X015000Y011500D03*
X016000Y011500D03*
X018000Y011500D03*
X018000Y013500D03*
X016000Y014500D03*
X015000Y014500D03*
X014000Y014500D03*
X013000Y014500D03*
X012000Y014500D03*
X011000Y014500D03*
X010000Y014500D03*
X009000Y017000D03*
X010000Y019000D03*
X011000Y019000D03*
X012000Y019000D03*
X013000Y019000D03*
X014000Y019000D03*
X015000Y019000D03*
X016000Y019000D03*
X018000Y019000D03*
X019500Y019000D03*
X018000Y021000D03*
X016000Y022000D03*
X015000Y022000D03*
X014000Y022000D03*
X013000Y022000D03*
X012000Y022000D03*
X011000Y022000D03*
X010000Y022000D03*
X019500Y023000D03*
X029000Y020000D03*
X030000Y020000D03*
X031000Y020000D03*
X032000Y020000D03*
X033000Y020000D03*
X034000Y020000D03*
X035000Y020000D03*
X037000Y019000D03*
X039000Y020000D03*
X040000Y020000D03*
X041000Y020000D03*
X042000Y020000D03*
X043000Y020000D03*
X044000Y020000D03*
X045000Y020000D03*
X045000Y017000D03*
X044000Y017000D03*
X043000Y017000D03*
X042000Y017000D03*
X041000Y017000D03*
X040000Y017000D03*
X039000Y017000D03*
X037000Y017000D03*
X035000Y017000D03*
X034000Y017000D03*
X033000Y017000D03*
X032000Y017000D03*
X031000Y017000D03*
X030000Y017000D03*
X029000Y017000D03*
X029000Y014000D03*
X030000Y014000D03*
X031000Y014000D03*
X032000Y014000D03*
X033000Y014000D03*
X034000Y014000D03*
X035000Y014000D03*
X035000Y011000D03*
X034000Y011000D03*
X033000Y011000D03*
X032000Y011000D03*
X031000Y011000D03*
X030000Y011000D03*
X029000Y011000D03*
X029000Y009500D03*
X031000Y009500D03*
X031000Y008000D03*
X030000Y008000D03*
X029000Y008000D03*
X032000Y008000D03*
X033000Y008000D03*
X034000Y008000D03*
X035000Y008000D03*
X037000Y007000D03*
X039000Y008000D03*
X039000Y008000D03*
X042000Y008000D03*
X045000Y008000D03*
X045000Y005000D03*
X042000Y005000D03*
X039000Y005000D03*
X039000Y005000D03*
X037000Y005000D03*
X035000Y005000D03*
X034000Y005000D03*
X033000Y005000D03*
X032000Y005000D03*
X031000Y005000D03*
X030000Y005000D03*
X029000Y005000D03*
X013000Y017000D03*
D11*
X048000Y022750D03*
X048000Y002750D03*
D12*
X018000Y017000D03*
X015000Y017000D03*
D13*
X025000Y016500D03*
X026000Y016500D03*
X026000Y015500D03*
X025000Y015500D03*
X025000Y014500D03*
X026000Y014500D03*
X026000Y013500D03*
X025000Y013500D03*
X025000Y012500D03*
X026000Y012500D03*
X026000Y011500D03*
X025000Y011500D03*
X025000Y010500D03*
X026000Y010500D03*
X026000Y009500D03*
X025000Y009500D03*
X025000Y008500D03*
X026000Y008500D03*
X026000Y007500D03*
X025000Y007500D03*
X025000Y006500D03*
X026000Y006500D03*
X026000Y017500D03*
X025000Y017500D03*
X025000Y018500D03*
X026000Y018500D03*
M02*
