G75*
%MOIN*%
%OFA0B0*%
%FSLAX24Y24*%
%IPPOS*%
%LPD*%
%AMOC8*
5,1,8,0,0,1.08239X$1,22.5*
%
%ADD10OC8,0.0624*%
%ADD11C,0.1500*%
%ADD12R,0.5320X0.0960*%
%ADD13OC8,0.0720*%
D10*
X005100Y005260D03*
X006100Y005260D03*
X007100Y005260D03*
X008100Y005260D03*
X009100Y005260D03*
X010100Y005260D03*
X011100Y005260D03*
X013100Y006260D03*
X015100Y005260D03*
X016100Y005260D03*
X017100Y005260D03*
X018100Y005260D03*
X019100Y005260D03*
X020100Y005260D03*
X021100Y005260D03*
X021100Y008260D03*
X020100Y008260D03*
X019100Y008260D03*
X018100Y008260D03*
X017100Y008260D03*
X016100Y008260D03*
X015100Y008260D03*
X013100Y008260D03*
X011100Y008260D03*
X010100Y008260D03*
X009100Y008260D03*
X008100Y008260D03*
X007100Y008260D03*
X006100Y008260D03*
X005100Y008260D03*
X015100Y011260D03*
X016100Y011260D03*
X017100Y011260D03*
X018100Y011260D03*
X019100Y011260D03*
X020100Y011260D03*
X021100Y011260D03*
X021100Y014260D03*
X020100Y014260D03*
X019100Y014260D03*
X018100Y014260D03*
X017100Y014260D03*
X016100Y014260D03*
X015100Y014260D03*
X019100Y015760D03*
X021100Y015760D03*
X021100Y017260D03*
X020100Y017260D03*
X019100Y017260D03*
X018100Y017260D03*
X017100Y017260D03*
X016100Y017260D03*
X015100Y017260D03*
X013100Y018260D03*
X011100Y017260D03*
X008100Y017260D03*
X005100Y017260D03*
X005100Y017260D03*
X005100Y020260D03*
X005100Y020260D03*
X008100Y020260D03*
X011100Y020260D03*
X013100Y020260D03*
X015100Y020260D03*
X016100Y020260D03*
X017100Y020260D03*
X018100Y020260D03*
X019100Y020260D03*
X020100Y020260D03*
X021100Y020260D03*
X032100Y020260D03*
X034100Y020260D03*
X035100Y020260D03*
X036100Y020260D03*
X037100Y020260D03*
X038100Y020260D03*
X039100Y020260D03*
X040100Y020260D03*
X040100Y017260D03*
X039100Y017260D03*
X038100Y017260D03*
X037100Y017260D03*
X036100Y017260D03*
X035100Y017260D03*
X034100Y017260D03*
X032100Y018260D03*
X038100Y008260D03*
X038100Y006260D03*
X037100Y006260D03*
X036100Y006260D03*
X035100Y006260D03*
X034100Y006260D03*
X032100Y006260D03*
X030600Y006260D03*
X032100Y004260D03*
X034100Y003260D03*
X035100Y003260D03*
X036100Y003260D03*
X037100Y003260D03*
X038100Y003260D03*
X039100Y003260D03*
X040100Y003260D03*
X040100Y006260D03*
X039100Y006260D03*
X042100Y008260D03*
X030600Y002260D03*
D11*
X002100Y002510D03*
X002100Y022510D03*
D12*
X046475Y021885D03*
X046475Y020635D03*
X046475Y019385D03*
X046475Y018135D03*
X046475Y016885D03*
X046475Y015635D03*
X046475Y014385D03*
X046475Y013135D03*
X046475Y011885D03*
X046475Y010635D03*
X046475Y009385D03*
X046475Y008135D03*
X046475Y006885D03*
X046475Y005635D03*
X046475Y004385D03*
X046475Y003135D03*
X046475Y001885D03*
X046475Y023135D03*
D13*
X025100Y018760D03*
X024100Y018760D03*
X024100Y017760D03*
X025100Y017760D03*
X025100Y016760D03*
X024100Y016760D03*
X024100Y015760D03*
X025100Y015760D03*
X025100Y014760D03*
X024100Y014760D03*
X024100Y013760D03*
X025100Y013760D03*
X025100Y012760D03*
X024100Y012760D03*
X024100Y011760D03*
X025100Y011760D03*
X025100Y010760D03*
X024100Y010760D03*
X024100Y009760D03*
X025100Y009760D03*
X025100Y008760D03*
X024100Y008760D03*
X024100Y007760D03*
X025100Y007760D03*
X025100Y006760D03*
X024100Y006760D03*
X030650Y008260D03*
X036550Y008260D03*
M02*
