%
M48
M72
T01C0.0320
T02C0.0360
T03C0.0400
T04C0.1250
%
T01
X10000Y11500
X11000Y11500
X12000Y11500
X13000Y11500
X14000Y11500
X15000Y11500
X16000Y11500
X18000Y11500
X18000Y13500
X16000Y14500
X15000Y14500
X14000Y14500
X13000Y14500
X12000Y14500
X11000Y14500
X10000Y14500
X9000Y17000
X10000Y19000
X11000Y19000
X12000Y19000
X13000Y19000
X14000Y19000
X15000Y19000
X16000Y19000
X18000Y19000
X19500Y19000
X18000Y21000
X16000Y22000
X15000Y22000
X14000Y22000
X13000Y22000
X12000Y22000
X11000Y22000
X10000Y22000
X19500Y23000
X29000Y20000
X30000Y20000
X31000Y20000
X32000Y20000
X33000Y20000
X34000Y20000
X35000Y20000
X37000Y19000
X39000Y20000
X40000Y20000
X41000Y20000
X42000Y20000
X43000Y20000
X44000Y20000
X45000Y20000
X45000Y17000
X44000Y17000
X43000Y17000
X42000Y17000
X41000Y17000
X40000Y17000
X39000Y17000
X37000Y17000
X35000Y17000
X34000Y17000
X33000Y17000
X32000Y17000
X31000Y17000
X30000Y17000
X29000Y17000
X29000Y14000
X30000Y14000
X31000Y14000
X32000Y14000
X33000Y14000
X34000Y14000
X35000Y14000
X35000Y11000
X34000Y11000
X33000Y11000
X32000Y11000
X31000Y11000
X30000Y11000
X29000Y11000
X29000Y9500
X31000Y9500
X31000Y8000
X30000Y8000
X29000Y8000
X32000Y8000
X33000Y8000
X34000Y8000
X35000Y8000
X37000Y7000
X39000Y8000
X39000Y8000
X42000Y8000
X45000Y8000
X45000Y5000
X42000Y5000
X39000Y5000
X39000Y5000
X37000Y5000
X35000Y5000
X34000Y5000
X33000Y5000
X32000Y5000
X31000Y5000
X30000Y5000
X29000Y5000
X13000Y17000
T02
X15000Y17000
X18000Y17000
T03
X25000Y16500
X26000Y16500
X26000Y15500
X25000Y15500
X25000Y14500
X26000Y14500
X26000Y13500
X25000Y13500
X25000Y12500
X26000Y12500
X26000Y11500
X25000Y11500
X25000Y10500
X26000Y10500
X26000Y9500
X25000Y9500
X25000Y8500
X26000Y8500
X26000Y7500
X25000Y7500
X25000Y6500
X26000Y6500
X26000Y17500
X25000Y17500
X25000Y18500
X26000Y18500
T04
X48000Y22750
X48000Y2750
M30
