G75*
%MOIN*%
%OFA0B0*%
%FSLAX24Y24*%
%IPPOS*%
%LPD*%
%AMOC8*
5,1,8,0,0,1.08239X$1,22.5*
%
%ADD10C,0.0000*%
%ADD11C,0.0060*%
D10*
X000100Y000130D02*
X007100Y000130D01*
X007100Y014130D01*
X000100Y014130D01*
X000100Y000130D01*
D11*
X001000Y000180D02*
X001000Y014080D01*
X003100Y014080D01*
X003200Y014130D02*
X002450Y014130D01*
X002450Y000130D01*
X004750Y000130D01*
X004750Y014130D01*
X004000Y014130D01*
X004100Y014080D02*
X006200Y014080D01*
X006200Y000180D01*
X001000Y000180D01*
X003100Y014080D02*
X003102Y014036D01*
X003108Y013993D01*
X003117Y013951D01*
X003130Y013909D01*
X003147Y013869D01*
X003167Y013830D01*
X003190Y013793D01*
X003217Y013759D01*
X003246Y013726D01*
X003279Y013697D01*
X003313Y013670D01*
X003350Y013647D01*
X003389Y013627D01*
X003429Y013610D01*
X003471Y013597D01*
X003513Y013588D01*
X003556Y013582D01*
X003600Y013580D01*
X003644Y013582D01*
X003687Y013588D01*
X003729Y013597D01*
X003771Y013610D01*
X003811Y013627D01*
X003850Y013647D01*
X003887Y013670D01*
X003921Y013697D01*
X003954Y013726D01*
X003983Y013759D01*
X004010Y013793D01*
X004033Y013830D01*
X004053Y013869D01*
X004070Y013909D01*
X004083Y013951D01*
X004092Y013993D01*
X004098Y014036D01*
X004100Y014080D01*
X004000Y014130D02*
X003998Y014091D01*
X003992Y014052D01*
X003983Y014014D01*
X003970Y013977D01*
X003953Y013941D01*
X003933Y013908D01*
X003909Y013876D01*
X003883Y013847D01*
X003854Y013821D01*
X003822Y013797D01*
X003789Y013777D01*
X003753Y013760D01*
X003716Y013747D01*
X003678Y013738D01*
X003639Y013732D01*
X003600Y013730D01*
X003561Y013732D01*
X003522Y013738D01*
X003484Y013747D01*
X003447Y013760D01*
X003411Y013777D01*
X003378Y013797D01*
X003346Y013821D01*
X003317Y013847D01*
X003291Y013876D01*
X003267Y013908D01*
X003247Y013941D01*
X003230Y013977D01*
X003217Y014014D01*
X003208Y014052D01*
X003202Y014091D01*
X003200Y014130D01*
M02*
