%
M48
M72
T01C0.0320
T02C0.0360
T03C0.0400
T04C0.0430
T05C0.0440
T06C0.0710
T07C0.1200
T08C0.1250
%
T01
X6000Y7500
X7000Y7500
X4500Y8500
X4000Y9500
X6000Y11000
X5500Y12500
X6500Y13500
X7000Y13000
X6500Y14500
X6500Y15500
X6500Y16500
X6500Y17500
X6500Y18500
X6500Y19500
X8000Y20500
X9500Y19500
X9500Y18500
X9500Y17500
X9500Y16500
X9500Y15500
X9500Y14500
X9500Y13500
X9500Y12500
X11500Y12500
X12500Y13500
X12500Y14500
X12500Y15500
X12500Y16500
X12500Y17500
X12500Y18500
X12500Y19500
X15500Y19500
X15500Y18500
X15500Y17500
X15500Y16500
X15500Y15500
X15500Y14500
X15500Y13500
X15500Y12500
X17500Y12500
X18500Y13500
X18500Y14500
X18500Y15500
X18500Y16500
X18500Y17500
X18500Y18500
X18500Y19500
X20000Y21000
X19500Y22000
X17000Y22500
X16500Y23000
X16000Y24500
X13000Y24000
X10000Y23500
X6500Y23500
X4500Y23500
X2500Y23500
X2500Y19500
X3500Y19500
X3500Y18500
X3500Y17500
X3500Y16500
X3500Y15500
X3500Y14500
X3500Y13500
X3500Y12500
X9500Y9500
X9500Y8500
X11500Y8500
X14500Y10500
X15500Y9500
X17000Y8500
X18500Y10500
X20500Y11500
X21500Y12500
X21500Y13500
X22500Y12500
X23500Y12500
X24500Y13500
X24500Y14500
X24500Y15500
X24500Y16500
X24500Y17500
X24500Y18500
X24500Y19500
X25500Y19500
X26000Y16500
X29500Y16500
X29500Y15500
X29500Y14500
X29500Y13500
X29500Y12000
X27500Y11500
X30500Y9500
X32000Y8500
X36000Y7500
X37000Y8500
X38500Y8500
X37500Y9500
X36500Y13500
X36000Y14000
X36500Y14500
X36500Y15500
X36500Y16500
X36500Y17500
X36500Y18500
X36500Y19500
X37500Y21500
X39500Y21500
X39500Y19500
X39500Y18500
X39500Y17500
X39500Y16500
X39500Y15500
X39500Y14500
X39500Y13500
X42000Y13500
X42500Y14000
X43000Y15000
X43000Y16000
X41000Y19500
X40500Y25500
X40000Y26000
X39500Y26500
X41000Y27500
X41500Y30500
X35000Y27000
X34500Y27500
X33000Y30000
X26000Y25500
X30500Y21500
X32500Y21500
X32500Y19500
X32500Y18500
X32500Y17500
X32500Y16500
X32500Y15500
X32500Y14500
X32500Y13500
X29500Y17500
X29500Y18500
X29500Y19500
X21500Y19500
X21500Y18500
X21500Y17500
X21500Y16500
X21500Y15500
X21500Y14500
X22500Y10500
X21500Y9500
X21000Y8500
X22000Y7500
X23500Y8500
X42000Y7500
X48500Y8500
X49500Y7500
X51000Y7500
X52000Y8500
X51000Y9500
X49500Y10500
X48500Y9500
X51000Y12000
X52000Y13000
X53500Y14000
X54000Y15000
X52500Y17000
X50500Y16500
X50500Y15500
X51000Y15000
X50500Y14500
X50500Y13500
X47500Y13500
X47500Y14500
X47500Y15500
X47500Y16500
X47500Y17500
X47500Y18500
X47500Y19500
X50500Y19500
X50500Y18500
X50500Y17500
X50500Y21500
X48500Y21500
X56500Y19500
X56500Y18500
X56500Y17500
X56500Y16500
X56500Y15500
X56500Y14500
X56500Y13500
X56000Y13000
X56500Y11500
X56500Y9500
X57000Y8500
X56000Y7500
X54500Y7500
X58500Y8500
X61500Y9500
X62000Y8500
X63500Y8500
X63500Y7500
X66000Y7500
X66500Y9500
X66500Y11500
X66500Y13500
X66500Y14500
X66500Y15500
X66500Y16500
X66500Y17500
X66500Y18500
X66500Y19500
X64500Y19500
X64500Y18500
X64500Y17500
X64500Y16500
X64500Y15500
X64500Y14500
X64500Y13500
X62500Y14500
X61500Y14500
X61500Y15500
X61500Y16500
X61500Y17500
X61500Y18500
X61500Y19500
X63000Y20000
X62500Y20500
X59500Y19500
X59500Y18500
X59500Y17500
X59500Y16500
X59500Y15500
X59500Y14500
X59500Y13500
X61500Y13500
X62500Y12500
X61500Y11500
X63500Y11500
X58500Y11500
X62500Y17500
X68500Y14000
X69500Y13500
X69500Y14500
X69500Y15500
X69500Y16500
X69500Y17500
X69500Y18500
X69500Y19500
X72500Y19500
X72500Y18500
X72500Y17500
X72500Y16500
X72500Y15500
X72500Y14500
X72500Y13500
X73500Y11500
X74500Y10500
X73500Y9500
X73500Y8500
X74500Y7500
X76000Y7500
X76000Y9500
X78000Y9500
X75500Y11500
X75500Y13500
X75500Y14500
X75500Y15500
X75500Y16500
X75500Y17500
X75500Y18500
X75500Y19500
X75500Y20500
X75500Y21500
X75500Y22500
X72500Y22500
X72500Y21500
X72500Y20500
X70500Y23500
X71000Y24000
X70500Y24500
X71000Y25000
X70500Y25500
X71000Y26000
X70500Y26500
X68500Y27500
X68000Y27000
X67000Y26500
X65000Y26000
X62000Y25500
X61000Y28000
X61500Y28500
X62000Y29000
X62500Y29500
X63000Y31000
X63500Y31500
X71000Y31500
X71500Y31000
X72000Y30500
X73000Y30500
X73500Y30000
X80500Y37000
X80000Y37500
X79500Y38000
X79000Y38500
X79000Y39500
X81500Y38500
X82000Y38000
X83000Y37500
X84000Y37000
X84500Y36500
X83000Y36500
X88000Y34000
X86000Y31000
X87500Y29500
X87000Y29000
X85000Y28500
X84000Y28000
X90500Y30500
X92500Y30000
X99500Y22500
X99500Y21500
X99500Y20500
X99500Y19500
X99500Y18500
X99500Y17500
X99500Y16500
X99500Y15500
X99500Y14500
X98000Y15500
X96500Y15500
X96500Y14500
X96500Y13500
X98000Y13500
X99500Y13500
X102500Y13500
X102500Y14500
X102500Y15500
X102500Y16500
X102500Y17500
X102500Y18500
X102500Y19500
X102500Y20500
X102500Y21500
X102500Y22500
X100500Y18500
X101500Y16500
X97500Y17500
X96500Y17500
X96500Y16500
X96500Y18500
X96500Y19500
X96500Y21500
X94500Y21500
X93500Y19500
X93500Y18500
X93500Y17500
X93500Y16500
X93500Y15500
X93500Y14500
X92000Y16000
X91500Y16500
X91500Y15500
X91500Y14500
X91500Y13500
X93500Y13500
X93500Y11500
X94500Y9500
X94500Y7500
X93000Y7500
X92000Y7500
X90500Y8500
X89500Y8500
X89500Y9500
X85500Y8500
X84500Y8500
X83500Y9500
X83500Y11500
X83500Y13500
X83500Y14500
X83500Y15500
X83500Y16500
X83500Y17500
X83500Y18500
X83500Y19500
X85500Y19500
X86500Y19500
X86500Y18500
X86500Y17500
X86500Y16500
X86500Y15500
X86500Y14500
X86500Y13500
X88500Y13500
X88500Y14500
X88500Y15500
X88500Y16500
X88500Y17500
X88500Y18500
X88500Y19500
X90500Y19500
X91500Y19500
X91500Y18500
X91500Y17500
X91500Y21500
X89500Y21500
X85500Y11500
X83000Y7500
X96500Y7500
X97500Y8500
X99000Y7500
X100000Y7500
X101000Y8500
X102000Y7500
X102000Y10500
X69500Y8500
X68500Y8500
X68500Y11500
X55500Y28000
X55000Y28500
X54500Y29000
X54000Y29500
X54500Y27500
X53500Y32000
X68500Y41500
X72000Y43000
X72500Y42250
X72500Y41500
X73000Y43000
X72500Y44500
X73000Y46000
X73000Y48000
X74500Y48500
X74500Y49500
X74500Y50500
X74500Y51500
X74500Y52500
X74500Y53500
X74500Y54500
X74500Y55500
X74500Y56500
X74500Y57500
X74500Y58500
X72500Y57500
X72500Y56500
X72500Y55500
X72500Y54500
X72500Y53500
X72500Y52500
X72500Y51500
X71500Y50500
X69500Y50500
X69500Y51500
X69500Y52500
X69500Y53500
X69500Y54500
X69500Y55500
X69500Y56500
X69500Y57500
X77500Y57500
X77500Y56500
X77500Y55500
X77500Y54500
X77500Y53500
X77500Y52500
X77500Y51500
X77500Y50500
X77500Y49500
X76500Y48500
X76500Y44500
X79500Y51500
X80000Y52500
X80500Y53500
X83500Y57500
X83500Y58500
X83500Y59500
X83500Y60500
X83500Y61500
X83500Y62500
X83500Y63500
X83500Y64500
X83500Y65500
X85500Y62500
X85500Y61500
X85500Y60500
X85500Y59500
X85500Y58500
X85500Y57500
X85500Y56500
X85500Y55500
X85500Y54500
X85500Y53500
X85500Y52500
X85500Y51500
X85500Y50500
X85500Y49500
X85500Y48500
X87500Y48500
X85000Y46500
X85500Y44500
X91500Y49500
X91500Y50500
X91500Y51500
X91500Y52500
X91500Y53500
X91500Y54500
X91500Y55500
X91500Y56500
X91500Y57500
X91500Y58500
X91500Y59500
X91500Y60500
X91500Y61500
X91500Y62500
X93000Y60000
X93500Y59500
X94000Y59000
X94500Y59500
X94500Y58500
X94500Y57500
X94500Y56500
X94500Y55500
X94500Y54500
X94500Y53500
X94500Y52500
X94500Y51500
X94500Y50500
X94500Y49500
X94500Y48500
X96500Y48500
X99500Y49500
X100500Y49500
X100500Y50500
X100500Y51500
X100500Y52500
X100500Y53500
X100500Y54500
X100500Y55500
X100500Y56500
X100500Y57500
X100500Y58500
X100500Y59500
X100500Y60500
X100500Y61500
X100500Y62500
X102500Y62500
X102500Y61500
X102500Y60500
X102500Y59500
X102500Y58500
X102500Y57500
X102500Y63500
X102500Y64500
X102500Y65500
X100500Y66500
X99500Y66500
X99500Y70500
X100500Y70500
X94500Y62500
X94500Y61500
X94500Y60500
X81500Y69500
X81500Y70500
X81500Y71500
X81500Y72500
X81500Y73500
X81500Y74500
X81500Y75500
X81500Y76500
X78500Y76500
X78500Y75500
X78500Y74500
X78500Y73500
X78500Y72500
X78500Y71500
X78500Y70500
X78500Y69500
X76500Y69500
X76500Y70500
X76500Y71500
X76500Y72500
X76500Y73500
X76500Y74500
X76500Y75500
X76500Y76500
X73500Y76500
X73500Y75500
X73500Y74500
X73500Y73500
X73500Y72500
X73500Y71500
X73500Y70500
X73500Y69500
X72000Y68500
X71000Y68500
X71500Y69500
X71500Y70500
X71500Y71500
X71500Y72500
X71500Y73500
X71500Y74500
X71500Y75500
X71500Y76500
X68500Y76500
X68500Y75500
X68500Y74500
X68500Y73500
X68500Y72500
X68500Y71500
X68500Y70500
X68500Y69500
X65500Y71500
X65500Y72500
X65500Y73500
X65500Y74500
X65500Y76500
X63500Y76500
X61500Y77500
X60500Y76500
X58500Y76500
X56500Y76500
X56500Y74500
X56500Y73500
X56500Y72500
X56500Y71500
X56500Y70500
X56500Y69500
X56500Y68500
X56500Y67500
X56500Y66500
X56500Y65500
X56500Y64500
X56500Y63500
X56500Y62500
X56500Y61500
X59500Y61500
X59500Y62500
X59500Y63500
X59500Y64500
X59500Y65500
X59500Y66500
X59500Y67500
X59500Y68500
X59500Y69500
X59500Y70500
X59500Y71500
X59500Y72500
X59500Y73500
X59500Y74500
X60500Y72500
X61500Y73500
X62500Y73500
X62500Y72500
X62500Y71500
X62500Y74500
X69500Y78500
X71500Y78500
X52000Y69500
X47500Y71500
X45500Y70500
X45500Y68500
X43500Y68500
X43500Y66500
X43500Y65000
X43500Y63500
X41500Y63500
X41500Y62500
X41500Y61500
X41500Y64500
X41500Y65500
X41500Y66500
X41500Y67500
X41500Y68500
X41500Y69500
X41500Y70500
X41500Y71500
X41500Y72500
X41500Y73500
X41500Y74500
X43550Y73500
X45450Y73500
X43500Y71500
X43500Y70500
X47500Y66500
X47500Y65000
X47500Y63500
X46500Y61500
X44500Y61500
X38500Y61500
X38500Y62500
X38500Y63500
X38500Y64500
X38000Y65000
X38500Y65500
X38500Y66500
X38500Y67500
X38500Y68500
X38500Y69500
X38500Y70500
X38500Y71500
X38500Y72500
X38500Y73500
X38500Y74500
X34500Y71000
X32500Y72500
X32500Y73500
X32500Y74500
X32500Y75500
X28500Y75500
X28500Y74500
X28500Y73500
X28500Y72500
X27500Y72500
X27500Y73500
X27500Y74500
X27500Y75500
X24500Y75500
X24500Y74500
X24500Y73500
X24500Y72500
X24500Y69500
X24500Y68500
X23500Y68500
X22500Y68500
X22500Y69500
X21500Y68500
X20500Y68500
X18500Y67500
X17500Y67500
X17500Y66500
X17500Y65500
X17500Y64500
X17500Y63500
X17500Y62500
X17500Y61500
X18500Y61500
X18500Y63500
X18500Y65500
X20500Y64500
X20500Y63500
X21500Y64500
X22500Y64500
X23500Y64500
X23500Y63500
X22500Y62500
X24500Y62500
X24500Y64500
X20500Y61500
X15000Y59000
X14500Y61500
X14500Y62500
X14500Y63500
X14500Y64500
X14500Y65500
X14500Y66500
X14500Y67500
X14500Y68500
X12500Y67500
X10500Y67500
X9500Y67500
X12500Y65500
X12500Y63500
X12500Y61500
X12000Y61000
X11500Y60500
X10500Y63500
X9500Y63500
X17500Y68500
X33500Y68500
X34500Y68500
X35500Y68500
X36500Y67500
X35500Y66500
X35500Y64500
X34500Y64500
X34500Y63500
X33500Y62500
X33500Y64500
X35500Y62500
X38000Y58500
X38500Y58000
X36500Y69500
X58000Y58500
X58500Y58000
X77500Y58500
X21000Y26000
X20500Y26500
X19000Y25000
X11500Y28000
X10500Y28000
X9500Y28000
X8500Y28000
T02
X7500Y56500
X7500Y57500
X7500Y58500
X7500Y59500
X6500Y59500
X6500Y58500
X6500Y57500
X6500Y56500
X6500Y60500
X6500Y61500
X6500Y62500
X6500Y63500
X6500Y64500
X6500Y65500
X7500Y65500
X7500Y64500
X7500Y63500
X7500Y62500
X7500Y61500
X7500Y60500
X7500Y66500
X7500Y67500
X7500Y68500
X7500Y69500
X7500Y70500
X6500Y70500
X6500Y69500
X6500Y68500
X6500Y67500
X6500Y66500
X6500Y71500
X6500Y72500
X6500Y73500
X6500Y74500
X6500Y75500
X7500Y75500
X7500Y74500
X7500Y73500
X7500Y72500
X7500Y71500
T03
X9500Y71000
X9500Y70000
X9500Y72000
X9500Y73000
X22610Y77220
X24390Y77220
X24390Y79780
X22610Y79780
X34500Y74500
X34500Y73500
X34500Y72500
X35500Y72500
X35500Y73500
X35500Y74500
X44500Y16500
X44500Y8500
X78000Y8500
X78000Y16500
X95500Y11500
X103500Y11500
T04
X17180Y75440
X16090Y75440
X15000Y75440
X13910Y75440
X12820Y75440
X13365Y76560
X14455Y76560
X15545Y76560
X16635Y76560
T05
X92250Y74500
X93250Y74500
X100250Y72500
X101250Y73000
X101250Y76000
X100250Y76500
T06
X100250Y74500
T07
X19920Y76000
X10080Y76000
T08
X2770Y83000
X22770Y83000
X30270Y83000
X50270Y83000
X55250Y83000
X75250Y83000
X82750Y83000
X102750Y83000
M30
