G75*
%MOIN*%
%OFA0B0*%
%FSLAX24Y24*%
%IPPOS*%
%LPD*%
%AMOC8*
5,1,8,0,0,1.08239X$1,22.5*
%
%ADD10C,0.1500*%
%ADD11R,0.0960X0.5320*%
%ADD12OC8,0.0624*%
%ADD13OC8,0.0672*%
%ADD14OC8,0.0720*%
%ADD15OC8,0.0774*%
%ADD16C,0.1440*%
%ADD17OC8,0.1200*%
%ADD18OC8,0.1800*%
%ADD19OC8,0.0840*%
%ADD20C,0.0576*%
D10*
X002770Y083000D03*
X022770Y083000D03*
X030270Y083000D03*
X050270Y083000D03*
X055250Y083000D03*
X075250Y083000D03*
X082750Y083000D03*
X102750Y083000D03*
D11*
X002125Y003625D03*
X003375Y003625D03*
X004625Y003625D03*
X005875Y003625D03*
X007125Y003625D03*
X008375Y003625D03*
X009625Y003625D03*
X010875Y003625D03*
X012125Y003625D03*
X013375Y003625D03*
X014625Y003625D03*
X015875Y003625D03*
X017125Y003625D03*
X018375Y003625D03*
X019625Y003625D03*
X020875Y003625D03*
X022125Y003625D03*
X023375Y003625D03*
X029625Y003625D03*
X030875Y003625D03*
X032125Y003625D03*
X033375Y003625D03*
X034625Y003625D03*
X035875Y003625D03*
X037125Y003625D03*
X038375Y003625D03*
X039625Y003625D03*
X040875Y003625D03*
X042125Y003625D03*
X043375Y003625D03*
X044625Y003625D03*
X045875Y003625D03*
X047125Y003625D03*
X048375Y003625D03*
X049625Y003625D03*
X050875Y003625D03*
X054625Y003625D03*
X055875Y003625D03*
X057125Y003625D03*
X058375Y003625D03*
X059625Y003625D03*
X060875Y003625D03*
X062125Y003625D03*
X063375Y003625D03*
X064625Y003625D03*
X065875Y003625D03*
X067125Y003625D03*
X068375Y003625D03*
X069625Y003625D03*
X070875Y003625D03*
X072125Y003625D03*
X073375Y003625D03*
X074625Y003625D03*
X075875Y003625D03*
X082125Y003625D03*
X083375Y003625D03*
X084625Y003625D03*
X085875Y003625D03*
X087125Y003625D03*
X088375Y003625D03*
X089625Y003625D03*
X090875Y003625D03*
X092125Y003625D03*
X093375Y003625D03*
X094625Y003625D03*
X095875Y003625D03*
X097125Y003625D03*
X098375Y003625D03*
X099625Y003625D03*
X100875Y003625D03*
X102125Y003625D03*
X103375Y003625D03*
D12*
X102000Y013500D03*
X102000Y014500D03*
X102000Y015500D03*
X102000Y016500D03*
X102000Y017500D03*
X102000Y018500D03*
X102000Y019500D03*
X102000Y020500D03*
X102000Y021500D03*
X102000Y022500D03*
X102000Y024500D03*
X100000Y024500D03*
X099000Y022500D03*
X099000Y021500D03*
X099000Y020500D03*
X099000Y019500D03*
X099000Y018500D03*
X099000Y017500D03*
X099000Y016500D03*
X099000Y015500D03*
X099000Y014500D03*
X099000Y013500D03*
X096500Y013500D03*
X096500Y014500D03*
X096500Y015500D03*
X096500Y016500D03*
X096500Y017500D03*
X096500Y018500D03*
X096500Y019500D03*
X096500Y021500D03*
X094500Y021500D03*
X093500Y019500D03*
X093500Y018500D03*
X093500Y017500D03*
X093500Y016500D03*
X093500Y015500D03*
X093500Y014500D03*
X093500Y013500D03*
X091500Y013500D03*
X091500Y014500D03*
X091500Y015500D03*
X091500Y016500D03*
X091500Y017500D03*
X091500Y018500D03*
X091500Y019500D03*
X088500Y019500D03*
X088500Y018500D03*
X088500Y017500D03*
X088500Y016500D03*
X088500Y015500D03*
X088500Y014500D03*
X088500Y013500D03*
X085500Y013500D03*
X085500Y014500D03*
X085500Y015500D03*
X085500Y016500D03*
X085500Y017500D03*
X085500Y018500D03*
X085500Y019500D03*
X082500Y019500D03*
X082500Y018500D03*
X082500Y017500D03*
X082500Y016500D03*
X082500Y015500D03*
X082500Y014500D03*
X082500Y013500D03*
X082500Y011500D03*
X084500Y011500D03*
X076000Y011500D03*
X074000Y011500D03*
X072500Y013500D03*
X072500Y014500D03*
X072500Y015500D03*
X072500Y016500D03*
X072500Y017500D03*
X072500Y018500D03*
X072500Y019500D03*
X072500Y020500D03*
X072500Y021500D03*
X072500Y022500D03*
X075500Y022500D03*
X075500Y021500D03*
X075500Y020500D03*
X075500Y019500D03*
X075500Y018500D03*
X075500Y017500D03*
X075500Y016500D03*
X075500Y015500D03*
X075500Y014500D03*
X075500Y013500D03*
X069000Y013500D03*
X069000Y014500D03*
X069000Y015500D03*
X069000Y016500D03*
X069000Y017500D03*
X069000Y018500D03*
X069000Y019500D03*
X066000Y019500D03*
X066000Y018500D03*
X066000Y017500D03*
X066000Y016500D03*
X066000Y015500D03*
X066000Y014500D03*
X064500Y014500D03*
X064500Y015500D03*
X064500Y016500D03*
X064500Y017500D03*
X064500Y018500D03*
X064500Y019500D03*
X061500Y019500D03*
X061500Y018500D03*
X061500Y017500D03*
X061500Y016500D03*
X061500Y015500D03*
X061500Y014500D03*
X061500Y013500D03*
X061500Y011500D03*
X063500Y011500D03*
X064500Y013500D03*
X066000Y013500D03*
X066000Y011500D03*
X068000Y011500D03*
X059000Y013500D03*
X059000Y014500D03*
X059000Y015500D03*
X059000Y016500D03*
X059000Y017500D03*
X059000Y018500D03*
X059000Y019500D03*
X056000Y019500D03*
X056000Y018500D03*
X056000Y017500D03*
X056000Y016500D03*
X056000Y015500D03*
X056000Y014500D03*
X056000Y013500D03*
X055500Y012000D03*
X056500Y011500D03*
X058500Y011500D03*
X051500Y012000D03*
X050500Y013500D03*
X050500Y014500D03*
X050500Y015500D03*
X050500Y016500D03*
X050500Y017500D03*
X050500Y018500D03*
X050500Y019500D03*
X047500Y019500D03*
X047500Y018500D03*
X047500Y017500D03*
X047500Y016500D03*
X047500Y015500D03*
X047500Y014500D03*
X047500Y013500D03*
X039500Y013500D03*
X039500Y014500D03*
X039500Y015500D03*
X039500Y016500D03*
X039500Y017500D03*
X039500Y018500D03*
X039500Y019500D03*
X039500Y021500D03*
X037500Y021500D03*
X036500Y019500D03*
X036500Y018500D03*
X036500Y017500D03*
X036500Y016500D03*
X036500Y015500D03*
X036500Y014500D03*
X036500Y013500D03*
X032500Y013500D03*
X032500Y014500D03*
X032500Y015500D03*
X032500Y016500D03*
X032500Y017500D03*
X032500Y018500D03*
X032500Y019500D03*
X029500Y019500D03*
X029500Y018500D03*
X029500Y017500D03*
X029500Y016500D03*
X029500Y015500D03*
X029500Y014500D03*
X029500Y013500D03*
X024500Y013500D03*
X023500Y012500D03*
X021500Y012500D03*
X021500Y013500D03*
X021500Y014500D03*
X021500Y015500D03*
X021500Y016500D03*
X021500Y017500D03*
X021500Y018500D03*
X021500Y019500D03*
X018500Y019500D03*
X018500Y018500D03*
X018500Y017500D03*
X018500Y016500D03*
X018500Y015500D03*
X018500Y014500D03*
X018500Y013500D03*
X017500Y012500D03*
X015500Y012500D03*
X015500Y013500D03*
X015500Y014500D03*
X015500Y015500D03*
X015500Y016500D03*
X015500Y017500D03*
X015500Y018500D03*
X015500Y019500D03*
X012500Y019500D03*
X012500Y018500D03*
X012500Y017500D03*
X012500Y016500D03*
X012500Y015500D03*
X012500Y014500D03*
X012500Y013500D03*
X011500Y012500D03*
X009500Y012500D03*
X009500Y013500D03*
X009500Y014500D03*
X009500Y015500D03*
X009500Y016500D03*
X009500Y017500D03*
X009500Y018500D03*
X009500Y019500D03*
X006500Y019500D03*
X006500Y018500D03*
X006500Y017500D03*
X006500Y016500D03*
X006500Y015500D03*
X006500Y014500D03*
X006500Y013500D03*
X005500Y012500D03*
X003500Y012500D03*
X003500Y013500D03*
X003500Y014500D03*
X003500Y015500D03*
X003500Y016500D03*
X003500Y017500D03*
X003500Y018500D03*
X003500Y019500D03*
X002500Y019500D03*
X002500Y023500D03*
X004500Y023500D03*
X006500Y023500D03*
X024500Y019500D03*
X024500Y018500D03*
X024500Y017500D03*
X024500Y016500D03*
X024500Y015500D03*
X024500Y014500D03*
X030500Y021500D03*
X032500Y021500D03*
X035500Y032500D03*
X035500Y034500D03*
X035500Y035500D03*
X034500Y035500D03*
X034500Y034500D03*
X033500Y034500D03*
X033500Y035500D03*
X032500Y035500D03*
X032500Y034500D03*
X031500Y034500D03*
X031500Y035500D03*
X030500Y035500D03*
X029500Y035500D03*
X029500Y034500D03*
X030500Y034500D03*
X028500Y034500D03*
X028500Y035500D03*
X028500Y036500D03*
X027500Y036500D03*
X027500Y035500D03*
X027500Y037500D03*
X027500Y038500D03*
X027500Y039500D03*
X027500Y040500D03*
X027500Y041500D03*
X027500Y042500D03*
X028500Y042500D03*
X028500Y041500D03*
X028500Y040500D03*
X028500Y039500D03*
X028500Y038500D03*
X028500Y037500D03*
X025500Y039500D03*
X025500Y042000D03*
X027500Y043500D03*
X027500Y044500D03*
X027500Y045500D03*
X028500Y045500D03*
X028500Y044500D03*
X028500Y043500D03*
X029500Y045500D03*
X030500Y045500D03*
X030500Y046500D03*
X029500Y046500D03*
X028500Y046500D03*
X031500Y046500D03*
X031500Y045500D03*
X032500Y045500D03*
X032500Y046500D03*
X033500Y046500D03*
X033500Y045500D03*
X034500Y045500D03*
X034500Y046500D03*
X035500Y046500D03*
X035500Y045500D03*
X036500Y045500D03*
X036500Y046500D03*
X037500Y046500D03*
X037500Y045500D03*
X038500Y045500D03*
X038500Y044500D03*
X038500Y043500D03*
X039500Y043500D03*
X039500Y044500D03*
X039500Y045500D03*
X038500Y046500D03*
X035000Y048500D03*
X032500Y048500D03*
X038500Y051500D03*
X038500Y052500D03*
X038500Y053500D03*
X038500Y054500D03*
X038500Y055500D03*
X038500Y056500D03*
X041500Y056500D03*
X041500Y055500D03*
X041500Y054500D03*
X041500Y053500D03*
X041500Y052500D03*
X041500Y051500D03*
X043500Y051500D03*
X043500Y050500D03*
X043500Y049500D03*
X043500Y048500D03*
X043500Y047500D03*
X043500Y052500D03*
X043500Y053500D03*
X043500Y054500D03*
X043500Y055500D03*
X043500Y056500D03*
X043500Y057500D03*
X044500Y061500D03*
X046500Y061500D03*
X047500Y063500D03*
X047500Y065000D03*
X047500Y066500D03*
X045500Y068500D03*
X045500Y070500D03*
X043500Y070500D03*
X043500Y071500D03*
X041500Y071500D03*
X041500Y072500D03*
X041500Y073500D03*
X041500Y074500D03*
X043550Y073500D03*
X045450Y073500D03*
X047500Y071500D03*
X043500Y068500D03*
X043500Y066500D03*
X043500Y065000D03*
X043500Y063500D03*
X041500Y063500D03*
X041500Y062500D03*
X041500Y061500D03*
X041500Y064500D03*
X041500Y065500D03*
X041500Y066500D03*
X041500Y067500D03*
X041500Y068500D03*
X041500Y069500D03*
X041500Y070500D03*
X038500Y070500D03*
X038500Y069500D03*
X038500Y068500D03*
X038500Y067500D03*
X038500Y066500D03*
X038500Y065500D03*
X038500Y064500D03*
X038500Y063500D03*
X038500Y062500D03*
X038500Y061500D03*
X035500Y062500D03*
X034500Y063500D03*
X034500Y064500D03*
X033500Y064500D03*
X033500Y062500D03*
X035500Y064500D03*
X036500Y067500D03*
X035500Y068500D03*
X034500Y068500D03*
X033500Y068500D03*
X036500Y069500D03*
X038500Y071500D03*
X038500Y072500D03*
X038500Y073500D03*
X038500Y074500D03*
X032500Y074500D03*
X032500Y073500D03*
X032500Y072500D03*
X032500Y075500D03*
X028500Y075500D03*
X028500Y074500D03*
X028500Y073500D03*
X028500Y072500D03*
X027500Y072500D03*
X027500Y073500D03*
X027500Y074500D03*
X027500Y075500D03*
X024500Y075500D03*
X024500Y074500D03*
X024500Y073500D03*
X024500Y072500D03*
X024500Y069500D03*
X024500Y068500D03*
X023500Y068500D03*
X022500Y068500D03*
X022500Y069500D03*
X021500Y068500D03*
X020500Y068500D03*
X018500Y067500D03*
X017500Y067500D03*
X017500Y066500D03*
X017500Y065500D03*
X017500Y064500D03*
X017500Y063500D03*
X017500Y062500D03*
X017500Y061500D03*
X018500Y061500D03*
X018500Y063500D03*
X018500Y065500D03*
X020500Y064500D03*
X020500Y063500D03*
X021500Y064500D03*
X022500Y064500D03*
X023500Y064500D03*
X023500Y063500D03*
X022500Y062500D03*
X024500Y062500D03*
X024500Y064500D03*
X020500Y061500D03*
X014500Y061500D03*
X014500Y062500D03*
X014500Y063500D03*
X014500Y064500D03*
X014500Y065500D03*
X014500Y066500D03*
X014500Y067500D03*
X014500Y068500D03*
X012500Y067500D03*
X010500Y067500D03*
X009500Y067500D03*
X012500Y065500D03*
X012500Y063500D03*
X012500Y061500D03*
X010500Y063500D03*
X009500Y063500D03*
X017500Y068500D03*
X038500Y042500D03*
X038500Y041500D03*
X038500Y040500D03*
X038500Y039500D03*
X038500Y038500D03*
X038500Y037500D03*
X039500Y037500D03*
X039500Y038500D03*
X039500Y039500D03*
X039500Y040500D03*
X039500Y041500D03*
X039500Y042500D03*
X041500Y042500D03*
X041500Y040000D03*
X041500Y038000D03*
X039500Y036500D03*
X039500Y035500D03*
X038500Y035500D03*
X038500Y034500D03*
X037500Y034500D03*
X037500Y035500D03*
X036500Y035500D03*
X036500Y034500D03*
X038000Y032500D03*
X041500Y035500D03*
X038500Y036500D03*
X022500Y038500D03*
X022500Y041500D03*
X019500Y041500D03*
X019500Y038500D03*
X048500Y021500D03*
X050500Y021500D03*
X062500Y044500D03*
X063750Y046500D03*
X064500Y047000D03*
X064500Y046000D03*
X066500Y046000D03*
X066000Y044500D03*
X066500Y048000D03*
X068000Y048500D03*
X068000Y049500D03*
X068000Y050500D03*
X068000Y051500D03*
X068000Y052500D03*
X068000Y053500D03*
X068000Y054500D03*
X068000Y055500D03*
X068000Y056500D03*
X068000Y057500D03*
X068000Y058500D03*
X066000Y057500D03*
X066000Y056500D03*
X066000Y055500D03*
X066000Y054500D03*
X066000Y053500D03*
X066000Y052500D03*
X066000Y051500D03*
X065000Y050500D03*
X063000Y050500D03*
X063000Y051500D03*
X063000Y052500D03*
X063000Y053500D03*
X063000Y054500D03*
X063000Y055500D03*
X063000Y056500D03*
X063000Y057500D03*
X059500Y061500D03*
X059500Y062500D03*
X059500Y063500D03*
X059500Y064500D03*
X059500Y065500D03*
X059500Y066500D03*
X059500Y067500D03*
X059500Y068500D03*
X059500Y069500D03*
X059500Y070500D03*
X059500Y071500D03*
X059500Y072500D03*
X059500Y073500D03*
X059500Y074500D03*
X058500Y076500D03*
X056500Y076500D03*
X056500Y074500D03*
X056500Y073500D03*
X056500Y072500D03*
X056500Y071500D03*
X056500Y070500D03*
X056500Y069500D03*
X056500Y068500D03*
X056500Y067500D03*
X056500Y066500D03*
X056500Y065500D03*
X056500Y064500D03*
X056500Y063500D03*
X056500Y062500D03*
X056500Y061500D03*
X062500Y071500D03*
X062500Y072500D03*
X062500Y073500D03*
X062500Y074500D03*
X061500Y073500D03*
X060500Y072500D03*
X060500Y076500D03*
X061500Y077500D03*
X063500Y076500D03*
X065500Y076500D03*
X065500Y074500D03*
X065500Y073500D03*
X065500Y072500D03*
X065500Y071500D03*
X069500Y070500D03*
X070500Y070500D03*
X071500Y070500D03*
X076500Y070500D03*
X076500Y069500D03*
X076500Y071500D03*
X076500Y072500D03*
X076500Y073500D03*
X076500Y074500D03*
X076500Y075500D03*
X076500Y076500D03*
X077500Y078500D03*
X079500Y078500D03*
X079500Y076500D03*
X079500Y075500D03*
X079500Y074500D03*
X079500Y073500D03*
X079500Y072500D03*
X079500Y071500D03*
X079500Y070500D03*
X079500Y069500D03*
X081500Y069500D03*
X081500Y070500D03*
X081500Y071500D03*
X081500Y072500D03*
X081500Y073500D03*
X081500Y074500D03*
X081500Y075500D03*
X081500Y076500D03*
X084500Y076500D03*
X084500Y075500D03*
X084500Y074500D03*
X084500Y073500D03*
X084500Y072500D03*
X084500Y071500D03*
X084500Y070500D03*
X084500Y069500D03*
X086500Y069500D03*
X086500Y070500D03*
X086500Y071500D03*
X086500Y072500D03*
X086500Y073500D03*
X086500Y074500D03*
X086500Y075500D03*
X086500Y076500D03*
X089500Y076500D03*
X089500Y075500D03*
X089500Y074500D03*
X089500Y073500D03*
X089500Y072500D03*
X089500Y071500D03*
X089500Y070500D03*
X089500Y069500D03*
X096500Y065500D03*
X096500Y064500D03*
X096500Y063500D03*
X096500Y062500D03*
X096500Y061500D03*
X096500Y060500D03*
X096500Y059500D03*
X096500Y058500D03*
X096500Y057500D03*
X094500Y057500D03*
X094500Y056500D03*
X094500Y055500D03*
X094500Y054500D03*
X093000Y054500D03*
X093000Y055500D03*
X093000Y056500D03*
X093000Y057500D03*
X093000Y058500D03*
X093000Y059500D03*
X094500Y059500D03*
X094500Y058500D03*
X094500Y060500D03*
X094500Y061500D03*
X094500Y062500D03*
X093000Y062500D03*
X093000Y061500D03*
X093000Y060500D03*
X090000Y060500D03*
X090000Y061500D03*
X090000Y062500D03*
X088500Y062500D03*
X088500Y061500D03*
X088500Y060500D03*
X088500Y059500D03*
X088500Y058500D03*
X088500Y057500D03*
X088500Y056500D03*
X088500Y055500D03*
X088500Y054500D03*
X090000Y054500D03*
X090000Y055500D03*
X090000Y056500D03*
X090000Y057500D03*
X090000Y058500D03*
X090000Y059500D03*
X085500Y059500D03*
X085500Y058500D03*
X085500Y057500D03*
X085500Y056500D03*
X085500Y055500D03*
X085500Y054500D03*
X085500Y053500D03*
X085500Y052500D03*
X085500Y051500D03*
X085500Y050500D03*
X085500Y049500D03*
X084000Y049500D03*
X084000Y050500D03*
X084000Y051500D03*
X084000Y052500D03*
X084000Y053500D03*
X084000Y054500D03*
X084000Y055500D03*
X084000Y056500D03*
X084000Y057500D03*
X084000Y058500D03*
X084000Y059500D03*
X084000Y060500D03*
X084000Y061500D03*
X084000Y062500D03*
X085500Y062500D03*
X085500Y061500D03*
X085500Y060500D03*
X081000Y060500D03*
X081000Y061500D03*
X081000Y062500D03*
X079500Y062500D03*
X079500Y061500D03*
X079500Y060500D03*
X079500Y059500D03*
X079500Y058500D03*
X079500Y057500D03*
X079500Y056500D03*
X079500Y055500D03*
X079500Y054500D03*
X081000Y054500D03*
X081000Y055500D03*
X081000Y056500D03*
X081000Y057500D03*
X081000Y058500D03*
X081000Y059500D03*
X076500Y059500D03*
X076500Y058500D03*
X076500Y057500D03*
X076500Y060500D03*
X076500Y061500D03*
X076500Y062500D03*
X076500Y063500D03*
X076500Y064500D03*
X076500Y065500D03*
X071000Y058500D03*
X071000Y057500D03*
X071000Y056500D03*
X071000Y055500D03*
X071000Y054500D03*
X071000Y053500D03*
X071000Y052500D03*
X071000Y051500D03*
X071000Y050500D03*
X071000Y049500D03*
X070000Y048500D03*
X070000Y044500D03*
X062500Y048500D03*
X079500Y049500D03*
X079500Y050500D03*
X079500Y051500D03*
X079500Y052500D03*
X079500Y053500D03*
X081000Y053500D03*
X081000Y052500D03*
X081000Y051500D03*
X081000Y050500D03*
X081000Y049500D03*
X081500Y048500D03*
X083500Y048500D03*
X088500Y049500D03*
X088500Y050500D03*
X088500Y051500D03*
X088500Y052500D03*
X088500Y053500D03*
X090000Y053500D03*
X090000Y052500D03*
X090000Y051500D03*
X090000Y050500D03*
X090000Y049500D03*
X090500Y048500D03*
X092500Y048500D03*
X093000Y049500D03*
X093000Y050500D03*
X093000Y051500D03*
X093000Y052500D03*
X093000Y053500D03*
X094500Y053500D03*
X094500Y052500D03*
X094500Y051500D03*
X094500Y050500D03*
X094500Y049500D03*
X099500Y066500D03*
X100500Y066500D03*
X100500Y070500D03*
X099500Y070500D03*
X091500Y021500D03*
X089500Y021500D03*
D13*
X033500Y053500D03*
X032500Y053500D03*
X031500Y053500D03*
X030500Y053500D03*
X029500Y053500D03*
X029500Y054500D03*
X030500Y054500D03*
X031500Y054500D03*
X032500Y054500D03*
X033500Y054500D03*
X007500Y056500D03*
X007500Y057500D03*
X007500Y058500D03*
X007500Y059500D03*
X006500Y059500D03*
X006500Y058500D03*
X006500Y057500D03*
X006500Y056500D03*
X006500Y060500D03*
X006500Y061500D03*
X006500Y062500D03*
X006500Y063500D03*
X006500Y064500D03*
X006500Y065500D03*
X007500Y065500D03*
X007500Y064500D03*
X007500Y063500D03*
X007500Y062500D03*
X007500Y061500D03*
X007500Y060500D03*
X007500Y066500D03*
X007500Y067500D03*
X007500Y068500D03*
X007500Y069500D03*
X007500Y070500D03*
X006500Y070500D03*
X006500Y069500D03*
X006500Y068500D03*
X006500Y067500D03*
X006500Y066500D03*
X006500Y071500D03*
X006500Y072500D03*
X006500Y073500D03*
X006500Y074500D03*
X006500Y075500D03*
X007500Y075500D03*
X007500Y074500D03*
X007500Y073500D03*
X007500Y072500D03*
X007500Y071500D03*
D14*
X009500Y071000D03*
X009500Y070000D03*
X009500Y072000D03*
X009500Y073000D03*
X012000Y073000D03*
X012000Y072000D03*
X012000Y071000D03*
X013000Y071000D03*
X013000Y072000D03*
X013000Y073000D03*
X022610Y077220D03*
X024390Y077220D03*
X024390Y079780D03*
X022610Y079780D03*
X034500Y074500D03*
X034500Y073500D03*
X034500Y072500D03*
X035500Y072500D03*
X035500Y073500D03*
X035500Y074500D03*
X044500Y016500D03*
X044500Y008500D03*
X078000Y008500D03*
X078000Y016500D03*
X095500Y011500D03*
X103500Y011500D03*
D15*
X017180Y075440D03*
X016090Y075440D03*
X015000Y075440D03*
X013910Y075440D03*
X012820Y075440D03*
X013365Y076560D03*
X014455Y076560D03*
X015545Y076560D03*
X016635Y076560D03*
D16*
X019920Y076000D03*
X010080Y076000D03*
D17*
X092250Y074500D03*
X093250Y074500D03*
X100250Y072500D03*
X101250Y073000D03*
X101250Y076000D03*
X100250Y076500D03*
D18*
X100250Y074500D03*
D19*
X071500Y072500D03*
X069500Y072500D03*
D20*
X067000Y066000D03*
X075000Y064000D03*
X075500Y064500D03*
X076000Y065000D03*
X079000Y068500D03*
X080000Y068500D03*
X082500Y061000D03*
X082000Y060500D03*
X089500Y062000D03*
X094500Y063500D03*
X089500Y054000D03*
X090500Y047500D03*
X089000Y046500D03*
X092000Y046000D03*
X094500Y045500D03*
X095000Y043000D03*
X097500Y045000D03*
X099500Y042000D03*
X101000Y041000D03*
X104000Y043500D03*
X104500Y044000D03*
X103500Y045500D03*
X103000Y045000D03*
X104000Y046000D03*
X104500Y046500D03*
X095500Y040500D03*
X094000Y039500D03*
X090500Y040000D03*
X088500Y039000D03*
X087000Y038000D03*
X086000Y038500D03*
X085000Y037500D03*
X083500Y037000D03*
X078500Y036500D03*
X078000Y036000D03*
X078000Y034500D03*
X078500Y034000D03*
X079000Y033500D03*
X079500Y033000D03*
X082500Y028500D03*
X083000Y027500D03*
X084000Y028000D03*
X086500Y029000D03*
X087500Y029500D03*
X085500Y031000D03*
X090500Y030500D03*
X092500Y030000D03*
X096500Y033500D03*
X096000Y034000D03*
X097000Y033000D03*
X093500Y034500D03*
X093000Y035000D03*
X092500Y035500D03*
X084500Y045500D03*
X079500Y044500D03*
X077000Y046500D03*
X072500Y045500D03*
X074000Y042500D03*
X073500Y041500D03*
X071000Y036500D03*
X071500Y036000D03*
X072000Y035500D03*
X072500Y035000D03*
X068000Y036500D03*
X067500Y036000D03*
X066000Y035500D03*
X063500Y035000D03*
X063000Y031500D03*
X062500Y031000D03*
X062000Y029500D03*
X061500Y029000D03*
X061000Y028500D03*
X060500Y028000D03*
X062000Y025500D03*
X064000Y027500D03*
X065000Y026000D03*
X066500Y026500D03*
X067000Y027000D03*
X066500Y027500D03*
X069500Y027000D03*
X070500Y030000D03*
X070000Y031000D03*
X069500Y030500D03*
X069000Y031000D03*
X068500Y031500D03*
X074500Y027000D03*
X075000Y026500D03*
X076000Y026000D03*
X077000Y025500D03*
X076500Y024000D03*
X077500Y023500D03*
X075500Y024500D03*
X073000Y025000D03*
X070000Y022500D03*
X069000Y020500D03*
X067500Y019500D03*
X070500Y019000D03*
X068000Y014000D03*
X066000Y009500D03*
X068000Y008500D03*
X068500Y007500D03*
X070000Y008500D03*
X073500Y008500D03*
X074500Y007500D03*
X076000Y007500D03*
X076000Y009500D03*
X074500Y010500D03*
X073500Y009500D03*
X078000Y009500D03*
X083000Y007500D03*
X084500Y008500D03*
X085500Y008500D03*
X085500Y007500D03*
X083500Y009500D03*
X083000Y014000D03*
X080500Y014000D03*
X080000Y015500D03*
X085500Y020500D03*
X090500Y020000D03*
X090500Y018500D03*
X092000Y016000D03*
X095500Y018500D03*
X097500Y017000D03*
X100000Y018500D03*
X101500Y020000D03*
X100000Y020500D03*
X096500Y023500D03*
X101000Y016500D03*
X095000Y012500D03*
X093500Y011500D03*
X094500Y009500D03*
X094500Y007500D03*
X093000Y007500D03*
X092000Y007500D03*
X090500Y008500D03*
X089500Y008500D03*
X089500Y009500D03*
X096500Y007500D03*
X097500Y008500D03*
X099000Y007500D03*
X100000Y007500D03*
X101000Y008500D03*
X102000Y007500D03*
X102000Y010500D03*
X066000Y007500D03*
X063500Y007500D03*
X063500Y008500D03*
X062000Y008500D03*
X060500Y007500D03*
X058500Y008500D03*
X057000Y008500D03*
X056500Y009500D03*
X055500Y007500D03*
X054500Y007500D03*
X052000Y008500D03*
X051000Y007500D03*
X049500Y007500D03*
X048500Y008500D03*
X048500Y009500D03*
X049500Y010500D03*
X051000Y009500D03*
X050500Y012500D03*
X052500Y014000D03*
X053000Y015000D03*
X051000Y015000D03*
X052500Y017000D03*
X054500Y019500D03*
X057500Y019500D03*
X058000Y018000D03*
X062500Y017500D03*
X063500Y019500D03*
X063000Y020000D03*
X062500Y020500D03*
X062500Y014500D03*
X062500Y012500D03*
X061500Y009500D03*
X046500Y016500D03*
X045500Y014000D03*
X045000Y013500D03*
X044000Y015000D03*
X041000Y016500D03*
X044000Y019500D03*
X043000Y025500D03*
X042500Y026000D03*
X042000Y026500D03*
X044000Y027500D03*
X046000Y025500D03*
X046500Y026000D03*
X047000Y026500D03*
X049500Y031000D03*
X048500Y032000D03*
X046000Y032500D03*
X047000Y034500D03*
X046500Y036500D03*
X043500Y038500D03*
X036500Y037500D03*
X032000Y033000D03*
X032000Y030000D03*
X033000Y030000D03*
X033500Y027500D03*
X034000Y027000D03*
X037500Y030500D03*
X043500Y031500D03*
X053000Y032000D03*
X053500Y032500D03*
X054000Y029500D03*
X054500Y029000D03*
X055000Y028500D03*
X055500Y028000D03*
X055000Y026500D03*
X055500Y026000D03*
X054500Y025500D03*
X054000Y027500D03*
X057500Y033000D03*
X059000Y033500D03*
X059500Y034000D03*
X060000Y034500D03*
X036500Y044500D03*
X032000Y044500D03*
X028000Y048000D03*
X027000Y048000D03*
X023500Y045500D03*
X023500Y044500D03*
X023500Y043500D03*
X024000Y043000D03*
X023500Y042500D03*
X024500Y040000D03*
X024000Y039000D03*
X023500Y038500D03*
X024000Y038000D03*
X024000Y037000D03*
X023500Y036500D03*
X024000Y036000D03*
X026500Y031500D03*
X029500Y036500D03*
X020500Y026500D03*
X021000Y026000D03*
X019000Y025000D03*
X016000Y024500D03*
X016500Y023000D03*
X017000Y022500D03*
X019500Y022000D03*
X020000Y021000D03*
X014500Y024000D03*
X013000Y023500D03*
X008500Y022000D03*
X004000Y021500D03*
X010000Y027500D03*
X010000Y028500D03*
X010000Y029500D03*
X026000Y025500D03*
X027500Y021500D03*
X027000Y019000D03*
X027500Y018000D03*
X026000Y016500D03*
X026000Y014000D03*
X026000Y013000D03*
X028000Y011500D03*
X029500Y012000D03*
X030500Y013500D03*
X031500Y011500D03*
X033500Y011500D03*
X036000Y014000D03*
X037500Y009500D03*
X037000Y008500D03*
X036000Y007500D03*
X038500Y007500D03*
X038500Y008500D03*
X041000Y007500D03*
X042000Y007500D03*
X043000Y007500D03*
X045500Y007500D03*
X032000Y008500D03*
X031000Y007500D03*
X030000Y007500D03*
X030500Y009500D03*
X023500Y008500D03*
X022000Y007500D03*
X021000Y008500D03*
X020000Y007500D03*
X018000Y007500D03*
X017000Y008500D03*
X015500Y009500D03*
X014500Y010500D03*
X014500Y013000D03*
X014000Y013500D03*
X018500Y012500D03*
X020000Y012500D03*
X020500Y011500D03*
X021500Y009500D03*
X022500Y010500D03*
X022500Y012500D03*
X018000Y010500D03*
X014500Y007500D03*
X013000Y007500D03*
X011500Y008500D03*
X010500Y007500D03*
X009500Y008500D03*
X008500Y007500D03*
X007000Y007500D03*
X006000Y007500D03*
X004500Y008500D03*
X004000Y009500D03*
X006000Y011000D03*
X007000Y013000D03*
X009500Y009500D03*
X025500Y019500D03*
X016500Y049000D03*
X015500Y049500D03*
X020500Y052500D03*
X023500Y052500D03*
X025500Y053500D03*
X033500Y055500D03*
X038000Y058500D03*
X038500Y058000D03*
X038000Y065000D03*
X035500Y066500D03*
X034500Y071000D03*
X048500Y057500D03*
X057000Y058500D03*
X057500Y058000D03*
X052000Y069500D03*
X016500Y066500D03*
X015500Y066500D03*
X015000Y070000D03*
X012000Y061000D03*
X011500Y060500D03*
X015000Y059000D03*
M02*
