%
M48
M72
T01C0.0320
T02C0.0360
T03C0.0400
T04C0.0430
T05C0.0440
T06C0.0710
T07C0.1200
T08C0.1250
%
T01
X6000Y7500
X7000Y7500
X8000Y8500
X9500Y8500
X6000Y11000
X4500Y9500
X4500Y8500
X3500Y13500
X3500Y14500
X3500Y15500
X3500Y16500
X3500Y17500
X3500Y18500
X3500Y19500
X2500Y19500
X4500Y21500
X4500Y23500
X2500Y23500
X6500Y23500
X6500Y21500
X8000Y20500
X8500Y22000
X11000Y21000
X12000Y20500
X13500Y20000
X15500Y19500
X15500Y18500
X15500Y17500
X15500Y16500
X15500Y15500
X15500Y14500
X15500Y13500
X15500Y12500
X17500Y12500
X18500Y13500
X18500Y14500
X18500Y15500
X18500Y16500
X18500Y17500
X18500Y18500
X18500Y19500
X21500Y19500
X21500Y18500
X21500Y17500
X21500Y16500
X21500Y15500
X21500Y14500
X21500Y13500
X21500Y12500
X22500Y12500
X23500Y12500
X24500Y13500
X24500Y14500
X24500Y15500
X24500Y16500
X24500Y17500
X24500Y18500
X24500Y19500
X25500Y19500
X26000Y16500
X29500Y16500
X29500Y15500
X29500Y14500
X29500Y13500
X29500Y12000
X27500Y11500
X30500Y9500
X32000Y8500
X36000Y7500
X37000Y8500
X38500Y8500
X37500Y9500
X36500Y13500
X36000Y14000
X36500Y14500
X36500Y15500
X36500Y16500
X36500Y17500
X36500Y18500
X36500Y19500
X37500Y21500
X39500Y21500
X41000Y22500
X41500Y19500
X43000Y18000
X43000Y16000
X43000Y15000
X42500Y14000
X42000Y13500
X39500Y13500
X39500Y14500
X39500Y15500
X39500Y16500
X39500Y17500
X39500Y18500
X39500Y19500
X34500Y22500
X32500Y21500
X30500Y21500
X29500Y19500
X29500Y18500
X29500Y17500
X32500Y17500
X32500Y16500
X32500Y15500
X32500Y14500
X32500Y13500
X32500Y18500
X32500Y19500
X35000Y27000
X39500Y28500
X40000Y28000
X40500Y27500
X48500Y21500
X50500Y21500
X50500Y19500
X50500Y18500
X50500Y17500
X50500Y16500
X50500Y15500
X51000Y15000
X50500Y14500
X50500Y13500
X51000Y12000
X52000Y11500
X52500Y13000
X53500Y14000
X52500Y16000
X52500Y17000
X56500Y16500
X56500Y15500
X56500Y14500
X56500Y13500
X56000Y11500
X57500Y9500
X57000Y8500
X56000Y7500
X54500Y7500
X52000Y8500
X51000Y7500
X49500Y7500
X48500Y8500
X48500Y9500
X49500Y10500
X51000Y9500
X47500Y13500
X47500Y14500
X47500Y15500
X47500Y16500
X47500Y17500
X47500Y18500
X47500Y19500
X45000Y16000
X44500Y8500
X42000Y7500
X56500Y17500
X56500Y18500
X56500Y19500
X57500Y21500
X59500Y21500
X59500Y19500
X59500Y18500
X59500Y17500
X59500Y16500
X59500Y15500
X59500Y14500
X59500Y13500
X60500Y13500
X62500Y13500
X63500Y12500
X62500Y11500
X62500Y9500
X62000Y8500
X63500Y7500
X64500Y8500
X66000Y7500
X66500Y8500
X68500Y9500
X69500Y8500
X68500Y11500
X70500Y11500
X71500Y13500
X71500Y14500
X71500Y15500
X71500Y16500
X71500Y17500
X71500Y18500
X71500Y19500
X68500Y19500
X68500Y18500
X68500Y17500
X68500Y16500
X68500Y15500
X68500Y14500
X68500Y13500
X65500Y13500
X64500Y13500
X65500Y12000
X64500Y11500
X65500Y14500
X65500Y15500
X65500Y16500
X65500Y17500
X65500Y18500
X65500Y19500
X64500Y18500
X64000Y17500
X63500Y16500
X62500Y16500
X62500Y15500
X62500Y14500
X62500Y17500
X62500Y18500
X62500Y19500
X62500Y20500
X62500Y21500
X62500Y22500
X65500Y22500
X65500Y21500
X65500Y20500
X68500Y25000
X68000Y25500
X68500Y26000
X68000Y26500
X68500Y27000
X63000Y27500
X54500Y27500
X73500Y11500
X74500Y10500
X76000Y9500
X76000Y7500
X74500Y7500
X73500Y8500
X75500Y13500
X75500Y14500
X75500Y15500
X75500Y16500
X75500Y17500
X75500Y18500
X75500Y19500
X75500Y20500
X75500Y21500
X75500Y22500
X75500Y23500
X75500Y24500
X75500Y25500
X75500Y26500
X75500Y28500
X77500Y28500
X78500Y26500
X78500Y25500
X78500Y24500
X78500Y23500
X78500Y22500
X78500Y21500
X78500Y20500
X78500Y19500
X78500Y18500
X78500Y17500
X78500Y16500
X78500Y15500
X78500Y14500
X78500Y13500
X83500Y13500
X83500Y14500
X83500Y15500
X83500Y16500
X83500Y17500
X83500Y18500
X83500Y19500
X85500Y20000
X86500Y19500
X86500Y18500
X86500Y17500
X86500Y16500
X86500Y15500
X86500Y14500
X86500Y13500
X90500Y13500
X90500Y12000
X92500Y12000
X93500Y13500
X93500Y14500
X93500Y15500
X93500Y16500
X93500Y17500
X93500Y18500
X93500Y19500
X94500Y20000
X93500Y20500
X93500Y21500
X93500Y22500
X95500Y23000
X95500Y21500
X95500Y20500
X95500Y19500
X95500Y18500
X95500Y17500
X97500Y17500
X94500Y14500
X95000Y12000
X94500Y11500
X92500Y8500
X92500Y7500
X91500Y7500
X89500Y8500
X87500Y7500
X84500Y8500
X83500Y7500
X83500Y9500
X90500Y9500
X94500Y7500
X96000Y7500
X97000Y8500
X98500Y7500
X99500Y7500
X101000Y8500
X102000Y7500
X102000Y10500
X102000Y16000
X102500Y16500
X101500Y18500
X102500Y19000
X100500Y20500
X100500Y21500
X100500Y22500
X100500Y23500
X100500Y24500
X100500Y25500
X99500Y24500
X98500Y25500
X97500Y25500
X97500Y24500
X97500Y23500
X97500Y22500
X97000Y22000
X97500Y21500
X97500Y20500
X99500Y21500
X95500Y25000
X96000Y26000
X97500Y26500
X100500Y26500
X90500Y22500
X90500Y21500
X90500Y20500
X90500Y19500
X90000Y19000
X90500Y18500
X90500Y17500
X90000Y17000
X90500Y16500
X90000Y16000
X90500Y15500
X90500Y14500
X86500Y21500
X86500Y23500
X86500Y24500
X86500Y25500
X86500Y26500
X86500Y28500
X84500Y28500
X83500Y26500
X83500Y25500
X83500Y24500
X83500Y23500
X84500Y21500
X81500Y25500
X80500Y24500
X80500Y28500
X81500Y29500
X83500Y36500
X84500Y37000
X86500Y37000
X85500Y39500
X85500Y40500
X85500Y41500
X85500Y42500
X85500Y43500
X85500Y44500
X85500Y45500
X85500Y46500
X86500Y47500
X85500Y48500
X85500Y49500
X85500Y50500
X85500Y51500
X85500Y52500
X85500Y53500
X85500Y54500
X85500Y55500
X85500Y56500
X85500Y57500
X85500Y58500
X85500Y59500
X87000Y60000
X87000Y59000
X87000Y58000
X85500Y60500
X85500Y61500
X85500Y62500
X82500Y62500
X82500Y61500
X82500Y60500
X82500Y59500
X82500Y58500
X82500Y57500
X82500Y56500
X82500Y55500
X82500Y54500
X82500Y53500
X81500Y52500
X79500Y52500
X79500Y53500
X78000Y52000
X78000Y50000
X77000Y49500
X76500Y48500
X77000Y47000
X77500Y46250
X77500Y45500
X78000Y47000
X80500Y46500
X80500Y45500
X80500Y44500
X80500Y43500
X80500Y42500
X80500Y41500
X80500Y40500
X83500Y40500
X83500Y41500
X83500Y42500
X83500Y43500
X83500Y44500
X83500Y45500
X83500Y46500
X80500Y48500
X81500Y49500
X82000Y50000
X82500Y49500
X83000Y50000
X83500Y50500
X84500Y51000
X84500Y49500
X87500Y48500
X88500Y46500
X88500Y45500
X88500Y44500
X88500Y43500
X90500Y43500
X90500Y44500
X90500Y45500
X90500Y46500
X93500Y46500
X93500Y45500
X93500Y44500
X93500Y43500
X93500Y42500
X93500Y41500
X93500Y40500
X93500Y39500
X94500Y41000
X96500Y40500
X96500Y39500
X96500Y41500
X96500Y42500
X96500Y43500
X96500Y44500
X96500Y45500
X96500Y46500
X96500Y48500
X94500Y48500
X94500Y49500
X94500Y50500
X94500Y51500
X94500Y52500
X94500Y53500
X94500Y54500
X94500Y55500
X94500Y56500
X94500Y57500
X94500Y58500
X94500Y59500
X94500Y60500
X94500Y61500
X94500Y62500
X91500Y62500
X91500Y61500
X91500Y60500
X91500Y59500
X91500Y58500
X91500Y57500
X91500Y56500
X91500Y55500
X91500Y54500
X91500Y53500
X91500Y52500
X91500Y51500
X91500Y50500
X91500Y49500
X98500Y49500
X100500Y49500
X100500Y50500
X100500Y51500
X100500Y52500
X100500Y53500
X100500Y54500
X100500Y55500
X100500Y56500
X100500Y57500
X100500Y58500
X100500Y59500
X102000Y60000
X100500Y60500
X100500Y61500
X100500Y62500
X100500Y66500
X99500Y66500
X99500Y70500
X100500Y70500
X102500Y57500
X99500Y46500
X99500Y45500
X99500Y44500
X99500Y43500
X101000Y45000
X103000Y45000
X99500Y42500
X99500Y41500
X99500Y40500
X99500Y39500
X99000Y36500
X97500Y36500
X95500Y36500
X90500Y39500
X90500Y40500
X90500Y41500
X90500Y42500
X88500Y42500
X88500Y41500
X88500Y40500
X88500Y39500
X73500Y45500
X74500Y54500
X74500Y55500
X74500Y56500
X74500Y57500
X74500Y58500
X74500Y59500
X74500Y60500
X74500Y61500
X77500Y61500
X77500Y60500
X77500Y59500
X77500Y58500
X77500Y57500
X77500Y56500
X77500Y55500
X76500Y54500
X79500Y54500
X79500Y55500
X79500Y56500
X79500Y57500
X79500Y58500
X79500Y59500
X79500Y60500
X79500Y61500
X79500Y62500
X52000Y69500
X47500Y71500
X45500Y70500
X45500Y68500
X43500Y68500
X43500Y66500
X43500Y65000
X43500Y63500
X41500Y63500
X41500Y62500
X41500Y61500
X41500Y64500
X41500Y65500
X41500Y66500
X41500Y67500
X41500Y68500
X41500Y69500
X41500Y70500
X41500Y71500
X41500Y72500
X41500Y73500
X41500Y74500
X43550Y73500
X45450Y73500
X43500Y71500
X43500Y70500
X47500Y66500
X47500Y65000
X47500Y63500
X46500Y61500
X44500Y61500
X38500Y61500
X38500Y62500
X38500Y63500
X38500Y64500
X38000Y65000
X38500Y65500
X38500Y66500
X38500Y67500
X38500Y68500
X38500Y69500
X38500Y70500
X38500Y71500
X38500Y72500
X38500Y73500
X38500Y74500
X34500Y71000
X32500Y72500
X32500Y73500
X32500Y74500
X32500Y75500
X28500Y75500
X28500Y74500
X28500Y73500
X28500Y72500
X27500Y72500
X27500Y73500
X27500Y74500
X27500Y75500
X24500Y75500
X24500Y74500
X24500Y73500
X24500Y72500
X24500Y69500
X24500Y68500
X23500Y68500
X22500Y68500
X22500Y69500
X21500Y68500
X20500Y68500
X18500Y67500
X17500Y67500
X17500Y66500
X17500Y65500
X17500Y64500
X17500Y63500
X17500Y62500
X17500Y61500
X18500Y61500
X18500Y63500
X18500Y65500
X20500Y64500
X20500Y63500
X21500Y64500
X22500Y64500
X23500Y64500
X23500Y63500
X22500Y62500
X24500Y62500
X24500Y64500
X20500Y61500
X15000Y59000
X14500Y61500
X14500Y62500
X14500Y63500
X14500Y64500
X14500Y65500
X14500Y66500
X14500Y67500
X14500Y68500
X12500Y67500
X10500Y67500
X9500Y67500
X12500Y65500
X12500Y63500
X12500Y61500
X12000Y61000
X11500Y60500
X10500Y63500
X9500Y63500
X17500Y68500
X33500Y68500
X34500Y68500
X35500Y68500
X36500Y67500
X35500Y66500
X35500Y64500
X34500Y64500
X34500Y63500
X33500Y62500
X33500Y64500
X35500Y62500
X36500Y69500
X20500Y28500
X21000Y28000
X19000Y25500
X19500Y25000
X16000Y26000
X14500Y26500
X6500Y19500
X6500Y18500
X6500Y17500
X6500Y16500
X6500Y15500
X6500Y14500
X6500Y13500
X7000Y13000
X15500Y9500
X17000Y8500
X21000Y8500
X22000Y7500
X23500Y8500
X21500Y9500
X22500Y10500
X20500Y11500
X26000Y27500
X58500Y8500
T02
X7500Y56500
X7500Y57500
X7500Y58500
X7500Y59500
X6500Y59500
X6500Y58500
X6500Y57500
X6500Y56500
X6500Y60500
X6500Y61500
X6500Y62500
X6500Y63500
X6500Y64500
X6500Y65500
X7500Y65500
X7500Y64500
X7500Y63500
X7500Y62500
X7500Y61500
X7500Y60500
X7500Y66500
X7500Y67500
X7500Y68500
X7500Y69500
X7500Y70500
X6500Y70500
X6500Y69500
X6500Y68500
X6500Y67500
X6500Y66500
X6500Y71500
X6500Y72500
X6500Y73500
X6500Y74500
X6500Y75500
X7500Y75500
X7500Y74500
X7500Y73500
X7500Y72500
X7500Y71500
T03
X9500Y71000
X9500Y70000
X9500Y72000
X9500Y73000
X22610Y77220
X24390Y77220
X24390Y79780
X22610Y79780
X34500Y74500
X34500Y73500
X34500Y72500
X35500Y72500
X35500Y73500
X35500Y74500
X95500Y11500
X103500Y11500
T04
X17180Y75440
X16090Y75440
X15000Y75440
X13910Y75440
X12820Y75440
X13365Y76560
X14455Y76560
X15545Y76560
X16635Y76560
T05
X92250Y74500
X93250Y74500
X100250Y72500
X101250Y73000
X101250Y76000
X100250Y76500
T06
X100250Y74500
T07
X19920Y76000
X10080Y76000
T08
X2770Y83000
X22770Y83000
X30270Y83000
X50270Y83000
X55250Y83000
X75250Y83000
X82750Y83000
X102750Y83000
M30
