G75*
%MOIN*%
%OFA0B0*%
%FSLAX24Y24*%
%IPPOS*%
%LPD*%
%AMOC8*
5,1,8,0,0,1.08239X$1,22.5*
%
%ADD10C,0.1500*%
%ADD11OC8,0.0624*%
%ADD12OC8,0.0756*%
%ADD13R,0.0960X0.5320*%
%ADD14OC8,0.0672*%
%ADD15OC8,0.0720*%
%ADD16C,0.0576*%
D10*
X002870Y083700D03*
X022870Y083700D03*
X030370Y083700D03*
X050370Y083700D03*
X055350Y083700D03*
X075350Y083700D03*
X082850Y083700D03*
X102850Y083700D03*
D11*
X096600Y032700D03*
X096600Y031700D03*
X096600Y030700D03*
X096600Y029700D03*
X096600Y028700D03*
X096600Y027700D03*
X096600Y026700D03*
X093600Y026700D03*
X093600Y027700D03*
X093600Y028700D03*
X093600Y029700D03*
X093600Y030700D03*
X093600Y031700D03*
X093600Y032700D03*
X082600Y032700D03*
X082600Y031700D03*
X082600Y030700D03*
X082600Y029700D03*
X082600Y028700D03*
X082600Y027700D03*
X082600Y026700D03*
X079600Y026700D03*
X079600Y027700D03*
X079600Y028700D03*
X079600Y029700D03*
X079600Y030700D03*
X079600Y031700D03*
X079600Y032700D03*
X068600Y032700D03*
X068600Y031700D03*
X068600Y030700D03*
X068600Y029700D03*
X068600Y028700D03*
X068600Y027700D03*
X068600Y026700D03*
X065600Y026700D03*
X065600Y027700D03*
X065600Y028700D03*
X065600Y029700D03*
X065600Y030700D03*
X065600Y031700D03*
X065600Y032700D03*
X054100Y032700D03*
X054100Y031700D03*
X054100Y030700D03*
X054100Y029700D03*
X054100Y028700D03*
X054100Y027700D03*
X054100Y026700D03*
X051100Y026700D03*
X051100Y027700D03*
X051100Y028700D03*
X051100Y029700D03*
X051100Y030700D03*
X051100Y031700D03*
X051100Y032700D03*
X040100Y032700D03*
X040100Y031700D03*
X040100Y030700D03*
X040100Y029700D03*
X040100Y028700D03*
X040100Y027700D03*
X040100Y026700D03*
X040100Y025700D03*
X037100Y025700D03*
X037100Y026700D03*
X037100Y027700D03*
X037100Y028700D03*
X037100Y029700D03*
X037100Y030700D03*
X037100Y031700D03*
X037100Y032700D03*
X025600Y032700D03*
X025600Y031700D03*
X025600Y030700D03*
X025600Y029700D03*
X025600Y028700D03*
X025600Y027700D03*
X025600Y026700D03*
X022600Y026700D03*
X022600Y027700D03*
X022600Y028700D03*
X022600Y029700D03*
X022600Y030700D03*
X022600Y031700D03*
X022600Y032700D03*
X022600Y037200D03*
X022600Y041200D03*
X011600Y032700D03*
X011600Y031700D03*
X011600Y030700D03*
X011600Y029700D03*
X011600Y028700D03*
X011600Y027700D03*
X011600Y026700D03*
X008600Y026700D03*
X008600Y027700D03*
X008600Y028700D03*
X008600Y029700D03*
X008600Y030700D03*
X008600Y031700D03*
X008600Y032700D03*
X008600Y019700D03*
X008600Y018700D03*
X008600Y017700D03*
X008600Y016700D03*
X008600Y015700D03*
X008600Y014700D03*
X008600Y013700D03*
X011600Y013700D03*
X011600Y014700D03*
X011600Y015700D03*
X011600Y016700D03*
X011600Y017700D03*
X011600Y018700D03*
X011600Y019700D03*
X022600Y019700D03*
X022600Y018700D03*
X022600Y017700D03*
X022600Y016700D03*
X022600Y015700D03*
X022600Y014700D03*
X022600Y013700D03*
X025600Y013700D03*
X025600Y014700D03*
X025600Y015700D03*
X025600Y016700D03*
X025600Y017700D03*
X025600Y018700D03*
X025600Y019700D03*
X037100Y019700D03*
X037100Y018700D03*
X037100Y017700D03*
X037100Y016700D03*
X037100Y015700D03*
X037100Y014700D03*
X037100Y013700D03*
X040100Y013700D03*
X040100Y014700D03*
X040100Y015700D03*
X040100Y016700D03*
X040100Y017700D03*
X040100Y018700D03*
X040100Y019700D03*
X051100Y019700D03*
X051100Y018700D03*
X051100Y017700D03*
X051100Y016700D03*
X051100Y015700D03*
X051100Y014700D03*
X051100Y013700D03*
X054100Y013700D03*
X054100Y014700D03*
X054100Y015700D03*
X054100Y016700D03*
X054100Y017700D03*
X054100Y018700D03*
X054100Y019700D03*
X065600Y019700D03*
X065600Y018700D03*
X065600Y017700D03*
X065600Y016700D03*
X065600Y015700D03*
X065600Y014700D03*
X065600Y013700D03*
X068600Y013700D03*
X068600Y014700D03*
X068600Y015700D03*
X068600Y016700D03*
X068600Y017700D03*
X068600Y018700D03*
X068600Y019700D03*
X079600Y019700D03*
X079600Y018700D03*
X079600Y017700D03*
X079600Y016700D03*
X079600Y015700D03*
X079600Y014700D03*
X079600Y013700D03*
X082600Y013700D03*
X082600Y014700D03*
X082600Y015700D03*
X082600Y016700D03*
X082600Y017700D03*
X082600Y018700D03*
X082600Y019700D03*
X093600Y019700D03*
X093600Y018700D03*
X093600Y017700D03*
X093600Y016700D03*
X093600Y015700D03*
X093600Y014700D03*
X093600Y013700D03*
X096600Y013700D03*
X096600Y014700D03*
X096600Y015700D03*
X096600Y016700D03*
X096600Y017700D03*
X096600Y018700D03*
X096600Y019700D03*
D12*
X091600Y037200D03*
X089600Y037200D03*
X088100Y037200D03*
X086100Y037200D03*
X083600Y037200D03*
X081600Y037200D03*
X079600Y037200D03*
X077600Y037200D03*
X075600Y037200D03*
X074100Y037200D03*
X071600Y037200D03*
X069600Y037200D03*
X069600Y041200D03*
X071600Y041200D03*
X074100Y041200D03*
X075600Y041200D03*
X077600Y041200D03*
X079600Y041200D03*
X081600Y041200D03*
X083600Y041200D03*
X086100Y041200D03*
X088100Y041200D03*
X089600Y041200D03*
X091600Y041200D03*
X020600Y041200D03*
X020600Y037200D03*
D13*
X002225Y004325D03*
X003475Y004325D03*
X004725Y004325D03*
X005975Y004325D03*
X007225Y004325D03*
X008475Y004325D03*
X009725Y004325D03*
X010975Y004325D03*
X012225Y004325D03*
X013475Y004325D03*
X014725Y004325D03*
X015975Y004325D03*
X017225Y004325D03*
X018475Y004325D03*
X019725Y004325D03*
X020975Y004325D03*
X022225Y004325D03*
X023475Y004325D03*
X029725Y004325D03*
X030975Y004325D03*
X032225Y004325D03*
X033475Y004325D03*
X034725Y004325D03*
X035975Y004325D03*
X037225Y004325D03*
X038475Y004325D03*
X039725Y004325D03*
X040975Y004325D03*
X042225Y004325D03*
X043475Y004325D03*
X044725Y004325D03*
X045975Y004325D03*
X047225Y004325D03*
X048475Y004325D03*
X049725Y004325D03*
X050975Y004325D03*
X054725Y004325D03*
X055975Y004325D03*
X057225Y004325D03*
X058475Y004325D03*
X059725Y004325D03*
X060975Y004325D03*
X062225Y004325D03*
X063475Y004325D03*
X064725Y004325D03*
X065975Y004325D03*
X067225Y004325D03*
X068475Y004325D03*
X069725Y004325D03*
X070975Y004325D03*
X072225Y004325D03*
X073475Y004325D03*
X074725Y004325D03*
X075975Y004325D03*
X082225Y004325D03*
X083475Y004325D03*
X084725Y004325D03*
X085975Y004325D03*
X087225Y004325D03*
X088475Y004325D03*
X089725Y004325D03*
X090975Y004325D03*
X092225Y004325D03*
X093475Y004325D03*
X094725Y004325D03*
X095975Y004325D03*
X097225Y004325D03*
X098475Y004325D03*
X099725Y004325D03*
X100975Y004325D03*
X102225Y004325D03*
X103475Y004325D03*
D14*
X096600Y022200D03*
X093600Y022200D03*
X082600Y021700D03*
X079600Y021700D03*
X068600Y021700D03*
X065600Y021700D03*
X054100Y021700D03*
X051100Y021700D03*
X040100Y021700D03*
X037100Y021700D03*
X025600Y021700D03*
X022600Y021700D03*
X011600Y021700D03*
X008600Y021700D03*
X008600Y035200D03*
X011600Y035200D03*
X022600Y035200D03*
X025600Y035200D03*
X037100Y035200D03*
X040100Y035200D03*
X051100Y035200D03*
X054100Y035200D03*
X065600Y035200D03*
X068600Y035200D03*
X079600Y035200D03*
X082600Y035200D03*
X094100Y035200D03*
X097100Y035200D03*
X011600Y059700D03*
X011600Y060700D03*
X011600Y061700D03*
X010600Y061700D03*
X010600Y060700D03*
X010600Y059700D03*
X010600Y062700D03*
X010600Y063700D03*
X010600Y064700D03*
X010600Y065700D03*
X010600Y066700D03*
X010600Y067700D03*
X011600Y067700D03*
X011600Y066700D03*
X011600Y065700D03*
X011600Y064700D03*
X011600Y063700D03*
X011600Y062700D03*
X011600Y068700D03*
X011600Y069700D03*
X011600Y070700D03*
X011600Y071700D03*
X011600Y072700D03*
X011600Y073700D03*
X010600Y073700D03*
X010600Y072700D03*
X010600Y071700D03*
X010600Y070700D03*
X010600Y069700D03*
X010600Y068700D03*
X010600Y074700D03*
X010600Y075700D03*
X010600Y076700D03*
X010600Y077700D03*
X010600Y078700D03*
X011600Y078700D03*
X011600Y077700D03*
X011600Y076700D03*
X011600Y075700D03*
X011600Y074700D03*
D15*
X048100Y019700D03*
X048100Y011700D03*
X074600Y011700D03*
X074600Y019700D03*
X101100Y019700D03*
X101100Y011700D03*
D16*
X084600Y011700D03*
X084600Y010700D03*
X077100Y010700D03*
X077100Y011700D03*
X077100Y016700D03*
X075600Y024200D03*
X076600Y025200D03*
X071600Y024200D03*
X070600Y025200D03*
X063100Y021700D03*
X062100Y021700D03*
X061100Y021700D03*
X060100Y021700D03*
X058600Y017700D03*
X057100Y017700D03*
X057100Y010200D03*
X057100Y009200D03*
X053600Y010200D03*
X052600Y010200D03*
X044600Y010200D03*
X044600Y011200D03*
X037100Y011200D03*
X037100Y010200D03*
X034600Y012700D03*
X032100Y011200D03*
X032100Y010200D03*
X027100Y012700D03*
X032100Y015700D03*
X041100Y021700D03*
X048100Y021700D03*
X056600Y028700D03*
X057100Y040200D03*
X058600Y040200D03*
X034100Y042700D03*
X033100Y042700D03*
X030600Y040200D03*
X029100Y040200D03*
X026100Y040200D03*
X020600Y031200D03*
X019100Y031200D03*
X017100Y031200D03*
X015600Y031200D03*
X013850Y031200D03*
X034600Y024200D03*
X019100Y013700D03*
X021100Y011200D03*
X009600Y010700D03*
X009600Y009700D03*
X004600Y010200D03*
X004600Y011200D03*
X062100Y010200D03*
X062100Y009200D03*
X095100Y037700D03*
M02*
