G75*
%MOIN*%
%OFA0B0*%
%FSLAX24Y24*%
%IPPOS*%
%LPD*%
%AMOC8*
5,1,8,0,0,1.08239X$1,22.5*
%
%ADD10C,0.0170*%
%ADD11C,0.0180*%
%ADD12C,0.0210*%
%ADD13C,0.0240*%
%ADD14OC8,0.0520*%
%ADD15OC8,0.0630*%
%ADD16R,0.0800X0.5160*%
%ADD17OC8,0.0560*%
%ADD18OC8,0.0600*%
%ADD19C,0.0320*%
%ADD20C,0.0480*%
%ADD21C,0.0160*%
D10*
X047073Y018962D02*
X047427Y018962D01*
X047250Y018785D02*
X047250Y019139D01*
X073685Y019050D02*
X074039Y019050D01*
X073862Y019227D02*
X073862Y018873D01*
X100073Y018962D02*
X100427Y018962D01*
X100250Y018785D02*
X100250Y019139D01*
D11*
X094846Y081290D02*
X094526Y081290D01*
X094686Y081290D02*
X094686Y081770D01*
X094526Y081610D01*
X093631Y081770D02*
X093311Y081770D01*
X093311Y081290D01*
X093631Y081290D01*
X093471Y081530D02*
X093311Y081530D01*
X093023Y081370D02*
X093023Y081690D01*
X092943Y081770D01*
X092703Y081770D01*
X092703Y081290D01*
X092943Y081290D01*
X093023Y081370D01*
X092458Y081290D02*
X092298Y081290D01*
X092378Y081290D02*
X092378Y081770D01*
X092298Y081770D02*
X092458Y081770D01*
X092010Y081690D02*
X091930Y081770D01*
X091770Y081770D01*
X091690Y081690D01*
X091690Y081610D01*
X091770Y081530D01*
X091930Y081530D01*
X092010Y081450D01*
X092010Y081370D01*
X091930Y081290D01*
X091770Y081290D01*
X091690Y081370D01*
D12*
X091492Y080456D02*
X091275Y080456D01*
X091167Y080347D01*
X091167Y080239D01*
X091275Y080130D01*
X091492Y080130D01*
X091601Y080022D01*
X091601Y079913D01*
X091492Y079805D01*
X091275Y079805D01*
X091167Y079913D01*
X090809Y079805D02*
X090592Y080022D01*
X090700Y080022D02*
X090375Y080022D01*
X090375Y079805D02*
X090375Y080456D01*
X090700Y080456D01*
X090809Y080347D01*
X090809Y080130D01*
X090700Y080022D01*
X090017Y080130D02*
X089908Y080022D01*
X089583Y080022D01*
X089583Y079805D02*
X089583Y080456D01*
X089908Y080456D01*
X090017Y080347D01*
X090017Y080130D01*
X089225Y079805D02*
X089225Y080456D01*
X088791Y080456D02*
X089225Y079805D01*
X088791Y079805D02*
X088791Y080456D01*
X088433Y080456D02*
X088433Y079805D01*
X087999Y079805D02*
X087999Y080456D01*
X088216Y080239D01*
X088433Y080456D01*
X087641Y079805D02*
X087208Y079805D01*
X087208Y080456D01*
X086849Y080456D02*
X086416Y080022D01*
X086524Y080130D02*
X086849Y079805D01*
X086416Y079805D02*
X086416Y080456D01*
X086057Y080456D02*
X085841Y080456D01*
X085949Y080456D02*
X085949Y079913D01*
X085841Y079805D01*
X085732Y079805D01*
X085624Y079913D01*
X085266Y079805D02*
X085266Y080456D01*
X085266Y080130D02*
X084832Y080130D01*
X084832Y079805D02*
X084832Y080456D01*
X084474Y080456D02*
X084040Y080456D01*
X084040Y079805D01*
X084040Y080130D02*
X084257Y080130D01*
X083682Y079805D02*
X083248Y079805D01*
X083248Y080456D01*
X083682Y080456D01*
X083465Y080130D02*
X083248Y080130D01*
X082890Y079913D02*
X082890Y080347D01*
X082782Y080456D01*
X082456Y080456D01*
X082456Y079805D01*
X082782Y079805D01*
X082890Y079913D01*
X082098Y079913D02*
X081990Y079805D01*
X081773Y079805D01*
X081664Y079913D01*
X081664Y080347D01*
X081773Y080456D01*
X081990Y080456D01*
X082098Y080347D01*
X081306Y080347D02*
X081306Y080239D01*
X081198Y080130D01*
X080873Y080130D01*
X081198Y080130D02*
X081306Y080022D01*
X081306Y079913D01*
X081198Y079805D01*
X080873Y079805D01*
X080873Y080456D01*
X081198Y080456D01*
X081306Y080347D01*
X080514Y080239D02*
X080514Y079805D01*
X080514Y080130D02*
X080081Y080130D01*
X080081Y080239D02*
X080297Y080456D01*
X080514Y080239D01*
X080081Y080239D02*
X080081Y079805D01*
X079722Y079913D02*
X079289Y080347D01*
X079506Y080347D02*
X079506Y079913D01*
X079289Y079913D02*
X079722Y080347D01*
X079722Y080130D02*
X079289Y080130D01*
X078931Y080022D02*
X078931Y079913D01*
X078822Y079805D01*
X078605Y079805D01*
X078497Y079913D01*
X078605Y080130D02*
X078822Y080130D01*
X078931Y080022D01*
X078931Y080347D02*
X078822Y080456D01*
X078605Y080456D01*
X078497Y080347D01*
X078497Y080239D01*
X078605Y080130D01*
X078139Y079913D02*
X078030Y079805D01*
X077813Y079805D01*
X077705Y079913D01*
X077705Y080347D01*
X077813Y080456D01*
X078030Y080456D01*
X078139Y080347D01*
X091492Y080456D02*
X091601Y080347D01*
X091959Y080456D02*
X092392Y080456D01*
X092176Y080456D02*
X092176Y079805D01*
X092751Y079913D02*
X092859Y079805D01*
X093076Y079805D01*
X093184Y079913D01*
X093184Y080456D01*
X093543Y080456D02*
X093543Y080022D01*
X093759Y079805D01*
X093976Y080022D01*
X093976Y080456D01*
X094334Y080456D02*
X094334Y079805D01*
X094551Y080022D01*
X094768Y079805D01*
X094768Y080456D01*
X095126Y080456D02*
X095560Y079805D01*
X095126Y079805D02*
X095560Y080456D01*
X095918Y080456D02*
X095918Y080347D01*
X096135Y080130D01*
X096135Y079805D01*
X096135Y080130D02*
X096352Y080347D01*
X096352Y080456D01*
X096710Y080456D02*
X097144Y080456D01*
X097144Y080347D01*
X096710Y079913D01*
X096710Y079805D01*
X097144Y079805D01*
X092751Y079913D02*
X092751Y080456D01*
D13*
X093644Y082820D02*
X093517Y082947D01*
X093517Y083454D01*
X093644Y083581D01*
X093897Y083581D01*
X094024Y083454D01*
X094438Y083581D02*
X094438Y082820D01*
X094438Y083200D02*
X094945Y083200D01*
X094945Y082820D02*
X094945Y083581D01*
X095359Y083581D02*
X095612Y083581D01*
X095485Y083581D02*
X095485Y082820D01*
X095359Y082820D02*
X095612Y082820D01*
X095972Y082820D02*
X095972Y083581D01*
X096353Y083581D01*
X096480Y083454D01*
X096480Y083200D01*
X096353Y083074D01*
X095972Y083074D01*
X094024Y082947D02*
X093897Y082820D01*
X093644Y082820D01*
X092183Y083200D02*
X092056Y083074D01*
X091675Y083074D01*
X091675Y082820D02*
X091675Y083581D01*
X092056Y083581D01*
X092183Y083454D01*
X092183Y083200D01*
X091315Y082820D02*
X091062Y082820D01*
X091188Y082820D02*
X091188Y083581D01*
X091062Y083581D02*
X091315Y083581D01*
X090648Y082820D02*
X090141Y082820D01*
X090141Y083581D01*
X089727Y083581D02*
X089220Y083581D01*
X089220Y082820D01*
X089220Y083200D02*
X089474Y083200D01*
D14*
X093600Y032700D03*
X093600Y031700D03*
X093600Y030700D03*
X093600Y029700D03*
X093600Y028700D03*
X093600Y027700D03*
X093600Y026700D03*
X096600Y026700D03*
X096600Y027700D03*
X096600Y028700D03*
X096600Y029700D03*
X096600Y030700D03*
X096600Y031700D03*
X096600Y032700D03*
X082600Y032700D03*
X082600Y031700D03*
X082600Y030700D03*
X082600Y029700D03*
X082600Y028700D03*
X082600Y027700D03*
X082600Y026700D03*
X079600Y026700D03*
X079600Y027700D03*
X079600Y028700D03*
X079600Y029700D03*
X079600Y030700D03*
X079600Y031700D03*
X079600Y032700D03*
X068600Y032700D03*
X068600Y031700D03*
X068600Y030700D03*
X068600Y029700D03*
X068600Y028700D03*
X068600Y027700D03*
X068600Y026700D03*
X065600Y026700D03*
X065600Y027700D03*
X065600Y028700D03*
X065600Y029700D03*
X065600Y030700D03*
X065600Y031700D03*
X065600Y032700D03*
X054100Y032700D03*
X054100Y031700D03*
X054100Y030700D03*
X054100Y029700D03*
X054100Y028700D03*
X054100Y027700D03*
X054100Y026700D03*
X051100Y026700D03*
X051100Y027700D03*
X051100Y028700D03*
X051100Y029700D03*
X051100Y030700D03*
X051100Y031700D03*
X051100Y032700D03*
X040100Y032700D03*
X040100Y031700D03*
X040100Y030700D03*
X040100Y029700D03*
X040100Y028700D03*
X040100Y027700D03*
X040100Y026700D03*
X040100Y025700D03*
X037100Y025700D03*
X037100Y026700D03*
X037100Y027700D03*
X037100Y028700D03*
X037100Y029700D03*
X037100Y030700D03*
X037100Y031700D03*
X037100Y032700D03*
X025600Y032700D03*
X025600Y031700D03*
X025600Y030700D03*
X025600Y029700D03*
X025600Y028700D03*
X025600Y027700D03*
X025600Y026700D03*
X022600Y026700D03*
X022600Y027700D03*
X022600Y028700D03*
X022600Y029700D03*
X022600Y030700D03*
X022600Y031700D03*
X022600Y032700D03*
X022600Y037200D03*
X022600Y041200D03*
X011600Y032700D03*
X011600Y031700D03*
X011600Y030700D03*
X011600Y029700D03*
X011600Y028700D03*
X011600Y027700D03*
X011600Y026700D03*
X008600Y026700D03*
X008600Y027700D03*
X008600Y028700D03*
X008600Y029700D03*
X008600Y030700D03*
X008600Y031700D03*
X008600Y032700D03*
X008600Y019700D03*
X008600Y018700D03*
X008600Y017700D03*
X008600Y016700D03*
X008600Y015700D03*
X008600Y014700D03*
X008600Y013700D03*
X011600Y013700D03*
X011600Y014700D03*
X011600Y015700D03*
X011600Y016700D03*
X011600Y017700D03*
X011600Y018700D03*
X011600Y019700D03*
X022600Y019700D03*
X022600Y018700D03*
X022600Y017700D03*
X022600Y016700D03*
X022600Y015700D03*
X022600Y014700D03*
X022600Y013700D03*
X025600Y013700D03*
X025600Y014700D03*
X025600Y015700D03*
X025600Y016700D03*
X025600Y017700D03*
X025600Y018700D03*
X025600Y019700D03*
X037100Y019700D03*
X037100Y018700D03*
X037100Y017700D03*
X037100Y016700D03*
X037100Y015700D03*
X037100Y014700D03*
X037100Y013700D03*
X040100Y013700D03*
X040100Y014700D03*
X040100Y015700D03*
X040100Y016700D03*
X040100Y017700D03*
X040100Y018700D03*
X040100Y019700D03*
X051100Y019700D03*
X051100Y018700D03*
X051100Y017700D03*
X051100Y016700D03*
X051100Y015700D03*
X051100Y014700D03*
X051100Y013700D03*
X054100Y013700D03*
X054100Y014700D03*
X054100Y015700D03*
X054100Y016700D03*
X054100Y017700D03*
X054100Y018700D03*
X054100Y019700D03*
X065600Y019700D03*
X065600Y018700D03*
X065600Y017700D03*
X065600Y016700D03*
X065600Y015700D03*
X065600Y014700D03*
X065600Y013700D03*
X068600Y013700D03*
X068600Y014700D03*
X068600Y015700D03*
X068600Y016700D03*
X068600Y017700D03*
X068600Y018700D03*
X068600Y019700D03*
X079600Y019700D03*
X079600Y018700D03*
X079600Y017700D03*
X079600Y016700D03*
X079600Y015700D03*
X079600Y014700D03*
X079600Y013700D03*
X082600Y013700D03*
X082600Y014700D03*
X082600Y015700D03*
X082600Y016700D03*
X082600Y017700D03*
X082600Y018700D03*
X082600Y019700D03*
X093600Y019700D03*
X093600Y018700D03*
X093600Y017700D03*
X093600Y016700D03*
X093600Y015700D03*
X093600Y014700D03*
X093600Y013700D03*
X096600Y013700D03*
X096600Y014700D03*
X096600Y015700D03*
X096600Y016700D03*
X096600Y017700D03*
X096600Y018700D03*
X096600Y019700D03*
D15*
X091600Y037200D03*
X089600Y037200D03*
X088100Y037200D03*
X086100Y037200D03*
X083600Y037200D03*
X081600Y037200D03*
X079600Y037200D03*
X077600Y037200D03*
X075600Y037200D03*
X074100Y037200D03*
X071600Y037200D03*
X069600Y037200D03*
X069600Y041200D03*
X071600Y041200D03*
X074100Y041200D03*
X075600Y041200D03*
X077600Y041200D03*
X079600Y041200D03*
X081600Y041200D03*
X083600Y041200D03*
X086100Y041200D03*
X088100Y041200D03*
X089600Y041200D03*
X091600Y041200D03*
X020600Y041200D03*
X020600Y037200D03*
D16*
X020975Y004325D03*
X019725Y004325D03*
X018475Y004325D03*
X017225Y004325D03*
X015975Y004325D03*
X014725Y004325D03*
X013475Y004325D03*
X012225Y004325D03*
X010975Y004325D03*
X009725Y004325D03*
X008475Y004325D03*
X007225Y004325D03*
X005975Y004325D03*
X004725Y004325D03*
X003475Y004325D03*
X002225Y004325D03*
X022225Y004325D03*
X023475Y004325D03*
X029725Y004325D03*
X030975Y004325D03*
X032225Y004325D03*
X033475Y004325D03*
X034725Y004325D03*
X035975Y004325D03*
X037225Y004325D03*
X038475Y004325D03*
X039725Y004325D03*
X040975Y004325D03*
X042225Y004325D03*
X043475Y004325D03*
X044725Y004325D03*
X045975Y004325D03*
X047225Y004325D03*
X048475Y004325D03*
X049725Y004325D03*
X050975Y004325D03*
X054725Y004325D03*
X055975Y004325D03*
X057225Y004325D03*
X058475Y004325D03*
X059725Y004325D03*
X060975Y004325D03*
X062225Y004325D03*
X063475Y004325D03*
X064725Y004325D03*
X065975Y004325D03*
X067225Y004325D03*
X068475Y004325D03*
X069725Y004325D03*
X070975Y004325D03*
X072225Y004325D03*
X073475Y004325D03*
X074725Y004325D03*
X075975Y004325D03*
X082225Y004325D03*
X083475Y004325D03*
X084725Y004325D03*
X085975Y004325D03*
X087225Y004325D03*
X088475Y004325D03*
X089725Y004325D03*
X090975Y004325D03*
X092225Y004325D03*
X093475Y004325D03*
X094725Y004325D03*
X095975Y004325D03*
X097225Y004325D03*
X098475Y004325D03*
X099725Y004325D03*
X100975Y004325D03*
X102225Y004325D03*
X103475Y004325D03*
D17*
X096600Y022200D03*
X093600Y022200D03*
X082600Y021700D03*
X079600Y021700D03*
X068600Y021700D03*
X065600Y021700D03*
X054100Y021700D03*
X051100Y021700D03*
X040100Y021700D03*
X037100Y021700D03*
X025600Y021700D03*
X022600Y021700D03*
X011600Y021700D03*
X008600Y021700D03*
X008600Y035200D03*
X011600Y035200D03*
X022600Y035200D03*
X025600Y035200D03*
X037100Y035200D03*
X040100Y035200D03*
X051100Y035200D03*
X054100Y035200D03*
X065600Y035200D03*
X068600Y035200D03*
X079600Y035200D03*
X082600Y035200D03*
X094100Y035200D03*
X097100Y035200D03*
X011600Y059700D03*
X011600Y060700D03*
X011600Y061700D03*
X010600Y061700D03*
X010600Y060700D03*
X010600Y059700D03*
X010600Y062700D03*
X010600Y063700D03*
X010600Y064700D03*
X010600Y065700D03*
X010600Y066700D03*
X010600Y067700D03*
X011600Y067700D03*
X011600Y066700D03*
X011600Y065700D03*
X011600Y064700D03*
X011600Y063700D03*
X011600Y062700D03*
X011600Y068700D03*
X011600Y069700D03*
X011600Y070700D03*
X011600Y071700D03*
X011600Y072700D03*
X011600Y073700D03*
X010600Y073700D03*
X010600Y072700D03*
X010600Y071700D03*
X010600Y070700D03*
X010600Y069700D03*
X010600Y068700D03*
X010600Y074700D03*
X010600Y075700D03*
X010600Y076700D03*
X010600Y077700D03*
X010600Y078700D03*
X011600Y078700D03*
X011600Y077700D03*
X011600Y076700D03*
X011600Y075700D03*
X011600Y074700D03*
D18*
X048100Y019700D03*
X048100Y011700D03*
X074600Y011700D03*
X074600Y019700D03*
X101100Y019700D03*
X101100Y011700D03*
D19*
X002100Y015200D02*
X002100Y003700D01*
X002225Y003825D01*
X002225Y004325D01*
X003475Y004325D02*
X003600Y004200D01*
X003600Y013200D01*
X008600Y016700D01*
X009600Y014700D02*
X008600Y013700D01*
X008100Y012200D02*
X012100Y012200D01*
X012850Y012950D01*
X012850Y017700D01*
X011600Y018700D01*
X011600Y019700D02*
X011600Y021700D01*
X013600Y022700D02*
X008600Y026700D01*
X008600Y027700D01*
X009600Y027700D02*
X008600Y028700D01*
X008600Y029700D01*
X009600Y027700D02*
X009600Y026700D01*
X014100Y023200D01*
X014100Y012700D01*
X012600Y011200D01*
X011600Y011200D01*
X011100Y010700D01*
X011100Y004700D01*
X010975Y004325D01*
X012100Y004200D02*
X012100Y009700D01*
X014600Y012200D01*
X014600Y025700D01*
X011600Y027700D01*
X011600Y028700D01*
X011600Y029700D02*
X011600Y030700D01*
X011600Y029700D02*
X015100Y027200D01*
X015100Y011700D01*
X013600Y010200D01*
X013600Y004700D01*
X013475Y004325D01*
X012225Y004325D02*
X012100Y004200D01*
X009725Y004325D02*
X009600Y004700D01*
X009600Y009700D01*
X009600Y010700D01*
X009600Y011700D02*
X012350Y011700D01*
X013600Y012950D01*
X013600Y022700D01*
X009600Y020700D02*
X009600Y014700D01*
X011600Y015700D02*
X012350Y014950D01*
X012350Y013450D01*
X011600Y012700D01*
X007100Y012700D01*
X006100Y011700D01*
X006100Y004200D01*
X005975Y004325D01*
X007100Y004700D02*
X007100Y011200D01*
X008100Y012200D01*
X008600Y010700D02*
X009600Y011700D01*
X008600Y010700D02*
X008600Y004700D01*
X008475Y004325D01*
X007225Y004325D02*
X007100Y004700D01*
X004725Y004325D02*
X004600Y004700D01*
X004600Y010200D01*
X004600Y011200D01*
X002100Y015200D02*
X008600Y019700D01*
X009600Y020700D02*
X008600Y021700D01*
X007100Y023700D01*
X007100Y031700D01*
X008600Y032700D01*
X008600Y035200D01*
X010600Y036700D01*
X010600Y059700D01*
X010600Y060700D01*
X010600Y061700D01*
X010600Y062700D01*
X010600Y063700D01*
X010600Y064700D01*
X010600Y065700D01*
X010600Y066700D01*
X010600Y067700D01*
X010600Y068700D01*
X010600Y069700D01*
X010600Y070700D01*
X010600Y071700D01*
X010600Y072700D01*
X010600Y073700D01*
X010600Y074700D01*
X010600Y075700D01*
X010600Y076700D01*
X010600Y077700D01*
X010600Y078700D01*
X011600Y074700D02*
X016600Y072200D01*
X016600Y051200D01*
X019100Y049200D01*
X054100Y049200D01*
X061600Y042200D01*
X061600Y024200D01*
X063100Y021700D01*
X062100Y021700D02*
X061100Y023200D01*
X061100Y041700D01*
X053600Y048700D01*
X018600Y048700D01*
X016100Y050700D01*
X016100Y071700D01*
X011600Y073700D01*
X011600Y072700D02*
X015600Y071200D01*
X015600Y050200D01*
X018100Y048200D01*
X053100Y048200D01*
X060600Y041200D01*
X060600Y022700D01*
X061100Y021700D01*
X060100Y021700D02*
X060100Y040700D01*
X052600Y047700D01*
X017600Y047700D01*
X015100Y049700D01*
X015100Y070200D01*
X011600Y071700D01*
X011600Y070700D02*
X014600Y069700D01*
X014600Y044450D01*
X019100Y040200D01*
X019100Y031200D01*
X020600Y031200D02*
X020600Y037200D01*
X022600Y035200D02*
X023600Y034200D01*
X023600Y027700D01*
X022600Y026700D01*
X022600Y021700D01*
X023600Y020700D01*
X023600Y014700D01*
X022600Y013700D01*
X021600Y013700D02*
X021600Y013200D01*
X022600Y012200D01*
X023600Y012200D01*
X025600Y014700D01*
X027100Y012700D02*
X027100Y023700D01*
X025600Y025200D01*
X025600Y026700D01*
X030600Y029700D01*
X030600Y040200D01*
X029100Y040200D02*
X029100Y030700D01*
X025600Y028700D01*
X025600Y030700D02*
X027600Y031700D01*
X027600Y041700D01*
X029100Y043700D01*
X047100Y043700D01*
X049600Y041200D01*
X049600Y021950D01*
X050600Y020950D01*
X052100Y020950D01*
X052600Y020450D01*
X052600Y017200D01*
X051100Y015700D01*
X051100Y014700D01*
X051100Y013700D02*
X053100Y015700D01*
X053100Y021200D01*
X052600Y021700D01*
X051100Y021700D01*
X051100Y026700D01*
X052100Y027700D01*
X052100Y034200D01*
X051100Y035200D01*
X051100Y032700D02*
X051100Y031700D01*
X053100Y031700D02*
X054100Y032700D01*
X054100Y035200D01*
X055600Y036700D02*
X055600Y031700D01*
X054100Y030700D01*
X053100Y031700D02*
X053100Y022700D01*
X054100Y021700D01*
X054100Y019700D01*
X051850Y019450D02*
X051850Y020200D01*
X051600Y020450D01*
X050600Y020450D01*
X047600Y017700D01*
X045100Y017700D01*
X041100Y021700D01*
X040100Y021700D02*
X041600Y024700D01*
X041600Y031700D01*
X040100Y032700D01*
X040100Y035200D01*
X042600Y035200D01*
X046600Y031200D01*
X046600Y021200D01*
X048100Y019700D01*
X048100Y021700D02*
X048100Y032200D01*
X044100Y036700D01*
X038600Y036700D01*
X037100Y035200D01*
X038600Y033700D01*
X038600Y026700D01*
X037100Y025700D01*
X037100Y021700D01*
X037600Y021700D01*
X038600Y020700D01*
X038600Y015200D01*
X037100Y013700D01*
X037100Y011200D02*
X037100Y010200D01*
X037100Y004700D01*
X037225Y004325D01*
X036100Y004450D02*
X036100Y015700D01*
X037100Y016700D01*
X037100Y017700D02*
X037100Y018700D01*
X038100Y019700D01*
X038100Y020200D01*
X037600Y020700D01*
X034100Y020700D01*
X033100Y019700D01*
X033100Y014700D01*
X032600Y014200D01*
X031100Y014200D01*
X030600Y014700D01*
X030600Y028700D01*
X033100Y030200D01*
X033100Y042700D01*
X034100Y042700D02*
X034100Y036200D01*
X038100Y033200D01*
X038100Y030200D01*
X037100Y029700D01*
X037100Y028700D02*
X034600Y026700D01*
X034600Y024200D01*
X032100Y028200D02*
X036600Y031700D01*
X037100Y031700D01*
X032100Y028200D02*
X032100Y015700D01*
X033600Y013700D02*
X034600Y014700D01*
X034600Y017700D01*
X036600Y019700D01*
X037100Y019700D01*
X040100Y019700D02*
X040100Y021700D01*
X048600Y016700D02*
X051100Y016700D01*
X051100Y017700D02*
X051100Y018700D01*
X051850Y019450D01*
X051100Y019700D02*
X039600Y010200D01*
X039600Y004700D01*
X039725Y004325D01*
X036100Y004450D02*
X035975Y004325D01*
X034600Y004450D02*
X034600Y012700D01*
X033600Y013700D02*
X033600Y004450D01*
X033475Y004325D01*
X032225Y004325D02*
X032100Y004450D01*
X032100Y010200D01*
X032100Y011200D01*
X021100Y011200D01*
X021100Y004450D01*
X020975Y004325D01*
X017225Y004325D02*
X017100Y004450D01*
X017100Y010200D01*
X018100Y011200D01*
X021100Y011200D01*
X021600Y013700D02*
X022600Y014700D01*
X022600Y016700D02*
X021100Y017700D01*
X021100Y028700D01*
X022600Y029700D01*
X022600Y027700D02*
X021600Y027200D01*
X021600Y020700D01*
X022600Y019700D01*
X025600Y019700D02*
X025600Y021700D01*
X024600Y022700D01*
X024600Y031700D01*
X025600Y032700D01*
X025600Y035200D01*
X026100Y040200D02*
X028100Y044200D01*
X048100Y044200D01*
X055600Y036700D01*
X058100Y039200D02*
X057100Y040200D01*
X058100Y039200D02*
X058100Y018700D01*
X057100Y017700D01*
X058600Y017700D02*
X058600Y040200D01*
X062100Y040700D02*
X067600Y045700D01*
X091100Y045700D01*
X095100Y040700D01*
X095100Y037700D01*
X095600Y036700D02*
X094100Y035200D01*
X093600Y034700D01*
X093600Y032700D01*
X094600Y031700D01*
X094600Y023200D01*
X093600Y022200D01*
X094600Y021200D01*
X094600Y014700D01*
X093600Y013700D01*
X095600Y015700D02*
X095600Y016700D01*
X096600Y017700D01*
X096600Y019700D02*
X096600Y022200D01*
X096600Y026700D01*
X095600Y027700D01*
X095600Y034200D01*
X096600Y035200D01*
X097100Y035200D01*
X099600Y035200D01*
X101100Y033700D01*
X101100Y019700D01*
X096600Y014700D02*
X095600Y015700D01*
X101100Y011700D02*
X102100Y012700D01*
X102100Y034200D01*
X099600Y036700D01*
X095600Y036700D01*
X091600Y037200D02*
X091600Y031200D01*
X082600Y026700D01*
X081850Y026950D02*
X082600Y027700D01*
X089600Y031200D01*
X089600Y037200D01*
X088100Y037200D02*
X088100Y031200D01*
X082600Y028700D01*
X082600Y029700D02*
X086100Y031700D01*
X086100Y037200D01*
X084100Y036700D02*
X084100Y031700D01*
X082600Y030700D01*
X082600Y029700D02*
X081350Y028700D01*
X081350Y025200D01*
X083600Y022700D01*
X083600Y020700D01*
X082600Y019700D01*
X082600Y018700D02*
X084100Y019700D01*
X084100Y023200D01*
X081850Y025700D01*
X081850Y026950D01*
X080350Y027950D02*
X080350Y025950D01*
X078100Y023700D01*
X078100Y018700D01*
X079600Y017700D01*
X079600Y016700D02*
X079600Y015700D01*
X072100Y015700D01*
X067350Y011700D01*
X061600Y011700D01*
X061100Y011200D01*
X061100Y004700D01*
X060975Y004325D01*
X059725Y004325D02*
X059600Y004450D01*
X059600Y010700D01*
X061100Y012200D01*
X066100Y012200D01*
X067600Y013700D01*
X067600Y014700D01*
X068600Y015700D01*
X068600Y014700D02*
X070100Y014700D01*
X072350Y016700D01*
X077100Y016700D01*
X079600Y014700D02*
X079600Y013700D01*
X080100Y012700D02*
X078600Y012700D01*
X078100Y013200D01*
X071100Y013200D01*
X067600Y010200D01*
X065600Y010200D01*
X064600Y008700D01*
X064725Y004325D01*
X063600Y004200D02*
X063600Y009200D01*
X064600Y010700D01*
X067100Y010700D01*
X072100Y014700D01*
X079600Y014700D01*
X080600Y014700D02*
X080600Y013200D01*
X080100Y012700D01*
X080100Y011700D02*
X081600Y013200D01*
X081600Y013700D01*
X082600Y014700D01*
X082600Y015700D01*
X082600Y016700D02*
X080600Y014700D01*
X082600Y016700D02*
X082600Y017700D01*
X079600Y018700D02*
X078600Y019700D01*
X078600Y023200D01*
X080850Y025200D01*
X080850Y029700D01*
X079600Y030700D01*
X075600Y032700D01*
X075600Y037200D01*
X074100Y037200D02*
X074100Y032700D01*
X079600Y029700D01*
X079600Y028700D02*
X071600Y032700D01*
X071600Y037200D01*
X070600Y036200D02*
X069600Y037200D01*
X070600Y036200D02*
X070600Y032200D01*
X079600Y027700D01*
X080350Y027950D02*
X079600Y028700D01*
X079600Y031700D02*
X077600Y032700D01*
X077600Y037200D01*
X078600Y036200D02*
X079600Y037200D01*
X078600Y036200D02*
X078600Y033700D01*
X079600Y032700D01*
X082600Y031700D02*
X083600Y032700D01*
X083600Y035700D01*
X081600Y037200D01*
X083600Y037200D02*
X084100Y036700D01*
X083600Y041200D02*
X081600Y041200D01*
X080100Y043700D01*
X068850Y043700D01*
X064100Y038700D01*
X064100Y031700D01*
X065600Y030700D01*
X065600Y029700D02*
X063600Y031200D01*
X063600Y039200D01*
X068600Y044200D01*
X083600Y044200D01*
X086100Y041200D01*
X088100Y041200D01*
X089600Y041200D02*
X086600Y044700D01*
X068350Y044700D01*
X063100Y039700D01*
X063100Y030200D01*
X065600Y028700D01*
X065600Y027700D02*
X062600Y029700D01*
X062600Y040200D01*
X068100Y045200D01*
X090600Y045200D01*
X092600Y042700D01*
X092600Y032700D01*
X093600Y031700D01*
X093600Y029700D02*
X093600Y028700D01*
X093600Y027700D02*
X093600Y026700D01*
X096600Y027700D02*
X096600Y028700D01*
X096600Y029700D02*
X096600Y030700D01*
X091600Y041200D02*
X089600Y041200D01*
X079600Y041200D02*
X077600Y041200D01*
X076600Y043200D01*
X069100Y043200D01*
X064600Y038450D01*
X064600Y033450D01*
X065600Y032700D01*
X065600Y031700D01*
X067600Y031700D02*
X067600Y022700D01*
X068600Y021700D01*
X068600Y019700D01*
X068600Y018700D02*
X067100Y017200D01*
X067100Y014200D01*
X065600Y012700D01*
X059600Y012700D01*
X058600Y011700D01*
X058475Y004325D01*
X057225Y004325D02*
X057100Y004450D01*
X057100Y009200D01*
X057100Y010200D01*
X056100Y010700D02*
X062100Y016700D01*
X065600Y016700D01*
X066600Y014700D02*
X066600Y020700D01*
X065600Y021700D01*
X065600Y026700D01*
X066600Y027700D01*
X066600Y034200D01*
X065600Y035200D01*
X067600Y037200D02*
X069350Y035450D01*
X069350Y031450D01*
X068600Y030700D01*
X068600Y029700D02*
X069850Y030700D01*
X069850Y035950D01*
X068350Y037450D01*
X068350Y039950D01*
X069600Y041200D01*
X071600Y041200D01*
X072600Y042700D02*
X069600Y042700D01*
X067600Y040700D01*
X067600Y037200D01*
X068600Y035200D02*
X068600Y032700D01*
X067600Y031700D01*
X064600Y027200D02*
X062100Y029200D01*
X062100Y040700D01*
X072600Y042700D02*
X074100Y041200D01*
X075600Y041200D01*
X064600Y027200D02*
X064600Y021200D01*
X055100Y011700D01*
X049600Y011700D01*
X048600Y012700D01*
X048100Y012700D01*
X047100Y011700D01*
X047100Y004450D01*
X047225Y004325D01*
X045975Y004325D02*
X046100Y005700D01*
X046100Y012200D01*
X047100Y013200D01*
X049100Y013200D01*
X050100Y012200D01*
X054600Y012200D01*
X055100Y012700D01*
X055100Y014700D01*
X054100Y015700D01*
X054100Y014700D02*
X054100Y013700D01*
X056100Y010700D02*
X055975Y004325D01*
X054725Y004325D02*
X054600Y004700D01*
X054600Y010200D01*
X064100Y019700D01*
X065600Y019700D01*
X066600Y014700D02*
X065600Y013700D01*
X067100Y009700D02*
X068100Y009700D01*
X071600Y012700D01*
X077600Y012700D01*
X078600Y011700D01*
X080100Y011700D01*
X077100Y011700D02*
X077100Y010700D01*
X077100Y011700D02*
X074600Y011700D01*
X073600Y011700D01*
X073600Y004700D01*
X073475Y004325D01*
X069725Y004325D02*
X069600Y004700D01*
X069600Y009700D01*
X072100Y011700D01*
X073600Y011700D01*
X067100Y009700D02*
X066100Y008700D01*
X065975Y004325D01*
X063600Y004200D02*
X063475Y004325D01*
X062225Y004325D02*
X062100Y004450D01*
X062100Y009200D01*
X062100Y010200D01*
X053600Y010200D02*
X052600Y010200D01*
X049600Y010200D01*
X048100Y011700D01*
X049600Y010200D02*
X048600Y009200D01*
X048600Y004450D01*
X048475Y004325D01*
X044725Y004325D02*
X044600Y004450D01*
X044600Y010200D01*
X044600Y011200D01*
X043600Y012200D02*
X048600Y016700D01*
X043600Y012200D02*
X043600Y005200D01*
X043475Y004325D01*
X019100Y013700D02*
X018100Y014700D01*
X018100Y040200D01*
X014100Y044200D01*
X014100Y068700D01*
X011600Y069700D01*
X011600Y068700D02*
X013600Y067700D01*
X013600Y043950D01*
X017100Y040200D01*
X017100Y031200D01*
X015600Y031200D02*
X015600Y040700D01*
X013100Y043700D01*
X013100Y067200D01*
X011600Y067700D01*
X011600Y066700D02*
X012600Y066200D01*
X012600Y043450D01*
X013850Y041950D01*
X013850Y031200D01*
X011600Y035200D02*
X010600Y034700D01*
X010600Y027700D01*
X011600Y026700D01*
X054100Y028700D02*
X056600Y028700D01*
X070600Y025200D02*
X076600Y025200D01*
X075600Y024200D02*
X071600Y024200D01*
X079600Y021700D02*
X079600Y019700D01*
X084600Y011700D02*
X084600Y010700D01*
X084600Y004450D01*
X084725Y004325D01*
X089600Y004450D02*
X089600Y009200D01*
X090600Y010200D01*
X097100Y010200D01*
X097100Y004450D01*
X097225Y004325D01*
X097100Y010200D02*
X099600Y010200D01*
X101100Y011700D01*
X089725Y004325D02*
X089600Y004450D01*
D20*
X084600Y010700D03*
X084600Y011700D03*
X077100Y011700D03*
X077100Y010700D03*
X077100Y016700D03*
X075600Y024200D03*
X076600Y025200D03*
X071600Y024200D03*
X070600Y025200D03*
X063100Y021700D03*
X062100Y021700D03*
X061100Y021700D03*
X060100Y021700D03*
X058600Y017700D03*
X057100Y017700D03*
X057100Y010200D03*
X057100Y009200D03*
X053600Y010200D03*
X052600Y010200D03*
X044600Y010200D03*
X044600Y011200D03*
X037100Y011200D03*
X037100Y010200D03*
X034600Y012700D03*
X032100Y011200D03*
X032100Y010200D03*
X027100Y012700D03*
X032100Y015700D03*
X041100Y021700D03*
X048100Y021700D03*
X056600Y028700D03*
X057100Y040200D03*
X058600Y040200D03*
X034100Y042700D03*
X033100Y042700D03*
X030600Y040200D03*
X029100Y040200D03*
X026100Y040200D03*
X020600Y031200D03*
X019100Y031200D03*
X017100Y031200D03*
X015600Y031200D03*
X013850Y031200D03*
X034600Y024200D03*
X019100Y013700D03*
X021100Y011200D03*
X009600Y010700D03*
X009600Y009700D03*
X004600Y010200D03*
X004600Y011200D03*
X062100Y010200D03*
X062100Y009200D03*
X095100Y037700D03*
D21*
X096600Y027700D02*
X097100Y027700D01*
X098600Y026200D01*
X098600Y012200D01*
X098100Y011700D01*
X089600Y011700D01*
X088600Y010700D01*
X088600Y004450D01*
X088475Y004325D01*
X087225Y004325D02*
X087100Y004450D01*
X087100Y010200D01*
X089100Y012200D01*
X097600Y012200D01*
X098100Y012700D01*
X098100Y017700D01*
X097100Y018700D01*
X096600Y018700D01*
X096600Y015700D02*
X097600Y014700D01*
X097600Y013200D01*
X097100Y012700D01*
X088100Y012700D01*
X086100Y010700D01*
X086100Y004450D01*
X085975Y004325D01*
X083475Y004325D02*
X083475Y012075D01*
X088100Y016700D01*
X093600Y016700D01*
X093600Y019700D02*
X090100Y019700D01*
X082100Y011700D01*
X082100Y004325D01*
X082225Y004325D01*
X034725Y004325D02*
X034600Y004450D01*
M02*
