G75*
%MOIN*%
%OFA0B0*%
%FSLAX24Y24*%
%IPPOS*%
%LPD*%
%AMOC8*
5,1,8,0,0,1.08239X$1,22.5*
%
%ADD10C,0.0000*%
%ADD11C,0.0060*%
%ADD12C,0.0050*%
%ADD13C,0.0240*%
%ADD14C,0.0040*%
%ADD15C,0.0160*%
%ADD16C,0.0120*%
%ADD17R,0.0200X0.0300*%
%ADD18R,0.0500X0.0125*%
%ADD19C,0.0006*%
%ADD20C,0.0200*%
%ADD21C,0.0070*%
%ADD22R,0.2300X0.0200*%
%ADD23R,0.0240X0.0340*%
D10*
X001650Y001700D02*
X002150Y001200D01*
X023550Y001200D01*
X024050Y001700D01*
X024050Y007450D01*
X027750Y007450D01*
X027750Y008450D01*
X029150Y008450D01*
X029150Y001700D01*
X029650Y001200D01*
X051050Y001200D01*
X051550Y001700D01*
X051550Y007450D01*
X052750Y007450D01*
X052750Y008450D01*
X054150Y008450D01*
X054150Y001700D01*
X054650Y001200D01*
X076050Y001200D01*
X076550Y001700D01*
X076550Y007450D01*
X080250Y007450D01*
X080250Y008450D01*
X081650Y008450D01*
X081650Y001700D01*
X082150Y001200D01*
X103550Y001200D01*
X104050Y001700D01*
X104050Y007450D01*
X105100Y007450D01*
X105100Y085700D01*
X000650Y085700D01*
X000650Y008450D01*
X001650Y008450D01*
X001650Y001700D01*
X002150Y001200D01*
X023550Y001200D01*
X024050Y001700D01*
X024050Y007450D01*
X027750Y007450D01*
X027750Y008450D01*
X029150Y008450D01*
X029150Y001700D01*
X029650Y001200D01*
X051050Y001200D01*
X051550Y001700D01*
X051550Y007450D01*
X052750Y007450D01*
X052750Y008450D01*
X054150Y008450D01*
X054150Y001700D01*
X054650Y001200D01*
X076050Y001200D01*
X076550Y001700D01*
X076550Y007450D01*
X080250Y007450D01*
X080250Y008450D01*
X081650Y008450D01*
X081650Y001700D01*
X082150Y001200D01*
X103550Y001200D01*
X104050Y001700D01*
X104050Y007450D01*
X105100Y007450D01*
X104050Y001700D02*
X104050Y001700D01*
X076550Y001700D02*
X076550Y001700D01*
X075599Y041169D02*
X075600Y041170D01*
X075600Y041171D01*
X075599Y041172D01*
X075592Y041172D01*
X075592Y041171D02*
X075592Y041174D01*
X075595Y041176D02*
X075592Y041178D01*
X075600Y041178D01*
X075600Y041176D02*
X075600Y041181D01*
X075599Y041183D02*
X075593Y041188D01*
X075599Y041188D01*
X075600Y041187D01*
X075600Y041184D01*
X075599Y041183D01*
X075593Y041183D01*
X075592Y041184D01*
X075592Y041187D01*
X075593Y041188D01*
X075592Y041190D02*
X075595Y041193D01*
X075592Y041196D01*
X075600Y041196D01*
X075600Y041198D02*
X075592Y041198D01*
X075595Y041200D01*
X075592Y041203D01*
X075600Y041203D01*
X075600Y041190D02*
X075592Y041190D01*
X074100Y041190D02*
X074092Y041190D01*
X074095Y041193D01*
X074092Y041196D01*
X074100Y041196D01*
X074100Y041198D02*
X074092Y041198D01*
X074095Y041200D01*
X074092Y041203D01*
X074100Y041203D01*
X074099Y041188D02*
X074100Y041187D01*
X074100Y041184D01*
X074099Y041183D01*
X074093Y041188D01*
X074099Y041188D01*
X074099Y041183D02*
X074093Y041183D01*
X074092Y041184D01*
X074092Y041187D01*
X074093Y041188D01*
X074092Y041178D02*
X074100Y041178D01*
X074100Y041176D02*
X074100Y041181D01*
X074095Y041176D02*
X074092Y041178D01*
X074092Y041174D02*
X074092Y041171D01*
X074092Y041172D02*
X074099Y041172D01*
X074100Y041171D01*
X074100Y041170D01*
X074099Y041169D01*
X071600Y041171D02*
X071599Y041172D01*
X071592Y041172D01*
X071592Y041171D02*
X071592Y041174D01*
X071595Y041176D02*
X071592Y041178D01*
X071600Y041178D01*
X071600Y041176D02*
X071600Y041181D01*
X071599Y041183D02*
X071593Y041188D01*
X071599Y041188D01*
X071600Y041187D01*
X071600Y041184D01*
X071599Y041183D01*
X071593Y041183D01*
X071592Y041184D01*
X071592Y041187D01*
X071593Y041188D01*
X071592Y041190D02*
X071595Y041193D01*
X071592Y041196D01*
X071600Y041196D01*
X071600Y041198D02*
X071592Y041198D01*
X071595Y041200D01*
X071592Y041203D01*
X071600Y041203D01*
X071600Y041190D02*
X071592Y041190D01*
X071600Y041171D02*
X071600Y041170D01*
X071599Y041169D01*
X069600Y041171D02*
X069599Y041172D01*
X069592Y041172D01*
X069592Y041171D02*
X069592Y041174D01*
X069595Y041176D02*
X069592Y041178D01*
X069600Y041178D01*
X069600Y041176D02*
X069600Y041181D01*
X069599Y041183D02*
X069593Y041188D01*
X069599Y041188D01*
X069600Y041187D01*
X069600Y041184D01*
X069599Y041183D01*
X069593Y041183D01*
X069592Y041184D01*
X069592Y041187D01*
X069593Y041188D01*
X069592Y041190D02*
X069595Y041193D01*
X069592Y041196D01*
X069600Y041196D01*
X069600Y041198D02*
X069592Y041198D01*
X069595Y041200D01*
X069592Y041203D01*
X069600Y041203D01*
X069600Y041190D02*
X069592Y041190D01*
X069600Y041171D02*
X069600Y041170D01*
X069599Y041169D01*
X077592Y041171D02*
X077592Y041174D01*
X077592Y041172D02*
X077599Y041172D01*
X077600Y041171D01*
X077600Y041170D01*
X077599Y041169D01*
X077600Y041176D02*
X077600Y041181D01*
X077599Y041183D02*
X077593Y041188D01*
X077599Y041188D01*
X077600Y041187D01*
X077600Y041184D01*
X077599Y041183D01*
X077593Y041183D01*
X077592Y041184D01*
X077592Y041187D01*
X077593Y041188D01*
X077592Y041190D02*
X077595Y041193D01*
X077592Y041196D01*
X077600Y041196D01*
X077600Y041198D02*
X077592Y041198D01*
X077595Y041200D01*
X077592Y041203D01*
X077600Y041203D01*
X077600Y041190D02*
X077592Y041190D01*
X077592Y041178D02*
X077600Y041178D01*
X077595Y041176D02*
X077592Y041178D01*
X079592Y041178D02*
X079600Y041178D01*
X079600Y041176D02*
X079600Y041181D01*
X079599Y041183D02*
X079593Y041188D01*
X079599Y041188D01*
X079600Y041187D01*
X079600Y041184D01*
X079599Y041183D01*
X079593Y041183D01*
X079592Y041184D01*
X079592Y041187D01*
X079593Y041188D01*
X079592Y041190D02*
X079595Y041193D01*
X079592Y041196D01*
X079600Y041196D01*
X079600Y041198D02*
X079592Y041198D01*
X079595Y041200D01*
X079592Y041203D01*
X079600Y041203D01*
X079600Y041190D02*
X079592Y041190D01*
X079592Y041178D02*
X079595Y041176D01*
X079592Y041174D02*
X079592Y041171D01*
X079592Y041172D02*
X079599Y041172D01*
X079600Y041171D01*
X079600Y041170D01*
X079599Y041169D01*
X081592Y041171D02*
X081592Y041174D01*
X081592Y041172D02*
X081599Y041172D01*
X081600Y041171D01*
X081600Y041170D01*
X081599Y041169D01*
X081600Y041176D02*
X081600Y041181D01*
X081599Y041183D02*
X081593Y041188D01*
X081599Y041188D01*
X081600Y041187D01*
X081600Y041184D01*
X081599Y041183D01*
X081593Y041183D01*
X081592Y041184D01*
X081592Y041187D01*
X081593Y041188D01*
X081592Y041190D02*
X081595Y041193D01*
X081592Y041196D01*
X081600Y041196D01*
X081600Y041198D02*
X081592Y041198D01*
X081595Y041200D01*
X081592Y041203D01*
X081600Y041203D01*
X081600Y041190D02*
X081592Y041190D01*
X081592Y041178D02*
X081600Y041178D01*
X081595Y041176D02*
X081592Y041178D01*
X083592Y041178D02*
X083600Y041178D01*
X083600Y041176D02*
X083600Y041181D01*
X083599Y041183D02*
X083593Y041188D01*
X083599Y041188D01*
X083600Y041187D01*
X083600Y041184D01*
X083599Y041183D01*
X083593Y041183D01*
X083592Y041184D01*
X083592Y041187D01*
X083593Y041188D01*
X083592Y041190D02*
X083595Y041193D01*
X083592Y041196D01*
X083600Y041196D01*
X083600Y041198D02*
X083592Y041198D01*
X083595Y041200D01*
X083592Y041203D01*
X083600Y041203D01*
X083600Y041190D02*
X083592Y041190D01*
X083592Y041178D02*
X083595Y041176D01*
X083592Y041174D02*
X083592Y041171D01*
X083592Y041172D02*
X083599Y041172D01*
X083600Y041171D01*
X083600Y041170D01*
X083599Y041169D01*
X086092Y041171D02*
X086092Y041174D01*
X086092Y041172D02*
X086099Y041172D01*
X086100Y041171D01*
X086100Y041170D01*
X086099Y041169D01*
X086100Y041176D02*
X086100Y041181D01*
X086099Y041183D02*
X086093Y041188D01*
X086099Y041188D01*
X086100Y041187D01*
X086100Y041184D01*
X086099Y041183D01*
X086093Y041183D01*
X086092Y041184D01*
X086092Y041187D01*
X086093Y041188D01*
X086092Y041190D02*
X086095Y041193D01*
X086092Y041196D01*
X086100Y041196D01*
X086100Y041198D02*
X086092Y041198D01*
X086095Y041200D01*
X086092Y041203D01*
X086100Y041203D01*
X086100Y041190D02*
X086092Y041190D01*
X086092Y041178D02*
X086100Y041178D01*
X086095Y041176D02*
X086092Y041178D01*
X088092Y041178D02*
X088100Y041178D01*
X088100Y041176D02*
X088100Y041181D01*
X088099Y041183D02*
X088093Y041188D01*
X088099Y041188D01*
X088100Y041187D01*
X088100Y041184D01*
X088099Y041183D01*
X088093Y041183D01*
X088092Y041184D01*
X088092Y041187D01*
X088093Y041188D01*
X088092Y041190D02*
X088095Y041193D01*
X088092Y041196D01*
X088100Y041196D01*
X088100Y041198D02*
X088092Y041198D01*
X088095Y041200D01*
X088092Y041203D01*
X088100Y041203D01*
X088100Y041190D02*
X088092Y041190D01*
X088092Y041178D02*
X088095Y041176D01*
X088092Y041174D02*
X088092Y041171D01*
X088092Y041172D02*
X088099Y041172D01*
X088100Y041171D01*
X088100Y041170D01*
X088099Y041169D01*
X089592Y041171D02*
X089592Y041174D01*
X089592Y041172D02*
X089599Y041172D01*
X089600Y041171D01*
X089600Y041170D01*
X089599Y041169D01*
X089600Y041176D02*
X089600Y041181D01*
X089599Y041183D02*
X089593Y041188D01*
X089599Y041188D01*
X089600Y041187D01*
X089600Y041184D01*
X089599Y041183D01*
X089593Y041183D01*
X089592Y041184D01*
X089592Y041187D01*
X089593Y041188D01*
X089592Y041190D02*
X089595Y041193D01*
X089592Y041196D01*
X089600Y041196D01*
X089600Y041198D02*
X089592Y041198D01*
X089595Y041200D01*
X089592Y041203D01*
X089600Y041203D01*
X089600Y041190D02*
X089592Y041190D01*
X089592Y041178D02*
X089600Y041178D01*
X089595Y041176D02*
X089592Y041178D01*
X091592Y041178D02*
X091600Y041178D01*
X091600Y041176D02*
X091600Y041181D01*
X091599Y041183D02*
X091593Y041188D01*
X091599Y041188D01*
X091600Y041187D01*
X091600Y041184D01*
X091599Y041183D01*
X091593Y041183D01*
X091592Y041184D01*
X091592Y041187D01*
X091593Y041188D01*
X091592Y041190D02*
X091595Y041193D01*
X091592Y041196D01*
X091600Y041196D01*
X091600Y041198D02*
X091592Y041198D01*
X091595Y041200D01*
X091592Y041203D01*
X091600Y041203D01*
X091600Y041190D02*
X091592Y041190D01*
X091592Y041178D02*
X091595Y041176D01*
X091592Y041174D02*
X091592Y041171D01*
X091592Y041172D02*
X091599Y041172D01*
X091600Y041171D01*
X091600Y041170D01*
X091599Y041169D01*
X082225Y083700D02*
X082227Y083750D01*
X082233Y083799D01*
X082243Y083848D01*
X082256Y083895D01*
X082274Y083942D01*
X082295Y083987D01*
X082319Y084030D01*
X082347Y084071D01*
X082378Y084110D01*
X082412Y084146D01*
X082449Y084180D01*
X082489Y084210D01*
X082530Y084237D01*
X082574Y084261D01*
X082619Y084281D01*
X082666Y084297D01*
X082714Y084310D01*
X082763Y084319D01*
X082813Y084324D01*
X082862Y084325D01*
X082912Y084322D01*
X082961Y084315D01*
X083010Y084304D01*
X083057Y084290D01*
X083103Y084271D01*
X083148Y084249D01*
X083191Y084224D01*
X083231Y084195D01*
X083269Y084163D01*
X083305Y084129D01*
X083338Y084091D01*
X083367Y084051D01*
X083393Y084009D01*
X083416Y083965D01*
X083435Y083919D01*
X083451Y083872D01*
X083463Y083823D01*
X083471Y083774D01*
X083475Y083725D01*
X083475Y083675D01*
X083471Y083626D01*
X083463Y083577D01*
X083451Y083528D01*
X083435Y083481D01*
X083416Y083435D01*
X083393Y083391D01*
X083367Y083349D01*
X083338Y083309D01*
X083305Y083271D01*
X083269Y083237D01*
X083231Y083205D01*
X083191Y083176D01*
X083148Y083151D01*
X083103Y083129D01*
X083057Y083110D01*
X083010Y083096D01*
X082961Y083085D01*
X082912Y083078D01*
X082862Y083075D01*
X082813Y083076D01*
X082763Y083081D01*
X082714Y083090D01*
X082666Y083103D01*
X082619Y083119D01*
X082574Y083139D01*
X082530Y083163D01*
X082489Y083190D01*
X082449Y083220D01*
X082412Y083254D01*
X082378Y083290D01*
X082347Y083329D01*
X082319Y083370D01*
X082295Y083413D01*
X082274Y083458D01*
X082256Y083505D01*
X082243Y083552D01*
X082233Y083601D01*
X082227Y083650D01*
X082225Y083700D01*
X074725Y083700D02*
X074727Y083750D01*
X074733Y083799D01*
X074743Y083848D01*
X074756Y083895D01*
X074774Y083942D01*
X074795Y083987D01*
X074819Y084030D01*
X074847Y084071D01*
X074878Y084110D01*
X074912Y084146D01*
X074949Y084180D01*
X074989Y084210D01*
X075030Y084237D01*
X075074Y084261D01*
X075119Y084281D01*
X075166Y084297D01*
X075214Y084310D01*
X075263Y084319D01*
X075313Y084324D01*
X075362Y084325D01*
X075412Y084322D01*
X075461Y084315D01*
X075510Y084304D01*
X075557Y084290D01*
X075603Y084271D01*
X075648Y084249D01*
X075691Y084224D01*
X075731Y084195D01*
X075769Y084163D01*
X075805Y084129D01*
X075838Y084091D01*
X075867Y084051D01*
X075893Y084009D01*
X075916Y083965D01*
X075935Y083919D01*
X075951Y083872D01*
X075963Y083823D01*
X075971Y083774D01*
X075975Y083725D01*
X075975Y083675D01*
X075971Y083626D01*
X075963Y083577D01*
X075951Y083528D01*
X075935Y083481D01*
X075916Y083435D01*
X075893Y083391D01*
X075867Y083349D01*
X075838Y083309D01*
X075805Y083271D01*
X075769Y083237D01*
X075731Y083205D01*
X075691Y083176D01*
X075648Y083151D01*
X075603Y083129D01*
X075557Y083110D01*
X075510Y083096D01*
X075461Y083085D01*
X075412Y083078D01*
X075362Y083075D01*
X075313Y083076D01*
X075263Y083081D01*
X075214Y083090D01*
X075166Y083103D01*
X075119Y083119D01*
X075074Y083139D01*
X075030Y083163D01*
X074989Y083190D01*
X074949Y083220D01*
X074912Y083254D01*
X074878Y083290D01*
X074847Y083329D01*
X074819Y083370D01*
X074795Y083413D01*
X074774Y083458D01*
X074756Y083505D01*
X074743Y083552D01*
X074733Y083601D01*
X074727Y083650D01*
X074725Y083700D01*
X054725Y083700D02*
X054727Y083750D01*
X054733Y083799D01*
X054743Y083848D01*
X054756Y083895D01*
X054774Y083942D01*
X054795Y083987D01*
X054819Y084030D01*
X054847Y084071D01*
X054878Y084110D01*
X054912Y084146D01*
X054949Y084180D01*
X054989Y084210D01*
X055030Y084237D01*
X055074Y084261D01*
X055119Y084281D01*
X055166Y084297D01*
X055214Y084310D01*
X055263Y084319D01*
X055313Y084324D01*
X055362Y084325D01*
X055412Y084322D01*
X055461Y084315D01*
X055510Y084304D01*
X055557Y084290D01*
X055603Y084271D01*
X055648Y084249D01*
X055691Y084224D01*
X055731Y084195D01*
X055769Y084163D01*
X055805Y084129D01*
X055838Y084091D01*
X055867Y084051D01*
X055893Y084009D01*
X055916Y083965D01*
X055935Y083919D01*
X055951Y083872D01*
X055963Y083823D01*
X055971Y083774D01*
X055975Y083725D01*
X055975Y083675D01*
X055971Y083626D01*
X055963Y083577D01*
X055951Y083528D01*
X055935Y083481D01*
X055916Y083435D01*
X055893Y083391D01*
X055867Y083349D01*
X055838Y083309D01*
X055805Y083271D01*
X055769Y083237D01*
X055731Y083205D01*
X055691Y083176D01*
X055648Y083151D01*
X055603Y083129D01*
X055557Y083110D01*
X055510Y083096D01*
X055461Y083085D01*
X055412Y083078D01*
X055362Y083075D01*
X055313Y083076D01*
X055263Y083081D01*
X055214Y083090D01*
X055166Y083103D01*
X055119Y083119D01*
X055074Y083139D01*
X055030Y083163D01*
X054989Y083190D01*
X054949Y083220D01*
X054912Y083254D01*
X054878Y083290D01*
X054847Y083329D01*
X054819Y083370D01*
X054795Y083413D01*
X054774Y083458D01*
X054756Y083505D01*
X054743Y083552D01*
X054733Y083601D01*
X054727Y083650D01*
X054725Y083700D01*
X049745Y083700D02*
X049747Y083750D01*
X049753Y083799D01*
X049763Y083848D01*
X049776Y083895D01*
X049794Y083942D01*
X049815Y083987D01*
X049839Y084030D01*
X049867Y084071D01*
X049898Y084110D01*
X049932Y084146D01*
X049969Y084180D01*
X050009Y084210D01*
X050050Y084237D01*
X050094Y084261D01*
X050139Y084281D01*
X050186Y084297D01*
X050234Y084310D01*
X050283Y084319D01*
X050333Y084324D01*
X050382Y084325D01*
X050432Y084322D01*
X050481Y084315D01*
X050530Y084304D01*
X050577Y084290D01*
X050623Y084271D01*
X050668Y084249D01*
X050711Y084224D01*
X050751Y084195D01*
X050789Y084163D01*
X050825Y084129D01*
X050858Y084091D01*
X050887Y084051D01*
X050913Y084009D01*
X050936Y083965D01*
X050955Y083919D01*
X050971Y083872D01*
X050983Y083823D01*
X050991Y083774D01*
X050995Y083725D01*
X050995Y083675D01*
X050991Y083626D01*
X050983Y083577D01*
X050971Y083528D01*
X050955Y083481D01*
X050936Y083435D01*
X050913Y083391D01*
X050887Y083349D01*
X050858Y083309D01*
X050825Y083271D01*
X050789Y083237D01*
X050751Y083205D01*
X050711Y083176D01*
X050668Y083151D01*
X050623Y083129D01*
X050577Y083110D01*
X050530Y083096D01*
X050481Y083085D01*
X050432Y083078D01*
X050382Y083075D01*
X050333Y083076D01*
X050283Y083081D01*
X050234Y083090D01*
X050186Y083103D01*
X050139Y083119D01*
X050094Y083139D01*
X050050Y083163D01*
X050009Y083190D01*
X049969Y083220D01*
X049932Y083254D01*
X049898Y083290D01*
X049867Y083329D01*
X049839Y083370D01*
X049815Y083413D01*
X049794Y083458D01*
X049776Y083505D01*
X049763Y083552D01*
X049753Y083601D01*
X049747Y083650D01*
X049745Y083700D01*
X029745Y083700D02*
X029747Y083750D01*
X029753Y083799D01*
X029763Y083848D01*
X029776Y083895D01*
X029794Y083942D01*
X029815Y083987D01*
X029839Y084030D01*
X029867Y084071D01*
X029898Y084110D01*
X029932Y084146D01*
X029969Y084180D01*
X030009Y084210D01*
X030050Y084237D01*
X030094Y084261D01*
X030139Y084281D01*
X030186Y084297D01*
X030234Y084310D01*
X030283Y084319D01*
X030333Y084324D01*
X030382Y084325D01*
X030432Y084322D01*
X030481Y084315D01*
X030530Y084304D01*
X030577Y084290D01*
X030623Y084271D01*
X030668Y084249D01*
X030711Y084224D01*
X030751Y084195D01*
X030789Y084163D01*
X030825Y084129D01*
X030858Y084091D01*
X030887Y084051D01*
X030913Y084009D01*
X030936Y083965D01*
X030955Y083919D01*
X030971Y083872D01*
X030983Y083823D01*
X030991Y083774D01*
X030995Y083725D01*
X030995Y083675D01*
X030991Y083626D01*
X030983Y083577D01*
X030971Y083528D01*
X030955Y083481D01*
X030936Y083435D01*
X030913Y083391D01*
X030887Y083349D01*
X030858Y083309D01*
X030825Y083271D01*
X030789Y083237D01*
X030751Y083205D01*
X030711Y083176D01*
X030668Y083151D01*
X030623Y083129D01*
X030577Y083110D01*
X030530Y083096D01*
X030481Y083085D01*
X030432Y083078D01*
X030382Y083075D01*
X030333Y083076D01*
X030283Y083081D01*
X030234Y083090D01*
X030186Y083103D01*
X030139Y083119D01*
X030094Y083139D01*
X030050Y083163D01*
X030009Y083190D01*
X029969Y083220D01*
X029932Y083254D01*
X029898Y083290D01*
X029867Y083329D01*
X029839Y083370D01*
X029815Y083413D01*
X029794Y083458D01*
X029776Y083505D01*
X029763Y083552D01*
X029753Y083601D01*
X029747Y083650D01*
X029745Y083700D01*
X022245Y083700D02*
X022247Y083750D01*
X022253Y083799D01*
X022263Y083848D01*
X022276Y083895D01*
X022294Y083942D01*
X022315Y083987D01*
X022339Y084030D01*
X022367Y084071D01*
X022398Y084110D01*
X022432Y084146D01*
X022469Y084180D01*
X022509Y084210D01*
X022550Y084237D01*
X022594Y084261D01*
X022639Y084281D01*
X022686Y084297D01*
X022734Y084310D01*
X022783Y084319D01*
X022833Y084324D01*
X022882Y084325D01*
X022932Y084322D01*
X022981Y084315D01*
X023030Y084304D01*
X023077Y084290D01*
X023123Y084271D01*
X023168Y084249D01*
X023211Y084224D01*
X023251Y084195D01*
X023289Y084163D01*
X023325Y084129D01*
X023358Y084091D01*
X023387Y084051D01*
X023413Y084009D01*
X023436Y083965D01*
X023455Y083919D01*
X023471Y083872D01*
X023483Y083823D01*
X023491Y083774D01*
X023495Y083725D01*
X023495Y083675D01*
X023491Y083626D01*
X023483Y083577D01*
X023471Y083528D01*
X023455Y083481D01*
X023436Y083435D01*
X023413Y083391D01*
X023387Y083349D01*
X023358Y083309D01*
X023325Y083271D01*
X023289Y083237D01*
X023251Y083205D01*
X023211Y083176D01*
X023168Y083151D01*
X023123Y083129D01*
X023077Y083110D01*
X023030Y083096D01*
X022981Y083085D01*
X022932Y083078D01*
X022882Y083075D01*
X022833Y083076D01*
X022783Y083081D01*
X022734Y083090D01*
X022686Y083103D01*
X022639Y083119D01*
X022594Y083139D01*
X022550Y083163D01*
X022509Y083190D01*
X022469Y083220D01*
X022432Y083254D01*
X022398Y083290D01*
X022367Y083329D01*
X022339Y083370D01*
X022315Y083413D01*
X022294Y083458D01*
X022276Y083505D01*
X022263Y083552D01*
X022253Y083601D01*
X022247Y083650D01*
X022245Y083700D01*
X002245Y083700D02*
X002247Y083750D01*
X002253Y083799D01*
X002263Y083848D01*
X002276Y083895D01*
X002294Y083942D01*
X002315Y083987D01*
X002339Y084030D01*
X002367Y084071D01*
X002398Y084110D01*
X002432Y084146D01*
X002469Y084180D01*
X002509Y084210D01*
X002550Y084237D01*
X002594Y084261D01*
X002639Y084281D01*
X002686Y084297D01*
X002734Y084310D01*
X002783Y084319D01*
X002833Y084324D01*
X002882Y084325D01*
X002932Y084322D01*
X002981Y084315D01*
X003030Y084304D01*
X003077Y084290D01*
X003123Y084271D01*
X003168Y084249D01*
X003211Y084224D01*
X003251Y084195D01*
X003289Y084163D01*
X003325Y084129D01*
X003358Y084091D01*
X003387Y084051D01*
X003413Y084009D01*
X003436Y083965D01*
X003455Y083919D01*
X003471Y083872D01*
X003483Y083823D01*
X003491Y083774D01*
X003495Y083725D01*
X003495Y083675D01*
X003491Y083626D01*
X003483Y083577D01*
X003471Y083528D01*
X003455Y083481D01*
X003436Y083435D01*
X003413Y083391D01*
X003387Y083349D01*
X003358Y083309D01*
X003325Y083271D01*
X003289Y083237D01*
X003251Y083205D01*
X003211Y083176D01*
X003168Y083151D01*
X003123Y083129D01*
X003077Y083110D01*
X003030Y083096D01*
X002981Y083085D01*
X002932Y083078D01*
X002882Y083075D01*
X002833Y083076D01*
X002783Y083081D01*
X002734Y083090D01*
X002686Y083103D01*
X002639Y083119D01*
X002594Y083139D01*
X002550Y083163D01*
X002509Y083190D01*
X002469Y083220D01*
X002432Y083254D01*
X002398Y083290D01*
X002367Y083329D01*
X002339Y083370D01*
X002315Y083413D01*
X002294Y083458D01*
X002276Y083505D01*
X002263Y083552D01*
X002253Y083601D01*
X002247Y083650D01*
X002245Y083700D01*
X020592Y041203D02*
X020600Y041203D01*
X020600Y041198D02*
X020592Y041198D01*
X020595Y041200D01*
X020592Y041203D01*
X020592Y041196D02*
X020600Y041196D01*
X020600Y041190D02*
X020592Y041190D01*
X020595Y041193D01*
X020592Y041196D01*
X020593Y041188D02*
X020599Y041183D01*
X020600Y041184D01*
X020600Y041187D01*
X020599Y041188D01*
X020593Y041188D01*
X020592Y041187D01*
X020592Y041184D01*
X020593Y041183D01*
X020599Y041183D01*
X020600Y041181D02*
X020600Y041176D01*
X020600Y041178D02*
X020592Y041178D01*
X020595Y041176D01*
X020592Y041174D02*
X020592Y041171D01*
X020592Y041172D02*
X020599Y041172D01*
X020600Y041171D01*
X020600Y041170D01*
X020599Y041169D01*
X001650Y008450D02*
X000650Y008450D01*
X001650Y008450D02*
X001650Y001700D01*
X102225Y083700D02*
X102227Y083750D01*
X102233Y083799D01*
X102243Y083848D01*
X102256Y083895D01*
X102274Y083942D01*
X102295Y083987D01*
X102319Y084030D01*
X102347Y084071D01*
X102378Y084110D01*
X102412Y084146D01*
X102449Y084180D01*
X102489Y084210D01*
X102530Y084237D01*
X102574Y084261D01*
X102619Y084281D01*
X102666Y084297D01*
X102714Y084310D01*
X102763Y084319D01*
X102813Y084324D01*
X102862Y084325D01*
X102912Y084322D01*
X102961Y084315D01*
X103010Y084304D01*
X103057Y084290D01*
X103103Y084271D01*
X103148Y084249D01*
X103191Y084224D01*
X103231Y084195D01*
X103269Y084163D01*
X103305Y084129D01*
X103338Y084091D01*
X103367Y084051D01*
X103393Y084009D01*
X103416Y083965D01*
X103435Y083919D01*
X103451Y083872D01*
X103463Y083823D01*
X103471Y083774D01*
X103475Y083725D01*
X103475Y083675D01*
X103471Y083626D01*
X103463Y083577D01*
X103451Y083528D01*
X103435Y083481D01*
X103416Y083435D01*
X103393Y083391D01*
X103367Y083349D01*
X103338Y083309D01*
X103305Y083271D01*
X103269Y083237D01*
X103231Y083205D01*
X103191Y083176D01*
X103148Y083151D01*
X103103Y083129D01*
X103057Y083110D01*
X103010Y083096D01*
X102961Y083085D01*
X102912Y083078D01*
X102862Y083075D01*
X102813Y083076D01*
X102763Y083081D01*
X102714Y083090D01*
X102666Y083103D01*
X102619Y083119D01*
X102574Y083139D01*
X102530Y083163D01*
X102489Y083190D01*
X102449Y083220D01*
X102412Y083254D01*
X102378Y083290D01*
X102347Y083329D01*
X102319Y083370D01*
X102295Y083413D01*
X102274Y083458D01*
X102256Y083505D01*
X102243Y083552D01*
X102233Y083601D01*
X102227Y083650D01*
X102225Y083700D01*
D11*
X097500Y035800D02*
X093700Y035800D01*
X093683Y035798D01*
X093666Y035794D01*
X093650Y035787D01*
X093636Y035777D01*
X093623Y035764D01*
X093613Y035750D01*
X093606Y035734D01*
X093602Y035717D01*
X093600Y035700D01*
X093600Y034700D01*
X093602Y034683D01*
X093606Y034666D01*
X093613Y034650D01*
X093623Y034636D01*
X093636Y034623D01*
X093650Y034613D01*
X093666Y034606D01*
X093683Y034602D01*
X093700Y034600D01*
X097500Y034600D01*
X097517Y034602D01*
X097534Y034606D01*
X097550Y034613D01*
X097564Y034623D01*
X097577Y034636D01*
X097587Y034650D01*
X097594Y034666D01*
X097598Y034683D01*
X097600Y034700D01*
X097600Y035700D01*
X097598Y035717D01*
X097594Y035734D01*
X097587Y035750D01*
X097577Y035764D01*
X097564Y035777D01*
X097550Y035787D01*
X097534Y035794D01*
X097517Y035798D01*
X097500Y035800D01*
X096600Y035200D02*
X095800Y035200D01*
X095400Y035200D02*
X094600Y035200D01*
X094700Y033000D02*
X093950Y033000D01*
X093950Y026400D01*
X096250Y026400D01*
X096250Y033000D01*
X095500Y033000D01*
X095498Y032961D01*
X095492Y032922D01*
X095483Y032884D01*
X095470Y032847D01*
X095453Y032811D01*
X095433Y032778D01*
X095409Y032746D01*
X095383Y032717D01*
X095354Y032691D01*
X095322Y032667D01*
X095289Y032647D01*
X095253Y032630D01*
X095216Y032617D01*
X095178Y032608D01*
X095139Y032602D01*
X095100Y032600D01*
X095061Y032602D01*
X095022Y032608D01*
X094984Y032617D01*
X094947Y032630D01*
X094911Y032647D01*
X094878Y032667D01*
X094846Y032691D01*
X094817Y032717D01*
X094791Y032746D01*
X094767Y032778D01*
X094747Y032811D01*
X094730Y032847D01*
X094717Y032884D01*
X094708Y032922D01*
X094702Y032961D01*
X094700Y033000D01*
X093200Y022800D02*
X097000Y022800D01*
X097017Y022798D01*
X097034Y022794D01*
X097050Y022787D01*
X097064Y022777D01*
X097077Y022764D01*
X097087Y022750D01*
X097094Y022734D01*
X097098Y022717D01*
X097100Y022700D01*
X097100Y021700D01*
X097098Y021683D01*
X097094Y021666D01*
X097087Y021650D01*
X097077Y021636D01*
X097064Y021623D01*
X097050Y021613D01*
X097034Y021606D01*
X097017Y021602D01*
X097000Y021600D01*
X093200Y021600D01*
X093183Y021602D01*
X093166Y021606D01*
X093150Y021613D01*
X093136Y021623D01*
X093123Y021636D01*
X093113Y021650D01*
X093106Y021666D01*
X093102Y021683D01*
X093100Y021700D01*
X093100Y022700D01*
X093102Y022717D01*
X093106Y022734D01*
X093113Y022750D01*
X093123Y022764D01*
X093136Y022777D01*
X093150Y022787D01*
X093166Y022794D01*
X093183Y022798D01*
X093200Y022800D01*
X094100Y022200D02*
X094900Y022200D01*
X095300Y022200D02*
X096100Y022200D01*
X096250Y020000D02*
X095500Y020000D01*
X095498Y019961D01*
X095492Y019922D01*
X095483Y019884D01*
X095470Y019847D01*
X095453Y019811D01*
X095433Y019778D01*
X095409Y019746D01*
X095383Y019717D01*
X095354Y019691D01*
X095322Y019667D01*
X095289Y019647D01*
X095253Y019630D01*
X095216Y019617D01*
X095178Y019608D01*
X095139Y019602D01*
X095100Y019600D01*
X095061Y019602D01*
X095022Y019608D01*
X094984Y019617D01*
X094947Y019630D01*
X094911Y019647D01*
X094878Y019667D01*
X094846Y019691D01*
X094817Y019717D01*
X094791Y019746D01*
X094767Y019778D01*
X094747Y019811D01*
X094730Y019847D01*
X094717Y019884D01*
X094708Y019922D01*
X094702Y019961D01*
X094700Y020000D01*
X093950Y020000D01*
X093950Y013400D01*
X096250Y013400D01*
X096250Y020000D01*
X099975Y018350D02*
X099995Y018350D01*
X099995Y018200D01*
X099975Y018200D02*
X099975Y018350D01*
X100025Y018400D01*
X100025Y018150D01*
X100075Y018100D01*
X100095Y018100D01*
X100095Y017950D01*
X100075Y017950D01*
X100025Y017900D01*
X100025Y013000D01*
X099975Y013050D01*
X099975Y017850D01*
X099995Y017850D01*
X099995Y013050D01*
X100025Y013000D02*
X100075Y012950D01*
X101100Y012950D01*
X101100Y017013D01*
X101350Y017062D02*
X101350Y017200D01*
X100850Y017200D01*
X100850Y017062D01*
X101350Y017062D01*
X101100Y017450D02*
X101100Y017800D01*
X101225Y017700D02*
X101425Y017700D01*
X101325Y017800D02*
X101325Y017600D01*
X101900Y017950D02*
X100125Y017950D01*
X100125Y018100D01*
X100095Y018100D01*
X100075Y018100D02*
X100075Y017950D01*
X100095Y017950D02*
X100125Y017950D01*
X100025Y017900D02*
X099975Y017850D01*
X100125Y018100D02*
X101900Y018100D01*
X101900Y017950D01*
X102125Y017950D01*
X102125Y018100D01*
X101900Y018100D01*
X102125Y018100D02*
X102125Y018450D01*
X102225Y018350D01*
X102225Y018200D01*
X102125Y018100D01*
X102125Y017950D02*
X102125Y012950D01*
X101100Y012950D01*
X102125Y012950D02*
X102225Y013050D01*
X102225Y017850D01*
X102125Y017950D01*
X102125Y018450D02*
X100075Y018450D01*
X100025Y018400D01*
X099975Y018200D02*
X100025Y018150D01*
X083100Y021200D02*
X083100Y022200D01*
X083098Y022217D01*
X083094Y022234D01*
X083087Y022250D01*
X083077Y022264D01*
X083064Y022277D01*
X083050Y022287D01*
X083034Y022294D01*
X083017Y022298D01*
X083000Y022300D01*
X079200Y022300D01*
X079183Y022298D01*
X079166Y022294D01*
X079150Y022287D01*
X079136Y022277D01*
X079123Y022264D01*
X079113Y022250D01*
X079106Y022234D01*
X079102Y022217D01*
X079100Y022200D01*
X079100Y021200D01*
X079102Y021183D01*
X079106Y021166D01*
X079113Y021150D01*
X079123Y021136D01*
X079136Y021123D01*
X079150Y021113D01*
X079166Y021106D01*
X079183Y021102D01*
X079200Y021100D01*
X083000Y021100D01*
X083017Y021102D01*
X083034Y021106D01*
X083050Y021113D01*
X083064Y021123D01*
X083077Y021136D01*
X083087Y021150D01*
X083094Y021166D01*
X083098Y021183D01*
X083100Y021200D01*
X082100Y021700D02*
X081300Y021700D01*
X080900Y021700D02*
X080100Y021700D01*
X079950Y020000D02*
X080700Y020000D01*
X080702Y019961D01*
X080708Y019922D01*
X080717Y019884D01*
X080730Y019847D01*
X080747Y019811D01*
X080767Y019778D01*
X080791Y019746D01*
X080817Y019717D01*
X080846Y019691D01*
X080878Y019667D01*
X080911Y019647D01*
X080947Y019630D01*
X080984Y019617D01*
X081022Y019608D01*
X081061Y019602D01*
X081100Y019600D01*
X081139Y019602D01*
X081178Y019608D01*
X081216Y019617D01*
X081253Y019630D01*
X081289Y019647D01*
X081322Y019667D01*
X081354Y019691D01*
X081383Y019717D01*
X081409Y019746D01*
X081433Y019778D01*
X081453Y019811D01*
X081470Y019847D01*
X081483Y019884D01*
X081492Y019922D01*
X081498Y019961D01*
X081500Y020000D01*
X082250Y020000D01*
X082250Y013400D01*
X079950Y013400D01*
X079950Y020000D01*
X075725Y018350D02*
X075725Y018200D01*
X075625Y018100D01*
X075625Y017950D01*
X075625Y012950D01*
X074600Y012950D01*
X074600Y017013D01*
X074350Y017062D02*
X074850Y017062D01*
X074850Y017200D01*
X074350Y017200D01*
X074350Y017062D01*
X074600Y017450D02*
X074600Y017800D01*
X074725Y017700D02*
X074925Y017700D01*
X074825Y017800D02*
X074825Y017600D01*
X075400Y017950D02*
X073625Y017950D01*
X073625Y018100D01*
X073595Y018100D01*
X073575Y018100D01*
X073525Y018150D01*
X073525Y018400D01*
X073475Y018350D01*
X073495Y018350D01*
X073495Y018200D01*
X073475Y018200D02*
X073475Y018350D01*
X073525Y018400D02*
X073575Y018450D01*
X075625Y018450D01*
X075625Y018100D01*
X075400Y018100D01*
X073625Y018100D01*
X073595Y018100D02*
X073595Y017950D01*
X073575Y017950D01*
X073525Y017900D01*
X073525Y013000D01*
X073475Y013050D01*
X073475Y017850D01*
X073495Y017850D01*
X073495Y013050D01*
X073525Y013000D02*
X073575Y012950D01*
X074600Y012950D01*
X075625Y012950D02*
X075725Y013050D01*
X075725Y017850D01*
X075625Y017950D01*
X075400Y017950D01*
X075400Y018100D01*
X075725Y018350D02*
X075625Y018450D01*
X073625Y017950D02*
X073595Y017950D01*
X073575Y017950D02*
X073575Y018100D01*
X073525Y018150D02*
X073475Y018200D01*
X073525Y017900D02*
X073475Y017850D01*
X069100Y021200D02*
X069100Y022200D01*
X069098Y022217D01*
X069094Y022234D01*
X069087Y022250D01*
X069077Y022264D01*
X069064Y022277D01*
X069050Y022287D01*
X069034Y022294D01*
X069017Y022298D01*
X069000Y022300D01*
X065200Y022300D01*
X065183Y022298D01*
X065166Y022294D01*
X065150Y022287D01*
X065136Y022277D01*
X065123Y022264D01*
X065113Y022250D01*
X065106Y022234D01*
X065102Y022217D01*
X065100Y022200D01*
X065100Y021200D01*
X065102Y021183D01*
X065106Y021166D01*
X065113Y021150D01*
X065123Y021136D01*
X065136Y021123D01*
X065150Y021113D01*
X065166Y021106D01*
X065183Y021102D01*
X065200Y021100D01*
X069000Y021100D01*
X069017Y021102D01*
X069034Y021106D01*
X069050Y021113D01*
X069064Y021123D01*
X069077Y021136D01*
X069087Y021150D01*
X069094Y021166D01*
X069098Y021183D01*
X069100Y021200D01*
X068100Y021700D02*
X067300Y021700D01*
X066900Y021700D02*
X066100Y021700D01*
X065950Y020000D02*
X066700Y020000D01*
X066702Y019961D01*
X066708Y019922D01*
X066717Y019884D01*
X066730Y019847D01*
X066747Y019811D01*
X066767Y019778D01*
X066791Y019746D01*
X066817Y019717D01*
X066846Y019691D01*
X066878Y019667D01*
X066911Y019647D01*
X066947Y019630D01*
X066984Y019617D01*
X067022Y019608D01*
X067061Y019602D01*
X067100Y019600D01*
X067139Y019602D01*
X067178Y019608D01*
X067216Y019617D01*
X067253Y019630D01*
X067289Y019647D01*
X067322Y019667D01*
X067354Y019691D01*
X067383Y019717D01*
X067409Y019746D01*
X067433Y019778D01*
X067453Y019811D01*
X067470Y019847D01*
X067483Y019884D01*
X067492Y019922D01*
X067498Y019961D01*
X067500Y020000D01*
X068250Y020000D01*
X068250Y013400D01*
X065950Y013400D01*
X065950Y020000D01*
X065950Y026200D02*
X068250Y026200D01*
X068250Y033200D01*
X067500Y033200D01*
X067498Y033161D01*
X067492Y033122D01*
X067483Y033084D01*
X067470Y033047D01*
X067453Y033011D01*
X067433Y032978D01*
X067409Y032946D01*
X067383Y032917D01*
X067354Y032891D01*
X067322Y032867D01*
X067289Y032847D01*
X067253Y032830D01*
X067216Y032817D01*
X067178Y032808D01*
X067139Y032802D01*
X067100Y032800D01*
X067061Y032802D01*
X067022Y032808D01*
X066984Y032817D01*
X066947Y032830D01*
X066911Y032847D01*
X066878Y032867D01*
X066846Y032891D01*
X066817Y032917D01*
X066791Y032946D01*
X066767Y032978D01*
X066747Y033011D01*
X066730Y033047D01*
X066717Y033084D01*
X066708Y033122D01*
X066702Y033161D01*
X066700Y033200D01*
X065950Y033200D01*
X065950Y026200D01*
X065200Y034600D02*
X069000Y034600D01*
X069017Y034602D01*
X069034Y034606D01*
X069050Y034613D01*
X069064Y034623D01*
X069077Y034636D01*
X069087Y034650D01*
X069094Y034666D01*
X069098Y034683D01*
X069100Y034700D01*
X069100Y035700D01*
X069098Y035717D01*
X069094Y035734D01*
X069087Y035750D01*
X069077Y035764D01*
X069064Y035777D01*
X069050Y035787D01*
X069034Y035794D01*
X069017Y035798D01*
X069000Y035800D01*
X065200Y035800D01*
X065183Y035798D01*
X065166Y035794D01*
X065150Y035787D01*
X065136Y035777D01*
X065123Y035764D01*
X065113Y035750D01*
X065106Y035734D01*
X065102Y035717D01*
X065100Y035700D01*
X065100Y034700D01*
X065102Y034683D01*
X065106Y034666D01*
X065113Y034650D01*
X065123Y034636D01*
X065136Y034623D01*
X065150Y034613D01*
X065166Y034606D01*
X065183Y034602D01*
X065200Y034600D01*
X066100Y035200D02*
X066900Y035200D01*
X067300Y035200D02*
X068100Y035200D01*
X079100Y035700D02*
X079100Y034700D01*
X079102Y034683D01*
X079106Y034666D01*
X079113Y034650D01*
X079123Y034636D01*
X079136Y034623D01*
X079150Y034613D01*
X079166Y034606D01*
X079183Y034602D01*
X079200Y034600D01*
X083000Y034600D01*
X083017Y034602D01*
X083034Y034606D01*
X083050Y034613D01*
X083064Y034623D01*
X083077Y034636D01*
X083087Y034650D01*
X083094Y034666D01*
X083098Y034683D01*
X083100Y034700D01*
X083100Y035700D01*
X083098Y035717D01*
X083094Y035734D01*
X083087Y035750D01*
X083077Y035764D01*
X083064Y035777D01*
X083050Y035787D01*
X083034Y035794D01*
X083017Y035798D01*
X083000Y035800D01*
X079200Y035800D01*
X079183Y035798D01*
X079166Y035794D01*
X079150Y035787D01*
X079136Y035777D01*
X079123Y035764D01*
X079113Y035750D01*
X079106Y035734D01*
X079102Y035717D01*
X079100Y035700D01*
X080100Y035200D02*
X080900Y035200D01*
X081300Y035200D02*
X082100Y035200D01*
X082250Y033200D02*
X081500Y033200D01*
X081498Y033161D01*
X081492Y033122D01*
X081483Y033084D01*
X081470Y033047D01*
X081453Y033011D01*
X081433Y032978D01*
X081409Y032946D01*
X081383Y032917D01*
X081354Y032891D01*
X081322Y032867D01*
X081289Y032847D01*
X081253Y032830D01*
X081216Y032817D01*
X081178Y032808D01*
X081139Y032802D01*
X081100Y032800D01*
X081061Y032802D01*
X081022Y032808D01*
X080984Y032817D01*
X080947Y032830D01*
X080911Y032847D01*
X080878Y032867D01*
X080846Y032891D01*
X080817Y032917D01*
X080791Y032946D01*
X080767Y032978D01*
X080747Y033011D01*
X080730Y033047D01*
X080717Y033084D01*
X080708Y033122D01*
X080702Y033161D01*
X080700Y033200D01*
X079950Y033200D01*
X079950Y026200D01*
X082250Y026200D01*
X082250Y033200D01*
X054600Y034700D02*
X054600Y035700D01*
X054598Y035717D01*
X054594Y035734D01*
X054587Y035750D01*
X054577Y035764D01*
X054564Y035777D01*
X054550Y035787D01*
X054534Y035794D01*
X054517Y035798D01*
X054500Y035800D01*
X050700Y035800D01*
X050683Y035798D01*
X050666Y035794D01*
X050650Y035787D01*
X050636Y035777D01*
X050623Y035764D01*
X050613Y035750D01*
X050606Y035734D01*
X050602Y035717D01*
X050600Y035700D01*
X050600Y034700D01*
X050602Y034683D01*
X050606Y034666D01*
X050613Y034650D01*
X050623Y034636D01*
X050636Y034623D01*
X050650Y034613D01*
X050666Y034606D01*
X050683Y034602D01*
X050700Y034600D01*
X054500Y034600D01*
X054517Y034602D01*
X054534Y034606D01*
X054550Y034613D01*
X054564Y034623D01*
X054577Y034636D01*
X054587Y034650D01*
X054594Y034666D01*
X054598Y034683D01*
X054600Y034700D01*
X053600Y035200D02*
X052800Y035200D01*
X052400Y035200D02*
X051600Y035200D01*
X051450Y033200D02*
X052200Y033200D01*
X052202Y033161D01*
X052208Y033122D01*
X052217Y033084D01*
X052230Y033047D01*
X052247Y033011D01*
X052267Y032978D01*
X052291Y032946D01*
X052317Y032917D01*
X052346Y032891D01*
X052378Y032867D01*
X052411Y032847D01*
X052447Y032830D01*
X052484Y032817D01*
X052522Y032808D01*
X052561Y032802D01*
X052600Y032800D01*
X052639Y032802D01*
X052678Y032808D01*
X052716Y032817D01*
X052753Y032830D01*
X052789Y032847D01*
X052822Y032867D01*
X052854Y032891D01*
X052883Y032917D01*
X052909Y032946D01*
X052933Y032978D01*
X052953Y033011D01*
X052970Y033047D01*
X052983Y033084D01*
X052992Y033122D01*
X052998Y033161D01*
X053000Y033200D01*
X053750Y033200D01*
X053750Y026200D01*
X051450Y026200D01*
X051450Y033200D01*
X040600Y034700D02*
X040600Y035700D01*
X040598Y035717D01*
X040594Y035734D01*
X040587Y035750D01*
X040577Y035764D01*
X040564Y035777D01*
X040550Y035787D01*
X040534Y035794D01*
X040517Y035798D01*
X040500Y035800D01*
X036700Y035800D01*
X036683Y035798D01*
X036666Y035794D01*
X036650Y035787D01*
X036636Y035777D01*
X036623Y035764D01*
X036613Y035750D01*
X036606Y035734D01*
X036602Y035717D01*
X036600Y035700D01*
X036600Y034700D01*
X036602Y034683D01*
X036606Y034666D01*
X036613Y034650D01*
X036623Y034636D01*
X036636Y034623D01*
X036650Y034613D01*
X036666Y034606D01*
X036683Y034602D01*
X036700Y034600D01*
X040500Y034600D01*
X040517Y034602D01*
X040534Y034606D01*
X040550Y034613D01*
X040564Y034623D01*
X040577Y034636D01*
X040587Y034650D01*
X040594Y034666D01*
X040598Y034683D01*
X040600Y034700D01*
X039600Y035200D02*
X038800Y035200D01*
X038400Y035200D02*
X037600Y035200D01*
X037450Y033200D02*
X038200Y033200D01*
X038202Y033161D01*
X038208Y033122D01*
X038217Y033084D01*
X038230Y033047D01*
X038247Y033011D01*
X038267Y032978D01*
X038291Y032946D01*
X038317Y032917D01*
X038346Y032891D01*
X038378Y032867D01*
X038411Y032847D01*
X038447Y032830D01*
X038484Y032817D01*
X038522Y032808D01*
X038561Y032802D01*
X038600Y032800D01*
X038639Y032802D01*
X038678Y032808D01*
X038716Y032817D01*
X038753Y032830D01*
X038789Y032847D01*
X038822Y032867D01*
X038854Y032891D01*
X038883Y032917D01*
X038909Y032946D01*
X038933Y032978D01*
X038953Y033011D01*
X038970Y033047D01*
X038983Y033084D01*
X038992Y033122D01*
X038998Y033161D01*
X039000Y033200D01*
X039750Y033200D01*
X039750Y025200D01*
X037450Y025200D01*
X037450Y033200D01*
X026100Y034700D02*
X026100Y035700D01*
X026098Y035717D01*
X026094Y035734D01*
X026087Y035750D01*
X026077Y035764D01*
X026064Y035777D01*
X026050Y035787D01*
X026034Y035794D01*
X026017Y035798D01*
X026000Y035800D01*
X022200Y035800D01*
X022183Y035798D01*
X022166Y035794D01*
X022150Y035787D01*
X022136Y035777D01*
X022123Y035764D01*
X022113Y035750D01*
X022106Y035734D01*
X022102Y035717D01*
X022100Y035700D01*
X022100Y034700D01*
X022102Y034683D01*
X022106Y034666D01*
X022113Y034650D01*
X022123Y034636D01*
X022136Y034623D01*
X022150Y034613D01*
X022166Y034606D01*
X022183Y034602D01*
X022200Y034600D01*
X026000Y034600D01*
X026017Y034602D01*
X026034Y034606D01*
X026050Y034613D01*
X026064Y034623D01*
X026077Y034636D01*
X026087Y034650D01*
X026094Y034666D01*
X026098Y034683D01*
X026100Y034700D01*
X025100Y035200D02*
X024300Y035200D01*
X023900Y035200D02*
X023100Y035200D01*
X022950Y033200D02*
X023700Y033200D01*
X023702Y033161D01*
X023708Y033122D01*
X023717Y033084D01*
X023730Y033047D01*
X023747Y033011D01*
X023767Y032978D01*
X023791Y032946D01*
X023817Y032917D01*
X023846Y032891D01*
X023878Y032867D01*
X023911Y032847D01*
X023947Y032830D01*
X023984Y032817D01*
X024022Y032808D01*
X024061Y032802D01*
X024100Y032800D01*
X024139Y032802D01*
X024178Y032808D01*
X024216Y032817D01*
X024253Y032830D01*
X024289Y032847D01*
X024322Y032867D01*
X024354Y032891D01*
X024383Y032917D01*
X024409Y032946D01*
X024433Y032978D01*
X024453Y033011D01*
X024470Y033047D01*
X024483Y033084D01*
X024492Y033122D01*
X024498Y033161D01*
X024500Y033200D01*
X025250Y033200D01*
X025250Y026200D01*
X022950Y026200D01*
X022950Y033200D01*
X022950Y037950D02*
X022250Y037950D01*
X022233Y037952D01*
X022216Y037956D01*
X022200Y037963D01*
X022186Y037973D01*
X022173Y037986D01*
X022163Y038000D01*
X022156Y038016D01*
X022152Y038033D01*
X022150Y038050D01*
X022150Y038200D01*
X022200Y038250D01*
X022200Y040150D01*
X022150Y040200D01*
X022150Y040350D01*
X022152Y040367D01*
X022156Y040384D01*
X022163Y040400D01*
X022173Y040414D01*
X022186Y040427D01*
X022200Y040437D01*
X022216Y040444D01*
X022233Y040448D01*
X022250Y040450D01*
X022950Y040450D01*
X022967Y040448D01*
X022984Y040444D01*
X023000Y040437D01*
X023014Y040427D01*
X023027Y040414D01*
X023037Y040400D01*
X023044Y040384D01*
X023048Y040367D01*
X023050Y040350D01*
X023050Y040200D01*
X023000Y040150D01*
X023000Y038250D01*
X023050Y038200D01*
X023050Y038050D01*
X023048Y038033D01*
X023044Y038016D01*
X023037Y038000D01*
X023027Y037986D01*
X023014Y037973D01*
X023000Y037963D01*
X022984Y037956D01*
X022967Y037952D01*
X022950Y037950D01*
X012100Y035700D02*
X012100Y034700D01*
X012098Y034683D01*
X012094Y034666D01*
X012087Y034650D01*
X012077Y034636D01*
X012064Y034623D01*
X012050Y034613D01*
X012034Y034606D01*
X012017Y034602D01*
X012000Y034600D01*
X008200Y034600D01*
X008183Y034602D01*
X008166Y034606D01*
X008150Y034613D01*
X008136Y034623D01*
X008123Y034636D01*
X008113Y034650D01*
X008106Y034666D01*
X008102Y034683D01*
X008100Y034700D01*
X008100Y035700D01*
X008102Y035717D01*
X008106Y035734D01*
X008113Y035750D01*
X008123Y035764D01*
X008136Y035777D01*
X008150Y035787D01*
X008166Y035794D01*
X008183Y035798D01*
X008200Y035800D01*
X012000Y035800D01*
X012017Y035798D01*
X012034Y035794D01*
X012050Y035787D01*
X012064Y035777D01*
X012077Y035764D01*
X012087Y035750D01*
X012094Y035734D01*
X012098Y035717D01*
X012100Y035700D01*
X011100Y035200D02*
X010300Y035200D01*
X009900Y035200D02*
X009100Y035200D01*
X008950Y033000D02*
X009700Y033000D01*
X009702Y032961D01*
X009708Y032922D01*
X009717Y032884D01*
X009730Y032847D01*
X009747Y032811D01*
X009767Y032778D01*
X009791Y032746D01*
X009817Y032717D01*
X009846Y032691D01*
X009878Y032667D01*
X009911Y032647D01*
X009947Y032630D01*
X009984Y032617D01*
X010022Y032608D01*
X010061Y032602D01*
X010100Y032600D01*
X010139Y032602D01*
X010178Y032608D01*
X010216Y032617D01*
X010253Y032630D01*
X010289Y032647D01*
X010322Y032667D01*
X010354Y032691D01*
X010383Y032717D01*
X010409Y032746D01*
X010433Y032778D01*
X010453Y032811D01*
X010470Y032847D01*
X010483Y032884D01*
X010492Y032922D01*
X010498Y032961D01*
X010500Y033000D01*
X011250Y033000D01*
X011250Y026400D01*
X008950Y026400D01*
X008950Y033000D01*
X008200Y022300D02*
X012000Y022300D01*
X012017Y022298D01*
X012034Y022294D01*
X012050Y022287D01*
X012064Y022277D01*
X012077Y022264D01*
X012087Y022250D01*
X012094Y022234D01*
X012098Y022217D01*
X012100Y022200D01*
X012100Y021200D01*
X012098Y021183D01*
X012094Y021166D01*
X012087Y021150D01*
X012077Y021136D01*
X012064Y021123D01*
X012050Y021113D01*
X012034Y021106D01*
X012017Y021102D01*
X012000Y021100D01*
X008200Y021100D01*
X008183Y021102D01*
X008166Y021106D01*
X008150Y021113D01*
X008136Y021123D01*
X008123Y021136D01*
X008113Y021150D01*
X008106Y021166D01*
X008102Y021183D01*
X008100Y021200D01*
X008100Y022200D01*
X008102Y022217D01*
X008106Y022234D01*
X008113Y022250D01*
X008123Y022264D01*
X008136Y022277D01*
X008150Y022287D01*
X008166Y022294D01*
X008183Y022298D01*
X008200Y022300D01*
X009100Y021700D02*
X009900Y021700D01*
X010300Y021700D02*
X011100Y021700D01*
X011250Y020000D02*
X010500Y020000D01*
X010498Y019961D01*
X010492Y019922D01*
X010483Y019884D01*
X010470Y019847D01*
X010453Y019811D01*
X010433Y019778D01*
X010409Y019746D01*
X010383Y019717D01*
X010354Y019691D01*
X010322Y019667D01*
X010289Y019647D01*
X010253Y019630D01*
X010216Y019617D01*
X010178Y019608D01*
X010139Y019602D01*
X010100Y019600D01*
X010061Y019602D01*
X010022Y019608D01*
X009984Y019617D01*
X009947Y019630D01*
X009911Y019647D01*
X009878Y019667D01*
X009846Y019691D01*
X009817Y019717D01*
X009791Y019746D01*
X009767Y019778D01*
X009747Y019811D01*
X009730Y019847D01*
X009717Y019884D01*
X009708Y019922D01*
X009702Y019961D01*
X009700Y020000D01*
X008950Y020000D01*
X008950Y013400D01*
X011250Y013400D01*
X011250Y020000D01*
X022100Y021200D02*
X022100Y022200D01*
X022102Y022217D01*
X022106Y022234D01*
X022113Y022250D01*
X022123Y022264D01*
X022136Y022277D01*
X022150Y022287D01*
X022166Y022294D01*
X022183Y022298D01*
X022200Y022300D01*
X026000Y022300D01*
X026017Y022298D01*
X026034Y022294D01*
X026050Y022287D01*
X026064Y022277D01*
X026077Y022264D01*
X026087Y022250D01*
X026094Y022234D01*
X026098Y022217D01*
X026100Y022200D01*
X026100Y021200D01*
X026098Y021183D01*
X026094Y021166D01*
X026087Y021150D01*
X026077Y021136D01*
X026064Y021123D01*
X026050Y021113D01*
X026034Y021106D01*
X026017Y021102D01*
X026000Y021100D01*
X022200Y021100D01*
X022183Y021102D01*
X022166Y021106D01*
X022150Y021113D01*
X022136Y021123D01*
X022123Y021136D01*
X022113Y021150D01*
X022106Y021166D01*
X022102Y021183D01*
X022100Y021200D01*
X023100Y021700D02*
X023900Y021700D01*
X024300Y021700D02*
X025100Y021700D01*
X025250Y020200D02*
X024500Y020200D01*
X024498Y020161D01*
X024492Y020122D01*
X024483Y020084D01*
X024470Y020047D01*
X024453Y020011D01*
X024433Y019978D01*
X024409Y019946D01*
X024383Y019917D01*
X024354Y019891D01*
X024322Y019867D01*
X024289Y019847D01*
X024253Y019830D01*
X024216Y019817D01*
X024178Y019808D01*
X024139Y019802D01*
X024100Y019800D01*
X024061Y019802D01*
X024022Y019808D01*
X023984Y019817D01*
X023947Y019830D01*
X023911Y019847D01*
X023878Y019867D01*
X023846Y019891D01*
X023817Y019917D01*
X023791Y019946D01*
X023767Y019978D01*
X023747Y020011D01*
X023730Y020047D01*
X023717Y020084D01*
X023708Y020122D01*
X023702Y020161D01*
X023700Y020200D01*
X022950Y020200D01*
X022950Y013200D01*
X025250Y013200D01*
X025250Y020200D01*
X036600Y021200D02*
X036600Y022200D01*
X036602Y022217D01*
X036606Y022234D01*
X036613Y022250D01*
X036623Y022264D01*
X036636Y022277D01*
X036650Y022287D01*
X036666Y022294D01*
X036683Y022298D01*
X036700Y022300D01*
X040500Y022300D01*
X040517Y022298D01*
X040534Y022294D01*
X040550Y022287D01*
X040564Y022277D01*
X040577Y022264D01*
X040587Y022250D01*
X040594Y022234D01*
X040598Y022217D01*
X040600Y022200D01*
X040600Y021200D01*
X040598Y021183D01*
X040594Y021166D01*
X040587Y021150D01*
X040577Y021136D01*
X040564Y021123D01*
X040550Y021113D01*
X040534Y021106D01*
X040517Y021102D01*
X040500Y021100D01*
X036700Y021100D01*
X036683Y021102D01*
X036666Y021106D01*
X036650Y021113D01*
X036636Y021123D01*
X036623Y021136D01*
X036613Y021150D01*
X036606Y021166D01*
X036602Y021183D01*
X036600Y021200D01*
X037600Y021700D02*
X038400Y021700D01*
X038800Y021700D02*
X039600Y021700D01*
X039750Y020000D02*
X039000Y020000D01*
X038998Y019961D01*
X038992Y019922D01*
X038983Y019884D01*
X038970Y019847D01*
X038953Y019811D01*
X038933Y019778D01*
X038909Y019746D01*
X038883Y019717D01*
X038854Y019691D01*
X038822Y019667D01*
X038789Y019647D01*
X038753Y019630D01*
X038716Y019617D01*
X038678Y019608D01*
X038639Y019602D01*
X038600Y019600D01*
X038561Y019602D01*
X038522Y019608D01*
X038484Y019617D01*
X038447Y019630D01*
X038411Y019647D01*
X038378Y019667D01*
X038346Y019691D01*
X038317Y019717D01*
X038291Y019746D01*
X038267Y019778D01*
X038247Y019811D01*
X038230Y019847D01*
X038217Y019884D01*
X038208Y019922D01*
X038202Y019961D01*
X038200Y020000D01*
X037450Y020000D01*
X037450Y013400D01*
X039750Y013400D01*
X039750Y020000D01*
X046975Y018350D02*
X046995Y018350D01*
X046995Y018200D01*
X046975Y018200D02*
X046975Y018350D01*
X047025Y018400D01*
X047025Y018150D01*
X047075Y018100D01*
X047095Y018100D01*
X047095Y017950D01*
X047075Y017950D01*
X047025Y017900D01*
X047025Y013000D01*
X046975Y013050D01*
X046975Y017850D01*
X046995Y017850D01*
X046995Y013050D01*
X047025Y013000D02*
X047075Y012950D01*
X048100Y012950D01*
X048100Y017013D01*
X048350Y017062D02*
X048350Y017200D01*
X047850Y017200D01*
X047850Y017062D01*
X048350Y017062D01*
X048100Y017450D02*
X048100Y017800D01*
X048225Y017700D02*
X048425Y017700D01*
X048325Y017800D02*
X048325Y017600D01*
X048900Y017950D02*
X048900Y018100D01*
X047125Y018100D01*
X047125Y017950D01*
X047095Y017950D01*
X047075Y017950D02*
X047075Y018100D01*
X047095Y018100D02*
X047125Y018100D01*
X047025Y018150D02*
X046975Y018200D01*
X047025Y018400D02*
X047075Y018450D01*
X049125Y018450D01*
X049125Y018100D01*
X049125Y017950D01*
X049125Y012950D01*
X048100Y012950D01*
X049125Y012950D02*
X049225Y013050D01*
X049225Y017850D01*
X049125Y017950D01*
X048900Y017950D01*
X047125Y017950D01*
X047025Y017900D02*
X046975Y017850D01*
X048900Y018100D02*
X049125Y018100D01*
X049225Y018200D01*
X049225Y018350D01*
X049125Y018450D01*
X051450Y020000D02*
X052200Y020000D01*
X052202Y019961D01*
X052208Y019922D01*
X052217Y019884D01*
X052230Y019847D01*
X052247Y019811D01*
X052267Y019778D01*
X052291Y019746D01*
X052317Y019717D01*
X052346Y019691D01*
X052378Y019667D01*
X052411Y019647D01*
X052447Y019630D01*
X052484Y019617D01*
X052522Y019608D01*
X052561Y019602D01*
X052600Y019600D01*
X052639Y019602D01*
X052678Y019608D01*
X052716Y019617D01*
X052753Y019630D01*
X052789Y019647D01*
X052822Y019667D01*
X052854Y019691D01*
X052883Y019717D01*
X052909Y019746D01*
X052933Y019778D01*
X052953Y019811D01*
X052970Y019847D01*
X052983Y019884D01*
X052992Y019922D01*
X052998Y019961D01*
X053000Y020000D01*
X053750Y020000D01*
X053750Y013400D01*
X051450Y013400D01*
X051450Y020000D01*
X050700Y021100D02*
X054500Y021100D01*
X054517Y021102D01*
X054534Y021106D01*
X054550Y021113D01*
X054564Y021123D01*
X054577Y021136D01*
X054587Y021150D01*
X054594Y021166D01*
X054598Y021183D01*
X054600Y021200D01*
X054600Y022200D01*
X054598Y022217D01*
X054594Y022234D01*
X054587Y022250D01*
X054577Y022264D01*
X054564Y022277D01*
X054550Y022287D01*
X054534Y022294D01*
X054517Y022298D01*
X054500Y022300D01*
X050700Y022300D01*
X050683Y022298D01*
X050666Y022294D01*
X050650Y022287D01*
X050636Y022277D01*
X050623Y022264D01*
X050613Y022250D01*
X050606Y022234D01*
X050602Y022217D01*
X050600Y022200D01*
X050600Y021200D01*
X050602Y021183D01*
X050606Y021166D01*
X050613Y021150D01*
X050623Y021136D01*
X050636Y021123D01*
X050650Y021113D01*
X050666Y021106D01*
X050683Y021102D01*
X050700Y021100D01*
X051600Y021700D02*
X052400Y021700D01*
X052800Y021700D02*
X053600Y021700D01*
X011850Y055500D02*
X011850Y056400D01*
X011850Y057200D01*
X011800Y057200D01*
X011800Y058400D01*
X011800Y058900D01*
X011800Y059350D01*
X011800Y058900D02*
X010000Y058900D01*
X010000Y060350D01*
X010000Y062050D01*
X009200Y062050D01*
X009200Y061500D01*
X008900Y061500D01*
X008300Y061500D01*
X008266Y061498D01*
X008233Y061492D01*
X008201Y061483D01*
X008170Y061470D01*
X008140Y061454D01*
X008113Y061435D01*
X008088Y061412D01*
X008065Y061387D01*
X008046Y061360D01*
X008030Y061330D01*
X008017Y061299D01*
X008008Y061267D01*
X008002Y061234D01*
X008000Y061200D01*
X008002Y061166D01*
X008008Y061133D01*
X008017Y061101D01*
X008030Y061070D01*
X008046Y061040D01*
X008065Y061013D01*
X008088Y060988D01*
X008113Y060965D01*
X008140Y060946D01*
X008170Y060930D01*
X008201Y060917D01*
X008233Y060908D01*
X008266Y060902D01*
X008300Y060900D01*
X008900Y060900D01*
X008900Y061500D01*
X008900Y060900D02*
X009200Y060900D01*
X009200Y060350D01*
X010000Y060350D01*
X009200Y060350D02*
X006350Y060350D01*
X006350Y060800D01*
X006350Y061600D01*
X006350Y062050D01*
X006350Y068350D01*
X006350Y070050D01*
X006350Y077350D01*
X006350Y079450D01*
X006140Y079710D02*
X005180Y079960D01*
X005000Y080200D02*
X005000Y081900D01*
X005250Y081800D02*
X005250Y080300D01*
X006350Y080300D01*
X006350Y081800D01*
X005250Y081800D01*
X005160Y082120D02*
X007800Y083000D01*
X011750Y083000D01*
X011850Y082900D01*
X011850Y082000D01*
X011850Y081200D01*
X011800Y081200D01*
X011800Y080000D01*
X011800Y079500D01*
X011800Y079050D01*
X011800Y079500D02*
X010000Y079500D01*
X010000Y079050D01*
X010000Y077350D01*
X010000Y062050D01*
X009200Y062050D02*
X006350Y062050D01*
X006350Y061600D02*
X006750Y061600D01*
X006750Y060800D01*
X006350Y060800D01*
X006350Y060350D02*
X006350Y058950D01*
X006140Y058690D02*
X005180Y058440D01*
X005000Y058200D02*
X005000Y056500D01*
X005250Y056550D02*
X005250Y058050D01*
X006350Y058050D01*
X006350Y056550D01*
X005250Y056550D01*
X005160Y056280D02*
X007800Y055400D01*
X011750Y055400D01*
X011850Y055500D01*
X011850Y056400D02*
X010250Y056400D01*
X009600Y057400D01*
X010250Y058400D01*
X011800Y058400D01*
X011800Y060050D02*
X011800Y060350D01*
X011800Y061050D02*
X011800Y061350D01*
X011800Y062050D02*
X011800Y062350D01*
X011800Y063050D02*
X011800Y063350D01*
X011800Y064050D02*
X011800Y064350D01*
X011800Y065050D02*
X011800Y065350D01*
X011800Y066050D02*
X011800Y066350D01*
X011800Y067050D02*
X011800Y067350D01*
X011800Y068050D02*
X011800Y068350D01*
X011800Y069050D02*
X011800Y069350D01*
X011800Y070050D02*
X011800Y070350D01*
X011800Y071050D02*
X011800Y071350D01*
X011800Y072050D02*
X011800Y072350D01*
X011800Y073050D02*
X011800Y073350D01*
X011800Y074050D02*
X011800Y074350D01*
X011800Y075050D02*
X011800Y075350D01*
X011800Y076050D02*
X011800Y076350D01*
X011800Y077050D02*
X011800Y077350D01*
X011800Y078050D02*
X011800Y078350D01*
X011800Y080000D02*
X010250Y080000D01*
X009600Y081000D01*
X010250Y082000D01*
X011850Y082000D01*
X010370Y081000D02*
X010372Y081045D01*
X010378Y081090D01*
X010388Y081135D01*
X010401Y081178D01*
X010419Y081220D01*
X010440Y081260D01*
X010464Y081298D01*
X010492Y081334D01*
X010522Y081368D01*
X010556Y081398D01*
X010592Y081426D01*
X010630Y081450D01*
X010670Y081471D01*
X010712Y081489D01*
X010755Y081502D01*
X010800Y081512D01*
X010845Y081518D01*
X010890Y081520D01*
X010935Y081518D01*
X010980Y081512D01*
X011025Y081502D01*
X011068Y081489D01*
X011110Y081471D01*
X011150Y081450D01*
X011188Y081426D01*
X011224Y081398D01*
X011258Y081368D01*
X011288Y081334D01*
X011316Y081298D01*
X011340Y081260D01*
X011361Y081220D01*
X011379Y081178D01*
X011392Y081135D01*
X011402Y081090D01*
X011408Y081045D01*
X011410Y081000D01*
X011408Y080955D01*
X011402Y080910D01*
X011392Y080865D01*
X011379Y080822D01*
X011361Y080780D01*
X011340Y080740D01*
X011316Y080702D01*
X011288Y080666D01*
X011258Y080632D01*
X011224Y080602D01*
X011188Y080574D01*
X011150Y080550D01*
X011110Y080529D01*
X011068Y080511D01*
X011025Y080498D01*
X010980Y080488D01*
X010935Y080482D01*
X010890Y080480D01*
X010845Y080482D01*
X010800Y080488D01*
X010755Y080498D01*
X010712Y080511D01*
X010670Y080529D01*
X010630Y080550D01*
X010592Y080574D01*
X010556Y080602D01*
X010522Y080632D01*
X010492Y080666D01*
X010464Y080702D01*
X010440Y080740D01*
X010419Y080780D01*
X010401Y080822D01*
X010388Y080865D01*
X010378Y080910D01*
X010372Y080955D01*
X010370Y081000D01*
X010000Y079050D02*
X009200Y079050D01*
X006350Y079050D01*
X006350Y078600D02*
X006750Y078600D01*
X006750Y077800D01*
X006350Y077800D01*
X006350Y077350D02*
X009200Y077350D01*
X010000Y077350D01*
X009200Y077350D02*
X009200Y077900D01*
X008900Y077900D01*
X008900Y078500D01*
X009200Y078500D01*
X009200Y079050D01*
X008900Y078500D02*
X008300Y078500D01*
X008266Y078498D01*
X008233Y078492D01*
X008201Y078483D01*
X008170Y078470D01*
X008140Y078454D01*
X008113Y078435D01*
X008088Y078412D01*
X008065Y078387D01*
X008046Y078360D01*
X008030Y078330D01*
X008017Y078299D01*
X008008Y078267D01*
X008002Y078234D01*
X008000Y078200D01*
X008002Y078166D01*
X008008Y078133D01*
X008017Y078101D01*
X008030Y078070D01*
X008046Y078040D01*
X008065Y078013D01*
X008088Y077988D01*
X008113Y077965D01*
X008140Y077946D01*
X008170Y077930D01*
X008201Y077917D01*
X008233Y077908D01*
X008266Y077902D01*
X008300Y077900D01*
X008900Y077900D01*
X005800Y080580D02*
X005800Y080940D01*
X005980Y081132D02*
X005620Y081493D01*
X005980Y081493D01*
X006070Y081403D01*
X006070Y081223D01*
X005980Y081132D01*
X005620Y081132D01*
X005530Y081223D01*
X005530Y081403D01*
X005620Y081493D01*
X005530Y080850D02*
X005800Y080580D01*
X006070Y080850D02*
X005530Y080850D01*
X007250Y081500D02*
X007252Y081547D01*
X007258Y081593D01*
X007268Y081639D01*
X007281Y081683D01*
X007299Y081727D01*
X007320Y081768D01*
X007344Y081808D01*
X007372Y081846D01*
X007403Y081881D01*
X007437Y081913D01*
X007473Y081942D01*
X007512Y081968D01*
X007552Y081991D01*
X007595Y082010D01*
X007639Y082026D01*
X007684Y082038D01*
X007730Y082046D01*
X007777Y082050D01*
X007823Y082050D01*
X007870Y082046D01*
X007916Y082038D01*
X007961Y082026D01*
X008005Y082010D01*
X008048Y081991D01*
X008088Y081968D01*
X008127Y081942D01*
X008163Y081913D01*
X008197Y081881D01*
X008228Y081846D01*
X008256Y081808D01*
X008280Y081768D01*
X008301Y081727D01*
X008319Y081683D01*
X008332Y081639D01*
X008342Y081593D01*
X008348Y081547D01*
X008350Y081500D01*
X008348Y081453D01*
X008342Y081407D01*
X008332Y081361D01*
X008319Y081317D01*
X008301Y081273D01*
X008280Y081232D01*
X008256Y081192D01*
X008228Y081154D01*
X008197Y081119D01*
X008163Y081087D01*
X008127Y081058D01*
X008088Y081032D01*
X008048Y081009D01*
X008005Y080990D01*
X007961Y080974D01*
X007916Y080962D01*
X007870Y080954D01*
X007823Y080950D01*
X007777Y080950D01*
X007730Y080954D01*
X007684Y080962D01*
X007639Y080974D01*
X007595Y080990D01*
X007552Y081009D01*
X007512Y081032D01*
X007473Y081058D01*
X007437Y081087D01*
X007403Y081119D01*
X007372Y081154D01*
X007344Y081192D01*
X007320Y081232D01*
X007299Y081273D01*
X007281Y081317D01*
X007268Y081361D01*
X007258Y081407D01*
X007252Y081453D01*
X007250Y081500D01*
X006350Y070050D02*
X008900Y070050D01*
X009300Y070050D01*
X009300Y068350D01*
X008900Y068350D01*
X008900Y070050D01*
X008900Y068350D02*
X006350Y068350D01*
X006070Y057743D02*
X005530Y057743D01*
X005800Y057743D02*
X005800Y057382D01*
X006070Y057382D02*
X005530Y057382D01*
X005530Y056830D02*
X006070Y056830D01*
X006070Y057190D01*
X007250Y056900D02*
X007252Y056947D01*
X007258Y056993D01*
X007268Y057039D01*
X007281Y057083D01*
X007299Y057127D01*
X007320Y057168D01*
X007344Y057208D01*
X007372Y057246D01*
X007403Y057281D01*
X007437Y057313D01*
X007473Y057342D01*
X007512Y057368D01*
X007552Y057391D01*
X007595Y057410D01*
X007639Y057426D01*
X007684Y057438D01*
X007730Y057446D01*
X007777Y057450D01*
X007823Y057450D01*
X007870Y057446D01*
X007916Y057438D01*
X007961Y057426D01*
X008005Y057410D01*
X008048Y057391D01*
X008088Y057368D01*
X008127Y057342D01*
X008163Y057313D01*
X008197Y057281D01*
X008228Y057246D01*
X008256Y057208D01*
X008280Y057168D01*
X008301Y057127D01*
X008319Y057083D01*
X008332Y057039D01*
X008342Y056993D01*
X008348Y056947D01*
X008350Y056900D01*
X008348Y056853D01*
X008342Y056807D01*
X008332Y056761D01*
X008319Y056717D01*
X008301Y056673D01*
X008280Y056632D01*
X008256Y056592D01*
X008228Y056554D01*
X008197Y056519D01*
X008163Y056487D01*
X008127Y056458D01*
X008088Y056432D01*
X008048Y056409D01*
X008005Y056390D01*
X007961Y056374D01*
X007916Y056362D01*
X007870Y056354D01*
X007823Y056350D01*
X007777Y056350D01*
X007730Y056354D01*
X007684Y056362D01*
X007639Y056374D01*
X007595Y056390D01*
X007552Y056409D01*
X007512Y056432D01*
X007473Y056458D01*
X007437Y056487D01*
X007403Y056519D01*
X007372Y056554D01*
X007344Y056592D01*
X007320Y056632D01*
X007299Y056673D01*
X007281Y056717D01*
X007268Y056761D01*
X007258Y056807D01*
X007252Y056853D01*
X007250Y056900D01*
X010370Y057400D02*
X010372Y057445D01*
X010378Y057490D01*
X010388Y057535D01*
X010401Y057578D01*
X010419Y057620D01*
X010440Y057660D01*
X010464Y057698D01*
X010492Y057734D01*
X010522Y057768D01*
X010556Y057798D01*
X010592Y057826D01*
X010630Y057850D01*
X010670Y057871D01*
X010712Y057889D01*
X010755Y057902D01*
X010800Y057912D01*
X010845Y057918D01*
X010890Y057920D01*
X010935Y057918D01*
X010980Y057912D01*
X011025Y057902D01*
X011068Y057889D01*
X011110Y057871D01*
X011150Y057850D01*
X011188Y057826D01*
X011224Y057798D01*
X011258Y057768D01*
X011288Y057734D01*
X011316Y057698D01*
X011340Y057660D01*
X011361Y057620D01*
X011379Y057578D01*
X011392Y057535D01*
X011402Y057490D01*
X011408Y057445D01*
X011410Y057400D01*
X011408Y057355D01*
X011402Y057310D01*
X011392Y057265D01*
X011379Y057222D01*
X011361Y057180D01*
X011340Y057140D01*
X011316Y057102D01*
X011288Y057066D01*
X011258Y057032D01*
X011224Y057002D01*
X011188Y056974D01*
X011150Y056950D01*
X011110Y056929D01*
X011068Y056911D01*
X011025Y056898D01*
X010980Y056888D01*
X010935Y056882D01*
X010890Y056880D01*
X010845Y056882D01*
X010800Y056888D01*
X010755Y056898D01*
X010712Y056911D01*
X010670Y056929D01*
X010630Y056950D01*
X010592Y056974D01*
X010556Y057002D01*
X010522Y057032D01*
X010492Y057066D01*
X010464Y057102D01*
X010440Y057140D01*
X010419Y057180D01*
X010401Y057222D01*
X010388Y057265D01*
X010378Y057310D01*
X010372Y057355D01*
X010370Y057400D01*
D12*
X022375Y039955D02*
X022675Y039655D01*
X022600Y039730D02*
X022825Y039955D01*
X022825Y039655D02*
X022375Y039655D01*
X022375Y039494D02*
X022450Y039344D01*
X022600Y039194D01*
X022600Y039419D01*
X022675Y039494D01*
X022750Y039494D01*
X022825Y039419D01*
X022825Y039269D01*
X022750Y039194D01*
X022600Y039194D01*
X022750Y039039D02*
X022825Y039039D01*
X022825Y038964D01*
X022750Y038964D01*
X022750Y039039D01*
X022825Y038804D02*
X022825Y038504D01*
X022825Y038654D02*
X022375Y038654D01*
X022525Y038504D01*
X023225Y039504D02*
X023225Y039729D01*
X023300Y039804D01*
X023450Y039804D01*
X023525Y039729D01*
X023525Y039504D01*
X023675Y039504D02*
X023225Y039504D01*
X023525Y039654D02*
X023675Y039804D01*
X023675Y039965D02*
X023675Y040265D01*
X023675Y040115D02*
X023225Y040115D01*
X023375Y039965D01*
X020325Y039121D02*
X020325Y038971D01*
X020250Y038896D01*
X020325Y038736D02*
X020325Y038435D01*
X020325Y038586D02*
X019875Y038586D01*
X020025Y038435D01*
X019875Y038275D02*
X020325Y038275D01*
X020175Y038125D01*
X020325Y037975D01*
X019875Y037975D01*
X019950Y038896D02*
X019875Y038971D01*
X019875Y039121D01*
X019950Y039196D01*
X020025Y039196D01*
X020100Y039121D01*
X020175Y039196D01*
X020250Y039196D01*
X020325Y039121D01*
X020100Y039121D02*
X020100Y039046D01*
X024183Y036300D02*
X024258Y036375D01*
X024409Y036375D01*
X024484Y036300D01*
X024183Y036000D01*
X024258Y035925D01*
X024409Y035925D01*
X024484Y036000D01*
X024484Y036300D01*
X024644Y036225D02*
X024794Y036375D01*
X024794Y035925D01*
X024644Y035925D02*
X024944Y035925D01*
X025104Y036000D02*
X025179Y035925D01*
X025404Y035925D01*
X025404Y036225D01*
X025565Y036150D02*
X025715Y036150D01*
X025565Y035925D02*
X025565Y036375D01*
X025865Y036375D01*
X025104Y036225D02*
X025104Y036000D01*
X024183Y036000D02*
X024183Y036300D01*
X024028Y036000D02*
X024028Y035925D01*
X023953Y035925D01*
X023953Y036000D01*
X024028Y036000D01*
X024719Y034425D02*
X024644Y034350D01*
X024644Y034050D01*
X024719Y033975D01*
X024869Y033975D01*
X024944Y034050D01*
X025104Y033975D02*
X025404Y033975D01*
X025254Y033975D02*
X025254Y034425D01*
X025104Y034275D01*
X024944Y034350D02*
X024869Y034425D01*
X024719Y034425D01*
X025565Y034350D02*
X025640Y034425D01*
X025790Y034425D01*
X025865Y034350D01*
X025865Y034275D01*
X025565Y033975D01*
X025865Y033975D01*
X024146Y033750D02*
X024071Y033825D01*
X023921Y033825D01*
X023846Y033750D01*
X024146Y033750D02*
X024146Y033675D01*
X023846Y033375D01*
X024146Y033375D01*
X023686Y033375D02*
X023385Y033375D01*
X023536Y033375D02*
X023536Y033825D01*
X023385Y033675D01*
X023225Y033825D02*
X022925Y033825D01*
X022925Y033375D01*
X023225Y033375D01*
X023075Y033600D02*
X022925Y033600D01*
X023875Y032215D02*
X024325Y032215D01*
X023875Y031915D01*
X024325Y031915D01*
X024325Y031679D02*
X023875Y031679D01*
X024100Y031454D01*
X024100Y031754D01*
X023950Y031294D02*
X024250Y031294D01*
X024325Y031219D01*
X024325Y031069D01*
X024250Y030994D01*
X023950Y031294D01*
X023875Y031219D01*
X023875Y031069D01*
X023950Y030994D01*
X024250Y030994D01*
X024100Y030834D02*
X024100Y030533D01*
X023875Y030759D01*
X024325Y030759D01*
X023950Y030373D02*
X024250Y030073D01*
X024325Y030073D01*
X023875Y030073D02*
X023875Y030373D01*
X023950Y030373D01*
X024258Y022875D02*
X024183Y022800D01*
X024183Y022500D01*
X024484Y022800D01*
X024484Y022500D01*
X024409Y022425D01*
X024258Y022425D01*
X024183Y022500D01*
X024028Y022500D02*
X024028Y022425D01*
X023953Y022425D01*
X023953Y022500D01*
X024028Y022500D01*
X024258Y022875D02*
X024409Y022875D01*
X024484Y022800D01*
X024644Y022725D02*
X024794Y022875D01*
X024794Y022425D01*
X024644Y022425D02*
X024944Y022425D01*
X025104Y022500D02*
X025179Y022425D01*
X025404Y022425D01*
X025404Y022725D01*
X025565Y022650D02*
X025715Y022650D01*
X025565Y022425D02*
X025565Y022875D01*
X025865Y022875D01*
X025104Y022725D02*
X025104Y022500D01*
X025254Y020925D02*
X025104Y020775D01*
X024944Y020850D02*
X024869Y020925D01*
X024719Y020925D01*
X024644Y020850D01*
X024644Y020550D01*
X024719Y020475D01*
X024869Y020475D01*
X024944Y020550D01*
X025104Y020475D02*
X025404Y020475D01*
X025254Y020475D02*
X025254Y020925D01*
X025565Y020775D02*
X025715Y020925D01*
X025715Y020475D01*
X025565Y020475D02*
X025865Y020475D01*
X024325Y019215D02*
X023875Y019215D01*
X023875Y018915D02*
X024325Y019215D01*
X024325Y018915D02*
X023875Y018915D01*
X023950Y018754D02*
X024250Y018454D01*
X024325Y018529D01*
X024325Y018679D01*
X024250Y018754D01*
X023950Y018754D01*
X023875Y018679D01*
X023875Y018529D01*
X023950Y018454D01*
X024250Y018454D01*
X024250Y018294D02*
X024325Y018219D01*
X024325Y018069D01*
X024250Y017994D01*
X023950Y018294D01*
X024250Y018294D01*
X024250Y017994D02*
X023950Y017994D01*
X023875Y018069D01*
X023875Y018219D01*
X023950Y018294D01*
X024100Y017834D02*
X024100Y017533D01*
X023875Y017759D01*
X024325Y017759D01*
X023950Y017373D02*
X024250Y017073D01*
X024325Y017073D01*
X023875Y017073D02*
X023875Y017373D01*
X023950Y017373D01*
X023996Y020375D02*
X023996Y020825D01*
X023846Y020675D01*
X023846Y020375D02*
X024146Y020375D01*
X023686Y020375D02*
X023385Y020375D01*
X023536Y020375D02*
X023536Y020825D01*
X023385Y020675D01*
X023225Y020825D02*
X022925Y020825D01*
X022925Y020375D01*
X023225Y020375D01*
X023075Y020600D02*
X022925Y020600D01*
X011865Y020625D02*
X011865Y020550D01*
X011790Y020475D01*
X011640Y020475D01*
X011565Y020550D01*
X011404Y020475D02*
X011104Y020475D01*
X011254Y020475D02*
X011254Y020925D01*
X011104Y020775D01*
X010944Y020850D02*
X010869Y020925D01*
X010719Y020925D01*
X010644Y020850D01*
X010644Y020550D01*
X010719Y020475D01*
X010869Y020475D01*
X010944Y020550D01*
X010606Y020500D02*
X010606Y020425D01*
X010531Y020350D01*
X010306Y020350D01*
X010146Y020275D02*
X010146Y020200D01*
X010071Y020125D01*
X009921Y020125D01*
X009846Y020200D01*
X009686Y020125D02*
X009385Y020125D01*
X009536Y020125D02*
X009536Y020575D01*
X009385Y020425D01*
X009225Y020575D02*
X008925Y020575D01*
X008925Y020125D01*
X009225Y020125D01*
X009075Y020350D02*
X008925Y020350D01*
X009846Y020500D02*
X009921Y020575D01*
X010071Y020575D01*
X010146Y020500D01*
X010146Y020425D01*
X010071Y020350D01*
X010146Y020275D01*
X010071Y020350D02*
X009996Y020350D01*
X010306Y020125D02*
X010531Y020125D01*
X010606Y020200D01*
X010606Y020275D01*
X010531Y020350D01*
X010606Y020500D02*
X010531Y020575D01*
X010306Y020575D01*
X010306Y020125D01*
X010325Y019215D02*
X009875Y019215D01*
X009875Y018915D02*
X010325Y019215D01*
X010325Y018915D02*
X009875Y018915D01*
X009875Y018604D02*
X010325Y018604D01*
X010325Y018454D02*
X010325Y018754D01*
X010025Y018454D02*
X009875Y018604D01*
X009950Y018294D02*
X010025Y018294D01*
X010100Y018219D01*
X010100Y018069D01*
X010025Y017994D01*
X009950Y017994D01*
X009875Y018069D01*
X009875Y018219D01*
X009950Y018294D01*
X010100Y018219D02*
X010175Y018294D01*
X010250Y018294D01*
X010325Y018219D01*
X010325Y018069D01*
X010250Y017994D01*
X010175Y017994D01*
X010100Y018069D01*
X010175Y017834D02*
X010250Y017834D01*
X010325Y017759D01*
X010325Y017608D01*
X010250Y017533D01*
X010175Y017533D01*
X010100Y017608D01*
X010100Y017759D01*
X010175Y017834D01*
X010100Y017759D02*
X010025Y017834D01*
X009950Y017834D01*
X009875Y017759D01*
X009875Y017608D01*
X009950Y017533D01*
X010025Y017533D01*
X010100Y017608D01*
X010175Y017373D02*
X010250Y017373D01*
X010325Y017298D01*
X010325Y017148D01*
X010250Y017073D01*
X010175Y017073D01*
X010100Y017148D01*
X010100Y017298D01*
X010175Y017373D01*
X010100Y017298D02*
X010025Y017373D01*
X009950Y017373D01*
X009875Y017298D01*
X009875Y017148D01*
X009950Y017073D01*
X010025Y017073D01*
X010100Y017148D01*
X010325Y016913D02*
X009875Y016913D01*
X009875Y016613D02*
X010325Y016913D01*
X010325Y016613D02*
X009875Y016613D01*
X011865Y020625D02*
X011790Y020700D01*
X011715Y020700D01*
X011790Y020700D02*
X011865Y020775D01*
X011865Y020850D01*
X011790Y020925D01*
X011640Y020925D01*
X011565Y020850D01*
X011565Y022425D02*
X011565Y022875D01*
X011865Y022875D01*
X011715Y022650D02*
X011565Y022650D01*
X011404Y022725D02*
X011404Y022425D01*
X011179Y022425D01*
X011104Y022500D01*
X011104Y022725D01*
X010944Y022425D02*
X010644Y022425D01*
X010794Y022425D02*
X010794Y022875D01*
X010644Y022725D01*
X010484Y022800D02*
X010183Y022500D01*
X010258Y022425D01*
X010409Y022425D01*
X010484Y022500D01*
X010484Y022800D01*
X010409Y022875D01*
X010258Y022875D01*
X010183Y022800D01*
X010183Y022500D01*
X010028Y022500D02*
X010028Y022425D01*
X009953Y022425D01*
X009953Y022500D01*
X010028Y022500D01*
X009875Y029152D02*
X009875Y029377D01*
X009950Y029453D01*
X010250Y029453D01*
X010325Y029377D01*
X010325Y029152D01*
X009875Y029152D01*
X009950Y029613D02*
X010025Y029613D01*
X010100Y029688D01*
X010100Y029838D01*
X010175Y029913D01*
X010250Y029913D01*
X010325Y029838D01*
X010325Y029688D01*
X010250Y029613D01*
X009950Y029613D02*
X009875Y029688D01*
X009875Y029838D01*
X009950Y029913D01*
X009950Y030073D02*
X010025Y030073D01*
X010100Y030148D01*
X010100Y030298D01*
X010175Y030373D01*
X010250Y030373D01*
X010325Y030298D01*
X010325Y030148D01*
X010250Y030073D01*
X010175Y030073D01*
X010100Y030148D01*
X010100Y030298D02*
X010025Y030373D01*
X009950Y030373D01*
X009875Y030298D01*
X009875Y030148D01*
X009950Y030073D01*
X010100Y030533D02*
X010100Y030759D01*
X010175Y030834D01*
X010250Y030834D01*
X010325Y030759D01*
X010325Y030608D01*
X010250Y030533D01*
X010100Y030533D01*
X009950Y030684D01*
X009875Y030834D01*
X010100Y030994D02*
X010100Y031294D01*
X010250Y031454D02*
X009950Y031754D01*
X010250Y031754D01*
X010325Y031679D01*
X010325Y031529D01*
X010250Y031454D01*
X009950Y031454D01*
X009875Y031529D01*
X009875Y031679D01*
X009950Y031754D01*
X009875Y031915D02*
X010325Y032215D01*
X009875Y032215D01*
X009875Y031915D02*
X010325Y031915D01*
X010325Y031219D02*
X009875Y031219D01*
X010100Y030994D01*
X010071Y033125D02*
X010071Y033575D01*
X009846Y033350D01*
X010146Y033350D01*
X009686Y033125D02*
X009385Y033125D01*
X009536Y033125D02*
X009536Y033575D01*
X009385Y033425D01*
X009225Y033575D02*
X008925Y033575D01*
X008925Y033125D01*
X009225Y033125D01*
X009075Y033350D02*
X008925Y033350D01*
X010644Y034050D02*
X010644Y034350D01*
X010719Y034425D01*
X010869Y034425D01*
X010944Y034350D01*
X011104Y034275D02*
X011254Y034425D01*
X011254Y033975D01*
X011104Y033975D02*
X011404Y033975D01*
X011565Y034200D02*
X011865Y034200D01*
X011790Y033975D02*
X011790Y034425D01*
X011565Y034200D01*
X010944Y034050D02*
X010869Y033975D01*
X010719Y033975D01*
X010644Y034050D01*
X010644Y035925D02*
X010944Y035925D01*
X010794Y035925D02*
X010794Y036375D01*
X010644Y036225D01*
X010484Y036300D02*
X010183Y036000D01*
X010258Y035925D01*
X010409Y035925D01*
X010484Y036000D01*
X010484Y036300D01*
X010409Y036375D01*
X010258Y036375D01*
X010183Y036300D01*
X010183Y036000D01*
X010028Y036000D02*
X010028Y035925D01*
X009953Y035925D01*
X009953Y036000D01*
X010028Y036000D01*
X011104Y036000D02*
X011104Y036225D01*
X011104Y036000D02*
X011179Y035925D01*
X011404Y035925D01*
X011404Y036225D01*
X011565Y036150D02*
X011715Y036150D01*
X011565Y035925D02*
X011565Y036375D01*
X011865Y036375D01*
X037475Y033825D02*
X037475Y033375D01*
X037775Y033375D01*
X037935Y033375D02*
X038236Y033375D01*
X038086Y033375D02*
X038086Y033825D01*
X037935Y033675D01*
X037775Y033825D02*
X037475Y033825D01*
X037475Y033600D02*
X037625Y033600D01*
X038396Y033450D02*
X038696Y033750D01*
X038696Y033450D01*
X038621Y033375D01*
X038471Y033375D01*
X038396Y033450D01*
X038396Y033750D01*
X038471Y033825D01*
X038621Y033825D01*
X038696Y033750D01*
X039144Y034050D02*
X039144Y034350D01*
X039219Y034425D01*
X039369Y034425D01*
X039444Y034350D01*
X039604Y034275D02*
X039754Y034425D01*
X039754Y033975D01*
X039604Y033975D02*
X039904Y033975D01*
X040065Y034050D02*
X040365Y034350D01*
X040365Y034050D01*
X040290Y033975D01*
X040140Y033975D01*
X040065Y034050D01*
X040065Y034350D01*
X040140Y034425D01*
X040290Y034425D01*
X040365Y034350D01*
X039444Y034050D02*
X039369Y033975D01*
X039219Y033975D01*
X039144Y034050D01*
X039144Y035925D02*
X039444Y035925D01*
X039294Y035925D02*
X039294Y036375D01*
X039144Y036225D01*
X038984Y036300D02*
X038683Y036000D01*
X038758Y035925D01*
X038909Y035925D01*
X038984Y036000D01*
X038984Y036300D01*
X038909Y036375D01*
X038758Y036375D01*
X038683Y036300D01*
X038683Y036000D01*
X038528Y036000D02*
X038528Y035925D01*
X038453Y035925D01*
X038453Y036000D01*
X038528Y036000D01*
X039604Y036000D02*
X039604Y036225D01*
X039604Y036000D02*
X039679Y035925D01*
X039904Y035925D01*
X039904Y036225D01*
X040065Y036150D02*
X040215Y036150D01*
X040065Y035925D02*
X040065Y036375D01*
X040365Y036375D01*
X038825Y032015D02*
X038375Y032015D01*
X038375Y031715D02*
X038825Y032015D01*
X038825Y031715D02*
X038375Y031715D01*
X038450Y031554D02*
X038375Y031479D01*
X038375Y031329D01*
X038450Y031254D01*
X038600Y031094D02*
X038600Y030794D01*
X038375Y031019D01*
X038825Y031019D01*
X038825Y031254D02*
X038525Y031554D01*
X038450Y031554D01*
X038825Y031554D02*
X038825Y031254D01*
X038600Y030634D02*
X038600Y030333D01*
X038375Y030559D01*
X038825Y030559D01*
X038450Y030173D02*
X038750Y029873D01*
X038825Y029873D01*
X038375Y029873D02*
X038375Y030173D01*
X038450Y030173D01*
X038758Y022875D02*
X038909Y022875D01*
X038984Y022800D01*
X038683Y022500D01*
X038758Y022425D01*
X038909Y022425D01*
X038984Y022500D01*
X038984Y022800D01*
X039144Y022725D02*
X039294Y022875D01*
X039294Y022425D01*
X039144Y022425D02*
X039444Y022425D01*
X039604Y022500D02*
X039679Y022425D01*
X039904Y022425D01*
X039904Y022725D01*
X040065Y022650D02*
X040215Y022650D01*
X040065Y022425D02*
X040065Y022875D01*
X040365Y022875D01*
X039604Y022725D02*
X039604Y022500D01*
X038683Y022500D02*
X038683Y022800D01*
X038758Y022875D01*
X038528Y022500D02*
X038528Y022425D01*
X038453Y022425D01*
X038453Y022500D01*
X038528Y022500D01*
X039679Y020925D02*
X039604Y020850D01*
X039604Y020550D01*
X039679Y020475D01*
X039829Y020475D01*
X039904Y020550D01*
X040065Y020550D02*
X040140Y020475D01*
X040290Y020475D01*
X040365Y020550D01*
X040365Y020850D01*
X040290Y020925D01*
X040140Y020925D01*
X040065Y020850D01*
X040065Y020775D01*
X040140Y020700D01*
X040365Y020700D01*
X039904Y020850D02*
X039829Y020925D01*
X039679Y020925D01*
X038186Y020500D02*
X038111Y020575D01*
X037960Y020575D01*
X037885Y020500D01*
X037885Y020425D01*
X037960Y020350D01*
X038186Y020350D01*
X038186Y020200D02*
X038186Y020500D01*
X038186Y020200D02*
X038111Y020125D01*
X037960Y020125D01*
X037885Y020200D01*
X037725Y020125D02*
X037425Y020125D01*
X037425Y020575D01*
X037725Y020575D01*
X037575Y020350D02*
X037425Y020350D01*
X038375Y019215D02*
X038825Y019215D01*
X038375Y018915D01*
X038825Y018915D01*
X038825Y018754D02*
X038825Y018454D01*
X038825Y018604D02*
X038375Y018604D01*
X038525Y018454D01*
X038525Y018294D02*
X038600Y018219D01*
X038600Y018069D01*
X038525Y017994D01*
X038450Y017994D01*
X038375Y018069D01*
X038375Y018219D01*
X038450Y018294D01*
X038525Y018294D01*
X038600Y018219D02*
X038675Y018294D01*
X038750Y018294D01*
X038825Y018219D01*
X038825Y018069D01*
X038750Y017994D01*
X038675Y017994D01*
X038600Y018069D01*
X038675Y017834D02*
X038750Y017834D01*
X038825Y017759D01*
X038825Y017608D01*
X038750Y017533D01*
X038675Y017533D01*
X038600Y017608D01*
X038600Y017759D01*
X038675Y017834D01*
X038600Y017759D02*
X038525Y017834D01*
X038450Y017834D01*
X038375Y017759D01*
X038375Y017608D01*
X038450Y017533D01*
X038525Y017533D01*
X038600Y017608D01*
X038675Y017373D02*
X038750Y017373D01*
X038825Y017298D01*
X038825Y017148D01*
X038750Y017073D01*
X038675Y017073D01*
X038600Y017148D01*
X038600Y017298D01*
X038675Y017373D01*
X038600Y017298D02*
X038525Y017373D01*
X038450Y017373D01*
X038375Y017298D01*
X038375Y017148D01*
X038450Y017073D01*
X038525Y017073D01*
X038600Y017148D01*
X038825Y016913D02*
X038375Y016913D01*
X038375Y016613D02*
X038825Y016913D01*
X038825Y016613D02*
X038375Y016613D01*
X046370Y016603D02*
X046445Y016453D01*
X046595Y016303D01*
X046595Y016528D01*
X046670Y016603D01*
X046745Y016603D01*
X046820Y016528D01*
X046820Y016378D01*
X046745Y016303D01*
X046595Y016303D01*
X046745Y016764D02*
X046745Y016839D01*
X046820Y016839D01*
X046820Y016764D01*
X046745Y016764D01*
X046745Y016994D02*
X046670Y016994D01*
X046595Y017069D01*
X046595Y017219D01*
X046670Y017294D01*
X046745Y017294D01*
X046820Y017219D01*
X046820Y017069D01*
X046745Y016994D01*
X046595Y017069D02*
X046520Y016994D01*
X046445Y016994D01*
X046370Y017069D01*
X046370Y017219D01*
X046445Y017294D01*
X046520Y017294D01*
X046595Y017219D01*
X046520Y017454D02*
X046745Y017454D01*
X046820Y017529D01*
X046820Y017754D01*
X046520Y017754D01*
X046595Y017915D02*
X046595Y018065D01*
X046820Y017915D02*
X046370Y017915D01*
X046370Y018215D01*
X049350Y018140D02*
X049350Y017990D01*
X049425Y017915D01*
X049425Y017754D02*
X049725Y017454D01*
X049800Y017529D01*
X049800Y017679D01*
X049725Y017754D01*
X049425Y017754D01*
X049350Y017679D01*
X049350Y017529D01*
X049425Y017454D01*
X049725Y017454D01*
X049800Y017294D02*
X049800Y016994D01*
X049800Y017144D02*
X049350Y017144D01*
X049500Y016994D01*
X049425Y016834D02*
X049350Y016759D01*
X049350Y016608D01*
X049425Y016533D01*
X049725Y016533D01*
X049800Y016608D01*
X049800Y016759D01*
X049725Y016834D01*
X049800Y017915D02*
X049500Y018215D01*
X049425Y018215D01*
X049350Y018140D01*
X049800Y018215D02*
X049800Y017915D01*
X052375Y018069D02*
X052450Y017994D01*
X052525Y017994D01*
X052600Y018069D01*
X052675Y017994D01*
X052750Y017994D01*
X052825Y018069D01*
X052825Y018219D01*
X052750Y018294D01*
X052675Y018294D01*
X052600Y018219D01*
X052600Y018069D01*
X052600Y018219D02*
X052525Y018294D01*
X052450Y018294D01*
X052375Y018219D01*
X052375Y018069D01*
X052450Y017834D02*
X052525Y017834D01*
X052600Y017759D01*
X052675Y017834D01*
X052750Y017834D01*
X052825Y017759D01*
X052825Y017608D01*
X052750Y017533D01*
X052675Y017533D01*
X052600Y017608D01*
X052600Y017759D01*
X052600Y017608D02*
X052525Y017533D01*
X052450Y017533D01*
X052375Y017608D01*
X052375Y017759D01*
X052450Y017834D01*
X052450Y017373D02*
X052525Y017373D01*
X052600Y017298D01*
X052675Y017373D01*
X052750Y017373D01*
X052825Y017298D01*
X052825Y017148D01*
X052750Y017073D01*
X052675Y017073D01*
X052600Y017148D01*
X052600Y017298D01*
X052600Y017148D02*
X052525Y017073D01*
X052450Y017073D01*
X052375Y017148D01*
X052375Y017298D01*
X052450Y017373D01*
X052375Y016913D02*
X052825Y016913D01*
X052375Y016613D01*
X052825Y016613D01*
X052825Y018454D02*
X052825Y018754D01*
X052825Y018604D02*
X052375Y018604D01*
X052525Y018454D01*
X052375Y018915D02*
X052825Y019215D01*
X052375Y019215D01*
X052375Y018915D02*
X052825Y018915D01*
X051885Y020125D02*
X051885Y020200D01*
X052186Y020500D01*
X052186Y020575D01*
X051885Y020575D01*
X051725Y020575D02*
X051425Y020575D01*
X051425Y020125D01*
X051725Y020125D01*
X051575Y020350D02*
X051425Y020350D01*
X053604Y020550D02*
X053679Y020475D01*
X053829Y020475D01*
X053904Y020550D01*
X054065Y020550D02*
X054065Y020475D01*
X054065Y020550D02*
X054365Y020850D01*
X054365Y020925D01*
X054065Y020925D01*
X053904Y020850D02*
X053829Y020925D01*
X053679Y020925D01*
X053604Y020850D01*
X053604Y020550D01*
X053679Y022425D02*
X053604Y022500D01*
X053604Y022725D01*
X053904Y022725D02*
X053904Y022425D01*
X053679Y022425D01*
X053444Y022425D02*
X053144Y022425D01*
X053294Y022425D02*
X053294Y022875D01*
X053144Y022725D01*
X052984Y022800D02*
X052683Y022500D01*
X052758Y022425D01*
X052909Y022425D01*
X052984Y022500D01*
X052984Y022800D01*
X052909Y022875D01*
X052758Y022875D01*
X052683Y022800D01*
X052683Y022500D01*
X052528Y022500D02*
X052528Y022425D01*
X052453Y022425D01*
X052453Y022500D01*
X052528Y022500D01*
X054065Y022425D02*
X054065Y022875D01*
X054365Y022875D01*
X054215Y022650D02*
X054065Y022650D01*
X052825Y030073D02*
X052750Y030073D01*
X052450Y030373D01*
X052375Y030373D01*
X052375Y030073D01*
X052600Y030533D02*
X052600Y030834D01*
X052525Y030994D02*
X052375Y031144D01*
X052825Y031144D01*
X052825Y030994D02*
X052825Y031294D01*
X052750Y031454D02*
X052450Y031754D01*
X052750Y031754D01*
X052825Y031679D01*
X052825Y031529D01*
X052750Y031454D01*
X052450Y031454D01*
X052375Y031529D01*
X052375Y031679D01*
X052450Y031754D01*
X052375Y031915D02*
X052825Y032215D01*
X052375Y032215D01*
X052375Y031915D02*
X052825Y031915D01*
X052111Y033375D02*
X051960Y033375D01*
X051885Y033450D01*
X051885Y033525D01*
X051960Y033600D01*
X052111Y033600D01*
X052186Y033525D01*
X052186Y033450D01*
X052111Y033375D01*
X052111Y033600D02*
X052186Y033675D01*
X052186Y033750D01*
X052111Y033825D01*
X051960Y033825D01*
X051885Y033750D01*
X051885Y033675D01*
X051960Y033600D01*
X051725Y033375D02*
X051425Y033375D01*
X051425Y033825D01*
X051725Y033825D01*
X051575Y033600D02*
X051425Y033600D01*
X053604Y034050D02*
X053679Y033975D01*
X053829Y033975D01*
X053904Y034050D01*
X054065Y034050D02*
X054065Y034125D01*
X054140Y034200D01*
X054290Y034200D01*
X054365Y034125D01*
X054365Y034050D01*
X054290Y033975D01*
X054140Y033975D01*
X054065Y034050D01*
X054140Y034200D02*
X054065Y034275D01*
X054065Y034350D01*
X054140Y034425D01*
X054290Y034425D01*
X054365Y034350D01*
X054365Y034275D01*
X054290Y034200D01*
X053904Y034350D02*
X053829Y034425D01*
X053679Y034425D01*
X053604Y034350D01*
X053604Y034050D01*
X053679Y035925D02*
X053604Y036000D01*
X053604Y036225D01*
X053904Y036225D02*
X053904Y035925D01*
X053679Y035925D01*
X053444Y035925D02*
X053144Y035925D01*
X053294Y035925D02*
X053294Y036375D01*
X053144Y036225D01*
X052984Y036300D02*
X052683Y036000D01*
X052758Y035925D01*
X052909Y035925D01*
X052984Y036000D01*
X052984Y036300D01*
X052909Y036375D01*
X052758Y036375D01*
X052683Y036300D01*
X052683Y036000D01*
X052528Y036000D02*
X052528Y035925D01*
X052453Y035925D01*
X052453Y036000D01*
X052528Y036000D01*
X054065Y035925D02*
X054065Y036375D01*
X054365Y036375D01*
X054215Y036150D02*
X054065Y036150D01*
X052825Y030759D02*
X052375Y030759D01*
X052600Y030533D01*
X065925Y033375D02*
X066225Y033375D01*
X066385Y033450D02*
X066385Y033600D01*
X066611Y033600D01*
X066686Y033525D01*
X066686Y033450D01*
X066611Y033375D01*
X066460Y033375D01*
X066385Y033450D01*
X066385Y033600D02*
X066536Y033750D01*
X066686Y033825D01*
X066225Y033825D02*
X065925Y033825D01*
X065925Y033375D01*
X065925Y033600D02*
X066075Y033600D01*
X066875Y032215D02*
X067325Y032215D01*
X066875Y031915D01*
X067325Y031915D01*
X067250Y031754D02*
X067325Y031679D01*
X067325Y031529D01*
X067250Y031454D01*
X066950Y031754D01*
X067250Y031754D01*
X067250Y031454D02*
X066950Y031454D01*
X066875Y031529D01*
X066875Y031679D01*
X066950Y031754D01*
X066950Y031294D02*
X067025Y031294D01*
X067100Y031219D01*
X067175Y031294D01*
X067250Y031294D01*
X067325Y031219D01*
X067325Y031069D01*
X067250Y030994D01*
X067100Y031144D02*
X067100Y031219D01*
X066950Y031294D02*
X066875Y031219D01*
X066875Y031069D01*
X066950Y030994D01*
X067100Y030834D02*
X067100Y030533D01*
X066875Y030759D01*
X067325Y030759D01*
X066950Y030373D02*
X067250Y030073D01*
X067325Y030073D01*
X066875Y030073D02*
X066875Y030373D01*
X066950Y030373D01*
X068179Y033975D02*
X068329Y033975D01*
X068404Y034050D01*
X068565Y034050D02*
X068640Y033975D01*
X068790Y033975D01*
X068865Y034050D01*
X068865Y034125D01*
X068790Y034200D01*
X068565Y034200D01*
X068565Y034050D01*
X068565Y034200D02*
X068715Y034350D01*
X068865Y034425D01*
X068404Y034350D02*
X068329Y034425D01*
X068179Y034425D01*
X068104Y034350D01*
X068104Y034050D01*
X068179Y033975D01*
X068179Y035925D02*
X068404Y035925D01*
X068404Y036225D01*
X068565Y036150D02*
X068715Y036150D01*
X068565Y035925D02*
X068565Y036375D01*
X068865Y036375D01*
X068104Y036225D02*
X068104Y036000D01*
X068179Y035925D01*
X067944Y035925D02*
X067644Y035925D01*
X067794Y035925D02*
X067794Y036375D01*
X067644Y036225D01*
X067484Y036300D02*
X067183Y036000D01*
X067258Y035925D01*
X067409Y035925D01*
X067484Y036000D01*
X067484Y036300D01*
X067409Y036375D01*
X067258Y036375D01*
X067183Y036300D01*
X067183Y036000D01*
X067028Y036000D02*
X067028Y035925D01*
X066953Y035925D01*
X066953Y036000D01*
X067028Y036000D01*
X068875Y037975D02*
X069325Y037975D01*
X069175Y038125D01*
X069325Y038275D01*
X068875Y038275D01*
X069025Y038435D02*
X068875Y038586D01*
X069325Y038586D01*
X069325Y038736D02*
X069325Y038435D01*
X069250Y038896D02*
X068950Y039196D01*
X069250Y039196D01*
X069325Y039121D01*
X069325Y038971D01*
X069250Y038896D01*
X068950Y038896D01*
X068875Y038971D01*
X068875Y039121D01*
X068950Y039196D01*
X070875Y038661D02*
X070875Y038510D01*
X070950Y038435D01*
X071025Y038435D01*
X071100Y038510D01*
X071100Y038736D01*
X071250Y038736D02*
X070950Y038736D01*
X070875Y038661D01*
X071250Y038736D02*
X071325Y038661D01*
X071325Y038510D01*
X071250Y038435D01*
X071325Y038275D02*
X070875Y038275D01*
X070875Y037975D02*
X071325Y037975D01*
X071175Y038125D01*
X071325Y038275D01*
X073375Y038275D02*
X073825Y038275D01*
X073675Y038125D01*
X073825Y037975D01*
X073375Y037975D01*
X073450Y038435D02*
X073525Y038435D01*
X073600Y038510D01*
X073600Y038661D01*
X073675Y038736D01*
X073750Y038736D01*
X073825Y038661D01*
X073825Y038510D01*
X073750Y038435D01*
X073675Y038435D01*
X073600Y038510D01*
X073600Y038661D02*
X073525Y038736D01*
X073450Y038736D01*
X073375Y038661D01*
X073375Y038510D01*
X073450Y038435D01*
X074875Y038435D02*
X074875Y038736D01*
X074950Y038736D01*
X075250Y038435D01*
X075325Y038435D01*
X075325Y038275D02*
X074875Y038275D01*
X074875Y037975D02*
X075325Y037975D01*
X075175Y038125D01*
X075325Y038275D01*
X076875Y038275D02*
X077325Y038275D01*
X077175Y038125D01*
X077325Y037975D01*
X076875Y037975D01*
X077025Y038435D02*
X076875Y038586D01*
X077325Y038586D01*
X077325Y038736D02*
X077325Y038435D01*
X077325Y038896D02*
X077025Y039196D01*
X076950Y039196D01*
X076875Y039121D01*
X076875Y038971D01*
X076950Y038896D01*
X077325Y038896D02*
X077325Y039196D01*
X078875Y039046D02*
X079325Y039046D01*
X079325Y038896D02*
X079325Y039196D01*
X079025Y038896D02*
X078875Y039046D01*
X078875Y038586D02*
X079325Y038586D01*
X079325Y038736D02*
X079325Y038435D01*
X079325Y038275D02*
X078875Y038275D01*
X079025Y038435D02*
X078875Y038586D01*
X079325Y038275D02*
X079175Y038125D01*
X079325Y037975D01*
X078875Y037975D01*
X080875Y037975D02*
X081325Y037975D01*
X081175Y038125D01*
X081325Y038275D01*
X080875Y038275D01*
X081025Y038435D02*
X080875Y038586D01*
X081325Y038586D01*
X081325Y038736D02*
X081325Y038435D01*
X082875Y038510D02*
X082875Y038661D01*
X082950Y038736D01*
X083025Y038736D01*
X083325Y038435D01*
X083325Y038736D01*
X083325Y038275D02*
X082875Y038275D01*
X082950Y038435D02*
X082875Y038510D01*
X083175Y038125D02*
X083325Y038275D01*
X083175Y038125D02*
X083325Y037975D01*
X082875Y037975D01*
X082865Y036375D02*
X082565Y036375D01*
X082565Y035925D01*
X082404Y035925D02*
X082404Y036225D01*
X082565Y036150D02*
X082715Y036150D01*
X082404Y035925D02*
X082179Y035925D01*
X082104Y036000D01*
X082104Y036225D01*
X081944Y035925D02*
X081644Y035925D01*
X081794Y035925D02*
X081794Y036375D01*
X081644Y036225D01*
X081484Y036300D02*
X081183Y036000D01*
X081258Y035925D01*
X081409Y035925D01*
X081484Y036000D01*
X081484Y036300D01*
X081409Y036375D01*
X081258Y036375D01*
X081183Y036300D01*
X081183Y036000D01*
X081028Y036000D02*
X081028Y035925D01*
X080953Y035925D01*
X080953Y036000D01*
X081028Y036000D01*
X082179Y034425D02*
X082104Y034350D01*
X082104Y034050D01*
X082179Y033975D01*
X082329Y033975D01*
X082404Y034050D01*
X082565Y034200D02*
X082865Y034200D01*
X082790Y033975D02*
X082790Y034425D01*
X082565Y034200D01*
X082404Y034350D02*
X082329Y034425D01*
X082179Y034425D01*
X080611Y033825D02*
X080611Y033375D01*
X080686Y033600D02*
X080385Y033600D01*
X080611Y033825D01*
X080225Y033825D02*
X079925Y033825D01*
X079925Y033375D01*
X080225Y033375D01*
X080075Y033600D02*
X079925Y033600D01*
X080875Y032215D02*
X081325Y032215D01*
X080875Y031915D01*
X081325Y031915D01*
X081325Y031679D02*
X080875Y031679D01*
X081100Y031454D01*
X081100Y031754D01*
X080950Y031294D02*
X081250Y031294D01*
X081325Y031219D01*
X081325Y031069D01*
X081250Y030994D01*
X080950Y031294D01*
X080875Y031219D01*
X080875Y031069D01*
X080950Y030994D01*
X081250Y030994D01*
X081100Y030834D02*
X081100Y030533D01*
X080875Y030759D01*
X081325Y030759D01*
X080950Y030373D02*
X081250Y030073D01*
X081325Y030073D01*
X080875Y030073D02*
X080875Y030373D01*
X080950Y030373D01*
X081258Y022875D02*
X081409Y022875D01*
X081484Y022800D01*
X081183Y022500D01*
X081258Y022425D01*
X081409Y022425D01*
X081484Y022500D01*
X081484Y022800D01*
X081644Y022725D02*
X081794Y022875D01*
X081794Y022425D01*
X081644Y022425D02*
X081944Y022425D01*
X082104Y022500D02*
X082179Y022425D01*
X082404Y022425D01*
X082404Y022725D01*
X082565Y022650D02*
X082715Y022650D01*
X082565Y022425D02*
X082565Y022875D01*
X082865Y022875D01*
X082104Y022725D02*
X082104Y022500D01*
X081183Y022500D02*
X081183Y022800D01*
X081258Y022875D01*
X081028Y022500D02*
X081028Y022425D01*
X080953Y022425D01*
X080953Y022500D01*
X081028Y022500D01*
X082179Y020925D02*
X082104Y020850D01*
X082104Y020550D01*
X082179Y020475D01*
X082329Y020475D01*
X082404Y020550D01*
X082565Y020550D02*
X082640Y020475D01*
X082790Y020475D01*
X082865Y020550D01*
X082865Y020625D01*
X082790Y020700D01*
X082715Y020700D01*
X082790Y020700D02*
X082865Y020775D01*
X082865Y020850D01*
X082790Y020925D01*
X082640Y020925D01*
X082565Y020850D01*
X082404Y020850D02*
X082329Y020925D01*
X082179Y020925D01*
X080686Y020500D02*
X080686Y020425D01*
X080611Y020350D01*
X080686Y020275D01*
X080686Y020200D01*
X080611Y020125D01*
X080460Y020125D01*
X080385Y020200D01*
X080225Y020125D02*
X079925Y020125D01*
X079925Y020575D01*
X080225Y020575D01*
X080385Y020500D02*
X080460Y020575D01*
X080611Y020575D01*
X080686Y020500D01*
X080611Y020350D02*
X080536Y020350D01*
X080075Y020350D02*
X079925Y020350D01*
X080875Y019215D02*
X081325Y019215D01*
X080875Y018915D01*
X081325Y018915D01*
X081250Y018754D02*
X080950Y018754D01*
X081250Y018454D01*
X081325Y018529D01*
X081325Y018679D01*
X081250Y018754D01*
X081250Y018454D02*
X080950Y018454D01*
X080875Y018529D01*
X080875Y018679D01*
X080950Y018754D01*
X081100Y018294D02*
X081100Y017994D01*
X080875Y018219D01*
X081325Y018219D01*
X081250Y017834D02*
X081175Y017834D01*
X081100Y017759D01*
X081100Y017533D01*
X081250Y017533D01*
X081325Y017608D01*
X081325Y017759D01*
X081250Y017834D01*
X080950Y017684D02*
X081100Y017533D01*
X081175Y017373D02*
X081250Y017373D01*
X081325Y017298D01*
X081325Y017148D01*
X081250Y017073D01*
X081175Y017073D01*
X081100Y017148D01*
X081100Y017298D01*
X081175Y017373D01*
X081100Y017298D02*
X081025Y017373D01*
X080950Y017373D01*
X080875Y017298D01*
X080875Y017148D01*
X080950Y017073D01*
X081025Y017073D01*
X081100Y017148D01*
X081175Y016913D02*
X081250Y016913D01*
X081325Y016838D01*
X081325Y016688D01*
X081250Y016613D01*
X081250Y016453D02*
X080950Y016453D01*
X080875Y016377D01*
X080875Y016152D01*
X081325Y016152D01*
X081325Y016377D01*
X081250Y016453D01*
X081025Y016613D02*
X081100Y016688D01*
X081100Y016838D01*
X081175Y016913D01*
X080950Y016913D02*
X080875Y016838D01*
X080875Y016688D01*
X080950Y016613D01*
X081025Y016613D01*
X080950Y017684D02*
X080875Y017834D01*
X076300Y017915D02*
X076300Y018215D01*
X076300Y018065D02*
X075850Y018065D01*
X076000Y017915D01*
X075925Y017754D02*
X076225Y017454D01*
X076300Y017529D01*
X076300Y017679D01*
X076225Y017754D01*
X075925Y017754D01*
X075850Y017679D01*
X075850Y017529D01*
X075925Y017454D01*
X076225Y017454D01*
X076300Y017294D02*
X076300Y016994D01*
X076300Y017144D02*
X075850Y017144D01*
X076000Y016994D01*
X075925Y016834D02*
X075850Y016759D01*
X075850Y016608D01*
X075925Y016533D01*
X076225Y016533D01*
X076300Y016608D01*
X076300Y016759D01*
X076225Y016834D01*
X073320Y016839D02*
X073320Y016764D01*
X073245Y016764D01*
X073245Y016839D01*
X073320Y016839D01*
X073245Y016994D02*
X073170Y016994D01*
X073095Y017069D01*
X073095Y017219D01*
X073170Y017294D01*
X073245Y017294D01*
X073320Y017219D01*
X073320Y017069D01*
X073245Y016994D01*
X073095Y017069D02*
X073020Y016994D01*
X072945Y016994D01*
X072870Y017069D01*
X072870Y017219D01*
X072945Y017294D01*
X073020Y017294D01*
X073095Y017219D01*
X073020Y017454D02*
X073245Y017454D01*
X073320Y017529D01*
X073320Y017754D01*
X073020Y017754D01*
X073095Y017915D02*
X073095Y018065D01*
X073320Y017915D02*
X072870Y017915D01*
X072870Y018215D01*
X072870Y016603D02*
X072945Y016453D01*
X073095Y016303D01*
X073095Y016528D01*
X073170Y016603D01*
X073245Y016603D01*
X073320Y016528D01*
X073320Y016378D01*
X073245Y016303D01*
X073095Y016303D01*
X068865Y020550D02*
X068790Y020475D01*
X068640Y020475D01*
X068565Y020550D01*
X068565Y020700D02*
X068715Y020775D01*
X068790Y020775D01*
X068865Y020700D01*
X068865Y020550D01*
X068565Y020700D02*
X068565Y020925D01*
X068865Y020925D01*
X068404Y020850D02*
X068329Y020925D01*
X068179Y020925D01*
X068104Y020850D01*
X068104Y020550D01*
X068179Y020475D01*
X068329Y020475D01*
X068404Y020550D01*
X067146Y020500D02*
X067146Y020425D01*
X067071Y020350D01*
X066846Y020350D01*
X066686Y020350D02*
X066686Y020200D01*
X066611Y020125D01*
X066460Y020125D01*
X066385Y020200D01*
X066385Y020350D02*
X066536Y020425D01*
X066611Y020425D01*
X066686Y020350D01*
X066686Y020575D02*
X066385Y020575D01*
X066385Y020350D01*
X066225Y020125D02*
X065925Y020125D01*
X065925Y020575D01*
X066225Y020575D01*
X066075Y020350D02*
X065925Y020350D01*
X066846Y020125D02*
X067071Y020125D01*
X067146Y020200D01*
X067146Y020275D01*
X067071Y020350D01*
X067146Y020500D02*
X067071Y020575D01*
X066846Y020575D01*
X066846Y020125D01*
X066875Y019215D02*
X067325Y019215D01*
X066875Y018915D01*
X067325Y018915D01*
X067325Y018754D02*
X067325Y018454D01*
X067325Y018604D02*
X066875Y018604D01*
X067025Y018454D01*
X067025Y018294D02*
X067100Y018219D01*
X067100Y018069D01*
X067025Y017994D01*
X066950Y017994D01*
X066875Y018069D01*
X066875Y018219D01*
X066950Y018294D01*
X067025Y018294D01*
X067100Y018219D02*
X067175Y018294D01*
X067250Y018294D01*
X067325Y018219D01*
X067325Y018069D01*
X067250Y017994D01*
X067175Y017994D01*
X067100Y018069D01*
X067175Y017834D02*
X067250Y017834D01*
X067325Y017759D01*
X067325Y017608D01*
X067250Y017533D01*
X067175Y017533D01*
X067100Y017608D01*
X067100Y017759D01*
X067175Y017834D01*
X067100Y017759D02*
X067025Y017834D01*
X066950Y017834D01*
X066875Y017759D01*
X066875Y017608D01*
X066950Y017533D01*
X067025Y017533D01*
X067100Y017608D01*
X067175Y017373D02*
X067250Y017373D01*
X067325Y017298D01*
X067325Y017148D01*
X067250Y017073D01*
X067175Y017073D01*
X067100Y017148D01*
X067100Y017298D01*
X067175Y017373D01*
X067100Y017298D02*
X067025Y017373D01*
X066950Y017373D01*
X066875Y017298D01*
X066875Y017148D01*
X066950Y017073D01*
X067025Y017073D01*
X067100Y017148D01*
X067325Y016913D02*
X066875Y016913D01*
X066875Y016613D02*
X067325Y016913D01*
X067325Y016613D02*
X066875Y016613D01*
X066953Y022425D02*
X067028Y022425D01*
X067028Y022500D01*
X066953Y022500D01*
X066953Y022425D01*
X067183Y022500D02*
X067484Y022800D01*
X067484Y022500D01*
X067409Y022425D01*
X067258Y022425D01*
X067183Y022500D01*
X067183Y022800D01*
X067258Y022875D01*
X067409Y022875D01*
X067484Y022800D01*
X067644Y022725D02*
X067794Y022875D01*
X067794Y022425D01*
X067644Y022425D02*
X067944Y022425D01*
X068104Y022500D02*
X068179Y022425D01*
X068404Y022425D01*
X068404Y022725D01*
X068565Y022650D02*
X068715Y022650D01*
X068565Y022425D02*
X068565Y022875D01*
X068865Y022875D01*
X068104Y022725D02*
X068104Y022500D01*
X085375Y037975D02*
X085825Y037975D01*
X085675Y038125D01*
X085825Y038275D01*
X085375Y038275D01*
X085450Y038435D02*
X085375Y038510D01*
X085375Y038661D01*
X085450Y038736D01*
X085525Y038736D01*
X085600Y038661D01*
X085675Y038736D01*
X085750Y038736D01*
X085825Y038661D01*
X085825Y038510D01*
X085750Y038435D01*
X085600Y038586D02*
X085600Y038661D01*
X087375Y038661D02*
X087600Y038435D01*
X087600Y038736D01*
X087825Y038661D02*
X087375Y038661D01*
X087375Y038275D02*
X087825Y038275D01*
X087675Y038125D01*
X087825Y037975D01*
X087375Y037975D01*
X088875Y037975D02*
X089325Y037975D01*
X089175Y038125D01*
X089325Y038275D01*
X088875Y038275D01*
X088875Y038435D02*
X089100Y038435D01*
X089025Y038586D01*
X089025Y038661D01*
X089100Y038736D01*
X089250Y038736D01*
X089325Y038661D01*
X089325Y038510D01*
X089250Y038435D01*
X088875Y038435D02*
X088875Y038736D01*
X090875Y038736D02*
X090950Y038586D01*
X091100Y038435D01*
X091100Y038661D01*
X091175Y038736D01*
X091250Y038736D01*
X091325Y038661D01*
X091325Y038510D01*
X091250Y038435D01*
X091100Y038435D01*
X091325Y038275D02*
X090875Y038275D01*
X090875Y037975D02*
X091325Y037975D01*
X091175Y038125D01*
X091325Y038275D01*
X095453Y036000D02*
X095528Y036000D01*
X095528Y035925D01*
X095453Y035925D01*
X095453Y036000D01*
X095683Y036000D02*
X095984Y036300D01*
X095984Y036000D01*
X095909Y035925D01*
X095758Y035925D01*
X095683Y036000D01*
X095683Y036300D01*
X095758Y036375D01*
X095909Y036375D01*
X095984Y036300D01*
X096144Y036225D02*
X096294Y036375D01*
X096294Y035925D01*
X096144Y035925D02*
X096444Y035925D01*
X096604Y036000D02*
X096679Y035925D01*
X096904Y035925D01*
X096904Y036225D01*
X097065Y036150D02*
X097215Y036150D01*
X097065Y035925D02*
X097065Y036375D01*
X097365Y036375D01*
X096604Y036225D02*
X096604Y036000D01*
X096679Y034425D02*
X096604Y034350D01*
X096604Y034050D01*
X096679Y033975D01*
X096829Y033975D01*
X096904Y034050D01*
X097065Y033975D02*
X097365Y034275D01*
X097365Y034350D01*
X097290Y034425D01*
X097140Y034425D01*
X097065Y034350D01*
X096904Y034350D02*
X096829Y034425D01*
X096679Y034425D01*
X097065Y033975D02*
X097365Y033975D01*
X095325Y032215D02*
X094875Y032215D01*
X094875Y031915D02*
X095325Y032215D01*
X095325Y031915D02*
X094875Y031915D01*
X094950Y031754D02*
X095250Y031454D01*
X095325Y031529D01*
X095325Y031679D01*
X095250Y031754D01*
X094950Y031754D01*
X094875Y031679D01*
X094875Y031529D01*
X094950Y031454D01*
X095250Y031454D01*
X095100Y031294D02*
X095100Y030994D01*
X094875Y031219D01*
X095325Y031219D01*
X095250Y030834D02*
X095175Y030834D01*
X095100Y030759D01*
X095100Y030533D01*
X095250Y030533D01*
X095325Y030608D01*
X095325Y030759D01*
X095250Y030834D01*
X094950Y030684D02*
X095100Y030533D01*
X095175Y030373D02*
X095250Y030373D01*
X095325Y030298D01*
X095325Y030148D01*
X095250Y030073D01*
X095175Y030073D01*
X095100Y030148D01*
X095100Y030298D01*
X095175Y030373D01*
X095100Y030298D02*
X095025Y030373D01*
X094950Y030373D01*
X094875Y030298D01*
X094875Y030148D01*
X094950Y030073D01*
X095025Y030073D01*
X095100Y030148D01*
X095175Y029913D02*
X095250Y029913D01*
X095325Y029838D01*
X095325Y029688D01*
X095250Y029613D01*
X095250Y029453D02*
X094950Y029453D01*
X094875Y029377D01*
X094875Y029152D01*
X095325Y029152D01*
X095325Y029377D01*
X095250Y029453D01*
X095025Y029613D02*
X095100Y029688D01*
X095100Y029838D01*
X095175Y029913D01*
X094950Y029913D02*
X094875Y029838D01*
X094875Y029688D01*
X094950Y029613D01*
X095025Y029613D01*
X094950Y030684D02*
X094875Y030834D01*
X094686Y033125D02*
X094385Y033125D01*
X094686Y033425D01*
X094686Y033500D01*
X094611Y033575D01*
X094460Y033575D01*
X094385Y033500D01*
X094225Y033575D02*
X093925Y033575D01*
X093925Y033125D01*
X094225Y033125D01*
X094075Y033350D02*
X093925Y033350D01*
X095258Y023375D02*
X095409Y023375D01*
X095484Y023300D01*
X095183Y023000D01*
X095258Y022925D01*
X095409Y022925D01*
X095484Y023000D01*
X095484Y023300D01*
X095644Y023225D02*
X095794Y023375D01*
X095794Y022925D01*
X095644Y022925D02*
X095944Y022925D01*
X096104Y023000D02*
X096179Y022925D01*
X096404Y022925D01*
X096404Y023225D01*
X096565Y023150D02*
X096715Y023150D01*
X096565Y022925D02*
X096565Y023375D01*
X096865Y023375D01*
X096104Y023225D02*
X096104Y023000D01*
X095183Y023000D02*
X095183Y023300D01*
X095258Y023375D01*
X095028Y023000D02*
X095028Y022925D01*
X094953Y022925D01*
X094953Y023000D01*
X095028Y023000D01*
X096179Y021425D02*
X096104Y021350D01*
X096104Y021050D01*
X096179Y020975D01*
X096329Y020975D01*
X096404Y021050D01*
X096565Y020975D02*
X096865Y020975D01*
X096715Y020975D02*
X096715Y021425D01*
X096565Y021275D01*
X096404Y021350D02*
X096329Y021425D01*
X096179Y021425D01*
X094686Y020125D02*
X094385Y020125D01*
X094536Y020125D02*
X094536Y020575D01*
X094385Y020425D01*
X094225Y020575D02*
X093925Y020575D01*
X093925Y020125D01*
X094225Y020125D01*
X094075Y020350D02*
X093925Y020350D01*
X094875Y019215D02*
X095325Y019215D01*
X094875Y018915D01*
X095325Y018915D01*
X095325Y018754D02*
X095325Y018454D01*
X095325Y018604D02*
X094875Y018604D01*
X095025Y018454D01*
X095025Y018294D02*
X095100Y018219D01*
X095100Y018069D01*
X095025Y017994D01*
X094950Y017994D01*
X094875Y018069D01*
X094875Y018219D01*
X094950Y018294D01*
X095025Y018294D01*
X095100Y018219D02*
X095175Y018294D01*
X095250Y018294D01*
X095325Y018219D01*
X095325Y018069D01*
X095250Y017994D01*
X095175Y017994D01*
X095100Y018069D01*
X095175Y017834D02*
X095250Y017834D01*
X095325Y017759D01*
X095325Y017608D01*
X095250Y017533D01*
X095175Y017533D01*
X095100Y017608D01*
X095100Y017759D01*
X095175Y017834D01*
X095100Y017759D02*
X095025Y017834D01*
X094950Y017834D01*
X094875Y017759D01*
X094875Y017608D01*
X094950Y017533D01*
X095025Y017533D01*
X095100Y017608D01*
X095175Y017373D02*
X095250Y017373D01*
X095325Y017298D01*
X095325Y017148D01*
X095250Y017073D01*
X095175Y017073D01*
X095100Y017148D01*
X095100Y017298D01*
X095175Y017373D01*
X095100Y017298D02*
X095025Y017373D01*
X094950Y017373D01*
X094875Y017298D01*
X094875Y017148D01*
X094950Y017073D01*
X095025Y017073D01*
X095100Y017148D01*
X095325Y016913D02*
X094875Y016913D01*
X094875Y016613D02*
X095325Y016913D01*
X095325Y016613D02*
X094875Y016613D01*
X099370Y016603D02*
X099445Y016453D01*
X099595Y016303D01*
X099595Y016528D01*
X099670Y016603D01*
X099745Y016603D01*
X099820Y016528D01*
X099820Y016378D01*
X099745Y016303D01*
X099595Y016303D01*
X099745Y016764D02*
X099745Y016839D01*
X099820Y016839D01*
X099820Y016764D01*
X099745Y016764D01*
X099745Y016994D02*
X099670Y016994D01*
X099595Y017069D01*
X099595Y017219D01*
X099670Y017294D01*
X099745Y017294D01*
X099820Y017219D01*
X099820Y017069D01*
X099745Y016994D01*
X099595Y017069D02*
X099520Y016994D01*
X099445Y016994D01*
X099370Y017069D01*
X099370Y017219D01*
X099445Y017294D01*
X099520Y017294D01*
X099595Y017219D01*
X099520Y017454D02*
X099745Y017454D01*
X099820Y017529D01*
X099820Y017754D01*
X099520Y017754D01*
X099595Y017915D02*
X099595Y018065D01*
X099820Y017915D02*
X099370Y017915D01*
X099370Y018215D01*
X102350Y018140D02*
X102350Y017990D01*
X102425Y017915D01*
X102725Y017915D01*
X102425Y018215D01*
X102725Y018215D01*
X102800Y018140D01*
X102800Y017990D01*
X102725Y017915D01*
X102725Y017754D02*
X102800Y017679D01*
X102800Y017529D01*
X102725Y017454D01*
X102425Y017754D01*
X102725Y017754D01*
X102725Y017454D02*
X102425Y017454D01*
X102350Y017529D01*
X102350Y017679D01*
X102425Y017754D01*
X102350Y018140D02*
X102425Y018215D01*
X102800Y017294D02*
X102800Y016994D01*
X102800Y017144D02*
X102350Y017144D01*
X102500Y016994D01*
X102425Y016834D02*
X102350Y016759D01*
X102350Y016608D01*
X102425Y016533D01*
X102725Y016533D01*
X102800Y016608D01*
X102800Y016759D01*
X102725Y016834D01*
D13*
X091600Y037670D02*
X091600Y040730D01*
X089600Y040730D02*
X089600Y037670D01*
X088100Y037670D02*
X088100Y040730D01*
X086100Y040730D02*
X086100Y037670D01*
X083600Y037670D02*
X083600Y040730D01*
X081600Y040730D02*
X081600Y037670D01*
X079600Y037670D02*
X079600Y040730D01*
X077600Y040730D02*
X077600Y037670D01*
X075600Y037670D02*
X075600Y040730D01*
X074100Y040730D02*
X074100Y037670D01*
X071600Y037670D02*
X071600Y040730D01*
X069600Y040730D02*
X069600Y037670D01*
X020600Y037670D02*
X020600Y040730D01*
D14*
X011427Y058470D02*
X011580Y058623D01*
X011427Y058777D01*
X011120Y058777D01*
X011120Y058930D02*
X011427Y058930D01*
X011580Y059084D01*
X011427Y059237D01*
X011120Y059237D01*
X010830Y059161D02*
X010753Y059237D01*
X010370Y059237D01*
X010370Y058930D02*
X010753Y058930D01*
X010830Y059007D01*
X010830Y059161D01*
X010753Y058777D02*
X010370Y058777D01*
X010370Y058470D02*
X010753Y058470D01*
X010830Y058547D01*
X010830Y058700D01*
X010753Y058777D01*
X011120Y058470D02*
X011427Y058470D01*
X010955Y008698D02*
X010955Y008391D01*
X010955Y008544D02*
X010495Y008544D01*
X010648Y008391D01*
X010495Y008237D02*
X010955Y008237D01*
X010955Y007930D02*
X010495Y007930D01*
X010648Y008084D01*
X010495Y008237D01*
X010571Y007777D02*
X010495Y007700D01*
X010495Y007470D01*
X010955Y007470D01*
X010955Y007700D01*
X010878Y007777D01*
X010571Y007777D01*
X009705Y007700D02*
X009628Y007777D01*
X009321Y007777D01*
X009245Y007700D01*
X009245Y007470D01*
X009705Y007470D01*
X009705Y007700D01*
X009705Y007930D02*
X009245Y007930D01*
X009705Y008237D01*
X009245Y008237D01*
X009398Y008391D02*
X009245Y008544D01*
X009705Y008544D01*
X009705Y008391D02*
X009705Y008698D01*
X008455Y008698D02*
X008455Y008391D01*
X008455Y008544D02*
X007995Y008544D01*
X008148Y008391D01*
X008071Y008237D02*
X008225Y008237D01*
X008302Y008161D01*
X008302Y007930D01*
X008455Y007930D02*
X007995Y007930D01*
X007995Y008161D01*
X008071Y008237D01*
X008071Y007777D02*
X007995Y007700D01*
X007995Y007470D01*
X008455Y007470D01*
X008455Y007700D01*
X008378Y007777D01*
X008071Y007777D01*
X007205Y007700D02*
X007128Y007777D01*
X006821Y007777D01*
X006745Y007700D01*
X006745Y007470D01*
X007205Y007470D01*
X007205Y007700D01*
X007205Y007930D02*
X006745Y007930D01*
X006745Y008161D01*
X006821Y008237D01*
X006975Y008237D01*
X007052Y008161D01*
X007052Y007930D01*
X007052Y008084D02*
X007205Y008237D01*
X007205Y008391D02*
X007205Y008698D01*
X007205Y008544D02*
X006745Y008544D01*
X006898Y008391D01*
X005955Y008391D02*
X005955Y008698D01*
X005955Y008544D02*
X005495Y008544D01*
X005648Y008391D01*
X005571Y008237D02*
X005495Y008161D01*
X005495Y008007D01*
X005571Y007930D01*
X005648Y007930D01*
X005725Y008007D01*
X005725Y008161D01*
X005802Y008237D01*
X005878Y008237D01*
X005955Y008161D01*
X005955Y008007D01*
X005878Y007930D01*
X005878Y007777D02*
X005571Y007777D01*
X005495Y007700D01*
X005495Y007470D01*
X005955Y007470D01*
X005955Y007700D01*
X005878Y007777D01*
X004705Y007700D02*
X004628Y007777D01*
X004321Y007777D01*
X004245Y007700D01*
X004245Y007470D01*
X004705Y007470D01*
X004705Y007700D01*
X004705Y008084D02*
X004245Y008084D01*
X004245Y008237D02*
X004245Y007930D01*
X004398Y008391D02*
X004245Y008544D01*
X004705Y008544D01*
X004705Y008391D02*
X004705Y008698D01*
X003455Y008698D02*
X003455Y008391D01*
X003455Y008544D02*
X002995Y008544D01*
X003148Y008391D01*
X002995Y008237D02*
X003378Y008237D01*
X003455Y008161D01*
X003455Y008007D01*
X003378Y007930D01*
X002995Y007930D01*
X003071Y007777D02*
X002995Y007700D01*
X002995Y007470D01*
X003455Y007470D01*
X003455Y007700D01*
X003378Y007777D01*
X003071Y007777D01*
X002205Y007700D02*
X002128Y007777D01*
X001821Y007777D01*
X001745Y007700D01*
X001745Y007470D01*
X002205Y007470D01*
X002205Y007700D01*
X002052Y007930D02*
X002205Y008084D01*
X002052Y008237D01*
X001745Y008237D01*
X001898Y008391D02*
X001745Y008544D01*
X002205Y008544D01*
X002205Y008391D02*
X002205Y008698D01*
X002052Y007930D02*
X001745Y007930D01*
X011745Y007930D02*
X012205Y007930D01*
X012205Y008237D01*
X012205Y008391D02*
X012205Y008698D01*
X012205Y008544D02*
X011745Y008544D01*
X011898Y008391D01*
X011821Y007777D02*
X011745Y007700D01*
X011745Y007470D01*
X012205Y007470D01*
X012205Y007700D01*
X012128Y007777D01*
X011821Y007777D01*
X012995Y007700D02*
X012995Y007470D01*
X013455Y007470D01*
X013455Y007700D01*
X013378Y007777D01*
X013071Y007777D01*
X012995Y007700D01*
X012995Y007930D02*
X013455Y007930D01*
X013302Y007930D02*
X012995Y008237D01*
X013148Y008391D02*
X012995Y008544D01*
X013455Y008544D01*
X013455Y008391D02*
X013455Y008698D01*
X013455Y008237D02*
X013225Y008007D01*
X014245Y008084D02*
X014245Y008237D01*
X014245Y008161D02*
X014628Y008161D01*
X014705Y008084D01*
X014705Y008007D01*
X014628Y007930D01*
X014628Y007777D02*
X014321Y007777D01*
X014245Y007700D01*
X014245Y007470D01*
X014705Y007470D01*
X014705Y007700D01*
X014628Y007777D01*
X014705Y008391D02*
X014705Y008698D01*
X014705Y008544D02*
X014245Y008544D01*
X014398Y008391D01*
X015495Y008544D02*
X015955Y008544D01*
X015955Y008391D02*
X015955Y008698D01*
X015648Y008391D02*
X015495Y008544D01*
X015495Y008237D02*
X015955Y008237D01*
X015725Y008237D02*
X015725Y007930D01*
X015878Y007777D02*
X015571Y007777D01*
X015495Y007700D01*
X015495Y007470D01*
X015955Y007470D01*
X015955Y007700D01*
X015878Y007777D01*
X015955Y007930D02*
X015495Y007930D01*
X016745Y007930D02*
X016745Y008237D01*
X016898Y008391D02*
X016745Y008544D01*
X017205Y008544D01*
X017205Y008391D02*
X017205Y008698D01*
X016975Y008084D02*
X016975Y007930D01*
X017128Y007777D02*
X016821Y007777D01*
X016745Y007700D01*
X016745Y007470D01*
X017205Y007470D01*
X017205Y007700D01*
X017128Y007777D01*
X017205Y007930D02*
X016745Y007930D01*
X017995Y007930D02*
X018455Y007930D01*
X018455Y008237D01*
X018455Y008391D02*
X018455Y008698D01*
X018455Y008544D02*
X017995Y008544D01*
X018148Y008391D01*
X017995Y008237D02*
X017995Y007930D01*
X018071Y007777D02*
X017995Y007700D01*
X017995Y007470D01*
X018455Y007470D01*
X018455Y007700D01*
X018378Y007777D01*
X018071Y007777D01*
X018225Y007930D02*
X018225Y008084D01*
X019245Y008161D02*
X019245Y007930D01*
X019705Y007930D01*
X019705Y008161D01*
X019628Y008237D01*
X019321Y008237D01*
X019245Y008161D01*
X019398Y008391D02*
X019245Y008544D01*
X019705Y008544D01*
X019705Y008391D02*
X019705Y008698D01*
X020495Y008544D02*
X020955Y008544D01*
X020955Y008391D02*
X020955Y008698D01*
X020648Y008391D02*
X020495Y008544D01*
X020571Y008237D02*
X020495Y008161D01*
X020495Y008007D01*
X020571Y007930D01*
X020878Y007930D01*
X020955Y008007D01*
X020955Y008161D01*
X020878Y008237D01*
X020878Y007777D02*
X020571Y007777D01*
X020495Y007700D01*
X020495Y007470D01*
X020955Y007470D01*
X020955Y007700D01*
X020878Y007777D01*
X021745Y007700D02*
X021745Y007470D01*
X022205Y007470D01*
X022205Y007700D01*
X022128Y007777D01*
X021821Y007777D01*
X021745Y007700D01*
X021745Y007930D02*
X021745Y008161D01*
X021821Y008237D01*
X021898Y008237D01*
X021975Y008161D01*
X021975Y007930D01*
X022205Y007930D02*
X021745Y007930D01*
X021975Y008161D02*
X022052Y008237D01*
X022128Y008237D01*
X022205Y008161D01*
X022205Y007930D01*
X022205Y008391D02*
X022205Y008698D01*
X022205Y008544D02*
X021745Y008544D01*
X021898Y008391D01*
X022995Y008544D02*
X023455Y008544D01*
X023455Y008391D02*
X023455Y008698D01*
X023148Y008391D02*
X022995Y008544D01*
X023148Y008237D02*
X022995Y008084D01*
X023148Y007930D01*
X023455Y007930D01*
X023378Y007777D02*
X023071Y007777D01*
X022995Y007700D01*
X022995Y007470D01*
X023455Y007470D01*
X023455Y007700D01*
X023378Y007777D01*
X023225Y007930D02*
X023225Y008237D01*
X023148Y008237D02*
X023455Y008237D01*
X019705Y007700D02*
X019628Y007777D01*
X019321Y007777D01*
X019245Y007700D01*
X019245Y007470D01*
X019705Y007470D01*
X019705Y007700D01*
X029245Y007700D02*
X029245Y007547D01*
X029321Y007470D01*
X029628Y007470D01*
X029705Y007547D01*
X029705Y007700D01*
X029628Y007777D01*
X029552Y007930D02*
X029705Y008084D01*
X029552Y008237D01*
X029245Y008237D01*
X029398Y008391D02*
X029245Y008544D01*
X029705Y008544D01*
X029705Y008391D02*
X029705Y008698D01*
X029552Y007930D02*
X029245Y007930D01*
X029321Y007777D02*
X029245Y007700D01*
X030495Y007700D02*
X030495Y007547D01*
X030571Y007470D01*
X030878Y007470D01*
X030955Y007547D01*
X030955Y007700D01*
X030878Y007777D01*
X030878Y007930D02*
X030955Y008007D01*
X030955Y008161D01*
X030878Y008237D01*
X030495Y008237D01*
X030648Y008391D02*
X030495Y008544D01*
X030955Y008544D01*
X030955Y008391D02*
X030955Y008698D01*
X030878Y007930D02*
X030495Y007930D01*
X030571Y007777D02*
X030495Y007700D01*
X031745Y007700D02*
X031745Y007547D01*
X031821Y007470D01*
X032128Y007470D01*
X032205Y007547D01*
X032205Y007700D01*
X032128Y007777D01*
X031821Y007777D02*
X031745Y007700D01*
X031745Y007930D02*
X031745Y008237D01*
X031745Y008084D02*
X032205Y008084D01*
X032205Y008391D02*
X032205Y008698D01*
X032205Y008544D02*
X031745Y008544D01*
X031898Y008391D01*
X032995Y008544D02*
X033455Y008544D01*
X033455Y008391D02*
X033455Y008698D01*
X033148Y008391D02*
X032995Y008544D01*
X033071Y008237D02*
X032995Y008161D01*
X032995Y008007D01*
X033071Y007930D01*
X033148Y007930D01*
X033225Y008007D01*
X033225Y008161D01*
X033302Y008237D01*
X033378Y008237D01*
X033455Y008161D01*
X033455Y008007D01*
X033378Y007930D01*
X033378Y007777D02*
X033455Y007700D01*
X033455Y007547D01*
X033378Y007470D01*
X033071Y007470D01*
X032995Y007547D01*
X032995Y007700D01*
X033071Y007777D01*
X034245Y007700D02*
X034245Y007547D01*
X034321Y007470D01*
X034628Y007470D01*
X034705Y007547D01*
X034705Y007700D01*
X034628Y007777D01*
X034552Y007930D02*
X034552Y008161D01*
X034475Y008237D01*
X034321Y008237D01*
X034245Y008161D01*
X034245Y007930D01*
X034705Y007930D01*
X034552Y008084D02*
X034705Y008237D01*
X034705Y008391D02*
X034705Y008698D01*
X034705Y008544D02*
X034245Y008544D01*
X034398Y008391D01*
X034321Y007777D02*
X034245Y007700D01*
X035495Y007700D02*
X035571Y007777D01*
X035495Y007700D02*
X035495Y007547D01*
X035571Y007470D01*
X035878Y007470D01*
X035955Y007547D01*
X035955Y007700D01*
X035878Y007777D01*
X035802Y007930D02*
X035802Y008161D01*
X035725Y008237D01*
X035571Y008237D01*
X035495Y008161D01*
X035495Y007930D01*
X035955Y007930D01*
X035955Y008391D02*
X035955Y008698D01*
X035955Y008544D02*
X035495Y008544D01*
X035648Y008391D01*
X036745Y008544D02*
X037205Y008544D01*
X037205Y008391D02*
X037205Y008698D01*
X036898Y008391D02*
X036745Y008544D01*
X036745Y008237D02*
X037205Y008237D01*
X036745Y007930D01*
X037205Y007930D01*
X037128Y007777D02*
X037205Y007700D01*
X037205Y007547D01*
X037128Y007470D01*
X036821Y007470D01*
X036745Y007547D01*
X036745Y007700D01*
X036821Y007777D01*
X037995Y007700D02*
X037995Y007547D01*
X038071Y007470D01*
X038378Y007470D01*
X038455Y007547D01*
X038455Y007700D01*
X038378Y007777D01*
X038455Y007930D02*
X037995Y007930D01*
X038148Y008084D01*
X037995Y008237D01*
X038455Y008237D01*
X038455Y008391D02*
X038455Y008698D01*
X038455Y008544D02*
X037995Y008544D01*
X038148Y008391D01*
X038071Y007777D02*
X037995Y007700D01*
X039245Y007700D02*
X039321Y007777D01*
X039245Y007700D02*
X039245Y007547D01*
X039321Y007470D01*
X039628Y007470D01*
X039705Y007547D01*
X039705Y007700D01*
X039628Y007777D01*
X039705Y007930D02*
X039705Y008237D01*
X039705Y008391D02*
X039705Y008698D01*
X039705Y008544D02*
X039245Y008544D01*
X039398Y008391D01*
X039245Y007930D02*
X039705Y007930D01*
X040495Y007930D02*
X040955Y007930D01*
X040802Y007930D02*
X040495Y008237D01*
X040648Y008391D02*
X040495Y008544D01*
X040955Y008544D01*
X040955Y008391D02*
X040955Y008698D01*
X040955Y008237D02*
X040725Y008007D01*
X040878Y007777D02*
X040955Y007700D01*
X040955Y007547D01*
X040878Y007470D01*
X040571Y007470D01*
X040495Y007547D01*
X040495Y007700D01*
X040571Y007777D01*
X041745Y007700D02*
X041745Y007547D01*
X041821Y007470D01*
X042128Y007470D01*
X042205Y007547D01*
X042205Y007700D01*
X042128Y007777D01*
X042128Y007930D02*
X042205Y008007D01*
X042205Y008084D01*
X042128Y008161D01*
X041745Y008161D01*
X041745Y008237D02*
X041745Y008084D01*
X041821Y007777D02*
X041745Y007700D01*
X041898Y008391D02*
X041745Y008544D01*
X042205Y008544D01*
X042205Y008391D02*
X042205Y008698D01*
X042995Y008544D02*
X043455Y008544D01*
X043455Y008391D02*
X043455Y008698D01*
X043148Y008391D02*
X042995Y008544D01*
X042995Y008237D02*
X043455Y008237D01*
X043225Y008237D02*
X043225Y007930D01*
X043378Y007777D02*
X043455Y007700D01*
X043455Y007547D01*
X043378Y007470D01*
X043071Y007470D01*
X042995Y007547D01*
X042995Y007700D01*
X043071Y007777D01*
X042995Y007930D02*
X043455Y007930D01*
X044245Y007930D02*
X044245Y008237D01*
X044398Y008391D02*
X044245Y008544D01*
X044705Y008544D01*
X044705Y008391D02*
X044705Y008698D01*
X044475Y008084D02*
X044475Y007930D01*
X044628Y007777D02*
X044705Y007700D01*
X044705Y007547D01*
X044628Y007470D01*
X044321Y007470D01*
X044245Y007547D01*
X044245Y007700D01*
X044321Y007777D01*
X044245Y007930D02*
X044705Y007930D01*
X045495Y007930D02*
X045955Y007930D01*
X045955Y008237D01*
X045955Y008391D02*
X045955Y008698D01*
X045955Y008544D02*
X045495Y008544D01*
X045648Y008391D01*
X045495Y008237D02*
X045495Y007930D01*
X045571Y007777D02*
X045495Y007700D01*
X045495Y007547D01*
X045571Y007470D01*
X045878Y007470D01*
X045955Y007547D01*
X045955Y007700D01*
X045878Y007777D01*
X045725Y007930D02*
X045725Y008084D01*
X046745Y008161D02*
X046745Y007930D01*
X047205Y007930D01*
X047205Y008161D01*
X047128Y008237D01*
X046821Y008237D01*
X046745Y008161D01*
X046898Y008391D02*
X046745Y008544D01*
X047205Y008544D01*
X047205Y008391D02*
X047205Y008698D01*
X047995Y008544D02*
X048455Y008544D01*
X048455Y008391D02*
X048455Y008698D01*
X048148Y008391D02*
X047995Y008544D01*
X048071Y008237D02*
X047995Y008161D01*
X047995Y008007D01*
X048071Y007930D01*
X048378Y007930D01*
X048455Y008007D01*
X048455Y008161D01*
X048378Y008237D01*
X048378Y007777D02*
X048455Y007700D01*
X048455Y007547D01*
X048378Y007470D01*
X048071Y007470D01*
X047995Y007547D01*
X047995Y007700D01*
X048071Y007777D01*
X047205Y007700D02*
X047128Y007777D01*
X047205Y007700D02*
X047205Y007547D01*
X047128Y007470D01*
X046821Y007470D01*
X046745Y007547D01*
X046745Y007700D01*
X046821Y007777D01*
X049245Y007700D02*
X049245Y007547D01*
X049321Y007470D01*
X049628Y007470D01*
X049705Y007547D01*
X049705Y007700D01*
X049628Y007777D01*
X049705Y007930D02*
X049705Y008161D01*
X049628Y008237D01*
X049552Y008237D01*
X049475Y008161D01*
X049475Y007930D01*
X049321Y007777D02*
X049245Y007700D01*
X049245Y007930D02*
X049245Y008161D01*
X049321Y008237D01*
X049398Y008237D01*
X049475Y008161D01*
X049398Y008391D02*
X049245Y008544D01*
X049705Y008544D01*
X049705Y008391D02*
X049705Y008698D01*
X049705Y007930D02*
X049245Y007930D01*
X050495Y008084D02*
X050648Y008237D01*
X050955Y008237D01*
X050955Y008391D02*
X050955Y008698D01*
X050955Y008544D02*
X050495Y008544D01*
X050648Y008391D01*
X050725Y008237D02*
X050725Y007930D01*
X050648Y007930D02*
X050495Y008084D01*
X050648Y007930D02*
X050955Y007930D01*
X050878Y007777D02*
X050955Y007700D01*
X050955Y007547D01*
X050878Y007470D01*
X050571Y007470D01*
X050495Y007547D01*
X050495Y007700D01*
X050571Y007777D01*
X054245Y007700D02*
X054321Y007777D01*
X054398Y007777D01*
X054475Y007700D01*
X054475Y007470D01*
X054705Y007470D02*
X054245Y007470D01*
X054245Y007700D01*
X054475Y007700D02*
X054552Y007777D01*
X054628Y007777D01*
X054705Y007700D01*
X054705Y007470D01*
X054552Y007930D02*
X054705Y008084D01*
X054552Y008237D01*
X054245Y008237D01*
X054398Y008391D02*
X054245Y008544D01*
X054705Y008544D01*
X054705Y008391D02*
X054705Y008698D01*
X054552Y007930D02*
X054245Y007930D01*
X055495Y007930D02*
X055878Y007930D01*
X055955Y008007D01*
X055955Y008161D01*
X055878Y008237D01*
X055495Y008237D01*
X055648Y008391D02*
X055495Y008544D01*
X055955Y008544D01*
X055955Y008391D02*
X055955Y008698D01*
X056745Y008544D02*
X057205Y008544D01*
X057205Y008391D02*
X057205Y008698D01*
X056898Y008391D02*
X056745Y008544D01*
X056745Y008237D02*
X056745Y007930D01*
X056745Y008084D02*
X057205Y008084D01*
X057128Y007777D02*
X057205Y007700D01*
X057205Y007470D01*
X056745Y007470D01*
X056745Y007700D01*
X056821Y007777D01*
X056898Y007777D01*
X056975Y007700D01*
X056975Y007470D01*
X056975Y007700D02*
X057052Y007777D01*
X057128Y007777D01*
X057995Y007700D02*
X058071Y007777D01*
X058148Y007777D01*
X058225Y007700D01*
X058225Y007470D01*
X058455Y007470D02*
X058455Y007700D01*
X058378Y007777D01*
X058302Y007777D01*
X058225Y007700D01*
X057995Y007700D02*
X057995Y007470D01*
X058455Y007470D01*
X058378Y007930D02*
X058455Y008007D01*
X058455Y008161D01*
X058378Y008237D01*
X058302Y008237D01*
X058225Y008161D01*
X058225Y008007D01*
X058148Y007930D01*
X058071Y007930D01*
X057995Y008007D01*
X057995Y008161D01*
X058071Y008237D01*
X058148Y008391D02*
X057995Y008544D01*
X058455Y008544D01*
X058455Y008391D02*
X058455Y008698D01*
X059245Y008544D02*
X059705Y008544D01*
X059705Y008391D02*
X059705Y008698D01*
X059398Y008391D02*
X059245Y008544D01*
X059321Y008237D02*
X059475Y008237D01*
X059552Y008161D01*
X059552Y007930D01*
X059705Y007930D02*
X059245Y007930D01*
X059245Y008161D01*
X059321Y008237D01*
X059552Y008084D02*
X059705Y008237D01*
X059628Y007777D02*
X059705Y007700D01*
X059705Y007470D01*
X059245Y007470D01*
X059245Y007700D01*
X059321Y007777D01*
X059398Y007777D01*
X059475Y007700D01*
X059475Y007470D01*
X059475Y007700D02*
X059552Y007777D01*
X059628Y007777D01*
X060495Y007700D02*
X060571Y007777D01*
X060648Y007777D01*
X060725Y007700D01*
X060725Y007470D01*
X060955Y007470D02*
X060955Y007700D01*
X060878Y007777D01*
X060802Y007777D01*
X060725Y007700D01*
X060495Y007700D02*
X060495Y007470D01*
X060955Y007470D01*
X060955Y007930D02*
X060495Y007930D01*
X060495Y008161D01*
X060571Y008237D01*
X060725Y008237D01*
X060802Y008161D01*
X060802Y007930D01*
X060955Y008391D02*
X060955Y008698D01*
X060955Y008544D02*
X060495Y008544D01*
X060648Y008391D01*
X061745Y008544D02*
X062205Y008544D01*
X062205Y008391D02*
X062205Y008698D01*
X061898Y008391D02*
X061745Y008544D01*
X061745Y008237D02*
X062205Y008237D01*
X061745Y007930D01*
X062205Y007930D01*
X062128Y007777D02*
X062205Y007700D01*
X062205Y007470D01*
X061745Y007470D01*
X061745Y007700D01*
X061821Y007777D01*
X061898Y007777D01*
X061975Y007700D01*
X061975Y007470D01*
X061975Y007700D02*
X062052Y007777D01*
X062128Y007777D01*
X062995Y007700D02*
X063071Y007777D01*
X063148Y007777D01*
X063225Y007700D01*
X063225Y007470D01*
X063455Y007470D02*
X063455Y007700D01*
X063378Y007777D01*
X063302Y007777D01*
X063225Y007700D01*
X062995Y007700D02*
X062995Y007470D01*
X063455Y007470D01*
X063455Y007930D02*
X062995Y007930D01*
X063148Y008084D01*
X062995Y008237D01*
X063455Y008237D01*
X063455Y008391D02*
X063455Y008698D01*
X063455Y008544D02*
X062995Y008544D01*
X063148Y008391D01*
X064245Y008544D02*
X064705Y008544D01*
X064705Y008391D02*
X064705Y008698D01*
X064398Y008391D02*
X064245Y008544D01*
X064705Y008237D02*
X064705Y007930D01*
X064245Y007930D01*
X064321Y007777D02*
X064398Y007777D01*
X064475Y007700D01*
X064475Y007470D01*
X064705Y007470D02*
X064705Y007700D01*
X064628Y007777D01*
X064552Y007777D01*
X064475Y007700D01*
X064321Y007777D02*
X064245Y007700D01*
X064245Y007470D01*
X064705Y007470D01*
X065495Y007470D02*
X065495Y007700D01*
X065571Y007777D01*
X065648Y007777D01*
X065725Y007700D01*
X065725Y007470D01*
X065955Y007470D02*
X065955Y007700D01*
X065878Y007777D01*
X065802Y007777D01*
X065725Y007700D01*
X065802Y007930D02*
X065495Y008237D01*
X065648Y008391D02*
X065495Y008544D01*
X065955Y008544D01*
X065955Y008391D02*
X065955Y008698D01*
X065955Y008237D02*
X065725Y008007D01*
X065495Y007930D02*
X065955Y007930D01*
X065955Y007470D02*
X065495Y007470D01*
X066745Y007470D02*
X066745Y007700D01*
X066821Y007777D01*
X066898Y007777D01*
X066975Y007700D01*
X066975Y007470D01*
X067205Y007470D02*
X067205Y007700D01*
X067128Y007777D01*
X067052Y007777D01*
X066975Y007700D01*
X067128Y007930D02*
X067205Y008007D01*
X067205Y008084D01*
X067128Y008161D01*
X066745Y008161D01*
X066745Y008237D02*
X066745Y008084D01*
X066898Y008391D02*
X066745Y008544D01*
X067205Y008544D01*
X067205Y008391D02*
X067205Y008698D01*
X067995Y008544D02*
X068455Y008544D01*
X068455Y008391D02*
X068455Y008698D01*
X068148Y008391D02*
X067995Y008544D01*
X067995Y008237D02*
X068455Y008237D01*
X068225Y008237D02*
X068225Y007930D01*
X068302Y007777D02*
X068378Y007777D01*
X068455Y007700D01*
X068455Y007470D01*
X067995Y007470D01*
X067995Y007700D01*
X068071Y007777D01*
X068148Y007777D01*
X068225Y007700D01*
X068225Y007470D01*
X068225Y007700D02*
X068302Y007777D01*
X068455Y007930D02*
X067995Y007930D01*
X067205Y007470D02*
X066745Y007470D01*
X069245Y007470D02*
X069245Y007700D01*
X069321Y007777D01*
X069398Y007777D01*
X069475Y007700D01*
X069475Y007470D01*
X069705Y007470D02*
X069705Y007700D01*
X069628Y007777D01*
X069552Y007777D01*
X069475Y007700D01*
X069475Y007930D02*
X069475Y008084D01*
X069705Y007930D02*
X069245Y007930D01*
X069245Y008237D01*
X069398Y008391D02*
X069245Y008544D01*
X069705Y008544D01*
X069705Y008391D02*
X069705Y008698D01*
X070495Y008544D02*
X070955Y008544D01*
X070955Y008391D02*
X070955Y008698D01*
X070648Y008391D02*
X070495Y008544D01*
X070495Y008237D02*
X070495Y007930D01*
X070955Y007930D01*
X070955Y008237D01*
X070725Y008084D02*
X070725Y007930D01*
X070802Y007777D02*
X070878Y007777D01*
X070955Y007700D01*
X070955Y007470D01*
X070495Y007470D01*
X070495Y007700D01*
X070571Y007777D01*
X070648Y007777D01*
X070725Y007700D01*
X070725Y007470D01*
X070725Y007700D02*
X070802Y007777D01*
X071745Y007700D02*
X071821Y007777D01*
X071898Y007777D01*
X071975Y007700D01*
X071975Y007470D01*
X072205Y007470D02*
X072205Y007700D01*
X072128Y007777D01*
X072052Y007777D01*
X071975Y007700D01*
X071745Y007700D02*
X071745Y007470D01*
X072205Y007470D01*
X072205Y007930D02*
X072205Y008161D01*
X072128Y008237D01*
X071821Y008237D01*
X071745Y008161D01*
X071745Y007930D01*
X072205Y007930D01*
X072205Y008391D02*
X072205Y008698D01*
X072205Y008544D02*
X071745Y008544D01*
X071898Y008391D01*
X072995Y008544D02*
X073455Y008544D01*
X073455Y008391D02*
X073455Y008698D01*
X073148Y008391D02*
X072995Y008544D01*
X073071Y008237D02*
X072995Y008161D01*
X072995Y008007D01*
X073071Y007930D01*
X073378Y007930D01*
X073455Y008007D01*
X073455Y008161D01*
X073378Y008237D01*
X073378Y007777D02*
X073455Y007700D01*
X073455Y007470D01*
X072995Y007470D01*
X072995Y007700D01*
X073071Y007777D01*
X073148Y007777D01*
X073225Y007700D01*
X073225Y007470D01*
X073225Y007700D02*
X073302Y007777D01*
X073378Y007777D01*
X074245Y007700D02*
X074321Y007777D01*
X074398Y007777D01*
X074475Y007700D01*
X074475Y007470D01*
X074705Y007470D02*
X074245Y007470D01*
X074245Y007700D01*
X074475Y007700D02*
X074552Y007777D01*
X074628Y007777D01*
X074705Y007700D01*
X074705Y007470D01*
X074705Y007930D02*
X074245Y007930D01*
X074245Y008161D01*
X074321Y008237D01*
X074398Y008237D01*
X074475Y008161D01*
X074475Y007930D01*
X074705Y007930D02*
X074705Y008161D01*
X074628Y008237D01*
X074552Y008237D01*
X074475Y008161D01*
X074398Y008391D02*
X074245Y008544D01*
X074705Y008544D01*
X074705Y008391D02*
X074705Y008698D01*
X075495Y008544D02*
X075955Y008544D01*
X075955Y008391D02*
X075955Y008698D01*
X075648Y008391D02*
X075495Y008544D01*
X075648Y008237D02*
X075955Y008237D01*
X075725Y008237D02*
X075725Y007930D01*
X075648Y007930D02*
X075495Y008084D01*
X075648Y008237D01*
X075648Y007930D02*
X075955Y007930D01*
X075878Y007777D02*
X075955Y007700D01*
X075955Y007470D01*
X075495Y007470D01*
X075495Y007700D01*
X075571Y007777D01*
X075648Y007777D01*
X075725Y007700D01*
X075725Y007470D01*
X075725Y007700D02*
X075802Y007777D01*
X075878Y007777D01*
X081745Y007930D02*
X082052Y007930D01*
X082205Y008084D01*
X082052Y008237D01*
X081745Y008237D01*
X081898Y008391D02*
X081745Y008544D01*
X082205Y008544D01*
X082205Y008391D02*
X082205Y008698D01*
X082995Y008544D02*
X083455Y008544D01*
X083455Y008391D02*
X083455Y008698D01*
X083148Y008391D02*
X082995Y008544D01*
X082995Y008237D02*
X083378Y008237D01*
X083455Y008161D01*
X083455Y008007D01*
X083378Y007930D01*
X082995Y007930D01*
X083148Y007777D02*
X082995Y007623D01*
X083148Y007470D01*
X083455Y007470D01*
X083225Y007470D02*
X083225Y007777D01*
X083148Y007777D02*
X083455Y007777D01*
X084245Y007930D02*
X084245Y008237D01*
X084245Y008084D02*
X084705Y008084D01*
X084705Y008391D02*
X084705Y008698D01*
X084705Y008544D02*
X084245Y008544D01*
X084398Y008391D01*
X084398Y007777D02*
X084705Y007777D01*
X084475Y007777D02*
X084475Y007470D01*
X084398Y007470D02*
X084245Y007623D01*
X084398Y007777D01*
X084398Y007470D02*
X084705Y007470D01*
X085495Y007623D02*
X085648Y007777D01*
X085955Y007777D01*
X085878Y007930D02*
X085955Y008007D01*
X085955Y008161D01*
X085878Y008237D01*
X085802Y008237D01*
X085725Y008161D01*
X085725Y008007D01*
X085648Y007930D01*
X085571Y007930D01*
X085495Y008007D01*
X085495Y008161D01*
X085571Y008237D01*
X085648Y008391D02*
X085495Y008544D01*
X085955Y008544D01*
X085955Y008391D02*
X085955Y008698D01*
X086745Y008544D02*
X087205Y008544D01*
X087205Y008391D02*
X087205Y008698D01*
X086898Y008391D02*
X086745Y008544D01*
X086821Y008237D02*
X086975Y008237D01*
X087052Y008161D01*
X087052Y007930D01*
X087205Y007930D02*
X086745Y007930D01*
X086745Y008161D01*
X086821Y008237D01*
X087052Y008084D02*
X087205Y008237D01*
X087205Y007777D02*
X086898Y007777D01*
X086745Y007623D01*
X086898Y007470D01*
X087205Y007470D01*
X086975Y007470D02*
X086975Y007777D01*
X087995Y007930D02*
X087995Y008161D01*
X088071Y008237D01*
X088225Y008237D01*
X088302Y008161D01*
X088302Y007930D01*
X088455Y007930D02*
X087995Y007930D01*
X088148Y007777D02*
X088455Y007777D01*
X088225Y007777D02*
X088225Y007470D01*
X088148Y007470D02*
X087995Y007623D01*
X088148Y007777D01*
X088148Y007470D02*
X088455Y007470D01*
X089245Y007623D02*
X089398Y007777D01*
X089705Y007777D01*
X089705Y007930D02*
X089245Y007930D01*
X089705Y008237D01*
X089245Y008237D01*
X089398Y008391D02*
X089245Y008544D01*
X089705Y008544D01*
X089705Y008391D02*
X089705Y008698D01*
X090495Y008544D02*
X090955Y008544D01*
X090955Y008391D02*
X090955Y008698D01*
X090648Y008391D02*
X090495Y008544D01*
X090495Y008237D02*
X090955Y008237D01*
X090955Y007930D02*
X090495Y007930D01*
X090648Y008084D01*
X090495Y008237D01*
X090648Y007777D02*
X090955Y007777D01*
X090725Y007777D02*
X090725Y007470D01*
X090648Y007470D02*
X090495Y007623D01*
X090648Y007777D01*
X090648Y007470D02*
X090955Y007470D01*
X091745Y007623D02*
X091898Y007777D01*
X092205Y007777D01*
X092205Y007930D02*
X092205Y008237D01*
X092205Y008391D02*
X092205Y008698D01*
X092205Y008544D02*
X091745Y008544D01*
X091898Y008391D01*
X091745Y007930D02*
X092205Y007930D01*
X091975Y007777D02*
X091975Y007470D01*
X091898Y007470D02*
X091745Y007623D01*
X091898Y007470D02*
X092205Y007470D01*
X092995Y007623D02*
X093148Y007777D01*
X093455Y007777D01*
X093455Y007930D02*
X092995Y007930D01*
X093225Y008007D02*
X093455Y008237D01*
X093455Y008391D02*
X093455Y008698D01*
X093455Y008544D02*
X092995Y008544D01*
X093148Y008391D01*
X092995Y008237D02*
X093302Y007930D01*
X093225Y007777D02*
X093225Y007470D01*
X093148Y007470D02*
X092995Y007623D01*
X093148Y007470D02*
X093455Y007470D01*
X094245Y007623D02*
X094398Y007777D01*
X094705Y007777D01*
X094628Y007930D02*
X094705Y008007D01*
X094705Y008084D01*
X094628Y008161D01*
X094245Y008161D01*
X094245Y008237D02*
X094245Y008084D01*
X094398Y008391D02*
X094245Y008544D01*
X094705Y008544D01*
X094705Y008391D02*
X094705Y008698D01*
X095495Y008544D02*
X095955Y008544D01*
X095955Y008391D02*
X095955Y008698D01*
X095648Y008391D02*
X095495Y008544D01*
X095495Y008237D02*
X095955Y008237D01*
X095725Y008237D02*
X095725Y007930D01*
X095725Y007777D02*
X095725Y007470D01*
X095648Y007470D02*
X095495Y007623D01*
X095648Y007777D01*
X095955Y007777D01*
X095955Y007930D02*
X095495Y007930D01*
X095648Y007470D02*
X095955Y007470D01*
X096745Y007623D02*
X096898Y007777D01*
X097205Y007777D01*
X097205Y007930D02*
X096745Y007930D01*
X096745Y008237D01*
X096898Y008391D02*
X096745Y008544D01*
X097205Y008544D01*
X097205Y008391D02*
X097205Y008698D01*
X096975Y008084D02*
X096975Y007930D01*
X096975Y007777D02*
X096975Y007470D01*
X096898Y007470D02*
X096745Y007623D01*
X096898Y007470D02*
X097205Y007470D01*
X097995Y007623D02*
X098148Y007777D01*
X098455Y007777D01*
X098455Y007930D02*
X098455Y008237D01*
X098455Y008391D02*
X098455Y008698D01*
X098455Y008544D02*
X097995Y008544D01*
X098148Y008391D01*
X097995Y008237D02*
X097995Y007930D01*
X098455Y007930D01*
X098225Y007930D02*
X098225Y008084D01*
X098225Y007777D02*
X098225Y007470D01*
X098148Y007470D02*
X097995Y007623D01*
X098148Y007470D02*
X098455Y007470D01*
X099245Y007623D02*
X099398Y007777D01*
X099705Y007777D01*
X099705Y007930D02*
X099705Y008161D01*
X099628Y008237D01*
X099321Y008237D01*
X099245Y008161D01*
X099245Y007930D01*
X099705Y007930D01*
X099475Y007777D02*
X099475Y007470D01*
X099398Y007470D02*
X099245Y007623D01*
X099398Y007470D02*
X099705Y007470D01*
X100495Y007623D02*
X100648Y007777D01*
X100955Y007777D01*
X100878Y007930D02*
X100955Y008007D01*
X100955Y008161D01*
X100878Y008237D01*
X100955Y008391D02*
X100955Y008698D01*
X100955Y008544D02*
X100495Y008544D01*
X100648Y008391D01*
X100571Y008237D02*
X100495Y008161D01*
X100495Y008007D01*
X100571Y007930D01*
X100878Y007930D01*
X100725Y007777D02*
X100725Y007470D01*
X100648Y007470D02*
X100495Y007623D01*
X100648Y007470D02*
X100955Y007470D01*
X101745Y007623D02*
X101898Y007777D01*
X102205Y007777D01*
X102205Y007930D02*
X102205Y008161D01*
X102128Y008237D01*
X102052Y008237D01*
X101975Y008161D01*
X101975Y007930D01*
X101975Y007777D02*
X101975Y007470D01*
X101898Y007470D02*
X101745Y007623D01*
X101898Y007470D02*
X102205Y007470D01*
X102205Y007930D02*
X101745Y007930D01*
X101745Y008161D01*
X101821Y008237D01*
X101898Y008237D01*
X101975Y008161D01*
X101898Y008391D02*
X101745Y008544D01*
X102205Y008544D01*
X102205Y008391D02*
X102205Y008698D01*
X102995Y008544D02*
X103455Y008544D01*
X103455Y008391D02*
X103455Y008698D01*
X103148Y008391D02*
X102995Y008544D01*
X103148Y008237D02*
X102995Y008084D01*
X103148Y007930D01*
X103455Y007930D01*
X103455Y007777D02*
X103148Y007777D01*
X102995Y007623D01*
X103148Y007470D01*
X103455Y007470D01*
X103225Y007470D02*
X103225Y007777D01*
X103225Y007930D02*
X103225Y008237D01*
X103148Y008237D02*
X103455Y008237D01*
X099705Y008391D02*
X099705Y008698D01*
X099705Y008544D02*
X099245Y008544D01*
X099398Y008391D01*
X094705Y007470D02*
X094398Y007470D01*
X094245Y007623D01*
X094475Y007470D02*
X094475Y007777D01*
X089705Y007470D02*
X089398Y007470D01*
X089245Y007623D01*
X089475Y007470D02*
X089475Y007777D01*
X088455Y008391D02*
X088455Y008698D01*
X088455Y008544D02*
X087995Y008544D01*
X088148Y008391D01*
X085955Y007470D02*
X085648Y007470D01*
X085495Y007623D01*
X085725Y007470D02*
X085725Y007777D01*
X082205Y007777D02*
X081898Y007777D01*
X081745Y007623D01*
X081898Y007470D01*
X082205Y007470D01*
X081975Y007470D02*
X081975Y007777D01*
X069705Y007470D02*
X069245Y007470D01*
X055955Y007470D02*
X055955Y007700D01*
X055878Y007777D01*
X055802Y007777D01*
X055725Y007700D01*
X055725Y007470D01*
X055955Y007470D02*
X055495Y007470D01*
X055495Y007700D01*
X055571Y007777D01*
X055648Y007777D01*
X055725Y007700D01*
D15*
X052800Y021350D02*
X052800Y021700D01*
X052800Y022050D01*
X052400Y022050D02*
X052400Y021700D01*
X052400Y021350D01*
X038800Y021350D02*
X038800Y021700D01*
X038800Y022050D01*
X038400Y022050D02*
X038400Y021700D01*
X038400Y021350D01*
X024300Y021350D02*
X024300Y021700D01*
X024300Y022050D01*
X023900Y022050D02*
X023900Y021700D01*
X023900Y021350D01*
X010300Y021350D02*
X010300Y021700D01*
X010300Y022050D01*
X009900Y022050D02*
X009900Y021700D01*
X009900Y021350D01*
X009900Y034850D02*
X009900Y035200D01*
X009900Y035550D01*
X010300Y035550D02*
X010300Y035200D01*
X010300Y034850D01*
X023900Y034850D02*
X023900Y035200D01*
X023900Y035550D01*
X024300Y035550D02*
X024300Y035200D01*
X024300Y034850D01*
X038400Y034850D02*
X038400Y035200D01*
X038400Y035550D01*
X038800Y035550D02*
X038800Y035200D01*
X038800Y034850D01*
X052400Y034850D02*
X052400Y035200D01*
X052400Y035550D01*
X052800Y035550D02*
X052800Y035200D01*
X052800Y034850D01*
X066900Y034850D02*
X066900Y035200D01*
X066900Y035550D01*
X067300Y035550D02*
X067300Y035200D01*
X067300Y034850D01*
X080900Y034850D02*
X080900Y035200D01*
X080900Y035550D01*
X081300Y035550D02*
X081300Y035200D01*
X081300Y034850D01*
X095400Y034850D02*
X095400Y035200D01*
X095400Y035550D01*
X095800Y035550D02*
X095800Y035200D01*
X095800Y034850D01*
X095300Y022550D02*
X095300Y022200D01*
X095300Y021850D01*
X094900Y021850D02*
X094900Y022200D01*
X094900Y022550D01*
X081300Y022050D02*
X081300Y021700D01*
X081300Y021350D01*
X080900Y021350D02*
X080900Y021700D01*
X080900Y022050D01*
X067300Y022050D02*
X067300Y021700D01*
X067300Y021350D01*
X066900Y021350D02*
X066900Y021700D01*
X066900Y022050D01*
D16*
X075675Y018350D02*
X075675Y018200D01*
X075575Y018050D02*
X075575Y018000D01*
X075675Y017850D02*
X075675Y013050D01*
X049175Y013050D02*
X049175Y017850D01*
X049075Y018000D02*
X049075Y018050D01*
X049175Y018200D02*
X049175Y018350D01*
X102075Y018050D02*
X102075Y018000D01*
X102175Y017850D02*
X102175Y013050D01*
X102175Y018200D02*
X102175Y018350D01*
D17*
X101100Y018600D03*
X101100Y012800D03*
X074600Y012800D03*
X074600Y018600D03*
X048100Y018600D03*
X048100Y012800D03*
D18*
X048100Y017388D03*
X074600Y017388D03*
X101100Y017388D03*
D19*
X006122Y058657D02*
X006115Y058710D01*
X006143Y058715D01*
X006170Y058724D01*
X006196Y058737D01*
X006220Y058752D01*
X006243Y058770D01*
X006263Y058790D01*
X006280Y058813D01*
X006295Y058837D01*
X006307Y058863D01*
X006316Y058890D01*
X006321Y058918D01*
X006323Y058947D01*
X006376Y058948D01*
X006377Y058947D01*
X006375Y058915D01*
X006369Y058883D01*
X006360Y058852D01*
X006348Y058822D01*
X006332Y058793D01*
X006314Y058767D01*
X006292Y058742D01*
X006269Y058721D01*
X006242Y058701D01*
X006214Y058685D01*
X006185Y058672D01*
X006154Y058662D01*
X006122Y058656D01*
X006122Y058661D01*
X006153Y058667D01*
X006183Y058677D01*
X006212Y058690D01*
X006240Y058706D01*
X006265Y058724D01*
X006289Y058746D01*
X006310Y058770D01*
X006328Y058796D01*
X006343Y058824D01*
X006356Y058853D01*
X006364Y058884D01*
X006370Y058915D01*
X006372Y058947D01*
X006367Y058947D01*
X006365Y058916D01*
X006360Y058885D01*
X006351Y058855D01*
X006339Y058826D01*
X006324Y058799D01*
X006306Y058773D01*
X006285Y058749D01*
X006262Y058728D01*
X006237Y058710D01*
X006210Y058694D01*
X006181Y058682D01*
X006152Y058672D01*
X006121Y058666D01*
X006120Y058671D01*
X006153Y058678D01*
X006184Y058688D01*
X006215Y058702D01*
X006243Y058720D01*
X006269Y058741D01*
X006292Y058764D01*
X006313Y058791D01*
X006330Y058819D01*
X006343Y058849D01*
X006353Y058881D01*
X006360Y058914D01*
X006362Y058947D01*
X006357Y058947D01*
X006355Y058914D01*
X006349Y058882D01*
X006339Y058851D01*
X006325Y058821D01*
X006308Y058793D01*
X006288Y058768D01*
X006265Y058744D01*
X006240Y058724D01*
X006212Y058707D01*
X006183Y058693D01*
X006152Y058682D01*
X006120Y058676D01*
X006119Y058681D01*
X006150Y058687D01*
X006181Y058697D01*
X006210Y058711D01*
X006237Y058728D01*
X006262Y058748D01*
X006285Y058771D01*
X006304Y058796D01*
X006321Y058824D01*
X006334Y058853D01*
X006344Y058883D01*
X006350Y058915D01*
X006352Y058947D01*
X006347Y058947D01*
X006345Y058916D01*
X006339Y058885D01*
X006329Y058855D01*
X006316Y058826D01*
X006300Y058799D01*
X006281Y058774D01*
X006259Y058752D01*
X006234Y058732D01*
X006207Y058715D01*
X006179Y058702D01*
X006149Y058692D01*
X006118Y058686D01*
X006118Y058691D01*
X006148Y058697D01*
X006177Y058707D01*
X006205Y058720D01*
X006231Y058736D01*
X006255Y058755D01*
X006277Y058777D01*
X006296Y058802D01*
X006312Y058828D01*
X006325Y058856D01*
X006334Y058886D01*
X006340Y058916D01*
X006342Y058947D01*
X006337Y058947D01*
X006335Y058917D01*
X006329Y058887D01*
X006320Y058858D01*
X006308Y058831D01*
X006292Y058805D01*
X006273Y058781D01*
X006252Y058759D01*
X006228Y058740D01*
X006203Y058724D01*
X006175Y058711D01*
X006147Y058702D01*
X006117Y058696D01*
X006116Y058701D01*
X006145Y058707D01*
X006174Y058716D01*
X006200Y058729D01*
X006226Y058744D01*
X006249Y058763D01*
X006270Y058784D01*
X006288Y058807D01*
X006303Y058833D01*
X006315Y058860D01*
X006324Y058888D01*
X006330Y058917D01*
X006332Y058947D01*
X006327Y058947D01*
X006325Y058918D01*
X006319Y058889D01*
X006311Y058862D01*
X006299Y058835D01*
X006284Y058810D01*
X006266Y058787D01*
X006245Y058767D01*
X006223Y058748D01*
X006198Y058733D01*
X006172Y058721D01*
X006144Y058711D01*
X006116Y058706D01*
X005180Y058467D02*
X005194Y058415D01*
X005193Y058416D02*
X005166Y058406D01*
X005140Y058394D01*
X005115Y058378D01*
X005093Y058359D01*
X005074Y058337D01*
X005058Y058313D01*
X005045Y058287D01*
X005035Y058260D01*
X005029Y058232D01*
X005027Y058203D01*
X004974Y058203D01*
X004973Y058203D01*
X004975Y058233D01*
X004980Y058263D01*
X004989Y058292D01*
X005000Y058319D01*
X005014Y058346D01*
X005032Y058370D01*
X005051Y058393D01*
X005074Y058414D01*
X005098Y058431D01*
X005124Y058447D01*
X005151Y058459D01*
X005180Y058468D01*
X005181Y058463D01*
X005150Y058453D01*
X005121Y058440D01*
X005094Y058423D01*
X005069Y058403D01*
X005046Y058380D01*
X005026Y058354D01*
X005009Y058327D01*
X004996Y058298D01*
X004986Y058267D01*
X004980Y058235D01*
X004978Y058203D01*
X004983Y058203D01*
X004985Y058235D01*
X004991Y058266D01*
X005001Y058296D01*
X005014Y058325D01*
X005030Y058352D01*
X005050Y058376D01*
X005072Y058399D01*
X005097Y058419D01*
X005124Y058435D01*
X005152Y058448D01*
X005182Y058458D01*
X005184Y058453D01*
X005154Y058444D01*
X005126Y058431D01*
X005100Y058414D01*
X005075Y058395D01*
X005053Y058373D01*
X005034Y058349D01*
X005018Y058322D01*
X005005Y058294D01*
X004996Y058264D01*
X004990Y058234D01*
X004988Y058203D01*
X004993Y058203D01*
X004995Y058233D01*
X005001Y058263D01*
X005010Y058292D01*
X005023Y058320D01*
X005038Y058346D01*
X005057Y058370D01*
X005079Y058391D01*
X005102Y058410D01*
X005128Y058426D01*
X005156Y058439D01*
X005185Y058449D01*
X005186Y058444D01*
X005158Y058434D01*
X005131Y058422D01*
X005105Y058406D01*
X005082Y058388D01*
X005061Y058367D01*
X005043Y058343D01*
X005027Y058318D01*
X005015Y058290D01*
X005006Y058262D01*
X005000Y058233D01*
X004998Y058203D01*
X005003Y058203D01*
X005005Y058232D01*
X005011Y058261D01*
X005019Y058289D01*
X005032Y058315D01*
X005047Y058340D01*
X005065Y058363D01*
X005085Y058384D01*
X005108Y058402D01*
X005133Y058417D01*
X005159Y058430D01*
X005187Y058439D01*
X005188Y058434D01*
X005161Y058425D01*
X005135Y058413D01*
X005111Y058398D01*
X005089Y058380D01*
X005068Y058360D01*
X005051Y058337D01*
X005036Y058313D01*
X005024Y058287D01*
X005015Y058260D01*
X005010Y058232D01*
X005008Y058203D01*
X005013Y058203D01*
X005015Y058231D01*
X005020Y058258D01*
X005029Y058285D01*
X005040Y058311D01*
X005055Y058335D01*
X005072Y058357D01*
X005092Y058377D01*
X005114Y058394D01*
X005138Y058409D01*
X005163Y058420D01*
X005190Y058429D01*
X005191Y058424D01*
X005162Y058415D01*
X005135Y058402D01*
X005110Y058385D01*
X005087Y058365D01*
X005067Y058343D01*
X005050Y058318D01*
X005037Y058291D01*
X005027Y058263D01*
X005020Y058233D01*
X005018Y058203D01*
X005023Y058203D01*
X005025Y058232D01*
X005031Y058261D01*
X005041Y058289D01*
X005054Y058315D01*
X005071Y058340D01*
X005091Y058362D01*
X005113Y058381D01*
X005138Y058397D01*
X005164Y058410D01*
X005192Y058419D01*
X004974Y056497D02*
X005028Y056497D01*
X005027Y056497D02*
X005029Y056469D01*
X005035Y056442D01*
X005045Y056416D01*
X005058Y056392D01*
X005075Y056369D01*
X005094Y056349D01*
X005116Y056332D01*
X005140Y056318D01*
X005165Y056308D01*
X005149Y056257D01*
X005149Y056256D01*
X005122Y056267D01*
X005096Y056280D01*
X005073Y056297D01*
X005051Y056316D01*
X005031Y056337D01*
X005014Y056360D01*
X005000Y056385D01*
X004989Y056412D01*
X004980Y056440D01*
X004975Y056468D01*
X004973Y056497D01*
X004978Y056497D01*
X004980Y056466D01*
X004986Y056435D01*
X004996Y056406D01*
X005010Y056378D01*
X005026Y056351D01*
X005046Y056327D01*
X005069Y056306D01*
X005094Y056288D01*
X005121Y056273D01*
X005150Y056261D01*
X005152Y056266D01*
X005124Y056277D01*
X005097Y056292D01*
X005072Y056310D01*
X005050Y056331D01*
X005031Y056354D01*
X005014Y056380D01*
X005001Y056408D01*
X004991Y056437D01*
X004985Y056467D01*
X004983Y056497D01*
X004988Y056497D01*
X004990Y056467D01*
X004996Y056438D01*
X005006Y056409D01*
X005018Y056382D01*
X005035Y056357D01*
X005054Y056334D01*
X005075Y056314D01*
X005100Y056296D01*
X005126Y056282D01*
X005153Y056270D01*
X005155Y056275D01*
X005128Y056286D01*
X005102Y056300D01*
X005079Y056318D01*
X005057Y056338D01*
X005039Y056360D01*
X005023Y056385D01*
X005010Y056411D01*
X005001Y056439D01*
X004995Y056468D01*
X004993Y056497D01*
X004998Y056497D01*
X005000Y056468D01*
X005006Y056440D01*
X005015Y056413D01*
X005027Y056387D01*
X005043Y056363D01*
X005061Y056341D01*
X005082Y056322D01*
X005105Y056305D01*
X005130Y056291D01*
X005156Y056280D01*
X005158Y056285D01*
X005132Y056295D01*
X005108Y056309D01*
X005085Y056325D01*
X005065Y056345D01*
X005047Y056366D01*
X005032Y056390D01*
X005020Y056415D01*
X005011Y056442D01*
X005005Y056469D01*
X005003Y056497D01*
X005008Y056497D01*
X005010Y056470D01*
X005015Y056443D01*
X005024Y056417D01*
X005036Y056392D01*
X005051Y056369D01*
X005068Y056348D01*
X005088Y056329D01*
X005110Y056313D01*
X005134Y056300D01*
X005160Y056289D01*
X005161Y056294D01*
X005136Y056304D01*
X005113Y056317D01*
X005091Y056333D01*
X005072Y056351D01*
X005055Y056372D01*
X005040Y056395D01*
X005029Y056419D01*
X005020Y056444D01*
X005015Y056470D01*
X005013Y056497D01*
X005018Y056497D01*
X005020Y056471D01*
X005025Y056445D01*
X005033Y056421D01*
X005045Y056397D01*
X005059Y056375D01*
X005075Y056355D01*
X005094Y056337D01*
X005116Y056322D01*
X005138Y056309D01*
X005163Y056299D01*
X005164Y056304D01*
X005140Y056313D01*
X005118Y056326D01*
X005098Y056341D01*
X005079Y056358D01*
X005063Y056378D01*
X005049Y056399D01*
X005038Y056422D01*
X005030Y056447D01*
X005025Y056472D01*
X005023Y056497D01*
X006376Y079452D02*
X006322Y079452D01*
X006323Y079453D02*
X006321Y079482D01*
X006316Y079510D01*
X006307Y079537D01*
X006295Y079563D01*
X006280Y079587D01*
X006263Y079610D01*
X006243Y079630D01*
X006220Y079648D01*
X006196Y079663D01*
X006170Y079676D01*
X006143Y079685D01*
X006115Y079690D01*
X006122Y079743D01*
X006122Y079744D01*
X006154Y079738D01*
X006185Y079728D01*
X006214Y079715D01*
X006242Y079699D01*
X006269Y079679D01*
X006292Y079658D01*
X006314Y079633D01*
X006332Y079607D01*
X006348Y079578D01*
X006360Y079548D01*
X006369Y079517D01*
X006375Y079485D01*
X006377Y079453D01*
X006372Y079453D01*
X006370Y079485D01*
X006364Y079516D01*
X006356Y079547D01*
X006343Y079576D01*
X006328Y079604D01*
X006310Y079630D01*
X006289Y079654D01*
X006265Y079676D01*
X006240Y079694D01*
X006212Y079710D01*
X006183Y079723D01*
X006153Y079733D01*
X006122Y079739D01*
X006121Y079734D01*
X006152Y079728D01*
X006181Y079718D01*
X006210Y079706D01*
X006237Y079690D01*
X006262Y079672D01*
X006285Y079651D01*
X006306Y079627D01*
X006324Y079601D01*
X006339Y079574D01*
X006351Y079545D01*
X006360Y079515D01*
X006365Y079484D01*
X006367Y079453D01*
X006362Y079453D01*
X006360Y079486D01*
X006353Y079519D01*
X006343Y079551D01*
X006330Y079581D01*
X006313Y079609D01*
X006292Y079636D01*
X006269Y079659D01*
X006243Y079680D01*
X006215Y079698D01*
X006184Y079712D01*
X006153Y079722D01*
X006120Y079729D01*
X006120Y079724D01*
X006152Y079718D01*
X006183Y079707D01*
X006212Y079693D01*
X006240Y079676D01*
X006265Y079656D01*
X006288Y079632D01*
X006308Y079607D01*
X006325Y079579D01*
X006339Y079549D01*
X006349Y079518D01*
X006355Y079486D01*
X006357Y079453D01*
X006352Y079453D01*
X006350Y079485D01*
X006344Y079517D01*
X006334Y079547D01*
X006321Y079576D01*
X006304Y079604D01*
X006285Y079629D01*
X006262Y079652D01*
X006237Y079672D01*
X006210Y079689D01*
X006181Y079703D01*
X006150Y079713D01*
X006119Y079719D01*
X006118Y079714D01*
X006149Y079708D01*
X006179Y079698D01*
X006207Y079685D01*
X006234Y079668D01*
X006259Y079648D01*
X006281Y079626D01*
X006300Y079601D01*
X006316Y079574D01*
X006329Y079545D01*
X006339Y079515D01*
X006345Y079484D01*
X006347Y079453D01*
X006342Y079453D01*
X006340Y079484D01*
X006334Y079514D01*
X006325Y079544D01*
X006312Y079572D01*
X006296Y079598D01*
X006277Y079623D01*
X006255Y079645D01*
X006231Y079664D01*
X006205Y079680D01*
X006177Y079693D01*
X006148Y079703D01*
X006118Y079709D01*
X006117Y079704D01*
X006147Y079698D01*
X006175Y079689D01*
X006203Y079676D01*
X006228Y079660D01*
X006252Y079641D01*
X006273Y079619D01*
X006292Y079595D01*
X006308Y079569D01*
X006320Y079542D01*
X006329Y079513D01*
X006335Y079483D01*
X006337Y079453D01*
X006332Y079453D01*
X006330Y079483D01*
X006324Y079512D01*
X006315Y079540D01*
X006303Y079567D01*
X006288Y079593D01*
X006270Y079616D01*
X006249Y079637D01*
X006226Y079656D01*
X006200Y079671D01*
X006174Y079684D01*
X006145Y079693D01*
X006116Y079699D01*
X006116Y079694D01*
X006144Y079689D01*
X006172Y079679D01*
X006198Y079667D01*
X006223Y079652D01*
X006245Y079633D01*
X006266Y079613D01*
X006284Y079590D01*
X006299Y079565D01*
X006311Y079538D01*
X006319Y079511D01*
X006325Y079482D01*
X006327Y079453D01*
X004974Y080197D02*
X005028Y080197D01*
X005027Y080197D02*
X005029Y080168D01*
X005035Y080140D01*
X005045Y080113D01*
X005058Y080087D01*
X005074Y080063D01*
X005093Y080041D01*
X005115Y080022D01*
X005140Y080006D01*
X005166Y079994D01*
X005193Y079984D01*
X005180Y079933D01*
X005180Y079932D01*
X005151Y079941D01*
X005124Y079953D01*
X005098Y079969D01*
X005074Y079986D01*
X005051Y080007D01*
X005032Y080030D01*
X005014Y080054D01*
X005000Y080081D01*
X004989Y080108D01*
X004980Y080137D01*
X004975Y080167D01*
X004973Y080197D01*
X004978Y080197D01*
X004980Y080165D01*
X004986Y080133D01*
X004996Y080102D01*
X005009Y080073D01*
X005026Y080046D01*
X005046Y080020D01*
X005069Y079997D01*
X005094Y079977D01*
X005121Y079960D01*
X005150Y079947D01*
X005181Y079937D01*
X005182Y079942D01*
X005152Y079952D01*
X005124Y079965D01*
X005097Y079981D01*
X005072Y080001D01*
X005050Y080024D01*
X005030Y080048D01*
X005014Y080075D01*
X005001Y080104D01*
X004991Y080134D01*
X004985Y080165D01*
X004983Y080197D01*
X004988Y080197D01*
X004990Y080166D01*
X004996Y080136D01*
X005005Y080106D01*
X005018Y080078D01*
X005034Y080051D01*
X005053Y080027D01*
X005075Y080005D01*
X005100Y079986D01*
X005126Y079969D01*
X005154Y079956D01*
X005184Y079947D01*
X005185Y079951D01*
X005156Y079961D01*
X005128Y079974D01*
X005102Y079990D01*
X005079Y080009D01*
X005057Y080030D01*
X005038Y080054D01*
X005023Y080080D01*
X005010Y080108D01*
X005001Y080137D01*
X004995Y080167D01*
X004993Y080197D01*
X004998Y080197D01*
X005000Y080167D01*
X005006Y080138D01*
X005015Y080110D01*
X005027Y080082D01*
X005043Y080057D01*
X005061Y080033D01*
X005082Y080012D01*
X005105Y079994D01*
X005131Y079978D01*
X005158Y079966D01*
X005186Y079956D01*
X005187Y079961D01*
X005159Y079970D01*
X005133Y079983D01*
X005108Y079998D01*
X005085Y080016D01*
X005065Y080037D01*
X005047Y080060D01*
X005032Y080085D01*
X005019Y080111D01*
X005011Y080139D01*
X005005Y080168D01*
X005003Y080197D01*
X005008Y080197D01*
X005010Y080168D01*
X005015Y080140D01*
X005024Y080113D01*
X005036Y080087D01*
X005051Y080063D01*
X005068Y080040D01*
X005089Y080020D01*
X005111Y080002D01*
X005135Y079987D01*
X005161Y079975D01*
X005188Y079966D01*
X005190Y079971D01*
X005163Y079980D01*
X005138Y079991D01*
X005114Y080006D01*
X005092Y080023D01*
X005072Y080043D01*
X005055Y080065D01*
X005040Y080089D01*
X005029Y080115D01*
X005020Y080142D01*
X005015Y080169D01*
X005013Y080197D01*
X005018Y080197D01*
X005020Y080167D01*
X005027Y080137D01*
X005037Y080109D01*
X005050Y080082D01*
X005067Y080057D01*
X005087Y080035D01*
X005110Y080015D01*
X005135Y079998D01*
X005162Y079985D01*
X005191Y079976D01*
X005192Y079981D01*
X005164Y079990D01*
X005138Y080003D01*
X005113Y080019D01*
X005091Y080038D01*
X005071Y080060D01*
X005054Y080085D01*
X005041Y080111D01*
X005031Y080139D01*
X005025Y080168D01*
X005023Y080197D01*
X005149Y082143D02*
X005166Y082092D01*
X005165Y082092D02*
X005140Y082082D01*
X005116Y082068D01*
X005094Y082051D01*
X005075Y082031D01*
X005058Y082008D01*
X005045Y081984D01*
X005035Y081958D01*
X005029Y081931D01*
X005027Y081903D01*
X004974Y081903D01*
X004973Y081903D01*
X004975Y081932D01*
X004980Y081960D01*
X004989Y081988D01*
X005000Y082015D01*
X005014Y082040D01*
X005031Y082063D01*
X005051Y082084D01*
X005073Y082103D01*
X005096Y082120D01*
X005122Y082133D01*
X005149Y082144D01*
X005150Y082139D01*
X005121Y082127D01*
X005094Y082112D01*
X005069Y082094D01*
X005046Y082073D01*
X005026Y082049D01*
X005010Y082022D01*
X004996Y081994D01*
X004986Y081965D01*
X004980Y081934D01*
X004978Y081903D01*
X004983Y081903D01*
X004985Y081933D01*
X004991Y081963D01*
X005001Y081992D01*
X005014Y082020D01*
X005031Y082046D01*
X005050Y082069D01*
X005072Y082090D01*
X005097Y082108D01*
X005124Y082123D01*
X005152Y082134D01*
X005153Y082130D01*
X005126Y082118D01*
X005100Y082104D01*
X005075Y082086D01*
X005054Y082066D01*
X005035Y082043D01*
X005018Y082018D01*
X005006Y081991D01*
X004996Y081962D01*
X004990Y081933D01*
X004988Y081903D01*
X004993Y081903D01*
X004995Y081932D01*
X005001Y081961D01*
X005010Y081989D01*
X005023Y082015D01*
X005039Y082040D01*
X005057Y082062D01*
X005079Y082082D01*
X005102Y082100D01*
X005128Y082114D01*
X005155Y082125D01*
X005156Y082120D01*
X005130Y082109D01*
X005105Y082095D01*
X005082Y082078D01*
X005061Y082059D01*
X005043Y082037D01*
X005027Y082013D01*
X005015Y081987D01*
X005006Y081960D01*
X005000Y081932D01*
X004998Y081903D01*
X005003Y081903D01*
X005005Y081931D01*
X005011Y081958D01*
X005020Y081985D01*
X005032Y082010D01*
X005047Y082034D01*
X005065Y082055D01*
X005085Y082075D01*
X005108Y082091D01*
X005132Y082105D01*
X005158Y082115D01*
X005160Y082111D01*
X005134Y082100D01*
X005110Y082087D01*
X005088Y082071D01*
X005068Y082052D01*
X005051Y082031D01*
X005036Y082008D01*
X005024Y081983D01*
X005015Y081957D01*
X005010Y081930D01*
X005008Y081903D01*
X005013Y081903D01*
X005015Y081930D01*
X005020Y081956D01*
X005029Y081981D01*
X005040Y082005D01*
X005055Y082028D01*
X005072Y082049D01*
X005091Y082067D01*
X005113Y082083D01*
X005136Y082096D01*
X005161Y082106D01*
X005163Y082101D01*
X005138Y082091D01*
X005116Y082078D01*
X005094Y082063D01*
X005075Y082045D01*
X005059Y082025D01*
X005045Y082003D01*
X005033Y081979D01*
X005025Y081955D01*
X005020Y081929D01*
X005018Y081903D01*
X005023Y081903D01*
X005025Y081928D01*
X005030Y081953D01*
X005038Y081978D01*
X005049Y082001D01*
X005063Y082022D01*
X005079Y082042D01*
X005098Y082059D01*
X005118Y082074D01*
X005140Y082087D01*
X005164Y082096D01*
D20*
X006600Y069700D02*
X006700Y069700D01*
X006700Y068700D02*
X006600Y068700D01*
D21*
X005434Y067009D02*
X005434Y066588D01*
X005434Y066799D02*
X006065Y066799D01*
X005960Y066364D02*
X005434Y066364D01*
X005434Y065944D02*
X005960Y065944D01*
X006065Y066049D01*
X006065Y066259D01*
X005960Y066364D01*
X005750Y065720D02*
X005855Y065615D01*
X005855Y065299D01*
X006065Y065299D02*
X005434Y065299D01*
X005434Y065615D01*
X005540Y065720D01*
X005750Y065720D01*
X006065Y065075D02*
X005434Y065075D01*
X005434Y064655D02*
X006065Y065075D01*
X006065Y064655D02*
X005434Y064655D01*
X005434Y064435D02*
X005434Y064225D01*
X005434Y064330D02*
X006065Y064330D01*
X006065Y064225D02*
X006065Y064435D01*
X006065Y060790D02*
X006065Y060370D01*
X006065Y060580D02*
X005434Y060580D01*
X005645Y060370D01*
X005434Y060145D02*
X005434Y059935D01*
X005434Y060040D02*
X005960Y060040D01*
X006065Y059935D01*
X006065Y059830D01*
X005960Y059725D01*
D22*
X007750Y068700D03*
X007750Y069700D03*
D23*
X022600Y040620D03*
X022600Y037780D03*
M02*
