G75*
%MOIN*%
%OFA0B0*%
%FSLAX24Y24*%
%IPPOS*%
%LPD*%
%AMOC8*
5,1,8,0,0,1.08239X$1,22.5*
%
%ADD10C,0.0170*%
%ADD11R,0.0800X0.5160*%
%ADD12OC8,0.0520*%
%ADD13OC8,0.0600*%
%ADD14C,0.0530*%
%ADD15OC8,0.0554*%
%ADD16C,0.0160*%
%ADD17OC8,0.0560*%
%ADD18C,0.0320*%
%ADD19C,0.0480*%
D10*
X049079Y016844D02*
X049433Y016844D01*
X049256Y017021D02*
X049256Y016667D01*
X074109Y016802D02*
X074463Y016802D01*
X074286Y016979D02*
X074286Y016625D01*
X101121Y016802D02*
X101475Y016802D01*
X101298Y016979D02*
X101298Y016625D01*
X101388Y076835D02*
X101388Y077030D01*
X101518Y077160D01*
X101518Y077225D01*
X101388Y077030D02*
X101258Y077160D01*
X101258Y077225D01*
X100486Y077225D02*
X100226Y076835D01*
X100486Y076835D02*
X100226Y077225D01*
X099455Y077225D02*
X099455Y076835D01*
X099325Y076965D01*
X099195Y076835D01*
X099195Y077225D01*
X098424Y077225D02*
X098424Y076965D01*
X098294Y076835D01*
X098164Y076965D01*
X098164Y077225D01*
X097393Y077225D02*
X097393Y076900D01*
X097328Y076835D01*
X097197Y076835D01*
X097132Y076900D01*
X097132Y077225D01*
X096361Y077225D02*
X096101Y077225D01*
X096231Y077225D02*
X096231Y076835D01*
X095330Y076900D02*
X095265Y076835D01*
X095135Y076835D01*
X095070Y076900D01*
X095135Y077030D02*
X095265Y077030D01*
X095330Y076965D01*
X095330Y076900D01*
X095135Y077030D02*
X095070Y077095D01*
X095070Y077160D01*
X095135Y077225D01*
X095265Y077225D01*
X095330Y077160D01*
X094299Y077160D02*
X094299Y077030D01*
X094234Y076965D01*
X094039Y076965D01*
X094169Y076965D02*
X094299Y076835D01*
X094039Y076835D02*
X094039Y077225D01*
X094234Y077225D01*
X094299Y077160D01*
X093267Y077160D02*
X093267Y077030D01*
X093202Y076965D01*
X093007Y076965D01*
X093007Y076835D02*
X093007Y077225D01*
X093202Y077225D01*
X093267Y077160D01*
X092236Y077225D02*
X092236Y076835D01*
X091976Y077225D01*
X091976Y076835D01*
X091205Y076835D02*
X091205Y077225D01*
X091075Y077095D01*
X090945Y077225D01*
X090945Y076835D01*
X090174Y076835D02*
X089913Y076835D01*
X089913Y077225D01*
X089142Y077225D02*
X088882Y076965D01*
X088947Y077030D02*
X089142Y076835D01*
X088882Y076835D02*
X088882Y077225D01*
X088111Y077225D02*
X087981Y077225D01*
X088046Y077225D02*
X088046Y076900D01*
X087981Y076835D01*
X087916Y076835D01*
X087851Y076900D01*
X087080Y076835D02*
X087080Y077225D01*
X087080Y077030D02*
X086820Y077030D01*
X086820Y076835D02*
X086820Y077225D01*
X086049Y077225D02*
X085788Y077225D01*
X085788Y076835D01*
X085788Y077030D02*
X085918Y077030D01*
X085017Y076835D02*
X084757Y076835D01*
X084757Y077225D01*
X085017Y077225D01*
X084887Y077030D02*
X084757Y077030D01*
X083986Y076900D02*
X083986Y077160D01*
X083921Y077225D01*
X083726Y077225D01*
X083726Y076835D01*
X083921Y076835D01*
X083986Y076900D01*
X082955Y076900D02*
X082890Y076835D01*
X082760Y076835D01*
X082694Y076900D01*
X082694Y077160D01*
X082760Y077225D01*
X082890Y077225D01*
X082955Y077160D01*
X081923Y077160D02*
X081923Y077095D01*
X081858Y077030D01*
X081663Y077030D01*
X081663Y076835D02*
X081858Y076835D01*
X081923Y076900D01*
X081923Y076965D01*
X081858Y077030D01*
X081923Y077160D02*
X081858Y077225D01*
X081663Y077225D01*
X081663Y076835D01*
X080892Y076835D02*
X080892Y077095D01*
X080762Y077225D01*
X080632Y077095D01*
X080632Y076835D01*
X080632Y077030D02*
X080892Y077030D01*
X080377Y077030D02*
X080116Y077030D01*
X080116Y076900D02*
X080377Y077160D01*
X080246Y077160D02*
X080246Y076900D01*
X080377Y076900D02*
X080116Y077160D01*
X079861Y077160D02*
X079796Y077225D01*
X079666Y077225D01*
X079601Y077160D01*
X079601Y077095D01*
X079666Y077030D01*
X079796Y077030D01*
X079861Y076965D01*
X079861Y076900D01*
X079796Y076835D01*
X079666Y076835D01*
X079601Y076900D01*
X079345Y076900D02*
X079280Y076835D01*
X079150Y076835D01*
X079085Y076900D01*
X079085Y077160D01*
X079150Y077225D01*
X079280Y077225D01*
X079345Y077160D01*
X102289Y077225D02*
X102549Y077225D01*
X102549Y077160D01*
X102289Y076900D01*
X102289Y076835D01*
X102549Y076835D01*
D11*
X075375Y081375D03*
X074125Y081375D03*
X072875Y081375D03*
X071625Y081375D03*
X070375Y081375D03*
X069125Y081375D03*
X067875Y081375D03*
X066625Y081375D03*
X065375Y081375D03*
X064125Y081375D03*
X062875Y081375D03*
X061625Y081375D03*
X060375Y081375D03*
X059125Y081375D03*
X057875Y081375D03*
X056625Y081375D03*
X055375Y081375D03*
X054125Y081375D03*
X050875Y081375D03*
X049625Y081375D03*
X048375Y081375D03*
X047125Y081375D03*
X045875Y081375D03*
X044625Y081375D03*
X043375Y081375D03*
X042125Y081375D03*
X040875Y081375D03*
X039625Y081375D03*
X038375Y081375D03*
X037125Y081375D03*
X035875Y081375D03*
X034625Y081375D03*
X033375Y081375D03*
X032125Y081375D03*
X030875Y081375D03*
X029625Y081375D03*
X023375Y081375D03*
X022125Y081375D03*
X020875Y081375D03*
X019625Y081375D03*
X018375Y081375D03*
X017125Y081375D03*
X015875Y081375D03*
X014625Y081375D03*
X013375Y081375D03*
X012125Y081375D03*
X010875Y081375D03*
X009625Y081375D03*
X008375Y081375D03*
X007125Y081375D03*
X005875Y081375D03*
X004625Y081375D03*
X003375Y081375D03*
X002125Y081375D03*
X002125Y003625D03*
X003375Y003625D03*
X004625Y003625D03*
X005875Y003625D03*
X007125Y003625D03*
X008375Y003625D03*
X009625Y003625D03*
X010875Y003625D03*
X012125Y003625D03*
X013375Y003625D03*
X014625Y003625D03*
X015875Y003625D03*
X017125Y003625D03*
X018375Y003625D03*
X019625Y003625D03*
X020875Y003625D03*
X022125Y003625D03*
X023375Y003625D03*
X029625Y003625D03*
X030875Y003625D03*
X032125Y003625D03*
X033375Y003625D03*
X034625Y003625D03*
X035875Y003625D03*
X037125Y003625D03*
X038375Y003625D03*
X039625Y003625D03*
X040875Y003625D03*
X042125Y003625D03*
X043375Y003625D03*
X044625Y003625D03*
X045875Y003625D03*
X047125Y003625D03*
X048375Y003625D03*
X049625Y003625D03*
X050875Y003625D03*
X054625Y003625D03*
X055875Y003625D03*
X057125Y003625D03*
X058375Y003625D03*
X059625Y003625D03*
X060875Y003625D03*
X062125Y003625D03*
X063375Y003625D03*
X064625Y003625D03*
X065875Y003625D03*
X067125Y003625D03*
X068375Y003625D03*
X069625Y003625D03*
X070875Y003625D03*
X072125Y003625D03*
X073375Y003625D03*
X074625Y003625D03*
X075875Y003625D03*
X082125Y003625D03*
X083375Y003625D03*
X084625Y003625D03*
X085875Y003625D03*
X087125Y003625D03*
X088375Y003625D03*
X089625Y003625D03*
X090875Y003625D03*
X092125Y003625D03*
X093375Y003625D03*
X094625Y003625D03*
X095875Y003625D03*
X097125Y003625D03*
X098375Y003625D03*
X099625Y003625D03*
X100875Y003625D03*
X102125Y003625D03*
X103375Y003625D03*
D12*
X057000Y030500D03*
X057000Y033000D03*
X056356Y038036D03*
X053860Y038036D03*
X056000Y043250D03*
X056000Y046000D03*
X056484Y050004D03*
X053924Y050068D03*
X060500Y055000D03*
X060500Y057500D03*
X061348Y047124D03*
X061412Y044692D03*
X065500Y045500D03*
X065500Y043000D03*
X048356Y043668D03*
X048356Y041172D03*
X043500Y044000D03*
X041000Y044000D03*
X027500Y045500D03*
X025000Y045500D03*
X021412Y044692D03*
X021348Y047124D03*
X016000Y046000D03*
X016000Y043250D03*
X016356Y038036D03*
X013860Y038036D03*
X016500Y034000D03*
X016500Y031500D03*
X008356Y041172D03*
X008356Y043668D03*
X004000Y045500D03*
X001500Y045500D03*
X013924Y050068D03*
X016484Y050004D03*
X020500Y055000D03*
X020500Y057500D03*
X029500Y072500D03*
X030500Y073000D03*
X031500Y072500D03*
X032500Y072500D03*
X033500Y072500D03*
X034500Y073000D03*
X036000Y072500D03*
X038500Y072500D03*
X040500Y072500D03*
X042500Y072500D03*
X042500Y076500D03*
X040500Y076500D03*
X038500Y076500D03*
X036000Y076500D03*
X034500Y077000D03*
X033500Y076500D03*
X032500Y076500D03*
X031500Y076500D03*
X030500Y077000D03*
X029500Y076500D03*
X055500Y076500D03*
X055500Y072500D03*
X064500Y072500D03*
X064500Y076500D03*
D13*
X073500Y017500D03*
X073500Y009500D03*
X048500Y009500D03*
X048500Y017500D03*
X101000Y017500D03*
X101000Y009500D03*
D14*
X052000Y017500D03*
X052000Y018000D03*
X050000Y018000D03*
X050000Y017500D03*
D15*
X050500Y035500D03*
X049500Y035500D03*
X049500Y036500D03*
X050500Y036500D03*
X051500Y036500D03*
X051500Y035500D03*
X052500Y035500D03*
X052500Y036500D03*
X053500Y036500D03*
X053500Y035500D03*
X054500Y035500D03*
X054500Y036500D03*
X055500Y036500D03*
X055500Y035500D03*
X056500Y035500D03*
X056500Y036500D03*
X057500Y036500D03*
X057500Y035500D03*
X058500Y035500D03*
X058500Y036500D03*
X059500Y036500D03*
X059500Y035500D03*
X060500Y035500D03*
X060500Y036500D03*
X061500Y036500D03*
X061500Y035500D03*
X062500Y035500D03*
X062500Y036500D03*
X063500Y036500D03*
X063500Y035500D03*
X063500Y037500D03*
X063500Y038500D03*
X063500Y039500D03*
X063500Y040500D03*
X063500Y041500D03*
X062500Y041500D03*
X062500Y040500D03*
X062500Y039500D03*
X062500Y038500D03*
X062500Y037500D03*
X062500Y042500D03*
X062500Y043500D03*
X062500Y044500D03*
X062500Y045500D03*
X062500Y046500D03*
X062500Y047500D03*
X063500Y047500D03*
X063500Y046500D03*
X063500Y045500D03*
X063500Y044500D03*
X063500Y043500D03*
X063500Y042500D03*
X063500Y048500D03*
X063500Y049500D03*
X063500Y050500D03*
X063500Y051500D03*
X063500Y052500D03*
X063500Y053500D03*
X062500Y053500D03*
X062500Y052500D03*
X062500Y051500D03*
X062500Y050500D03*
X062500Y049500D03*
X062500Y048500D03*
X061500Y052500D03*
X061500Y053500D03*
X060500Y053500D03*
X060500Y052500D03*
X059500Y052500D03*
X059500Y053500D03*
X058500Y053500D03*
X058500Y052500D03*
X057500Y052500D03*
X057500Y053500D03*
X056500Y053500D03*
X056500Y052500D03*
X055500Y052500D03*
X055500Y053500D03*
X054500Y053500D03*
X054500Y052500D03*
X053500Y052500D03*
X053500Y053500D03*
X052500Y053500D03*
X052500Y052500D03*
X051500Y052500D03*
X051500Y053500D03*
X050500Y053500D03*
X049500Y053500D03*
X049500Y052500D03*
X050500Y052500D03*
X048500Y052500D03*
X048500Y053500D03*
X047500Y053500D03*
X047500Y052500D03*
X046500Y052500D03*
X046500Y051500D03*
X046500Y050500D03*
X046500Y049500D03*
X046500Y048500D03*
X045500Y048500D03*
X045500Y049500D03*
X045500Y050500D03*
X045500Y051500D03*
X045500Y052500D03*
X045500Y053500D03*
X046500Y053500D03*
X046500Y047500D03*
X046500Y046500D03*
X046500Y045500D03*
X046500Y044500D03*
X046500Y043500D03*
X046500Y042500D03*
X045500Y042500D03*
X045500Y043500D03*
X045500Y044500D03*
X045500Y045500D03*
X045500Y046500D03*
X045500Y047500D03*
X045500Y041500D03*
X045500Y040500D03*
X045500Y039500D03*
X045500Y038500D03*
X045500Y037500D03*
X046500Y037500D03*
X046500Y038500D03*
X046500Y039500D03*
X046500Y040500D03*
X046500Y041500D03*
X046500Y036500D03*
X046500Y035500D03*
X045500Y035500D03*
X045500Y036500D03*
X047500Y036500D03*
X047500Y035500D03*
X048500Y035500D03*
X048500Y036500D03*
X023500Y036500D03*
X023500Y035500D03*
X022500Y035500D03*
X022500Y036500D03*
X021500Y036500D03*
X021500Y035500D03*
X020500Y035500D03*
X020500Y036500D03*
X019500Y036500D03*
X019500Y035500D03*
X018500Y035500D03*
X018500Y036500D03*
X017500Y036500D03*
X017500Y035500D03*
X016500Y035500D03*
X016500Y036500D03*
X015500Y036500D03*
X015500Y035500D03*
X014500Y035500D03*
X014500Y036500D03*
X013500Y036500D03*
X013500Y035500D03*
X012500Y035500D03*
X012500Y036500D03*
X011500Y036500D03*
X011500Y035500D03*
X010500Y035500D03*
X009500Y035500D03*
X009500Y036500D03*
X010500Y036500D03*
X008500Y036500D03*
X008500Y035500D03*
X007500Y035500D03*
X007500Y036500D03*
X006500Y036500D03*
X006500Y035500D03*
X005500Y035500D03*
X005500Y036500D03*
X005500Y037500D03*
X005500Y038500D03*
X005500Y039500D03*
X005500Y040500D03*
X005500Y041500D03*
X006500Y041500D03*
X006500Y040500D03*
X006500Y039500D03*
X006500Y038500D03*
X006500Y037500D03*
X006500Y042500D03*
X006500Y043500D03*
X006500Y044500D03*
X006500Y045500D03*
X006500Y046500D03*
X006500Y047500D03*
X005500Y047500D03*
X005500Y046500D03*
X005500Y045500D03*
X005500Y044500D03*
X005500Y043500D03*
X005500Y042500D03*
X005500Y048500D03*
X005500Y049500D03*
X005500Y050500D03*
X005500Y051500D03*
X005500Y052500D03*
X005500Y053500D03*
X006500Y053500D03*
X006500Y052500D03*
X006500Y051500D03*
X006500Y050500D03*
X006500Y049500D03*
X006500Y048500D03*
X007500Y052500D03*
X007500Y053500D03*
X008500Y053500D03*
X008500Y052500D03*
X009500Y052500D03*
X010500Y052500D03*
X010500Y053500D03*
X009500Y053500D03*
X011500Y053500D03*
X011500Y052500D03*
X012500Y052500D03*
X012500Y053500D03*
X013500Y053500D03*
X013500Y052500D03*
X014500Y052500D03*
X014500Y053500D03*
X015500Y053500D03*
X015500Y052500D03*
X016500Y052500D03*
X016500Y053500D03*
X017500Y053500D03*
X017500Y052500D03*
X018500Y052500D03*
X018500Y053500D03*
X019500Y053500D03*
X019500Y052500D03*
X020500Y052500D03*
X020500Y053500D03*
X021500Y053500D03*
X021500Y052500D03*
X022500Y052500D03*
X022500Y051500D03*
X022500Y050500D03*
X022500Y049500D03*
X022500Y048500D03*
X023500Y048500D03*
X023500Y049500D03*
X023500Y050500D03*
X023500Y051500D03*
X023500Y052500D03*
X023500Y053500D03*
X022500Y053500D03*
X022500Y047500D03*
X022500Y046500D03*
X022500Y045500D03*
X022500Y044500D03*
X022500Y043500D03*
X022500Y042500D03*
X023500Y042500D03*
X023500Y043500D03*
X023500Y044500D03*
X023500Y045500D03*
X023500Y046500D03*
X023500Y047500D03*
X023500Y041500D03*
X023500Y040500D03*
X023500Y039500D03*
X023500Y038500D03*
X023500Y037500D03*
X022500Y037500D03*
X022500Y038500D03*
X022500Y039500D03*
X022500Y040500D03*
X022500Y041500D03*
D16*
X002000Y038500D02*
X002000Y003625D01*
X002125Y003625D01*
X003375Y003625D02*
X003375Y003875D01*
X003500Y004000D01*
X003500Y039500D01*
X004500Y040500D01*
X005500Y040500D01*
X005524Y040388D01*
X005780Y040004D01*
X007060Y040004D01*
X008852Y040196D01*
X010132Y041924D01*
X010481Y041925D01*
X010481Y042181D02*
X010004Y042180D01*
X008724Y040452D01*
X007060Y040388D01*
X006548Y040388D01*
X006500Y040500D01*
X006036Y040964D02*
X006996Y040964D01*
X008212Y040708D01*
X008596Y040708D01*
X009876Y042436D01*
X010481Y042437D01*
X010481Y042693D02*
X009748Y042692D01*
X008356Y041172D01*
X008376Y041176D01*
X008356Y041172D02*
X008084Y041156D01*
X007060Y041412D01*
X006548Y041412D01*
X006500Y041500D01*
X006036Y041988D02*
X007060Y041988D01*
X009108Y042436D01*
X009620Y042948D01*
X010481Y042949D01*
X010481Y043204D02*
X009620Y043204D01*
X009492Y043204D01*
X008852Y042692D01*
X007060Y042436D01*
X006548Y042436D01*
X006500Y042500D01*
X006036Y041988D02*
X005524Y042436D01*
X005500Y042500D01*
X005972Y043012D02*
X008788Y043012D01*
X009364Y043460D01*
X010481Y043460D01*
X010481Y043716D02*
X014996Y043716D01*
X014996Y044484D01*
X019221Y044484D01*
X020116Y044484D01*
X021204Y044484D01*
X021330Y044575D01*
X021412Y044692D01*
X021330Y044575D02*
X021908Y044996D01*
X022932Y044996D01*
X023444Y045508D01*
X023500Y045500D01*
X022932Y046020D02*
X021716Y046020D01*
X020692Y044996D01*
X019221Y044996D01*
X019221Y045252D02*
X020564Y045252D01*
X021844Y046532D01*
X022420Y046532D01*
X022500Y046500D01*
X022868Y046980D02*
X021396Y046980D01*
X021348Y047124D01*
X021396Y046980D02*
X021396Y046468D01*
X020436Y045508D01*
X019221Y045508D01*
X019221Y045763D02*
X019604Y045764D01*
X020308Y045764D01*
X020884Y047300D01*
X021204Y047620D01*
X022420Y047620D01*
X022500Y047500D01*
X022868Y046980D02*
X022868Y046980D01*
X023500Y047500D01*
X023124Y048004D02*
X021204Y048004D01*
X020692Y047492D01*
X020116Y046020D01*
X019221Y046019D01*
X019221Y046275D02*
X019924Y046276D01*
X020436Y047620D01*
X021140Y048324D01*
X022164Y048324D01*
X022500Y048500D01*
X022932Y049028D02*
X021460Y049028D01*
X020180Y047748D01*
X019732Y046532D01*
X019221Y046531D01*
X019221Y046787D02*
X019348Y046788D01*
X019540Y046788D01*
X019860Y047812D01*
X021652Y049604D01*
X022420Y049604D01*
X022500Y049500D01*
X023000Y050000D01*
X024000Y050000D01*
X024500Y050500D01*
X024500Y059000D01*
X025000Y058500D02*
X025000Y050000D01*
X024500Y049500D01*
X023500Y049500D01*
X023444Y049348D01*
X022932Y049028D01*
X023500Y048500D02*
X023444Y048324D01*
X023124Y048004D01*
X024000Y048000D02*
X024500Y048000D01*
X026000Y049500D01*
X026000Y057500D01*
X025500Y058000D02*
X025500Y050000D01*
X024500Y049000D01*
X024000Y047000D02*
X026500Y049500D01*
X026500Y057000D01*
X027000Y056500D02*
X027000Y049000D01*
X024500Y046500D01*
X023500Y046500D01*
X023444Y046532D01*
X022932Y046020D01*
X022500Y045500D02*
X022420Y045508D01*
X021588Y045508D01*
X020820Y044740D01*
X020116Y044740D01*
X019221Y044740D01*
X019221Y044228D02*
X020116Y044228D01*
X021524Y044228D01*
X021908Y044484D01*
X022420Y044484D01*
X022500Y044500D01*
X022932Y043972D02*
X023444Y044484D01*
X023500Y044500D01*
X024500Y045500D01*
X024500Y046000D01*
X027500Y049000D01*
X027500Y056000D01*
X028000Y053000D02*
X040500Y040500D01*
X045500Y040500D01*
X045524Y040388D01*
X045780Y040004D01*
X047060Y040004D01*
X048852Y040196D01*
X050132Y041924D01*
X050481Y041925D01*
X050481Y042181D02*
X050004Y042180D01*
X048724Y040452D01*
X047060Y040388D01*
X046548Y040388D01*
X046500Y040500D01*
X046036Y040964D02*
X046996Y040964D01*
X048212Y040708D01*
X048596Y040708D01*
X049876Y042436D01*
X050481Y042437D01*
X050481Y042693D02*
X049748Y042692D01*
X048356Y041172D01*
X048376Y041176D01*
X048356Y041172D02*
X048084Y041156D01*
X047060Y041412D01*
X046548Y041412D01*
X046500Y041500D01*
X046036Y041988D02*
X047060Y041988D01*
X049108Y042436D01*
X049620Y042948D01*
X050481Y042949D01*
X050481Y043204D02*
X049620Y043204D01*
X049492Y043204D01*
X048852Y042692D01*
X047060Y042436D01*
X046548Y042436D01*
X046500Y042500D01*
X046036Y041988D02*
X045524Y042436D01*
X045500Y042500D01*
X040000Y042500D01*
X030000Y052500D01*
X030000Y068500D01*
X030000Y076000D01*
X030500Y077000D01*
X031000Y077500D01*
X031500Y078000D02*
X031500Y076500D01*
X031500Y075500D01*
X031000Y075000D01*
X031000Y068000D01*
X031000Y052000D01*
X040000Y043000D01*
X044500Y043000D01*
X045500Y043500D02*
X040000Y043500D01*
X032000Y051500D01*
X032000Y067500D01*
X032000Y076000D01*
X032500Y076500D01*
X033500Y076500D02*
X034000Y076000D01*
X034000Y066500D01*
X034000Y050500D01*
X039500Y045000D01*
X044500Y045000D01*
X045500Y045500D02*
X039500Y045500D01*
X035000Y050000D01*
X035000Y066000D01*
X035000Y076500D01*
X034500Y077000D01*
X034500Y081000D01*
X034625Y081125D01*
X034625Y081375D01*
X033375Y081375D02*
X033375Y080625D01*
X033500Y080500D01*
X033500Y078500D01*
X033000Y078000D01*
X033000Y067000D01*
X033000Y051000D01*
X039500Y044500D01*
X045500Y044500D01*
X045524Y044484D01*
X046036Y043972D01*
X048020Y043972D01*
X048148Y044100D01*
X048596Y044100D01*
X048724Y043972D01*
X050481Y043972D01*
X050481Y043716D02*
X054996Y043716D01*
X054996Y044484D01*
X059221Y044484D01*
X060116Y044484D01*
X061204Y044484D01*
X061330Y044575D01*
X061412Y044692D01*
X061330Y044575D02*
X061908Y044996D01*
X062932Y044996D01*
X063444Y045508D01*
X063500Y045500D01*
X062932Y046020D02*
X061716Y046020D01*
X060692Y044996D01*
X059221Y044996D01*
X059221Y045252D02*
X060564Y045252D01*
X061844Y046532D01*
X062420Y046532D01*
X062500Y046500D01*
X062868Y046980D02*
X061396Y046980D01*
X061348Y047124D01*
X061396Y046980D02*
X061396Y046468D01*
X060436Y045508D01*
X059221Y045508D01*
X059221Y045763D02*
X059604Y045764D01*
X060308Y045764D01*
X060884Y047300D01*
X061204Y047620D01*
X062420Y047620D01*
X062500Y047500D01*
X062868Y046980D02*
X062868Y046980D01*
X063500Y047500D01*
X063124Y048004D02*
X061204Y048004D01*
X060692Y047492D01*
X060116Y046020D01*
X059221Y046019D01*
X059221Y046275D02*
X059924Y046276D01*
X060436Y047620D01*
X061140Y048324D01*
X062164Y048324D01*
X062500Y048500D01*
X062932Y049028D02*
X061460Y049028D01*
X060180Y047748D01*
X059732Y046532D01*
X059221Y046531D01*
X059221Y046787D02*
X059348Y046788D01*
X059540Y046788D01*
X059860Y047812D01*
X061652Y049604D01*
X062420Y049604D01*
X062500Y049500D01*
X063000Y050000D01*
X063000Y054000D01*
X062500Y054500D01*
X062500Y074500D01*
X064500Y076500D01*
X064500Y077000D01*
X064000Y077500D01*
X063000Y077500D02*
X061500Y076000D01*
X061500Y053500D01*
X061652Y053444D01*
X061972Y053124D01*
X061972Y051972D01*
X058580Y047940D01*
X058562Y047545D01*
X058306Y047545D02*
X058324Y048004D01*
X061396Y051908D01*
X061396Y052420D01*
X061500Y052500D01*
X061012Y053060D02*
X061012Y051908D01*
X058068Y048132D01*
X058050Y047545D01*
X058068Y046020D01*
X056000Y046000D01*
X055980Y046020D01*
X054228Y046020D01*
X054211Y047545D01*
X054228Y048580D01*
X053972Y049860D01*
X053952Y049904D01*
X053924Y050068D01*
X053460Y051908D01*
X053460Y052420D01*
X053500Y052500D01*
X053972Y052932D02*
X053460Y053444D01*
X053500Y053500D01*
X053500Y077750D01*
X054125Y078375D01*
X054125Y081375D01*
X055375Y081375D02*
X055375Y080625D01*
X055500Y080500D01*
X055500Y078000D01*
X054500Y077000D01*
X054500Y053500D01*
X054484Y053444D01*
X054996Y052932D01*
X054996Y052420D01*
X054979Y047545D01*
X055235Y047545D02*
X055252Y048580D01*
X055508Y051908D01*
X055500Y052500D01*
X056020Y052932D02*
X055508Y053444D01*
X055500Y053500D01*
X055000Y054000D01*
X055000Y076000D01*
X055500Y076500D01*
X056000Y078000D02*
X056000Y054000D01*
X056500Y053500D02*
X056532Y053444D01*
X056980Y052932D01*
X056980Y051908D01*
X056532Y050116D01*
X056484Y050004D01*
X056276Y049604D01*
X056020Y048644D01*
X056003Y047545D01*
X056258Y047545D02*
X056276Y048644D01*
X056916Y049732D01*
X057556Y051908D01*
X057556Y052420D01*
X057500Y052500D01*
X058004Y051908D02*
X058004Y053188D01*
X057500Y053500D01*
X057500Y077000D01*
X058000Y077500D01*
X058000Y078500D02*
X057000Y077500D01*
X057000Y054000D01*
X056020Y052932D02*
X056020Y051908D01*
X055508Y048580D01*
X055491Y047545D01*
X055747Y047545D02*
X055764Y048580D01*
X056020Y050116D01*
X056532Y051908D01*
X056532Y052420D01*
X056500Y052500D01*
X058004Y051908D02*
X057172Y049668D01*
X056532Y048580D01*
X056514Y047545D01*
X056770Y047545D02*
X056788Y048516D01*
X057428Y049540D01*
X058452Y051908D01*
X058452Y052420D01*
X058500Y052500D01*
X059028Y051908D02*
X059028Y053188D01*
X058580Y053444D01*
X058500Y053500D01*
X058500Y076000D01*
X060000Y077500D01*
X060000Y078000D01*
X060500Y078500D01*
X060500Y080500D01*
X060375Y080625D01*
X060375Y081375D01*
X061625Y081375D02*
X061625Y080625D01*
X061500Y080500D01*
X061500Y078500D01*
X061000Y078000D01*
X061000Y077000D01*
X059500Y075500D01*
X059500Y053500D01*
X059604Y053444D01*
X059988Y053188D01*
X059988Y051908D01*
X057556Y048324D01*
X057538Y047545D01*
X057282Y047545D02*
X057300Y048388D01*
X059476Y051908D01*
X059476Y052420D01*
X059500Y052500D01*
X059028Y051908D02*
X057684Y049476D01*
X057044Y048452D01*
X057026Y047545D01*
X057794Y047545D02*
X057812Y048260D01*
X060436Y051908D01*
X060436Y052420D01*
X060500Y052500D01*
X061012Y053060D02*
X060628Y053444D01*
X060500Y053500D01*
X061000Y054000D02*
X061000Y076000D01*
X062500Y077500D01*
X062500Y078000D01*
X063000Y078500D01*
X063000Y080500D01*
X062875Y080625D01*
X062875Y081375D01*
X065375Y081375D02*
X065375Y080625D01*
X065500Y080500D01*
X065500Y078500D01*
X065000Y078000D01*
X065000Y075000D01*
X066000Y075500D02*
X066000Y078000D01*
X066500Y078500D01*
X066500Y081250D01*
X066625Y081375D01*
X067875Y081375D02*
X068000Y081250D01*
X068000Y078500D01*
X067500Y078000D01*
X067500Y049000D01*
X067000Y048500D01*
X063500Y048500D01*
X063444Y048324D01*
X063124Y048004D01*
X062932Y049028D02*
X063444Y049348D01*
X063500Y049500D01*
X064500Y049500D01*
X065500Y050500D01*
X065500Y077500D01*
X066500Y077500D02*
X066500Y051000D01*
X064500Y049000D01*
X064500Y048000D02*
X067000Y048000D01*
X068000Y049000D01*
X068000Y077500D01*
X068500Y078000D02*
X069000Y078500D01*
X069000Y081000D01*
X069125Y081125D01*
X069125Y081375D01*
X071500Y080500D02*
X071500Y078500D01*
X071000Y078000D01*
X071000Y047000D01*
X067500Y043500D01*
X063500Y043500D01*
X063444Y043460D01*
X062932Y043012D01*
X061908Y043012D01*
X060116Y043460D01*
X059221Y043460D01*
X059221Y043204D02*
X056020Y043204D01*
X056020Y043230D01*
X056000Y043250D01*
X056003Y041167D01*
X056008Y040632D01*
X056008Y039864D01*
X056264Y038072D01*
X056356Y038036D01*
X057032Y037048D01*
X057032Y036024D01*
X056520Y035512D01*
X056500Y035500D01*
X056000Y035000D02*
X056000Y034500D01*
X045500Y024000D01*
X045500Y019000D01*
X045500Y008000D01*
X047000Y008000D02*
X047000Y020000D01*
X047000Y024000D01*
X057500Y034500D01*
X057500Y035500D01*
X057992Y036024D01*
X057992Y037048D01*
X056520Y039864D01*
X056514Y041167D01*
X056258Y041167D02*
X056264Y039800D01*
X057544Y037048D01*
X057500Y036500D01*
X056500Y036500D02*
X056520Y037048D01*
X055944Y037688D01*
X055752Y039864D01*
X055747Y041167D01*
X055491Y041167D02*
X055496Y039864D01*
X055688Y037624D01*
X056008Y037048D01*
X056008Y036024D01*
X055500Y035500D01*
X055500Y034500D01*
X043500Y022500D01*
X043500Y018500D01*
X043500Y008000D01*
X042000Y008000D02*
X042000Y018000D01*
X039500Y019500D02*
X054500Y034500D01*
X054500Y035500D01*
X054728Y035768D01*
X054984Y036024D01*
X054984Y037048D01*
X054979Y041167D01*
X055235Y041167D02*
X055240Y040632D01*
X055240Y039864D01*
X055368Y037048D01*
X055500Y036500D01*
X054500Y036500D02*
X054472Y036536D01*
X054472Y037048D01*
X054728Y039608D01*
X054728Y040632D01*
X054723Y041167D01*
X054467Y041167D02*
X054472Y040632D01*
X054472Y039608D01*
X054280Y037880D01*
X053960Y037048D01*
X053960Y036024D01*
X053704Y035768D01*
X053500Y035500D01*
X053500Y034500D01*
X038000Y019000D01*
X038000Y017500D01*
X038000Y008000D01*
X039500Y008000D02*
X039500Y019500D01*
X038500Y019000D02*
X054000Y034500D01*
X054000Y035000D01*
X053000Y036024D02*
X053000Y037048D01*
X053960Y039608D01*
X053960Y040632D01*
X053955Y041167D01*
X053699Y041167D02*
X053704Y040632D01*
X053704Y039672D01*
X052488Y037048D01*
X052500Y036500D01*
X053000Y036024D02*
X052680Y035768D01*
X052500Y035500D01*
X052000Y035000D02*
X052000Y034000D01*
X036000Y018000D01*
X036000Y008000D01*
X034000Y008000D02*
X034000Y017000D01*
X051000Y034000D01*
X051000Y035000D01*
X051500Y035500D02*
X051500Y034000D01*
X034500Y017000D01*
X034500Y016500D01*
X034500Y004000D01*
X034625Y003875D01*
X034625Y003625D01*
X033500Y004000D02*
X033500Y017000D01*
X050500Y034000D01*
X050500Y035500D01*
X050632Y035768D01*
X051016Y036024D01*
X051016Y037048D01*
X052936Y039864D01*
X052936Y040632D01*
X052932Y041167D01*
X053188Y041167D02*
X053192Y040632D01*
X053192Y039800D01*
X051528Y037048D01*
X051528Y036536D01*
X051500Y036500D01*
X051976Y036024D02*
X051976Y037048D01*
X053448Y039736D01*
X053448Y040632D01*
X053444Y041167D01*
X054211Y041167D02*
X054216Y040632D01*
X054216Y039608D01*
X053896Y038328D01*
X053860Y038036D01*
X053896Y038328D02*
X053448Y036536D01*
X053500Y036500D01*
X051976Y036024D02*
X051656Y035768D01*
X051500Y035500D01*
X050500Y036500D02*
X050000Y035750D01*
X050000Y034000D01*
X033000Y017000D01*
X033000Y008000D01*
X029500Y004500D02*
X029500Y014500D01*
X048000Y033000D01*
X048000Y034000D01*
X048500Y034500D01*
X048500Y035500D01*
X048584Y035512D01*
X049032Y035960D01*
X049032Y037048D01*
X051912Y040248D01*
X051912Y040632D01*
X051912Y040637D01*
X051908Y041167D01*
X051652Y041167D02*
X051656Y040637D01*
X051656Y040376D01*
X048520Y037048D01*
X048500Y036500D01*
X048008Y036024D02*
X047560Y035512D01*
X047500Y035500D01*
X047500Y034500D01*
X046500Y033500D01*
X045000Y033500D01*
X044500Y033000D02*
X046500Y033000D01*
X048000Y034500D01*
X048000Y035000D01*
X048008Y036024D02*
X048008Y037048D01*
X051400Y040504D01*
X051400Y040641D01*
X051396Y041167D01*
X051140Y041167D02*
X051144Y040632D01*
X047496Y037048D01*
X047500Y036500D01*
X049500Y036500D02*
X049544Y037048D01*
X052168Y040120D01*
X052168Y040637D01*
X052164Y041167D01*
X052180Y043204D01*
X056020Y043204D01*
X056770Y041167D02*
X056776Y039928D01*
X058568Y037048D01*
X058568Y036536D01*
X058500Y036500D01*
X059016Y036024D02*
X058500Y035500D01*
X058500Y034500D01*
X059500Y033500D01*
X061500Y033500D01*
X086000Y009000D01*
X086000Y004500D01*
X085875Y004375D01*
X085875Y003625D01*
X088375Y003625D02*
X088375Y003875D01*
X088500Y004000D01*
X088500Y024000D01*
X091000Y024500D02*
X091000Y004000D01*
X090875Y003875D01*
X090875Y003625D01*
X092000Y004000D02*
X092000Y025000D01*
X093500Y025500D02*
X093500Y004000D01*
X093375Y003875D01*
X093375Y003625D01*
X092125Y003625D02*
X092125Y003875D01*
X092000Y004000D01*
X082000Y008000D02*
X082000Y010500D01*
X058000Y034500D01*
X058000Y035000D01*
X057000Y035000D02*
X057000Y034500D01*
X046000Y023500D01*
X046000Y019500D01*
X046000Y004500D01*
X045875Y004375D01*
X045875Y003625D01*
X038500Y004500D02*
X038500Y019000D01*
X030000Y018500D02*
X028000Y018500D01*
X015500Y031000D01*
X015500Y035500D01*
X016008Y036024D01*
X016008Y037048D01*
X015688Y037624D01*
X015496Y039864D01*
X015491Y041167D01*
X015747Y041167D02*
X015752Y039864D01*
X015944Y037688D01*
X016520Y037048D01*
X016500Y036500D01*
X017032Y036024D02*
X016520Y035512D01*
X016500Y035500D01*
X016000Y035000D02*
X016000Y031000D01*
X028000Y019000D01*
X029500Y019000D01*
X030000Y019500D02*
X028000Y019500D01*
X017500Y030000D01*
X017500Y035500D01*
X017992Y036024D01*
X017992Y037048D01*
X016520Y039864D01*
X016514Y041167D01*
X016258Y041167D02*
X016264Y039800D01*
X017544Y037048D01*
X017500Y036500D01*
X017032Y036024D02*
X017032Y037048D01*
X016356Y038036D01*
X016264Y038072D01*
X016008Y039864D01*
X016008Y040632D01*
X016003Y041167D01*
X016000Y043250D01*
X016020Y043230D01*
X016020Y043204D01*
X019221Y043204D01*
X019924Y043204D01*
X021908Y042436D01*
X022420Y042436D01*
X022500Y042500D01*
X022932Y043012D02*
X023444Y043460D01*
X023500Y043500D01*
X022932Y043972D02*
X019221Y043972D01*
X019221Y043716D02*
X020116Y043716D01*
X021908Y043460D01*
X022420Y043460D01*
X022500Y043500D01*
X022932Y043012D02*
X021908Y043012D01*
X020116Y043460D01*
X019221Y043460D01*
X019221Y042949D02*
X019860Y042948D01*
X021908Y041988D01*
X022932Y041988D01*
X023444Y042436D01*
X023500Y042500D01*
X024500Y042500D01*
X026500Y040500D01*
X026500Y026500D01*
X028000Y025000D01*
X029500Y025000D01*
X030000Y024500D02*
X028000Y024500D01*
X026000Y026500D01*
X026000Y040500D01*
X024500Y042000D01*
X024000Y042000D01*
X023500Y041500D02*
X024500Y041500D01*
X025500Y040500D01*
X025500Y026500D01*
X028000Y024000D01*
X029500Y024000D01*
X030000Y023500D02*
X028000Y023500D01*
X025000Y026500D01*
X025000Y040500D01*
X024500Y041000D01*
X024000Y041000D01*
X023444Y041412D02*
X023188Y041028D01*
X021908Y041028D01*
X019732Y042436D01*
X019221Y042437D01*
X019221Y042693D02*
X019796Y042692D01*
X021908Y041412D01*
X022420Y041412D01*
X022500Y041500D01*
X023444Y041412D02*
X023500Y041500D01*
X023500Y040500D02*
X023060Y040004D01*
X022420Y040004D01*
X021908Y040004D01*
X019604Y041924D01*
X019221Y041925D01*
X019221Y042181D02*
X019668Y042180D01*
X021908Y040516D01*
X022420Y040516D01*
X022500Y040500D01*
X023500Y040500D02*
X024500Y039500D01*
X024500Y026500D01*
X028000Y023000D01*
X029500Y023000D01*
X030000Y022500D02*
X028000Y022500D01*
X021500Y029000D01*
X021500Y035500D01*
X021640Y035512D01*
X022024Y036024D01*
X022024Y037048D01*
X018568Y040632D01*
X018562Y041167D01*
X018306Y041167D02*
X018312Y040504D01*
X021384Y037048D01*
X021500Y036500D01*
X021000Y037048D02*
X018056Y040376D01*
X018050Y041167D01*
X017794Y041167D02*
X017800Y040248D01*
X020488Y036984D01*
X020500Y036500D01*
X019976Y036024D02*
X019592Y035512D01*
X019500Y035500D01*
X019500Y030000D01*
X028000Y021500D01*
X030000Y021500D01*
X029500Y022000D02*
X028000Y022000D01*
X020000Y030000D01*
X020000Y035000D01*
X020500Y035500D02*
X020616Y035512D01*
X021000Y035768D01*
X021000Y037048D01*
X019976Y037048D02*
X019976Y036024D01*
X019500Y036500D02*
X019592Y036792D01*
X019592Y037048D01*
X017288Y040056D01*
X017282Y041167D01*
X017026Y041167D02*
X017032Y039992D01*
X019016Y037048D01*
X019016Y036024D01*
X018500Y035500D01*
X018500Y030000D01*
X028000Y020500D01*
X030000Y020500D01*
X029500Y021000D02*
X028000Y021000D01*
X019000Y030000D01*
X019000Y035000D01*
X018000Y035000D02*
X018000Y030000D01*
X028000Y020000D01*
X029500Y020000D01*
X029500Y018000D02*
X028500Y018000D01*
X028000Y018000D01*
X014500Y031500D01*
X014500Y035500D01*
X014728Y035768D01*
X014984Y036024D01*
X014984Y037048D01*
X014979Y041167D01*
X015235Y041167D02*
X015240Y040632D01*
X015240Y039864D01*
X015368Y037048D01*
X015500Y036500D01*
X014500Y036500D02*
X014472Y036536D01*
X014472Y037048D01*
X014728Y039608D01*
X014728Y040632D01*
X014723Y041167D01*
X014467Y041167D02*
X014472Y040632D01*
X014472Y039608D01*
X014280Y037880D01*
X013960Y037048D01*
X013960Y036024D01*
X013704Y035768D01*
X013500Y035500D01*
X013500Y031500D01*
X028500Y016500D01*
X030000Y016500D01*
X030000Y017500D02*
X028000Y017500D01*
X014000Y031500D01*
X014000Y035000D01*
X015000Y035000D02*
X015000Y032000D01*
X012000Y033000D02*
X012000Y035000D01*
X012500Y035500D02*
X012680Y035768D01*
X013000Y036024D01*
X013000Y037048D01*
X013960Y039608D01*
X013960Y040632D01*
X013955Y041167D01*
X013699Y041167D02*
X013704Y040632D01*
X013704Y039672D01*
X012488Y037048D01*
X012500Y036500D01*
X011976Y036024D02*
X011976Y037048D01*
X013448Y039736D01*
X013448Y040632D01*
X013444Y041167D01*
X013188Y041167D02*
X013192Y040632D01*
X013192Y039800D01*
X011528Y037048D01*
X011528Y036536D01*
X011500Y036500D01*
X011976Y036024D02*
X011656Y035768D01*
X011500Y035500D01*
X011500Y011000D01*
X013500Y009000D01*
X013500Y004000D01*
X013375Y003875D01*
X013375Y003625D01*
X012125Y003625D02*
X012125Y004375D01*
X012000Y004500D01*
X012000Y009500D01*
X010500Y011000D01*
X010500Y035500D01*
X010632Y035768D01*
X011016Y036024D01*
X011016Y037048D01*
X012936Y039864D01*
X012936Y040632D01*
X012932Y041167D01*
X012676Y041167D02*
X012680Y040632D01*
X012680Y039928D01*
X010504Y037048D01*
X010500Y036500D01*
X009992Y036232D02*
X009992Y037048D01*
X009992Y037048D01*
X012424Y039992D01*
X012420Y040632D01*
X012420Y041167D01*
X012164Y041167D02*
X012180Y043204D01*
X016020Y043204D01*
X016770Y041167D02*
X016776Y039928D01*
X018568Y037048D01*
X018568Y036536D01*
X018500Y036500D01*
X019976Y037048D02*
X017544Y040120D01*
X017538Y041167D01*
X014211Y041167D02*
X014216Y040632D01*
X014216Y039608D01*
X013896Y038328D01*
X013860Y038036D01*
X013896Y038328D02*
X013448Y036536D01*
X013500Y036500D01*
X011000Y035000D02*
X011000Y011000D01*
X013000Y009000D01*
X013000Y008000D01*
X014500Y008000D02*
X014500Y008500D01*
X012000Y011000D01*
X012000Y033000D01*
X010000Y033500D02*
X010000Y035000D01*
X009500Y035500D02*
X009500Y029500D01*
X010000Y033500D02*
X010000Y011000D01*
X011500Y009500D01*
X011500Y008000D01*
X011000Y009500D02*
X008500Y012000D01*
X008500Y035500D01*
X008584Y035512D01*
X009032Y035960D01*
X009032Y037048D01*
X011912Y040248D01*
X011912Y040632D01*
X011912Y040637D01*
X011908Y041167D01*
X011652Y041167D02*
X011656Y040637D01*
X011656Y040376D01*
X008520Y037048D01*
X008500Y036500D01*
X008008Y036024D02*
X007560Y035512D01*
X007500Y035500D01*
X007500Y034500D01*
X007000Y034000D01*
X007000Y003500D01*
X007125Y003625D01*
X006000Y004000D02*
X006000Y033500D01*
X007000Y034500D01*
X007000Y036000D01*
X007500Y036500D01*
X007496Y037048D01*
X011144Y040632D01*
X011140Y041167D01*
X011396Y041167D02*
X011400Y040641D01*
X011400Y040504D01*
X008008Y037048D01*
X008008Y036024D01*
X008000Y035000D02*
X008000Y010000D01*
X008500Y009500D01*
X008500Y004000D01*
X008375Y003875D01*
X008375Y003625D01*
X006000Y004000D02*
X005875Y003875D01*
X005875Y003625D01*
X010875Y003625D02*
X010875Y003875D01*
X011000Y004000D01*
X011000Y009500D01*
X029500Y004500D02*
X029625Y003625D01*
X033375Y003625D02*
X033500Y004000D01*
X038375Y003625D02*
X038375Y004375D01*
X038500Y004500D01*
X054500Y004000D02*
X054500Y020500D01*
X060500Y021000D02*
X060500Y008000D01*
X061000Y004000D02*
X061000Y021500D01*
X063500Y022000D02*
X063500Y004000D01*
X063375Y003875D01*
X063375Y003625D01*
X064500Y004000D02*
X064500Y022500D01*
X066000Y023000D02*
X066000Y004000D01*
X065875Y003875D01*
X065875Y003625D01*
X064625Y003625D02*
X064625Y003875D01*
X064500Y004000D01*
X061000Y004000D02*
X060875Y003875D01*
X060875Y003625D01*
X054625Y003625D02*
X054625Y003875D01*
X054500Y004000D01*
X068500Y008000D02*
X068500Y023000D01*
X065000Y032000D02*
X073000Y032000D01*
X071500Y032500D02*
X065500Y032500D01*
X061640Y035512D02*
X062024Y036024D01*
X062024Y037048D01*
X058568Y040632D01*
X058562Y041167D01*
X058306Y041167D02*
X058312Y040504D01*
X061384Y037048D01*
X061500Y036500D01*
X061000Y037048D02*
X058056Y040376D01*
X058050Y041167D01*
X057794Y041167D02*
X057800Y040248D01*
X060488Y036984D01*
X060500Y036500D01*
X059976Y036024D02*
X059592Y035512D01*
X059500Y035500D01*
X059000Y035000D02*
X059000Y034500D01*
X059500Y034000D01*
X086000Y034000D01*
X103500Y016500D01*
X103500Y004000D01*
X103375Y003875D01*
X103375Y003625D01*
X064500Y037000D02*
X075500Y048000D01*
X075500Y077500D01*
X075000Y078000D02*
X075500Y078500D01*
X075500Y080500D01*
X075375Y080625D01*
X075375Y081375D01*
X074125Y081375D02*
X074125Y081125D01*
X074000Y081000D01*
X074000Y048000D01*
X067000Y041000D01*
X064500Y041000D01*
X064500Y042000D02*
X067000Y042000D01*
X072500Y047500D01*
X072500Y078000D01*
X073000Y078500D01*
X073000Y080500D01*
X072875Y080625D01*
X072875Y081375D01*
X071625Y081375D02*
X071625Y080625D01*
X071500Y080500D01*
X071500Y077500D02*
X071500Y047000D01*
X067000Y042500D01*
X063500Y042500D01*
X063444Y042436D01*
X062932Y041988D01*
X061908Y041988D01*
X059860Y042948D01*
X059221Y042949D01*
X059221Y043204D02*
X059924Y043204D01*
X061908Y042436D01*
X062420Y042436D01*
X062500Y042500D01*
X062420Y043460D02*
X061908Y043460D01*
X060116Y043716D01*
X059221Y043716D01*
X059221Y043972D02*
X062932Y043972D01*
X063444Y044484D01*
X063500Y044500D01*
X067500Y044500D01*
X069000Y046000D01*
X069000Y077500D01*
X068500Y078000D02*
X068500Y046500D01*
X068000Y046000D01*
X064500Y046000D01*
X063500Y046500D02*
X063444Y046532D01*
X062932Y046020D01*
X062500Y045500D02*
X062420Y045508D01*
X061588Y045508D01*
X060820Y044740D01*
X060116Y044740D01*
X059221Y044740D01*
X059221Y044228D02*
X060116Y044228D01*
X061524Y044228D01*
X061908Y044484D01*
X062420Y044484D01*
X062500Y044500D01*
X062500Y043500D02*
X062420Y043460D01*
X064500Y044000D02*
X067500Y044000D01*
X070500Y047000D01*
X070500Y077500D01*
X073000Y077500D02*
X073000Y047500D01*
X067000Y041500D01*
X063500Y041500D01*
X063444Y041412D01*
X063188Y041028D01*
X061908Y041028D01*
X059732Y042436D01*
X059221Y042437D01*
X059221Y042693D02*
X059796Y042692D01*
X061908Y041412D01*
X062420Y041412D01*
X062500Y041500D01*
X062420Y040516D02*
X061908Y040516D01*
X059668Y042180D01*
X059221Y042181D01*
X059221Y041925D02*
X059604Y041924D01*
X061908Y040004D01*
X062420Y040004D01*
X063060Y040004D01*
X063500Y040500D01*
X067000Y040500D01*
X074500Y048000D01*
X074500Y077500D01*
X075000Y078000D02*
X075000Y048000D01*
X065000Y038000D01*
X062000Y038000D01*
X061000Y037048D02*
X061000Y035768D01*
X060616Y035512D01*
X060500Y035500D01*
X059976Y036024D02*
X059976Y037048D01*
X057544Y040120D01*
X057538Y041167D01*
X057282Y041167D02*
X057288Y040056D01*
X059592Y037048D01*
X059592Y036792D01*
X059500Y036500D01*
X059016Y036024D02*
X059016Y037048D01*
X057032Y039992D01*
X057026Y041167D01*
X052676Y041167D02*
X052680Y040632D01*
X052680Y039928D01*
X050504Y037048D01*
X050500Y036500D01*
X049992Y036232D02*
X049992Y037048D01*
X049992Y037048D01*
X052424Y039992D01*
X052420Y040632D01*
X052420Y041167D01*
X051144Y040632D02*
X051144Y040632D01*
X049364Y043460D02*
X048788Y043012D01*
X045972Y043012D01*
X045524Y043460D01*
X045500Y043500D01*
X046500Y043500D02*
X046548Y043460D01*
X048084Y043460D01*
X048340Y043716D01*
X048356Y043668D01*
X048596Y043716D01*
X050481Y043716D01*
X050481Y043460D02*
X049364Y043460D01*
X049620Y044228D02*
X050481Y044228D01*
X050481Y044484D02*
X049684Y044484D01*
X048596Y044740D01*
X047060Y044996D01*
X046036Y044996D01*
X045524Y045508D01*
X045500Y045500D01*
X046036Y046020D02*
X047060Y046020D01*
X049684Y044996D01*
X050481Y044996D01*
X050481Y045252D02*
X049748Y045252D01*
X047060Y046532D01*
X046548Y046532D01*
X046500Y046500D01*
X046100Y046980D02*
X047124Y046980D01*
X049812Y045508D01*
X050481Y045508D01*
X050481Y045763D02*
X049876Y045764D01*
X047060Y047556D01*
X046548Y047556D01*
X046500Y047500D01*
X046100Y046980D02*
X045524Y047556D01*
X045500Y047500D01*
X038500Y047500D01*
X036500Y049500D01*
X036500Y065000D01*
X036500Y078000D01*
X036000Y078500D01*
X036000Y080500D01*
X035875Y080625D01*
X035875Y081375D01*
X037125Y081375D02*
X037125Y080625D01*
X037000Y080500D01*
X037000Y078500D01*
X037500Y078000D01*
X037500Y063500D01*
X037500Y050000D01*
X038500Y049000D01*
X044500Y049000D01*
X044500Y048000D02*
X038500Y048000D01*
X037000Y049500D01*
X037000Y064500D01*
X037000Y077500D01*
X038000Y077500D02*
X038000Y075500D01*
X038000Y063000D01*
X038000Y050000D01*
X038500Y049500D01*
X045500Y049500D01*
X045524Y049348D01*
X045844Y049028D01*
X047060Y049028D01*
X050068Y046532D01*
X050481Y046531D01*
X050481Y046275D02*
X050004Y046276D01*
X047060Y048516D01*
X046548Y048516D01*
X046500Y048500D01*
X047060Y048004D02*
X045780Y048004D01*
X045524Y048324D01*
X045500Y048500D01*
X046500Y049500D02*
X046000Y050000D01*
X039500Y050000D01*
X039000Y050500D01*
X039000Y062500D01*
X039000Y076000D01*
X038500Y076500D01*
X038500Y080500D01*
X038375Y081375D01*
X039625Y081375D02*
X039625Y080625D01*
X039500Y080500D01*
X039500Y062000D01*
X047000Y054500D01*
X047000Y053000D01*
X047500Y052500D01*
X047572Y052420D01*
X047572Y051908D01*
X051156Y047812D01*
X051140Y047545D01*
X051396Y047545D02*
X051412Y047940D01*
X048020Y051908D01*
X048020Y052932D01*
X047572Y053444D01*
X047500Y053500D01*
X047500Y054500D01*
X041000Y061000D01*
X041000Y061500D01*
X041000Y076000D01*
X040500Y076500D01*
X040500Y078000D01*
X041000Y078500D01*
X041000Y081000D01*
X040875Y081375D01*
X042000Y080500D02*
X042000Y078500D01*
X042500Y078000D01*
X042500Y076500D01*
X043000Y076000D01*
X043000Y061000D01*
X043000Y059500D01*
X048000Y054500D01*
X048000Y054000D01*
X048500Y054500D02*
X048500Y053500D01*
X048596Y053444D01*
X048980Y052932D01*
X048980Y051908D01*
X051924Y048068D01*
X051908Y047545D01*
X051652Y047545D02*
X051668Y048004D01*
X048596Y051908D01*
X048596Y052420D01*
X048500Y052500D01*
X049500Y052500D02*
X049620Y052420D01*
X049620Y051908D01*
X052180Y048132D01*
X052164Y047545D01*
X052420Y047545D02*
X052436Y048196D01*
X050004Y051908D01*
X050004Y052932D01*
X049556Y053444D01*
X049500Y053500D01*
X049500Y054000D01*
X044000Y059500D01*
X044000Y060000D01*
X043500Y059500D02*
X048500Y054500D01*
X050000Y054500D02*
X050000Y054000D01*
X050000Y054500D02*
X045000Y059500D01*
X044500Y080500D01*
X044625Y080625D01*
X044625Y081375D01*
X043375Y081375D02*
X043375Y080125D01*
X043500Y080000D01*
X043500Y060500D01*
X043500Y059500D01*
X047000Y059000D02*
X047000Y058000D01*
X050500Y054500D01*
X050500Y053500D01*
X050644Y053444D01*
X050964Y053124D01*
X050964Y051844D01*
X052948Y048324D01*
X052932Y047545D01*
X053188Y047545D02*
X053204Y048388D01*
X051412Y051908D01*
X051412Y052420D01*
X051500Y052500D01*
X051988Y052932D02*
X051476Y053444D01*
X051500Y053500D01*
X051500Y054500D01*
X048500Y057500D01*
X048500Y058000D01*
X048500Y077500D01*
X048000Y078000D02*
X048500Y078500D01*
X048500Y080000D01*
X048375Y080125D01*
X048375Y081375D01*
X047125Y081375D02*
X047125Y080125D01*
X047000Y080000D01*
X047000Y059000D01*
X048000Y058500D02*
X048000Y057500D01*
X051000Y054500D01*
X051000Y054000D01*
X052000Y054000D02*
X052000Y054500D01*
X049500Y057000D01*
X049500Y057500D01*
X049500Y081000D01*
X049625Y081125D01*
X049625Y081375D01*
X050875Y081375D02*
X050875Y080625D01*
X051000Y080500D01*
X051000Y078500D01*
X050500Y078000D01*
X050500Y077500D01*
X048000Y078000D02*
X048000Y058500D01*
X051500Y057000D02*
X051500Y075000D01*
X052500Y075500D02*
X052500Y056500D01*
X053000Y056000D02*
X053000Y076000D01*
X054000Y077500D02*
X054000Y054000D01*
X053972Y052932D02*
X053972Y051908D01*
X054420Y049924D01*
X054484Y048836D01*
X054467Y047545D01*
X054723Y047545D02*
X054740Y048836D01*
X054740Y049860D01*
X054484Y051908D01*
X054484Y052420D01*
X054500Y052500D01*
X053012Y052932D02*
X052500Y053444D01*
X052500Y053500D01*
X051988Y052932D02*
X051988Y051908D01*
X053460Y048452D01*
X053444Y047545D01*
X053699Y047545D02*
X053716Y048516D01*
X052436Y051908D01*
X052436Y052420D01*
X052500Y052500D01*
X053012Y052932D02*
X053012Y051908D01*
X053524Y049732D01*
X053972Y048580D01*
X053955Y047545D01*
X052676Y047545D02*
X052692Y048260D01*
X050516Y051908D01*
X050516Y052420D01*
X050500Y052500D01*
X047124Y049476D02*
X050196Y046788D01*
X050481Y046787D01*
X050481Y046019D02*
X054228Y046020D01*
X050481Y046019D02*
X050132Y046020D01*
X049940Y046020D01*
X047060Y048004D01*
X047124Y049476D02*
X046612Y049476D01*
X046500Y049500D01*
X045524Y046532D02*
X046036Y046020D01*
X046500Y045500D02*
X046548Y045508D01*
X047060Y045508D01*
X049684Y044740D01*
X050481Y044740D01*
X049620Y044228D02*
X047316Y044484D01*
X046548Y044484D01*
X046500Y044500D01*
X045500Y046500D02*
X045524Y046532D01*
X044500Y046000D02*
X039500Y046000D01*
X035500Y050000D01*
X035500Y065500D01*
X035500Y076000D01*
X036000Y076500D01*
X032000Y078500D02*
X032000Y080500D01*
X032125Y081375D01*
X031000Y081000D02*
X031000Y078500D01*
X030000Y077500D01*
X030000Y077000D01*
X029500Y076500D01*
X029000Y076000D01*
X029000Y069500D01*
X029000Y053000D01*
X040500Y041500D01*
X045500Y041500D01*
X045524Y041412D01*
X046036Y040964D01*
X044500Y041000D02*
X040500Y041000D01*
X028500Y053000D01*
X028500Y070000D01*
X028500Y076500D01*
X029500Y077500D01*
X029500Y078250D02*
X028000Y076750D01*
X028000Y073000D01*
X028000Y053000D01*
X021972Y053124D02*
X021972Y051972D01*
X018580Y047940D01*
X018562Y047545D01*
X018306Y047545D02*
X018324Y048004D01*
X021396Y051908D01*
X021396Y052420D01*
X021500Y052500D01*
X021012Y053060D02*
X021012Y051908D01*
X018068Y048132D01*
X018050Y047545D01*
X018068Y046020D01*
X016000Y046000D01*
X015980Y046020D01*
X014228Y046020D01*
X014211Y047545D01*
X014228Y048580D01*
X013972Y049860D01*
X013952Y049904D01*
X013924Y050068D01*
X013460Y051908D01*
X013460Y052420D01*
X013500Y052500D01*
X013972Y052932D02*
X013460Y053444D01*
X013500Y053500D01*
X013500Y065500D01*
X014000Y065000D02*
X014000Y066000D01*
X008500Y071500D01*
X008500Y080500D01*
X008375Y080625D01*
X008375Y081375D01*
X005875Y081375D02*
X005875Y080625D01*
X006000Y080500D01*
X006000Y070000D01*
X008000Y070000D02*
X008000Y054000D01*
X007572Y053444D02*
X007500Y053500D01*
X007572Y053444D02*
X008020Y052932D01*
X008020Y051908D01*
X011412Y047940D01*
X011396Y047545D01*
X011140Y047545D02*
X011156Y047812D01*
X007572Y051908D01*
X007572Y052420D01*
X007500Y052500D01*
X008500Y052500D02*
X008596Y052420D01*
X008596Y051908D01*
X011668Y048004D01*
X011652Y047545D01*
X011908Y047545D02*
X011924Y048068D01*
X008980Y051908D01*
X008980Y052932D01*
X008596Y053444D01*
X008500Y053500D01*
X008500Y069500D01*
X009500Y069000D02*
X009500Y053500D01*
X009556Y053444D01*
X010004Y052932D01*
X010004Y051908D01*
X012436Y048196D01*
X012420Y047545D01*
X012676Y047545D02*
X012692Y048260D01*
X010516Y051908D01*
X010516Y052420D01*
X010500Y052500D01*
X010964Y053124D02*
X010964Y051844D01*
X012948Y048324D01*
X012932Y047545D01*
X013188Y047545D02*
X013204Y048388D01*
X011412Y051908D01*
X011412Y052420D01*
X011500Y052500D01*
X011988Y052932D02*
X011476Y053444D01*
X011500Y053500D01*
X011500Y067000D01*
X011000Y067500D02*
X011000Y055000D01*
X010000Y055000D02*
X010000Y068500D01*
X010500Y068000D02*
X010500Y053500D01*
X010644Y053444D01*
X010964Y053124D01*
X011988Y052932D02*
X011988Y051908D01*
X013460Y048452D01*
X013444Y047545D01*
X013699Y047545D02*
X013716Y048516D01*
X012436Y051908D01*
X012436Y052420D01*
X012500Y052500D01*
X013012Y052932D02*
X012500Y053444D01*
X012500Y053500D01*
X012500Y066000D01*
X012000Y066500D02*
X012000Y055000D01*
X014000Y055000D02*
X014000Y065000D01*
X014500Y064500D02*
X014500Y053500D01*
X014484Y053444D01*
X014996Y052932D01*
X014996Y052420D01*
X014979Y047545D01*
X015235Y047545D02*
X015252Y048580D01*
X015508Y051908D01*
X015500Y052500D01*
X016020Y052932D02*
X015508Y053444D01*
X015500Y053500D01*
X015500Y063500D01*
X015000Y064000D02*
X015000Y055000D01*
X016500Y053500D02*
X016532Y053444D01*
X016980Y052932D01*
X016980Y051908D01*
X016532Y050116D01*
X016484Y050004D01*
X016276Y049604D01*
X016020Y048644D01*
X016003Y047545D01*
X016258Y047545D02*
X016276Y048644D01*
X016916Y049732D01*
X017556Y051908D01*
X017556Y052420D01*
X017500Y052500D01*
X018004Y051908D02*
X018004Y053188D01*
X017500Y053500D01*
X017500Y062500D01*
X017000Y063000D02*
X017000Y054000D01*
X018000Y054000D02*
X018000Y062000D01*
X018500Y061500D02*
X018500Y053500D01*
X018580Y053444D01*
X019028Y053188D01*
X019028Y051908D01*
X017684Y049476D01*
X017044Y048452D01*
X017026Y047545D01*
X016770Y047545D02*
X016788Y048516D01*
X017428Y049540D01*
X018452Y051908D01*
X018452Y052420D01*
X018500Y052500D01*
X018004Y051908D02*
X017172Y049668D01*
X016532Y048580D01*
X016514Y047545D01*
X015747Y047545D02*
X015764Y048580D01*
X016020Y050116D01*
X016532Y051908D01*
X016532Y052420D01*
X016500Y052500D01*
X016020Y052932D02*
X016020Y051908D01*
X015508Y048580D01*
X015491Y047545D01*
X014723Y047545D02*
X014740Y048836D01*
X014740Y049860D01*
X014484Y051908D01*
X014484Y052420D01*
X014500Y052500D01*
X013972Y052932D02*
X013972Y051908D01*
X014420Y049924D01*
X014484Y048836D01*
X014467Y047545D01*
X013955Y047545D02*
X013972Y048580D01*
X013524Y049732D01*
X013012Y051908D01*
X013012Y052932D01*
X009620Y052420D02*
X009500Y052500D01*
X009620Y052420D02*
X009620Y051908D01*
X012180Y048132D01*
X012164Y047545D01*
X010481Y046787D02*
X010196Y046788D01*
X007124Y049476D01*
X006612Y049476D01*
X006500Y049500D01*
X007060Y049028D02*
X005844Y049028D01*
X005524Y049348D01*
X005500Y049500D01*
X005500Y048500D02*
X005524Y048324D01*
X005780Y048004D01*
X007060Y048004D01*
X009940Y046020D01*
X010132Y046020D01*
X010481Y046019D01*
X014228Y046020D01*
X017282Y047545D02*
X017300Y048388D01*
X019476Y051908D01*
X019476Y052420D01*
X019500Y052500D01*
X019988Y051908D02*
X019988Y053188D01*
X019604Y053444D01*
X019500Y053500D01*
X019500Y060500D01*
X019000Y061000D02*
X019000Y055000D01*
X021000Y054000D02*
X021000Y059500D01*
X020500Y053500D02*
X020628Y053444D01*
X021012Y053060D01*
X021500Y053500D02*
X021652Y053444D01*
X021972Y053124D01*
X020500Y052500D02*
X020436Y052420D01*
X020436Y051908D01*
X017812Y048260D01*
X017794Y047545D01*
X017538Y047545D02*
X017556Y048324D01*
X019988Y051908D01*
X010481Y046531D02*
X010068Y046532D01*
X007060Y049028D01*
X007060Y048516D02*
X006548Y048516D01*
X006500Y048500D01*
X007060Y048516D02*
X010004Y046276D01*
X010481Y046275D01*
X010481Y045763D02*
X009876Y045764D01*
X007060Y047556D01*
X006548Y047556D01*
X006500Y047500D01*
X006100Y046980D02*
X007124Y046980D01*
X009812Y045508D01*
X010481Y045508D01*
X010481Y045252D02*
X009748Y045252D01*
X007060Y046532D01*
X006548Y046532D01*
X006500Y046500D01*
X006100Y046980D02*
X005524Y047556D01*
X005500Y047500D01*
X005524Y046532D02*
X006036Y046020D01*
X007060Y046020D01*
X009684Y044996D01*
X010481Y044996D01*
X010481Y044740D02*
X009684Y044740D01*
X007060Y045508D01*
X006548Y045508D01*
X006500Y045500D01*
X006036Y044996D02*
X007060Y044996D01*
X008596Y044740D01*
X009684Y044484D01*
X010481Y044484D01*
X010481Y044228D02*
X009620Y044228D01*
X007316Y044484D01*
X006548Y044484D01*
X006500Y044500D01*
X006036Y044996D02*
X005524Y045508D01*
X005500Y045500D01*
X005500Y044500D02*
X005524Y044484D01*
X006036Y043972D01*
X008020Y043972D01*
X008148Y044100D01*
X008596Y044100D01*
X008724Y043972D01*
X010481Y043972D01*
X010481Y043716D02*
X008596Y043716D01*
X008356Y043668D01*
X008340Y043716D01*
X008084Y043460D01*
X006548Y043460D01*
X006500Y043500D01*
X005972Y043012D02*
X005524Y043460D01*
X005500Y043500D01*
X005500Y041500D02*
X005524Y041412D01*
X006036Y040964D01*
X005000Y041000D02*
X004500Y041000D01*
X002000Y038500D01*
X009544Y037048D02*
X009500Y036500D01*
X009544Y037048D02*
X012168Y040120D01*
X012168Y040637D01*
X012164Y041167D01*
X011144Y040632D02*
X011144Y040632D01*
X009992Y036232D02*
X009608Y035768D01*
X009500Y035500D01*
X005500Y046500D02*
X005524Y046532D01*
X024500Y043000D02*
X027000Y040500D01*
X027000Y026500D01*
X028000Y025500D01*
X030000Y025500D01*
X048500Y033500D02*
X049500Y034500D01*
X049500Y035500D01*
X049608Y035768D01*
X049992Y036232D01*
X061500Y035500D02*
X061640Y035512D01*
X062500Y040500D02*
X062420Y040516D01*
X078500Y045500D02*
X079000Y046000D01*
X079000Y049500D01*
X078500Y049000D02*
X078500Y046500D01*
X082500Y048000D02*
X077500Y053000D01*
X077500Y056500D01*
X078000Y055500D02*
X078000Y053500D01*
X083000Y048500D01*
X060000Y054000D02*
X060000Y075500D01*
X061500Y077000D01*
X061500Y077500D01*
X060500Y077500D02*
X059000Y076000D01*
X059000Y054000D01*
X046000Y076000D02*
X046000Y081000D01*
X045875Y081125D01*
X045875Y081375D01*
X042125Y081375D02*
X042125Y080625D01*
X042000Y080500D01*
X032000Y078500D02*
X031500Y078000D01*
X029500Y078250D02*
X029500Y080500D01*
X029625Y080625D01*
X029625Y081375D01*
X030875Y081375D02*
X031000Y081000D01*
X022125Y081125D02*
X022000Y081000D01*
X022000Y067000D01*
X019500Y073000D02*
X019500Y080500D01*
X019625Y080625D01*
X019625Y081375D01*
X022125Y081375D02*
X022125Y081125D01*
X056000Y078000D02*
X056500Y078500D01*
X056500Y080500D01*
X056625Y080625D01*
X056625Y081375D01*
X057875Y081375D02*
X057875Y079625D01*
X058000Y079500D01*
X058000Y078500D01*
X059000Y077500D02*
X059000Y081250D01*
X059125Y081375D01*
D17*
X078500Y046500D03*
X078500Y045500D03*
X078500Y044500D03*
X078500Y043500D03*
X078500Y042500D03*
X079500Y042500D03*
X079500Y043500D03*
X079500Y044500D03*
X079500Y045500D03*
X079500Y046500D03*
X083500Y046500D03*
X083500Y045500D03*
X083500Y044500D03*
X083500Y043500D03*
X083500Y042500D03*
X084500Y042500D03*
X084500Y043500D03*
X084500Y044500D03*
X084500Y045500D03*
X084500Y046500D03*
D18*
X085500Y045500D01*
X085500Y043500D01*
X084500Y042500D01*
X083500Y041500D01*
X081500Y041500D01*
X080500Y042500D01*
X080500Y045500D01*
X079500Y046500D01*
X079500Y042500D02*
X071500Y034500D01*
X061500Y034500D01*
X060500Y035500D01*
X058500Y033000D02*
X058500Y032000D01*
X057000Y030500D01*
X057000Y009500D01*
X057000Y004000D01*
X057125Y003625D01*
X062000Y004000D02*
X062000Y009500D01*
X062000Y004000D02*
X062125Y003625D01*
X069500Y004000D02*
X069500Y009500D01*
X073500Y009500D02*
X073500Y004000D01*
X073375Y003625D01*
X069625Y003625D02*
X069500Y004000D01*
X073500Y009500D02*
X077500Y009500D01*
X084500Y009500D02*
X084500Y004000D01*
X084625Y003875D01*
X084625Y003625D01*
X089500Y004000D02*
X089500Y009500D01*
X089500Y004000D02*
X089625Y003875D01*
X089625Y003625D01*
X097000Y004000D02*
X097000Y009500D01*
X097000Y004000D02*
X097125Y003875D01*
X097125Y003625D01*
X057000Y033000D02*
X052000Y028000D01*
X052000Y018000D01*
X052000Y017500D02*
X050000Y017500D01*
X048500Y017500D01*
X050000Y018000D02*
X050000Y026000D01*
X036500Y026000D02*
X036500Y043000D01*
X027500Y043000D02*
X025000Y045500D01*
X023500Y045500D02*
X022500Y045500D01*
X020500Y052500D02*
X020500Y053500D01*
X020500Y055000D01*
X005500Y046500D02*
X002500Y046500D01*
X001500Y045500D01*
X005000Y042000D01*
X005500Y045500D02*
X004000Y045500D01*
X016500Y035500D02*
X017500Y036500D01*
X016500Y035500D02*
X016500Y034000D01*
X020500Y035500D02*
X020500Y031500D01*
X021000Y009500D02*
X021000Y004000D01*
X020875Y003625D01*
X017125Y003625D02*
X017000Y004000D01*
X017000Y009500D01*
X009500Y009500D02*
X009500Y003500D01*
X009625Y003625D01*
X004625Y003625D02*
X004500Y004000D01*
X004500Y009500D01*
X037000Y009500D02*
X037000Y004000D01*
X037125Y003625D01*
X048375Y003625D02*
X048500Y004000D01*
X048500Y009500D01*
X053500Y009500D01*
X079500Y042500D02*
X080500Y042500D01*
X076500Y049500D02*
X076500Y056500D01*
X065500Y045500D02*
X063500Y045500D01*
X056500Y053500D02*
X056500Y056000D01*
X060500Y057500D02*
X060500Y062500D01*
X060500Y066500D01*
X060500Y074000D01*
X056500Y074000D02*
X056500Y077500D01*
X064000Y078500D02*
X064500Y078000D01*
X064000Y078500D02*
X064000Y081000D01*
X064125Y081125D01*
X064125Y081375D01*
X023500Y080500D02*
X023500Y077500D01*
X022500Y077500D01*
X021000Y077500D02*
X021000Y081000D01*
X020875Y081125D01*
X020875Y081375D01*
X018500Y081000D02*
X018500Y077500D01*
X018500Y081000D02*
X018375Y081125D01*
X018375Y081375D01*
X023375Y081375D02*
X023375Y080625D01*
X023500Y080500D01*
X009625Y081125D02*
X009500Y081000D01*
X009500Y077500D01*
X007000Y077500D02*
X007000Y081000D01*
X007125Y081125D01*
X007125Y081375D01*
X004625Y081375D02*
X004625Y081125D01*
X004500Y081000D01*
X004500Y077500D01*
X009625Y081125D02*
X009625Y081375D01*
D19*
X009500Y077500D03*
X007000Y077500D03*
X004500Y077500D03*
X006000Y070000D03*
X008000Y070000D03*
X008500Y069500D03*
X009500Y069000D03*
X010000Y068500D03*
X010500Y068000D03*
X011000Y067500D03*
X011500Y067000D03*
X012000Y066500D03*
X012500Y066000D03*
X013500Y065500D03*
X014000Y065000D03*
X014500Y064500D03*
X015000Y064000D03*
X015500Y063500D03*
X017000Y063000D03*
X017500Y062500D03*
X018000Y062000D03*
X018500Y061500D03*
X019000Y061000D03*
X019500Y060500D03*
X021000Y059500D03*
X024500Y059000D03*
X025000Y058500D03*
X025500Y058000D03*
X026000Y057500D03*
X026500Y057000D03*
X027000Y056500D03*
X027500Y056000D03*
X021000Y054000D03*
X019000Y055000D03*
X018000Y054000D03*
X017000Y054000D03*
X015000Y055000D03*
X014000Y055000D03*
X012000Y055000D03*
X011000Y055000D03*
X010000Y055000D03*
X008000Y054000D03*
X005000Y042000D03*
X005000Y041000D03*
X008000Y035000D03*
X010000Y035000D03*
X011000Y035000D03*
X012000Y035000D03*
X014000Y035000D03*
X015000Y035000D03*
X016000Y035000D03*
X018000Y035000D03*
X019000Y035000D03*
X020000Y035000D03*
X020500Y031500D03*
X015000Y032000D03*
X012000Y033000D03*
X010000Y033500D03*
X009500Y029500D03*
X024000Y041000D03*
X024000Y042000D03*
X024500Y043000D03*
X027500Y043000D03*
X024000Y047000D03*
X024000Y048000D03*
X024500Y049000D03*
X036500Y043000D03*
X044500Y043000D03*
X044500Y041000D03*
X044500Y045000D03*
X044500Y046000D03*
X044500Y048000D03*
X044500Y049000D03*
X048000Y054000D03*
X050000Y054000D03*
X051000Y054000D03*
X052000Y054000D03*
X054000Y054000D03*
X056000Y054000D03*
X057000Y054000D03*
X059000Y054000D03*
X060000Y054000D03*
X061000Y054000D03*
X056500Y056000D03*
X053000Y056000D03*
X052500Y056500D03*
X051500Y057000D03*
X049500Y057500D03*
X048500Y058000D03*
X048000Y058500D03*
X047000Y059000D03*
X045000Y059500D03*
X044000Y060000D03*
X043500Y060500D03*
X043000Y061000D03*
X041000Y061500D03*
X039500Y062000D03*
X039000Y062500D03*
X038000Y063000D03*
X037500Y063500D03*
X037000Y064500D03*
X036500Y065000D03*
X035500Y065500D03*
X035000Y066000D03*
X034000Y066500D03*
X033000Y067000D03*
X032000Y067500D03*
X031000Y068000D03*
X030000Y068500D03*
X029000Y069500D03*
X028500Y070000D03*
X028000Y073000D03*
X029500Y077500D03*
X031000Y077500D03*
X037000Y077500D03*
X038000Y077500D03*
X038000Y075500D03*
X046000Y076000D03*
X048500Y077500D03*
X050500Y077500D03*
X051500Y075000D03*
X052500Y075500D03*
X053000Y076000D03*
X054000Y077500D03*
X056500Y077500D03*
X058000Y077500D03*
X059000Y077500D03*
X060500Y077500D03*
X061500Y077500D03*
X063000Y077500D03*
X064000Y077500D03*
X064500Y078000D03*
X065500Y077500D03*
X066500Y077500D03*
X068000Y077500D03*
X069000Y077500D03*
X070500Y077500D03*
X071500Y077500D03*
X073000Y077500D03*
X074500Y077500D03*
X075500Y077500D03*
X066000Y075500D03*
X065000Y075000D03*
X060500Y074000D03*
X056500Y074000D03*
X060500Y066500D03*
X060500Y062500D03*
X076500Y056500D03*
X077500Y056500D03*
X078000Y055500D03*
X079000Y049500D03*
X078500Y049000D03*
X076500Y049500D03*
X082500Y048000D03*
X083000Y048500D03*
X064500Y048000D03*
X064500Y049000D03*
X064500Y046000D03*
X064500Y044000D03*
X064500Y042000D03*
X064500Y041000D03*
X062000Y038000D03*
X064500Y037000D03*
X065500Y032500D03*
X065000Y032000D03*
X059000Y035000D03*
X058000Y035000D03*
X057000Y035000D03*
X056000Y035000D03*
X054000Y035000D03*
X052000Y035000D03*
X051000Y035000D03*
X048500Y033500D03*
X048000Y035000D03*
X045000Y033500D03*
X044500Y033000D03*
X050000Y026000D03*
X054500Y020500D03*
X060500Y021000D03*
X061000Y021500D03*
X063500Y022000D03*
X064500Y022500D03*
X066000Y023000D03*
X068500Y023000D03*
X073000Y032000D03*
X071500Y032500D03*
X058500Y033000D03*
X047000Y020000D03*
X046000Y019500D03*
X045500Y019000D03*
X043500Y018500D03*
X042000Y018000D03*
X038000Y017500D03*
X034500Y016500D03*
X030000Y016500D03*
X030000Y017500D03*
X029500Y018000D03*
X030000Y018500D03*
X029500Y019000D03*
X030000Y019500D03*
X029500Y020000D03*
X030000Y020500D03*
X029500Y021000D03*
X030000Y021500D03*
X029500Y022000D03*
X030000Y022500D03*
X029500Y023000D03*
X030000Y023500D03*
X029500Y024000D03*
X030000Y024500D03*
X029500Y025000D03*
X030000Y025500D03*
X036500Y026000D03*
X037000Y009500D03*
X036000Y008000D03*
X034000Y008000D03*
X033000Y008000D03*
X038000Y008000D03*
X039500Y008000D03*
X042000Y008000D03*
X043500Y008000D03*
X045500Y008000D03*
X047000Y008000D03*
X053500Y009500D03*
X057000Y009500D03*
X060500Y008000D03*
X062000Y009500D03*
X068500Y008000D03*
X069500Y009500D03*
X077500Y009500D03*
X082000Y008000D03*
X084500Y009500D03*
X089500Y009500D03*
X097000Y009500D03*
X091000Y024500D03*
X092000Y025000D03*
X093500Y025500D03*
X088500Y024000D03*
X022500Y077500D03*
X021000Y077500D03*
X018500Y077500D03*
X019500Y073000D03*
X022000Y067000D03*
X021000Y009500D03*
X017000Y009500D03*
X014500Y008000D03*
X013000Y008000D03*
X011500Y008000D03*
X009500Y009500D03*
X004500Y009500D03*
M02*
