G75*
%MOIN*%
%OFA0B0*%
%FSLAX24Y24*%
%IPPOS*%
%LPD*%
%AMOC8*
5,1,8,0,0,1.08239X$1,22.5*
%
%ADD10C,0.0000*%
%ADD11C,0.0030*%
%ADD12C,0.0040*%
%ADD13C,0.0060*%
%ADD14C,0.0050*%
%ADD15R,0.0240X0.0340*%
%ADD16C,0.0120*%
%ADD17R,0.0200X0.0300*%
%ADD18R,0.0500X0.0125*%
%ADD19C,0.0020*%
%ADD20C,0.0070*%
D10*
X001550Y001000D02*
X002050Y000500D01*
X023450Y000500D01*
X023950Y001000D01*
X023950Y006750D01*
X027650Y006750D01*
X027650Y007750D01*
X029050Y007750D01*
X029050Y001000D01*
X029550Y000500D01*
X050950Y000500D01*
X051450Y001000D01*
X051450Y006750D01*
X052650Y006750D01*
X052650Y007750D01*
X054050Y007750D01*
X054050Y001000D01*
X054550Y000500D01*
X075950Y000500D01*
X076450Y001000D01*
X076450Y006750D01*
X080150Y006750D01*
X080150Y007750D01*
X081550Y007750D01*
X081550Y001000D01*
X082050Y000500D01*
X103450Y000500D01*
X103950Y001000D01*
X103950Y006750D01*
X105000Y006750D01*
X105000Y084500D01*
X078500Y084500D01*
X078500Y078250D01*
X077000Y078250D01*
X077000Y077250D01*
X076950Y077250D02*
X075950Y077250D01*
X075950Y084000D01*
X075450Y084500D01*
X054050Y084500D01*
X053550Y084000D01*
X053550Y078250D01*
X052500Y078250D01*
X053500Y078250D01*
X052500Y078250D02*
X052500Y077250D01*
X052375Y077250D01*
X052450Y077250D02*
X051450Y077250D01*
X051450Y084000D01*
X050950Y084500D01*
X029550Y084500D01*
X029050Y084000D01*
X029050Y078250D01*
X028000Y078250D01*
X025250Y078250D01*
X025250Y077250D01*
X024500Y077250D01*
X024950Y077250D02*
X023950Y077250D01*
X023950Y084000D01*
X023450Y084500D01*
X002050Y084500D01*
X001550Y084000D01*
X001550Y078250D01*
X000500Y078250D01*
X000500Y007750D01*
X000750Y007750D01*
X000550Y007750D02*
X001550Y007750D01*
X001550Y001000D01*
X081620Y082750D02*
X081622Y082800D01*
X081628Y082850D01*
X081638Y082899D01*
X081652Y082947D01*
X081669Y082994D01*
X081690Y083039D01*
X081715Y083083D01*
X081743Y083124D01*
X081775Y083163D01*
X081809Y083200D01*
X081846Y083234D01*
X081886Y083264D01*
X081928Y083291D01*
X081972Y083315D01*
X082018Y083336D01*
X082065Y083352D01*
X082113Y083365D01*
X082163Y083374D01*
X082212Y083379D01*
X082263Y083380D01*
X082313Y083377D01*
X082362Y083370D01*
X082411Y083359D01*
X082459Y083344D01*
X082505Y083326D01*
X082550Y083304D01*
X082593Y083278D01*
X082634Y083249D01*
X082673Y083217D01*
X082709Y083182D01*
X082741Y083144D01*
X082771Y083104D01*
X082798Y083061D01*
X082821Y083017D01*
X082840Y082971D01*
X082856Y082923D01*
X082868Y082874D01*
X082876Y082825D01*
X082880Y082775D01*
X082880Y082725D01*
X082876Y082675D01*
X082868Y082626D01*
X082856Y082577D01*
X082840Y082529D01*
X082821Y082483D01*
X082798Y082439D01*
X082771Y082396D01*
X082741Y082356D01*
X082709Y082318D01*
X082673Y082283D01*
X082634Y082251D01*
X082593Y082222D01*
X082550Y082196D01*
X082505Y082174D01*
X082459Y082156D01*
X082411Y082141D01*
X082362Y082130D01*
X082313Y082123D01*
X082263Y082120D01*
X082212Y082121D01*
X082163Y082126D01*
X082113Y082135D01*
X082065Y082148D01*
X082018Y082164D01*
X081972Y082185D01*
X081928Y082209D01*
X081886Y082236D01*
X081846Y082266D01*
X081809Y082300D01*
X081775Y082337D01*
X081743Y082376D01*
X081715Y082417D01*
X081690Y082461D01*
X081669Y082506D01*
X081652Y082553D01*
X081638Y082601D01*
X081628Y082650D01*
X081622Y082700D01*
X081620Y082750D01*
X101870Y082750D02*
X101872Y082800D01*
X101878Y082850D01*
X101888Y082899D01*
X101902Y082947D01*
X101919Y082994D01*
X101940Y083039D01*
X101965Y083083D01*
X101993Y083124D01*
X102025Y083163D01*
X102059Y083200D01*
X102096Y083234D01*
X102136Y083264D01*
X102178Y083291D01*
X102222Y083315D01*
X102268Y083336D01*
X102315Y083352D01*
X102363Y083365D01*
X102413Y083374D01*
X102462Y083379D01*
X102513Y083380D01*
X102563Y083377D01*
X102612Y083370D01*
X102661Y083359D01*
X102709Y083344D01*
X102755Y083326D01*
X102800Y083304D01*
X102843Y083278D01*
X102884Y083249D01*
X102923Y083217D01*
X102959Y083182D01*
X102991Y083144D01*
X103021Y083104D01*
X103048Y083061D01*
X103071Y083017D01*
X103090Y082971D01*
X103106Y082923D01*
X103118Y082874D01*
X103126Y082825D01*
X103130Y082775D01*
X103130Y082725D01*
X103126Y082675D01*
X103118Y082626D01*
X103106Y082577D01*
X103090Y082529D01*
X103071Y082483D01*
X103048Y082439D01*
X103021Y082396D01*
X102991Y082356D01*
X102959Y082318D01*
X102923Y082283D01*
X102884Y082251D01*
X102843Y082222D01*
X102800Y082196D01*
X102755Y082174D01*
X102709Y082156D01*
X102661Y082141D01*
X102612Y082130D01*
X102563Y082123D01*
X102513Y082120D01*
X102462Y082121D01*
X102413Y082126D01*
X102363Y082135D01*
X102315Y082148D01*
X102268Y082164D01*
X102222Y082185D01*
X102178Y082209D01*
X102136Y082236D01*
X102096Y082266D01*
X102059Y082300D01*
X102025Y082337D01*
X101993Y082376D01*
X101965Y082417D01*
X101940Y082461D01*
X101919Y082506D01*
X101902Y082553D01*
X101888Y082601D01*
X101878Y082650D01*
X101872Y082700D01*
X101870Y082750D01*
D11*
X064635Y070894D02*
X064635Y070647D01*
X064635Y070770D02*
X064265Y070770D01*
X064388Y070647D01*
X064450Y070525D02*
X064450Y070278D01*
X064265Y070464D01*
X064635Y070464D01*
X064573Y070157D02*
X064635Y070095D01*
X064635Y069972D01*
X064573Y069910D01*
X064573Y069789D02*
X064635Y069727D01*
X064635Y069603D01*
X064573Y069542D01*
X064512Y069542D01*
X064450Y069603D01*
X064450Y069727D01*
X064512Y069789D01*
X064573Y069789D01*
X064450Y069727D02*
X064388Y069789D01*
X064326Y069789D01*
X064265Y069727D01*
X064265Y069603D01*
X064326Y069542D01*
X064388Y069542D01*
X064450Y069603D01*
X064265Y069420D02*
X064635Y069420D01*
X064635Y069173D02*
X064265Y069173D01*
X064388Y069297D01*
X064265Y069420D01*
X064326Y069910D02*
X064265Y069972D01*
X064265Y070095D01*
X064326Y070157D01*
X064388Y070157D01*
X064450Y070095D01*
X064512Y070157D01*
X064573Y070157D01*
X064450Y070095D02*
X064450Y070033D01*
X055635Y069972D02*
X055573Y069910D01*
X055635Y069972D02*
X055635Y070095D01*
X055573Y070157D01*
X055512Y070157D01*
X055450Y070095D01*
X055450Y070033D01*
X055450Y070095D02*
X055388Y070157D01*
X055326Y070157D01*
X055265Y070095D01*
X055265Y069972D01*
X055326Y069910D01*
X055326Y069789D02*
X055388Y069789D01*
X055450Y069727D01*
X055450Y069603D01*
X055388Y069542D01*
X055326Y069542D01*
X055265Y069603D01*
X055265Y069727D01*
X055326Y069789D01*
X055450Y069727D02*
X055512Y069789D01*
X055573Y069789D01*
X055635Y069727D01*
X055635Y069603D01*
X055573Y069542D01*
X055512Y069542D01*
X055450Y069603D01*
X055265Y069420D02*
X055635Y069420D01*
X055635Y069173D02*
X055265Y069173D01*
X055388Y069297D01*
X055265Y069420D01*
X055450Y070278D02*
X055450Y070525D01*
X055388Y070647D02*
X055265Y070770D01*
X055635Y070770D01*
X055635Y070647D02*
X055635Y070894D01*
X055635Y070464D02*
X055265Y070464D01*
X055450Y070278D01*
X042635Y070095D02*
X042635Y069972D01*
X042573Y069910D01*
X042573Y069789D02*
X042635Y069727D01*
X042635Y069603D01*
X042573Y069542D01*
X042512Y069542D01*
X042450Y069603D01*
X042450Y069727D01*
X042512Y069789D01*
X042573Y069789D01*
X042450Y069727D02*
X042388Y069789D01*
X042326Y069789D01*
X042265Y069727D01*
X042265Y069603D01*
X042326Y069542D01*
X042388Y069542D01*
X042450Y069603D01*
X042265Y069420D02*
X042635Y069420D01*
X042635Y069173D02*
X042265Y069173D01*
X042388Y069297D01*
X042265Y069420D01*
X042326Y069910D02*
X042265Y069972D01*
X042265Y070095D01*
X042326Y070157D01*
X042388Y070157D01*
X042450Y070095D01*
X042512Y070157D01*
X042573Y070157D01*
X042635Y070095D01*
X042450Y070095D02*
X042450Y070033D01*
X042450Y070278D02*
X042450Y070525D01*
X042388Y070647D02*
X042265Y070770D01*
X042635Y070770D01*
X042635Y070647D02*
X042635Y070894D01*
X042635Y070464D02*
X042265Y070464D01*
X042450Y070278D01*
X040635Y070095D02*
X040635Y069972D01*
X040573Y069910D01*
X040573Y069789D02*
X040635Y069727D01*
X040635Y069603D01*
X040573Y069542D01*
X040512Y069542D01*
X040450Y069603D01*
X040450Y069727D01*
X040512Y069789D01*
X040573Y069789D01*
X040450Y069727D02*
X040388Y069789D01*
X040326Y069789D01*
X040265Y069727D01*
X040265Y069603D01*
X040326Y069542D01*
X040388Y069542D01*
X040450Y069603D01*
X040265Y069420D02*
X040635Y069420D01*
X040635Y069173D02*
X040265Y069173D01*
X040388Y069297D01*
X040265Y069420D01*
X040326Y069910D02*
X040265Y069972D01*
X040265Y070095D01*
X040326Y070157D01*
X040388Y070157D01*
X040450Y070095D01*
X040512Y070157D01*
X040573Y070157D01*
X040635Y070095D01*
X040450Y070095D02*
X040450Y070033D01*
X040450Y070278D02*
X040450Y070525D01*
X040388Y070647D02*
X040265Y070770D01*
X040635Y070770D01*
X040635Y070647D02*
X040635Y070894D01*
X040635Y070464D02*
X040265Y070464D01*
X040450Y070278D01*
X038635Y070095D02*
X038635Y069972D01*
X038573Y069910D01*
X038573Y069789D02*
X038635Y069727D01*
X038635Y069603D01*
X038573Y069542D01*
X038512Y069542D01*
X038450Y069603D01*
X038450Y069727D01*
X038512Y069789D01*
X038573Y069789D01*
X038450Y069727D02*
X038388Y069789D01*
X038326Y069789D01*
X038265Y069727D01*
X038265Y069603D01*
X038326Y069542D01*
X038388Y069542D01*
X038450Y069603D01*
X038265Y069420D02*
X038635Y069420D01*
X038635Y069173D02*
X038265Y069173D01*
X038388Y069297D01*
X038265Y069420D01*
X038326Y069910D02*
X038265Y069972D01*
X038265Y070095D01*
X038326Y070157D01*
X038388Y070157D01*
X038450Y070095D01*
X038512Y070157D01*
X038573Y070157D01*
X038635Y070095D01*
X038450Y070095D02*
X038450Y070033D01*
X038450Y070278D02*
X038450Y070525D01*
X038388Y070647D02*
X038265Y070770D01*
X038635Y070770D01*
X038635Y070647D02*
X038635Y070894D01*
X038635Y070464D02*
X038265Y070464D01*
X038450Y070278D01*
X036135Y070095D02*
X036135Y069972D01*
X036073Y069910D01*
X036073Y069789D02*
X036135Y069727D01*
X036135Y069603D01*
X036073Y069542D01*
X036012Y069542D01*
X035950Y069603D01*
X035950Y069727D01*
X036012Y069789D01*
X036073Y069789D01*
X035950Y069727D02*
X035888Y069789D01*
X035826Y069789D01*
X035765Y069727D01*
X035765Y069603D01*
X035826Y069542D01*
X035888Y069542D01*
X035950Y069603D01*
X035765Y069420D02*
X036135Y069420D01*
X036135Y069173D02*
X035765Y069173D01*
X035888Y069297D01*
X035765Y069420D01*
X035826Y069910D02*
X035765Y069972D01*
X035765Y070095D01*
X035826Y070157D01*
X035888Y070157D01*
X035950Y070095D01*
X036012Y070157D01*
X036073Y070157D01*
X036135Y070095D01*
X035950Y070095D02*
X035950Y070033D01*
X035950Y070278D02*
X035950Y070525D01*
X035888Y070647D02*
X035765Y070770D01*
X036135Y070770D01*
X036135Y070647D02*
X036135Y070894D01*
X036135Y070464D02*
X035765Y070464D01*
X035950Y070278D01*
X034635Y070095D02*
X034635Y069972D01*
X034573Y069910D01*
X034573Y069789D02*
X034635Y069727D01*
X034635Y069603D01*
X034573Y069542D01*
X034512Y069542D01*
X034450Y069603D01*
X034450Y069727D01*
X034512Y069789D01*
X034573Y069789D01*
X034450Y069727D02*
X034388Y069789D01*
X034326Y069789D01*
X034265Y069727D01*
X034265Y069603D01*
X034326Y069542D01*
X034388Y069542D01*
X034450Y069603D01*
X034265Y069420D02*
X034635Y069420D01*
X034635Y069173D02*
X034265Y069173D01*
X034388Y069297D01*
X034265Y069420D01*
X034326Y069910D02*
X034265Y069972D01*
X034265Y070095D01*
X034326Y070157D01*
X034388Y070157D01*
X034450Y070095D01*
X034512Y070157D01*
X034573Y070157D01*
X034635Y070095D01*
X034450Y070095D02*
X034450Y070033D01*
X034450Y070278D02*
X034450Y070525D01*
X034573Y070647D02*
X034326Y070894D01*
X034573Y070894D01*
X034635Y070832D01*
X034635Y070708D01*
X034573Y070647D01*
X034326Y070647D01*
X034265Y070708D01*
X034265Y070832D01*
X034326Y070894D01*
X034265Y070464D02*
X034450Y070278D01*
X034635Y070464D02*
X034265Y070464D01*
X033635Y070464D02*
X033265Y070464D01*
X033450Y070278D01*
X033450Y070525D01*
X033388Y070647D02*
X033265Y070770D01*
X033635Y070770D01*
X033635Y070647D02*
X033635Y070894D01*
X033573Y070157D02*
X033635Y070095D01*
X033635Y069972D01*
X033573Y069910D01*
X033573Y069789D02*
X033635Y069727D01*
X033635Y069603D01*
X033573Y069542D01*
X033512Y069542D01*
X033450Y069603D01*
X033450Y069727D01*
X033512Y069789D01*
X033573Y069789D01*
X033450Y069727D02*
X033388Y069789D01*
X033326Y069789D01*
X033265Y069727D01*
X033265Y069603D01*
X033326Y069542D01*
X033388Y069542D01*
X033450Y069603D01*
X033265Y069420D02*
X033635Y069420D01*
X033635Y069173D02*
X033265Y069173D01*
X033388Y069297D01*
X033265Y069420D01*
X033326Y069910D02*
X033265Y069972D01*
X033265Y070095D01*
X033326Y070157D01*
X033388Y070157D01*
X033450Y070095D01*
X033512Y070157D01*
X033573Y070157D01*
X033450Y070095D02*
X033450Y070033D01*
X032635Y069972D02*
X032573Y069910D01*
X032635Y069972D02*
X032635Y070095D01*
X032573Y070157D01*
X032512Y070157D01*
X032450Y070095D01*
X032450Y070033D01*
X032450Y070095D02*
X032388Y070157D01*
X032326Y070157D01*
X032265Y070095D01*
X032265Y069972D01*
X032326Y069910D01*
X032326Y069789D02*
X032388Y069789D01*
X032450Y069727D01*
X032450Y069603D01*
X032388Y069542D01*
X032326Y069542D01*
X032265Y069603D01*
X032265Y069727D01*
X032326Y069789D01*
X032450Y069727D02*
X032512Y069789D01*
X032573Y069789D01*
X032635Y069727D01*
X032635Y069603D01*
X032573Y069542D01*
X032512Y069542D01*
X032450Y069603D01*
X032265Y069420D02*
X032635Y069420D01*
X032635Y069173D02*
X032265Y069173D01*
X032388Y069297D01*
X032265Y069420D01*
X031635Y069420D02*
X031265Y069420D01*
X031388Y069297D01*
X031265Y069173D01*
X031635Y069173D01*
X031573Y069542D02*
X031635Y069603D01*
X031635Y069727D01*
X031573Y069789D01*
X031512Y069789D01*
X031450Y069727D01*
X031450Y069603D01*
X031388Y069542D01*
X031326Y069542D01*
X031265Y069603D01*
X031265Y069727D01*
X031326Y069789D01*
X031388Y069789D01*
X031450Y069727D01*
X031450Y069603D02*
X031512Y069542D01*
X031573Y069542D01*
X031573Y069910D02*
X031635Y069972D01*
X031635Y070095D01*
X031573Y070157D01*
X031512Y070157D01*
X031450Y070095D01*
X031450Y070033D01*
X031450Y070095D02*
X031388Y070157D01*
X031326Y070157D01*
X031265Y070095D01*
X031265Y069972D01*
X031326Y069910D01*
X031450Y070278D02*
X031450Y070525D01*
X031388Y070647D02*
X031265Y070770D01*
X031635Y070770D01*
X031635Y070647D02*
X031635Y070894D01*
X031635Y070464D02*
X031265Y070464D01*
X031450Y070278D01*
X030635Y070095D02*
X030635Y069972D01*
X030573Y069910D01*
X030573Y069789D02*
X030635Y069727D01*
X030635Y069603D01*
X030573Y069542D01*
X030512Y069542D01*
X030450Y069603D01*
X030450Y069727D01*
X030512Y069789D01*
X030573Y069789D01*
X030450Y069727D02*
X030388Y069789D01*
X030326Y069789D01*
X030265Y069727D01*
X030265Y069603D01*
X030326Y069542D01*
X030388Y069542D01*
X030450Y069603D01*
X030265Y069420D02*
X030635Y069420D01*
X030635Y069173D02*
X030265Y069173D01*
X030388Y069297D01*
X030265Y069420D01*
X030326Y069910D02*
X030265Y069972D01*
X030265Y070095D01*
X030326Y070157D01*
X030388Y070157D01*
X030450Y070095D01*
X030512Y070157D01*
X030573Y070157D01*
X030635Y070095D01*
X030450Y070095D02*
X030450Y070033D01*
X030450Y070278D02*
X030450Y070525D01*
X030573Y070647D02*
X030326Y070894D01*
X030573Y070894D01*
X030635Y070832D01*
X030635Y070708D01*
X030573Y070647D01*
X030326Y070647D01*
X030265Y070708D01*
X030265Y070832D01*
X030326Y070894D01*
X030265Y070464D02*
X030450Y070278D01*
X030635Y070464D02*
X030265Y070464D01*
X029635Y070464D02*
X029265Y070464D01*
X029450Y070278D01*
X029450Y070525D01*
X029388Y070647D02*
X029265Y070770D01*
X029635Y070770D01*
X029635Y070647D02*
X029635Y070894D01*
X029573Y070157D02*
X029635Y070095D01*
X029635Y069972D01*
X029573Y069910D01*
X029573Y069789D02*
X029635Y069727D01*
X029635Y069603D01*
X029573Y069542D01*
X029512Y069542D01*
X029450Y069603D01*
X029450Y069727D01*
X029512Y069789D01*
X029573Y069789D01*
X029450Y069727D02*
X029388Y069789D01*
X029326Y069789D01*
X029265Y069727D01*
X029265Y069603D01*
X029326Y069542D01*
X029388Y069542D01*
X029450Y069603D01*
X029265Y069420D02*
X029635Y069420D01*
X029635Y069173D02*
X029265Y069173D01*
X029388Y069297D01*
X029265Y069420D01*
X029326Y069910D02*
X029265Y069972D01*
X029265Y070095D01*
X029326Y070157D01*
X029388Y070157D01*
X029450Y070095D01*
X029512Y070157D01*
X029573Y070157D01*
X029450Y070095D02*
X029450Y070033D01*
X032265Y070464D02*
X032450Y070278D01*
X032450Y070525D01*
X032388Y070647D02*
X032265Y070770D01*
X032635Y070770D01*
X032635Y070647D02*
X032635Y070894D01*
X032635Y070464D02*
X032265Y070464D01*
D12*
X032221Y077349D02*
X032528Y077349D01*
X032605Y077426D01*
X032605Y077579D01*
X032528Y077656D01*
X032605Y077810D02*
X032605Y078117D01*
X032605Y077963D02*
X032145Y077963D01*
X032298Y077810D01*
X032221Y077656D02*
X032145Y077579D01*
X032145Y077426D01*
X032221Y077349D01*
X031355Y077349D02*
X031355Y077579D01*
X031278Y077656D01*
X031202Y077656D01*
X031125Y077579D01*
X031125Y077349D01*
X031355Y077349D02*
X030895Y077349D01*
X030895Y077579D01*
X030971Y077656D01*
X031048Y077656D01*
X031125Y077579D01*
X031048Y077810D02*
X030895Y077963D01*
X031355Y077963D01*
X031355Y077810D02*
X031355Y078117D01*
X030105Y078117D02*
X030105Y077810D01*
X030105Y077963D02*
X029645Y077963D01*
X029798Y077810D01*
X029798Y077656D02*
X030105Y077656D01*
X029875Y077656D02*
X029875Y077349D01*
X029798Y077349D02*
X029645Y077503D01*
X029798Y077656D01*
X029798Y077349D02*
X030105Y077349D01*
X033395Y077349D02*
X033395Y077579D01*
X033471Y077656D01*
X033778Y077656D01*
X033855Y077579D01*
X033855Y077349D01*
X033395Y077349D01*
X033548Y077810D02*
X033395Y077963D01*
X033855Y077963D01*
X033855Y077810D02*
X033855Y078117D01*
X034645Y077963D02*
X035105Y077963D01*
X035105Y077810D02*
X035105Y078117D01*
X034798Y077810D02*
X034645Y077963D01*
X034645Y077656D02*
X034645Y077349D01*
X035105Y077349D01*
X035105Y077656D01*
X034875Y077503D02*
X034875Y077349D01*
X035895Y077349D02*
X035895Y077656D01*
X036048Y077810D02*
X035895Y077963D01*
X036355Y077963D01*
X036355Y077810D02*
X036355Y078117D01*
X036125Y077503D02*
X036125Y077349D01*
X036355Y077349D02*
X035895Y077349D01*
X037145Y077349D02*
X037605Y077349D01*
X037375Y077349D02*
X037375Y077656D01*
X037298Y077810D02*
X037145Y077963D01*
X037605Y077963D01*
X037605Y077810D02*
X037605Y078117D01*
X037605Y077656D02*
X037145Y077656D01*
X038395Y077656D02*
X038395Y077503D01*
X038395Y077579D02*
X038778Y077579D01*
X038855Y077503D01*
X038855Y077426D01*
X038778Y077349D01*
X038855Y077810D02*
X038855Y078117D01*
X038855Y077963D02*
X038395Y077963D01*
X038548Y077810D01*
X039645Y077963D02*
X040105Y077963D01*
X040105Y077810D02*
X040105Y078117D01*
X039798Y077810D02*
X039645Y077963D01*
X039645Y077656D02*
X039952Y077349D01*
X039875Y077426D02*
X040105Y077656D01*
X040105Y077349D02*
X039645Y077349D01*
X040895Y077349D02*
X041355Y077349D01*
X041355Y077656D01*
X041355Y077810D02*
X041355Y078117D01*
X041355Y077963D02*
X040895Y077963D01*
X041048Y077810D01*
X042145Y077963D02*
X042605Y077963D01*
X042605Y077810D02*
X042605Y078117D01*
X042298Y077810D02*
X042145Y077963D01*
X042145Y077656D02*
X042605Y077656D01*
X042605Y077349D02*
X042145Y077349D01*
X042298Y077503D01*
X042145Y077656D01*
X043395Y077656D02*
X043855Y077656D01*
X043395Y077349D01*
X043855Y077349D01*
X043855Y077810D02*
X043855Y078117D01*
X043855Y077963D02*
X043395Y077963D01*
X043548Y077810D01*
X044645Y077963D02*
X045105Y077963D01*
X045105Y077810D02*
X045105Y078117D01*
X044798Y077810D02*
X044645Y077963D01*
X044721Y077656D02*
X044875Y077656D01*
X044952Y077579D01*
X044952Y077349D01*
X045105Y077349D02*
X044645Y077349D01*
X044645Y077579D01*
X044721Y077656D01*
X045895Y077579D02*
X045895Y077349D01*
X046355Y077349D01*
X046202Y077349D02*
X046202Y077579D01*
X046125Y077656D01*
X045971Y077656D01*
X045895Y077579D01*
X046048Y077810D02*
X045895Y077963D01*
X046355Y077963D01*
X046355Y077810D02*
X046355Y078117D01*
X046355Y077656D02*
X046202Y077503D01*
X047145Y077579D02*
X047145Y077426D01*
X047221Y077349D01*
X047298Y077349D01*
X047375Y077426D01*
X047375Y077579D01*
X047452Y077656D01*
X047528Y077656D01*
X047605Y077579D01*
X047605Y077426D01*
X047528Y077349D01*
X047221Y077656D02*
X047145Y077579D01*
X047298Y077810D02*
X047145Y077963D01*
X047605Y077963D01*
X047605Y077810D02*
X047605Y078117D01*
X048395Y077963D02*
X048855Y077963D01*
X048855Y077810D02*
X048855Y078117D01*
X048548Y077810D02*
X048395Y077963D01*
X048395Y077656D02*
X048395Y077349D01*
X048395Y077503D02*
X048855Y077503D01*
X049645Y077656D02*
X050028Y077656D01*
X050105Y077579D01*
X050105Y077426D01*
X050028Y077349D01*
X049645Y077349D01*
X049798Y077810D02*
X049645Y077963D01*
X050105Y077963D01*
X050105Y077810D02*
X050105Y078117D01*
X050895Y077963D02*
X051355Y077963D01*
X051355Y077810D02*
X051355Y078117D01*
X051048Y077810D02*
X050895Y077963D01*
X050895Y077656D02*
X051202Y077656D01*
X051355Y077503D01*
X051202Y077349D01*
X050895Y077349D01*
X054145Y077503D02*
X054298Y077349D01*
X054605Y077349D01*
X054375Y077349D02*
X054375Y077656D01*
X054298Y077656D02*
X054605Y077656D01*
X054605Y077810D02*
X054605Y078117D01*
X054605Y077963D02*
X054145Y077963D01*
X054298Y077810D01*
X054298Y077656D02*
X054145Y077503D01*
X055395Y077579D02*
X055395Y077349D01*
X055855Y077349D01*
X055855Y077579D01*
X055778Y077656D01*
X055702Y077656D01*
X055625Y077579D01*
X055625Y077349D01*
X055625Y077579D02*
X055548Y077656D01*
X055471Y077656D01*
X055395Y077579D01*
X055548Y077810D02*
X055395Y077963D01*
X055855Y077963D01*
X055855Y077810D02*
X055855Y078117D01*
X056645Y077963D02*
X057105Y077963D01*
X057105Y077810D02*
X057105Y078117D01*
X056798Y077810D02*
X056645Y077963D01*
X056721Y077656D02*
X056645Y077579D01*
X056645Y077426D01*
X056721Y077349D01*
X057028Y077349D01*
X057105Y077426D01*
X057105Y077579D01*
X057028Y077656D01*
X057895Y077579D02*
X057895Y077349D01*
X058355Y077349D01*
X058355Y077579D01*
X058278Y077656D01*
X057971Y077656D01*
X057895Y077579D01*
X058048Y077810D02*
X057895Y077963D01*
X058355Y077963D01*
X058355Y077810D02*
X058355Y078117D01*
X059145Y077963D02*
X059605Y077963D01*
X059605Y077810D02*
X059605Y078117D01*
X059298Y077810D02*
X059145Y077963D01*
X059145Y077656D02*
X059145Y077349D01*
X059605Y077349D01*
X059605Y077656D01*
X059375Y077503D02*
X059375Y077349D01*
X060395Y077349D02*
X060395Y077656D01*
X060548Y077810D02*
X060395Y077963D01*
X060855Y077963D01*
X060855Y077810D02*
X060855Y078117D01*
X060625Y077503D02*
X060625Y077349D01*
X060855Y077349D02*
X060395Y077349D01*
X061645Y077349D02*
X062105Y077349D01*
X061875Y077349D02*
X061875Y077656D01*
X061798Y077810D02*
X061645Y077963D01*
X062105Y077963D01*
X062105Y077810D02*
X062105Y078117D01*
X062105Y077656D02*
X061645Y077656D01*
X062895Y077656D02*
X062895Y077503D01*
X062895Y077579D02*
X063278Y077579D01*
X063355Y077503D01*
X063355Y077426D01*
X063278Y077349D01*
X063355Y077810D02*
X063355Y078117D01*
X063355Y077963D02*
X062895Y077963D01*
X063048Y077810D01*
X064145Y077963D02*
X064605Y077963D01*
X064605Y077810D02*
X064605Y078117D01*
X064298Y077810D02*
X064145Y077963D01*
X064145Y077656D02*
X064452Y077349D01*
X064375Y077426D02*
X064605Y077656D01*
X064605Y077349D02*
X064145Y077349D01*
X065395Y077349D02*
X065855Y077349D01*
X065855Y077656D01*
X065855Y077810D02*
X065855Y078117D01*
X065855Y077963D02*
X065395Y077963D01*
X065548Y077810D01*
X066645Y077963D02*
X067105Y077963D01*
X067105Y077810D02*
X067105Y078117D01*
X066798Y077810D02*
X066645Y077963D01*
X066645Y077656D02*
X067105Y077656D01*
X067105Y077349D02*
X066645Y077349D01*
X066798Y077503D01*
X066645Y077656D01*
X067895Y077656D02*
X068355Y077656D01*
X067895Y077349D01*
X068355Y077349D01*
X068355Y077810D02*
X068355Y078117D01*
X068355Y077963D02*
X067895Y077963D01*
X068048Y077810D01*
X069145Y077963D02*
X069605Y077963D01*
X069605Y077810D02*
X069605Y078117D01*
X069298Y077810D02*
X069145Y077963D01*
X069221Y077656D02*
X069375Y077656D01*
X069452Y077579D01*
X069452Y077349D01*
X069605Y077349D02*
X069145Y077349D01*
X069145Y077579D01*
X069221Y077656D01*
X070395Y077579D02*
X070395Y077349D01*
X070855Y077349D01*
X070702Y077349D02*
X070702Y077579D01*
X070625Y077656D01*
X070471Y077656D01*
X070395Y077579D01*
X070548Y077810D02*
X070395Y077963D01*
X070855Y077963D01*
X070855Y077810D02*
X070855Y078117D01*
X070855Y077656D02*
X070702Y077503D01*
X071645Y077579D02*
X071645Y077426D01*
X071721Y077349D01*
X071798Y077349D01*
X071875Y077426D01*
X071875Y077579D01*
X071952Y077656D01*
X072028Y077656D01*
X072105Y077579D01*
X072105Y077426D01*
X072028Y077349D01*
X071721Y077656D02*
X071645Y077579D01*
X071798Y077810D02*
X071645Y077963D01*
X072105Y077963D01*
X072105Y077810D02*
X072105Y078117D01*
X072895Y077963D02*
X073355Y077963D01*
X073355Y077810D02*
X073355Y078117D01*
X073048Y077810D02*
X072895Y077963D01*
X072895Y077656D02*
X072895Y077349D01*
X072895Y077503D02*
X073355Y077503D01*
X074145Y077656D02*
X074528Y077656D01*
X074605Y077579D01*
X074605Y077426D01*
X074528Y077349D01*
X074145Y077349D01*
X074298Y077810D02*
X074145Y077963D01*
X074605Y077963D01*
X074605Y077810D02*
X074605Y078117D01*
X075395Y077963D02*
X075855Y077963D01*
X075855Y077810D02*
X075855Y078117D01*
X075548Y077810D02*
X075395Y077963D01*
X075395Y077656D02*
X075702Y077656D01*
X075855Y077503D01*
X075702Y077349D01*
X075395Y077349D01*
X052711Y045480D02*
X052557Y045480D01*
X052480Y045404D01*
X052327Y045480D02*
X052020Y045480D01*
X052020Y045020D01*
X052327Y045020D01*
X052480Y045020D02*
X052787Y045327D01*
X052787Y045404D01*
X052711Y045480D01*
X052787Y045020D02*
X052480Y045020D01*
X052173Y045250D02*
X052020Y045250D01*
X052173Y043980D02*
X052327Y043827D01*
X052327Y043520D01*
X052327Y043750D02*
X052020Y043750D01*
X052020Y043827D02*
X052173Y043980D01*
X052020Y043827D02*
X052020Y043520D01*
X052634Y043520D02*
X052634Y043980D01*
X052787Y043980D02*
X052480Y043980D01*
X052941Y043980D02*
X053248Y043980D01*
X053401Y043827D02*
X053555Y043980D01*
X053555Y043520D01*
X053708Y043520D02*
X053401Y043520D01*
X053094Y043750D02*
X052941Y043750D01*
X052941Y043520D02*
X052941Y043980D01*
X053862Y043980D02*
X053862Y043750D01*
X054015Y043827D01*
X054092Y043827D01*
X054168Y043750D01*
X054168Y043597D01*
X054092Y043520D01*
X053938Y043520D01*
X053862Y043597D01*
X053862Y043980D02*
X054168Y043980D01*
X054322Y043904D02*
X054399Y043980D01*
X054552Y043980D01*
X054629Y043904D01*
X054322Y043597D01*
X054399Y043520D01*
X054552Y043520D01*
X054629Y043597D01*
X054629Y043904D01*
X054782Y043980D02*
X055089Y043520D01*
X055243Y043520D02*
X055550Y043520D01*
X055396Y043520D02*
X055396Y043980D01*
X055243Y043827D01*
X055089Y043980D02*
X054782Y043520D01*
X054322Y043597D02*
X054322Y043904D01*
X055703Y043904D02*
X055780Y043980D01*
X055933Y043980D01*
X056010Y043904D01*
X055703Y043597D01*
X055780Y043520D01*
X055933Y043520D01*
X056010Y043597D01*
X056010Y043904D01*
X056164Y043904D02*
X056240Y043980D01*
X056394Y043980D01*
X056470Y043904D01*
X056164Y043597D01*
X056240Y043520D01*
X056394Y043520D01*
X056470Y043597D01*
X056470Y043904D01*
X056624Y043980D02*
X056931Y043520D01*
X056624Y043520D02*
X056931Y043980D01*
X056164Y043904D02*
X056164Y043597D01*
X055703Y043597D02*
X055703Y043904D01*
X047673Y037480D02*
X047673Y037020D01*
X047520Y037020D02*
X047827Y037020D01*
X047520Y037327D02*
X047673Y037480D01*
X049020Y019725D02*
X049020Y019418D01*
X049020Y019265D02*
X049480Y019265D01*
X049020Y018958D01*
X049480Y018958D01*
X049480Y018805D02*
X049480Y018651D01*
X049480Y018728D02*
X049020Y018728D01*
X049020Y018651D02*
X049020Y018805D01*
X049096Y018498D02*
X049020Y018421D01*
X049020Y018268D01*
X049096Y018191D01*
X049403Y018191D01*
X049480Y018268D01*
X049480Y018421D01*
X049403Y018498D01*
X049403Y018037D02*
X049480Y017961D01*
X049480Y017807D01*
X049403Y017730D01*
X049096Y017730D01*
X049020Y017807D01*
X049020Y017961D01*
X049096Y018037D01*
X049020Y017577D02*
X049327Y017577D01*
X049480Y017423D01*
X049327Y017270D01*
X049020Y017270D01*
X051020Y017270D02*
X051327Y017270D01*
X051480Y017423D01*
X051327Y017577D01*
X051020Y017577D01*
X051096Y017730D02*
X051403Y017730D01*
X051480Y017807D01*
X051480Y017961D01*
X051403Y018037D01*
X051403Y018191D02*
X051480Y018268D01*
X051480Y018421D01*
X051403Y018498D01*
X051480Y018651D02*
X051480Y018805D01*
X051480Y018728D02*
X051020Y018728D01*
X051020Y018651D02*
X051020Y018805D01*
X051096Y018958D02*
X051403Y018958D01*
X051480Y019035D01*
X051480Y019188D01*
X051403Y019265D01*
X051096Y019265D01*
X051020Y019188D01*
X051020Y019035D01*
X051096Y018958D01*
X051096Y018498D02*
X051020Y018421D01*
X051020Y018268D01*
X051096Y018191D01*
X051403Y018191D01*
X051096Y018037D02*
X051020Y017961D01*
X051020Y017807D01*
X051096Y017730D01*
X049480Y019572D02*
X049020Y019572D01*
X049605Y007998D02*
X049605Y007691D01*
X049605Y007844D02*
X049145Y007844D01*
X049298Y007691D01*
X049298Y007537D02*
X049375Y007461D01*
X049375Y007230D01*
X049528Y007077D02*
X049605Y007000D01*
X049605Y006847D01*
X049528Y006770D01*
X049221Y006770D01*
X049145Y006847D01*
X049145Y007000D01*
X049221Y007077D01*
X049145Y007230D02*
X049145Y007461D01*
X049221Y007537D01*
X049298Y007537D01*
X049375Y007461D02*
X049452Y007537D01*
X049528Y007537D01*
X049605Y007461D01*
X049605Y007230D01*
X049145Y007230D01*
X048355Y007307D02*
X048355Y007461D01*
X048278Y007537D01*
X048355Y007691D02*
X048355Y007998D01*
X048355Y007844D02*
X047895Y007844D01*
X048048Y007691D01*
X047971Y007537D02*
X047895Y007461D01*
X047895Y007307D01*
X047971Y007230D01*
X048278Y007230D01*
X048355Y007307D01*
X048278Y007077D02*
X048355Y007000D01*
X048355Y006847D01*
X048278Y006770D01*
X047971Y006770D01*
X047895Y006847D01*
X047895Y007000D01*
X047971Y007077D01*
X047105Y007000D02*
X047028Y007077D01*
X047105Y007000D02*
X047105Y006847D01*
X047028Y006770D01*
X046721Y006770D01*
X046645Y006847D01*
X046645Y007000D01*
X046721Y007077D01*
X046645Y007230D02*
X046645Y007461D01*
X046721Y007537D01*
X047028Y007537D01*
X047105Y007461D01*
X047105Y007230D01*
X046645Y007230D01*
X046798Y007691D02*
X046645Y007844D01*
X047105Y007844D01*
X047105Y007691D02*
X047105Y007998D01*
X045855Y007998D02*
X045855Y007691D01*
X045855Y007844D02*
X045395Y007844D01*
X045548Y007691D01*
X045395Y007537D02*
X045395Y007230D01*
X045855Y007230D01*
X045855Y007537D01*
X045625Y007384D02*
X045625Y007230D01*
X045778Y007077D02*
X045855Y007000D01*
X045855Y006847D01*
X045778Y006770D01*
X045471Y006770D01*
X045395Y006847D01*
X045395Y007000D01*
X045471Y007077D01*
X044605Y007000D02*
X044528Y007077D01*
X044605Y007000D02*
X044605Y006847D01*
X044528Y006770D01*
X044221Y006770D01*
X044145Y006847D01*
X044145Y007000D01*
X044221Y007077D01*
X044145Y007230D02*
X044605Y007230D01*
X044375Y007230D02*
X044375Y007384D01*
X044145Y007230D02*
X044145Y007537D01*
X044298Y007691D02*
X044145Y007844D01*
X044605Y007844D01*
X044605Y007691D02*
X044605Y007998D01*
X043355Y007998D02*
X043355Y007691D01*
X043355Y007844D02*
X042895Y007844D01*
X043048Y007691D01*
X043125Y007537D02*
X043125Y007230D01*
X043278Y007077D02*
X043355Y007000D01*
X043355Y006847D01*
X043278Y006770D01*
X042971Y006770D01*
X042895Y006847D01*
X042895Y007000D01*
X042971Y007077D01*
X042895Y007230D02*
X043355Y007230D01*
X043355Y007537D02*
X042895Y007537D01*
X042105Y007384D02*
X042028Y007461D01*
X041645Y007461D01*
X041645Y007537D02*
X041645Y007384D01*
X041721Y007077D02*
X041645Y007000D01*
X041645Y006847D01*
X041721Y006770D01*
X042028Y006770D01*
X042105Y006847D01*
X042105Y007000D01*
X042028Y007077D01*
X042028Y007230D02*
X042105Y007307D01*
X042105Y007384D01*
X042105Y007691D02*
X042105Y007998D01*
X042105Y007844D02*
X041645Y007844D01*
X041798Y007691D01*
X040855Y007691D02*
X040855Y007998D01*
X040855Y007844D02*
X040395Y007844D01*
X040548Y007691D01*
X040395Y007537D02*
X040702Y007230D01*
X040625Y007307D02*
X040855Y007537D01*
X040855Y007230D02*
X040395Y007230D01*
X040471Y007077D02*
X040395Y007000D01*
X040395Y006847D01*
X040471Y006770D01*
X040778Y006770D01*
X040855Y006847D01*
X040855Y007000D01*
X040778Y007077D01*
X039605Y007000D02*
X039528Y007077D01*
X039605Y007000D02*
X039605Y006847D01*
X039528Y006770D01*
X039221Y006770D01*
X039145Y006847D01*
X039145Y007000D01*
X039221Y007077D01*
X039145Y007230D02*
X039605Y007230D01*
X039605Y007537D01*
X039605Y007691D02*
X039605Y007998D01*
X039605Y007844D02*
X039145Y007844D01*
X039298Y007691D01*
X038355Y007691D02*
X038355Y007998D01*
X038355Y007844D02*
X037895Y007844D01*
X038048Y007691D01*
X037895Y007537D02*
X038355Y007537D01*
X038355Y007230D02*
X037895Y007230D01*
X038048Y007384D01*
X037895Y007537D01*
X037971Y007077D02*
X037895Y007000D01*
X037895Y006847D01*
X037971Y006770D01*
X038278Y006770D01*
X038355Y006847D01*
X038355Y007000D01*
X038278Y007077D01*
X037105Y007000D02*
X037028Y007077D01*
X037105Y007000D02*
X037105Y006847D01*
X037028Y006770D01*
X036721Y006770D01*
X036645Y006847D01*
X036645Y007000D01*
X036721Y007077D01*
X036645Y007230D02*
X037105Y007537D01*
X036645Y007537D01*
X036798Y007691D02*
X036645Y007844D01*
X037105Y007844D01*
X037105Y007691D02*
X037105Y007998D01*
X037105Y007230D02*
X036645Y007230D01*
X035855Y007230D02*
X035395Y007230D01*
X035395Y007461D01*
X035471Y007537D01*
X035625Y007537D01*
X035702Y007461D01*
X035702Y007230D01*
X035778Y007077D02*
X035855Y007000D01*
X035855Y006847D01*
X035778Y006770D01*
X035471Y006770D01*
X035395Y006847D01*
X035395Y007000D01*
X035471Y007077D01*
X035548Y007691D02*
X035395Y007844D01*
X035855Y007844D01*
X035855Y007691D02*
X035855Y007998D01*
X034605Y007998D02*
X034605Y007691D01*
X034605Y007844D02*
X034145Y007844D01*
X034298Y007691D01*
X034221Y007537D02*
X034375Y007537D01*
X034452Y007461D01*
X034452Y007230D01*
X034605Y007230D02*
X034145Y007230D01*
X034145Y007461D01*
X034221Y007537D01*
X034452Y007384D02*
X034605Y007537D01*
X034528Y007077D02*
X034605Y007000D01*
X034605Y006847D01*
X034528Y006770D01*
X034221Y006770D01*
X034145Y006847D01*
X034145Y007000D01*
X034221Y007077D01*
X033355Y007000D02*
X033278Y007077D01*
X033355Y007000D02*
X033355Y006847D01*
X033278Y006770D01*
X032971Y006770D01*
X032895Y006847D01*
X032895Y007000D01*
X032971Y007077D01*
X032971Y007230D02*
X033048Y007230D01*
X033125Y007307D01*
X033125Y007461D01*
X033202Y007537D01*
X033278Y007537D01*
X033355Y007461D01*
X033355Y007307D01*
X033278Y007230D01*
X032971Y007230D02*
X032895Y007307D01*
X032895Y007461D01*
X032971Y007537D01*
X033048Y007691D02*
X032895Y007844D01*
X033355Y007844D01*
X033355Y007691D02*
X033355Y007998D01*
X032105Y007998D02*
X032105Y007691D01*
X032105Y007844D02*
X031645Y007844D01*
X031798Y007691D01*
X031645Y007537D02*
X031645Y007230D01*
X031645Y007384D02*
X032105Y007384D01*
X032028Y007077D02*
X032105Y007000D01*
X032105Y006847D01*
X032028Y006770D01*
X031721Y006770D01*
X031645Y006847D01*
X031645Y007000D01*
X031721Y007077D01*
X030855Y007000D02*
X030778Y007077D01*
X030855Y007000D02*
X030855Y006847D01*
X030778Y006770D01*
X030471Y006770D01*
X030395Y006847D01*
X030395Y007000D01*
X030471Y007077D01*
X030395Y007230D02*
X030778Y007230D01*
X030855Y007307D01*
X030855Y007461D01*
X030778Y007537D01*
X030395Y007537D01*
X030548Y007691D02*
X030395Y007844D01*
X030855Y007844D01*
X030855Y007691D02*
X030855Y007998D01*
X029605Y007998D02*
X029605Y007691D01*
X029605Y007844D02*
X029145Y007844D01*
X029298Y007691D01*
X029452Y007537D02*
X029145Y007537D01*
X029452Y007537D02*
X029605Y007384D01*
X029452Y007230D01*
X029145Y007230D01*
X029221Y007077D02*
X029145Y007000D01*
X029145Y006847D01*
X029221Y006770D01*
X029528Y006770D01*
X029605Y006847D01*
X029605Y007000D01*
X029528Y007077D01*
X023355Y007000D02*
X023355Y006770D01*
X022895Y006770D01*
X022895Y007000D01*
X022971Y007077D01*
X023278Y007077D01*
X023355Y007000D01*
X023355Y007230D02*
X023048Y007230D01*
X022895Y007384D01*
X023048Y007537D01*
X023355Y007537D01*
X023355Y007691D02*
X023355Y007998D01*
X023355Y007844D02*
X022895Y007844D01*
X023048Y007691D01*
X023125Y007537D02*
X023125Y007230D01*
X022105Y007230D02*
X022105Y007461D01*
X022028Y007537D01*
X021952Y007537D01*
X021875Y007461D01*
X021875Y007230D01*
X022028Y007077D02*
X021721Y007077D01*
X021645Y007000D01*
X021645Y006770D01*
X022105Y006770D01*
X022105Y007000D01*
X022028Y007077D01*
X022105Y007230D02*
X021645Y007230D01*
X021645Y007461D01*
X021721Y007537D01*
X021798Y007537D01*
X021875Y007461D01*
X021798Y007691D02*
X021645Y007844D01*
X022105Y007844D01*
X022105Y007691D02*
X022105Y007998D01*
X020855Y007998D02*
X020855Y007691D01*
X020855Y007844D02*
X020395Y007844D01*
X020548Y007691D01*
X020471Y007537D02*
X020395Y007461D01*
X020395Y007307D01*
X020471Y007230D01*
X020778Y007230D01*
X020855Y007307D01*
X020855Y007461D01*
X020778Y007537D01*
X020778Y007077D02*
X020471Y007077D01*
X020395Y007000D01*
X020395Y006770D01*
X020855Y006770D01*
X020855Y007000D01*
X020778Y007077D01*
X019605Y007000D02*
X019605Y006770D01*
X019145Y006770D01*
X019145Y007000D01*
X019221Y007077D01*
X019528Y007077D01*
X019605Y007000D01*
X019605Y007230D02*
X019605Y007461D01*
X019528Y007537D01*
X019221Y007537D01*
X019145Y007461D01*
X019145Y007230D01*
X019605Y007230D01*
X019605Y007691D02*
X019605Y007998D01*
X019605Y007844D02*
X019145Y007844D01*
X019298Y007691D01*
X018355Y007691D02*
X018355Y007998D01*
X018355Y007844D02*
X017895Y007844D01*
X018048Y007691D01*
X017895Y007537D02*
X017895Y007230D01*
X018355Y007230D01*
X018355Y007537D01*
X018125Y007384D02*
X018125Y007230D01*
X018278Y007077D02*
X017971Y007077D01*
X017895Y007000D01*
X017895Y006770D01*
X018355Y006770D01*
X018355Y007000D01*
X018278Y007077D01*
X017105Y007000D02*
X017105Y006770D01*
X016645Y006770D01*
X016645Y007000D01*
X016721Y007077D01*
X017028Y007077D01*
X017105Y007000D01*
X017105Y007230D02*
X016645Y007230D01*
X016645Y007537D01*
X016798Y007691D02*
X016645Y007844D01*
X017105Y007844D01*
X017105Y007691D02*
X017105Y007998D01*
X016875Y007384D02*
X016875Y007230D01*
X015855Y007230D02*
X015395Y007230D01*
X015471Y007077D02*
X015395Y007000D01*
X015395Y006770D01*
X015855Y006770D01*
X015855Y007000D01*
X015778Y007077D01*
X015471Y007077D01*
X015625Y007230D02*
X015625Y007537D01*
X015548Y007691D02*
X015395Y007844D01*
X015855Y007844D01*
X015855Y007691D02*
X015855Y007998D01*
X015855Y007537D02*
X015395Y007537D01*
X014605Y007384D02*
X014528Y007461D01*
X014145Y007461D01*
X014145Y007537D02*
X014145Y007384D01*
X014221Y007077D02*
X014145Y007000D01*
X014145Y006770D01*
X014605Y006770D01*
X014605Y007000D01*
X014528Y007077D01*
X014221Y007077D01*
X014528Y007230D02*
X014605Y007307D01*
X014605Y007384D01*
X014605Y007691D02*
X014605Y007998D01*
X014605Y007844D02*
X014145Y007844D01*
X014298Y007691D01*
X013355Y007691D02*
X013355Y007998D01*
X013355Y007844D02*
X012895Y007844D01*
X013048Y007691D01*
X012895Y007537D02*
X013202Y007230D01*
X013125Y007307D02*
X013355Y007537D01*
X013355Y007230D02*
X012895Y007230D01*
X012971Y007077D02*
X012895Y007000D01*
X012895Y006770D01*
X013355Y006770D01*
X013355Y007000D01*
X013278Y007077D01*
X012971Y007077D01*
X012105Y007000D02*
X012105Y006770D01*
X011645Y006770D01*
X011645Y007000D01*
X011721Y007077D01*
X012028Y007077D01*
X012105Y007000D01*
X012105Y007230D02*
X012105Y007537D01*
X012105Y007691D02*
X012105Y007998D01*
X012105Y007844D02*
X011645Y007844D01*
X011798Y007691D01*
X011645Y007230D02*
X012105Y007230D01*
X010855Y007230D02*
X010395Y007230D01*
X010548Y007384D01*
X010395Y007537D01*
X010855Y007537D01*
X010855Y007691D02*
X010855Y007998D01*
X010855Y007844D02*
X010395Y007844D01*
X010548Y007691D01*
X010471Y007077D02*
X010395Y007000D01*
X010395Y006770D01*
X010855Y006770D01*
X010855Y007000D01*
X010778Y007077D01*
X010471Y007077D01*
X009605Y007000D02*
X009528Y007077D01*
X009221Y007077D01*
X009145Y007000D01*
X009145Y006770D01*
X009605Y006770D01*
X009605Y007000D01*
X009605Y007230D02*
X009145Y007230D01*
X009605Y007537D01*
X009145Y007537D01*
X009298Y007691D02*
X009145Y007844D01*
X009605Y007844D01*
X009605Y007691D02*
X009605Y007998D01*
X008355Y007998D02*
X008355Y007691D01*
X008355Y007844D02*
X007895Y007844D01*
X008048Y007691D01*
X007971Y007537D02*
X008125Y007537D01*
X008202Y007461D01*
X008202Y007230D01*
X008355Y007230D02*
X007895Y007230D01*
X007895Y007461D01*
X007971Y007537D01*
X007971Y007077D02*
X007895Y007000D01*
X007895Y006770D01*
X008355Y006770D01*
X008355Y007000D01*
X008278Y007077D01*
X007971Y007077D01*
X007105Y007000D02*
X007105Y006770D01*
X006645Y006770D01*
X006645Y007000D01*
X006721Y007077D01*
X007028Y007077D01*
X007105Y007000D01*
X007105Y007230D02*
X006645Y007230D01*
X006645Y007461D01*
X006721Y007537D01*
X006875Y007537D01*
X006952Y007461D01*
X006952Y007230D01*
X006952Y007384D02*
X007105Y007537D01*
X007105Y007691D02*
X007105Y007998D01*
X007105Y007844D02*
X006645Y007844D01*
X006798Y007691D01*
X005855Y007691D02*
X005855Y007998D01*
X005855Y007844D02*
X005395Y007844D01*
X005548Y007691D01*
X005471Y007537D02*
X005395Y007461D01*
X005395Y007307D01*
X005471Y007230D01*
X005548Y007230D01*
X005625Y007307D01*
X005625Y007461D01*
X005702Y007537D01*
X005778Y007537D01*
X005855Y007461D01*
X005855Y007307D01*
X005778Y007230D01*
X005778Y007077D02*
X005471Y007077D01*
X005395Y007000D01*
X005395Y006770D01*
X005855Y006770D01*
X005855Y007000D01*
X005778Y007077D01*
X004605Y007000D02*
X004605Y006770D01*
X004145Y006770D01*
X004145Y007000D01*
X004221Y007077D01*
X004528Y007077D01*
X004605Y007000D01*
X004605Y007384D02*
X004145Y007384D01*
X004145Y007537D02*
X004145Y007230D01*
X004298Y007691D02*
X004145Y007844D01*
X004605Y007844D01*
X004605Y007691D02*
X004605Y007998D01*
X003355Y007998D02*
X003355Y007691D01*
X003355Y007844D02*
X002895Y007844D01*
X003048Y007691D01*
X002895Y007537D02*
X003278Y007537D01*
X003355Y007461D01*
X003355Y007307D01*
X003278Y007230D01*
X002895Y007230D01*
X002971Y007077D02*
X002895Y007000D01*
X002895Y006770D01*
X003355Y006770D01*
X003355Y007000D01*
X003278Y007077D01*
X002971Y007077D01*
X002105Y007000D02*
X002105Y006770D01*
X001645Y006770D01*
X001645Y007000D01*
X001721Y007077D01*
X002028Y007077D01*
X002105Y007000D01*
X001952Y007230D02*
X002105Y007384D01*
X001952Y007537D01*
X001645Y007537D01*
X001798Y007691D02*
X001645Y007844D01*
X002105Y007844D01*
X002105Y007691D02*
X002105Y007998D01*
X001952Y007230D02*
X001645Y007230D01*
X007520Y037020D02*
X007827Y037020D01*
X007673Y037020D02*
X007673Y037480D01*
X007520Y037327D01*
X012020Y043520D02*
X012020Y043827D01*
X012173Y043980D01*
X012327Y043827D01*
X012327Y043520D01*
X012327Y043750D02*
X012020Y043750D01*
X012480Y043980D02*
X012787Y043980D01*
X012634Y043980D02*
X012634Y043520D01*
X012941Y043520D02*
X012941Y043980D01*
X013248Y043980D01*
X013401Y043827D02*
X013555Y043980D01*
X013555Y043520D01*
X013708Y043520D02*
X013401Y043520D01*
X013094Y043750D02*
X012941Y043750D01*
X013862Y043750D02*
X014015Y043827D01*
X014092Y043827D01*
X014168Y043750D01*
X014168Y043597D01*
X014092Y043520D01*
X013938Y043520D01*
X013862Y043597D01*
X013862Y043750D02*
X013862Y043980D01*
X014168Y043980D01*
X014322Y043904D02*
X014399Y043980D01*
X014552Y043980D01*
X014629Y043904D01*
X014322Y043597D01*
X014399Y043520D01*
X014552Y043520D01*
X014629Y043597D01*
X014629Y043904D01*
X014782Y043980D02*
X015089Y043520D01*
X015243Y043520D02*
X015550Y043520D01*
X015396Y043520D02*
X015396Y043980D01*
X015243Y043827D01*
X015089Y043980D02*
X014782Y043520D01*
X014322Y043597D02*
X014322Y043904D01*
X015703Y043904D02*
X015780Y043980D01*
X015933Y043980D01*
X016010Y043904D01*
X015703Y043597D01*
X015780Y043520D01*
X015933Y043520D01*
X016010Y043597D01*
X016010Y043904D01*
X016164Y043904D02*
X016240Y043980D01*
X016394Y043980D01*
X016470Y043904D01*
X016164Y043597D01*
X016240Y043520D01*
X016394Y043520D01*
X016470Y043597D01*
X016470Y043904D01*
X016624Y043980D02*
X016931Y043520D01*
X016624Y043520D02*
X016931Y043980D01*
X016164Y043904D02*
X016164Y043597D01*
X015703Y043597D02*
X015703Y043904D01*
X012787Y045020D02*
X012480Y045020D01*
X012327Y045020D02*
X012020Y045020D01*
X012020Y045480D01*
X012327Y045480D01*
X012480Y045327D02*
X012634Y045480D01*
X012634Y045020D01*
X012173Y045250D02*
X012020Y045250D01*
X012145Y077349D02*
X012605Y077349D01*
X012452Y077349D02*
X012145Y077656D01*
X012298Y077810D02*
X012145Y077963D01*
X012605Y077963D01*
X012605Y077810D02*
X012605Y078117D01*
X012605Y077656D02*
X012375Y077426D01*
X011355Y077426D02*
X011278Y077349D01*
X011355Y077426D02*
X011355Y077503D01*
X011278Y077579D01*
X010895Y077579D01*
X010895Y077503D02*
X010895Y077656D01*
X011048Y077810D02*
X010895Y077963D01*
X011355Y077963D01*
X011355Y077810D02*
X011355Y078117D01*
X010105Y078117D02*
X010105Y077810D01*
X010105Y077963D02*
X009645Y077963D01*
X009798Y077810D01*
X009875Y077656D02*
X009875Y077349D01*
X010105Y077349D02*
X009645Y077349D01*
X009645Y077656D02*
X010105Y077656D01*
X008855Y077810D02*
X008855Y078117D01*
X008855Y077963D02*
X008395Y077963D01*
X008548Y077810D01*
X008395Y077656D02*
X008395Y077349D01*
X008855Y077349D01*
X008625Y077349D02*
X008625Y077503D01*
X007605Y077349D02*
X007605Y077656D01*
X007605Y077810D02*
X007605Y078117D01*
X007605Y077963D02*
X007145Y077963D01*
X007298Y077810D01*
X007145Y077656D02*
X007145Y077349D01*
X007605Y077349D01*
X007375Y077349D02*
X007375Y077503D01*
X006355Y077579D02*
X006355Y077349D01*
X005895Y077349D01*
X005895Y077579D01*
X005971Y077656D01*
X006278Y077656D01*
X006355Y077579D01*
X006355Y077810D02*
X006355Y078117D01*
X006355Y077963D02*
X005895Y077963D01*
X006048Y077810D01*
X005105Y077810D02*
X005105Y078117D01*
X005105Y077963D02*
X004645Y077963D01*
X004798Y077810D01*
X004721Y077656D02*
X004645Y077579D01*
X004645Y077426D01*
X004721Y077349D01*
X005028Y077349D01*
X005105Y077426D01*
X005105Y077579D01*
X005028Y077656D01*
X003855Y077579D02*
X003855Y077349D01*
X003395Y077349D01*
X003395Y077579D01*
X003471Y077656D01*
X003548Y077656D01*
X003625Y077579D01*
X003625Y077349D01*
X003625Y077579D02*
X003702Y077656D01*
X003778Y077656D01*
X003855Y077579D01*
X003855Y077810D02*
X003855Y078117D01*
X003855Y077963D02*
X003395Y077963D01*
X003548Y077810D01*
X002605Y077810D02*
X002605Y078117D01*
X002605Y077963D02*
X002145Y077963D01*
X002298Y077810D01*
X002298Y077656D02*
X002605Y077656D01*
X002375Y077656D02*
X002375Y077349D01*
X002298Y077349D02*
X002145Y077503D01*
X002298Y077656D01*
X002298Y077349D02*
X002605Y077349D01*
X013395Y077349D02*
X013855Y077349D01*
X013855Y077656D01*
X013855Y077810D02*
X013855Y078117D01*
X013855Y077963D02*
X013395Y077963D01*
X013548Y077810D01*
X014645Y077963D02*
X015105Y077963D01*
X015105Y077810D02*
X015105Y078117D01*
X014798Y077810D02*
X014645Y077963D01*
X014645Y077656D02*
X015105Y077656D01*
X015105Y077349D02*
X014645Y077349D01*
X014798Y077503D01*
X014645Y077656D01*
X015895Y077656D02*
X016355Y077656D01*
X015895Y077349D01*
X016355Y077349D01*
X016355Y077810D02*
X016355Y078117D01*
X016355Y077963D02*
X015895Y077963D01*
X016048Y077810D01*
X017145Y077963D02*
X017605Y077963D01*
X017605Y077810D02*
X017605Y078117D01*
X017298Y077810D02*
X017145Y077963D01*
X017221Y077656D02*
X017375Y077656D01*
X017452Y077579D01*
X017452Y077349D01*
X017605Y077349D02*
X017145Y077349D01*
X017145Y077579D01*
X017221Y077656D01*
X018395Y077579D02*
X018395Y077349D01*
X018855Y077349D01*
X018702Y077349D02*
X018702Y077579D01*
X018625Y077656D01*
X018471Y077656D01*
X018395Y077579D01*
X018548Y077810D02*
X018395Y077963D01*
X018855Y077963D01*
X018855Y077810D02*
X018855Y078117D01*
X018855Y077656D02*
X018702Y077503D01*
X019645Y077579D02*
X019645Y077426D01*
X019721Y077349D01*
X019798Y077349D01*
X019875Y077426D01*
X019875Y077579D01*
X019952Y077656D01*
X020028Y077656D01*
X020105Y077579D01*
X020105Y077426D01*
X020028Y077349D01*
X019721Y077656D02*
X019645Y077579D01*
X019798Y077810D02*
X019645Y077963D01*
X020105Y077963D01*
X020105Y077810D02*
X020105Y078117D01*
X020895Y077963D02*
X021355Y077963D01*
X021355Y077810D02*
X021355Y078117D01*
X021048Y077810D02*
X020895Y077963D01*
X020895Y077656D02*
X020895Y077349D01*
X020895Y077503D02*
X021355Y077503D01*
X022145Y077656D02*
X022528Y077656D01*
X022605Y077579D01*
X022605Y077426D01*
X022528Y077349D01*
X022145Y077349D01*
X022298Y077810D02*
X022145Y077963D01*
X022605Y077963D01*
X022605Y077810D02*
X022605Y078117D01*
X023395Y077963D02*
X023855Y077963D01*
X023855Y077810D02*
X023855Y078117D01*
X023548Y077810D02*
X023395Y077963D01*
X023395Y077656D02*
X023702Y077656D01*
X023855Y077503D01*
X023702Y077349D01*
X023395Y077349D01*
X050395Y007844D02*
X050855Y007844D01*
X050855Y007691D02*
X050855Y007998D01*
X050548Y007691D02*
X050395Y007844D01*
X050548Y007537D02*
X050395Y007384D01*
X050548Y007230D01*
X050855Y007230D01*
X050778Y007077D02*
X050855Y007000D01*
X050855Y006847D01*
X050778Y006770D01*
X050471Y006770D01*
X050395Y006847D01*
X050395Y007000D01*
X050471Y007077D01*
X050625Y007230D02*
X050625Y007537D01*
X050548Y007537D02*
X050855Y007537D01*
X054145Y007537D02*
X054452Y007537D01*
X054605Y007384D01*
X054452Y007230D01*
X054145Y007230D01*
X054221Y007077D02*
X054298Y007077D01*
X054375Y007000D01*
X054375Y006770D01*
X054605Y006770D02*
X054605Y007000D01*
X054528Y007077D01*
X054452Y007077D01*
X054375Y007000D01*
X054221Y007077D02*
X054145Y007000D01*
X054145Y006770D01*
X054605Y006770D01*
X055395Y006770D02*
X055395Y007000D01*
X055471Y007077D01*
X055548Y007077D01*
X055625Y007000D01*
X055625Y006770D01*
X055855Y006770D02*
X055395Y006770D01*
X055625Y007000D02*
X055702Y007077D01*
X055778Y007077D01*
X055855Y007000D01*
X055855Y006770D01*
X055778Y007230D02*
X055855Y007307D01*
X055855Y007461D01*
X055778Y007537D01*
X055395Y007537D01*
X055548Y007691D02*
X055395Y007844D01*
X055855Y007844D01*
X055855Y007691D02*
X055855Y007998D01*
X055778Y007230D02*
X055395Y007230D01*
X054605Y007691D02*
X054605Y007998D01*
X054605Y007844D02*
X054145Y007844D01*
X054298Y007691D01*
X056645Y007844D02*
X057105Y007844D01*
X057105Y007691D02*
X057105Y007998D01*
X056798Y007691D02*
X056645Y007844D01*
X056645Y007537D02*
X056645Y007230D01*
X056645Y007384D02*
X057105Y007384D01*
X057028Y007077D02*
X057105Y007000D01*
X057105Y006770D01*
X056645Y006770D01*
X056645Y007000D01*
X056721Y007077D01*
X056798Y007077D01*
X056875Y007000D01*
X056875Y006770D01*
X056875Y007000D02*
X056952Y007077D01*
X057028Y007077D01*
X057895Y007000D02*
X057895Y006770D01*
X058355Y006770D01*
X058355Y007000D01*
X058278Y007077D01*
X058202Y007077D01*
X058125Y007000D01*
X058125Y006770D01*
X058125Y007000D02*
X058048Y007077D01*
X057971Y007077D01*
X057895Y007000D01*
X057971Y007230D02*
X058048Y007230D01*
X058125Y007307D01*
X058125Y007461D01*
X058202Y007537D01*
X058278Y007537D01*
X058355Y007461D01*
X058355Y007307D01*
X058278Y007230D01*
X057971Y007230D02*
X057895Y007307D01*
X057895Y007461D01*
X057971Y007537D01*
X058048Y007691D02*
X057895Y007844D01*
X058355Y007844D01*
X058355Y007691D02*
X058355Y007998D01*
X059145Y007844D02*
X059605Y007844D01*
X059605Y007691D02*
X059605Y007998D01*
X059298Y007691D02*
X059145Y007844D01*
X059221Y007537D02*
X059375Y007537D01*
X059452Y007461D01*
X059452Y007230D01*
X059605Y007230D02*
X059145Y007230D01*
X059145Y007461D01*
X059221Y007537D01*
X059452Y007384D02*
X059605Y007537D01*
X059528Y007077D02*
X059605Y007000D01*
X059605Y006770D01*
X059145Y006770D01*
X059145Y007000D01*
X059221Y007077D01*
X059298Y007077D01*
X059375Y007000D01*
X059375Y006770D01*
X059375Y007000D02*
X059452Y007077D01*
X059528Y007077D01*
X060395Y007000D02*
X060395Y006770D01*
X060855Y006770D01*
X060855Y007000D01*
X060778Y007077D01*
X060702Y007077D01*
X060625Y007000D01*
X060625Y006770D01*
X060625Y007000D02*
X060548Y007077D01*
X060471Y007077D01*
X060395Y007000D01*
X060395Y007230D02*
X060395Y007461D01*
X060471Y007537D01*
X060625Y007537D01*
X060702Y007461D01*
X060702Y007230D01*
X060855Y007230D02*
X060395Y007230D01*
X060548Y007691D02*
X060395Y007844D01*
X060855Y007844D01*
X060855Y007691D02*
X060855Y007998D01*
X061645Y007844D02*
X062105Y007844D01*
X062105Y007691D02*
X062105Y007998D01*
X061798Y007691D02*
X061645Y007844D01*
X061645Y007537D02*
X062105Y007537D01*
X061645Y007230D01*
X062105Y007230D01*
X062028Y007077D02*
X062105Y007000D01*
X062105Y006770D01*
X061645Y006770D01*
X061645Y007000D01*
X061721Y007077D01*
X061798Y007077D01*
X061875Y007000D01*
X061875Y006770D01*
X061875Y007000D02*
X061952Y007077D01*
X062028Y007077D01*
X062895Y007000D02*
X062895Y006770D01*
X063355Y006770D01*
X063355Y007000D01*
X063278Y007077D01*
X063202Y007077D01*
X063125Y007000D01*
X063125Y006770D01*
X063125Y007000D02*
X063048Y007077D01*
X062971Y007077D01*
X062895Y007000D01*
X062895Y007230D02*
X063048Y007384D01*
X062895Y007537D01*
X063355Y007537D01*
X063355Y007691D02*
X063355Y007998D01*
X063355Y007844D02*
X062895Y007844D01*
X063048Y007691D01*
X062895Y007230D02*
X063355Y007230D01*
X064145Y007230D02*
X064605Y007230D01*
X064605Y007537D01*
X064605Y007691D02*
X064605Y007998D01*
X064605Y007844D02*
X064145Y007844D01*
X064298Y007691D01*
X064298Y007077D02*
X064375Y007000D01*
X064375Y006770D01*
X064605Y006770D02*
X064605Y007000D01*
X064528Y007077D01*
X064452Y007077D01*
X064375Y007000D01*
X064298Y007077D02*
X064221Y007077D01*
X064145Y007000D01*
X064145Y006770D01*
X064605Y006770D01*
X065395Y006770D02*
X065395Y007000D01*
X065471Y007077D01*
X065548Y007077D01*
X065625Y007000D01*
X065625Y006770D01*
X065855Y006770D02*
X065855Y007000D01*
X065778Y007077D01*
X065702Y007077D01*
X065625Y007000D01*
X065702Y007230D02*
X065395Y007537D01*
X065548Y007691D02*
X065395Y007844D01*
X065855Y007844D01*
X065855Y007691D02*
X065855Y007998D01*
X065855Y007537D02*
X065625Y007307D01*
X065395Y007230D02*
X065855Y007230D01*
X065855Y006770D02*
X065395Y006770D01*
X066645Y006770D02*
X066645Y007000D01*
X066721Y007077D01*
X066798Y007077D01*
X066875Y007000D01*
X066875Y006770D01*
X067105Y006770D02*
X067105Y007000D01*
X067028Y007077D01*
X066952Y007077D01*
X066875Y007000D01*
X067028Y007230D02*
X067105Y007307D01*
X067105Y007384D01*
X067028Y007461D01*
X066645Y007461D01*
X066645Y007537D02*
X066645Y007384D01*
X066798Y007691D02*
X066645Y007844D01*
X067105Y007844D01*
X067105Y007691D02*
X067105Y007998D01*
X067895Y007844D02*
X068355Y007844D01*
X068355Y007691D02*
X068355Y007998D01*
X068048Y007691D02*
X067895Y007844D01*
X067895Y007537D02*
X068355Y007537D01*
X068125Y007537D02*
X068125Y007230D01*
X068202Y007077D02*
X068278Y007077D01*
X068355Y007000D01*
X068355Y006770D01*
X067895Y006770D01*
X067895Y007000D01*
X067971Y007077D01*
X068048Y007077D01*
X068125Y007000D01*
X068125Y006770D01*
X068125Y007000D02*
X068202Y007077D01*
X068355Y007230D02*
X067895Y007230D01*
X067105Y006770D02*
X066645Y006770D01*
X069145Y006770D02*
X069145Y007000D01*
X069221Y007077D01*
X069298Y007077D01*
X069375Y007000D01*
X069375Y006770D01*
X069605Y006770D02*
X069145Y006770D01*
X069375Y007000D02*
X069452Y007077D01*
X069528Y007077D01*
X069605Y007000D01*
X069605Y006770D01*
X069605Y007230D02*
X069145Y007230D01*
X069145Y007537D01*
X069298Y007691D02*
X069145Y007844D01*
X069605Y007844D01*
X069605Y007691D02*
X069605Y007998D01*
X069375Y007384D02*
X069375Y007230D01*
X070395Y007230D02*
X070855Y007230D01*
X070855Y007537D01*
X070855Y007691D02*
X070855Y007998D01*
X070855Y007844D02*
X070395Y007844D01*
X070548Y007691D01*
X070395Y007537D02*
X070395Y007230D01*
X070471Y007077D02*
X070548Y007077D01*
X070625Y007000D01*
X070625Y006770D01*
X070855Y006770D02*
X070855Y007000D01*
X070778Y007077D01*
X070702Y007077D01*
X070625Y007000D01*
X070471Y007077D02*
X070395Y007000D01*
X070395Y006770D01*
X070855Y006770D01*
X070625Y007230D02*
X070625Y007384D01*
X071645Y007461D02*
X071645Y007230D01*
X072105Y007230D01*
X072105Y007461D01*
X072028Y007537D01*
X071721Y007537D01*
X071645Y007461D01*
X071798Y007691D02*
X071645Y007844D01*
X072105Y007844D01*
X072105Y007691D02*
X072105Y007998D01*
X072895Y007844D02*
X073355Y007844D01*
X073355Y007691D02*
X073355Y007998D01*
X073048Y007691D02*
X072895Y007844D01*
X072971Y007537D02*
X072895Y007461D01*
X072895Y007307D01*
X072971Y007230D01*
X073278Y007230D01*
X073355Y007307D01*
X073355Y007461D01*
X073278Y007537D01*
X073278Y007077D02*
X073355Y007000D01*
X073355Y006770D01*
X072895Y006770D01*
X072895Y007000D01*
X072971Y007077D01*
X073048Y007077D01*
X073125Y007000D01*
X073125Y006770D01*
X073125Y007000D02*
X073202Y007077D01*
X073278Y007077D01*
X074145Y007000D02*
X074145Y006770D01*
X074605Y006770D01*
X074605Y007000D01*
X074528Y007077D01*
X074452Y007077D01*
X074375Y007000D01*
X074375Y006770D01*
X074375Y007000D02*
X074298Y007077D01*
X074221Y007077D01*
X074145Y007000D01*
X074145Y007230D02*
X074145Y007461D01*
X074221Y007537D01*
X074298Y007537D01*
X074375Y007461D01*
X074375Y007230D01*
X074605Y007230D02*
X074605Y007461D01*
X074528Y007537D01*
X074452Y007537D01*
X074375Y007461D01*
X074298Y007691D02*
X074145Y007844D01*
X074605Y007844D01*
X074605Y007691D02*
X074605Y007998D01*
X074605Y007230D02*
X074145Y007230D01*
X075395Y007384D02*
X075548Y007537D01*
X075855Y007537D01*
X075855Y007691D02*
X075855Y007998D01*
X075855Y007844D02*
X075395Y007844D01*
X075548Y007691D01*
X075625Y007537D02*
X075625Y007230D01*
X075548Y007230D02*
X075395Y007384D01*
X075548Y007230D02*
X075855Y007230D01*
X075778Y007077D02*
X075855Y007000D01*
X075855Y006770D01*
X075395Y006770D01*
X075395Y007000D01*
X075471Y007077D01*
X075548Y007077D01*
X075625Y007000D01*
X075625Y006770D01*
X075625Y007000D02*
X075702Y007077D01*
X075778Y007077D01*
X072105Y007000D02*
X072105Y006770D01*
X071645Y006770D01*
X071645Y007000D01*
X071721Y007077D01*
X071798Y007077D01*
X071875Y007000D01*
X071875Y006770D01*
X071875Y007000D02*
X071952Y007077D01*
X072028Y007077D01*
X072105Y007000D01*
X081645Y006923D02*
X081798Y006770D01*
X082105Y006770D01*
X081875Y006770D02*
X081875Y007077D01*
X081798Y007077D02*
X082105Y007077D01*
X081952Y007230D02*
X082105Y007384D01*
X081952Y007537D01*
X081645Y007537D01*
X081798Y007691D02*
X081645Y007844D01*
X082105Y007844D01*
X082105Y007691D02*
X082105Y007998D01*
X081952Y007230D02*
X081645Y007230D01*
X081798Y007077D02*
X081645Y006923D01*
X082895Y006923D02*
X083048Y006770D01*
X083355Y006770D01*
X083125Y006770D02*
X083125Y007077D01*
X083048Y007077D02*
X083355Y007077D01*
X083278Y007230D02*
X083355Y007307D01*
X083355Y007461D01*
X083278Y007537D01*
X082895Y007537D01*
X083048Y007691D02*
X082895Y007844D01*
X083355Y007844D01*
X083355Y007691D02*
X083355Y007998D01*
X083278Y007230D02*
X082895Y007230D01*
X083048Y007077D02*
X082895Y006923D01*
X084145Y006923D02*
X084298Y007077D01*
X084605Y007077D01*
X084375Y007077D02*
X084375Y006770D01*
X084298Y006770D02*
X084145Y006923D01*
X084298Y006770D02*
X084605Y006770D01*
X084605Y007384D02*
X084145Y007384D01*
X084145Y007537D02*
X084145Y007230D01*
X084298Y007691D02*
X084145Y007844D01*
X084605Y007844D01*
X084605Y007691D02*
X084605Y007998D01*
X085395Y007844D02*
X085855Y007844D01*
X085855Y007691D02*
X085855Y007998D01*
X085548Y007691D02*
X085395Y007844D01*
X085471Y007537D02*
X085395Y007461D01*
X085395Y007307D01*
X085471Y007230D01*
X085548Y007230D01*
X085625Y007307D01*
X085625Y007461D01*
X085702Y007537D01*
X085778Y007537D01*
X085855Y007461D01*
X085855Y007307D01*
X085778Y007230D01*
X085855Y007077D02*
X085548Y007077D01*
X085395Y006923D01*
X085548Y006770D01*
X085855Y006770D01*
X085625Y006770D02*
X085625Y007077D01*
X086645Y007230D02*
X086645Y007461D01*
X086721Y007537D01*
X086875Y007537D01*
X086952Y007461D01*
X086952Y007230D01*
X087105Y007230D02*
X086645Y007230D01*
X086798Y007077D02*
X087105Y007077D01*
X086875Y007077D02*
X086875Y006770D01*
X086798Y006770D02*
X086645Y006923D01*
X086798Y007077D01*
X086798Y006770D02*
X087105Y006770D01*
X086952Y007384D02*
X087105Y007537D01*
X087105Y007691D02*
X087105Y007998D01*
X087105Y007844D02*
X086645Y007844D01*
X086798Y007691D01*
X087895Y007844D02*
X088355Y007844D01*
X088355Y007691D02*
X088355Y007998D01*
X088048Y007691D02*
X087895Y007844D01*
X087971Y007537D02*
X088125Y007537D01*
X088202Y007461D01*
X088202Y007230D01*
X088355Y007230D02*
X087895Y007230D01*
X087895Y007461D01*
X087971Y007537D01*
X088048Y007077D02*
X088355Y007077D01*
X088125Y007077D02*
X088125Y006770D01*
X088048Y006770D02*
X087895Y006923D01*
X088048Y007077D01*
X088048Y006770D02*
X088355Y006770D01*
X089145Y006923D02*
X089298Y007077D01*
X089605Y007077D01*
X089605Y007230D02*
X089145Y007230D01*
X089605Y007537D01*
X089145Y007537D01*
X089298Y007691D02*
X089145Y007844D01*
X089605Y007844D01*
X089605Y007691D02*
X089605Y007998D01*
X090395Y007844D02*
X090855Y007844D01*
X090855Y007691D02*
X090855Y007998D01*
X090548Y007691D02*
X090395Y007844D01*
X090395Y007537D02*
X090855Y007537D01*
X090855Y007230D02*
X090395Y007230D01*
X090548Y007384D01*
X090395Y007537D01*
X090548Y007077D02*
X090395Y006923D01*
X090548Y006770D01*
X090855Y006770D01*
X090625Y006770D02*
X090625Y007077D01*
X090548Y007077D02*
X090855Y007077D01*
X091645Y007230D02*
X092105Y007230D01*
X092105Y007537D01*
X092105Y007691D02*
X092105Y007998D01*
X092105Y007844D02*
X091645Y007844D01*
X091798Y007691D01*
X091798Y007077D02*
X092105Y007077D01*
X091875Y007077D02*
X091875Y006770D01*
X091798Y006770D02*
X091645Y006923D01*
X091798Y007077D01*
X091798Y006770D02*
X092105Y006770D01*
X092895Y006923D02*
X093048Y007077D01*
X093355Y007077D01*
X093355Y007230D02*
X092895Y007230D01*
X093125Y007307D02*
X093355Y007537D01*
X093355Y007691D02*
X093355Y007998D01*
X093355Y007844D02*
X092895Y007844D01*
X093048Y007691D01*
X092895Y007537D02*
X093202Y007230D01*
X093125Y007077D02*
X093125Y006770D01*
X093048Y006770D02*
X092895Y006923D01*
X093048Y006770D02*
X093355Y006770D01*
X094145Y006923D02*
X094298Y007077D01*
X094605Y007077D01*
X094528Y007230D02*
X094605Y007307D01*
X094605Y007384D01*
X094528Y007461D01*
X094145Y007461D01*
X094145Y007537D02*
X094145Y007384D01*
X094298Y007691D02*
X094145Y007844D01*
X094605Y007844D01*
X094605Y007691D02*
X094605Y007998D01*
X095395Y007844D02*
X095855Y007844D01*
X095855Y007691D02*
X095855Y007998D01*
X095548Y007691D02*
X095395Y007844D01*
X095395Y007537D02*
X095855Y007537D01*
X095625Y007537D02*
X095625Y007230D01*
X095625Y007077D02*
X095625Y006770D01*
X095548Y006770D02*
X095395Y006923D01*
X095548Y007077D01*
X095855Y007077D01*
X095855Y007230D02*
X095395Y007230D01*
X095548Y006770D02*
X095855Y006770D01*
X096645Y006923D02*
X096798Y006770D01*
X097105Y006770D01*
X096875Y006770D02*
X096875Y007077D01*
X096798Y007077D02*
X097105Y007077D01*
X097105Y007230D02*
X096645Y007230D01*
X096645Y007537D01*
X096798Y007691D02*
X096645Y007844D01*
X097105Y007844D01*
X097105Y007691D02*
X097105Y007998D01*
X096875Y007384D02*
X096875Y007230D01*
X096798Y007077D02*
X096645Y006923D01*
X097895Y006923D02*
X098048Y006770D01*
X098355Y006770D01*
X098125Y006770D02*
X098125Y007077D01*
X098048Y007077D02*
X098355Y007077D01*
X098355Y007230D02*
X098355Y007537D01*
X098355Y007691D02*
X098355Y007998D01*
X098355Y007844D02*
X097895Y007844D01*
X098048Y007691D01*
X097895Y007537D02*
X097895Y007230D01*
X098355Y007230D01*
X098125Y007230D02*
X098125Y007384D01*
X098048Y007077D02*
X097895Y006923D01*
X099145Y006923D02*
X099298Y006770D01*
X099605Y006770D01*
X099375Y006770D02*
X099375Y007077D01*
X099298Y007077D02*
X099605Y007077D01*
X099605Y007230D02*
X099605Y007461D01*
X099528Y007537D01*
X099221Y007537D01*
X099145Y007461D01*
X099145Y007230D01*
X099605Y007230D01*
X099298Y007077D02*
X099145Y006923D01*
X099298Y007691D02*
X099145Y007844D01*
X099605Y007844D01*
X099605Y007691D02*
X099605Y007998D01*
X100395Y007844D02*
X100855Y007844D01*
X100855Y007691D02*
X100855Y007998D01*
X100548Y007691D02*
X100395Y007844D01*
X100471Y007537D02*
X100395Y007461D01*
X100395Y007307D01*
X100471Y007230D01*
X100778Y007230D01*
X100855Y007307D01*
X100855Y007461D01*
X100778Y007537D01*
X100855Y007077D02*
X100548Y007077D01*
X100395Y006923D01*
X100548Y006770D01*
X100855Y006770D01*
X100625Y006770D02*
X100625Y007077D01*
X101645Y007230D02*
X101645Y007461D01*
X101721Y007537D01*
X101798Y007537D01*
X101875Y007461D01*
X101875Y007230D01*
X101875Y007077D02*
X101875Y006770D01*
X101798Y006770D02*
X101645Y006923D01*
X101798Y007077D01*
X102105Y007077D01*
X102105Y007230D02*
X102105Y007461D01*
X102028Y007537D01*
X101952Y007537D01*
X101875Y007461D01*
X101798Y007691D02*
X101645Y007844D01*
X102105Y007844D01*
X102105Y007691D02*
X102105Y007998D01*
X102105Y007230D02*
X101645Y007230D01*
X101798Y006770D02*
X102105Y006770D01*
X102895Y006923D02*
X103048Y006770D01*
X103355Y006770D01*
X103125Y006770D02*
X103125Y007077D01*
X103048Y007077D02*
X103355Y007077D01*
X103355Y007230D02*
X103048Y007230D01*
X102895Y007384D01*
X103048Y007537D01*
X103355Y007537D01*
X103355Y007691D02*
X103355Y007998D01*
X103355Y007844D02*
X102895Y007844D01*
X103048Y007691D01*
X103125Y007537D02*
X103125Y007230D01*
X103048Y007077D02*
X102895Y006923D01*
X094605Y006770D02*
X094298Y006770D01*
X094145Y006923D01*
X094375Y006770D02*
X094375Y007077D01*
X089605Y006770D02*
X089298Y006770D01*
X089145Y006923D01*
X089375Y006770D02*
X089375Y007077D01*
D13*
X099875Y010850D02*
X099875Y015650D01*
X099895Y015650D01*
X099895Y010850D01*
X099875Y010850D02*
X099925Y010800D01*
X099925Y015700D01*
X099875Y015650D01*
X099925Y015700D02*
X099975Y015750D01*
X099995Y015750D01*
X099995Y015900D01*
X099975Y015900D01*
X099925Y015950D01*
X099925Y016200D01*
X099875Y016150D01*
X099895Y016150D01*
X099895Y016000D01*
X099875Y016000D02*
X099875Y016150D01*
X099925Y016200D02*
X099975Y016250D01*
X102025Y016250D01*
X102025Y015900D01*
X102025Y015750D01*
X102025Y010750D01*
X101000Y010750D01*
X101000Y014813D01*
X100750Y014862D02*
X101250Y014862D01*
X101250Y015000D01*
X100750Y015000D01*
X100750Y014862D01*
X101000Y015250D02*
X101000Y015600D01*
X101125Y015500D02*
X101325Y015500D01*
X101225Y015600D02*
X101225Y015400D01*
X101800Y015750D02*
X100025Y015750D01*
X100025Y015900D01*
X099995Y015900D01*
X099975Y015900D02*
X099975Y015750D01*
X099995Y015750D02*
X100025Y015750D01*
X100025Y015900D02*
X101800Y015900D01*
X101800Y015750D01*
X102025Y015750D01*
X102125Y015650D01*
X102125Y010850D01*
X102025Y010750D01*
X101000Y010750D02*
X099975Y010750D01*
X099925Y010800D01*
X099925Y015950D02*
X099875Y016000D01*
X101800Y015900D02*
X102025Y015900D01*
X102125Y016000D01*
X102125Y016150D01*
X102025Y016250D01*
X074625Y016150D02*
X074625Y016000D01*
X074525Y015900D01*
X074525Y015750D01*
X074525Y010750D01*
X073500Y010750D01*
X073500Y014813D01*
X073250Y014862D02*
X073750Y014862D01*
X073750Y015000D01*
X073250Y015000D01*
X073250Y014862D01*
X073500Y015250D02*
X073500Y015600D01*
X073625Y015500D02*
X073825Y015500D01*
X073725Y015600D02*
X073725Y015400D01*
X074300Y015750D02*
X072525Y015750D01*
X072525Y015900D01*
X072495Y015900D01*
X072475Y015900D01*
X072425Y015950D01*
X072425Y016200D01*
X072375Y016150D01*
X072395Y016150D01*
X072395Y016000D01*
X072375Y016000D02*
X072375Y016150D01*
X072425Y016200D02*
X072475Y016250D01*
X074525Y016250D01*
X074525Y015900D01*
X074300Y015900D01*
X072525Y015900D01*
X072495Y015900D02*
X072495Y015750D01*
X072475Y015750D01*
X072425Y015700D01*
X072425Y010800D01*
X072375Y010850D01*
X072375Y015650D01*
X072395Y015650D01*
X072395Y010850D01*
X072425Y010800D02*
X072475Y010750D01*
X073500Y010750D01*
X074525Y010750D02*
X074625Y010850D01*
X074625Y015650D01*
X074525Y015750D01*
X074300Y015750D01*
X074300Y015900D01*
X074625Y016150D02*
X074525Y016250D01*
X072525Y015750D02*
X072495Y015750D01*
X072475Y015750D02*
X072475Y015900D01*
X072425Y015950D02*
X072375Y016000D01*
X072425Y015700D02*
X072375Y015650D01*
X057500Y030400D02*
X057500Y033100D01*
X057498Y033117D01*
X057494Y033134D01*
X057487Y033150D01*
X057477Y033164D01*
X057464Y033177D01*
X057450Y033187D01*
X057434Y033194D01*
X057417Y033198D01*
X057400Y033200D01*
X056600Y033200D01*
X056583Y033198D01*
X056566Y033194D01*
X056550Y033187D01*
X056536Y033177D01*
X056523Y033164D01*
X056513Y033150D01*
X056506Y033134D01*
X056502Y033117D01*
X056500Y033100D01*
X056500Y030400D01*
X056502Y030383D01*
X056506Y030366D01*
X056513Y030350D01*
X056523Y030336D01*
X056536Y030323D01*
X056550Y030313D01*
X056566Y030306D01*
X056583Y030302D01*
X056600Y030300D01*
X057400Y030300D01*
X057417Y030302D01*
X057434Y030306D01*
X057450Y030313D01*
X057464Y030323D01*
X057477Y030336D01*
X057487Y030350D01*
X057494Y030366D01*
X057498Y030383D01*
X057500Y030400D01*
X057000Y031150D02*
X057000Y031620D01*
X057000Y031870D02*
X057000Y032350D01*
X065100Y042800D02*
X065900Y042800D01*
X065917Y042802D01*
X065934Y042806D01*
X065950Y042813D01*
X065964Y042823D01*
X065977Y042836D01*
X065987Y042850D01*
X065994Y042866D01*
X065998Y042883D01*
X066000Y042900D01*
X066000Y045600D01*
X065998Y045617D01*
X065994Y045634D01*
X065987Y045650D01*
X065977Y045664D01*
X065964Y045677D01*
X065950Y045687D01*
X065934Y045694D01*
X065917Y045698D01*
X065900Y045700D01*
X065100Y045700D01*
X065083Y045698D01*
X065066Y045694D01*
X065050Y045687D01*
X065036Y045677D01*
X065023Y045664D01*
X065013Y045650D01*
X065006Y045634D01*
X065002Y045617D01*
X065000Y045600D01*
X065000Y042900D01*
X065002Y042883D01*
X065006Y042866D01*
X065013Y042850D01*
X065023Y042836D01*
X065036Y042823D01*
X065050Y042813D01*
X065066Y042806D01*
X065083Y042802D01*
X065100Y042800D01*
X065500Y043650D02*
X065500Y044120D01*
X065500Y044370D02*
X065500Y044850D01*
X077250Y045300D02*
X077250Y043700D01*
X077650Y043700D01*
X077750Y043700D01*
X077750Y043300D01*
X077750Y042700D01*
X077650Y042700D01*
X077450Y042700D01*
X077450Y043300D01*
X077450Y043500D01*
X077250Y043650D01*
X077250Y043700D01*
X077450Y043300D02*
X077650Y043300D01*
X077750Y043300D01*
X077750Y043700D02*
X078050Y043700D01*
X078050Y045300D01*
X077750Y045300D01*
X077650Y045300D01*
X077250Y045300D01*
X077250Y046250D01*
X077300Y046250D01*
X077300Y046750D01*
X077250Y046750D01*
X077250Y048500D01*
X080750Y048500D01*
X080750Y048000D01*
X080850Y048000D01*
X080850Y047500D01*
X080750Y047500D01*
X080750Y044750D01*
X080850Y044750D01*
X080850Y044250D01*
X080750Y044250D01*
X080750Y041500D01*
X080850Y041500D01*
X080850Y041000D01*
X080750Y041000D01*
X080750Y040500D01*
X077250Y040500D01*
X077250Y042350D01*
X077450Y042500D01*
X077450Y042700D01*
X077750Y042700D02*
X077750Y041000D01*
X080250Y041000D01*
X080250Y048000D01*
X077750Y048000D01*
X077750Y045300D01*
X082250Y045300D02*
X082250Y043700D01*
X082650Y043700D01*
X082750Y043700D01*
X082750Y043300D01*
X082750Y042700D01*
X082650Y042700D01*
X082450Y042700D01*
X082450Y043300D01*
X082450Y043500D01*
X082250Y043650D01*
X082250Y043700D01*
X082450Y043300D02*
X082650Y043300D01*
X082750Y043300D01*
X082750Y043700D02*
X083050Y043700D01*
X083050Y045300D01*
X082750Y045300D01*
X082650Y045300D01*
X082250Y045300D01*
X082250Y046250D01*
X082300Y046250D01*
X082300Y046750D01*
X082250Y046750D01*
X082250Y048500D01*
X085750Y048500D01*
X085750Y048000D01*
X085850Y048000D01*
X085850Y047500D01*
X085750Y047500D01*
X085750Y044750D01*
X085850Y044750D01*
X085850Y044250D01*
X085750Y044250D01*
X085750Y041500D01*
X085850Y041500D01*
X085850Y041000D01*
X085750Y041000D01*
X085750Y040500D01*
X082250Y040500D01*
X082250Y042350D01*
X082450Y042500D01*
X082450Y042700D01*
X082750Y042700D02*
X082750Y041000D01*
X085250Y041000D01*
X085250Y048000D01*
X082750Y048000D01*
X082750Y045300D01*
X061000Y054900D02*
X061000Y057600D01*
X060998Y057617D01*
X060994Y057634D01*
X060987Y057650D01*
X060977Y057664D01*
X060964Y057677D01*
X060950Y057687D01*
X060934Y057694D01*
X060917Y057698D01*
X060900Y057700D01*
X060100Y057700D01*
X060083Y057698D01*
X060066Y057694D01*
X060050Y057687D01*
X060036Y057677D01*
X060023Y057664D01*
X060013Y057650D01*
X060006Y057634D01*
X060002Y057617D01*
X060000Y057600D01*
X060000Y054900D01*
X060002Y054883D01*
X060006Y054866D01*
X060013Y054850D01*
X060023Y054836D01*
X060036Y054823D01*
X060050Y054813D01*
X060066Y054806D01*
X060083Y054802D01*
X060100Y054800D01*
X060900Y054800D01*
X060917Y054802D01*
X060934Y054806D01*
X060950Y054813D01*
X060964Y054823D01*
X060977Y054836D01*
X060987Y054850D01*
X060994Y054866D01*
X060998Y054883D01*
X061000Y054900D01*
X060500Y055650D02*
X060500Y056130D01*
X060500Y056380D02*
X060500Y056850D01*
X043700Y044400D02*
X043700Y043600D01*
X043698Y043583D01*
X043694Y043566D01*
X043687Y043550D01*
X043677Y043536D01*
X043664Y043523D01*
X043650Y043513D01*
X043634Y043506D01*
X043617Y043502D01*
X043600Y043500D01*
X040900Y043500D01*
X040883Y043502D01*
X040866Y043506D01*
X040850Y043513D01*
X040836Y043523D01*
X040823Y043536D01*
X040813Y043550D01*
X040806Y043566D01*
X040802Y043583D01*
X040800Y043600D01*
X040800Y044400D01*
X040802Y044417D01*
X040806Y044434D01*
X040813Y044450D01*
X040823Y044464D01*
X040836Y044477D01*
X040850Y044487D01*
X040866Y044494D01*
X040883Y044498D01*
X040900Y044500D01*
X043600Y044500D01*
X043617Y044498D01*
X043634Y044494D01*
X043650Y044487D01*
X043664Y044477D01*
X043677Y044464D01*
X043687Y044450D01*
X043694Y044434D01*
X043698Y044417D01*
X043700Y044400D01*
X042850Y044000D02*
X042370Y044000D01*
X042120Y044000D02*
X041650Y044000D01*
X027700Y045100D02*
X027700Y045900D01*
X027698Y045917D01*
X027694Y045934D01*
X027687Y045950D01*
X027677Y045964D01*
X027664Y045977D01*
X027650Y045987D01*
X027634Y045994D01*
X027617Y045998D01*
X027600Y046000D01*
X024900Y046000D01*
X024883Y045998D01*
X024866Y045994D01*
X024850Y045987D01*
X024836Y045977D01*
X024823Y045964D01*
X024813Y045950D01*
X024806Y045934D01*
X024802Y045917D01*
X024800Y045900D01*
X024800Y045100D01*
X024802Y045083D01*
X024806Y045066D01*
X024813Y045050D01*
X024823Y045036D01*
X024836Y045023D01*
X024850Y045013D01*
X024866Y045006D01*
X024883Y045002D01*
X024900Y045000D01*
X027600Y045000D01*
X027617Y045002D01*
X027634Y045006D01*
X027650Y045013D01*
X027664Y045023D01*
X027677Y045036D01*
X027687Y045050D01*
X027694Y045066D01*
X027698Y045083D01*
X027700Y045100D01*
X026850Y045500D02*
X026380Y045500D01*
X026130Y045500D02*
X025650Y045500D01*
X020900Y054800D02*
X020100Y054800D01*
X020083Y054802D01*
X020066Y054806D01*
X020050Y054813D01*
X020036Y054823D01*
X020023Y054836D01*
X020013Y054850D01*
X020006Y054866D01*
X020002Y054883D01*
X020000Y054900D01*
X020000Y057600D01*
X020002Y057617D01*
X020006Y057634D01*
X020013Y057650D01*
X020023Y057664D01*
X020036Y057677D01*
X020050Y057687D01*
X020066Y057694D01*
X020083Y057698D01*
X020100Y057700D01*
X020900Y057700D01*
X020917Y057698D01*
X020934Y057694D01*
X020950Y057687D01*
X020964Y057677D01*
X020977Y057664D01*
X020987Y057650D01*
X020994Y057634D01*
X020998Y057617D01*
X021000Y057600D01*
X021000Y054900D01*
X020998Y054883D01*
X020994Y054866D01*
X020987Y054850D01*
X020977Y054836D01*
X020964Y054823D01*
X020950Y054813D01*
X020934Y054806D01*
X020917Y054802D01*
X020900Y054800D01*
X020500Y055650D02*
X020500Y056130D01*
X020500Y056380D02*
X020500Y056850D01*
X004200Y045900D02*
X004200Y045100D01*
X004198Y045083D01*
X004194Y045066D01*
X004187Y045050D01*
X004177Y045036D01*
X004164Y045023D01*
X004150Y045013D01*
X004134Y045006D01*
X004117Y045002D01*
X004100Y045000D01*
X001400Y045000D01*
X001383Y045002D01*
X001366Y045006D01*
X001350Y045013D01*
X001336Y045023D01*
X001323Y045036D01*
X001313Y045050D01*
X001306Y045066D01*
X001302Y045083D01*
X001300Y045100D01*
X001300Y045900D01*
X001302Y045917D01*
X001306Y045934D01*
X001313Y045950D01*
X001323Y045964D01*
X001336Y045977D01*
X001350Y045987D01*
X001366Y045994D01*
X001383Y045998D01*
X001400Y046000D01*
X004100Y046000D01*
X004117Y045998D01*
X004134Y045994D01*
X004150Y045987D01*
X004164Y045977D01*
X004177Y045964D01*
X004187Y045950D01*
X004194Y045934D01*
X004198Y045917D01*
X004200Y045900D01*
X003350Y045500D02*
X002870Y045500D01*
X002620Y045500D02*
X002150Y045500D01*
X016000Y034100D02*
X016000Y031400D01*
X016002Y031383D01*
X016006Y031366D01*
X016013Y031350D01*
X016023Y031336D01*
X016036Y031323D01*
X016050Y031313D01*
X016066Y031306D01*
X016083Y031302D01*
X016100Y031300D01*
X016900Y031300D01*
X016917Y031302D01*
X016934Y031306D01*
X016950Y031313D01*
X016964Y031323D01*
X016977Y031336D01*
X016987Y031350D01*
X016994Y031366D01*
X016998Y031383D01*
X017000Y031400D01*
X017000Y034100D01*
X016998Y034117D01*
X016994Y034134D01*
X016987Y034150D01*
X016977Y034164D01*
X016964Y034177D01*
X016950Y034187D01*
X016934Y034194D01*
X016917Y034198D01*
X016900Y034200D01*
X016100Y034200D01*
X016083Y034198D01*
X016066Y034194D01*
X016050Y034187D01*
X016036Y034177D01*
X016023Y034164D01*
X016013Y034150D01*
X016006Y034134D01*
X016002Y034117D01*
X016000Y034100D01*
X016500Y033350D02*
X016500Y032870D01*
X016500Y032620D02*
X016500Y032150D01*
X047375Y016150D02*
X047375Y016000D01*
X047425Y015950D01*
X047425Y016200D01*
X047375Y016150D01*
X047395Y016150D01*
X047395Y016000D01*
X047425Y015950D02*
X047475Y015900D01*
X047495Y015900D01*
X047495Y015750D01*
X047475Y015750D01*
X047425Y015700D01*
X047425Y010800D01*
X047375Y010850D01*
X047375Y015650D01*
X047395Y015650D01*
X047395Y010850D01*
X047425Y010800D02*
X047475Y010750D01*
X048500Y010750D01*
X048500Y014813D01*
X048750Y014862D02*
X048750Y015000D01*
X048250Y015000D01*
X048250Y014862D01*
X048750Y014862D01*
X048500Y015250D02*
X048500Y015600D01*
X048625Y015500D02*
X048825Y015500D01*
X048725Y015600D02*
X048725Y015400D01*
X049300Y015750D02*
X047525Y015750D01*
X047525Y015900D01*
X047495Y015900D01*
X047475Y015900D02*
X047475Y015750D01*
X047495Y015750D02*
X047525Y015750D01*
X047425Y015700D02*
X047375Y015650D01*
X047525Y015900D02*
X049300Y015900D01*
X049300Y015750D01*
X049525Y015750D01*
X049525Y015900D01*
X049300Y015900D01*
X049525Y015900D02*
X049525Y016250D01*
X049625Y016150D01*
X049625Y016000D01*
X049525Y015900D01*
X049525Y015750D02*
X049525Y010750D01*
X048500Y010750D01*
X049525Y010750D02*
X049625Y010850D01*
X049625Y015650D01*
X049525Y015750D01*
X049525Y016250D02*
X047475Y016250D01*
X047425Y016200D01*
X042850Y073250D02*
X042150Y073250D01*
X042133Y073252D01*
X042116Y073256D01*
X042100Y073263D01*
X042086Y073273D01*
X042073Y073286D01*
X042063Y073300D01*
X042056Y073316D01*
X042052Y073333D01*
X042050Y073350D01*
X042050Y073500D01*
X042100Y073550D01*
X042100Y075450D01*
X042050Y075500D01*
X042050Y075650D01*
X042052Y075667D01*
X042056Y075684D01*
X042063Y075700D01*
X042073Y075714D01*
X042086Y075727D01*
X042100Y075737D01*
X042116Y075744D01*
X042133Y075748D01*
X042150Y075750D01*
X042850Y075750D01*
X042867Y075748D01*
X042884Y075744D01*
X042900Y075737D01*
X042914Y075727D01*
X042927Y075714D01*
X042937Y075700D01*
X042944Y075684D01*
X042948Y075667D01*
X042950Y075650D01*
X042950Y075500D01*
X042900Y075450D01*
X042900Y073550D01*
X042950Y073500D01*
X042950Y073350D01*
X042948Y073333D01*
X042944Y073316D01*
X042937Y073300D01*
X042927Y073286D01*
X042914Y073273D01*
X042900Y073263D01*
X042884Y073256D01*
X042867Y073252D01*
X042850Y073250D01*
X040950Y073350D02*
X040950Y073500D01*
X040900Y073550D01*
X040900Y075450D01*
X040950Y075500D01*
X040950Y075650D01*
X040948Y075667D01*
X040944Y075684D01*
X040937Y075700D01*
X040927Y075714D01*
X040914Y075727D01*
X040900Y075737D01*
X040884Y075744D01*
X040867Y075748D01*
X040850Y075750D01*
X040150Y075750D01*
X040133Y075748D01*
X040116Y075744D01*
X040100Y075737D01*
X040086Y075727D01*
X040073Y075714D01*
X040063Y075700D01*
X040056Y075684D01*
X040052Y075667D01*
X040050Y075650D01*
X040050Y075500D01*
X040100Y075450D01*
X040100Y073550D01*
X040050Y073500D01*
X040050Y073350D01*
X040052Y073333D01*
X040056Y073316D01*
X040063Y073300D01*
X040073Y073286D01*
X040086Y073273D01*
X040100Y073263D01*
X040116Y073256D01*
X040133Y073252D01*
X040150Y073250D01*
X040850Y073250D01*
X040867Y073252D01*
X040884Y073256D01*
X040900Y073263D01*
X040914Y073273D01*
X040927Y073286D01*
X040937Y073300D01*
X040944Y073316D01*
X040948Y073333D01*
X040950Y073350D01*
X038950Y073350D02*
X038950Y073500D01*
X038900Y073550D01*
X038900Y075450D01*
X038950Y075500D01*
X038950Y075650D01*
X038948Y075667D01*
X038944Y075684D01*
X038937Y075700D01*
X038927Y075714D01*
X038914Y075727D01*
X038900Y075737D01*
X038884Y075744D01*
X038867Y075748D01*
X038850Y075750D01*
X038150Y075750D01*
X038133Y075748D01*
X038116Y075744D01*
X038100Y075737D01*
X038086Y075727D01*
X038073Y075714D01*
X038063Y075700D01*
X038056Y075684D01*
X038052Y075667D01*
X038050Y075650D01*
X038050Y075500D01*
X038100Y075450D01*
X038100Y073550D01*
X038050Y073500D01*
X038050Y073350D01*
X038052Y073333D01*
X038056Y073316D01*
X038063Y073300D01*
X038073Y073286D01*
X038086Y073273D01*
X038100Y073263D01*
X038116Y073256D01*
X038133Y073252D01*
X038150Y073250D01*
X038850Y073250D01*
X038867Y073252D01*
X038884Y073256D01*
X038900Y073263D01*
X038914Y073273D01*
X038927Y073286D01*
X038937Y073300D01*
X038944Y073316D01*
X038948Y073333D01*
X038950Y073350D01*
X036450Y073350D02*
X036450Y073500D01*
X036400Y073550D01*
X036400Y075450D01*
X036450Y075500D01*
X036450Y075650D01*
X036448Y075667D01*
X036444Y075684D01*
X036437Y075700D01*
X036427Y075714D01*
X036414Y075727D01*
X036400Y075737D01*
X036384Y075744D01*
X036367Y075748D01*
X036350Y075750D01*
X035650Y075750D01*
X035633Y075748D01*
X035616Y075744D01*
X035600Y075737D01*
X035586Y075727D01*
X035573Y075714D01*
X035563Y075700D01*
X035556Y075684D01*
X035552Y075667D01*
X035550Y075650D01*
X035550Y075500D01*
X035600Y075450D01*
X035600Y073550D01*
X035550Y073500D01*
X035550Y073350D01*
X035552Y073333D01*
X035556Y073316D01*
X035563Y073300D01*
X035573Y073286D01*
X035586Y073273D01*
X035600Y073263D01*
X035616Y073256D01*
X035633Y073252D01*
X035650Y073250D01*
X036350Y073250D01*
X036367Y073252D01*
X036384Y073256D01*
X036400Y073263D01*
X036414Y073273D01*
X036427Y073286D01*
X036437Y073300D01*
X036444Y073316D01*
X036448Y073333D01*
X036450Y073350D01*
X034950Y073850D02*
X034950Y074000D01*
X034900Y074050D01*
X034900Y075950D01*
X034950Y076000D01*
X034950Y076150D01*
X034948Y076167D01*
X034944Y076184D01*
X034937Y076200D01*
X034927Y076214D01*
X034914Y076227D01*
X034900Y076237D01*
X034884Y076244D01*
X034867Y076248D01*
X034850Y076250D01*
X034150Y076250D01*
X034133Y076248D01*
X034116Y076244D01*
X034100Y076237D01*
X034086Y076227D01*
X034073Y076214D01*
X034063Y076200D01*
X034056Y076184D01*
X034052Y076167D01*
X034050Y076150D01*
X034050Y076000D01*
X034100Y075950D01*
X034100Y074050D01*
X034050Y074000D01*
X034050Y073850D01*
X034052Y073833D01*
X034056Y073816D01*
X034063Y073800D01*
X034073Y073786D01*
X034086Y073773D01*
X034100Y073763D01*
X034116Y073756D01*
X034133Y073752D01*
X034150Y073750D01*
X034850Y073750D01*
X034867Y073752D01*
X034884Y073756D01*
X034900Y073763D01*
X034914Y073773D01*
X034927Y073786D01*
X034937Y073800D01*
X034944Y073816D01*
X034948Y073833D01*
X034950Y073850D01*
X033950Y073500D02*
X033950Y073350D01*
X033948Y073333D01*
X033944Y073316D01*
X033937Y073300D01*
X033927Y073286D01*
X033914Y073273D01*
X033900Y073263D01*
X033884Y073256D01*
X033867Y073252D01*
X033850Y073250D01*
X033150Y073250D01*
X033133Y073252D01*
X033116Y073256D01*
X033100Y073263D01*
X033086Y073273D01*
X033073Y073286D01*
X033063Y073300D01*
X033056Y073316D01*
X033052Y073333D01*
X033050Y073350D01*
X033050Y073500D01*
X033100Y073550D01*
X033100Y075450D01*
X033050Y075500D01*
X033050Y075650D01*
X033052Y075667D01*
X033056Y075684D01*
X033063Y075700D01*
X033073Y075714D01*
X033086Y075727D01*
X033100Y075737D01*
X033116Y075744D01*
X033133Y075748D01*
X033150Y075750D01*
X033850Y075750D01*
X033867Y075748D01*
X033884Y075744D01*
X033900Y075737D01*
X033914Y075727D01*
X033927Y075714D01*
X033937Y075700D01*
X033944Y075684D01*
X033948Y075667D01*
X033950Y075650D01*
X033950Y075500D01*
X033900Y075450D01*
X033900Y073550D01*
X033950Y073500D01*
X032950Y073500D02*
X032950Y073350D01*
X032948Y073333D01*
X032944Y073316D01*
X032937Y073300D01*
X032927Y073286D01*
X032914Y073273D01*
X032900Y073263D01*
X032884Y073256D01*
X032867Y073252D01*
X032850Y073250D01*
X032150Y073250D01*
X032133Y073252D01*
X032116Y073256D01*
X032100Y073263D01*
X032086Y073273D01*
X032073Y073286D01*
X032063Y073300D01*
X032056Y073316D01*
X032052Y073333D01*
X032050Y073350D01*
X032050Y073500D01*
X032100Y073550D01*
X032100Y075450D01*
X032050Y075500D01*
X032050Y075650D01*
X032052Y075667D01*
X032056Y075684D01*
X032063Y075700D01*
X032073Y075714D01*
X032086Y075727D01*
X032100Y075737D01*
X032116Y075744D01*
X032133Y075748D01*
X032150Y075750D01*
X032850Y075750D01*
X032867Y075748D01*
X032884Y075744D01*
X032900Y075737D01*
X032914Y075727D01*
X032927Y075714D01*
X032937Y075700D01*
X032944Y075684D01*
X032948Y075667D01*
X032950Y075650D01*
X032950Y075500D01*
X032900Y075450D01*
X032900Y073550D01*
X032950Y073500D01*
X031950Y073500D02*
X031950Y073350D01*
X031948Y073333D01*
X031944Y073316D01*
X031937Y073300D01*
X031927Y073286D01*
X031914Y073273D01*
X031900Y073263D01*
X031884Y073256D01*
X031867Y073252D01*
X031850Y073250D01*
X031150Y073250D01*
X031133Y073252D01*
X031116Y073256D01*
X031100Y073263D01*
X031086Y073273D01*
X031073Y073286D01*
X031063Y073300D01*
X031056Y073316D01*
X031052Y073333D01*
X031050Y073350D01*
X031050Y073500D01*
X031100Y073550D01*
X031100Y075450D01*
X031050Y075500D01*
X031050Y075650D01*
X031052Y075667D01*
X031056Y075684D01*
X031063Y075700D01*
X031073Y075714D01*
X031086Y075727D01*
X031100Y075737D01*
X031116Y075744D01*
X031133Y075748D01*
X031150Y075750D01*
X031850Y075750D01*
X031867Y075748D01*
X031884Y075744D01*
X031900Y075737D01*
X031914Y075727D01*
X031927Y075714D01*
X031937Y075700D01*
X031944Y075684D01*
X031948Y075667D01*
X031950Y075650D01*
X031950Y075500D01*
X031900Y075450D01*
X031900Y073550D01*
X031950Y073500D01*
X030950Y073850D02*
X030950Y074000D01*
X030900Y074050D01*
X030900Y075950D01*
X030950Y076000D01*
X030950Y076150D01*
X030948Y076167D01*
X030944Y076184D01*
X030937Y076200D01*
X030927Y076214D01*
X030914Y076227D01*
X030900Y076237D01*
X030884Y076244D01*
X030867Y076248D01*
X030850Y076250D01*
X030150Y076250D01*
X030133Y076248D01*
X030116Y076244D01*
X030100Y076237D01*
X030086Y076227D01*
X030073Y076214D01*
X030063Y076200D01*
X030056Y076184D01*
X030052Y076167D01*
X030050Y076150D01*
X030050Y076000D01*
X030100Y075950D01*
X030100Y074050D01*
X030050Y074000D01*
X030050Y073850D01*
X030052Y073833D01*
X030056Y073816D01*
X030063Y073800D01*
X030073Y073786D01*
X030086Y073773D01*
X030100Y073763D01*
X030116Y073756D01*
X030133Y073752D01*
X030150Y073750D01*
X030850Y073750D01*
X030867Y073752D01*
X030884Y073756D01*
X030900Y073763D01*
X030914Y073773D01*
X030927Y073786D01*
X030937Y073800D01*
X030944Y073816D01*
X030948Y073833D01*
X030950Y073850D01*
X029950Y073500D02*
X029950Y073350D01*
X029948Y073333D01*
X029944Y073316D01*
X029937Y073300D01*
X029927Y073286D01*
X029914Y073273D01*
X029900Y073263D01*
X029884Y073256D01*
X029867Y073252D01*
X029850Y073250D01*
X029150Y073250D01*
X029133Y073252D01*
X029116Y073256D01*
X029100Y073263D01*
X029086Y073273D01*
X029073Y073286D01*
X029063Y073300D01*
X029056Y073316D01*
X029052Y073333D01*
X029050Y073350D01*
X029050Y073500D01*
X029100Y073550D01*
X029100Y075450D01*
X029050Y075500D01*
X029050Y075650D01*
X029052Y075667D01*
X029056Y075684D01*
X029063Y075700D01*
X029073Y075714D01*
X029086Y075727D01*
X029100Y075737D01*
X029116Y075744D01*
X029133Y075748D01*
X029150Y075750D01*
X029850Y075750D01*
X029867Y075748D01*
X029884Y075744D01*
X029900Y075737D01*
X029914Y075727D01*
X029927Y075714D01*
X029937Y075700D01*
X029944Y075684D01*
X029948Y075667D01*
X029950Y075650D01*
X029950Y075500D01*
X029900Y075450D01*
X029900Y073550D01*
X029950Y073500D01*
X055050Y073350D02*
X055050Y073500D01*
X055100Y073550D01*
X055100Y075450D01*
X055050Y075500D01*
X055050Y075650D01*
X055052Y075667D01*
X055056Y075684D01*
X055063Y075700D01*
X055073Y075714D01*
X055086Y075727D01*
X055100Y075737D01*
X055116Y075744D01*
X055133Y075748D01*
X055150Y075750D01*
X055850Y075750D01*
X055867Y075748D01*
X055884Y075744D01*
X055900Y075737D01*
X055914Y075727D01*
X055927Y075714D01*
X055937Y075700D01*
X055944Y075684D01*
X055948Y075667D01*
X055950Y075650D01*
X055950Y075500D01*
X055900Y075450D01*
X055900Y073550D01*
X055950Y073500D01*
X055950Y073350D01*
X055948Y073333D01*
X055944Y073316D01*
X055937Y073300D01*
X055927Y073286D01*
X055914Y073273D01*
X055900Y073263D01*
X055884Y073256D01*
X055867Y073252D01*
X055850Y073250D01*
X055150Y073250D01*
X055133Y073252D01*
X055116Y073256D01*
X055100Y073263D01*
X055086Y073273D01*
X055073Y073286D01*
X055063Y073300D01*
X055056Y073316D01*
X055052Y073333D01*
X055050Y073350D01*
X064050Y073350D02*
X064050Y073500D01*
X064100Y073550D01*
X064100Y075450D01*
X064050Y075500D01*
X064050Y075650D01*
X064052Y075667D01*
X064056Y075684D01*
X064063Y075700D01*
X064073Y075714D01*
X064086Y075727D01*
X064100Y075737D01*
X064116Y075744D01*
X064133Y075748D01*
X064150Y075750D01*
X064850Y075750D01*
X064867Y075748D01*
X064884Y075744D01*
X064900Y075737D01*
X064914Y075727D01*
X064927Y075714D01*
X064937Y075700D01*
X064944Y075684D01*
X064948Y075667D01*
X064950Y075650D01*
X064950Y075500D01*
X064900Y075450D01*
X064900Y073550D01*
X064950Y073500D01*
X064950Y073350D01*
X064948Y073333D01*
X064944Y073316D01*
X064937Y073300D01*
X064927Y073286D01*
X064914Y073273D01*
X064900Y073263D01*
X064884Y073256D01*
X064867Y073252D01*
X064850Y073250D01*
X064150Y073250D01*
X064133Y073252D01*
X064116Y073256D01*
X064100Y073263D01*
X064086Y073273D01*
X064073Y073286D01*
X064063Y073300D01*
X064056Y073316D01*
X064052Y073333D01*
X064050Y073350D01*
D14*
X064500Y074034D02*
X064500Y074334D01*
X064650Y074494D02*
X064725Y074494D01*
X064650Y074494D02*
X064350Y074794D01*
X064275Y074794D01*
X064275Y074494D01*
X064275Y074259D02*
X064500Y074034D01*
X064725Y074259D02*
X064275Y074259D01*
X064350Y074955D02*
X064275Y075030D01*
X064275Y075180D01*
X064350Y075255D01*
X064650Y074955D01*
X064725Y075030D01*
X064725Y075180D01*
X064650Y075255D01*
X064350Y075255D01*
X064350Y074955D02*
X064650Y074955D01*
X065125Y074954D02*
X065575Y074954D01*
X065575Y074804D02*
X065575Y075104D01*
X065500Y075265D02*
X065425Y075265D01*
X065350Y075340D01*
X065350Y075490D01*
X065425Y075565D01*
X065500Y075565D01*
X065575Y075490D01*
X065575Y075340D01*
X065500Y075265D01*
X065350Y075340D02*
X065275Y075265D01*
X065200Y075265D01*
X065125Y075340D01*
X065125Y075490D01*
X065200Y075565D01*
X065275Y075565D01*
X065350Y075490D01*
X065125Y074954D02*
X065275Y074804D01*
X065200Y074644D02*
X065350Y074644D01*
X065425Y074569D01*
X065425Y074344D01*
X065425Y074494D02*
X065575Y074644D01*
X065575Y074344D02*
X065125Y074344D01*
X065125Y074569D01*
X065200Y074644D01*
X056575Y074804D02*
X056125Y074804D01*
X056125Y075029D01*
X056200Y075104D01*
X056350Y075104D01*
X056425Y075029D01*
X056425Y074804D01*
X056425Y074954D02*
X056575Y075104D01*
X056575Y075265D02*
X056500Y075265D01*
X056200Y075565D01*
X056125Y075565D01*
X056125Y075265D01*
X055725Y075180D02*
X055725Y075030D01*
X055650Y074955D01*
X055350Y075255D01*
X055650Y075255D01*
X055725Y075180D01*
X055650Y074955D02*
X055350Y074955D01*
X055275Y075030D01*
X055275Y075180D01*
X055350Y075255D01*
X055350Y074794D02*
X055650Y074494D01*
X055725Y074494D01*
X055725Y074259D02*
X055275Y074259D01*
X055500Y074034D01*
X055500Y074334D01*
X055275Y074494D02*
X055275Y074794D01*
X055350Y074794D01*
X043575Y074804D02*
X043575Y075104D01*
X043575Y074954D02*
X043125Y074954D01*
X043275Y074804D01*
X043350Y074644D02*
X043425Y074569D01*
X043425Y074344D01*
X043425Y074494D02*
X043575Y074644D01*
X043350Y074644D02*
X043200Y074644D01*
X043125Y074569D01*
X043125Y074344D01*
X043575Y074344D01*
X042725Y074259D02*
X042275Y074259D01*
X042500Y074034D01*
X042500Y074334D01*
X042650Y074494D02*
X042725Y074494D01*
X042650Y074494D02*
X042350Y074794D01*
X042275Y074794D01*
X042275Y074494D01*
X042350Y074955D02*
X042275Y075030D01*
X042275Y075180D01*
X042350Y075255D01*
X042650Y074955D01*
X042725Y075030D01*
X042725Y075180D01*
X042650Y075255D01*
X042350Y075255D01*
X042350Y074955D02*
X042650Y074955D01*
X043125Y075415D02*
X043575Y075415D01*
X043575Y075265D02*
X043575Y075565D01*
X043275Y075265D02*
X043125Y075415D01*
X041575Y075565D02*
X041575Y075265D01*
X041275Y075565D01*
X041200Y075565D01*
X041125Y075490D01*
X041125Y075340D01*
X041200Y075265D01*
X041125Y074954D02*
X041575Y074954D01*
X041575Y074804D02*
X041575Y075104D01*
X041275Y074804D02*
X041125Y074954D01*
X041200Y074644D02*
X041350Y074644D01*
X041425Y074569D01*
X041425Y074344D01*
X041425Y074494D02*
X041575Y074644D01*
X041575Y074344D02*
X041125Y074344D01*
X041125Y074569D01*
X041200Y074644D01*
X040725Y074494D02*
X040650Y074494D01*
X040350Y074794D01*
X040275Y074794D01*
X040275Y074494D01*
X040275Y074259D02*
X040500Y074034D01*
X040500Y074334D01*
X040725Y074259D02*
X040275Y074259D01*
X040350Y074955D02*
X040275Y075030D01*
X040275Y075180D01*
X040350Y075255D01*
X040650Y074955D01*
X040725Y075030D01*
X040725Y075180D01*
X040650Y075255D01*
X040350Y075255D01*
X040350Y074955D02*
X040650Y074955D01*
X039575Y075104D02*
X039425Y074954D01*
X039425Y075029D02*
X039425Y074804D01*
X039575Y074804D02*
X039125Y074804D01*
X039125Y075029D01*
X039200Y075104D01*
X039350Y075104D01*
X039425Y075029D01*
X039575Y075265D02*
X039575Y075565D01*
X039575Y075415D02*
X039125Y075415D01*
X039275Y075265D01*
X038725Y075180D02*
X038725Y075030D01*
X038650Y074955D01*
X038350Y075255D01*
X038650Y075255D01*
X038725Y075180D01*
X038650Y074955D02*
X038350Y074955D01*
X038275Y075030D01*
X038275Y075180D01*
X038350Y075255D01*
X038275Y074794D02*
X038275Y074494D01*
X038500Y074494D01*
X038425Y074644D01*
X038425Y074719D01*
X038500Y074794D01*
X038650Y074794D01*
X038725Y074719D01*
X038725Y074569D01*
X038650Y074494D01*
X038350Y074334D02*
X038650Y074034D01*
X038725Y074034D01*
X038275Y074034D02*
X038275Y074334D01*
X038350Y074334D01*
X037075Y074804D02*
X036625Y074804D01*
X036625Y075029D01*
X036700Y075104D01*
X036850Y075104D01*
X036925Y075029D01*
X036925Y074804D01*
X036925Y074954D02*
X037075Y075104D01*
X037000Y075265D02*
X036925Y075265D01*
X036850Y075340D01*
X036850Y075490D01*
X036925Y075565D01*
X037000Y075565D01*
X037075Y075490D01*
X037075Y075340D01*
X037000Y075265D01*
X036850Y075340D02*
X036775Y075265D01*
X036700Y075265D01*
X036625Y075340D01*
X036625Y075490D01*
X036700Y075565D01*
X036775Y075565D01*
X036850Y075490D01*
X036225Y075255D02*
X036000Y075030D01*
X036075Y074955D02*
X035775Y075255D01*
X035775Y074955D02*
X036225Y074955D01*
X036225Y074794D02*
X036225Y074494D01*
X036225Y074644D02*
X035775Y074644D01*
X035925Y074494D01*
X034725Y074759D02*
X034275Y074759D01*
X034500Y074534D01*
X034500Y074834D01*
X034650Y074994D02*
X034725Y074994D01*
X034650Y074994D02*
X034350Y075294D01*
X034275Y075294D01*
X034275Y074994D01*
X034350Y075455D02*
X034275Y075530D01*
X034275Y075680D01*
X034350Y075755D01*
X034650Y075455D01*
X034725Y075530D01*
X034725Y075680D01*
X034650Y075755D01*
X034350Y075755D01*
X034350Y075455D02*
X034650Y075455D01*
X033725Y075180D02*
X033725Y075030D01*
X033650Y074955D01*
X033350Y075255D01*
X033650Y075255D01*
X033725Y075180D01*
X033650Y074955D02*
X033350Y074955D01*
X033275Y075030D01*
X033275Y075180D01*
X033350Y075255D01*
X033350Y074794D02*
X033650Y074494D01*
X033725Y074494D01*
X033725Y074259D02*
X033275Y074259D01*
X033500Y074034D01*
X033500Y074334D01*
X033275Y074494D02*
X033275Y074794D01*
X033350Y074794D01*
X032725Y075030D02*
X032650Y074955D01*
X032350Y075255D01*
X032650Y075255D01*
X032725Y075180D01*
X032725Y075030D01*
X032650Y074955D02*
X032350Y074955D01*
X032275Y075030D01*
X032275Y075180D01*
X032350Y075255D01*
X032350Y074794D02*
X032650Y074494D01*
X032725Y074494D01*
X032725Y074259D02*
X032275Y074259D01*
X032500Y074034D01*
X032500Y074334D01*
X032275Y074494D02*
X032275Y074794D01*
X032350Y074794D01*
X031725Y074794D02*
X031725Y074494D01*
X031725Y074644D02*
X031275Y074644D01*
X031425Y074494D01*
X031575Y074955D02*
X031275Y075255D01*
X031275Y074955D02*
X031725Y074955D01*
X031500Y075030D02*
X031725Y075255D01*
X030725Y074994D02*
X030650Y074994D01*
X030350Y075294D01*
X030275Y075294D01*
X030275Y074994D01*
X030275Y074759D02*
X030500Y074534D01*
X030500Y074834D01*
X030725Y074759D02*
X030275Y074759D01*
X029725Y074794D02*
X029725Y074494D01*
X029725Y074644D02*
X029275Y074644D01*
X029425Y074494D01*
X029575Y074955D02*
X029275Y075255D01*
X029275Y074955D02*
X029725Y074955D01*
X029500Y075030D02*
X029725Y075255D01*
X030275Y075530D02*
X030275Y075680D01*
X030350Y075755D01*
X030650Y075455D01*
X030725Y075530D01*
X030725Y075680D01*
X030650Y075755D01*
X030350Y075755D01*
X030275Y075530D02*
X030350Y075455D01*
X030650Y075455D01*
X030725Y072565D02*
X030725Y072265D01*
X030425Y072565D01*
X030350Y072565D01*
X030275Y072490D01*
X030275Y072340D01*
X030350Y072265D01*
X030350Y072104D02*
X030500Y072104D01*
X030575Y072029D01*
X030575Y071804D01*
X030725Y071804D02*
X030275Y071804D01*
X030275Y072029D01*
X030350Y072104D01*
X030575Y071954D02*
X030725Y072104D01*
X031275Y071990D02*
X031275Y071840D01*
X031350Y071765D01*
X031425Y071765D01*
X031500Y071840D01*
X031500Y072065D01*
X031650Y072065D02*
X031350Y072065D01*
X031275Y071990D01*
X031650Y072065D02*
X031725Y071990D01*
X031725Y071840D01*
X031650Y071765D01*
X031725Y071604D02*
X031575Y071454D01*
X031575Y071529D02*
X031575Y071304D01*
X031725Y071304D02*
X031275Y071304D01*
X031275Y071529D01*
X031350Y071604D01*
X031500Y071604D01*
X031575Y071529D01*
X032275Y071529D02*
X032275Y071304D01*
X032725Y071304D01*
X032575Y071304D02*
X032575Y071529D01*
X032500Y071604D01*
X032350Y071604D01*
X032275Y071529D01*
X032575Y071454D02*
X032725Y071604D01*
X032500Y071765D02*
X032500Y072065D01*
X032725Y071990D02*
X032275Y071990D01*
X032500Y071765D01*
X033275Y071765D02*
X033500Y071765D01*
X033425Y071915D01*
X033425Y071990D01*
X033500Y072065D01*
X033650Y072065D01*
X033725Y071990D01*
X033725Y071840D01*
X033650Y071765D01*
X033725Y071604D02*
X033575Y071454D01*
X033575Y071529D02*
X033575Y071304D01*
X033725Y071304D02*
X033275Y071304D01*
X033275Y071529D01*
X033350Y071604D01*
X033500Y071604D01*
X033575Y071529D01*
X033275Y071765D02*
X033275Y072065D01*
X034275Y072029D02*
X034350Y072104D01*
X034500Y072104D01*
X034575Y072029D01*
X034575Y071804D01*
X034725Y071804D02*
X034275Y071804D01*
X034275Y072029D01*
X034350Y072265D02*
X034275Y072340D01*
X034275Y072490D01*
X034350Y072565D01*
X034425Y072565D01*
X034500Y072490D01*
X034575Y072565D01*
X034650Y072565D01*
X034725Y072490D01*
X034725Y072340D01*
X034650Y072265D01*
X034725Y072104D02*
X034575Y071954D01*
X034500Y072415D02*
X034500Y072490D01*
X029725Y071990D02*
X029650Y072065D01*
X029575Y072065D01*
X029500Y071990D01*
X029500Y071765D01*
X029650Y071765D01*
X029725Y071840D01*
X029725Y071990D01*
X029500Y071765D02*
X029350Y071915D01*
X029275Y072065D01*
X029350Y071604D02*
X029500Y071604D01*
X029575Y071529D01*
X029575Y071304D01*
X029725Y071304D02*
X029275Y071304D01*
X029275Y071529D01*
X029350Y071604D01*
X029575Y071454D02*
X029725Y071604D01*
X021125Y056837D02*
X021125Y056536D01*
X021575Y056536D01*
X021575Y056376D02*
X021275Y056376D01*
X021350Y056536D02*
X021350Y056687D01*
X021575Y056376D02*
X021575Y056151D01*
X021500Y056076D01*
X021275Y056076D01*
X021275Y055916D02*
X021200Y055916D01*
X021125Y055841D01*
X021125Y055691D01*
X021200Y055616D01*
X021200Y055455D02*
X021125Y055380D01*
X021125Y055230D01*
X021200Y055155D01*
X021200Y055455D02*
X021275Y055455D01*
X021575Y055155D01*
X021575Y055455D01*
X021575Y055616D02*
X021275Y055916D01*
X021575Y055916D02*
X021575Y055616D01*
X021575Y055000D02*
X021575Y054925D01*
X021500Y054925D01*
X021500Y055000D01*
X021575Y055000D01*
X019825Y055000D02*
X019825Y055150D01*
X019750Y055225D01*
X019750Y055385D02*
X019825Y055460D01*
X019825Y055611D01*
X019750Y055686D01*
X019600Y055686D01*
X019525Y055611D01*
X019525Y055536D01*
X019600Y055385D01*
X019375Y055385D01*
X019375Y055686D01*
X019450Y055225D02*
X019375Y055150D01*
X019375Y055000D01*
X019450Y054925D01*
X019750Y054925D01*
X019825Y055000D01*
X025000Y046625D02*
X024925Y046550D01*
X024925Y046250D01*
X025000Y046175D01*
X025150Y046175D01*
X025225Y046250D01*
X025385Y046250D02*
X025385Y046325D01*
X025460Y046400D01*
X025611Y046400D01*
X025686Y046325D01*
X025686Y046250D01*
X025611Y046175D01*
X025460Y046175D01*
X025385Y046250D01*
X025460Y046400D02*
X025385Y046475D01*
X025385Y046550D01*
X025460Y046625D01*
X025611Y046625D01*
X025686Y046550D01*
X025686Y046475D01*
X025611Y046400D01*
X025225Y046550D02*
X025150Y046625D01*
X025000Y046625D01*
X025230Y044875D02*
X025155Y044800D01*
X025230Y044875D02*
X025380Y044875D01*
X025455Y044800D01*
X025455Y044725D01*
X025155Y044425D01*
X025455Y044425D01*
X025616Y044425D02*
X025916Y044725D01*
X025916Y044800D01*
X025841Y044875D01*
X025691Y044875D01*
X025616Y044800D01*
X025616Y044425D02*
X025916Y044425D01*
X026076Y044500D02*
X026151Y044425D01*
X026376Y044425D01*
X026376Y044725D01*
X026536Y044650D02*
X026687Y044650D01*
X026536Y044875D02*
X026837Y044875D01*
X026536Y044875D02*
X026536Y044425D01*
X026076Y044500D02*
X026076Y044725D01*
X025000Y044500D02*
X025000Y044425D01*
X024925Y044425D01*
X024925Y044500D01*
X025000Y044500D01*
X017250Y033965D02*
X017550Y033665D01*
X017625Y033665D01*
X017550Y033504D02*
X017625Y033429D01*
X017625Y033279D01*
X017550Y033204D01*
X017250Y033204D01*
X017175Y033279D01*
X017175Y033429D01*
X017250Y033504D01*
X017175Y033665D02*
X017175Y033965D01*
X017250Y033965D01*
X015875Y033665D02*
X015425Y033665D01*
X015425Y033965D01*
X015650Y033815D02*
X015650Y033665D01*
X015575Y033504D02*
X015875Y033504D01*
X015875Y033279D01*
X015800Y033204D01*
X015575Y033204D01*
X015575Y033044D02*
X015500Y033044D01*
X015425Y032969D01*
X015425Y032819D01*
X015500Y032744D01*
X015500Y032584D02*
X015425Y032509D01*
X015425Y032358D01*
X015500Y032283D01*
X015500Y032584D02*
X015575Y032584D01*
X015875Y032283D01*
X015875Y032584D01*
X015875Y032744D02*
X015575Y033044D01*
X015875Y033044D02*
X015875Y032744D01*
X015875Y032128D02*
X015875Y032053D01*
X015800Y032053D01*
X015800Y032128D01*
X015875Y032128D01*
X003890Y044375D02*
X003965Y044450D01*
X003965Y044525D01*
X003890Y044600D01*
X003665Y044600D01*
X003665Y044450D01*
X003740Y044375D01*
X003890Y044375D01*
X003665Y044600D02*
X003815Y044750D01*
X003965Y044825D01*
X003504Y044750D02*
X003429Y044825D01*
X003279Y044825D01*
X003204Y044750D01*
X003204Y044450D01*
X003279Y044375D01*
X003429Y044375D01*
X003504Y044450D01*
X003504Y046125D02*
X003504Y046425D01*
X003665Y046350D02*
X003815Y046350D01*
X003665Y046125D02*
X003665Y046575D01*
X003965Y046575D01*
X003504Y046125D02*
X003279Y046125D01*
X003204Y046200D01*
X003204Y046425D01*
X003044Y046425D02*
X003044Y046500D01*
X002969Y046575D01*
X002819Y046575D01*
X002744Y046500D01*
X002584Y046500D02*
X002509Y046575D01*
X002358Y046575D01*
X002283Y046500D01*
X002584Y046500D02*
X002584Y046425D01*
X002283Y046125D01*
X002584Y046125D01*
X002744Y046125D02*
X003044Y046425D01*
X003044Y046125D02*
X002744Y046125D01*
X002128Y046125D02*
X002053Y046125D01*
X002053Y046200D01*
X002128Y046200D01*
X002128Y046125D01*
X041553Y044700D02*
X041628Y044700D01*
X041628Y044625D01*
X041553Y044625D01*
X041553Y044700D01*
X041783Y044625D02*
X042084Y044925D01*
X042084Y045000D01*
X042009Y045075D01*
X041858Y045075D01*
X041783Y045000D01*
X041783Y044625D02*
X042084Y044625D01*
X042244Y044625D02*
X042544Y044925D01*
X042544Y045000D01*
X042469Y045075D01*
X042319Y045075D01*
X042244Y045000D01*
X042244Y044625D02*
X042544Y044625D01*
X042704Y044700D02*
X042779Y044625D01*
X043004Y044625D01*
X043004Y044925D01*
X043165Y044850D02*
X043315Y044850D01*
X043165Y044625D02*
X043165Y045075D01*
X043465Y045075D01*
X042704Y044925D02*
X042704Y044700D01*
X042779Y043325D02*
X042704Y043250D01*
X042704Y042950D01*
X042779Y042875D01*
X042929Y042875D01*
X043004Y042950D01*
X043165Y042875D02*
X043465Y042875D01*
X043315Y042875D02*
X043315Y043325D01*
X043165Y043175D01*
X043004Y043250D02*
X042929Y043325D01*
X042779Y043325D01*
X055925Y032965D02*
X055925Y032665D01*
X056375Y032665D01*
X056375Y032504D02*
X056075Y032504D01*
X056150Y032665D02*
X056150Y032815D01*
X056375Y032504D02*
X056375Y032279D01*
X056300Y032204D01*
X056075Y032204D01*
X056075Y032044D02*
X056000Y032044D01*
X055925Y031969D01*
X055925Y031819D01*
X056000Y031744D01*
X056000Y031584D02*
X055925Y031509D01*
X055925Y031358D01*
X056000Y031283D01*
X056000Y031584D02*
X056075Y031584D01*
X056375Y031283D01*
X056375Y031584D01*
X056375Y031744D02*
X056075Y032044D01*
X056375Y032044D02*
X056375Y031744D01*
X056375Y031128D02*
X056375Y031053D01*
X056300Y031053D01*
X056300Y031128D01*
X056375Y031128D01*
X057675Y032279D02*
X057750Y032204D01*
X058050Y032204D01*
X058125Y032279D01*
X058125Y032429D01*
X058050Y032504D01*
X057900Y032665D02*
X057900Y032965D01*
X058125Y032890D02*
X057675Y032890D01*
X057900Y032665D01*
X057750Y032504D02*
X057675Y032429D01*
X057675Y032279D01*
X065500Y040783D02*
X065425Y040858D01*
X065425Y041009D01*
X065500Y041084D01*
X065575Y041084D01*
X065875Y040783D01*
X065875Y041084D01*
X065875Y041244D02*
X065575Y041544D01*
X065500Y041544D01*
X065425Y041469D01*
X065425Y041319D01*
X065500Y041244D01*
X065875Y041244D02*
X065875Y041544D01*
X065800Y041704D02*
X065875Y041779D01*
X065875Y042004D01*
X065575Y042004D01*
X065650Y042165D02*
X065650Y042315D01*
X065875Y042165D02*
X065425Y042165D01*
X065425Y042465D01*
X065575Y041704D02*
X065800Y041704D01*
X065800Y040628D02*
X065875Y040628D01*
X065875Y040553D01*
X065800Y040553D01*
X065800Y040628D01*
X066250Y044704D02*
X066550Y044704D01*
X066625Y044779D01*
X066625Y044929D01*
X066550Y045004D01*
X066550Y045165D02*
X066625Y045240D01*
X066625Y045390D01*
X066550Y045465D01*
X066475Y045465D01*
X066400Y045390D01*
X066400Y045315D01*
X066400Y045390D02*
X066325Y045465D01*
X066250Y045465D01*
X066175Y045390D01*
X066175Y045240D01*
X066250Y045165D01*
X066250Y045004D02*
X066175Y044929D01*
X066175Y044779D01*
X066250Y044704D01*
X077425Y044690D02*
X077500Y044765D01*
X077800Y044465D01*
X077875Y044540D01*
X077875Y044690D01*
X077800Y044765D01*
X077500Y044765D01*
X077425Y044690D02*
X077425Y044540D01*
X077500Y044465D01*
X077800Y044465D01*
X077875Y044304D02*
X077875Y044004D01*
X077875Y044154D02*
X077425Y044154D01*
X077575Y044004D01*
X078425Y047065D02*
X078275Y047215D01*
X078725Y047215D01*
X078725Y047065D02*
X078725Y047365D01*
X079275Y047290D02*
X079275Y047140D01*
X079350Y047065D01*
X079275Y047290D02*
X079350Y047365D01*
X079425Y047365D01*
X079725Y047065D01*
X079725Y047365D01*
X082425Y044690D02*
X082500Y044765D01*
X082800Y044465D01*
X082875Y044540D01*
X082875Y044690D01*
X082800Y044765D01*
X082500Y044765D01*
X082425Y044690D02*
X082425Y044540D01*
X082500Y044465D01*
X082800Y044465D01*
X082875Y044304D02*
X082875Y044004D01*
X082875Y044154D02*
X082425Y044154D01*
X082575Y044004D01*
X083425Y047065D02*
X083275Y047215D01*
X083725Y047215D01*
X083725Y047065D02*
X083725Y047365D01*
X084275Y047290D02*
X084275Y047140D01*
X084350Y047065D01*
X084275Y047290D02*
X084350Y047365D01*
X084425Y047365D01*
X084725Y047065D01*
X084725Y047365D01*
X061575Y054925D02*
X061575Y055000D01*
X061500Y055000D01*
X061500Y054925D01*
X061575Y054925D01*
X061575Y055155D02*
X061275Y055455D01*
X061200Y055455D01*
X061125Y055380D01*
X061125Y055230D01*
X061200Y055155D01*
X061575Y055155D02*
X061575Y055455D01*
X061575Y055616D02*
X061275Y055916D01*
X061200Y055916D01*
X061125Y055841D01*
X061125Y055691D01*
X061200Y055616D01*
X061575Y055616D02*
X061575Y055916D01*
X061500Y056076D02*
X061575Y056151D01*
X061575Y056376D01*
X061275Y056376D01*
X061350Y056536D02*
X061350Y056687D01*
X061125Y056536D02*
X061125Y056837D01*
X061125Y056536D02*
X061575Y056536D01*
X061500Y056076D02*
X061275Y056076D01*
X059825Y055686D02*
X059825Y055385D01*
X059525Y055686D01*
X059450Y055686D01*
X059375Y055611D01*
X059375Y055460D01*
X059450Y055385D01*
X059450Y055225D02*
X059375Y055150D01*
X059375Y055000D01*
X059450Y054925D01*
X059750Y054925D01*
X059825Y055000D01*
X059825Y055150D01*
X059750Y055225D01*
X050125Y016015D02*
X050200Y015940D01*
X050200Y015790D01*
X050125Y015715D01*
X049975Y015715D02*
X049900Y015865D01*
X049900Y015940D01*
X049975Y016015D01*
X050125Y016015D01*
X049975Y015715D02*
X049750Y015715D01*
X049750Y016015D01*
X049825Y015554D02*
X049900Y015554D01*
X049975Y015479D01*
X050050Y015554D01*
X050125Y015554D01*
X050200Y015479D01*
X050200Y015329D01*
X050125Y015254D01*
X050125Y015094D02*
X050200Y015019D01*
X050200Y014869D01*
X050125Y014794D01*
X049825Y014794D01*
X049750Y014869D01*
X049750Y015019D01*
X049825Y015094D01*
X049825Y015254D02*
X049750Y015329D01*
X049750Y015479D01*
X049825Y015554D01*
X049975Y015479D02*
X049975Y015404D01*
X047220Y015329D02*
X047145Y015254D01*
X046920Y015254D01*
X046920Y015094D02*
X046995Y015019D01*
X046995Y014869D01*
X046920Y014794D01*
X046845Y014794D01*
X046770Y014869D01*
X046770Y015019D01*
X046845Y015094D01*
X046920Y015094D01*
X046995Y015019D02*
X047070Y015094D01*
X047145Y015094D01*
X047220Y015019D01*
X047220Y014869D01*
X047145Y014794D01*
X047070Y014794D01*
X046995Y014869D01*
X047145Y014639D02*
X047220Y014639D01*
X047220Y014564D01*
X047145Y014564D01*
X047145Y014639D01*
X047145Y014403D02*
X047070Y014403D01*
X046995Y014328D01*
X046995Y014103D01*
X047145Y014103D01*
X047220Y014178D01*
X047220Y014328D01*
X047145Y014403D01*
X046845Y014253D02*
X046995Y014103D01*
X046845Y014253D02*
X046770Y014403D01*
X047220Y015329D02*
X047220Y015554D01*
X046920Y015554D01*
X046995Y015715D02*
X046995Y015865D01*
X047220Y015715D02*
X046770Y015715D01*
X046770Y016015D01*
X071770Y016015D02*
X071770Y015715D01*
X072220Y015715D01*
X072220Y015554D02*
X071920Y015554D01*
X071995Y015715D02*
X071995Y015865D01*
X072220Y015554D02*
X072220Y015329D01*
X072145Y015254D01*
X071920Y015254D01*
X071920Y015094D02*
X071995Y015019D01*
X071995Y014869D01*
X071920Y014794D01*
X071845Y014794D01*
X071770Y014869D01*
X071770Y015019D01*
X071845Y015094D01*
X071920Y015094D01*
X071995Y015019D02*
X072070Y015094D01*
X072145Y015094D01*
X072220Y015019D01*
X072220Y014869D01*
X072145Y014794D01*
X072070Y014794D01*
X071995Y014869D01*
X072145Y014639D02*
X072220Y014639D01*
X072220Y014564D01*
X072145Y014564D01*
X072145Y014639D01*
X072145Y014403D02*
X072070Y014403D01*
X071995Y014328D01*
X071995Y014103D01*
X072145Y014103D01*
X072220Y014178D01*
X072220Y014328D01*
X072145Y014403D01*
X071845Y014253D02*
X071995Y014103D01*
X071845Y014253D02*
X071770Y014403D01*
X074750Y014869D02*
X074825Y014794D01*
X075125Y014794D01*
X075200Y014869D01*
X075200Y015019D01*
X075125Y015094D01*
X075125Y015254D02*
X075200Y015329D01*
X075200Y015479D01*
X075125Y015554D01*
X075050Y015554D01*
X074975Y015479D01*
X074975Y015404D01*
X074975Y015479D02*
X074900Y015554D01*
X074825Y015554D01*
X074750Y015479D01*
X074750Y015329D01*
X074825Y015254D01*
X074825Y015094D02*
X074750Y015019D01*
X074750Y014869D01*
X074975Y015715D02*
X074975Y016015D01*
X075200Y015940D02*
X074750Y015940D01*
X074975Y015715D01*
X099270Y015715D02*
X099270Y016015D01*
X099495Y015865D02*
X099495Y015715D01*
X099420Y015554D02*
X099720Y015554D01*
X099720Y015329D01*
X099645Y015254D01*
X099420Y015254D01*
X099420Y015094D02*
X099495Y015019D01*
X099495Y014869D01*
X099420Y014794D01*
X099345Y014794D01*
X099270Y014869D01*
X099270Y015019D01*
X099345Y015094D01*
X099420Y015094D01*
X099495Y015019D02*
X099570Y015094D01*
X099645Y015094D01*
X099720Y015019D01*
X099720Y014869D01*
X099645Y014794D01*
X099570Y014794D01*
X099495Y014869D01*
X099645Y014639D02*
X099720Y014639D01*
X099720Y014564D01*
X099645Y014564D01*
X099645Y014639D01*
X099645Y014403D02*
X099570Y014403D01*
X099495Y014328D01*
X099495Y014103D01*
X099645Y014103D01*
X099720Y014178D01*
X099720Y014328D01*
X099645Y014403D01*
X099345Y014253D02*
X099495Y014103D01*
X099345Y014253D02*
X099270Y014403D01*
X099270Y015715D02*
X099720Y015715D01*
X102250Y015790D02*
X102250Y015940D01*
X102325Y016015D01*
X102400Y016015D01*
X102475Y015940D01*
X102550Y016015D01*
X102625Y016015D01*
X102700Y015940D01*
X102700Y015790D01*
X102625Y015715D01*
X102625Y015554D02*
X102700Y015479D01*
X102700Y015329D01*
X102625Y015254D01*
X102625Y015094D02*
X102700Y015019D01*
X102700Y014869D01*
X102625Y014794D01*
X102325Y014794D01*
X102250Y014869D01*
X102250Y015019D01*
X102325Y015094D01*
X102325Y015254D02*
X102250Y015329D01*
X102250Y015479D01*
X102325Y015554D01*
X102400Y015554D01*
X102475Y015479D01*
X102550Y015554D01*
X102625Y015554D01*
X102475Y015479D02*
X102475Y015404D01*
X102325Y015715D02*
X102250Y015790D01*
X102475Y015865D02*
X102475Y015940D01*
D15*
X064500Y073080D03*
X064500Y075920D03*
X055500Y075920D03*
X055500Y073080D03*
X042500Y073080D03*
X040500Y073080D03*
X038500Y073080D03*
X036000Y073080D03*
X034500Y073580D03*
X033500Y073080D03*
X032500Y073080D03*
X031500Y073080D03*
X030500Y073580D03*
X029500Y073080D03*
X029500Y075920D03*
X030500Y076420D03*
X031500Y075920D03*
X032500Y075920D03*
X033500Y075920D03*
X034500Y076420D03*
X036000Y075920D03*
X038500Y075920D03*
X040500Y075920D03*
X042500Y075920D03*
D16*
X060250Y056380D02*
X060500Y056380D01*
X060750Y056380D01*
X060750Y056130D02*
X060500Y056130D01*
X060250Y056130D01*
X062000Y054000D02*
X062000Y052000D01*
X047000Y052000D01*
X047000Y054000D01*
X062000Y054000D01*
X064500Y054500D02*
X064500Y034500D01*
X045780Y034500D01*
X044500Y035780D01*
X044500Y054500D01*
X064500Y054500D01*
X064000Y050000D02*
X062000Y050000D01*
X062000Y040000D01*
X064000Y040000D01*
X064000Y050000D01*
X065250Y044370D02*
X065500Y044370D01*
X065750Y044370D01*
X065750Y044120D02*
X065500Y044120D01*
X065250Y044120D01*
X062000Y037000D02*
X062000Y035000D01*
X047000Y035000D01*
X047000Y037000D01*
X062000Y037000D01*
X057250Y031870D02*
X057000Y031870D01*
X056750Y031870D01*
X056750Y031620D02*
X057000Y031620D01*
X057250Y031620D01*
X047000Y040000D02*
X047000Y050000D01*
X045000Y050000D01*
X045000Y040000D01*
X047000Y040000D01*
X042370Y043750D02*
X042370Y044000D01*
X042370Y044250D01*
X042120Y044250D02*
X042120Y044000D01*
X042120Y043750D01*
X026380Y045250D02*
X026380Y045500D01*
X026380Y045750D01*
X026130Y045750D02*
X026130Y045500D01*
X026130Y045250D01*
X024000Y050000D02*
X022000Y050000D01*
X022000Y040000D01*
X024000Y040000D01*
X024000Y050000D01*
X022000Y052000D02*
X007000Y052000D01*
X007000Y054000D01*
X022000Y054000D01*
X022000Y052000D01*
X024500Y054500D02*
X024500Y034500D01*
X005780Y034500D01*
X004500Y035780D01*
X004500Y054500D01*
X024500Y054500D01*
X020750Y056130D02*
X020500Y056130D01*
X020250Y056130D01*
X020250Y056380D02*
X020500Y056380D01*
X020750Y056380D01*
X007000Y050000D02*
X007000Y040000D01*
X005000Y040000D01*
X005000Y050000D01*
X007000Y050000D01*
X002870Y045750D02*
X002870Y045500D01*
X002870Y045250D01*
X002620Y045250D02*
X002620Y045500D01*
X002620Y045750D01*
X007000Y037000D02*
X007000Y035000D01*
X022000Y035000D01*
X022000Y037000D01*
X007000Y037000D01*
X016250Y032870D02*
X016500Y032870D01*
X016750Y032870D01*
X016750Y032620D02*
X016500Y032620D01*
X016250Y032620D01*
X049750Y017750D02*
X050250Y017750D01*
X049575Y016150D02*
X049575Y016000D01*
X049475Y015850D02*
X049475Y015800D01*
X049575Y015650D02*
X049575Y010850D01*
X051750Y017750D02*
X052250Y017750D01*
X074475Y015850D02*
X074475Y015800D01*
X074575Y015650D02*
X074575Y010850D01*
X074575Y016000D02*
X074575Y016150D01*
X101975Y015850D02*
X101975Y015800D01*
X102075Y015650D02*
X102075Y010850D01*
X102075Y016000D02*
X102075Y016150D01*
D17*
X101000Y016400D03*
X101000Y010600D03*
X073500Y010600D03*
X073500Y016400D03*
X048500Y016400D03*
X048500Y010600D03*
D18*
X048500Y015188D03*
X073500Y015188D03*
X101000Y015188D03*
D19*
X085350Y040900D02*
X082650Y040900D01*
X082650Y042700D01*
X082650Y043300D02*
X082650Y043700D01*
X082650Y045300D02*
X082650Y048100D01*
X085350Y048100D01*
X085350Y040900D01*
X080350Y040900D02*
X080350Y048100D01*
X077650Y048100D01*
X077650Y045300D01*
X077650Y043700D02*
X077650Y043300D01*
X077650Y042700D02*
X077650Y040900D01*
X080350Y040900D01*
D20*
X081140Y046601D02*
X081034Y046706D01*
X081034Y046917D01*
X081140Y047022D01*
X081350Y046917D02*
X081455Y047022D01*
X081560Y047022D01*
X081665Y046917D01*
X081665Y046706D01*
X081560Y046601D01*
X081350Y046706D02*
X081350Y046917D01*
X081350Y046706D02*
X081245Y046601D01*
X081140Y046601D01*
X081034Y047246D02*
X081455Y047246D01*
X081665Y047456D01*
X081455Y047666D01*
X081034Y047666D01*
X081245Y047890D02*
X081034Y048101D01*
X081665Y048101D01*
X081665Y048311D02*
X081665Y047890D01*
X086034Y047996D02*
X086140Y047890D01*
X086034Y047996D02*
X086034Y048206D01*
X086140Y048311D01*
X086245Y048311D01*
X086665Y047890D01*
X086665Y048311D01*
X086455Y047666D02*
X086034Y047666D01*
X086034Y047246D02*
X086455Y047246D01*
X086665Y047456D01*
X086455Y047666D01*
X086455Y047022D02*
X086560Y047022D01*
X086665Y046917D01*
X086665Y046706D01*
X086560Y046601D01*
X086350Y046706D02*
X086350Y046917D01*
X086455Y047022D01*
X086140Y047022D02*
X086034Y046917D01*
X086034Y046706D01*
X086140Y046601D01*
X086245Y046601D01*
X086350Y046706D01*
M02*
