G75*
G70*
%OFA0B0*%
%FSLAX24Y24*%
%IPPOS*%
%LPD*%
%AMOC8*
5,1,8,0,0,1.08239X$1,22.5*
%
%ADD10R,0.5185X0.0860*%
%ADD11OC8,0.0660*%
%ADD12OC8,0.0600*%
D10*
X003690Y003682D03*
X003693Y004911D03*
X003692Y006155D03*
X003690Y007406D03*
X003694Y008656D03*
X003694Y009916D03*
X003694Y011156D03*
X003694Y012396D03*
X003694Y013646D03*
X003694Y014896D03*
X003694Y016156D03*
X003694Y017396D03*
X003694Y018656D03*
X003694Y019896D03*
X003694Y021146D03*
X003694Y022396D03*
X003694Y023666D03*
X003694Y024871D03*
X003690Y029182D03*
X003693Y030411D03*
X003692Y031655D03*
X003690Y032906D03*
X003694Y034156D03*
X003694Y035416D03*
X003694Y036656D03*
X003694Y037896D03*
X003694Y039146D03*
X003694Y040396D03*
X003694Y041656D03*
X003694Y042896D03*
X003694Y044156D03*
X003694Y045396D03*
X003694Y046646D03*
X003694Y047896D03*
X003694Y049166D03*
X003694Y050371D03*
D11*
X009185Y048026D03*
X009185Y047026D03*
X009185Y046026D03*
X009185Y045026D03*
X009185Y044026D03*
X009185Y043026D03*
X009185Y042026D03*
X009185Y041026D03*
X009185Y040026D03*
X009185Y039026D03*
X009185Y038026D03*
X009185Y037026D03*
X009185Y036026D03*
X009185Y035026D03*
X009185Y034026D03*
X009185Y033026D03*
X009185Y032026D03*
X009185Y031026D03*
X010185Y031026D03*
X010185Y032026D03*
X010185Y033026D03*
X010185Y034026D03*
X010185Y035026D03*
X010185Y036026D03*
X010185Y037026D03*
X010185Y038026D03*
X010185Y039026D03*
X010185Y040026D03*
X010185Y041026D03*
X010185Y042026D03*
X010185Y043026D03*
X010185Y044026D03*
X010185Y045026D03*
X010185Y046026D03*
X010185Y047026D03*
X010185Y048026D03*
X010185Y023026D03*
X010185Y022026D03*
X010185Y021026D03*
X010185Y020026D03*
X010185Y019026D03*
X010185Y018026D03*
X010185Y017026D03*
X010185Y016026D03*
X010185Y015026D03*
X010185Y014026D03*
X010185Y013026D03*
X010185Y012026D03*
X010185Y011026D03*
X010185Y010026D03*
X010185Y009026D03*
X010185Y008026D03*
X010185Y007026D03*
X010185Y006026D03*
X009185Y006026D03*
X009185Y007026D03*
X009185Y008026D03*
X009185Y009026D03*
X009185Y010026D03*
X009185Y011026D03*
X009185Y012026D03*
X009185Y013026D03*
X009185Y014026D03*
X009185Y015026D03*
X009185Y016026D03*
X009185Y017026D03*
X009185Y018026D03*
X009185Y019026D03*
X009185Y020026D03*
X009185Y021026D03*
X009185Y022026D03*
X009185Y023026D03*
D12*
X009185Y025026D03*
X009185Y026026D03*
X009185Y028026D03*
X009185Y029026D03*
X010185Y029026D03*
X010185Y028026D03*
X010185Y026026D03*
X010185Y025026D03*
X010185Y004026D03*
X010185Y003026D03*
X009185Y003026D03*
X009185Y004026D03*
X009185Y050026D03*
X009185Y051026D03*
X010185Y051026D03*
X010185Y050026D03*
M02*
