G75*
G70*
%OFA0B0*%
%FSLAX24Y24*%
%IPPOS*%
%LPD*%
%AMOC8*
5,1,8,0,0,1.08239X$1,22.5*
%
%ADD10O,0.1144X0.0624*%
%ADD11OC8,0.0624*%
%ADD12OC8,0.0720*%
%ADD13O,0.0720X0.1320*%
%ADD14C,0.2400*%
%ADD15O,0.0624X0.1144*%
%ADD16C,0.1323*%
%ADD17O,0.0672X0.1232*%
%ADD18O,0.1232X0.0672*%
%ADD19C,0.0624*%
%ADD20C,0.0480*%
D10*
X049514Y026978D03*
X049514Y025978D03*
X049514Y024978D03*
X049514Y023978D03*
X049514Y022978D03*
X049514Y021978D03*
X049514Y020978D03*
X046514Y020978D03*
X046514Y021978D03*
X046514Y022978D03*
X046514Y023978D03*
X046514Y024978D03*
X046514Y025978D03*
X046514Y026978D03*
X047514Y015978D03*
X047514Y014978D03*
X047514Y013978D03*
X047514Y012978D03*
X047514Y011978D03*
X047514Y010978D03*
X047514Y009978D03*
X047514Y008978D03*
X047514Y007978D03*
X047514Y006978D03*
X047514Y005978D03*
X047514Y004978D03*
X047514Y003978D03*
X047514Y002978D03*
X041514Y002978D03*
X041514Y003978D03*
X041514Y004978D03*
X041514Y005978D03*
X041514Y006978D03*
X041514Y007978D03*
X041514Y008978D03*
X041514Y009978D03*
X041514Y010978D03*
X041514Y011978D03*
X041514Y012978D03*
X041514Y013978D03*
X041514Y014978D03*
X041514Y015978D03*
X039514Y015978D03*
X039514Y014978D03*
X039514Y013978D03*
X039514Y012978D03*
X039514Y011978D03*
X039514Y010978D03*
X039514Y009978D03*
X039514Y008978D03*
X039514Y007978D03*
X039514Y006978D03*
X039514Y005978D03*
X039514Y004978D03*
X039514Y003978D03*
X039514Y002978D03*
X033514Y002978D03*
X033514Y003978D03*
X033514Y004978D03*
X033514Y005978D03*
X033514Y006978D03*
X033514Y007978D03*
X033514Y008978D03*
X033514Y009978D03*
X033514Y010978D03*
X033514Y011978D03*
X033514Y012978D03*
X033514Y013978D03*
X033514Y014978D03*
X033514Y015978D03*
X031514Y015978D03*
X031514Y014978D03*
X031514Y013978D03*
X031514Y012978D03*
X031514Y011978D03*
X031514Y010978D03*
X031514Y009978D03*
X031514Y008978D03*
X031514Y007978D03*
X031514Y006978D03*
X031514Y005978D03*
X031514Y004978D03*
X031514Y003978D03*
X031514Y002978D03*
X025514Y002978D03*
X025514Y003978D03*
X025514Y004978D03*
X025514Y005978D03*
X025514Y006978D03*
X025514Y007978D03*
X025514Y008978D03*
X025514Y009978D03*
X025514Y010978D03*
X025514Y011978D03*
X025514Y012978D03*
X025514Y013978D03*
X025514Y014978D03*
X025514Y015978D03*
X022514Y015978D03*
X022514Y016978D03*
X022514Y017978D03*
X022514Y018978D03*
X022514Y019978D03*
X022514Y020978D03*
X022514Y021978D03*
X022514Y022978D03*
X022514Y023978D03*
X022514Y024978D03*
X021514Y027978D03*
X021514Y028978D03*
X021514Y029978D03*
X021514Y030978D03*
X021514Y031978D03*
X021514Y032978D03*
X021514Y033978D03*
X024514Y033978D03*
X024514Y032978D03*
X024514Y031978D03*
X024514Y030978D03*
X024514Y029978D03*
X024514Y028978D03*
X024514Y027978D03*
X016514Y024978D03*
X016514Y023978D03*
X016514Y022978D03*
X016514Y021978D03*
X016514Y020978D03*
X016514Y019978D03*
X016514Y018978D03*
X016514Y017978D03*
X016514Y016978D03*
X016514Y015978D03*
X016514Y014978D03*
X016514Y013978D03*
X014514Y013978D03*
X014514Y014978D03*
X014514Y015978D03*
X014514Y016978D03*
X014514Y017978D03*
X014514Y018978D03*
X014514Y019978D03*
X014514Y020978D03*
X014514Y021978D03*
X014514Y022978D03*
X014514Y023978D03*
X014514Y024978D03*
X014514Y025978D03*
X014514Y026978D03*
X014514Y027978D03*
X014514Y028978D03*
X014514Y029978D03*
X014514Y030978D03*
X008514Y030978D03*
X008514Y029978D03*
X008514Y028978D03*
X008514Y027978D03*
X008514Y026978D03*
X008514Y025978D03*
X008514Y024978D03*
X008514Y023978D03*
X008514Y022978D03*
X008514Y021978D03*
X008514Y020978D03*
X008514Y019978D03*
X008514Y018978D03*
X008514Y017978D03*
X008514Y016978D03*
X008514Y015978D03*
X008514Y014978D03*
X008514Y013978D03*
X008514Y012978D03*
X008514Y011978D03*
X007014Y011978D03*
X007014Y012978D03*
X007014Y013978D03*
X007014Y014978D03*
X007014Y015978D03*
X007014Y016978D03*
X007014Y017978D03*
X007014Y018978D03*
X007014Y019978D03*
X007014Y020978D03*
X007014Y022978D03*
X007014Y023978D03*
X007014Y024978D03*
X007014Y025978D03*
X007014Y026978D03*
X007014Y027978D03*
X007014Y028978D03*
X007014Y029978D03*
X007014Y030978D03*
X007014Y031978D03*
X004014Y031978D03*
X004014Y030978D03*
X004014Y029978D03*
X004014Y028978D03*
X004014Y027978D03*
X004014Y026978D03*
X004014Y025978D03*
X004014Y024978D03*
X004014Y023978D03*
X004014Y022978D03*
X004014Y020978D03*
X004014Y019978D03*
X004014Y018978D03*
X004014Y017978D03*
X004014Y016978D03*
X004014Y015978D03*
X004014Y014978D03*
X004014Y013978D03*
X004014Y012978D03*
X004014Y011978D03*
X005514Y008978D03*
X005514Y007978D03*
X005514Y006978D03*
X005514Y005978D03*
X005514Y004978D03*
X005514Y003978D03*
X005514Y002978D03*
X008514Y002978D03*
X008514Y003978D03*
X008514Y004978D03*
X008514Y005978D03*
X008514Y006978D03*
X008514Y007978D03*
X008514Y008978D03*
X014514Y011978D03*
X014514Y012978D03*
X015514Y009978D03*
X015514Y008978D03*
X015514Y007978D03*
X015514Y006978D03*
X015514Y005978D03*
X015514Y004978D03*
X015514Y003978D03*
X015514Y002978D03*
X018514Y002978D03*
X018514Y003978D03*
X018514Y004978D03*
X018514Y005978D03*
X018514Y006978D03*
X018514Y007978D03*
X018514Y008978D03*
X018514Y009978D03*
X020514Y009978D03*
X020514Y008978D03*
X020514Y007978D03*
X020514Y006978D03*
X020514Y005978D03*
X020514Y004978D03*
X020514Y003978D03*
X020514Y002978D03*
X023514Y002978D03*
X023514Y003978D03*
X023514Y004978D03*
X023514Y005978D03*
X023514Y006978D03*
X023514Y007978D03*
X023514Y008978D03*
X023514Y009978D03*
X022514Y013978D03*
X022514Y014978D03*
D11*
X019514Y011978D03*
X018514Y010978D03*
X016514Y010978D03*
X016514Y011978D03*
X021514Y010978D03*
X023514Y010978D03*
X015514Y015978D03*
X015514Y018978D03*
X006514Y021978D03*
X004514Y021978D03*
X016514Y025978D03*
X018514Y025978D03*
X021514Y026978D03*
X023514Y026978D03*
X025514Y026978D03*
X026514Y027978D03*
X027514Y027978D03*
X027514Y028978D03*
X026514Y029978D03*
X029514Y028978D03*
X030514Y028978D03*
X030514Y027978D03*
X029514Y027978D03*
X028514Y026978D03*
X032514Y027978D03*
X032514Y028978D03*
X041514Y027978D03*
X042514Y026978D03*
X044514Y027978D03*
X045514Y026978D03*
X045514Y022978D03*
X045514Y020978D03*
X049014Y019978D03*
X049014Y018978D03*
X048514Y017978D03*
X047514Y016978D03*
X045514Y016978D03*
X048514Y014978D03*
X039514Y016978D03*
X039514Y018978D03*
X031514Y018978D03*
X031514Y016978D03*
X029514Y016978D03*
X027514Y017978D03*
X027514Y018978D03*
X028514Y018978D03*
X025514Y017978D03*
X024514Y018978D03*
X010514Y007978D03*
X009514Y007978D03*
X011514Y006978D03*
X011514Y004978D03*
X010514Y004978D03*
X009514Y004978D03*
X009514Y003978D03*
X009514Y002978D03*
X009514Y001978D03*
X008514Y001978D03*
X005514Y001978D03*
X002514Y003978D03*
X002514Y005978D03*
X002514Y009978D03*
X005514Y009978D03*
X006514Y010978D03*
X008514Y010978D03*
X012514Y004978D03*
X011514Y003978D03*
X011514Y002978D03*
X011514Y001978D03*
X012514Y001978D03*
X010514Y031978D03*
X008514Y031978D03*
X006514Y032978D03*
X004514Y032978D03*
D12*
X002514Y026978D03*
X001514Y026978D03*
X001514Y025978D03*
X002514Y025978D03*
X002514Y024978D03*
X001514Y024978D03*
X001514Y023978D03*
X002514Y023978D03*
X002514Y022978D03*
X001514Y022978D03*
X001514Y021978D03*
X002514Y021978D03*
X002514Y020978D03*
X001514Y020978D03*
X001514Y019978D03*
X002514Y019978D03*
X002514Y018978D03*
X001514Y018978D03*
X001514Y017978D03*
X002514Y017978D03*
X039354Y028978D03*
X040434Y028978D03*
X041514Y028978D03*
X042594Y028978D03*
X042054Y029978D03*
X040974Y029978D03*
X039894Y029978D03*
X043134Y029978D03*
X043674Y028978D03*
X048514Y027978D03*
X048514Y031978D03*
D13*
X040514Y027978D03*
X039514Y027978D03*
X038514Y027978D03*
X036514Y017978D03*
X035514Y017978D03*
X034514Y017978D03*
X040514Y017978D03*
X041514Y017978D03*
X042514Y017978D03*
X043514Y017978D03*
X044514Y017978D03*
X004514Y007978D03*
X003514Y004978D03*
X004514Y002978D03*
D14*
X036584Y029478D03*
X046444Y029478D03*
D15*
X044514Y025978D03*
X043514Y025978D03*
X042514Y025978D03*
X041514Y025978D03*
X040514Y025978D03*
X039514Y025978D03*
X038514Y025978D03*
X037514Y025978D03*
X036514Y025978D03*
X035514Y025978D03*
X034514Y025978D03*
X033514Y025978D03*
X032514Y025978D03*
X031514Y025978D03*
X030514Y025978D03*
X029514Y025978D03*
X028514Y025978D03*
X027514Y025978D03*
X026514Y025978D03*
X025514Y025978D03*
X027514Y029978D03*
X028514Y029978D03*
X029514Y029978D03*
X030514Y029978D03*
X031514Y029978D03*
X032514Y029978D03*
X033514Y029978D03*
X034514Y029978D03*
X034514Y032978D03*
X033514Y032978D03*
X032514Y032978D03*
X031514Y032978D03*
X030514Y032978D03*
X029514Y032978D03*
X028514Y032978D03*
X027514Y032978D03*
X027514Y019978D03*
X026514Y019978D03*
X025514Y019978D03*
X028514Y019978D03*
X029514Y019978D03*
X030514Y019978D03*
X031514Y019978D03*
X032514Y019978D03*
X033514Y019978D03*
X034514Y019978D03*
X035514Y019978D03*
X036514Y019978D03*
X037514Y019978D03*
X038514Y019978D03*
X039514Y019978D03*
X040514Y019978D03*
X041514Y019978D03*
X042514Y019978D03*
X043514Y019978D03*
X044514Y019978D03*
D16*
X001514Y001978D03*
X001514Y034978D03*
X049514Y034978D03*
X049514Y001978D03*
D17*
X047514Y019478D03*
X046514Y019478D03*
X005514Y010978D03*
X004514Y010978D03*
D18*
X023514Y011978D03*
X023514Y012978D03*
X002014Y028978D03*
X002014Y029978D03*
D19*
X016514Y027978D03*
X019514Y027978D03*
X019514Y033978D03*
X016514Y033978D03*
D20*
X017514Y033478D03*
X017514Y031478D03*
X022764Y031228D03*
X023264Y032728D03*
X022764Y029228D03*
X025514Y028478D03*
X027014Y028478D03*
X030014Y030728D03*
X034514Y024978D03*
X034514Y023478D03*
X033514Y023728D03*
X032514Y021728D03*
X031514Y021228D03*
X030514Y018978D03*
X033764Y017478D03*
X032264Y016478D03*
X035014Y014978D03*
X035514Y014978D03*
X036014Y014978D03*
X037014Y015228D03*
X036514Y016478D03*
X036014Y016478D03*
X037514Y018228D03*
X038764Y017478D03*
X039264Y017978D03*
X039014Y018478D03*
X040264Y016978D03*
X042514Y016728D03*
X042514Y015978D03*
X043264Y015478D03*
X040764Y013478D03*
X042514Y011978D03*
X042264Y010478D03*
X040514Y009478D03*
X040514Y007978D03*
X035014Y007978D03*
X032514Y008978D03*
X032514Y011978D03*
X030514Y012478D03*
X030764Y013478D03*
X026514Y014978D03*
X026264Y016478D03*
X026514Y017728D03*
X026514Y018478D03*
X024014Y019978D03*
X021264Y022478D03*
X023764Y023228D03*
X028014Y022228D03*
X030014Y023228D03*
X038264Y020978D03*
X039014Y020978D03*
X040014Y021228D03*
X042514Y020978D03*
X044514Y022228D03*
X044264Y022978D03*
X043764Y023228D03*
X045014Y024478D03*
X044014Y024978D03*
X043014Y024728D03*
X040014Y024728D03*
X047264Y024478D03*
X048264Y023228D03*
X045764Y019728D03*
X045264Y019478D03*
X049264Y017978D03*
X048764Y016978D03*
X041264Y018978D03*
X038514Y015478D03*
X038264Y012978D03*
X027264Y008978D03*
X026264Y009478D03*
X027014Y007978D03*
X027764Y005478D03*
X030514Y004478D03*
X022514Y008978D03*
X021764Y008728D03*
X019764Y008478D03*
X017514Y009978D03*
X018014Y011478D03*
X018014Y012478D03*
X021014Y014228D03*
X021514Y012978D03*
X024264Y010978D03*
X021764Y006478D03*
X017764Y006478D03*
X017014Y003478D03*
X010014Y009228D03*
X010264Y009728D03*
X013264Y011478D03*
X014264Y010978D03*
X011764Y012478D03*
X009764Y012478D03*
X010264Y014228D03*
X013264Y017728D03*
X013264Y019228D03*
X013764Y021478D03*
X012514Y023478D03*
X009264Y023478D03*
X005764Y019228D03*
X017264Y021478D03*
X017514Y022478D03*
X018014Y017978D03*
X021014Y017478D03*
X016764Y027228D03*
X043014Y002978D03*
M02*
