G75*
G70*
%OFA0B0*%
%FSLAX24Y24*%
%IPPOS*%
%LPD*%
%AMOC8*
5,1,8,0,0,1.08239X$1,22.5*
%
%ADD10O,0.1040X0.0520*%
%ADD11OC8,0.0480*%
%ADD12C,0.0480*%
%ADD13OC8,0.0520*%
%ADD14O,0.1400X0.0700*%
%ADD15OC8,0.0600*%
%ADD16C,0.0885*%
%ADD17R,0.1378X0.0669*%
%ADD18O,0.1200X0.0600*%
%ADD19O,0.0700X0.1400*%
%ADD20C,0.0550*%
%ADD21C,0.0520*%
%ADD22O,0.0520X0.1040*%
%ADD23C,0.1890*%
%ADD24C,0.0120*%
%ADD25C,0.0240*%
%ADD26C,0.0160*%
%ADD27OC8,0.0400*%
%ADD28C,0.0320*%
D10*
X017188Y012105D03*
X017188Y011105D03*
X017188Y010105D03*
X017188Y009105D03*
X017188Y008105D03*
X017188Y007105D03*
X017188Y006105D03*
X017188Y005105D03*
X017188Y004105D03*
X017188Y003105D03*
X014188Y003105D03*
X014188Y004105D03*
X014188Y005105D03*
X014188Y006105D03*
X014188Y007105D03*
X014188Y008105D03*
X012488Y008505D03*
X012488Y007505D03*
X012488Y006505D03*
X012488Y005505D03*
X012488Y004505D03*
X012488Y003505D03*
X009488Y003505D03*
X009488Y004505D03*
X009488Y005505D03*
X009488Y006505D03*
X009488Y007505D03*
X009488Y008505D03*
X009488Y009505D03*
X009488Y010505D03*
X012488Y010505D03*
X012488Y009505D03*
X014188Y009105D03*
X014188Y010105D03*
X014188Y011105D03*
X014188Y012105D03*
D11*
X007688Y010355D03*
X007688Y007655D03*
X007688Y005655D03*
X007688Y004355D03*
D12*
X007688Y003655D03*
X007688Y006355D03*
X007688Y008355D03*
X007688Y009655D03*
D13*
X008988Y011405D03*
X011888Y012505D03*
X012888Y012505D03*
X012388Y011755D03*
X014988Y013105D03*
X013288Y014105D03*
X016388Y014705D03*
X016388Y015705D03*
X017588Y016005D03*
X014988Y016105D03*
X017588Y013005D03*
D14*
X021938Y015905D03*
X022588Y015905D03*
X023588Y015905D03*
X024588Y015905D03*
X025588Y015905D03*
X026588Y015905D03*
X027588Y015905D03*
X028588Y015905D03*
X029588Y015905D03*
X030588Y015905D03*
X031588Y015905D03*
X032238Y015905D03*
X028238Y009905D03*
X027588Y009905D03*
X026588Y009905D03*
X025588Y009905D03*
X024588Y009905D03*
X023588Y009905D03*
X022588Y009905D03*
X021938Y009905D03*
X021938Y008905D03*
X022588Y008905D03*
X023588Y008905D03*
X024588Y008905D03*
X025588Y008905D03*
X026588Y008905D03*
X027588Y008905D03*
X028238Y008905D03*
X028588Y002905D03*
X027588Y002905D03*
X026588Y002905D03*
X025588Y002905D03*
X024588Y002905D03*
X023588Y002905D03*
X022588Y002905D03*
X021938Y002905D03*
X029588Y002905D03*
X030588Y002905D03*
X031588Y002905D03*
X032238Y002905D03*
D15*
X013778Y015995D03*
X011998Y015995D03*
D16*
X011508Y015015D03*
X014268Y015015D03*
D17*
X005568Y008965D03*
X005568Y007885D03*
X005568Y006805D03*
X005568Y005725D03*
X005568Y004645D03*
D18*
X018688Y005005D03*
X018688Y004005D03*
X018688Y003005D03*
X018688Y006005D03*
X018688Y007005D03*
X018688Y008005D03*
X018688Y009005D03*
X018688Y010005D03*
X018688Y011005D03*
X018688Y012005D03*
X018688Y013005D03*
X018688Y014005D03*
X018688Y015005D03*
X018688Y016005D03*
D19*
X021588Y012555D03*
X021588Y011905D03*
X021588Y011255D03*
X022588Y011255D03*
X022588Y011905D03*
X022588Y012555D03*
X023588Y012555D03*
X023588Y011905D03*
X023588Y011255D03*
X024588Y011255D03*
X025588Y011255D03*
X025588Y011905D03*
X024588Y011905D03*
X024588Y012555D03*
X025588Y012555D03*
X026588Y012555D03*
X026588Y011905D03*
X026588Y011255D03*
X027588Y011255D03*
X027588Y011905D03*
X027588Y012555D03*
X028588Y012555D03*
X028588Y011905D03*
X028588Y011255D03*
X028588Y007555D03*
X027588Y007555D03*
X026588Y007555D03*
X025588Y007555D03*
X024588Y007555D03*
X023588Y007555D03*
X022588Y007555D03*
X021588Y007555D03*
X021588Y006905D03*
X021588Y006255D03*
X022588Y006255D03*
X022588Y006905D03*
X023588Y006905D03*
X023588Y006255D03*
X024588Y006255D03*
X025588Y006255D03*
X025588Y006905D03*
X024588Y006905D03*
X026588Y006905D03*
X026588Y006255D03*
X027588Y006255D03*
X027588Y006905D03*
X028588Y006905D03*
X028588Y006255D03*
D20*
X029588Y005905D03*
X030588Y005905D03*
X031588Y005905D03*
X032588Y005905D03*
X033588Y005905D03*
X033588Y006905D03*
X032588Y006905D03*
X031588Y006905D03*
X030588Y006905D03*
X029588Y006905D03*
X029588Y007905D03*
X030588Y007905D03*
X031588Y007905D03*
X032588Y007905D03*
X033588Y007905D03*
X033588Y008905D03*
X032588Y008905D03*
X031588Y008905D03*
X030588Y008905D03*
X029588Y008905D03*
X029588Y009905D03*
X030588Y009905D03*
X031588Y009905D03*
X032588Y009905D03*
X033588Y009905D03*
X033588Y010905D03*
X032588Y010905D03*
X031588Y010905D03*
X030588Y010905D03*
X029588Y010905D03*
X029588Y011905D03*
X030588Y011905D03*
X031588Y011905D03*
X032588Y011905D03*
X033588Y011905D03*
X033588Y012905D03*
X032588Y012905D03*
X031588Y012905D03*
X030588Y012905D03*
X029588Y012905D03*
X029588Y013905D03*
X030588Y013905D03*
X031588Y013905D03*
X032588Y013905D03*
X033588Y013905D03*
X033588Y014905D03*
X032588Y014905D03*
X031588Y014905D03*
X030588Y014905D03*
X029588Y014905D03*
X028588Y014905D03*
X027588Y014905D03*
X026588Y014905D03*
X025588Y014905D03*
X024588Y014905D03*
X023588Y014905D03*
X022588Y014905D03*
X021588Y014905D03*
X021588Y013905D03*
X022588Y013905D03*
X023588Y013905D03*
X024588Y013905D03*
X025588Y013905D03*
X026588Y013905D03*
X027588Y013905D03*
X028588Y013905D03*
X033588Y015905D03*
X033588Y004905D03*
X032588Y004905D03*
X031588Y004905D03*
X030588Y004905D03*
X029588Y004905D03*
X028588Y004905D03*
X027588Y004905D03*
X026588Y004905D03*
X025588Y004905D03*
X024588Y004905D03*
X023588Y004905D03*
X022588Y004905D03*
X021588Y004905D03*
X021588Y003905D03*
X022588Y003905D03*
X023588Y003905D03*
X024588Y003905D03*
X025588Y003905D03*
X026588Y003905D03*
X027588Y003905D03*
X028588Y003905D03*
X029588Y003905D03*
X030588Y003905D03*
X031588Y003905D03*
X032588Y003905D03*
X033588Y003905D03*
X033588Y002905D03*
D21*
X012488Y014105D03*
X008988Y012205D03*
D22*
X010688Y011905D03*
X010688Y014905D03*
D23*
X009546Y015444D03*
X007223Y015444D03*
X008365Y013594D03*
D24*
X011488Y010905D02*
X012338Y011755D01*
X012388Y011705D01*
X013088Y011705D01*
X013488Y012105D01*
X013488Y012605D01*
X014088Y013205D01*
X015388Y012105D02*
X014888Y011605D01*
X013588Y011605D01*
X014088Y011105D02*
X013188Y010205D01*
X013188Y006705D01*
X012988Y006505D01*
X012488Y006505D01*
X013088Y005505D02*
X013488Y005905D01*
X013488Y009705D01*
X013888Y010105D01*
X014188Y010105D01*
X014188Y011105D02*
X014088Y011105D01*
X012388Y011755D02*
X012388Y011805D01*
X012338Y011755D01*
X011488Y010905D02*
X011488Y010105D01*
X011388Y010005D01*
X010888Y010005D01*
X008888Y010005D01*
X008538Y010355D01*
X007688Y010355D01*
X006838Y010355D01*
X005488Y009005D01*
X005528Y008965D01*
X005568Y008965D01*
X007688Y009655D02*
X009338Y009655D01*
X009488Y009505D01*
X011488Y010105D02*
X012088Y009505D01*
X012488Y009505D01*
X014188Y009105D02*
X014688Y009105D01*
X016088Y010505D01*
X016088Y011205D01*
X016488Y011605D01*
X018188Y011605D01*
X018588Y012005D01*
X018688Y012005D01*
X018688Y011005D02*
X018188Y011005D01*
X017888Y010705D01*
X017888Y009805D01*
X017688Y009605D01*
X016488Y009605D01*
X016388Y009505D01*
X016288Y009505D01*
X014888Y008105D01*
X014188Y008105D01*
X012488Y008505D02*
X010588Y008505D01*
X010188Y008105D01*
X008988Y008105D01*
X007788Y006905D01*
X007488Y006905D01*
X006288Y005705D01*
X005588Y005705D01*
X005568Y005725D01*
X005568Y005725D01*
X005568Y006805D02*
X005568Y006885D01*
X005588Y006905D01*
X006788Y006905D01*
X007688Y006405D02*
X007688Y006355D01*
X007688Y006405D02*
X008788Y007505D01*
X009488Y007505D01*
X008788Y008405D02*
X008038Y007655D01*
X007688Y007655D01*
X008788Y008405D02*
X009388Y008405D01*
X009488Y008505D01*
X009488Y006505D02*
X008488Y006505D01*
X007688Y005705D01*
X007688Y005655D01*
X008238Y004355D02*
X009488Y005605D01*
X009488Y005505D01*
X008238Y004355D02*
X007688Y004355D01*
X007688Y003705D02*
X008488Y002905D01*
X009188Y002905D01*
X013988Y002905D01*
X013088Y005505D02*
X012488Y005505D01*
X007688Y003705D02*
X007688Y003655D01*
X013778Y015995D02*
X013878Y015995D01*
X013888Y016005D01*
X014288Y016005D01*
D25*
X011998Y015995D02*
X011998Y016005D01*
X009888Y011405D02*
X008988Y011405D01*
X009888Y011405D02*
X010888Y010405D01*
X010888Y010005D01*
X020588Y009905D02*
X020588Y002905D01*
X021588Y002905D01*
X021588Y009905D02*
X020588Y009905D01*
D26*
X020588Y013605D01*
X019688Y014505D01*
X017988Y014505D01*
X017588Y014105D01*
X017588Y013005D01*
X017588Y013105D01*
X015888Y013105D01*
X015288Y012505D01*
X014788Y012505D01*
X014088Y013205D01*
X014088Y013605D01*
X013588Y014105D01*
X013288Y014105D01*
X012888Y014605D02*
X012388Y014105D01*
X012488Y014105D01*
X012488Y012905D01*
X012888Y012505D01*
X011888Y012505D02*
X011888Y012405D01*
X011788Y012505D01*
X013588Y011605D02*
X012488Y010505D01*
X015388Y012105D02*
X017188Y012105D01*
X014988Y013105D02*
X014988Y014305D01*
X015888Y015205D01*
X016788Y015205D01*
X017088Y015505D01*
X019388Y015505D01*
X019788Y015905D01*
X021588Y015905D01*
X019588Y013505D02*
X019088Y014005D01*
X018688Y014005D01*
X019588Y013505D02*
X019588Y008705D01*
X019388Y008505D01*
X017888Y008505D01*
X017788Y008605D01*
X016488Y008605D01*
X015388Y007505D01*
X015388Y006305D01*
X015188Y006105D01*
X014188Y006105D01*
X012788Y004505D02*
X012488Y004505D01*
X012788Y004505D02*
X014188Y003105D01*
X014188Y003005D01*
X014088Y002905D01*
X013988Y002905D01*
X009488Y003305D02*
X009188Y003005D01*
X009188Y002905D01*
X009488Y003305D02*
X009488Y003505D01*
X014988Y013105D02*
X013488Y014605D01*
X012888Y014605D01*
X013778Y015995D02*
X014878Y015995D01*
X014988Y016105D01*
X016388Y015705D02*
X016688Y016005D01*
X017588Y016005D01*
X016388Y014705D02*
X016388Y013605D01*
X016488Y013605D01*
D27*
X016488Y013605D03*
X006788Y006905D03*
D28*
X010688Y011905D02*
X011288Y012505D01*
X011788Y012505D01*
M02*
