G75*
G70*
%OFA0B0*%
%FSLAX24Y24*%
%IPPOS*%
%LPD*%
%AMOC8*
5,1,8,0,0,1.08239X$1,22.5*
%
%ADD10C,0.0000*%
%ADD11C,0.0060*%
%ADD12C,0.0050*%
%ADD13C,0.0010*%
%ADD14C,0.0070*%
%ADD15R,0.0200X1.2200*%
%ADD16R,0.0630X0.7244*%
%ADD17C,0.0080*%
%ADD18R,0.0200X0.0150*%
%ADD19R,0.0800X0.0200*%
%ADD20R,0.0200X0.0250*%
D10*
X034336Y016890D02*
X004840Y016890D01*
X004940Y002020D01*
X034336Y002020D01*
X034336Y016890D01*
D11*
X002988Y002705D02*
X002788Y002705D01*
X002988Y002705D02*
X002988Y002755D01*
X003938Y002755D01*
X003968Y002757D01*
X003998Y002762D01*
X004027Y002771D01*
X004054Y002784D01*
X004080Y002799D01*
X004104Y002818D01*
X004125Y002839D01*
X004144Y002863D01*
X004159Y002889D01*
X004172Y002916D01*
X004181Y002945D01*
X004186Y002975D01*
X004188Y003005D01*
X004188Y002997D02*
X004188Y010612D01*
X004188Y010605D02*
X004186Y010635D01*
X004181Y010665D01*
X004172Y010694D01*
X004159Y010721D01*
X004144Y010747D01*
X004125Y010771D01*
X004104Y010792D01*
X004080Y010811D01*
X004054Y010826D01*
X004027Y010839D01*
X003998Y010848D01*
X003968Y010853D01*
X003938Y010855D01*
X002988Y010855D01*
X002988Y010905D01*
X002788Y010905D01*
X002417Y010005D02*
X000338Y010005D01*
X000312Y010003D01*
X000286Y009998D01*
X000261Y009990D01*
X000238Y009978D01*
X000216Y009964D01*
X000197Y009946D01*
X000179Y009927D01*
X000165Y009905D01*
X000153Y009882D01*
X000145Y009857D01*
X000140Y009831D01*
X000138Y009805D01*
X000138Y003805D01*
X000140Y003779D01*
X000145Y003753D01*
X000153Y003728D01*
X000165Y003705D01*
X000179Y003683D01*
X000197Y003664D01*
X000216Y003646D01*
X000238Y003632D01*
X000261Y003620D01*
X000286Y003612D01*
X000312Y003607D01*
X000338Y003605D01*
X002417Y003605D01*
X007038Y003705D02*
X007238Y003705D01*
X007138Y003605D02*
X007138Y003805D01*
X006888Y004005D02*
X006891Y004078D01*
X006901Y004150D01*
X006918Y004221D01*
X006940Y004290D01*
X006969Y004357D01*
X007004Y004421D01*
X007045Y004481D01*
X007091Y004538D01*
X007142Y004590D01*
X007197Y004637D01*
X007257Y004679D01*
X007320Y004715D01*
X007386Y004746D01*
X007455Y004770D01*
X007525Y004788D01*
X007597Y004800D01*
X007670Y004805D01*
X007743Y004803D01*
X007815Y004795D01*
X007886Y004780D01*
X007956Y004759D01*
X008023Y004731D01*
X008088Y004698D01*
X008149Y004659D01*
X008207Y004614D01*
X008260Y004564D01*
X008309Y004510D01*
X008352Y004451D01*
X008390Y004389D01*
X008422Y004324D01*
X008448Y004256D01*
X008467Y004186D01*
X008481Y004114D01*
X008487Y004041D01*
X008487Y003969D01*
X008481Y003896D01*
X008467Y003824D01*
X008448Y003754D01*
X008422Y003686D01*
X008390Y003621D01*
X008352Y003559D01*
X008309Y003500D01*
X008260Y003446D01*
X008207Y003396D01*
X008149Y003351D01*
X008088Y003312D01*
X008023Y003279D01*
X007956Y003251D01*
X007886Y003230D01*
X007815Y003215D01*
X007743Y003207D01*
X007670Y003205D01*
X007597Y003210D01*
X007525Y003222D01*
X007455Y003240D01*
X007386Y003264D01*
X007320Y003295D01*
X007257Y003331D01*
X007197Y003373D01*
X007142Y003420D01*
X007091Y003472D01*
X007045Y003529D01*
X007004Y003589D01*
X006969Y003653D01*
X006940Y003720D01*
X006918Y003789D01*
X006901Y003860D01*
X006891Y003932D01*
X006888Y004005D01*
X007308Y002775D02*
X007522Y002562D01*
X007522Y002135D01*
X007522Y002455D02*
X007095Y002455D01*
X007095Y002562D02*
X007095Y002135D01*
X007095Y002562D02*
X007308Y002775D01*
X007739Y002562D02*
X007953Y002562D01*
X007846Y002669D02*
X007846Y002242D01*
X007953Y002135D01*
X008277Y002135D02*
X008277Y002562D01*
X008383Y002562D01*
X008490Y002455D01*
X008597Y002562D01*
X008704Y002455D01*
X008704Y002135D01*
X008490Y002135D02*
X008490Y002455D01*
X008921Y002455D02*
X008921Y002242D01*
X009028Y002135D01*
X009241Y002135D01*
X009348Y002348D02*
X008921Y002348D01*
X008921Y002455D02*
X009028Y002562D01*
X009241Y002562D01*
X009348Y002455D01*
X009348Y002348D01*
X009566Y002135D02*
X009993Y002562D01*
X009566Y002562D02*
X009993Y002135D01*
X010855Y002562D02*
X011068Y002135D01*
X011282Y002562D01*
X011499Y002669D02*
X011606Y002775D01*
X011606Y002135D01*
X011499Y002135D02*
X011713Y002135D01*
X012036Y002135D02*
X012143Y002135D01*
X012143Y002242D01*
X012036Y002242D01*
X012036Y002135D01*
X012573Y002242D02*
X012680Y002135D01*
X012894Y002135D01*
X013000Y002242D01*
X013000Y002348D01*
X012894Y002455D01*
X012787Y002455D01*
X012894Y002455D02*
X013000Y002562D01*
X013000Y002669D01*
X012894Y002775D01*
X012680Y002775D01*
X012573Y002669D01*
X012138Y003005D02*
X009838Y003005D01*
X009838Y011005D01*
X010588Y011005D01*
X010590Y010966D01*
X010596Y010927D01*
X010605Y010889D01*
X010618Y010852D01*
X010635Y010816D01*
X010655Y010783D01*
X010679Y010751D01*
X010705Y010722D01*
X010734Y010696D01*
X010766Y010672D01*
X010799Y010652D01*
X010835Y010635D01*
X010872Y010622D01*
X010910Y010613D01*
X010949Y010607D01*
X010988Y010605D01*
X011027Y010607D01*
X011066Y010613D01*
X011104Y010622D01*
X011141Y010635D01*
X011177Y010652D01*
X011210Y010672D01*
X011242Y010696D01*
X011271Y010722D01*
X011297Y010751D01*
X011321Y010783D01*
X011341Y010816D01*
X011358Y010852D01*
X011371Y010889D01*
X011380Y010927D01*
X011386Y010966D01*
X011388Y011005D01*
X012138Y011005D01*
X012138Y003005D01*
X014588Y002405D02*
X014588Y012805D01*
X015438Y012805D01*
X015440Y012774D01*
X015446Y012743D01*
X015456Y012713D01*
X015469Y012685D01*
X015486Y012658D01*
X015506Y012634D01*
X015529Y012612D01*
X015554Y012594D01*
X015582Y012579D01*
X015611Y012567D01*
X015641Y012559D01*
X015672Y012555D01*
X015704Y012555D01*
X015735Y012559D01*
X015765Y012567D01*
X015794Y012579D01*
X015822Y012594D01*
X015847Y012612D01*
X015870Y012634D01*
X015890Y012658D01*
X015907Y012685D01*
X015920Y012713D01*
X015930Y012743D01*
X015936Y012774D01*
X015938Y012805D01*
X016788Y012805D01*
X016788Y002405D01*
X014588Y002405D01*
X018188Y002755D02*
X018438Y002505D01*
X018938Y002505D01*
X019188Y002755D01*
X019188Y003255D01*
X018938Y003505D01*
X019188Y003755D01*
X019188Y004255D01*
X018938Y004505D01*
X018438Y004505D01*
X018188Y004255D01*
X018188Y003755D01*
X018438Y003505D01*
X018938Y003505D01*
X018438Y003505D02*
X018188Y003255D01*
X018188Y002755D01*
X019618Y002935D02*
X019838Y002935D01*
X019912Y003008D01*
X019912Y003082D01*
X019838Y003155D01*
X019618Y003155D01*
X019618Y002935D02*
X019618Y003375D01*
X019838Y003375D01*
X019912Y003302D01*
X019912Y003228D01*
X019838Y003155D01*
X020079Y003008D02*
X020372Y003302D01*
X020372Y003008D01*
X020299Y002935D01*
X020152Y002935D01*
X020079Y003008D01*
X020079Y003302D01*
X020152Y003375D01*
X020299Y003375D01*
X020372Y003302D01*
X020618Y003395D02*
X020618Y003174D01*
X021058Y003174D01*
X021058Y003395D01*
X020985Y003468D01*
X020691Y003468D01*
X020618Y003395D01*
X020618Y003008D02*
X021058Y003008D01*
X020618Y002714D01*
X021058Y002714D01*
X020985Y002547D02*
X020838Y002547D01*
X020838Y002401D01*
X020691Y002547D02*
X020618Y002474D01*
X020618Y002327D01*
X020691Y002254D01*
X020985Y002254D01*
X021058Y002327D01*
X021058Y002474D01*
X020985Y002547D01*
X020225Y003935D02*
X020079Y003935D01*
X020152Y003935D02*
X020152Y004375D01*
X020079Y004302D01*
X019912Y004302D02*
X019912Y004228D01*
X019838Y004155D01*
X019618Y004155D01*
X019618Y003935D02*
X019838Y003935D01*
X019912Y004008D01*
X019912Y004082D01*
X019838Y004155D01*
X019912Y004302D02*
X019838Y004375D01*
X019618Y004375D01*
X019618Y003935D01*
X018938Y004505D02*
X019188Y004755D01*
X019188Y005255D01*
X018938Y005505D01*
X019188Y005755D01*
X019188Y006255D01*
X018938Y006505D01*
X019188Y006755D01*
X019188Y007255D01*
X018938Y007505D01*
X018438Y007505D01*
X018188Y007255D01*
X018188Y006755D01*
X018438Y006505D01*
X018938Y006505D01*
X018438Y006505D02*
X018188Y006255D01*
X018188Y005755D01*
X018438Y005505D01*
X018938Y005505D01*
X018438Y005505D02*
X018188Y005255D01*
X018188Y004755D01*
X018438Y004505D01*
X019618Y004935D02*
X019838Y004935D01*
X019912Y005008D01*
X019912Y005082D01*
X019838Y005155D01*
X019618Y005155D01*
X019618Y004935D02*
X019618Y005375D01*
X019838Y005375D01*
X019912Y005302D01*
X019912Y005228D01*
X019838Y005155D01*
X020079Y005302D02*
X020152Y005375D01*
X020299Y005375D01*
X020372Y005302D01*
X020372Y005228D01*
X020079Y004935D01*
X020372Y004935D01*
X020299Y005935D02*
X020152Y005935D01*
X020079Y006008D01*
X019912Y006008D02*
X019838Y005935D01*
X019618Y005935D01*
X019618Y006375D01*
X019838Y006375D01*
X019912Y006302D01*
X019912Y006228D01*
X019838Y006155D01*
X019618Y006155D01*
X019838Y006155D02*
X019912Y006082D01*
X019912Y006008D01*
X020079Y006302D02*
X020152Y006375D01*
X020299Y006375D01*
X020372Y006302D01*
X020372Y006228D01*
X020299Y006155D01*
X020372Y006082D01*
X020372Y006008D01*
X020299Y005935D01*
X020299Y006155D02*
X020225Y006155D01*
X020299Y006935D02*
X020299Y007375D01*
X020079Y007155D01*
X020372Y007155D01*
X019912Y007228D02*
X019838Y007155D01*
X019618Y007155D01*
X019618Y006935D02*
X019838Y006935D01*
X019912Y007008D01*
X019912Y007082D01*
X019838Y007155D01*
X019912Y007228D02*
X019912Y007302D01*
X019838Y007375D01*
X019618Y007375D01*
X019618Y006935D01*
X018938Y007505D02*
X019188Y007755D01*
X019188Y008255D01*
X018938Y008505D01*
X019188Y008755D01*
X019188Y009255D01*
X018938Y009505D01*
X019188Y009755D01*
X019188Y010255D01*
X018938Y010505D01*
X018438Y010505D01*
X018188Y010255D01*
X018188Y009755D01*
X018438Y009505D01*
X018938Y009505D01*
X018438Y009505D02*
X018188Y009255D01*
X018188Y008755D01*
X018438Y008505D01*
X018938Y008505D01*
X018438Y008505D02*
X018188Y008255D01*
X018188Y007755D01*
X018438Y007505D01*
X019618Y007935D02*
X019838Y007935D01*
X019912Y008008D01*
X019912Y008082D01*
X019838Y008155D01*
X019618Y008155D01*
X019618Y007935D02*
X019618Y008375D01*
X019838Y008375D01*
X019912Y008302D01*
X019912Y008228D01*
X019838Y008155D01*
X020079Y008155D02*
X020225Y008228D01*
X020299Y008228D01*
X020372Y008155D01*
X020372Y008008D01*
X020299Y007935D01*
X020152Y007935D01*
X020079Y008008D01*
X020079Y008155D02*
X020079Y008375D01*
X020372Y008375D01*
X020618Y008508D02*
X020911Y008508D01*
X021058Y008361D01*
X020911Y008214D01*
X020618Y008214D01*
X020838Y008674D02*
X020838Y008968D01*
X020691Y008821D02*
X020985Y008821D01*
X020985Y009254D02*
X020691Y009254D01*
X020618Y009327D01*
X020618Y009474D01*
X020691Y009547D01*
X020838Y009547D02*
X020838Y009401D01*
X020838Y009547D02*
X020985Y009547D01*
X021058Y009474D01*
X021058Y009327D01*
X020985Y009254D01*
X020372Y009375D02*
X020225Y009302D01*
X020079Y009155D01*
X020299Y009155D01*
X020372Y009082D01*
X020372Y009008D01*
X020299Y008935D01*
X020152Y008935D01*
X020079Y009008D01*
X020079Y009155D01*
X019912Y009082D02*
X019838Y009155D01*
X019618Y009155D01*
X019618Y008935D02*
X019838Y008935D01*
X019912Y009008D01*
X019912Y009082D01*
X019838Y009155D02*
X019912Y009228D01*
X019912Y009302D01*
X019838Y009375D01*
X019618Y009375D01*
X019618Y008935D01*
X019618Y009835D02*
X019838Y009835D01*
X019912Y009908D01*
X019912Y009982D01*
X019838Y010055D01*
X019618Y010055D01*
X019618Y009835D02*
X019618Y010275D01*
X019838Y010275D01*
X019912Y010202D01*
X019912Y010128D01*
X019838Y010055D01*
X020079Y009908D02*
X020079Y009835D01*
X020079Y009908D02*
X020372Y010202D01*
X020372Y010275D01*
X020079Y010275D01*
X020618Y010174D02*
X020618Y010395D01*
X020691Y010468D01*
X020985Y010468D01*
X021058Y010395D01*
X021058Y010174D01*
X020618Y010174D01*
X020618Y010008D02*
X021058Y010008D01*
X020618Y009714D01*
X021058Y009714D01*
X019188Y010755D02*
X018938Y010505D01*
X019188Y010755D02*
X019188Y011255D01*
X018938Y011505D01*
X019188Y011755D01*
X019188Y012255D01*
X018938Y012505D01*
X019188Y012755D01*
X019188Y013255D01*
X018938Y013505D01*
X018438Y013505D01*
X018188Y013255D01*
X018188Y012755D01*
X018438Y012505D01*
X018938Y012505D01*
X018438Y012505D02*
X018188Y012255D01*
X018188Y011755D01*
X018438Y011505D01*
X018938Y011505D01*
X018438Y011505D02*
X018188Y011255D01*
X018188Y010755D01*
X018438Y010505D01*
X019618Y010835D02*
X019618Y011128D01*
X019765Y011275D01*
X019912Y011128D01*
X019912Y010835D01*
X020079Y010908D02*
X020372Y011202D01*
X020372Y010908D01*
X020299Y010835D01*
X020152Y010835D01*
X020079Y010908D01*
X020079Y011202D01*
X020152Y011275D01*
X020299Y011275D01*
X020372Y011202D01*
X019912Y011055D02*
X019618Y011055D01*
X019618Y011835D02*
X019618Y012128D01*
X019765Y012275D01*
X019912Y012128D01*
X019912Y011835D01*
X020079Y011835D02*
X020225Y011835D01*
X020152Y011835D02*
X020152Y012275D01*
X020079Y012202D01*
X019912Y012055D02*
X019618Y012055D01*
X019618Y012835D02*
X019838Y012835D01*
X019912Y012908D01*
X019912Y013202D01*
X019838Y013275D01*
X019618Y013275D01*
X019618Y012835D01*
X020079Y012835D02*
X020372Y013128D01*
X020372Y013202D01*
X020299Y013275D01*
X020152Y013275D01*
X020079Y013202D01*
X020079Y012835D02*
X020372Y012835D01*
X019188Y013755D02*
X018938Y013505D01*
X018438Y013505D02*
X018188Y013755D01*
X018188Y014255D01*
X018438Y014505D01*
X018188Y014755D01*
X018188Y015255D01*
X018438Y015505D01*
X018188Y015755D01*
X018188Y016255D01*
X018438Y016505D01*
X018938Y016505D01*
X019188Y016255D01*
X019188Y015755D01*
X018938Y015505D01*
X019188Y015255D01*
X019188Y014755D01*
X018938Y014505D01*
X019188Y014255D01*
X019188Y013755D01*
X019618Y013835D02*
X019838Y013835D01*
X019912Y013908D01*
X019912Y014202D01*
X019838Y014275D01*
X019618Y014275D01*
X019618Y013835D01*
X020079Y013908D02*
X020152Y013835D01*
X020299Y013835D01*
X020372Y013908D01*
X020372Y013982D01*
X020299Y014055D01*
X020225Y014055D01*
X020299Y014055D02*
X020372Y014128D01*
X020372Y014202D01*
X020299Y014275D01*
X020152Y014275D01*
X020079Y014202D01*
X020299Y014835D02*
X020299Y015275D01*
X020079Y015055D01*
X020372Y015055D01*
X020618Y015214D02*
X020911Y015214D01*
X021058Y015361D01*
X020911Y015508D01*
X020618Y015508D01*
X020838Y015674D02*
X020838Y015968D01*
X020691Y015821D02*
X020985Y015821D01*
X020372Y015908D02*
X020372Y016055D01*
X020299Y016128D01*
X020225Y016128D01*
X020079Y016055D01*
X020079Y016275D01*
X020372Y016275D01*
X019912Y016202D02*
X019838Y016275D01*
X019618Y016275D01*
X019618Y015835D01*
X019838Y015835D01*
X019912Y015908D01*
X019912Y016202D01*
X020079Y015908D02*
X020152Y015835D01*
X020299Y015835D01*
X020372Y015908D01*
X019838Y015275D02*
X019618Y015275D01*
X019618Y014835D01*
X019838Y014835D01*
X019912Y014908D01*
X019912Y015202D01*
X019838Y015275D01*
X018938Y015505D02*
X018438Y015505D01*
X017988Y015405D02*
X017988Y015255D01*
X017938Y015205D01*
X017938Y013805D01*
X017988Y013755D01*
X017988Y013605D01*
X017986Y013585D01*
X017980Y013567D01*
X017971Y013549D01*
X017959Y013534D01*
X017944Y013522D01*
X017926Y013513D01*
X017908Y013507D01*
X017888Y013505D01*
X017288Y013505D01*
X017268Y013507D01*
X017250Y013513D01*
X017232Y013522D01*
X017217Y013534D01*
X017205Y013549D01*
X017196Y013567D01*
X017190Y013585D01*
X017188Y013605D01*
X017188Y013755D01*
X017238Y013805D01*
X017238Y015205D01*
X017188Y015255D01*
X017188Y015405D01*
X017190Y015425D01*
X017196Y015443D01*
X017205Y015461D01*
X017217Y015476D01*
X017232Y015488D01*
X017250Y015497D01*
X017268Y015503D01*
X017288Y015505D01*
X017888Y015505D01*
X017908Y015503D01*
X017926Y015497D01*
X017944Y015488D01*
X017959Y015476D01*
X017971Y015461D01*
X017980Y015443D01*
X017986Y015425D01*
X017988Y015405D01*
X018438Y014505D02*
X018938Y014505D01*
X015388Y015205D02*
X015392Y015296D01*
X015405Y015386D01*
X015425Y015475D01*
X015454Y015561D01*
X015490Y015645D01*
X015534Y015725D01*
X015584Y015800D01*
X015642Y015871D01*
X015705Y015936D01*
X015775Y015995D01*
X015849Y016047D01*
X015928Y016093D01*
X016011Y016131D01*
X016096Y016162D01*
X016185Y016184D01*
X016274Y016199D01*
X016365Y016205D01*
X016456Y016203D01*
X016547Y016192D01*
X016636Y016174D01*
X016723Y016147D01*
X016807Y016113D01*
X016888Y016071D01*
X016965Y016022D01*
X017037Y015966D01*
X017103Y015904D01*
X017164Y015836D01*
X017218Y015763D01*
X017265Y015685D01*
X017305Y015603D01*
X017338Y015518D01*
X017362Y015431D01*
X017379Y015341D01*
X017387Y015251D01*
X017387Y015159D01*
X017379Y015069D01*
X017362Y014979D01*
X017338Y014892D01*
X017305Y014807D01*
X017265Y014725D01*
X017218Y014647D01*
X017164Y014574D01*
X017103Y014506D01*
X017037Y014444D01*
X016965Y014388D01*
X016888Y014339D01*
X016807Y014297D01*
X016723Y014263D01*
X016636Y014236D01*
X016547Y014218D01*
X016456Y014207D01*
X016365Y014205D01*
X016274Y014211D01*
X016185Y014226D01*
X016096Y014248D01*
X016011Y014279D01*
X015928Y014317D01*
X015849Y014363D01*
X015775Y014415D01*
X015705Y014474D01*
X015642Y014539D01*
X015584Y014610D01*
X015534Y014685D01*
X015490Y014765D01*
X015454Y014849D01*
X015425Y014935D01*
X015405Y015024D01*
X015392Y015114D01*
X015388Y015205D01*
X015338Y015305D02*
X015338Y013905D01*
X015388Y013855D01*
X015388Y013705D01*
X015386Y013685D01*
X015380Y013667D01*
X015371Y013649D01*
X015359Y013634D01*
X015344Y013622D01*
X015326Y013613D01*
X015308Y013607D01*
X015288Y013605D01*
X014688Y013605D01*
X014668Y013607D01*
X014650Y013613D01*
X014632Y013622D01*
X014617Y013634D01*
X014605Y013649D01*
X014596Y013667D01*
X014590Y013685D01*
X014588Y013705D01*
X014588Y013855D01*
X014638Y013905D01*
X014638Y015305D01*
X014588Y015355D01*
X014588Y015505D01*
X014590Y015525D01*
X014596Y015543D01*
X014605Y015561D01*
X014617Y015576D01*
X014632Y015588D01*
X014650Y015597D01*
X014668Y015603D01*
X014688Y015605D01*
X015288Y015605D01*
X015308Y015603D01*
X015326Y015597D01*
X015344Y015588D01*
X015359Y015576D01*
X015371Y015561D01*
X015380Y015543D01*
X015386Y015525D01*
X015388Y015505D01*
X015388Y015355D01*
X015338Y015305D01*
X011888Y014105D02*
X011892Y014196D01*
X011905Y014286D01*
X011925Y014375D01*
X011954Y014461D01*
X011990Y014545D01*
X012034Y014625D01*
X012084Y014700D01*
X012142Y014771D01*
X012205Y014836D01*
X012275Y014895D01*
X012349Y014947D01*
X012428Y014993D01*
X012511Y015031D01*
X012596Y015062D01*
X012685Y015084D01*
X012774Y015099D01*
X012865Y015105D01*
X012956Y015103D01*
X013047Y015092D01*
X013136Y015074D01*
X013223Y015047D01*
X013307Y015013D01*
X013388Y014971D01*
X013465Y014922D01*
X013537Y014866D01*
X013603Y014804D01*
X013664Y014736D01*
X013718Y014663D01*
X013765Y014585D01*
X013805Y014503D01*
X013838Y014418D01*
X013862Y014331D01*
X013879Y014241D01*
X013887Y014151D01*
X013887Y014059D01*
X013879Y013969D01*
X013862Y013879D01*
X013838Y013792D01*
X013805Y013707D01*
X013765Y013625D01*
X013718Y013547D01*
X013664Y013474D01*
X013603Y013406D01*
X013537Y013344D01*
X013465Y013288D01*
X013388Y013239D01*
X013307Y013197D01*
X013223Y013163D01*
X013136Y013136D01*
X013047Y013118D01*
X012956Y013107D01*
X012865Y013105D01*
X012774Y013111D01*
X012685Y013126D01*
X012596Y013148D01*
X012511Y013179D01*
X012428Y013217D01*
X012349Y013263D01*
X012275Y013315D01*
X012205Y013374D01*
X012142Y013439D01*
X012084Y013510D01*
X012034Y013585D01*
X011990Y013665D01*
X011954Y013749D01*
X011925Y013835D01*
X011905Y013924D01*
X011892Y014014D01*
X011888Y014105D01*
X011088Y014205D02*
X011088Y012605D01*
X011086Y012585D01*
X011080Y012567D01*
X011071Y012549D01*
X011059Y012534D01*
X011044Y012522D01*
X011026Y012513D01*
X011008Y012507D01*
X010988Y012505D01*
X010388Y012505D01*
X010368Y012507D01*
X010350Y012513D01*
X010332Y012522D01*
X010317Y012534D01*
X010305Y012549D01*
X010296Y012567D01*
X010290Y012585D01*
X010288Y012605D01*
X010288Y014205D01*
X010290Y014225D01*
X010296Y014243D01*
X010305Y014261D01*
X010317Y014276D01*
X010332Y014288D01*
X010350Y014297D01*
X010368Y014303D01*
X010388Y014305D01*
X010988Y014305D01*
X011008Y014303D01*
X011026Y014297D01*
X011044Y014288D01*
X011059Y014276D01*
X011071Y014261D01*
X011080Y014243D01*
X011086Y014225D01*
X011088Y014205D01*
X010688Y014005D02*
X010688Y013405D01*
X010938Y013405D01*
X010688Y013405D02*
X010688Y013155D01*
X010688Y013405D02*
X010438Y013405D01*
X010688Y013405D02*
X010438Y013805D01*
X010938Y013805D01*
X010688Y013405D01*
X011563Y013155D02*
X013213Y013155D01*
X013276Y012605D02*
X013433Y012605D01*
X012501Y012605D02*
X012276Y012605D01*
X011501Y012605D02*
X011343Y012605D01*
X009788Y012205D02*
X009588Y012205D01*
X009688Y012305D02*
X009688Y012105D01*
X007988Y011805D02*
X007992Y011896D01*
X008005Y011986D01*
X008025Y012075D01*
X008054Y012161D01*
X008090Y012245D01*
X008134Y012325D01*
X008184Y012400D01*
X008242Y012471D01*
X008305Y012536D01*
X008375Y012595D01*
X008449Y012647D01*
X008528Y012693D01*
X008611Y012731D01*
X008696Y012762D01*
X008785Y012784D01*
X008874Y012799D01*
X008965Y012805D01*
X009056Y012803D01*
X009147Y012792D01*
X009236Y012774D01*
X009323Y012747D01*
X009407Y012713D01*
X009488Y012671D01*
X009565Y012622D01*
X009637Y012566D01*
X009703Y012504D01*
X009764Y012436D01*
X009818Y012363D01*
X009865Y012285D01*
X009905Y012203D01*
X009938Y012118D01*
X009962Y012031D01*
X009979Y011941D01*
X009987Y011851D01*
X009987Y011759D01*
X009979Y011669D01*
X009962Y011579D01*
X009938Y011492D01*
X009905Y011407D01*
X009865Y011325D01*
X009818Y011247D01*
X009764Y011174D01*
X009703Y011106D01*
X009637Y011044D01*
X009565Y010988D01*
X009488Y010939D01*
X009407Y010897D01*
X009323Y010863D01*
X009236Y010836D01*
X009147Y010818D01*
X009056Y010807D01*
X008965Y010805D01*
X008874Y010811D01*
X008785Y010826D01*
X008696Y010848D01*
X008611Y010879D01*
X008528Y010917D01*
X008449Y010963D01*
X008375Y011015D01*
X008305Y011074D01*
X008242Y011139D01*
X008184Y011210D01*
X008134Y011285D01*
X008090Y011365D01*
X008054Y011449D01*
X008025Y011535D01*
X008005Y011624D01*
X007992Y011714D01*
X007988Y011805D01*
X006888Y010005D02*
X006891Y010078D01*
X006901Y010150D01*
X006918Y010221D01*
X006940Y010290D01*
X006969Y010357D01*
X007004Y010421D01*
X007045Y010481D01*
X007091Y010538D01*
X007142Y010590D01*
X007197Y010637D01*
X007257Y010679D01*
X007320Y010715D01*
X007386Y010746D01*
X007455Y010770D01*
X007525Y010788D01*
X007597Y010800D01*
X007670Y010805D01*
X007743Y010803D01*
X007815Y010795D01*
X007886Y010780D01*
X007956Y010759D01*
X008023Y010731D01*
X008088Y010698D01*
X008149Y010659D01*
X008207Y010614D01*
X008260Y010564D01*
X008309Y010510D01*
X008352Y010451D01*
X008390Y010389D01*
X008422Y010324D01*
X008448Y010256D01*
X008467Y010186D01*
X008481Y010114D01*
X008487Y010041D01*
X008487Y009969D01*
X008481Y009896D01*
X008467Y009824D01*
X008448Y009754D01*
X008422Y009686D01*
X008390Y009621D01*
X008352Y009559D01*
X008309Y009500D01*
X008260Y009446D01*
X008207Y009396D01*
X008149Y009351D01*
X008088Y009312D01*
X008023Y009279D01*
X007956Y009251D01*
X007886Y009230D01*
X007815Y009215D01*
X007743Y009207D01*
X007670Y009205D01*
X007597Y009210D01*
X007525Y009222D01*
X007455Y009240D01*
X007386Y009264D01*
X007320Y009295D01*
X007257Y009331D01*
X007197Y009373D01*
X007142Y009420D01*
X007091Y009472D01*
X007045Y009529D01*
X007004Y009589D01*
X006969Y009653D01*
X006940Y009720D01*
X006918Y009789D01*
X006901Y009860D01*
X006891Y009932D01*
X006888Y010005D01*
X007138Y009805D02*
X007138Y009605D01*
X007238Y009705D02*
X007038Y009705D01*
X008238Y008405D02*
X008238Y008205D01*
X008138Y008305D02*
X008338Y008305D01*
X006888Y008005D02*
X006891Y008078D01*
X006901Y008150D01*
X006918Y008221D01*
X006940Y008290D01*
X006969Y008357D01*
X007004Y008421D01*
X007045Y008481D01*
X007091Y008538D01*
X007142Y008590D01*
X007197Y008637D01*
X007257Y008679D01*
X007320Y008715D01*
X007386Y008746D01*
X007455Y008770D01*
X007525Y008788D01*
X007597Y008800D01*
X007670Y008805D01*
X007743Y008803D01*
X007815Y008795D01*
X007886Y008780D01*
X007956Y008759D01*
X008023Y008731D01*
X008088Y008698D01*
X008149Y008659D01*
X008207Y008614D01*
X008260Y008564D01*
X008309Y008510D01*
X008352Y008451D01*
X008390Y008389D01*
X008422Y008324D01*
X008448Y008256D01*
X008467Y008186D01*
X008481Y008114D01*
X008487Y008041D01*
X008487Y007969D01*
X008481Y007896D01*
X008467Y007824D01*
X008448Y007754D01*
X008422Y007686D01*
X008390Y007621D01*
X008352Y007559D01*
X008309Y007500D01*
X008260Y007446D01*
X008207Y007396D01*
X008149Y007351D01*
X008088Y007312D01*
X008023Y007279D01*
X007956Y007251D01*
X007886Y007230D01*
X007815Y007215D01*
X007743Y007207D01*
X007670Y007205D01*
X007597Y007210D01*
X007525Y007222D01*
X007455Y007240D01*
X007386Y007264D01*
X007320Y007295D01*
X007257Y007331D01*
X007197Y007373D01*
X007142Y007420D01*
X007091Y007472D01*
X007045Y007529D01*
X007004Y007589D01*
X006969Y007653D01*
X006940Y007720D01*
X006918Y007789D01*
X006901Y007860D01*
X006891Y007932D01*
X006888Y008005D01*
X008238Y006405D02*
X008238Y006205D01*
X008138Y006305D02*
X008338Y006305D01*
X006888Y006005D02*
X006891Y006078D01*
X006901Y006150D01*
X006918Y006221D01*
X006940Y006290D01*
X006969Y006357D01*
X007004Y006421D01*
X007045Y006481D01*
X007091Y006538D01*
X007142Y006590D01*
X007197Y006637D01*
X007257Y006679D01*
X007320Y006715D01*
X007386Y006746D01*
X007455Y006770D01*
X007525Y006788D01*
X007597Y006800D01*
X007670Y006805D01*
X007743Y006803D01*
X007815Y006795D01*
X007886Y006780D01*
X007956Y006759D01*
X008023Y006731D01*
X008088Y006698D01*
X008149Y006659D01*
X008207Y006614D01*
X008260Y006564D01*
X008309Y006510D01*
X008352Y006451D01*
X008390Y006389D01*
X008422Y006324D01*
X008448Y006256D01*
X008467Y006186D01*
X008481Y006114D01*
X008487Y006041D01*
X008487Y005969D01*
X008481Y005896D01*
X008467Y005824D01*
X008448Y005754D01*
X008422Y005686D01*
X008390Y005621D01*
X008352Y005559D01*
X008309Y005500D01*
X008260Y005446D01*
X008207Y005396D01*
X008149Y005351D01*
X008088Y005312D01*
X008023Y005279D01*
X007956Y005251D01*
X007886Y005230D01*
X007815Y005215D01*
X007743Y005207D01*
X007670Y005205D01*
X007597Y005210D01*
X007525Y005222D01*
X007455Y005240D01*
X007386Y005264D01*
X007320Y005295D01*
X007257Y005331D01*
X007197Y005373D01*
X007142Y005420D01*
X007091Y005472D01*
X007045Y005529D01*
X007004Y005589D01*
X006969Y005653D01*
X006940Y005720D01*
X006918Y005789D01*
X006901Y005860D01*
X006891Y005932D01*
X006888Y006005D01*
X012488Y014705D02*
X012488Y014905D01*
X012388Y014805D02*
X012588Y014805D01*
D12*
X012544Y016230D02*
X012469Y016305D01*
X012544Y016230D02*
X012694Y016230D01*
X012769Y016305D01*
X012769Y016380D01*
X012694Y016455D01*
X012544Y016455D01*
X012469Y016530D01*
X012469Y016605D01*
X012544Y016680D01*
X012694Y016680D01*
X012769Y016605D01*
X012930Y016605D02*
X013005Y016680D01*
X013005Y016230D01*
X012930Y016230D02*
X013080Y016230D01*
X015598Y016320D02*
X015899Y016320D01*
X016059Y016320D02*
X016359Y016320D01*
X016519Y016320D02*
X016744Y016320D01*
X016819Y016395D01*
X016819Y016695D01*
X016744Y016770D01*
X016519Y016770D01*
X016519Y016320D01*
X016209Y016545D02*
X016059Y016545D01*
X016059Y016770D02*
X016059Y016320D01*
X015598Y016320D02*
X015598Y016770D01*
X016059Y016770D02*
X016359Y016770D01*
X016979Y016695D02*
X017054Y016770D01*
X017054Y016320D01*
X016979Y016320D02*
X017130Y016320D01*
X015863Y013798D02*
X015863Y013571D01*
X015636Y013798D01*
X015580Y013798D01*
X015523Y013741D01*
X015523Y013627D01*
X015580Y013571D01*
X015580Y013439D02*
X015693Y013439D01*
X015750Y013382D01*
X015750Y013212D01*
X015750Y013325D02*
X015863Y013439D01*
X015863Y013212D02*
X015523Y013212D01*
X015523Y013382D01*
X015580Y013439D01*
X016923Y013187D02*
X017263Y013187D01*
X017263Y013131D02*
X017263Y013244D01*
X017263Y012998D02*
X017150Y012885D01*
X017150Y012942D02*
X017150Y012772D01*
X017263Y012772D02*
X016923Y012772D01*
X016923Y012942D01*
X016980Y012998D01*
X017093Y012998D01*
X017150Y012942D01*
X016980Y013131D02*
X016923Y013187D01*
X014130Y012980D02*
X013980Y012980D01*
X014055Y012980D02*
X014055Y013430D01*
X013980Y013355D01*
X013819Y013355D02*
X013744Y013430D01*
X013594Y013430D01*
X013519Y013355D01*
X013519Y013055D01*
X013594Y012980D01*
X013744Y012980D01*
X013819Y013055D01*
X013438Y011624D02*
X013513Y011549D01*
X013513Y011399D01*
X013438Y011324D01*
X013438Y011164D02*
X013513Y011089D01*
X013513Y010939D01*
X013438Y010864D01*
X013138Y010864D01*
X013063Y010939D01*
X013063Y011089D01*
X013138Y011164D01*
X013138Y011324D02*
X013063Y011399D01*
X013063Y011549D01*
X013138Y011624D01*
X013213Y011624D01*
X013288Y011549D01*
X013363Y011624D01*
X013438Y011624D01*
X013288Y011549D02*
X013288Y011474D01*
X013063Y010630D02*
X013063Y010480D01*
X013063Y010555D02*
X013513Y010555D01*
X013513Y010480D02*
X013513Y010630D01*
X010063Y012730D02*
X009613Y012730D01*
X009613Y012955D01*
X009688Y013030D01*
X009988Y013030D01*
X010063Y012955D01*
X010063Y012730D01*
X010063Y013190D02*
X010063Y013340D01*
X010063Y013265D02*
X009613Y013265D01*
X009688Y013190D01*
X009904Y013594D02*
X004156Y013594D01*
X004156Y017137D01*
X009904Y017137D01*
X009904Y013594D01*
X007763Y012290D02*
X007763Y011990D01*
X007463Y012290D01*
X007388Y012290D01*
X007313Y012215D01*
X007313Y012065D01*
X007388Y011990D01*
X007388Y011830D02*
X007313Y011755D01*
X007313Y011605D01*
X007388Y011530D01*
X007688Y011530D01*
X007763Y011605D01*
X007763Y011755D01*
X007688Y011830D01*
X006588Y010540D02*
X006513Y010540D01*
X006438Y010465D01*
X006438Y010240D01*
X006588Y010240D01*
X006663Y010315D01*
X006663Y010465D01*
X006588Y010540D01*
X006288Y010390D02*
X006438Y010240D01*
X006288Y010390D02*
X006213Y010540D01*
X006288Y010080D02*
X006213Y010005D01*
X006213Y009855D01*
X006288Y009780D01*
X006588Y009780D01*
X006663Y009855D01*
X006663Y010005D01*
X006588Y010080D01*
X004021Y009057D02*
X004021Y008907D01*
X003946Y008832D01*
X003796Y008832D02*
X003721Y008982D01*
X003721Y009057D01*
X003796Y009132D01*
X003946Y009132D01*
X004021Y009057D01*
X003796Y008832D02*
X003571Y008832D01*
X003571Y009132D01*
X006313Y008245D02*
X006313Y008095D01*
X006388Y008019D01*
X006388Y007859D02*
X006313Y007784D01*
X006313Y007634D01*
X006388Y007559D01*
X006688Y007559D01*
X006763Y007634D01*
X006763Y007784D01*
X006688Y007859D01*
X006688Y008019D02*
X006763Y008095D01*
X006763Y008245D01*
X006688Y008320D01*
X006613Y008320D01*
X006538Y008245D01*
X006538Y008170D01*
X006538Y008245D02*
X006463Y008320D01*
X006388Y008320D01*
X006313Y008245D01*
X006538Y006420D02*
X006538Y006119D01*
X006313Y006345D01*
X006763Y006345D01*
X006688Y005959D02*
X006763Y005884D01*
X006763Y005734D01*
X006688Y005659D01*
X006388Y005659D01*
X006313Y005734D01*
X006313Y005884D01*
X006388Y005959D01*
X004021Y004649D02*
X004021Y004499D01*
X004021Y004574D02*
X003571Y004574D01*
X003646Y004499D01*
X006313Y004140D02*
X006313Y003840D01*
X006538Y003840D01*
X006463Y003990D01*
X006463Y004065D01*
X006538Y004140D01*
X006688Y004140D01*
X006763Y004065D01*
X006763Y003915D01*
X006688Y003840D01*
X006688Y003680D02*
X006763Y003605D01*
X006763Y003455D01*
X006688Y003380D01*
X006388Y003380D01*
X006313Y003455D01*
X006313Y003605D01*
X006388Y003680D01*
X010463Y004080D02*
X010613Y004080D01*
X010538Y004080D02*
X010538Y004530D01*
X010463Y004530D02*
X010613Y004530D01*
X010847Y004455D02*
X010847Y004155D01*
X010922Y004080D01*
X011072Y004080D01*
X011147Y004155D01*
X011307Y004080D02*
X011607Y004380D01*
X011607Y004455D01*
X011532Y004530D01*
X011382Y004530D01*
X011307Y004455D01*
X011147Y004455D02*
X011072Y004530D01*
X010922Y004530D01*
X010847Y004455D01*
X011307Y004080D02*
X011607Y004080D01*
D13*
X002691Y003359D02*
X002641Y003359D01*
X002642Y003360D02*
X002639Y003388D01*
X002633Y003416D01*
X002624Y003443D01*
X002611Y003469D01*
X002595Y003493D01*
X002576Y003514D01*
X002555Y003533D01*
X002531Y003549D01*
X002505Y003562D01*
X002478Y003571D01*
X002450Y003577D01*
X002422Y003580D01*
X002421Y003629D01*
X002422Y003630D01*
X002454Y003627D01*
X002486Y003621D01*
X002517Y003611D01*
X002546Y003598D01*
X002574Y003581D01*
X002600Y003561D01*
X002623Y003538D01*
X002643Y003512D01*
X002660Y003484D01*
X002673Y003455D01*
X002683Y003424D01*
X002689Y003392D01*
X002692Y003360D01*
X002683Y003360D01*
X002681Y003391D01*
X002674Y003422D01*
X002665Y003452D01*
X002652Y003480D01*
X002635Y003507D01*
X002616Y003532D01*
X002594Y003554D01*
X002569Y003573D01*
X002542Y003590D01*
X002514Y003603D01*
X002484Y003612D01*
X002453Y003619D01*
X002422Y003621D01*
X002422Y003612D01*
X002452Y003610D01*
X002482Y003604D01*
X002511Y003594D01*
X002538Y003582D01*
X002564Y003566D01*
X002588Y003547D01*
X002609Y003526D01*
X002628Y003502D01*
X002644Y003476D01*
X002656Y003449D01*
X002666Y003420D01*
X002672Y003390D01*
X002674Y003360D01*
X002665Y003360D01*
X002662Y003391D01*
X002656Y003422D01*
X002645Y003452D01*
X002631Y003480D01*
X002613Y003507D01*
X002592Y003530D01*
X002569Y003551D01*
X002542Y003569D01*
X002514Y003583D01*
X002484Y003594D01*
X002453Y003600D01*
X002422Y003603D01*
X002422Y003594D01*
X002452Y003591D01*
X002482Y003585D01*
X002511Y003575D01*
X002538Y003561D01*
X002563Y003544D01*
X002586Y003524D01*
X002606Y003501D01*
X002623Y003476D01*
X002637Y003449D01*
X002647Y003420D01*
X002653Y003390D01*
X002656Y003360D01*
X002647Y003360D01*
X002644Y003389D01*
X002638Y003418D01*
X002629Y003445D01*
X002615Y003471D01*
X002599Y003496D01*
X002580Y003518D01*
X002558Y003537D01*
X002533Y003553D01*
X002507Y003567D01*
X002480Y003576D01*
X002451Y003582D01*
X002422Y003585D01*
X002421Y009980D02*
X002421Y010030D01*
X002422Y010030D02*
X002450Y010033D01*
X002478Y010039D01*
X002505Y010048D01*
X002531Y010061D01*
X002555Y010077D01*
X002576Y010096D01*
X002595Y010117D01*
X002611Y010141D01*
X002624Y010167D01*
X002633Y010194D01*
X002639Y010222D01*
X002642Y010250D01*
X002691Y010250D01*
X002692Y010250D01*
X002689Y010218D01*
X002683Y010186D01*
X002673Y010155D01*
X002660Y010126D01*
X002643Y010098D01*
X002623Y010072D01*
X002600Y010049D01*
X002574Y010029D01*
X002546Y010012D01*
X002517Y009999D01*
X002486Y009989D01*
X002454Y009983D01*
X002422Y009980D01*
X002422Y009989D01*
X002453Y009991D01*
X002484Y009998D01*
X002514Y010007D01*
X002542Y010020D01*
X002569Y010037D01*
X002594Y010056D01*
X002616Y010078D01*
X002635Y010103D01*
X002652Y010130D01*
X002665Y010158D01*
X002674Y010188D01*
X002681Y010219D01*
X002683Y010250D01*
X002674Y010250D01*
X002672Y010220D01*
X002666Y010190D01*
X002656Y010161D01*
X002644Y010134D01*
X002628Y010108D01*
X002609Y010084D01*
X002588Y010063D01*
X002564Y010044D01*
X002538Y010028D01*
X002511Y010016D01*
X002482Y010006D01*
X002452Y010000D01*
X002422Y009998D01*
X002422Y010007D01*
X002453Y010010D01*
X002484Y010016D01*
X002514Y010027D01*
X002542Y010041D01*
X002569Y010059D01*
X002592Y010080D01*
X002613Y010103D01*
X002631Y010130D01*
X002645Y010158D01*
X002656Y010188D01*
X002662Y010219D01*
X002665Y010250D01*
X002656Y010250D01*
X002653Y010220D01*
X002647Y010190D01*
X002637Y010161D01*
X002623Y010134D01*
X002606Y010109D01*
X002586Y010086D01*
X002563Y010066D01*
X002538Y010049D01*
X002511Y010035D01*
X002482Y010025D01*
X002452Y010019D01*
X002422Y010016D01*
X002422Y010025D01*
X002451Y010028D01*
X002480Y010034D01*
X002507Y010043D01*
X002533Y010057D01*
X002558Y010073D01*
X002580Y010092D01*
X002599Y010114D01*
X002615Y010139D01*
X002629Y010165D01*
X002638Y010192D01*
X002644Y010221D01*
X002647Y010250D01*
X011540Y013166D02*
X011579Y013135D01*
X011580Y013136D02*
X011542Y013084D01*
X011508Y013030D01*
X011477Y012975D01*
X011449Y012917D01*
X011426Y012858D01*
X011406Y012797D01*
X011389Y012736D01*
X011377Y012673D01*
X011368Y012610D01*
X011364Y012546D01*
X011363Y012483D01*
X011367Y012419D01*
X011374Y012356D01*
X011385Y012293D01*
X011400Y012231D01*
X011419Y012170D01*
X011442Y012110D01*
X011468Y012052D01*
X011498Y011996D01*
X011532Y011942D01*
X011568Y011889D01*
X011608Y011840D01*
X011651Y011792D01*
X011697Y011748D01*
X011745Y011706D01*
X011796Y011668D01*
X011850Y011633D01*
X011905Y011601D01*
X011962Y011573D01*
X012021Y011548D01*
X012081Y011527D01*
X012066Y011479D01*
X012005Y011501D01*
X011945Y011525D01*
X011887Y011554D01*
X011831Y011586D01*
X011776Y011621D01*
X011724Y011660D01*
X011674Y011701D01*
X011627Y011746D01*
X011583Y011793D01*
X011541Y011843D01*
X011503Y011895D01*
X011468Y011949D01*
X011436Y012006D01*
X011408Y012064D01*
X011383Y012124D01*
X011362Y012185D01*
X011344Y012248D01*
X011331Y012311D01*
X011321Y012375D01*
X011315Y012440D01*
X011313Y012505D01*
X011315Y012569D01*
X011321Y012634D01*
X011330Y012698D01*
X011344Y012761D01*
X011361Y012824D01*
X011382Y012885D01*
X011407Y012945D01*
X011435Y013003D01*
X011467Y013060D01*
X011502Y013114D01*
X011541Y013167D01*
X011548Y013161D01*
X011510Y013109D01*
X011475Y013055D01*
X011443Y012999D01*
X011415Y012941D01*
X011391Y012882D01*
X011370Y012821D01*
X011353Y012759D01*
X011339Y012696D01*
X011330Y012633D01*
X011324Y012569D01*
X011322Y012505D01*
X011324Y012440D01*
X011330Y012376D01*
X011339Y012313D01*
X011353Y012250D01*
X011370Y012188D01*
X011391Y012127D01*
X011416Y012068D01*
X011444Y012010D01*
X011475Y011954D01*
X011510Y011900D01*
X011548Y011848D01*
X011589Y011799D01*
X011633Y011752D01*
X011680Y011708D01*
X011730Y011667D01*
X011781Y011629D01*
X011835Y011594D01*
X011891Y011562D01*
X011949Y011534D01*
X012008Y011509D01*
X012069Y011488D01*
X012072Y011496D01*
X012011Y011517D01*
X011953Y011542D01*
X011895Y011570D01*
X011840Y011601D01*
X011786Y011636D01*
X011735Y011674D01*
X011686Y011715D01*
X011640Y011758D01*
X011596Y011805D01*
X011555Y011854D01*
X011518Y011905D01*
X011483Y011959D01*
X011452Y012014D01*
X011424Y012072D01*
X011400Y012130D01*
X011379Y012191D01*
X011362Y012252D01*
X011348Y012314D01*
X011339Y012377D01*
X011333Y012441D01*
X011331Y012505D01*
X011333Y012568D01*
X011339Y012632D01*
X011348Y012695D01*
X011361Y012757D01*
X011379Y012818D01*
X011399Y012879D01*
X011424Y012938D01*
X011451Y012995D01*
X011483Y013050D01*
X011517Y013104D01*
X011555Y013155D01*
X011562Y013150D01*
X011525Y013099D01*
X011490Y013046D01*
X011459Y012991D01*
X011432Y012934D01*
X011408Y012875D01*
X011387Y012816D01*
X011370Y012755D01*
X011357Y012693D01*
X011348Y012631D01*
X011342Y012568D01*
X011340Y012505D01*
X011342Y012441D01*
X011348Y012378D01*
X011357Y012316D01*
X011370Y012254D01*
X011387Y012193D01*
X011408Y012134D01*
X011432Y012075D01*
X011460Y012018D01*
X011491Y011963D01*
X011525Y011910D01*
X011562Y011859D01*
X011603Y011811D01*
X011646Y011765D01*
X011692Y011721D01*
X011741Y011681D01*
X011791Y011643D01*
X011844Y011609D01*
X011899Y011578D01*
X011956Y011550D01*
X012015Y011526D01*
X012074Y011505D01*
X012077Y011514D01*
X012018Y011534D01*
X011960Y011558D01*
X011904Y011586D01*
X011849Y011617D01*
X011797Y011651D01*
X011746Y011688D01*
X011698Y011728D01*
X011653Y011771D01*
X011610Y011817D01*
X011570Y011865D01*
X011532Y011915D01*
X011499Y011968D01*
X011468Y012023D01*
X011440Y012079D01*
X011416Y012137D01*
X011396Y012196D01*
X011379Y012256D01*
X011366Y012318D01*
X011357Y012380D01*
X011351Y012442D01*
X011349Y012505D01*
X011351Y012567D01*
X011356Y012629D01*
X011366Y012691D01*
X011379Y012753D01*
X011396Y012813D01*
X011416Y012872D01*
X011440Y012930D01*
X011467Y012987D01*
X011498Y013041D01*
X011532Y013094D01*
X011569Y013144D01*
X011576Y013139D01*
X011538Y013087D01*
X011504Y013033D01*
X011473Y012977D01*
X011445Y012919D01*
X011421Y012860D01*
X011401Y012799D01*
X011384Y012737D01*
X011372Y012674D01*
X011363Y012610D01*
X011359Y012547D01*
X011358Y012482D01*
X011362Y012418D01*
X011369Y012355D01*
X011380Y012292D01*
X011396Y012229D01*
X011415Y012168D01*
X011437Y012108D01*
X011464Y012050D01*
X011494Y011993D01*
X011528Y011939D01*
X011564Y011886D01*
X011605Y011836D01*
X011648Y011789D01*
X011694Y011744D01*
X011742Y011703D01*
X011793Y011664D01*
X011847Y011629D01*
X011902Y011597D01*
X011960Y011568D01*
X012019Y011543D01*
X012080Y011522D01*
X012709Y011479D02*
X012695Y011527D01*
X012755Y011548D01*
X012814Y011573D01*
X012871Y011601D01*
X012926Y011633D01*
X012980Y011668D01*
X013031Y011706D01*
X013079Y011748D01*
X013125Y011792D01*
X013168Y011840D01*
X013208Y011889D01*
X013244Y011942D01*
X013278Y011996D01*
X013308Y012052D01*
X013334Y012110D01*
X013357Y012170D01*
X013376Y012231D01*
X013391Y012293D01*
X013402Y012356D01*
X013409Y012419D01*
X013413Y012483D01*
X013412Y012546D01*
X013408Y012610D01*
X013399Y012673D01*
X013387Y012736D01*
X013370Y012797D01*
X013350Y012858D01*
X013327Y012917D01*
X013299Y012975D01*
X013268Y013030D01*
X013234Y013084D01*
X013196Y013136D01*
X013235Y013166D01*
X013235Y013167D01*
X013274Y013114D01*
X013309Y013060D01*
X013341Y013003D01*
X013369Y012945D01*
X013394Y012885D01*
X013415Y012824D01*
X013432Y012761D01*
X013446Y012698D01*
X013455Y012634D01*
X013461Y012569D01*
X013463Y012505D01*
X013461Y012440D01*
X013455Y012375D01*
X013445Y012311D01*
X013432Y012248D01*
X013414Y012185D01*
X013393Y012124D01*
X013368Y012064D01*
X013340Y012006D01*
X013308Y011949D01*
X013273Y011895D01*
X013235Y011843D01*
X013193Y011793D01*
X013149Y011746D01*
X013102Y011701D01*
X013052Y011660D01*
X013000Y011621D01*
X012945Y011586D01*
X012889Y011554D01*
X012831Y011525D01*
X012771Y011501D01*
X012710Y011479D01*
X012707Y011488D01*
X012768Y011509D01*
X012827Y011534D01*
X012885Y011562D01*
X012941Y011594D01*
X012995Y011629D01*
X013046Y011667D01*
X013096Y011708D01*
X013143Y011752D01*
X013187Y011799D01*
X013228Y011848D01*
X013266Y011900D01*
X013301Y011954D01*
X013332Y012010D01*
X013360Y012068D01*
X013385Y012127D01*
X013406Y012188D01*
X013423Y012250D01*
X013437Y012313D01*
X013446Y012376D01*
X013452Y012440D01*
X013454Y012505D01*
X013452Y012569D01*
X013446Y012633D01*
X013437Y012696D01*
X013423Y012759D01*
X013406Y012821D01*
X013385Y012882D01*
X013361Y012941D01*
X013333Y012999D01*
X013301Y013055D01*
X013266Y013109D01*
X013228Y013161D01*
X013221Y013155D01*
X013259Y013104D01*
X013293Y013050D01*
X013325Y012995D01*
X013352Y012938D01*
X013377Y012879D01*
X013397Y012818D01*
X013415Y012757D01*
X013428Y012695D01*
X013437Y012632D01*
X013443Y012568D01*
X013445Y012505D01*
X013443Y012441D01*
X013437Y012377D01*
X013428Y012314D01*
X013414Y012252D01*
X013397Y012191D01*
X013376Y012130D01*
X013352Y012072D01*
X013324Y012014D01*
X013293Y011959D01*
X013258Y011905D01*
X013221Y011854D01*
X013180Y011805D01*
X013136Y011758D01*
X013090Y011715D01*
X013041Y011674D01*
X012990Y011636D01*
X012936Y011601D01*
X012881Y011570D01*
X012823Y011542D01*
X012765Y011517D01*
X012704Y011496D01*
X012702Y011505D01*
X012761Y011526D01*
X012820Y011550D01*
X012877Y011578D01*
X012932Y011609D01*
X012985Y011643D01*
X013035Y011681D01*
X013084Y011721D01*
X013130Y011765D01*
X013173Y011811D01*
X013214Y011859D01*
X013251Y011910D01*
X013285Y011963D01*
X013316Y012018D01*
X013344Y012075D01*
X013368Y012134D01*
X013389Y012193D01*
X013406Y012254D01*
X013419Y012316D01*
X013428Y012378D01*
X013434Y012441D01*
X013436Y012505D01*
X013434Y012568D01*
X013428Y012631D01*
X013419Y012693D01*
X013406Y012755D01*
X013389Y012816D01*
X013368Y012875D01*
X013344Y012934D01*
X013317Y012991D01*
X013286Y013046D01*
X013251Y013099D01*
X013214Y013150D01*
X013207Y013144D01*
X013244Y013094D01*
X013278Y013041D01*
X013309Y012987D01*
X013336Y012930D01*
X013360Y012872D01*
X013380Y012813D01*
X013397Y012753D01*
X013410Y012691D01*
X013420Y012629D01*
X013425Y012567D01*
X013427Y012505D01*
X013425Y012442D01*
X013419Y012380D01*
X013410Y012318D01*
X013397Y012256D01*
X013380Y012196D01*
X013360Y012137D01*
X013336Y012079D01*
X013308Y012023D01*
X013277Y011968D01*
X013244Y011915D01*
X013206Y011865D01*
X013166Y011817D01*
X013123Y011771D01*
X013078Y011728D01*
X013030Y011688D01*
X012979Y011651D01*
X012927Y011617D01*
X012872Y011586D01*
X012816Y011558D01*
X012758Y011534D01*
X012699Y011514D01*
X012696Y011522D01*
X012757Y011543D01*
X012816Y011568D01*
X012874Y011597D01*
X012929Y011629D01*
X012983Y011664D01*
X013034Y011703D01*
X013082Y011744D01*
X013128Y011789D01*
X013171Y011836D01*
X013212Y011886D01*
X013248Y011939D01*
X013282Y011993D01*
X013312Y012050D01*
X013339Y012108D01*
X013361Y012168D01*
X013380Y012229D01*
X013396Y012292D01*
X013407Y012355D01*
X013414Y012418D01*
X013418Y012482D01*
X013417Y012547D01*
X013413Y012610D01*
X013404Y012674D01*
X013392Y012737D01*
X013375Y012799D01*
X013355Y012860D01*
X013331Y012919D01*
X013303Y012977D01*
X013272Y013033D01*
X013238Y013087D01*
X013200Y013139D01*
X015607Y016237D02*
X015661Y016165D01*
X015661Y016166D02*
X015593Y016111D01*
X015530Y016051D01*
X015471Y015987D01*
X015417Y015919D01*
X015368Y015847D01*
X015324Y015771D01*
X015286Y015693D01*
X015254Y015612D01*
X015227Y015529D01*
X015207Y015445D01*
X015193Y015359D01*
X015185Y015272D01*
X015183Y015185D01*
X015188Y015098D01*
X015199Y015012D01*
X015216Y014926D01*
X015239Y014842D01*
X015268Y014760D01*
X015303Y014681D01*
X015344Y014604D01*
X015390Y014530D01*
X015441Y014459D01*
X015498Y014393D01*
X015559Y014331D01*
X015624Y014273D01*
X015693Y014220D01*
X015766Y014173D01*
X015842Y014131D01*
X015921Y014094D01*
X016003Y014063D01*
X016086Y014038D01*
X016171Y014020D01*
X016258Y014007D01*
X016344Y014001D01*
X016432Y014001D01*
X016518Y014007D01*
X016605Y014020D01*
X016690Y014038D01*
X016773Y014063D01*
X016855Y014094D01*
X016934Y014131D01*
X017010Y014173D01*
X017083Y014220D01*
X017152Y014273D01*
X017217Y014331D01*
X017278Y014393D01*
X017335Y014459D01*
X017386Y014530D01*
X017432Y014604D01*
X017473Y014681D01*
X017508Y014760D01*
X017537Y014842D01*
X017560Y014926D01*
X017577Y015012D01*
X017588Y015098D01*
X017593Y015185D01*
X017591Y015272D01*
X017583Y015359D01*
X017569Y015445D01*
X017549Y015529D01*
X017522Y015612D01*
X017490Y015693D01*
X017452Y015771D01*
X017408Y015847D01*
X017359Y015919D01*
X017305Y015987D01*
X017246Y016051D01*
X017183Y016111D01*
X017115Y016166D01*
X017168Y016237D01*
X017169Y016238D01*
X017242Y016179D01*
X017310Y016115D01*
X017373Y016046D01*
X017431Y015972D01*
X017484Y015895D01*
X017531Y015814D01*
X017572Y015730D01*
X017607Y015643D01*
X017635Y015554D01*
X017657Y015463D01*
X017672Y015371D01*
X017681Y015277D01*
X017683Y015184D01*
X017678Y015090D01*
X017666Y014997D01*
X017648Y014906D01*
X017623Y014815D01*
X017592Y014727D01*
X017554Y014641D01*
X017510Y014559D01*
X017461Y014479D01*
X017405Y014404D01*
X017345Y014332D01*
X017279Y014266D01*
X017209Y014204D01*
X017135Y014147D01*
X017056Y014096D01*
X016974Y014050D01*
X016889Y014011D01*
X016802Y013978D01*
X016712Y013951D01*
X016621Y013931D01*
X016528Y013918D01*
X016435Y013911D01*
X016341Y013911D01*
X016248Y013918D01*
X016155Y013931D01*
X016064Y013951D01*
X015974Y013978D01*
X015887Y014011D01*
X015802Y014050D01*
X015720Y014096D01*
X015641Y014147D01*
X015567Y014204D01*
X015497Y014266D01*
X015431Y014332D01*
X015371Y014404D01*
X015315Y014479D01*
X015266Y014559D01*
X015222Y014641D01*
X015184Y014727D01*
X015153Y014815D01*
X015128Y014906D01*
X015110Y014997D01*
X015098Y015090D01*
X015093Y015184D01*
X015095Y015277D01*
X015104Y015371D01*
X015119Y015463D01*
X015141Y015554D01*
X015169Y015643D01*
X015204Y015730D01*
X015245Y015814D01*
X015292Y015895D01*
X015345Y015972D01*
X015403Y016046D01*
X015466Y016115D01*
X015534Y016179D01*
X015607Y016238D01*
X015612Y016231D01*
X015540Y016172D01*
X015473Y016108D01*
X015410Y016040D01*
X015352Y015967D01*
X015300Y015890D01*
X015253Y015810D01*
X015212Y015726D01*
X015178Y015640D01*
X015150Y015551D01*
X015128Y015461D01*
X015113Y015369D01*
X015104Y015277D01*
X015102Y015184D01*
X015107Y015091D01*
X015119Y014999D01*
X015137Y014908D01*
X015162Y014818D01*
X015193Y014730D01*
X015230Y014645D01*
X015274Y014563D01*
X015323Y014484D01*
X015378Y014409D01*
X015438Y014338D01*
X015503Y014272D01*
X015573Y014211D01*
X015647Y014154D01*
X015724Y014103D01*
X015806Y014058D01*
X015890Y014019D01*
X015977Y013986D01*
X016066Y013960D01*
X016157Y013940D01*
X016249Y013927D01*
X016342Y013920D01*
X016434Y013920D01*
X016527Y013927D01*
X016619Y013940D01*
X016710Y013960D01*
X016799Y013986D01*
X016886Y014019D01*
X016970Y014058D01*
X017052Y014103D01*
X017129Y014154D01*
X017203Y014211D01*
X017273Y014272D01*
X017338Y014338D01*
X017398Y014409D01*
X017453Y014484D01*
X017502Y014563D01*
X017546Y014645D01*
X017583Y014730D01*
X017614Y014818D01*
X017639Y014908D01*
X017657Y014999D01*
X017669Y015091D01*
X017674Y015184D01*
X017672Y015277D01*
X017663Y015369D01*
X017648Y015461D01*
X017626Y015551D01*
X017598Y015640D01*
X017564Y015726D01*
X017523Y015810D01*
X017476Y015890D01*
X017424Y015967D01*
X017366Y016040D01*
X017303Y016108D01*
X017236Y016172D01*
X017164Y016231D01*
X017158Y016224D01*
X017230Y016165D01*
X017297Y016102D01*
X017359Y016034D01*
X017417Y015962D01*
X017469Y015885D01*
X017515Y015806D01*
X017555Y015723D01*
X017590Y015637D01*
X017618Y015549D01*
X017639Y015459D01*
X017655Y015368D01*
X017663Y015276D01*
X017665Y015184D01*
X017660Y015092D01*
X017648Y015000D01*
X017630Y014910D01*
X017606Y014821D01*
X017575Y014734D01*
X017538Y014649D01*
X017495Y014568D01*
X017446Y014489D01*
X017391Y014415D01*
X017332Y014344D01*
X017267Y014279D01*
X017198Y014218D01*
X017124Y014162D01*
X017047Y014111D01*
X016966Y014066D01*
X016882Y014028D01*
X016796Y013995D01*
X016708Y013969D01*
X016618Y013949D01*
X016526Y013936D01*
X016434Y013929D01*
X016342Y013929D01*
X016250Y013936D01*
X016158Y013949D01*
X016068Y013969D01*
X015980Y013995D01*
X015894Y014028D01*
X015810Y014066D01*
X015729Y014111D01*
X015652Y014162D01*
X015578Y014218D01*
X015509Y014279D01*
X015444Y014344D01*
X015385Y014415D01*
X015330Y014489D01*
X015281Y014568D01*
X015238Y014649D01*
X015201Y014734D01*
X015170Y014821D01*
X015146Y014910D01*
X015128Y015000D01*
X015116Y015092D01*
X015111Y015184D01*
X015113Y015276D01*
X015121Y015368D01*
X015137Y015459D01*
X015158Y015549D01*
X015186Y015637D01*
X015221Y015723D01*
X015261Y015806D01*
X015307Y015885D01*
X015359Y015962D01*
X015417Y016034D01*
X015479Y016102D01*
X015546Y016165D01*
X015618Y016224D01*
X015623Y016216D01*
X015552Y016159D01*
X015485Y016096D01*
X015423Y016028D01*
X015367Y015956D01*
X015315Y015881D01*
X015269Y015801D01*
X015229Y015719D01*
X015195Y015634D01*
X015167Y015547D01*
X015145Y015457D01*
X015130Y015367D01*
X015122Y015276D01*
X015120Y015184D01*
X015125Y015093D01*
X015136Y015002D01*
X015154Y014912D01*
X015179Y014823D01*
X015209Y014737D01*
X015246Y014653D01*
X015289Y014572D01*
X015338Y014494D01*
X015392Y014420D01*
X015451Y014351D01*
X015515Y014285D01*
X015584Y014224D01*
X015657Y014169D01*
X015734Y014119D01*
X015814Y014074D01*
X015897Y014036D01*
X015983Y014004D01*
X016071Y013977D01*
X016160Y013958D01*
X016251Y013944D01*
X016342Y013938D01*
X016434Y013938D01*
X016525Y013944D01*
X016616Y013958D01*
X016705Y013977D01*
X016793Y014004D01*
X016879Y014036D01*
X016962Y014074D01*
X017042Y014119D01*
X017119Y014169D01*
X017192Y014224D01*
X017261Y014285D01*
X017325Y014351D01*
X017384Y014420D01*
X017438Y014494D01*
X017487Y014572D01*
X017530Y014653D01*
X017567Y014737D01*
X017597Y014823D01*
X017622Y014912D01*
X017640Y015002D01*
X017651Y015093D01*
X017656Y015184D01*
X017654Y015276D01*
X017646Y015367D01*
X017631Y015457D01*
X017609Y015547D01*
X017581Y015634D01*
X017547Y015719D01*
X017507Y015801D01*
X017461Y015881D01*
X017409Y015956D01*
X017353Y016028D01*
X017291Y016096D01*
X017224Y016159D01*
X017153Y016216D01*
X017147Y016209D01*
X017218Y016152D01*
X017284Y016089D01*
X017346Y016022D01*
X017402Y015951D01*
X017453Y015876D01*
X017499Y015797D01*
X017539Y015715D01*
X017573Y015631D01*
X017600Y015544D01*
X017622Y015456D01*
X017637Y015366D01*
X017645Y015275D01*
X017647Y015184D01*
X017642Y015093D01*
X017631Y015003D01*
X017613Y014914D01*
X017589Y014826D01*
X017558Y014740D01*
X017522Y014657D01*
X017479Y014577D01*
X017431Y014499D01*
X017377Y014426D01*
X017318Y014357D01*
X017255Y014292D01*
X017186Y014231D01*
X017114Y014176D01*
X017038Y014127D01*
X016958Y014082D01*
X016876Y014044D01*
X016790Y014012D01*
X016703Y013986D01*
X016614Y013967D01*
X016524Y013953D01*
X016433Y013947D01*
X016343Y013947D01*
X016252Y013953D01*
X016162Y013967D01*
X016073Y013986D01*
X015986Y014012D01*
X015900Y014044D01*
X015818Y014082D01*
X015738Y014127D01*
X015662Y014176D01*
X015590Y014231D01*
X015521Y014292D01*
X015458Y014357D01*
X015399Y014426D01*
X015345Y014499D01*
X015297Y014577D01*
X015254Y014657D01*
X015218Y014740D01*
X015187Y014826D01*
X015163Y014914D01*
X015145Y015003D01*
X015134Y015093D01*
X015129Y015184D01*
X015131Y015275D01*
X015139Y015366D01*
X015154Y015456D01*
X015176Y015544D01*
X015203Y015631D01*
X015237Y015715D01*
X015277Y015797D01*
X015323Y015876D01*
X015374Y015951D01*
X015430Y016022D01*
X015492Y016089D01*
X015558Y016152D01*
X015629Y016209D01*
X015634Y016202D01*
X015564Y016145D01*
X015498Y016083D01*
X015437Y016016D01*
X015381Y015946D01*
X015330Y015871D01*
X015285Y015793D01*
X015245Y015712D01*
X015212Y015628D01*
X015184Y015542D01*
X015163Y015454D01*
X015148Y015365D01*
X015140Y015275D01*
X015138Y015184D01*
X015143Y015094D01*
X015154Y015005D01*
X015172Y014916D01*
X015196Y014829D01*
X015226Y014744D01*
X015263Y014661D01*
X015305Y014581D01*
X015353Y014505D01*
X015406Y014432D01*
X015464Y014363D01*
X015528Y014298D01*
X015595Y014238D01*
X015667Y014184D01*
X015743Y014134D01*
X015822Y014090D01*
X015904Y014053D01*
X015988Y014021D01*
X016075Y013995D01*
X016163Y013975D01*
X016253Y013962D01*
X016343Y013956D01*
X016433Y013956D01*
X016523Y013962D01*
X016613Y013975D01*
X016701Y013995D01*
X016788Y014021D01*
X016872Y014053D01*
X016954Y014090D01*
X017033Y014134D01*
X017109Y014184D01*
X017181Y014238D01*
X017248Y014298D01*
X017312Y014363D01*
X017370Y014432D01*
X017423Y014505D01*
X017471Y014581D01*
X017513Y014661D01*
X017550Y014744D01*
X017580Y014829D01*
X017604Y014916D01*
X017622Y015005D01*
X017633Y015094D01*
X017638Y015184D01*
X017636Y015275D01*
X017628Y015365D01*
X017613Y015454D01*
X017592Y015542D01*
X017564Y015628D01*
X017531Y015712D01*
X017491Y015793D01*
X017446Y015871D01*
X017395Y015946D01*
X017339Y016016D01*
X017278Y016083D01*
X017212Y016145D01*
X017142Y016202D01*
X017137Y016195D01*
X017206Y016138D01*
X017271Y016077D01*
X017332Y016011D01*
X017388Y015940D01*
X017438Y015866D01*
X017483Y015789D01*
X017523Y015708D01*
X017556Y015625D01*
X017583Y015539D01*
X017604Y015452D01*
X017619Y015363D01*
X017627Y015274D01*
X017629Y015184D01*
X017624Y015095D01*
X017613Y015006D01*
X017595Y014918D01*
X017571Y014832D01*
X017541Y014747D01*
X017505Y014665D01*
X017463Y014586D01*
X017416Y014510D01*
X017363Y014437D01*
X017305Y014369D01*
X017242Y014305D01*
X017175Y014245D01*
X017103Y014191D01*
X017028Y014142D01*
X016950Y014099D01*
X016869Y014061D01*
X016785Y014029D01*
X016699Y014004D01*
X016611Y013984D01*
X016522Y013971D01*
X016433Y013965D01*
X016343Y013965D01*
X016254Y013971D01*
X016165Y013984D01*
X016077Y014004D01*
X015991Y014029D01*
X015907Y014061D01*
X015826Y014099D01*
X015748Y014142D01*
X015673Y014191D01*
X015601Y014245D01*
X015534Y014305D01*
X015471Y014369D01*
X015413Y014437D01*
X015360Y014510D01*
X015313Y014586D01*
X015271Y014665D01*
X015235Y014747D01*
X015205Y014832D01*
X015181Y014918D01*
X015163Y015006D01*
X015152Y015095D01*
X015147Y015184D01*
X015149Y015274D01*
X015157Y015363D01*
X015172Y015452D01*
X015193Y015539D01*
X015220Y015625D01*
X015253Y015708D01*
X015293Y015789D01*
X015338Y015866D01*
X015388Y015940D01*
X015444Y016011D01*
X015505Y016077D01*
X015570Y016138D01*
X015639Y016195D01*
X015645Y016188D01*
X015576Y016131D01*
X015511Y016070D01*
X015451Y016005D01*
X015395Y015935D01*
X015345Y015861D01*
X015301Y015784D01*
X015262Y015704D01*
X015229Y015622D01*
X015201Y015537D01*
X015181Y015450D01*
X015166Y015362D01*
X015158Y015274D01*
X015156Y015185D01*
X015161Y015096D01*
X015172Y015007D01*
X015189Y014920D01*
X015213Y014834D01*
X015243Y014750D01*
X015279Y014669D01*
X015320Y014590D01*
X015368Y014515D01*
X015420Y014443D01*
X015478Y014375D01*
X015540Y014311D01*
X015607Y014252D01*
X015678Y014198D01*
X015752Y014150D01*
X015830Y014107D01*
X015911Y014069D01*
X015994Y014038D01*
X016080Y014012D01*
X016167Y013993D01*
X016255Y013980D01*
X016343Y013974D01*
X016433Y013974D01*
X016521Y013980D01*
X016609Y013993D01*
X016696Y014012D01*
X016782Y014038D01*
X016865Y014069D01*
X016946Y014107D01*
X017024Y014150D01*
X017098Y014198D01*
X017169Y014252D01*
X017236Y014311D01*
X017298Y014375D01*
X017356Y014443D01*
X017408Y014515D01*
X017456Y014590D01*
X017497Y014669D01*
X017533Y014750D01*
X017563Y014834D01*
X017587Y014920D01*
X017604Y015007D01*
X017615Y015096D01*
X017620Y015185D01*
X017618Y015274D01*
X017610Y015362D01*
X017595Y015450D01*
X017575Y015537D01*
X017547Y015622D01*
X017514Y015704D01*
X017475Y015784D01*
X017431Y015861D01*
X017381Y015935D01*
X017325Y016005D01*
X017265Y016070D01*
X017200Y016131D01*
X017131Y016188D01*
X017126Y016180D01*
X017194Y016125D01*
X017259Y016064D01*
X017318Y015999D01*
X017373Y015930D01*
X017423Y015856D01*
X017467Y015780D01*
X017506Y015701D01*
X017539Y015618D01*
X017566Y015534D01*
X017587Y015448D01*
X017601Y015361D01*
X017609Y015273D01*
X017611Y015185D01*
X017606Y015096D01*
X017595Y015009D01*
X017578Y014922D01*
X017554Y014837D01*
X017525Y014754D01*
X017489Y014673D01*
X017448Y014595D01*
X017401Y014520D01*
X017349Y014448D01*
X017292Y014381D01*
X017230Y014318D01*
X017163Y014259D01*
X017093Y014206D01*
X017019Y014157D01*
X016942Y014115D01*
X016862Y014077D01*
X016779Y014046D01*
X016694Y014021D01*
X016608Y014002D01*
X016520Y013989D01*
X016432Y013983D01*
X016344Y013983D01*
X016256Y013989D01*
X016168Y014002D01*
X016082Y014021D01*
X015997Y014046D01*
X015914Y014077D01*
X015834Y014115D01*
X015757Y014157D01*
X015683Y014206D01*
X015613Y014259D01*
X015546Y014318D01*
X015484Y014381D01*
X015427Y014448D01*
X015375Y014520D01*
X015328Y014595D01*
X015287Y014673D01*
X015251Y014754D01*
X015222Y014837D01*
X015198Y014922D01*
X015181Y015009D01*
X015170Y015096D01*
X015165Y015185D01*
X015167Y015273D01*
X015175Y015361D01*
X015189Y015448D01*
X015210Y015534D01*
X015237Y015618D01*
X015270Y015701D01*
X015309Y015780D01*
X015353Y015856D01*
X015403Y015930D01*
X015458Y015999D01*
X015517Y016064D01*
X015582Y016125D01*
X015650Y016180D01*
X015656Y016173D01*
X015588Y016118D01*
X015524Y016058D01*
X015464Y015993D01*
X015410Y015924D01*
X015361Y015852D01*
X015317Y015776D01*
X015278Y015697D01*
X015245Y015615D01*
X015219Y015532D01*
X015198Y015447D01*
X015184Y015360D01*
X015176Y015273D01*
X015174Y015185D01*
X015179Y015097D01*
X015190Y015010D01*
X015207Y014924D01*
X015230Y014840D01*
X015260Y014757D01*
X015295Y014677D01*
X015336Y014599D01*
X015383Y014525D01*
X015434Y014454D01*
X015491Y014387D01*
X015552Y014324D01*
X015618Y014266D01*
X015688Y014213D01*
X015762Y014165D01*
X015838Y014123D01*
X015918Y014086D01*
X016000Y014055D01*
X016084Y014030D01*
X016170Y014011D01*
X016257Y013998D01*
X016344Y013992D01*
X016432Y013992D01*
X016519Y013998D01*
X016606Y014011D01*
X016692Y014030D01*
X016776Y014055D01*
X016858Y014086D01*
X016938Y014123D01*
X017014Y014165D01*
X017088Y014213D01*
X017158Y014266D01*
X017224Y014324D01*
X017285Y014387D01*
X017342Y014454D01*
X017393Y014525D01*
X017440Y014599D01*
X017481Y014677D01*
X017516Y014757D01*
X017546Y014840D01*
X017569Y014924D01*
X017586Y015010D01*
X017597Y015097D01*
X017602Y015185D01*
X017600Y015273D01*
X017592Y015360D01*
X017578Y015447D01*
X017557Y015532D01*
X017531Y015615D01*
X017498Y015697D01*
X017459Y015776D01*
X017415Y015852D01*
X017366Y015924D01*
X017312Y015993D01*
X017252Y016058D01*
X017188Y016118D01*
X017120Y016173D01*
D14*
X016073Y010713D02*
X016073Y010503D01*
X016073Y010608D02*
X015443Y010608D01*
X015548Y010503D01*
X015548Y010279D02*
X015443Y010173D01*
X015443Y009963D01*
X015548Y009858D01*
X015968Y009858D01*
X016073Y009963D01*
X016073Y010173D01*
X015968Y010279D01*
X016073Y009531D02*
X016073Y009321D01*
X016073Y009426D02*
X015443Y009426D01*
X015443Y009321D02*
X015443Y009531D01*
X005853Y009940D02*
X005223Y010360D01*
X005328Y010584D02*
X005223Y010689D01*
X005853Y010689D01*
X005853Y010584D02*
X005853Y010795D01*
X005853Y010360D02*
X005223Y009940D01*
D15*
X002728Y006805D03*
D16*
X004511Y006805D03*
D17*
X015638Y016205D02*
X017138Y016205D01*
D18*
X017588Y015580D03*
X014988Y015680D03*
X014988Y013530D03*
X017588Y013430D03*
D19*
X010688Y012755D03*
D20*
X010688Y012380D03*
X010688Y014430D03*
M02*
