G75*
G70*
%OFA0B0*%
%FSLAX24Y24*%
%IPPOS*%
%LPD*%
%AMOC8*
5,1,8,0,0,1.08239X$1,22.5*
%
%ADD10O,0.1144X0.0624*%
%ADD11OC8,0.0624*%
%ADD12OC8,0.0720*%
%ADD13O,0.0720X0.1320*%
%ADD14C,0.2400*%
%ADD15O,0.0624X0.1144*%
%ADD16C,0.1323*%
%ADD17O,0.0672X0.1232*%
%ADD18O,0.1232X0.0672*%
%ADD19C,0.0624*%
%ADD20C,0.0480*%
D10*
X047932Y031978D03*
X047932Y030978D03*
X047932Y029978D03*
X047932Y028978D03*
X047932Y027978D03*
X047932Y026978D03*
X047932Y025978D03*
X047932Y024978D03*
X047932Y023978D03*
X047932Y022978D03*
X047932Y020978D03*
X047932Y019978D03*
X047932Y018978D03*
X047932Y017978D03*
X047932Y016978D03*
X047932Y015978D03*
X047932Y014978D03*
X047932Y013978D03*
X047932Y012978D03*
X047932Y011978D03*
X044932Y011978D03*
X044932Y012978D03*
X044932Y013978D03*
X044932Y014978D03*
X044932Y015978D03*
X044932Y016978D03*
X044932Y017978D03*
X044932Y018978D03*
X044932Y019978D03*
X044932Y020978D03*
X043432Y020978D03*
X043432Y021978D03*
X043432Y022978D03*
X043432Y023978D03*
X043432Y024978D03*
X043432Y025978D03*
X043432Y026978D03*
X043432Y027978D03*
X043432Y028978D03*
X043432Y029978D03*
X043432Y030978D03*
X044932Y030978D03*
X044932Y031978D03*
X044932Y029978D03*
X044932Y028978D03*
X044932Y027978D03*
X044932Y026978D03*
X044932Y025978D03*
X044932Y024978D03*
X044932Y023978D03*
X044932Y022978D03*
X043432Y019978D03*
X043432Y018978D03*
X043432Y017978D03*
X043432Y016978D03*
X043432Y015978D03*
X043432Y014978D03*
X043432Y013978D03*
X043432Y012978D03*
X043432Y011978D03*
X043432Y008978D03*
X043432Y007978D03*
X043432Y006978D03*
X043432Y005978D03*
X043432Y004978D03*
X043432Y003978D03*
X043432Y002978D03*
X046432Y002978D03*
X046432Y003978D03*
X046432Y004978D03*
X046432Y005978D03*
X046432Y006978D03*
X046432Y007978D03*
X046432Y008978D03*
X037432Y011978D03*
X037432Y012978D03*
X037432Y013978D03*
X037432Y014978D03*
X037432Y015978D03*
X037432Y016978D03*
X037432Y017978D03*
X037432Y018978D03*
X037432Y019978D03*
X037432Y020978D03*
X037432Y021978D03*
X037432Y022978D03*
X037432Y023978D03*
X037432Y024978D03*
X037432Y025978D03*
X037432Y026978D03*
X037432Y027978D03*
X037432Y028978D03*
X037432Y029978D03*
X037432Y030978D03*
X030432Y030978D03*
X030432Y031978D03*
X030432Y032978D03*
X030432Y033978D03*
X027432Y033978D03*
X027432Y032978D03*
X027432Y031978D03*
X027432Y030978D03*
X027432Y029978D03*
X027432Y028978D03*
X027432Y027978D03*
X030432Y027978D03*
X030432Y028978D03*
X030432Y029978D03*
X029432Y024978D03*
X029432Y023978D03*
X029432Y022978D03*
X029432Y021978D03*
X029432Y020978D03*
X029432Y019978D03*
X029432Y018978D03*
X029432Y017978D03*
X029432Y016978D03*
X029432Y015978D03*
X029432Y014978D03*
X029432Y013978D03*
X026432Y013978D03*
X026432Y014978D03*
X026432Y015978D03*
X026432Y012978D03*
X026432Y011978D03*
X026432Y010978D03*
X026432Y009978D03*
X026432Y008978D03*
X026432Y007978D03*
X026432Y006978D03*
X026432Y005978D03*
X026432Y004978D03*
X026432Y003978D03*
X026432Y002978D03*
X028432Y002978D03*
X028432Y003978D03*
X028432Y004978D03*
X028432Y005978D03*
X028432Y006978D03*
X028432Y007978D03*
X028432Y008978D03*
X028432Y009978D03*
X031432Y009978D03*
X031432Y008978D03*
X031432Y007978D03*
X031432Y006978D03*
X031432Y005978D03*
X031432Y004978D03*
X031432Y003978D03*
X031432Y002978D03*
X033432Y002978D03*
X033432Y003978D03*
X033432Y004978D03*
X033432Y005978D03*
X033432Y006978D03*
X033432Y007978D03*
X033432Y008978D03*
X033432Y009978D03*
X036432Y009978D03*
X036432Y008978D03*
X036432Y007978D03*
X036432Y006978D03*
X036432Y005978D03*
X036432Y004978D03*
X036432Y003978D03*
X036432Y002978D03*
X035432Y013978D03*
X035432Y014978D03*
X035432Y015978D03*
X035432Y016978D03*
X035432Y017978D03*
X035432Y018978D03*
X035432Y019978D03*
X035432Y020978D03*
X035432Y021978D03*
X035432Y022978D03*
X035432Y023978D03*
X035432Y024978D03*
X020432Y015978D03*
X020432Y014978D03*
X020432Y013978D03*
X020432Y012978D03*
X020432Y011978D03*
X020432Y010978D03*
X020432Y009978D03*
X020432Y008978D03*
X020432Y007978D03*
X020432Y006978D03*
X020432Y005978D03*
X020432Y004978D03*
X020432Y003978D03*
X020432Y002978D03*
X018432Y002978D03*
X018432Y003978D03*
X018432Y004978D03*
X018432Y005978D03*
X018432Y006978D03*
X018432Y007978D03*
X018432Y008978D03*
X018432Y009978D03*
X018432Y010978D03*
X018432Y011978D03*
X018432Y012978D03*
X018432Y013978D03*
X018432Y014978D03*
X018432Y015978D03*
X012432Y015978D03*
X012432Y014978D03*
X012432Y013978D03*
X012432Y012978D03*
X012432Y011978D03*
X012432Y010978D03*
X012432Y009978D03*
X012432Y008978D03*
X012432Y007978D03*
X012432Y006978D03*
X012432Y005978D03*
X012432Y004978D03*
X012432Y003978D03*
X012432Y002978D03*
X010432Y002978D03*
X010432Y003978D03*
X010432Y004978D03*
X010432Y005978D03*
X010432Y006978D03*
X010432Y007978D03*
X010432Y008978D03*
X010432Y009978D03*
X010432Y010978D03*
X010432Y011978D03*
X010432Y012978D03*
X010432Y013978D03*
X010432Y014978D03*
X010432Y015978D03*
X004432Y015978D03*
X004432Y014978D03*
X004432Y013978D03*
X004432Y012978D03*
X004432Y011978D03*
X004432Y010978D03*
X004432Y009978D03*
X004432Y008978D03*
X004432Y007978D03*
X004432Y006978D03*
X004432Y005978D03*
X004432Y004978D03*
X004432Y003978D03*
X004432Y002978D03*
X005432Y020978D03*
X005432Y021978D03*
X005432Y022978D03*
X005432Y023978D03*
X005432Y024978D03*
X005432Y025978D03*
X005432Y026978D03*
X002432Y026978D03*
X002432Y025978D03*
X002432Y024978D03*
X002432Y023978D03*
X002432Y022978D03*
X002432Y021978D03*
X002432Y020978D03*
D11*
X002932Y019978D03*
X002932Y018978D03*
X003432Y017978D03*
X004432Y016978D03*
X006432Y016978D03*
X003432Y014978D03*
X006432Y020978D03*
X006432Y022978D03*
X006432Y026978D03*
X007432Y027978D03*
X009432Y026978D03*
X010432Y027978D03*
X019432Y027978D03*
X019432Y028978D03*
X021432Y028978D03*
X022432Y028978D03*
X022432Y027978D03*
X021432Y027978D03*
X023432Y026978D03*
X024432Y027978D03*
X025432Y027978D03*
X024432Y028978D03*
X025432Y029978D03*
X026432Y026978D03*
X028432Y026978D03*
X030432Y026978D03*
X033432Y025978D03*
X035432Y025978D03*
X041432Y031978D03*
X043432Y031978D03*
X045432Y032978D03*
X047432Y032978D03*
X047432Y021978D03*
X045432Y021978D03*
X036432Y018978D03*
X036432Y015978D03*
X035432Y011978D03*
X035432Y010978D03*
X033432Y010978D03*
X032432Y011978D03*
X030432Y010978D03*
X028432Y010978D03*
X022432Y016978D03*
X020432Y016978D03*
X020432Y018978D03*
X023432Y018978D03*
X024432Y018978D03*
X024432Y017978D03*
X026432Y017978D03*
X027432Y018978D03*
X012432Y018978D03*
X012432Y016978D03*
X039432Y004978D03*
X040432Y004978D03*
X041432Y004978D03*
X042432Y004978D03*
X042432Y003978D03*
X042432Y002978D03*
X042432Y001978D03*
X043432Y001978D03*
X046432Y001978D03*
X049432Y003978D03*
X049432Y005978D03*
X049432Y009978D03*
X046432Y009978D03*
X045432Y010978D03*
X043432Y010978D03*
X042432Y007978D03*
X041432Y007978D03*
X040432Y006978D03*
X040432Y003978D03*
X040432Y002978D03*
X040432Y001978D03*
X039432Y001978D03*
D12*
X049432Y017978D03*
X049432Y018978D03*
X050432Y018978D03*
X050432Y017978D03*
X050432Y019978D03*
X049432Y019978D03*
X049432Y020978D03*
X049432Y021978D03*
X050432Y021978D03*
X050432Y020978D03*
X050432Y022978D03*
X049432Y022978D03*
X049432Y023978D03*
X050432Y023978D03*
X050432Y024978D03*
X050432Y025978D03*
X049432Y025978D03*
X049432Y024978D03*
X049432Y026978D03*
X050432Y026978D03*
X012592Y028978D03*
X011512Y028978D03*
X010432Y028978D03*
X009352Y028978D03*
X009892Y029978D03*
X010972Y029978D03*
X012052Y029978D03*
X008812Y029978D03*
X008272Y028978D03*
X003432Y027978D03*
X003432Y031978D03*
D13*
X011432Y027978D03*
X012432Y027978D03*
X013432Y027978D03*
X015432Y017978D03*
X016432Y017978D03*
X017432Y017978D03*
X011432Y017978D03*
X010432Y017978D03*
X009432Y017978D03*
X008432Y017978D03*
X007432Y017978D03*
X047432Y007978D03*
X048432Y004978D03*
X047432Y002978D03*
D14*
X015362Y029478D03*
X005502Y029478D03*
D15*
X007432Y025978D03*
X008432Y025978D03*
X009432Y025978D03*
X010432Y025978D03*
X011432Y025978D03*
X012432Y025978D03*
X013432Y025978D03*
X014432Y025978D03*
X015432Y025978D03*
X016432Y025978D03*
X017432Y025978D03*
X018432Y025978D03*
X019432Y025978D03*
X020432Y025978D03*
X021432Y025978D03*
X022432Y025978D03*
X023432Y025978D03*
X024432Y025978D03*
X025432Y025978D03*
X026432Y025978D03*
X024432Y029978D03*
X023432Y029978D03*
X022432Y029978D03*
X021432Y029978D03*
X020432Y029978D03*
X019432Y029978D03*
X018432Y029978D03*
X017432Y029978D03*
X017432Y032978D03*
X018432Y032978D03*
X019432Y032978D03*
X020432Y032978D03*
X021432Y032978D03*
X022432Y032978D03*
X023432Y032978D03*
X024432Y032978D03*
X024432Y019978D03*
X025432Y019978D03*
X026432Y019978D03*
X023432Y019978D03*
X022432Y019978D03*
X021432Y019978D03*
X020432Y019978D03*
X019432Y019978D03*
X018432Y019978D03*
X017432Y019978D03*
X016432Y019978D03*
X015432Y019978D03*
X014432Y019978D03*
X013432Y019978D03*
X012432Y019978D03*
X011432Y019978D03*
X010432Y019978D03*
X009432Y019978D03*
X008432Y019978D03*
X007432Y019978D03*
D16*
X002432Y001978D03*
X002432Y034978D03*
X050432Y034978D03*
X050432Y001978D03*
D17*
X047432Y010978D03*
X046432Y010978D03*
X005432Y019478D03*
X004432Y019478D03*
D18*
X028432Y012978D03*
X028432Y011978D03*
X049932Y028978D03*
X049932Y029978D03*
D19*
X035432Y027978D03*
X032432Y027978D03*
X032432Y033978D03*
X035432Y033978D03*
D20*
X034432Y033478D03*
X034432Y031478D03*
X029182Y031228D03*
X028682Y032728D03*
X029182Y029228D03*
X026432Y028478D03*
X024932Y028478D03*
X021932Y030728D03*
X017432Y024978D03*
X017432Y023478D03*
X018432Y023728D03*
X019432Y021728D03*
X020432Y021228D03*
X021432Y018978D03*
X018182Y017478D03*
X019682Y016478D03*
X016932Y014978D03*
X016432Y014978D03*
X015932Y014978D03*
X014932Y015228D03*
X015432Y016478D03*
X015932Y016478D03*
X014432Y018228D03*
X013182Y017478D03*
X012682Y017978D03*
X012932Y018478D03*
X011682Y016978D03*
X009432Y016728D03*
X009432Y015978D03*
X008682Y015478D03*
X011182Y013478D03*
X009432Y011978D03*
X009682Y010478D03*
X011432Y009478D03*
X011432Y007978D03*
X016932Y007978D03*
X019432Y008978D03*
X019432Y011978D03*
X021432Y012478D03*
X021182Y013478D03*
X025432Y014978D03*
X025682Y016478D03*
X025432Y017728D03*
X025432Y018478D03*
X027932Y019978D03*
X030682Y022478D03*
X028182Y023228D03*
X023932Y022228D03*
X021932Y023228D03*
X013682Y020978D03*
X012932Y020978D03*
X011932Y021228D03*
X009432Y020978D03*
X007432Y022228D03*
X007682Y022978D03*
X008182Y023228D03*
X006932Y024478D03*
X007932Y024978D03*
X008932Y024728D03*
X011932Y024728D03*
X004682Y024478D03*
X003682Y023228D03*
X006182Y019728D03*
X006682Y019478D03*
X002682Y017978D03*
X003182Y016978D03*
X010682Y018978D03*
X013432Y015478D03*
X013682Y012978D03*
X024682Y008978D03*
X025682Y009478D03*
X024932Y007978D03*
X024182Y005478D03*
X021432Y004478D03*
X029432Y008978D03*
X030182Y008728D03*
X032182Y008478D03*
X034432Y009978D03*
X033932Y011478D03*
X033932Y012478D03*
X030932Y014228D03*
X030432Y012978D03*
X027682Y010978D03*
X030182Y006478D03*
X034182Y006478D03*
X034932Y003478D03*
X041932Y009228D03*
X041682Y009728D03*
X038682Y011478D03*
X037682Y010978D03*
X040182Y012478D03*
X042182Y012478D03*
X041682Y014228D03*
X038682Y017728D03*
X038682Y019228D03*
X038182Y021478D03*
X039432Y023478D03*
X042682Y023478D03*
X046182Y019228D03*
X034682Y021478D03*
X034432Y022478D03*
X033932Y017978D03*
X030932Y017478D03*
X035182Y027228D03*
X008932Y002978D03*
M02*
