%
M48
M72
T01C0.0320
T02C0.0354
T03C0.0394
T04C0.0400
T05C0.0430
T06C0.0710
T07C0.1380
%
T01
X6260Y7260
X6260Y8260
X7760Y8260
X7760Y7260
X11760Y7260
X11760Y8260
X14760Y8260
X14760Y7260
X16260Y8260
X18760Y10260
X19260Y11760
X19260Y12760
X19260Y13760
X19260Y14760
X19260Y15760
X20760Y17260
X21385Y18885
X22760Y17260
X22510Y14635
X23260Y12760
X24760Y13760
X25760Y13760
X27260Y13760
X27260Y12760
X26260Y11760
X24135Y10760
X25260Y9260
X22260Y8260
X22260Y7260
X20260Y8260
X16635Y11760
X16260Y12760
X16260Y13760
X16260Y14760
X16260Y15760
X16260Y16760
X15260Y15760
X14260Y15760
X13760Y13760
X14760Y13760
X15260Y11760
X12260Y12760
X9260Y12760
X8260Y12760
X8260Y13760
X8260Y14760
X8260Y15760
X9760Y17260
X9135Y17760
X11760Y17260
X14260Y19760
X15260Y19760
X15760Y21385
X16760Y21260
X18760Y21260
X19260Y23260
X19260Y24260
X19260Y25260
X19260Y26260
X18635Y26760
X19260Y27260
X19260Y28260
X19260Y29260
X19260Y30260
X19260Y31260
X19885Y31760
X20260Y32260
X19260Y32260
X19260Y33260
X19260Y34260
X19260Y35260
X19260Y36260
X20010Y37010
X19010Y38635
X18635Y39635
X18760Y42885
X21260Y46510
X21260Y47135
X24135Y46260
X24760Y45010
X25760Y44510
X25760Y43885
X25260Y43510
X26260Y42510
X26885Y42510
X29635Y42260
X31260Y40510
X32260Y39760
X34260Y36260
X34260Y35260
X34260Y34260
X34260Y33260
X34260Y32260
X34260Y31260
X34260Y30260
X34260Y29260
X34260Y28260
X34260Y27260
X34260Y26260
X34260Y25260
X34260Y24260
X34260Y23260
X33260Y24260
X31135Y22760
X28510Y20260
X27760Y21260
X28010Y22385
X28260Y23260
X28260Y24260
X28260Y25260
X28260Y26260
X28260Y27260
X28260Y28260
X28260Y29260
X28260Y30260
X28260Y31260
X28260Y32260
X28260Y33260
X28260Y34260
X28260Y35260
X28260Y36260
X27760Y38010
X26385Y38760
X24760Y38510
X25760Y37135
X25260Y36260
X25260Y35260
X25260Y34260
X25260Y33260
X25260Y32260
X25260Y31260
X25260Y30260
X25260Y29260
X25260Y28260
X25260Y27260
X24260Y27260
X23760Y28260
X22760Y29760
X22760Y31260
X21885Y32260
X17635Y29760
X17260Y31260
X16260Y31260
X16260Y30260
X16260Y29260
X16260Y28260
X15510Y28260
X16260Y27260
X16260Y26260
X15635Y25760
X16260Y25260
X16260Y24260
X16260Y23260
X17635Y23760
X21260Y23260
X23010Y24760
X24635Y23760
X25260Y23260
X25260Y24260
X25260Y25260
X25260Y26260
X25760Y21260
X25260Y19760
X26260Y19760
X23635Y21260
X25260Y15760
X26260Y15760
X27260Y15760
X27260Y14760
X30260Y14760
X30260Y13760
X30260Y12760
X31260Y12760
X30260Y11760
X31260Y9260
X28260Y8260
X28260Y7260
X25260Y5260
X31260Y5260
X34260Y7260
X34260Y8260
X37260Y9260
X37260Y11760
X36010Y12260
X35760Y13760
X36760Y13760
X38260Y13760
X38260Y12760
X38260Y14760
X38260Y15760
X36260Y15760
X33760Y17260
X31760Y17260
X30260Y15760
X34260Y12760
X40260Y8260
X40260Y7260
X37260Y5260
X43260Y5260
X46260Y5260
X49260Y5260
X51260Y5260
X52260Y5260
X54260Y5260
X55260Y5260
X55260Y9260
X54260Y9260
X52260Y9260
X51260Y9260
X49260Y9260
X48260Y11760
X49260Y12760
X49260Y13760
X49260Y14760
X49260Y15760
X48260Y15760
X47260Y15760
X46760Y13760
X47760Y13760
X45260Y12760
X42260Y12760
X41260Y12760
X41260Y13760
X41260Y14760
X41260Y15760
X42760Y17260
X44760Y17260
X47260Y19760
X48260Y19760
X47260Y21260
X45760Y21260
X43760Y21260
X43260Y23260
X43260Y24260
X43260Y25260
X43260Y26260
X42635Y26760
X43260Y27260
X42635Y27760
X43260Y28260
X43260Y29260
X43260Y30260
X43260Y31260
X43260Y32260
X43260Y33260
X43260Y34260
X43260Y35260
X43260Y36260
X43385Y37260
X44885Y37510
X46260Y36260
X46260Y35260
X46260Y34260
X47135Y33760
X46260Y33260
X46260Y32260
X46260Y31260
X46260Y30260
X46260Y29260
X46260Y28260
X46260Y27260
X45635Y26760
X46260Y26260
X46260Y25260
X46260Y24260
X46260Y23260
X50760Y27260
X51510Y26760
X52260Y26260
X51635Y25760
X52260Y25260
X51635Y24760
X52260Y24260
X52260Y23260
X53260Y24260
X55260Y24260
X55260Y25260
X55260Y26260
X55260Y27260
X55260Y28260
X55260Y29260
X55260Y30260
X55260Y31260
X55260Y32260
X55260Y33260
X55260Y34260
X55260Y35260
X55260Y36260
X53760Y33635
X52260Y33260
X52260Y32260
X52260Y31260
X52260Y30260
X52260Y29260
X52260Y28260
X52260Y27260
X53260Y28885
X54260Y31260
X56385Y30385
X56885Y32260
X52260Y34260
X52260Y35260
X52260Y36260
X50760Y37260
X48510Y37260
X46260Y38885
X44260Y39385
X43385Y39385
X48010Y40385
X51260Y43135
X52760Y43135
X52260Y46260
X53260Y46510
X52760Y47635
X51260Y46635
X49260Y44760
X44760Y47635
X41760Y47635
X39760Y45260
X38760Y44760
X37760Y46260
X35760Y46260
X34135Y45760
X33135Y45510
X32635Y46260
X33635Y47260
X35260Y48885
X36260Y48010
X33760Y49760
X33385Y50760
X36260Y52385
X39135Y51385
X41260Y51760
X42760Y51260
X43260Y52885
X42260Y53260
X45135Y52885
X45760Y51260
X47135Y53385
X49260Y53510
X49760Y53885
X51260Y54010
X51760Y51385
X55760Y53635
X56260Y49760
X56760Y44135
X52385Y39510
X49010Y32385
X55260Y23260
X54760Y21260
X52760Y21260
X51260Y21260
X53760Y17260
X52260Y15760
X52260Y14760
X52260Y13760
X52260Y12760
X52260Y11760
X53260Y12760
X56260Y12760
X55760Y17260
X46260Y9260
X43260Y9260
X41260Y11760
X36260Y19760
X36760Y21260
X34760Y21260
X37260Y23260
X37260Y24260
X37260Y25260
X37260Y26260
X37260Y27260
X37260Y28260
X37260Y29260
X37260Y30260
X37260Y31260
X36635Y31760
X37260Y32260
X37260Y33260
X37260Y34260
X37260Y35260
X37260Y36260
X36635Y38260
X38635Y40510
X40885Y44760
X43760Y44760
X38135Y33760
X39260Y30635
X38760Y29760
X36135Y28760
X33260Y28260
X32760Y28885
X31260Y29760
X31260Y27760
X31260Y26385
X29260Y33760
X27010Y33760
X21885Y39510
X23260Y44510
X16260Y36260
X16260Y35260
X16260Y34260
X16260Y33260
X16260Y32260
X11885Y30260
X11510Y29760
X11885Y28760
X10635Y27385
X11885Y26760
X13885Y26260
X14510Y26260
X13135Y23760
X14385Y21885
X9260Y21760
X9260Y22760
X5260Y22760
X5260Y21760
X4260Y19760
X3260Y19760
X3260Y15760
X4260Y15760
X5260Y15760
X5260Y14760
X5260Y13760
X5260Y12760
X4260Y11760
X3760Y13760
X2760Y13760
X8260Y11760
X20260Y12760
X7260Y30760
X9510Y32260
X10760Y34010
X6635Y36760
X5385Y36760
X6635Y43885
X7135Y44385
X6135Y49760
X8885Y50010
X13760Y47010
X20260Y54260
X15010Y37510
T02
X10260Y15744
X10260Y13776
X21260Y13776
X21260Y15744
X32260Y15744
X32260Y13776
X43260Y13776
X43260Y15744
X54260Y15744
X54260Y13776
T03
X10760Y24260
X9760Y24260
X8760Y24260
X7760Y24260
X6760Y24260
X5760Y24260
T04
X3260Y24260
X3260Y25260
X3260Y26260
X3260Y27260
X3260Y28260
X3260Y29260
X3260Y30260
X3260Y31260
X3260Y32260
X3260Y33260
X3260Y34260
X3260Y35260
X3260Y36260
X3260Y37260
X3260Y38260
X3260Y39260
X3260Y40260
X3260Y41260
X2260Y41260
X2260Y40260
X2260Y39260
X2260Y38260
X2260Y37260
X2260Y36260
X2260Y35260
X2260Y34260
X2260Y33260
X2260Y32260
X2260Y31260
X2260Y30260
X2260Y29260
X2260Y28260
X2260Y27260
X2260Y26260
X2260Y25260
X2260Y24260
X2260Y23260
X2260Y22260
X3260Y22260
X3260Y23260
X7260Y19260
X7260Y17260
X2260Y11260
X2260Y8260
X2260Y5260
X16760Y5260
X18760Y5260
X22260Y2260
X25260Y2260
X28260Y2260
X31260Y2260
X34260Y2260
X37260Y2260
X40260Y2260
X43260Y2260
X46260Y2260
X49260Y2260
X52260Y2260
X55260Y2260
X57260Y7260
X57260Y10260
X57260Y13260
X57260Y16260
X57260Y19260
X51260Y19260
X51260Y17260
X40260Y17260
X40260Y19260
X29260Y19260
X29260Y17260
X18260Y17260
X18260Y19260
X18260Y41260
X18260Y42260
X19260Y42260
X19260Y41260
X20260Y41260
X20260Y42260
X21260Y42260
X21260Y41260
X22260Y41260
X22260Y42260
X23260Y42260
X23260Y41260
X24260Y41260
X24260Y42260
X25260Y42260
X25260Y41260
X28760Y41260
X28760Y42260
X28760Y43260
X28760Y44260
X28760Y45260
X28760Y46260
X28760Y47260
X28760Y48260
X31760Y48260
X31760Y47260
X31760Y46260
X31760Y45260
X31760Y44260
X31760Y43260
X31760Y42260
X31760Y41260
X34760Y41260
X34760Y42260
X34760Y43260
X34760Y44260
X34760Y45260
X34760Y46260
X34760Y47260
X34760Y48260
X38260Y48260
X39260Y48260
X39260Y49260
X38260Y49260
X40260Y49260
X40260Y48260
X41260Y48260
X42260Y48260
X42260Y49260
X41260Y49260
X43260Y49260
X43260Y48260
X44260Y48260
X45260Y48260
X45260Y49260
X44260Y49260
X46260Y49260
X46260Y48260
X47260Y48260
X48260Y48260
X48260Y49260
X47260Y49260
X49260Y49260
X49260Y48260
X50260Y48260
X51260Y48260
X51260Y49260
X50260Y49260
X52260Y49260
X52260Y48260
X53260Y48260
X54260Y48260
X54260Y49260
X53260Y49260
X54260Y50260
X55260Y49260
X55260Y48260
X55260Y42260
X55260Y41260
X54260Y41260
X54260Y42260
X53260Y42260
X53260Y41260
X52260Y41260
X52260Y42260
X51260Y42260
X51260Y41260
X50260Y41260
X50260Y42260
X49260Y42260
X49260Y41260
X48260Y41260
X48260Y42260
X47260Y42260
X47260Y41260
X46260Y41260
X46260Y42260
X45260Y42260
X45260Y41260
X44260Y41260
X44260Y42260
X43260Y42260
X43260Y41260
X42260Y41260
X42260Y42260
X41260Y42260
X41260Y41260
X40260Y41260
X40260Y42260
X39260Y42260
X39260Y41260
X38260Y41260
X38260Y42260
X25260Y48260
X24260Y48260
X24260Y49260
X25260Y49260
X24260Y50260
X23260Y49260
X23260Y48260
X22260Y48260
X21260Y48260
X21260Y49260
X22260Y49260
X20260Y49260
X20260Y48260
X19260Y48260
X18260Y48260
X18260Y49260
X19260Y49260
X17260Y49260
X17260Y48260
X16260Y48260
X15260Y48260
X15260Y49260
X16260Y49260
X14260Y49260
X14260Y48260
X13260Y48260
X12260Y48260
X12260Y49260
X13260Y49260
X11260Y49260
X11260Y48260
X10260Y48260
X9260Y48260
X9260Y49260
X10260Y49260
X8260Y49260
X8260Y48260
X5260Y46260
X4260Y46260
X4260Y45260
X4260Y44260
X5260Y44260
X5260Y45260
X3260Y45260
X3260Y44260
X2260Y44260
X2260Y45260
X2260Y46260
X3260Y46260
X8260Y42260
X8260Y41260
X9260Y41260
X9260Y42260
X10260Y42260
X10260Y41260
X11260Y41260
X11260Y42260
X12260Y42260
X12260Y41260
X13260Y41260
X13260Y42260
X14260Y42260
X14260Y41260
X15260Y41260
X15260Y42260
X16260Y42260
X16260Y41260
X17260Y41260
X17260Y42260
T05
X17010Y54885
X17010Y55510
X17010Y56135
X17010Y57385
X17010Y57385
X17010Y58010
X15760Y58010
X15760Y57385
X15760Y56135
X15760Y56135
X15760Y55510
X14510Y55510
X14510Y54885
X14510Y56135
X14510Y57385
X14510Y57385
X14510Y58010
X13260Y58010
X13260Y57385
X13260Y56135
X13260Y56135
X13260Y55510
X12010Y55510
X12010Y54885
X12010Y56135
X12010Y57385
X12010Y57385
X12010Y58010
X10760Y58010
X10760Y57385
X10760Y56135
X10760Y56135
X10760Y55510
X9510Y55510
X9510Y54885
X9510Y56135
X9510Y57385
X9510Y57385
X9510Y58010
X8260Y58010
X8260Y57385
X8260Y56135
X8260Y56135
X8260Y55510
X7010Y55510
X7010Y54885
X7010Y56135
X7010Y57385
X7010Y57385
X7010Y58010
X5760Y58010
X5760Y57385
X5760Y56135
X5760Y56135
X5760Y55510
X5760Y58635
X8260Y58635
X10760Y58635
X13260Y58635
X15760Y58635
X18260Y58635
X18260Y58010
X18260Y57385
X18260Y56135
X18260Y56135
X18260Y55510
X19510Y55510
X19510Y54885
X19510Y56135
X19510Y57385
X19510Y57385
X19510Y58010
X20760Y58010
X20760Y57385
X20760Y56135
X20760Y56135
X20760Y55510
X22010Y55510
X22010Y54885
X22010Y56135
X22010Y57385
X22010Y57385
X22010Y58010
X23260Y58010
X23260Y57385
X23260Y56135
X23260Y56135
X23260Y55510
X24510Y55510
X24510Y54885
X24510Y56135
X24510Y57385
X24510Y57385
X24510Y58010
X25760Y58010
X25760Y57385
X25760Y56135
X25760Y56135
X25760Y55510
X27010Y55510
X27010Y54885
X27010Y56135
X27010Y57385
X27010Y57385
X27010Y58010
X25760Y58635
X23260Y58635
X20760Y58635
X33260Y58635
X33260Y58010
X33260Y57385
X33260Y56135
X33260Y56135
X33260Y55510
X34510Y55510
X34510Y54885
X34510Y56135
X34510Y57385
X34510Y57385
X34510Y58010
X35760Y58010
X35760Y57385
X35760Y56135
X35760Y56135
X35760Y55510
X37010Y55510
X37010Y54885
X37010Y56135
X37010Y57385
X37010Y57385
X37010Y58010
X38260Y58010
X38260Y57385
X38260Y56135
X38260Y56135
X38260Y55510
X39510Y55510
X39510Y54885
X39510Y56135
X39510Y57385
X39510Y57385
X39510Y58010
X40760Y58010
X40760Y57385
X40760Y56135
X40760Y56135
X40760Y55510
X42010Y55510
X42010Y54885
X42010Y56135
X42010Y57385
X42010Y57385
X42010Y58010
X43260Y58010
X43260Y57385
X43260Y56135
X43260Y56135
X43260Y55510
X44510Y55510
X44510Y54885
X44510Y56135
X44510Y57385
X44510Y57385
X44510Y58010
X45760Y58010
X45760Y57385
X45760Y56135
X45760Y56135
X45760Y55510
X47010Y55510
X47010Y54885
X47010Y56135
X47010Y57385
X47010Y57385
X47010Y58010
X48260Y58010
X48260Y57385
X48260Y56135
X48260Y56135
X48260Y55510
X49510Y55510
X49510Y54885
X49510Y56135
X49510Y57385
X49510Y57385
X49510Y58010
X50760Y58010
X50760Y57385
X50760Y56135
X50760Y56135
X50760Y55510
X52010Y55510
X52010Y54885
X52010Y56135
X52010Y57385
X52010Y57385
X52010Y58010
X50760Y58635
X48260Y58635
X45760Y58635
X43260Y58635
X40760Y58635
X38260Y58635
X35760Y58635
X53260Y58635
X53260Y58010
X53260Y57385
X53260Y56135
X53260Y56135
X53260Y55510
X54510Y55510
X54510Y54885
X54510Y56135
X54510Y57385
X54510Y57385
X54510Y58010
T06
X12010Y5010
X11385Y4385
X11385Y3135
X12010Y2510
X10110Y2810
X8260Y2810
X6410Y2810
X5135Y3135
X4510Y2510
X5135Y4385
X4510Y5010
X6410Y4710
X8260Y4710
X10110Y4710
T07
X1760Y1760
X30260Y10260
X58760Y1760
X30260Y50260
X58760Y58760
X1760Y58760
M30
