%
M48
M72
T01C0.0320
T02C0.0400
T03C0.0430
T04C0.0440
T05C0.0660
T06C0.0710
T07C0.1380
%
T01
X3760Y11760
X3010Y13260
X2510Y12885
X5385Y14135
X6760Y15885
X6760Y20510
X4260Y21135
X5260Y24260
X5260Y25260
X5260Y26260
X5260Y27260
X5260Y28260
X5260Y29260
X5260Y30260
X5260Y31260
X5260Y32260
X5260Y33260
X5260Y34260
X5260Y35260
X5260Y36260
X5260Y37260
X4260Y39260
X6760Y40260
X8260Y39260
X8260Y37260
X8260Y36260
X8260Y35260
X8885Y34760
X8260Y34260
X8885Y33760
X8260Y33260
X8260Y32260
X8260Y31260
X8260Y30260
X8260Y29260
X8260Y28260
X8260Y27260
X8260Y26260
X8260Y25260
X8260Y24260
X10260Y28260
X10760Y29135
X12260Y29760
X12760Y30260
X14260Y30260
X14260Y31260
X14260Y32260
X14260Y33260
X14260Y34260
X14260Y35260
X14260Y36260
X14260Y37260
X17260Y37260
X17260Y36260
X17260Y35260
X17260Y34260
X17260Y33260
X17260Y32260
X17260Y31260
X17260Y30260
X17260Y29260
X17260Y28260
X17260Y27260
X17260Y26260
X17260Y25260
X17260Y24260
X19885Y25760
X20385Y27260
X21760Y27260
X20635Y28885
X21760Y30135
X22260Y30760
X23260Y30260
X23260Y31260
X23260Y32260
X23260Y33260
X23260Y34260
X23260Y35260
X23260Y36260
X23260Y37260
X26260Y37260
X26260Y36260
X26260Y35260
X26260Y34260
X26260Y33260
X26260Y32260
X26260Y31260
X26260Y30260
X26260Y29260
X26260Y28260
X26260Y27260
X25510Y27260
X26260Y26260
X26260Y25260
X26260Y24260
X24635Y23760
X23635Y23260
X23260Y24260
X23260Y25260
X23260Y26260
X23260Y27260
X23260Y28260
X23260Y29260
X19135Y33385
X15260Y31885
X15260Y31260
X14260Y29260
X14260Y28260
X14260Y27260
X14260Y26260
X14260Y25260
X14260Y24260
X12260Y28260
X13260Y28760
X6885Y28635
X6760Y29260
X3760Y29760
X3760Y30760
X10760Y35760
X11260Y40260
X11260Y42260
X13260Y42260
X13260Y40260
X14260Y51260
X11260Y51260
X9260Y51260
X8260Y51260
X6260Y51260
X5260Y51260
X5260Y55260
X6260Y55260
X8260Y55260
X9260Y55260
X11260Y55260
X14260Y55260
X17260Y55260
X20260Y53260
X20260Y52260
X17260Y51260
X23260Y51260
X26260Y52260
X26260Y53260
X29260Y51260
X32260Y52260
X32260Y53260
X35260Y51260
X35510Y49135
X38260Y52260
X38260Y53260
X38760Y54885
X35260Y55260
X29260Y55260
X23260Y55260
X29260Y42260
X29260Y40260
X31260Y40260
X31260Y42260
X34760Y38760
X35260Y37260
X35260Y36260
X35260Y35260
X35260Y34260
X36135Y33760
X35260Y33260
X35260Y32260
X35260Y31260
X35260Y30260
X35260Y29260
X35260Y28260
X35260Y27260
X35260Y26260
X35260Y25260
X35260Y24260
X32260Y24260
X32260Y25260
X32260Y26260
X32260Y27260
X32260Y28260
X32260Y29260
X32260Y30260
X32260Y31260
X32885Y31760
X33260Y31260
X32260Y32260
X32260Y33260
X32260Y34260
X32260Y35260
X32260Y36260
X32260Y37260
X36510Y38260
X38510Y37760
X37260Y36260
X36385Y35760
X38260Y34260
X38885Y35260
X41260Y35260
X41260Y36260
X41260Y37260
X43260Y39635
X42760Y40760
X42760Y41510
X43385Y41760
X45260Y40260
X45760Y41760
X47260Y42260
X47260Y43260
X47260Y44260
X45260Y44260
X47260Y40260
X44260Y37260
X44260Y36260
X44260Y35260
X45385Y34760
X44260Y34260
X44260Y33260
X44260Y32260
X44260Y31260
X44260Y30260
X44260Y29260
X44260Y28260
X44260Y27260
X44260Y26260
X44260Y25260
X44260Y24260
X46885Y24760
X48260Y24260
X48260Y25260
X48260Y26260
X48260Y27260
X48260Y28260
X48260Y29260
X48260Y30260
X48260Y31135
X46510Y29260
X45760Y32260
X47385Y34260
X49760Y35135
X53135Y35135
X54635Y33760
X51760Y31760
X51260Y30260
X50260Y31260
X51260Y29260
X51260Y28260
X51260Y27260
X51260Y26260
X51260Y25260
X51260Y24260
X52260Y25260
X52260Y26760
X52635Y27760
X54135Y26260
X55760Y25635
X55760Y25010
X54635Y21635
X50760Y20510
X47510Y22260
X49260Y23885
X49885Y24760
X49260Y25260
X44760Y21135
X42885Y20010
X44760Y17135
X38260Y21135
X35760Y20760
X33385Y20760
X31760Y20385
X29760Y18760
X29260Y19260
X27510Y17885
X27010Y18260
X26260Y18760
X24760Y15135
X26010Y14510
X27260Y13885
X28760Y12635
X28260Y12135
X30260Y14010
X32760Y13385
X35260Y14760
X36260Y15760
X34385Y16635
X33885Y18385
X37760Y13635
X36260Y13135
X35760Y9885
X35260Y6260
X40260Y6260
X40760Y9260
X43760Y6760
X53010Y15635
X41260Y24260
X41260Y25260
X41260Y26260
X41260Y27260
X41260Y28260
X41260Y29260
X41260Y30260
X41260Y31260
X42260Y30260
X43260Y31260
X41260Y32260
X41260Y33260
X41260Y34260
X39885Y30260
X38760Y25760
X31260Y28260
X30760Y29260
X29760Y30260
X28760Y31260
X28385Y30760
X29635Y31760
X28010Y32760
X27385Y34260
X25260Y34260
X19885Y21510
X21760Y20760
X23260Y16010
X23010Y14635
X22510Y13635
X24135Y12135
X25510Y12135
X21260Y15135
X20260Y14135
X19260Y14635
X15260Y14010
X15385Y16135
X11760Y16760
X11260Y13385
X16635Y20010
X46260Y36760
X52260Y40260
X53260Y40260
X53260Y44260
X52260Y44260
X54260Y51260
X54260Y52260
T02
X44260Y51260
X42260Y51260
X41260Y58260
X38260Y58260
X35260Y58260
X32260Y58260
X29260Y58260
X26260Y58260
X23260Y58260
X20260Y58260
X17260Y58260
X14260Y58260
X11260Y58260
X8260Y58260
X5260Y58260
X3260Y53260
X3260Y50260
X3260Y47260
X3260Y44260
X3260Y41260
X5260Y19260
X5260Y18260
X6260Y18260
X6260Y19260
X7260Y19260
X7260Y18260
X8260Y18260
X8260Y19260
X9260Y19260
X9260Y18260
X10260Y18260
X10260Y19260
X11260Y19260
X11260Y18260
X12260Y18260
X12260Y19260
X13260Y19260
X13260Y18260
X14260Y18260
X14260Y19260
X15260Y19260
X15260Y18260
X16260Y18260
X16260Y19260
X17260Y19260
X17260Y18260
X18260Y18260
X18260Y19260
X19260Y19260
X19260Y18260
X20260Y18260
X20260Y19260
X21260Y19260
X21260Y18260
X22260Y18260
X22260Y19260
X22260Y12260
X21260Y12260
X21260Y11260
X22260Y11260
X20260Y11260
X20260Y12260
X19260Y12260
X18260Y12260
X18260Y11260
X19260Y11260
X17260Y11260
X17260Y12260
X16260Y12260
X15260Y12260
X15260Y11260
X16260Y11260
X14260Y11260
X14260Y12260
X13260Y12260
X12260Y12260
X12260Y11260
X13260Y11260
X11260Y11260
X11260Y12260
X10260Y12260
X9260Y12260
X9260Y11260
X10260Y11260
X8260Y11260
X8260Y12260
X7260Y12260
X6260Y12260
X6260Y11260
X7260Y11260
X5260Y11260
X5260Y12260
X35260Y12260
X36260Y12260
X36260Y11260
X35260Y11260
X37260Y11260
X37260Y12260
X38260Y12260
X39260Y12260
X39260Y11260
X38260Y11260
X40260Y11260
X40260Y12260
X41260Y12260
X42260Y12260
X42260Y11260
X41260Y11260
X43260Y11260
X43260Y12260
X44260Y12260
X45260Y12260
X45260Y11260
X44260Y11260
X46260Y11260
X46260Y12260
X47260Y12260
X48260Y12260
X48260Y11260
X47260Y11260
X49260Y11260
X49260Y12260
X50260Y12260
X51260Y12260
X51260Y11260
X50260Y11260
X52260Y11260
X52260Y12260
X52260Y18260
X52260Y19260
X51260Y19260
X51260Y18260
X50260Y18260
X50260Y19260
X49260Y19260
X49260Y18260
X48260Y18260
X48260Y19260
X47260Y19260
X47260Y18260
X46260Y18260
X46260Y19260
X45260Y19260
X45260Y18260
X44260Y18260
X44260Y19260
X43260Y19260
X43260Y18260
X42260Y18260
X42260Y19260
X41260Y19260
X41260Y18260
X40260Y18260
X40260Y19260
X39260Y19260
X39260Y18260
X38260Y18260
X38260Y19260
X37260Y19260
X37260Y18260
X36260Y18260
X36260Y19260
X35260Y19260
X35260Y18260
X55260Y26260
X56260Y26260
X56260Y27260
X56260Y28260
X55260Y28260
X55260Y27260
X55260Y29260
X56260Y29260
X56260Y30260
X56260Y31260
X55260Y31260
X55260Y30260
X55260Y32260
X55260Y33260
X56260Y33260
X56260Y32260
X56260Y34260
X55260Y34260
X55260Y35260
X55260Y36260
X56260Y36260
X56260Y35260
X56260Y37260
X55260Y37260
X55260Y38260
X56260Y38260
X44260Y58260
T03
X43510Y5635
X43510Y5010
X43510Y4385
X43510Y3135
X43510Y3135
X43510Y2510
X42260Y2510
X42260Y1885
X42260Y3135
X42260Y4385
X42260Y4385
X42260Y5010
X41010Y5010
X41010Y4385
X41010Y3135
X41010Y3135
X41010Y2510
X39760Y2510
X39760Y1885
X39760Y3135
X39760Y4385
X39760Y4385
X39760Y5010
X38510Y5010
X38510Y4385
X38510Y3135
X38510Y3135
X38510Y2510
X37260Y2510
X37260Y1885
X37260Y3135
X37260Y4385
X37260Y4385
X37260Y5010
X36010Y5010
X36010Y4385
X36010Y3135
X36010Y3135
X36010Y2510
X34760Y2510
X34760Y1885
X34760Y3135
X34760Y4385
X34760Y4385
X34760Y5010
X33510Y5010
X33510Y4385
X33510Y3135
X33510Y3135
X33510Y2510
X33510Y5635
X36010Y5635
X38510Y5635
X41010Y5635
X44760Y5010
X44760Y4385
X44760Y4385
X44760Y3135
X44760Y2510
X44760Y1885
X46010Y2510
X46010Y3135
X46010Y3135
X46010Y4385
X46010Y5010
X46010Y5635
X47260Y5010
X47260Y4385
X47260Y4385
X47260Y3135
X47260Y2510
X47260Y1885
X48510Y2510
X48510Y3135
X48510Y3135
X48510Y4385
X48510Y5010
X48510Y5635
X49760Y5010
X49760Y4385
X49760Y4385
X49760Y3135
X49760Y2510
X49760Y1885
X51010Y2510
X51010Y3135
X51010Y3135
X51010Y4385
X51010Y5010
X51010Y5635
X52260Y5010
X52260Y4385
X52260Y4385
X52260Y3135
X52260Y2510
X52260Y1885
X53510Y2510
X53510Y3135
X53510Y3135
X53510Y4385
X53510Y5010
X53510Y5635
X54760Y5010
X54760Y4385
X54760Y4385
X54760Y3135
X54760Y2510
X54760Y1885
X27260Y1885
X27260Y2510
X27260Y3135
X27260Y4385
X27260Y4385
X27260Y5010
X26010Y5010
X26010Y4385
X26010Y3135
X26010Y3135
X26010Y2510
X24760Y2510
X24760Y1885
X24760Y3135
X24760Y4385
X24760Y4385
X24760Y5010
X23510Y5010
X23510Y4385
X23510Y3135
X23510Y3135
X23510Y2510
X22260Y2510
X22260Y1885
X22260Y3135
X22260Y4385
X22260Y4385
X22260Y5010
X21010Y5010
X21010Y4385
X21010Y3135
X21010Y3135
X21010Y2510
X19760Y2510
X19760Y1885
X19760Y3135
X19760Y4385
X19760Y4385
X19760Y5010
X18510Y5010
X18510Y4385
X18510Y3135
X18510Y3135
X18510Y2510
X17260Y2510
X17260Y1885
X17260Y3135
X17260Y4385
X17260Y4385
X17260Y5010
X16010Y5010
X16010Y4385
X16010Y3135
X16010Y3135
X16010Y2510
X14760Y2510
X14760Y1885
X14760Y3135
X14760Y4385
X14760Y4385
X14760Y5010
X13510Y5010
X13510Y4385
X13510Y3135
X13510Y3135
X13510Y2510
X12260Y2510
X12260Y1885
X12260Y3135
X12260Y4385
X12260Y4385
X12260Y5010
X11010Y5010
X11010Y4385
X11010Y3135
X11010Y3135
X11010Y2510
X9760Y2510
X9760Y1885
X9760Y3135
X9760Y4385
X9760Y4385
X9760Y5010
X8510Y5010
X8510Y4385
X8510Y3135
X8510Y3135
X8510Y2510
X7260Y2510
X7260Y1885
X7260Y3135
X7260Y4385
X7260Y4385
X7260Y5010
X6010Y5010
X6010Y4385
X6010Y3135
X6010Y3135
X6010Y2510
X6010Y5635
X8510Y5635
X11010Y5635
X13510Y5635
X16010Y5635
X18510Y5635
X21010Y5635
X23510Y5635
X26010Y5635
T04
X49260Y42260
X50260Y42260
X50260Y46260
X49260Y46260
T05
X56260Y21160
X56260Y19600
X56260Y18040
X56260Y16480
X56260Y14920
X56260Y13360
T06
X56010Y55510
X55385Y56135
X55385Y57385
X56010Y58010
X54110Y56760
X52260Y56760
X50410Y56760
X49135Y56135
X48510Y55510
X49135Y57385
X48510Y58010
T07
X1760Y1760
X30260Y10260
X58760Y1760
X30260Y50260
X58760Y58760
X1760Y58760
M30
