G75*
%MOIN*%
%OFA0B0*%
%FSLAX24Y24*%
%IPPOS*%
%LPD*%
%AMOC8*
5,1,8,0,0,1.08239X$1,22.5*
%
%ADD10OC8,0.0520*%
%ADD11OC8,0.0600*%
%ADD12OC8,0.1000*%
%ADD13OC8,0.0645*%
%ADD14OC8,0.0560*%
%ADD15OC8,0.1065*%
%ADD16OC8,0.1500*%
%ADD17OC8,0.0660*%
%ADD18OC8,0.0594*%
%ADD19OC8,0.0554*%
%ADD20C,0.0320*%
%ADD21C,0.0480*%
%ADD22C,0.0160*%
D10*
X006260Y007260D03*
X006260Y008260D03*
X007760Y008260D03*
X007760Y007260D03*
X011760Y007260D03*
X011760Y008260D03*
X014760Y008260D03*
X014760Y007260D03*
X016260Y008260D03*
X015260Y011760D03*
X016260Y012760D03*
X016260Y013760D03*
X016260Y014760D03*
X016260Y015760D03*
X015260Y015760D03*
X014260Y015760D03*
X013760Y013760D03*
X014760Y013760D03*
X019260Y013760D03*
X019260Y012760D03*
X019260Y011760D03*
X020260Y012760D03*
X019260Y014760D03*
X019260Y015760D03*
X020760Y017260D03*
X022760Y017260D03*
X023260Y012760D03*
X025260Y009260D03*
X022260Y008260D03*
X022260Y007260D03*
X020260Y008260D03*
X025260Y005260D03*
X028260Y007260D03*
X028260Y008260D03*
X031260Y009260D03*
X031260Y011260D03*
X031260Y012260D03*
X031260Y013260D03*
X032260Y014260D03*
X033260Y013260D03*
X035260Y013260D03*
X035260Y012260D03*
X035260Y011260D03*
X037260Y009260D03*
X034260Y008260D03*
X034260Y007260D03*
X031260Y005260D03*
X037260Y005260D03*
X040260Y007260D03*
X040260Y008260D03*
X043260Y009260D03*
X046260Y009260D03*
X049260Y009260D03*
X051260Y009260D03*
X052260Y009260D03*
X054260Y009260D03*
X055260Y009260D03*
X055260Y005260D03*
X054260Y005260D03*
X052260Y005260D03*
X051260Y005260D03*
X049260Y005260D03*
X046260Y005260D03*
X043260Y005260D03*
X035260Y014260D03*
X029260Y014260D03*
X027260Y014260D03*
X027260Y013260D03*
X027760Y021260D03*
X025760Y021260D03*
X025260Y023260D03*
X025260Y024260D03*
X025260Y025260D03*
X025260Y026260D03*
X025260Y027260D03*
X025260Y028260D03*
X025260Y029260D03*
X025260Y030260D03*
X025260Y031260D03*
X025260Y032260D03*
X025260Y033260D03*
X025260Y034260D03*
X025260Y035260D03*
X025260Y036260D03*
X028260Y036260D03*
X028260Y035260D03*
X028260Y034260D03*
X028260Y033260D03*
X028260Y032260D03*
X028260Y031260D03*
X028260Y030260D03*
X028260Y029260D03*
X028260Y028260D03*
X028260Y027260D03*
X028260Y026260D03*
X028260Y025260D03*
X028260Y024260D03*
X028260Y023260D03*
X033260Y024260D03*
X034260Y024260D03*
X034260Y025260D03*
X034260Y026260D03*
X034260Y027260D03*
X034260Y028260D03*
X034260Y029260D03*
X034260Y030260D03*
X034260Y031260D03*
X034260Y032260D03*
X034260Y033260D03*
X034260Y034260D03*
X034260Y035260D03*
X034260Y036260D03*
X037260Y036260D03*
X037260Y035260D03*
X037260Y034260D03*
X037260Y033260D03*
X037260Y032260D03*
X037260Y031260D03*
X037260Y030260D03*
X037260Y029260D03*
X037260Y028260D03*
X037260Y027260D03*
X037260Y026260D03*
X037260Y025260D03*
X037260Y024260D03*
X037260Y023260D03*
X036760Y021260D03*
X034760Y021260D03*
X034260Y023260D03*
X033260Y028260D03*
X043260Y028260D03*
X043260Y027260D03*
X043260Y026260D03*
X043260Y025260D03*
X043260Y024260D03*
X043260Y023260D03*
X043760Y021260D03*
X045760Y021260D03*
X047260Y021260D03*
X046260Y023260D03*
X046260Y024260D03*
X046260Y025260D03*
X046260Y026260D03*
X046260Y027260D03*
X046260Y028260D03*
X046260Y029260D03*
X046260Y030260D03*
X046260Y031260D03*
X046260Y032260D03*
X046260Y033260D03*
X046260Y034260D03*
X046260Y035260D03*
X046260Y036260D03*
X043260Y036260D03*
X043260Y035260D03*
X043260Y034260D03*
X043260Y033260D03*
X043260Y032260D03*
X043260Y031260D03*
X043260Y030260D03*
X043260Y029260D03*
X051260Y021260D03*
X052760Y021260D03*
X054760Y021260D03*
X055260Y023260D03*
X055260Y024260D03*
X055260Y025260D03*
X055260Y026260D03*
X055260Y027260D03*
X055260Y028260D03*
X055260Y029260D03*
X055260Y030260D03*
X055260Y031260D03*
X055260Y032260D03*
X055260Y033260D03*
X055260Y034260D03*
X055260Y035260D03*
X055260Y036260D03*
X052260Y036260D03*
X052260Y035260D03*
X052260Y034260D03*
X052260Y033260D03*
X052260Y032260D03*
X052260Y031260D03*
X052260Y030260D03*
X052260Y029260D03*
X052260Y028260D03*
X052260Y027260D03*
X052260Y026260D03*
X052260Y025260D03*
X052260Y024260D03*
X052260Y023260D03*
X019260Y023260D03*
X019260Y024260D03*
X019260Y025260D03*
X019260Y026260D03*
X019260Y027260D03*
X019260Y028260D03*
X019260Y029260D03*
X019260Y030260D03*
X019260Y031260D03*
X019260Y032260D03*
X019260Y033260D03*
X019260Y034260D03*
X019260Y035260D03*
X019260Y036260D03*
X016260Y036260D03*
X016260Y035260D03*
X016260Y034260D03*
X016260Y033260D03*
X016260Y032260D03*
X016260Y031260D03*
X016260Y030260D03*
X016260Y029260D03*
X016260Y028260D03*
X016260Y027260D03*
X016260Y026260D03*
X016260Y025260D03*
X016260Y024260D03*
X016260Y023260D03*
X016760Y021260D03*
X018760Y021260D03*
X015260Y019760D03*
X014260Y019760D03*
X009260Y015260D03*
X008260Y015260D03*
X008260Y011260D03*
X009260Y011260D03*
D11*
X008260Y017760D03*
X008260Y018760D03*
X008260Y019760D03*
X003260Y024260D03*
X003260Y025260D03*
X003260Y026260D03*
X003260Y027260D03*
X003260Y028260D03*
X003260Y029260D03*
X003260Y030260D03*
X003260Y031260D03*
X003260Y032260D03*
X003260Y033260D03*
X003260Y034260D03*
X003260Y035260D03*
X003260Y036260D03*
X003260Y037260D03*
X003260Y038260D03*
X003260Y039260D03*
X003260Y040260D03*
X003260Y041260D03*
X003260Y042260D03*
X003260Y043260D03*
X002260Y043260D03*
X002260Y042260D03*
X002260Y041260D03*
X002260Y040260D03*
X002260Y039260D03*
X002260Y038260D03*
X002260Y037260D03*
X002260Y036260D03*
X002260Y035260D03*
X002260Y034260D03*
X002260Y033260D03*
X002260Y032260D03*
X002260Y031260D03*
X002260Y030260D03*
X002260Y029260D03*
X002260Y028260D03*
X002260Y027260D03*
X002260Y026260D03*
X002260Y025260D03*
X002260Y024260D03*
X002260Y011260D03*
X002260Y008260D03*
X002260Y005260D03*
X022260Y002260D03*
X025260Y002260D03*
X028260Y002260D03*
X031260Y002260D03*
X034260Y002260D03*
X037260Y002260D03*
X040260Y002260D03*
X043260Y002260D03*
X046260Y002260D03*
X049260Y002260D03*
X052260Y002260D03*
X055260Y002260D03*
X057260Y007260D03*
X057260Y010260D03*
X057260Y013260D03*
X057260Y016260D03*
X057260Y019260D03*
X055260Y041260D03*
X055260Y042260D03*
X054260Y042260D03*
X054260Y041260D03*
X053260Y041260D03*
X053260Y042260D03*
X052260Y042260D03*
X052260Y041260D03*
X051260Y041260D03*
X051260Y042260D03*
X050260Y042260D03*
X050260Y041260D03*
X049260Y041260D03*
X049260Y042260D03*
X048260Y042260D03*
X048260Y041260D03*
X047260Y041260D03*
X047260Y042260D03*
X046260Y042260D03*
X046260Y041260D03*
X045260Y041260D03*
X045260Y042260D03*
X044260Y042260D03*
X044260Y041260D03*
X043260Y041260D03*
X043260Y042260D03*
X042260Y042260D03*
X042260Y041260D03*
X041260Y041260D03*
X041260Y042260D03*
X040260Y042260D03*
X040260Y041260D03*
X039260Y041260D03*
X039260Y042260D03*
X038260Y042260D03*
X038260Y041260D03*
X034760Y041260D03*
X034760Y042260D03*
X034760Y043260D03*
X034760Y044260D03*
X034760Y045260D03*
X034760Y046260D03*
X034760Y047260D03*
X034760Y048260D03*
X031760Y048260D03*
X031760Y047260D03*
X031760Y046260D03*
X031760Y045260D03*
X031760Y044260D03*
X031760Y043260D03*
X031760Y042260D03*
X031760Y041260D03*
X028760Y041260D03*
X028760Y042260D03*
X028760Y043260D03*
X028760Y044260D03*
X028760Y045260D03*
X028760Y046260D03*
X028760Y047260D03*
X028760Y048260D03*
X025260Y048260D03*
X024260Y048260D03*
X024260Y049260D03*
X025260Y049260D03*
X024260Y050260D03*
X023260Y049260D03*
X023260Y048260D03*
X022260Y048260D03*
X021260Y048260D03*
X021260Y049260D03*
X022260Y049260D03*
X020260Y049260D03*
X020260Y048260D03*
X019260Y048260D03*
X018260Y048260D03*
X018260Y049260D03*
X019260Y049260D03*
X017260Y049260D03*
X017260Y048260D03*
X016260Y048260D03*
X015260Y048260D03*
X015260Y049260D03*
X016260Y049260D03*
X014260Y049260D03*
X014260Y048260D03*
X013260Y048260D03*
X012260Y048260D03*
X012260Y049260D03*
X013260Y049260D03*
X011260Y049260D03*
X011260Y048260D03*
X010260Y048260D03*
X009260Y048260D03*
X009260Y049260D03*
X010260Y049260D03*
X008260Y049260D03*
X008260Y048260D03*
X008260Y042260D03*
X008260Y041260D03*
X009260Y041260D03*
X009260Y042260D03*
X010260Y042260D03*
X010260Y041260D03*
X011260Y041260D03*
X011260Y042260D03*
X012260Y042260D03*
X012260Y041260D03*
X013260Y041260D03*
X013260Y042260D03*
X014260Y042260D03*
X014260Y041260D03*
X015260Y041260D03*
X015260Y042260D03*
X016260Y042260D03*
X016260Y041260D03*
X017260Y041260D03*
X017260Y042260D03*
X018260Y042260D03*
X018260Y041260D03*
X019260Y041260D03*
X019260Y042260D03*
X020260Y042260D03*
X020260Y041260D03*
X021260Y041260D03*
X021260Y042260D03*
X022260Y042260D03*
X022260Y041260D03*
X023260Y041260D03*
X023260Y042260D03*
X024260Y042260D03*
X024260Y041260D03*
X025260Y041260D03*
X025260Y042260D03*
X038260Y048260D03*
X039260Y048260D03*
X039260Y049260D03*
X038260Y049260D03*
X040260Y049260D03*
X040260Y048260D03*
X041260Y048260D03*
X042260Y048260D03*
X042260Y049260D03*
X041260Y049260D03*
X043260Y049260D03*
X043260Y048260D03*
X044260Y048260D03*
X045260Y048260D03*
X045260Y049260D03*
X044260Y049260D03*
X046260Y049260D03*
X046260Y048260D03*
X047260Y048260D03*
X048260Y048260D03*
X048260Y049260D03*
X047260Y049260D03*
X049260Y049260D03*
X049260Y048260D03*
X050260Y048260D03*
X051260Y048260D03*
X051260Y049260D03*
X050260Y049260D03*
X052260Y049260D03*
X052260Y048260D03*
X053260Y048260D03*
X054260Y048260D03*
X054260Y049260D03*
X053260Y049260D03*
X054260Y050260D03*
X055260Y049260D03*
X055260Y048260D03*
D12*
X039760Y018760D03*
X037760Y018760D03*
X037260Y014260D03*
X039260Y014260D03*
X018260Y017260D03*
X018260Y019260D03*
X010760Y018760D03*
X010760Y016760D03*
D13*
X009510Y054885D03*
X009510Y055510D03*
X009510Y056135D03*
X009510Y057385D03*
X009510Y057385D03*
X009510Y058010D03*
X008260Y058010D03*
X008260Y057385D03*
X008260Y056135D03*
X008260Y056135D03*
X008260Y055510D03*
X007010Y055510D03*
X007010Y054885D03*
X007010Y056135D03*
X007010Y057385D03*
X007010Y057385D03*
X007010Y058010D03*
X005760Y058010D03*
X005760Y057385D03*
X005760Y056135D03*
X005760Y056135D03*
X005760Y055510D03*
X005760Y058635D03*
X008260Y058635D03*
X010760Y058635D03*
X010760Y058010D03*
X010760Y057385D03*
X010760Y056135D03*
X010760Y056135D03*
X010760Y055510D03*
X012010Y055510D03*
X012010Y054885D03*
X012010Y056135D03*
X012010Y057385D03*
X012010Y057385D03*
X012010Y058010D03*
X013260Y058010D03*
X013260Y057385D03*
X013260Y056135D03*
X013260Y056135D03*
X013260Y055510D03*
X014510Y055510D03*
X014510Y054885D03*
X014510Y056135D03*
X014510Y057385D03*
X014510Y057385D03*
X014510Y058010D03*
X013260Y058635D03*
X015760Y058635D03*
X015760Y058010D03*
X015760Y057385D03*
X015760Y056135D03*
X015760Y056135D03*
X015760Y055510D03*
X017010Y055510D03*
X017010Y054885D03*
X017010Y056135D03*
X017010Y057385D03*
X017010Y057385D03*
X017010Y058010D03*
X018260Y058010D03*
X018260Y057385D03*
X018260Y056135D03*
X018260Y056135D03*
X018260Y055510D03*
X019510Y055510D03*
X019510Y054885D03*
X019510Y056135D03*
X019510Y057385D03*
X019510Y057385D03*
X019510Y058010D03*
X020760Y058010D03*
X020760Y057385D03*
X020760Y056135D03*
X020760Y056135D03*
X020760Y055510D03*
X022010Y055510D03*
X022010Y054885D03*
X022010Y056135D03*
X022010Y057385D03*
X022010Y057385D03*
X022010Y058010D03*
X023260Y058010D03*
X023260Y057385D03*
X023260Y056135D03*
X023260Y056135D03*
X023260Y055510D03*
X024510Y055510D03*
X024510Y054885D03*
X024510Y056135D03*
X024510Y057385D03*
X024510Y057385D03*
X024510Y058010D03*
X025760Y058010D03*
X025760Y057385D03*
X025760Y056135D03*
X025760Y056135D03*
X025760Y055510D03*
X027010Y055510D03*
X027010Y054885D03*
X027010Y056135D03*
X027010Y057385D03*
X027010Y057385D03*
X027010Y058010D03*
X025760Y058635D03*
X023260Y058635D03*
X020760Y058635D03*
X018260Y058635D03*
X033260Y058635D03*
X033260Y058010D03*
X033260Y057385D03*
X033260Y056135D03*
X033260Y056135D03*
X033260Y055510D03*
X034510Y055510D03*
X034510Y054885D03*
X034510Y056135D03*
X034510Y057385D03*
X034510Y057385D03*
X034510Y058010D03*
X035760Y058010D03*
X035760Y057385D03*
X035760Y056135D03*
X035760Y056135D03*
X035760Y055510D03*
X037010Y055510D03*
X037010Y054885D03*
X037010Y056135D03*
X037010Y057385D03*
X037010Y057385D03*
X037010Y058010D03*
X038260Y058010D03*
X038260Y057385D03*
X038260Y056135D03*
X038260Y056135D03*
X038260Y055510D03*
X039510Y055510D03*
X039510Y054885D03*
X039510Y056135D03*
X039510Y057385D03*
X039510Y057385D03*
X039510Y058010D03*
X040760Y058010D03*
X040760Y057385D03*
X040760Y056135D03*
X040760Y056135D03*
X040760Y055510D03*
X042010Y055510D03*
X042010Y054885D03*
X042010Y056135D03*
X042010Y057385D03*
X042010Y057385D03*
X042010Y058010D03*
X043260Y058010D03*
X043260Y057385D03*
X043260Y056135D03*
X043260Y056135D03*
X043260Y055510D03*
X044510Y055510D03*
X044510Y054885D03*
X044510Y056135D03*
X044510Y057385D03*
X044510Y057385D03*
X044510Y058010D03*
X045760Y058010D03*
X045760Y057385D03*
X045760Y056135D03*
X045760Y056135D03*
X045760Y055510D03*
X047010Y055510D03*
X047010Y054885D03*
X047010Y056135D03*
X047010Y057385D03*
X047010Y057385D03*
X047010Y058010D03*
X048260Y058010D03*
X048260Y057385D03*
X048260Y056135D03*
X048260Y056135D03*
X048260Y055510D03*
X049510Y055510D03*
X049510Y054885D03*
X049510Y056135D03*
X049510Y057385D03*
X049510Y057385D03*
X049510Y058010D03*
X050760Y058010D03*
X050760Y057385D03*
X050760Y056135D03*
X050760Y056135D03*
X050760Y055510D03*
X052010Y055510D03*
X052010Y054885D03*
X052010Y056135D03*
X052010Y057385D03*
X052010Y057385D03*
X052010Y058010D03*
X050760Y058635D03*
X048260Y058635D03*
X045760Y058635D03*
X043260Y058635D03*
X040760Y058635D03*
X038260Y058635D03*
X035760Y058635D03*
X053260Y058635D03*
X053260Y058010D03*
X053260Y057385D03*
X053260Y056135D03*
X053260Y056135D03*
X053260Y055510D03*
X054510Y055510D03*
X054510Y054885D03*
X054510Y056135D03*
X054510Y057385D03*
X054510Y057385D03*
X054510Y058010D03*
D14*
X036744Y016760D03*
X034776Y016760D03*
X021760Y015744D03*
X021760Y013776D03*
D15*
X012010Y005010D03*
X011385Y004385D03*
X011385Y003135D03*
X012010Y002510D03*
X010110Y002810D03*
X008260Y002810D03*
X006410Y002810D03*
X005135Y003135D03*
X004510Y002510D03*
X005135Y004385D03*
X004510Y005010D03*
X006410Y004710D03*
X008260Y004710D03*
X010110Y004710D03*
D16*
X005012Y013276D03*
X006193Y015244D03*
X003713Y015244D03*
D17*
X010260Y015260D03*
X011260Y015260D03*
X011260Y011260D03*
X010260Y011260D03*
D18*
X009760Y024260D03*
X010760Y024260D03*
X008760Y024260D03*
X007760Y024260D03*
X006760Y024260D03*
X005760Y024260D03*
D19*
X032260Y017885D03*
X033260Y017260D03*
X032260Y016635D03*
X033260Y015885D03*
X033260Y018635D03*
D20*
X000779Y000779D02*
X000654Y000951D01*
X000588Y001154D01*
X000580Y001260D01*
X000580Y017903D01*
X000784Y017550D01*
X001150Y017184D01*
X001600Y016924D01*
X002101Y016790D01*
X002619Y016790D01*
X003120Y016924D01*
X003570Y017184D01*
X003936Y017550D01*
X004196Y018000D01*
X004330Y018501D01*
X004330Y019019D01*
X004196Y019520D01*
X003936Y019970D01*
X003570Y020336D01*
X003120Y020596D01*
X002619Y020730D01*
X002101Y020730D01*
X001600Y020596D01*
X001150Y020336D01*
X000784Y019970D01*
X000580Y019617D01*
X000580Y059260D01*
X000588Y059366D01*
X000654Y059569D01*
X000779Y059741D01*
X000951Y059866D01*
X001154Y059932D01*
X001260Y059940D01*
X059260Y059940D01*
X059366Y059932D01*
X059569Y059866D01*
X059741Y059741D01*
X059866Y059569D01*
X059932Y059366D01*
X059940Y059260D01*
X059940Y051601D01*
X059917Y051657D01*
X059782Y051792D01*
X059605Y051865D01*
X054565Y051865D01*
X054371Y051945D01*
X054149Y051945D01*
X053943Y051860D01*
X053785Y051702D01*
X053700Y051496D01*
X053700Y051365D01*
X052320Y051365D01*
X052320Y051496D01*
X052235Y051702D01*
X052077Y051860D01*
X051871Y051945D01*
X051766Y051945D01*
X050474Y053237D01*
X050362Y053349D01*
X050215Y053410D01*
X050077Y053410D01*
X050235Y053568D01*
X050320Y053774D01*
X050320Y053996D01*
X050235Y054202D01*
X050077Y054360D01*
X049947Y054414D01*
X050119Y054585D01*
X050700Y054004D01*
X050700Y053899D01*
X050785Y053693D01*
X050943Y053535D01*
X051149Y053450D01*
X051371Y053450D01*
X051577Y053535D01*
X051735Y053693D01*
X051820Y053899D01*
X051820Y054121D01*
X051770Y054243D01*
X052276Y054243D01*
X052652Y054619D01*
X052652Y055151D01*
X052606Y055197D01*
X052635Y055226D01*
X052994Y054868D01*
X053526Y054868D01*
X053885Y055226D01*
X053914Y055197D01*
X053868Y055151D01*
X053868Y054619D01*
X054244Y054243D01*
X054587Y054243D01*
X055200Y053629D01*
X055200Y053524D01*
X055285Y053318D01*
X055443Y053160D01*
X055649Y053075D01*
X055871Y053075D01*
X056077Y053160D01*
X056235Y053318D01*
X056320Y053524D01*
X056320Y053746D01*
X056235Y053952D01*
X056077Y054110D01*
X055871Y054195D01*
X055766Y054195D01*
X055152Y054808D01*
X055152Y055151D01*
X055106Y055197D01*
X055152Y055244D01*
X055152Y055776D01*
X055106Y055823D01*
X055152Y055869D01*
X055152Y056401D01*
X054794Y056760D01*
X055152Y057119D01*
X055152Y057651D01*
X055106Y057697D01*
X055152Y057744D01*
X055152Y058276D01*
X054776Y058652D01*
X054244Y058652D01*
X053885Y058294D01*
X053856Y058323D01*
X053902Y058369D01*
X053902Y058901D01*
X053526Y059277D01*
X052994Y059277D01*
X052618Y058901D01*
X052618Y058369D01*
X052664Y058323D01*
X052635Y058294D01*
X052276Y058652D01*
X051744Y058652D01*
X051385Y058294D01*
X051356Y058323D01*
X051402Y058369D01*
X051402Y058901D01*
X051026Y059277D01*
X050494Y059277D01*
X050118Y058901D01*
X050118Y058369D01*
X050164Y058323D01*
X050135Y058294D01*
X049776Y058652D01*
X049244Y058652D01*
X048885Y058294D01*
X048856Y058323D01*
X048902Y058369D01*
X048902Y058901D01*
X048526Y059277D01*
X047994Y059277D01*
X047618Y058901D01*
X047618Y058369D01*
X047664Y058323D01*
X047635Y058294D01*
X047276Y058652D01*
X046744Y058652D01*
X046385Y058294D01*
X046356Y058323D01*
X046402Y058369D01*
X046402Y058901D01*
X046026Y059277D01*
X045494Y059277D01*
X045118Y058901D01*
X045118Y058369D01*
X045164Y058323D01*
X045135Y058294D01*
X044776Y058652D01*
X044244Y058652D01*
X043885Y058294D01*
X043856Y058323D01*
X043902Y058369D01*
X043902Y058901D01*
X043526Y059277D01*
X042994Y059277D01*
X042618Y058901D01*
X042618Y058369D01*
X042664Y058323D01*
X042635Y058294D01*
X042276Y058652D01*
X041744Y058652D01*
X041385Y058294D01*
X041356Y058323D01*
X041402Y058369D01*
X041402Y058901D01*
X041026Y059277D01*
X040494Y059277D01*
X040118Y058901D01*
X040118Y058369D01*
X040164Y058323D01*
X040135Y058294D01*
X039776Y058652D01*
X039244Y058652D01*
X038885Y058294D01*
X038856Y058323D01*
X038902Y058369D01*
X038902Y058901D01*
X038526Y059277D01*
X037994Y059277D01*
X037618Y058901D01*
X037618Y058369D01*
X037664Y058323D01*
X037635Y058294D01*
X037276Y058652D01*
X036744Y058652D01*
X036385Y058294D01*
X036356Y058323D01*
X036402Y058369D01*
X036402Y058901D01*
X036026Y059277D01*
X035494Y059277D01*
X035118Y058901D01*
X035118Y058369D01*
X035164Y058323D01*
X035135Y058294D01*
X034776Y058652D01*
X034244Y058652D01*
X033885Y058294D01*
X033856Y058323D01*
X033902Y058369D01*
X033902Y058901D01*
X033526Y059277D01*
X032994Y059277D01*
X032618Y058901D01*
X032618Y058369D01*
X032664Y058323D01*
X032618Y058276D01*
X032618Y057744D01*
X032664Y057697D01*
X032618Y057651D01*
X032618Y057119D01*
X032976Y056760D01*
X032618Y056401D01*
X032618Y055869D01*
X032664Y055823D01*
X032618Y055776D01*
X032618Y055244D01*
X032994Y054868D01*
X033212Y054868D01*
X035700Y052379D01*
X035700Y052274D01*
X035785Y052068D01*
X035943Y051910D01*
X036149Y051825D01*
X036371Y051825D01*
X036577Y051910D01*
X036735Y052068D01*
X036820Y052274D01*
X036820Y052496D01*
X036735Y052702D01*
X036577Y052860D01*
X036371Y052945D01*
X036266Y052945D01*
X034872Y054339D01*
X035152Y054619D01*
X035152Y054802D01*
X038575Y051379D01*
X038575Y051274D01*
X038589Y051240D01*
X033690Y051240D01*
X033496Y051320D01*
X033274Y051320D01*
X033068Y051235D01*
X032910Y051077D01*
X032825Y050871D01*
X032825Y050740D01*
X032709Y050740D01*
X031782Y051667D01*
X031605Y051740D01*
X025165Y051740D01*
X024988Y051667D01*
X024853Y051532D01*
X024201Y050880D01*
X024003Y050880D01*
X023640Y050517D01*
X023640Y050003D01*
X023883Y049760D01*
X023760Y049637D01*
X023517Y049880D01*
X023003Y049880D01*
X022760Y049637D01*
X022517Y049880D01*
X022160Y049880D01*
X022160Y053735D01*
X024590Y053735D01*
X024737Y053796D01*
X025808Y054868D01*
X026026Y054868D01*
X026385Y055226D01*
X026414Y055197D01*
X026368Y055151D01*
X026368Y054619D01*
X026744Y054243D01*
X027276Y054243D01*
X027652Y054619D01*
X027652Y055151D01*
X027606Y055197D01*
X027652Y055244D01*
X027652Y055776D01*
X027606Y055823D01*
X027652Y055869D01*
X027652Y056401D01*
X027294Y056760D01*
X027652Y057119D01*
X027652Y057651D01*
X027606Y057697D01*
X027652Y057744D01*
X027652Y058276D01*
X027276Y058652D01*
X026744Y058652D01*
X026385Y058294D01*
X026356Y058323D01*
X026402Y058369D01*
X026402Y058901D01*
X026026Y059277D01*
X025494Y059277D01*
X025118Y058901D01*
X025118Y058369D01*
X025164Y058323D01*
X025135Y058294D01*
X024776Y058652D01*
X024244Y058652D01*
X023885Y058294D01*
X023856Y058323D01*
X023902Y058369D01*
X023902Y058901D01*
X023526Y059277D01*
X022994Y059277D01*
X022618Y058901D01*
X022618Y058369D01*
X022664Y058323D01*
X022635Y058294D01*
X022276Y058652D01*
X021744Y058652D01*
X021385Y058294D01*
X021356Y058323D01*
X021402Y058369D01*
X021402Y058901D01*
X021026Y059277D01*
X020494Y059277D01*
X020118Y058901D01*
X020118Y058369D01*
X020164Y058323D01*
X020135Y058294D01*
X019776Y058652D01*
X019244Y058652D01*
X018885Y058294D01*
X018856Y058323D01*
X018902Y058369D01*
X018902Y058901D01*
X018526Y059277D01*
X017994Y059277D01*
X017618Y058901D01*
X017618Y058369D01*
X017664Y058323D01*
X017635Y058294D01*
X017276Y058652D01*
X016744Y058652D01*
X016385Y058294D01*
X016356Y058323D01*
X016402Y058369D01*
X016402Y058901D01*
X016026Y059277D01*
X015494Y059277D01*
X015118Y058901D01*
X015118Y058369D01*
X015164Y058323D01*
X015135Y058294D01*
X014776Y058652D01*
X014244Y058652D01*
X013885Y058294D01*
X013856Y058323D01*
X013902Y058369D01*
X013902Y058901D01*
X013526Y059277D01*
X012994Y059277D01*
X012618Y058901D01*
X012618Y058369D01*
X012664Y058323D01*
X012635Y058294D01*
X012276Y058652D01*
X011744Y058652D01*
X011385Y058294D01*
X011356Y058323D01*
X011402Y058369D01*
X011402Y058901D01*
X011026Y059277D01*
X010494Y059277D01*
X010118Y058901D01*
X010118Y058369D01*
X010164Y058323D01*
X010135Y058294D01*
X009776Y058652D01*
X009244Y058652D01*
X008885Y058294D01*
X008856Y058323D01*
X008902Y058369D01*
X008902Y058901D01*
X008526Y059277D01*
X007994Y059277D01*
X007618Y058901D01*
X007618Y058369D01*
X007664Y058323D01*
X007635Y058294D01*
X007276Y058652D01*
X006744Y058652D01*
X006385Y058294D01*
X006356Y058323D01*
X006402Y058369D01*
X006402Y058901D01*
X006026Y059277D01*
X005494Y059277D01*
X005118Y058901D01*
X005118Y058369D01*
X005164Y058323D01*
X005118Y058276D01*
X005118Y057744D01*
X005164Y057697D01*
X005118Y057651D01*
X005118Y057160D01*
X005055Y057160D01*
X004908Y057099D01*
X004796Y056987D01*
X004735Y056840D01*
X004735Y050055D01*
X004796Y049908D01*
X004908Y049796D01*
X004908Y049796D01*
X006171Y048533D01*
X006283Y048421D01*
X006430Y048360D01*
X007640Y048360D01*
X007640Y048160D01*
X001305Y048160D01*
X001158Y048099D01*
X001046Y047987D01*
X000985Y047840D01*
X000985Y031305D01*
X001046Y031158D01*
X001158Y031046D01*
X001158Y031046D01*
X001664Y030541D01*
X001640Y030517D01*
X001640Y030003D01*
X001883Y029760D01*
X001640Y029517D01*
X001640Y029003D01*
X001883Y028760D01*
X001640Y028517D01*
X001640Y028003D01*
X001883Y027760D01*
X001640Y027517D01*
X001640Y027003D01*
X001883Y026760D01*
X001640Y026517D01*
X001640Y026003D01*
X001883Y025760D01*
X001640Y025517D01*
X001640Y025003D01*
X001883Y024760D01*
X001640Y024517D01*
X001640Y024003D01*
X002003Y023640D01*
X002201Y023640D01*
X004488Y021353D01*
X004665Y021280D01*
X008200Y021280D01*
X008200Y021149D01*
X008285Y020943D01*
X008443Y020785D01*
X008636Y020705D01*
X009988Y019353D01*
X010133Y019293D01*
X009940Y019100D01*
X009940Y018420D01*
X010420Y017940D01*
X011100Y017940D01*
X011405Y018245D01*
X011405Y017275D01*
X011100Y017580D01*
X010420Y017580D01*
X009940Y017100D01*
X009940Y016420D01*
X010280Y016080D01*
X010280Y015959D01*
X010231Y015910D01*
X009991Y015910D01*
X009821Y015740D01*
X009740Y015740D01*
X009740Y017855D01*
X009667Y018032D01*
X008880Y018819D01*
X008880Y019017D01*
X008637Y019260D01*
X008880Y019503D01*
X008880Y020017D01*
X008517Y020380D01*
X008003Y020380D01*
X007640Y020017D01*
X007640Y019819D01*
X005988Y018167D01*
X005853Y018032D01*
X005780Y017855D01*
X005780Y016314D01*
X005750Y016314D01*
X005123Y015687D01*
X005123Y014801D01*
X005750Y014174D01*
X005780Y014174D01*
X005780Y014021D01*
X005455Y014346D01*
X004569Y014346D01*
X004240Y014017D01*
X004240Y014258D01*
X004783Y014801D01*
X004783Y015687D01*
X004156Y016314D01*
X003270Y016314D01*
X002643Y015687D01*
X002643Y014801D01*
X003270Y014174D01*
X003280Y014174D01*
X003280Y008790D01*
X003301Y008740D01*
X002657Y008740D01*
X002600Y008796D01*
X002667Y008863D01*
X002740Y009040D01*
X002740Y010863D01*
X002880Y011003D01*
X002880Y011517D01*
X002517Y011880D01*
X002003Y011880D01*
X001640Y011517D01*
X001640Y011003D01*
X001780Y010863D01*
X001780Y009334D01*
X001363Y008917D01*
X001228Y008782D01*
X001155Y008605D01*
X001155Y005790D01*
X001228Y005613D01*
X001363Y005478D01*
X001540Y005405D01*
X001700Y005405D01*
X001700Y005260D01*
X002260Y005260D01*
X002510Y005010D01*
X004510Y005010D01*
X004510Y004885D01*
X004635Y004885D01*
X005135Y004385D01*
X005135Y003135D01*
X005153Y003153D02*
X005117Y003153D01*
X005117Y004367D01*
X005153Y004367D01*
X005153Y003593D01*
X005153Y003153D01*
X005153Y003445D02*
X005117Y003445D01*
X005117Y003764D02*
X005153Y003764D01*
X005153Y004082D02*
X005117Y004082D01*
X004639Y003760D02*
X004343Y003463D01*
X004343Y003302D01*
X004182Y003302D01*
X003718Y002838D01*
X003718Y002528D01*
X004492Y002528D01*
X004492Y002492D01*
X004528Y002492D01*
X004528Y001718D01*
X004838Y001718D01*
X005302Y002182D01*
X005302Y002343D01*
X005463Y002343D01*
X005568Y002447D01*
X006057Y001958D01*
X006763Y001958D01*
X007262Y002457D01*
X007262Y003163D01*
X007257Y003168D01*
X007290Y003155D01*
X007408Y003155D01*
X007408Y002457D01*
X007907Y001958D01*
X008613Y001958D01*
X009112Y002457D01*
X009112Y003104D01*
X009258Y002959D01*
X009258Y002457D01*
X009757Y001958D01*
X010384Y001958D01*
X010978Y001363D01*
X011113Y001228D01*
X011290Y001155D01*
X053355Y001155D01*
X053532Y001228D01*
X054640Y002336D01*
X054640Y002003D01*
X055003Y001640D01*
X055517Y001640D01*
X055880Y002003D01*
X055880Y002517D01*
X055517Y002880D01*
X055184Y002880D01*
X059782Y007478D01*
X059917Y007613D01*
X059940Y007669D01*
X059940Y001260D01*
X059932Y001154D01*
X059866Y000951D01*
X059741Y000779D01*
X059569Y000654D01*
X059366Y000588D01*
X059260Y000580D01*
X001260Y000580D01*
X001154Y000588D01*
X000951Y000654D01*
X000779Y000779D01*
X000694Y000897D02*
X001235Y000897D01*
X001140Y000952D02*
X001370Y000819D01*
X001627Y000750D01*
X001893Y000750D01*
X002150Y000819D01*
X002380Y000952D01*
X002568Y001140D01*
X002701Y001370D01*
X002770Y001627D01*
X002770Y001893D01*
X002701Y002150D01*
X002568Y002380D01*
X002380Y002568D01*
X002150Y002701D01*
X001893Y002770D01*
X001627Y002770D01*
X001370Y002701D01*
X001140Y002568D01*
X000952Y002380D01*
X000819Y002150D01*
X000750Y001893D01*
X000750Y001627D01*
X000819Y001370D01*
X000952Y001140D01*
X001140Y000952D01*
X000908Y001216D02*
X000584Y001216D01*
X000580Y001534D02*
X000775Y001534D01*
X000750Y001853D02*
X000580Y001853D01*
X000580Y002171D02*
X000831Y002171D01*
X001061Y002490D02*
X000580Y002490D01*
X000580Y002808D02*
X003718Y002808D01*
X003718Y002492D02*
X003718Y002182D01*
X004182Y001718D01*
X004492Y001718D01*
X004492Y002492D01*
X003718Y002492D01*
X003718Y002490D02*
X002459Y002490D01*
X002689Y002171D02*
X003728Y002171D01*
X004047Y001853D02*
X002770Y001853D01*
X002745Y001534D02*
X010807Y001534D01*
X010978Y001363D02*
X010978Y001363D01*
X011143Y001216D02*
X002612Y001216D01*
X002285Y000897D02*
X058235Y000897D01*
X058140Y000952D02*
X058370Y000819D01*
X058627Y000750D01*
X058893Y000750D01*
X059150Y000819D01*
X059380Y000952D01*
X059568Y001140D01*
X059701Y001370D01*
X059770Y001627D01*
X059770Y001893D01*
X059701Y002150D01*
X059568Y002380D01*
X059380Y002568D01*
X059150Y002701D01*
X058893Y002770D01*
X058627Y002770D01*
X058370Y002701D01*
X058140Y002568D01*
X057952Y002380D01*
X057819Y002150D01*
X057750Y001893D01*
X057750Y001627D01*
X057819Y001370D01*
X057952Y001140D01*
X058140Y000952D01*
X057908Y001216D02*
X053502Y001216D01*
X053838Y001534D02*
X057775Y001534D01*
X057750Y001853D02*
X055729Y001853D01*
X055880Y002171D02*
X057831Y002171D01*
X058061Y002490D02*
X055880Y002490D01*
X055589Y002808D02*
X059940Y002808D01*
X059940Y002490D02*
X059459Y002490D01*
X059689Y002171D02*
X059940Y002171D01*
X059940Y001853D02*
X059770Y001853D01*
X059745Y001534D02*
X059940Y001534D01*
X059936Y001216D02*
X059612Y001216D01*
X059826Y000897D02*
X059285Y000897D01*
X059940Y003127D02*
X055430Y003127D01*
X055749Y003445D02*
X059940Y003445D01*
X059940Y003764D02*
X056067Y003764D01*
X056386Y004082D02*
X059940Y004082D01*
X059940Y004401D02*
X056704Y004401D01*
X057023Y004719D02*
X059940Y004719D01*
X059940Y005038D02*
X057341Y005038D01*
X057660Y005356D02*
X059940Y005356D01*
X059940Y005675D02*
X057978Y005675D01*
X058297Y005993D02*
X059940Y005993D01*
X059940Y006312D02*
X058615Y006312D01*
X058934Y006630D02*
X059940Y006630D01*
X059940Y006949D02*
X059252Y006949D01*
X059571Y007267D02*
X059940Y007267D01*
X059940Y007586D02*
X059889Y007586D01*
X059510Y007885D02*
X059510Y051385D01*
X054260Y051385D01*
X053717Y051539D02*
X052303Y051539D01*
X052080Y051857D02*
X053940Y051857D01*
X054260Y050260D02*
X032635Y050260D01*
X032573Y050198D01*
X031510Y051260D01*
X025260Y051260D01*
X024260Y050260D01*
X023640Y050265D02*
X022160Y050265D01*
X022160Y050583D02*
X023706Y050583D01*
X024223Y050902D02*
X022160Y050902D01*
X022160Y051220D02*
X024541Y051220D01*
X024860Y051539D02*
X022160Y051539D01*
X022160Y051857D02*
X036071Y051857D01*
X036449Y051857D02*
X038097Y051857D01*
X037779Y052176D02*
X036779Y052176D01*
X036820Y052494D02*
X037460Y052494D01*
X037142Y052813D02*
X036624Y052813D01*
X036823Y053131D02*
X036080Y053131D01*
X035761Y053450D02*
X036505Y053450D01*
X036186Y053768D02*
X035443Y053768D01*
X035124Y054087D02*
X035868Y054087D01*
X035549Y054405D02*
X034939Y054405D01*
X035152Y054724D02*
X035231Y054724D01*
X034311Y053768D02*
X024669Y053768D01*
X025027Y054087D02*
X033993Y054087D01*
X033674Y054405D02*
X027439Y054405D01*
X027652Y054724D02*
X033356Y054724D01*
X032819Y055042D02*
X027652Y055042D01*
X027652Y055361D02*
X032618Y055361D01*
X032618Y055679D02*
X027652Y055679D01*
X027652Y055998D02*
X032618Y055998D01*
X032618Y056316D02*
X027652Y056316D01*
X027419Y056635D02*
X032851Y056635D01*
X032783Y056953D02*
X027487Y056953D01*
X027652Y057272D02*
X032618Y057272D01*
X032618Y057590D02*
X027652Y057590D01*
X027652Y057909D02*
X032618Y057909D01*
X032618Y058227D02*
X027652Y058227D01*
X027383Y058546D02*
X032618Y058546D01*
X032618Y058864D02*
X026402Y058864D01*
X026402Y058546D02*
X026637Y058546D01*
X026121Y059183D02*
X032899Y059183D01*
X033621Y059183D02*
X035399Y059183D01*
X035118Y058864D02*
X033902Y058864D01*
X033902Y058546D02*
X034137Y058546D01*
X034883Y058546D02*
X035118Y058546D01*
X036121Y059183D02*
X037899Y059183D01*
X037618Y058864D02*
X036402Y058864D01*
X036402Y058546D02*
X036637Y058546D01*
X037383Y058546D02*
X037618Y058546D01*
X038621Y059183D02*
X040399Y059183D01*
X040118Y058864D02*
X038902Y058864D01*
X038902Y058546D02*
X039137Y058546D01*
X039883Y058546D02*
X040118Y058546D01*
X041121Y059183D02*
X042899Y059183D01*
X042618Y058864D02*
X041402Y058864D01*
X041402Y058546D02*
X041637Y058546D01*
X042383Y058546D02*
X042618Y058546D01*
X043621Y059183D02*
X045399Y059183D01*
X045118Y058864D02*
X043902Y058864D01*
X043902Y058546D02*
X044137Y058546D01*
X044883Y058546D02*
X045118Y058546D01*
X046121Y059183D02*
X047899Y059183D01*
X047618Y058864D02*
X046402Y058864D01*
X046402Y058546D02*
X046637Y058546D01*
X047383Y058546D02*
X047618Y058546D01*
X048621Y059183D02*
X050399Y059183D01*
X050118Y058864D02*
X048902Y058864D01*
X048902Y058546D02*
X049137Y058546D01*
X049883Y058546D02*
X050118Y058546D01*
X051121Y059183D02*
X052899Y059183D01*
X052618Y058864D02*
X051402Y058864D01*
X051402Y058546D02*
X051637Y058546D01*
X052383Y058546D02*
X052618Y058546D01*
X053621Y059183D02*
X057838Y059183D01*
X057819Y059150D02*
X057750Y058893D01*
X057750Y058627D01*
X057819Y058370D01*
X057952Y058140D01*
X058140Y057952D01*
X058370Y057819D01*
X058627Y057750D01*
X058893Y057750D01*
X059150Y057819D01*
X059380Y057952D01*
X059568Y058140D01*
X059701Y058370D01*
X059770Y058627D01*
X059770Y058893D01*
X059701Y059150D01*
X059568Y059380D01*
X059380Y059568D01*
X059150Y059701D01*
X058893Y059770D01*
X058627Y059770D01*
X058370Y059701D01*
X058140Y059568D01*
X057952Y059380D01*
X057819Y059150D01*
X057750Y058864D02*
X053902Y058864D01*
X053902Y058546D02*
X054137Y058546D01*
X054883Y058546D02*
X057772Y058546D01*
X057901Y058227D02*
X055152Y058227D01*
X055152Y057909D02*
X058215Y057909D01*
X059305Y057909D02*
X059940Y057909D01*
X059940Y058227D02*
X059619Y058227D01*
X059748Y058546D02*
X059940Y058546D01*
X059940Y058864D02*
X059770Y058864D01*
X059682Y059183D02*
X059940Y059183D01*
X059888Y059501D02*
X059447Y059501D01*
X059632Y059820D02*
X000888Y059820D01*
X001140Y059568D02*
X000952Y059380D01*
X000819Y059150D01*
X000750Y058893D01*
X000750Y058627D01*
X000819Y058370D01*
X000952Y058140D01*
X001140Y057952D01*
X001370Y057819D01*
X001627Y057750D01*
X001893Y057750D01*
X002150Y057819D01*
X002380Y057952D01*
X002568Y058140D01*
X002701Y058370D01*
X002770Y058627D01*
X002770Y058893D01*
X002701Y059150D01*
X002568Y059380D01*
X002380Y059568D01*
X002150Y059701D01*
X001893Y059770D01*
X001627Y059770D01*
X001370Y059701D01*
X001140Y059568D01*
X001073Y059501D02*
X000632Y059501D01*
X000580Y059183D02*
X000838Y059183D01*
X000750Y058864D02*
X000580Y058864D01*
X000580Y058546D02*
X000772Y058546D01*
X000901Y058227D02*
X000580Y058227D01*
X000580Y057909D02*
X001215Y057909D01*
X002305Y057909D02*
X005118Y057909D01*
X005118Y058227D02*
X002619Y058227D01*
X002748Y058546D02*
X005118Y058546D01*
X005118Y058864D02*
X002770Y058864D01*
X002682Y059183D02*
X005399Y059183D01*
X006121Y059183D02*
X007899Y059183D01*
X007618Y058864D02*
X006402Y058864D01*
X006402Y058546D02*
X006637Y058546D01*
X007383Y058546D02*
X007618Y058546D01*
X008621Y059183D02*
X010399Y059183D01*
X010118Y058864D02*
X008902Y058864D01*
X008902Y058546D02*
X009137Y058546D01*
X009883Y058546D02*
X010118Y058546D01*
X011121Y059183D02*
X012899Y059183D01*
X012618Y058864D02*
X011402Y058864D01*
X011402Y058546D02*
X011637Y058546D01*
X012383Y058546D02*
X012618Y058546D01*
X013621Y059183D02*
X015399Y059183D01*
X015118Y058864D02*
X013902Y058864D01*
X013902Y058546D02*
X014137Y058546D01*
X014883Y058546D02*
X015118Y058546D01*
X016121Y059183D02*
X017899Y059183D01*
X017618Y058864D02*
X016402Y058864D01*
X016402Y058546D02*
X016637Y058546D01*
X017383Y058546D02*
X017618Y058546D01*
X018621Y059183D02*
X020399Y059183D01*
X020118Y058864D02*
X018902Y058864D01*
X018902Y058546D02*
X019137Y058546D01*
X019883Y058546D02*
X020118Y058546D01*
X021121Y059183D02*
X022899Y059183D01*
X022618Y058864D02*
X021402Y058864D01*
X021402Y058546D02*
X021637Y058546D01*
X022383Y058546D02*
X022618Y058546D01*
X023621Y059183D02*
X025399Y059183D01*
X025118Y058864D02*
X023902Y058864D01*
X023902Y058546D02*
X024137Y058546D01*
X024883Y058546D02*
X025118Y058546D01*
X026201Y055042D02*
X026368Y055042D01*
X026368Y054724D02*
X025664Y054724D01*
X025346Y054405D02*
X026581Y054405D01*
X022160Y053450D02*
X034630Y053450D01*
X034948Y053131D02*
X022160Y053131D01*
X022160Y052813D02*
X035267Y052813D01*
X035585Y052494D02*
X022160Y052494D01*
X022160Y052176D02*
X035741Y052176D01*
X033385Y050760D02*
X046010Y050760D01*
X046135Y050885D01*
X056760Y050885D01*
X056760Y049510D01*
X056885Y049510D01*
X058260Y048135D01*
X058760Y048135D01*
X059010Y047885D01*
X059010Y009260D01*
X055260Y009260D01*
X054840Y008860D02*
X054680Y008860D01*
X054760Y008940D02*
X055020Y008680D01*
X055500Y008680D01*
X055600Y008780D01*
X059030Y008780D01*
X059030Y008084D01*
X053061Y002115D01*
X052880Y002115D01*
X052880Y002517D01*
X052517Y002880D01*
X052003Y002880D01*
X051640Y002517D01*
X051640Y002115D01*
X049880Y002115D01*
X049880Y002517D01*
X049517Y002880D01*
X049003Y002880D01*
X048640Y002517D01*
X048640Y002115D01*
X046880Y002115D01*
X046880Y002517D01*
X046517Y002880D01*
X046003Y002880D01*
X045640Y002517D01*
X045640Y002115D01*
X043880Y002115D01*
X043880Y002517D01*
X043517Y002880D01*
X043003Y002880D01*
X042640Y002517D01*
X042640Y002115D01*
X040880Y002115D01*
X040880Y002517D01*
X040517Y002880D01*
X040003Y002880D01*
X039640Y002517D01*
X039640Y002115D01*
X037880Y002115D01*
X037880Y002517D01*
X037517Y002880D01*
X037003Y002880D01*
X036640Y002517D01*
X036640Y002115D01*
X034880Y002115D01*
X034880Y002517D01*
X034517Y002880D01*
X034003Y002880D01*
X033640Y002517D01*
X033640Y002115D01*
X031880Y002115D01*
X031880Y002517D01*
X031517Y002880D01*
X031003Y002880D01*
X030640Y002517D01*
X030640Y002115D01*
X028880Y002115D01*
X028880Y002517D01*
X028517Y002880D01*
X028003Y002880D01*
X027640Y002517D01*
X027640Y002115D01*
X025880Y002115D01*
X025880Y002517D01*
X025517Y002880D01*
X025003Y002880D01*
X024640Y002517D01*
X024640Y002115D01*
X022880Y002115D01*
X022880Y002517D01*
X022517Y002880D01*
X022003Y002880D01*
X021640Y002517D01*
X021640Y002115D01*
X012736Y002115D01*
X012802Y002182D01*
X012802Y002492D01*
X012028Y002492D01*
X012028Y002528D01*
X012802Y002528D01*
X012802Y002838D01*
X012338Y003302D01*
X012177Y003302D01*
X012177Y003463D01*
X011881Y003760D01*
X012177Y004057D01*
X012177Y004218D01*
X012338Y004218D01*
X012802Y004682D01*
X012802Y004992D01*
X012028Y004992D01*
X012028Y005028D01*
X012802Y005028D01*
X012802Y005338D01*
X012736Y005405D01*
X021686Y005405D01*
X022728Y004363D01*
X022863Y004228D01*
X023040Y004155D01*
X046730Y004155D01*
X046907Y004228D01*
X051359Y008680D01*
X051500Y008680D01*
X051760Y008940D01*
X052020Y008680D01*
X052500Y008680D01*
X052840Y009020D01*
X052840Y009500D01*
X052500Y009840D01*
X052020Y009840D01*
X051760Y009580D01*
X051500Y009840D01*
X051020Y009840D01*
X050680Y009500D01*
X050680Y009359D01*
X046831Y005510D01*
X046500Y005840D01*
X046020Y005840D01*
X045680Y005500D01*
X045680Y005115D01*
X043840Y005115D01*
X043840Y005500D01*
X043500Y005840D01*
X043020Y005840D01*
X042920Y005740D01*
X037600Y005740D01*
X037500Y005840D01*
X037020Y005840D01*
X036920Y005740D01*
X031600Y005740D01*
X031500Y005840D01*
X031020Y005840D01*
X030920Y005740D01*
X025600Y005740D01*
X025500Y005840D01*
X025020Y005840D01*
X024920Y005740D01*
X023459Y005740D01*
X022510Y006689D01*
X022840Y007020D01*
X022840Y007500D01*
X022580Y007760D01*
X022840Y008020D01*
X022840Y008274D01*
X023426Y008860D01*
X024840Y008860D01*
X025020Y008680D01*
X025500Y008680D01*
X025840Y009020D01*
X025840Y009360D01*
X025969Y009360D01*
X027755Y007575D01*
X027680Y007500D01*
X027680Y007020D01*
X028020Y006680D01*
X028500Y006680D01*
X028840Y007020D01*
X028840Y007360D01*
X033680Y007360D01*
X033680Y007020D01*
X034020Y006680D01*
X034500Y006680D01*
X034840Y007020D01*
X034840Y007360D01*
X039594Y007360D01*
X039680Y007274D01*
X039680Y007020D01*
X040020Y006680D01*
X040500Y006680D01*
X040840Y007020D01*
X040840Y007500D01*
X040580Y007760D01*
X040840Y008020D01*
X040840Y008274D01*
X041426Y008860D01*
X042840Y008860D01*
X043020Y008680D01*
X043500Y008680D01*
X043840Y009020D01*
X043840Y009500D01*
X043500Y009840D01*
X043020Y009840D01*
X042840Y009660D01*
X041180Y009660D01*
X041033Y009599D01*
X040921Y009487D01*
X040921Y009487D01*
X040274Y008840D01*
X040020Y008840D01*
X039680Y008500D01*
X039680Y008160D01*
X034840Y008160D01*
X034840Y008274D01*
X035426Y008860D01*
X036840Y008860D01*
X037020Y008680D01*
X037500Y008680D01*
X037840Y009020D01*
X037840Y009500D01*
X037500Y009840D01*
X037020Y009840D01*
X036840Y009660D01*
X035180Y009660D01*
X035033Y009599D01*
X034921Y009487D01*
X034274Y008840D01*
X034020Y008840D01*
X033680Y008500D01*
X033680Y008160D01*
X028840Y008160D01*
X028840Y008274D01*
X029426Y008860D01*
X030840Y008860D01*
X031020Y008680D01*
X031500Y008680D01*
X031840Y009020D01*
X031840Y009500D01*
X031500Y009840D01*
X031184Y009840D01*
X031201Y009870D01*
X031270Y010127D01*
X031270Y010393D01*
X031201Y010650D01*
X031184Y010680D01*
X031500Y010680D01*
X031840Y011020D01*
X031840Y011500D01*
X031580Y011760D01*
X031840Y012020D01*
X031840Y012500D01*
X031580Y012760D01*
X031840Y013020D01*
X031840Y013500D01*
X031500Y013840D01*
X031020Y013840D01*
X030680Y013500D01*
X030680Y013020D01*
X030940Y012760D01*
X030680Y012500D01*
X030680Y012020D01*
X030940Y011760D01*
X030680Y011500D01*
X030680Y011184D01*
X030650Y011201D01*
X030393Y011270D01*
X030127Y011270D01*
X029870Y011201D01*
X029640Y011068D01*
X029452Y010880D01*
X029319Y010650D01*
X029250Y010393D01*
X029250Y010127D01*
X029319Y009870D01*
X029440Y009660D01*
X029180Y009660D01*
X029033Y009599D01*
X028921Y009487D01*
X028274Y008840D01*
X028020Y008840D01*
X027820Y008640D01*
X026362Y010099D01*
X026215Y010160D01*
X019426Y010160D01*
X019320Y010266D01*
X019320Y010371D01*
X019235Y010577D01*
X019077Y010735D01*
X018871Y010820D01*
X018649Y010820D01*
X018443Y010735D01*
X018285Y010577D01*
X018200Y010371D01*
X018200Y010149D01*
X018285Y009943D01*
X018443Y009785D01*
X018649Y009700D01*
X018754Y009700D01*
X018921Y009533D01*
X019033Y009421D01*
X019168Y009365D01*
X004240Y009365D01*
X004240Y012535D01*
X004569Y012206D01*
X005455Y012206D01*
X005780Y012531D01*
X005780Y010665D01*
X005853Y010488D01*
X005988Y010353D01*
X006165Y010280D01*
X007436Y010280D01*
X007488Y010228D01*
X007665Y010155D01*
X007855Y010155D01*
X015355Y010155D01*
X015532Y010228D01*
X015667Y010363D01*
X015740Y010540D01*
X015740Y011420D01*
X015840Y011520D01*
X015840Y012000D01*
X015500Y012340D01*
X015020Y012340D01*
X014680Y012000D01*
X014680Y011632D01*
X014577Y011735D01*
X014371Y011820D01*
X014149Y011820D01*
X013955Y011740D01*
X012365Y011740D01*
X012365Y018980D01*
X012292Y019157D01*
X012157Y019292D01*
X011417Y020032D01*
X011282Y020167D01*
X011105Y020240D01*
X010459Y020240D01*
X009315Y021384D01*
X009235Y021577D01*
X009077Y021735D01*
X008961Y021783D01*
X010822Y023643D01*
X011016Y023643D01*
X011294Y023922D01*
X013405Y021811D01*
X013405Y019790D01*
X013478Y019613D01*
X013613Y019478D01*
X013790Y019405D01*
X013795Y019405D01*
X014020Y019180D01*
X014161Y019180D01*
X014478Y018863D01*
X014613Y018728D01*
X014790Y018655D01*
X014976Y018655D01*
X012863Y016542D01*
X012728Y016407D01*
X012655Y016230D01*
X012655Y013040D01*
X012728Y012863D01*
X012863Y012728D01*
X013040Y012655D01*
X014105Y012655D01*
X014282Y012728D01*
X014734Y013180D01*
X015000Y013180D01*
X015340Y013520D01*
X015340Y013661D01*
X015939Y014260D01*
X015940Y014260D01*
X015680Y014000D01*
X015680Y013520D01*
X015940Y013260D01*
X015680Y013000D01*
X014554Y013000D01*
X014169Y012682D02*
X015680Y012682D01*
X015680Y012520D02*
X016020Y012180D01*
X016500Y012180D01*
X016680Y012360D01*
X018840Y012360D01*
X018940Y012260D01*
X018680Y012000D01*
X018680Y011520D01*
X019020Y011180D01*
X019500Y011180D01*
X019840Y011520D01*
X019840Y012000D01*
X019580Y012260D01*
X019760Y012440D01*
X020020Y012180D01*
X020500Y012180D01*
X020840Y012520D01*
X020840Y012774D01*
X021376Y013311D01*
X021511Y013176D01*
X022009Y013176D01*
X022360Y013527D01*
X022360Y014024D01*
X022246Y014138D01*
X022399Y014075D01*
X022621Y014075D01*
X022827Y014160D01*
X022985Y014318D01*
X023070Y014524D01*
X023070Y014746D01*
X023023Y014860D01*
X036700Y014860D01*
X036440Y014600D01*
X036440Y013920D01*
X036920Y013440D01*
X037600Y013440D01*
X038080Y013920D01*
X038080Y014600D01*
X037820Y014860D01*
X038785Y014860D01*
X038500Y014575D01*
X038500Y014260D01*
X039260Y014260D01*
X036260Y011260D01*
X035260Y011260D01*
X035780Y011260D01*
X035780Y011475D01*
X035538Y011718D01*
X035840Y012020D01*
X035840Y012500D01*
X035580Y012760D01*
X035840Y013020D01*
X035840Y013500D01*
X035580Y013760D01*
X035840Y014020D01*
X035840Y014500D01*
X035500Y014840D01*
X035020Y014840D01*
X034680Y014500D01*
X034680Y014020D01*
X034940Y013760D01*
X034680Y013500D01*
X034680Y013020D01*
X034940Y012760D01*
X034680Y012500D01*
X034680Y012020D01*
X034982Y011718D01*
X034740Y011475D01*
X034740Y011260D01*
X035260Y011260D01*
X035260Y011260D01*
X035260Y011260D01*
X035780Y011260D01*
X035780Y011045D01*
X035475Y010740D01*
X035260Y010740D01*
X035260Y011260D01*
X035260Y011260D01*
X034740Y011260D01*
X034740Y011045D01*
X035045Y010740D01*
X035260Y010740D01*
X035260Y011260D01*
X035260Y011089D02*
X035260Y011089D01*
X035260Y010771D02*
X035260Y010771D01*
X035506Y010771D02*
X056184Y010771D01*
X055865Y011089D02*
X035780Y011089D01*
X035780Y011408D02*
X055547Y011408D01*
X055228Y011726D02*
X035546Y011726D01*
X035840Y012045D02*
X054910Y012045D01*
X054591Y012363D02*
X035840Y012363D01*
X035659Y012682D02*
X054273Y012682D01*
X053954Y013000D02*
X035820Y013000D01*
X035840Y013319D02*
X053636Y013319D01*
X053317Y013637D02*
X039712Y013637D01*
X039575Y013500D02*
X040020Y013945D01*
X040020Y014260D01*
X040020Y014575D01*
X039735Y014860D01*
X052094Y014860D01*
X056640Y010314D01*
X056640Y010003D01*
X056903Y009740D01*
X055600Y009740D01*
X055500Y009840D01*
X055020Y009840D01*
X054760Y009580D01*
X054500Y009840D01*
X054020Y009840D01*
X053680Y009500D01*
X053680Y009020D01*
X054020Y008680D01*
X054500Y008680D01*
X054760Y008940D01*
X054525Y009815D02*
X054995Y009815D01*
X055525Y009815D02*
X056828Y009815D01*
X056640Y010134D02*
X031270Y010134D01*
X031254Y010452D02*
X056502Y010452D01*
X056997Y011089D02*
X058530Y011089D01*
X058530Y010771D02*
X057626Y010771D01*
X057517Y010880D02*
X057206Y010880D01*
X052487Y015599D01*
X052340Y015660D01*
X033857Y015660D01*
X033857Y016132D01*
X033755Y016235D01*
X034215Y016235D01*
X034362Y016296D01*
X034376Y016311D01*
X034527Y016160D01*
X035024Y016160D01*
X035376Y016511D01*
X035376Y017009D01*
X035024Y017360D01*
X034527Y017360D01*
X034327Y017160D01*
X034180Y017160D01*
X034033Y017099D01*
X033969Y017035D01*
X033857Y017035D01*
X033857Y017405D01*
X038980Y017405D01*
X039157Y017478D01*
X039292Y017613D01*
X039619Y017940D01*
X040100Y017940D01*
X040580Y018420D01*
X040580Y019100D01*
X040570Y019110D01*
X050844Y019110D01*
X056640Y013314D01*
X056640Y013003D01*
X057003Y012640D01*
X057517Y012640D01*
X057880Y013003D01*
X057880Y013517D01*
X057517Y013880D01*
X057206Y013880D01*
X051237Y019849D01*
X051210Y019860D01*
X056094Y019860D01*
X056640Y019314D01*
X056640Y019003D01*
X057003Y018640D01*
X057360Y018640D01*
X057360Y016880D01*
X057003Y016880D01*
X056640Y016517D01*
X056640Y016003D01*
X057003Y015640D01*
X057517Y015640D01*
X057737Y015860D01*
X057840Y015860D01*
X057987Y015921D01*
X058099Y016033D01*
X058160Y016180D01*
X058160Y019590D01*
X058099Y019737D01*
X057987Y019849D01*
X056737Y021099D01*
X056590Y021160D01*
X055340Y021160D01*
X055340Y021500D01*
X055060Y021780D01*
X055605Y021780D01*
X055782Y021853D01*
X058530Y024601D01*
X058530Y009740D01*
X057617Y009740D01*
X057880Y010003D01*
X057880Y010517D01*
X057517Y010880D01*
X057880Y010452D02*
X058530Y010452D01*
X058530Y010134D02*
X057880Y010134D01*
X057692Y009815D02*
X058530Y009815D01*
X059030Y008541D02*
X051220Y008541D01*
X050901Y008223D02*
X059030Y008223D01*
X058850Y007904D02*
X050583Y007904D01*
X050264Y007586D02*
X056794Y007586D01*
X056700Y007492D02*
X056700Y007260D01*
X057260Y007260D01*
X057820Y007260D01*
X057820Y007492D01*
X057492Y007820D01*
X057260Y007820D01*
X057260Y007260D01*
X057260Y007260D01*
X057260Y007260D01*
X057820Y007260D01*
X057820Y007028D01*
X057492Y006700D01*
X057260Y006700D01*
X057260Y007260D01*
X057260Y007260D01*
X057260Y007260D01*
X057260Y007820D01*
X057028Y007820D01*
X056700Y007492D01*
X056700Y007267D02*
X049946Y007267D01*
X049627Y006949D02*
X056780Y006949D01*
X056700Y007028D02*
X057028Y006700D01*
X057260Y006700D01*
X057260Y007260D01*
X056700Y007260D01*
X056700Y007028D01*
X057260Y006949D02*
X057260Y006949D01*
X057260Y007267D02*
X057260Y007267D01*
X057260Y007586D02*
X057260Y007586D01*
X057726Y007586D02*
X058532Y007586D01*
X058213Y007267D02*
X057820Y007267D01*
X057895Y006949D02*
X057740Y006949D01*
X057576Y006630D02*
X049309Y006630D01*
X048990Y006312D02*
X057258Y006312D01*
X056939Y005993D02*
X048672Y005993D01*
X048854Y005675D02*
X048353Y005675D01*
X048680Y005500D02*
X048680Y005020D01*
X049020Y004680D01*
X049500Y004680D01*
X049840Y005020D01*
X049840Y005500D01*
X049500Y005840D01*
X049020Y005840D01*
X048680Y005500D01*
X048680Y005356D02*
X048035Y005356D01*
X047716Y005038D02*
X048680Y005038D01*
X048981Y004719D02*
X047398Y004719D01*
X047079Y004401D02*
X055347Y004401D01*
X055500Y004680D02*
X055840Y005020D01*
X055840Y005500D01*
X055500Y005840D01*
X055020Y005840D01*
X054760Y005580D01*
X054500Y005840D01*
X054020Y005840D01*
X053680Y005500D01*
X053680Y005020D01*
X054020Y004680D01*
X054500Y004680D01*
X054760Y004940D01*
X055020Y004680D01*
X055500Y004680D01*
X055539Y004719D02*
X055665Y004719D01*
X055840Y005038D02*
X055984Y005038D01*
X055840Y005356D02*
X056302Y005356D01*
X056621Y005675D02*
X055666Y005675D01*
X054854Y005675D02*
X054666Y005675D01*
X053854Y005675D02*
X052666Y005675D01*
X052500Y005840D02*
X052840Y005500D01*
X052840Y005020D01*
X052500Y004680D01*
X052020Y004680D01*
X051760Y004940D01*
X051500Y004680D01*
X051020Y004680D01*
X050680Y005020D01*
X050680Y005500D01*
X051020Y005840D01*
X051500Y005840D01*
X051760Y005580D01*
X052020Y005840D01*
X052500Y005840D01*
X052840Y005356D02*
X053680Y005356D01*
X053680Y005038D02*
X052840Y005038D01*
X052539Y004719D02*
X053981Y004719D01*
X054539Y004719D02*
X054981Y004719D01*
X055028Y004082D02*
X012177Y004082D01*
X011884Y003764D02*
X054710Y003764D01*
X054391Y003445D02*
X012177Y003445D01*
X012514Y003127D02*
X054073Y003127D01*
X053754Y002808D02*
X052589Y002808D01*
X052880Y002490D02*
X053436Y002490D01*
X053117Y002171D02*
X052880Y002171D01*
X053260Y001635D02*
X059510Y007885D01*
X058530Y011408D02*
X056678Y011408D01*
X056360Y011726D02*
X058530Y011726D01*
X058530Y012045D02*
X056041Y012045D01*
X055723Y012363D02*
X058530Y012363D01*
X058530Y012682D02*
X057558Y012682D01*
X057877Y013000D02*
X058530Y013000D01*
X058530Y013319D02*
X057880Y013319D01*
X057760Y013637D02*
X058530Y013637D01*
X058530Y013956D02*
X057130Y013956D01*
X056812Y014274D02*
X058530Y014274D01*
X058530Y014593D02*
X056493Y014593D01*
X056175Y014911D02*
X058530Y014911D01*
X058530Y015230D02*
X055856Y015230D01*
X055538Y015548D02*
X058530Y015548D01*
X058530Y015867D02*
X057855Y015867D01*
X058160Y016185D02*
X058530Y016185D01*
X058530Y016504D02*
X058160Y016504D01*
X058160Y016822D02*
X058530Y016822D01*
X058530Y017141D02*
X058160Y017141D01*
X058160Y017459D02*
X058530Y017459D01*
X058530Y017778D02*
X058160Y017778D01*
X058160Y018096D02*
X058530Y018096D01*
X058530Y018415D02*
X058160Y018415D01*
X058160Y018733D02*
X058530Y018733D01*
X058530Y019052D02*
X058160Y019052D01*
X058160Y019370D02*
X058530Y019370D01*
X058530Y019689D02*
X058119Y019689D01*
X057829Y020007D02*
X058530Y020007D01*
X058530Y020326D02*
X057510Y020326D01*
X057192Y020644D02*
X058530Y020644D01*
X058530Y020963D02*
X056873Y020963D01*
X055847Y021918D02*
X058530Y021918D01*
X058530Y021600D02*
X055241Y021600D01*
X055340Y021281D02*
X058530Y021281D01*
X058530Y022237D02*
X056165Y022237D01*
X056484Y022555D02*
X058530Y022555D01*
X058530Y022874D02*
X056802Y022874D01*
X057121Y023192D02*
X058530Y023192D01*
X058530Y023511D02*
X057439Y023511D01*
X057758Y023829D02*
X058530Y023829D01*
X058530Y024148D02*
X058076Y024148D01*
X058395Y024466D02*
X058530Y024466D01*
X058510Y025260D02*
X058510Y047635D01*
X054885Y047635D01*
X054260Y048260D01*
X055260Y048260D02*
X056260Y049260D01*
X056510Y049260D01*
X056760Y049510D01*
X059625Y051857D02*
X059940Y051857D01*
X059940Y052176D02*
X051535Y052176D01*
X051217Y052494D02*
X059940Y052494D01*
X059940Y052813D02*
X050898Y052813D01*
X050580Y053131D02*
X055513Y053131D01*
X055231Y053450D02*
X050116Y053450D01*
X050077Y053410D02*
X050077Y053410D01*
X050318Y053768D02*
X050754Y053768D01*
X050618Y054087D02*
X050283Y054087D01*
X050299Y054405D02*
X049968Y054405D01*
X050474Y053237D02*
X050474Y053237D01*
X051766Y053768D02*
X055061Y053768D01*
X054743Y054087D02*
X051820Y054087D01*
X052439Y054405D02*
X054081Y054405D01*
X053868Y054724D02*
X052652Y054724D01*
X052652Y055042D02*
X052819Y055042D01*
X053701Y055042D02*
X053868Y055042D01*
X055152Y055042D02*
X059940Y055042D01*
X059940Y054724D02*
X055237Y054724D01*
X055556Y054405D02*
X059940Y054405D01*
X059940Y054087D02*
X056100Y054087D01*
X056311Y053768D02*
X059940Y053768D01*
X059940Y053450D02*
X056289Y053450D01*
X056007Y053131D02*
X059940Y053131D01*
X059940Y055361D02*
X055152Y055361D01*
X055152Y055679D02*
X059940Y055679D01*
X059940Y055998D02*
X055152Y055998D01*
X055152Y056316D02*
X059940Y056316D01*
X059940Y056635D02*
X054919Y056635D01*
X054987Y056953D02*
X059940Y056953D01*
X059940Y057272D02*
X055152Y057272D01*
X055152Y057590D02*
X059940Y057590D01*
X058073Y059501D02*
X002447Y059501D01*
X000580Y057590D02*
X005118Y057590D01*
X005118Y057272D02*
X000580Y057272D01*
X000580Y056953D02*
X004782Y056953D01*
X004735Y056635D02*
X000580Y056635D01*
X000580Y056316D02*
X004735Y056316D01*
X004735Y055998D02*
X000580Y055998D01*
X000580Y055679D02*
X004735Y055679D01*
X004735Y055361D02*
X000580Y055361D01*
X000580Y055042D02*
X004735Y055042D01*
X004735Y054724D02*
X000580Y054724D01*
X000580Y054405D02*
X004735Y054405D01*
X004735Y054087D02*
X000580Y054087D01*
X000580Y053768D02*
X004735Y053768D01*
X004735Y053450D02*
X000580Y053450D01*
X000580Y053131D02*
X004735Y053131D01*
X004735Y052813D02*
X000580Y052813D01*
X000580Y052494D02*
X004735Y052494D01*
X004735Y052176D02*
X000580Y052176D01*
X000580Y051857D02*
X004735Y051857D01*
X004735Y051539D02*
X000580Y051539D01*
X000580Y051220D02*
X004735Y051220D01*
X004735Y050902D02*
X000580Y050902D01*
X000580Y050583D02*
X004735Y050583D01*
X004735Y050265D02*
X000580Y050265D01*
X000580Y049946D02*
X004780Y049946D01*
X005077Y049628D02*
X000580Y049628D01*
X000580Y049309D02*
X005395Y049309D01*
X005714Y048991D02*
X000580Y048991D01*
X000580Y048672D02*
X006032Y048672D01*
X006171Y048533D02*
X006171Y048533D01*
X007640Y048354D02*
X000580Y048354D01*
X000580Y048035D02*
X001094Y048035D01*
X000985Y047717D02*
X000580Y047717D01*
X000580Y047398D02*
X000985Y047398D01*
X000985Y047080D02*
X000580Y047080D01*
X000580Y046761D02*
X000985Y046761D01*
X000985Y046443D02*
X000580Y046443D01*
X000580Y046124D02*
X000985Y046124D01*
X000985Y045806D02*
X000580Y045806D01*
X000580Y045487D02*
X000985Y045487D01*
X000985Y045169D02*
X000580Y045169D01*
X000580Y044850D02*
X000985Y044850D01*
X000985Y044532D02*
X000580Y044532D01*
X000580Y044213D02*
X000985Y044213D01*
X000985Y043895D02*
X000580Y043895D01*
X000580Y043576D02*
X000985Y043576D01*
X000985Y043258D02*
X000580Y043258D01*
X000580Y042939D02*
X000985Y042939D01*
X000985Y042621D02*
X000580Y042621D01*
X000580Y042302D02*
X000985Y042302D01*
X000985Y041984D02*
X000580Y041984D01*
X000580Y041665D02*
X000985Y041665D01*
X000985Y041347D02*
X000580Y041347D01*
X000580Y041028D02*
X000985Y041028D01*
X000985Y040710D02*
X000580Y040710D01*
X000580Y040391D02*
X000985Y040391D01*
X000985Y040073D02*
X000580Y040073D01*
X000580Y039754D02*
X000985Y039754D01*
X000985Y039436D02*
X000580Y039436D01*
X000580Y039117D02*
X000985Y039117D01*
X000985Y038799D02*
X000580Y038799D01*
X000580Y038480D02*
X000985Y038480D01*
X000985Y038162D02*
X000580Y038162D01*
X000580Y037843D02*
X000985Y037843D01*
X000985Y037525D02*
X000580Y037525D01*
X000580Y037206D02*
X000985Y037206D01*
X000985Y036888D02*
X000580Y036888D01*
X000580Y036569D02*
X000985Y036569D01*
X000985Y036251D02*
X000580Y036251D01*
X000580Y035932D02*
X000985Y035932D01*
X000985Y035614D02*
X000580Y035614D01*
X000580Y035295D02*
X000985Y035295D01*
X000985Y034977D02*
X000580Y034977D01*
X000580Y034658D02*
X000985Y034658D01*
X000985Y034340D02*
X000580Y034340D01*
X000580Y034021D02*
X000985Y034021D01*
X000985Y033703D02*
X000580Y033703D01*
X000580Y033384D02*
X000985Y033384D01*
X000985Y033066D02*
X000580Y033066D01*
X000580Y032747D02*
X000985Y032747D01*
X000985Y032429D02*
X000580Y032429D01*
X000580Y032110D02*
X000985Y032110D01*
X000985Y031792D02*
X000580Y031792D01*
X000580Y031473D02*
X000985Y031473D01*
X001050Y031155D02*
X000580Y031155D01*
X000580Y030836D02*
X001368Y030836D01*
X001641Y030518D02*
X000580Y030518D01*
X000580Y030199D02*
X001640Y030199D01*
X001763Y029881D02*
X000580Y029881D01*
X000580Y029562D02*
X001685Y029562D01*
X001640Y029244D02*
X000580Y029244D01*
X000580Y028925D02*
X001718Y028925D01*
X001730Y028607D02*
X000580Y028607D01*
X000580Y028288D02*
X001640Y028288D01*
X001674Y027970D02*
X000580Y027970D01*
X000580Y027651D02*
X001774Y027651D01*
X001640Y027333D02*
X000580Y027333D01*
X000580Y027014D02*
X001640Y027014D01*
X001819Y026696D02*
X000580Y026696D01*
X000580Y026377D02*
X001640Y026377D01*
X001640Y026059D02*
X000580Y026059D01*
X000580Y025740D02*
X001863Y025740D01*
X001640Y025422D02*
X000580Y025422D01*
X000580Y025103D02*
X001640Y025103D01*
X001859Y024785D02*
X000580Y024785D01*
X000580Y024466D02*
X001640Y024466D01*
X001640Y024148D02*
X000580Y024148D01*
X000580Y023829D02*
X001814Y023829D01*
X002331Y023511D02*
X000580Y023511D01*
X000580Y023192D02*
X002649Y023192D01*
X002968Y022874D02*
X000580Y022874D01*
X000580Y022555D02*
X003286Y022555D01*
X003605Y022237D02*
X000580Y022237D01*
X000580Y021918D02*
X003923Y021918D01*
X004242Y021600D02*
X000580Y021600D01*
X000580Y021281D02*
X004662Y021281D01*
X004760Y021760D02*
X002260Y024260D01*
X003538Y023661D02*
X003880Y024003D01*
X003880Y024517D01*
X003637Y024760D01*
X003880Y025003D01*
X003880Y025517D01*
X003637Y025760D01*
X003880Y026003D01*
X003880Y026517D01*
X003637Y026760D01*
X003880Y027003D01*
X003880Y027461D01*
X006527Y024814D01*
X006302Y024590D01*
X006016Y024877D01*
X005504Y024877D01*
X005143Y024516D01*
X005143Y024004D01*
X005504Y023643D01*
X006016Y023643D01*
X006302Y023930D01*
X006529Y023703D01*
X006760Y023703D01*
X006991Y023703D01*
X007218Y023930D01*
X007504Y023643D01*
X008016Y023643D01*
X008260Y023888D01*
X008504Y023643D01*
X009016Y023643D01*
X009260Y023888D01*
X009484Y023663D01*
X008061Y022240D01*
X004959Y022240D01*
X003538Y023661D01*
X003688Y023511D02*
X009332Y023511D01*
X009319Y023829D02*
X009201Y023829D01*
X008760Y024260D02*
X009385Y024885D01*
X011010Y024885D01*
X013885Y022010D01*
X013885Y019885D01*
X014260Y019885D01*
X014260Y019760D01*
X014885Y019135D01*
X018260Y019135D01*
X018260Y019260D01*
X021010Y019260D01*
X021385Y018885D01*
X020975Y017780D02*
X020760Y017780D01*
X020760Y017260D01*
X018260Y017260D01*
X015010Y017260D01*
X013635Y015885D01*
X013635Y013885D01*
X013760Y013760D01*
X013760Y013760D01*
X013760Y014280D01*
X013975Y014280D01*
X014218Y014038D01*
X014520Y014340D01*
X014661Y014340D01*
X015353Y015032D01*
X015488Y015167D01*
X015665Y015240D01*
X015920Y015240D01*
X015940Y015260D01*
X015840Y015360D01*
X015680Y015360D01*
X015500Y015180D01*
X015020Y015180D01*
X014840Y015360D01*
X014680Y015360D01*
X014500Y015180D01*
X014020Y015180D01*
X013680Y015520D01*
X013680Y016000D01*
X014020Y016340D01*
X014500Y016340D01*
X014680Y016160D01*
X014840Y016160D01*
X015020Y016340D01*
X015500Y016340D01*
X015680Y016160D01*
X015840Y016160D01*
X016016Y016337D01*
X015910Y016443D01*
X015825Y016649D01*
X015825Y016871D01*
X015910Y017077D01*
X016068Y017235D01*
X016274Y017320D01*
X016496Y017320D01*
X016702Y017235D01*
X016860Y017077D01*
X016945Y016871D01*
X016945Y016766D01*
X018051Y015660D01*
X018740Y015660D01*
X018740Y015760D01*
X019260Y015760D01*
X019260Y015760D01*
X019260Y016280D01*
X019475Y016280D01*
X019780Y015975D01*
X019780Y015760D01*
X019260Y015760D01*
X019260Y015760D01*
X019260Y015760D01*
X019260Y016280D01*
X019045Y016280D01*
X018740Y015975D01*
X018740Y015760D01*
X019260Y015760D01*
X019780Y015760D01*
X019780Y015660D01*
X021160Y015660D01*
X021160Y015993D01*
X021511Y016344D01*
X022009Y016344D01*
X022360Y015993D01*
X022360Y015660D01*
X032663Y015660D01*
X032663Y016132D01*
X032765Y016235D01*
X032705Y016235D01*
X032507Y016038D01*
X032013Y016038D01*
X031663Y016388D01*
X031663Y016882D01*
X032013Y017232D01*
X032507Y017232D01*
X032663Y017077D01*
X032663Y017405D01*
X032625Y017405D01*
X032507Y017288D01*
X032013Y017288D01*
X031663Y017638D01*
X031663Y017803D01*
X031561Y017905D01*
X026962Y017905D01*
X027087Y017687D01*
X027163Y017406D01*
X027163Y017114D01*
X027087Y016833D01*
X026941Y016580D01*
X026735Y016374D01*
X026483Y016228D01*
X026201Y016153D01*
X025909Y016153D01*
X025628Y016228D01*
X025375Y016374D01*
X025169Y016580D01*
X025023Y016833D01*
X024948Y017114D01*
X024948Y017406D01*
X025023Y017687D01*
X025149Y017905D01*
X018690Y017905D01*
X019020Y017575D01*
X019020Y017260D01*
X018260Y017260D01*
X018260Y017260D01*
X019020Y017260D01*
X019020Y016945D01*
X018575Y016500D01*
X018260Y016500D01*
X018260Y017260D01*
X018260Y017260D01*
X018260Y017260D01*
X017500Y017260D01*
X017500Y017575D01*
X017830Y017905D01*
X015584Y017905D01*
X013615Y015936D01*
X013615Y014280D01*
X013760Y014280D01*
X013760Y013760D01*
X013760Y013956D02*
X013760Y013956D01*
X013760Y014274D02*
X013760Y014274D01*
X013981Y014274D02*
X014454Y014274D01*
X014635Y013760D02*
X014760Y013760D01*
X015760Y014760D01*
X016260Y014760D01*
X015639Y015230D02*
X015550Y015230D01*
X015232Y014911D02*
X013615Y014911D01*
X013615Y014593D02*
X014914Y014593D01*
X014970Y015230D02*
X014550Y015230D01*
X013970Y015230D02*
X013615Y015230D01*
X013615Y015548D02*
X013680Y015548D01*
X013680Y015867D02*
X013615Y015867D01*
X013864Y016185D02*
X013865Y016185D01*
X014182Y016504D02*
X015885Y016504D01*
X015865Y016185D02*
X015655Y016185D01*
X015825Y016822D02*
X014501Y016822D01*
X014819Y017141D02*
X015974Y017141D01*
X015456Y017778D02*
X017703Y017778D01*
X017500Y017459D02*
X015138Y017459D01*
X015385Y018385D02*
X013135Y016135D01*
X013135Y013135D01*
X014010Y013135D01*
X014635Y013760D01*
X015139Y013319D02*
X015881Y013319D01*
X015680Y013637D02*
X015340Y013637D01*
X015634Y013956D02*
X015680Y013956D01*
X015680Y013000D02*
X015680Y012520D01*
X015837Y012363D02*
X012365Y012363D01*
X012365Y012045D02*
X014724Y012045D01*
X014680Y011726D02*
X014586Y011726D01*
X014260Y011260D02*
X011885Y011260D01*
X011885Y018885D01*
X011010Y019760D01*
X010260Y019760D01*
X008760Y021260D01*
X009212Y021600D02*
X013405Y021600D01*
X013405Y021281D02*
X009418Y021281D01*
X009736Y020963D02*
X013405Y020963D01*
X013405Y020644D02*
X010055Y020644D01*
X010373Y020326D02*
X013405Y020326D01*
X013405Y020007D02*
X011442Y020007D01*
X011760Y019689D02*
X013447Y019689D01*
X013830Y019370D02*
X012079Y019370D01*
X012336Y019052D02*
X014290Y019052D01*
X014478Y018863D02*
X014478Y018863D01*
X014608Y018733D02*
X012365Y018733D01*
X012365Y018415D02*
X014736Y018415D01*
X014417Y018096D02*
X012365Y018096D01*
X012365Y017778D02*
X014099Y017778D01*
X013780Y017459D02*
X012365Y017459D01*
X012365Y017141D02*
X013462Y017141D01*
X013143Y016822D02*
X012365Y016822D01*
X012365Y016504D02*
X012825Y016504D01*
X012655Y016185D02*
X012365Y016185D01*
X012365Y015867D02*
X012655Y015867D01*
X012655Y015548D02*
X012365Y015548D01*
X012365Y015230D02*
X012655Y015230D01*
X012655Y014911D02*
X012365Y014911D01*
X012365Y014593D02*
X012655Y014593D01*
X012655Y014274D02*
X012365Y014274D01*
X012365Y013956D02*
X012655Y013956D01*
X012655Y013637D02*
X012365Y013637D01*
X012365Y013319D02*
X012655Y013319D01*
X012671Y013000D02*
X012365Y013000D01*
X012365Y012682D02*
X012976Y012682D01*
X011885Y011260D02*
X011260Y011260D01*
X010260Y011260D02*
X011260Y015260D01*
X010760Y015760D02*
X010260Y015260D01*
X009260Y015260D01*
X009260Y017760D01*
X008260Y018760D01*
X008845Y019052D02*
X009940Y019052D01*
X009940Y018733D02*
X008966Y018733D01*
X009284Y018415D02*
X009946Y018415D01*
X010264Y018096D02*
X009603Y018096D01*
X009740Y017778D02*
X011405Y017778D01*
X011405Y018096D02*
X011256Y018096D01*
X011221Y017459D02*
X011405Y017459D01*
X010760Y016760D02*
X010760Y015760D01*
X010175Y016185D02*
X009740Y016185D01*
X009740Y015867D02*
X009947Y015867D01*
X009940Y016504D02*
X009740Y016504D01*
X009740Y016822D02*
X009940Y016822D01*
X009981Y017141D02*
X009740Y017141D01*
X009740Y017459D02*
X010299Y017459D01*
X009971Y019370D02*
X008747Y019370D01*
X008880Y019689D02*
X009653Y019689D01*
X009334Y020007D02*
X008880Y020007D01*
X009016Y020326D02*
X008571Y020326D01*
X008697Y020644D02*
X002940Y020644D01*
X003580Y020326D02*
X007949Y020326D01*
X007640Y020007D02*
X003899Y020007D01*
X004099Y019689D02*
X007510Y019689D01*
X007191Y019370D02*
X004236Y019370D01*
X004321Y019052D02*
X006873Y019052D01*
X006554Y018733D02*
X004330Y018733D01*
X004307Y018415D02*
X006236Y018415D01*
X005917Y018096D02*
X004222Y018096D01*
X004068Y017778D02*
X005780Y017778D01*
X005780Y017459D02*
X003845Y017459D01*
X003495Y017141D02*
X005780Y017141D01*
X005780Y016822D02*
X002739Y016822D01*
X003140Y016185D02*
X000580Y016185D01*
X000580Y015867D02*
X002822Y015867D01*
X002643Y015548D02*
X000580Y015548D01*
X000580Y015230D02*
X002643Y015230D01*
X002643Y014911D02*
X000580Y014911D01*
X000580Y014593D02*
X002851Y014593D01*
X003170Y014274D02*
X000580Y014274D01*
X000580Y013956D02*
X003280Y013956D01*
X003280Y013637D02*
X000580Y013637D01*
X000580Y013319D02*
X003280Y013319D01*
X003280Y013000D02*
X000580Y013000D01*
X000580Y012682D02*
X003280Y012682D01*
X003280Y012363D02*
X000580Y012363D01*
X000580Y012045D02*
X003280Y012045D01*
X003280Y011726D02*
X002671Y011726D01*
X002880Y011408D02*
X003280Y011408D01*
X003280Y011089D02*
X002880Y011089D01*
X002740Y010771D02*
X003280Y010771D01*
X003280Y010452D02*
X002740Y010452D01*
X002740Y010134D02*
X003280Y010134D01*
X003280Y009815D02*
X002740Y009815D01*
X002740Y009497D02*
X003280Y009497D01*
X003280Y009178D02*
X002740Y009178D01*
X002663Y008860D02*
X003280Y008860D01*
X003760Y008885D02*
X019510Y008885D01*
X020135Y008260D01*
X020260Y008260D01*
X023260Y005260D01*
X025260Y005260D01*
X031260Y005260D01*
X037260Y005260D01*
X043260Y005260D01*
X043666Y005675D02*
X045854Y005675D01*
X045680Y005356D02*
X043840Y005356D01*
X043589Y002808D02*
X045931Y002808D01*
X045640Y002490D02*
X043880Y002490D01*
X043880Y002171D02*
X045640Y002171D01*
X046589Y002808D02*
X048931Y002808D01*
X048640Y002490D02*
X046880Y002490D01*
X046880Y002171D02*
X048640Y002171D01*
X049589Y002808D02*
X051931Y002808D01*
X051640Y002490D02*
X049880Y002490D01*
X049880Y002171D02*
X051640Y002171D01*
X053260Y001635D02*
X011385Y001635D01*
X010260Y002760D01*
X010110Y002810D01*
X010010Y002885D01*
X009260Y003635D01*
X007385Y003635D01*
X007385Y004885D01*
X006385Y005885D01*
X001635Y005885D01*
X001635Y008510D01*
X002260Y009135D01*
X002260Y011260D01*
X001849Y011726D02*
X000580Y011726D01*
X000580Y011408D02*
X001640Y011408D01*
X001640Y011089D02*
X000580Y011089D01*
X000580Y010771D02*
X001780Y010771D01*
X001780Y010452D02*
X000580Y010452D01*
X000580Y010134D02*
X001780Y010134D01*
X001780Y009815D02*
X000580Y009815D01*
X000580Y009497D02*
X001780Y009497D01*
X001624Y009178D02*
X000580Y009178D01*
X000580Y008860D02*
X001306Y008860D01*
X001155Y008541D02*
X000580Y008541D01*
X000580Y008223D02*
X001155Y008223D01*
X001155Y007904D02*
X000580Y007904D01*
X000580Y007586D02*
X001155Y007586D01*
X001155Y007267D02*
X000580Y007267D01*
X000580Y006949D02*
X001155Y006949D01*
X001155Y006630D02*
X000580Y006630D01*
X000580Y006312D02*
X001155Y006312D01*
X001155Y005993D02*
X000580Y005993D01*
X000580Y005675D02*
X001203Y005675D01*
X001700Y005356D02*
X000580Y005356D01*
X000580Y005038D02*
X001700Y005038D01*
X001700Y005028D02*
X002028Y004700D01*
X002260Y004700D01*
X002492Y004700D01*
X002820Y005028D01*
X002820Y005260D01*
X002820Y005405D01*
X003784Y005405D01*
X003718Y005338D01*
X003718Y005028D01*
X004492Y005028D01*
X004492Y004992D01*
X003718Y004992D01*
X003718Y004682D01*
X004182Y004218D01*
X004343Y004218D01*
X004343Y004057D01*
X004639Y003760D01*
X004636Y003764D02*
X000580Y003764D01*
X000580Y004082D02*
X004343Y004082D01*
X003999Y004401D02*
X000580Y004401D01*
X000580Y004719D02*
X002009Y004719D01*
X002260Y004719D02*
X002260Y004719D01*
X002260Y004700D02*
X002260Y005260D01*
X002820Y005260D01*
X002260Y005260D01*
X002260Y005260D01*
X002260Y005260D01*
X002260Y005260D01*
X002260Y004700D01*
X002511Y004719D02*
X003718Y004719D01*
X003718Y005038D02*
X002820Y005038D01*
X002820Y005356D02*
X003735Y005356D01*
X004492Y004992D02*
X004492Y004863D01*
X004528Y004898D01*
X004528Y004992D01*
X004492Y004992D01*
X004343Y003445D02*
X000580Y003445D01*
X000580Y003127D02*
X004006Y003127D01*
X004492Y002490D02*
X004528Y002490D01*
X004528Y002171D02*
X004492Y002171D01*
X004492Y001853D02*
X004528Y001853D01*
X004973Y001853D02*
X010489Y001853D01*
X009543Y002171D02*
X008827Y002171D01*
X009112Y002490D02*
X009258Y002490D01*
X009258Y002808D02*
X009112Y002808D01*
X007693Y002171D02*
X006977Y002171D01*
X007262Y002490D02*
X007408Y002490D01*
X007408Y002808D02*
X007262Y002808D01*
X007262Y003127D02*
X007408Y003127D01*
X005843Y002171D02*
X005292Y002171D01*
X002260Y005038D02*
X002260Y005038D01*
X002260Y005260D02*
X001700Y005260D01*
X001700Y005028D01*
X002260Y008260D02*
X005260Y008260D01*
X006260Y007260D01*
X006385Y007260D01*
X008135Y005510D01*
X010135Y005510D01*
X010260Y005510D01*
X010635Y005885D01*
X021885Y005885D01*
X023135Y004635D01*
X046635Y004635D01*
X051260Y009260D01*
X051680Y008860D02*
X051840Y008860D01*
X052680Y008860D02*
X053840Y008860D01*
X053680Y009178D02*
X052840Y009178D01*
X052840Y009497D02*
X053680Y009497D01*
X053995Y009815D02*
X052525Y009815D01*
X051995Y009815D02*
X051525Y009815D01*
X050995Y009815D02*
X043525Y009815D01*
X043840Y009497D02*
X045761Y009497D01*
X045740Y009475D02*
X045740Y009260D01*
X046260Y009260D01*
X046260Y009260D01*
X046260Y009780D01*
X046475Y009780D01*
X046780Y009475D01*
X046780Y009260D01*
X046260Y009260D01*
X046260Y009260D01*
X046260Y009260D01*
X046260Y009780D01*
X046045Y009780D01*
X045740Y009475D01*
X045740Y009260D02*
X045740Y009045D01*
X046045Y008740D01*
X046260Y008740D01*
X046475Y008740D01*
X046780Y009045D01*
X046780Y009260D01*
X046260Y009260D01*
X046260Y008740D01*
X046260Y009260D01*
X046260Y009260D01*
X045740Y009260D01*
X045740Y009178D02*
X043840Y009178D01*
X043680Y008860D02*
X045925Y008860D01*
X046260Y008860D02*
X046260Y008860D01*
X046260Y009178D02*
X046260Y009178D01*
X046260Y009497D02*
X046260Y009497D01*
X046759Y009497D02*
X048761Y009497D01*
X048740Y009475D02*
X048740Y009260D01*
X049260Y009260D01*
X049260Y009260D01*
X049260Y009780D01*
X049475Y009780D01*
X049780Y009475D01*
X049780Y009260D01*
X049260Y009260D01*
X049260Y009260D01*
X049260Y009260D01*
X049260Y009780D01*
X049045Y009780D01*
X048740Y009475D01*
X048740Y009260D02*
X048740Y009045D01*
X049045Y008740D01*
X049260Y008740D01*
X049475Y008740D01*
X049780Y009045D01*
X049780Y009260D01*
X049260Y009260D01*
X049260Y008740D01*
X049260Y009260D01*
X049260Y009260D01*
X048740Y009260D01*
X048740Y009178D02*
X046780Y009178D01*
X046595Y008860D02*
X048925Y008860D01*
X049260Y008860D02*
X049260Y008860D01*
X049260Y009178D02*
X049260Y009178D01*
X049260Y009497D02*
X049260Y009497D01*
X049759Y009497D02*
X050680Y009497D01*
X050499Y009178D02*
X049780Y009178D01*
X049595Y008860D02*
X050181Y008860D01*
X049862Y008541D02*
X041107Y008541D01*
X040840Y008223D02*
X049544Y008223D01*
X049225Y007904D02*
X040724Y007904D01*
X040755Y007586D02*
X048907Y007586D01*
X048588Y007267D02*
X040840Y007267D01*
X040769Y006949D02*
X048270Y006949D01*
X047951Y006630D02*
X022569Y006630D01*
X022769Y006949D02*
X027751Y006949D01*
X027680Y007267D02*
X022840Y007267D01*
X022755Y007586D02*
X027744Y007586D01*
X027425Y007904D02*
X022724Y007904D01*
X022840Y008223D02*
X027107Y008223D01*
X026788Y008541D02*
X023107Y008541D01*
X023425Y008860D02*
X024840Y008860D01*
X025680Y008860D02*
X026470Y008860D01*
X026151Y009178D02*
X025840Y009178D01*
X026279Y010134D02*
X029250Y010134D01*
X029266Y010452D02*
X019287Y010452D01*
X018991Y010771D02*
X029388Y010771D01*
X029676Y011089D02*
X015740Y011089D01*
X015740Y010771D02*
X018529Y010771D01*
X018233Y010452D02*
X015704Y010452D01*
X015260Y010635D02*
X007760Y010635D01*
X007760Y010760D01*
X006260Y010760D01*
X006260Y015135D01*
X006193Y015244D01*
X006260Y015260D01*
X006260Y017760D01*
X008260Y019760D01*
X008277Y020963D02*
X000580Y020963D01*
X000580Y020644D02*
X001780Y020644D01*
X001140Y020326D02*
X000580Y020326D01*
X000580Y020007D02*
X000821Y020007D01*
X000621Y019689D02*
X000580Y019689D01*
X000580Y017778D02*
X000652Y017778D01*
X000580Y017459D02*
X000875Y017459D01*
X000580Y017141D02*
X001225Y017141D01*
X000580Y016822D02*
X001981Y016822D01*
X000580Y016504D02*
X005780Y016504D01*
X005621Y016185D02*
X004285Y016185D01*
X004604Y015867D02*
X005302Y015867D01*
X005123Y015548D02*
X004783Y015548D01*
X004783Y015230D02*
X005123Y015230D01*
X005123Y014911D02*
X004783Y014911D01*
X004574Y014593D02*
X005332Y014593D01*
X005527Y014274D02*
X005650Y014274D01*
X004497Y014274D02*
X004256Y014274D01*
X003760Y015135D02*
X003713Y015244D01*
X003760Y015135D02*
X003760Y008885D01*
X004240Y009497D02*
X018958Y009497D01*
X018413Y009815D02*
X004240Y009815D01*
X004240Y010134D02*
X018206Y010134D01*
X018792Y011408D02*
X015740Y011408D01*
X015840Y011726D02*
X018680Y011726D01*
X018724Y012045D02*
X015796Y012045D01*
X015260Y011760D02*
X015260Y010635D01*
X014180Y008405D02*
X014180Y008020D01*
X014440Y007760D01*
X014180Y007500D01*
X014180Y007020D01*
X014520Y006680D01*
X015000Y006680D01*
X015340Y007020D01*
X015340Y007500D01*
X015080Y007760D01*
X015180Y007860D01*
X015840Y007860D01*
X016020Y007680D01*
X016500Y007680D01*
X016840Y008020D01*
X016840Y008405D01*
X019311Y008405D01*
X019680Y008036D01*
X019680Y008020D01*
X020020Y007680D01*
X020161Y007680D01*
X021476Y006365D01*
X010540Y006365D01*
X010363Y006292D01*
X010228Y006157D01*
X010061Y005990D01*
X008334Y005990D01*
X007644Y006680D01*
X008000Y006680D01*
X008340Y007020D01*
X008340Y007500D01*
X008080Y007760D01*
X008340Y008020D01*
X008340Y008405D01*
X011240Y008405D01*
X011240Y008260D01*
X011760Y008260D01*
X012280Y008260D01*
X012280Y008405D01*
X014180Y008405D01*
X014180Y008223D02*
X012280Y008223D01*
X012280Y008260D02*
X011760Y008260D01*
X011760Y008260D01*
X011760Y008260D01*
X011760Y007780D01*
X011760Y007260D01*
X012280Y007260D01*
X012280Y007475D01*
X011995Y007760D01*
X012280Y008045D01*
X012280Y008260D01*
X012139Y007904D02*
X014296Y007904D01*
X014265Y007586D02*
X012170Y007586D01*
X012280Y007267D02*
X014180Y007267D01*
X014251Y006949D02*
X012184Y006949D01*
X012280Y007045D02*
X012280Y007260D01*
X011760Y007260D01*
X011760Y007260D01*
X011760Y007260D01*
X011760Y006740D01*
X011975Y006740D01*
X012280Y007045D01*
X011760Y006949D02*
X011760Y006949D01*
X011760Y006740D02*
X011760Y007260D01*
X011760Y007260D01*
X011760Y007260D01*
X011240Y007260D01*
X011240Y007475D01*
X011525Y007760D01*
X011240Y008045D01*
X011240Y008260D01*
X011760Y008260D01*
X011760Y008260D01*
X011760Y007260D01*
X011240Y007260D01*
X011240Y007045D01*
X011545Y006740D01*
X011760Y006740D01*
X011336Y006949D02*
X008269Y006949D01*
X008340Y007267D02*
X011240Y007267D01*
X011350Y007586D02*
X008255Y007586D01*
X008224Y007904D02*
X011381Y007904D01*
X011240Y008223D02*
X008340Y008223D01*
X007694Y006630D02*
X021211Y006630D01*
X020893Y006949D02*
X015269Y006949D01*
X015340Y007267D02*
X020574Y007267D01*
X020256Y007586D02*
X015255Y007586D01*
X016724Y007904D02*
X019796Y007904D01*
X019494Y008223D02*
X016840Y008223D01*
X019728Y011408D02*
X030680Y011408D01*
X030906Y011726D02*
X019840Y011726D01*
X019796Y012045D02*
X030680Y012045D01*
X030680Y012363D02*
X023598Y012363D01*
X023475Y012240D02*
X023780Y012545D01*
X023780Y012760D01*
X023780Y012975D01*
X023475Y013280D01*
X023260Y013280D01*
X023260Y012760D01*
X023780Y012760D01*
X023260Y012760D01*
X023260Y012760D01*
X023260Y012760D01*
X023260Y012240D01*
X023475Y012240D01*
X023260Y012240D02*
X023260Y012760D01*
X023260Y012760D01*
X023260Y012760D01*
X022740Y012760D01*
X022740Y012975D01*
X023045Y013280D01*
X023260Y013280D01*
X023260Y012760D01*
X022740Y012760D01*
X022740Y012545D01*
X023045Y012240D01*
X023260Y012240D01*
X023260Y012363D02*
X023260Y012363D01*
X023260Y012682D02*
X023260Y012682D01*
X023260Y013000D02*
X023260Y013000D01*
X023755Y013000D02*
X026700Y013000D01*
X026680Y013020D02*
X027020Y012680D01*
X027500Y012680D01*
X027840Y013020D01*
X027840Y013500D01*
X027580Y013760D01*
X027840Y014020D01*
X027840Y014500D01*
X027500Y014840D01*
X027020Y014840D01*
X026680Y014500D01*
X026680Y014020D01*
X026940Y013760D01*
X026680Y013500D01*
X026680Y013020D01*
X026680Y013319D02*
X022151Y013319D01*
X022360Y013637D02*
X026817Y013637D01*
X026744Y013956D02*
X022360Y013956D01*
X022941Y014274D02*
X026680Y014274D01*
X026772Y014593D02*
X023070Y014593D01*
X022360Y015867D02*
X032663Y015867D01*
X032655Y016185D02*
X032715Y016185D01*
X033805Y016185D02*
X034502Y016185D01*
X035049Y016185D02*
X053769Y016185D01*
X053451Y016504D02*
X037251Y016504D01*
X037284Y016536D02*
X037284Y016760D01*
X036744Y016760D01*
X036204Y016760D01*
X036204Y016536D01*
X036521Y016220D01*
X036744Y016220D01*
X036744Y016760D01*
X036744Y016760D01*
X036204Y016760D01*
X036204Y016984D01*
X036521Y017300D01*
X036744Y017300D01*
X036744Y016760D01*
X036744Y016760D01*
X036744Y016760D01*
X036744Y016220D01*
X036968Y016220D01*
X037284Y016536D01*
X037284Y016760D02*
X037284Y016984D01*
X036968Y017300D01*
X036744Y017300D01*
X036744Y016760D01*
X037284Y016760D01*
X037284Y016822D02*
X053132Y016822D01*
X052814Y017141D02*
X037127Y017141D01*
X036744Y017141D02*
X036744Y017141D01*
X036744Y016822D02*
X036744Y016822D01*
X036744Y016760D02*
X036744Y016760D01*
X036744Y016504D02*
X036744Y016504D01*
X036237Y016504D02*
X035368Y016504D01*
X035376Y016822D02*
X036204Y016822D01*
X036361Y017141D02*
X035244Y017141D01*
X034133Y017141D02*
X033857Y017141D01*
X032663Y017141D02*
X032599Y017141D01*
X031921Y017141D02*
X027163Y017141D01*
X027148Y017459D02*
X031841Y017459D01*
X031663Y017778D02*
X027035Y017778D01*
X027081Y016822D02*
X031663Y016822D01*
X031663Y016504D02*
X026865Y016504D01*
X026322Y016185D02*
X031865Y016185D01*
X032020Y014840D02*
X031680Y014500D01*
X031680Y014020D01*
X032020Y013680D01*
X032500Y013680D01*
X032840Y014020D01*
X032840Y014500D01*
X032500Y014840D01*
X032020Y014840D01*
X031772Y014593D02*
X029748Y014593D01*
X029840Y014500D02*
X029500Y014840D01*
X029020Y014840D01*
X028680Y014500D01*
X028680Y014020D01*
X029020Y013680D01*
X029500Y013680D01*
X029840Y014020D01*
X029840Y014500D01*
X029840Y014274D02*
X031680Y014274D01*
X031744Y013956D02*
X029776Y013956D01*
X030817Y013637D02*
X027703Y013637D01*
X027776Y013956D02*
X028744Y013956D01*
X028680Y014274D02*
X027840Y014274D01*
X027748Y014593D02*
X028772Y014593D01*
X027840Y013319D02*
X030680Y013319D01*
X030700Y013000D02*
X027820Y013000D01*
X027502Y012682D02*
X030861Y012682D01*
X031659Y012682D02*
X033018Y012682D01*
X033020Y012680D02*
X033500Y012680D01*
X033840Y013020D01*
X033840Y013500D01*
X033500Y013840D01*
X033020Y013840D01*
X032680Y013500D01*
X032680Y013020D01*
X033020Y012680D01*
X032700Y013000D02*
X031820Y013000D01*
X031840Y013319D02*
X032680Y013319D01*
X032817Y013637D02*
X031703Y013637D01*
X032776Y013956D02*
X034744Y013956D01*
X034680Y014274D02*
X032840Y014274D01*
X032748Y014593D02*
X034772Y014593D01*
X034817Y013637D02*
X033703Y013637D01*
X033840Y013319D02*
X034680Y013319D01*
X034700Y013000D02*
X033820Y013000D01*
X033502Y012682D02*
X034861Y012682D01*
X034680Y012363D02*
X031840Y012363D01*
X031840Y012045D02*
X034680Y012045D01*
X034974Y011726D02*
X031614Y011726D01*
X031840Y011408D02*
X034740Y011408D01*
X034740Y011089D02*
X031840Y011089D01*
X031591Y010771D02*
X035014Y010771D01*
X034931Y009497D02*
X031840Y009497D01*
X031840Y009178D02*
X034612Y009178D01*
X034294Y008860D02*
X031680Y008860D01*
X030840Y008860D02*
X029425Y008860D01*
X029107Y008541D02*
X033721Y008541D01*
X033680Y008223D02*
X028840Y008223D01*
X028294Y008860D02*
X027601Y008860D01*
X027283Y009178D02*
X028612Y009178D01*
X028931Y009497D02*
X026964Y009497D01*
X026646Y009815D02*
X029351Y009815D01*
X031525Y009815D02*
X036995Y009815D01*
X037525Y009815D02*
X042995Y009815D01*
X042840Y008860D02*
X041425Y008860D01*
X040931Y009497D02*
X037840Y009497D01*
X037840Y009178D02*
X040612Y009178D01*
X040294Y008860D02*
X037680Y008860D01*
X036840Y008860D02*
X035425Y008860D01*
X035107Y008541D02*
X039721Y008541D01*
X039680Y008223D02*
X034840Y008223D01*
X034840Y007267D02*
X039680Y007267D01*
X039751Y006949D02*
X034769Y006949D01*
X033751Y006949D02*
X028769Y006949D01*
X028840Y007267D02*
X033680Y007267D01*
X033931Y002808D02*
X031589Y002808D01*
X031880Y002490D02*
X033640Y002490D01*
X033640Y002171D02*
X031880Y002171D01*
X030931Y002808D02*
X028589Y002808D01*
X028880Y002490D02*
X030640Y002490D01*
X030640Y002171D02*
X028880Y002171D01*
X027931Y002808D02*
X025589Y002808D01*
X025880Y002490D02*
X027640Y002490D01*
X027640Y002171D02*
X025880Y002171D01*
X024931Y002808D02*
X022589Y002808D01*
X022880Y002490D02*
X024640Y002490D01*
X024640Y002171D02*
X022880Y002171D01*
X021931Y002808D02*
X012802Y002808D01*
X012802Y002490D02*
X021640Y002490D01*
X021640Y002171D02*
X012792Y002171D01*
X011403Y003153D02*
X011367Y003153D01*
X011367Y004367D01*
X011403Y004367D01*
X011403Y003593D01*
X011403Y003153D01*
X011403Y003445D02*
X011367Y003445D01*
X011367Y003764D02*
X011403Y003764D01*
X011403Y004082D02*
X011367Y004082D01*
X012521Y004401D02*
X022691Y004401D01*
X022372Y004719D02*
X012802Y004719D01*
X012802Y005038D02*
X022054Y005038D01*
X021735Y005356D02*
X012785Y005356D01*
X011760Y007267D02*
X011760Y007267D01*
X011760Y007586D02*
X011760Y007586D01*
X011760Y007904D02*
X011760Y007904D01*
X011760Y008223D02*
X011760Y008223D01*
X010410Y006312D02*
X008012Y006312D01*
X008331Y005993D02*
X010064Y005993D01*
X010135Y005510D02*
X010135Y004735D01*
X010110Y004710D01*
X005889Y010452D02*
X004240Y010452D01*
X004240Y010771D02*
X005780Y010771D01*
X005780Y011089D02*
X004240Y011089D01*
X004240Y011408D02*
X005780Y011408D01*
X005780Y011726D02*
X004240Y011726D01*
X004240Y012045D02*
X005780Y012045D01*
X005780Y012363D02*
X005612Y012363D01*
X004411Y012363D02*
X004240Y012363D01*
X008260Y015260D02*
X009260Y011260D01*
X008260Y015260D02*
X008260Y017760D01*
X008260Y021760D02*
X004760Y021760D01*
X004644Y022555D02*
X008376Y022555D01*
X008695Y022874D02*
X004325Y022874D01*
X004007Y023192D02*
X009013Y023192D01*
X008319Y023829D02*
X008201Y023829D01*
X007760Y024260D02*
X003760Y028260D01*
X003260Y028260D01*
X003880Y027333D02*
X004009Y027333D01*
X003880Y027014D02*
X004327Y027014D01*
X004646Y026696D02*
X003701Y026696D01*
X003880Y026377D02*
X004964Y026377D01*
X005283Y026059D02*
X003880Y026059D01*
X003657Y025740D02*
X005601Y025740D01*
X005920Y025422D02*
X003880Y025422D01*
X003880Y025103D02*
X006238Y025103D01*
X006108Y024785D02*
X006497Y024785D01*
X006760Y024260D02*
X006760Y023703D01*
X006760Y024260D01*
X006760Y024260D01*
X006760Y024148D02*
X006760Y024148D01*
X006760Y023829D02*
X006760Y023829D01*
X007117Y023829D02*
X007319Y023829D01*
X006403Y023829D02*
X006201Y023829D01*
X005319Y023829D02*
X003706Y023829D01*
X003880Y024148D02*
X005143Y024148D01*
X005143Y024466D02*
X003880Y024466D01*
X003661Y024785D02*
X005412Y024785D01*
X008260Y021760D02*
X010760Y024260D01*
X011201Y023829D02*
X011387Y023829D01*
X011706Y023511D02*
X010689Y023511D01*
X010371Y023192D02*
X012024Y023192D01*
X012343Y022874D02*
X010052Y022874D01*
X009734Y022555D02*
X012661Y022555D01*
X012980Y022237D02*
X009415Y022237D01*
X009097Y021918D02*
X013298Y021918D01*
X014365Y021325D02*
X014496Y021325D01*
X014702Y021410D01*
X014777Y021485D01*
X015200Y021485D01*
X015200Y021274D01*
X015285Y021068D01*
X015443Y020910D01*
X015649Y020825D01*
X015754Y020825D01*
X016019Y020561D01*
X015910Y020452D01*
X015825Y020246D01*
X015825Y020024D01*
X015910Y019818D01*
X016068Y019660D01*
X016177Y019615D01*
X015780Y019615D01*
X015780Y019760D01*
X015780Y019975D01*
X015475Y020280D01*
X015260Y020280D01*
X015260Y019760D01*
X015260Y019760D01*
X015780Y019760D01*
X015260Y019760D01*
X015260Y019760D01*
X015260Y020280D01*
X015045Y020280D01*
X014802Y020038D01*
X014500Y020340D01*
X014416Y020340D01*
X014365Y020361D01*
X014365Y021325D01*
X014365Y021281D02*
X015200Y021281D01*
X015391Y020963D02*
X014365Y020963D01*
X014365Y020644D02*
X015935Y020644D01*
X015858Y020326D02*
X014515Y020326D01*
X015260Y020007D02*
X015260Y020007D01*
X015748Y020007D02*
X015832Y020007D01*
X015780Y019689D02*
X016040Y019689D01*
X015385Y018385D02*
X031760Y018385D01*
X032260Y017885D01*
X038885Y017885D01*
X039760Y018760D01*
X038940Y018733D02*
X038520Y018733D01*
X038520Y018760D02*
X037760Y018760D01*
X038520Y018760D01*
X038520Y019075D01*
X038485Y019110D01*
X038950Y019110D01*
X038940Y019100D01*
X038940Y018619D01*
X038686Y018365D01*
X038440Y018365D01*
X038520Y018445D01*
X038520Y018760D01*
X038520Y019052D02*
X038940Y019052D01*
X038736Y018415D02*
X038489Y018415D01*
X037760Y018760D02*
X037760Y018760D01*
X037760Y018760D01*
X037000Y018760D01*
X037000Y019075D01*
X037035Y019110D01*
X033630Y019110D01*
X033857Y018882D01*
X033857Y018388D01*
X033835Y018365D01*
X037080Y018365D01*
X037000Y018445D01*
X037000Y018760D01*
X037760Y018760D01*
X037000Y018733D02*
X033857Y018733D01*
X033857Y018415D02*
X037031Y018415D01*
X037000Y019052D02*
X033688Y019052D01*
X034180Y021160D02*
X028340Y021160D01*
X028340Y021485D01*
X028840Y021485D01*
X028987Y021546D01*
X029099Y021658D01*
X029160Y021805D01*
X029160Y023840D01*
X029099Y023987D01*
X028987Y024099D01*
X028840Y024246D01*
X028840Y024360D01*
X032680Y024360D01*
X032680Y024020D01*
X033020Y023680D01*
X033500Y023680D01*
X033760Y023940D01*
X033940Y023760D01*
X033680Y023500D01*
X033680Y023160D01*
X031527Y023160D01*
X031452Y023235D01*
X031246Y023320D01*
X031024Y023320D01*
X030818Y023235D01*
X030660Y023077D01*
X030575Y022871D01*
X030575Y022649D01*
X030660Y022443D01*
X030818Y022285D01*
X031024Y022200D01*
X031246Y022200D01*
X031452Y022285D01*
X031527Y022360D01*
X034465Y022360D01*
X034612Y022421D01*
X034724Y022533D01*
X035051Y022860D01*
X036840Y022860D01*
X037020Y022680D01*
X037500Y022680D01*
X037840Y023020D01*
X037840Y023500D01*
X037580Y023760D01*
X037840Y024020D01*
X037840Y024500D01*
X037580Y024760D01*
X037840Y025020D01*
X037840Y025500D01*
X037580Y025760D01*
X037840Y026020D01*
X037840Y026500D01*
X037580Y026760D01*
X037717Y026897D01*
X037805Y026860D01*
X042075Y026860D01*
X042075Y026649D01*
X042160Y026443D01*
X042318Y026285D01*
X042524Y026200D01*
X042680Y026200D01*
X042680Y026020D01*
X042940Y025760D01*
X042680Y025500D01*
X042680Y025020D01*
X042940Y024760D01*
X042680Y024500D01*
X042680Y024020D01*
X042940Y023760D01*
X042680Y023500D01*
X042680Y023020D01*
X043020Y022680D01*
X043500Y022680D01*
X043840Y023020D01*
X043840Y023500D01*
X043580Y023760D01*
X043840Y024020D01*
X043840Y024500D01*
X043580Y024760D01*
X043840Y025020D01*
X043840Y025500D01*
X043580Y025760D01*
X043840Y026020D01*
X043840Y026114D01*
X045680Y024274D01*
X045680Y024020D01*
X045982Y023718D01*
X045740Y023475D01*
X045740Y023260D01*
X046260Y023260D01*
X048260Y025260D01*
X050760Y025260D01*
X050760Y027260D01*
X051035Y027077D02*
X050950Y026871D01*
X050950Y026649D01*
X051035Y026443D01*
X051193Y026285D01*
X051317Y026234D01*
X051160Y026077D01*
X051075Y025871D01*
X051075Y025649D01*
X051160Y025443D01*
X051318Y025285D01*
X051379Y025260D01*
X051318Y025235D01*
X051160Y025077D01*
X051075Y024871D01*
X051075Y024649D01*
X051160Y024443D01*
X051318Y024285D01*
X051524Y024200D01*
X051680Y024200D01*
X051680Y024020D01*
X051940Y023760D01*
X051680Y023500D01*
X051680Y023020D01*
X051835Y022865D01*
X046600Y022865D01*
X046780Y023045D01*
X046780Y023260D01*
X046780Y023475D01*
X046538Y023718D01*
X046840Y024020D01*
X046840Y024500D01*
X046580Y024760D01*
X046840Y025020D01*
X046840Y025500D01*
X046580Y025760D01*
X046840Y026020D01*
X046840Y026500D01*
X046580Y026760D01*
X046840Y027020D01*
X046840Y027500D01*
X046580Y027760D01*
X046840Y028020D01*
X046840Y028500D01*
X046580Y028760D01*
X046840Y029020D01*
X046840Y029500D01*
X046580Y029760D01*
X046840Y030020D01*
X046840Y030500D01*
X046580Y030760D01*
X046840Y031020D01*
X046840Y031500D01*
X046580Y031760D01*
X046840Y032020D01*
X046840Y032485D01*
X048450Y032485D01*
X048450Y032274D01*
X048535Y032068D01*
X048693Y031910D01*
X048899Y031825D01*
X049121Y031825D01*
X049327Y031910D01*
X049402Y031985D01*
X049969Y031985D01*
X051680Y030274D01*
X051680Y030160D01*
X051533Y030099D01*
X051421Y029987D01*
X051360Y029840D01*
X051360Y029055D01*
X051421Y028908D01*
X051533Y028796D01*
X051755Y028575D01*
X051680Y028500D01*
X051680Y028020D01*
X051940Y027760D01*
X051680Y027500D01*
X051680Y027296D01*
X051621Y027320D01*
X051399Y027320D01*
X051193Y027235D01*
X051035Y027077D01*
X051009Y027014D02*
X046834Y027014D01*
X046840Y027333D02*
X051680Y027333D01*
X051831Y027651D02*
X046689Y027651D01*
X046790Y027970D02*
X051730Y027970D01*
X051680Y028288D02*
X046840Y028288D01*
X046734Y028607D02*
X051723Y028607D01*
X051414Y028925D02*
X046745Y028925D01*
X046840Y029244D02*
X051360Y029244D01*
X051360Y029562D02*
X046778Y029562D01*
X046701Y029881D02*
X051377Y029881D01*
X051680Y030199D02*
X046840Y030199D01*
X046823Y030518D02*
X051437Y030518D01*
X051118Y030836D02*
X046656Y030836D01*
X046840Y031155D02*
X050800Y031155D01*
X050481Y031473D02*
X046840Y031473D01*
X046612Y031792D02*
X050163Y031792D01*
X048518Y032110D02*
X046840Y032110D01*
X046840Y032429D02*
X048450Y032429D01*
X046260Y032260D02*
X045635Y032260D01*
X044260Y032260D01*
X045635Y032260D02*
X045635Y026760D01*
X046645Y026696D02*
X050950Y026696D01*
X051101Y026377D02*
X046840Y026377D01*
X046840Y026059D02*
X051153Y026059D01*
X051075Y025740D02*
X046600Y025740D01*
X046840Y025422D02*
X051182Y025422D01*
X051186Y025103D02*
X046840Y025103D01*
X046605Y024785D02*
X051075Y024785D01*
X051151Y024466D02*
X046840Y024466D01*
X046840Y024148D02*
X051680Y024148D01*
X051871Y023829D02*
X046649Y023829D01*
X046745Y023511D02*
X051690Y023511D01*
X051680Y023192D02*
X046780Y023192D01*
X046780Y023260D02*
X046260Y023260D01*
X046780Y023260D01*
X046609Y022874D02*
X051826Y022874D01*
X052385Y022385D02*
X045760Y022385D01*
X045200Y022365D02*
X045200Y022496D01*
X045285Y022702D01*
X045443Y022860D01*
X045649Y022945D01*
X045840Y022945D01*
X045740Y023045D01*
X045740Y023260D01*
X046260Y023260D01*
X046260Y023260D01*
X046260Y023260D01*
X045740Y023192D02*
X043840Y023192D01*
X043830Y023511D02*
X045775Y023511D01*
X045871Y023829D02*
X043649Y023829D01*
X043840Y024148D02*
X045680Y024148D01*
X045488Y024466D02*
X043840Y024466D01*
X043605Y024785D02*
X045170Y024785D01*
X044851Y025103D02*
X043840Y025103D01*
X043840Y025422D02*
X044533Y025422D01*
X044214Y025740D02*
X043600Y025740D01*
X043840Y026059D02*
X043896Y026059D01*
X042920Y025740D02*
X037600Y025740D01*
X037840Y025422D02*
X042680Y025422D01*
X042680Y025103D02*
X037840Y025103D01*
X037605Y024785D02*
X042915Y024785D01*
X042680Y024466D02*
X037840Y024466D01*
X037840Y024148D02*
X042680Y024148D01*
X042871Y023829D02*
X037649Y023829D01*
X037830Y023511D02*
X042690Y023511D01*
X042680Y023192D02*
X037840Y023192D01*
X037694Y022874D02*
X042826Y022874D01*
X043355Y022365D02*
X045200Y022365D01*
X045224Y022555D02*
X034746Y022555D01*
X035058Y022237D02*
X031335Y022237D01*
X030935Y022237D02*
X029160Y022237D01*
X029160Y022555D02*
X030614Y022555D01*
X030576Y022874D02*
X029160Y022874D01*
X029160Y023192D02*
X030775Y023192D01*
X031495Y023192D02*
X033680Y023192D01*
X033690Y023511D02*
X029160Y023511D01*
X029160Y023829D02*
X032871Y023829D01*
X032680Y024148D02*
X028938Y024148D01*
X027010Y024260D02*
X026010Y023260D01*
X025010Y021260D02*
X018760Y021260D01*
X018817Y017778D02*
X020542Y017778D01*
X020545Y017780D02*
X020240Y017475D01*
X020240Y017260D01*
X020760Y017260D01*
X021280Y017260D01*
X021280Y017475D01*
X020975Y017780D01*
X020978Y017778D02*
X022457Y017778D01*
X022520Y017840D02*
X022180Y017500D01*
X022180Y017020D01*
X022520Y016680D01*
X023000Y016680D01*
X023340Y017020D01*
X023340Y017500D01*
X023000Y017840D01*
X022520Y017840D01*
X022180Y017459D02*
X021280Y017459D01*
X021280Y017260D02*
X020760Y017260D01*
X020760Y017260D01*
X020760Y017260D01*
X020760Y016740D01*
X020975Y016740D01*
X021280Y017045D01*
X021280Y017260D01*
X021280Y017141D02*
X022180Y017141D01*
X022378Y016822D02*
X021057Y016822D01*
X020760Y016822D02*
X020760Y016822D01*
X020760Y016740D02*
X020760Y017260D01*
X020760Y017260D01*
X020760Y017260D01*
X020760Y017780D01*
X020545Y017780D01*
X020760Y017778D02*
X020760Y017778D01*
X020760Y017459D02*
X020760Y017459D01*
X020760Y017260D02*
X020240Y017260D01*
X020240Y017045D01*
X020545Y016740D01*
X020760Y016740D01*
X020463Y016822D02*
X018897Y016822D01*
X019020Y017141D02*
X020240Y017141D01*
X020240Y017459D02*
X019020Y017459D01*
X018260Y017260D02*
X018260Y016500D01*
X017945Y016500D01*
X017500Y016945D01*
X017500Y017260D01*
X018260Y017260D01*
X018260Y017141D02*
X018260Y017141D01*
X018260Y016822D02*
X018260Y016822D01*
X018260Y016504D02*
X018260Y016504D01*
X018578Y016504D02*
X025246Y016504D01*
X025029Y016822D02*
X023142Y016822D01*
X023340Y017141D02*
X024948Y017141D01*
X024962Y017459D02*
X023340Y017459D01*
X023063Y017778D02*
X025075Y017778D01*
X025789Y016185D02*
X022168Y016185D01*
X021352Y016185D02*
X019570Y016185D01*
X019260Y016185D02*
X019260Y016185D01*
X018950Y016185D02*
X017526Y016185D01*
X017844Y015867D02*
X018740Y015867D01*
X019260Y015867D02*
X019260Y015867D01*
X019780Y015867D02*
X021160Y015867D01*
X020760Y017141D02*
X020760Y017141D01*
X017942Y016504D02*
X017207Y016504D01*
X016945Y016822D02*
X017623Y016822D01*
X017500Y017141D02*
X016796Y017141D01*
X014865Y016185D02*
X014655Y016185D01*
X019683Y012363D02*
X019837Y012363D01*
X020683Y012363D02*
X022922Y012363D01*
X022740Y012682D02*
X020840Y012682D01*
X021066Y013000D02*
X022765Y013000D01*
X023780Y012682D02*
X027018Y012682D01*
X022887Y006312D02*
X047633Y006312D01*
X047314Y005993D02*
X023206Y005993D01*
X033857Y015867D02*
X054088Y015867D01*
X054406Y015548D02*
X052538Y015548D01*
X052856Y015230D02*
X054725Y015230D01*
X055043Y014911D02*
X053175Y014911D01*
X053493Y014593D02*
X055362Y014593D01*
X055680Y014274D02*
X053812Y014274D01*
X054130Y013956D02*
X055999Y013956D01*
X056317Y013637D02*
X054449Y013637D01*
X054767Y013319D02*
X056636Y013319D01*
X056643Y013000D02*
X055086Y013000D01*
X055404Y012682D02*
X056962Y012682D01*
X056777Y015867D02*
X055219Y015867D01*
X054901Y016185D02*
X056640Y016185D01*
X056640Y016504D02*
X054582Y016504D01*
X054264Y016822D02*
X056945Y016822D01*
X057360Y017141D02*
X053945Y017141D01*
X053627Y017459D02*
X057360Y017459D01*
X057360Y017778D02*
X053308Y017778D01*
X052990Y018096D02*
X057360Y018096D01*
X057360Y018415D02*
X052671Y018415D01*
X052353Y018733D02*
X056910Y018733D01*
X056640Y019052D02*
X052034Y019052D01*
X051716Y019370D02*
X056584Y019370D01*
X056266Y019689D02*
X051397Y019689D01*
X050903Y019052D02*
X040580Y019052D01*
X040580Y018733D02*
X051221Y018733D01*
X051540Y018415D02*
X040574Y018415D01*
X040256Y018096D02*
X051858Y018096D01*
X052177Y017778D02*
X039456Y017778D01*
X039111Y017459D02*
X052495Y017459D01*
X052362Y014593D02*
X040002Y014593D01*
X040020Y014274D02*
X052680Y014274D01*
X052999Y013956D02*
X040020Y013956D01*
X040020Y014260D02*
X039260Y014260D01*
X040020Y014260D01*
X039575Y013500D02*
X039260Y013500D01*
X039260Y014260D01*
X039260Y014260D01*
X039260Y014260D01*
X039260Y014260D01*
X039260Y013500D01*
X038945Y013500D01*
X038500Y013945D01*
X038500Y014260D01*
X039260Y014260D01*
X039260Y013956D02*
X039260Y013956D01*
X039260Y013637D02*
X039260Y013637D01*
X038808Y013637D02*
X037797Y013637D01*
X038080Y013956D02*
X038500Y013956D01*
X038500Y014274D02*
X038080Y014274D01*
X038080Y014593D02*
X038518Y014593D01*
X036723Y013637D02*
X035703Y013637D01*
X035776Y013956D02*
X036440Y013956D01*
X036440Y014274D02*
X035840Y014274D01*
X035748Y014593D02*
X036440Y014593D01*
X034180Y021160D02*
X034180Y021500D01*
X034520Y021840D01*
X034661Y021840D01*
X035113Y022292D01*
X035290Y022365D01*
X043355Y022365D01*
X043260Y021885D02*
X043198Y021823D01*
X043760Y021260D01*
X043198Y021823D02*
X043135Y021885D01*
X035385Y021885D01*
X034760Y021260D01*
X034180Y021281D02*
X028340Y021281D01*
X029040Y021600D02*
X034279Y021600D01*
X034739Y021918D02*
X029160Y021918D01*
X030700Y026386D02*
X029160Y027926D01*
X029160Y029840D01*
X029099Y029987D01*
X028987Y030099D01*
X028840Y030160D01*
X028840Y030500D01*
X028580Y030760D01*
X028840Y031020D01*
X028840Y031500D01*
X028580Y031760D01*
X028840Y032020D01*
X028840Y032360D01*
X033680Y032360D01*
X033680Y032020D01*
X033940Y031760D01*
X033680Y031500D01*
X033680Y031020D01*
X033940Y030760D01*
X033680Y030500D01*
X033680Y030160D01*
X031652Y030160D01*
X031577Y030235D01*
X031371Y030320D01*
X031149Y030320D01*
X030943Y030235D01*
X030785Y030077D01*
X030700Y029871D01*
X030700Y029649D01*
X030785Y029443D01*
X030943Y029285D01*
X031149Y029200D01*
X031371Y029200D01*
X031577Y029285D01*
X031652Y029360D01*
X032443Y029360D01*
X032285Y029202D01*
X032200Y028996D01*
X032200Y028774D01*
X032285Y028568D01*
X032443Y028410D01*
X032649Y028325D01*
X032680Y028325D01*
X032680Y028160D01*
X031652Y028160D01*
X031577Y028235D01*
X031371Y028320D01*
X031149Y028320D01*
X030943Y028235D01*
X030785Y028077D01*
X030700Y027871D01*
X030700Y027649D01*
X030785Y027443D01*
X030943Y027285D01*
X031149Y027200D01*
X031371Y027200D01*
X031577Y027285D01*
X031652Y027360D01*
X033680Y027360D01*
X033680Y027020D01*
X033982Y026718D01*
X033740Y026475D01*
X033740Y026260D01*
X034260Y026260D01*
X034780Y026260D01*
X034780Y026475D01*
X034538Y026718D01*
X034805Y026985D01*
X036715Y026985D01*
X036940Y026760D01*
X036680Y026500D01*
X036680Y026246D01*
X036594Y026160D01*
X034780Y026160D01*
X034780Y026260D01*
X034260Y026260D01*
X034260Y026260D01*
X034260Y026260D01*
X033740Y026260D01*
X033740Y026160D01*
X033551Y026160D01*
X033099Y026612D01*
X032987Y026724D01*
X032840Y026785D01*
X031652Y026785D01*
X031577Y026860D01*
X031371Y026945D01*
X031149Y026945D01*
X030943Y026860D01*
X030785Y026702D01*
X030700Y026496D01*
X030700Y026386D01*
X030782Y026696D02*
X030390Y026696D01*
X030072Y027014D02*
X033686Y027014D01*
X033680Y027333D02*
X031624Y027333D01*
X030896Y027333D02*
X029753Y027333D01*
X029435Y027651D02*
X030700Y027651D01*
X030741Y027970D02*
X029160Y027970D01*
X029160Y028288D02*
X031071Y028288D01*
X031449Y028288D02*
X032680Y028288D01*
X032269Y028607D02*
X029160Y028607D01*
X029160Y028925D02*
X032200Y028925D01*
X032327Y029244D02*
X031476Y029244D01*
X031044Y029244D02*
X029160Y029244D01*
X029160Y029562D02*
X030736Y029562D01*
X030704Y029881D02*
X029143Y029881D01*
X028840Y030199D02*
X030907Y030199D01*
X031613Y030199D02*
X033680Y030199D01*
X033697Y030518D02*
X028823Y030518D01*
X028656Y030836D02*
X033864Y030836D01*
X033680Y031155D02*
X028840Y031155D01*
X028840Y031473D02*
X033680Y031473D01*
X033908Y031792D02*
X028612Y031792D01*
X028840Y032110D02*
X033680Y032110D01*
X034260Y034260D02*
X036510Y034260D01*
X038135Y035260D02*
X043260Y035260D01*
X044385Y035260D01*
X044385Y037260D02*
X046260Y037260D01*
X047537Y038799D02*
X055360Y038799D01*
X055360Y039110D02*
X055360Y036840D01*
X055246Y036840D01*
X055099Y036987D01*
X054987Y037099D01*
X054840Y037160D01*
X049070Y037160D01*
X049070Y037371D01*
X048985Y037577D01*
X048827Y037735D01*
X048621Y037820D01*
X048516Y037820D01*
X046612Y039724D01*
X046465Y039785D01*
X044652Y039785D01*
X044577Y039860D01*
X044371Y039945D01*
X044149Y039945D01*
X043943Y039860D01*
X043823Y039739D01*
X043702Y039860D01*
X043496Y039945D01*
X043274Y039945D01*
X043068Y039860D01*
X042910Y039702D01*
X042825Y039496D01*
X042825Y039274D01*
X042910Y039068D01*
X042985Y038993D01*
X042985Y037652D01*
X042910Y037577D01*
X042825Y037371D01*
X042825Y037160D01*
X028680Y037160D01*
X028533Y037099D01*
X028274Y036840D01*
X028020Y036840D01*
X027840Y036660D01*
X026176Y036660D01*
X026126Y036709D01*
X026235Y036818D01*
X026320Y037024D01*
X026320Y037155D01*
X026686Y037155D01*
X026705Y037136D01*
X026785Y036943D01*
X026943Y036785D01*
X027149Y036700D01*
X027371Y036700D01*
X027577Y036785D01*
X027735Y036943D01*
X027820Y037149D01*
X027820Y037371D01*
X027735Y037577D01*
X027577Y037735D01*
X027577Y037735D01*
X028368Y037735D01*
X028443Y037660D01*
X028649Y037575D01*
X028871Y037575D01*
X029077Y037660D01*
X029235Y037818D01*
X029320Y038024D01*
X029320Y038246D01*
X029235Y038452D01*
X029077Y038610D01*
X028871Y038695D01*
X028649Y038695D01*
X028443Y038610D01*
X028368Y038535D01*
X027898Y038535D01*
X027945Y038649D01*
X027945Y038860D01*
X035469Y038860D01*
X036075Y038254D01*
X036075Y038149D01*
X036160Y037943D01*
X036318Y037785D01*
X036524Y037700D01*
X036746Y037700D01*
X036952Y037785D01*
X037110Y037943D01*
X037195Y038149D01*
X037195Y038371D01*
X037110Y038577D01*
X036952Y038735D01*
X036746Y038820D01*
X036641Y038820D01*
X035974Y039487D01*
X035862Y039599D01*
X035715Y039660D01*
X025801Y039660D01*
X024669Y040792D01*
X024760Y040883D01*
X025003Y040640D01*
X025517Y040640D01*
X025737Y040860D01*
X026840Y040860D01*
X026987Y040921D01*
X027099Y041033D01*
X027099Y041033D01*
X027426Y041360D01*
X028200Y041360D01*
X028200Y041260D01*
X028760Y041260D01*
X030010Y040010D01*
X032010Y040010D01*
X032260Y039760D01*
X038760Y039760D01*
X038948Y039948D01*
X039010Y039885D01*
X048260Y039885D01*
X048385Y040010D01*
X050760Y040010D01*
X050760Y037260D01*
X049070Y037206D02*
X055360Y037206D01*
X055360Y036888D02*
X055198Y036888D01*
X056160Y036888D02*
X057235Y036888D01*
X057235Y037206D02*
X056160Y037206D01*
X056160Y037525D02*
X057235Y037525D01*
X057235Y037843D02*
X056160Y037843D01*
X056160Y038162D02*
X057235Y038162D01*
X057235Y038480D02*
X056160Y038480D01*
X056160Y038799D02*
X057235Y038799D01*
X057235Y039117D02*
X056160Y039117D01*
X056160Y039436D02*
X057235Y039436D01*
X057235Y039754D02*
X056082Y039754D01*
X056099Y039737D02*
X055987Y039849D01*
X055840Y039910D01*
X052777Y039910D01*
X052702Y039985D01*
X052496Y040070D01*
X052274Y040070D01*
X052068Y039985D01*
X051910Y039827D01*
X051825Y039621D01*
X051825Y039399D01*
X051910Y039193D01*
X052068Y039035D01*
X052274Y038950D01*
X052496Y038950D01*
X052702Y039035D01*
X052777Y039110D01*
X055360Y039110D01*
X055360Y038480D02*
X047856Y038480D01*
X048174Y038162D02*
X055360Y038162D01*
X055360Y037843D02*
X048493Y037843D01*
X049007Y037525D02*
X055360Y037525D01*
X056160Y036569D02*
X057235Y036569D01*
X057235Y036251D02*
X056160Y036251D01*
X056160Y035932D02*
X057235Y035932D01*
X057235Y035614D02*
X056160Y035614D01*
X056160Y035295D02*
X057235Y035295D01*
X057235Y034977D02*
X056160Y034977D01*
X056160Y034658D02*
X057235Y034658D01*
X057235Y034340D02*
X056160Y034340D01*
X056160Y034021D02*
X057235Y034021D01*
X057235Y033703D02*
X056160Y033703D01*
X056160Y033384D02*
X057235Y033384D01*
X057235Y033066D02*
X056160Y033066D01*
X056160Y033055D02*
X056160Y039590D01*
X056099Y039737D01*
X055885Y040010D02*
X050760Y040010D01*
X051003Y040640D02*
X050760Y040883D01*
X050517Y040640D01*
X050003Y040640D01*
X049760Y040883D01*
X049517Y040640D01*
X049003Y040640D01*
X048783Y040860D01*
X048737Y040860D01*
X048517Y040640D01*
X048511Y040640D01*
X048570Y040496D01*
X048570Y040274D01*
X048485Y040068D01*
X048327Y039910D01*
X048121Y039825D01*
X047899Y039825D01*
X047693Y039910D01*
X047535Y040068D01*
X047450Y040274D01*
X047450Y040360D01*
X044680Y040360D01*
X044533Y040421D01*
X044314Y040640D01*
X044003Y040640D01*
X043760Y040883D01*
X043517Y040640D01*
X043003Y040640D01*
X042760Y040883D01*
X042517Y040640D01*
X042003Y040640D01*
X041760Y040883D01*
X041517Y040640D01*
X041003Y040640D01*
X040718Y040926D01*
X040492Y040700D01*
X040260Y040700D01*
X040260Y041260D01*
X038948Y039948D01*
X038952Y040035D02*
X039110Y040193D01*
X039195Y040399D01*
X039195Y040504D01*
X039331Y040640D01*
X039517Y040640D01*
X039802Y040926D01*
X040028Y040700D01*
X040260Y040700D01*
X040260Y041260D01*
X040260Y041260D01*
X040260Y041028D02*
X040260Y041028D01*
X040260Y040710D02*
X040260Y040710D01*
X040501Y040710D02*
X040934Y040710D01*
X041586Y040710D02*
X041934Y040710D01*
X042586Y040710D02*
X042934Y040710D01*
X043586Y040710D02*
X043934Y040710D01*
X044606Y040391D02*
X039192Y040391D01*
X038989Y040073D02*
X047533Y040073D01*
X046900Y039436D02*
X051825Y039436D01*
X051880Y039754D02*
X046539Y039754D01*
X047219Y039117D02*
X051986Y039117D01*
X052003Y040640D02*
X052517Y040640D01*
X052760Y040883D01*
X053003Y040640D01*
X053517Y040640D01*
X053760Y040883D01*
X054003Y040640D01*
X054517Y040640D01*
X054760Y040883D01*
X055003Y040640D01*
X055517Y040640D01*
X055880Y041003D01*
X055880Y041517D01*
X055637Y041760D01*
X055880Y042003D01*
X055880Y042517D01*
X055517Y042880D01*
X055003Y042880D01*
X054760Y042637D01*
X054517Y042880D01*
X054003Y042880D01*
X053760Y042637D01*
X053517Y042880D01*
X053003Y042880D01*
X052760Y042637D01*
X052517Y042880D01*
X052206Y042880D01*
X051851Y043235D01*
X057235Y043235D01*
X057235Y032702D01*
X057202Y032735D01*
X056996Y032820D01*
X056774Y032820D01*
X056568Y032735D01*
X056410Y032577D01*
X056325Y032371D01*
X056325Y032266D01*
X055700Y031640D01*
X055580Y031760D01*
X055840Y032020D01*
X055840Y032500D01*
X055765Y032575D01*
X055987Y032796D01*
X056099Y032908D01*
X056160Y033055D01*
X055938Y032747D02*
X056597Y032747D01*
X056349Y032429D02*
X055840Y032429D01*
X055840Y032110D02*
X056169Y032110D01*
X055851Y031792D02*
X055612Y031792D01*
X055260Y032260D02*
X054260Y032260D01*
X054260Y031260D02*
X055260Y031260D01*
X057173Y032747D02*
X057235Y032747D01*
X054260Y035260D02*
X052260Y035260D01*
X052260Y036260D02*
X053760Y036260D01*
X055885Y040010D02*
X055885Y042510D01*
X055510Y042885D01*
X053010Y042885D01*
X052760Y043135D01*
X052147Y042939D02*
X057235Y042939D01*
X057235Y042621D02*
X055776Y042621D01*
X055880Y042302D02*
X057235Y042302D01*
X057235Y041984D02*
X055860Y041984D01*
X055732Y041665D02*
X057235Y041665D01*
X057235Y041347D02*
X055880Y041347D01*
X055880Y041028D02*
X057235Y041028D01*
X057235Y040710D02*
X055586Y040710D01*
X054934Y040710D02*
X054586Y040710D01*
X053934Y040710D02*
X053586Y040710D01*
X052934Y040710D02*
X052586Y040710D01*
X052003Y040640D02*
X051760Y040883D01*
X051517Y040640D01*
X051003Y040640D01*
X050934Y040710D02*
X050586Y040710D01*
X049934Y040710D02*
X049586Y040710D01*
X048934Y040710D02*
X048586Y040710D01*
X048570Y040391D02*
X057235Y040391D01*
X057235Y040073D02*
X048487Y040073D01*
X051586Y040710D02*
X051934Y040710D01*
X043837Y039754D02*
X043808Y039754D01*
X042985Y038799D02*
X036798Y038799D01*
X037150Y038480D02*
X042985Y038480D01*
X042985Y038162D02*
X037195Y038162D01*
X037010Y037843D02*
X042985Y037843D01*
X042888Y037525D02*
X027757Y037525D01*
X027820Y037206D02*
X042825Y037206D01*
X042890Y039117D02*
X036344Y039117D01*
X036025Y039436D02*
X042825Y039436D01*
X042962Y039754D02*
X025707Y039754D01*
X025388Y040073D02*
X030906Y040073D01*
X030943Y040035D02*
X031149Y039950D01*
X031371Y039950D01*
X031577Y040035D01*
X031735Y040193D01*
X031820Y040399D01*
X031820Y040621D01*
X031812Y040640D01*
X032017Y040640D01*
X032380Y041003D01*
X032380Y041517D01*
X032137Y041760D01*
X032380Y042003D01*
X032380Y042517D01*
X032137Y042760D01*
X032380Y043003D01*
X032380Y043517D01*
X032137Y043760D01*
X032380Y044003D01*
X032380Y044517D01*
X032137Y044760D01*
X032380Y045003D01*
X032380Y045360D01*
X032591Y045360D01*
X032660Y045193D01*
X032818Y045035D01*
X033024Y044950D01*
X033246Y044950D01*
X033452Y045035D01*
X033610Y045193D01*
X033695Y045399D01*
X033695Y045408D01*
X033818Y045285D01*
X034024Y045200D01*
X034140Y045200D01*
X034140Y045003D01*
X034383Y044760D01*
X034140Y044517D01*
X034140Y044003D01*
X034383Y043760D01*
X034140Y043517D01*
X034140Y043003D01*
X034383Y042760D01*
X034140Y042517D01*
X034140Y042003D01*
X034383Y041760D01*
X034140Y041517D01*
X034140Y041003D01*
X034503Y040640D01*
X035017Y040640D01*
X035380Y041003D01*
X035380Y041517D01*
X035137Y041760D01*
X035380Y042003D01*
X035380Y042517D01*
X035137Y042760D01*
X035380Y043003D01*
X035380Y043517D01*
X035137Y043760D01*
X035380Y044003D01*
X035380Y044517D01*
X035137Y044760D01*
X035380Y045003D01*
X035380Y045360D01*
X035594Y045360D01*
X038074Y042880D01*
X038003Y042880D01*
X037640Y042517D01*
X037640Y042003D01*
X037883Y041760D01*
X037640Y041517D01*
X037640Y041003D01*
X038003Y040640D01*
X038083Y040640D01*
X038075Y040621D01*
X038075Y040399D01*
X038160Y040193D01*
X038318Y040035D01*
X038524Y039950D01*
X038746Y039950D01*
X038952Y040035D01*
X038281Y040073D02*
X031614Y040073D01*
X031817Y040391D02*
X038078Y040391D01*
X037934Y040710D02*
X035086Y040710D01*
X035380Y041028D02*
X037640Y041028D01*
X037640Y041347D02*
X035380Y041347D01*
X035232Y041665D02*
X037788Y041665D01*
X037660Y041984D02*
X035360Y041984D01*
X035380Y042302D02*
X037640Y042302D01*
X037744Y042621D02*
X035276Y042621D01*
X035316Y042939D02*
X038015Y042939D01*
X037697Y043258D02*
X035380Y043258D01*
X035321Y043576D02*
X037378Y043576D01*
X037060Y043895D02*
X035271Y043895D01*
X035380Y044213D02*
X036741Y044213D01*
X036423Y044532D02*
X035365Y044532D01*
X035227Y044850D02*
X036104Y044850D01*
X035786Y045169D02*
X035380Y045169D01*
X034293Y044850D02*
X032227Y044850D01*
X032365Y044532D02*
X034155Y044532D01*
X034140Y044213D02*
X032380Y044213D01*
X032271Y043895D02*
X034249Y043895D01*
X034199Y043576D02*
X032321Y043576D01*
X032380Y043258D02*
X034140Y043258D01*
X034204Y042939D02*
X032316Y042939D01*
X032276Y042621D02*
X034244Y042621D01*
X034140Y042302D02*
X032380Y042302D01*
X032360Y041984D02*
X034160Y041984D01*
X034288Y041665D02*
X032232Y041665D01*
X032380Y041347D02*
X034140Y041347D01*
X034140Y041028D02*
X032380Y041028D01*
X032086Y040710D02*
X034434Y040710D01*
X035974Y039487D02*
X035974Y039487D01*
X035531Y038799D02*
X027945Y038799D01*
X029207Y038480D02*
X035849Y038480D01*
X036075Y038162D02*
X029320Y038162D01*
X029245Y037843D02*
X036260Y037843D01*
X034260Y035260D02*
X029010Y035260D01*
X028322Y036888D02*
X027679Y036888D01*
X027260Y037260D02*
X026885Y037635D01*
X017385Y037635D01*
X017385Y035260D02*
X016260Y035260D01*
X014294Y037660D02*
X006430Y037660D01*
X006283Y037599D01*
X006171Y037487D01*
X005844Y037160D01*
X003880Y037160D01*
X003880Y037517D01*
X003637Y037760D01*
X003880Y038003D01*
X003880Y038360D01*
X006243Y038360D01*
X006318Y038285D01*
X006524Y038200D01*
X006746Y038200D01*
X006952Y038285D01*
X007110Y038443D01*
X007195Y038649D01*
X007195Y038871D01*
X007110Y039077D01*
X006952Y039235D01*
X006746Y039320D01*
X006524Y039320D01*
X006318Y039235D01*
X006243Y039160D01*
X003880Y039160D01*
X003880Y039517D01*
X003637Y039760D01*
X003880Y040003D01*
X003880Y040517D01*
X003637Y040760D01*
X003880Y041003D01*
X003880Y041517D01*
X003637Y041760D01*
X003880Y042003D01*
X003880Y042517D01*
X003637Y042760D01*
X003880Y043003D01*
X003880Y043517D01*
X003517Y043880D01*
X003003Y043880D01*
X002760Y043637D01*
X002517Y043880D01*
X002003Y043880D01*
X001785Y043662D01*
X001785Y047360D01*
X009840Y047360D01*
X009987Y047421D01*
X010206Y047640D01*
X010517Y047640D01*
X010760Y047883D01*
X011003Y047640D01*
X011360Y047640D01*
X011360Y042880D01*
X011003Y042880D01*
X010760Y042637D01*
X010517Y042880D01*
X010003Y042880D01*
X009760Y042637D01*
X009517Y042880D01*
X009206Y042880D01*
X007695Y044391D01*
X007695Y044496D01*
X007610Y044702D01*
X007452Y044860D01*
X007246Y044945D01*
X007024Y044945D01*
X006818Y044860D01*
X006660Y044702D01*
X006575Y044496D01*
X006575Y044445D01*
X006524Y044445D01*
X006318Y044360D01*
X006160Y044202D01*
X006075Y043996D01*
X006075Y043774D01*
X006160Y043568D01*
X006318Y043410D01*
X006524Y043325D01*
X006629Y043325D01*
X007640Y042314D01*
X007640Y042003D01*
X007883Y041760D01*
X007640Y041517D01*
X007640Y041003D01*
X008003Y040640D01*
X008517Y040640D01*
X008760Y040883D01*
X009003Y040640D01*
X009517Y040640D01*
X009802Y040926D01*
X010028Y040700D01*
X010260Y040700D01*
X010492Y040700D01*
X010718Y040926D01*
X011003Y040640D01*
X011377Y040640D01*
X011421Y040533D01*
X011533Y040421D01*
X014294Y037660D01*
X014111Y037843D02*
X003720Y037843D01*
X003872Y037525D02*
X006209Y037525D01*
X005890Y037206D02*
X003880Y037206D01*
X003880Y038162D02*
X013793Y038162D01*
X013474Y038480D02*
X007125Y038480D01*
X007195Y038799D02*
X013156Y038799D01*
X012837Y039117D02*
X007070Y039117D01*
X006760Y037760D02*
X005635Y037760D01*
X006760Y037760D02*
X010260Y041260D01*
X010260Y040700D01*
X010260Y041260D01*
X010260Y041260D01*
X010260Y041028D02*
X010260Y041028D01*
X010260Y040710D02*
X010260Y040710D01*
X010501Y040710D02*
X010934Y040710D01*
X011563Y040391D02*
X003880Y040391D01*
X003880Y040073D02*
X011882Y040073D01*
X012200Y039754D02*
X003643Y039754D01*
X003880Y039436D02*
X012519Y039436D01*
X010019Y040710D02*
X009586Y040710D01*
X008934Y040710D02*
X008586Y040710D01*
X007934Y040710D02*
X003687Y040710D01*
X003880Y041028D02*
X007640Y041028D01*
X007640Y041347D02*
X003880Y041347D01*
X003732Y041665D02*
X007788Y041665D01*
X007660Y041984D02*
X003860Y041984D01*
X003880Y042302D02*
X007640Y042302D01*
X007334Y042621D02*
X003776Y042621D01*
X003816Y042939D02*
X007015Y042939D01*
X006697Y043258D02*
X003880Y043258D01*
X003821Y043576D02*
X006157Y043576D01*
X006075Y043895D02*
X001785Y043895D01*
X001785Y044213D02*
X006171Y044213D01*
X006590Y044532D02*
X001785Y044532D01*
X001785Y044850D02*
X006808Y044850D01*
X007462Y044850D02*
X011360Y044850D01*
X011360Y044532D02*
X007680Y044532D01*
X007873Y044213D02*
X011360Y044213D01*
X011360Y043895D02*
X008191Y043895D01*
X008510Y043576D02*
X011360Y043576D01*
X011360Y043258D02*
X008828Y043258D01*
X009147Y042939D02*
X011360Y042939D01*
X011360Y045169D02*
X001785Y045169D01*
X001785Y045487D02*
X011360Y045487D01*
X011360Y045806D02*
X001785Y045806D01*
X001785Y046124D02*
X011360Y046124D01*
X011360Y046443D02*
X001785Y046443D01*
X001785Y046761D02*
X011360Y046761D01*
X011360Y047080D02*
X001785Y047080D01*
X009931Y047398D02*
X011360Y047398D01*
X010927Y047717D02*
X010593Y047717D01*
X022160Y049946D02*
X023697Y049946D01*
X023260Y048260D02*
X024260Y047260D01*
X028760Y047260D01*
X028760Y047260D01*
X028200Y047260D01*
X028200Y047360D01*
X024680Y047360D01*
X024533Y047421D01*
X024314Y047640D01*
X024003Y047640D01*
X023718Y047926D01*
X023492Y047700D01*
X023261Y047700D01*
X024141Y046820D01*
X024246Y046820D01*
X024452Y046735D01*
X024610Y046577D01*
X024695Y046371D01*
X024695Y046149D01*
X024610Y045943D01*
X024501Y045834D01*
X024766Y045570D01*
X024871Y045570D01*
X025077Y045485D01*
X025235Y045327D01*
X025320Y045121D01*
X025320Y044910D01*
X025368Y044910D01*
X025443Y044985D01*
X025649Y045070D01*
X025871Y045070D01*
X026077Y044985D01*
X026235Y044827D01*
X026320Y044621D01*
X026320Y044399D01*
X026237Y044197D01*
X026320Y043996D01*
X026320Y043774D01*
X026235Y043568D01*
X026077Y043410D01*
X026077Y043410D01*
X026465Y043410D01*
X026612Y043349D01*
X026724Y043237D01*
X026891Y043070D01*
X026996Y043070D01*
X027202Y042985D01*
X027311Y042876D01*
X027533Y043099D01*
X027680Y043160D01*
X028200Y043160D01*
X028200Y043260D01*
X028760Y043260D01*
X029320Y043260D01*
X029320Y043492D01*
X029052Y043760D01*
X029320Y044028D01*
X029320Y044260D01*
X029320Y044492D01*
X029052Y044760D01*
X029320Y045028D01*
X029320Y045260D01*
X029320Y045492D01*
X029052Y045760D01*
X029320Y046028D01*
X029320Y046260D01*
X029320Y046492D01*
X029052Y046760D01*
X029248Y046956D01*
X030783Y045421D01*
X030930Y045360D01*
X031090Y045360D01*
X031140Y045360D01*
X031140Y045003D01*
X031383Y044760D01*
X031140Y044517D01*
X031140Y044003D01*
X031383Y043760D01*
X031140Y043517D01*
X031140Y043003D01*
X031383Y042760D01*
X031140Y042517D01*
X031140Y042003D01*
X031383Y041760D01*
X031140Y041517D01*
X031140Y041196D01*
X030349Y041987D01*
X030237Y042099D01*
X030184Y042121D01*
X030195Y042149D01*
X030195Y042371D01*
X030110Y042577D01*
X029952Y042735D01*
X029746Y042820D01*
X029641Y042820D01*
X029474Y042987D01*
X029362Y043099D01*
X029320Y043116D01*
X029320Y043260D01*
X028760Y043260D01*
X028760Y043260D01*
X028760Y043260D01*
X028760Y044260D01*
X029320Y044260D01*
X028760Y044260D01*
X028760Y044260D01*
X028760Y044260D01*
X028760Y045260D01*
X029320Y045260D01*
X028760Y045260D01*
X028760Y045260D01*
X028760Y045260D01*
X028760Y046260D01*
X029320Y046260D01*
X028760Y046260D01*
X028760Y046260D01*
X028760Y046260D01*
X028760Y047260D01*
X028760Y047260D01*
X028200Y047260D01*
X028200Y047028D01*
X028468Y046760D01*
X028200Y046492D01*
X028200Y046260D01*
X028760Y046260D01*
X028760Y046260D01*
X028760Y046260D01*
X028760Y046820D01*
X028760Y047260D01*
X028760Y047080D02*
X028760Y047080D01*
X028760Y046761D02*
X028760Y046761D01*
X029053Y046761D02*
X029443Y046761D01*
X029320Y046443D02*
X029762Y046443D01*
X030080Y046124D02*
X029320Y046124D01*
X029097Y045806D02*
X030399Y045806D01*
X030717Y045487D02*
X029320Y045487D01*
X029320Y045169D02*
X031140Y045169D01*
X031293Y044850D02*
X029142Y044850D01*
X029280Y044532D02*
X031155Y044532D01*
X031140Y044213D02*
X029320Y044213D01*
X029186Y043895D02*
X031249Y043895D01*
X031199Y043576D02*
X029236Y043576D01*
X029320Y043258D02*
X031140Y043258D01*
X031204Y042939D02*
X029522Y042939D01*
X030066Y042621D02*
X031244Y042621D01*
X031140Y042302D02*
X030195Y042302D01*
X030349Y041987D02*
X030349Y041987D01*
X030352Y041984D02*
X031160Y041984D01*
X031288Y041665D02*
X030671Y041665D01*
X030989Y041347D02*
X031140Y041347D01*
X030495Y040710D02*
X029001Y040710D01*
X028992Y040700D02*
X029320Y041028D01*
X030176Y041028D01*
X029858Y041347D02*
X029320Y041347D01*
X029320Y041360D02*
X029844Y041360D01*
X030700Y040504D01*
X030700Y040399D01*
X030785Y040193D01*
X030943Y040035D01*
X030703Y040391D02*
X025070Y040391D01*
X024934Y040710D02*
X024751Y040710D01*
X025586Y040710D02*
X028519Y040710D01*
X028528Y040700D02*
X028760Y040700D01*
X028992Y040700D01*
X028760Y040700D02*
X028760Y041260D01*
X029320Y041260D01*
X029320Y041360D01*
X029320Y041260D02*
X028760Y041260D01*
X028760Y041260D01*
X028760Y041260D01*
X028760Y041260D01*
X028760Y040700D01*
X028760Y040710D02*
X028760Y040710D01*
X028528Y040700D02*
X028200Y041028D01*
X027094Y041028D01*
X027412Y041347D02*
X028200Y041347D01*
X028200Y041260D02*
X028200Y041028D01*
X028200Y041260D02*
X028760Y041260D01*
X028760Y041028D02*
X028760Y041028D01*
X029320Y041028D02*
X029320Y041260D01*
X028760Y042260D02*
X028200Y042260D01*
X028760Y042260D01*
X028760Y042260D01*
X028200Y042260D02*
X028200Y042160D01*
X027726Y042160D01*
X027926Y042360D01*
X028200Y042360D01*
X028200Y042260D01*
X028200Y042302D02*
X027868Y042302D01*
X027373Y042939D02*
X027248Y042939D01*
X026703Y043258D02*
X028200Y043258D01*
X028200Y043260D02*
X028760Y043260D01*
X028760Y043260D01*
X028760Y043820D01*
X028760Y044260D01*
X028760Y044260D01*
X028200Y044260D01*
X028200Y044492D01*
X028468Y044760D01*
X028200Y045028D01*
X028200Y045260D01*
X028760Y045260D01*
X028760Y045260D01*
X028760Y045700D01*
X028760Y046260D01*
X028200Y046260D01*
X028200Y046028D01*
X028468Y045760D01*
X028200Y045492D01*
X028200Y045260D01*
X028760Y045260D01*
X028760Y045260D01*
X028760Y044700D01*
X028760Y044260D01*
X028760Y044260D01*
X028200Y044260D01*
X028200Y044028D01*
X028468Y043760D01*
X028200Y043492D01*
X028200Y043260D01*
X028284Y043576D02*
X026238Y043576D01*
X026320Y043895D02*
X028334Y043895D01*
X028200Y044213D02*
X026243Y044213D01*
X026320Y044532D02*
X028240Y044532D01*
X028378Y044850D02*
X026212Y044850D01*
X025300Y045169D02*
X028200Y045169D01*
X028200Y045487D02*
X025072Y045487D01*
X024530Y045806D02*
X028423Y045806D01*
X028760Y045806D02*
X028760Y045806D01*
X028760Y046124D02*
X028760Y046124D01*
X028760Y046443D02*
X028760Y046443D01*
X028467Y046761D02*
X024389Y046761D01*
X024666Y046443D02*
X028200Y046443D01*
X028200Y046124D02*
X024685Y046124D01*
X023881Y047080D02*
X028200Y047080D01*
X027885Y048260D02*
X028510Y048885D01*
X029010Y048885D01*
X029635Y048260D01*
X031760Y048260D01*
X032573Y050198D02*
X034510Y048260D01*
X034760Y048260D01*
X034760Y047260D01*
X034140Y045169D02*
X033585Y045169D01*
X032685Y045169D02*
X032380Y045169D01*
X028760Y045169D02*
X028760Y045169D01*
X028760Y045487D02*
X028760Y045487D01*
X028760Y044850D02*
X028760Y044850D01*
X028760Y044532D02*
X028760Y044532D01*
X028760Y044213D02*
X028760Y044213D01*
X028760Y043895D02*
X028760Y043895D01*
X028760Y043576D02*
X028760Y043576D01*
X027885Y048260D02*
X025260Y048260D01*
X024589Y047398D02*
X023563Y047398D01*
X023508Y047717D02*
X023927Y047717D01*
X031910Y051539D02*
X038416Y051539D01*
X033053Y051220D02*
X032229Y051220D01*
X032547Y050902D02*
X032837Y050902D01*
X039586Y040710D02*
X040019Y040710D01*
X037260Y032260D02*
X036385Y032260D01*
X036135Y032010D01*
X036135Y028760D01*
X036875Y026696D02*
X034560Y026696D01*
X034780Y026377D02*
X036680Y026377D01*
X037645Y026696D02*
X042075Y026696D01*
X042226Y026377D02*
X037840Y026377D01*
X037840Y026059D02*
X042680Y026059D01*
X043694Y022874D02*
X045476Y022874D01*
X043260Y021885D02*
X052135Y021885D01*
X052760Y021260D01*
X053010Y021760D02*
X052385Y022385D01*
X053010Y021760D02*
X054260Y021760D01*
X054760Y021260D01*
X054260Y022260D02*
X055510Y022260D01*
X058510Y025260D01*
X054680Y025274D02*
X054680Y025160D01*
X052780Y025160D01*
X052780Y025260D01*
X052780Y025360D01*
X054594Y025360D01*
X054680Y025274D01*
X052780Y025260D02*
X052260Y025260D01*
X050760Y025260D01*
X052260Y025260D02*
X052260Y025260D01*
X052780Y025260D01*
X052260Y024260D02*
X054260Y022260D01*
X051854Y005675D02*
X051666Y005675D01*
X050854Y005675D02*
X049666Y005675D01*
X049840Y005356D02*
X050680Y005356D01*
X050680Y005038D02*
X049840Y005038D01*
X049539Y004719D02*
X050981Y004719D01*
X051539Y004719D02*
X051981Y004719D01*
X054156Y001853D02*
X054791Y001853D01*
X054640Y002171D02*
X054475Y002171D01*
X046996Y005675D02*
X046666Y005675D01*
X042931Y002808D02*
X040589Y002808D01*
X040880Y002490D02*
X042640Y002490D01*
X042640Y002171D02*
X040880Y002171D01*
X039931Y002808D02*
X037589Y002808D01*
X037880Y002490D02*
X039640Y002490D01*
X039640Y002171D02*
X037880Y002171D01*
X036931Y002808D02*
X034589Y002808D01*
X034880Y002490D02*
X036640Y002490D01*
X036640Y002171D02*
X034880Y002171D01*
X033871Y023829D02*
X033649Y023829D01*
X033740Y026377D02*
X033334Y026377D01*
X033015Y026696D02*
X033960Y026696D01*
X032443Y029360D02*
X032443Y029360D01*
X027260Y034260D02*
X025260Y034260D01*
X025260Y035260D02*
X026510Y035260D01*
X026264Y036888D02*
X026841Y036888D01*
X020260Y032260D02*
X019260Y032260D01*
X017385Y032260D01*
X017260Y031260D02*
X019260Y031260D01*
X019700Y029880D02*
X020419Y029160D01*
X019780Y029160D01*
X019780Y029260D01*
X019780Y029475D01*
X019538Y029718D01*
X019700Y029880D01*
X019693Y029562D02*
X020017Y029562D01*
X019780Y029260D02*
X019260Y029260D01*
X019260Y029260D01*
X019260Y029260D01*
X018740Y029260D01*
X018740Y029475D01*
X018982Y029718D01*
X018840Y029860D01*
X018195Y029860D01*
X018195Y029766D01*
X018740Y029221D01*
X018740Y029260D01*
X019260Y029260D01*
X019780Y029260D01*
X019780Y029244D02*
X020336Y029244D01*
X018827Y029562D02*
X018399Y029562D01*
X018717Y029244D02*
X018740Y029244D01*
D21*
X017635Y029760D03*
X017260Y031260D03*
X017385Y032260D03*
X019885Y031760D03*
X020260Y032260D03*
X021885Y032260D03*
X022760Y031260D03*
X022760Y029760D03*
X023760Y028260D03*
X024260Y027260D03*
X023010Y024760D03*
X024635Y023760D03*
X026010Y023260D03*
X027010Y024260D03*
X028010Y022385D03*
X028510Y020260D03*
X031135Y022760D03*
X031260Y026385D03*
X031260Y027760D03*
X032760Y028885D03*
X031260Y029760D03*
X027260Y034260D03*
X026510Y035260D03*
X025760Y037135D03*
X027260Y037260D03*
X028760Y038135D03*
X027385Y038760D03*
X024760Y039010D03*
X021885Y039510D03*
X019260Y038385D03*
X018760Y039635D03*
X017385Y037635D03*
X017385Y035260D03*
X015010Y037510D03*
X010760Y034010D03*
X009510Y032260D03*
X007260Y030760D03*
X010635Y027385D03*
X011885Y026760D03*
X011885Y028760D03*
X011510Y029760D03*
X011885Y030260D03*
X015510Y028260D03*
X014510Y026260D03*
X013885Y026260D03*
X015635Y025760D03*
X017635Y023760D03*
X015760Y021385D03*
X016385Y020135D03*
X014385Y021885D03*
X013135Y023760D03*
X008760Y021260D03*
X016385Y016760D03*
X021385Y018885D03*
X025010Y021260D03*
X021260Y023260D03*
X018635Y026760D03*
X029010Y035260D03*
X032260Y039760D03*
X031260Y040510D03*
X029635Y042260D03*
X026885Y042510D03*
X026260Y042510D03*
X025260Y043510D03*
X025760Y043885D03*
X025760Y044510D03*
X024760Y045010D03*
X024135Y046260D03*
X023260Y044510D03*
X021260Y046510D03*
X021260Y047135D03*
X018760Y042885D03*
X013760Y047010D03*
X008885Y050010D03*
X006135Y049760D03*
X007135Y044385D03*
X006635Y043885D03*
X006635Y038760D03*
X005635Y037760D03*
X006635Y036760D03*
X020260Y054260D03*
X032635Y046260D03*
X033135Y045510D03*
X034135Y045760D03*
X033635Y047260D03*
X035260Y048885D03*
X036260Y048010D03*
X035760Y046260D03*
X037760Y046260D03*
X038760Y044760D03*
X039760Y045260D03*
X040885Y044760D03*
X043760Y044760D03*
X044760Y047635D03*
X041760Y047635D03*
X042760Y051260D03*
X041260Y051760D03*
X042260Y053260D03*
X043260Y052885D03*
X045135Y052885D03*
X045760Y051260D03*
X047135Y053385D03*
X049260Y053510D03*
X049760Y053885D03*
X051260Y054010D03*
X051760Y051385D03*
X054260Y051385D03*
X056260Y049760D03*
X052760Y047635D03*
X053260Y046510D03*
X052260Y046260D03*
X051260Y046635D03*
X049260Y044760D03*
X051260Y043135D03*
X052760Y043135D03*
X052385Y039510D03*
X050760Y037260D03*
X048510Y037260D03*
X046260Y037260D03*
X046260Y038385D03*
X044885Y038385D03*
X044260Y039385D03*
X043385Y039385D03*
X043385Y037260D03*
X044385Y037260D03*
X044385Y035260D03*
X044260Y032260D03*
X049010Y032385D03*
X050760Y027260D03*
X051510Y026760D03*
X051635Y025760D03*
X051635Y024760D03*
X053260Y024260D03*
X053260Y028885D03*
X054260Y031260D03*
X054260Y032260D03*
X056885Y032260D03*
X056385Y030385D03*
X054260Y035260D03*
X053760Y036260D03*
X048010Y040385D03*
X056760Y044135D03*
X055760Y053635D03*
X039135Y051385D03*
X036260Y052385D03*
X033385Y050760D03*
X033760Y049760D03*
X038635Y040510D03*
X036635Y038260D03*
X038135Y035260D03*
X036510Y034260D03*
X036635Y031760D03*
X039260Y030635D03*
X038760Y029760D03*
X036135Y028760D03*
X042635Y027760D03*
X042635Y026760D03*
X045635Y026760D03*
X045760Y022385D03*
X022510Y014635D03*
X018760Y010260D03*
X014260Y011260D03*
D22*
X016260Y012760D02*
X019260Y012760D01*
X019260Y013760D02*
X020260Y012760D01*
X021260Y013760D01*
X021760Y013776D01*
X022510Y014635D02*
X019385Y014635D01*
X019260Y014760D01*
X017885Y015260D02*
X052260Y015260D01*
X057260Y010260D01*
X057260Y013260D02*
X051010Y019510D01*
X028635Y019510D01*
X028135Y020010D01*
X016510Y020010D01*
X016385Y020135D01*
X016385Y020760D02*
X056510Y020760D01*
X057760Y019510D01*
X057760Y016260D01*
X057260Y016260D01*
X057260Y019260D02*
X056260Y020260D01*
X028510Y020260D01*
X028760Y021885D02*
X014385Y021885D01*
X015760Y021385D02*
X016385Y020760D01*
X017135Y022385D02*
X028010Y022385D01*
X027760Y022760D02*
X017385Y022760D01*
X016385Y023760D01*
X013135Y023760D01*
X015385Y024760D02*
X013885Y026260D01*
X014510Y026260D02*
X016260Y026260D01*
X016385Y026760D02*
X011885Y026760D01*
X010635Y027385D02*
X016135Y027385D01*
X016260Y027260D01*
X016385Y026760D02*
X016885Y027260D01*
X019260Y027260D01*
X018635Y026760D02*
X027760Y026760D01*
X028260Y027260D01*
X027760Y027760D02*
X028260Y028260D01*
X027760Y027760D02*
X016010Y027760D01*
X015510Y028260D01*
X016385Y028760D02*
X016760Y028385D01*
X019135Y028385D01*
X019260Y028260D01*
X018635Y028760D02*
X017635Y029760D01*
X016885Y030260D02*
X016385Y029760D01*
X011510Y029760D01*
X011885Y030260D02*
X016260Y030260D01*
X016885Y030260D02*
X019260Y030260D01*
X019385Y030760D02*
X007260Y030760D01*
X005010Y029260D02*
X003510Y030760D01*
X002010Y030760D01*
X001385Y031385D01*
X001385Y047760D01*
X009760Y047760D01*
X010260Y048260D01*
X009760Y048760D02*
X009260Y048260D01*
X008760Y048760D02*
X006510Y048760D01*
X005135Y050135D01*
X005135Y056760D01*
X006385Y056760D01*
X007010Y057385D01*
X006885Y050510D02*
X016760Y050510D01*
X017760Y049510D01*
X017760Y048260D01*
X018260Y048260D01*
X018760Y048010D02*
X018760Y053760D01*
X020885Y053760D01*
X022010Y054885D01*
X021760Y054135D02*
X024510Y054135D01*
X025760Y055385D01*
X025760Y055510D01*
X021760Y054135D02*
X021760Y048010D01*
X022010Y047760D01*
X022635Y047760D01*
X024135Y046260D01*
X023760Y046010D02*
X019510Y046010D01*
X017260Y048260D01*
X016260Y048260D02*
X018885Y045635D01*
X019885Y045635D01*
X021510Y044010D01*
X025635Y044010D01*
X025760Y043885D01*
X025260Y043510D02*
X023510Y043510D01*
X022260Y042260D01*
X021260Y041260D02*
X021760Y040760D01*
X024135Y040760D01*
X025635Y039260D01*
X035635Y039260D01*
X036635Y038260D01*
X037260Y036760D02*
X046260Y036760D01*
X054760Y036760D01*
X055260Y036260D01*
X054760Y035760D02*
X055260Y035260D01*
X054760Y034760D02*
X046260Y034760D01*
X037260Y034760D01*
X028260Y034760D01*
X028260Y034260D01*
X028260Y034760D02*
X019760Y034760D01*
X019260Y034260D01*
X018760Y034760D02*
X019260Y035260D01*
X019760Y035760D01*
X028260Y035760D01*
X034385Y035760D01*
X034885Y035260D01*
X037260Y035260D01*
X037760Y035760D01*
X046260Y035760D01*
X054760Y035760D01*
X054760Y034760D02*
X055260Y034260D01*
X055260Y033260D02*
X055135Y033135D01*
X052760Y033135D01*
X052385Y032760D01*
X049260Y032760D01*
X049135Y032885D01*
X045885Y032885D01*
X046260Y033260D01*
X046385Y033760D02*
X043760Y033760D01*
X043260Y033260D01*
X038010Y033260D01*
X037510Y033760D01*
X034760Y033760D01*
X034260Y033260D01*
X028885Y033260D01*
X028385Y033760D01*
X027635Y033760D01*
X027135Y033260D01*
X025260Y033260D01*
X024760Y033760D01*
X016760Y033760D01*
X016260Y033260D01*
X016010Y033510D01*
X009885Y033510D01*
X006635Y036760D01*
X006510Y037260D02*
X014635Y037260D01*
X016135Y035760D01*
X018760Y035760D01*
X019260Y036260D01*
X019760Y036760D01*
X025510Y036760D01*
X026010Y036260D01*
X028260Y036260D01*
X028760Y036760D01*
X037260Y036760D01*
X037260Y036260D01*
X037260Y034760D02*
X037260Y034260D01*
X037260Y033260D02*
X037260Y032760D01*
X045760Y032760D01*
X045885Y032885D01*
X046385Y033760D02*
X046885Y033260D01*
X052260Y033260D01*
X053760Y032760D02*
X055385Y032760D01*
X055760Y033135D01*
X055760Y039510D01*
X052385Y039510D01*
X052260Y042260D02*
X051385Y043135D01*
X051260Y043135D01*
X049885Y043635D02*
X048760Y042510D01*
X048760Y041260D01*
X048260Y041260D01*
X047635Y040760D02*
X044760Y040760D01*
X044260Y041260D01*
X043760Y041760D02*
X042010Y041760D01*
X041760Y042010D01*
X041760Y044760D01*
X040885Y044760D01*
X039760Y045260D02*
X043260Y045260D01*
X043260Y042260D01*
X043760Y041760D02*
X044260Y042260D01*
X046260Y042260D02*
X043760Y044760D01*
X044885Y045760D02*
X046760Y047635D01*
X046760Y049760D01*
X045010Y049760D01*
X044760Y049510D01*
X044760Y048260D01*
X044260Y048260D01*
X043760Y048760D02*
X043760Y047635D01*
X041760Y047635D01*
X043760Y048760D02*
X044260Y049260D01*
X045760Y048760D02*
X045760Y047635D01*
X044760Y047635D01*
X045510Y046885D02*
X046260Y047635D01*
X046260Y048260D01*
X045760Y048760D02*
X046260Y049260D01*
X047760Y049760D02*
X047760Y048010D01*
X047510Y047760D01*
X047260Y047760D01*
X047260Y042260D01*
X047635Y040760D02*
X048010Y040385D01*
X046385Y039385D02*
X044260Y039385D01*
X043385Y039385D02*
X043385Y037260D01*
X044885Y038385D02*
X046260Y038385D01*
X046385Y039385D02*
X048510Y037260D01*
X046260Y036760D02*
X046260Y036260D01*
X046260Y035760D02*
X046260Y035260D01*
X046260Y034760D02*
X046260Y034260D01*
X049010Y032385D02*
X050135Y032385D01*
X052260Y030260D01*
X052385Y029760D02*
X051760Y029760D01*
X051760Y029135D01*
X052135Y028760D01*
X052385Y028760D01*
X052885Y028260D01*
X054260Y028260D01*
X055260Y027260D01*
X054760Y026760D02*
X051510Y026760D01*
X051635Y025760D02*
X054760Y025760D01*
X055260Y025260D01*
X054760Y024760D02*
X051635Y024760D01*
X053260Y024260D02*
X054760Y022760D01*
X055385Y022760D01*
X058010Y025385D01*
X058010Y046010D01*
X053135Y046010D01*
X051260Y047885D01*
X051260Y048260D01*
X050260Y048260D02*
X052260Y046260D01*
X053260Y046510D02*
X053260Y047635D01*
X052760Y047635D01*
X051260Y046635D02*
X051135Y046635D01*
X049260Y044760D01*
X048760Y044635D02*
X049135Y044260D01*
X056635Y044260D01*
X056760Y044135D01*
X057635Y043635D02*
X049885Y043635D01*
X048760Y044635D02*
X048760Y048260D01*
X049260Y048260D01*
X047760Y049760D02*
X056260Y049760D01*
X055760Y053635D02*
X054510Y054885D01*
X051260Y054010D02*
X050135Y055135D01*
X050135Y057385D01*
X049510Y057385D01*
X047635Y057385D02*
X047635Y055135D01*
X049260Y053510D01*
X048885Y053010D02*
X047010Y054885D01*
X048260Y055385D02*
X048260Y055510D01*
X048260Y055385D02*
X049760Y053885D01*
X050135Y053010D02*
X048885Y053010D01*
X050135Y053010D02*
X051760Y051385D01*
X047135Y053385D02*
X045135Y055385D01*
X045135Y057385D01*
X044510Y057385D01*
X042635Y057385D02*
X042635Y055385D01*
X045135Y052885D01*
X045760Y051260D02*
X042135Y054885D01*
X042010Y054885D01*
X041385Y054760D02*
X041385Y056760D01*
X040635Y056760D01*
X040010Y057385D01*
X039510Y057385D01*
X038885Y056760D02*
X038260Y057385D01*
X037635Y057385D02*
X037010Y057385D01*
X037635Y057385D02*
X037635Y055385D01*
X041260Y051760D01*
X042760Y051260D02*
X039760Y054260D01*
X039385Y054260D01*
X038260Y055385D01*
X038260Y055510D01*
X038885Y056760D02*
X040135Y056760D01*
X040135Y055385D01*
X042260Y053260D01*
X043260Y052885D02*
X041385Y054760D01*
X042010Y057385D02*
X042635Y057385D01*
X047010Y057385D02*
X047635Y057385D01*
X039135Y051385D02*
X035135Y055385D01*
X035135Y057385D01*
X034510Y057385D01*
X033260Y055510D02*
X033260Y055385D01*
X036260Y052385D01*
X037760Y049760D02*
X033760Y049760D01*
X035260Y048885D02*
X035260Y047510D01*
X038510Y047510D01*
X039260Y048260D01*
X038260Y048260D02*
X036510Y048260D01*
X036260Y048010D01*
X036635Y046760D02*
X037635Y045760D01*
X044885Y045760D01*
X045510Y046885D02*
X038385Y046885D01*
X037760Y046260D01*
X036635Y046760D02*
X033135Y046760D01*
X032635Y046260D01*
X032885Y045760D02*
X031010Y045760D01*
X029010Y047760D01*
X024760Y047760D01*
X024260Y048260D01*
X025510Y048760D02*
X022760Y048760D01*
X022260Y048260D01*
X021260Y047135D02*
X020635Y047760D01*
X019760Y047760D01*
X019260Y048260D01*
X018760Y048010D02*
X019385Y047385D01*
X020385Y047385D01*
X021260Y046510D01*
X019760Y045260D02*
X018260Y045260D01*
X015260Y048260D01*
X014260Y048260D02*
X013760Y048760D01*
X012760Y048760D01*
X012760Y048010D01*
X013760Y047010D01*
X012760Y047510D02*
X012260Y048010D01*
X012260Y048260D01*
X011760Y048760D02*
X009760Y048760D01*
X009260Y049260D02*
X008760Y048760D01*
X008885Y050010D02*
X009510Y050010D01*
X010260Y049260D01*
X011760Y048760D02*
X011760Y040760D01*
X015010Y037510D01*
X016635Y037135D02*
X012760Y041010D01*
X012760Y047510D01*
X013260Y048260D02*
X013385Y048260D01*
X018760Y042885D01*
X019760Y041010D02*
X019760Y045260D01*
X023260Y044510D02*
X025760Y044510D01*
X024760Y045010D02*
X023760Y046010D01*
X025510Y048760D02*
X026135Y049385D01*
X029010Y049385D01*
X029135Y049260D01*
X031635Y049260D01*
X033635Y047260D01*
X034135Y045760D02*
X035760Y045760D01*
X039260Y042260D01*
X039260Y041260D02*
X039260Y041135D01*
X038635Y040510D01*
X040260Y042260D02*
X036260Y046260D01*
X035760Y046260D01*
X033135Y045510D02*
X032885Y045760D01*
X029635Y042260D02*
X029135Y042760D01*
X027760Y042760D01*
X026760Y041760D01*
X024760Y041760D01*
X024260Y041260D01*
X023760Y041260D02*
X023260Y041260D01*
X023760Y041260D02*
X023760Y042510D01*
X024260Y043010D01*
X026385Y043010D01*
X026885Y042510D01*
X026260Y042510D02*
X025510Y042510D01*
X025260Y042260D01*
X025260Y041260D02*
X026760Y041260D01*
X027260Y041760D01*
X030010Y041760D01*
X031260Y040510D01*
X028760Y038135D02*
X023260Y038135D01*
X021885Y039510D01*
X021135Y040385D02*
X020260Y041260D01*
X019760Y041010D02*
X020760Y040010D01*
X023760Y040010D01*
X024760Y039010D01*
X025510Y038885D02*
X024010Y040385D01*
X021135Y040385D01*
X019260Y038385D02*
X017260Y040385D01*
X015135Y040385D01*
X014260Y041260D01*
X016260Y041260D02*
X016760Y040760D01*
X017635Y040760D01*
X018760Y039635D01*
X016635Y037135D02*
X025760Y037135D01*
X025510Y038885D02*
X027260Y038885D01*
X027385Y038760D01*
X028260Y035760D02*
X028260Y035260D01*
X028260Y033260D02*
X028260Y032760D01*
X037260Y032760D01*
X036635Y031760D02*
X040760Y031760D01*
X043260Y029260D01*
X043760Y027760D02*
X042635Y027760D01*
X043260Y027260D02*
X037885Y027260D01*
X037385Y027760D01*
X035385Y027760D01*
X034385Y028760D01*
X032885Y028760D01*
X032760Y028885D01*
X033260Y028260D02*
X034260Y028260D01*
X034385Y027760D02*
X031260Y027760D01*
X031260Y026385D02*
X032760Y026385D01*
X033385Y025760D01*
X036760Y025760D01*
X037260Y026260D01*
X037260Y025260D02*
X036760Y024760D01*
X033885Y024760D01*
X032760Y025885D01*
X030635Y025885D01*
X028760Y027760D01*
X028760Y029760D01*
X022760Y029760D01*
X022760Y031260D02*
X024260Y031260D01*
X025260Y030260D01*
X025260Y029260D02*
X020885Y029260D01*
X019385Y030760D01*
X019885Y031760D02*
X016135Y031760D01*
X015135Y032760D01*
X005760Y032760D01*
X003260Y035260D01*
X002760Y034760D02*
X002010Y034760D01*
X001760Y035010D01*
X001760Y036760D01*
X006010Y036760D01*
X006510Y037260D01*
X007135Y035760D02*
X009760Y033135D01*
X015760Y033135D01*
X016135Y032760D01*
X019260Y032760D01*
X028260Y032760D01*
X026760Y031760D02*
X022385Y031760D01*
X021885Y032260D01*
X019260Y032760D02*
X019260Y033260D01*
X018760Y034760D02*
X011510Y034760D01*
X010760Y034010D01*
X009510Y032260D02*
X004260Y032260D01*
X003260Y033260D01*
X003260Y034260D02*
X002760Y034760D01*
X002260Y035260D02*
X002760Y035760D01*
X007135Y035760D01*
X006635Y038760D02*
X002760Y038760D01*
X002260Y039260D01*
X006635Y043885D02*
X008260Y042260D01*
X009260Y042260D02*
X007135Y044385D01*
X006135Y049760D02*
X006885Y050510D01*
X020260Y054260D02*
X021385Y055385D01*
X021385Y057385D01*
X020760Y057385D01*
X037760Y049760D02*
X038260Y049260D01*
X038760Y044760D02*
X041260Y042260D01*
X039260Y030635D02*
X037635Y030635D01*
X037260Y030260D01*
X037760Y029760D02*
X038760Y029760D01*
X037760Y029760D02*
X037260Y029260D01*
X037260Y028260D02*
X035885Y028260D01*
X034385Y029760D01*
X031260Y029760D01*
X028260Y029260D02*
X027760Y028760D01*
X018635Y028760D01*
X016385Y028760D02*
X011885Y028760D01*
X015635Y025760D02*
X027760Y025760D01*
X028260Y026260D01*
X028260Y025260D02*
X028135Y025135D01*
X025760Y025135D01*
X025385Y024760D01*
X023010Y024760D01*
X024635Y023760D02*
X025385Y023760D01*
X026385Y024760D01*
X033385Y024760D01*
X033760Y024385D01*
X034135Y024385D01*
X034260Y024260D01*
X034885Y023260D02*
X034385Y022760D01*
X031135Y022760D01*
X028760Y021885D02*
X028760Y023760D01*
X028260Y024260D01*
X028260Y023260D02*
X027760Y022760D01*
X025260Y024260D02*
X019885Y024260D01*
X019385Y023760D01*
X017635Y023760D01*
X019260Y023260D02*
X021260Y023260D01*
X019385Y024760D02*
X019885Y025260D01*
X025260Y025260D01*
X025260Y027260D02*
X024260Y027260D01*
X023760Y028260D02*
X025260Y028260D01*
X028260Y030260D02*
X026760Y031760D01*
X034385Y027760D02*
X034760Y027385D01*
X037135Y027385D01*
X037260Y027260D01*
X037260Y023260D02*
X034885Y023260D01*
X034776Y016760D02*
X034260Y016760D01*
X034135Y016635D01*
X032260Y016635D01*
X026135Y009760D02*
X028135Y007760D01*
X039760Y007760D01*
X040260Y007260D01*
X040260Y008260D02*
X041260Y009260D01*
X043260Y009260D01*
X037260Y009260D02*
X035260Y009260D01*
X034260Y008260D01*
X031260Y009260D02*
X029260Y009260D01*
X028260Y008260D01*
X026135Y009760D02*
X019260Y009760D01*
X018760Y010260D01*
X016260Y008260D02*
X014760Y008260D01*
X022260Y008260D02*
X023260Y009260D01*
X025260Y009260D01*
X017885Y015260D02*
X016385Y016760D01*
X016260Y015760D02*
X015260Y015760D01*
X014260Y015760D01*
X017135Y022385D02*
X016260Y023260D01*
X015385Y024760D02*
X019385Y024760D01*
X016260Y029260D02*
X005010Y029260D01*
X042635Y026760D02*
X043760Y026760D01*
X046260Y024260D01*
X046260Y025260D02*
X043760Y027760D01*
X052260Y029260D02*
X052385Y029385D01*
X053760Y029385D01*
X055135Y030760D01*
X055385Y030760D01*
X056885Y032260D01*
X056385Y030385D02*
X055260Y029260D01*
X054635Y028885D02*
X053260Y028885D01*
X052385Y029760D02*
X053760Y031135D01*
X053760Y032760D01*
X054635Y028885D02*
X055260Y028260D01*
X054760Y026760D02*
X055260Y026260D01*
X054760Y024760D02*
X055260Y024260D01*
X055260Y023260D02*
X057635Y025635D01*
X057635Y043635D01*
M02*
