G75*
%MOIN*%
%OFA0B0*%
%FSLAX24Y24*%
%IPPOS*%
%LPD*%
%AMOC8*
5,1,8,0,0,1.08239X$1,22.5*
%
%ADD10C,0.1656*%
%ADD11OC8,0.0624*%
%ADD12OC8,0.0720*%
%ADD13OC8,0.1200*%
%ADD14OC8,0.0774*%
%ADD15OC8,0.0672*%
%ADD16OC8,0.0712*%
%ADD17OC8,0.1278*%
%ADD18C,0.0576*%
D10*
X001760Y001760D03*
X030260Y010260D03*
X058760Y001760D03*
X030260Y050260D03*
X058760Y058760D03*
X001760Y058760D03*
D11*
X016260Y036260D03*
X016260Y035260D03*
X016260Y034260D03*
X016260Y033260D03*
X016260Y032260D03*
X016260Y031260D03*
X016260Y030260D03*
X016260Y029260D03*
X016260Y028260D03*
X016260Y027260D03*
X016260Y026260D03*
X016260Y025260D03*
X016260Y024260D03*
X016260Y023260D03*
X016760Y021260D03*
X018760Y021260D03*
X019260Y023260D03*
X019260Y024260D03*
X019260Y025260D03*
X019260Y026260D03*
X019260Y027260D03*
X019260Y028260D03*
X019260Y029260D03*
X019260Y030260D03*
X019260Y031260D03*
X019260Y032260D03*
X019260Y033260D03*
X019260Y034260D03*
X019260Y035260D03*
X019260Y036260D03*
X025260Y036260D03*
X025260Y035260D03*
X025260Y034260D03*
X025260Y033260D03*
X025260Y032260D03*
X025260Y031260D03*
X025260Y030260D03*
X025260Y029260D03*
X025260Y028260D03*
X025260Y027260D03*
X025260Y026260D03*
X025260Y025260D03*
X025260Y024260D03*
X025260Y023260D03*
X025760Y021260D03*
X025260Y019760D03*
X026260Y019760D03*
X027760Y021260D03*
X028260Y023260D03*
X028260Y024260D03*
X028260Y025260D03*
X028260Y026260D03*
X028260Y027260D03*
X028260Y028260D03*
X028260Y029260D03*
X028260Y030260D03*
X028260Y031260D03*
X028260Y032260D03*
X028260Y033260D03*
X028260Y034260D03*
X028260Y035260D03*
X028260Y036260D03*
X034260Y036260D03*
X034260Y035260D03*
X034260Y034260D03*
X034260Y033260D03*
X034260Y032260D03*
X034260Y031260D03*
X034260Y030260D03*
X034260Y029260D03*
X034260Y028260D03*
X034260Y027260D03*
X034260Y026260D03*
X034260Y025260D03*
X034260Y024260D03*
X034260Y023260D03*
X033260Y024260D03*
X034760Y021260D03*
X036760Y021260D03*
X036260Y019760D03*
X033760Y017260D03*
X031760Y017260D03*
X030260Y015760D03*
X030260Y014760D03*
X030260Y013760D03*
X030260Y012760D03*
X031260Y012760D03*
X030260Y011760D03*
X031260Y009260D03*
X028260Y008260D03*
X028260Y007260D03*
X025260Y005260D03*
X022260Y007260D03*
X022260Y008260D03*
X020260Y008260D03*
X019260Y011760D03*
X019260Y012760D03*
X019260Y013760D03*
X019260Y014760D03*
X019260Y015760D03*
X020760Y017260D03*
X022760Y017260D03*
X025260Y015760D03*
X026260Y015760D03*
X027260Y015760D03*
X027260Y014760D03*
X027260Y013760D03*
X027260Y012760D03*
X026260Y011760D03*
X025760Y013760D03*
X024760Y013760D03*
X023260Y012760D03*
X020260Y012760D03*
X016260Y012760D03*
X016260Y013760D03*
X016260Y014760D03*
X016260Y015760D03*
X015260Y015760D03*
X014260Y015760D03*
X013760Y013760D03*
X014760Y013760D03*
X015260Y011760D03*
X012260Y012760D03*
X009260Y012760D03*
X008260Y012760D03*
X008260Y013760D03*
X008260Y014760D03*
X008260Y015760D03*
X009760Y017260D03*
X011760Y017260D03*
X014260Y019760D03*
X015260Y019760D03*
X009260Y021760D03*
X009260Y022760D03*
X005260Y022760D03*
X005260Y021760D03*
X004260Y019760D03*
X003260Y019760D03*
X003260Y015760D03*
X004260Y015760D03*
X005260Y015760D03*
X005260Y014760D03*
X005260Y013760D03*
X005260Y012760D03*
X004260Y011760D03*
X003760Y013760D03*
X002760Y013760D03*
X008260Y011760D03*
X007760Y008260D03*
X007760Y007260D03*
X006260Y007260D03*
X006260Y008260D03*
X011760Y008260D03*
X011760Y007260D03*
X014760Y007260D03*
X014760Y008260D03*
X016260Y008260D03*
X025260Y009260D03*
X031260Y005260D03*
X034260Y007260D03*
X034260Y008260D03*
X037260Y009260D03*
X037260Y011760D03*
X038260Y012760D03*
X038260Y013760D03*
X038260Y014760D03*
X038260Y015760D03*
X036260Y015760D03*
X035760Y013760D03*
X036760Y013760D03*
X034260Y012760D03*
X040260Y008260D03*
X040260Y007260D03*
X037260Y005260D03*
X043260Y005260D03*
X046260Y005260D03*
X049260Y005260D03*
X051260Y005260D03*
X052260Y005260D03*
X054260Y005260D03*
X055260Y005260D03*
X055260Y009260D03*
X054260Y009260D03*
X052260Y009260D03*
X051260Y009260D03*
X049260Y009260D03*
X048260Y011760D03*
X049260Y012760D03*
X049260Y013760D03*
X049260Y014760D03*
X049260Y015760D03*
X048260Y015760D03*
X047260Y015760D03*
X046760Y013760D03*
X047760Y013760D03*
X045260Y012760D03*
X042260Y012760D03*
X041260Y012760D03*
X041260Y013760D03*
X041260Y014760D03*
X041260Y015760D03*
X042760Y017260D03*
X044760Y017260D03*
X047260Y019760D03*
X048260Y019760D03*
X047260Y021260D03*
X045760Y021260D03*
X043760Y021260D03*
X043260Y023260D03*
X043260Y024260D03*
X043260Y025260D03*
X043260Y026260D03*
X043260Y027260D03*
X043260Y028260D03*
X043260Y029260D03*
X043260Y030260D03*
X043260Y031260D03*
X043260Y032260D03*
X043260Y033260D03*
X043260Y034260D03*
X043260Y035260D03*
X043260Y036260D03*
X046260Y036260D03*
X046260Y035260D03*
X046260Y034260D03*
X046260Y033260D03*
X046260Y032260D03*
X046260Y031260D03*
X046260Y030260D03*
X046260Y029260D03*
X046260Y028260D03*
X046260Y027260D03*
X046260Y026260D03*
X046260Y025260D03*
X046260Y024260D03*
X046260Y023260D03*
X051260Y021260D03*
X052760Y021260D03*
X054760Y021260D03*
X055260Y023260D03*
X055260Y024260D03*
X055260Y025260D03*
X055260Y026260D03*
X055260Y027260D03*
X055260Y028260D03*
X055260Y029260D03*
X055260Y030260D03*
X055260Y031260D03*
X055260Y032260D03*
X055260Y033260D03*
X055260Y034260D03*
X055260Y035260D03*
X055260Y036260D03*
X052260Y036260D03*
X052260Y035260D03*
X052260Y034260D03*
X052260Y033260D03*
X052260Y032260D03*
X052260Y031260D03*
X052260Y030260D03*
X052260Y029260D03*
X052260Y028260D03*
X052260Y027260D03*
X052260Y026260D03*
X052260Y025260D03*
X052260Y024260D03*
X052260Y023260D03*
X053760Y017260D03*
X052260Y015760D03*
X052260Y014760D03*
X052260Y013760D03*
X052260Y012760D03*
X052260Y011760D03*
X053260Y012760D03*
X056260Y012760D03*
X055760Y017260D03*
X046260Y009260D03*
X043260Y009260D03*
X041260Y011760D03*
X037260Y023260D03*
X037260Y024260D03*
X037260Y025260D03*
X037260Y026260D03*
X037260Y027260D03*
X037260Y028260D03*
X037260Y029260D03*
X037260Y030260D03*
X037260Y031260D03*
X037260Y032260D03*
X037260Y033260D03*
X037260Y034260D03*
X037260Y035260D03*
X037260Y036260D03*
X033260Y028260D03*
D12*
X031760Y041260D03*
X031760Y042260D03*
X031760Y043260D03*
X031760Y044260D03*
X031760Y045260D03*
X031760Y046260D03*
X031760Y047260D03*
X031760Y048260D03*
X028760Y048260D03*
X028760Y047260D03*
X028760Y046260D03*
X028760Y045260D03*
X028760Y044260D03*
X028760Y043260D03*
X028760Y042260D03*
X028760Y041260D03*
X025260Y041260D03*
X025260Y042260D03*
X024260Y042260D03*
X024260Y041260D03*
X023260Y041260D03*
X023260Y042260D03*
X022260Y042260D03*
X022260Y041260D03*
X021260Y041260D03*
X021260Y042260D03*
X020260Y042260D03*
X020260Y041260D03*
X019260Y041260D03*
X019260Y042260D03*
X018260Y042260D03*
X018260Y041260D03*
X017260Y041260D03*
X017260Y042260D03*
X016260Y042260D03*
X016260Y041260D03*
X015260Y041260D03*
X015260Y042260D03*
X014260Y042260D03*
X014260Y041260D03*
X013260Y041260D03*
X013260Y042260D03*
X012260Y042260D03*
X012260Y041260D03*
X011260Y041260D03*
X011260Y042260D03*
X010260Y042260D03*
X010260Y041260D03*
X009260Y041260D03*
X009260Y042260D03*
X008260Y042260D03*
X008260Y041260D03*
X005260Y044260D03*
X005260Y045260D03*
X004260Y045260D03*
X004260Y044260D03*
X003260Y044260D03*
X003260Y045260D03*
X003260Y046260D03*
X002260Y046260D03*
X002260Y045260D03*
X002260Y044260D03*
X004260Y046260D03*
X005260Y046260D03*
X008260Y048260D03*
X008260Y049260D03*
X009260Y049260D03*
X010260Y049260D03*
X010260Y048260D03*
X009260Y048260D03*
X011260Y048260D03*
X011260Y049260D03*
X012260Y049260D03*
X013260Y049260D03*
X013260Y048260D03*
X012260Y048260D03*
X014260Y048260D03*
X014260Y049260D03*
X015260Y049260D03*
X016260Y049260D03*
X016260Y048260D03*
X015260Y048260D03*
X017260Y048260D03*
X017260Y049260D03*
X018260Y049260D03*
X019260Y049260D03*
X019260Y048260D03*
X018260Y048260D03*
X020260Y048260D03*
X020260Y049260D03*
X021260Y049260D03*
X022260Y049260D03*
X022260Y048260D03*
X021260Y048260D03*
X023260Y048260D03*
X023260Y049260D03*
X024260Y049260D03*
X025260Y049260D03*
X025260Y048260D03*
X024260Y048260D03*
X024260Y050260D03*
X034760Y048260D03*
X034760Y047260D03*
X034760Y046260D03*
X034760Y045260D03*
X034760Y044260D03*
X034760Y043260D03*
X034760Y042260D03*
X034760Y041260D03*
X038260Y041260D03*
X038260Y042260D03*
X039260Y042260D03*
X039260Y041260D03*
X040260Y041260D03*
X040260Y042260D03*
X041260Y042260D03*
X041260Y041260D03*
X042260Y041260D03*
X042260Y042260D03*
X043260Y042260D03*
X043260Y041260D03*
X044260Y041260D03*
X044260Y042260D03*
X045260Y042260D03*
X045260Y041260D03*
X046260Y041260D03*
X046260Y042260D03*
X047260Y042260D03*
X047260Y041260D03*
X048260Y041260D03*
X048260Y042260D03*
X049260Y042260D03*
X049260Y041260D03*
X050260Y041260D03*
X050260Y042260D03*
X051260Y042260D03*
X051260Y041260D03*
X052260Y041260D03*
X052260Y042260D03*
X053260Y042260D03*
X053260Y041260D03*
X054260Y041260D03*
X054260Y042260D03*
X055260Y042260D03*
X055260Y041260D03*
X055260Y048260D03*
X055260Y049260D03*
X054260Y049260D03*
X053260Y049260D03*
X053260Y048260D03*
X054260Y048260D03*
X052260Y048260D03*
X052260Y049260D03*
X051260Y049260D03*
X050260Y049260D03*
X050260Y048260D03*
X051260Y048260D03*
X049260Y048260D03*
X049260Y049260D03*
X048260Y049260D03*
X047260Y049260D03*
X047260Y048260D03*
X048260Y048260D03*
X046260Y048260D03*
X046260Y049260D03*
X045260Y049260D03*
X044260Y049260D03*
X044260Y048260D03*
X045260Y048260D03*
X043260Y048260D03*
X043260Y049260D03*
X042260Y049260D03*
X041260Y049260D03*
X041260Y048260D03*
X042260Y048260D03*
X040260Y048260D03*
X040260Y049260D03*
X039260Y049260D03*
X038260Y049260D03*
X038260Y048260D03*
X039260Y048260D03*
X054260Y050260D03*
X057260Y019260D03*
X057260Y016260D03*
X057260Y013260D03*
X057260Y010260D03*
X057260Y007260D03*
X055260Y002260D03*
X052260Y002260D03*
X049260Y002260D03*
X046260Y002260D03*
X043260Y002260D03*
X040260Y002260D03*
X037260Y002260D03*
X034260Y002260D03*
X031260Y002260D03*
X028260Y002260D03*
X025260Y002260D03*
X022260Y002260D03*
X002260Y005260D03*
X002260Y008260D03*
X002260Y011260D03*
X002260Y022260D03*
X002260Y023260D03*
X002260Y024260D03*
X002260Y025260D03*
X002260Y026260D03*
X002260Y027260D03*
X002260Y028260D03*
X002260Y029260D03*
X002260Y030260D03*
X002260Y031260D03*
X002260Y032260D03*
X002260Y033260D03*
X002260Y034260D03*
X002260Y035260D03*
X002260Y036260D03*
X002260Y037260D03*
X002260Y038260D03*
X002260Y039260D03*
X002260Y040260D03*
X002260Y041260D03*
X003260Y041260D03*
X003260Y040260D03*
X003260Y039260D03*
X003260Y038260D03*
X003260Y037260D03*
X003260Y036260D03*
X003260Y035260D03*
X003260Y034260D03*
X003260Y033260D03*
X003260Y032260D03*
X003260Y031260D03*
X003260Y030260D03*
X003260Y029260D03*
X003260Y028260D03*
X003260Y027260D03*
X003260Y026260D03*
X003260Y025260D03*
X003260Y024260D03*
X003260Y023260D03*
X003260Y022260D03*
D13*
X007260Y019260D03*
X007260Y017260D03*
X018260Y017260D03*
X018260Y019260D03*
X029260Y019260D03*
X029260Y017260D03*
X040260Y017260D03*
X040260Y019260D03*
X051260Y019260D03*
X051260Y017260D03*
X018760Y005260D03*
X016760Y005260D03*
D14*
X017010Y054885D03*
X017010Y055510D03*
X017010Y056135D03*
X017010Y057385D03*
X017010Y057385D03*
X017010Y058010D03*
X015760Y058010D03*
X015760Y057385D03*
X015760Y056135D03*
X015760Y056135D03*
X015760Y055510D03*
X014510Y055510D03*
X014510Y054885D03*
X014510Y056135D03*
X014510Y057385D03*
X014510Y057385D03*
X014510Y058010D03*
X013260Y058010D03*
X013260Y057385D03*
X013260Y056135D03*
X013260Y056135D03*
X013260Y055510D03*
X012010Y055510D03*
X012010Y054885D03*
X012010Y056135D03*
X012010Y057385D03*
X012010Y057385D03*
X012010Y058010D03*
X010760Y058010D03*
X010760Y057385D03*
X010760Y056135D03*
X010760Y056135D03*
X010760Y055510D03*
X009510Y055510D03*
X009510Y054885D03*
X009510Y056135D03*
X009510Y057385D03*
X009510Y057385D03*
X009510Y058010D03*
X008260Y058010D03*
X008260Y057385D03*
X008260Y056135D03*
X008260Y056135D03*
X008260Y055510D03*
X007010Y055510D03*
X007010Y054885D03*
X007010Y056135D03*
X007010Y057385D03*
X007010Y057385D03*
X007010Y058010D03*
X005760Y058010D03*
X005760Y057385D03*
X005760Y056135D03*
X005760Y056135D03*
X005760Y055510D03*
X005760Y058635D03*
X008260Y058635D03*
X010760Y058635D03*
X013260Y058635D03*
X015760Y058635D03*
X018260Y058635D03*
X018260Y058010D03*
X018260Y057385D03*
X018260Y056135D03*
X018260Y056135D03*
X018260Y055510D03*
X019510Y055510D03*
X019510Y054885D03*
X019510Y056135D03*
X019510Y057385D03*
X019510Y057385D03*
X019510Y058010D03*
X020760Y058010D03*
X020760Y057385D03*
X020760Y056135D03*
X020760Y056135D03*
X020760Y055510D03*
X022010Y055510D03*
X022010Y054885D03*
X022010Y056135D03*
X022010Y057385D03*
X022010Y057385D03*
X022010Y058010D03*
X023260Y058010D03*
X023260Y057385D03*
X023260Y056135D03*
X023260Y056135D03*
X023260Y055510D03*
X024510Y055510D03*
X024510Y054885D03*
X024510Y056135D03*
X024510Y057385D03*
X024510Y057385D03*
X024510Y058010D03*
X025760Y058010D03*
X025760Y057385D03*
X025760Y056135D03*
X025760Y056135D03*
X025760Y055510D03*
X027010Y055510D03*
X027010Y054885D03*
X027010Y056135D03*
X027010Y057385D03*
X027010Y057385D03*
X027010Y058010D03*
X025760Y058635D03*
X023260Y058635D03*
X020760Y058635D03*
X033260Y058635D03*
X033260Y058010D03*
X033260Y057385D03*
X033260Y056135D03*
X033260Y056135D03*
X033260Y055510D03*
X034510Y055510D03*
X034510Y054885D03*
X034510Y056135D03*
X034510Y057385D03*
X034510Y057385D03*
X034510Y058010D03*
X035760Y058010D03*
X035760Y057385D03*
X035760Y056135D03*
X035760Y056135D03*
X035760Y055510D03*
X037010Y055510D03*
X037010Y054885D03*
X037010Y056135D03*
X037010Y057385D03*
X037010Y057385D03*
X037010Y058010D03*
X038260Y058010D03*
X038260Y057385D03*
X038260Y056135D03*
X038260Y056135D03*
X038260Y055510D03*
X039510Y055510D03*
X039510Y054885D03*
X039510Y056135D03*
X039510Y057385D03*
X039510Y057385D03*
X039510Y058010D03*
X040760Y058010D03*
X040760Y057385D03*
X040760Y056135D03*
X040760Y056135D03*
X040760Y055510D03*
X042010Y055510D03*
X042010Y054885D03*
X042010Y056135D03*
X042010Y057385D03*
X042010Y057385D03*
X042010Y058010D03*
X043260Y058010D03*
X043260Y057385D03*
X043260Y056135D03*
X043260Y056135D03*
X043260Y055510D03*
X044510Y055510D03*
X044510Y054885D03*
X044510Y056135D03*
X044510Y057385D03*
X044510Y057385D03*
X044510Y058010D03*
X045760Y058010D03*
X045760Y057385D03*
X045760Y056135D03*
X045760Y056135D03*
X045760Y055510D03*
X047010Y055510D03*
X047010Y054885D03*
X047010Y056135D03*
X047010Y057385D03*
X047010Y057385D03*
X047010Y058010D03*
X048260Y058010D03*
X048260Y057385D03*
X048260Y056135D03*
X048260Y056135D03*
X048260Y055510D03*
X049510Y055510D03*
X049510Y054885D03*
X049510Y056135D03*
X049510Y057385D03*
X049510Y057385D03*
X049510Y058010D03*
X050760Y058010D03*
X050760Y057385D03*
X050760Y056135D03*
X050760Y056135D03*
X050760Y055510D03*
X052010Y055510D03*
X052010Y054885D03*
X052010Y056135D03*
X052010Y057385D03*
X052010Y057385D03*
X052010Y058010D03*
X050760Y058635D03*
X048260Y058635D03*
X045760Y058635D03*
X043260Y058635D03*
X040760Y058635D03*
X038260Y058635D03*
X035760Y058635D03*
X053260Y058635D03*
X053260Y058010D03*
X053260Y057385D03*
X053260Y056135D03*
X053260Y056135D03*
X053260Y055510D03*
X054510Y055510D03*
X054510Y054885D03*
X054510Y056135D03*
X054510Y057385D03*
X054510Y057385D03*
X054510Y058010D03*
D15*
X054260Y015744D03*
X054260Y013776D03*
X043260Y013776D03*
X043260Y015744D03*
X032260Y015744D03*
X032260Y013776D03*
X021260Y013776D03*
X021260Y015744D03*
X010260Y015744D03*
X010260Y013776D03*
D16*
X009760Y024260D03*
X010760Y024260D03*
X008760Y024260D03*
X007760Y024260D03*
X006760Y024260D03*
X005760Y024260D03*
D17*
X004510Y005010D03*
X005135Y004385D03*
X005135Y003135D03*
X004510Y002510D03*
X006410Y002810D03*
X008260Y002810D03*
X010110Y002810D03*
X011385Y003135D03*
X012010Y002510D03*
X011385Y004385D03*
X012010Y005010D03*
X010110Y004710D03*
X008260Y004710D03*
X006410Y004710D03*
D18*
X016635Y011760D03*
X018760Y010260D03*
X022510Y014635D03*
X024135Y010760D03*
X016260Y016760D03*
X015760Y021385D03*
X014385Y021885D03*
X013135Y023760D03*
X013885Y026260D03*
X014510Y026260D03*
X015635Y025760D03*
X015510Y028260D03*
X017635Y029760D03*
X017260Y031260D03*
X019885Y031760D03*
X020260Y032260D03*
X021885Y032260D03*
X022760Y031260D03*
X022760Y029760D03*
X023760Y028260D03*
X024260Y027260D03*
X023010Y024760D03*
X024635Y023760D03*
X023635Y021260D03*
X021260Y023260D03*
X017635Y023760D03*
X018635Y026760D03*
X011885Y026760D03*
X010635Y027385D03*
X011885Y028760D03*
X011510Y029760D03*
X011885Y030260D03*
X009510Y032260D03*
X010760Y034010D03*
X007260Y030760D03*
X006635Y036760D03*
X005385Y036760D03*
X006635Y043885D03*
X007135Y044385D03*
X006135Y049760D03*
X008885Y050010D03*
X013760Y047010D03*
X018760Y042885D03*
X018635Y039635D03*
X019010Y038635D03*
X020010Y037010D03*
X021885Y039510D03*
X024760Y038510D03*
X025760Y037135D03*
X026385Y038760D03*
X027760Y038010D03*
X031260Y040510D03*
X032260Y039760D03*
X029635Y042260D03*
X026885Y042510D03*
X026260Y042510D03*
X025260Y043510D03*
X025760Y043885D03*
X025760Y044510D03*
X024760Y045010D03*
X024135Y046260D03*
X023260Y044510D03*
X021260Y046510D03*
X021260Y047135D03*
X020260Y054260D03*
X032635Y046260D03*
X033135Y045510D03*
X034135Y045760D03*
X033635Y047260D03*
X035260Y048885D03*
X036260Y048010D03*
X035760Y046260D03*
X037760Y046260D03*
X038760Y044760D03*
X039760Y045260D03*
X040885Y044760D03*
X043760Y044760D03*
X044760Y047635D03*
X041760Y047635D03*
X042760Y051260D03*
X041260Y051760D03*
X042260Y053260D03*
X043260Y052885D03*
X045135Y052885D03*
X045760Y051260D03*
X047135Y053385D03*
X049260Y053510D03*
X049760Y053885D03*
X051260Y054010D03*
X051760Y051385D03*
X052760Y047635D03*
X053260Y046510D03*
X052260Y046260D03*
X051260Y046635D03*
X049260Y044760D03*
X051260Y043135D03*
X052760Y043135D03*
X052385Y039510D03*
X050760Y037260D03*
X048510Y037260D03*
X046260Y038885D03*
X044885Y037510D03*
X043385Y037260D03*
X043385Y039385D03*
X044260Y039385D03*
X048010Y040385D03*
X047135Y033760D03*
X049010Y032385D03*
X053760Y033635D03*
X054260Y031260D03*
X056385Y030385D03*
X056885Y032260D03*
X053260Y028885D03*
X051510Y026760D03*
X050760Y027260D03*
X051635Y025760D03*
X051635Y024760D03*
X053260Y024260D03*
X045635Y026760D03*
X042635Y026760D03*
X042635Y027760D03*
X038760Y029760D03*
X039260Y030635D03*
X036635Y031760D03*
X038135Y033760D03*
X036635Y038260D03*
X038635Y040510D03*
X029260Y033760D03*
X027010Y033760D03*
X031260Y029760D03*
X032760Y028885D03*
X031260Y027760D03*
X031260Y026385D03*
X031135Y022760D03*
X028510Y020260D03*
X028010Y022385D03*
X021385Y018885D03*
X009135Y017760D03*
X015010Y037510D03*
X033760Y049760D03*
X033385Y050760D03*
X036260Y052385D03*
X039135Y051385D03*
X055760Y053635D03*
X056260Y049760D03*
X056760Y044135D03*
X036135Y028760D03*
X036010Y012260D03*
M02*
