G75*
%MOIN*%
%OFA0B0*%
%FSLAX24Y24*%
%IPPOS*%
%LPD*%
%AMOC8*
5,1,8,0,0,1.08239X$1,22.5*
%
%ADD10OC8,0.0520*%
%ADD11OC8,0.0600*%
%ADD12OC8,0.0660*%
%ADD13OC8,0.1065*%
%ADD14OC8,0.1000*%
%ADD15OC8,0.0990*%
%ADD16OC8,0.0645*%
%ADD17C,0.0320*%
%ADD18C,0.0480*%
%ADD19C,0.0160*%
D10*
X005260Y024260D03*
X005260Y025260D03*
X005260Y026260D03*
X005260Y027260D03*
X005260Y028260D03*
X005260Y029260D03*
X005260Y030260D03*
X005260Y031260D03*
X005260Y032260D03*
X005260Y033260D03*
X005260Y034260D03*
X005260Y035260D03*
X005260Y036260D03*
X005260Y037260D03*
X004260Y039260D03*
X008260Y039260D03*
X008260Y037260D03*
X008260Y036260D03*
X008260Y035260D03*
X008260Y034260D03*
X008260Y033260D03*
X008260Y032260D03*
X008260Y031260D03*
X008260Y030260D03*
X008260Y029260D03*
X008260Y028260D03*
X008260Y027260D03*
X008260Y026260D03*
X008260Y025260D03*
X008260Y024260D03*
X010260Y028260D03*
X012260Y028260D03*
X014260Y028260D03*
X014260Y027260D03*
X014260Y026260D03*
X014260Y025260D03*
X014260Y024260D03*
X017260Y024260D03*
X017260Y025260D03*
X017260Y026260D03*
X017260Y027260D03*
X017260Y028260D03*
X017260Y029260D03*
X017260Y030260D03*
X017260Y031260D03*
X017260Y032260D03*
X017260Y033260D03*
X017260Y034260D03*
X017260Y035260D03*
X017260Y036260D03*
X017260Y037260D03*
X014260Y037260D03*
X014260Y036260D03*
X014260Y035260D03*
X014260Y034260D03*
X014260Y033260D03*
X014260Y032260D03*
X014260Y031260D03*
X014260Y030260D03*
X014260Y029260D03*
X023260Y029260D03*
X023260Y028260D03*
X023260Y027260D03*
X023260Y026260D03*
X023260Y025260D03*
X023260Y024260D03*
X026260Y024260D03*
X026260Y025260D03*
X026260Y026260D03*
X026260Y027260D03*
X026260Y028260D03*
X026260Y029260D03*
X026260Y030260D03*
X026260Y031260D03*
X026260Y032260D03*
X026260Y033260D03*
X026260Y034260D03*
X026260Y035260D03*
X026260Y036260D03*
X026260Y037260D03*
X023260Y037260D03*
X023260Y036260D03*
X023260Y035260D03*
X023260Y034260D03*
X023260Y033260D03*
X023260Y032260D03*
X023260Y031260D03*
X023260Y030260D03*
X032260Y030260D03*
X032260Y031260D03*
X032260Y032260D03*
X032260Y033260D03*
X032260Y034260D03*
X032260Y035260D03*
X032260Y036260D03*
X032260Y037260D03*
X035260Y037260D03*
X035260Y036260D03*
X035260Y035260D03*
X035260Y034260D03*
X035260Y033260D03*
X035260Y032260D03*
X035260Y031260D03*
X035260Y030260D03*
X035260Y029260D03*
X035260Y028260D03*
X035260Y027260D03*
X035260Y026260D03*
X035260Y025260D03*
X035260Y024260D03*
X032260Y024260D03*
X032260Y025260D03*
X032260Y026260D03*
X032260Y027260D03*
X032260Y028260D03*
X032260Y029260D03*
X041260Y029260D03*
X041260Y028260D03*
X041260Y027260D03*
X041260Y026260D03*
X041260Y025260D03*
X041260Y024260D03*
X044260Y024260D03*
X044260Y025260D03*
X044260Y026260D03*
X044260Y027260D03*
X044260Y028260D03*
X044260Y029260D03*
X044260Y030260D03*
X044260Y031260D03*
X044260Y032260D03*
X044260Y033260D03*
X044260Y034260D03*
X044260Y035260D03*
X044260Y036260D03*
X044260Y037260D03*
X041260Y037260D03*
X041260Y036260D03*
X041260Y035260D03*
X041260Y034260D03*
X041260Y033260D03*
X041260Y032260D03*
X041260Y031260D03*
X041260Y030260D03*
X048260Y030260D03*
X048260Y029260D03*
X048260Y028260D03*
X048260Y027260D03*
X048260Y026260D03*
X048260Y025260D03*
X048260Y024260D03*
X051260Y024260D03*
X051260Y025260D03*
X051260Y026260D03*
X051260Y027260D03*
X051260Y028260D03*
X051260Y029260D03*
X051260Y030260D03*
X052260Y040260D03*
X053260Y040260D03*
X053260Y044260D03*
X052260Y044260D03*
X047260Y044260D03*
X047260Y043260D03*
X047260Y042260D03*
X047260Y040260D03*
X045260Y040260D03*
X045260Y044260D03*
X038260Y052260D03*
X038260Y053260D03*
X035260Y051260D03*
X032260Y052260D03*
X032260Y053260D03*
X029260Y051260D03*
X026260Y052260D03*
X026260Y053260D03*
X023260Y051260D03*
X020260Y052260D03*
X020260Y053260D03*
X017260Y051260D03*
X014260Y051260D03*
X011260Y051260D03*
X009260Y051260D03*
X008260Y051260D03*
X006260Y051260D03*
X005260Y051260D03*
X005260Y055260D03*
X006260Y055260D03*
X008260Y055260D03*
X009260Y055260D03*
X011260Y055260D03*
X014260Y055260D03*
X017260Y055260D03*
X023260Y055260D03*
X029260Y055260D03*
X035260Y055260D03*
X031260Y042260D03*
X031260Y040260D03*
X029260Y040260D03*
X029260Y042260D03*
X013260Y042260D03*
X013260Y040260D03*
X011260Y040260D03*
X011260Y042260D03*
X054260Y051260D03*
X054260Y052260D03*
D11*
X044260Y058260D03*
X041260Y058260D03*
X038260Y058260D03*
X035260Y058260D03*
X032260Y058260D03*
X029260Y058260D03*
X026260Y058260D03*
X023260Y058260D03*
X020260Y058260D03*
X017260Y058260D03*
X014260Y058260D03*
X011260Y058260D03*
X008260Y058260D03*
X005260Y058260D03*
X003260Y053260D03*
X003260Y050260D03*
X003260Y047260D03*
X003260Y044260D03*
X003260Y041260D03*
X005260Y019260D03*
X005260Y018260D03*
X006260Y018260D03*
X006260Y019260D03*
X007260Y019260D03*
X007260Y018260D03*
X008260Y018260D03*
X008260Y019260D03*
X009260Y019260D03*
X009260Y018260D03*
X010260Y018260D03*
X010260Y019260D03*
X011260Y019260D03*
X011260Y018260D03*
X012260Y018260D03*
X012260Y019260D03*
X013260Y019260D03*
X013260Y018260D03*
X014260Y018260D03*
X014260Y019260D03*
X015260Y019260D03*
X015260Y018260D03*
X016260Y018260D03*
X016260Y019260D03*
X017260Y019260D03*
X017260Y018260D03*
X018260Y018260D03*
X018260Y019260D03*
X019260Y019260D03*
X019260Y018260D03*
X020260Y018260D03*
X020260Y019260D03*
X021260Y019260D03*
X021260Y018260D03*
X022260Y018260D03*
X022260Y019260D03*
X022260Y012260D03*
X021260Y012260D03*
X021260Y011260D03*
X022260Y011260D03*
X020260Y011260D03*
X020260Y012260D03*
X019260Y012260D03*
X018260Y012260D03*
X018260Y011260D03*
X019260Y011260D03*
X017260Y011260D03*
X017260Y012260D03*
X016260Y012260D03*
X015260Y012260D03*
X015260Y011260D03*
X016260Y011260D03*
X014260Y011260D03*
X014260Y012260D03*
X013260Y012260D03*
X012260Y012260D03*
X012260Y011260D03*
X013260Y011260D03*
X011260Y011260D03*
X011260Y012260D03*
X010260Y012260D03*
X009260Y012260D03*
X009260Y011260D03*
X010260Y011260D03*
X008260Y011260D03*
X008260Y012260D03*
X007260Y012260D03*
X006260Y012260D03*
X006260Y011260D03*
X007260Y011260D03*
X005260Y011260D03*
X005260Y012260D03*
X035260Y012260D03*
X036260Y012260D03*
X036260Y011260D03*
X035260Y011260D03*
X037260Y011260D03*
X037260Y012260D03*
X038260Y012260D03*
X039260Y012260D03*
X039260Y011260D03*
X038260Y011260D03*
X040260Y011260D03*
X040260Y012260D03*
X041260Y012260D03*
X042260Y012260D03*
X042260Y011260D03*
X041260Y011260D03*
X043260Y011260D03*
X043260Y012260D03*
X044260Y012260D03*
X045260Y012260D03*
X045260Y011260D03*
X044260Y011260D03*
X046260Y011260D03*
X046260Y012260D03*
X047260Y012260D03*
X048260Y012260D03*
X048260Y011260D03*
X047260Y011260D03*
X049260Y011260D03*
X049260Y012260D03*
X050260Y012260D03*
X051260Y012260D03*
X051260Y011260D03*
X050260Y011260D03*
X052260Y011260D03*
X052260Y012260D03*
X052260Y018260D03*
X052260Y019260D03*
X051260Y019260D03*
X051260Y018260D03*
X050260Y018260D03*
X050260Y019260D03*
X049260Y019260D03*
X049260Y018260D03*
X048260Y018260D03*
X048260Y019260D03*
X047260Y019260D03*
X047260Y018260D03*
X046260Y018260D03*
X046260Y019260D03*
X045260Y019260D03*
X045260Y018260D03*
X044260Y018260D03*
X044260Y019260D03*
X043260Y019260D03*
X043260Y018260D03*
X042260Y018260D03*
X042260Y019260D03*
X041260Y019260D03*
X041260Y018260D03*
X040260Y018260D03*
X040260Y019260D03*
X039260Y019260D03*
X039260Y018260D03*
X038260Y018260D03*
X038260Y019260D03*
X037260Y019260D03*
X037260Y018260D03*
X036260Y018260D03*
X036260Y019260D03*
X035260Y019260D03*
X035260Y018260D03*
X055260Y026260D03*
X056260Y026260D03*
X056260Y027260D03*
X056260Y028260D03*
X055260Y028260D03*
X055260Y027260D03*
X055260Y029260D03*
X056260Y029260D03*
X056260Y030260D03*
X056260Y031260D03*
X055260Y031260D03*
X055260Y030260D03*
X055260Y032260D03*
X055260Y033260D03*
X056260Y033260D03*
X056260Y032260D03*
X056260Y034260D03*
X055260Y034260D03*
X055260Y035260D03*
X055260Y036260D03*
X056260Y036260D03*
X056260Y035260D03*
X056260Y037260D03*
X055260Y037260D03*
X055260Y038260D03*
X056260Y038260D03*
D12*
X050260Y042260D03*
X049260Y042260D03*
X049260Y046260D03*
X050260Y046260D03*
D13*
X048510Y055510D03*
X049135Y056135D03*
X049135Y057385D03*
X048510Y058010D03*
X050410Y056760D03*
X052260Y056760D03*
X054110Y056760D03*
X055385Y056135D03*
X056010Y055510D03*
X055385Y057385D03*
X056010Y058010D03*
D14*
X044260Y051260D03*
X042260Y051260D03*
D15*
X056260Y021160D03*
X056260Y019600D03*
X056260Y018040D03*
X056260Y016480D03*
X056260Y014920D03*
X056260Y013360D03*
D16*
X053510Y005635D03*
X053510Y005010D03*
X053510Y004385D03*
X053510Y003135D03*
X053510Y003135D03*
X053510Y002510D03*
X052260Y002510D03*
X052260Y001885D03*
X052260Y003135D03*
X052260Y004385D03*
X052260Y004385D03*
X052260Y005010D03*
X051010Y005010D03*
X051010Y004385D03*
X051010Y003135D03*
X051010Y003135D03*
X051010Y002510D03*
X049760Y002510D03*
X049760Y001885D03*
X049760Y003135D03*
X049760Y004385D03*
X049760Y004385D03*
X049760Y005010D03*
X048510Y005010D03*
X048510Y004385D03*
X048510Y003135D03*
X048510Y003135D03*
X048510Y002510D03*
X047260Y002510D03*
X047260Y001885D03*
X047260Y003135D03*
X047260Y004385D03*
X047260Y004385D03*
X047260Y005010D03*
X046010Y005010D03*
X046010Y004385D03*
X046010Y003135D03*
X046010Y003135D03*
X046010Y002510D03*
X044760Y002510D03*
X044760Y001885D03*
X044760Y003135D03*
X044760Y004385D03*
X044760Y004385D03*
X044760Y005010D03*
X043510Y005010D03*
X043510Y004385D03*
X043510Y003135D03*
X043510Y003135D03*
X043510Y002510D03*
X042260Y002510D03*
X042260Y001885D03*
X042260Y003135D03*
X042260Y004385D03*
X042260Y004385D03*
X042260Y005010D03*
X041010Y005010D03*
X041010Y004385D03*
X041010Y003135D03*
X041010Y003135D03*
X041010Y002510D03*
X039760Y002510D03*
X039760Y001885D03*
X039760Y003135D03*
X039760Y004385D03*
X039760Y004385D03*
X039760Y005010D03*
X038510Y005010D03*
X038510Y004385D03*
X038510Y003135D03*
X038510Y003135D03*
X038510Y002510D03*
X037260Y002510D03*
X037260Y001885D03*
X037260Y003135D03*
X037260Y004385D03*
X037260Y004385D03*
X037260Y005010D03*
X036010Y005010D03*
X036010Y004385D03*
X036010Y003135D03*
X036010Y003135D03*
X036010Y002510D03*
X034760Y002510D03*
X034760Y001885D03*
X034760Y003135D03*
X034760Y004385D03*
X034760Y004385D03*
X034760Y005010D03*
X033510Y005010D03*
X033510Y004385D03*
X033510Y003135D03*
X033510Y003135D03*
X033510Y002510D03*
X033510Y005635D03*
X036010Y005635D03*
X038510Y005635D03*
X041010Y005635D03*
X043510Y005635D03*
X046010Y005635D03*
X048510Y005635D03*
X051010Y005635D03*
X054760Y005010D03*
X054760Y004385D03*
X054760Y004385D03*
X054760Y003135D03*
X054760Y002510D03*
X054760Y001885D03*
X027260Y001885D03*
X027260Y002510D03*
X027260Y003135D03*
X027260Y004385D03*
X027260Y004385D03*
X027260Y005010D03*
X026010Y005010D03*
X026010Y004385D03*
X026010Y003135D03*
X026010Y003135D03*
X026010Y002510D03*
X024760Y002510D03*
X024760Y001885D03*
X024760Y003135D03*
X024760Y004385D03*
X024760Y004385D03*
X024760Y005010D03*
X023510Y005010D03*
X023510Y004385D03*
X023510Y003135D03*
X023510Y003135D03*
X023510Y002510D03*
X022260Y002510D03*
X022260Y001885D03*
X022260Y003135D03*
X022260Y004385D03*
X022260Y004385D03*
X022260Y005010D03*
X021010Y005010D03*
X021010Y004385D03*
X021010Y003135D03*
X021010Y003135D03*
X021010Y002510D03*
X019760Y002510D03*
X019760Y001885D03*
X019760Y003135D03*
X019760Y004385D03*
X019760Y004385D03*
X019760Y005010D03*
X018510Y005010D03*
X018510Y004385D03*
X018510Y003135D03*
X018510Y003135D03*
X018510Y002510D03*
X017260Y002510D03*
X017260Y001885D03*
X017260Y003135D03*
X017260Y004385D03*
X017260Y004385D03*
X017260Y005010D03*
X016010Y005010D03*
X016010Y004385D03*
X016010Y003135D03*
X016010Y003135D03*
X016010Y002510D03*
X014760Y002510D03*
X014760Y001885D03*
X014760Y003135D03*
X014760Y004385D03*
X014760Y004385D03*
X014760Y005010D03*
X013510Y005010D03*
X013510Y004385D03*
X013510Y003135D03*
X013510Y003135D03*
X013510Y002510D03*
X012260Y002510D03*
X012260Y001885D03*
X012260Y003135D03*
X012260Y004385D03*
X012260Y004385D03*
X012260Y005010D03*
X011010Y005010D03*
X011010Y004385D03*
X011010Y003135D03*
X011010Y003135D03*
X011010Y002510D03*
X009760Y002510D03*
X009760Y001885D03*
X009760Y003135D03*
X009760Y004385D03*
X009760Y004385D03*
X009760Y005010D03*
X008510Y005010D03*
X008510Y004385D03*
X008510Y003135D03*
X008510Y003135D03*
X008510Y002510D03*
X007260Y002510D03*
X007260Y001885D03*
X007260Y003135D03*
X007260Y004385D03*
X007260Y004385D03*
X007260Y005010D03*
X006010Y005010D03*
X006010Y004385D03*
X006010Y003135D03*
X006010Y003135D03*
X006010Y002510D03*
X006010Y005635D03*
X008510Y005635D03*
X011010Y005635D03*
X013510Y005635D03*
X016010Y005635D03*
X018510Y005635D03*
X021010Y005635D03*
X023510Y005635D03*
X026010Y005635D03*
D17*
X000779Y000779D02*
X000654Y000951D01*
X000588Y001154D01*
X000580Y001260D01*
X000580Y059260D01*
X000588Y059366D01*
X000654Y059569D01*
X000779Y059741D01*
X000951Y059866D01*
X001154Y059932D01*
X001260Y059940D01*
X059260Y059940D01*
X059366Y059932D01*
X059569Y059866D01*
X059741Y059741D01*
X059866Y059569D01*
X059932Y059366D01*
X059940Y059260D01*
X059940Y001260D01*
X059932Y001154D01*
X059866Y000951D01*
X059741Y000779D01*
X059569Y000654D01*
X059366Y000588D01*
X059260Y000580D01*
X001260Y000580D01*
X001154Y000588D01*
X000951Y000654D01*
X000779Y000779D01*
X000694Y000897D02*
X001235Y000897D01*
X001140Y000952D02*
X001370Y000819D01*
X001627Y000750D01*
X001893Y000750D01*
X002150Y000819D01*
X002380Y000952D01*
X002568Y001140D01*
X002701Y001370D01*
X002770Y001627D01*
X002770Y001893D01*
X002701Y002150D01*
X002568Y002380D01*
X002380Y002568D01*
X002150Y002701D01*
X001893Y002770D01*
X001627Y002770D01*
X001370Y002701D01*
X001140Y002568D01*
X000952Y002380D01*
X000819Y002150D01*
X000750Y001893D01*
X000750Y001627D01*
X000819Y001370D01*
X000952Y001140D01*
X001140Y000952D01*
X000908Y001216D02*
X000584Y001216D01*
X000580Y001534D02*
X000775Y001534D01*
X000750Y001853D02*
X000580Y001853D01*
X000580Y002171D02*
X000831Y002171D01*
X001061Y002490D02*
X000580Y002490D01*
X000580Y002808D02*
X004411Y002808D01*
X004421Y002783D02*
X006171Y001033D01*
X006283Y000921D01*
X006430Y000860D01*
X009215Y000860D01*
X009362Y000921D01*
X009474Y001033D01*
X009535Y001180D01*
X009535Y001243D01*
X010026Y001243D01*
X010402Y001619D01*
X010402Y002151D01*
X010356Y002197D01*
X010385Y002226D01*
X010744Y001868D01*
X011276Y001868D01*
X011635Y002226D01*
X011664Y002197D01*
X011618Y002151D01*
X011618Y001619D01*
X011994Y001243D01*
X012526Y001243D01*
X012902Y001619D01*
X012902Y002151D01*
X012856Y002197D01*
X012885Y002226D01*
X013244Y001868D01*
X013776Y001868D01*
X014135Y002226D01*
X014164Y002197D01*
X014118Y002151D01*
X014118Y001619D01*
X014494Y001243D01*
X015026Y001243D01*
X015402Y001619D01*
X015402Y002151D01*
X015356Y002197D01*
X015385Y002226D01*
X015744Y001868D01*
X016276Y001868D01*
X016635Y002226D01*
X016664Y002197D01*
X016618Y002151D01*
X016618Y001619D01*
X016994Y001243D01*
X017526Y001243D01*
X017902Y001619D01*
X017902Y002151D01*
X017856Y002197D01*
X017885Y002226D01*
X018244Y001868D01*
X018776Y001868D01*
X019135Y002226D01*
X019164Y002197D01*
X019118Y002151D01*
X019118Y001619D01*
X019494Y001243D01*
X020026Y001243D01*
X020402Y001619D01*
X020402Y002151D01*
X020356Y002197D01*
X020385Y002226D01*
X020744Y001868D01*
X021276Y001868D01*
X021635Y002226D01*
X021664Y002197D01*
X021618Y002151D01*
X021618Y001619D01*
X021994Y001243D01*
X022526Y001243D01*
X022902Y001619D01*
X022902Y002151D01*
X022856Y002197D01*
X022885Y002226D01*
X023244Y001868D01*
X023776Y001868D01*
X024135Y002226D01*
X024164Y002197D01*
X024118Y002151D01*
X024118Y001619D01*
X024494Y001243D01*
X025026Y001243D01*
X025402Y001619D01*
X025402Y002151D01*
X025356Y002197D01*
X025385Y002226D01*
X025744Y001868D01*
X026276Y001868D01*
X026635Y002226D01*
X026664Y002197D01*
X026618Y002151D01*
X026618Y001619D01*
X026994Y001243D01*
X027526Y001243D01*
X027902Y001619D01*
X027902Y002151D01*
X027856Y002197D01*
X027902Y002244D01*
X027902Y002776D01*
X027856Y002823D01*
X027902Y002869D01*
X027902Y003401D01*
X027544Y003760D01*
X027902Y004119D01*
X027902Y004651D01*
X027856Y004697D01*
X027902Y004744D01*
X027902Y005276D01*
X027660Y005519D01*
X027660Y013493D01*
X027735Y013568D01*
X027820Y013774D01*
X027820Y013996D01*
X027735Y014202D01*
X027577Y014360D01*
X027371Y014445D01*
X027149Y014445D01*
X026943Y014360D01*
X026910Y014327D01*
X026910Y017700D01*
X026980Y017700D01*
X027035Y017568D01*
X027193Y017410D01*
X027399Y017325D01*
X027621Y017325D01*
X027827Y017410D01*
X027985Y017568D01*
X027985Y017568D01*
X027985Y013051D01*
X027921Y012987D01*
X027860Y012840D01*
X027860Y012527D01*
X027785Y012452D01*
X027700Y012246D01*
X027700Y012024D01*
X027785Y011818D01*
X027943Y011660D01*
X028149Y011575D01*
X028371Y011575D01*
X028577Y011660D01*
X028735Y011818D01*
X028820Y012024D01*
X028820Y012075D01*
X028871Y012075D01*
X029077Y012160D01*
X029235Y012318D01*
X029320Y012524D01*
X029320Y012746D01*
X029235Y012952D01*
X029160Y013027D01*
X029160Y018700D01*
X029200Y018700D01*
X029200Y018649D01*
X029285Y018443D01*
X029443Y018285D01*
X029649Y018200D01*
X029780Y018200D01*
X029780Y014315D01*
X029700Y014121D01*
X029700Y013899D01*
X029785Y013693D01*
X029943Y013535D01*
X030149Y013450D01*
X030371Y013450D01*
X030577Y013535D01*
X030735Y013693D01*
X030820Y013899D01*
X030820Y014121D01*
X030740Y014315D01*
X030740Y028700D01*
X030871Y028700D01*
X031077Y028785D01*
X031235Y028943D01*
X031320Y029149D01*
X031320Y029371D01*
X031240Y029565D01*
X031240Y039740D01*
X031260Y039740D01*
X031475Y039740D01*
X031780Y040045D01*
X031780Y040260D01*
X031780Y040475D01*
X031475Y040780D01*
X031260Y040780D01*
X031260Y040260D01*
X031260Y028260D01*
X031360Y028288D02*
X030740Y028288D01*
X030740Y027970D02*
X031360Y027970D01*
X031360Y027651D02*
X030740Y027651D01*
X030740Y027333D02*
X031360Y027333D01*
X031360Y027014D02*
X030740Y027014D01*
X030740Y026696D02*
X031360Y026696D01*
X031360Y026377D02*
X030740Y026377D01*
X030740Y026059D02*
X031360Y026059D01*
X031360Y025740D02*
X030740Y025740D01*
X030740Y025422D02*
X031360Y025422D01*
X031360Y025103D02*
X030740Y025103D01*
X030740Y024785D02*
X031360Y024785D01*
X031360Y024466D02*
X030740Y024466D01*
X030740Y024148D02*
X031360Y024148D01*
X031360Y023829D02*
X030740Y023829D01*
X030740Y023511D02*
X031360Y023511D01*
X031360Y023192D02*
X030740Y023192D01*
X030740Y022874D02*
X031360Y022874D01*
X031360Y022555D02*
X030740Y022555D01*
X030740Y022237D02*
X031360Y022237D01*
X031360Y021918D02*
X030740Y021918D01*
X030740Y021600D02*
X031360Y021600D01*
X031360Y021281D02*
X030740Y021281D01*
X030740Y020963D02*
X031360Y020963D01*
X031360Y020777D02*
X031285Y020702D01*
X031200Y020496D01*
X031200Y020274D01*
X031285Y020068D01*
X031443Y019910D01*
X031649Y019825D01*
X031871Y019825D01*
X032077Y019910D01*
X032235Y020068D01*
X032320Y020274D01*
X032320Y020496D01*
X032235Y020702D01*
X032160Y020777D01*
X032160Y023680D01*
X032360Y023680D01*
X032360Y013777D01*
X032285Y013702D01*
X032200Y013496D01*
X032200Y013274D01*
X032285Y013068D01*
X032443Y012910D01*
X032649Y012825D01*
X032871Y012825D01*
X033077Y012910D01*
X033110Y012943D01*
X033110Y006144D01*
X032868Y005901D01*
X032868Y005369D01*
X032914Y005323D01*
X032868Y005276D01*
X032868Y004744D01*
X032914Y004697D01*
X032868Y004651D01*
X032868Y004119D01*
X033226Y003760D01*
X032868Y003401D01*
X032868Y002869D01*
X032914Y002823D01*
X032868Y002776D01*
X032868Y002244D01*
X033244Y001868D01*
X033776Y001868D01*
X034135Y002226D01*
X034164Y002197D01*
X034118Y002151D01*
X034118Y001619D01*
X034494Y001243D01*
X035026Y001243D01*
X035402Y001619D01*
X035402Y002151D01*
X035356Y002197D01*
X035385Y002226D01*
X035744Y001868D01*
X036276Y001868D01*
X036635Y002226D01*
X036664Y002197D01*
X036618Y002151D01*
X036618Y001619D01*
X036994Y001243D01*
X037526Y001243D01*
X037902Y001619D01*
X037902Y002151D01*
X037856Y002197D01*
X037885Y002226D01*
X038244Y001868D01*
X038776Y001868D01*
X039135Y002226D01*
X039164Y002197D01*
X039118Y002151D01*
X039118Y001619D01*
X039494Y001243D01*
X040026Y001243D01*
X040402Y001619D01*
X040402Y002151D01*
X040356Y002197D01*
X040385Y002226D01*
X040744Y001868D01*
X041276Y001868D01*
X041635Y002226D01*
X041664Y002197D01*
X041618Y002151D01*
X041618Y001619D01*
X041994Y001243D01*
X042526Y001243D01*
X042902Y001619D01*
X042902Y002151D01*
X042856Y002197D01*
X042885Y002226D01*
X043244Y001868D01*
X043776Y001868D01*
X044135Y002226D01*
X044164Y002197D01*
X044118Y002151D01*
X044118Y001619D01*
X044494Y001243D01*
X045026Y001243D01*
X045402Y001619D01*
X045402Y002151D01*
X045356Y002197D01*
X045385Y002226D01*
X045744Y001868D01*
X046276Y001868D01*
X046635Y002226D01*
X046664Y002197D01*
X046618Y002151D01*
X046618Y001619D01*
X046994Y001243D01*
X047526Y001243D01*
X047902Y001619D01*
X047902Y002151D01*
X047856Y002197D01*
X047885Y002226D01*
X048244Y001868D01*
X048776Y001868D01*
X049135Y002226D01*
X049164Y002197D01*
X049118Y002151D01*
X049118Y001619D01*
X049494Y001243D01*
X050026Y001243D01*
X050402Y001619D01*
X050402Y002151D01*
X050356Y002197D01*
X050385Y002226D01*
X050744Y001868D01*
X051276Y001868D01*
X051635Y002226D01*
X051664Y002197D01*
X051618Y002151D01*
X051618Y001619D01*
X051994Y001243D01*
X052526Y001243D01*
X052902Y001619D01*
X052902Y002151D01*
X052856Y002197D01*
X052885Y002226D01*
X053244Y001868D01*
X053776Y001868D01*
X054135Y002226D01*
X054164Y002197D01*
X054118Y002151D01*
X054118Y001619D01*
X054494Y001243D01*
X055026Y001243D01*
X055402Y001619D01*
X055402Y002151D01*
X055356Y002197D01*
X055402Y002244D01*
X055402Y002776D01*
X055356Y002823D01*
X055402Y002869D01*
X055402Y003401D01*
X055044Y003760D01*
X055402Y004119D01*
X055402Y004651D01*
X055356Y004697D01*
X055402Y004744D01*
X055402Y005276D01*
X055160Y005519D01*
X055160Y015840D01*
X055099Y015987D01*
X054987Y016099D01*
X052880Y018206D01*
X052880Y018517D01*
X052637Y018760D01*
X052880Y019003D01*
X052880Y019517D01*
X052517Y019880D01*
X052160Y019880D01*
X052160Y024700D01*
X052371Y024700D01*
X052577Y024785D01*
X052735Y024943D01*
X052820Y025149D01*
X052820Y025254D01*
X053155Y025589D01*
X053155Y019040D01*
X053228Y018863D01*
X053363Y018728D01*
X055445Y016646D01*
X055445Y016142D01*
X055922Y015665D01*
X055937Y015665D01*
X055505Y015233D01*
X055505Y014925D01*
X056255Y014925D01*
X056255Y015665D01*
X056265Y015665D01*
X056265Y014925D01*
X057015Y014925D01*
X057015Y015233D01*
X056583Y015665D01*
X056598Y015665D01*
X057075Y016142D01*
X057075Y016818D01*
X056633Y017260D01*
X057075Y017702D01*
X057075Y018378D01*
X056633Y018820D01*
X057075Y019262D01*
X057075Y019938D01*
X056633Y020380D01*
X057075Y020822D01*
X057075Y021498D01*
X056598Y021975D01*
X055922Y021975D01*
X055445Y021498D01*
X055445Y020822D01*
X055887Y020380D01*
X055445Y019938D01*
X055445Y019262D01*
X055887Y018820D01*
X055445Y018378D01*
X055445Y018004D01*
X054115Y019334D01*
X054115Y021427D01*
X054160Y021318D01*
X054318Y021160D01*
X054524Y021075D01*
X054746Y021075D01*
X054952Y021160D01*
X055110Y021318D01*
X055195Y021524D01*
X055195Y021746D01*
X055110Y021952D01*
X055035Y022027D01*
X055035Y025640D01*
X055200Y025640D01*
X055200Y025524D01*
X055283Y025322D01*
X055200Y025121D01*
X055200Y024899D01*
X055285Y024693D01*
X055443Y024535D01*
X055649Y024450D01*
X055871Y024450D01*
X056077Y024535D01*
X056235Y024693D01*
X056320Y024899D01*
X056320Y025004D01*
X056987Y025671D01*
X057099Y025783D01*
X057160Y025930D01*
X057160Y029590D01*
X057099Y029737D01*
X056849Y029987D01*
X056814Y030022D01*
X056820Y030028D01*
X056820Y030260D01*
X056820Y030492D01*
X056552Y030760D01*
X056820Y031028D01*
X056820Y031260D01*
X056820Y031492D01*
X056552Y031760D01*
X056820Y032028D01*
X056820Y032260D01*
X056820Y032492D01*
X056552Y032760D01*
X056820Y033028D01*
X056820Y033260D01*
X056820Y033492D01*
X056552Y033760D01*
X056820Y034028D01*
X056820Y034260D01*
X056820Y034492D01*
X056552Y034760D01*
X056820Y035028D01*
X056820Y035260D01*
X056820Y035492D01*
X056552Y035760D01*
X056820Y036028D01*
X056820Y036260D01*
X056820Y036492D01*
X056552Y036760D01*
X056820Y037028D01*
X056820Y037260D01*
X056820Y037492D01*
X056552Y037760D01*
X056820Y038028D01*
X056820Y038260D01*
X056820Y038492D01*
X056492Y038820D01*
X056260Y038820D01*
X056260Y038260D01*
X056260Y040260D01*
X053260Y040260D01*
X052260Y040260D01*
X052260Y040260D01*
X052260Y040780D01*
X052475Y040780D01*
X052760Y040495D01*
X053045Y040780D01*
X053260Y040780D01*
X053260Y040260D01*
X053260Y040260D01*
X053780Y040260D01*
X053780Y040475D01*
X053475Y040780D01*
X053260Y040780D01*
X053260Y040260D01*
X053260Y040260D01*
X053780Y040260D01*
X053780Y040045D01*
X053475Y039740D01*
X053260Y039740D01*
X053260Y040260D01*
X053260Y040260D01*
X053260Y040260D01*
X052260Y040260D01*
X052260Y040260D01*
X052260Y040260D01*
X051740Y040260D01*
X051740Y040475D01*
X052045Y040780D01*
X052260Y040780D01*
X052260Y040260D01*
X052260Y039740D01*
X052475Y039740D01*
X052760Y040025D01*
X053045Y039740D01*
X053260Y039740D01*
X053260Y040260D01*
X052780Y040260D01*
X052260Y040260D01*
X052260Y040260D01*
X051740Y040260D01*
X051740Y040045D01*
X052045Y039740D01*
X052260Y039740D01*
X052260Y040260D01*
X052260Y040391D02*
X052260Y040391D01*
X052260Y040073D02*
X052260Y040073D01*
X052260Y039754D02*
X052260Y039754D01*
X052489Y039754D02*
X053031Y039754D01*
X053260Y039754D02*
X053260Y039754D01*
X053489Y039754D02*
X059940Y039754D01*
X059940Y039436D02*
X050740Y039436D01*
X050740Y039754D02*
X052031Y039754D01*
X051740Y040073D02*
X050740Y040073D01*
X050740Y040391D02*
X051740Y040391D01*
X051974Y040710D02*
X050740Y040710D01*
X050740Y041028D02*
X059940Y041028D01*
X059940Y040710D02*
X053546Y040710D01*
X053260Y040710D02*
X053260Y040710D01*
X052974Y040710D02*
X052546Y040710D01*
X052260Y040710D02*
X052260Y040710D01*
X053260Y040391D02*
X053260Y040391D01*
X053260Y040073D02*
X053260Y040073D01*
X053780Y040073D02*
X059940Y040073D01*
X059940Y040391D02*
X053780Y040391D01*
X055003Y038880D02*
X054640Y038517D01*
X054640Y038003D01*
X054883Y037760D01*
X054783Y037660D01*
X052180Y037660D01*
X052033Y037599D01*
X051921Y037487D01*
X050740Y036306D01*
X050740Y041821D01*
X050910Y041991D01*
X050910Y042356D01*
X051292Y042738D01*
X051365Y042915D01*
X051365Y055186D01*
X052086Y055908D01*
X052613Y055908D01*
X053112Y056407D01*
X053112Y057113D01*
X052613Y057612D01*
X051907Y057612D01*
X051408Y057113D01*
X051408Y056586D01*
X051262Y056441D01*
X051262Y057113D01*
X050763Y057612D01*
X050057Y057612D01*
X049927Y057483D01*
X049927Y057713D01*
X049463Y058177D01*
X049302Y058177D01*
X049302Y058338D01*
X048838Y058802D01*
X048528Y058802D01*
X048528Y058028D01*
X048492Y058028D01*
X048492Y058802D01*
X048182Y058802D01*
X047718Y058338D01*
X047718Y058028D01*
X048492Y058028D01*
X048492Y057992D01*
X047718Y057992D01*
X047718Y057682D01*
X048182Y057218D01*
X048343Y057218D01*
X048343Y057057D01*
X048639Y056760D01*
X048343Y056463D01*
X048343Y056302D01*
X048182Y056302D01*
X047718Y055838D01*
X047718Y055528D01*
X048492Y055528D01*
X048492Y055492D01*
X048528Y055492D01*
X048528Y054718D01*
X048838Y054718D01*
X049302Y055182D01*
X049302Y055343D01*
X049463Y055343D01*
X049927Y055807D01*
X049927Y056037D01*
X050057Y055908D01*
X050729Y055908D01*
X050613Y055792D01*
X050478Y055657D01*
X050405Y055480D01*
X050405Y046910D01*
X049991Y046910D01*
X049760Y046679D01*
X049529Y046910D01*
X048991Y046910D01*
X048610Y046529D01*
X048610Y045991D01*
X048991Y045610D01*
X049529Y045610D01*
X049760Y045841D01*
X049991Y045610D01*
X050405Y045610D01*
X050405Y043209D01*
X050106Y042910D01*
X049991Y042910D01*
X049760Y042679D01*
X049529Y042910D01*
X049289Y042910D01*
X048604Y043594D01*
X048469Y043729D01*
X047840Y044359D01*
X047840Y044500D01*
X047500Y044840D01*
X047020Y044840D01*
X046680Y044500D01*
X046680Y044020D01*
X046940Y043760D01*
X046680Y043500D01*
X046680Y043020D01*
X046940Y042760D01*
X046680Y042500D01*
X046680Y042020D01*
X047020Y041680D01*
X047500Y041680D01*
X047840Y042020D01*
X047840Y042286D01*
X048198Y042644D01*
X048610Y042231D01*
X048610Y041991D01*
X048991Y041610D01*
X049529Y041610D01*
X049760Y041841D01*
X049780Y041821D01*
X049780Y035695D01*
X049649Y035695D01*
X049443Y035610D01*
X049285Y035452D01*
X049200Y035246D01*
X049200Y035141D01*
X047785Y033726D01*
X047785Y033868D01*
X047860Y033943D01*
X047945Y034149D01*
X047945Y034371D01*
X047860Y034577D01*
X047702Y034735D01*
X047496Y034820D01*
X047274Y034820D01*
X047068Y034735D01*
X046910Y034577D01*
X046825Y034371D01*
X046825Y034149D01*
X046910Y033943D01*
X046985Y033868D01*
X046985Y029577D01*
X046827Y029735D01*
X046660Y029804D01*
X046660Y036368D01*
X046735Y036443D01*
X046820Y036649D01*
X046820Y036871D01*
X046735Y037077D01*
X046577Y037235D01*
X046371Y037320D01*
X046160Y037320D01*
X046160Y041368D01*
X046235Y041443D01*
X046320Y041649D01*
X046320Y041871D01*
X046235Y042077D01*
X046077Y042235D01*
X045871Y042320D01*
X045649Y042320D01*
X045443Y042235D01*
X045285Y042077D01*
X045200Y041871D01*
X045200Y041649D01*
X045285Y041443D01*
X045360Y041368D01*
X045360Y040780D01*
X045260Y040780D01*
X045260Y040260D01*
X045260Y042260D01*
X042760Y042260D01*
X042760Y042385D01*
X042260Y042885D01*
X042260Y051260D01*
X042260Y057260D01*
X041260Y058260D01*
X041260Y058260D01*
X041260Y058820D01*
X041492Y058820D01*
X041820Y058492D01*
X041820Y058260D01*
X041260Y058260D01*
X041260Y058260D01*
X041260Y058260D01*
X040700Y058260D01*
X040700Y058492D01*
X041028Y058820D01*
X041260Y058820D01*
X041260Y058260D01*
X041820Y058260D01*
X041820Y058028D01*
X041492Y057700D01*
X041260Y057700D01*
X041260Y058260D01*
X041260Y058260D01*
X040700Y058260D01*
X040700Y058028D01*
X041028Y057700D01*
X041260Y057700D01*
X041260Y058260D01*
X041260Y058227D02*
X041260Y058227D01*
X041260Y057909D02*
X041260Y057909D01*
X041701Y057909D02*
X043735Y057909D01*
X043780Y057863D02*
X043780Y051940D01*
X043440Y051600D01*
X043440Y050920D01*
X043920Y050440D01*
X044600Y050440D01*
X045080Y050920D01*
X045080Y051600D01*
X044740Y051940D01*
X044740Y057863D01*
X044880Y058003D01*
X044880Y058517D01*
X044517Y058880D01*
X044003Y058880D01*
X043640Y058517D01*
X043640Y058003D01*
X043780Y057863D01*
X043780Y057590D02*
X038660Y057590D01*
X038660Y057783D02*
X038880Y058003D01*
X038880Y058517D01*
X038517Y058880D01*
X038003Y058880D01*
X037640Y058517D01*
X037640Y058003D01*
X037860Y057783D01*
X037860Y053680D01*
X037680Y053500D01*
X037680Y053020D01*
X037940Y052760D01*
X037820Y052640D01*
X035598Y054863D01*
X035780Y055045D01*
X035780Y055260D01*
X035780Y055475D01*
X035475Y055780D01*
X035260Y055780D01*
X035260Y055260D01*
X035260Y058260D01*
X035260Y058260D01*
X035260Y058820D01*
X035492Y058820D01*
X035820Y058492D01*
X035820Y058260D01*
X035260Y058260D01*
X035260Y058260D01*
X035260Y058260D01*
X034700Y058260D01*
X034700Y058492D01*
X035028Y058820D01*
X035260Y058820D01*
X035260Y058260D01*
X035820Y058260D01*
X035820Y058028D01*
X035492Y057700D01*
X035260Y057700D01*
X035260Y058260D01*
X035260Y058260D01*
X034700Y058260D01*
X034700Y058028D01*
X035028Y057700D01*
X035260Y057700D01*
X035260Y058260D01*
X035260Y058227D02*
X035260Y058227D01*
X035260Y057909D02*
X035260Y057909D01*
X035701Y057909D02*
X037735Y057909D01*
X037640Y058227D02*
X035820Y058227D01*
X035766Y058546D02*
X037669Y058546D01*
X037987Y058864D02*
X032972Y058864D01*
X032849Y058987D02*
X032737Y059099D01*
X032590Y059160D01*
X020180Y059160D01*
X020033Y059099D01*
X019921Y058987D01*
X019860Y058840D01*
X019860Y058737D01*
X019640Y058517D01*
X019640Y058003D01*
X019860Y057783D01*
X019860Y053680D01*
X019680Y053500D01*
X019680Y053020D01*
X019940Y052760D01*
X019680Y052500D01*
X019680Y052020D01*
X020020Y051680D01*
X020500Y051680D01*
X020840Y052020D01*
X020840Y052500D01*
X020580Y052760D01*
X020840Y053020D01*
X020840Y053500D01*
X020660Y053680D01*
X020660Y057783D01*
X020880Y058003D01*
X020880Y058360D01*
X022700Y058360D01*
X022700Y058260D01*
X023260Y058260D01*
X023260Y055260D01*
X023260Y055260D01*
X023260Y055780D01*
X023475Y055780D01*
X023780Y055475D01*
X023780Y055260D01*
X023260Y055260D01*
X023260Y055260D01*
X023260Y055260D01*
X022740Y055260D01*
X022740Y055475D01*
X023045Y055780D01*
X023260Y055780D01*
X023260Y055260D01*
X023780Y055260D01*
X023780Y055045D01*
X023475Y054740D01*
X023260Y054740D01*
X023260Y055260D01*
X023260Y055260D01*
X022740Y055260D01*
X022740Y055045D01*
X023045Y054740D01*
X023260Y054740D01*
X023260Y055260D01*
X023260Y055361D02*
X023260Y055361D01*
X023260Y055679D02*
X023260Y055679D01*
X023576Y055679D02*
X025860Y055679D01*
X025860Y055361D02*
X023780Y055361D01*
X023777Y055042D02*
X025860Y055042D01*
X025860Y054724D02*
X020660Y054724D01*
X020660Y055042D02*
X022743Y055042D01*
X022740Y055361D02*
X020660Y055361D01*
X020660Y055679D02*
X022944Y055679D01*
X023260Y055042D02*
X023260Y055042D01*
X020660Y054405D02*
X025860Y054405D01*
X025860Y054087D02*
X020660Y054087D01*
X020660Y053768D02*
X025860Y053768D01*
X025860Y053680D02*
X025680Y053500D01*
X025680Y053020D01*
X025940Y052760D01*
X025680Y052500D01*
X025680Y052020D01*
X026020Y051680D01*
X026500Y051680D01*
X026840Y052020D01*
X026840Y052500D01*
X026580Y052760D01*
X026840Y053020D01*
X026840Y053500D01*
X026660Y053680D01*
X026660Y057783D01*
X026880Y058003D01*
X026880Y058360D01*
X028700Y058360D01*
X028700Y058260D01*
X029260Y058260D01*
X029260Y055260D01*
X029260Y055260D01*
X029260Y055780D01*
X029475Y055780D01*
X029780Y055475D01*
X029780Y055260D01*
X029260Y055260D01*
X029260Y055260D01*
X029260Y055260D01*
X028740Y055260D01*
X028740Y055475D01*
X029045Y055780D01*
X029260Y055780D01*
X029260Y055260D01*
X029780Y055260D01*
X029780Y055045D01*
X029475Y054740D01*
X029260Y054740D01*
X029260Y055260D01*
X029260Y055260D01*
X028740Y055260D01*
X028740Y055045D01*
X029045Y054740D01*
X029260Y054740D01*
X029260Y055260D01*
X029260Y055361D02*
X029260Y055361D01*
X029260Y055679D02*
X029260Y055679D01*
X029576Y055679D02*
X031860Y055679D01*
X031860Y055361D02*
X029780Y055361D01*
X029777Y055042D02*
X031860Y055042D01*
X031860Y054724D02*
X026660Y054724D01*
X026660Y055042D02*
X028743Y055042D01*
X028740Y055361D02*
X026660Y055361D01*
X026660Y055679D02*
X028944Y055679D01*
X029260Y055042D02*
X029260Y055042D01*
X026660Y054405D02*
X031860Y054405D01*
X031860Y054087D02*
X026660Y054087D01*
X026660Y053768D02*
X031860Y053768D01*
X031860Y053680D02*
X031680Y053500D01*
X031680Y053020D01*
X031940Y052760D01*
X031680Y052500D01*
X031680Y052020D01*
X032020Y051680D01*
X032500Y051680D01*
X032840Y052020D01*
X032840Y052114D01*
X035300Y049654D01*
X035193Y049610D01*
X035035Y049452D01*
X034955Y049259D01*
X029613Y043917D01*
X029478Y043782D01*
X029405Y043605D01*
X029405Y042840D01*
X029020Y042840D01*
X028680Y042500D01*
X028680Y042359D01*
X024686Y038365D01*
X017834Y038365D01*
X013840Y042359D01*
X013840Y042500D01*
X013500Y042840D01*
X013020Y042840D01*
X012680Y042500D01*
X012680Y042020D01*
X013020Y041680D01*
X013161Y041680D01*
X017010Y037831D01*
X016680Y037500D01*
X016680Y037020D01*
X016940Y036760D01*
X016840Y036660D01*
X016840Y036660D01*
X014680Y036660D01*
X014538Y036802D01*
X014780Y037045D01*
X014780Y037260D01*
X014780Y037475D01*
X014475Y037780D01*
X014260Y037780D01*
X014260Y037260D01*
X013323Y038198D01*
X013260Y038135D01*
X013260Y028760D01*
X013160Y028607D02*
X013360Y028607D01*
X013360Y028925D02*
X013160Y028925D01*
X013160Y029244D02*
X013360Y029244D01*
X013360Y029562D02*
X013160Y029562D01*
X013160Y029868D02*
X013235Y029943D01*
X013320Y030149D01*
X013320Y030371D01*
X013235Y030577D01*
X013077Y030735D01*
X012871Y030820D01*
X012649Y030820D01*
X012443Y030735D01*
X012285Y030577D01*
X012200Y030371D01*
X012200Y030320D01*
X012149Y030320D01*
X011943Y030235D01*
X011785Y030077D01*
X011700Y029871D01*
X011700Y029766D01*
X011660Y029726D01*
X011660Y035340D01*
X011599Y035487D01*
X011487Y035599D01*
X011320Y035766D01*
X011320Y035871D01*
X011235Y036077D01*
X011077Y036235D01*
X010871Y036320D01*
X010740Y036320D01*
X010740Y041061D01*
X011359Y041680D01*
X011500Y041680D01*
X011840Y042020D01*
X011840Y042500D01*
X011500Y042840D01*
X011020Y042840D01*
X010680Y042500D01*
X010680Y042359D01*
X009853Y041532D01*
X009780Y041355D01*
X009780Y034431D01*
X009445Y034766D01*
X009445Y034871D01*
X009360Y035077D01*
X009202Y035235D01*
X008996Y035320D01*
X008780Y035320D01*
X008780Y035475D01*
X008538Y035718D01*
X008840Y036020D01*
X008840Y036500D01*
X008580Y036760D01*
X008840Y037020D01*
X008840Y037500D01*
X008660Y037680D01*
X008660Y038840D01*
X008840Y039020D01*
X008840Y039500D01*
X008500Y039840D01*
X008020Y039840D01*
X007680Y039500D01*
X007680Y039020D01*
X007860Y038840D01*
X007860Y037680D01*
X007680Y037500D01*
X007680Y037406D01*
X007660Y037426D01*
X007660Y041965D01*
X007599Y042112D01*
X007224Y042487D01*
X007112Y042599D01*
X006965Y042660D01*
X002430Y042660D01*
X002283Y042599D01*
X002171Y042487D01*
X002110Y042340D01*
X002110Y013277D01*
X002035Y013202D01*
X001950Y012996D01*
X001950Y012774D01*
X002035Y012568D01*
X002193Y012410D01*
X002399Y012325D01*
X002621Y012325D01*
X002827Y012410D01*
X002985Y012568D01*
X003040Y012700D01*
X003121Y012700D01*
X003327Y012785D01*
X003360Y012818D01*
X003360Y012152D01*
X003285Y012077D01*
X003200Y011871D01*
X003200Y011649D01*
X003285Y011443D01*
X003443Y011285D01*
X003649Y011200D01*
X003871Y011200D01*
X004077Y011285D01*
X004235Y011443D01*
X004320Y011649D01*
X004320Y011871D01*
X004235Y012077D01*
X004160Y012152D01*
X004160Y020575D01*
X004360Y020575D01*
X004360Y018930D01*
X004421Y018783D01*
X004664Y018541D01*
X004640Y018517D01*
X004640Y018003D01*
X005003Y017640D01*
X005314Y017640D01*
X005485Y017469D01*
X005485Y014695D01*
X005274Y014695D01*
X005068Y014610D01*
X004910Y014452D01*
X004825Y014246D01*
X004825Y014141D01*
X004533Y013849D01*
X004421Y013737D01*
X004360Y013590D01*
X004360Y002930D01*
X004421Y002783D01*
X004360Y003127D02*
X000580Y003127D01*
X000580Y003445D02*
X004360Y003445D01*
X004360Y003764D02*
X000580Y003764D01*
X000580Y004082D02*
X004360Y004082D01*
X004360Y004401D02*
X000580Y004401D01*
X000580Y004719D02*
X004360Y004719D01*
X004360Y005038D02*
X000580Y005038D01*
X000580Y005356D02*
X004360Y005356D01*
X004360Y005675D02*
X000580Y005675D01*
X000580Y005993D02*
X004360Y005993D01*
X004360Y006312D02*
X000580Y006312D01*
X000580Y006630D02*
X004360Y006630D01*
X004360Y006949D02*
X000580Y006949D01*
X000580Y007267D02*
X004360Y007267D01*
X004360Y007586D02*
X000580Y007586D01*
X000580Y007904D02*
X004360Y007904D01*
X004360Y008223D02*
X000580Y008223D01*
X000580Y008541D02*
X004360Y008541D01*
X004360Y008860D02*
X000580Y008860D01*
X000580Y009178D02*
X004360Y009178D01*
X004360Y009497D02*
X000580Y009497D01*
X000580Y009815D02*
X004360Y009815D01*
X004360Y010134D02*
X000580Y010134D01*
X000580Y010452D02*
X004360Y010452D01*
X004360Y010771D02*
X000580Y010771D01*
X000580Y011089D02*
X004360Y011089D01*
X004360Y011408D02*
X004199Y011408D01*
X004320Y011726D02*
X004360Y011726D01*
X004360Y012045D02*
X004248Y012045D01*
X004160Y012363D02*
X004360Y012363D01*
X004360Y012682D02*
X004160Y012682D01*
X004160Y013000D02*
X004360Y013000D01*
X004360Y013319D02*
X004160Y013319D01*
X004160Y013637D02*
X004380Y013637D01*
X004160Y013956D02*
X004640Y013956D01*
X004836Y014274D02*
X004160Y014274D01*
X004160Y014593D02*
X005051Y014593D01*
X005485Y014911D02*
X004160Y014911D01*
X004160Y015230D02*
X005485Y015230D01*
X005485Y015548D02*
X004160Y015548D01*
X004160Y015867D02*
X005485Y015867D01*
X005485Y016185D02*
X004160Y016185D01*
X004160Y016504D02*
X005485Y016504D01*
X005485Y016822D02*
X004160Y016822D01*
X004160Y017141D02*
X005485Y017141D01*
X005485Y017459D02*
X004160Y017459D01*
X004160Y017778D02*
X004866Y017778D01*
X004640Y018096D02*
X004160Y018096D01*
X004160Y018415D02*
X004640Y018415D01*
X004471Y018733D02*
X004160Y018733D01*
X004160Y019052D02*
X004360Y019052D01*
X004360Y019370D02*
X004160Y019370D01*
X004160Y019689D02*
X004360Y019689D01*
X004360Y020007D02*
X004160Y020007D01*
X004160Y020326D02*
X004360Y020326D01*
X002110Y020326D02*
X000580Y020326D01*
X000580Y020644D02*
X002110Y020644D01*
X002110Y020963D02*
X000580Y020963D01*
X000580Y021281D02*
X002110Y021281D01*
X002110Y021600D02*
X000580Y021600D01*
X000580Y021918D02*
X002110Y021918D01*
X002110Y022237D02*
X000580Y022237D01*
X000580Y022555D02*
X002110Y022555D01*
X002110Y022874D02*
X000580Y022874D01*
X000580Y023192D02*
X002110Y023192D01*
X002110Y023511D02*
X000580Y023511D01*
X000580Y023829D02*
X002110Y023829D01*
X002110Y024148D02*
X000580Y024148D01*
X000580Y024466D02*
X002110Y024466D01*
X002110Y024785D02*
X000580Y024785D01*
X000580Y025103D02*
X002110Y025103D01*
X002110Y025422D02*
X000580Y025422D01*
X000580Y025740D02*
X002110Y025740D01*
X002110Y026059D02*
X000580Y026059D01*
X000580Y026377D02*
X002110Y026377D01*
X002110Y026696D02*
X000580Y026696D01*
X000580Y027014D02*
X002110Y027014D01*
X002110Y027333D02*
X000580Y027333D01*
X000580Y027651D02*
X002110Y027651D01*
X002110Y027970D02*
X000580Y027970D01*
X000580Y028288D02*
X002110Y028288D01*
X002110Y028607D02*
X000580Y028607D01*
X000580Y028925D02*
X002110Y028925D01*
X002110Y029244D02*
X000580Y029244D01*
X000580Y029562D02*
X002110Y029562D01*
X002110Y029881D02*
X000580Y029881D01*
X000580Y030199D02*
X002110Y030199D01*
X002110Y030518D02*
X000580Y030518D01*
X000580Y030836D02*
X002110Y030836D01*
X002110Y031155D02*
X000580Y031155D01*
X000580Y031473D02*
X002110Y031473D01*
X002110Y031792D02*
X000580Y031792D01*
X000580Y032110D02*
X002110Y032110D01*
X002110Y032429D02*
X000580Y032429D01*
X000580Y032747D02*
X002110Y032747D01*
X002110Y033066D02*
X000580Y033066D01*
X000580Y033384D02*
X002110Y033384D01*
X002110Y033703D02*
X000580Y033703D01*
X000580Y034021D02*
X002110Y034021D01*
X002110Y034340D02*
X000580Y034340D01*
X000580Y034658D02*
X002110Y034658D01*
X002110Y034977D02*
X000580Y034977D01*
X000580Y035295D02*
X002110Y035295D01*
X002110Y035614D02*
X000580Y035614D01*
X000580Y035932D02*
X002110Y035932D01*
X002110Y036251D02*
X000580Y036251D01*
X000580Y036569D02*
X002110Y036569D01*
X002110Y036888D02*
X000580Y036888D01*
X000580Y037206D02*
X002110Y037206D01*
X002110Y037525D02*
X000580Y037525D01*
X000580Y037843D02*
X002110Y037843D01*
X002110Y038162D02*
X000580Y038162D01*
X000580Y038480D02*
X002110Y038480D01*
X002110Y038799D02*
X000580Y038799D01*
X000580Y039117D02*
X002110Y039117D01*
X002110Y039436D02*
X000580Y039436D01*
X000580Y039754D02*
X002110Y039754D01*
X002110Y040073D02*
X000580Y040073D01*
X000580Y040391D02*
X002110Y040391D01*
X002110Y040710D02*
X000580Y040710D01*
X000580Y041028D02*
X002110Y041028D01*
X002110Y041347D02*
X000580Y041347D01*
X000580Y041665D02*
X002110Y041665D01*
X002110Y041984D02*
X000580Y041984D01*
X000580Y042302D02*
X002110Y042302D01*
X002335Y042621D02*
X000580Y042621D01*
X000580Y042939D02*
X029405Y042939D01*
X029405Y043258D02*
X000580Y043258D01*
X000580Y043576D02*
X029405Y043576D01*
X029591Y043895D02*
X003771Y043895D01*
X003880Y044003D02*
X003517Y043640D01*
X003003Y043640D01*
X002640Y044003D01*
X002640Y044517D01*
X003003Y044880D01*
X003517Y044880D01*
X003880Y044517D01*
X003880Y044003D01*
X003880Y044213D02*
X029909Y044213D01*
X030228Y044532D02*
X003865Y044532D01*
X003547Y044850D02*
X030546Y044850D01*
X030865Y045169D02*
X000580Y045169D01*
X000580Y045487D02*
X031183Y045487D01*
X031502Y045806D02*
X000580Y045806D01*
X000580Y046124D02*
X031820Y046124D01*
X032139Y046443D02*
X000580Y046443D01*
X000580Y046761D02*
X002882Y046761D01*
X003003Y046640D02*
X003517Y046640D01*
X003880Y047003D01*
X003880Y047517D01*
X003517Y047880D01*
X003003Y047880D01*
X002640Y047517D01*
X002640Y047003D01*
X003003Y046640D01*
X002640Y047080D02*
X000580Y047080D01*
X000580Y047398D02*
X002640Y047398D01*
X002840Y047717D02*
X000580Y047717D01*
X000580Y048035D02*
X033731Y048035D01*
X033413Y047717D02*
X003680Y047717D01*
X003880Y047398D02*
X033094Y047398D01*
X032776Y047080D02*
X003880Y047080D01*
X003638Y046761D02*
X032457Y046761D01*
X033178Y046124D02*
X035610Y046124D01*
X035610Y045806D02*
X032859Y045806D01*
X032541Y045487D02*
X035610Y045487D01*
X035610Y045169D02*
X032222Y045169D01*
X031904Y044850D02*
X035610Y044850D01*
X035610Y044532D02*
X031585Y044532D01*
X031267Y044213D02*
X035610Y044213D01*
X035610Y043895D02*
X030948Y043895D01*
X030630Y043576D02*
X035610Y043576D01*
X035610Y043258D02*
X030365Y043258D01*
X030365Y043311D02*
X035610Y048556D01*
X035610Y037730D01*
X035500Y037840D01*
X035160Y037840D01*
X035160Y038368D01*
X035235Y038443D01*
X035320Y038649D01*
X035320Y038871D01*
X035235Y039077D01*
X035077Y039235D01*
X034871Y039320D01*
X034649Y039320D01*
X034443Y039235D01*
X034285Y039077D01*
X034200Y038871D01*
X034200Y038649D01*
X034285Y038443D01*
X034360Y038368D01*
X034360Y035726D01*
X032840Y037246D01*
X032840Y037500D01*
X032500Y037840D01*
X032020Y037840D01*
X031680Y037500D01*
X031680Y037020D01*
X031940Y036760D01*
X031680Y036500D01*
X031680Y036020D01*
X031940Y035760D01*
X031680Y035500D01*
X031680Y035020D01*
X031940Y034760D01*
X031680Y034500D01*
X031680Y034020D01*
X031940Y033760D01*
X031680Y033500D01*
X031680Y033020D01*
X031940Y032760D01*
X031680Y032500D01*
X031680Y032020D01*
X031940Y031760D01*
X031680Y031500D01*
X031680Y031020D01*
X031940Y030760D01*
X031680Y030500D01*
X031680Y030246D01*
X031533Y030099D01*
X031421Y029987D01*
X031360Y029840D01*
X031360Y020777D01*
X031261Y020644D02*
X030740Y020644D01*
X030740Y020326D02*
X031200Y020326D01*
X031346Y020007D02*
X030740Y020007D01*
X030740Y019689D02*
X032360Y019689D01*
X032360Y020007D02*
X032174Y020007D01*
X032320Y020326D02*
X032360Y020326D01*
X032360Y020644D02*
X032259Y020644D01*
X032160Y020963D02*
X032360Y020963D01*
X032360Y021281D02*
X032160Y021281D01*
X032160Y021600D02*
X032360Y021600D01*
X032360Y021918D02*
X032160Y021918D01*
X032160Y022237D02*
X032360Y022237D01*
X032360Y022555D02*
X032160Y022555D01*
X032160Y022874D02*
X032360Y022874D01*
X032360Y023192D02*
X032160Y023192D01*
X032160Y023511D02*
X032360Y023511D01*
X032360Y019370D02*
X030740Y019370D01*
X030740Y019052D02*
X032360Y019052D01*
X032360Y018733D02*
X030740Y018733D01*
X030740Y018415D02*
X032360Y018415D01*
X032360Y018096D02*
X030740Y018096D01*
X030740Y017778D02*
X032360Y017778D01*
X032360Y017459D02*
X030740Y017459D01*
X030740Y017141D02*
X032360Y017141D01*
X032360Y016822D02*
X030740Y016822D01*
X030740Y016504D02*
X032360Y016504D01*
X032360Y016185D02*
X030740Y016185D01*
X030740Y015867D02*
X032360Y015867D01*
X032360Y015548D02*
X030740Y015548D01*
X030740Y015230D02*
X032360Y015230D01*
X032360Y014911D02*
X030740Y014911D01*
X030740Y014593D02*
X032360Y014593D01*
X032360Y014274D02*
X030757Y014274D01*
X030820Y013956D02*
X032360Y013956D01*
X032258Y013637D02*
X030679Y013637D01*
X030260Y014010D02*
X030260Y031135D01*
X029823Y031573D01*
X029885Y031635D01*
X029885Y043510D01*
X035510Y049135D01*
X034976Y049309D02*
X030613Y049309D01*
X030650Y049319D02*
X030880Y049452D01*
X031068Y049640D01*
X031201Y049870D01*
X031270Y050127D01*
X031270Y050393D01*
X031201Y050650D01*
X031068Y050880D01*
X030880Y051068D01*
X030650Y051201D01*
X030393Y051270D01*
X030127Y051270D01*
X029870Y051201D01*
X029840Y051184D01*
X029840Y051500D01*
X029500Y051840D01*
X029020Y051840D01*
X028680Y051500D01*
X028680Y051020D01*
X029020Y050680D01*
X029336Y050680D01*
X029319Y050650D01*
X029250Y050393D01*
X029250Y050127D01*
X029319Y049870D01*
X029452Y049640D01*
X029640Y049452D01*
X029870Y049319D01*
X030127Y049250D01*
X030393Y049250D01*
X030650Y049319D01*
X031056Y049628D02*
X035236Y049628D01*
X035008Y049946D02*
X031222Y049946D01*
X031270Y050265D02*
X034690Y050265D01*
X034371Y050583D02*
X031219Y050583D01*
X031047Y050902D02*
X034053Y050902D01*
X033734Y051220D02*
X030579Y051220D01*
X029941Y051220D02*
X029840Y051220D01*
X029802Y051539D02*
X033416Y051539D01*
X033097Y051857D02*
X032677Y051857D01*
X031843Y051857D02*
X026677Y051857D01*
X026840Y052176D02*
X031680Y052176D01*
X031680Y052494D02*
X026840Y052494D01*
X026633Y052813D02*
X031887Y052813D01*
X031680Y053131D02*
X026840Y053131D01*
X026840Y053450D02*
X031680Y053450D01*
X031860Y053680D02*
X031860Y057783D01*
X031640Y058003D01*
X031640Y058360D01*
X029820Y058360D01*
X029820Y058260D01*
X029260Y058260D01*
X029260Y058260D01*
X029820Y058260D01*
X029820Y058028D01*
X029492Y057700D01*
X029260Y057700D01*
X029260Y058260D01*
X029260Y058260D01*
X029260Y058260D01*
X029260Y057700D01*
X029028Y057700D01*
X028700Y058028D01*
X028700Y058260D01*
X029260Y058260D01*
X029260Y058227D02*
X029260Y058227D01*
X029260Y057909D02*
X029260Y057909D01*
X029701Y057909D02*
X031735Y057909D01*
X031640Y058227D02*
X029820Y058227D01*
X028819Y057909D02*
X026785Y057909D01*
X026880Y058227D02*
X028700Y058227D01*
X026660Y057590D02*
X031860Y057590D01*
X031860Y057272D02*
X026660Y057272D01*
X026660Y056953D02*
X031860Y056953D01*
X031860Y056635D02*
X026660Y056635D01*
X026660Y056316D02*
X031860Y056316D01*
X031860Y055998D02*
X026660Y055998D01*
X025860Y055998D02*
X020660Y055998D01*
X020660Y056316D02*
X025860Y056316D01*
X025860Y056635D02*
X020660Y056635D01*
X020660Y056953D02*
X025860Y056953D01*
X025860Y057272D02*
X020660Y057272D01*
X020660Y057590D02*
X025860Y057590D01*
X025860Y057783D02*
X025860Y053680D01*
X025680Y053450D02*
X020840Y053450D01*
X020840Y053131D02*
X025680Y053131D01*
X025887Y052813D02*
X020633Y052813D01*
X020840Y052494D02*
X025680Y052494D01*
X025680Y052176D02*
X020840Y052176D01*
X020677Y051857D02*
X025843Y051857D01*
X023840Y051500D02*
X023840Y051020D01*
X023500Y050680D01*
X023020Y050680D01*
X022680Y051020D01*
X022680Y051500D01*
X023020Y051840D01*
X023500Y051840D01*
X023840Y051500D01*
X023802Y051539D02*
X028718Y051539D01*
X028680Y051220D02*
X023840Y051220D01*
X023722Y050902D02*
X028798Y050902D01*
X029301Y050583D02*
X003814Y050583D01*
X003880Y050517D02*
X003517Y050880D01*
X003003Y050880D01*
X002640Y050517D01*
X002640Y050003D01*
X003003Y049640D01*
X003517Y049640D01*
X003880Y050003D01*
X003880Y050517D01*
X003880Y050265D02*
X029250Y050265D01*
X029298Y049946D02*
X003823Y049946D01*
X002697Y049946D02*
X000580Y049946D01*
X000580Y049628D02*
X029464Y049628D01*
X029907Y049309D02*
X000580Y049309D01*
X000580Y048991D02*
X034687Y048991D01*
X034368Y048672D02*
X000580Y048672D01*
X000580Y048354D02*
X034050Y048354D01*
X034770Y047717D02*
X035610Y047717D01*
X035610Y048035D02*
X035089Y048035D01*
X035407Y048354D02*
X035610Y048354D01*
X035610Y047398D02*
X034452Y047398D01*
X034133Y047080D02*
X035610Y047080D01*
X035610Y046761D02*
X033815Y046761D01*
X033496Y046443D02*
X035610Y046443D01*
X035610Y042939D02*
X030365Y042939D01*
X030365Y042621D02*
X030800Y042621D01*
X030680Y042500D02*
X030680Y042359D01*
X030365Y042044D01*
X030365Y043311D01*
X031020Y042840D02*
X030680Y042500D01*
X030623Y042302D02*
X030365Y042302D01*
X030635Y041635D02*
X031260Y042260D01*
X031840Y042302D02*
X035610Y042302D01*
X035610Y041984D02*
X031804Y041984D01*
X031840Y042020D02*
X031840Y042500D01*
X031500Y042840D01*
X031020Y042840D01*
X031720Y042621D02*
X035610Y042621D01*
X035610Y041665D02*
X031344Y041665D01*
X031359Y041680D02*
X031500Y041680D01*
X031840Y042020D01*
X031359Y041680D02*
X031115Y041436D01*
X031115Y040780D01*
X031260Y040780D01*
X031260Y040260D01*
X031260Y040260D01*
X031780Y040260D01*
X031260Y040260D01*
X031260Y040260D01*
X031260Y039740D01*
X031260Y040260D01*
X031260Y040260D01*
X031260Y040391D02*
X031260Y040391D01*
X031260Y040073D02*
X031260Y040073D01*
X031260Y039754D02*
X031260Y039754D01*
X031489Y039754D02*
X035610Y039754D01*
X035610Y039436D02*
X031240Y039436D01*
X031240Y039117D02*
X034325Y039117D01*
X034200Y038799D02*
X031240Y038799D01*
X031240Y038480D02*
X034270Y038480D01*
X034360Y038162D02*
X031240Y038162D01*
X031240Y037843D02*
X034360Y037843D01*
X034360Y037525D02*
X032816Y037525D01*
X032880Y037206D02*
X034360Y037206D01*
X034360Y036888D02*
X033198Y036888D01*
X033517Y036569D02*
X034360Y036569D01*
X034360Y036251D02*
X033835Y036251D01*
X034154Y035932D02*
X034360Y035932D01*
X035160Y037843D02*
X035610Y037843D01*
X035610Y038162D02*
X035160Y038162D01*
X035250Y038480D02*
X035610Y038480D01*
X035610Y038799D02*
X035320Y038799D01*
X035195Y039117D02*
X035610Y039117D01*
X035610Y040073D02*
X031780Y040073D01*
X031780Y040391D02*
X035610Y040391D01*
X035610Y040710D02*
X031546Y040710D01*
X031260Y040710D02*
X031260Y040710D01*
X031115Y041028D02*
X035610Y041028D01*
X035610Y041347D02*
X031115Y041347D01*
X030635Y041635D02*
X030635Y040135D01*
X030760Y040010D01*
X030760Y029260D01*
X031320Y029244D02*
X031360Y029244D01*
X031360Y029562D02*
X031241Y029562D01*
X031240Y029881D02*
X031377Y029881D01*
X031240Y030199D02*
X031633Y030199D01*
X031697Y030518D02*
X031240Y030518D01*
X031240Y030836D02*
X031864Y030836D01*
X031680Y031155D02*
X031240Y031155D01*
X031240Y031473D02*
X031680Y031473D01*
X031908Y031792D02*
X031240Y031792D01*
X031240Y032110D02*
X031680Y032110D01*
X031680Y032429D02*
X031240Y032429D01*
X031240Y032747D02*
X031927Y032747D01*
X031680Y033066D02*
X031240Y033066D01*
X031240Y033384D02*
X031680Y033384D01*
X031882Y033703D02*
X031240Y033703D01*
X031240Y034021D02*
X031680Y034021D01*
X031680Y034340D02*
X031240Y034340D01*
X031240Y034658D02*
X031838Y034658D01*
X031723Y034977D02*
X031240Y034977D01*
X031240Y035295D02*
X031680Y035295D01*
X031793Y035614D02*
X031240Y035614D01*
X031240Y035932D02*
X031768Y035932D01*
X031680Y036251D02*
X031240Y036251D01*
X031240Y036569D02*
X031749Y036569D01*
X031812Y036888D02*
X031240Y036888D01*
X031240Y037206D02*
X031680Y037206D01*
X031704Y037525D02*
X031240Y037525D01*
X029405Y037525D02*
X026816Y037525D01*
X026840Y037500D02*
X026500Y037840D01*
X026020Y037840D01*
X025680Y037500D01*
X025680Y037246D01*
X025533Y037099D01*
X025421Y036987D01*
X025360Y036840D01*
X025360Y031055D01*
X025421Y030908D01*
X025755Y030575D01*
X025680Y030500D01*
X025680Y030246D01*
X025408Y029974D01*
X025296Y029862D01*
X025235Y029715D01*
X025235Y028176D01*
X023908Y026849D01*
X023796Y026737D01*
X023740Y026601D01*
X023580Y026760D01*
X023840Y027020D01*
X023840Y027500D01*
X023538Y027802D01*
X023780Y028045D01*
X023780Y028260D01*
X023780Y028475D01*
X023538Y028718D01*
X023840Y029020D01*
X023840Y029161D01*
X025032Y030353D01*
X025167Y030488D01*
X025240Y030665D01*
X025240Y037561D01*
X029359Y041680D01*
X029405Y041680D01*
X029405Y040780D01*
X029260Y040780D01*
X029260Y040260D01*
X028510Y040260D01*
X025260Y037010D01*
X025260Y034260D01*
X025260Y030260D01*
X023260Y028260D01*
X023780Y028260D01*
X023260Y028260D01*
X023260Y028260D01*
X023780Y028288D02*
X025235Y028288D01*
X025235Y028607D02*
X023649Y028607D01*
X023745Y028925D02*
X025235Y028925D01*
X025235Y029244D02*
X023922Y029244D01*
X024241Y029562D02*
X025235Y029562D01*
X025315Y029881D02*
X024559Y029881D01*
X024878Y030199D02*
X025633Y030199D01*
X025697Y030518D02*
X025179Y030518D01*
X025032Y030353D02*
X025032Y030353D01*
X024760Y030760D02*
X024760Y037760D01*
X024760Y037885D01*
X017635Y037885D01*
X013260Y042260D01*
X012680Y042302D02*
X011840Y042302D01*
X011804Y041984D02*
X012716Y041984D01*
X013176Y041665D02*
X011344Y041665D01*
X011025Y041347D02*
X013495Y041347D01*
X013813Y041028D02*
X010740Y041028D01*
X010740Y040710D02*
X010974Y040710D01*
X011045Y040780D02*
X010740Y040475D01*
X010740Y040260D01*
X011260Y040260D01*
X012260Y040260D01*
X012260Y051260D01*
X011260Y051260D01*
X011260Y053260D01*
X003260Y053260D01*
X003820Y053260D01*
X003820Y053492D01*
X003492Y053820D01*
X003260Y053820D01*
X003260Y053260D01*
X003260Y053260D01*
X003260Y053260D01*
X003820Y053260D01*
X003820Y053028D01*
X003492Y052700D01*
X003260Y052700D01*
X003260Y053260D01*
X003260Y053260D01*
X003260Y053260D01*
X002700Y053260D01*
X002700Y053492D01*
X003028Y053820D01*
X003260Y053820D01*
X003260Y053260D01*
X003260Y052700D01*
X003028Y052700D01*
X002700Y053028D01*
X002700Y053260D01*
X003260Y053260D01*
X003260Y053131D02*
X003260Y053131D01*
X003260Y052813D02*
X003260Y052813D01*
X003604Y052813D02*
X019887Y052813D01*
X019680Y053131D02*
X003820Y053131D01*
X003820Y053450D02*
X019680Y053450D01*
X019860Y053768D02*
X003544Y053768D01*
X003260Y053768D02*
X003260Y053768D01*
X002976Y053768D02*
X000580Y053768D01*
X000580Y053450D02*
X002700Y053450D01*
X002700Y053131D02*
X000580Y053131D01*
X000580Y052813D02*
X002915Y052813D01*
X003260Y053450D02*
X003260Y053450D01*
X004680Y055020D02*
X005020Y054680D01*
X005500Y054680D01*
X005680Y054860D01*
X005840Y054860D01*
X006020Y054680D01*
X006500Y054680D01*
X006840Y055020D01*
X006840Y055500D01*
X006500Y055840D01*
X006020Y055840D01*
X005840Y055660D01*
X005680Y055660D01*
X005660Y055680D01*
X005660Y057783D01*
X005880Y058003D01*
X005880Y058517D01*
X005517Y058880D01*
X005003Y058880D01*
X004640Y058517D01*
X004640Y058003D01*
X004860Y057783D01*
X004860Y055680D01*
X004680Y055500D01*
X004680Y055020D01*
X004680Y055042D02*
X000580Y055042D01*
X000580Y054724D02*
X004976Y054724D01*
X005544Y054724D02*
X005976Y054724D01*
X006544Y054724D02*
X007976Y054724D01*
X008020Y054680D02*
X008500Y054680D01*
X008680Y054860D01*
X008840Y054860D01*
X009020Y054680D01*
X009500Y054680D01*
X009840Y055020D01*
X009840Y055500D01*
X009500Y055840D01*
X009020Y055840D01*
X008840Y055660D01*
X008680Y055660D01*
X008660Y055680D01*
X008660Y057783D01*
X008880Y058003D01*
X008880Y058517D01*
X008517Y058880D01*
X008003Y058880D01*
X007640Y058517D01*
X007640Y058003D01*
X007860Y057783D01*
X007860Y055680D01*
X007680Y055500D01*
X007680Y055020D01*
X008020Y054680D01*
X007680Y055042D02*
X006840Y055042D01*
X006840Y055361D02*
X007680Y055361D01*
X007859Y055679D02*
X006661Y055679D01*
X005660Y055998D02*
X007860Y055998D01*
X007860Y056316D02*
X005660Y056316D01*
X005660Y056635D02*
X007860Y056635D01*
X007860Y056953D02*
X005660Y056953D01*
X005660Y057272D02*
X007860Y057272D01*
X007860Y057590D02*
X005660Y057590D01*
X005785Y057909D02*
X007735Y057909D01*
X007640Y058227D02*
X005880Y058227D01*
X005851Y058546D02*
X007669Y058546D01*
X007987Y058864D02*
X005533Y058864D01*
X004987Y058864D02*
X002770Y058864D01*
X002770Y058893D02*
X002701Y059150D01*
X002568Y059380D01*
X002380Y059568D01*
X002150Y059701D01*
X001893Y059770D01*
X001627Y059770D01*
X001370Y059701D01*
X001140Y059568D01*
X000952Y059380D01*
X000819Y059150D01*
X000750Y058893D01*
X000750Y058627D01*
X000819Y058370D01*
X000952Y058140D01*
X001140Y057952D01*
X001370Y057819D01*
X001627Y057750D01*
X001893Y057750D01*
X002150Y057819D01*
X002380Y057952D01*
X002568Y058140D01*
X002701Y058370D01*
X002770Y058627D01*
X002770Y058893D01*
X002682Y059183D02*
X057838Y059183D01*
X057819Y059150D02*
X057750Y058893D01*
X057750Y058627D01*
X057819Y058370D01*
X057952Y058140D01*
X058140Y057952D01*
X058370Y057819D01*
X058627Y057750D01*
X058893Y057750D01*
X059150Y057819D01*
X059380Y057952D01*
X059568Y058140D01*
X059701Y058370D01*
X059770Y058627D01*
X059770Y058893D01*
X059701Y059150D01*
X059568Y059380D01*
X059380Y059568D01*
X059150Y059701D01*
X058893Y059770D01*
X058627Y059770D01*
X058370Y059701D01*
X058140Y059568D01*
X057952Y059380D01*
X057819Y059150D01*
X057750Y058864D02*
X044533Y058864D01*
X044851Y058546D02*
X047925Y058546D01*
X047718Y058227D02*
X044880Y058227D01*
X044785Y057909D02*
X047718Y057909D01*
X047809Y057590D02*
X044740Y057590D01*
X044740Y057272D02*
X048128Y057272D01*
X048446Y056953D02*
X044740Y056953D01*
X044740Y056635D02*
X048514Y056635D01*
X048343Y056316D02*
X044740Y056316D01*
X044740Y055998D02*
X047877Y055998D01*
X047718Y055679D02*
X044740Y055679D01*
X044740Y055361D02*
X047718Y055361D01*
X047718Y055492D02*
X047718Y055182D01*
X048182Y054718D01*
X048492Y054718D01*
X048492Y055492D01*
X047718Y055492D01*
X047857Y055042D02*
X044740Y055042D01*
X044740Y054724D02*
X048176Y054724D01*
X048492Y054724D02*
X048528Y054724D01*
X048844Y054724D02*
X050405Y054724D01*
X050405Y055042D02*
X049163Y055042D01*
X049481Y055361D02*
X050405Y055361D01*
X050500Y055679D02*
X049800Y055679D01*
X049927Y055998D02*
X049967Y055998D01*
X050613Y055792D02*
X050613Y055792D01*
X050885Y055385D02*
X050885Y043010D01*
X050260Y042385D01*
X050260Y042260D01*
X050260Y031260D01*
X051260Y030260D02*
X051260Y035635D01*
X053385Y035635D01*
X053635Y035385D01*
X053635Y019135D01*
X056260Y016510D01*
X056260Y016480D01*
X055445Y016504D02*
X054582Y016504D01*
X054264Y016822D02*
X055269Y016822D01*
X054951Y017141D02*
X053945Y017141D01*
X053627Y017459D02*
X054632Y017459D01*
X054314Y017778D02*
X053308Y017778D01*
X052990Y018096D02*
X053995Y018096D01*
X053677Y018415D02*
X052880Y018415D01*
X052664Y018733D02*
X053358Y018733D01*
X053155Y019052D02*
X052880Y019052D01*
X052880Y019370D02*
X053155Y019370D01*
X053155Y019689D02*
X052708Y019689D01*
X053155Y020007D02*
X052160Y020007D01*
X052160Y020326D02*
X053155Y020326D01*
X053155Y020644D02*
X052160Y020644D01*
X052160Y020963D02*
X053155Y020963D01*
X053155Y021281D02*
X052160Y021281D01*
X052160Y021600D02*
X053155Y021600D01*
X053155Y021918D02*
X052160Y021918D01*
X052160Y022237D02*
X053155Y022237D01*
X053155Y022555D02*
X052160Y022555D01*
X052160Y022874D02*
X053155Y022874D01*
X053155Y023192D02*
X052160Y023192D01*
X052160Y023511D02*
X053155Y023511D01*
X053155Y023829D02*
X052160Y023829D01*
X052160Y024148D02*
X053155Y024148D01*
X053155Y024466D02*
X052160Y024466D01*
X052575Y024785D02*
X053155Y024785D01*
X053155Y025103D02*
X052801Y025103D01*
X052987Y025422D02*
X053155Y025422D01*
X055035Y025422D02*
X055242Y025422D01*
X055200Y025103D02*
X055035Y025103D01*
X055035Y024785D02*
X055247Y024785D01*
X055035Y024466D02*
X055610Y024466D01*
X055910Y024466D02*
X059940Y024466D01*
X059940Y024148D02*
X055035Y024148D01*
X055035Y023829D02*
X059940Y023829D01*
X059940Y023511D02*
X055035Y023511D01*
X055035Y023192D02*
X059940Y023192D01*
X059940Y022874D02*
X055035Y022874D01*
X055035Y022555D02*
X059940Y022555D01*
X059940Y022237D02*
X055035Y022237D01*
X055124Y021918D02*
X055865Y021918D01*
X055547Y021600D02*
X055195Y021600D01*
X055073Y021281D02*
X055445Y021281D01*
X055445Y020963D02*
X054115Y020963D01*
X054115Y021281D02*
X054197Y021281D01*
X054115Y020644D02*
X055623Y020644D01*
X055833Y020326D02*
X054115Y020326D01*
X054115Y020007D02*
X055514Y020007D01*
X055445Y019689D02*
X054115Y019689D01*
X054115Y019370D02*
X055445Y019370D01*
X055656Y019052D02*
X054397Y019052D01*
X054716Y018733D02*
X055800Y018733D01*
X055482Y018415D02*
X055034Y018415D01*
X055353Y018096D02*
X055445Y018096D01*
X056720Y018733D02*
X059940Y018733D01*
X059940Y018415D02*
X057038Y018415D01*
X057075Y018096D02*
X059940Y018096D01*
X059940Y017778D02*
X057075Y017778D01*
X056832Y017459D02*
X059940Y017459D01*
X059940Y017141D02*
X056752Y017141D01*
X057071Y016822D02*
X059940Y016822D01*
X059940Y016504D02*
X057075Y016504D01*
X057075Y016185D02*
X059940Y016185D01*
X059940Y015867D02*
X056799Y015867D01*
X056700Y015548D02*
X059940Y015548D01*
X059940Y015230D02*
X057015Y015230D01*
X057015Y014915D02*
X056265Y014915D01*
X056265Y014925D01*
X056255Y014925D01*
X056255Y014915D01*
X056265Y014915D01*
X056265Y014165D01*
X056573Y014165D01*
X057015Y014607D01*
X057015Y014915D01*
X057015Y014911D02*
X059940Y014911D01*
X059940Y014593D02*
X057000Y014593D01*
X056682Y014274D02*
X059940Y014274D01*
X059940Y013956D02*
X056732Y013956D01*
X056573Y014115D02*
X056265Y014115D01*
X056265Y013365D01*
X057015Y013365D01*
X057015Y013673D01*
X056573Y014115D01*
X056255Y014115D02*
X056255Y013365D01*
X056265Y013365D01*
X056265Y013355D01*
X057015Y013355D01*
X057015Y013047D01*
X056573Y012605D01*
X056265Y012605D01*
X056265Y013355D01*
X056255Y013355D01*
X056255Y012605D01*
X055947Y012605D01*
X055505Y013047D01*
X055505Y013355D01*
X056255Y013355D01*
X056255Y013365D01*
X055505Y013365D01*
X055505Y013673D01*
X055947Y014115D01*
X056255Y014115D01*
X056255Y014165D02*
X056255Y014915D01*
X055505Y014915D01*
X055505Y014607D01*
X055947Y014165D01*
X056255Y014165D01*
X056255Y014274D02*
X056265Y014274D01*
X056255Y013956D02*
X056265Y013956D01*
X056255Y013637D02*
X056265Y013637D01*
X056255Y013319D02*
X056265Y013319D01*
X056255Y013000D02*
X056265Y013000D01*
X056255Y012682D02*
X056265Y012682D01*
X056649Y012682D02*
X059940Y012682D01*
X059940Y013000D02*
X056968Y013000D01*
X057015Y013319D02*
X059940Y013319D01*
X059940Y013637D02*
X057015Y013637D01*
X056265Y014593D02*
X056255Y014593D01*
X056255Y014911D02*
X056265Y014911D01*
X056260Y014920D02*
X056260Y015010D01*
X057260Y016010D01*
X057260Y029635D01*
X056385Y030510D01*
X056260Y030260D01*
X056260Y031260D01*
X056260Y032260D01*
X056260Y033260D01*
X056260Y034260D01*
X056260Y035260D01*
X056260Y036260D01*
X056260Y037260D01*
X056260Y038260D01*
X056260Y038260D01*
X056820Y038260D01*
X056260Y038260D01*
X056260Y038260D01*
X056260Y038820D01*
X056028Y038820D01*
X055802Y038594D01*
X055517Y038880D01*
X055003Y038880D01*
X054922Y038799D02*
X050740Y038799D01*
X050740Y039117D02*
X059940Y039117D01*
X059940Y038799D02*
X056513Y038799D01*
X056260Y038799D02*
X056260Y038799D01*
X056007Y038799D02*
X055598Y038799D01*
X056260Y038480D02*
X056260Y038480D01*
X056260Y038260D02*
X056260Y037820D01*
X056260Y037260D01*
X056820Y037260D01*
X056260Y037260D01*
X056260Y037260D01*
X056260Y037260D01*
X056260Y038260D01*
X056260Y038260D01*
X056260Y038162D02*
X056260Y038162D01*
X056260Y037843D02*
X056260Y037843D01*
X056260Y037525D02*
X056260Y037525D01*
X056260Y037260D02*
X056260Y036820D01*
X056260Y036260D01*
X056820Y036260D01*
X056260Y036260D01*
X056260Y036260D01*
X056260Y036260D01*
X056260Y035700D01*
X056260Y035260D01*
X056820Y035260D01*
X056260Y035260D01*
X056260Y035260D01*
X056260Y035260D01*
X056260Y036260D01*
X056260Y036260D01*
X056260Y037260D01*
X056260Y037260D01*
X056260Y037206D02*
X056260Y037206D01*
X056260Y036888D02*
X056260Y036888D01*
X056260Y036569D02*
X056260Y036569D01*
X056260Y036251D02*
X056260Y036251D01*
X056260Y035932D02*
X056260Y035932D01*
X056260Y035614D02*
X056260Y035614D01*
X056260Y035295D02*
X056260Y035295D01*
X056260Y035260D02*
X056260Y034700D01*
X056260Y034260D01*
X056820Y034260D01*
X056260Y034260D01*
X056260Y034260D01*
X056260Y034260D01*
X056260Y033700D01*
X056260Y033260D01*
X056820Y033260D01*
X056260Y033260D01*
X056260Y033260D01*
X056260Y033260D01*
X056260Y034260D01*
X056260Y034260D01*
X056260Y035260D01*
X056260Y035260D01*
X056260Y034977D02*
X056260Y034977D01*
X056260Y034658D02*
X056260Y034658D01*
X056260Y034340D02*
X056260Y034340D01*
X056260Y034021D02*
X056260Y034021D01*
X056260Y033703D02*
X056260Y033703D01*
X056260Y033384D02*
X056260Y033384D01*
X056260Y033260D02*
X056260Y032700D01*
X056260Y032260D01*
X056820Y032260D01*
X056260Y032260D01*
X056260Y032260D01*
X056260Y032260D01*
X056260Y031820D01*
X056260Y031260D01*
X056820Y031260D01*
X056260Y031260D01*
X056260Y031260D01*
X056260Y031260D01*
X056260Y030700D01*
X056260Y030260D01*
X056820Y030260D01*
X056260Y030260D01*
X056260Y030260D01*
X056260Y030260D01*
X056260Y031260D01*
X056260Y031260D01*
X056260Y032260D01*
X056260Y032260D01*
X056260Y033260D01*
X056260Y033260D01*
X056260Y033066D02*
X056260Y033066D01*
X056260Y032747D02*
X056260Y032747D01*
X056565Y032747D02*
X059940Y032747D01*
X059940Y032429D02*
X056820Y032429D01*
X056820Y032110D02*
X059940Y032110D01*
X059940Y031792D02*
X056583Y031792D01*
X056260Y031792D02*
X056260Y031792D01*
X056260Y032110D02*
X056260Y032110D01*
X056260Y032429D02*
X056260Y032429D01*
X056820Y033066D02*
X059940Y033066D01*
X059940Y033384D02*
X056820Y033384D01*
X056609Y033703D02*
X059940Y033703D01*
X059940Y034021D02*
X056813Y034021D01*
X056820Y034340D02*
X059940Y034340D01*
X059940Y034658D02*
X056654Y034658D01*
X056768Y034977D02*
X059940Y034977D01*
X059940Y035295D02*
X056820Y035295D01*
X056698Y035614D02*
X059940Y035614D01*
X059940Y035932D02*
X056724Y035932D01*
X056820Y036251D02*
X059940Y036251D01*
X059940Y036569D02*
X056743Y036569D01*
X056679Y036888D02*
X059940Y036888D01*
X059940Y037206D02*
X056820Y037206D01*
X056787Y037525D02*
X059940Y037525D01*
X059940Y037843D02*
X056635Y037843D01*
X056820Y038162D02*
X059940Y038162D01*
X059940Y038480D02*
X056820Y038480D01*
X054800Y037843D02*
X050740Y037843D01*
X050740Y037525D02*
X051959Y037525D01*
X051640Y037206D02*
X050740Y037206D01*
X050740Y036888D02*
X051322Y036888D01*
X051003Y036569D02*
X050740Y036569D01*
X049780Y036569D02*
X046787Y036569D01*
X046813Y036888D02*
X049780Y036888D01*
X049780Y037206D02*
X046606Y037206D01*
X046160Y037525D02*
X049780Y037525D01*
X049780Y037843D02*
X046160Y037843D01*
X046160Y038162D02*
X049780Y038162D01*
X049780Y038480D02*
X046160Y038480D01*
X046160Y038799D02*
X049780Y038799D01*
X049780Y039117D02*
X046160Y039117D01*
X046160Y039436D02*
X049780Y039436D01*
X049780Y039754D02*
X047489Y039754D01*
X047475Y039740D02*
X047780Y040045D01*
X047780Y040260D01*
X047780Y040475D01*
X047475Y040780D01*
X047260Y040780D01*
X047260Y040260D01*
X047260Y040260D01*
X047780Y040260D01*
X047260Y040260D01*
X047260Y040260D01*
X047260Y040260D01*
X046740Y040260D01*
X046740Y040475D01*
X047045Y040780D01*
X047260Y040780D01*
X047260Y040260D01*
X047260Y039740D01*
X047475Y039740D01*
X047260Y039740D02*
X047260Y040260D01*
X047260Y040260D01*
X046740Y040260D01*
X046740Y040045D01*
X047045Y039740D01*
X047260Y039740D01*
X047260Y039754D02*
X047260Y039754D01*
X047031Y039754D02*
X046160Y039754D01*
X046160Y040073D02*
X046740Y040073D01*
X046740Y040391D02*
X046160Y040391D01*
X046160Y040710D02*
X046974Y040710D01*
X047260Y040710D02*
X047260Y040710D01*
X047546Y040710D02*
X049780Y040710D01*
X049780Y041028D02*
X046160Y041028D01*
X046160Y041347D02*
X049780Y041347D01*
X049780Y041665D02*
X049584Y041665D01*
X048936Y041665D02*
X046320Y041665D01*
X046274Y041984D02*
X046716Y041984D01*
X046680Y042302D02*
X045915Y042302D01*
X045605Y042302D02*
X043540Y042302D01*
X043496Y042320D02*
X043274Y042320D01*
X043068Y042235D01*
X042910Y042077D01*
X042902Y042057D01*
X042871Y042070D01*
X042649Y042070D01*
X042443Y041985D01*
X042285Y041827D01*
X042200Y041621D01*
X042200Y041399D01*
X042285Y041193D01*
X042343Y041135D01*
X042285Y041077D01*
X042200Y040871D01*
X042200Y040649D01*
X042280Y040455D01*
X042280Y030959D01*
X042136Y030815D01*
X041943Y030735D01*
X041785Y030577D01*
X041779Y030561D01*
X041538Y030802D01*
X041780Y031045D01*
X041780Y031260D01*
X041780Y031475D01*
X041538Y031718D01*
X041840Y032020D01*
X041840Y032500D01*
X041580Y032760D01*
X041840Y033020D01*
X041840Y033500D01*
X041580Y033760D01*
X041840Y034020D01*
X041840Y034500D01*
X041580Y034760D01*
X041840Y035020D01*
X041840Y035274D01*
X041987Y035421D01*
X042099Y035533D01*
X042160Y035680D01*
X042160Y050500D01*
X042260Y050500D01*
X042575Y050500D01*
X043020Y050945D01*
X043020Y051260D01*
X043020Y051575D01*
X042575Y052020D01*
X042260Y052020D01*
X042260Y051260D01*
X042260Y051260D01*
X043020Y051260D01*
X042260Y051260D01*
X042260Y051260D01*
X042260Y052020D01*
X041945Y052020D01*
X041505Y051580D01*
X039160Y053926D01*
X039160Y054493D01*
X039235Y054568D01*
X039320Y054774D01*
X039320Y054996D01*
X039235Y055202D01*
X039077Y055360D01*
X038871Y055445D01*
X038660Y055445D01*
X038660Y057783D01*
X038785Y057909D02*
X040819Y057909D01*
X040700Y058227D02*
X038880Y058227D01*
X038851Y058546D02*
X040754Y058546D01*
X041260Y058546D02*
X041260Y058546D01*
X041766Y058546D02*
X043669Y058546D01*
X043640Y058227D02*
X041820Y058227D01*
X043780Y057272D02*
X038660Y057272D01*
X038660Y056953D02*
X043780Y056953D01*
X043780Y056635D02*
X038660Y056635D01*
X038660Y056316D02*
X043780Y056316D01*
X043780Y055998D02*
X038660Y055998D01*
X038660Y055679D02*
X043780Y055679D01*
X043780Y055361D02*
X039075Y055361D01*
X039301Y055042D02*
X043780Y055042D01*
X043780Y054724D02*
X039299Y054724D01*
X039160Y054405D02*
X043780Y054405D01*
X043780Y054087D02*
X039160Y054087D01*
X039318Y053768D02*
X043780Y053768D01*
X043780Y053450D02*
X039636Y053450D01*
X039955Y053131D02*
X043780Y053131D01*
X043780Y052813D02*
X040273Y052813D01*
X040592Y052494D02*
X043780Y052494D01*
X043780Y052176D02*
X040910Y052176D01*
X041229Y051857D02*
X041782Y051857D01*
X042260Y051857D02*
X042260Y051857D01*
X042260Y051539D02*
X042260Y051539D01*
X042260Y051260D02*
X042260Y050500D01*
X042260Y051260D01*
X042260Y051260D01*
X042260Y051220D02*
X042260Y051220D01*
X042260Y050902D02*
X042260Y050902D01*
X042260Y050583D02*
X042260Y050583D01*
X042160Y050265D02*
X050405Y050265D01*
X050405Y050583D02*
X044743Y050583D01*
X045061Y050902D02*
X050405Y050902D01*
X050405Y051220D02*
X045080Y051220D01*
X045080Y051539D02*
X050405Y051539D01*
X050405Y051857D02*
X044823Y051857D01*
X044740Y052176D02*
X050405Y052176D01*
X050405Y052494D02*
X044740Y052494D01*
X044740Y052813D02*
X050405Y052813D01*
X050405Y053131D02*
X044740Y053131D01*
X044740Y053450D02*
X050405Y053450D01*
X050405Y053768D02*
X044740Y053768D01*
X044740Y054087D02*
X050405Y054087D01*
X050405Y054405D02*
X044740Y054405D01*
X043697Y051857D02*
X042738Y051857D01*
X043020Y051539D02*
X043440Y051539D01*
X043440Y051220D02*
X043020Y051220D01*
X042976Y050902D02*
X043459Y050902D01*
X043777Y050583D02*
X042658Y050583D01*
X042160Y049946D02*
X050405Y049946D01*
X050405Y049628D02*
X042160Y049628D01*
X042160Y049309D02*
X050405Y049309D01*
X050405Y048991D02*
X042160Y048991D01*
X042160Y048672D02*
X050405Y048672D01*
X050405Y048354D02*
X042160Y048354D01*
X042160Y048035D02*
X050405Y048035D01*
X050405Y047717D02*
X042160Y047717D01*
X042160Y047398D02*
X050405Y047398D01*
X050405Y047080D02*
X042160Y047080D01*
X042160Y046761D02*
X048842Y046761D01*
X048610Y046443D02*
X042160Y046443D01*
X042160Y046124D02*
X048610Y046124D01*
X048795Y045806D02*
X042160Y045806D01*
X042160Y045487D02*
X050405Y045487D01*
X050405Y045169D02*
X042160Y045169D01*
X042160Y044850D02*
X050405Y044850D01*
X050405Y044532D02*
X047809Y044532D01*
X047986Y044213D02*
X050405Y044213D01*
X050405Y043895D02*
X048304Y043895D01*
X048469Y043729D02*
X048469Y043729D01*
X048604Y043594D02*
X048604Y043594D01*
X048623Y043576D02*
X050405Y043576D01*
X050405Y043258D02*
X048941Y043258D01*
X049260Y042939D02*
X050135Y042939D01*
X049260Y042260D02*
X048198Y043323D01*
X047260Y042385D01*
X047260Y042260D01*
X046800Y042621D02*
X042160Y042621D01*
X042160Y042939D02*
X046761Y042939D01*
X046680Y043258D02*
X042160Y043258D01*
X042160Y043576D02*
X046756Y043576D01*
X046805Y043895D02*
X045715Y043895D01*
X045840Y044020D02*
X045500Y043680D01*
X045020Y043680D01*
X044680Y044020D01*
X044680Y044500D01*
X045020Y044840D01*
X045500Y044840D01*
X045840Y044500D01*
X045840Y044020D01*
X045840Y044213D02*
X046680Y044213D01*
X046711Y044532D02*
X045809Y044532D01*
X044805Y043895D02*
X042160Y043895D01*
X042160Y044213D02*
X044680Y044213D01*
X044711Y044532D02*
X042160Y044532D01*
X042160Y042302D02*
X043230Y042302D01*
X043496Y042320D02*
X043702Y042235D01*
X043860Y042077D01*
X043945Y041871D01*
X043945Y041649D01*
X043906Y041555D01*
X044863Y040598D01*
X045045Y040780D01*
X045260Y040780D01*
X045260Y040260D01*
X045260Y040260D01*
X045260Y040391D02*
X045260Y040391D01*
X045260Y040710D02*
X045260Y040710D01*
X044974Y040710D02*
X044751Y040710D01*
X044433Y041028D02*
X045360Y041028D01*
X045360Y041347D02*
X044114Y041347D01*
X043945Y041665D02*
X045200Y041665D01*
X045246Y041984D02*
X043899Y041984D01*
X042760Y042260D02*
X042260Y041760D01*
X042260Y032385D01*
X041260Y031385D01*
X041260Y031260D01*
X040635Y030635D01*
X040635Y028885D01*
X041260Y028260D01*
X041780Y028260D01*
X041780Y028475D01*
X041538Y028718D01*
X041840Y029020D01*
X041840Y029114D01*
X042485Y028469D01*
X042485Y020402D01*
X042410Y020327D01*
X042325Y020121D01*
X042325Y019899D01*
X042333Y019880D01*
X042003Y019880D01*
X041760Y019637D01*
X041517Y019880D01*
X041003Y019880D01*
X040979Y019856D01*
X040535Y020301D01*
X040535Y030090D01*
X040474Y030237D01*
X040445Y030266D01*
X040445Y030371D01*
X040360Y030577D01*
X040202Y030735D01*
X039996Y030820D01*
X039785Y030820D01*
X039785Y035169D01*
X040680Y034274D01*
X040680Y034020D01*
X040940Y033760D01*
X040680Y033500D01*
X040680Y033020D01*
X040940Y032760D01*
X040680Y032500D01*
X040680Y032020D01*
X040982Y031718D01*
X040740Y031475D01*
X040740Y031260D01*
X041260Y031260D01*
X041780Y031260D01*
X041260Y031260D01*
X041260Y031260D01*
X041260Y031260D01*
X041260Y031680D01*
X041260Y031680D01*
X041260Y031260D01*
X041260Y031260D01*
X040740Y031260D01*
X040740Y031045D01*
X040982Y030802D01*
X040680Y030500D01*
X040680Y030020D01*
X040940Y029760D01*
X040680Y029500D01*
X040680Y029020D01*
X040982Y028718D01*
X040740Y028475D01*
X040740Y028260D01*
X041260Y028260D01*
X041260Y028260D01*
X041780Y028260D01*
X041780Y028045D01*
X041538Y027802D01*
X041840Y027500D01*
X041840Y027020D01*
X041580Y026760D01*
X041840Y026500D01*
X041840Y026020D01*
X041580Y025760D01*
X041840Y025500D01*
X041840Y025020D01*
X041580Y024760D01*
X041840Y024500D01*
X041840Y024020D01*
X041500Y023680D01*
X041020Y023680D01*
X040680Y024020D01*
X040680Y024500D01*
X040940Y024760D01*
X040680Y025020D01*
X040680Y025500D01*
X040940Y025760D01*
X040680Y026020D01*
X040680Y026500D01*
X040940Y026760D01*
X040680Y027020D01*
X040680Y027500D01*
X040982Y027802D01*
X040740Y028045D01*
X040740Y028260D01*
X041260Y028260D01*
X041260Y028260D01*
X041780Y028288D02*
X042485Y028288D01*
X042485Y027970D02*
X041705Y027970D01*
X041689Y027651D02*
X042485Y027651D01*
X042485Y027333D02*
X041840Y027333D01*
X041834Y027014D02*
X042485Y027014D01*
X042485Y026696D02*
X041645Y026696D01*
X041840Y026377D02*
X042485Y026377D01*
X042485Y026059D02*
X041840Y026059D01*
X041600Y025740D02*
X042485Y025740D01*
X042485Y025422D02*
X041840Y025422D01*
X041840Y025103D02*
X042485Y025103D01*
X042485Y024785D02*
X041605Y024785D01*
X041840Y024466D02*
X042485Y024466D01*
X042485Y024148D02*
X041840Y024148D01*
X041649Y023829D02*
X042485Y023829D01*
X042485Y023511D02*
X040535Y023511D01*
X040535Y023829D02*
X040871Y023829D01*
X040680Y024148D02*
X040535Y024148D01*
X040535Y024466D02*
X040680Y024466D01*
X040535Y024785D02*
X040915Y024785D01*
X040680Y025103D02*
X040535Y025103D01*
X040535Y025422D02*
X040680Y025422D01*
X040535Y025740D02*
X040920Y025740D01*
X040680Y026059D02*
X040535Y026059D01*
X040535Y026377D02*
X040680Y026377D01*
X040535Y026696D02*
X040875Y026696D01*
X040686Y027014D02*
X040535Y027014D01*
X040535Y027333D02*
X040680Y027333D01*
X040535Y027651D02*
X040831Y027651D01*
X040815Y027970D02*
X040535Y027970D01*
X040535Y028288D02*
X040740Y028288D01*
X040871Y028607D02*
X040535Y028607D01*
X040535Y028925D02*
X040775Y028925D01*
X040680Y029244D02*
X040535Y029244D01*
X040535Y029562D02*
X040742Y029562D01*
X040819Y029881D02*
X040535Y029881D01*
X040490Y030199D02*
X040680Y030199D01*
X040697Y030518D02*
X040384Y030518D01*
X040949Y030836D02*
X039785Y030836D01*
X039785Y031155D02*
X040740Y031155D01*
X040740Y031473D02*
X039785Y031473D01*
X039785Y031792D02*
X040908Y031792D01*
X040680Y032110D02*
X039785Y032110D01*
X039785Y032429D02*
X040680Y032429D01*
X040927Y032747D02*
X039785Y032747D01*
X039785Y033066D02*
X040680Y033066D01*
X040680Y033384D02*
X039785Y033384D01*
X039785Y033703D02*
X040882Y033703D01*
X040680Y034021D02*
X039785Y034021D01*
X039785Y034340D02*
X040615Y034340D01*
X040296Y034658D02*
X039785Y034658D01*
X039785Y034977D02*
X039978Y034977D01*
X041682Y034658D02*
X042280Y034658D01*
X042280Y034340D02*
X041840Y034340D01*
X041840Y034021D02*
X042280Y034021D01*
X042280Y033703D02*
X041638Y033703D01*
X041840Y033384D02*
X042280Y033384D01*
X042280Y033066D02*
X041840Y033066D01*
X041593Y032747D02*
X042280Y032747D01*
X042280Y032429D02*
X041840Y032429D01*
X041840Y032110D02*
X042280Y032110D01*
X042280Y031792D02*
X041612Y031792D01*
X041780Y031473D02*
X042280Y031473D01*
X042280Y031155D02*
X041780Y031155D01*
X041571Y030836D02*
X042157Y030836D01*
X042260Y030260D02*
X042760Y030760D01*
X042760Y040760D01*
X042200Y040710D02*
X042160Y040710D01*
X042160Y041028D02*
X042265Y041028D01*
X042222Y041347D02*
X042160Y041347D01*
X042160Y041665D02*
X042218Y041665D01*
X042160Y041984D02*
X042442Y041984D01*
X042280Y040391D02*
X042160Y040391D01*
X042160Y040073D02*
X042280Y040073D01*
X042280Y039754D02*
X042160Y039754D01*
X042160Y039436D02*
X042280Y039436D01*
X042280Y039117D02*
X042160Y039117D01*
X042160Y038799D02*
X042280Y038799D01*
X042280Y038480D02*
X042160Y038480D01*
X042160Y038162D02*
X042280Y038162D01*
X042280Y037843D02*
X042160Y037843D01*
X042160Y037525D02*
X042280Y037525D01*
X042280Y037206D02*
X042160Y037206D01*
X042160Y036888D02*
X042280Y036888D01*
X042280Y036569D02*
X042160Y036569D01*
X042160Y036251D02*
X042280Y036251D01*
X042280Y035932D02*
X042160Y035932D01*
X042132Y035614D02*
X042280Y035614D01*
X042280Y035295D02*
X041861Y035295D01*
X041797Y034977D02*
X042280Y034977D01*
X041260Y031473D02*
X041260Y031473D01*
X041745Y028925D02*
X042029Y028925D01*
X042348Y028607D02*
X041649Y028607D01*
X046660Y029881D02*
X046985Y029881D01*
X046985Y029577D02*
X046985Y029577D01*
X046985Y030199D02*
X046660Y030199D01*
X046660Y030518D02*
X046985Y030518D01*
X046985Y030836D02*
X046660Y030836D01*
X046660Y031155D02*
X046985Y031155D01*
X046985Y031473D02*
X046660Y031473D01*
X046660Y031792D02*
X046985Y031792D01*
X046985Y032110D02*
X046660Y032110D01*
X046660Y032429D02*
X046985Y032429D01*
X046985Y032747D02*
X046660Y032747D01*
X046660Y033066D02*
X046985Y033066D01*
X046985Y033384D02*
X046660Y033384D01*
X046660Y033703D02*
X046985Y033703D01*
X046878Y034021D02*
X046660Y034021D01*
X046660Y034340D02*
X046825Y034340D01*
X046660Y034658D02*
X046991Y034658D01*
X046660Y034977D02*
X049036Y034977D01*
X049220Y035295D02*
X046660Y035295D01*
X046660Y035614D02*
X049452Y035614D01*
X049780Y035932D02*
X046660Y035932D01*
X046660Y036251D02*
X049780Y036251D01*
X048717Y034658D02*
X047779Y034658D01*
X047945Y034340D02*
X048399Y034340D01*
X048080Y034021D02*
X047892Y034021D01*
X050740Y038162D02*
X054640Y038162D01*
X054640Y038480D02*
X050740Y038480D01*
X049780Y040073D02*
X047780Y040073D01*
X047780Y040391D02*
X049780Y040391D01*
X050740Y041347D02*
X059940Y041347D01*
X059940Y041665D02*
X050740Y041665D01*
X050903Y041984D02*
X059940Y041984D01*
X059940Y042302D02*
X050910Y042302D01*
X051174Y042621D02*
X059940Y042621D01*
X059940Y042939D02*
X051365Y042939D01*
X051365Y043258D02*
X059940Y043258D01*
X059940Y043576D02*
X051365Y043576D01*
X051365Y043895D02*
X051805Y043895D01*
X051680Y044020D02*
X052020Y043680D01*
X052500Y043680D01*
X052680Y043860D01*
X052840Y043860D01*
X053020Y043680D01*
X053500Y043680D01*
X053840Y044020D01*
X053840Y044500D01*
X053660Y044680D01*
X053660Y050094D01*
X054246Y050680D01*
X054500Y050680D01*
X054840Y051020D01*
X054840Y051500D01*
X054580Y051760D01*
X054840Y052020D01*
X054840Y052500D01*
X054615Y052725D01*
X054615Y055784D01*
X055057Y055343D01*
X055218Y055343D01*
X055218Y055182D01*
X055682Y054718D01*
X055992Y054718D01*
X055992Y055492D01*
X056028Y055492D01*
X056028Y055528D01*
X056802Y055528D01*
X056802Y055838D01*
X056338Y056302D01*
X056177Y056302D01*
X056177Y056463D01*
X055881Y056760D01*
X056177Y057057D01*
X056177Y057218D01*
X056338Y057218D01*
X056802Y057682D01*
X056802Y057992D01*
X056028Y057992D01*
X056028Y058028D01*
X055992Y058028D01*
X055992Y058802D01*
X055682Y058802D01*
X055218Y058338D01*
X055218Y058177D01*
X055057Y058177D01*
X054593Y057713D01*
X054593Y057483D01*
X054463Y057612D01*
X053757Y057612D01*
X053258Y057113D01*
X053258Y056407D01*
X053655Y056009D01*
X053655Y052290D01*
X053680Y052229D01*
X053680Y052020D01*
X053940Y051760D01*
X053680Y051500D01*
X053680Y051246D01*
X053033Y050599D01*
X052921Y050487D01*
X052860Y050340D01*
X052860Y044680D01*
X052840Y044660D01*
X052680Y044660D01*
X052500Y044840D01*
X052020Y044840D01*
X051680Y044500D01*
X051680Y044020D01*
X051680Y044213D02*
X051365Y044213D01*
X051365Y044532D02*
X051711Y044532D01*
X051365Y044850D02*
X052860Y044850D01*
X052860Y045169D02*
X051365Y045169D01*
X051365Y045487D02*
X052860Y045487D01*
X052860Y045806D02*
X051365Y045806D01*
X051365Y046124D02*
X052860Y046124D01*
X052860Y046443D02*
X051365Y046443D01*
X051365Y046761D02*
X052860Y046761D01*
X052860Y047080D02*
X051365Y047080D01*
X051365Y047398D02*
X052860Y047398D01*
X052860Y047717D02*
X051365Y047717D01*
X051365Y048035D02*
X052860Y048035D01*
X052860Y048354D02*
X051365Y048354D01*
X051365Y048672D02*
X052860Y048672D01*
X052860Y048991D02*
X051365Y048991D01*
X051365Y049309D02*
X052860Y049309D01*
X052860Y049628D02*
X051365Y049628D01*
X051365Y049946D02*
X052860Y049946D01*
X052860Y050265D02*
X051365Y050265D01*
X051365Y050583D02*
X053017Y050583D01*
X053336Y050902D02*
X051365Y050902D01*
X051365Y051220D02*
X053654Y051220D01*
X053718Y051539D02*
X051365Y051539D01*
X051365Y051857D02*
X053843Y051857D01*
X053680Y052176D02*
X051365Y052176D01*
X051365Y052494D02*
X053655Y052494D01*
X053655Y052813D02*
X051365Y052813D01*
X051365Y053131D02*
X053655Y053131D01*
X053655Y053450D02*
X051365Y053450D01*
X051365Y053768D02*
X053655Y053768D01*
X053655Y054087D02*
X051365Y054087D01*
X051365Y054405D02*
X053655Y054405D01*
X053655Y054724D02*
X051365Y054724D01*
X051365Y055042D02*
X053655Y055042D01*
X053655Y055361D02*
X051539Y055361D01*
X051858Y055679D02*
X053655Y055679D01*
X053655Y055998D02*
X052703Y055998D01*
X053022Y056316D02*
X053348Y056316D01*
X053258Y056635D02*
X053112Y056635D01*
X053112Y056953D02*
X053258Y056953D01*
X053416Y057272D02*
X052954Y057272D01*
X052636Y057590D02*
X053734Y057590D01*
X054486Y057590D02*
X054593Y057590D01*
X054788Y057909D02*
X049732Y057909D01*
X049927Y057590D02*
X050034Y057590D01*
X050786Y057590D02*
X051884Y057590D01*
X051566Y057272D02*
X051104Y057272D01*
X051262Y056953D02*
X051408Y056953D01*
X051408Y056635D02*
X051262Y056635D01*
X052260Y056760D02*
X050885Y055385D01*
X049153Y056153D02*
X049153Y056927D01*
X049153Y057367D01*
X049117Y057367D01*
X049117Y056153D01*
X049153Y056153D01*
X049135Y056135D02*
X049135Y057385D01*
X048510Y058010D01*
X048492Y058227D02*
X048528Y058227D01*
X048528Y058546D02*
X048492Y058546D01*
X049095Y058546D02*
X055425Y058546D01*
X055218Y058227D02*
X049302Y058227D01*
X049153Y057272D02*
X049117Y057272D01*
X049117Y056953D02*
X049153Y056953D01*
X049153Y056635D02*
X049117Y056635D01*
X049117Y056316D02*
X049153Y056316D01*
X049135Y056135D02*
X048510Y055510D01*
X048492Y055361D02*
X048528Y055361D01*
X048528Y055042D02*
X048492Y055042D01*
X044260Y058260D02*
X044260Y051260D01*
X049678Y046761D02*
X049842Y046761D01*
X049795Y045806D02*
X049725Y045806D01*
X047260Y044260D02*
X048198Y043323D01*
X048174Y042621D02*
X048221Y042621D01*
X048539Y042302D02*
X047856Y042302D01*
X047804Y041984D02*
X048617Y041984D01*
X047260Y040391D02*
X047260Y040391D01*
X047260Y040073D02*
X047260Y040073D01*
X053715Y043895D02*
X059940Y043895D01*
X059940Y044213D02*
X053840Y044213D01*
X053809Y044532D02*
X059940Y044532D01*
X059940Y044850D02*
X053660Y044850D01*
X053660Y045169D02*
X059940Y045169D01*
X059940Y045487D02*
X053660Y045487D01*
X053660Y045806D02*
X059940Y045806D01*
X059940Y046124D02*
X053660Y046124D01*
X053660Y046443D02*
X059940Y046443D01*
X059940Y046761D02*
X053660Y046761D01*
X053660Y047080D02*
X059940Y047080D01*
X059940Y047398D02*
X053660Y047398D01*
X053660Y047717D02*
X059940Y047717D01*
X059940Y048035D02*
X053660Y048035D01*
X053660Y048354D02*
X059940Y048354D01*
X059940Y048672D02*
X053660Y048672D01*
X053660Y048991D02*
X059940Y048991D01*
X059940Y049309D02*
X053660Y049309D01*
X053660Y049628D02*
X059940Y049628D01*
X059940Y049946D02*
X053660Y049946D01*
X053830Y050265D02*
X059940Y050265D01*
X059940Y050583D02*
X054149Y050583D01*
X054722Y050902D02*
X059940Y050902D01*
X059940Y051220D02*
X054840Y051220D01*
X054802Y051539D02*
X059940Y051539D01*
X059940Y051857D02*
X054677Y051857D01*
X054840Y052176D02*
X059940Y052176D01*
X059940Y052494D02*
X054840Y052494D01*
X054615Y052813D02*
X059940Y052813D01*
X059940Y053131D02*
X054615Y053131D01*
X054615Y053450D02*
X059940Y053450D01*
X059940Y053768D02*
X054615Y053768D01*
X054615Y054087D02*
X059940Y054087D01*
X059940Y054405D02*
X054615Y054405D01*
X054615Y054724D02*
X055676Y054724D01*
X055992Y054724D02*
X056028Y054724D01*
X056028Y054718D02*
X056338Y054718D01*
X056802Y055182D01*
X056802Y055492D01*
X056028Y055492D01*
X056028Y054718D01*
X056344Y054724D02*
X059940Y054724D01*
X059940Y055042D02*
X056663Y055042D01*
X056802Y055361D02*
X059940Y055361D01*
X059940Y055679D02*
X056802Y055679D01*
X056643Y055998D02*
X059940Y055998D01*
X059940Y056316D02*
X056177Y056316D01*
X056006Y056635D02*
X059940Y056635D01*
X059940Y056953D02*
X056074Y056953D01*
X056392Y057272D02*
X059940Y057272D01*
X059940Y057590D02*
X056711Y057590D01*
X056802Y057909D02*
X058215Y057909D01*
X057901Y058227D02*
X056802Y058227D01*
X056802Y058338D02*
X056338Y058802D01*
X056028Y058802D01*
X056028Y058028D01*
X056802Y058028D01*
X056802Y058338D01*
X056595Y058546D02*
X057772Y058546D01*
X058073Y059501D02*
X002447Y059501D01*
X002748Y058546D02*
X004669Y058546D01*
X004640Y058227D02*
X002619Y058227D01*
X002305Y057909D02*
X004735Y057909D01*
X004860Y057590D02*
X000580Y057590D01*
X000580Y057272D02*
X004860Y057272D01*
X004860Y056953D02*
X000580Y056953D01*
X000580Y056635D02*
X004860Y056635D01*
X004860Y056316D02*
X000580Y056316D01*
X000580Y055998D02*
X004860Y055998D01*
X004859Y055679D02*
X000580Y055679D01*
X000580Y055361D02*
X004680Y055361D01*
X005661Y055679D02*
X005859Y055679D01*
X008661Y055679D02*
X008859Y055679D01*
X008660Y055998D02*
X010860Y055998D01*
X010860Y055680D02*
X010680Y055500D01*
X010680Y055020D01*
X011020Y054680D01*
X011500Y054680D01*
X011840Y055020D01*
X011840Y055500D01*
X011660Y055680D01*
X011660Y057783D01*
X011880Y058003D01*
X011880Y058517D01*
X011517Y058880D01*
X011003Y058880D01*
X010640Y058517D01*
X010640Y058003D01*
X010860Y057783D01*
X010860Y055680D01*
X010859Y055679D02*
X009661Y055679D01*
X009840Y055361D02*
X010680Y055361D01*
X010680Y055042D02*
X009840Y055042D01*
X009544Y054724D02*
X010976Y054724D01*
X011544Y054724D02*
X013976Y054724D01*
X014020Y054680D02*
X014500Y054680D01*
X014840Y055020D01*
X014840Y055500D01*
X014660Y055680D01*
X014660Y057783D01*
X014880Y058003D01*
X014880Y058517D01*
X014517Y058880D01*
X014003Y058880D01*
X013640Y058517D01*
X013640Y058003D01*
X013860Y057783D01*
X013860Y055680D01*
X013680Y055500D01*
X013680Y055020D01*
X014020Y054680D01*
X013680Y055042D02*
X011840Y055042D01*
X011840Y055361D02*
X013680Y055361D01*
X013859Y055679D02*
X011661Y055679D01*
X011660Y055998D02*
X013860Y055998D01*
X013860Y056316D02*
X011660Y056316D01*
X011660Y056635D02*
X013860Y056635D01*
X013860Y056953D02*
X011660Y056953D01*
X011660Y057272D02*
X013860Y057272D01*
X013860Y057590D02*
X011660Y057590D01*
X011785Y057909D02*
X013735Y057909D01*
X013640Y058227D02*
X011880Y058227D01*
X011851Y058546D02*
X013669Y058546D01*
X013987Y058864D02*
X011533Y058864D01*
X010987Y058864D02*
X008533Y058864D01*
X008851Y058546D02*
X010669Y058546D01*
X010640Y058227D02*
X008880Y058227D01*
X008785Y057909D02*
X010735Y057909D01*
X010860Y057590D02*
X008660Y057590D01*
X008660Y057272D02*
X010860Y057272D01*
X010860Y056953D02*
X008660Y056953D01*
X008660Y056635D02*
X010860Y056635D01*
X010860Y056316D02*
X008660Y056316D01*
X008544Y054724D02*
X008976Y054724D01*
X009020Y051840D02*
X008920Y051740D01*
X008600Y051740D01*
X008500Y051840D01*
X008020Y051840D01*
X007920Y051740D01*
X006600Y051740D01*
X006500Y051840D01*
X006020Y051840D01*
X005920Y051740D01*
X005600Y051740D01*
X005500Y051840D01*
X005020Y051840D01*
X004680Y051500D01*
X004680Y051020D01*
X005020Y050680D01*
X005500Y050680D01*
X005600Y050780D01*
X005920Y050780D01*
X006020Y050680D01*
X006500Y050680D01*
X006600Y050780D01*
X007920Y050780D01*
X008020Y050680D01*
X008500Y050680D01*
X008600Y050780D01*
X008920Y050780D01*
X009020Y050680D01*
X009500Y050680D01*
X009840Y051020D01*
X009840Y051500D01*
X009500Y051840D01*
X009020Y051840D01*
X009260Y051260D02*
X008260Y051260D01*
X006260Y051260D01*
X005260Y051260D01*
X004680Y051220D02*
X000580Y051220D01*
X000580Y050902D02*
X004798Y050902D01*
X004718Y051539D02*
X000580Y051539D01*
X000580Y051857D02*
X019843Y051857D01*
X019680Y052176D02*
X000580Y052176D01*
X000580Y052494D02*
X019680Y052494D01*
X019860Y054087D02*
X000580Y054087D01*
X000580Y054405D02*
X019860Y054405D01*
X019860Y054724D02*
X014544Y054724D01*
X014840Y055042D02*
X016743Y055042D01*
X016740Y055045D02*
X017045Y054740D01*
X017260Y054740D01*
X017475Y054740D01*
X017780Y055045D01*
X017780Y055260D01*
X017780Y055475D01*
X017475Y055780D01*
X017260Y055780D01*
X017260Y055260D01*
X017260Y055135D01*
X014260Y052135D01*
X014260Y051260D01*
X012260Y051260D01*
X011780Y051260D02*
X011780Y051475D01*
X011475Y051780D01*
X011260Y051780D01*
X011260Y051260D01*
X011260Y051260D01*
X011780Y051260D01*
X011260Y051260D01*
X011260Y051260D01*
X011260Y051260D01*
X010740Y051260D01*
X010740Y051475D01*
X011045Y051780D01*
X011260Y051780D01*
X011260Y051260D01*
X011260Y050740D01*
X011475Y050740D01*
X011780Y051045D01*
X011780Y051260D01*
X011780Y051220D02*
X013740Y051220D01*
X013740Y051260D02*
X013740Y051045D01*
X014045Y050740D01*
X014260Y050740D01*
X014475Y050740D01*
X014780Y051045D01*
X014780Y051260D01*
X014780Y051475D01*
X014475Y051780D01*
X014260Y051780D01*
X014260Y051260D01*
X014260Y051260D01*
X014780Y051260D01*
X014260Y051260D01*
X014260Y051260D01*
X014260Y051260D01*
X013740Y051260D01*
X013740Y051475D01*
X014045Y051780D01*
X014260Y051780D01*
X014260Y051260D01*
X014260Y050740D01*
X014260Y051260D01*
X014260Y051260D01*
X013740Y051260D01*
X013803Y051539D02*
X011717Y051539D01*
X011260Y051539D02*
X011260Y051539D01*
X011260Y051260D02*
X010740Y051260D01*
X010740Y051045D01*
X011045Y050740D01*
X011260Y050740D01*
X011260Y051260D01*
X011260Y051260D01*
X011260Y051220D02*
X011260Y051220D01*
X011260Y050902D02*
X011260Y050902D01*
X011637Y050902D02*
X013883Y050902D01*
X014260Y050902D02*
X014260Y050902D01*
X014260Y051220D02*
X014260Y051220D01*
X014260Y051539D02*
X014260Y051539D01*
X014717Y051539D02*
X016718Y051539D01*
X016680Y051500D02*
X016680Y051020D01*
X017020Y050680D01*
X017500Y050680D01*
X017840Y051020D01*
X017840Y051500D01*
X017500Y051840D01*
X017020Y051840D01*
X016680Y051500D01*
X016680Y051220D02*
X014780Y051220D01*
X014637Y050902D02*
X016798Y050902D01*
X017722Y050902D02*
X022798Y050902D01*
X022680Y051220D02*
X017840Y051220D01*
X017802Y051539D02*
X022718Y051539D01*
X019860Y055042D02*
X017777Y055042D01*
X017780Y055260D02*
X017260Y055260D01*
X017260Y058260D01*
X017260Y058260D01*
X017260Y058820D01*
X017492Y058820D01*
X017820Y058492D01*
X017820Y058260D01*
X017260Y058260D01*
X017260Y058260D01*
X017260Y058260D01*
X016700Y058260D01*
X016700Y058492D01*
X017028Y058820D01*
X017260Y058820D01*
X017260Y058260D01*
X017820Y058260D01*
X017820Y058028D01*
X017492Y057700D01*
X017260Y057700D01*
X017260Y058260D01*
X017260Y058260D01*
X016700Y058260D01*
X016700Y058028D01*
X017028Y057700D01*
X017260Y057700D01*
X017260Y058260D01*
X017260Y058227D02*
X017260Y058227D01*
X017260Y057909D02*
X017260Y057909D01*
X017701Y057909D02*
X019735Y057909D01*
X019640Y058227D02*
X017820Y058227D01*
X017766Y058546D02*
X019669Y058546D01*
X019870Y058864D02*
X014533Y058864D01*
X014851Y058546D02*
X016754Y058546D01*
X016700Y058227D02*
X014880Y058227D01*
X014785Y057909D02*
X016819Y057909D01*
X017260Y058546D02*
X017260Y058546D01*
X017260Y055780D02*
X017045Y055780D01*
X016740Y055475D01*
X016740Y055260D01*
X017260Y055260D01*
X017260Y055260D01*
X017780Y055260D01*
X017780Y055361D02*
X019860Y055361D01*
X019860Y055679D02*
X017576Y055679D01*
X017260Y055679D02*
X017260Y055679D01*
X017260Y055780D02*
X017260Y055260D01*
X017260Y055260D01*
X017260Y055260D01*
X017260Y054740D01*
X017260Y055260D01*
X017260Y055260D01*
X016740Y055260D01*
X016740Y055045D01*
X016740Y055361D02*
X014840Y055361D01*
X014661Y055679D02*
X016944Y055679D01*
X017260Y055361D02*
X017260Y055361D01*
X017260Y055042D02*
X017260Y055042D01*
X014660Y055998D02*
X019860Y055998D01*
X019860Y056316D02*
X014660Y056316D01*
X014660Y056635D02*
X019860Y056635D01*
X019860Y056953D02*
X014660Y056953D01*
X014660Y057272D02*
X019860Y057272D01*
X019860Y057590D02*
X014660Y057590D01*
X020785Y057909D02*
X022819Y057909D01*
X022700Y058028D02*
X023028Y057700D01*
X023260Y057700D01*
X023492Y057700D01*
X023820Y058028D01*
X023820Y058260D01*
X023820Y058360D01*
X025640Y058360D01*
X025640Y058003D01*
X025860Y057783D01*
X025735Y057909D02*
X023701Y057909D01*
X023820Y058227D02*
X025640Y058227D01*
X023820Y058260D02*
X023260Y058260D01*
X023260Y058260D01*
X023820Y058260D01*
X023260Y058260D02*
X023260Y057700D01*
X023260Y058260D01*
X023260Y058260D01*
X023260Y058260D01*
X022700Y058260D01*
X022700Y058028D01*
X022700Y058227D02*
X020880Y058227D01*
X023260Y058227D02*
X023260Y058227D01*
X023260Y057909D02*
X023260Y057909D01*
X032849Y058987D02*
X033099Y058737D01*
X033160Y058590D01*
X033160Y057301D01*
X034863Y055598D01*
X035045Y055780D01*
X035260Y055780D01*
X035260Y055260D01*
X035260Y055260D01*
X035780Y055260D01*
X035260Y055260D01*
X035260Y055260D01*
X035260Y055361D02*
X035260Y055361D01*
X035260Y055679D02*
X035260Y055679D01*
X035576Y055679D02*
X037860Y055679D01*
X037860Y055361D02*
X035780Y055361D01*
X035777Y055042D02*
X037860Y055042D01*
X037860Y054724D02*
X035737Y054724D01*
X036056Y054405D02*
X037860Y054405D01*
X037860Y054087D02*
X036374Y054087D01*
X036693Y053768D02*
X037860Y053768D01*
X037680Y053450D02*
X037011Y053450D01*
X037330Y053131D02*
X037680Y053131D01*
X037648Y052813D02*
X037887Y052813D01*
X037860Y055998D02*
X034463Y055998D01*
X034145Y056316D02*
X037860Y056316D01*
X037860Y056635D02*
X033826Y056635D01*
X033508Y056953D02*
X037860Y056953D01*
X037860Y057272D02*
X033189Y057272D01*
X033160Y057590D02*
X037860Y057590D01*
X038533Y058864D02*
X043987Y058864D01*
X035260Y058546D02*
X035260Y058546D01*
X034754Y058546D02*
X033160Y058546D01*
X033160Y058227D02*
X034700Y058227D01*
X034819Y057909D02*
X033160Y057909D01*
X034782Y055679D02*
X034944Y055679D01*
X028800Y042621D02*
X013720Y042621D01*
X013897Y042302D02*
X028623Y042302D01*
X028305Y041984D02*
X014215Y041984D01*
X014534Y041665D02*
X027986Y041665D01*
X027668Y041347D02*
X014852Y041347D01*
X015171Y041028D02*
X027349Y041028D01*
X027031Y040710D02*
X015489Y040710D01*
X015808Y040391D02*
X026712Y040391D01*
X026394Y040073D02*
X016126Y040073D01*
X016445Y039754D02*
X026075Y039754D01*
X025757Y039436D02*
X016763Y039436D01*
X017082Y039117D02*
X025438Y039117D01*
X025120Y038799D02*
X017400Y038799D01*
X017719Y038480D02*
X024801Y038480D01*
X024760Y037760D02*
X029260Y042260D01*
X029344Y041665D02*
X029405Y041665D01*
X029405Y041347D02*
X029025Y041347D01*
X028707Y041028D02*
X029405Y041028D01*
X029260Y040780D02*
X029045Y040780D01*
X028740Y040475D01*
X028740Y040260D01*
X029260Y040260D01*
X029260Y040260D01*
X029260Y040260D01*
X029260Y040780D01*
X029260Y040710D02*
X029260Y040710D01*
X028974Y040710D02*
X028388Y040710D01*
X028070Y040391D02*
X028740Y040391D01*
X028740Y040260D02*
X028740Y040045D01*
X029045Y039740D01*
X029260Y039740D01*
X029405Y039740D01*
X029405Y032271D01*
X029318Y032235D01*
X029209Y032126D01*
X028570Y032766D01*
X028570Y032871D01*
X028485Y033077D01*
X028327Y033235D01*
X028121Y033320D01*
X027910Y033320D01*
X027910Y034064D01*
X027945Y034149D01*
X027945Y034371D01*
X027860Y034577D01*
X027702Y034735D01*
X027496Y034820D01*
X027285Y034820D01*
X027285Y035715D01*
X027224Y035862D01*
X027112Y035974D01*
X026840Y036246D01*
X026840Y036500D01*
X026580Y036760D01*
X026840Y037020D01*
X026840Y037500D01*
X026840Y037206D02*
X029405Y037206D01*
X029405Y036888D02*
X026708Y036888D01*
X026771Y036569D02*
X029405Y036569D01*
X029405Y036251D02*
X026840Y036251D01*
X027154Y035932D02*
X029405Y035932D01*
X029405Y035614D02*
X027285Y035614D01*
X027285Y035295D02*
X029405Y035295D01*
X029405Y034977D02*
X027285Y034977D01*
X027779Y034658D02*
X029405Y034658D01*
X029405Y034340D02*
X027945Y034340D01*
X027910Y034021D02*
X029405Y034021D01*
X029405Y033703D02*
X027910Y033703D01*
X027910Y033384D02*
X029405Y033384D01*
X029405Y033066D02*
X028490Y033066D01*
X028589Y032747D02*
X029405Y032747D01*
X029405Y032429D02*
X028907Y032429D01*
X029635Y031760D02*
X029823Y031573D01*
X031217Y028925D02*
X031360Y028925D01*
X031360Y028607D02*
X030740Y028607D01*
X025493Y030836D02*
X025240Y030836D01*
X025240Y031155D02*
X025360Y031155D01*
X025360Y031473D02*
X025240Y031473D01*
X025240Y031792D02*
X025360Y031792D01*
X025360Y032110D02*
X025240Y032110D01*
X025240Y032429D02*
X025360Y032429D01*
X025360Y032747D02*
X025240Y032747D01*
X025240Y033066D02*
X025360Y033066D01*
X025360Y033384D02*
X025240Y033384D01*
X025240Y033703D02*
X025360Y033703D01*
X025360Y034021D02*
X025240Y034021D01*
X025240Y034340D02*
X025360Y034340D01*
X025360Y034658D02*
X025240Y034658D01*
X025240Y034977D02*
X025360Y034977D01*
X025360Y035295D02*
X025240Y035295D01*
X025240Y035614D02*
X025360Y035614D01*
X025360Y035932D02*
X025240Y035932D01*
X025240Y036251D02*
X025360Y036251D01*
X025360Y036569D02*
X025240Y036569D01*
X025240Y036888D02*
X025380Y036888D01*
X025240Y037206D02*
X025640Y037206D01*
X025704Y037525D02*
X025240Y037525D01*
X025522Y037843D02*
X029405Y037843D01*
X029405Y038162D02*
X025840Y038162D01*
X026159Y038480D02*
X029405Y038480D01*
X029405Y038799D02*
X026477Y038799D01*
X026796Y039117D02*
X029405Y039117D01*
X029405Y039436D02*
X027114Y039436D01*
X027433Y039754D02*
X029031Y039754D01*
X029260Y039754D02*
X029260Y039754D01*
X029260Y039740D02*
X029260Y040260D01*
X029260Y040260D01*
X028740Y040260D01*
X028740Y040073D02*
X027751Y040073D01*
X029260Y040073D02*
X029260Y040073D01*
X029260Y040260D02*
X029260Y039740D01*
X029260Y040391D02*
X029260Y040391D01*
X024760Y030760D02*
X023260Y029260D01*
X023705Y027970D02*
X025029Y027970D01*
X024710Y027651D02*
X023689Y027651D01*
X023840Y027333D02*
X024392Y027333D01*
X024073Y027014D02*
X023834Y027014D01*
X023779Y026696D02*
X023645Y026696D01*
X021860Y026696D02*
X021660Y026696D01*
X021660Y027014D02*
X021860Y027014D01*
X021760Y027260D02*
X021760Y020760D01*
X021660Y020644D02*
X021860Y020644D01*
X021860Y020326D02*
X021660Y020326D01*
X021660Y020007D02*
X021860Y020007D01*
X021860Y019737D02*
X021760Y019637D01*
X021660Y019737D01*
X021660Y029469D01*
X021766Y029575D01*
X021860Y029575D01*
X021860Y019737D01*
X021812Y019689D02*
X021708Y019689D01*
X021660Y020963D02*
X021860Y020963D01*
X021860Y021281D02*
X021660Y021281D01*
X021660Y021600D02*
X021860Y021600D01*
X021860Y021918D02*
X021660Y021918D01*
X021660Y022237D02*
X021860Y022237D01*
X021860Y022555D02*
X021660Y022555D01*
X021660Y022874D02*
X021860Y022874D01*
X021860Y023192D02*
X021660Y023192D01*
X021660Y023511D02*
X021860Y023511D01*
X021860Y023829D02*
X021660Y023829D01*
X021660Y024148D02*
X021860Y024148D01*
X021860Y024466D02*
X021660Y024466D01*
X021660Y024785D02*
X021860Y024785D01*
X021860Y025103D02*
X021660Y025103D01*
X021660Y025422D02*
X021860Y025422D01*
X021860Y025740D02*
X021660Y025740D01*
X021660Y026059D02*
X021860Y026059D01*
X021860Y026377D02*
X021660Y026377D01*
X021660Y027333D02*
X021860Y027333D01*
X021860Y027651D02*
X021660Y027651D01*
X021660Y027970D02*
X021860Y027970D01*
X021860Y028288D02*
X021660Y028288D01*
X021660Y028607D02*
X021860Y028607D01*
X021860Y028925D02*
X021660Y028925D01*
X021660Y029244D02*
X021860Y029244D01*
X021860Y029562D02*
X021753Y029562D01*
X013940Y031760D02*
X013680Y031500D01*
X013680Y031246D01*
X013533Y031099D01*
X013421Y030987D01*
X013360Y030840D01*
X013360Y019976D01*
X013160Y020176D01*
X013160Y029868D01*
X013172Y029881D02*
X013360Y029881D01*
X013360Y030199D02*
X013320Y030199D01*
X013360Y030518D02*
X013259Y030518D01*
X013360Y030836D02*
X011660Y030836D01*
X011660Y030518D02*
X012261Y030518D01*
X011907Y030199D02*
X011660Y030199D01*
X011660Y029881D02*
X011704Y029881D01*
X012266Y029200D02*
X012360Y029200D01*
X012360Y028780D01*
X012260Y028780D01*
X012260Y028260D01*
X012260Y028260D01*
X012260Y027740D01*
X012360Y027740D01*
X012360Y020476D01*
X012160Y020676D01*
X012160Y027740D01*
X012260Y027740D01*
X012260Y028260D01*
X012260Y028260D01*
X012260Y028780D01*
X012160Y028780D01*
X012160Y029094D01*
X012266Y029200D01*
X012360Y028925D02*
X012160Y028925D01*
X012260Y028607D02*
X012260Y028607D01*
X012260Y028288D02*
X012260Y028288D01*
X012260Y027970D02*
X012260Y027970D01*
X012160Y027651D02*
X012360Y027651D01*
X012360Y027333D02*
X012160Y027333D01*
X012160Y027014D02*
X012360Y027014D01*
X012360Y026696D02*
X012160Y026696D01*
X012160Y026377D02*
X012360Y026377D01*
X012360Y026059D02*
X012160Y026059D01*
X012160Y025740D02*
X012360Y025740D01*
X012360Y025422D02*
X012160Y025422D01*
X012160Y025103D02*
X012360Y025103D01*
X012360Y024785D02*
X012160Y024785D01*
X012160Y024466D02*
X012360Y024466D01*
X012360Y024148D02*
X012160Y024148D01*
X012160Y023829D02*
X012360Y023829D01*
X012360Y023511D02*
X012160Y023511D01*
X012160Y023192D02*
X012360Y023192D01*
X012360Y022874D02*
X012160Y022874D01*
X012160Y022555D02*
X012360Y022555D01*
X012360Y022237D02*
X012160Y022237D01*
X012160Y021918D02*
X012360Y021918D01*
X012360Y021600D02*
X012160Y021600D01*
X012160Y021281D02*
X012360Y021281D01*
X012360Y020963D02*
X012160Y020963D01*
X012192Y020644D02*
X012360Y020644D01*
X013160Y020644D02*
X013360Y020644D01*
X013360Y020326D02*
X013160Y020326D01*
X013329Y020007D02*
X013360Y020007D01*
X013360Y020963D02*
X013160Y020963D01*
X013160Y021281D02*
X013360Y021281D01*
X013360Y021600D02*
X013160Y021600D01*
X013160Y021918D02*
X013360Y021918D01*
X013360Y022237D02*
X013160Y022237D01*
X013160Y022555D02*
X013360Y022555D01*
X013360Y022874D02*
X013160Y022874D01*
X013160Y023192D02*
X013360Y023192D01*
X013360Y023511D02*
X013160Y023511D01*
X013160Y023829D02*
X013360Y023829D01*
X013360Y024148D02*
X013160Y024148D01*
X013160Y024466D02*
X013360Y024466D01*
X013360Y024785D02*
X013160Y024785D01*
X013160Y025103D02*
X013360Y025103D01*
X013360Y025422D02*
X013160Y025422D01*
X013160Y025740D02*
X013360Y025740D01*
X013360Y026059D02*
X013160Y026059D01*
X013160Y026377D02*
X013360Y026377D01*
X013360Y026696D02*
X013160Y026696D01*
X013160Y027014D02*
X013360Y027014D01*
X013360Y027333D02*
X013160Y027333D01*
X013160Y027651D02*
X013360Y027651D01*
X013360Y027970D02*
X013160Y027970D01*
X013160Y028288D02*
X013360Y028288D01*
X013533Y031099D02*
X013533Y031099D01*
X013589Y031155D02*
X011660Y031155D01*
X011660Y031473D02*
X013680Y031473D01*
X013940Y031760D02*
X013680Y032020D01*
X013680Y032500D01*
X013940Y032760D01*
X013680Y033020D01*
X013680Y033500D01*
X013940Y033760D01*
X013680Y034020D01*
X013680Y034500D01*
X013940Y034760D01*
X013680Y035020D01*
X013680Y035500D01*
X013940Y035760D01*
X013680Y036020D01*
X013680Y036500D01*
X013982Y036802D01*
X013740Y037045D01*
X013740Y037260D01*
X014260Y037260D01*
X014260Y037260D01*
X014780Y037260D01*
X014260Y037260D01*
X014260Y037260D01*
X014260Y037260D01*
X014260Y037780D01*
X014045Y037780D01*
X013740Y037475D01*
X013740Y037260D01*
X014260Y037260D01*
X014260Y037525D02*
X014260Y037525D01*
X014731Y037525D02*
X016704Y037525D01*
X016680Y037206D02*
X014780Y037206D01*
X014623Y036888D02*
X016812Y036888D01*
X016998Y037843D02*
X010740Y037843D01*
X010740Y037525D02*
X013789Y037525D01*
X013740Y037206D02*
X010740Y037206D01*
X010740Y036888D02*
X013897Y036888D01*
X013749Y036569D02*
X010740Y036569D01*
X011039Y036251D02*
X013680Y036251D01*
X013768Y035932D02*
X011295Y035932D01*
X011472Y035614D02*
X013793Y035614D01*
X013680Y035295D02*
X011660Y035295D01*
X011660Y034977D02*
X013723Y034977D01*
X013838Y034658D02*
X011660Y034658D01*
X011660Y034340D02*
X013680Y034340D01*
X013680Y034021D02*
X011660Y034021D01*
X011660Y033703D02*
X013882Y033703D01*
X013680Y033384D02*
X011660Y033384D01*
X011660Y033066D02*
X013680Y033066D01*
X013927Y032747D02*
X011660Y032747D01*
X011660Y032429D02*
X013680Y032429D01*
X013680Y032110D02*
X011660Y032110D01*
X011660Y031792D02*
X013908Y031792D01*
X009780Y034658D02*
X009553Y034658D01*
X009401Y034977D02*
X009780Y034977D01*
X009780Y035295D02*
X009057Y035295D01*
X008642Y035614D02*
X009780Y035614D01*
X009780Y035932D02*
X008752Y035932D01*
X008840Y036251D02*
X009780Y036251D01*
X009780Y036569D02*
X008771Y036569D01*
X008708Y036888D02*
X009780Y036888D01*
X009780Y037206D02*
X008840Y037206D01*
X008816Y037525D02*
X009780Y037525D01*
X009780Y037843D02*
X008660Y037843D01*
X008660Y038162D02*
X009780Y038162D01*
X009780Y038480D02*
X008660Y038480D01*
X008660Y038799D02*
X009780Y038799D01*
X009780Y039117D02*
X008840Y039117D01*
X008840Y039436D02*
X009780Y039436D01*
X009780Y039754D02*
X008586Y039754D01*
X007934Y039754D02*
X007660Y039754D01*
X007660Y039436D02*
X007680Y039436D01*
X007660Y039117D02*
X007680Y039117D01*
X007660Y038799D02*
X007860Y038799D01*
X007860Y038480D02*
X007660Y038480D01*
X007660Y038162D02*
X007860Y038162D01*
X007860Y037843D02*
X007660Y037843D01*
X007660Y037525D02*
X007704Y037525D01*
X007240Y036714D02*
X007680Y036274D01*
X007680Y036020D01*
X007982Y035718D01*
X007740Y035475D01*
X007740Y035260D01*
X008260Y035260D01*
X007260Y034260D01*
X007260Y029010D01*
X006885Y028635D01*
X006885Y020635D01*
X006760Y020510D01*
X006660Y020644D02*
X007360Y020644D01*
X007360Y020326D02*
X006660Y020326D01*
X006660Y020007D02*
X007360Y020007D01*
X007360Y019880D02*
X007003Y019880D01*
X006760Y019637D01*
X006660Y019737D01*
X006660Y028700D01*
X006871Y028700D01*
X007077Y028785D01*
X007235Y028943D01*
X007320Y029149D01*
X007320Y029371D01*
X007240Y029565D01*
X007240Y036714D01*
X007240Y036569D02*
X007385Y036569D01*
X007240Y036251D02*
X007680Y036251D01*
X007768Y035932D02*
X007240Y035932D01*
X007240Y035614D02*
X007878Y035614D01*
X007740Y035295D02*
X007240Y035295D01*
X007240Y034977D02*
X007808Y034977D01*
X007740Y035045D02*
X007982Y034802D01*
X007680Y034500D01*
X007680Y034246D01*
X007533Y034099D01*
X007421Y033987D01*
X007360Y033840D01*
X007360Y019880D01*
X006812Y019689D02*
X006708Y019689D01*
X006660Y020963D02*
X007360Y020963D01*
X007360Y021281D02*
X006660Y021281D01*
X006660Y021600D02*
X007360Y021600D01*
X007360Y021918D02*
X006660Y021918D01*
X006660Y022237D02*
X007360Y022237D01*
X007360Y022555D02*
X006660Y022555D01*
X006660Y022874D02*
X007360Y022874D01*
X007360Y023192D02*
X006660Y023192D01*
X006660Y023511D02*
X007360Y023511D01*
X007360Y023829D02*
X006660Y023829D01*
X006660Y024148D02*
X007360Y024148D01*
X007360Y024466D02*
X006660Y024466D01*
X006660Y024785D02*
X007360Y024785D01*
X007360Y025103D02*
X006660Y025103D01*
X006660Y025422D02*
X007360Y025422D01*
X007360Y025740D02*
X006660Y025740D01*
X006660Y026059D02*
X007360Y026059D01*
X007360Y026377D02*
X006660Y026377D01*
X006660Y026696D02*
X007360Y026696D01*
X007360Y027014D02*
X006660Y027014D01*
X006660Y027333D02*
X007360Y027333D01*
X007360Y027651D02*
X006660Y027651D01*
X006660Y027970D02*
X007360Y027970D01*
X007360Y028288D02*
X006660Y028288D01*
X006660Y028607D02*
X007360Y028607D01*
X007360Y028925D02*
X007217Y028925D01*
X007320Y029244D02*
X007360Y029244D01*
X007360Y029562D02*
X007241Y029562D01*
X007240Y029881D02*
X007360Y029881D01*
X007360Y030199D02*
X007240Y030199D01*
X007240Y030518D02*
X007360Y030518D01*
X007360Y030836D02*
X007240Y030836D01*
X007240Y031155D02*
X007360Y031155D01*
X007360Y031473D02*
X007240Y031473D01*
X007240Y031792D02*
X007360Y031792D01*
X007360Y032110D02*
X007240Y032110D01*
X007240Y032429D02*
X007360Y032429D01*
X007360Y032747D02*
X007240Y032747D01*
X007240Y033066D02*
X007360Y033066D01*
X007360Y033384D02*
X007240Y033384D01*
X007240Y033703D02*
X007360Y033703D01*
X007455Y034021D02*
X007240Y034021D01*
X007240Y034340D02*
X007680Y034340D01*
X007838Y034658D02*
X007240Y034658D01*
X007740Y035045D02*
X007740Y035260D01*
X008260Y035260D01*
X008260Y035260D01*
X010740Y038162D02*
X016680Y038162D01*
X016361Y038480D02*
X010740Y038480D01*
X010740Y038799D02*
X016043Y038799D01*
X015724Y039117D02*
X010740Y039117D01*
X010740Y039436D02*
X015406Y039436D01*
X015087Y039754D02*
X013489Y039754D01*
X013475Y039740D02*
X013780Y040045D01*
X013780Y040260D01*
X013780Y040475D01*
X013475Y040780D01*
X013260Y040780D01*
X013260Y040260D01*
X013260Y038260D01*
X013323Y038198D01*
X013260Y039740D02*
X013475Y039740D01*
X013260Y039740D02*
X013260Y040260D01*
X012260Y040260D01*
X012740Y040260D02*
X012740Y040045D01*
X013045Y039740D01*
X013260Y039740D01*
X013260Y040260D01*
X013260Y040260D01*
X013780Y040260D01*
X013260Y040260D01*
X013260Y040260D01*
X013260Y040260D01*
X012740Y040260D01*
X012740Y040475D01*
X013045Y040780D01*
X013260Y040780D01*
X013260Y040260D01*
X013260Y040260D01*
X012740Y040260D01*
X012740Y040391D02*
X011780Y040391D01*
X011780Y040475D02*
X011475Y040780D01*
X011260Y040780D01*
X011260Y040260D01*
X011260Y040260D01*
X011780Y040260D01*
X011780Y040475D01*
X011780Y040260D02*
X011260Y040260D01*
X011260Y040260D01*
X011260Y040260D01*
X011260Y040780D01*
X011045Y040780D01*
X011260Y040710D02*
X011260Y040710D01*
X011546Y040710D02*
X012974Y040710D01*
X013260Y040710D02*
X013260Y040710D01*
X013546Y040710D02*
X014132Y040710D01*
X014450Y040391D02*
X013780Y040391D01*
X013780Y040073D02*
X014769Y040073D01*
X013260Y040073D02*
X013260Y040073D01*
X013260Y040391D02*
X013260Y040391D01*
X012740Y040073D02*
X011780Y040073D01*
X011780Y040045D02*
X011780Y040260D01*
X011780Y040045D02*
X011475Y039740D01*
X011260Y039740D01*
X011260Y040260D01*
X011260Y040260D01*
X010740Y040260D01*
X010740Y040045D01*
X011045Y039740D01*
X011260Y039740D01*
X011260Y040260D01*
X011260Y040391D02*
X011260Y040391D01*
X011260Y040073D02*
X011260Y040073D01*
X011260Y039754D02*
X011260Y039754D01*
X011489Y039754D02*
X013031Y039754D01*
X013260Y039754D02*
X013260Y039754D01*
X011031Y039754D02*
X010740Y039754D01*
X010740Y040073D02*
X010740Y040073D01*
X010740Y040391D02*
X010740Y040391D01*
X009780Y040391D02*
X007660Y040391D01*
X007660Y040073D02*
X009780Y040073D01*
X009780Y040710D02*
X007660Y040710D01*
X007660Y041028D02*
X009780Y041028D01*
X009780Y041347D02*
X007660Y041347D01*
X007660Y041665D02*
X009986Y041665D01*
X010305Y041984D02*
X007652Y041984D01*
X007409Y042302D02*
X010623Y042302D01*
X010800Y042621D02*
X007060Y042621D01*
X006760Y040260D02*
X006760Y029260D01*
X010260Y028260D02*
X010260Y041260D01*
X011260Y042260D01*
X011720Y042621D02*
X012800Y042621D01*
X010883Y050902D02*
X009722Y050902D01*
X009840Y051220D02*
X010740Y051220D01*
X010803Y051539D02*
X009802Y051539D01*
X002706Y050583D02*
X000580Y050583D01*
X000580Y050265D02*
X002640Y050265D01*
X002973Y044850D02*
X000580Y044850D01*
X000580Y044532D02*
X002655Y044532D01*
X002640Y044213D02*
X000580Y044213D01*
X000580Y043895D02*
X002749Y043895D01*
X001215Y057909D02*
X000580Y057909D01*
X000580Y058227D02*
X000901Y058227D01*
X000772Y058546D02*
X000580Y058546D01*
X000580Y058864D02*
X000750Y058864D01*
X000838Y059183D02*
X000580Y059183D01*
X000632Y059501D02*
X001073Y059501D01*
X000888Y059820D02*
X059632Y059820D01*
X059447Y059501D02*
X059888Y059501D01*
X059940Y059183D02*
X059682Y059183D01*
X059770Y058864D02*
X059940Y058864D01*
X059940Y058546D02*
X059748Y058546D01*
X059619Y058227D02*
X059940Y058227D01*
X059940Y057909D02*
X059305Y057909D01*
X056028Y058227D02*
X055992Y058227D01*
X056010Y058010D02*
X055385Y057385D01*
X055385Y056135D01*
X056010Y055510D01*
X055992Y055361D02*
X056028Y055361D01*
X056028Y055042D02*
X055992Y055042D01*
X055357Y055042D02*
X054615Y055042D01*
X054615Y055361D02*
X055039Y055361D01*
X054720Y055679D02*
X054615Y055679D01*
X055367Y056153D02*
X055367Y057367D01*
X055403Y057367D01*
X055403Y056593D01*
X055403Y056153D01*
X055367Y056153D01*
X055367Y056316D02*
X055403Y056316D01*
X055403Y056635D02*
X055367Y056635D01*
X055367Y056953D02*
X055403Y056953D01*
X055403Y057272D02*
X055367Y057272D01*
X054135Y056760D02*
X054110Y056760D01*
X054135Y056760D02*
X054135Y052385D01*
X054260Y052260D01*
X055992Y058546D02*
X056028Y058546D01*
X056260Y031473D02*
X056260Y031473D01*
X056260Y031155D02*
X056260Y031155D01*
X056260Y030836D02*
X056260Y030836D01*
X056260Y030518D02*
X056260Y030518D01*
X056628Y030836D02*
X059940Y030836D01*
X059940Y030518D02*
X056794Y030518D01*
X056820Y030199D02*
X059940Y030199D01*
X059940Y029881D02*
X056955Y029881D01*
X057160Y029562D02*
X059940Y029562D01*
X059940Y029244D02*
X057160Y029244D01*
X057160Y028925D02*
X059940Y028925D01*
X059940Y028607D02*
X057160Y028607D01*
X057160Y028288D02*
X059940Y028288D01*
X059940Y027970D02*
X057160Y027970D01*
X057160Y027651D02*
X059940Y027651D01*
X059940Y027333D02*
X057160Y027333D01*
X057160Y027014D02*
X059940Y027014D01*
X059940Y026696D02*
X057160Y026696D01*
X057160Y026377D02*
X059940Y026377D01*
X059940Y026059D02*
X057160Y026059D01*
X057056Y025740D02*
X059940Y025740D01*
X059940Y025422D02*
X056737Y025422D01*
X056419Y025103D02*
X059940Y025103D01*
X059940Y024785D02*
X056273Y024785D01*
X056655Y021918D02*
X059940Y021918D01*
X059940Y021600D02*
X056973Y021600D01*
X057075Y021281D02*
X059940Y021281D01*
X059940Y020963D02*
X057075Y020963D01*
X056897Y020644D02*
X059940Y020644D01*
X059940Y020326D02*
X056687Y020326D01*
X057006Y020007D02*
X059940Y020007D01*
X059940Y019689D02*
X057075Y019689D01*
X057075Y019370D02*
X059940Y019370D01*
X059940Y019052D02*
X056864Y019052D01*
X055445Y016185D02*
X054901Y016185D01*
X055149Y015867D02*
X055721Y015867D01*
X055820Y015548D02*
X055160Y015548D01*
X055160Y015230D02*
X055505Y015230D01*
X055505Y014911D02*
X055160Y014911D01*
X055160Y014593D02*
X055520Y014593D01*
X055838Y014274D02*
X055160Y014274D01*
X055160Y013956D02*
X055788Y013956D01*
X055505Y013637D02*
X055160Y013637D01*
X055160Y013319D02*
X055505Y013319D01*
X055552Y013000D02*
X055160Y013000D01*
X055160Y012682D02*
X055871Y012682D01*
X055160Y012363D02*
X059940Y012363D01*
X059940Y012045D02*
X055160Y012045D01*
X055160Y011726D02*
X059940Y011726D01*
X059940Y011408D02*
X055160Y011408D01*
X055160Y011089D02*
X059940Y011089D01*
X059940Y010771D02*
X055160Y010771D01*
X055160Y010452D02*
X059940Y010452D01*
X059940Y010134D02*
X055160Y010134D01*
X055160Y009815D02*
X059940Y009815D01*
X059940Y009497D02*
X055160Y009497D01*
X055160Y009178D02*
X059940Y009178D01*
X059940Y008860D02*
X055160Y008860D01*
X055160Y008541D02*
X059940Y008541D01*
X059940Y008223D02*
X055160Y008223D01*
X055160Y007904D02*
X059940Y007904D01*
X059940Y007586D02*
X055160Y007586D01*
X055160Y007267D02*
X059940Y007267D01*
X059940Y006949D02*
X055160Y006949D01*
X055160Y006630D02*
X059940Y006630D01*
X059940Y006312D02*
X055160Y006312D01*
X055160Y005993D02*
X059940Y005993D01*
X059940Y005675D02*
X055160Y005675D01*
X055323Y005356D02*
X059940Y005356D01*
X059940Y005038D02*
X055402Y005038D01*
X055378Y004719D02*
X059940Y004719D01*
X059940Y004401D02*
X055402Y004401D01*
X055366Y004082D02*
X059940Y004082D01*
X059940Y003764D02*
X055047Y003764D01*
X055359Y003445D02*
X059940Y003445D01*
X059940Y003127D02*
X055402Y003127D01*
X055371Y002808D02*
X059940Y002808D01*
X059940Y002490D02*
X059459Y002490D01*
X059380Y002568D02*
X059150Y002701D01*
X058893Y002770D01*
X058627Y002770D01*
X058370Y002701D01*
X058140Y002568D01*
X057952Y002380D01*
X057819Y002150D01*
X057750Y001893D01*
X057750Y001627D01*
X057819Y001370D01*
X057952Y001140D01*
X058140Y000952D01*
X058370Y000819D01*
X058627Y000750D01*
X058893Y000750D01*
X059150Y000819D01*
X059380Y000952D01*
X059568Y001140D01*
X059701Y001370D01*
X059770Y001627D01*
X059770Y001893D01*
X059701Y002150D01*
X059568Y002380D01*
X059380Y002568D01*
X059689Y002171D02*
X059940Y002171D01*
X059940Y001853D02*
X059770Y001853D01*
X059745Y001534D02*
X059940Y001534D01*
X059936Y001216D02*
X059612Y001216D01*
X059826Y000897D02*
X059285Y000897D01*
X058235Y000897D02*
X009304Y000897D01*
X009535Y001216D02*
X057908Y001216D01*
X057775Y001534D02*
X055318Y001534D01*
X055402Y001853D02*
X057750Y001853D01*
X057831Y002171D02*
X055383Y002171D01*
X055402Y002490D02*
X058061Y002490D01*
X054137Y002171D02*
X054080Y002171D01*
X054118Y001853D02*
X052902Y001853D01*
X052883Y002171D02*
X052940Y002171D01*
X052818Y001534D02*
X054202Y001534D01*
X051702Y001534D02*
X050318Y001534D01*
X050402Y001853D02*
X051618Y001853D01*
X051637Y002171D02*
X051580Y002171D01*
X050440Y002171D02*
X050383Y002171D01*
X049137Y002171D02*
X049080Y002171D01*
X049118Y001853D02*
X047902Y001853D01*
X047883Y002171D02*
X047940Y002171D01*
X047818Y001534D02*
X049202Y001534D01*
X046702Y001534D02*
X045318Y001534D01*
X045402Y001853D02*
X046618Y001853D01*
X046637Y002171D02*
X046580Y002171D01*
X045440Y002171D02*
X045383Y002171D01*
X044202Y001534D02*
X042818Y001534D01*
X042902Y001853D02*
X044118Y001853D01*
X044137Y002171D02*
X044080Y002171D01*
X042940Y002171D02*
X042883Y002171D01*
X041637Y002171D02*
X041580Y002171D01*
X041618Y001853D02*
X040402Y001853D01*
X040383Y002171D02*
X040440Y002171D01*
X040318Y001534D02*
X041702Y001534D01*
X039202Y001534D02*
X037818Y001534D01*
X037902Y001853D02*
X039118Y001853D01*
X039137Y002171D02*
X039080Y002171D01*
X037940Y002171D02*
X037883Y002171D01*
X036637Y002171D02*
X036580Y002171D01*
X036618Y001853D02*
X035402Y001853D01*
X035383Y002171D02*
X035440Y002171D01*
X035318Y001534D02*
X036702Y001534D01*
X034202Y001534D02*
X027818Y001534D01*
X027902Y001853D02*
X034118Y001853D01*
X034137Y002171D02*
X034080Y002171D01*
X032940Y002171D02*
X027883Y002171D01*
X027902Y002490D02*
X032868Y002490D01*
X032899Y002808D02*
X027871Y002808D01*
X027902Y003127D02*
X032868Y003127D01*
X032911Y003445D02*
X027859Y003445D01*
X027547Y003764D02*
X033223Y003764D01*
X032904Y004082D02*
X027866Y004082D01*
X027902Y004401D02*
X032868Y004401D01*
X032892Y004719D02*
X027878Y004719D01*
X027902Y005038D02*
X032868Y005038D01*
X032880Y005356D02*
X027823Y005356D01*
X027660Y005675D02*
X032868Y005675D01*
X032959Y005993D02*
X027660Y005993D01*
X027660Y006312D02*
X033110Y006312D01*
X033110Y006630D02*
X027660Y006630D01*
X027660Y006949D02*
X033110Y006949D01*
X033110Y007267D02*
X027660Y007267D01*
X027660Y007586D02*
X033110Y007586D01*
X033110Y007904D02*
X027660Y007904D01*
X027660Y008223D02*
X033110Y008223D01*
X033110Y008541D02*
X027660Y008541D01*
X027660Y008860D02*
X033110Y008860D01*
X033110Y009178D02*
X027660Y009178D01*
X027660Y009497D02*
X029595Y009497D01*
X029640Y009452D02*
X029870Y009319D01*
X030127Y009250D01*
X030393Y009250D01*
X030650Y009319D01*
X030880Y009452D01*
X031068Y009640D01*
X031201Y009870D01*
X031270Y010127D01*
X031270Y010393D01*
X031201Y010650D01*
X031068Y010880D01*
X030880Y011068D01*
X030650Y011201D01*
X030393Y011270D01*
X030127Y011270D01*
X029870Y011201D01*
X029640Y011068D01*
X029452Y010880D01*
X029319Y010650D01*
X029250Y010393D01*
X029250Y010127D01*
X029319Y009870D01*
X029452Y009640D01*
X029640Y009452D01*
X029351Y009815D02*
X027660Y009815D01*
X027660Y010134D02*
X029250Y010134D01*
X029266Y010452D02*
X027660Y010452D01*
X027660Y010771D02*
X029388Y010771D01*
X029676Y011089D02*
X027660Y011089D01*
X027660Y011408D02*
X033110Y011408D01*
X033110Y011726D02*
X028643Y011726D01*
X028820Y012045D02*
X033110Y012045D01*
X033110Y012363D02*
X029253Y012363D01*
X029320Y012682D02*
X033110Y012682D01*
X032353Y013000D02*
X029187Y013000D01*
X029160Y013319D02*
X032200Y013319D01*
X029841Y013637D02*
X029160Y013637D01*
X029160Y013956D02*
X029700Y013956D01*
X029763Y014274D02*
X029160Y014274D01*
X029160Y014593D02*
X029780Y014593D01*
X029780Y014911D02*
X029160Y014911D01*
X029160Y015230D02*
X029780Y015230D01*
X029780Y015548D02*
X029160Y015548D01*
X029160Y015867D02*
X029780Y015867D01*
X029780Y016185D02*
X029160Y016185D01*
X029160Y016504D02*
X029780Y016504D01*
X029780Y016822D02*
X029160Y016822D01*
X029160Y017141D02*
X029780Y017141D01*
X029780Y017459D02*
X029160Y017459D01*
X029160Y017778D02*
X029780Y017778D01*
X029780Y018096D02*
X029160Y018096D01*
X029160Y018415D02*
X029314Y018415D01*
X027985Y017459D02*
X027876Y017459D01*
X027985Y017141D02*
X026910Y017141D01*
X026910Y017459D02*
X027144Y017459D01*
X026910Y016822D02*
X027985Y016822D01*
X027985Y016504D02*
X026910Y016504D01*
X026910Y016185D02*
X027985Y016185D01*
X027985Y015867D02*
X026910Y015867D01*
X026910Y015548D02*
X027985Y015548D01*
X027985Y015230D02*
X026910Y015230D01*
X026910Y014911D02*
X027985Y014911D01*
X027985Y014593D02*
X026910Y014593D01*
X027663Y014274D02*
X027985Y014274D01*
X027985Y013956D02*
X027820Y013956D01*
X027763Y013637D02*
X027985Y013637D01*
X027985Y013319D02*
X027660Y013319D01*
X027660Y013000D02*
X027934Y013000D01*
X027860Y012682D02*
X027660Y012682D01*
X027660Y012363D02*
X027748Y012363D01*
X027700Y012045D02*
X027660Y012045D01*
X027660Y011726D02*
X027877Y011726D01*
X030844Y011089D02*
X033110Y011089D01*
X033110Y010771D02*
X031132Y010771D01*
X031254Y010452D02*
X033110Y010452D01*
X033110Y010134D02*
X031270Y010134D01*
X031169Y009815D02*
X033110Y009815D01*
X033110Y009497D02*
X030925Y009497D01*
X037260Y012260D02*
X037260Y012820D01*
X037260Y012260D01*
X037260Y013135D01*
X037760Y013635D01*
X037860Y013637D02*
X037535Y013637D01*
X037535Y013555D02*
X037535Y017658D01*
X037760Y017883D01*
X037860Y017783D01*
X037860Y013176D01*
X037533Y012849D01*
X037498Y012814D01*
X037492Y012820D01*
X037260Y012820D01*
X037160Y012820D01*
X037160Y013094D01*
X037474Y013408D01*
X037535Y013555D01*
X037384Y013319D02*
X037860Y013319D01*
X037684Y013000D02*
X037160Y013000D01*
X037260Y012682D02*
X037260Y012682D01*
X037260Y012363D02*
X037260Y012363D01*
X037260Y012260D02*
X037260Y012260D01*
X037535Y013956D02*
X037860Y013956D01*
X037860Y014274D02*
X037535Y014274D01*
X037535Y014593D02*
X037860Y014593D01*
X037860Y014911D02*
X037535Y014911D01*
X037535Y015230D02*
X037860Y015230D01*
X037860Y015548D02*
X037535Y015548D01*
X037535Y015867D02*
X037860Y015867D01*
X037860Y016185D02*
X037535Y016185D01*
X037535Y016504D02*
X037860Y016504D01*
X037860Y016822D02*
X037535Y016822D01*
X037535Y017141D02*
X037860Y017141D01*
X037860Y017459D02*
X037535Y017459D01*
X037654Y017778D02*
X037860Y017778D01*
X040535Y020326D02*
X042410Y020326D01*
X042485Y020644D02*
X040535Y020644D01*
X040535Y020963D02*
X042485Y020963D01*
X042485Y021281D02*
X040535Y021281D01*
X040535Y021600D02*
X042485Y021600D01*
X042485Y021918D02*
X040535Y021918D01*
X040535Y022237D02*
X042485Y022237D01*
X042485Y022555D02*
X040535Y022555D01*
X040535Y022874D02*
X042485Y022874D01*
X042485Y023192D02*
X040535Y023192D01*
X040829Y020007D02*
X042325Y020007D01*
X041812Y019689D02*
X041708Y019689D01*
X046785Y022051D02*
X046785Y024200D01*
X046996Y024200D01*
X047202Y024285D01*
X047360Y024443D01*
X047360Y024443D01*
X047360Y022804D01*
X047193Y022735D01*
X047035Y022577D01*
X046950Y022371D01*
X046950Y022149D01*
X047035Y021943D01*
X047193Y021785D01*
X047399Y021700D01*
X047621Y021700D01*
X047827Y021785D01*
X047985Y021943D01*
X048070Y022149D01*
X048070Y022254D01*
X048099Y022283D01*
X048160Y022430D01*
X048160Y023740D01*
X048260Y023740D01*
X048360Y023740D01*
X048360Y020476D01*
X046785Y022051D01*
X046785Y022237D02*
X046950Y022237D01*
X046918Y021918D02*
X047060Y021918D01*
X047236Y021600D02*
X048360Y021600D01*
X048360Y021918D02*
X047960Y021918D01*
X048070Y022237D02*
X048360Y022237D01*
X048360Y022555D02*
X048160Y022555D01*
X048160Y022874D02*
X048360Y022874D01*
X048360Y023192D02*
X048160Y023192D01*
X048160Y023511D02*
X048360Y023511D01*
X048260Y023740D02*
X048260Y024260D01*
X048260Y024260D01*
X048260Y023740D01*
X048260Y023829D02*
X048260Y023829D01*
X048260Y024148D02*
X048260Y024148D01*
X047360Y024148D02*
X046785Y024148D01*
X046785Y023829D02*
X047360Y023829D01*
X047360Y023511D02*
X046785Y023511D01*
X046785Y023192D02*
X047360Y023192D01*
X047360Y022874D02*
X046785Y022874D01*
X046785Y022555D02*
X047026Y022555D01*
X047555Y021281D02*
X048360Y021281D01*
X048360Y020963D02*
X047873Y020963D01*
X048192Y020644D02*
X048360Y020644D01*
X049160Y020676D02*
X049160Y024700D01*
X049325Y024700D01*
X049325Y024649D01*
X049410Y024443D01*
X049568Y024285D01*
X049774Y024200D01*
X049996Y024200D01*
X050202Y024285D01*
X050360Y024443D01*
X050445Y024649D01*
X050445Y024754D01*
X050695Y025005D01*
X050940Y024760D01*
X050680Y024500D01*
X050680Y024020D01*
X051020Y023680D01*
X051360Y023680D01*
X051360Y019926D01*
X051314Y019880D01*
X051160Y019880D01*
X051160Y020118D01*
X051235Y020193D01*
X051320Y020399D01*
X051320Y020621D01*
X051235Y020827D01*
X051077Y020985D01*
X050871Y021070D01*
X050649Y021070D01*
X050443Y020985D01*
X050285Y020827D01*
X050200Y020621D01*
X050200Y020399D01*
X050285Y020193D01*
X050360Y020118D01*
X050360Y019820D01*
X050260Y019820D01*
X050260Y019260D01*
X050260Y022885D01*
X049260Y023885D01*
X049160Y023829D02*
X050871Y023829D01*
X050680Y024148D02*
X049160Y024148D01*
X049160Y024466D02*
X049401Y024466D01*
X050369Y024466D02*
X050680Y024466D01*
X050475Y024785D02*
X050915Y024785D01*
X051360Y023511D02*
X049160Y023511D01*
X049160Y023192D02*
X051360Y023192D01*
X051360Y022874D02*
X049160Y022874D01*
X049160Y022555D02*
X051360Y022555D01*
X051360Y022237D02*
X049160Y022237D01*
X049160Y021918D02*
X051360Y021918D01*
X051360Y021600D02*
X049160Y021600D01*
X049160Y021281D02*
X051360Y021281D01*
X051360Y020963D02*
X051099Y020963D01*
X051311Y020644D02*
X051360Y020644D01*
X051360Y020326D02*
X051290Y020326D01*
X051360Y020007D02*
X051160Y020007D01*
X050360Y020007D02*
X049829Y020007D01*
X049987Y019849D02*
X049160Y020676D01*
X049192Y020644D02*
X050209Y020644D01*
X050230Y020326D02*
X049510Y020326D01*
X049987Y019849D02*
X050022Y019814D01*
X050028Y019820D01*
X050260Y019820D01*
X050260Y019260D01*
X050260Y019260D01*
X050260Y019370D02*
X050260Y019370D01*
X050260Y019689D02*
X050260Y019689D01*
X050421Y020963D02*
X049160Y020963D01*
X056255Y015548D02*
X056265Y015548D01*
X056255Y015230D02*
X056265Y015230D01*
X056820Y031155D02*
X059940Y031155D01*
X059940Y031473D02*
X056820Y031473D01*
X026637Y002171D02*
X026580Y002171D01*
X026618Y001853D02*
X025402Y001853D01*
X025383Y002171D02*
X025440Y002171D01*
X025318Y001534D02*
X026702Y001534D01*
X024202Y001534D02*
X022818Y001534D01*
X022902Y001853D02*
X024118Y001853D01*
X024137Y002171D02*
X024080Y002171D01*
X022940Y002171D02*
X022883Y002171D01*
X021637Y002171D02*
X021580Y002171D01*
X021618Y001853D02*
X020402Y001853D01*
X020383Y002171D02*
X020440Y002171D01*
X020318Y001534D02*
X021702Y001534D01*
X019202Y001534D02*
X017818Y001534D01*
X017902Y001853D02*
X019118Y001853D01*
X019137Y002171D02*
X019080Y002171D01*
X017940Y002171D02*
X017883Y002171D01*
X016637Y002171D02*
X016580Y002171D01*
X016618Y001853D02*
X015402Y001853D01*
X015383Y002171D02*
X015440Y002171D01*
X015318Y001534D02*
X016702Y001534D01*
X014202Y001534D02*
X012818Y001534D01*
X012902Y001853D02*
X014118Y001853D01*
X014137Y002171D02*
X014080Y002171D01*
X012940Y002171D02*
X012883Y002171D01*
X011637Y002171D02*
X011580Y002171D01*
X011618Y001853D02*
X010402Y001853D01*
X010383Y002171D02*
X010440Y002171D01*
X010318Y001534D02*
X011702Y001534D01*
X006341Y000897D02*
X002285Y000897D01*
X002612Y001216D02*
X005989Y001216D01*
X005670Y001534D02*
X002745Y001534D01*
X002770Y001853D02*
X005352Y001853D01*
X005033Y002171D02*
X002689Y002171D01*
X002459Y002490D02*
X004715Y002490D01*
X003321Y011408D02*
X000580Y011408D01*
X000580Y011726D02*
X003200Y011726D01*
X003272Y012045D02*
X000580Y012045D01*
X000580Y012363D02*
X002307Y012363D01*
X002713Y012363D02*
X003360Y012363D01*
X003360Y012682D02*
X003032Y012682D01*
X001988Y012682D02*
X000580Y012682D01*
X000580Y013000D02*
X001951Y013000D01*
X002110Y013319D02*
X000580Y013319D01*
X000580Y013637D02*
X002110Y013637D01*
X002110Y013956D02*
X000580Y013956D01*
X000580Y014274D02*
X002110Y014274D01*
X002110Y014593D02*
X000580Y014593D01*
X000580Y014911D02*
X002110Y014911D01*
X002110Y015230D02*
X000580Y015230D01*
X000580Y015548D02*
X002110Y015548D01*
X002110Y015867D02*
X000580Y015867D01*
X000580Y016185D02*
X002110Y016185D01*
X002110Y016504D02*
X000580Y016504D01*
X000580Y016822D02*
X002110Y016822D01*
X002110Y017141D02*
X000580Y017141D01*
X000580Y017459D02*
X002110Y017459D01*
X002110Y017778D02*
X000580Y017778D01*
X000580Y018096D02*
X002110Y018096D01*
X002110Y018415D02*
X000580Y018415D01*
X000580Y018733D02*
X002110Y018733D01*
X002110Y019052D02*
X000580Y019052D01*
X000580Y019370D02*
X002110Y019370D01*
X002110Y019689D02*
X000580Y019689D01*
X000580Y020007D02*
X002110Y020007D01*
X006660Y017783D02*
X006760Y017883D01*
X007003Y017640D01*
X007360Y017640D01*
X007360Y012820D01*
X007260Y012820D01*
X007260Y012260D01*
X007260Y015385D01*
X006760Y015885D01*
X006660Y015867D02*
X007360Y015867D01*
X007360Y016185D02*
X006660Y016185D01*
X006660Y016504D02*
X007360Y016504D01*
X007360Y016822D02*
X006660Y016822D01*
X006660Y017141D02*
X007360Y017141D01*
X007360Y017459D02*
X006660Y017459D01*
X006660Y017778D02*
X006866Y017778D01*
X006660Y017783D02*
X006660Y013176D01*
X006987Y012849D01*
X007022Y012814D01*
X007028Y012820D01*
X007260Y012820D01*
X007260Y012260D01*
X007260Y012260D01*
X007260Y012363D02*
X007260Y012363D01*
X007260Y012682D02*
X007260Y012682D01*
X007360Y013000D02*
X006836Y013000D01*
X006660Y013319D02*
X007360Y013319D01*
X007360Y013637D02*
X006660Y013637D01*
X006660Y013956D02*
X007360Y013956D01*
X007360Y014274D02*
X006660Y014274D01*
X006660Y014593D02*
X007360Y014593D01*
X007360Y014911D02*
X006660Y014911D01*
X006660Y015230D02*
X007360Y015230D01*
X007360Y015548D02*
X006660Y015548D01*
D18*
X006760Y015885D03*
X005385Y014135D03*
X003010Y013260D03*
X002510Y012885D03*
X003760Y011760D03*
X011260Y013385D03*
X011760Y016760D03*
X015385Y016135D03*
X015260Y014010D03*
X019260Y014635D03*
X020260Y014135D03*
X021260Y015135D03*
X023010Y014635D03*
X022510Y013635D03*
X024135Y012135D03*
X025510Y012135D03*
X026010Y014510D03*
X024760Y015135D03*
X023260Y016010D03*
X026260Y018760D03*
X027010Y018260D03*
X027510Y017885D03*
X029260Y019260D03*
X029760Y018760D03*
X031760Y020385D03*
X033385Y020760D03*
X035760Y020760D03*
X038260Y021135D03*
X042885Y020010D03*
X044760Y021135D03*
X047510Y022260D03*
X049260Y023885D03*
X049885Y024760D03*
X049260Y025260D03*
X046885Y024760D03*
X050760Y020510D03*
X054635Y021635D03*
X055760Y025010D03*
X055760Y025635D03*
X054135Y026260D03*
X052260Y026760D03*
X052635Y027760D03*
X052260Y025260D03*
X050260Y031260D03*
X051760Y031760D03*
X054635Y033760D03*
X053135Y035135D03*
X049760Y035135D03*
X047385Y034260D03*
X045760Y032260D03*
X045385Y034760D03*
X046260Y036760D03*
X043260Y039635D03*
X042760Y040760D03*
X042760Y041510D03*
X043385Y041760D03*
X045760Y041760D03*
X038885Y035260D03*
X038260Y034260D03*
X037260Y036260D03*
X036385Y035760D03*
X038510Y037760D03*
X036510Y038260D03*
X034760Y038760D03*
X036135Y033760D03*
X033260Y031260D03*
X032885Y031760D03*
X030760Y029260D03*
X031260Y028260D03*
X029760Y030260D03*
X028760Y031260D03*
X028385Y030760D03*
X029635Y031760D03*
X028010Y032760D03*
X027385Y034260D03*
X025260Y034260D03*
X022260Y030760D03*
X021760Y030135D03*
X020635Y028885D03*
X020385Y027260D03*
X021760Y027260D03*
X019885Y025760D03*
X019885Y021510D03*
X021760Y020760D03*
X023635Y023260D03*
X024635Y023760D03*
X025510Y027260D03*
X019135Y033385D03*
X015260Y031885D03*
X015260Y031260D03*
X012760Y030260D03*
X012260Y029760D03*
X013260Y028760D03*
X010760Y029135D03*
X006885Y028635D03*
X006760Y029260D03*
X003760Y029760D03*
X003760Y030760D03*
X008885Y033760D03*
X008885Y034760D03*
X010760Y035760D03*
X006760Y040260D03*
X004260Y021135D03*
X006760Y020510D03*
X016635Y020010D03*
X027260Y013885D03*
X028760Y012635D03*
X028260Y012135D03*
X030260Y014010D03*
X032760Y013385D03*
X035260Y014760D03*
X036260Y015760D03*
X034385Y016635D03*
X033885Y018385D03*
X037760Y013635D03*
X036260Y013135D03*
X035760Y009885D03*
X035260Y006260D03*
X040260Y006260D03*
X040760Y009260D03*
X043760Y006760D03*
X053010Y015635D03*
X044760Y017135D03*
X038760Y025760D03*
X039885Y030260D03*
X042260Y030260D03*
X043260Y031260D03*
X046510Y029260D03*
X048260Y031135D03*
X035510Y049135D03*
X038760Y054885D03*
D19*
X038760Y053760D01*
X041760Y050760D01*
X041760Y035760D01*
X041260Y035260D01*
X041260Y034260D02*
X039760Y035760D01*
X039760Y050135D01*
X032760Y057135D01*
X032760Y058510D01*
X032510Y058760D01*
X020260Y058760D01*
X020260Y058260D01*
X020260Y053260D01*
X026260Y053260D02*
X026260Y058260D01*
X032260Y058260D02*
X032260Y053260D01*
X036010Y049510D01*
X036010Y037510D01*
X037260Y036260D01*
X036385Y035760D02*
X037260Y034885D01*
X037260Y019260D01*
X037260Y018260D02*
X037135Y018135D01*
X037135Y013635D01*
X036760Y013260D01*
X036760Y006385D01*
X036010Y005635D01*
X036010Y005010D01*
X036010Y004385D01*
X035385Y003760D02*
X034760Y003135D01*
X034760Y002510D01*
X034760Y001885D01*
X033510Y002510D02*
X033510Y003135D01*
X033510Y004385D02*
X033510Y005010D01*
X033510Y005635D01*
X033510Y013635D01*
X034885Y015010D01*
X034885Y017885D01*
X035260Y018260D01*
X036260Y018260D02*
X036260Y015760D01*
X035260Y014760D02*
X034760Y014260D01*
X034760Y005010D01*
X034760Y004385D01*
X035385Y003760D02*
X035385Y005760D01*
X036260Y006635D01*
X036260Y011260D01*
X035260Y011260D02*
X035260Y006260D01*
X036635Y005510D02*
X036635Y003760D01*
X036010Y003135D01*
X036010Y002510D01*
X037260Y002510D02*
X037260Y001885D01*
X037260Y002510D02*
X037260Y003135D01*
X037885Y003760D01*
X037885Y005760D01*
X038135Y006010D01*
X038135Y011135D01*
X038260Y011260D01*
X039135Y011135D02*
X039135Y003760D01*
X038510Y003135D01*
X038510Y002510D01*
X039760Y002510D02*
X039760Y001885D01*
X039760Y002510D02*
X039760Y003135D01*
X040385Y003760D02*
X041010Y003135D01*
X041010Y002510D01*
X042260Y002510D02*
X042260Y001885D01*
X042260Y002510D02*
X042260Y003135D01*
X041635Y003760D01*
X041635Y005135D01*
X042135Y005635D01*
X042135Y011135D01*
X042260Y011260D01*
X041260Y011260D02*
X041260Y006635D01*
X040385Y005760D01*
X040385Y003760D01*
X039760Y004385D02*
X039760Y005010D01*
X039760Y017760D01*
X040260Y018260D01*
X040260Y019260D02*
X039385Y020135D01*
X039385Y036885D01*
X038510Y037760D01*
X037760Y037010D02*
X037760Y020760D01*
X039260Y019260D01*
X039260Y018260D02*
X038760Y017760D01*
X038760Y005885D01*
X038510Y005635D01*
X038510Y005010D01*
X038510Y004385D01*
X037260Y004385D02*
X037260Y005010D01*
X037260Y005635D01*
X037760Y006135D01*
X037760Y012510D01*
X038260Y013010D01*
X038260Y018260D01*
X040135Y020135D02*
X040760Y019510D01*
X040760Y012760D01*
X041260Y012260D01*
X040760Y011760D02*
X040260Y012260D01*
X040760Y011760D02*
X040760Y009260D01*
X040260Y011260D02*
X040260Y006260D01*
X041010Y005635D02*
X041010Y005010D01*
X041010Y004385D01*
X041010Y005635D02*
X041760Y006385D01*
X041760Y017760D01*
X041260Y018260D01*
X042260Y018260D02*
X042385Y018135D01*
X042385Y012885D01*
X042760Y012510D01*
X042760Y005510D01*
X042260Y005010D01*
X042260Y004385D01*
X043510Y004385D02*
X043510Y005010D01*
X043510Y005635D01*
X044135Y005760D02*
X043260Y006635D01*
X043260Y011260D01*
X043260Y012260D02*
X043260Y012510D01*
X042760Y013010D01*
X042760Y018760D01*
X045510Y018760D01*
X045760Y019010D01*
X045760Y019510D01*
X045635Y019635D01*
X045635Y032135D01*
X045760Y032260D01*
X044760Y031760D02*
X044760Y021135D01*
X043760Y019760D02*
X044260Y019260D01*
X043760Y019760D02*
X043760Y030760D01*
X043260Y031260D01*
X044260Y032260D02*
X044760Y031760D01*
X044260Y034260D02*
X045760Y035760D01*
X045760Y041760D01*
X045135Y039760D02*
X043385Y041510D01*
X043385Y041760D01*
X042760Y041510D02*
X044760Y039510D01*
X044760Y036760D01*
X044260Y036260D01*
X045135Y036135D02*
X044260Y035260D01*
X045260Y034635D02*
X045260Y019260D01*
X045260Y018260D02*
X045760Y017760D01*
X045760Y005885D01*
X046010Y005635D01*
X046010Y005010D01*
X046010Y004385D01*
X046635Y003760D02*
X047260Y003135D01*
X047260Y002510D01*
X047260Y001885D01*
X046010Y002510D02*
X046010Y003135D01*
X045385Y003760D01*
X045385Y011135D01*
X045260Y011260D01*
X045260Y012260D02*
X045260Y016635D01*
X044760Y017135D01*
X043760Y017760D02*
X043760Y006760D01*
X044135Y005760D02*
X044135Y003760D01*
X043510Y003135D01*
X043510Y002510D01*
X044760Y002510D02*
X044760Y001885D01*
X044760Y002510D02*
X044760Y003135D01*
X044760Y004385D02*
X044760Y005010D01*
X044760Y012510D01*
X044260Y013010D01*
X044260Y018260D01*
X043760Y017760D02*
X043260Y018260D01*
X042885Y020010D02*
X042885Y028635D01*
X041260Y030260D01*
X040135Y030010D02*
X040135Y020135D01*
X038260Y021135D02*
X038260Y034260D01*
X038885Y035260D02*
X038885Y025885D01*
X038760Y025760D01*
X035260Y025260D02*
X035260Y024260D01*
X035260Y025260D02*
X035260Y026260D01*
X035260Y027260D01*
X032260Y030260D02*
X031760Y029760D01*
X031760Y020385D01*
X033385Y020760D02*
X033385Y031135D01*
X033260Y031260D01*
X032760Y031635D02*
X032760Y013385D01*
X036260Y013260D02*
X036260Y013135D01*
X036260Y013260D02*
X036760Y013760D01*
X036760Y034760D01*
X035260Y036260D01*
X034760Y035760D02*
X035260Y035260D01*
X034760Y034760D02*
X034760Y034135D01*
X035135Y033760D01*
X035635Y033760D01*
X035635Y033510D01*
X035760Y033385D01*
X035760Y020760D01*
X034760Y020510D02*
X035760Y019510D01*
X035760Y009885D01*
X037135Y011135D02*
X037135Y006010D01*
X036635Y005510D01*
X037135Y011135D02*
X037260Y011260D01*
X039135Y011135D02*
X039260Y011260D01*
X034385Y016635D02*
X034385Y033135D01*
X032260Y035260D01*
X032260Y037260D02*
X034760Y034760D01*
X034760Y035760D02*
X034760Y038760D01*
X036510Y038260D02*
X037760Y037010D01*
X040135Y038385D02*
X040135Y051385D01*
X038260Y053260D01*
X038260Y058260D01*
X049260Y046260D02*
X050260Y046260D01*
X052260Y044260D02*
X053260Y044260D01*
X053260Y050260D01*
X054260Y051260D01*
X045135Y039760D02*
X045135Y036135D01*
X046260Y036760D02*
X046260Y029635D01*
X046010Y029385D01*
X046010Y020510D01*
X047260Y019260D01*
X047260Y018260D02*
X047760Y017760D01*
X047760Y006385D01*
X048510Y005635D01*
X048510Y005010D01*
X048510Y004385D01*
X047885Y003760D02*
X048510Y003135D01*
X048510Y002510D01*
X049760Y002510D02*
X049760Y001885D01*
X049760Y002510D02*
X049760Y003135D01*
X049135Y003760D01*
X049135Y005760D01*
X048385Y006510D01*
X048385Y011135D01*
X048260Y011260D01*
X047385Y011135D02*
X047385Y006010D01*
X047885Y005510D01*
X047885Y003760D01*
X047260Y004385D02*
X047260Y005010D01*
X047260Y005635D01*
X046760Y006135D01*
X046760Y017760D01*
X046260Y018260D01*
X048260Y018260D02*
X048385Y018135D01*
X048385Y012885D01*
X048760Y012510D01*
X048760Y006635D01*
X049760Y005635D01*
X049760Y005010D01*
X049760Y004385D01*
X050385Y003760D02*
X051010Y003135D01*
X051010Y002510D01*
X052260Y002510D02*
X052260Y001885D01*
X052260Y002510D02*
X052260Y003135D01*
X052885Y003760D02*
X053510Y003135D01*
X053510Y002510D01*
X054760Y002510D02*
X054760Y001885D01*
X054760Y002510D02*
X054760Y003135D01*
X054760Y004385D02*
X054760Y005010D01*
X054760Y015760D01*
X052260Y018260D01*
X051260Y018260D02*
X053510Y016010D01*
X053510Y005635D01*
X053510Y005010D01*
X053510Y004385D01*
X052885Y003760D02*
X052885Y009635D01*
X051260Y011260D01*
X051260Y012260D02*
X051260Y013010D01*
X050760Y013510D01*
X050760Y020510D01*
X049760Y019510D02*
X049760Y013010D01*
X050260Y012510D01*
X050260Y012260D01*
X050760Y012510D02*
X050760Y006635D01*
X052260Y005135D01*
X052260Y005010D01*
X052260Y004385D01*
X051010Y004385D02*
X051010Y005010D01*
X051010Y005635D01*
X049760Y006885D01*
X049760Y012510D01*
X049385Y012885D01*
X049385Y018135D01*
X049260Y018260D01*
X050260Y018260D02*
X050385Y018135D01*
X050385Y012885D01*
X050760Y012510D01*
X049260Y012510D02*
X049260Y012260D01*
X049260Y012510D02*
X048760Y013010D01*
X048760Y019510D01*
X046385Y021885D01*
X046385Y029135D01*
X046510Y029260D01*
X047760Y027760D02*
X047760Y033135D01*
X049760Y035135D01*
X050760Y035760D02*
X052260Y037260D01*
X055260Y037260D01*
X055260Y036260D02*
X054135Y035135D01*
X054135Y026260D01*
X053135Y026135D02*
X053135Y035135D01*
X054635Y033760D02*
X054635Y021635D01*
X051760Y019760D02*
X051260Y019260D01*
X051760Y019760D02*
X051760Y031760D01*
X050760Y030135D02*
X050760Y035760D01*
X047385Y034260D02*
X047385Y025260D01*
X046885Y024760D01*
X047760Y025760D02*
X048260Y026260D01*
X047760Y025760D02*
X047760Y022510D01*
X047510Y022260D01*
X048760Y020510D02*
X049760Y019510D01*
X048760Y020510D02*
X048760Y030635D01*
X048260Y031135D01*
X049385Y028760D02*
X050760Y030135D01*
X049385Y028760D02*
X049385Y025385D01*
X049260Y025260D01*
X049885Y024760D02*
X050760Y025635D01*
X050760Y026760D01*
X051260Y027260D01*
X052260Y027385D02*
X052260Y026760D01*
X052260Y027385D02*
X052635Y027760D01*
X053135Y026135D02*
X052260Y025260D01*
X055760Y025010D02*
X056760Y026010D01*
X056760Y029510D01*
X056510Y029760D01*
X055760Y029760D01*
X055760Y031760D01*
X055260Y032260D01*
X055260Y029260D02*
X055760Y028760D01*
X055760Y025635D01*
X048260Y027260D02*
X047760Y027760D01*
X044260Y027260D02*
X044260Y026260D01*
X044260Y025260D01*
X044260Y024260D01*
X040135Y030010D02*
X039885Y030260D01*
X036260Y033635D02*
X036260Y019260D01*
X034760Y020510D02*
X034760Y032760D01*
X035260Y033260D01*
X036135Y033760D02*
X036260Y033635D01*
X033885Y032260D02*
X033885Y018385D01*
X029760Y018760D02*
X029760Y030260D01*
X028885Y031135D02*
X028885Y019510D01*
X028760Y019385D01*
X028760Y012635D01*
X028385Y012885D02*
X028260Y012760D01*
X028260Y012135D01*
X028385Y012885D02*
X028385Y030760D01*
X028885Y031135D02*
X028760Y031260D01*
X029260Y031510D02*
X029260Y019260D01*
X027510Y017885D02*
X027510Y034135D01*
X027385Y034260D01*
X026885Y035635D02*
X026885Y031135D01*
X027135Y030885D01*
X027135Y018385D01*
X027010Y018260D01*
X026510Y018510D02*
X026510Y005885D01*
X026635Y005760D01*
X026635Y004260D01*
X026135Y003760D01*
X018885Y003760D01*
X018885Y004010D01*
X018510Y004385D01*
X018510Y005010D01*
X018510Y005635D01*
X018760Y006635D02*
X017260Y005135D01*
X017260Y005010D01*
X017260Y004385D01*
X017260Y003135D02*
X017260Y002510D01*
X017260Y001885D01*
X016010Y002510D02*
X016010Y003135D01*
X015885Y003760D02*
X018510Y003760D01*
X018510Y003135D01*
X018510Y002510D01*
X019760Y002510D02*
X019760Y001885D01*
X019760Y002510D02*
X019760Y003135D01*
X019760Y004385D02*
X019760Y005010D01*
X019760Y012510D01*
X021135Y013885D01*
X021135Y015010D01*
X021260Y015135D01*
X020760Y014010D02*
X019260Y012510D01*
X019260Y012260D01*
X018760Y012510D02*
X018760Y006635D01*
X021010Y005635D02*
X021010Y005010D01*
X021010Y004385D01*
X021010Y003135D02*
X021010Y002510D01*
X022260Y002510D02*
X022260Y001885D01*
X022260Y002510D02*
X022260Y003135D01*
X022260Y004385D02*
X022260Y005010D01*
X022260Y005135D01*
X023010Y005885D01*
X023010Y014635D01*
X022760Y015010D02*
X020260Y012510D01*
X020260Y012260D01*
X018760Y012510D02*
X020135Y013885D01*
X020135Y014010D01*
X020260Y014135D01*
X019760Y014010D02*
X018260Y012510D01*
X018260Y012260D01*
X017760Y012010D02*
X017510Y011760D01*
X016260Y011760D01*
X016260Y012260D01*
X016760Y012760D02*
X017260Y012260D01*
X017760Y012010D02*
X017760Y032760D01*
X017260Y033260D01*
X016760Y033760D02*
X016760Y020510D01*
X017135Y020135D01*
X017135Y019885D01*
X016760Y019510D01*
X016760Y012760D01*
X015260Y012260D02*
X015260Y014010D01*
X014760Y012760D02*
X014260Y012260D01*
X014760Y011760D02*
X014760Y005010D01*
X014760Y004385D01*
X015385Y004260D02*
X015885Y003760D01*
X016010Y004385D02*
X016010Y005010D01*
X016010Y005635D01*
X015760Y005885D01*
X015760Y015760D01*
X015385Y016135D01*
X015260Y019260D02*
X015260Y031260D01*
X014760Y031385D02*
X015260Y031885D01*
X014760Y031385D02*
X014760Y012760D01*
X014760Y011760D02*
X013010Y011760D01*
X012760Y012010D01*
X012760Y012510D01*
X012385Y012885D01*
X012385Y018135D01*
X012260Y018260D01*
X013260Y019260D02*
X013260Y019510D01*
X012760Y020010D01*
X012760Y030260D01*
X012260Y029760D02*
X011760Y029260D01*
X011760Y020510D01*
X012760Y019510D01*
X012760Y013010D01*
X013260Y012510D01*
X013260Y012260D01*
X012260Y011260D02*
X014135Y009385D01*
X014135Y003760D01*
X014760Y003135D01*
X014760Y002510D01*
X014760Y001885D01*
X013510Y002510D02*
X013510Y003135D01*
X013510Y004385D02*
X013510Y005010D01*
X013510Y005635D01*
X012260Y005635D02*
X012260Y005010D01*
X012260Y004385D01*
X011635Y003760D02*
X012260Y003135D01*
X012260Y002510D01*
X012260Y001885D01*
X011010Y002510D02*
X011010Y003135D01*
X010385Y003760D01*
X010385Y005510D01*
X009385Y006510D01*
X009385Y011135D01*
X009260Y011260D01*
X010260Y011260D02*
X011385Y010135D01*
X011385Y006010D01*
X011635Y005760D01*
X011635Y003760D01*
X011010Y004385D02*
X011010Y005010D01*
X011010Y005635D01*
X009760Y006885D01*
X009760Y012510D01*
X009385Y012885D01*
X009385Y018135D01*
X009260Y018260D01*
X009010Y018760D02*
X008760Y019010D01*
X008760Y031760D01*
X008260Y032260D01*
X009260Y033385D02*
X008885Y033760D01*
X009260Y033385D02*
X009260Y019260D01*
X009010Y018760D02*
X009760Y018760D01*
X009760Y013010D01*
X010260Y012510D01*
X010260Y012260D01*
X010760Y012760D02*
X011260Y012260D01*
X010760Y012760D02*
X010760Y029135D01*
X008260Y027260D02*
X008260Y026260D01*
X008260Y025260D01*
X008260Y024260D01*
X004260Y021135D02*
X004260Y032260D01*
X005260Y033260D01*
X005260Y032260D02*
X004760Y031760D01*
X004760Y019010D01*
X005010Y018760D01*
X007260Y018760D01*
X007260Y019260D01*
X006260Y019260D02*
X006260Y030260D01*
X005260Y031260D01*
X005260Y030260D02*
X005760Y029760D01*
X005760Y019760D01*
X005260Y019260D01*
X005260Y018260D02*
X005885Y017635D01*
X005885Y012635D01*
X005760Y012510D01*
X005760Y005885D01*
X006010Y005635D01*
X006010Y005010D01*
X006010Y004385D01*
X006635Y003760D02*
X007260Y003135D01*
X007260Y002510D01*
X007260Y001885D01*
X006510Y001260D02*
X009135Y001260D01*
X009135Y003260D01*
X008510Y003885D01*
X008510Y004385D01*
X008510Y005010D01*
X008510Y005635D01*
X009135Y005760D02*
X008385Y006510D01*
X008385Y011135D01*
X008260Y011260D01*
X007885Y010635D02*
X007885Y003760D01*
X008510Y003135D01*
X008510Y002510D01*
X009760Y002510D02*
X009760Y001885D01*
X009760Y002510D02*
X009760Y003135D01*
X009135Y003760D01*
X009135Y005760D01*
X009760Y005635D02*
X008760Y006635D01*
X008760Y017760D01*
X008260Y018260D01*
X006260Y018260D02*
X006260Y013010D01*
X006760Y012510D01*
X006760Y006135D01*
X007260Y005635D01*
X007260Y005010D01*
X007260Y004385D01*
X006635Y003760D02*
X006635Y005760D01*
X006385Y006010D01*
X006385Y011135D01*
X006260Y011260D01*
X007260Y011260D02*
X007885Y010635D01*
X008260Y012260D02*
X007760Y012760D01*
X007760Y033760D01*
X008260Y034260D01*
X008885Y034760D02*
X009760Y033885D01*
X009760Y019760D01*
X010260Y019260D01*
X011260Y019260D02*
X011260Y035260D01*
X010760Y035760D01*
X008260Y036260D02*
X007260Y037260D01*
X007260Y041885D01*
X006885Y042260D01*
X002510Y042260D01*
X002510Y012885D01*
X003010Y013260D02*
X003010Y030010D01*
X003760Y030760D01*
X003760Y029760D02*
X003760Y011760D01*
X004760Y013510D02*
X004760Y003010D01*
X006510Y001260D01*
X006010Y002510D02*
X006010Y003135D01*
X009760Y004385D02*
X009760Y005010D01*
X009760Y005635D01*
X011760Y006135D02*
X012260Y005635D01*
X011760Y006135D02*
X011760Y016760D01*
X011260Y018260D02*
X011260Y013385D01*
X015260Y011260D02*
X015385Y011135D01*
X015385Y004260D01*
X021010Y005635D02*
X021760Y006385D01*
X021760Y012885D01*
X022510Y013635D01*
X022760Y015010D02*
X022760Y037260D01*
X017260Y037260D01*
X017260Y036260D02*
X019635Y036260D01*
X019635Y026135D01*
X019385Y025885D01*
X019385Y020885D01*
X020760Y019510D01*
X020760Y014010D01*
X019760Y014010D02*
X019760Y019510D01*
X019010Y020260D01*
X019010Y033260D01*
X019135Y033385D01*
X018260Y034760D02*
X018260Y019260D01*
X018635Y019885D02*
X019260Y019260D01*
X018635Y019885D02*
X018635Y035760D01*
X017135Y035760D01*
X016760Y036135D01*
X016760Y036260D01*
X014260Y036260D01*
X014260Y035260D02*
X016760Y035260D01*
X016760Y035135D01*
X017135Y034760D01*
X018260Y034760D01*
X017260Y034260D02*
X016760Y033760D01*
X016385Y034260D02*
X016385Y020260D01*
X016635Y020010D01*
X016010Y019510D02*
X016260Y019260D01*
X016010Y019510D02*
X016010Y033260D01*
X014260Y033260D01*
X014260Y034260D02*
X016385Y034260D01*
X014260Y031260D02*
X013760Y030760D01*
X013760Y019760D01*
X014260Y019260D01*
X018260Y018260D02*
X019260Y017260D01*
X019260Y014635D01*
X023260Y016010D02*
X023510Y015760D01*
X023510Y005635D01*
X023510Y005010D01*
X023510Y004385D01*
X023510Y003135D02*
X023510Y002510D01*
X024760Y002510D02*
X024760Y001885D01*
X024760Y002510D02*
X024760Y003135D01*
X024760Y004385D02*
X024760Y005010D01*
X024760Y015135D01*
X026010Y014510D02*
X026010Y005635D01*
X026010Y005010D01*
X026010Y004385D01*
X026010Y003135D02*
X026010Y002510D01*
X027260Y002510D02*
X027260Y001885D01*
X027260Y002510D02*
X027260Y003135D01*
X027260Y004385D02*
X027260Y005010D01*
X027260Y013885D01*
X025510Y012135D02*
X025510Y018635D01*
X026760Y019885D01*
X026760Y030760D01*
X026135Y030760D01*
X025760Y031135D01*
X025760Y036760D01*
X026260Y037260D01*
X026260Y036260D02*
X026885Y035635D01*
X028010Y032760D02*
X029260Y031510D01*
X032260Y032260D02*
X033885Y032260D01*
X032885Y031760D02*
X032760Y031635D01*
X026260Y030260D02*
X025635Y029635D01*
X025635Y028010D01*
X024135Y026510D01*
X024135Y012135D01*
X026510Y018510D02*
X026260Y018760D01*
X022260Y019260D02*
X022260Y030760D01*
X021760Y030135D02*
X021260Y029635D01*
X021260Y019260D01*
X019885Y021510D02*
X020885Y022510D01*
X020885Y028635D01*
X020635Y028885D01*
X020385Y027260D02*
X020385Y026260D01*
X019885Y025760D01*
X017260Y025260D02*
X017260Y024260D01*
X017260Y025260D02*
X017260Y026260D01*
X017260Y027260D01*
X023260Y025260D02*
X023760Y024760D01*
X023760Y023385D01*
X023635Y023260D01*
X024635Y023760D02*
X025510Y024635D01*
X025510Y027260D01*
X026260Y027260D02*
X026260Y026260D01*
X026260Y025260D01*
X026260Y024260D01*
X040135Y038385D02*
X041260Y037260D01*
X043260Y038260D02*
X043260Y039635D01*
X043260Y038260D02*
X044260Y037260D01*
X045385Y034760D02*
X045260Y034635D01*
X053010Y015635D02*
X052260Y014885D01*
X052260Y012260D01*
X049385Y011135D02*
X049385Y006510D01*
X050385Y005510D01*
X050385Y003760D01*
X046635Y003760D02*
X046635Y005760D01*
X046385Y006010D01*
X046385Y011135D01*
X046260Y011260D01*
X047260Y011260D02*
X047385Y011135D01*
X049260Y011260D02*
X049385Y011135D01*
X008260Y037260D02*
X008260Y039260D01*
X008260Y055260D02*
X008260Y058260D01*
X005260Y058260D02*
X005260Y055260D01*
X006260Y055260D01*
X008260Y055260D02*
X009260Y055260D01*
X011260Y055260D02*
X011260Y058260D01*
X014260Y058260D02*
X014260Y055260D01*
X005385Y014135D02*
X004760Y013510D01*
M02*
