G75*
%MOIN*%
%OFA0B0*%
%FSLAX24Y24*%
%IPPOS*%
%LPD*%
%AMOC8*
5,1,8,0,0,1.08239X$1,22.5*
%
%ADD10C,0.0240*%
%ADD11OC8,0.0520*%
%ADD12OC8,0.0600*%
%ADD13OC8,0.1000*%
%ADD14OC8,0.0645*%
%ADD15OC8,0.0560*%
%ADD16OC8,0.1065*%
%ADD17OC8,0.1500*%
%ADD18OC8,0.0660*%
%ADD19OC8,0.0594*%
%ADD20OC8,0.0554*%
%ADD21C,0.0320*%
%ADD22C,0.0480*%
%ADD23C,0.0160*%
D10*
X002007Y003380D02*
X002260Y003380D01*
X002387Y003507D01*
X002387Y004014D01*
X002260Y004141D01*
X002007Y004141D01*
X001880Y004014D01*
X001880Y003507D01*
X002007Y003380D01*
X002801Y003380D02*
X002801Y004141D01*
X003308Y003380D01*
X003308Y004141D01*
X009760Y019380D02*
X009760Y019887D01*
D11*
X014260Y019760D03*
X015260Y019760D03*
X016760Y021260D03*
X018760Y021260D03*
X019260Y023260D03*
X019260Y024260D03*
X019260Y025260D03*
X019260Y026260D03*
X019260Y027260D03*
X019260Y028260D03*
X019260Y029260D03*
X019260Y030260D03*
X019260Y031260D03*
X019260Y032260D03*
X019260Y033260D03*
X019260Y034260D03*
X019260Y035260D03*
X019260Y036260D03*
X016260Y036260D03*
X016260Y035260D03*
X016260Y034260D03*
X016260Y033260D03*
X016260Y032260D03*
X016260Y031260D03*
X016260Y030260D03*
X016260Y029260D03*
X016260Y028260D03*
X016260Y027260D03*
X016260Y026260D03*
X016260Y025260D03*
X016260Y024260D03*
X016260Y023260D03*
X020760Y017260D03*
X022760Y017260D03*
X019260Y015760D03*
X019260Y014760D03*
X019260Y013760D03*
X019260Y012760D03*
X019260Y011760D03*
X020260Y012760D03*
X023260Y012760D03*
X025260Y009260D03*
X022260Y008260D03*
X022260Y007260D03*
X020260Y008260D03*
X016260Y008260D03*
X014760Y008260D03*
X014760Y007260D03*
X011760Y007260D03*
X011760Y008260D03*
X009260Y011260D03*
X008260Y011260D03*
X007760Y008260D03*
X007760Y007260D03*
X006260Y007260D03*
X006260Y008260D03*
X008260Y015260D03*
X009260Y015260D03*
X013760Y013760D03*
X014760Y013760D03*
X016260Y013760D03*
X016260Y012760D03*
X015260Y011760D03*
X016260Y014760D03*
X016260Y015760D03*
X015260Y015760D03*
X014260Y015760D03*
X025260Y023260D03*
X025260Y024260D03*
X025260Y025260D03*
X025260Y026260D03*
X025260Y027260D03*
X025260Y028260D03*
X025260Y029260D03*
X025260Y030260D03*
X025260Y031260D03*
X025260Y032260D03*
X025260Y033260D03*
X025260Y034260D03*
X025260Y035260D03*
X025260Y036260D03*
X028260Y036260D03*
X028260Y035260D03*
X028260Y034260D03*
X028260Y033260D03*
X028260Y032260D03*
X028260Y031260D03*
X028260Y030260D03*
X028260Y029260D03*
X028260Y028260D03*
X028260Y027260D03*
X028260Y026260D03*
X028260Y025260D03*
X028260Y024260D03*
X028260Y023260D03*
X027760Y021260D03*
X025760Y021260D03*
X027260Y014260D03*
X027260Y013260D03*
X029260Y014260D03*
X031260Y013260D03*
X031260Y012260D03*
X031260Y011260D03*
X031260Y009260D03*
X028260Y008260D03*
X028260Y007260D03*
X025260Y005260D03*
X031260Y005260D03*
X034260Y007260D03*
X034260Y008260D03*
X035260Y011260D03*
X035260Y012260D03*
X035260Y013260D03*
X035260Y014260D03*
X033260Y013260D03*
X032260Y014260D03*
X037260Y009260D03*
X040260Y008260D03*
X040260Y007260D03*
X037260Y005260D03*
X043260Y005260D03*
X046260Y005260D03*
X049260Y005260D03*
X051260Y005260D03*
X052260Y005260D03*
X054260Y005260D03*
X055260Y005260D03*
X055260Y009260D03*
X054260Y009260D03*
X052260Y009260D03*
X051260Y009260D03*
X049260Y009260D03*
X046260Y009260D03*
X043260Y009260D03*
X043760Y021260D03*
X045760Y021260D03*
X047260Y021260D03*
X046260Y023260D03*
X046260Y024260D03*
X046260Y025260D03*
X046260Y026260D03*
X046260Y027260D03*
X046260Y028260D03*
X046260Y029260D03*
X046260Y030260D03*
X046260Y031260D03*
X046260Y032260D03*
X046260Y033260D03*
X046260Y034260D03*
X046260Y035260D03*
X046260Y036260D03*
X043260Y036260D03*
X043260Y035260D03*
X043260Y034260D03*
X043260Y033260D03*
X043260Y032260D03*
X043260Y031260D03*
X043260Y030260D03*
X043260Y029260D03*
X043260Y028260D03*
X043260Y027260D03*
X043260Y026260D03*
X043260Y025260D03*
X043260Y024260D03*
X043260Y023260D03*
X037260Y023260D03*
X037260Y024260D03*
X037260Y025260D03*
X037260Y026260D03*
X037260Y027260D03*
X037260Y028260D03*
X037260Y029260D03*
X037260Y030260D03*
X037260Y031260D03*
X037260Y032260D03*
X037260Y033260D03*
X037260Y034260D03*
X037260Y035260D03*
X037260Y036260D03*
X034260Y036260D03*
X034260Y035260D03*
X034260Y034260D03*
X034260Y033260D03*
X034260Y032260D03*
X034260Y031260D03*
X034260Y030260D03*
X034260Y029260D03*
X034260Y028260D03*
X034260Y027260D03*
X034260Y026260D03*
X034260Y025260D03*
X034260Y024260D03*
X034260Y023260D03*
X033260Y024260D03*
X034760Y021260D03*
X036760Y021260D03*
X033260Y028260D03*
X051260Y021260D03*
X052760Y021260D03*
X054760Y021260D03*
X055260Y023260D03*
X055260Y024260D03*
X055260Y025260D03*
X055260Y026260D03*
X055260Y027260D03*
X055260Y028260D03*
X055260Y029260D03*
X055260Y030260D03*
X055260Y031260D03*
X055260Y032260D03*
X055260Y033260D03*
X055260Y034260D03*
X055260Y035260D03*
X055260Y036260D03*
X052260Y036260D03*
X052260Y035260D03*
X052260Y034260D03*
X052260Y033260D03*
X052260Y032260D03*
X052260Y031260D03*
X052260Y030260D03*
X052260Y029260D03*
X052260Y028260D03*
X052260Y027260D03*
X052260Y026260D03*
X052260Y025260D03*
X052260Y024260D03*
X052260Y023260D03*
D12*
X057260Y019260D03*
X057260Y016260D03*
X057260Y013260D03*
X057260Y010260D03*
X057260Y007260D03*
X055260Y002260D03*
X052260Y002260D03*
X049260Y002260D03*
X046260Y002260D03*
X043260Y002260D03*
X040260Y002260D03*
X037260Y002260D03*
X034260Y002260D03*
X031260Y002260D03*
X028260Y002260D03*
X025260Y002260D03*
X022260Y002260D03*
X008260Y017760D03*
X008260Y018760D03*
X008260Y019760D03*
X003260Y024260D03*
X003260Y025260D03*
X003260Y026260D03*
X003260Y027260D03*
X003260Y028260D03*
X003260Y029260D03*
X003260Y030260D03*
X003260Y031260D03*
X003260Y032260D03*
X003260Y033260D03*
X003260Y034260D03*
X003260Y035260D03*
X003260Y036260D03*
X003260Y037260D03*
X003260Y038260D03*
X003260Y039260D03*
X003260Y040260D03*
X003260Y041260D03*
X003260Y042260D03*
X003260Y043260D03*
X002260Y043260D03*
X002260Y042260D03*
X002260Y041260D03*
X002260Y040260D03*
X002260Y039260D03*
X002260Y038260D03*
X002260Y037260D03*
X002260Y036260D03*
X002260Y035260D03*
X002260Y034260D03*
X002260Y033260D03*
X002260Y032260D03*
X002260Y031260D03*
X002260Y030260D03*
X002260Y029260D03*
X002260Y028260D03*
X002260Y027260D03*
X002260Y026260D03*
X002260Y025260D03*
X002260Y024260D03*
X002260Y011260D03*
X002260Y008260D03*
X002260Y005260D03*
X008260Y041260D03*
X008260Y042260D03*
X009260Y042260D03*
X009260Y041260D03*
X010260Y041260D03*
X010260Y042260D03*
X011260Y042260D03*
X011260Y041260D03*
X012260Y041260D03*
X012260Y042260D03*
X013260Y042260D03*
X013260Y041260D03*
X014260Y041260D03*
X014260Y042260D03*
X015260Y042260D03*
X015260Y041260D03*
X016260Y041260D03*
X016260Y042260D03*
X017260Y042260D03*
X017260Y041260D03*
X018260Y041260D03*
X018260Y042260D03*
X019260Y042260D03*
X019260Y041260D03*
X020260Y041260D03*
X020260Y042260D03*
X021260Y042260D03*
X021260Y041260D03*
X022260Y041260D03*
X022260Y042260D03*
X023260Y042260D03*
X023260Y041260D03*
X024260Y041260D03*
X024260Y042260D03*
X025260Y042260D03*
X025260Y041260D03*
X028760Y041260D03*
X028760Y042260D03*
X028760Y043260D03*
X028760Y044260D03*
X028760Y045260D03*
X028760Y046260D03*
X028760Y047260D03*
X028760Y048260D03*
X031760Y048260D03*
X031760Y047260D03*
X031760Y046260D03*
X031760Y045260D03*
X031760Y044260D03*
X031760Y043260D03*
X031760Y042260D03*
X031760Y041260D03*
X034760Y041260D03*
X034760Y042260D03*
X034760Y043260D03*
X034760Y044260D03*
X034760Y045260D03*
X034760Y046260D03*
X034760Y047260D03*
X034760Y048260D03*
X038260Y048260D03*
X039260Y048260D03*
X039260Y049260D03*
X038260Y049260D03*
X040260Y049260D03*
X040260Y048260D03*
X041260Y048260D03*
X042260Y048260D03*
X042260Y049260D03*
X041260Y049260D03*
X043260Y049260D03*
X043260Y048260D03*
X044260Y048260D03*
X045260Y048260D03*
X045260Y049260D03*
X044260Y049260D03*
X046260Y049260D03*
X046260Y048260D03*
X047260Y048260D03*
X048260Y048260D03*
X048260Y049260D03*
X047260Y049260D03*
X049260Y049260D03*
X049260Y048260D03*
X050260Y048260D03*
X051260Y048260D03*
X051260Y049260D03*
X050260Y049260D03*
X052260Y049260D03*
X052260Y048260D03*
X053260Y048260D03*
X054260Y048260D03*
X054260Y049260D03*
X053260Y049260D03*
X054260Y050260D03*
X055260Y049260D03*
X055260Y048260D03*
X055260Y042260D03*
X055260Y041260D03*
X054260Y041260D03*
X054260Y042260D03*
X053260Y042260D03*
X053260Y041260D03*
X052260Y041260D03*
X052260Y042260D03*
X051260Y042260D03*
X051260Y041260D03*
X050260Y041260D03*
X050260Y042260D03*
X049260Y042260D03*
X049260Y041260D03*
X048260Y041260D03*
X048260Y042260D03*
X047260Y042260D03*
X047260Y041260D03*
X046260Y041260D03*
X046260Y042260D03*
X045260Y042260D03*
X045260Y041260D03*
X044260Y041260D03*
X044260Y042260D03*
X043260Y042260D03*
X043260Y041260D03*
X042260Y041260D03*
X042260Y042260D03*
X041260Y042260D03*
X041260Y041260D03*
X040260Y041260D03*
X040260Y042260D03*
X039260Y042260D03*
X039260Y041260D03*
X038260Y041260D03*
X038260Y042260D03*
X025260Y048260D03*
X024260Y048260D03*
X024260Y049260D03*
X025260Y049260D03*
X024260Y050260D03*
X023260Y049260D03*
X023260Y048260D03*
X022260Y048260D03*
X021260Y048260D03*
X021260Y049260D03*
X022260Y049260D03*
X020260Y049260D03*
X020260Y048260D03*
X019260Y048260D03*
X018260Y048260D03*
X018260Y049260D03*
X019260Y049260D03*
X017260Y049260D03*
X017260Y048260D03*
X016260Y048260D03*
X015260Y048260D03*
X015260Y049260D03*
X016260Y049260D03*
X014260Y049260D03*
X014260Y048260D03*
X013260Y048260D03*
X012260Y048260D03*
X012260Y049260D03*
X013260Y049260D03*
X011260Y049260D03*
X011260Y048260D03*
X010260Y048260D03*
X009260Y048260D03*
X009260Y049260D03*
X010260Y049260D03*
X008260Y049260D03*
X008260Y048260D03*
D13*
X018260Y019260D03*
X018260Y017260D03*
X010760Y016760D03*
X010760Y018760D03*
X037260Y014260D03*
X039260Y014260D03*
X039760Y018760D03*
X037760Y018760D03*
D14*
X037010Y054885D03*
X037010Y055510D03*
X037010Y056135D03*
X037010Y057385D03*
X037010Y057385D03*
X037010Y058010D03*
X035760Y058010D03*
X035760Y057385D03*
X035760Y056135D03*
X035760Y056135D03*
X035760Y055510D03*
X034510Y055510D03*
X034510Y054885D03*
X034510Y056135D03*
X034510Y057385D03*
X034510Y057385D03*
X034510Y058010D03*
X035760Y058635D03*
X038260Y058635D03*
X038260Y058010D03*
X038260Y057385D03*
X038260Y056135D03*
X038260Y056135D03*
X038260Y055510D03*
X039510Y055510D03*
X039510Y054885D03*
X039510Y056135D03*
X039510Y057385D03*
X039510Y057385D03*
X039510Y058010D03*
X040760Y058010D03*
X040760Y057385D03*
X040760Y056135D03*
X040760Y056135D03*
X040760Y055510D03*
X042010Y055510D03*
X042010Y054885D03*
X042010Y056135D03*
X042010Y057385D03*
X042010Y057385D03*
X042010Y058010D03*
X043260Y058010D03*
X043260Y057385D03*
X043260Y056135D03*
X043260Y056135D03*
X043260Y055510D03*
X044510Y055510D03*
X044510Y054885D03*
X044510Y056135D03*
X044510Y057385D03*
X044510Y057385D03*
X044510Y058010D03*
X045760Y058010D03*
X045760Y057385D03*
X045760Y056135D03*
X045760Y056135D03*
X045760Y055510D03*
X047010Y055510D03*
X047010Y054885D03*
X047010Y056135D03*
X047010Y057385D03*
X047010Y057385D03*
X047010Y058010D03*
X048260Y058010D03*
X048260Y057385D03*
X048260Y056135D03*
X048260Y056135D03*
X048260Y055510D03*
X049510Y055510D03*
X049510Y054885D03*
X049510Y056135D03*
X049510Y057385D03*
X049510Y057385D03*
X049510Y058010D03*
X050760Y058010D03*
X050760Y057385D03*
X050760Y056135D03*
X050760Y056135D03*
X050760Y055510D03*
X052010Y055510D03*
X052010Y054885D03*
X052010Y056135D03*
X052010Y057385D03*
X052010Y057385D03*
X052010Y058010D03*
X050760Y058635D03*
X048260Y058635D03*
X045760Y058635D03*
X043260Y058635D03*
X040760Y058635D03*
X033260Y058635D03*
X033260Y058010D03*
X033260Y057385D03*
X033260Y056135D03*
X033260Y056135D03*
X033260Y055510D03*
X027010Y055510D03*
X027010Y054885D03*
X027010Y056135D03*
X027010Y057385D03*
X027010Y057385D03*
X027010Y058010D03*
X025760Y058010D03*
X025760Y057385D03*
X025760Y056135D03*
X025760Y056135D03*
X025760Y055510D03*
X024510Y055510D03*
X024510Y054885D03*
X024510Y056135D03*
X024510Y057385D03*
X024510Y057385D03*
X024510Y058010D03*
X023260Y058010D03*
X023260Y057385D03*
X023260Y056135D03*
X023260Y056135D03*
X023260Y055510D03*
X022010Y055510D03*
X022010Y054885D03*
X022010Y056135D03*
X022010Y057385D03*
X022010Y057385D03*
X022010Y058010D03*
X020760Y058010D03*
X020760Y057385D03*
X020760Y056135D03*
X020760Y056135D03*
X020760Y055510D03*
X019510Y055510D03*
X019510Y054885D03*
X019510Y056135D03*
X019510Y057385D03*
X019510Y057385D03*
X019510Y058010D03*
X018260Y058010D03*
X018260Y057385D03*
X018260Y056135D03*
X018260Y056135D03*
X018260Y055510D03*
X017010Y055510D03*
X017010Y054885D03*
X017010Y056135D03*
X017010Y057385D03*
X017010Y057385D03*
X017010Y058010D03*
X015760Y058010D03*
X015760Y057385D03*
X015760Y056135D03*
X015760Y056135D03*
X015760Y055510D03*
X014510Y055510D03*
X014510Y054885D03*
X014510Y056135D03*
X014510Y057385D03*
X014510Y057385D03*
X014510Y058010D03*
X013260Y058010D03*
X013260Y057385D03*
X013260Y056135D03*
X013260Y056135D03*
X013260Y055510D03*
X012010Y055510D03*
X012010Y054885D03*
X012010Y056135D03*
X012010Y057385D03*
X012010Y057385D03*
X012010Y058010D03*
X010760Y058010D03*
X010760Y057385D03*
X010760Y056135D03*
X010760Y056135D03*
X010760Y055510D03*
X009510Y055510D03*
X009510Y054885D03*
X009510Y056135D03*
X009510Y057385D03*
X009510Y057385D03*
X009510Y058010D03*
X008260Y058010D03*
X008260Y057385D03*
X008260Y056135D03*
X008260Y056135D03*
X008260Y055510D03*
X007010Y055510D03*
X007010Y054885D03*
X007010Y056135D03*
X007010Y057385D03*
X007010Y057385D03*
X007010Y058010D03*
X005760Y058010D03*
X005760Y057385D03*
X005760Y056135D03*
X005760Y056135D03*
X005760Y055510D03*
X005760Y058635D03*
X008260Y058635D03*
X010760Y058635D03*
X013260Y058635D03*
X015760Y058635D03*
X018260Y058635D03*
X020760Y058635D03*
X023260Y058635D03*
X025760Y058635D03*
X053260Y058635D03*
X053260Y058010D03*
X053260Y057385D03*
X053260Y056135D03*
X053260Y056135D03*
X053260Y055510D03*
X054510Y055510D03*
X054510Y054885D03*
X054510Y056135D03*
X054510Y057385D03*
X054510Y057385D03*
X054510Y058010D03*
D15*
X036744Y016760D03*
X034776Y016760D03*
X021760Y015744D03*
X021760Y013776D03*
D16*
X012010Y005010D03*
X011385Y004385D03*
X011385Y003135D03*
X012010Y002510D03*
X010110Y002810D03*
X008260Y002810D03*
X006410Y002810D03*
X005135Y003135D03*
X004510Y002510D03*
X005135Y004385D03*
X004510Y005010D03*
X006410Y004710D03*
X008260Y004710D03*
X010110Y004710D03*
D17*
X005012Y013276D03*
X006193Y015244D03*
X003713Y015244D03*
D18*
X010260Y015260D03*
X011260Y015260D03*
X011260Y011260D03*
X010260Y011260D03*
D19*
X009760Y024260D03*
X010760Y024260D03*
X008760Y024260D03*
X007760Y024260D03*
X006760Y024260D03*
X005760Y024260D03*
D20*
X032260Y017885D03*
X033260Y017260D03*
X032260Y016635D03*
X033260Y015885D03*
X033260Y018635D03*
D21*
X000779Y000779D02*
X000654Y000951D01*
X000588Y001154D01*
X000580Y001260D01*
X000580Y016315D01*
X000665Y016280D01*
X003235Y016280D01*
X002643Y015687D01*
X002643Y014801D01*
X003270Y014174D01*
X004156Y014174D01*
X004599Y014617D01*
X004870Y014346D01*
X004569Y014346D01*
X003942Y013719D01*
X003942Y012833D01*
X004569Y012206D01*
X005455Y012206D01*
X006082Y012833D01*
X006082Y013655D01*
X007155Y013655D01*
X007155Y011790D01*
X007228Y011613D01*
X007363Y011478D01*
X007680Y011161D01*
X007680Y011020D01*
X008020Y010680D01*
X008500Y010680D01*
X008760Y010940D01*
X009020Y010680D01*
X009500Y010680D01*
X009711Y010890D01*
X009991Y010610D01*
X010529Y010610D01*
X010760Y010841D01*
X010991Y010610D01*
X011405Y010610D01*
X011405Y009459D01*
X007988Y006042D01*
X007853Y005907D01*
X007780Y005730D01*
X007780Y005436D01*
X007408Y005063D01*
X007408Y004357D01*
X007907Y003858D01*
X008613Y003858D01*
X009112Y004357D01*
X009112Y005063D01*
X008740Y005436D01*
X011294Y007990D01*
X011525Y007760D01*
X011240Y007475D01*
X011240Y007260D01*
X011760Y007260D01*
X011760Y008260D01*
X011760Y008385D01*
X013760Y010385D01*
X013760Y013760D01*
X013635Y013760D01*
X013635Y018010D01*
X015260Y019635D01*
X015260Y019760D01*
X011760Y023260D01*
X011760Y024260D01*
X010760Y025260D01*
X006760Y025260D01*
X005760Y025260D01*
X004885Y026135D01*
X004885Y037010D01*
X005635Y037760D01*
X006235Y037843D02*
X004365Y037843D01*
X004365Y037525D02*
X006235Y037525D01*
X006235Y037206D02*
X004365Y037206D01*
X004365Y036888D02*
X006082Y036888D01*
X006075Y036871D02*
X006075Y036649D01*
X006160Y036443D01*
X006318Y036285D01*
X006524Y036200D01*
X006735Y036200D01*
X006735Y030956D01*
X006700Y030871D01*
X006700Y030649D01*
X006785Y030443D01*
X006943Y030285D01*
X007149Y030200D01*
X007360Y030200D01*
X007360Y030180D01*
X007421Y030033D01*
X007533Y029921D01*
X010075Y027379D01*
X010075Y027274D01*
X010160Y027068D01*
X010318Y026910D01*
X010524Y026825D01*
X010746Y026825D01*
X010952Y026910D01*
X011061Y027019D01*
X011325Y026754D01*
X011325Y026649D01*
X011410Y026443D01*
X011568Y026285D01*
X011774Y026200D01*
X011985Y026200D01*
X011985Y024430D01*
X012046Y024283D01*
X012158Y024171D01*
X012575Y023754D01*
X012575Y023649D01*
X012660Y023443D01*
X012818Y023285D01*
X013024Y023200D01*
X013235Y023200D01*
X013235Y022555D01*
X010240Y022555D01*
X010240Y022237D02*
X013468Y022237D01*
X013408Y022296D02*
X013825Y021879D01*
X013825Y021774D01*
X013910Y021568D01*
X014068Y021410D01*
X014274Y021325D01*
X014485Y021325D01*
X014485Y020680D01*
X014546Y020533D01*
X014922Y020157D01*
X014802Y020038D01*
X014500Y020340D01*
X014020Y020340D01*
X013680Y020000D01*
X013680Y019520D01*
X014020Y019180D01*
X014500Y019180D01*
X014802Y019482D01*
X015045Y019240D01*
X015260Y019240D01*
X015475Y019240D01*
X015657Y019422D01*
X015985Y019094D01*
X015985Y017152D01*
X015910Y017077D01*
X015825Y016871D01*
X015825Y016649D01*
X015910Y016443D01*
X016016Y016337D01*
X015760Y016080D01*
X015500Y016340D01*
X015020Y016340D01*
X014760Y016080D01*
X014500Y016340D01*
X014020Y016340D01*
X013680Y016000D01*
X013680Y015520D01*
X014020Y015180D01*
X014500Y015180D01*
X014760Y015440D01*
X015020Y015180D01*
X015500Y015180D01*
X015760Y015440D01*
X015940Y015260D01*
X015680Y015000D01*
X015680Y014520D01*
X015940Y014260D01*
X015680Y014000D01*
X015680Y013520D01*
X015860Y013340D01*
X015860Y013180D01*
X015680Y013000D01*
X015240Y013000D01*
X015240Y012682D02*
X015680Y012682D01*
X015680Y012520D02*
X016020Y012180D01*
X016500Y012180D01*
X016655Y012335D01*
X016655Y010615D01*
X014740Y010615D01*
X014740Y010955D01*
X014820Y011149D01*
X014820Y011371D01*
X014814Y011386D01*
X015020Y011180D01*
X015500Y011180D01*
X015840Y011520D01*
X015840Y012000D01*
X015500Y012340D01*
X015359Y012340D01*
X015240Y012459D01*
X015240Y013420D01*
X015340Y013520D01*
X015340Y014000D01*
X015000Y014340D01*
X014520Y014340D01*
X014218Y014038D01*
X013975Y014280D01*
X013760Y014280D01*
X013760Y013760D01*
X013760Y013760D01*
X013760Y013240D01*
X013975Y013240D01*
X014218Y013482D01*
X014280Y013420D01*
X014280Y012165D01*
X014353Y011988D01*
X014488Y011853D01*
X014488Y011853D01*
X014680Y011661D01*
X014680Y011632D01*
X014577Y011735D01*
X014371Y011820D01*
X014149Y011820D01*
X013943Y011735D01*
X013785Y011577D01*
X013700Y011371D01*
X013700Y011149D01*
X013780Y010955D01*
X013780Y010040D01*
X013853Y009863D01*
X013988Y009728D01*
X014165Y009655D01*
X016655Y009655D01*
X016655Y008685D01*
X016500Y008840D01*
X016020Y008840D01*
X015680Y008500D01*
X015680Y008020D01*
X015960Y007740D01*
X015100Y007740D01*
X015080Y007760D01*
X015340Y008020D01*
X015340Y008500D01*
X015000Y008840D01*
X014520Y008840D01*
X014180Y008500D01*
X014180Y008020D01*
X014440Y007760D01*
X014180Y007500D01*
X014180Y007020D01*
X014520Y006680D01*
X015000Y006680D01*
X015100Y006780D01*
X017230Y006780D01*
X017407Y006853D01*
X017542Y006988D01*
X017615Y007165D01*
X017615Y016214D01*
X018360Y015469D01*
X018360Y010652D01*
X018285Y010577D01*
X018200Y010371D01*
X018200Y010149D01*
X018285Y009943D01*
X018443Y009785D01*
X018649Y009700D01*
X018871Y009700D01*
X019077Y009785D01*
X019235Y009943D01*
X019320Y010149D01*
X019320Y010371D01*
X019235Y010577D01*
X019160Y010652D01*
X019160Y011180D01*
X019360Y011180D01*
X019360Y006305D01*
X019421Y006158D01*
X020610Y004969D01*
X020610Y002180D01*
X020671Y002033D01*
X020783Y001921D01*
X020783Y001921D01*
X021339Y001365D01*
X010334Y001365D01*
X009112Y002586D01*
X009112Y003163D01*
X008613Y003662D01*
X007907Y003662D01*
X007408Y003163D01*
X007408Y002457D01*
X007907Y001958D01*
X008384Y001958D01*
X009728Y000613D01*
X009761Y000580D01*
X001260Y000580D01*
X001154Y000588D01*
X000951Y000654D01*
X000779Y000779D01*
X000694Y000897D02*
X001235Y000897D01*
X001140Y000952D02*
X001370Y000819D01*
X001627Y000750D01*
X001893Y000750D01*
X002150Y000819D01*
X002380Y000952D01*
X002568Y001140D01*
X002701Y001370D01*
X002770Y001627D01*
X002770Y001893D01*
X002701Y002150D01*
X002568Y002380D01*
X002380Y002568D01*
X002150Y002701D01*
X001893Y002770D01*
X001627Y002770D01*
X001370Y002701D01*
X001140Y002568D01*
X000952Y002380D01*
X000819Y002150D01*
X000750Y001893D01*
X000750Y001627D01*
X000819Y001370D01*
X000952Y001140D01*
X001140Y000952D01*
X000908Y001216D02*
X000584Y001216D01*
X000580Y001534D02*
X000775Y001534D01*
X000750Y001853D02*
X000580Y001853D01*
X000580Y002171D02*
X000831Y002171D01*
X001061Y002490D02*
X000580Y002490D01*
X000580Y002808D02*
X003718Y002808D01*
X003718Y002838D02*
X003718Y002528D01*
X004492Y002528D01*
X004492Y002492D01*
X004528Y002492D01*
X004528Y001718D01*
X004838Y001718D01*
X005302Y002182D01*
X005302Y002343D01*
X005463Y002343D01*
X005568Y002447D01*
X006057Y001958D01*
X006763Y001958D01*
X007262Y002457D01*
X007262Y003163D01*
X006763Y003662D01*
X006057Y003662D01*
X005893Y003498D01*
X005631Y003760D01*
X005893Y004022D01*
X006057Y003858D01*
X006763Y003858D01*
X007262Y004357D01*
X007262Y005063D01*
X006763Y005562D01*
X006057Y005562D01*
X005568Y005073D01*
X005463Y005177D01*
X005302Y005177D01*
X005302Y005338D01*
X004838Y005802D01*
X004528Y005802D01*
X004528Y005028D01*
X004492Y005028D01*
X004492Y005802D01*
X004182Y005802D01*
X003718Y005338D01*
X003718Y005028D01*
X004492Y005028D01*
X004492Y004992D01*
X003718Y004992D01*
X003718Y004682D01*
X004182Y004218D01*
X004343Y004218D01*
X004343Y004057D01*
X004639Y003760D01*
X004343Y003463D01*
X004343Y003302D01*
X004182Y003302D01*
X003718Y002838D01*
X003557Y003007D02*
X003588Y003038D01*
X003625Y003062D01*
X003649Y003099D01*
X003681Y003131D01*
X003698Y003171D01*
X003722Y003208D01*
X003731Y003251D01*
X003748Y003292D01*
X003748Y003336D01*
X003757Y003380D01*
X003748Y003423D01*
X003748Y004228D01*
X003681Y004390D01*
X003557Y004514D01*
X003395Y004581D01*
X003220Y004581D01*
X003059Y004514D01*
X003054Y004509D01*
X003050Y004514D01*
X003009Y004530D01*
X002973Y004555D01*
X002929Y004564D01*
X002888Y004581D01*
X002844Y004581D01*
X002801Y004589D01*
X002758Y004581D01*
X002713Y004581D01*
X002673Y004564D01*
X002630Y004555D01*
X002593Y004531D01*
X002552Y004514D01*
X002531Y004493D01*
X002523Y004500D01*
X002510Y004514D01*
X002452Y004537D01*
X002348Y004581D01*
X001919Y004581D01*
X001823Y004541D01*
X001758Y004514D01*
X001758Y004514D01*
X001756Y004512D01*
X001634Y004390D01*
X001634Y004390D01*
X001631Y004387D01*
X001507Y004263D01*
X001496Y004237D01*
X001440Y004101D01*
X001440Y003419D01*
X001507Y003258D01*
X001634Y003131D01*
X001758Y003007D01*
X001919Y002940D01*
X002348Y002940D01*
X002510Y003007D01*
X002531Y003028D01*
X002552Y003007D01*
X002713Y002940D01*
X002888Y002940D01*
X003050Y003007D01*
X003054Y003011D01*
X003059Y003007D01*
X003099Y002990D01*
X003136Y002966D01*
X003179Y002957D01*
X003220Y002940D01*
X003264Y002940D01*
X003307Y002931D01*
X003351Y002940D01*
X003395Y002940D01*
X003436Y002957D01*
X003479Y002965D01*
X003516Y002990D01*
X003557Y003007D01*
X003677Y003127D02*
X004006Y003127D01*
X003748Y003445D02*
X004343Y003445D01*
X004636Y003764D02*
X003748Y003764D01*
X003748Y004082D02*
X004343Y004082D01*
X003999Y004401D02*
X003670Y004401D01*
X003718Y004719D02*
X002511Y004719D01*
X002492Y004700D02*
X002820Y005028D01*
X002820Y005260D01*
X002820Y005492D01*
X002492Y005820D01*
X002260Y005820D01*
X002260Y005260D01*
X002820Y005260D01*
X002260Y005260D01*
X002260Y005260D01*
X002260Y005260D01*
X002260Y004700D01*
X002492Y004700D01*
X002510Y004514D02*
X002510Y004514D01*
X002510Y004514D01*
X002260Y004700D02*
X002260Y005260D01*
X002260Y005260D01*
X002260Y005260D01*
X001700Y005260D01*
X001700Y005492D01*
X002028Y005820D01*
X002260Y005820D01*
X002260Y005260D01*
X001700Y005260D01*
X001700Y005028D01*
X002028Y004700D01*
X002260Y004700D01*
X002260Y004719D02*
X002260Y004719D01*
X002009Y004719D02*
X000580Y004719D01*
X000580Y004401D02*
X001644Y004401D01*
X001507Y004263D02*
X001507Y004263D01*
X001507Y004263D01*
X001440Y004082D02*
X000580Y004082D01*
X000580Y003764D02*
X001440Y003764D01*
X001440Y003445D02*
X000580Y003445D01*
X000580Y003127D02*
X001638Y003127D01*
X002459Y002490D02*
X003718Y002490D01*
X003718Y002492D02*
X003718Y002182D01*
X004182Y001718D01*
X004492Y001718D01*
X004492Y002492D01*
X003718Y002492D01*
X003728Y002171D02*
X002689Y002171D01*
X002770Y001853D02*
X004047Y001853D01*
X004492Y001853D02*
X004528Y001853D01*
X004528Y002171D02*
X004492Y002171D01*
X004492Y002490D02*
X004528Y002490D01*
X004510Y002510D02*
X005135Y003135D01*
X005260Y003135D01*
X005760Y003635D01*
X011260Y003635D01*
X011385Y003135D01*
X011385Y004385D01*
X012010Y005010D01*
X012028Y005028D02*
X012802Y005028D01*
X012802Y005338D01*
X012338Y005802D01*
X012028Y005802D01*
X012028Y005028D01*
X012028Y004992D01*
X012802Y004992D01*
X012802Y004682D01*
X012338Y004218D01*
X012177Y004218D01*
X012177Y004057D01*
X011881Y003760D01*
X012177Y003463D01*
X012177Y003302D01*
X012338Y003302D01*
X012802Y002838D01*
X012802Y002528D01*
X012028Y002528D01*
X012028Y002492D01*
X012802Y002492D01*
X012802Y002182D01*
X012338Y001718D01*
X012028Y001718D01*
X012028Y002492D01*
X011992Y002492D01*
X011992Y001718D01*
X011682Y001718D01*
X011218Y002182D01*
X011218Y002343D01*
X011057Y002343D01*
X010952Y002447D01*
X010463Y001958D01*
X009757Y001958D01*
X009258Y002457D01*
X009258Y003163D01*
X009757Y003662D01*
X010463Y003662D01*
X010627Y003498D01*
X010889Y003760D01*
X010627Y004022D01*
X010463Y003858D01*
X009757Y003858D01*
X009258Y004357D01*
X009258Y005063D01*
X009757Y005562D01*
X010463Y005562D01*
X010952Y005073D01*
X011057Y005177D01*
X011218Y005177D01*
X011218Y005338D01*
X011682Y005802D01*
X011992Y005802D01*
X011992Y005028D01*
X012028Y005028D01*
X012028Y005038D02*
X011992Y005038D01*
X011992Y005356D02*
X012028Y005356D01*
X012028Y005675D02*
X011992Y005675D01*
X011554Y005675D02*
X008978Y005675D01*
X008740Y005436D02*
X008740Y005436D01*
X008820Y005356D02*
X009550Y005356D01*
X009258Y005038D02*
X009112Y005038D01*
X009112Y004719D02*
X009258Y004719D01*
X009258Y004401D02*
X009112Y004401D01*
X008838Y004082D02*
X009532Y004082D01*
X009539Y003445D02*
X008831Y003445D01*
X009112Y003127D02*
X009258Y003127D01*
X009258Y002808D02*
X009112Y002808D01*
X009209Y002490D02*
X009258Y002490D01*
X009528Y002171D02*
X009543Y002171D01*
X009846Y001853D02*
X011547Y001853D01*
X011992Y001853D02*
X012028Y001853D01*
X012028Y002171D02*
X011992Y002171D01*
X011992Y002490D02*
X012028Y002490D01*
X012010Y002510D02*
X011385Y003135D01*
X011403Y003153D02*
X011367Y003153D01*
X011367Y004367D01*
X011403Y004367D01*
X011403Y003593D01*
X011403Y003153D01*
X011403Y003445D02*
X011367Y003445D01*
X011367Y003764D02*
X011403Y003764D01*
X011403Y004082D02*
X011367Y004082D01*
X010886Y003764D02*
X005634Y003764D01*
X005153Y003764D02*
X005117Y003764D01*
X005153Y003927D02*
X005153Y004367D01*
X005117Y004367D01*
X005117Y003153D01*
X005153Y003153D01*
X005558Y003153D01*
X005558Y003117D01*
X005153Y003117D01*
X005153Y003153D01*
X005153Y003927D01*
X005153Y004082D02*
X005117Y004082D01*
X005117Y003445D02*
X005153Y003445D01*
X005153Y003127D02*
X005558Y003127D01*
X005292Y002171D02*
X005843Y002171D01*
X004973Y001853D02*
X008489Y001853D01*
X008807Y001534D02*
X002745Y001534D01*
X002612Y001216D02*
X009126Y001216D01*
X009444Y000897D02*
X002285Y000897D01*
X002260Y005038D02*
X002260Y005038D01*
X002260Y005356D02*
X002260Y005356D01*
X002260Y005675D02*
X002260Y005675D01*
X002637Y005675D02*
X004054Y005675D01*
X004492Y005675D02*
X004528Y005675D01*
X004528Y005356D02*
X004492Y005356D01*
X004492Y005038D02*
X004528Y005038D01*
X004966Y005675D02*
X007780Y005675D01*
X007700Y005356D02*
X006970Y005356D01*
X007262Y005038D02*
X007408Y005038D01*
X007408Y004719D02*
X007262Y004719D01*
X007262Y004401D02*
X007408Y004401D01*
X007682Y004082D02*
X006988Y004082D01*
X006981Y003445D02*
X007689Y003445D01*
X007408Y003127D02*
X007262Y003127D01*
X007262Y002808D02*
X007408Y002808D01*
X007408Y002490D02*
X007262Y002490D01*
X006977Y002171D02*
X007693Y002171D01*
X008260Y002760D02*
X008260Y002810D01*
X008260Y002760D02*
X010135Y000885D01*
X035885Y000885D01*
X035885Y011510D01*
X035260Y012135D01*
X035260Y012260D01*
X035260Y013260D01*
X035260Y014260D01*
X037260Y014260D01*
X038080Y014274D02*
X038500Y014274D01*
X038500Y014260D02*
X039260Y014260D01*
X038885Y014385D01*
X039260Y014385D01*
X046385Y014385D01*
X046385Y023135D01*
X046260Y023260D01*
X046780Y023260D01*
X046780Y023475D01*
X046538Y023718D01*
X046840Y024020D01*
X046840Y024500D01*
X046580Y024760D01*
X046840Y025020D01*
X046840Y025500D01*
X046580Y025760D01*
X046840Y026020D01*
X046840Y026274D01*
X048737Y028171D01*
X048849Y028283D01*
X048910Y028430D01*
X048910Y031825D01*
X049110Y031825D01*
X049110Y026805D01*
X049171Y026658D01*
X049283Y026546D01*
X051075Y024754D01*
X051075Y024649D01*
X051160Y024443D01*
X051318Y024285D01*
X051524Y024200D01*
X051680Y024200D01*
X051680Y024020D01*
X051940Y023760D01*
X051680Y023500D01*
X051680Y023020D01*
X051860Y022840D01*
X051860Y022426D01*
X051274Y021840D01*
X051020Y021840D01*
X050752Y021572D01*
X050657Y021667D01*
X050480Y021740D01*
X047600Y021740D01*
X047500Y021840D01*
X047020Y021840D01*
X046680Y021500D01*
X046680Y021020D01*
X047020Y020680D01*
X047500Y020680D01*
X047600Y020780D01*
X049905Y020780D01*
X049905Y010165D01*
X049978Y009988D01*
X050680Y009286D01*
X050680Y009020D01*
X051020Y008680D01*
X051500Y008680D01*
X051600Y008780D01*
X051920Y008780D01*
X052020Y008680D01*
X052500Y008680D01*
X052600Y008780D01*
X053920Y008780D01*
X054020Y008680D01*
X054500Y008680D01*
X054600Y008780D01*
X054920Y008780D01*
X055020Y008680D01*
X055500Y008680D01*
X055840Y009020D01*
X055840Y009500D01*
X055500Y009840D01*
X055020Y009840D01*
X054920Y009740D01*
X054600Y009740D01*
X054500Y009840D01*
X054020Y009840D01*
X053920Y009740D01*
X052600Y009740D01*
X052500Y009840D01*
X052020Y009840D01*
X051920Y009740D01*
X051600Y009740D01*
X051500Y009840D01*
X051484Y009840D01*
X050865Y010459D01*
X050865Y020835D01*
X051020Y020680D01*
X051500Y020680D01*
X051840Y021020D01*
X051840Y021274D01*
X052487Y021921D01*
X052599Y022033D01*
X052660Y022180D01*
X052660Y022840D01*
X052840Y023020D01*
X052840Y023500D01*
X052580Y023760D01*
X052779Y023959D01*
X052785Y023943D01*
X052943Y023785D01*
X053149Y023700D01*
X053280Y023700D01*
X053280Y022459D01*
X052661Y021840D01*
X052520Y021840D01*
X052180Y021500D01*
X052180Y021020D01*
X052520Y020680D01*
X053000Y020680D01*
X053340Y021020D01*
X053340Y021161D01*
X054167Y021988D01*
X054240Y022165D01*
X054240Y030700D01*
X054360Y030700D01*
X054360Y030680D01*
X054421Y030533D01*
X054533Y030421D01*
X054680Y030274D01*
X054680Y030020D01*
X054940Y029760D01*
X054680Y029500D01*
X054680Y029020D01*
X054940Y028760D01*
X054680Y028500D01*
X054680Y028020D01*
X054940Y027760D01*
X054680Y027500D01*
X054680Y027020D01*
X054940Y026760D01*
X054680Y026500D01*
X054680Y026020D01*
X054940Y025760D01*
X054680Y025500D01*
X054680Y025020D01*
X054940Y024760D01*
X054680Y024500D01*
X054680Y024020D01*
X054940Y023760D01*
X054680Y023500D01*
X054680Y023020D01*
X055020Y022680D01*
X055376Y022680D01*
X054536Y021840D01*
X054520Y021840D01*
X054180Y021500D01*
X054180Y021020D01*
X054520Y020680D01*
X055000Y020680D01*
X055340Y021020D01*
X055340Y021286D01*
X056292Y022238D01*
X056365Y022415D01*
X056365Y029825D01*
X056496Y029825D01*
X056702Y029910D01*
X056860Y030068D01*
X056945Y030274D01*
X056945Y030496D01*
X056860Y030702D01*
X056785Y030777D01*
X056785Y031700D01*
X056996Y031700D01*
X057202Y031785D01*
X057360Y031943D01*
X057445Y032149D01*
X057445Y032371D01*
X057360Y032577D01*
X057202Y032735D01*
X057160Y032752D01*
X057160Y043743D01*
X057235Y043818D01*
X057320Y044024D01*
X057320Y044246D01*
X057235Y044452D01*
X057077Y044610D01*
X056871Y044695D01*
X056649Y044695D01*
X056443Y044610D01*
X056285Y044452D01*
X056200Y044246D01*
X056200Y044024D01*
X056285Y043818D01*
X056360Y043743D01*
X056360Y041476D01*
X055856Y041979D01*
X055880Y042003D01*
X055880Y042314D01*
X055987Y042421D01*
X056099Y042533D01*
X056160Y042680D01*
X056160Y049200D01*
X056371Y049200D01*
X056577Y049285D01*
X056735Y049443D01*
X056820Y049649D01*
X056820Y049871D01*
X056735Y050077D01*
X056660Y050152D01*
X056660Y057090D01*
X056599Y057237D01*
X054349Y059487D01*
X054237Y059599D01*
X054090Y059660D01*
X045055Y059660D01*
X044908Y059599D01*
X044796Y059487D01*
X044735Y059340D01*
X044735Y058652D01*
X044244Y058652D01*
X043885Y058294D01*
X043856Y058323D01*
X043902Y058369D01*
X043902Y058901D01*
X043526Y059277D01*
X042994Y059277D01*
X042618Y058901D01*
X042618Y058369D01*
X042664Y058323D01*
X042635Y058294D01*
X042276Y058652D01*
X041744Y058652D01*
X041385Y058294D01*
X041356Y058323D01*
X041402Y058369D01*
X041402Y058901D01*
X041026Y059277D01*
X040509Y059277D01*
X040474Y059362D01*
X039974Y059862D01*
X039896Y059940D01*
X059260Y059940D01*
X059366Y059932D01*
X059569Y059866D01*
X059741Y059741D01*
X059866Y059569D01*
X059932Y059366D01*
X059940Y059260D01*
X059940Y001260D01*
X059932Y001154D01*
X059866Y000951D01*
X059741Y000779D01*
X059569Y000654D01*
X059366Y000588D01*
X059260Y000580D01*
X036259Y000580D01*
X036292Y000613D01*
X036365Y000790D01*
X036365Y011605D01*
X036292Y011782D01*
X035840Y012234D01*
X035840Y012500D01*
X035740Y012600D01*
X035740Y012920D01*
X035840Y013020D01*
X035840Y013500D01*
X035740Y013600D01*
X035740Y013780D01*
X036580Y013780D01*
X036920Y013440D01*
X037600Y013440D01*
X038080Y013920D01*
X038080Y014600D01*
X037600Y015080D01*
X036920Y015080D01*
X036580Y014740D01*
X035740Y014740D01*
X035740Y015355D01*
X035667Y015532D01*
X035032Y016167D01*
X035376Y016511D01*
X035376Y017009D01*
X035024Y017360D01*
X034527Y017360D01*
X034183Y017016D01*
X033857Y017342D01*
X033857Y017507D01*
X033507Y017857D01*
X033013Y017857D01*
X032857Y017702D01*
X032857Y018132D01*
X032755Y018235D01*
X032815Y018235D01*
X033013Y018038D01*
X033507Y018038D01*
X033857Y018388D01*
X033857Y018882D01*
X033507Y019232D01*
X033013Y019232D01*
X032815Y019035D01*
X032180Y019035D01*
X032033Y018974D01*
X031921Y018862D01*
X031740Y018681D01*
X031740Y019280D01*
X036415Y019280D01*
X036605Y019280D01*
X036782Y019353D01*
X036917Y019488D01*
X036990Y019665D01*
X036990Y020680D01*
X037000Y020680D01*
X037100Y020780D01*
X043230Y020780D01*
X043364Y020835D01*
X043520Y020680D01*
X044000Y020680D01*
X044340Y021020D01*
X044340Y021500D01*
X044135Y021706D01*
X045155Y022726D01*
X045155Y021165D01*
X045180Y021104D01*
X045180Y021020D01*
X045520Y020680D01*
X046000Y020680D01*
X046340Y021020D01*
X046340Y021500D01*
X046115Y021725D01*
X046115Y021948D01*
X046235Y022068D01*
X046320Y022274D01*
X046320Y022496D01*
X046235Y022702D01*
X046197Y022740D01*
X046260Y022740D01*
X046475Y022740D01*
X046780Y023045D01*
X046780Y023260D01*
X046260Y023260D01*
X046260Y023260D01*
X046260Y022740D01*
X046260Y023260D01*
X046260Y023260D01*
X046260Y023192D02*
X046260Y023192D01*
X046260Y022874D02*
X046260Y022874D01*
X046296Y022555D02*
X051860Y022555D01*
X051826Y022874D02*
X046609Y022874D01*
X046780Y023192D02*
X051680Y023192D01*
X051690Y023511D02*
X046745Y023511D01*
X046649Y023829D02*
X051871Y023829D01*
X051680Y024148D02*
X046840Y024148D01*
X046840Y024466D02*
X051151Y024466D01*
X051045Y024785D02*
X046605Y024785D01*
X046840Y025103D02*
X050726Y025103D01*
X050408Y025422D02*
X046840Y025422D01*
X046600Y025740D02*
X050089Y025740D01*
X049771Y026059D02*
X046840Y026059D01*
X046943Y026377D02*
X049452Y026377D01*
X049156Y026696D02*
X047261Y026696D01*
X047580Y027014D02*
X049110Y027014D01*
X049110Y027333D02*
X047898Y027333D01*
X048217Y027651D02*
X049110Y027651D01*
X049110Y027970D02*
X048535Y027970D01*
X048851Y028288D02*
X049110Y028288D01*
X049110Y028607D02*
X048910Y028607D01*
X048910Y028925D02*
X049110Y028925D01*
X049110Y029244D02*
X048910Y029244D01*
X048910Y029562D02*
X049110Y029562D01*
X049110Y029881D02*
X048910Y029881D01*
X048910Y030199D02*
X049110Y030199D01*
X049110Y030518D02*
X048910Y030518D01*
X048910Y030836D02*
X049110Y030836D01*
X049110Y031155D02*
X048910Y031155D01*
X048910Y031473D02*
X049110Y031473D01*
X049110Y031792D02*
X048910Y031792D01*
X050660Y031792D02*
X050860Y031792D01*
X050860Y032110D02*
X050660Y032110D01*
X050660Y032429D02*
X050860Y032429D01*
X050860Y032747D02*
X050660Y032747D01*
X050660Y033066D02*
X050860Y033066D01*
X050860Y033384D02*
X050660Y033384D01*
X050660Y033703D02*
X050860Y033703D01*
X050860Y034021D02*
X050660Y034021D01*
X050660Y034340D02*
X050860Y034340D01*
X050860Y034658D02*
X050660Y034658D01*
X050660Y034977D02*
X050860Y034977D01*
X050860Y035295D02*
X050660Y035295D01*
X050660Y035614D02*
X050860Y035614D01*
X050860Y035932D02*
X050660Y035932D01*
X050660Y036251D02*
X050860Y036251D01*
X050860Y036569D02*
X050660Y036569D01*
X050660Y036888D02*
X050860Y036888D01*
X050860Y037206D02*
X050660Y037206D01*
X050760Y037260D02*
X050760Y027260D01*
X050660Y027301D02*
X050660Y040783D01*
X050760Y040883D01*
X050860Y040783D01*
X050860Y027101D01*
X050660Y027301D01*
X050660Y027333D02*
X050860Y027333D01*
X050860Y027651D02*
X050660Y027651D01*
X050660Y027970D02*
X050860Y027970D01*
X050860Y028288D02*
X050660Y028288D01*
X050660Y028607D02*
X050860Y028607D01*
X050860Y028925D02*
X050660Y028925D01*
X050660Y029244D02*
X050860Y029244D01*
X050860Y029562D02*
X050660Y029562D01*
X050660Y029881D02*
X050860Y029881D01*
X050860Y030199D02*
X050660Y030199D01*
X050660Y030518D02*
X050860Y030518D01*
X050860Y030836D02*
X050660Y030836D01*
X050660Y031155D02*
X050860Y031155D01*
X050860Y031473D02*
X050660Y031473D01*
X052260Y034260D02*
X052260Y035260D01*
X053760Y036260D02*
X053760Y031260D01*
X054260Y031260D01*
X053760Y031260D02*
X053760Y022260D01*
X052760Y021260D01*
X052180Y021281D02*
X051847Y021281D01*
X051783Y020963D02*
X052237Y020963D01*
X052279Y021600D02*
X052165Y021600D01*
X052484Y021918D02*
X052739Y021918D01*
X052660Y022237D02*
X053058Y022237D01*
X053280Y022555D02*
X052660Y022555D01*
X052694Y022874D02*
X053280Y022874D01*
X053280Y023192D02*
X052840Y023192D01*
X052830Y023511D02*
X053280Y023511D01*
X052899Y023829D02*
X052649Y023829D01*
X052779Y024561D02*
X052538Y024802D01*
X052780Y025045D01*
X052780Y025260D01*
X052780Y025475D01*
X052538Y025718D01*
X052840Y026020D01*
X052840Y026114D01*
X052860Y026094D01*
X052860Y024652D01*
X052785Y024577D01*
X052779Y024561D01*
X052860Y024785D02*
X052556Y024785D01*
X052780Y025103D02*
X052860Y025103D01*
X052780Y025260D02*
X052260Y025260D01*
X052780Y025260D01*
X052780Y025422D02*
X052860Y025422D01*
X052860Y025740D02*
X052560Y025740D01*
X052840Y026059D02*
X052860Y026059D01*
X052260Y025260D02*
X052260Y025260D01*
X054240Y025103D02*
X054680Y025103D01*
X054680Y025422D02*
X054240Y025422D01*
X054240Y025740D02*
X054920Y025740D01*
X054680Y026059D02*
X054240Y026059D01*
X054240Y026377D02*
X054680Y026377D01*
X054875Y026696D02*
X054240Y026696D01*
X054240Y027014D02*
X054686Y027014D01*
X054680Y027333D02*
X054240Y027333D01*
X054240Y027651D02*
X054831Y027651D01*
X054730Y027970D02*
X054240Y027970D01*
X054240Y028288D02*
X054680Y028288D01*
X054786Y028607D02*
X054240Y028607D01*
X054240Y028925D02*
X054775Y028925D01*
X054680Y029244D02*
X054240Y029244D01*
X054240Y029562D02*
X054742Y029562D01*
X054819Y029881D02*
X054240Y029881D01*
X054240Y030199D02*
X054680Y030199D01*
X054437Y030518D02*
X054240Y030518D01*
X054260Y032260D02*
X054260Y035260D01*
X057160Y035295D02*
X059940Y035295D01*
X059940Y034977D02*
X057160Y034977D01*
X057160Y034658D02*
X059940Y034658D01*
X059940Y034340D02*
X057160Y034340D01*
X057160Y034021D02*
X059940Y034021D01*
X059940Y033703D02*
X057160Y033703D01*
X057160Y033384D02*
X059940Y033384D01*
X059940Y033066D02*
X057160Y033066D01*
X057173Y032747D02*
X059940Y032747D01*
X059940Y032429D02*
X057421Y032429D01*
X057429Y032110D02*
X059940Y032110D01*
X059940Y031792D02*
X057208Y031792D01*
X056785Y031473D02*
X059940Y031473D01*
X059940Y031155D02*
X056785Y031155D01*
X056785Y030836D02*
X059940Y030836D01*
X059940Y030518D02*
X056936Y030518D01*
X056914Y030199D02*
X059940Y030199D01*
X059940Y029881D02*
X056630Y029881D01*
X056365Y029562D02*
X059940Y029562D01*
X059940Y029244D02*
X056365Y029244D01*
X056365Y028925D02*
X059940Y028925D01*
X059940Y028607D02*
X056365Y028607D01*
X056365Y028288D02*
X059940Y028288D01*
X059940Y027970D02*
X056365Y027970D01*
X056365Y027651D02*
X059940Y027651D01*
X059940Y027333D02*
X056365Y027333D01*
X056365Y027014D02*
X059940Y027014D01*
X059940Y026696D02*
X056365Y026696D01*
X056365Y026377D02*
X059940Y026377D01*
X059940Y026059D02*
X056365Y026059D01*
X056365Y025740D02*
X059940Y025740D01*
X059940Y025422D02*
X056365Y025422D01*
X056365Y025103D02*
X059940Y025103D01*
X059940Y024785D02*
X056365Y024785D01*
X056365Y024466D02*
X059940Y024466D01*
X059940Y024148D02*
X056365Y024148D01*
X056365Y023829D02*
X059940Y023829D01*
X059940Y023511D02*
X056365Y023511D01*
X056365Y023192D02*
X059940Y023192D01*
X059940Y022874D02*
X056365Y022874D01*
X056365Y022555D02*
X059940Y022555D01*
X059940Y022237D02*
X056290Y022237D01*
X055972Y021918D02*
X059940Y021918D01*
X059940Y021600D02*
X055653Y021600D01*
X055340Y021281D02*
X059940Y021281D01*
X059940Y020963D02*
X055283Y020963D01*
X054760Y021260D02*
X054760Y021385D01*
X055885Y022510D01*
X055885Y031635D01*
X055260Y032260D01*
X057160Y035614D02*
X059940Y035614D01*
X059940Y035932D02*
X057160Y035932D01*
X057160Y036251D02*
X059940Y036251D01*
X059940Y036569D02*
X057160Y036569D01*
X057160Y036888D02*
X059940Y036888D01*
X059940Y037206D02*
X057160Y037206D01*
X057160Y037525D02*
X059940Y037525D01*
X059940Y037843D02*
X057160Y037843D01*
X057160Y038162D02*
X059940Y038162D01*
X059940Y038480D02*
X057160Y038480D01*
X057160Y038799D02*
X059940Y038799D01*
X059940Y039117D02*
X057160Y039117D01*
X057160Y039436D02*
X059940Y039436D01*
X059940Y039754D02*
X057160Y039754D01*
X057160Y040073D02*
X059940Y040073D01*
X059940Y040391D02*
X057160Y040391D01*
X057160Y040710D02*
X059940Y040710D01*
X059940Y041028D02*
X057160Y041028D01*
X057160Y041347D02*
X059940Y041347D01*
X059940Y041665D02*
X057160Y041665D01*
X057160Y041984D02*
X059940Y041984D01*
X059940Y042302D02*
X057160Y042302D01*
X057160Y042621D02*
X059940Y042621D01*
X059940Y042939D02*
X057160Y042939D01*
X057160Y043258D02*
X059940Y043258D01*
X059940Y043576D02*
X057160Y043576D01*
X057267Y043895D02*
X059940Y043895D01*
X059940Y044213D02*
X057320Y044213D01*
X057155Y044532D02*
X059940Y044532D01*
X059940Y044850D02*
X056160Y044850D01*
X056160Y044532D02*
X056365Y044532D01*
X056200Y044213D02*
X056160Y044213D01*
X056160Y043895D02*
X056253Y043895D01*
X056160Y043576D02*
X056360Y043576D01*
X056360Y043258D02*
X056160Y043258D01*
X056160Y042939D02*
X056360Y042939D01*
X056360Y042621D02*
X056135Y042621D01*
X056360Y042302D02*
X055880Y042302D01*
X055860Y041984D02*
X056360Y041984D01*
X056360Y041665D02*
X056171Y041665D01*
X052860Y042976D02*
X052660Y043176D01*
X052660Y045868D01*
X052735Y045943D01*
X052820Y046149D01*
X052820Y046158D01*
X052860Y046118D01*
X052860Y042976D01*
X052760Y043135D02*
X052760Y046760D01*
X053260Y047260D01*
X053260Y048260D01*
X053320Y047700D02*
X053360Y047700D01*
X053360Y047070D01*
X053149Y047070D01*
X052943Y046985D01*
X052785Y046827D01*
X052700Y046621D01*
X052700Y046612D01*
X052577Y046735D01*
X052371Y046820D01*
X052160Y046820D01*
X052160Y047344D01*
X052241Y047425D01*
X052285Y047318D01*
X052443Y047160D01*
X052649Y047075D01*
X052871Y047075D01*
X053077Y047160D01*
X053235Y047318D01*
X053320Y047524D01*
X053320Y047700D01*
X053360Y047398D02*
X053268Y047398D01*
X053360Y047080D02*
X052882Y047080D01*
X052638Y047080D02*
X052160Y047080D01*
X052214Y047398D02*
X052252Y047398D01*
X052514Y046761D02*
X052758Y046761D01*
X052810Y046124D02*
X052854Y046124D01*
X052860Y045806D02*
X052660Y045806D01*
X052660Y045487D02*
X052860Y045487D01*
X052860Y045169D02*
X052660Y045169D01*
X052660Y044850D02*
X052860Y044850D01*
X052860Y044532D02*
X052660Y044532D01*
X052660Y044213D02*
X052860Y044213D01*
X052860Y043895D02*
X052660Y043895D01*
X052660Y043576D02*
X052860Y043576D01*
X052860Y043258D02*
X052660Y043258D01*
X050860Y040710D02*
X050660Y040710D01*
X050660Y040391D02*
X050860Y040391D01*
X050860Y040073D02*
X050660Y040073D01*
X050660Y039754D02*
X050860Y039754D01*
X050860Y039436D02*
X050660Y039436D01*
X050660Y039117D02*
X050860Y039117D01*
X050860Y038799D02*
X050660Y038799D01*
X050660Y038480D02*
X050860Y038480D01*
X050860Y038162D02*
X050660Y038162D01*
X050660Y037843D02*
X050860Y037843D01*
X050860Y037525D02*
X050660Y037525D01*
X047135Y036385D02*
X046260Y037260D01*
X047135Y036385D02*
X047135Y032135D01*
X046260Y031260D01*
X044260Y032260D02*
X044260Y033260D01*
X043260Y034260D01*
X043885Y034885D01*
X043885Y035635D01*
X043260Y036260D01*
X044385Y035260D02*
X044385Y037260D01*
X038135Y035260D02*
X037885Y035010D01*
X037885Y031885D01*
X037260Y031260D01*
X035260Y029260D01*
X035260Y021760D01*
X034760Y021260D01*
X029010Y021260D01*
X029010Y031260D01*
X029010Y035260D01*
X029010Y036510D01*
X028260Y037260D01*
X027260Y037260D01*
X027260Y034260D01*
X026510Y035260D02*
X026510Y032260D01*
X026510Y022635D01*
X027760Y021385D01*
X027760Y021260D01*
X027635Y021260D01*
X027635Y020635D01*
X027635Y020510D01*
X028010Y020135D01*
X028010Y020010D01*
X028260Y019760D01*
X036510Y019760D01*
X036510Y021260D01*
X036760Y021260D01*
X036635Y021260D01*
X036635Y028260D01*
X036135Y028760D01*
X033982Y026718D02*
X033740Y026475D01*
X033740Y026260D01*
X034260Y026260D01*
X032260Y028260D01*
X032260Y039760D01*
X032240Y039754D02*
X032360Y039754D01*
X032360Y039436D02*
X032240Y039436D01*
X032240Y039117D02*
X032360Y039117D01*
X032360Y038799D02*
X032240Y038799D01*
X032240Y038480D02*
X032360Y038480D01*
X032360Y038162D02*
X032240Y038162D01*
X032240Y037843D02*
X032360Y037843D01*
X032360Y037525D02*
X032240Y037525D01*
X032240Y037206D02*
X032360Y037206D01*
X032360Y036888D02*
X032240Y036888D01*
X032240Y036569D02*
X032360Y036569D01*
X032360Y036251D02*
X032240Y036251D01*
X032240Y035932D02*
X032360Y035932D01*
X032360Y035614D02*
X032240Y035614D01*
X032240Y035295D02*
X032360Y035295D01*
X032360Y034977D02*
X032240Y034977D01*
X032240Y034658D02*
X032360Y034658D01*
X032360Y034340D02*
X032240Y034340D01*
X032240Y034021D02*
X032360Y034021D01*
X032360Y033703D02*
X032240Y033703D01*
X032240Y033384D02*
X032360Y033384D01*
X032360Y033066D02*
X032240Y033066D01*
X032240Y032747D02*
X032360Y032747D01*
X032360Y032429D02*
X032240Y032429D01*
X032240Y032110D02*
X032360Y032110D01*
X032360Y031792D02*
X032240Y031792D01*
X032240Y031473D02*
X032360Y031473D01*
X032360Y031155D02*
X032240Y031155D01*
X032240Y030836D02*
X032360Y030836D01*
X032360Y030518D02*
X032240Y030518D01*
X032240Y030199D02*
X032360Y030199D01*
X032360Y029881D02*
X032240Y029881D01*
X032240Y029562D02*
X032360Y029562D01*
X032360Y029277D02*
X032285Y029202D01*
X032240Y029093D01*
X032240Y040863D01*
X032360Y040983D01*
X032360Y029277D01*
X032327Y029244D02*
X032240Y029244D01*
X032240Y028677D02*
X032285Y028568D01*
X032443Y028410D01*
X032649Y028325D01*
X032680Y028325D01*
X032680Y028020D01*
X033020Y027680D01*
X033360Y027680D01*
X033421Y027533D01*
X033533Y027421D01*
X033680Y027274D01*
X033680Y027020D01*
X033982Y026718D01*
X033960Y026696D02*
X032240Y026696D01*
X032240Y027014D02*
X033686Y027014D01*
X033622Y027333D02*
X032240Y027333D01*
X032240Y027651D02*
X033372Y027651D01*
X032730Y027970D02*
X032240Y027970D01*
X032240Y028288D02*
X032680Y028288D01*
X032269Y028607D02*
X032240Y028607D01*
X032240Y028677D02*
X032240Y025959D01*
X033359Y024840D01*
X033500Y024840D01*
X033760Y024580D01*
X033940Y024760D01*
X033680Y025020D01*
X033680Y025500D01*
X033982Y025802D01*
X033740Y026045D01*
X033740Y026260D01*
X034260Y026260D01*
X034260Y026260D01*
X033740Y026377D02*
X032240Y026377D01*
X032240Y026059D02*
X033740Y026059D01*
X033920Y025740D02*
X032459Y025740D01*
X032777Y025422D02*
X033680Y025422D01*
X033680Y025103D02*
X033096Y025103D01*
X033556Y024785D02*
X033915Y024785D01*
X033260Y024260D02*
X031760Y025760D01*
X031760Y041260D01*
X031760Y042260D01*
X031760Y043260D01*
X031760Y044260D01*
X031760Y045260D01*
X031760Y046260D01*
X031760Y047260D01*
X031760Y048260D01*
X031760Y049135D01*
X033385Y050760D01*
X032837Y050902D02*
X031047Y050902D01*
X031068Y050880D02*
X030880Y051068D01*
X030650Y051201D01*
X030393Y051270D01*
X030127Y051270D01*
X029870Y051201D01*
X029640Y051068D01*
X029452Y050880D01*
X029319Y050650D01*
X029250Y050393D01*
X029250Y050127D01*
X029319Y049870D01*
X029452Y049640D01*
X029640Y049452D01*
X029870Y049319D01*
X030127Y049250D01*
X030393Y049250D01*
X030650Y049319D01*
X030880Y049452D01*
X031068Y049640D01*
X031201Y049870D01*
X031270Y050127D01*
X031270Y050393D01*
X031201Y050650D01*
X031068Y050880D01*
X031219Y050583D02*
X032529Y050583D01*
X032830Y050884D02*
X031488Y049542D01*
X031353Y049407D01*
X031280Y049230D01*
X031280Y048657D01*
X031140Y048517D01*
X031140Y048003D01*
X031280Y047863D01*
X031280Y047657D01*
X031140Y047517D01*
X031140Y047003D01*
X031280Y046863D01*
X031280Y046657D01*
X031140Y046517D01*
X031140Y046003D01*
X031280Y045863D01*
X031280Y045657D01*
X031140Y045517D01*
X031140Y045003D01*
X031280Y044863D01*
X031280Y044657D01*
X031140Y044517D01*
X031140Y044003D01*
X031280Y043863D01*
X031280Y043657D01*
X031140Y043517D01*
X031140Y043003D01*
X031280Y042863D01*
X031280Y042657D01*
X031140Y042517D01*
X031140Y042003D01*
X031280Y041863D01*
X031280Y041657D01*
X031140Y041517D01*
X031140Y041066D01*
X030943Y040985D01*
X030834Y040876D01*
X030035Y041676D01*
X030035Y041868D01*
X030110Y041943D01*
X030195Y042149D01*
X030195Y042371D01*
X030110Y042577D01*
X029952Y042735D01*
X029746Y042820D01*
X029524Y042820D01*
X029318Y042735D01*
X029198Y042614D01*
X029052Y042760D01*
X029320Y043028D01*
X029320Y043260D01*
X029320Y043492D01*
X029052Y043760D01*
X029320Y044028D01*
X029320Y044260D01*
X029320Y044492D01*
X029052Y044760D01*
X029320Y045028D01*
X029320Y045260D01*
X029320Y045492D01*
X029052Y045760D01*
X029320Y046028D01*
X029320Y046260D01*
X029320Y046492D01*
X029052Y046760D01*
X029320Y047028D01*
X029320Y047260D01*
X029320Y047492D01*
X029052Y047760D01*
X029320Y048028D01*
X029320Y048260D01*
X029320Y048492D01*
X028992Y048820D01*
X028760Y048820D01*
X028760Y048260D01*
X028760Y047260D01*
X028760Y046260D01*
X028760Y045260D01*
X028760Y044260D01*
X028760Y043260D01*
X028760Y042260D01*
X028760Y041260D01*
X028760Y041260D01*
X028760Y042260D01*
X028760Y042260D01*
X028760Y043260D01*
X028760Y043260D01*
X028760Y044260D01*
X029320Y044260D01*
X028760Y044260D01*
X028760Y044260D01*
X028760Y044260D01*
X028760Y045260D01*
X028760Y045260D01*
X028760Y046260D01*
X029320Y046260D01*
X028760Y046260D01*
X028760Y046260D01*
X028760Y046260D01*
X028760Y047260D01*
X028760Y047260D01*
X028760Y048260D01*
X028760Y048260D01*
X029320Y048260D01*
X028760Y048260D01*
X028760Y048260D01*
X028760Y048260D01*
X028760Y048260D01*
X028200Y048260D01*
X028200Y048492D01*
X028528Y048820D01*
X028760Y048820D01*
X028760Y048260D01*
X028760Y047700D01*
X028760Y047260D01*
X029320Y047260D01*
X028760Y047260D01*
X028760Y047260D01*
X028760Y047260D01*
X028200Y047260D01*
X028200Y047492D01*
X028468Y047760D01*
X028200Y048028D01*
X028200Y048260D01*
X028760Y048260D01*
X028760Y048354D02*
X028760Y048354D01*
X028760Y048672D02*
X028760Y048672D01*
X029140Y048672D02*
X031280Y048672D01*
X031280Y048991D02*
X027410Y048991D01*
X027410Y049309D02*
X029907Y049309D01*
X029464Y049628D02*
X027410Y049628D01*
X027410Y049946D02*
X029298Y049946D01*
X029250Y050265D02*
X027410Y050265D01*
X027410Y050583D02*
X029301Y050583D01*
X029473Y050902D02*
X027410Y050902D01*
X027410Y051220D02*
X029941Y051220D01*
X030579Y051220D02*
X033053Y051220D01*
X033068Y051235D02*
X032910Y051077D01*
X032830Y050884D01*
X033068Y051235D02*
X033274Y051320D01*
X033485Y051320D01*
X033485Y054868D01*
X032994Y054868D01*
X032618Y055244D01*
X032618Y055776D01*
X032664Y055823D01*
X032618Y055869D01*
X032618Y056401D01*
X032976Y056760D01*
X032618Y057119D01*
X032618Y057651D01*
X032664Y057697D01*
X032618Y057744D01*
X032618Y058276D01*
X032664Y058323D01*
X032618Y058369D01*
X032618Y058901D01*
X032994Y059277D01*
X033526Y059277D01*
X033902Y058901D01*
X033902Y058369D01*
X033856Y058323D01*
X033885Y058294D01*
X034244Y058652D01*
X034776Y058652D01*
X035135Y058294D01*
X035164Y058323D01*
X035118Y058369D01*
X035118Y058901D01*
X035360Y059144D01*
X035360Y059715D01*
X035421Y059862D01*
X035499Y059940D01*
X001260Y059940D01*
X001154Y059932D01*
X000951Y059866D01*
X000779Y059741D01*
X000654Y059569D01*
X000588Y059366D01*
X000580Y059260D01*
X000580Y021205D01*
X000665Y021240D01*
X004601Y021240D01*
X002201Y023640D01*
X002003Y023640D01*
X001640Y024003D01*
X001640Y024517D01*
X001780Y024657D01*
X001780Y024863D01*
X001640Y025003D01*
X001640Y025517D01*
X001883Y025760D01*
X001640Y026003D01*
X001640Y026201D01*
X001363Y026478D01*
X001228Y026613D01*
X001155Y026790D01*
X001155Y043980D01*
X001228Y044157D01*
X001363Y044292D01*
X001540Y044365D01*
X002730Y044365D01*
X002907Y044292D01*
X003042Y044157D01*
X003042Y044157D01*
X003319Y043880D01*
X003517Y043880D01*
X003880Y043517D01*
X003880Y043319D01*
X004292Y042907D01*
X004365Y042730D01*
X004365Y028790D01*
X004292Y028613D01*
X004157Y028478D01*
X003880Y028201D01*
X003880Y028003D01*
X003637Y027760D01*
X003880Y027517D01*
X003880Y027003D01*
X003637Y026760D01*
X003880Y026517D01*
X003880Y026003D01*
X003637Y025760D01*
X003880Y025517D01*
X003880Y025003D01*
X003637Y024760D01*
X003880Y024517D01*
X003880Y024003D01*
X003538Y023661D01*
X005959Y021240D01*
X008101Y021240D01*
X005698Y023643D01*
X005504Y023643D01*
X005143Y024004D01*
X005143Y024516D01*
X005504Y024877D01*
X006016Y024877D01*
X006302Y024590D01*
X006529Y024817D01*
X006760Y024817D01*
X006760Y024260D01*
X006760Y025260D01*
X006760Y024817D02*
X006760Y024260D01*
X006760Y024260D01*
X006760Y024466D02*
X006760Y024466D01*
X006760Y024785D02*
X006760Y024785D01*
X006760Y024817D02*
X006991Y024817D01*
X007218Y024590D01*
X007504Y024877D01*
X008016Y024877D01*
X008260Y024632D01*
X008504Y024877D01*
X009016Y024877D01*
X009260Y024632D01*
X009504Y024877D01*
X010016Y024877D01*
X010260Y024632D01*
X010504Y024877D01*
X011016Y024877D01*
X011377Y024516D01*
X011377Y024004D01*
X011016Y023643D01*
X010504Y023643D01*
X010260Y023888D01*
X010240Y023868D01*
X010240Y021209D01*
X012157Y019292D01*
X012292Y019157D01*
X012365Y018980D01*
X012365Y009165D01*
X012292Y008988D01*
X012030Y008726D01*
X012280Y008475D01*
X012280Y008260D01*
X011760Y008260D01*
X011760Y008456D01*
X011760Y008456D01*
X011760Y008260D01*
X011760Y008260D01*
X011760Y008260D01*
X011760Y007740D01*
X011760Y007260D01*
X011760Y007260D01*
X012280Y007260D01*
X012280Y007475D01*
X011995Y007760D01*
X012280Y008045D01*
X012280Y008260D01*
X011760Y008260D01*
X011760Y008260D01*
X011760Y007260D01*
X011760Y007260D01*
X012280Y007260D01*
X012280Y007045D01*
X011975Y006740D01*
X011760Y006740D01*
X011760Y007260D01*
X011760Y007260D01*
X011760Y007260D01*
X011760Y006740D01*
X011545Y006740D01*
X011240Y007045D01*
X011240Y007260D01*
X011760Y007260D01*
X011760Y007267D02*
X011760Y007267D01*
X011760Y006949D02*
X011760Y006949D01*
X012184Y006949D02*
X014251Y006949D01*
X014180Y007267D02*
X012280Y007267D01*
X012170Y007586D02*
X014265Y007586D01*
X014296Y007904D02*
X012139Y007904D01*
X012280Y008223D02*
X014180Y008223D01*
X014221Y008541D02*
X012214Y008541D01*
X012163Y008860D02*
X016655Y008860D01*
X016655Y009178D02*
X012365Y009178D01*
X012365Y009497D02*
X016655Y009497D01*
X017135Y010135D02*
X014260Y010135D01*
X014260Y011260D01*
X014795Y011089D02*
X016655Y011089D01*
X016655Y010771D02*
X014740Y010771D01*
X015728Y011408D02*
X016655Y011408D01*
X016655Y011726D02*
X015840Y011726D01*
X015796Y012045D02*
X016655Y012045D01*
X015837Y012363D02*
X015336Y012363D01*
X015680Y012520D02*
X015680Y013000D01*
X015860Y013319D02*
X015240Y013319D01*
X015340Y013637D02*
X015680Y013637D01*
X015680Y013956D02*
X015340Y013956D01*
X015066Y014274D02*
X015926Y014274D01*
X015680Y014593D02*
X012365Y014593D01*
X012365Y014911D02*
X015680Y014911D01*
X015550Y015230D02*
X015909Y015230D01*
X015865Y016185D02*
X015655Y016185D01*
X015885Y016504D02*
X012365Y016504D01*
X012365Y016822D02*
X015825Y016822D01*
X015974Y017141D02*
X012365Y017141D01*
X012365Y017459D02*
X015985Y017459D01*
X015985Y017778D02*
X012365Y017778D01*
X012365Y018096D02*
X015985Y018096D01*
X015985Y018415D02*
X012365Y018415D01*
X012365Y018733D02*
X015985Y018733D01*
X015985Y019052D02*
X012336Y019052D01*
X012079Y019370D02*
X013830Y019370D01*
X013680Y019689D02*
X011760Y019689D01*
X011442Y020007D02*
X013687Y020007D01*
X014005Y020326D02*
X011123Y020326D01*
X010805Y020644D02*
X014500Y020644D01*
X014515Y020326D02*
X014754Y020326D01*
X014485Y020963D02*
X010486Y020963D01*
X010240Y021281D02*
X014485Y021281D01*
X013897Y021600D02*
X010240Y021600D01*
X010240Y021918D02*
X013786Y021918D01*
X013408Y022296D02*
X013296Y022408D01*
X013235Y022555D01*
X013235Y022874D02*
X010240Y022874D01*
X010240Y023192D02*
X013235Y023192D01*
X012632Y023511D02*
X010240Y023511D01*
X010240Y023829D02*
X010319Y023829D01*
X009760Y024260D02*
X009760Y021010D01*
X011885Y018885D01*
X011885Y009260D01*
X008260Y005635D01*
X008260Y004710D01*
X007939Y005993D02*
X000580Y005993D01*
X000580Y005675D02*
X001883Y005675D01*
X001700Y005356D02*
X000580Y005356D01*
X000580Y005038D02*
X001700Y005038D01*
X002820Y005038D02*
X003718Y005038D01*
X003735Y005356D02*
X002820Y005356D01*
X002517Y007640D02*
X002003Y007640D01*
X001640Y008003D01*
X001640Y008517D01*
X002003Y008880D01*
X002517Y008880D01*
X002880Y008517D01*
X002880Y008003D01*
X002517Y007640D01*
X002781Y007904D02*
X005796Y007904D01*
X005680Y008020D02*
X005940Y007760D01*
X005680Y007500D01*
X005680Y007020D01*
X006020Y006680D01*
X006500Y006680D01*
X006840Y007020D01*
X006840Y007500D01*
X006580Y007760D01*
X006680Y007860D01*
X007340Y007860D01*
X007360Y007840D01*
X007360Y007680D01*
X007180Y007500D01*
X007180Y007020D01*
X007520Y006680D01*
X008000Y006680D01*
X008340Y007020D01*
X008340Y007500D01*
X008160Y007680D01*
X008160Y007840D01*
X008340Y008020D01*
X008340Y008500D01*
X008000Y008840D01*
X007520Y008840D01*
X007340Y008660D01*
X006680Y008660D01*
X006500Y008840D01*
X006020Y008840D01*
X005680Y008500D01*
X005680Y008020D01*
X005680Y008223D02*
X002880Y008223D01*
X002856Y008541D02*
X005721Y008541D01*
X005765Y007586D02*
X000580Y007586D01*
X000580Y007904D02*
X001739Y007904D01*
X001640Y008223D02*
X000580Y008223D01*
X000580Y008541D02*
X001664Y008541D01*
X001983Y008860D02*
X000580Y008860D01*
X000580Y009178D02*
X011124Y009178D01*
X011405Y009497D02*
X000580Y009497D01*
X000580Y009815D02*
X011405Y009815D01*
X011405Y010134D02*
X000580Y010134D01*
X000580Y010452D02*
X011405Y010452D01*
X010830Y010771D02*
X010690Y010771D01*
X009830Y010771D02*
X009591Y010771D01*
X008929Y010771D02*
X008591Y010771D01*
X008260Y011260D02*
X007635Y011885D01*
X007635Y014135D01*
X005760Y014135D01*
X004760Y015135D01*
X003760Y015135D01*
X003713Y015244D01*
X004574Y014593D02*
X004624Y014593D01*
X004497Y014274D02*
X004256Y014274D01*
X004179Y013956D02*
X000580Y013956D01*
X000580Y014274D02*
X003170Y014274D01*
X002851Y014593D02*
X000580Y014593D01*
X000580Y014911D02*
X002643Y014911D01*
X002643Y015230D02*
X000580Y015230D01*
X000580Y015548D02*
X002643Y015548D01*
X002822Y015867D02*
X000580Y015867D01*
X000580Y016185D02*
X003140Y016185D01*
X002553Y017790D02*
X002167Y017790D01*
X001811Y017938D01*
X001538Y018211D01*
X001390Y018567D01*
X001390Y018953D01*
X001538Y019309D01*
X001811Y019582D01*
X002167Y019730D01*
X002553Y019730D01*
X002909Y019582D01*
X003182Y019309D01*
X003330Y018953D01*
X003330Y018567D01*
X003182Y018211D01*
X002909Y017938D01*
X002553Y017790D01*
X003068Y018096D02*
X007719Y018096D01*
X007640Y018017D02*
X007640Y017503D01*
X008003Y017140D01*
X008260Y017140D01*
X008260Y016760D01*
X000760Y016760D01*
X000760Y020760D01*
X008260Y020760D01*
X008260Y020380D01*
X008003Y020380D01*
X007640Y020017D01*
X007640Y019503D01*
X007926Y019218D01*
X007700Y018992D01*
X007700Y018760D01*
X008260Y018760D01*
X007760Y018760D01*
X002260Y024260D01*
X002260Y025260D01*
X001863Y025740D02*
X000580Y025740D01*
X000580Y025422D02*
X001640Y025422D01*
X001640Y025103D02*
X000580Y025103D01*
X000580Y024785D02*
X001780Y024785D01*
X001640Y024466D02*
X000580Y024466D01*
X000580Y024148D02*
X001640Y024148D01*
X001814Y023829D02*
X000580Y023829D01*
X000580Y023511D02*
X002331Y023511D01*
X002649Y023192D02*
X000580Y023192D01*
X000580Y022874D02*
X002968Y022874D01*
X003286Y022555D02*
X000580Y022555D01*
X000580Y022237D02*
X003605Y022237D01*
X003923Y021918D02*
X000580Y021918D01*
X000580Y021600D02*
X004242Y021600D01*
X004560Y021281D02*
X000580Y021281D01*
X000760Y020644D02*
X008260Y020644D01*
X007949Y020326D02*
X000760Y020326D01*
X000760Y020007D02*
X007640Y020007D01*
X007640Y019689D02*
X002653Y019689D01*
X003122Y019370D02*
X007773Y019370D01*
X007760Y019052D02*
X003289Y019052D01*
X003330Y018733D02*
X007700Y018733D01*
X007700Y018760D02*
X007700Y018528D01*
X007926Y018302D01*
X007640Y018017D01*
X007640Y017778D02*
X000760Y017778D01*
X000760Y018096D02*
X001652Y018096D01*
X001453Y018415D02*
X000760Y018415D01*
X000760Y018733D02*
X001390Y018733D01*
X001431Y019052D02*
X000760Y019052D01*
X000760Y019370D02*
X001598Y019370D01*
X002067Y019689D02*
X000760Y019689D01*
X000760Y017459D02*
X007684Y017459D01*
X008003Y017141D02*
X000760Y017141D01*
X000760Y016822D02*
X008260Y016822D01*
X008260Y015885D02*
X007635Y015885D01*
X007635Y014135D01*
X007155Y013637D02*
X006082Y013637D01*
X006082Y013319D02*
X007155Y013319D01*
X007155Y013000D02*
X006082Y013000D01*
X005931Y012682D02*
X007155Y012682D01*
X007155Y012363D02*
X005612Y012363D01*
X004411Y012363D02*
X000580Y012363D01*
X000580Y012045D02*
X007155Y012045D01*
X007181Y011726D02*
X002671Y011726D01*
X002517Y011880D02*
X002003Y011880D01*
X001640Y011517D01*
X001640Y011003D01*
X002003Y010640D01*
X002517Y010640D01*
X002880Y011003D01*
X002880Y011517D01*
X002517Y011880D01*
X002880Y011408D02*
X007434Y011408D01*
X007680Y011089D02*
X002880Y011089D01*
X002647Y010771D02*
X007929Y010771D01*
X008299Y008541D02*
X010487Y008541D01*
X010169Y008223D02*
X008340Y008223D01*
X008224Y007904D02*
X009850Y007904D01*
X009532Y007586D02*
X008255Y007586D01*
X008340Y007267D02*
X009213Y007267D01*
X008895Y006949D02*
X008269Y006949D01*
X008576Y006630D02*
X000580Y006630D01*
X000580Y006312D02*
X008258Y006312D01*
X009297Y005993D02*
X019586Y005993D01*
X019360Y006312D02*
X009615Y006312D01*
X009934Y006630D02*
X019360Y006630D01*
X019360Y006949D02*
X017502Y006949D01*
X017615Y007267D02*
X019360Y007267D01*
X019360Y007586D02*
X017615Y007586D01*
X017615Y007904D02*
X019360Y007904D01*
X019360Y008223D02*
X017615Y008223D01*
X017615Y008541D02*
X019360Y008541D01*
X019360Y008860D02*
X017615Y008860D01*
X017615Y009178D02*
X019360Y009178D01*
X019360Y009497D02*
X017615Y009497D01*
X017615Y009815D02*
X018413Y009815D01*
X018206Y010134D02*
X017615Y010134D01*
X017615Y010452D02*
X018233Y010452D01*
X018360Y010771D02*
X017615Y010771D01*
X017615Y011089D02*
X018360Y011089D01*
X018360Y011408D02*
X017615Y011408D01*
X017615Y011726D02*
X018360Y011726D01*
X018360Y012045D02*
X017615Y012045D01*
X017615Y012363D02*
X018360Y012363D01*
X018360Y012682D02*
X017615Y012682D01*
X017615Y013000D02*
X018360Y013000D01*
X018360Y013319D02*
X017615Y013319D01*
X017615Y013637D02*
X018360Y013637D01*
X018360Y013956D02*
X017615Y013956D01*
X017615Y014274D02*
X018360Y014274D01*
X018360Y014593D02*
X017615Y014593D01*
X017615Y014911D02*
X018360Y014911D01*
X018360Y015230D02*
X017615Y015230D01*
X017615Y015548D02*
X018281Y015548D01*
X017963Y015867D02*
X017615Y015867D01*
X017615Y016185D02*
X017644Y016185D01*
X017135Y016760D02*
X016885Y017010D01*
X016885Y021135D01*
X016760Y021260D01*
X016885Y021260D01*
X016885Y030760D01*
X017260Y031135D01*
X017260Y031260D01*
X016885Y031635D01*
X016885Y033635D01*
X016260Y034260D01*
X016885Y034885D01*
X016885Y036260D01*
X016260Y036260D01*
X016885Y036260D02*
X017385Y036760D01*
X017385Y037635D01*
X017385Y035260D02*
X017385Y032260D01*
X019580Y030760D02*
X019840Y031020D01*
X019840Y031200D01*
X019996Y031200D01*
X020202Y031285D01*
X020360Y031443D01*
X020371Y031470D01*
X020780Y031061D01*
X020780Y025040D01*
X020853Y024863D01*
X024450Y021266D01*
X024450Y021149D01*
X024535Y020943D01*
X024693Y020785D01*
X024720Y020774D01*
X023988Y020042D01*
X023853Y019907D01*
X023780Y019730D01*
X023780Y006290D01*
X023853Y006113D01*
X024680Y005286D01*
X024680Y005020D01*
X024780Y004920D01*
X024780Y002657D01*
X024640Y002517D01*
X024640Y002160D01*
X022880Y002160D01*
X022880Y002517D01*
X022660Y002737D01*
X022660Y006840D01*
X022840Y007020D01*
X022840Y007500D01*
X022580Y007760D01*
X022840Y008020D01*
X022840Y008500D01*
X022500Y008840D01*
X022285Y008840D01*
X022285Y012340D01*
X022224Y012487D01*
X022112Y012599D01*
X021660Y013051D01*
X021660Y013176D01*
X022009Y013176D01*
X022360Y013527D01*
X022360Y014024D01*
X022246Y014138D01*
X022399Y014075D01*
X022621Y014075D01*
X022827Y014160D01*
X022985Y014318D01*
X023070Y014524D01*
X023070Y014629D01*
X023099Y014658D01*
X023160Y014805D01*
X023160Y016840D01*
X023340Y017020D01*
X023340Y017500D01*
X023000Y017840D01*
X022660Y017840D01*
X022660Y022340D01*
X022599Y022487D01*
X022487Y022599D01*
X022487Y022599D01*
X021820Y023266D01*
X021820Y023371D01*
X021735Y023577D01*
X021577Y023735D01*
X021371Y023820D01*
X021149Y023820D01*
X020943Y023735D01*
X020785Y023577D01*
X020700Y023371D01*
X020700Y023149D01*
X020785Y022943D01*
X020943Y022785D01*
X021149Y022700D01*
X021254Y022700D01*
X021860Y022094D01*
X021860Y019202D01*
X021702Y019360D01*
X021496Y019445D01*
X021274Y019445D01*
X021068Y019360D01*
X020910Y019202D01*
X020825Y018996D01*
X020825Y018774D01*
X020905Y018580D01*
X020905Y017780D01*
X020760Y017780D01*
X020760Y017260D01*
X020760Y024385D01*
X020885Y024385D01*
X023385Y021885D01*
X023385Y012885D01*
X023260Y012760D01*
X023780Y012760D01*
X023780Y012975D01*
X023475Y013280D01*
X023260Y013280D01*
X023260Y012760D01*
X023260Y012760D01*
X023260Y012760D01*
X023780Y012760D01*
X023780Y012545D01*
X023475Y012240D01*
X023260Y012240D01*
X023260Y012760D01*
X023260Y012760D01*
X023260Y012760D01*
X022740Y012760D01*
X022740Y012975D01*
X023045Y013280D01*
X023260Y013280D01*
X023260Y012760D01*
X023260Y012240D01*
X023045Y012240D01*
X022740Y012545D01*
X022740Y012760D01*
X023260Y012760D01*
X023260Y012682D02*
X023260Y012682D01*
X023260Y013000D02*
X023260Y013000D01*
X023755Y013000D02*
X023780Y013000D01*
X023780Y012682D02*
X023780Y012682D01*
X023780Y012363D02*
X023598Y012363D01*
X023260Y012363D02*
X023260Y012363D01*
X022922Y012363D02*
X022275Y012363D01*
X022285Y012045D02*
X023780Y012045D01*
X023780Y011726D02*
X022285Y011726D01*
X022285Y011408D02*
X023780Y011408D01*
X023780Y011089D02*
X022285Y011089D01*
X022285Y010771D02*
X023780Y010771D01*
X023780Y010452D02*
X022285Y010452D01*
X022285Y010134D02*
X023780Y010134D01*
X023780Y009815D02*
X022285Y009815D01*
X022285Y009497D02*
X023780Y009497D01*
X023780Y009178D02*
X022285Y009178D01*
X022285Y008860D02*
X023780Y008860D01*
X023780Y008541D02*
X022799Y008541D01*
X022840Y008223D02*
X023780Y008223D01*
X023780Y007904D02*
X022724Y007904D01*
X022755Y007586D02*
X023780Y007586D01*
X023780Y007267D02*
X022840Y007267D01*
X022769Y006949D02*
X023780Y006949D01*
X023780Y006630D02*
X022660Y006630D01*
X022660Y006312D02*
X023780Y006312D01*
X023973Y005993D02*
X022660Y005993D01*
X022660Y005675D02*
X024292Y005675D01*
X024610Y005356D02*
X022660Y005356D01*
X022660Y005038D02*
X024680Y005038D01*
X024780Y004719D02*
X022660Y004719D01*
X022660Y004401D02*
X024780Y004401D01*
X024780Y004082D02*
X022660Y004082D01*
X022660Y003764D02*
X024780Y003764D01*
X024780Y003445D02*
X022660Y003445D01*
X022660Y003127D02*
X024780Y003127D01*
X024780Y002808D02*
X022660Y002808D01*
X022880Y002490D02*
X024640Y002490D01*
X024640Y002171D02*
X022880Y002171D01*
X021170Y001534D02*
X010165Y001534D01*
X010677Y002171D02*
X011228Y002171D01*
X012473Y001853D02*
X020852Y001853D01*
X020614Y002171D02*
X012792Y002171D01*
X012802Y002490D02*
X020610Y002490D01*
X020610Y002808D02*
X012802Y002808D01*
X012514Y003127D02*
X020610Y003127D01*
X020610Y003445D02*
X012177Y003445D01*
X011884Y003764D02*
X020610Y003764D01*
X020610Y004082D02*
X012177Y004082D01*
X012521Y004401D02*
X020610Y004401D01*
X020610Y004719D02*
X012802Y004719D01*
X012802Y005038D02*
X020542Y005038D01*
X020223Y005356D02*
X012785Y005356D01*
X012466Y005675D02*
X019905Y005675D01*
X017135Y007260D02*
X017135Y010135D01*
X017135Y016760D01*
X018260Y016760D02*
X018260Y017260D01*
X018260Y017260D01*
X018260Y018020D01*
X018575Y018020D01*
X019020Y017575D01*
X019020Y017260D01*
X018260Y017260D01*
X018260Y017260D01*
X018260Y018020D01*
X017945Y018020D01*
X017910Y017985D01*
X017910Y018450D01*
X017920Y018440D01*
X018600Y018440D01*
X019080Y018920D01*
X019080Y019600D01*
X018600Y020080D01*
X018535Y020080D01*
X018535Y020680D01*
X019000Y020680D01*
X019200Y020880D01*
X019360Y020719D01*
X019360Y016280D01*
X019260Y016280D01*
X019260Y015760D01*
X018260Y016760D01*
X018260Y016701D02*
X018260Y017260D01*
X019020Y017260D01*
X019020Y016945D01*
X018575Y016500D01*
X018461Y016500D01*
X018863Y016098D01*
X019045Y016280D01*
X019260Y016280D01*
X019260Y015760D01*
X019260Y015760D01*
X019260Y015867D02*
X019260Y015867D01*
X019260Y016185D02*
X019260Y016185D01*
X018950Y016185D02*
X018776Y016185D01*
X018578Y016504D02*
X019360Y016504D01*
X019360Y016822D02*
X018897Y016822D01*
X019020Y017141D02*
X019360Y017141D01*
X019360Y017459D02*
X019020Y017459D01*
X018817Y017778D02*
X019360Y017778D01*
X019360Y018096D02*
X017910Y018096D01*
X017910Y018415D02*
X019360Y018415D01*
X019360Y018733D02*
X018893Y018733D01*
X019080Y019052D02*
X019360Y019052D01*
X019360Y019370D02*
X019080Y019370D01*
X018991Y019689D02*
X019360Y019689D01*
X019360Y020007D02*
X018673Y020007D01*
X018535Y020326D02*
X019360Y020326D01*
X019360Y020644D02*
X018535Y020644D01*
X020660Y020644D02*
X021860Y020644D01*
X021860Y020326D02*
X020660Y020326D01*
X020660Y020007D02*
X021860Y020007D01*
X021860Y019689D02*
X020660Y019689D01*
X020660Y019370D02*
X021093Y019370D01*
X020848Y019052D02*
X020660Y019052D01*
X020660Y018733D02*
X020842Y018733D01*
X020905Y018415D02*
X020660Y018415D01*
X020660Y018096D02*
X020905Y018096D01*
X020760Y017780D02*
X020660Y017780D01*
X020660Y023340D01*
X020599Y023487D01*
X020487Y023599D01*
X019840Y024246D01*
X019840Y024500D01*
X019580Y024760D01*
X019840Y025020D01*
X019840Y025500D01*
X019580Y025760D01*
X019840Y026020D01*
X019840Y026500D01*
X019580Y026760D01*
X019840Y027020D01*
X019840Y027500D01*
X019580Y027760D01*
X019840Y028020D01*
X019840Y028500D01*
X019538Y028802D01*
X019780Y029045D01*
X019780Y029260D01*
X019780Y029475D01*
X019538Y029718D01*
X019840Y030020D01*
X019840Y030500D01*
X019580Y030760D01*
X019656Y030836D02*
X020780Y030836D01*
X020780Y030518D02*
X019823Y030518D01*
X019840Y030199D02*
X020780Y030199D01*
X020780Y029881D02*
X019701Y029881D01*
X019693Y029562D02*
X020780Y029562D01*
X020780Y029244D02*
X019780Y029244D01*
X019780Y029260D02*
X019260Y029260D01*
X020760Y027760D01*
X020760Y024385D01*
X020932Y024785D02*
X019605Y024785D01*
X019840Y025103D02*
X020780Y025103D01*
X020780Y025422D02*
X019840Y025422D01*
X019600Y025740D02*
X020780Y025740D01*
X020780Y026059D02*
X019840Y026059D01*
X019840Y026377D02*
X020780Y026377D01*
X020780Y026696D02*
X019645Y026696D01*
X019834Y027014D02*
X020780Y027014D01*
X020780Y027333D02*
X019840Y027333D01*
X019689Y027651D02*
X020780Y027651D01*
X020780Y027970D02*
X019790Y027970D01*
X019840Y028288D02*
X020780Y028288D01*
X020780Y028607D02*
X019734Y028607D01*
X019660Y028925D02*
X020780Y028925D01*
X019780Y029260D02*
X019260Y029260D01*
X019260Y029260D01*
X019840Y031155D02*
X020687Y031155D01*
X021260Y031260D02*
X021260Y025135D01*
X025010Y021385D01*
X025010Y021260D01*
X025448Y020823D01*
X024260Y019635D01*
X024260Y006385D01*
X025260Y005385D01*
X025260Y005260D01*
X025260Y002260D01*
X025740Y002657D02*
X025740Y004920D01*
X025840Y005020D01*
X025840Y005500D01*
X025500Y005840D01*
X025484Y005840D01*
X024740Y006584D01*
X024740Y008960D01*
X025020Y008680D01*
X025500Y008680D01*
X025840Y009020D01*
X025840Y009500D01*
X025500Y009840D01*
X025020Y009840D01*
X024740Y009560D01*
X024740Y014780D01*
X026960Y014780D01*
X026680Y014500D01*
X026680Y014020D01*
X026860Y013840D01*
X026860Y013680D01*
X026680Y013500D01*
X026680Y013020D01*
X027020Y012680D01*
X027500Y012680D01*
X027840Y013020D01*
X027840Y013500D01*
X027660Y013680D01*
X027660Y013840D01*
X027840Y014020D01*
X027840Y014500D01*
X027560Y014780D01*
X028960Y014780D01*
X028680Y014500D01*
X028680Y014020D01*
X029020Y013680D01*
X029500Y013680D01*
X029680Y013860D01*
X031840Y013860D01*
X032020Y013680D01*
X032500Y013680D01*
X032840Y014020D01*
X032840Y014500D01*
X032660Y014680D01*
X032660Y016190D01*
X032857Y016388D01*
X032857Y016818D01*
X033013Y016663D01*
X033178Y016663D01*
X033359Y016482D01*
X033013Y016482D01*
X032663Y016132D01*
X032663Y015638D01*
X032860Y015440D01*
X032860Y013680D01*
X032840Y013660D01*
X031680Y013660D01*
X031500Y013840D01*
X031020Y013840D01*
X030680Y013500D01*
X030680Y013020D01*
X030860Y012840D01*
X030860Y012680D01*
X030680Y012500D01*
X030680Y012020D01*
X030860Y011840D01*
X030860Y011680D01*
X030680Y011500D01*
X030680Y011184D01*
X030650Y011201D01*
X030393Y011270D01*
X030127Y011270D01*
X029870Y011201D01*
X029640Y011068D01*
X029452Y010880D01*
X029319Y010650D01*
X029250Y010393D01*
X029250Y010127D01*
X029319Y009870D01*
X029452Y009640D01*
X029640Y009452D01*
X029870Y009319D01*
X030127Y009250D01*
X030393Y009250D01*
X030650Y009319D01*
X030680Y009336D01*
X030680Y009020D01*
X031020Y008680D01*
X031500Y008680D01*
X031840Y009020D01*
X031840Y009500D01*
X031500Y009840D01*
X031184Y009840D01*
X031201Y009870D01*
X031270Y010127D01*
X031270Y010393D01*
X031201Y010650D01*
X031184Y010680D01*
X031500Y010680D01*
X031840Y011020D01*
X031840Y011500D01*
X031660Y011680D01*
X031660Y011840D01*
X031840Y012020D01*
X031840Y012500D01*
X031660Y012680D01*
X031660Y012840D01*
X031680Y012860D01*
X032840Y012860D01*
X033020Y012680D01*
X033500Y012680D01*
X033840Y013020D01*
X033840Y013500D01*
X033660Y013680D01*
X033660Y015440D01*
X033857Y015638D01*
X033857Y015984D01*
X034780Y015061D01*
X034780Y014600D01*
X034680Y014500D01*
X034680Y014020D01*
X034780Y013920D01*
X034780Y013600D01*
X034680Y013500D01*
X034680Y013020D01*
X034780Y012920D01*
X034780Y012600D01*
X034680Y012500D01*
X034680Y012020D01*
X034982Y011718D01*
X034740Y011475D01*
X034740Y011260D01*
X035260Y011260D01*
X035260Y010740D01*
X035405Y010740D01*
X035405Y001365D01*
X034660Y001365D01*
X034660Y001783D01*
X034880Y002003D01*
X034880Y002517D01*
X034660Y002737D01*
X034660Y006840D01*
X034840Y007020D01*
X034840Y007500D01*
X034580Y007760D01*
X034840Y008020D01*
X034840Y008500D01*
X034500Y008840D01*
X034020Y008840D01*
X033680Y008500D01*
X033680Y008020D01*
X033940Y007760D01*
X033680Y007500D01*
X033680Y007020D01*
X033860Y006840D01*
X033860Y002737D01*
X033640Y002517D01*
X033640Y002003D01*
X033858Y001785D01*
X031662Y001785D01*
X031880Y002003D01*
X031880Y002517D01*
X031740Y002657D01*
X031740Y004920D01*
X031840Y005020D01*
X031840Y005500D01*
X031500Y005840D01*
X031020Y005840D01*
X030680Y005500D01*
X030680Y005020D01*
X030780Y004920D01*
X030780Y002657D01*
X030640Y002517D01*
X030640Y002003D01*
X030858Y001785D01*
X028662Y001785D01*
X028880Y002003D01*
X028880Y002517D01*
X028660Y002737D01*
X028660Y006840D01*
X028840Y007020D01*
X028840Y007500D01*
X028580Y007760D01*
X028840Y008020D01*
X028840Y008500D01*
X028500Y008840D01*
X028020Y008840D01*
X027680Y008500D01*
X027680Y008020D01*
X027940Y007760D01*
X027680Y007500D01*
X027680Y007020D01*
X027860Y006840D01*
X027860Y002737D01*
X027640Y002517D01*
X027640Y002160D01*
X025880Y002160D01*
X025880Y002517D01*
X025740Y002657D01*
X025740Y002808D02*
X027860Y002808D01*
X027860Y003127D02*
X025740Y003127D01*
X025740Y003445D02*
X027860Y003445D01*
X027860Y003764D02*
X025740Y003764D01*
X025740Y004082D02*
X027860Y004082D01*
X027860Y004401D02*
X025740Y004401D01*
X025740Y004719D02*
X027860Y004719D01*
X027860Y005038D02*
X025840Y005038D01*
X025840Y005356D02*
X027860Y005356D01*
X027860Y005675D02*
X025666Y005675D01*
X025331Y005993D02*
X027860Y005993D01*
X027860Y006312D02*
X025012Y006312D01*
X024740Y006630D02*
X027860Y006630D01*
X027751Y006949D02*
X024740Y006949D01*
X024740Y007267D02*
X027680Y007267D01*
X027765Y007586D02*
X024740Y007586D01*
X024740Y007904D02*
X027796Y007904D01*
X027680Y008223D02*
X024740Y008223D01*
X024740Y008541D02*
X027721Y008541D01*
X028799Y008541D02*
X033721Y008541D01*
X033680Y008223D02*
X028840Y008223D01*
X028724Y007904D02*
X033796Y007904D01*
X033765Y007586D02*
X028755Y007586D01*
X028840Y007267D02*
X033680Y007267D01*
X033751Y006949D02*
X028769Y006949D01*
X028660Y006630D02*
X033860Y006630D01*
X033860Y006312D02*
X028660Y006312D01*
X028660Y005993D02*
X033860Y005993D01*
X033860Y005675D02*
X031666Y005675D01*
X031840Y005356D02*
X033860Y005356D01*
X033860Y005038D02*
X031840Y005038D01*
X031740Y004719D02*
X033860Y004719D01*
X033860Y004401D02*
X031740Y004401D01*
X031740Y004082D02*
X033860Y004082D01*
X033860Y003764D02*
X031740Y003764D01*
X031740Y003445D02*
X033860Y003445D01*
X033860Y003127D02*
X031740Y003127D01*
X031740Y002808D02*
X033860Y002808D01*
X033640Y002490D02*
X031880Y002490D01*
X031880Y002171D02*
X033640Y002171D01*
X033791Y001853D02*
X031729Y001853D01*
X031260Y002260D02*
X031260Y005260D01*
X030854Y005675D02*
X028660Y005675D01*
X028660Y005356D02*
X030680Y005356D01*
X030680Y005038D02*
X028660Y005038D01*
X028660Y004719D02*
X030780Y004719D01*
X030780Y004401D02*
X028660Y004401D01*
X028660Y004082D02*
X030780Y004082D01*
X030780Y003764D02*
X028660Y003764D01*
X028660Y003445D02*
X030780Y003445D01*
X030780Y003127D02*
X028660Y003127D01*
X028660Y002808D02*
X030780Y002808D01*
X030640Y002490D02*
X028880Y002490D01*
X028880Y002171D02*
X030640Y002171D01*
X030791Y001853D02*
X028729Y001853D01*
X027640Y002171D02*
X025880Y002171D01*
X025880Y002490D02*
X027640Y002490D01*
X025680Y008860D02*
X030840Y008860D01*
X030680Y009178D02*
X025840Y009178D01*
X025840Y009497D02*
X029595Y009497D01*
X029351Y009815D02*
X025525Y009815D01*
X024995Y009815D02*
X024740Y009815D01*
X024740Y010134D02*
X029250Y010134D01*
X029266Y010452D02*
X024740Y010452D01*
X024740Y010771D02*
X029388Y010771D01*
X029676Y011089D02*
X024740Y011089D01*
X024740Y011408D02*
X030680Y011408D01*
X030860Y011726D02*
X024740Y011726D01*
X024740Y012045D02*
X030680Y012045D01*
X030680Y012363D02*
X024740Y012363D01*
X024740Y012682D02*
X027018Y012682D01*
X026700Y013000D02*
X024740Y013000D01*
X024740Y013319D02*
X026680Y013319D01*
X026817Y013637D02*
X024740Y013637D01*
X024740Y013956D02*
X026744Y013956D01*
X026680Y014274D02*
X024740Y014274D01*
X024740Y014593D02*
X026772Y014593D01*
X027748Y014593D02*
X028772Y014593D01*
X028680Y014274D02*
X027840Y014274D01*
X027776Y013956D02*
X028744Y013956D01*
X027840Y013319D02*
X030680Y013319D01*
X030700Y013000D02*
X027820Y013000D01*
X027502Y012682D02*
X030860Y012682D01*
X031660Y012682D02*
X033018Y012682D01*
X033502Y012682D02*
X034780Y012682D01*
X034700Y013000D02*
X033820Y013000D01*
X033840Y013319D02*
X034680Y013319D01*
X034780Y013637D02*
X033703Y013637D01*
X033660Y013956D02*
X034744Y013956D01*
X034680Y014274D02*
X033660Y014274D01*
X033660Y014593D02*
X034772Y014593D01*
X034780Y014911D02*
X033660Y014911D01*
X033660Y015230D02*
X034612Y015230D01*
X034293Y015548D02*
X033768Y015548D01*
X033857Y015867D02*
X033975Y015867D01*
X033338Y016504D02*
X032857Y016504D01*
X032715Y016185D02*
X032660Y016185D01*
X032660Y015867D02*
X032663Y015867D01*
X032660Y015548D02*
X032752Y015548D01*
X032660Y015230D02*
X032860Y015230D01*
X032860Y014911D02*
X032660Y014911D01*
X032748Y014593D02*
X032860Y014593D01*
X032840Y014274D02*
X032860Y014274D01*
X032860Y013956D02*
X032776Y013956D01*
X031840Y013860D02*
X031840Y013860D01*
X030817Y013637D02*
X027703Y013637D01*
X026483Y016228D02*
X026735Y016374D01*
X026941Y016580D01*
X027087Y016833D01*
X027163Y017114D01*
X027163Y017406D01*
X027087Y017687D01*
X026941Y017940D01*
X026735Y018146D01*
X026483Y018292D01*
X026201Y018367D01*
X025909Y018367D01*
X025628Y018292D01*
X025375Y018146D01*
X025169Y017940D01*
X025023Y017687D01*
X024948Y017406D01*
X024948Y017114D01*
X025023Y016833D01*
X025169Y016580D01*
X025375Y016374D01*
X025628Y016228D01*
X025909Y016153D01*
X026201Y016153D01*
X026483Y016228D01*
X026322Y016185D02*
X031260Y016185D01*
X031260Y015867D02*
X024760Y015867D01*
X024760Y016185D02*
X025789Y016185D01*
X025246Y016504D02*
X024760Y016504D01*
X024760Y016822D02*
X025029Y016822D01*
X024948Y017141D02*
X024760Y017141D01*
X024760Y017459D02*
X024962Y017459D01*
X025075Y017778D02*
X024760Y017778D01*
X024760Y018096D02*
X025325Y018096D01*
X024760Y018415D02*
X031260Y018415D01*
X031260Y018733D02*
X024760Y018733D01*
X024760Y019052D02*
X031260Y019052D01*
X031260Y019260D02*
X031260Y015260D01*
X024760Y015260D01*
X024760Y019260D01*
X031260Y019260D01*
X031740Y019052D02*
X032832Y019052D01*
X033688Y019052D02*
X037000Y019052D01*
X037000Y019075D02*
X037000Y018760D01*
X037760Y018760D01*
X037760Y017760D01*
X036760Y016760D01*
X036744Y016760D01*
X036204Y016760D01*
X036204Y016536D01*
X036521Y016220D01*
X036744Y016220D01*
X036744Y016760D01*
X036744Y016760D01*
X036204Y016760D01*
X036204Y016984D01*
X036521Y017300D01*
X036744Y017300D01*
X036744Y016760D01*
X036744Y016760D01*
X036744Y016760D01*
X036885Y016760D01*
X039260Y014385D01*
X039260Y014260D01*
X040020Y014260D01*
X040020Y014575D01*
X039575Y015020D01*
X039260Y015020D01*
X039260Y014260D01*
X039260Y014260D01*
X039260Y014260D01*
X040020Y014260D01*
X040020Y013945D01*
X039575Y013500D01*
X039260Y013500D01*
X039260Y014260D01*
X039260Y014260D01*
X039260Y014260D01*
X039260Y015020D01*
X038945Y015020D01*
X038500Y014575D01*
X038500Y014260D01*
X038500Y013945D01*
X038945Y013500D01*
X039260Y013500D01*
X039260Y014260D01*
X038500Y014260D01*
X038500Y013956D02*
X038080Y013956D01*
X037797Y013637D02*
X038808Y013637D01*
X039260Y013637D02*
X039260Y013637D01*
X039260Y013956D02*
X039260Y013956D01*
X039260Y014274D02*
X039260Y014274D01*
X039260Y014593D02*
X039260Y014593D01*
X039260Y014911D02*
X039260Y014911D01*
X039684Y014911D02*
X049905Y014911D01*
X049905Y014593D02*
X040002Y014593D01*
X040020Y014274D02*
X049905Y014274D01*
X049905Y013956D02*
X040020Y013956D01*
X039712Y013637D02*
X049905Y013637D01*
X049905Y013319D02*
X035840Y013319D01*
X035820Y013000D02*
X049905Y013000D01*
X049905Y012682D02*
X035740Y012682D01*
X035840Y012363D02*
X049905Y012363D01*
X049905Y012045D02*
X036029Y012045D01*
X036315Y011726D02*
X049905Y011726D01*
X049905Y011408D02*
X036365Y011408D01*
X036365Y011089D02*
X049905Y011089D01*
X049905Y010771D02*
X036365Y010771D01*
X036365Y010452D02*
X049905Y010452D01*
X049918Y010134D02*
X036365Y010134D01*
X036365Y009815D02*
X036995Y009815D01*
X037020Y009840D02*
X036680Y009500D01*
X036680Y009020D01*
X037020Y008680D01*
X037500Y008680D01*
X037840Y009020D01*
X037840Y009500D01*
X037500Y009840D01*
X037020Y009840D01*
X036680Y009497D02*
X036365Y009497D01*
X036365Y009178D02*
X036680Y009178D01*
X036840Y008860D02*
X036365Y008860D01*
X036365Y008541D02*
X039721Y008541D01*
X039680Y008500D02*
X039680Y008020D01*
X039940Y007760D01*
X039680Y007500D01*
X039680Y007020D01*
X039860Y006840D01*
X039860Y002737D01*
X039640Y002517D01*
X039640Y002003D01*
X040003Y001640D01*
X040517Y001640D01*
X040880Y002003D01*
X040880Y002517D01*
X040660Y002737D01*
X040660Y006840D01*
X040840Y007020D01*
X040840Y007500D01*
X040580Y007760D01*
X040840Y008020D01*
X040840Y008500D01*
X040500Y008840D01*
X040020Y008840D01*
X039680Y008500D01*
X039680Y008223D02*
X036365Y008223D01*
X036365Y007904D02*
X039796Y007904D01*
X039765Y007586D02*
X036365Y007586D01*
X036365Y007267D02*
X039680Y007267D01*
X039751Y006949D02*
X036365Y006949D01*
X036365Y006630D02*
X039860Y006630D01*
X039860Y006312D02*
X036365Y006312D01*
X036365Y005993D02*
X039860Y005993D01*
X039860Y005675D02*
X037666Y005675D01*
X037500Y005840D02*
X037840Y005500D01*
X037840Y005020D01*
X037740Y004920D01*
X037740Y002657D01*
X037880Y002517D01*
X037880Y002003D01*
X037517Y001640D01*
X037003Y001640D01*
X036640Y002003D01*
X036640Y002517D01*
X036780Y002657D01*
X036780Y004920D01*
X036680Y005020D01*
X036680Y005500D01*
X037020Y005840D01*
X037500Y005840D01*
X037840Y005356D02*
X039860Y005356D01*
X039860Y005038D02*
X037840Y005038D01*
X037740Y004719D02*
X039860Y004719D01*
X039860Y004401D02*
X037740Y004401D01*
X037740Y004082D02*
X039860Y004082D01*
X039860Y003764D02*
X037740Y003764D01*
X037740Y003445D02*
X039860Y003445D01*
X039860Y003127D02*
X037740Y003127D01*
X037740Y002808D02*
X039860Y002808D01*
X039640Y002490D02*
X037880Y002490D01*
X037880Y002171D02*
X039640Y002171D01*
X039791Y001853D02*
X037729Y001853D01*
X037260Y002260D02*
X037260Y005260D01*
X036854Y005675D02*
X036365Y005675D01*
X036365Y005356D02*
X036680Y005356D01*
X036680Y005038D02*
X036365Y005038D01*
X036365Y004719D02*
X036780Y004719D01*
X036780Y004401D02*
X036365Y004401D01*
X036365Y004082D02*
X036780Y004082D01*
X036780Y003764D02*
X036365Y003764D01*
X036365Y003445D02*
X036780Y003445D01*
X036780Y003127D02*
X036365Y003127D01*
X036365Y002808D02*
X036780Y002808D01*
X036640Y002490D02*
X036365Y002490D01*
X036365Y002171D02*
X036640Y002171D01*
X036791Y001853D02*
X036365Y001853D01*
X036365Y001534D02*
X057775Y001534D01*
X057750Y001627D02*
X057819Y001370D01*
X057952Y001140D01*
X058140Y000952D01*
X058370Y000819D01*
X058627Y000750D01*
X058893Y000750D01*
X059150Y000819D01*
X059380Y000952D01*
X059568Y001140D01*
X059701Y001370D01*
X059770Y001627D01*
X059770Y001893D01*
X059701Y002150D01*
X059568Y002380D01*
X059380Y002568D01*
X059150Y002701D01*
X058893Y002770D01*
X058627Y002770D01*
X058370Y002701D01*
X058140Y002568D01*
X057952Y002380D01*
X057819Y002150D01*
X057750Y001893D01*
X057750Y001627D01*
X057750Y001853D02*
X055729Y001853D01*
X055880Y002003D02*
X055517Y001640D01*
X055003Y001640D01*
X054640Y002003D01*
X054640Y002517D01*
X054860Y002737D01*
X054860Y004840D01*
X054840Y004860D01*
X054680Y004860D01*
X054500Y004680D01*
X054020Y004680D01*
X053680Y005020D01*
X053680Y005500D01*
X054020Y005840D01*
X054500Y005840D01*
X054680Y005660D01*
X054840Y005660D01*
X055020Y005840D01*
X055500Y005840D01*
X055840Y005500D01*
X055840Y005020D01*
X055660Y004840D01*
X055660Y002737D01*
X055880Y002517D01*
X055880Y002003D01*
X055880Y002171D02*
X057831Y002171D01*
X058061Y002490D02*
X055880Y002490D01*
X055660Y002808D02*
X059940Y002808D01*
X059940Y002490D02*
X059459Y002490D01*
X059689Y002171D02*
X059940Y002171D01*
X059940Y001853D02*
X059770Y001853D01*
X059745Y001534D02*
X059940Y001534D01*
X059936Y001216D02*
X059612Y001216D01*
X059826Y000897D02*
X059285Y000897D01*
X058235Y000897D02*
X036365Y000897D01*
X036365Y001216D02*
X057908Y001216D01*
X059940Y003127D02*
X055660Y003127D01*
X055660Y003445D02*
X059940Y003445D01*
X059940Y003764D02*
X055660Y003764D01*
X055660Y004082D02*
X059940Y004082D01*
X059940Y004401D02*
X055660Y004401D01*
X055660Y004719D02*
X059940Y004719D01*
X059940Y005038D02*
X055840Y005038D01*
X055840Y005356D02*
X059940Y005356D01*
X059940Y005675D02*
X055666Y005675D01*
X054854Y005675D02*
X054666Y005675D01*
X053854Y005675D02*
X052666Y005675D01*
X052500Y005840D02*
X052840Y005500D01*
X052840Y005020D01*
X052660Y004840D01*
X052660Y002737D01*
X052880Y002517D01*
X052880Y002003D01*
X052517Y001640D01*
X052003Y001640D01*
X051640Y002003D01*
X051640Y002517D01*
X051860Y002737D01*
X051860Y004840D01*
X051840Y004860D01*
X051680Y004860D01*
X051500Y004680D01*
X051020Y004680D01*
X050680Y005020D01*
X050680Y005500D01*
X051020Y005840D01*
X051500Y005840D01*
X051680Y005660D01*
X051840Y005660D01*
X052020Y005840D01*
X052500Y005840D01*
X052840Y005356D02*
X053680Y005356D01*
X053680Y005038D02*
X052840Y005038D01*
X052660Y004719D02*
X053981Y004719D01*
X054539Y004719D02*
X054860Y004719D01*
X054860Y004401D02*
X052660Y004401D01*
X052660Y004082D02*
X054860Y004082D01*
X054860Y003764D02*
X052660Y003764D01*
X052660Y003445D02*
X054860Y003445D01*
X054860Y003127D02*
X052660Y003127D01*
X052660Y002808D02*
X054860Y002808D01*
X054640Y002490D02*
X052880Y002490D01*
X052880Y002171D02*
X054640Y002171D01*
X054791Y001853D02*
X052729Y001853D01*
X051791Y001853D02*
X049729Y001853D01*
X049880Y002003D02*
X049880Y002517D01*
X049660Y002737D01*
X049660Y004840D01*
X049840Y005020D01*
X049840Y005500D01*
X049500Y005840D01*
X049020Y005840D01*
X048680Y005500D01*
X048680Y005020D01*
X048860Y004840D01*
X048860Y002737D01*
X048640Y002517D01*
X048640Y002003D01*
X049003Y001640D01*
X049517Y001640D01*
X049880Y002003D01*
X049880Y002171D02*
X051640Y002171D01*
X051640Y002490D02*
X049880Y002490D01*
X049660Y002808D02*
X051860Y002808D01*
X051860Y003127D02*
X049660Y003127D01*
X049660Y003445D02*
X051860Y003445D01*
X051860Y003764D02*
X049660Y003764D01*
X049660Y004082D02*
X051860Y004082D01*
X051860Y004401D02*
X049660Y004401D01*
X049660Y004719D02*
X050981Y004719D01*
X050680Y005038D02*
X049840Y005038D01*
X049840Y005356D02*
X050680Y005356D01*
X050854Y005675D02*
X049666Y005675D01*
X048854Y005675D02*
X046666Y005675D01*
X046500Y005840D02*
X046840Y005500D01*
X046840Y005020D01*
X046660Y004840D01*
X046660Y002737D01*
X046880Y002517D01*
X046880Y002003D01*
X046517Y001640D01*
X046003Y001640D01*
X045640Y002003D01*
X045640Y002517D01*
X045860Y002737D01*
X045860Y004840D01*
X045680Y005020D01*
X045680Y005500D01*
X046020Y005840D01*
X046500Y005840D01*
X046840Y005356D02*
X048680Y005356D01*
X048680Y005038D02*
X046840Y005038D01*
X046660Y004719D02*
X048860Y004719D01*
X048860Y004401D02*
X046660Y004401D01*
X046660Y004082D02*
X048860Y004082D01*
X048860Y003764D02*
X046660Y003764D01*
X046660Y003445D02*
X048860Y003445D01*
X048860Y003127D02*
X046660Y003127D01*
X046660Y002808D02*
X048860Y002808D01*
X048640Y002490D02*
X046880Y002490D01*
X046880Y002171D02*
X048640Y002171D01*
X048791Y001853D02*
X046729Y001853D01*
X045791Y001853D02*
X043729Y001853D01*
X043880Y002003D02*
X043880Y002517D01*
X043740Y002657D01*
X043740Y004920D01*
X043840Y005020D01*
X043840Y005500D01*
X043500Y005840D01*
X043020Y005840D01*
X042680Y005500D01*
X042680Y005020D01*
X042780Y004920D01*
X042780Y002657D01*
X042640Y002517D01*
X042640Y002003D01*
X043003Y001640D01*
X043517Y001640D01*
X043880Y002003D01*
X043880Y002171D02*
X045640Y002171D01*
X045640Y002490D02*
X043880Y002490D01*
X043740Y002808D02*
X045860Y002808D01*
X045860Y003127D02*
X043740Y003127D01*
X043740Y003445D02*
X045860Y003445D01*
X045860Y003764D02*
X043740Y003764D01*
X043740Y004082D02*
X045860Y004082D01*
X045860Y004401D02*
X043740Y004401D01*
X043740Y004719D02*
X045860Y004719D01*
X045680Y005038D02*
X043840Y005038D01*
X043840Y005356D02*
X045680Y005356D01*
X045854Y005675D02*
X043666Y005675D01*
X043260Y005260D02*
X043260Y002260D01*
X042791Y001853D02*
X040729Y001853D01*
X040880Y002171D02*
X042640Y002171D01*
X042640Y002490D02*
X040880Y002490D01*
X040660Y002808D02*
X042780Y002808D01*
X042780Y003127D02*
X040660Y003127D01*
X040660Y003445D02*
X042780Y003445D01*
X042780Y003764D02*
X040660Y003764D01*
X040660Y004082D02*
X042780Y004082D01*
X042780Y004401D02*
X040660Y004401D01*
X040660Y004719D02*
X042780Y004719D01*
X042680Y005038D02*
X040660Y005038D01*
X040660Y005356D02*
X042680Y005356D01*
X042854Y005675D02*
X040660Y005675D01*
X040660Y005993D02*
X059940Y005993D01*
X059940Y006312D02*
X040660Y006312D01*
X040660Y006630D02*
X059940Y006630D01*
X059940Y006949D02*
X057740Y006949D01*
X057820Y007028D02*
X057820Y007260D01*
X057820Y007492D01*
X057492Y007820D01*
X057260Y007820D01*
X057260Y007260D01*
X049260Y007260D01*
X049260Y009260D01*
X046260Y009260D01*
X046385Y009385D01*
X046385Y014385D01*
X049905Y015230D02*
X035740Y015230D01*
X035740Y014911D02*
X036751Y014911D01*
X037769Y014911D02*
X038836Y014911D01*
X038518Y014593D02*
X038080Y014593D01*
X036723Y013637D02*
X035740Y013637D01*
X035260Y014260D02*
X035260Y015260D01*
X033260Y017260D01*
X032933Y017778D02*
X032857Y017778D01*
X032857Y018096D02*
X032954Y018096D01*
X033566Y018096D02*
X037349Y018096D01*
X037445Y018000D02*
X037760Y018000D01*
X038075Y018000D01*
X038520Y018445D01*
X038520Y018760D01*
X038520Y019075D01*
X038075Y019520D01*
X037760Y019520D01*
X037760Y018760D01*
X038520Y018760D01*
X037760Y018760D01*
X037760Y018760D01*
X037760Y018760D01*
X037760Y018000D01*
X037760Y018760D01*
X037760Y018760D01*
X037760Y018760D01*
X037760Y019520D01*
X037445Y019520D01*
X037000Y019075D01*
X037000Y018760D02*
X037000Y018445D01*
X037445Y018000D01*
X037760Y018096D02*
X037760Y018096D01*
X037760Y018415D02*
X037760Y018415D01*
X037760Y018733D02*
X037760Y018733D01*
X037760Y018760D02*
X037000Y018760D01*
X037000Y018733D02*
X033857Y018733D01*
X033857Y018415D02*
X037031Y018415D01*
X037760Y019052D02*
X037760Y019052D01*
X037760Y019370D02*
X037760Y019370D01*
X038225Y019370D02*
X039210Y019370D01*
X039420Y019580D02*
X038940Y019100D01*
X038940Y018420D01*
X039420Y017940D01*
X040100Y017940D01*
X040580Y018420D01*
X040580Y019100D01*
X040100Y019580D01*
X039420Y019580D01*
X038940Y019052D02*
X038520Y019052D01*
X038520Y018733D02*
X038940Y018733D01*
X038946Y018415D02*
X038489Y018415D01*
X038171Y018096D02*
X039264Y018096D01*
X040256Y018096D02*
X049905Y018096D01*
X049905Y017778D02*
X033587Y017778D01*
X033857Y017459D02*
X049905Y017459D01*
X049905Y017141D02*
X037127Y017141D01*
X037284Y016984D02*
X036968Y017300D01*
X036744Y017300D01*
X036744Y016760D01*
X036744Y016220D01*
X036968Y016220D01*
X037284Y016536D01*
X037284Y016760D01*
X036744Y016760D01*
X037284Y016760D01*
X037284Y016984D01*
X037284Y016822D02*
X049905Y016822D01*
X049905Y016504D02*
X037251Y016504D01*
X036744Y016504D02*
X036744Y016504D01*
X036744Y016760D02*
X036744Y016760D01*
X036744Y016822D02*
X036744Y016822D01*
X036744Y017141D02*
X036744Y017141D01*
X036361Y017141D02*
X035244Y017141D01*
X035376Y016822D02*
X036204Y016822D01*
X036237Y016504D02*
X035368Y016504D01*
X035049Y016185D02*
X049905Y016185D01*
X049905Y015867D02*
X035332Y015867D01*
X035651Y015548D02*
X049905Y015548D01*
X050865Y015548D02*
X059940Y015548D01*
X059940Y015230D02*
X050865Y015230D01*
X050865Y014911D02*
X059940Y014911D01*
X059940Y014593D02*
X050865Y014593D01*
X050865Y014274D02*
X059940Y014274D01*
X059940Y013956D02*
X050865Y013956D01*
X050865Y013637D02*
X056760Y013637D01*
X056640Y013517D02*
X056640Y013003D01*
X057003Y012640D01*
X057517Y012640D01*
X057880Y013003D01*
X057880Y013517D01*
X057517Y013880D01*
X057003Y013880D01*
X056640Y013517D01*
X056640Y013319D02*
X050865Y013319D01*
X050865Y013000D02*
X056643Y013000D01*
X056962Y012682D02*
X050865Y012682D01*
X050865Y012363D02*
X059940Y012363D01*
X059940Y012045D02*
X050865Y012045D01*
X050865Y011726D02*
X059940Y011726D01*
X059940Y011408D02*
X050865Y011408D01*
X050865Y011089D02*
X059940Y011089D01*
X059940Y010771D02*
X057626Y010771D01*
X057517Y010880D02*
X057003Y010880D01*
X056640Y010517D01*
X056640Y010003D01*
X057003Y009640D01*
X057517Y009640D01*
X057880Y010003D01*
X057880Y010517D01*
X057517Y010880D01*
X057880Y010452D02*
X059940Y010452D01*
X059940Y010134D02*
X057880Y010134D01*
X057692Y009815D02*
X059940Y009815D01*
X059940Y009497D02*
X055840Y009497D01*
X055840Y009178D02*
X059940Y009178D01*
X059940Y008860D02*
X055680Y008860D01*
X055260Y009260D02*
X054260Y009260D01*
X052260Y009260D01*
X051260Y009260D01*
X051260Y009385D01*
X050385Y010260D01*
X050385Y021260D01*
X047260Y021260D01*
X046680Y021281D02*
X046340Y021281D01*
X046283Y020963D02*
X046737Y020963D01*
X046779Y021600D02*
X046241Y021600D01*
X046115Y021918D02*
X051352Y021918D01*
X051671Y022237D02*
X046305Y022237D01*
X045760Y022385D02*
X045635Y022385D01*
X045635Y023760D01*
X045510Y023760D01*
X043135Y021385D01*
X043135Y021260D01*
X036760Y021260D01*
X036990Y020644D02*
X049905Y020644D01*
X049905Y020326D02*
X036990Y020326D01*
X036990Y020007D02*
X049905Y020007D01*
X049905Y019689D02*
X036990Y019689D01*
X036799Y019370D02*
X037295Y019370D01*
X040310Y019370D02*
X049905Y019370D01*
X049905Y019052D02*
X040580Y019052D01*
X040580Y018733D02*
X049905Y018733D01*
X049905Y018415D02*
X040574Y018415D01*
X044283Y020963D02*
X045237Y020963D01*
X045155Y021281D02*
X044340Y021281D01*
X044241Y021600D02*
X045155Y021600D01*
X045155Y021918D02*
X044347Y021918D01*
X044665Y022237D02*
X045155Y022237D01*
X045155Y022555D02*
X044984Y022555D01*
X045635Y022385D02*
X045635Y021260D01*
X045760Y021260D01*
X045635Y023760D02*
X045635Y026760D01*
X050724Y021600D02*
X050779Y021600D01*
X050865Y020644D02*
X059940Y020644D01*
X059940Y020326D02*
X050865Y020326D01*
X050865Y020007D02*
X059940Y020007D01*
X059940Y019689D02*
X057708Y019689D01*
X057880Y019517D02*
X057517Y019880D01*
X057003Y019880D01*
X056640Y019517D01*
X056640Y019003D01*
X057003Y018640D01*
X057517Y018640D01*
X057880Y019003D01*
X057880Y019517D01*
X057880Y019370D02*
X059940Y019370D01*
X059940Y019052D02*
X057880Y019052D01*
X057610Y018733D02*
X059940Y018733D01*
X059940Y018415D02*
X050865Y018415D01*
X050865Y018733D02*
X056910Y018733D01*
X056640Y019052D02*
X050865Y019052D01*
X050865Y019370D02*
X056640Y019370D01*
X056812Y019689D02*
X050865Y019689D01*
X050865Y018096D02*
X059940Y018096D01*
X059940Y017778D02*
X050865Y017778D01*
X050865Y017459D02*
X059940Y017459D01*
X059940Y017141D02*
X050865Y017141D01*
X050865Y016822D02*
X056945Y016822D01*
X057003Y016880D02*
X056640Y016517D01*
X056640Y016003D01*
X057003Y015640D01*
X057517Y015640D01*
X057880Y016003D01*
X057880Y016517D01*
X057517Y016880D01*
X057003Y016880D01*
X056640Y016504D02*
X050865Y016504D01*
X050865Y016185D02*
X056640Y016185D01*
X056777Y015867D02*
X050865Y015867D01*
X053283Y020963D02*
X054237Y020963D01*
X054180Y021281D02*
X053460Y021281D01*
X053778Y021600D02*
X054279Y021600D01*
X054097Y021918D02*
X054614Y021918D01*
X054933Y022237D02*
X054240Y022237D01*
X054240Y022555D02*
X055251Y022555D01*
X054826Y022874D02*
X054240Y022874D01*
X054240Y023192D02*
X054680Y023192D01*
X054690Y023511D02*
X054240Y023511D01*
X054240Y023829D02*
X054871Y023829D01*
X054680Y024148D02*
X054240Y024148D01*
X054240Y024466D02*
X054680Y024466D01*
X054915Y024785D02*
X054240Y024785D01*
X057575Y016822D02*
X059940Y016822D01*
X059940Y016504D02*
X057880Y016504D01*
X057880Y016185D02*
X059940Y016185D01*
X059940Y015867D02*
X057743Y015867D01*
X057760Y013637D02*
X059940Y013637D01*
X059940Y013319D02*
X057880Y013319D01*
X057877Y013000D02*
X059940Y013000D01*
X059940Y012682D02*
X057558Y012682D01*
X056894Y010771D02*
X050865Y010771D01*
X050872Y010452D02*
X056640Y010452D01*
X056640Y010134D02*
X051190Y010134D01*
X051525Y009815D02*
X051995Y009815D01*
X052525Y009815D02*
X053995Y009815D01*
X054525Y009815D02*
X054995Y009815D01*
X055525Y009815D02*
X056828Y009815D01*
X057028Y007820D02*
X056700Y007492D01*
X056700Y007260D01*
X057260Y007260D01*
X057820Y007260D01*
X057260Y007260D01*
X057260Y007260D01*
X057260Y007260D01*
X057260Y006700D01*
X057492Y006700D01*
X057820Y007028D01*
X057820Y007267D02*
X059940Y007267D01*
X059940Y007586D02*
X057726Y007586D01*
X057260Y007586D02*
X057260Y007586D01*
X057260Y007820D02*
X057028Y007820D01*
X057260Y007820D02*
X057260Y007260D01*
X057260Y007260D01*
X057260Y007260D01*
X057260Y006700D01*
X057028Y006700D01*
X056700Y007028D01*
X056700Y007260D01*
X057260Y007260D01*
X057260Y007267D02*
X057260Y007267D01*
X057260Y006949D02*
X057260Y006949D01*
X056780Y006949D02*
X040769Y006949D01*
X040840Y007267D02*
X056700Y007267D01*
X056794Y007586D02*
X040755Y007586D01*
X040724Y007904D02*
X059940Y007904D01*
X059940Y008223D02*
X040840Y008223D01*
X040799Y008541D02*
X059940Y008541D01*
X051854Y005675D02*
X051666Y005675D01*
X051539Y004719D02*
X051860Y004719D01*
X050840Y008860D02*
X049595Y008860D01*
X049475Y008740D02*
X049780Y009045D01*
X049780Y009260D01*
X049780Y009475D01*
X049475Y009780D01*
X049260Y009780D01*
X049260Y009260D01*
X049260Y009260D01*
X049780Y009260D01*
X049260Y009260D01*
X049260Y009260D01*
X049260Y009260D01*
X048740Y009260D01*
X048740Y009475D01*
X049045Y009780D01*
X049260Y009780D01*
X049260Y009260D01*
X049260Y008740D01*
X049475Y008740D01*
X049260Y008740D02*
X049260Y009260D01*
X049260Y009260D01*
X048740Y009260D01*
X048740Y009045D01*
X049045Y008740D01*
X049260Y008740D01*
X049260Y008860D02*
X049260Y008860D01*
X049260Y009178D02*
X049260Y009178D01*
X049260Y009497D02*
X049260Y009497D01*
X049759Y009497D02*
X050470Y009497D01*
X050680Y009178D02*
X049780Y009178D01*
X050151Y009815D02*
X043525Y009815D01*
X043500Y009840D02*
X043020Y009840D01*
X042680Y009500D01*
X042680Y009020D01*
X043020Y008680D01*
X043500Y008680D01*
X043840Y009020D01*
X043840Y009500D01*
X043500Y009840D01*
X043840Y009497D02*
X045761Y009497D01*
X045740Y009475D02*
X045740Y009260D01*
X046260Y009260D01*
X046260Y009260D01*
X046260Y009780D01*
X046475Y009780D01*
X046780Y009475D01*
X046780Y009260D01*
X046260Y009260D01*
X046260Y009260D01*
X046260Y009260D01*
X046260Y009780D01*
X046045Y009780D01*
X045740Y009475D01*
X045740Y009260D02*
X045740Y009045D01*
X046045Y008740D01*
X046260Y008740D01*
X046475Y008740D01*
X046780Y009045D01*
X046780Y009260D01*
X046260Y009260D01*
X046260Y008740D01*
X046260Y009260D01*
X046260Y009260D01*
X045740Y009260D01*
X045740Y009178D02*
X043840Y009178D01*
X043680Y008860D02*
X045925Y008860D01*
X046260Y008860D02*
X046260Y008860D01*
X046260Y009178D02*
X046260Y009178D01*
X046260Y009497D02*
X046260Y009497D01*
X046759Y009497D02*
X048761Y009497D01*
X048740Y009178D02*
X046780Y009178D01*
X046595Y008860D02*
X048925Y008860D01*
X042995Y009815D02*
X037525Y009815D01*
X037840Y009497D02*
X042680Y009497D01*
X042680Y009178D02*
X037840Y009178D01*
X037680Y008860D02*
X042840Y008860D01*
X035405Y008860D02*
X031680Y008860D01*
X031840Y009178D02*
X035405Y009178D01*
X035405Y009497D02*
X031840Y009497D01*
X031525Y009815D02*
X035405Y009815D01*
X035405Y010134D02*
X031270Y010134D01*
X031254Y010452D02*
X035405Y010452D01*
X035260Y010740D02*
X035260Y011260D01*
X035260Y011260D01*
X035260Y011260D01*
X034740Y011260D01*
X034740Y011045D01*
X035045Y010740D01*
X035260Y010740D01*
X035260Y010771D02*
X035260Y010771D01*
X035014Y010771D02*
X031591Y010771D01*
X031840Y011089D02*
X034740Y011089D01*
X034740Y011408D02*
X031840Y011408D01*
X031660Y011726D02*
X034974Y011726D01*
X034680Y012045D02*
X031840Y012045D01*
X031840Y012363D02*
X034680Y012363D01*
X035260Y011089D02*
X035260Y011089D01*
X035405Y008541D02*
X034799Y008541D01*
X034840Y008223D02*
X035405Y008223D01*
X035405Y007904D02*
X034724Y007904D01*
X034755Y007586D02*
X035405Y007586D01*
X035405Y007267D02*
X034840Y007267D01*
X034769Y006949D02*
X035405Y006949D01*
X035405Y006630D02*
X034660Y006630D01*
X034660Y006312D02*
X035405Y006312D01*
X035405Y005993D02*
X034660Y005993D01*
X034660Y005675D02*
X035405Y005675D01*
X035405Y005356D02*
X034660Y005356D01*
X034660Y005038D02*
X035405Y005038D01*
X035405Y004719D02*
X034660Y004719D01*
X034660Y004401D02*
X035405Y004401D01*
X035405Y004082D02*
X034660Y004082D01*
X034660Y003764D02*
X035405Y003764D01*
X035405Y003445D02*
X034660Y003445D01*
X034660Y003127D02*
X035405Y003127D01*
X035405Y002808D02*
X034660Y002808D01*
X034880Y002490D02*
X035405Y002490D01*
X035405Y002171D02*
X034880Y002171D01*
X034729Y001853D02*
X035405Y001853D01*
X035405Y001534D02*
X034660Y001534D01*
X024840Y008860D02*
X024740Y008860D01*
X022740Y012682D02*
X022029Y012682D01*
X021711Y013000D02*
X022765Y013000D01*
X022151Y013319D02*
X023780Y013319D01*
X023780Y013637D02*
X022360Y013637D01*
X022360Y013956D02*
X023780Y013956D01*
X023780Y014274D02*
X022941Y014274D01*
X023070Y014593D02*
X023780Y014593D01*
X023780Y014911D02*
X023160Y014911D01*
X023160Y015230D02*
X023780Y015230D01*
X023780Y015548D02*
X023160Y015548D01*
X023160Y015867D02*
X023780Y015867D01*
X023780Y016185D02*
X023160Y016185D01*
X023160Y016504D02*
X023780Y016504D01*
X023780Y016822D02*
X023160Y016822D01*
X023340Y017141D02*
X023780Y017141D01*
X023780Y017459D02*
X023340Y017459D01*
X023063Y017778D02*
X023780Y017778D01*
X023780Y018096D02*
X022660Y018096D01*
X022660Y018415D02*
X023780Y018415D01*
X023780Y018733D02*
X022660Y018733D01*
X022660Y019052D02*
X023780Y019052D01*
X023780Y019370D02*
X022660Y019370D01*
X022660Y019689D02*
X023780Y019689D01*
X023953Y020007D02*
X022660Y020007D01*
X022660Y020326D02*
X024272Y020326D01*
X024590Y020644D02*
X022660Y020644D01*
X022660Y020963D02*
X024527Y020963D01*
X024435Y021281D02*
X022660Y021281D01*
X022660Y021600D02*
X024117Y021600D01*
X023798Y021918D02*
X022660Y021918D01*
X022660Y022237D02*
X023480Y022237D01*
X023161Y022555D02*
X022531Y022555D01*
X022843Y022874D02*
X022212Y022874D01*
X022524Y023192D02*
X021894Y023192D01*
X021762Y023511D02*
X022206Y023511D01*
X021887Y023829D02*
X020257Y023829D01*
X020575Y023511D02*
X020758Y023511D01*
X020700Y023192D02*
X020660Y023192D01*
X020660Y022874D02*
X020855Y022874D01*
X020660Y022555D02*
X021399Y022555D01*
X021718Y022237D02*
X020660Y022237D01*
X020660Y021918D02*
X021860Y021918D01*
X021860Y021600D02*
X020660Y021600D01*
X020660Y021281D02*
X021860Y021281D01*
X021860Y020963D02*
X020660Y020963D01*
X021677Y019370D02*
X021860Y019370D01*
X021860Y019202D02*
X021860Y019202D01*
X021385Y018885D02*
X021385Y016135D01*
X021760Y015760D01*
X021760Y015744D01*
X021160Y015681D02*
X021113Y015728D01*
X021113Y015728D01*
X020978Y015863D01*
X020905Y016040D01*
X020905Y016740D01*
X020760Y016740D01*
X020760Y017260D01*
X020760Y017260D01*
X020760Y017260D01*
X020760Y017780D01*
X020760Y017778D02*
X020760Y017778D01*
X020760Y017459D02*
X020760Y017459D01*
X020760Y017260D02*
X020760Y016740D01*
X020660Y016740D01*
X020660Y013551D01*
X020860Y013351D01*
X020860Y014090D01*
X020921Y014237D01*
X021033Y014349D01*
X021829Y015144D01*
X021511Y015144D01*
X021160Y015496D01*
X021160Y015681D01*
X021160Y015548D02*
X020660Y015548D01*
X020660Y015230D02*
X021426Y015230D01*
X021595Y014911D02*
X020660Y014911D01*
X020660Y014593D02*
X021277Y014593D01*
X020958Y014274D02*
X020660Y014274D01*
X020660Y013956D02*
X020860Y013956D01*
X020860Y013637D02*
X020660Y013637D01*
X020660Y015867D02*
X020977Y015867D01*
X020905Y016185D02*
X020660Y016185D01*
X020660Y016504D02*
X020905Y016504D01*
X020760Y016822D02*
X020760Y016822D01*
X020760Y017141D02*
X020760Y017141D01*
X018260Y017141D02*
X018260Y017141D01*
X018260Y017260D02*
X018260Y016701D01*
X018260Y016701D01*
X018260Y016822D02*
X018260Y016822D01*
X018260Y017260D02*
X018260Y017260D01*
X018260Y017459D02*
X018260Y017459D01*
X018260Y017778D02*
X018260Y017778D01*
X015709Y019370D02*
X015605Y019370D01*
X015260Y019370D02*
X015260Y019370D01*
X015260Y019240D02*
X015260Y019760D01*
X015260Y019760D01*
X015260Y019240D01*
X014915Y019370D02*
X014690Y019370D01*
X015260Y019689D02*
X015260Y019689D01*
X014865Y016185D02*
X014655Y016185D01*
X014550Y015230D02*
X014970Y015230D01*
X013970Y015230D02*
X012365Y015230D01*
X012365Y015548D02*
X013680Y015548D01*
X013680Y015867D02*
X012365Y015867D01*
X012365Y016185D02*
X013865Y016185D01*
X013760Y014280D02*
X013545Y014280D01*
X013240Y013975D01*
X013240Y013760D01*
X013760Y013760D01*
X013760Y013760D01*
X013760Y013760D01*
X013760Y014280D01*
X013760Y014274D02*
X013760Y014274D01*
X013981Y014274D02*
X014454Y014274D01*
X014760Y013760D02*
X014760Y012260D01*
X015260Y011760D01*
X014615Y011726D02*
X014586Y011726D01*
X014330Y012045D02*
X012365Y012045D01*
X012365Y012363D02*
X014280Y012363D01*
X014280Y012682D02*
X012365Y012682D01*
X012365Y013000D02*
X014280Y013000D01*
X014280Y013319D02*
X014054Y013319D01*
X013760Y013319D02*
X013760Y013319D01*
X013760Y013240D02*
X013760Y013760D01*
X013240Y013760D01*
X013240Y013545D01*
X013545Y013240D01*
X013760Y013240D01*
X013466Y013319D02*
X012365Y013319D01*
X012365Y013637D02*
X013240Y013637D01*
X013240Y013956D02*
X012365Y013956D01*
X012365Y014274D02*
X013539Y014274D01*
X013760Y013956D02*
X013760Y013956D01*
X013760Y013637D02*
X013760Y013637D01*
X013934Y011726D02*
X012365Y011726D01*
X012365Y011408D02*
X013715Y011408D01*
X013725Y011089D02*
X012365Y011089D01*
X012365Y010771D02*
X013780Y010771D01*
X013780Y010452D02*
X012365Y010452D01*
X012365Y010134D02*
X013780Y010134D01*
X013901Y009815D02*
X012365Y009815D01*
X011760Y008223D02*
X011760Y008223D01*
X011760Y007904D02*
X011760Y007904D01*
X011760Y007586D02*
X011760Y007586D01*
X011350Y007586D02*
X010889Y007586D01*
X011208Y007904D02*
X011381Y007904D01*
X011240Y007267D02*
X010571Y007267D01*
X010252Y006949D02*
X011336Y006949D01*
X011235Y005356D02*
X010670Y005356D01*
X007265Y007586D02*
X006755Y007586D01*
X006840Y007267D02*
X007180Y007267D01*
X007251Y006949D02*
X006769Y006949D01*
X005751Y006949D02*
X000580Y006949D01*
X000580Y007267D02*
X005680Y007267D01*
X005850Y005356D02*
X005285Y005356D01*
X002537Y008860D02*
X010806Y008860D01*
X014760Y007260D02*
X017135Y007260D01*
X015796Y007904D02*
X015224Y007904D01*
X015340Y008223D02*
X015680Y008223D01*
X015721Y008541D02*
X015299Y008541D01*
X019107Y009815D02*
X019360Y009815D01*
X019360Y010134D02*
X019314Y010134D01*
X019287Y010452D02*
X019360Y010452D01*
X019360Y010771D02*
X019160Y010771D01*
X019160Y011089D02*
X019360Y011089D01*
X024760Y015548D02*
X031260Y015548D01*
X031260Y016504D02*
X026865Y016504D01*
X027081Y016822D02*
X031260Y016822D01*
X031260Y017141D02*
X027163Y017141D01*
X027148Y017459D02*
X031260Y017459D01*
X031260Y017778D02*
X027035Y017778D01*
X026785Y018096D02*
X031260Y018096D01*
X031740Y018733D02*
X031792Y018733D01*
X034058Y017141D02*
X034308Y017141D01*
X027635Y020635D02*
X025635Y020635D01*
X025448Y020823D01*
X025760Y021260D02*
X026010Y021510D01*
X026010Y023260D01*
X027010Y024260D02*
X027635Y024885D01*
X027635Y030635D01*
X028260Y031260D01*
X029010Y031260D01*
X028260Y032260D02*
X026510Y032260D01*
X025260Y035260D02*
X025260Y036260D01*
X021260Y031260D02*
X020260Y032260D01*
X019840Y024466D02*
X021250Y024466D01*
X021569Y024148D02*
X019938Y024148D01*
X012500Y023829D02*
X011201Y023829D01*
X011377Y024148D02*
X012182Y024148D01*
X011985Y024466D02*
X011377Y024466D01*
X011108Y024785D02*
X011985Y024785D01*
X011985Y025103D02*
X003880Y025103D01*
X003880Y025422D02*
X011985Y025422D01*
X011985Y025740D02*
X003657Y025740D01*
X003880Y026059D02*
X011985Y026059D01*
X011476Y026377D02*
X003880Y026377D01*
X003701Y026696D02*
X011325Y026696D01*
X011065Y027014D02*
X011056Y027014D01*
X010214Y027014D02*
X003880Y027014D01*
X003880Y027333D02*
X010075Y027333D01*
X009803Y027651D02*
X003746Y027651D01*
X003846Y027970D02*
X009485Y027970D01*
X009166Y028288D02*
X003967Y028288D01*
X004285Y028607D02*
X008848Y028607D01*
X008529Y028925D02*
X004365Y028925D01*
X004365Y029244D02*
X008211Y029244D01*
X007892Y029562D02*
X004365Y029562D01*
X004365Y029881D02*
X007574Y029881D01*
X007360Y030199D02*
X004365Y030199D01*
X004365Y030518D02*
X006754Y030518D01*
X006700Y030836D02*
X004365Y030836D01*
X004365Y031155D02*
X006735Y031155D01*
X006735Y031473D02*
X004365Y031473D01*
X004365Y031792D02*
X006735Y031792D01*
X006735Y032110D02*
X004365Y032110D01*
X004365Y032429D02*
X006735Y032429D01*
X006735Y032747D02*
X004365Y032747D01*
X004365Y033066D02*
X006735Y033066D01*
X006735Y033384D02*
X004365Y033384D01*
X004365Y033703D02*
X006735Y033703D01*
X006735Y034021D02*
X004365Y034021D01*
X004365Y034340D02*
X006735Y034340D01*
X006735Y034658D02*
X004365Y034658D01*
X004365Y034977D02*
X006735Y034977D01*
X006735Y035295D02*
X004365Y035295D01*
X004365Y035614D02*
X006735Y035614D01*
X006735Y035932D02*
X004365Y035932D01*
X004365Y036251D02*
X006402Y036251D01*
X006108Y036569D02*
X004365Y036569D01*
X003885Y036260D02*
X003260Y036260D01*
X003885Y036260D02*
X003885Y028885D01*
X003260Y028260D01*
X001635Y026885D02*
X002260Y026260D01*
X001640Y026059D02*
X000580Y026059D01*
X000580Y026377D02*
X001464Y026377D01*
X001194Y026696D02*
X000580Y026696D01*
X000580Y027014D02*
X001155Y027014D01*
X001155Y027333D02*
X000580Y027333D01*
X000580Y027651D02*
X001155Y027651D01*
X001155Y027970D02*
X000580Y027970D01*
X000580Y028288D02*
X001155Y028288D01*
X001155Y028607D02*
X000580Y028607D01*
X000580Y028925D02*
X001155Y028925D01*
X001155Y029244D02*
X000580Y029244D01*
X000580Y029562D02*
X001155Y029562D01*
X001155Y029881D02*
X000580Y029881D01*
X000580Y030199D02*
X001155Y030199D01*
X001155Y030518D02*
X000580Y030518D01*
X000580Y030836D02*
X001155Y030836D01*
X001155Y031155D02*
X000580Y031155D01*
X000580Y031473D02*
X001155Y031473D01*
X001155Y031792D02*
X000580Y031792D01*
X000580Y032110D02*
X001155Y032110D01*
X001155Y032429D02*
X000580Y032429D01*
X000580Y032747D02*
X001155Y032747D01*
X001155Y033066D02*
X000580Y033066D01*
X000580Y033384D02*
X001155Y033384D01*
X001155Y033703D02*
X000580Y033703D01*
X000580Y034021D02*
X001155Y034021D01*
X001155Y034340D02*
X000580Y034340D01*
X000580Y034658D02*
X001155Y034658D01*
X001155Y034977D02*
X000580Y034977D01*
X000580Y035295D02*
X001155Y035295D01*
X001155Y035614D02*
X000580Y035614D01*
X000580Y035932D02*
X001155Y035932D01*
X001155Y036251D02*
X000580Y036251D01*
X000580Y036569D02*
X001155Y036569D01*
X001155Y036888D02*
X000580Y036888D01*
X000580Y037206D02*
X001155Y037206D01*
X001155Y037525D02*
X000580Y037525D01*
X000580Y037843D02*
X001155Y037843D01*
X001155Y038162D02*
X000580Y038162D01*
X000580Y038480D02*
X001155Y038480D01*
X001155Y038799D02*
X000580Y038799D01*
X000580Y039117D02*
X001155Y039117D01*
X001155Y039436D02*
X000580Y039436D01*
X000580Y039754D02*
X001155Y039754D01*
X001155Y040073D02*
X000580Y040073D01*
X000580Y040391D02*
X001155Y040391D01*
X001155Y040710D02*
X000580Y040710D01*
X000580Y041028D02*
X001155Y041028D01*
X001155Y041347D02*
X000580Y041347D01*
X000580Y041665D02*
X001155Y041665D01*
X001155Y041984D02*
X000580Y041984D01*
X000580Y042302D02*
X001155Y042302D01*
X001155Y042621D02*
X000580Y042621D01*
X000580Y042939D02*
X001155Y042939D01*
X001155Y043258D02*
X000580Y043258D01*
X000580Y043576D02*
X001155Y043576D01*
X001155Y043895D02*
X000580Y043895D01*
X000580Y044213D02*
X001284Y044213D01*
X001635Y043885D02*
X001635Y040260D01*
X002260Y040260D01*
X001635Y040260D02*
X001635Y038260D01*
X002260Y038260D01*
X001635Y038260D02*
X001635Y033260D01*
X002260Y033260D01*
X001635Y033260D02*
X001635Y030260D01*
X002260Y030260D01*
X001635Y030260D02*
X001635Y026885D01*
X003661Y024785D02*
X005412Y024785D01*
X005143Y024466D02*
X003880Y024466D01*
X003880Y024148D02*
X005143Y024148D01*
X005319Y023829D02*
X003706Y023829D01*
X003688Y023511D02*
X005831Y023511D01*
X006149Y023192D02*
X004007Y023192D01*
X004325Y022874D02*
X006468Y022874D01*
X006786Y022555D02*
X004644Y022555D01*
X004962Y022237D02*
X007105Y022237D01*
X007423Y021918D02*
X005281Y021918D01*
X005599Y021600D02*
X007742Y021600D01*
X008060Y021281D02*
X005918Y021281D01*
X008760Y021260D02*
X005760Y024260D01*
X006108Y024785D02*
X006497Y024785D01*
X007023Y024785D02*
X007412Y024785D01*
X007760Y024260D02*
X009260Y022760D01*
X009260Y018760D01*
X010760Y018760D01*
X009260Y018760D02*
X009260Y016760D01*
X008260Y015885D01*
X007814Y018415D02*
X003267Y018415D01*
X007700Y018760D02*
X008260Y018760D01*
X008260Y018760D01*
X003942Y013637D02*
X000580Y013637D01*
X000580Y013319D02*
X003942Y013319D01*
X003942Y013000D02*
X000580Y013000D01*
X000580Y012682D02*
X004093Y012682D01*
X001849Y011726D02*
X000580Y011726D01*
X000580Y011408D02*
X001640Y011408D01*
X001640Y011089D02*
X000580Y011089D01*
X000580Y010771D02*
X001873Y010771D01*
X009728Y000613D02*
X009728Y000613D01*
X009412Y024785D02*
X009108Y024785D01*
X010108Y024785D02*
X010412Y024785D01*
X008412Y024785D02*
X008108Y024785D01*
X009410Y032820D02*
X009410Y040640D01*
X009517Y040640D01*
X009802Y040926D01*
X010028Y040700D01*
X010260Y040700D01*
X010492Y040700D01*
X010718Y040926D01*
X010860Y040783D01*
X010860Y034570D01*
X010649Y034570D01*
X010443Y034485D01*
X010285Y034327D01*
X010200Y034121D01*
X010200Y033899D01*
X010285Y033693D01*
X010331Y033647D01*
X009504Y032820D01*
X009410Y032820D01*
X009410Y033066D02*
X009750Y033066D01*
X010068Y033384D02*
X009410Y033384D01*
X009410Y033703D02*
X010281Y033703D01*
X010200Y034021D02*
X009410Y034021D01*
X009410Y034340D02*
X010298Y034340D01*
X010860Y034658D02*
X009410Y034658D01*
X009410Y034977D02*
X010860Y034977D01*
X010860Y035295D02*
X009410Y035295D01*
X009410Y035614D02*
X010860Y035614D01*
X010860Y035932D02*
X009410Y035932D01*
X009410Y036251D02*
X010860Y036251D01*
X010860Y036569D02*
X009410Y036569D01*
X009410Y036888D02*
X010860Y036888D01*
X010860Y037206D02*
X009410Y037206D01*
X009410Y037525D02*
X010860Y037525D01*
X010860Y037843D02*
X009410Y037843D01*
X009410Y038162D02*
X010860Y038162D01*
X010860Y038480D02*
X009410Y038480D01*
X009410Y038799D02*
X010860Y038799D01*
X010860Y039117D02*
X009410Y039117D01*
X009410Y039436D02*
X010860Y039436D01*
X010860Y039754D02*
X009410Y039754D01*
X009410Y040073D02*
X010860Y040073D01*
X010860Y040391D02*
X009410Y040391D01*
X009586Y040710D02*
X010019Y040710D01*
X010260Y040710D02*
X010260Y040710D01*
X010260Y040700D02*
X010260Y041260D01*
X010260Y041260D01*
X010260Y040700D01*
X010501Y040710D02*
X010860Y040710D01*
X010260Y041028D02*
X010260Y041028D01*
X006735Y041028D02*
X004365Y041028D01*
X004365Y040710D02*
X006735Y040710D01*
X006735Y040391D02*
X004365Y040391D01*
X004365Y040073D02*
X006735Y040073D01*
X006735Y039754D02*
X004365Y039754D01*
X004365Y039436D02*
X006735Y039436D01*
X006735Y039320D02*
X006524Y039320D01*
X006318Y039235D01*
X006160Y039077D01*
X006075Y038871D01*
X006075Y038649D01*
X006160Y038443D01*
X006235Y038368D01*
X006235Y037152D01*
X006160Y037077D01*
X006075Y036871D01*
X006235Y038162D02*
X004365Y038162D01*
X004365Y038480D02*
X006145Y038480D01*
X006075Y038799D02*
X004365Y038799D01*
X004365Y039117D02*
X006200Y039117D01*
X006735Y039320D02*
X006735Y042594D01*
X005908Y043421D01*
X005796Y043533D01*
X005735Y043680D01*
X005735Y049368D01*
X005660Y049443D01*
X005575Y049649D01*
X005575Y049871D01*
X005660Y050077D01*
X005818Y050235D01*
X006024Y050320D01*
X006235Y050320D01*
X006235Y054344D01*
X005712Y054868D01*
X005494Y054868D01*
X005118Y055244D01*
X005118Y055776D01*
X005164Y055823D01*
X005118Y055869D01*
X005118Y056401D01*
X005371Y056654D01*
X005360Y056680D01*
X005360Y056876D01*
X005118Y057119D01*
X005118Y057651D01*
X005164Y057697D01*
X005118Y057744D01*
X005118Y058276D01*
X005164Y058323D01*
X005118Y058369D01*
X005118Y058901D01*
X005494Y059277D01*
X006026Y059277D01*
X006402Y058901D01*
X006402Y058369D01*
X006356Y058323D01*
X006385Y058294D01*
X006744Y058652D01*
X007276Y058652D01*
X007635Y058294D01*
X007664Y058323D01*
X007618Y058369D01*
X007618Y058901D01*
X007994Y059277D01*
X008526Y059277D01*
X008902Y058901D01*
X008902Y058369D01*
X008856Y058323D01*
X008885Y058294D01*
X009244Y058652D01*
X009776Y058652D01*
X010135Y058294D01*
X010164Y058323D01*
X010118Y058369D01*
X010118Y058901D01*
X010494Y059277D01*
X011026Y059277D01*
X011402Y058901D01*
X011402Y058369D01*
X011356Y058323D01*
X011385Y058294D01*
X011744Y058652D01*
X012276Y058652D01*
X012635Y058294D01*
X012664Y058323D01*
X012618Y058369D01*
X012618Y058901D01*
X012994Y059277D01*
X013526Y059277D01*
X013902Y058901D01*
X013902Y058369D01*
X013856Y058323D01*
X013885Y058294D01*
X014244Y058652D01*
X014776Y058652D01*
X015135Y058294D01*
X015164Y058323D01*
X015118Y058369D01*
X015118Y058901D01*
X015494Y059277D01*
X016026Y059277D01*
X016402Y058901D01*
X016402Y058369D01*
X016356Y058323D01*
X016385Y058294D01*
X016744Y058652D01*
X017276Y058652D01*
X017635Y058294D01*
X017664Y058323D01*
X017618Y058369D01*
X017618Y058901D01*
X017994Y059277D01*
X018526Y059277D01*
X018902Y058901D01*
X018902Y058369D01*
X018856Y058323D01*
X018885Y058294D01*
X019244Y058652D01*
X019776Y058652D01*
X020135Y058294D01*
X020164Y058323D01*
X020118Y058369D01*
X020118Y058901D01*
X020494Y059277D01*
X021026Y059277D01*
X021402Y058901D01*
X021402Y058369D01*
X021356Y058323D01*
X021385Y058294D01*
X021744Y058652D01*
X022276Y058652D01*
X022635Y058294D01*
X022664Y058323D01*
X022618Y058369D01*
X022618Y058901D01*
X022994Y059277D01*
X023526Y059277D01*
X023902Y058901D01*
X023902Y058369D01*
X023856Y058323D01*
X023885Y058294D01*
X024244Y058652D01*
X024776Y058652D01*
X025135Y058294D01*
X025164Y058323D01*
X025118Y058369D01*
X025118Y058901D01*
X025494Y059277D01*
X026026Y059277D01*
X026402Y058901D01*
X026402Y058369D01*
X026356Y058323D01*
X026385Y058294D01*
X026744Y058652D01*
X027276Y058652D01*
X027652Y058276D01*
X027652Y057744D01*
X027606Y057697D01*
X027652Y057651D01*
X027652Y057119D01*
X027294Y056760D01*
X027652Y056401D01*
X027652Y055869D01*
X027606Y055823D01*
X027652Y055776D01*
X027652Y055244D01*
X027606Y055197D01*
X027652Y055151D01*
X027652Y054619D01*
X027410Y054376D01*
X027410Y043180D01*
X027349Y043033D01*
X027251Y042936D01*
X027360Y042827D01*
X027445Y042621D01*
X027445Y042399D01*
X027443Y042393D01*
X028272Y041564D01*
X028468Y041760D01*
X028200Y042028D01*
X028200Y042260D01*
X028760Y042260D01*
X028760Y042260D01*
X028760Y042260D01*
X028760Y042820D01*
X028760Y043260D01*
X029320Y043260D01*
X028760Y043260D01*
X028760Y043260D01*
X028760Y043820D01*
X028760Y044260D01*
X028760Y044260D01*
X028760Y044260D01*
X028200Y044260D01*
X028200Y044492D01*
X028468Y044760D01*
X028200Y045028D01*
X028200Y045260D01*
X028760Y045260D01*
X029320Y045260D01*
X028760Y045260D01*
X028760Y045260D01*
X028760Y045820D01*
X028760Y046260D01*
X028760Y046260D01*
X028760Y046260D01*
X028200Y046260D01*
X028200Y046492D01*
X028468Y046760D01*
X028200Y047028D01*
X028200Y047260D01*
X028760Y047260D01*
X028760Y047260D01*
X028760Y046820D01*
X028760Y046260D01*
X028200Y046260D01*
X028200Y046028D01*
X028468Y045760D01*
X028200Y045492D01*
X028200Y045260D01*
X028760Y045260D01*
X028760Y045260D01*
X028760Y045260D01*
X028760Y044820D01*
X028760Y044260D01*
X028200Y044260D01*
X028200Y044028D01*
X028468Y043760D01*
X028200Y043492D01*
X028200Y043260D01*
X028760Y043260D01*
X028760Y043260D01*
X028760Y043260D01*
X028200Y043260D01*
X028200Y043028D01*
X028468Y042760D01*
X028200Y042492D01*
X028200Y042260D01*
X028760Y042260D01*
X028760Y041820D01*
X028760Y041260D01*
X028760Y041347D02*
X028760Y041347D01*
X028760Y041665D02*
X028760Y041665D01*
X028760Y041984D02*
X028760Y041984D01*
X028760Y042302D02*
X028760Y042302D01*
X028760Y042621D02*
X028760Y042621D01*
X028760Y042939D02*
X028760Y042939D01*
X028760Y043258D02*
X028760Y043258D01*
X028760Y043576D02*
X028760Y043576D01*
X028760Y043895D02*
X028760Y043895D01*
X028760Y044213D02*
X028760Y044213D01*
X028760Y044532D02*
X028760Y044532D01*
X028760Y044850D02*
X028760Y044850D01*
X028760Y045169D02*
X028760Y045169D01*
X028760Y045487D02*
X028760Y045487D01*
X028760Y045806D02*
X028760Y045806D01*
X028760Y046124D02*
X028760Y046124D01*
X028760Y046443D02*
X028760Y046443D01*
X028760Y046761D02*
X028760Y046761D01*
X029053Y046761D02*
X031280Y046761D01*
X031140Y046443D02*
X029320Y046443D01*
X029320Y046124D02*
X031140Y046124D01*
X031280Y045806D02*
X029097Y045806D01*
X029320Y045487D02*
X031140Y045487D01*
X031140Y045169D02*
X029320Y045169D01*
X029142Y044850D02*
X031280Y044850D01*
X031155Y044532D02*
X029280Y044532D01*
X029320Y044213D02*
X031140Y044213D01*
X031249Y043895D02*
X029186Y043895D01*
X029236Y043576D02*
X031199Y043576D01*
X031140Y043258D02*
X029320Y043258D01*
X029231Y042939D02*
X031204Y042939D01*
X031244Y042621D02*
X030066Y042621D01*
X030195Y042302D02*
X031140Y042302D01*
X031160Y041984D02*
X030127Y041984D01*
X030046Y041665D02*
X031280Y041665D01*
X031140Y041347D02*
X030364Y041347D01*
X030683Y041028D02*
X031047Y041028D01*
X032240Y040710D02*
X032360Y040710D01*
X032360Y040391D02*
X032240Y040391D01*
X032240Y040073D02*
X032360Y040073D01*
X034760Y041260D02*
X034760Y042260D01*
X034760Y043260D01*
X034760Y044260D01*
X034760Y045260D01*
X034760Y046260D01*
X034760Y047260D01*
X031892Y049946D02*
X031222Y049946D01*
X031270Y050265D02*
X032211Y050265D01*
X031574Y049628D02*
X031056Y049628D01*
X031313Y049309D02*
X030613Y049309D01*
X031140Y048354D02*
X029320Y048354D01*
X029320Y048035D02*
X031140Y048035D01*
X031280Y047717D02*
X029095Y047717D01*
X028760Y047717D02*
X028760Y047717D01*
X028760Y048035D02*
X028760Y048035D01*
X028425Y047717D02*
X027410Y047717D01*
X027410Y048035D02*
X028200Y048035D01*
X028200Y048354D02*
X027410Y048354D01*
X027410Y048672D02*
X028380Y048672D01*
X028200Y047398D02*
X027410Y047398D01*
X027410Y047080D02*
X028200Y047080D01*
X028467Y046761D02*
X027410Y046761D01*
X027410Y046443D02*
X028200Y046443D01*
X028200Y046124D02*
X027410Y046124D01*
X027410Y045806D02*
X028423Y045806D01*
X028200Y045487D02*
X027410Y045487D01*
X027410Y045169D02*
X028200Y045169D01*
X028378Y044850D02*
X027410Y044850D01*
X027410Y044532D02*
X028240Y044532D01*
X028200Y044213D02*
X027410Y044213D01*
X027410Y043895D02*
X028334Y043895D01*
X028284Y043576D02*
X027410Y043576D01*
X027410Y043258D02*
X028200Y043258D01*
X028289Y042939D02*
X027255Y042939D01*
X027445Y042621D02*
X028329Y042621D01*
X028200Y042302D02*
X027534Y042302D01*
X027852Y041984D02*
X028245Y041984D01*
X028171Y041665D02*
X028373Y041665D01*
X029191Y042621D02*
X029204Y042621D01*
X029320Y047080D02*
X031140Y047080D01*
X031140Y047398D02*
X029320Y047398D01*
X028760Y047398D02*
X028760Y047398D01*
X028760Y047080D02*
X028760Y047080D01*
X027410Y051539D02*
X033485Y051539D01*
X033485Y051857D02*
X027410Y051857D01*
X027410Y052176D02*
X033485Y052176D01*
X033485Y052494D02*
X027410Y052494D01*
X027410Y052813D02*
X033485Y052813D01*
X033485Y053131D02*
X027410Y053131D01*
X027410Y053450D02*
X033485Y053450D01*
X033485Y053768D02*
X027410Y053768D01*
X027410Y054087D02*
X033485Y054087D01*
X033485Y054405D02*
X027439Y054405D01*
X027652Y054724D02*
X033485Y054724D01*
X032819Y055042D02*
X027652Y055042D01*
X027652Y055361D02*
X032618Y055361D01*
X032618Y055679D02*
X027652Y055679D01*
X027652Y055998D02*
X032618Y055998D01*
X032618Y056316D02*
X027652Y056316D01*
X027419Y056635D02*
X032851Y056635D01*
X032783Y056953D02*
X027487Y056953D01*
X027652Y057272D02*
X032618Y057272D01*
X032618Y057590D02*
X027652Y057590D01*
X027652Y057909D02*
X032618Y057909D01*
X032618Y058227D02*
X027652Y058227D01*
X027383Y058546D02*
X032618Y058546D01*
X032618Y058864D02*
X026402Y058864D01*
X026402Y058546D02*
X026637Y058546D01*
X026121Y059183D02*
X032899Y059183D01*
X033621Y059183D02*
X035360Y059183D01*
X035360Y059501D02*
X002447Y059501D01*
X002380Y059568D02*
X002568Y059380D01*
X002701Y059150D01*
X002770Y058893D01*
X002770Y058627D01*
X002701Y058370D01*
X002568Y058140D01*
X002380Y057952D01*
X002150Y057819D01*
X001893Y057750D01*
X001627Y057750D01*
X001370Y057819D01*
X001140Y057952D01*
X000952Y058140D01*
X000819Y058370D01*
X000750Y058627D01*
X000750Y058893D01*
X000819Y059150D01*
X000952Y059380D01*
X001140Y059568D01*
X001370Y059701D01*
X001627Y059770D01*
X001893Y059770D01*
X002150Y059701D01*
X002380Y059568D01*
X002682Y059183D02*
X005399Y059183D01*
X005118Y058864D02*
X002770Y058864D01*
X002748Y058546D02*
X005118Y058546D01*
X005118Y058227D02*
X002619Y058227D01*
X002305Y057909D02*
X005118Y057909D01*
X005118Y057590D02*
X000580Y057590D01*
X000580Y057272D02*
X005118Y057272D01*
X005283Y056953D02*
X000580Y056953D01*
X000580Y056635D02*
X005351Y056635D01*
X005118Y056316D02*
X000580Y056316D01*
X000580Y055998D02*
X005118Y055998D01*
X005118Y055679D02*
X000580Y055679D01*
X000580Y055361D02*
X005118Y055361D01*
X005319Y055042D02*
X000580Y055042D01*
X000580Y054724D02*
X005856Y054724D01*
X006174Y054405D02*
X000580Y054405D01*
X000580Y054087D02*
X006235Y054087D01*
X006235Y053768D02*
X000580Y053768D01*
X000580Y053450D02*
X006235Y053450D01*
X006235Y053131D02*
X000580Y053131D01*
X000580Y052813D02*
X006235Y052813D01*
X006235Y052494D02*
X000580Y052494D01*
X000580Y052176D02*
X006235Y052176D01*
X006235Y051857D02*
X000580Y051857D01*
X000580Y051539D02*
X006235Y051539D01*
X006235Y051220D02*
X000580Y051220D01*
X000580Y050902D02*
X006235Y050902D01*
X006235Y050583D02*
X000580Y050583D01*
X000580Y050265D02*
X005890Y050265D01*
X005606Y049946D02*
X000580Y049946D01*
X000580Y049628D02*
X005584Y049628D01*
X005735Y049309D02*
X000580Y049309D01*
X000580Y048991D02*
X005735Y048991D01*
X005735Y048672D02*
X000580Y048672D01*
X000580Y048354D02*
X005735Y048354D01*
X005735Y048035D02*
X000580Y048035D01*
X000580Y047717D02*
X005735Y047717D01*
X005735Y047398D02*
X000580Y047398D01*
X000580Y047080D02*
X005735Y047080D01*
X005735Y046761D02*
X000580Y046761D01*
X000580Y046443D02*
X005735Y046443D01*
X005735Y046124D02*
X000580Y046124D01*
X000580Y045806D02*
X005735Y045806D01*
X005735Y045487D02*
X000580Y045487D01*
X000580Y045169D02*
X005735Y045169D01*
X005735Y044850D02*
X000580Y044850D01*
X000580Y044532D02*
X005735Y044532D01*
X005735Y044213D02*
X002986Y044213D01*
X003304Y043895D02*
X005735Y043895D01*
X005778Y043576D02*
X003821Y043576D01*
X003941Y043258D02*
X006072Y043258D01*
X006390Y042939D02*
X004260Y042939D01*
X004365Y042621D02*
X006709Y042621D01*
X006735Y042302D02*
X004365Y042302D01*
X004365Y041984D02*
X006735Y041984D01*
X006735Y041665D02*
X004365Y041665D01*
X004365Y041347D02*
X006735Y041347D01*
X003885Y042635D02*
X003260Y043260D01*
X002635Y043885D01*
X001635Y043885D01*
X003885Y042635D02*
X003885Y036260D01*
X001215Y057909D02*
X000580Y057909D01*
X000580Y058227D02*
X000901Y058227D01*
X000772Y058546D02*
X000580Y058546D01*
X000580Y058864D02*
X000750Y058864D01*
X000838Y059183D02*
X000580Y059183D01*
X000632Y059501D02*
X001073Y059501D01*
X000888Y059820D02*
X035403Y059820D01*
X035118Y058864D02*
X033902Y058864D01*
X033902Y058546D02*
X034137Y058546D01*
X034883Y058546D02*
X035118Y058546D01*
X039974Y059862D02*
X039974Y059862D01*
X040016Y059820D02*
X059632Y059820D01*
X059380Y059568D02*
X059150Y059701D01*
X058893Y059770D01*
X058627Y059770D01*
X058370Y059701D01*
X058140Y059568D01*
X057952Y059380D01*
X057819Y059150D01*
X057750Y058893D01*
X057750Y058627D01*
X057819Y058370D01*
X057952Y058140D01*
X058140Y057952D01*
X058370Y057819D01*
X058627Y057750D01*
X058893Y057750D01*
X059150Y057819D01*
X059380Y057952D01*
X059568Y058140D01*
X059701Y058370D01*
X059770Y058627D01*
X059770Y058893D01*
X059701Y059150D01*
X059568Y059380D01*
X059380Y059568D01*
X059447Y059501D02*
X059888Y059501D01*
X059940Y059183D02*
X059682Y059183D01*
X059770Y058864D02*
X059940Y058864D01*
X059940Y058546D02*
X059748Y058546D01*
X059619Y058227D02*
X059940Y058227D01*
X059940Y057909D02*
X059305Y057909D01*
X058215Y057909D02*
X055927Y057909D01*
X055609Y058227D02*
X057901Y058227D01*
X057772Y058546D02*
X055290Y058546D01*
X054972Y058864D02*
X057750Y058864D01*
X057838Y059183D02*
X054653Y059183D01*
X054335Y059501D02*
X058073Y059501D01*
X056246Y057590D02*
X059940Y057590D01*
X059940Y057272D02*
X056564Y057272D01*
X056660Y056953D02*
X059940Y056953D01*
X059940Y056635D02*
X056660Y056635D01*
X056660Y056316D02*
X059940Y056316D01*
X059940Y055998D02*
X056660Y055998D01*
X056660Y055679D02*
X059940Y055679D01*
X059940Y055361D02*
X056660Y055361D01*
X056660Y055042D02*
X059940Y055042D01*
X059940Y054724D02*
X056660Y054724D01*
X056660Y054405D02*
X059940Y054405D01*
X059940Y054087D02*
X056660Y054087D01*
X056660Y053768D02*
X059940Y053768D01*
X059940Y053450D02*
X056660Y053450D01*
X056660Y053131D02*
X059940Y053131D01*
X059940Y052813D02*
X056660Y052813D01*
X056660Y052494D02*
X059940Y052494D01*
X059940Y052176D02*
X056660Y052176D01*
X056660Y051857D02*
X059940Y051857D01*
X059940Y051539D02*
X056660Y051539D01*
X056660Y051220D02*
X059940Y051220D01*
X059940Y050902D02*
X056660Y050902D01*
X056660Y050583D02*
X059940Y050583D01*
X059940Y050265D02*
X056660Y050265D01*
X056789Y049946D02*
X059940Y049946D01*
X059940Y049628D02*
X056811Y049628D01*
X056601Y049309D02*
X059940Y049309D01*
X059940Y048991D02*
X056160Y048991D01*
X056160Y048672D02*
X059940Y048672D01*
X059940Y048354D02*
X056160Y048354D01*
X056160Y048035D02*
X059940Y048035D01*
X059940Y047717D02*
X056160Y047717D01*
X056160Y047398D02*
X059940Y047398D01*
X059940Y047080D02*
X056160Y047080D01*
X056160Y046761D02*
X059940Y046761D01*
X059940Y046443D02*
X056160Y046443D01*
X056160Y046124D02*
X059940Y046124D01*
X059940Y045806D02*
X056160Y045806D01*
X056160Y045487D02*
X059940Y045487D01*
X059940Y045169D02*
X056160Y045169D01*
X054260Y050260D02*
X054260Y051385D01*
X044810Y059501D02*
X040335Y059501D01*
X041121Y059183D02*
X042899Y059183D01*
X042618Y058864D02*
X041402Y058864D01*
X041402Y058546D02*
X041637Y058546D01*
X042383Y058546D02*
X042618Y058546D01*
X043621Y059183D02*
X044735Y059183D01*
X044735Y058864D02*
X043902Y058864D01*
X043902Y058546D02*
X044137Y058546D01*
X025399Y059183D02*
X023621Y059183D01*
X023902Y058864D02*
X025118Y058864D01*
X025118Y058546D02*
X024883Y058546D01*
X024137Y058546D02*
X023902Y058546D01*
X022899Y059183D02*
X021121Y059183D01*
X021402Y058864D02*
X022618Y058864D01*
X022618Y058546D02*
X022383Y058546D01*
X021637Y058546D02*
X021402Y058546D01*
X020399Y059183D02*
X018621Y059183D01*
X018902Y058864D02*
X020118Y058864D01*
X020118Y058546D02*
X019883Y058546D01*
X019137Y058546D02*
X018902Y058546D01*
X017899Y059183D02*
X016121Y059183D01*
X016402Y058864D02*
X017618Y058864D01*
X017618Y058546D02*
X017383Y058546D01*
X016637Y058546D02*
X016402Y058546D01*
X015399Y059183D02*
X013621Y059183D01*
X013902Y058864D02*
X015118Y058864D01*
X015118Y058546D02*
X014883Y058546D01*
X014137Y058546D02*
X013902Y058546D01*
X012899Y059183D02*
X011121Y059183D01*
X011402Y058864D02*
X012618Y058864D01*
X012618Y058546D02*
X012383Y058546D01*
X011637Y058546D02*
X011402Y058546D01*
X010399Y059183D02*
X008621Y059183D01*
X008902Y058864D02*
X010118Y058864D01*
X010118Y058546D02*
X009883Y058546D01*
X009137Y058546D02*
X008902Y058546D01*
X007899Y059183D02*
X006121Y059183D01*
X006402Y058864D02*
X007618Y058864D01*
X007618Y058546D02*
X007383Y058546D01*
X006637Y058546D02*
X006402Y058546D01*
X034260Y036260D02*
X034260Y035260D01*
X036510Y034260D02*
X036510Y033135D01*
X037260Y032260D01*
D22*
X036635Y031760D03*
X036510Y034260D03*
X038135Y035260D03*
X036635Y038260D03*
X038635Y040510D03*
X038760Y044760D03*
X039760Y045260D03*
X040885Y044760D03*
X043760Y044760D03*
X044760Y047635D03*
X041760Y047635D03*
X042760Y051260D03*
X041260Y051760D03*
X042260Y053260D03*
X043260Y052885D03*
X045135Y052885D03*
X045760Y051260D03*
X047135Y053385D03*
X049260Y053510D03*
X049760Y053885D03*
X051260Y054010D03*
X051760Y051385D03*
X054260Y051385D03*
X056260Y049760D03*
X052760Y047635D03*
X053260Y046510D03*
X052260Y046260D03*
X051260Y046635D03*
X049260Y044760D03*
X051260Y043135D03*
X052760Y043135D03*
X052385Y039510D03*
X050760Y037260D03*
X048510Y037260D03*
X046260Y037260D03*
X046260Y038385D03*
X044885Y038385D03*
X044260Y039385D03*
X043385Y039385D03*
X043385Y037260D03*
X044385Y037260D03*
X044385Y035260D03*
X044260Y032260D03*
X049010Y032385D03*
X050760Y027260D03*
X051510Y026760D03*
X051635Y025760D03*
X051635Y024760D03*
X053260Y024260D03*
X053260Y028885D03*
X054260Y031260D03*
X054260Y032260D03*
X056885Y032260D03*
X056385Y030385D03*
X054260Y035260D03*
X053760Y036260D03*
X048010Y040385D03*
X056760Y044135D03*
X055760Y053635D03*
X039135Y051385D03*
X036260Y052385D03*
X033385Y050760D03*
X033760Y049760D03*
X035260Y048885D03*
X036260Y048010D03*
X035760Y046260D03*
X034135Y045760D03*
X033135Y045510D03*
X032635Y046260D03*
X033635Y047260D03*
X037760Y046260D03*
X032260Y039760D03*
X031260Y040510D03*
X029635Y042260D03*
X026885Y042510D03*
X026260Y042510D03*
X025260Y043510D03*
X025760Y043885D03*
X025760Y044510D03*
X024760Y045010D03*
X024135Y046260D03*
X023260Y044510D03*
X021260Y046510D03*
X021260Y047135D03*
X018760Y042885D03*
X018760Y039635D03*
X019260Y038385D03*
X017385Y037635D03*
X017385Y035260D03*
X015010Y037510D03*
X010760Y034010D03*
X009510Y032260D03*
X007260Y030760D03*
X010635Y027385D03*
X011885Y026760D03*
X011885Y028760D03*
X011510Y029760D03*
X011885Y030260D03*
X015510Y028260D03*
X014510Y026260D03*
X013885Y026260D03*
X015635Y025760D03*
X017635Y023760D03*
X015760Y021385D03*
X016385Y020135D03*
X014385Y021885D03*
X013135Y023760D03*
X008760Y021260D03*
X016385Y016760D03*
X021385Y018885D03*
X025010Y021260D03*
X026010Y023260D03*
X027010Y024260D03*
X028010Y022385D03*
X028510Y020260D03*
X031135Y022760D03*
X031260Y026385D03*
X031260Y027760D03*
X032760Y028885D03*
X031260Y029760D03*
X027260Y034260D03*
X026510Y035260D03*
X025760Y037135D03*
X027260Y037260D03*
X028760Y038135D03*
X027385Y038760D03*
X024760Y039010D03*
X021885Y039510D03*
X029010Y035260D03*
X022760Y031260D03*
X021885Y032260D03*
X020260Y032260D03*
X019885Y031760D03*
X017635Y029760D03*
X017260Y031260D03*
X017385Y032260D03*
X018635Y026760D03*
X021260Y023260D03*
X023010Y024760D03*
X024635Y023760D03*
X024260Y027260D03*
X023760Y028260D03*
X022760Y029760D03*
X036135Y028760D03*
X038760Y029760D03*
X039260Y030635D03*
X042635Y027760D03*
X042635Y026760D03*
X045635Y026760D03*
X045760Y022385D03*
X022510Y014635D03*
X018760Y010260D03*
X014260Y011260D03*
X006635Y036760D03*
X005635Y037760D03*
X006635Y038760D03*
X006635Y043885D03*
X007135Y044385D03*
X006135Y049760D03*
X008885Y050010D03*
X013760Y047010D03*
X020260Y054260D03*
D23*
X020260Y049260D01*
X019760Y049760D02*
X019760Y054385D01*
X020135Y054760D01*
X020135Y056760D01*
X019510Y057385D01*
X019510Y058010D01*
X018260Y058010D02*
X018260Y057385D01*
X018885Y056760D01*
X018885Y055010D01*
X018385Y054510D01*
X018385Y049385D01*
X018260Y049260D01*
X019260Y049260D02*
X019760Y049760D01*
X020260Y048260D02*
X019760Y047760D01*
X019760Y041760D01*
X020510Y041760D01*
X020760Y041510D01*
X020760Y040635D01*
X021885Y039510D01*
X020885Y039635D02*
X019260Y041260D01*
X018760Y041010D02*
X018760Y042885D01*
X018260Y042260D02*
X017760Y042760D01*
X017760Y054385D01*
X018260Y054885D01*
X018260Y055510D01*
X018260Y056135D01*
X017635Y056760D02*
X017010Y057385D01*
X017010Y058010D01*
X015760Y058010D02*
X015760Y057385D01*
X016385Y056760D01*
X016385Y049385D01*
X016260Y049260D01*
X015260Y049260D02*
X015135Y049385D01*
X015135Y056760D01*
X014510Y057385D01*
X014510Y058010D01*
X013260Y058010D02*
X013260Y057385D01*
X013885Y056760D01*
X013885Y054760D01*
X014135Y054510D01*
X014135Y049385D01*
X014260Y049260D01*
X013260Y049260D02*
X013135Y049385D01*
X013135Y054510D01*
X012635Y055010D01*
X012635Y056760D01*
X012010Y057385D01*
X012010Y058010D01*
X010760Y058010D02*
X010760Y057385D01*
X011385Y056760D01*
X011385Y054760D01*
X012135Y054010D01*
X012135Y049385D01*
X012260Y049260D01*
X011260Y049260D02*
X010135Y050385D01*
X010135Y056760D01*
X009510Y057385D01*
X009510Y058010D01*
X008260Y058010D02*
X008260Y057385D01*
X008885Y056760D01*
X008885Y050010D01*
X008760Y049510D02*
X008260Y050010D01*
X008260Y055510D01*
X008260Y056135D01*
X007635Y056260D02*
X007135Y056760D01*
X005760Y056760D01*
X005760Y057385D01*
X005760Y058010D01*
X005760Y058635D01*
X007010Y058010D02*
X007010Y057385D01*
X007010Y056135D02*
X007010Y055510D01*
X007010Y054885D01*
X007010Y044510D01*
X007135Y044385D01*
X006635Y043885D02*
X006635Y054510D01*
X005760Y055385D01*
X005760Y055510D01*
X005760Y056135D01*
X007635Y056260D02*
X007635Y049885D01*
X008260Y049260D01*
X008760Y049510D02*
X008760Y043760D01*
X010260Y042260D01*
X009260Y041260D02*
X009010Y041010D01*
X009010Y031635D01*
X011885Y028760D01*
X011510Y029760D02*
X011260Y030010D01*
X011260Y041260D01*
X011260Y042260D02*
X009760Y043760D01*
X009760Y054635D01*
X009510Y054885D01*
X009510Y055510D01*
X009510Y056135D01*
X010760Y056135D02*
X010760Y055510D01*
X010760Y054885D01*
X011760Y053885D01*
X011760Y048010D01*
X012135Y047635D01*
X012135Y042385D01*
X012260Y042260D01*
X012760Y042760D02*
X012760Y054135D01*
X012010Y054885D01*
X012010Y055510D01*
X012010Y056135D01*
X013260Y056135D02*
X013260Y055510D01*
X013260Y054885D01*
X013760Y054385D01*
X013760Y048010D01*
X014260Y047510D01*
X014260Y042260D01*
X014760Y042760D02*
X014760Y054635D01*
X014510Y054885D01*
X014510Y055510D01*
X014510Y056135D01*
X015760Y056135D02*
X015760Y055510D01*
X015760Y042760D01*
X016260Y042260D01*
X016760Y042760D02*
X016760Y054635D01*
X017010Y054885D01*
X017010Y055510D01*
X017010Y056135D01*
X017635Y056760D02*
X017635Y054760D01*
X017385Y054510D01*
X017385Y049385D01*
X017260Y049260D01*
X018760Y048010D02*
X018760Y054135D01*
X019510Y054885D01*
X019510Y055510D01*
X019510Y056135D01*
X020760Y056135D02*
X020760Y055510D01*
X020760Y042760D01*
X020260Y042260D01*
X019260Y042260D02*
X019260Y047510D01*
X018760Y048010D01*
X021260Y048260D02*
X023760Y045760D01*
X023760Y041010D01*
X023260Y040510D01*
X023260Y025135D01*
X024635Y023760D01*
X025260Y023260D02*
X025760Y023760D01*
X025760Y037135D01*
X024760Y039010D02*
X024760Y026760D01*
X025260Y026260D01*
X024260Y027260D02*
X024260Y039510D01*
X025760Y041010D01*
X025760Y043885D01*
X025260Y043510D02*
X025260Y045760D01*
X023260Y047760D01*
X022760Y047760D01*
X022760Y054385D01*
X023260Y054885D01*
X023260Y055510D01*
X023260Y056135D01*
X022635Y056760D02*
X023260Y057385D01*
X023260Y058010D01*
X023260Y058635D01*
X022010Y058010D02*
X022010Y057385D01*
X021385Y056760D01*
X021385Y049385D01*
X021260Y049260D01*
X022260Y049260D02*
X022385Y049385D01*
X022385Y054510D01*
X022635Y054760D01*
X022635Y056760D01*
X022010Y056135D02*
X022010Y055510D01*
X022010Y054885D01*
X023385Y054510D02*
X023885Y055010D01*
X023885Y056760D01*
X024510Y057385D01*
X024510Y058010D01*
X025760Y058010D02*
X025760Y057385D01*
X025135Y056760D01*
X025135Y050135D01*
X024260Y049260D01*
X025260Y049260D02*
X026385Y050385D01*
X026385Y056760D01*
X027010Y057385D01*
X027010Y058010D01*
X025760Y058010D02*
X025760Y058635D01*
X025760Y056135D02*
X025760Y055510D01*
X024510Y055510D02*
X024510Y054885D01*
X023760Y054135D01*
X023760Y048010D01*
X025635Y046135D01*
X025635Y044635D01*
X025760Y044510D01*
X024760Y045010D02*
X024760Y041010D01*
X023885Y040135D01*
X023885Y028385D01*
X023760Y028260D01*
X022760Y029760D02*
X022260Y030260D01*
X022260Y032010D01*
X022385Y032135D01*
X022385Y041135D01*
X022260Y041260D01*
X021260Y042260D02*
X021260Y046510D01*
X021260Y047135D02*
X022760Y045635D01*
X022760Y031260D01*
X021760Y031760D02*
X020510Y033010D01*
X020510Y037135D01*
X019260Y038385D01*
X018635Y039510D02*
X018635Y026760D01*
X019260Y026260D02*
X018135Y025135D01*
X018135Y020135D01*
X017510Y019510D01*
X017510Y016885D01*
X018760Y015635D01*
X018760Y010260D01*
X019260Y011760D02*
X019260Y012760D01*
X020260Y013385D02*
X021385Y012260D01*
X021385Y002385D01*
X022010Y001760D01*
X028260Y001760D01*
X028260Y002260D01*
X028260Y007260D01*
X031260Y011260D02*
X031260Y012260D01*
X031260Y013260D01*
X033260Y013260D01*
X033260Y015885D01*
X032260Y016635D02*
X032260Y014260D01*
X031760Y014260D02*
X031760Y018135D01*
X032260Y018635D01*
X033260Y018635D01*
X031760Y014260D02*
X029260Y014260D01*
X027260Y014260D02*
X027260Y013260D01*
X022760Y014885D02*
X022760Y017260D01*
X022260Y015010D02*
X021260Y014010D01*
X021260Y012885D01*
X021885Y012260D01*
X021885Y008510D01*
X021760Y008385D01*
X021760Y007760D01*
X022260Y007260D01*
X022260Y002260D01*
X021885Y001385D02*
X034260Y001385D01*
X034260Y002260D01*
X034260Y007260D01*
X040260Y007260D02*
X040260Y002260D01*
X046260Y002260D02*
X046260Y005260D01*
X049260Y005260D02*
X049260Y002260D01*
X052260Y002260D02*
X052260Y005260D01*
X051260Y005260D01*
X054260Y005260D02*
X055260Y005260D01*
X055260Y002260D01*
X051260Y021260D02*
X052260Y022260D01*
X052260Y023260D01*
X053260Y024260D02*
X053260Y026260D01*
X052260Y027260D01*
X052010Y026885D02*
X051760Y027135D01*
X051760Y047510D01*
X052260Y048010D01*
X052260Y048260D01*
X051760Y048010D02*
X051760Y051385D01*
X051260Y049260D02*
X051260Y054010D01*
X051385Y054760D02*
X051385Y056760D01*
X050760Y057385D01*
X050760Y058010D01*
X050760Y058635D01*
X049510Y058010D02*
X049510Y057385D01*
X049635Y056760D02*
X048260Y056760D01*
X048260Y057385D01*
X048260Y058010D01*
X048260Y058635D01*
X047010Y058010D02*
X047010Y057385D01*
X046385Y056760D02*
X045760Y057385D01*
X045760Y058010D01*
X045760Y058635D01*
X045135Y059260D02*
X045135Y056760D01*
X044510Y056135D01*
X044510Y055510D01*
X044510Y054885D01*
X043260Y055510D02*
X043260Y053635D01*
X043760Y053135D01*
X043760Y044760D01*
X042385Y047135D02*
X042385Y042385D01*
X042260Y042260D01*
X041760Y041760D02*
X041760Y047010D01*
X042260Y047510D01*
X042260Y048260D01*
X041760Y047635D02*
X041760Y054385D01*
X041385Y054760D01*
X041385Y056760D01*
X040760Y057385D01*
X040760Y058010D01*
X040760Y058635D01*
X040135Y059135D02*
X039635Y059635D01*
X035760Y059635D01*
X035760Y058635D01*
X035760Y058010D01*
X035760Y057385D01*
X035760Y056135D02*
X035760Y055510D01*
X035760Y046260D01*
X036260Y046135D02*
X036260Y048010D01*
X035260Y048885D02*
X035260Y031260D01*
X034260Y030260D01*
X034260Y029260D02*
X035635Y030635D01*
X035635Y045510D01*
X036260Y046135D01*
X037760Y046260D02*
X037760Y044260D01*
X036010Y042510D01*
X036010Y032385D01*
X036635Y031760D01*
X038260Y031635D02*
X038635Y032010D01*
X038635Y036260D01*
X036635Y038260D01*
X037260Y040510D02*
X037260Y040760D01*
X037760Y041260D01*
X038260Y041260D01*
X038760Y041010D02*
X038760Y043635D01*
X040260Y045135D01*
X040260Y048260D01*
X040260Y049260D02*
X040135Y049385D01*
X040135Y059135D01*
X039510Y058010D02*
X039510Y057385D01*
X039510Y056135D02*
X039510Y055510D01*
X039510Y054885D01*
X039760Y054635D01*
X039760Y045260D01*
X038760Y044760D02*
X038760Y051135D01*
X037010Y052885D01*
X037010Y054885D01*
X037010Y055510D01*
X037010Y056135D01*
X037010Y057385D02*
X037010Y058010D01*
X038260Y058010D02*
X038260Y057385D01*
X038260Y058010D02*
X038260Y058635D01*
X038260Y056135D02*
X038260Y055510D01*
X040760Y055510D02*
X040760Y056135D01*
X040760Y055510D02*
X040760Y044885D01*
X040885Y044760D01*
X041385Y044635D02*
X041385Y047385D01*
X041260Y047510D01*
X041260Y048260D01*
X041260Y049260D02*
X041260Y051760D01*
X042760Y051260D02*
X042760Y047510D01*
X042385Y047135D01*
X042760Y046885D02*
X043260Y047385D01*
X043260Y048260D01*
X043260Y049260D02*
X043260Y052885D01*
X043885Y053510D02*
X043885Y056760D01*
X043260Y057385D01*
X043260Y058010D01*
X043260Y058635D01*
X042010Y058010D02*
X042010Y057385D01*
X042010Y056135D02*
X042010Y055510D01*
X042010Y054885D01*
X043260Y055510D02*
X043260Y056135D01*
X044510Y057385D02*
X044510Y058010D01*
X045135Y059260D02*
X054010Y059260D01*
X056260Y057010D01*
X056260Y049760D01*
X055260Y049260D02*
X055135Y049385D01*
X055135Y056760D01*
X054510Y057385D01*
X054510Y058010D01*
X053260Y058010D02*
X053260Y057385D01*
X053885Y056760D01*
X053885Y054760D01*
X054760Y053885D01*
X054760Y049760D01*
X054260Y049260D01*
X053260Y049260D02*
X053135Y049385D01*
X053135Y054510D01*
X052635Y055010D01*
X052635Y056760D01*
X052010Y057385D01*
X052010Y058010D01*
X053260Y058010D02*
X053260Y058635D01*
X053260Y056135D02*
X053260Y055510D01*
X053260Y054885D01*
X053760Y054385D01*
X053760Y042760D01*
X054260Y042260D01*
X054260Y041760D02*
X054260Y041260D01*
X054260Y041760D02*
X055510Y041760D01*
X056385Y040885D01*
X056385Y030385D01*
X055260Y030260D02*
X054760Y030760D01*
X054760Y040760D01*
X055260Y041260D01*
X055260Y042260D02*
X055760Y042760D01*
X055760Y053635D01*
X054510Y054885D02*
X054510Y055510D01*
X054510Y056135D01*
X052760Y054135D02*
X052010Y054885D01*
X052010Y055510D01*
X052010Y056135D01*
X050760Y056135D02*
X050760Y055510D01*
X050760Y043635D01*
X051260Y043135D01*
X051260Y042260D02*
X050760Y041760D01*
X049760Y041760D01*
X049760Y047010D01*
X048760Y048010D01*
X048760Y054135D01*
X049510Y054885D01*
X049510Y055510D01*
X049510Y056135D01*
X050135Y056260D02*
X050135Y055385D01*
X050260Y055260D01*
X050260Y049260D01*
X049260Y049260D02*
X049260Y053510D01*
X049760Y053885D02*
X049760Y048010D01*
X050135Y047635D01*
X050135Y042385D01*
X050260Y042260D01*
X050260Y041260D02*
X050260Y027135D01*
X051635Y025760D01*
X052260Y026260D02*
X052010Y026510D01*
X052010Y026885D01*
X051510Y026760D02*
X051260Y027010D01*
X051260Y041260D01*
X052260Y041260D02*
X052260Y039635D01*
X052385Y039510D01*
X052760Y039260D02*
X052885Y039385D01*
X052885Y040885D01*
X052760Y041010D01*
X052760Y042510D01*
X052260Y043010D01*
X052260Y046260D01*
X051385Y046760D02*
X051385Y047635D01*
X051760Y048010D01*
X052760Y047635D02*
X052760Y054135D01*
X052260Y053885D02*
X051385Y054760D01*
X052260Y053885D02*
X052260Y049260D01*
X051385Y046760D02*
X051260Y046635D01*
X053260Y046510D02*
X053260Y042260D01*
X053260Y041260D02*
X053260Y028885D01*
X052760Y028760D02*
X052760Y039260D01*
X049510Y041010D02*
X049260Y041260D01*
X049510Y041010D02*
X049510Y026885D01*
X051635Y024760D01*
X052260Y028260D02*
X052760Y028760D01*
X056760Y032385D02*
X056760Y044135D01*
X049260Y044760D02*
X049260Y042260D01*
X048260Y042260D02*
X047760Y042760D01*
X047760Y048510D01*
X047510Y048760D01*
X046760Y048760D01*
X046760Y053135D01*
X045760Y054135D01*
X045760Y055510D01*
X045760Y056135D01*
X046385Y056760D02*
X046385Y054760D01*
X047635Y053510D01*
X047635Y049885D01*
X048260Y049260D01*
X047260Y049260D02*
X047135Y049385D01*
X047135Y053385D01*
X047010Y054885D02*
X047010Y055510D01*
X047010Y056135D01*
X048260Y056135D02*
X048260Y055510D01*
X049635Y056760D02*
X050135Y056260D01*
X045135Y052885D02*
X045135Y049385D01*
X045260Y049260D01*
X045260Y048260D02*
X045260Y047510D01*
X044760Y047010D01*
X044760Y039260D01*
X042385Y036885D01*
X042385Y029135D01*
X043260Y028260D01*
X042635Y027760D02*
X042010Y028385D01*
X042010Y041010D01*
X042260Y041260D01*
X041760Y041760D02*
X041010Y041760D01*
X040760Y041510D01*
X040760Y027760D01*
X043260Y025260D01*
X043260Y024260D02*
X040135Y027385D01*
X040135Y040635D01*
X039760Y041010D01*
X039760Y043010D01*
X041385Y044635D01*
X042760Y046885D02*
X042760Y040010D01*
X043385Y039385D01*
X044260Y039385D02*
X043260Y040385D01*
X043260Y041260D01*
X045260Y041260D02*
X045385Y041135D01*
X045385Y029135D01*
X046260Y028260D01*
X046260Y027260D02*
X048010Y029010D01*
X048010Y040385D01*
X047635Y040135D02*
X047260Y040510D01*
X047260Y041260D01*
X046260Y041260D02*
X045760Y040760D01*
X045760Y029760D01*
X046260Y029260D01*
X046260Y030260D02*
X047635Y031635D01*
X047635Y040135D01*
X048760Y041010D02*
X048760Y047510D01*
X048260Y048010D01*
X048260Y048260D01*
X047260Y048260D02*
X046760Y047760D01*
X046760Y038885D01*
X046260Y038385D01*
X044885Y038385D02*
X044885Y031885D01*
X043260Y030260D01*
X043385Y029760D02*
X042760Y029760D01*
X042760Y036635D01*
X043385Y037260D01*
X039760Y040010D02*
X038760Y041010D01*
X038635Y040510D02*
X039385Y039760D01*
X039385Y030760D01*
X039260Y030635D01*
X039010Y031010D02*
X038760Y030760D01*
X038760Y029760D01*
X039010Y031010D02*
X039010Y038760D01*
X037260Y040510D01*
X038260Y042260D02*
X038260Y047510D01*
X036260Y049510D01*
X036260Y052385D01*
X034260Y054635D02*
X034510Y054885D01*
X034510Y055510D01*
X034510Y056135D01*
X033885Y056760D02*
X033260Y057385D01*
X033260Y058010D01*
X033260Y058635D01*
X034510Y058010D02*
X034510Y057385D01*
X033885Y056760D02*
X033885Y049885D01*
X033760Y049760D01*
X033635Y047260D02*
X033635Y029260D01*
X034010Y028885D01*
X034010Y028760D01*
X034385Y028760D01*
X034760Y028385D01*
X034760Y025760D01*
X034260Y025260D01*
X034260Y023260D02*
X031135Y023260D01*
X031135Y025885D01*
X029885Y027135D01*
X029885Y033260D01*
X030135Y033510D01*
X030135Y036760D01*
X028760Y038135D01*
X027385Y038760D02*
X029760Y036385D01*
X029760Y033635D01*
X029510Y033385D01*
X029510Y024385D01*
X031135Y022760D01*
X028510Y021885D02*
X028510Y020260D01*
X028510Y021885D02*
X028010Y022385D01*
X031260Y026385D02*
X030260Y027385D01*
X030260Y032010D01*
X030510Y032260D01*
X030510Y038760D01*
X026885Y042385D01*
X026885Y042510D01*
X026260Y042510D02*
X027010Y043260D01*
X027010Y054885D01*
X027010Y055510D01*
X027010Y056135D01*
X024510Y056135D02*
X024510Y055510D01*
X023385Y054510D02*
X023385Y049385D01*
X023260Y049260D01*
X024135Y046260D02*
X024135Y042385D01*
X024260Y042260D01*
X023260Y042260D02*
X023260Y044510D01*
X020885Y039635D02*
X020885Y033260D01*
X021885Y032260D01*
X021760Y031760D02*
X021760Y026010D01*
X023010Y024760D01*
X021260Y023260D02*
X022260Y022260D01*
X022260Y015010D01*
X022510Y014635D02*
X022760Y014885D01*
X020260Y013385D02*
X020260Y023260D01*
X019260Y024260D01*
X018760Y024760D02*
X019260Y025260D01*
X018760Y024760D02*
X018760Y021885D01*
X019760Y020885D01*
X019760Y006385D01*
X021010Y005135D01*
X021010Y002260D01*
X021885Y001385D01*
X016260Y012760D02*
X016260Y013760D01*
X016385Y016760D02*
X016385Y019260D01*
X014885Y020760D01*
X014885Y025885D01*
X014510Y026260D01*
X014510Y026885D02*
X014510Y040510D01*
X015260Y041260D01*
X015260Y042260D02*
X014760Y042760D01*
X013260Y042260D02*
X012760Y042760D01*
X012260Y041260D02*
X012260Y040260D01*
X012385Y040135D01*
X012385Y024510D01*
X013135Y023760D01*
X013635Y022635D02*
X013635Y025635D01*
X013260Y026010D01*
X013260Y041260D01*
X015760Y039760D02*
X017260Y041260D01*
X017885Y040760D02*
X018260Y041260D01*
X018760Y041010D02*
X018260Y040510D01*
X018260Y029760D01*
X017760Y029260D01*
X017760Y023885D01*
X017635Y023760D01*
X016260Y024260D02*
X015760Y023760D01*
X015760Y021385D01*
X015260Y021260D02*
X016385Y020135D01*
X015260Y021260D02*
X015260Y024260D01*
X016260Y025260D01*
X015635Y025760D02*
X014510Y026885D01*
X013885Y026260D02*
X013760Y026385D01*
X013760Y047010D01*
X011760Y047510D02*
X011260Y048010D01*
X011260Y048260D01*
X011760Y047510D02*
X011760Y030385D01*
X011885Y030260D01*
X009510Y032260D02*
X010760Y033510D01*
X010760Y034010D01*
X008260Y030385D02*
X008260Y041260D01*
X007135Y042760D02*
X006135Y043760D01*
X006135Y049760D01*
X007760Y047760D02*
X008260Y048260D01*
X007760Y047760D02*
X007760Y030260D01*
X010635Y027385D01*
X011885Y026760D02*
X008260Y030385D01*
X007260Y030760D02*
X007135Y030885D01*
X007135Y042760D01*
X006635Y038760D02*
X006635Y036760D01*
X015010Y037510D02*
X015010Y027760D01*
X015760Y027760D01*
X016260Y028260D01*
X015760Y028510D02*
X015760Y039760D01*
X017885Y040760D02*
X017885Y030010D01*
X017635Y029760D01*
X015760Y028510D02*
X015510Y028260D01*
X019760Y031885D02*
X019760Y033760D01*
X019260Y034260D01*
X019760Y031885D02*
X019885Y031760D01*
X018635Y039510D02*
X018760Y039635D01*
X017260Y042260D02*
X016760Y042760D01*
X029635Y042260D02*
X029635Y041510D01*
X030885Y040260D01*
X030885Y032135D01*
X030760Y032010D01*
X030760Y028260D01*
X031260Y027760D01*
X032760Y028885D02*
X032760Y045260D01*
X032635Y045385D01*
X032635Y046260D01*
X033135Y045510D02*
X033135Y029135D01*
X033760Y028510D01*
X033760Y027760D01*
X034260Y027260D01*
X031260Y029760D02*
X031260Y040510D01*
X034135Y045760D02*
X034260Y045885D01*
X034260Y054635D01*
X033260Y055510D02*
X033260Y056135D01*
X039135Y051385D02*
X039135Y049385D01*
X039260Y049260D01*
X042260Y049260D02*
X042260Y053260D01*
X043885Y053510D02*
X044760Y052635D01*
X044760Y047635D01*
X045760Y051260D02*
X045760Y042760D01*
X045260Y042260D01*
X048760Y041010D02*
X049010Y040760D01*
X049010Y032385D01*
X048510Y028510D02*
X048510Y037260D01*
X041260Y041260D02*
X041260Y028135D01*
X042635Y026760D01*
X043260Y026260D02*
X043760Y026760D01*
X043760Y029385D01*
X043385Y029760D01*
X046260Y026260D02*
X048510Y028510D01*
X043260Y023260D02*
X039760Y026760D01*
X039760Y040010D01*
X038260Y031635D02*
X038260Y025260D01*
X037260Y024260D01*
X056760Y032385D02*
X056885Y032260D01*
X020760Y057385D02*
X020760Y058010D01*
X020760Y058635D01*
X018260Y058635D02*
X018260Y058010D01*
X015760Y058010D02*
X015760Y058635D01*
X013260Y058635D02*
X013260Y058010D01*
X010760Y058010D02*
X010760Y058635D01*
X008260Y058635D02*
X008260Y058010D01*
X013635Y022635D02*
X014385Y021885D01*
X007760Y008260D02*
X006260Y008260D01*
X007760Y008260D02*
X007760Y007260D01*
M02*
