G75*
G70*
%OFA0B0*%
%FSLAX24Y24*%
%IPPOS*%
%LPD*%
%AMOC8*
5,1,8,0,0,1.08239X$1,22.5*
%
%ADD10C,0.0000*%
%ADD11C,0.0050*%
%ADD12C,0.0040*%
%ADD13C,0.0060*%
%ADD14C,0.0080*%
D10*
X000363Y000101D02*
X000363Y000101D01*
X000363Y031976D01*
X148488Y031976D01*
X148488Y000101D01*
X000363Y000101D01*
X000363Y000101D01*
X011113Y003788D02*
X011116Y003845D01*
X011123Y003901D01*
X011136Y003957D01*
X011154Y004011D01*
X011177Y004063D01*
X011204Y004113D01*
X011236Y004160D01*
X011272Y004204D01*
X011311Y004245D01*
X011355Y004282D01*
X011401Y004314D01*
X011450Y004343D01*
X011502Y004367D01*
X011556Y004386D01*
X011611Y004400D01*
X011667Y004409D01*
X011724Y004413D01*
X011781Y004412D01*
X011837Y004405D01*
X011893Y004394D01*
X011947Y004377D01*
X012000Y004355D01*
X012050Y004329D01*
X012098Y004299D01*
X012143Y004264D01*
X012185Y004225D01*
X012223Y004182D01*
X012257Y004137D01*
X012286Y004088D01*
X012311Y004037D01*
X012332Y003984D01*
X012347Y003929D01*
X012357Y003873D01*
X012362Y003816D01*
X012362Y003760D01*
X012357Y003703D01*
X012347Y003647D01*
X012332Y003592D01*
X012311Y003539D01*
X012286Y003488D01*
X012257Y003439D01*
X012223Y003394D01*
X012185Y003351D01*
X012143Y003312D01*
X012098Y003277D01*
X012051Y003247D01*
X012000Y003221D01*
X011947Y003199D01*
X011893Y003182D01*
X011837Y003171D01*
X011781Y003164D01*
X011724Y003163D01*
X011667Y003167D01*
X011611Y003176D01*
X011556Y003190D01*
X011502Y003209D01*
X011450Y003233D01*
X011401Y003262D01*
X011355Y003294D01*
X011311Y003331D01*
X011272Y003372D01*
X011236Y003416D01*
X011204Y003463D01*
X011177Y003513D01*
X011154Y003565D01*
X011136Y003619D01*
X011123Y003675D01*
X011116Y003731D01*
X011113Y003788D01*
X031113Y003788D02*
X031116Y003845D01*
X031123Y003901D01*
X031136Y003957D01*
X031154Y004011D01*
X031177Y004063D01*
X031204Y004113D01*
X031236Y004160D01*
X031272Y004204D01*
X031311Y004245D01*
X031355Y004282D01*
X031401Y004314D01*
X031450Y004343D01*
X031502Y004367D01*
X031556Y004386D01*
X031611Y004400D01*
X031667Y004409D01*
X031724Y004413D01*
X031781Y004412D01*
X031837Y004405D01*
X031893Y004394D01*
X031947Y004377D01*
X032000Y004355D01*
X032050Y004329D01*
X032098Y004299D01*
X032143Y004264D01*
X032185Y004225D01*
X032223Y004182D01*
X032257Y004137D01*
X032286Y004088D01*
X032311Y004037D01*
X032332Y003984D01*
X032347Y003929D01*
X032357Y003873D01*
X032362Y003816D01*
X032362Y003760D01*
X032357Y003703D01*
X032347Y003647D01*
X032332Y003592D01*
X032311Y003539D01*
X032286Y003488D01*
X032257Y003439D01*
X032223Y003394D01*
X032185Y003351D01*
X032143Y003312D01*
X032098Y003277D01*
X032051Y003247D01*
X032000Y003221D01*
X031947Y003199D01*
X031893Y003182D01*
X031837Y003171D01*
X031781Y003164D01*
X031724Y003163D01*
X031667Y003167D01*
X031611Y003176D01*
X031556Y003190D01*
X031502Y003209D01*
X031450Y003233D01*
X031401Y003262D01*
X031355Y003294D01*
X031311Y003331D01*
X031272Y003372D01*
X031236Y003416D01*
X031204Y003463D01*
X031177Y003513D01*
X031154Y003565D01*
X031136Y003619D01*
X031123Y003675D01*
X031116Y003731D01*
X031113Y003788D01*
X037363Y003788D02*
X037366Y003845D01*
X037373Y003901D01*
X037386Y003957D01*
X037404Y004011D01*
X037427Y004063D01*
X037454Y004113D01*
X037486Y004160D01*
X037522Y004204D01*
X037561Y004245D01*
X037605Y004282D01*
X037651Y004314D01*
X037700Y004343D01*
X037752Y004367D01*
X037806Y004386D01*
X037861Y004400D01*
X037917Y004409D01*
X037974Y004413D01*
X038031Y004412D01*
X038087Y004405D01*
X038143Y004394D01*
X038197Y004377D01*
X038250Y004355D01*
X038300Y004329D01*
X038348Y004299D01*
X038393Y004264D01*
X038435Y004225D01*
X038473Y004182D01*
X038507Y004137D01*
X038536Y004088D01*
X038561Y004037D01*
X038582Y003984D01*
X038597Y003929D01*
X038607Y003873D01*
X038612Y003816D01*
X038612Y003760D01*
X038607Y003703D01*
X038597Y003647D01*
X038582Y003592D01*
X038561Y003539D01*
X038536Y003488D01*
X038507Y003439D01*
X038473Y003394D01*
X038435Y003351D01*
X038393Y003312D01*
X038348Y003277D01*
X038301Y003247D01*
X038250Y003221D01*
X038197Y003199D01*
X038143Y003182D01*
X038087Y003171D01*
X038031Y003164D01*
X037974Y003163D01*
X037917Y003167D01*
X037861Y003176D01*
X037806Y003190D01*
X037752Y003209D01*
X037700Y003233D01*
X037651Y003262D01*
X037605Y003294D01*
X037561Y003331D01*
X037522Y003372D01*
X037486Y003416D01*
X037454Y003463D01*
X037427Y003513D01*
X037404Y003565D01*
X037386Y003619D01*
X037373Y003675D01*
X037366Y003731D01*
X037363Y003788D01*
X057363Y003788D02*
X057366Y003845D01*
X057373Y003901D01*
X057386Y003957D01*
X057404Y004011D01*
X057427Y004063D01*
X057454Y004113D01*
X057486Y004160D01*
X057522Y004204D01*
X057561Y004245D01*
X057605Y004282D01*
X057651Y004314D01*
X057700Y004343D01*
X057752Y004367D01*
X057806Y004386D01*
X057861Y004400D01*
X057917Y004409D01*
X057974Y004413D01*
X058031Y004412D01*
X058087Y004405D01*
X058143Y004394D01*
X058197Y004377D01*
X058250Y004355D01*
X058300Y004329D01*
X058348Y004299D01*
X058393Y004264D01*
X058435Y004225D01*
X058473Y004182D01*
X058507Y004137D01*
X058536Y004088D01*
X058561Y004037D01*
X058582Y003984D01*
X058597Y003929D01*
X058607Y003873D01*
X058612Y003816D01*
X058612Y003760D01*
X058607Y003703D01*
X058597Y003647D01*
X058582Y003592D01*
X058561Y003539D01*
X058536Y003488D01*
X058507Y003439D01*
X058473Y003394D01*
X058435Y003351D01*
X058393Y003312D01*
X058348Y003277D01*
X058301Y003247D01*
X058250Y003221D01*
X058197Y003199D01*
X058143Y003182D01*
X058087Y003171D01*
X058031Y003164D01*
X057974Y003163D01*
X057917Y003167D01*
X057861Y003176D01*
X057806Y003190D01*
X057752Y003209D01*
X057700Y003233D01*
X057651Y003262D01*
X057605Y003294D01*
X057561Y003331D01*
X057522Y003372D01*
X057486Y003416D01*
X057454Y003463D01*
X057427Y003513D01*
X057404Y003565D01*
X057386Y003619D01*
X057373Y003675D01*
X057366Y003731D01*
X057363Y003788D01*
X068404Y009476D02*
X068407Y009540D01*
X068416Y009604D01*
X068430Y009667D01*
X068451Y009729D01*
X068476Y009788D01*
X068507Y009844D01*
X068543Y009898D01*
X068584Y009948D01*
X068629Y009994D01*
X068678Y010036D01*
X068731Y010073D01*
X068787Y010106D01*
X068845Y010133D01*
X068906Y010154D01*
X068969Y010170D01*
X069032Y010180D01*
X069097Y010185D01*
X069161Y010183D01*
X069226Y010176D01*
X069289Y010163D01*
X069350Y010144D01*
X069410Y010120D01*
X069467Y010090D01*
X069522Y010055D01*
X069573Y010016D01*
X069620Y009972D01*
X069663Y009923D01*
X069701Y009872D01*
X069735Y009816D01*
X069763Y009758D01*
X069786Y009698D01*
X069804Y009636D01*
X069815Y009573D01*
X069821Y009508D01*
X069821Y009444D01*
X069815Y009379D01*
X069804Y009316D01*
X069786Y009254D01*
X069763Y009194D01*
X069735Y009136D01*
X069701Y009080D01*
X069663Y009029D01*
X069620Y008980D01*
X069573Y008936D01*
X069522Y008897D01*
X069468Y008862D01*
X069410Y008832D01*
X069350Y008808D01*
X069289Y008789D01*
X069226Y008776D01*
X069161Y008769D01*
X069097Y008767D01*
X069032Y008772D01*
X068969Y008782D01*
X068906Y008798D01*
X068845Y008819D01*
X068787Y008846D01*
X068731Y008879D01*
X068678Y008916D01*
X068629Y008958D01*
X068584Y009004D01*
X068543Y009054D01*
X068507Y009108D01*
X068476Y009164D01*
X068451Y009223D01*
X068430Y009285D01*
X068416Y009348D01*
X068407Y009412D01*
X068404Y009476D01*
X078404Y009476D02*
X078407Y009540D01*
X078416Y009604D01*
X078430Y009667D01*
X078451Y009729D01*
X078476Y009788D01*
X078507Y009844D01*
X078543Y009898D01*
X078584Y009948D01*
X078629Y009994D01*
X078678Y010036D01*
X078731Y010073D01*
X078787Y010106D01*
X078845Y010133D01*
X078906Y010154D01*
X078969Y010170D01*
X079032Y010180D01*
X079097Y010185D01*
X079161Y010183D01*
X079226Y010176D01*
X079289Y010163D01*
X079350Y010144D01*
X079410Y010120D01*
X079467Y010090D01*
X079522Y010055D01*
X079573Y010016D01*
X079620Y009972D01*
X079663Y009923D01*
X079701Y009872D01*
X079735Y009816D01*
X079763Y009758D01*
X079786Y009698D01*
X079804Y009636D01*
X079815Y009573D01*
X079821Y009508D01*
X079821Y009444D01*
X079815Y009379D01*
X079804Y009316D01*
X079786Y009254D01*
X079763Y009194D01*
X079735Y009136D01*
X079701Y009080D01*
X079663Y009029D01*
X079620Y008980D01*
X079573Y008936D01*
X079522Y008897D01*
X079468Y008862D01*
X079410Y008832D01*
X079350Y008808D01*
X079289Y008789D01*
X079226Y008776D01*
X079161Y008769D01*
X079097Y008767D01*
X079032Y008772D01*
X078969Y008782D01*
X078906Y008798D01*
X078845Y008819D01*
X078787Y008846D01*
X078731Y008879D01*
X078678Y008916D01*
X078629Y008958D01*
X078584Y009004D01*
X078543Y009054D01*
X078507Y009108D01*
X078476Y009164D01*
X078451Y009223D01*
X078430Y009285D01*
X078416Y009348D01*
X078407Y009412D01*
X078404Y009476D01*
X079029Y012913D02*
X079032Y012977D01*
X079041Y013041D01*
X079055Y013104D01*
X079076Y013166D01*
X079101Y013225D01*
X079132Y013281D01*
X079168Y013335D01*
X079209Y013385D01*
X079254Y013431D01*
X079303Y013473D01*
X079356Y013510D01*
X079412Y013543D01*
X079470Y013570D01*
X079531Y013591D01*
X079594Y013607D01*
X079657Y013617D01*
X079722Y013622D01*
X079786Y013620D01*
X079851Y013613D01*
X079914Y013600D01*
X079975Y013581D01*
X080035Y013557D01*
X080092Y013527D01*
X080147Y013492D01*
X080198Y013453D01*
X080245Y013409D01*
X080288Y013360D01*
X080326Y013309D01*
X080360Y013253D01*
X080388Y013195D01*
X080411Y013135D01*
X080429Y013073D01*
X080440Y013010D01*
X080446Y012945D01*
X080446Y012881D01*
X080440Y012816D01*
X080429Y012753D01*
X080411Y012691D01*
X080388Y012631D01*
X080360Y012573D01*
X080326Y012517D01*
X080288Y012466D01*
X080245Y012417D01*
X080198Y012373D01*
X080147Y012334D01*
X080093Y012299D01*
X080035Y012269D01*
X079975Y012245D01*
X079914Y012226D01*
X079851Y012213D01*
X079786Y012206D01*
X079722Y012204D01*
X079657Y012209D01*
X079594Y012219D01*
X079531Y012235D01*
X079470Y012256D01*
X079412Y012283D01*
X079356Y012316D01*
X079303Y012353D01*
X079254Y012395D01*
X079209Y012441D01*
X079168Y012491D01*
X079132Y012545D01*
X079101Y012601D01*
X079076Y012660D01*
X079055Y012722D01*
X079041Y012785D01*
X079032Y012849D01*
X079029Y012913D01*
X069029Y012913D02*
X069032Y012977D01*
X069041Y013041D01*
X069055Y013104D01*
X069076Y013166D01*
X069101Y013225D01*
X069132Y013281D01*
X069168Y013335D01*
X069209Y013385D01*
X069254Y013431D01*
X069303Y013473D01*
X069356Y013510D01*
X069412Y013543D01*
X069470Y013570D01*
X069531Y013591D01*
X069594Y013607D01*
X069657Y013617D01*
X069722Y013622D01*
X069786Y013620D01*
X069851Y013613D01*
X069914Y013600D01*
X069975Y013581D01*
X070035Y013557D01*
X070092Y013527D01*
X070147Y013492D01*
X070198Y013453D01*
X070245Y013409D01*
X070288Y013360D01*
X070326Y013309D01*
X070360Y013253D01*
X070388Y013195D01*
X070411Y013135D01*
X070429Y013073D01*
X070440Y013010D01*
X070446Y012945D01*
X070446Y012881D01*
X070440Y012816D01*
X070429Y012753D01*
X070411Y012691D01*
X070388Y012631D01*
X070360Y012573D01*
X070326Y012517D01*
X070288Y012466D01*
X070245Y012417D01*
X070198Y012373D01*
X070147Y012334D01*
X070093Y012299D01*
X070035Y012269D01*
X069975Y012245D01*
X069914Y012226D01*
X069851Y012213D01*
X069786Y012206D01*
X069722Y012204D01*
X069657Y012209D01*
X069594Y012219D01*
X069531Y012235D01*
X069470Y012256D01*
X069412Y012283D01*
X069356Y012316D01*
X069303Y012353D01*
X069254Y012395D01*
X069209Y012441D01*
X069168Y012491D01*
X069132Y012545D01*
X069101Y012601D01*
X069076Y012660D01*
X069055Y012722D01*
X069041Y012785D01*
X069032Y012849D01*
X069029Y012913D01*
X035904Y012913D02*
X035907Y012977D01*
X035916Y013041D01*
X035930Y013104D01*
X035951Y013166D01*
X035976Y013225D01*
X036007Y013281D01*
X036043Y013335D01*
X036084Y013385D01*
X036129Y013431D01*
X036178Y013473D01*
X036231Y013510D01*
X036287Y013543D01*
X036345Y013570D01*
X036406Y013591D01*
X036469Y013607D01*
X036532Y013617D01*
X036597Y013622D01*
X036661Y013620D01*
X036726Y013613D01*
X036789Y013600D01*
X036850Y013581D01*
X036910Y013557D01*
X036967Y013527D01*
X037022Y013492D01*
X037073Y013453D01*
X037120Y013409D01*
X037163Y013360D01*
X037201Y013309D01*
X037235Y013253D01*
X037263Y013195D01*
X037286Y013135D01*
X037304Y013073D01*
X037315Y013010D01*
X037321Y012945D01*
X037321Y012881D01*
X037315Y012816D01*
X037304Y012753D01*
X037286Y012691D01*
X037263Y012631D01*
X037235Y012573D01*
X037201Y012517D01*
X037163Y012466D01*
X037120Y012417D01*
X037073Y012373D01*
X037022Y012334D01*
X036968Y012299D01*
X036910Y012269D01*
X036850Y012245D01*
X036789Y012226D01*
X036726Y012213D01*
X036661Y012206D01*
X036597Y012204D01*
X036532Y012209D01*
X036469Y012219D01*
X036406Y012235D01*
X036345Y012256D01*
X036287Y012283D01*
X036231Y012316D01*
X036178Y012353D01*
X036129Y012395D01*
X036084Y012441D01*
X036043Y012491D01*
X036007Y012545D01*
X035976Y012601D01*
X035951Y012660D01*
X035930Y012722D01*
X035916Y012785D01*
X035907Y012849D01*
X035904Y012913D01*
X008091Y009476D02*
X008094Y009540D01*
X008103Y009604D01*
X008117Y009667D01*
X008138Y009729D01*
X008163Y009788D01*
X008194Y009844D01*
X008230Y009898D01*
X008271Y009948D01*
X008316Y009994D01*
X008365Y010036D01*
X008418Y010073D01*
X008474Y010106D01*
X008532Y010133D01*
X008593Y010154D01*
X008656Y010170D01*
X008719Y010180D01*
X008784Y010185D01*
X008848Y010183D01*
X008913Y010176D01*
X008976Y010163D01*
X009037Y010144D01*
X009097Y010120D01*
X009154Y010090D01*
X009209Y010055D01*
X009260Y010016D01*
X009307Y009972D01*
X009350Y009923D01*
X009388Y009872D01*
X009422Y009816D01*
X009450Y009758D01*
X009473Y009698D01*
X009491Y009636D01*
X009502Y009573D01*
X009508Y009508D01*
X009508Y009444D01*
X009502Y009379D01*
X009491Y009316D01*
X009473Y009254D01*
X009450Y009194D01*
X009422Y009136D01*
X009388Y009080D01*
X009350Y009029D01*
X009307Y008980D01*
X009260Y008936D01*
X009209Y008897D01*
X009155Y008862D01*
X009097Y008832D01*
X009037Y008808D01*
X008976Y008789D01*
X008913Y008776D01*
X008848Y008769D01*
X008784Y008767D01*
X008719Y008772D01*
X008656Y008782D01*
X008593Y008798D01*
X008532Y008819D01*
X008474Y008846D01*
X008418Y008879D01*
X008365Y008916D01*
X008316Y008958D01*
X008271Y009004D01*
X008230Y009054D01*
X008194Y009108D01*
X008163Y009164D01*
X008138Y009223D01*
X008117Y009285D01*
X008103Y009348D01*
X008094Y009412D01*
X008091Y009476D01*
X003091Y012913D02*
X003094Y012977D01*
X003103Y013041D01*
X003117Y013104D01*
X003138Y013166D01*
X003163Y013225D01*
X003194Y013281D01*
X003230Y013335D01*
X003271Y013385D01*
X003316Y013431D01*
X003365Y013473D01*
X003418Y013510D01*
X003474Y013543D01*
X003532Y013570D01*
X003593Y013591D01*
X003656Y013607D01*
X003719Y013617D01*
X003784Y013622D01*
X003848Y013620D01*
X003913Y013613D01*
X003976Y013600D01*
X004037Y013581D01*
X004097Y013557D01*
X004154Y013527D01*
X004209Y013492D01*
X004260Y013453D01*
X004307Y013409D01*
X004350Y013360D01*
X004388Y013309D01*
X004422Y013253D01*
X004450Y013195D01*
X004473Y013135D01*
X004491Y013073D01*
X004502Y013010D01*
X004508Y012945D01*
X004508Y012881D01*
X004502Y012816D01*
X004491Y012753D01*
X004473Y012691D01*
X004450Y012631D01*
X004422Y012573D01*
X004388Y012517D01*
X004350Y012466D01*
X004307Y012417D01*
X004260Y012373D01*
X004209Y012334D01*
X004155Y012299D01*
X004097Y012269D01*
X004037Y012245D01*
X003976Y012226D01*
X003913Y012213D01*
X003848Y012206D01*
X003784Y012204D01*
X003719Y012209D01*
X003656Y012219D01*
X003593Y012235D01*
X003532Y012256D01*
X003474Y012283D01*
X003418Y012316D01*
X003365Y012353D01*
X003316Y012395D01*
X003271Y012441D01*
X003230Y012491D01*
X003194Y012545D01*
X003163Y012601D01*
X003138Y012660D01*
X003117Y012722D01*
X003103Y012785D01*
X003094Y012849D01*
X003091Y012913D01*
X008091Y029788D02*
X008094Y029852D01*
X008103Y029916D01*
X008117Y029979D01*
X008138Y030041D01*
X008163Y030100D01*
X008194Y030156D01*
X008230Y030210D01*
X008271Y030260D01*
X008316Y030306D01*
X008365Y030348D01*
X008418Y030385D01*
X008474Y030418D01*
X008532Y030445D01*
X008593Y030466D01*
X008656Y030482D01*
X008719Y030492D01*
X008784Y030497D01*
X008848Y030495D01*
X008913Y030488D01*
X008976Y030475D01*
X009037Y030456D01*
X009097Y030432D01*
X009154Y030402D01*
X009209Y030367D01*
X009260Y030328D01*
X009307Y030284D01*
X009350Y030235D01*
X009388Y030184D01*
X009422Y030128D01*
X009450Y030070D01*
X009473Y030010D01*
X009491Y029948D01*
X009502Y029885D01*
X009508Y029820D01*
X009508Y029756D01*
X009502Y029691D01*
X009491Y029628D01*
X009473Y029566D01*
X009450Y029506D01*
X009422Y029448D01*
X009388Y029392D01*
X009350Y029341D01*
X009307Y029292D01*
X009260Y029248D01*
X009209Y029209D01*
X009155Y029174D01*
X009097Y029144D01*
X009037Y029120D01*
X008976Y029101D01*
X008913Y029088D01*
X008848Y029081D01*
X008784Y029079D01*
X008719Y029084D01*
X008656Y029094D01*
X008593Y029110D01*
X008532Y029131D01*
X008474Y029158D01*
X008418Y029191D01*
X008365Y029228D01*
X008316Y029270D01*
X008271Y029316D01*
X008230Y029366D01*
X008194Y029420D01*
X008163Y029476D01*
X008138Y029535D01*
X008117Y029597D01*
X008103Y029660D01*
X008094Y029724D01*
X008091Y029788D01*
X068404Y029788D02*
X068407Y029852D01*
X068416Y029916D01*
X068430Y029979D01*
X068451Y030041D01*
X068476Y030100D01*
X068507Y030156D01*
X068543Y030210D01*
X068584Y030260D01*
X068629Y030306D01*
X068678Y030348D01*
X068731Y030385D01*
X068787Y030418D01*
X068845Y030445D01*
X068906Y030466D01*
X068969Y030482D01*
X069032Y030492D01*
X069097Y030497D01*
X069161Y030495D01*
X069226Y030488D01*
X069289Y030475D01*
X069350Y030456D01*
X069410Y030432D01*
X069467Y030402D01*
X069522Y030367D01*
X069573Y030328D01*
X069620Y030284D01*
X069663Y030235D01*
X069701Y030184D01*
X069735Y030128D01*
X069763Y030070D01*
X069786Y030010D01*
X069804Y029948D01*
X069815Y029885D01*
X069821Y029820D01*
X069821Y029756D01*
X069815Y029691D01*
X069804Y029628D01*
X069786Y029566D01*
X069763Y029506D01*
X069735Y029448D01*
X069701Y029392D01*
X069663Y029341D01*
X069620Y029292D01*
X069573Y029248D01*
X069522Y029209D01*
X069468Y029174D01*
X069410Y029144D01*
X069350Y029120D01*
X069289Y029101D01*
X069226Y029088D01*
X069161Y029081D01*
X069097Y029079D01*
X069032Y029084D01*
X068969Y029094D01*
X068906Y029110D01*
X068845Y029131D01*
X068787Y029158D01*
X068731Y029191D01*
X068678Y029228D01*
X068629Y029270D01*
X068584Y029316D01*
X068543Y029366D01*
X068507Y029420D01*
X068476Y029476D01*
X068451Y029535D01*
X068430Y029597D01*
X068416Y029660D01*
X068407Y029724D01*
X068404Y029788D01*
X078404Y029788D02*
X078407Y029852D01*
X078416Y029916D01*
X078430Y029979D01*
X078451Y030041D01*
X078476Y030100D01*
X078507Y030156D01*
X078543Y030210D01*
X078584Y030260D01*
X078629Y030306D01*
X078678Y030348D01*
X078731Y030385D01*
X078787Y030418D01*
X078845Y030445D01*
X078906Y030466D01*
X078969Y030482D01*
X079032Y030492D01*
X079097Y030497D01*
X079161Y030495D01*
X079226Y030488D01*
X079289Y030475D01*
X079350Y030456D01*
X079410Y030432D01*
X079467Y030402D01*
X079522Y030367D01*
X079573Y030328D01*
X079620Y030284D01*
X079663Y030235D01*
X079701Y030184D01*
X079735Y030128D01*
X079763Y030070D01*
X079786Y030010D01*
X079804Y029948D01*
X079815Y029885D01*
X079821Y029820D01*
X079821Y029756D01*
X079815Y029691D01*
X079804Y029628D01*
X079786Y029566D01*
X079763Y029506D01*
X079735Y029448D01*
X079701Y029392D01*
X079663Y029341D01*
X079620Y029292D01*
X079573Y029248D01*
X079522Y029209D01*
X079468Y029174D01*
X079410Y029144D01*
X079350Y029120D01*
X079289Y029101D01*
X079226Y029088D01*
X079161Y029081D01*
X079097Y029079D01*
X079032Y029084D01*
X078969Y029094D01*
X078906Y029110D01*
X078845Y029131D01*
X078787Y029158D01*
X078731Y029191D01*
X078678Y029228D01*
X078629Y029270D01*
X078584Y029316D01*
X078543Y029366D01*
X078507Y029420D01*
X078476Y029476D01*
X078451Y029535D01*
X078430Y029597D01*
X078416Y029660D01*
X078407Y029724D01*
X078404Y029788D01*
X138091Y029788D02*
X138094Y029852D01*
X138103Y029916D01*
X138117Y029979D01*
X138138Y030041D01*
X138163Y030100D01*
X138194Y030156D01*
X138230Y030210D01*
X138271Y030260D01*
X138316Y030306D01*
X138365Y030348D01*
X138418Y030385D01*
X138474Y030418D01*
X138532Y030445D01*
X138593Y030466D01*
X138656Y030482D01*
X138719Y030492D01*
X138784Y030497D01*
X138848Y030495D01*
X138913Y030488D01*
X138976Y030475D01*
X139037Y030456D01*
X139097Y030432D01*
X139154Y030402D01*
X139209Y030367D01*
X139260Y030328D01*
X139307Y030284D01*
X139350Y030235D01*
X139388Y030184D01*
X139422Y030128D01*
X139450Y030070D01*
X139473Y030010D01*
X139491Y029948D01*
X139502Y029885D01*
X139508Y029820D01*
X139508Y029756D01*
X139502Y029691D01*
X139491Y029628D01*
X139473Y029566D01*
X139450Y029506D01*
X139422Y029448D01*
X139388Y029392D01*
X139350Y029341D01*
X139307Y029292D01*
X139260Y029248D01*
X139209Y029209D01*
X139155Y029174D01*
X139097Y029144D01*
X139037Y029120D01*
X138976Y029101D01*
X138913Y029088D01*
X138848Y029081D01*
X138784Y029079D01*
X138719Y029084D01*
X138656Y029094D01*
X138593Y029110D01*
X138532Y029131D01*
X138474Y029158D01*
X138418Y029191D01*
X138365Y029228D01*
X138316Y029270D01*
X138271Y029316D01*
X138230Y029366D01*
X138194Y029420D01*
X138163Y029476D01*
X138138Y029535D01*
X138117Y029597D01*
X138103Y029660D01*
X138094Y029724D01*
X138091Y029788D01*
X145591Y012913D02*
X145594Y012977D01*
X145603Y013041D01*
X145617Y013104D01*
X145638Y013166D01*
X145663Y013225D01*
X145694Y013281D01*
X145730Y013335D01*
X145771Y013385D01*
X145816Y013431D01*
X145865Y013473D01*
X145918Y013510D01*
X145974Y013543D01*
X146032Y013570D01*
X146093Y013591D01*
X146156Y013607D01*
X146219Y013617D01*
X146284Y013622D01*
X146348Y013620D01*
X146413Y013613D01*
X146476Y013600D01*
X146537Y013581D01*
X146597Y013557D01*
X146654Y013527D01*
X146709Y013492D01*
X146760Y013453D01*
X146807Y013409D01*
X146850Y013360D01*
X146888Y013309D01*
X146922Y013253D01*
X146950Y013195D01*
X146973Y013135D01*
X146991Y013073D01*
X147002Y013010D01*
X147008Y012945D01*
X147008Y012881D01*
X147002Y012816D01*
X146991Y012753D01*
X146973Y012691D01*
X146950Y012631D01*
X146922Y012573D01*
X146888Y012517D01*
X146850Y012466D01*
X146807Y012417D01*
X146760Y012373D01*
X146709Y012334D01*
X146655Y012299D01*
X146597Y012269D01*
X146537Y012245D01*
X146476Y012226D01*
X146413Y012213D01*
X146348Y012206D01*
X146284Y012204D01*
X146219Y012209D01*
X146156Y012219D01*
X146093Y012235D01*
X146032Y012256D01*
X145974Y012283D01*
X145918Y012316D01*
X145865Y012353D01*
X145816Y012395D01*
X145771Y012441D01*
X145730Y012491D01*
X145694Y012545D01*
X145663Y012601D01*
X145638Y012660D01*
X145617Y012722D01*
X145603Y012785D01*
X145594Y012849D01*
X145591Y012913D01*
X138091Y009476D02*
X138094Y009540D01*
X138103Y009604D01*
X138117Y009667D01*
X138138Y009729D01*
X138163Y009788D01*
X138194Y009844D01*
X138230Y009898D01*
X138271Y009948D01*
X138316Y009994D01*
X138365Y010036D01*
X138418Y010073D01*
X138474Y010106D01*
X138532Y010133D01*
X138593Y010154D01*
X138656Y010170D01*
X138719Y010180D01*
X138784Y010185D01*
X138848Y010183D01*
X138913Y010176D01*
X138976Y010163D01*
X139037Y010144D01*
X139097Y010120D01*
X139154Y010090D01*
X139209Y010055D01*
X139260Y010016D01*
X139307Y009972D01*
X139350Y009923D01*
X139388Y009872D01*
X139422Y009816D01*
X139450Y009758D01*
X139473Y009698D01*
X139491Y009636D01*
X139502Y009573D01*
X139508Y009508D01*
X139508Y009444D01*
X139502Y009379D01*
X139491Y009316D01*
X139473Y009254D01*
X139450Y009194D01*
X139422Y009136D01*
X139388Y009080D01*
X139350Y009029D01*
X139307Y008980D01*
X139260Y008936D01*
X139209Y008897D01*
X139155Y008862D01*
X139097Y008832D01*
X139037Y008808D01*
X138976Y008789D01*
X138913Y008776D01*
X138848Y008769D01*
X138784Y008767D01*
X138719Y008772D01*
X138656Y008782D01*
X138593Y008798D01*
X138532Y008819D01*
X138474Y008846D01*
X138418Y008879D01*
X138365Y008916D01*
X138316Y008958D01*
X138271Y009004D01*
X138230Y009054D01*
X138194Y009108D01*
X138163Y009164D01*
X138138Y009223D01*
X138117Y009285D01*
X138103Y009348D01*
X138094Y009412D01*
X138091Y009476D01*
X112466Y012913D02*
X112469Y012977D01*
X112478Y013041D01*
X112492Y013104D01*
X112513Y013166D01*
X112538Y013225D01*
X112569Y013281D01*
X112605Y013335D01*
X112646Y013385D01*
X112691Y013431D01*
X112740Y013473D01*
X112793Y013510D01*
X112849Y013543D01*
X112907Y013570D01*
X112968Y013591D01*
X113031Y013607D01*
X113094Y013617D01*
X113159Y013622D01*
X113223Y013620D01*
X113288Y013613D01*
X113351Y013600D01*
X113412Y013581D01*
X113472Y013557D01*
X113529Y013527D01*
X113584Y013492D01*
X113635Y013453D01*
X113682Y013409D01*
X113725Y013360D01*
X113763Y013309D01*
X113797Y013253D01*
X113825Y013195D01*
X113848Y013135D01*
X113866Y013073D01*
X113877Y013010D01*
X113883Y012945D01*
X113883Y012881D01*
X113877Y012816D01*
X113866Y012753D01*
X113848Y012691D01*
X113825Y012631D01*
X113797Y012573D01*
X113763Y012517D01*
X113725Y012466D01*
X113682Y012417D01*
X113635Y012373D01*
X113584Y012334D01*
X113530Y012299D01*
X113472Y012269D01*
X113412Y012245D01*
X113351Y012226D01*
X113288Y012213D01*
X113223Y012206D01*
X113159Y012204D01*
X113094Y012209D01*
X113031Y012219D01*
X112968Y012235D01*
X112907Y012256D01*
X112849Y012283D01*
X112793Y012316D01*
X112740Y012353D01*
X112691Y012395D01*
X112646Y012441D01*
X112605Y012491D01*
X112569Y012545D01*
X112538Y012601D01*
X112513Y012660D01*
X112492Y012722D01*
X112478Y012785D01*
X112469Y012849D01*
X112466Y012913D01*
D11*
X113800Y015101D02*
X108175Y015101D01*
X108175Y023851D01*
X113800Y023851D01*
X113800Y015101D01*
X119425Y015101D01*
X119425Y023851D01*
X125050Y023851D01*
X125050Y015101D01*
X130675Y015101D01*
X130675Y023851D01*
X136300Y023851D01*
X136300Y015101D01*
X130675Y015101D01*
X130675Y023851D01*
X125050Y023851D01*
X125050Y015101D01*
X119425Y015101D01*
X119425Y023851D01*
X113800Y023851D01*
X113800Y023851D01*
X113800Y015101D01*
X113800Y015101D01*
X113800Y015101D01*
X108175Y015101D02*
X108175Y015101D01*
X108175Y023851D01*
X102550Y023851D01*
X102550Y015101D01*
X096925Y015101D01*
X096925Y023851D01*
X102550Y023851D01*
X102550Y023851D01*
X102550Y015101D01*
X102550Y015101D01*
X108175Y015101D01*
X096925Y015101D02*
X096925Y015101D01*
X096925Y023851D01*
X091300Y023851D01*
X091300Y015101D01*
X096925Y015101D01*
X091300Y015101D02*
X091300Y015101D01*
X091300Y023851D01*
X085675Y023851D01*
X085675Y015101D01*
X091300Y015101D01*
X085675Y015101D02*
X085675Y015101D01*
X085675Y023851D01*
X080050Y023851D01*
X080050Y015101D01*
X085675Y015101D01*
X080050Y015101D02*
X080050Y015101D01*
X080050Y023851D01*
X074425Y023851D01*
X074425Y015101D01*
X080050Y015101D01*
X074425Y015101D02*
X074425Y015101D01*
X074425Y023851D01*
X068800Y023851D01*
X068800Y015101D01*
X074425Y015101D01*
X068800Y015101D02*
X068800Y015101D01*
X068800Y023851D01*
X063175Y023851D01*
X063175Y015101D01*
X068800Y015101D01*
X063175Y015101D02*
X063175Y015101D01*
X063175Y023851D01*
X057550Y023851D01*
X057550Y015101D01*
X063175Y015101D01*
X057550Y015101D02*
X057550Y015101D01*
X057550Y023851D01*
X051925Y023851D01*
X051925Y015101D01*
X057550Y015101D01*
X051925Y015101D02*
X051925Y015101D01*
X051925Y023851D01*
X046300Y023851D01*
X046300Y015101D01*
X051925Y015101D01*
X046300Y015101D02*
X046300Y015101D01*
X046300Y023851D01*
X040675Y023851D01*
X040675Y015101D01*
X046300Y015101D01*
X040675Y015101D02*
X040675Y015101D01*
X040675Y023851D01*
X035050Y023851D01*
X035050Y015101D01*
X040675Y015101D01*
X035050Y015101D02*
X035050Y015101D01*
X035050Y023851D01*
X029425Y023851D01*
X029425Y015101D01*
X035050Y015101D01*
X029425Y015101D02*
X029425Y015101D01*
X029425Y023851D01*
X023800Y023851D01*
X023800Y015101D01*
X029425Y015101D01*
X023800Y015101D02*
X023800Y015101D01*
X023800Y023851D01*
X018175Y023851D01*
X018175Y015101D01*
X023800Y015101D01*
X018175Y015101D02*
X018175Y015101D01*
X018175Y023851D01*
X012550Y023851D01*
X012550Y015101D01*
X018175Y015101D01*
X012550Y015101D02*
X012550Y015101D01*
X012550Y023851D01*
X006925Y023851D01*
X006925Y015101D01*
X012550Y015101D01*
X006925Y015101D02*
X006925Y015101D01*
X006925Y023851D01*
X001300Y023851D01*
X001300Y015101D01*
X006925Y015101D01*
X006925Y023851D02*
X006925Y023851D01*
X012550Y023851D02*
X012550Y023851D01*
X018175Y023851D02*
X018175Y023851D01*
X023800Y023851D02*
X023800Y023851D01*
X029425Y023851D02*
X029425Y023851D01*
X035050Y023851D02*
X035050Y023851D01*
X040675Y023851D02*
X040675Y023851D01*
X046300Y023851D02*
X046300Y023851D01*
X051925Y023851D02*
X051925Y023851D01*
X057550Y023851D02*
X057550Y023851D01*
X063175Y023851D02*
X063175Y023851D01*
X068800Y023851D02*
X068800Y023851D01*
X074425Y023851D02*
X074425Y023851D01*
X080050Y023851D02*
X080050Y023851D01*
X085675Y023851D02*
X085675Y023851D01*
X091300Y023851D02*
X091300Y023851D01*
X096925Y023851D02*
X096925Y023851D01*
X108175Y023851D02*
X108175Y023851D01*
X113800Y023851D02*
X113800Y023851D01*
X125050Y023851D02*
X125050Y023851D01*
X130675Y023851D02*
X130675Y023851D01*
X136300Y023851D02*
X136300Y023851D01*
X136300Y015101D01*
X136300Y015101D01*
X141925Y015101D01*
X141925Y023851D01*
X147550Y023851D01*
X147550Y015101D01*
X141925Y015101D01*
X141925Y023851D01*
X136300Y023851D01*
X141925Y023851D02*
X141925Y023851D01*
X147550Y023851D02*
X147550Y023851D01*
X147550Y015101D02*
X147550Y015101D01*
X141925Y015101D02*
X141925Y015101D01*
X130675Y015101D02*
X130675Y015101D01*
X125050Y015101D02*
X125050Y015101D01*
D12*
X118979Y015004D02*
X118979Y014851D01*
X118903Y014774D01*
X118672Y014774D01*
X118672Y014621D02*
X118672Y015081D01*
X118903Y015081D01*
X118979Y015004D01*
X118979Y015246D02*
X118979Y015706D01*
X118826Y015553D01*
X118672Y015706D01*
X118672Y015246D01*
X118519Y015322D02*
X118519Y015629D01*
X118442Y015706D01*
X118289Y015706D01*
X118212Y015629D01*
X118212Y015322D01*
X118289Y015246D01*
X118442Y015246D01*
X118519Y015322D01*
X118519Y015081D02*
X118212Y015081D01*
X118212Y014621D01*
X118519Y014621D01*
X118365Y014851D02*
X118212Y014851D01*
X118059Y015004D02*
X117982Y015081D01*
X117752Y015081D01*
X117752Y014621D01*
X117982Y014621D01*
X118059Y014697D01*
X118059Y015004D01*
X118059Y015246D02*
X118059Y015706D01*
X117905Y015553D01*
X117752Y015706D01*
X117752Y015246D01*
X119758Y023246D02*
X119758Y023706D01*
X119911Y023553D01*
X120065Y023706D01*
X120065Y023246D01*
X120218Y023322D02*
X120295Y023246D01*
X120448Y023246D01*
X120525Y023322D01*
X120525Y023629D01*
X120448Y023706D01*
X120295Y023706D01*
X120218Y023629D01*
X120218Y023322D01*
X120679Y023246D02*
X120679Y023706D01*
X120832Y023553D01*
X120985Y023706D01*
X120985Y023246D01*
X120985Y023871D02*
X120985Y024178D01*
X120832Y024331D01*
X120679Y024178D01*
X120679Y023871D01*
X120525Y023871D02*
X120218Y024331D01*
X120065Y024331D02*
X119758Y024331D01*
X119758Y023871D01*
X120065Y023871D01*
X120218Y023871D02*
X120525Y024331D01*
X120679Y024101D02*
X120985Y024101D01*
X121139Y024331D02*
X121292Y024178D01*
X121446Y024331D01*
X121446Y023871D01*
X121139Y023871D02*
X121139Y024331D01*
X119911Y024101D02*
X119758Y024101D01*
X125383Y023947D02*
X125460Y023871D01*
X125613Y023871D01*
X125690Y023947D01*
X125843Y023947D02*
X125920Y023871D01*
X126073Y023871D01*
X126150Y023947D01*
X126150Y024254D01*
X126073Y024331D01*
X125920Y024331D01*
X125843Y024254D01*
X125843Y023947D01*
X125920Y023706D02*
X125843Y023629D01*
X125843Y023322D01*
X125920Y023246D01*
X126073Y023246D01*
X126150Y023322D01*
X126150Y023629D01*
X126073Y023706D01*
X125920Y023706D01*
X125690Y023706D02*
X125690Y023246D01*
X125383Y023246D02*
X125383Y023706D01*
X125536Y023553D01*
X125690Y023706D01*
X125383Y023947D02*
X125383Y024254D01*
X125460Y024331D01*
X125613Y024331D01*
X125690Y024254D01*
X126304Y024331D02*
X126304Y023871D01*
X126304Y023706D02*
X126457Y023553D01*
X126610Y023706D01*
X126610Y023246D01*
X126304Y023246D02*
X126304Y023706D01*
X126610Y023871D02*
X126610Y024331D01*
X126764Y024331D02*
X127071Y024331D01*
X126917Y024331D02*
X126917Y023871D01*
X126610Y023871D02*
X126304Y024331D01*
X131008Y024254D02*
X131008Y024178D01*
X131085Y024101D01*
X131238Y024101D01*
X131315Y024024D01*
X131315Y023947D01*
X131238Y023871D01*
X131085Y023871D01*
X131008Y023947D01*
X131008Y023706D02*
X131161Y023553D01*
X131315Y023706D01*
X131315Y023246D01*
X131468Y023322D02*
X131545Y023246D01*
X131698Y023246D01*
X131775Y023322D01*
X131775Y023629D01*
X131698Y023706D01*
X131545Y023706D01*
X131468Y023629D01*
X131468Y023322D01*
X131008Y023246D02*
X131008Y023706D01*
X131008Y024254D02*
X131085Y024331D01*
X131238Y024331D01*
X131315Y024254D01*
X131468Y024331D02*
X131775Y024331D01*
X131622Y024331D02*
X131622Y023871D01*
X131929Y023947D02*
X132005Y023871D01*
X132159Y023871D01*
X132235Y023947D01*
X132235Y024254D01*
X132159Y024331D01*
X132005Y024331D01*
X131929Y024254D01*
X131929Y023947D01*
X131929Y023706D02*
X132082Y023553D01*
X132235Y023706D01*
X132235Y023246D01*
X131929Y023246D02*
X131929Y023706D01*
X132389Y023871D02*
X132389Y024331D01*
X132619Y024331D01*
X132696Y024254D01*
X132696Y024101D01*
X132619Y024024D01*
X132389Y024024D01*
X136633Y023947D02*
X136710Y023871D01*
X136863Y023871D01*
X136940Y023947D01*
X136940Y024024D01*
X136863Y024101D01*
X136710Y024101D01*
X136633Y024178D01*
X136633Y024254D01*
X136710Y024331D01*
X136863Y024331D01*
X136940Y024254D01*
X137093Y024254D02*
X137170Y024331D01*
X137323Y024331D01*
X137400Y024254D01*
X137323Y024101D02*
X137400Y024024D01*
X137400Y023947D01*
X137323Y023871D01*
X137170Y023871D01*
X137093Y023947D01*
X137170Y024101D02*
X137323Y024101D01*
X137170Y024101D02*
X137093Y024178D01*
X137093Y024254D01*
X142258Y024254D02*
X142258Y024178D01*
X142335Y024101D01*
X142488Y024101D01*
X142565Y024024D01*
X142565Y023947D01*
X142488Y023871D01*
X142335Y023871D01*
X142258Y023947D01*
X142258Y024254D02*
X142335Y024331D01*
X142488Y024331D01*
X142565Y024254D01*
X142718Y024331D02*
X142872Y024331D01*
X142795Y024331D02*
X142795Y023871D01*
X142718Y023871D02*
X142872Y023871D01*
X123729Y027476D02*
X123422Y027476D01*
X123269Y027399D02*
X123269Y027706D01*
X123269Y027399D02*
X123116Y027246D01*
X122962Y027399D01*
X122962Y027706D01*
X119354Y027476D02*
X119047Y027476D01*
X118894Y027706D02*
X118587Y027399D01*
X118664Y027476D02*
X118894Y027246D01*
X118587Y027246D02*
X118587Y027706D01*
X118434Y027629D02*
X118357Y027706D01*
X118203Y027706D01*
X118127Y027629D01*
X118127Y027322D01*
X118203Y027246D01*
X118357Y027246D01*
X118434Y027322D01*
X117973Y027322D02*
X117973Y027629D01*
X117896Y027706D01*
X117743Y027706D01*
X117666Y027629D01*
X117666Y027322D01*
X117743Y027246D01*
X117896Y027246D01*
X117973Y027322D01*
X117513Y027246D02*
X117206Y027246D01*
X117206Y027706D01*
X109275Y024178D02*
X109122Y024331D01*
X108968Y024178D01*
X108968Y023871D01*
X108815Y023871D02*
X108508Y023871D01*
X108508Y024331D01*
X108968Y024101D02*
X109275Y024101D01*
X109275Y024178D02*
X109275Y023871D01*
X109198Y023706D02*
X109275Y023629D01*
X109275Y023322D01*
X109198Y023246D01*
X109045Y023246D01*
X108968Y023322D01*
X108968Y023629D01*
X109045Y023706D01*
X109198Y023706D01*
X109429Y023706D02*
X109582Y023553D01*
X109735Y023706D01*
X109735Y023246D01*
X109429Y023246D02*
X109429Y023706D01*
X108815Y023706D02*
X108815Y023246D01*
X108508Y023246D02*
X108508Y023706D01*
X108661Y023553D01*
X108815Y023706D01*
X105031Y024331D02*
X104724Y024331D01*
X104878Y024331D02*
X104878Y023871D01*
X104571Y023871D02*
X104417Y024024D01*
X104494Y024024D02*
X104264Y024024D01*
X104264Y023871D02*
X104264Y024331D01*
X104494Y024331D01*
X104571Y024254D01*
X104571Y024101D01*
X104494Y024024D01*
X104110Y024101D02*
X103804Y024101D01*
X103804Y024178D02*
X103957Y024331D01*
X104110Y024178D01*
X104110Y023871D01*
X104110Y023706D02*
X104110Y023246D01*
X103804Y023246D02*
X103804Y023706D01*
X103957Y023553D01*
X104110Y023706D01*
X103804Y023871D02*
X103804Y024178D01*
X103650Y024331D02*
X103343Y024331D01*
X103497Y024331D02*
X103497Y023871D01*
X103573Y023706D02*
X103650Y023629D01*
X103650Y023322D01*
X103573Y023246D01*
X103420Y023246D01*
X103343Y023322D01*
X103343Y023629D01*
X103420Y023706D01*
X103573Y023706D01*
X103190Y023706D02*
X103190Y023246D01*
X102883Y023246D02*
X102883Y023706D01*
X103036Y023553D01*
X103190Y023706D01*
X103113Y023871D02*
X102960Y023871D01*
X102883Y023947D01*
X102960Y024101D02*
X103113Y024101D01*
X103190Y024024D01*
X103190Y023947D01*
X103113Y023871D01*
X102960Y024101D02*
X102883Y024178D01*
X102883Y024254D01*
X102960Y024331D01*
X103113Y024331D01*
X103190Y024254D01*
X098716Y023871D02*
X098562Y023871D01*
X098639Y023871D02*
X098639Y024331D01*
X098562Y024254D01*
X098255Y024331D02*
X098255Y023871D01*
X098179Y023871D02*
X098332Y023871D01*
X098025Y023871D02*
X097872Y024024D01*
X097948Y024024D02*
X097718Y024024D01*
X097565Y024024D02*
X097565Y023947D01*
X097488Y023871D01*
X097335Y023871D01*
X097258Y023947D01*
X097335Y024101D02*
X097488Y024101D01*
X097565Y024024D01*
X097718Y023871D02*
X097718Y024331D01*
X097948Y024331D01*
X098025Y024254D01*
X098025Y024101D01*
X097948Y024024D01*
X098179Y024254D02*
X098255Y024331D01*
X097565Y024254D02*
X097488Y024331D01*
X097335Y024331D01*
X097258Y024254D01*
X097258Y024178D01*
X097335Y024101D01*
X093244Y024254D02*
X092937Y023947D01*
X093014Y023871D01*
X093167Y023871D01*
X093244Y023947D01*
X093244Y024254D01*
X093167Y024331D01*
X093014Y024331D01*
X092937Y024254D01*
X092937Y023947D01*
X092707Y023871D02*
X092554Y023871D01*
X092630Y023871D02*
X092630Y024331D01*
X092554Y024254D01*
X092400Y024254D02*
X092400Y024101D01*
X092323Y024024D01*
X092093Y024024D01*
X091940Y024024D02*
X091940Y023947D01*
X091863Y023871D01*
X091710Y023871D01*
X091633Y023947D01*
X091710Y024101D02*
X091863Y024101D01*
X091940Y024024D01*
X092093Y023871D02*
X092093Y024331D01*
X092323Y024331D01*
X092400Y024254D01*
X092247Y024024D02*
X092400Y023871D01*
X091940Y024254D02*
X091863Y024331D01*
X091710Y024331D01*
X091633Y024254D01*
X091633Y024178D01*
X091710Y024101D01*
X087235Y024101D02*
X087005Y024101D01*
X086929Y024178D01*
X086929Y024254D01*
X087005Y024331D01*
X087159Y024331D01*
X087235Y024254D01*
X087235Y023947D01*
X087159Y023871D01*
X087005Y023871D01*
X086929Y023947D01*
X086775Y023871D02*
X086622Y024024D01*
X086698Y024024D02*
X086468Y024024D01*
X086315Y024024D02*
X086315Y023947D01*
X086238Y023871D01*
X086085Y023871D01*
X086008Y023947D01*
X086085Y024101D02*
X086238Y024101D01*
X086315Y024024D01*
X086468Y023871D02*
X086468Y024331D01*
X086698Y024331D01*
X086775Y024254D01*
X086775Y024101D01*
X086698Y024024D01*
X086315Y024254D02*
X086238Y024331D01*
X086085Y024331D01*
X086008Y024254D01*
X086008Y024178D01*
X086085Y024101D01*
X081610Y024024D02*
X081610Y023947D01*
X081534Y023871D01*
X081380Y023871D01*
X081304Y023947D01*
X081304Y024024D01*
X081380Y024101D01*
X081534Y024101D01*
X081610Y024024D01*
X081534Y024101D02*
X081610Y024178D01*
X081610Y024254D01*
X081534Y024331D01*
X081380Y024331D01*
X081304Y024254D01*
X081304Y024178D01*
X081380Y024101D01*
X081150Y024101D02*
X081073Y024024D01*
X080843Y024024D01*
X080690Y024024D02*
X080690Y023947D01*
X080613Y023871D01*
X080460Y023871D01*
X080383Y023947D01*
X080460Y024101D02*
X080613Y024101D01*
X080690Y024024D01*
X080843Y023871D02*
X080843Y024331D01*
X081073Y024331D01*
X081150Y024254D01*
X081150Y024101D01*
X080997Y024024D02*
X081150Y023871D01*
X080690Y024254D02*
X080613Y024331D01*
X080460Y024331D01*
X080383Y024254D01*
X080383Y024178D01*
X080460Y024101D01*
X075985Y024254D02*
X075679Y023947D01*
X075679Y023871D01*
X075525Y023871D02*
X075372Y024024D01*
X075448Y024024D02*
X075218Y024024D01*
X075065Y024024D02*
X075065Y023947D01*
X074988Y023871D01*
X074835Y023871D01*
X074758Y023947D01*
X074835Y024101D02*
X074988Y024101D01*
X075065Y024024D01*
X075218Y023871D02*
X075218Y024331D01*
X075448Y024331D01*
X075525Y024254D01*
X075525Y024101D01*
X075448Y024024D01*
X075679Y024331D02*
X075985Y024331D01*
X075985Y024254D01*
X075065Y024254D02*
X074988Y024331D01*
X074835Y024331D01*
X074758Y024254D01*
X074758Y024178D01*
X074835Y024101D01*
X070360Y024024D02*
X070360Y023947D01*
X070284Y023871D01*
X070130Y023871D01*
X070054Y023947D01*
X070054Y024101D01*
X070284Y024101D01*
X070360Y024024D01*
X070207Y024254D02*
X070054Y024101D01*
X069900Y024101D02*
X069823Y024024D01*
X069593Y024024D01*
X069440Y024024D02*
X069440Y023947D01*
X069363Y023871D01*
X069210Y023871D01*
X069133Y023947D01*
X069210Y024101D02*
X069363Y024101D01*
X069440Y024024D01*
X069593Y023871D02*
X069593Y024331D01*
X069823Y024331D01*
X069900Y024254D01*
X069900Y024101D01*
X069747Y024024D02*
X069900Y023871D01*
X070207Y024254D02*
X070360Y024331D01*
X069440Y024254D02*
X069363Y024331D01*
X069210Y024331D01*
X069133Y024254D01*
X069133Y024178D01*
X069210Y024101D01*
X064735Y024101D02*
X064735Y023947D01*
X064659Y023871D01*
X064505Y023871D01*
X064429Y023947D01*
X064429Y024101D02*
X064582Y024178D01*
X064659Y024178D01*
X064735Y024101D01*
X064735Y024331D02*
X064429Y024331D01*
X064429Y024101D01*
X064275Y024101D02*
X064198Y024024D01*
X063968Y024024D01*
X063815Y024024D02*
X063815Y023947D01*
X063738Y023871D01*
X063585Y023871D01*
X063508Y023947D01*
X063585Y024101D02*
X063738Y024101D01*
X063815Y024024D01*
X063968Y023871D02*
X063968Y024331D01*
X064198Y024331D01*
X064275Y024254D01*
X064275Y024101D01*
X064122Y024024D02*
X064275Y023871D01*
X063815Y024254D02*
X063738Y024331D01*
X063585Y024331D01*
X063508Y024254D01*
X063508Y024178D01*
X063585Y024101D01*
X059110Y024101D02*
X058804Y024101D01*
X059034Y024331D01*
X059034Y023871D01*
X058650Y023871D02*
X058497Y024024D01*
X058573Y024024D02*
X058343Y024024D01*
X058190Y024024D02*
X058190Y023947D01*
X058113Y023871D01*
X057960Y023871D01*
X057883Y023947D01*
X057960Y024101D02*
X058113Y024101D01*
X058190Y024024D01*
X058343Y023871D02*
X058343Y024331D01*
X058573Y024331D01*
X058650Y024254D01*
X058650Y024101D01*
X058573Y024024D01*
X058190Y024254D02*
X058113Y024331D01*
X057960Y024331D01*
X057883Y024254D01*
X057883Y024178D01*
X057960Y024101D01*
X053485Y024024D02*
X053485Y023947D01*
X053409Y023871D01*
X053255Y023871D01*
X053179Y023947D01*
X053025Y023871D02*
X052872Y024024D01*
X052948Y024024D02*
X052718Y024024D01*
X052565Y024024D02*
X052565Y023947D01*
X052488Y023871D01*
X052335Y023871D01*
X052258Y023947D01*
X052335Y024101D02*
X052488Y024101D01*
X052565Y024024D01*
X052718Y023871D02*
X052718Y024331D01*
X052948Y024331D01*
X053025Y024254D01*
X053025Y024101D01*
X052948Y024024D01*
X053179Y024254D02*
X053255Y024331D01*
X053409Y024331D01*
X053485Y024254D01*
X053485Y024178D01*
X053409Y024101D01*
X053485Y024024D01*
X053409Y024101D02*
X053332Y024101D01*
X052565Y024254D02*
X052488Y024331D01*
X052335Y024331D01*
X052258Y024254D01*
X052258Y024178D01*
X052335Y024101D01*
X047860Y024178D02*
X047860Y024254D01*
X047784Y024331D01*
X047630Y024331D01*
X047554Y024254D01*
X047400Y024254D02*
X047400Y024101D01*
X047323Y024024D01*
X047093Y024024D01*
X046940Y024024D02*
X046940Y023947D01*
X046863Y023871D01*
X046710Y023871D01*
X046633Y023947D01*
X046710Y024101D02*
X046863Y024101D01*
X046940Y024024D01*
X047093Y023871D02*
X047093Y024331D01*
X047323Y024331D01*
X047400Y024254D01*
X047247Y024024D02*
X047400Y023871D01*
X047554Y023871D02*
X047860Y024178D01*
X047860Y023871D02*
X047554Y023871D01*
X046940Y024254D02*
X046863Y024331D01*
X046710Y024331D01*
X046633Y024254D01*
X046633Y024178D01*
X046710Y024101D01*
X042082Y023871D02*
X041929Y023871D01*
X042005Y023871D02*
X042005Y024331D01*
X041929Y024254D01*
X041775Y024254D02*
X041775Y024101D01*
X041698Y024024D01*
X041468Y024024D01*
X041315Y024024D02*
X041315Y023947D01*
X041238Y023871D01*
X041085Y023871D01*
X041008Y023947D01*
X041085Y024101D02*
X041238Y024101D01*
X041315Y024024D01*
X041468Y023871D02*
X041468Y024331D01*
X041698Y024331D01*
X041775Y024254D01*
X041622Y024024D02*
X041775Y023871D01*
X041315Y024254D02*
X041238Y024331D01*
X041085Y024331D01*
X041008Y024254D01*
X041008Y024178D01*
X041085Y024101D01*
X036610Y024254D02*
X036304Y023947D01*
X036380Y023871D01*
X036534Y023871D01*
X036610Y023947D01*
X036610Y024254D01*
X036534Y024331D01*
X036380Y024331D01*
X036304Y024254D01*
X036304Y023947D01*
X036150Y023871D02*
X035997Y024024D01*
X036073Y024024D02*
X035843Y024024D01*
X035690Y024024D02*
X035690Y023947D01*
X035613Y023871D01*
X035460Y023871D01*
X035383Y023947D01*
X035460Y024101D02*
X035613Y024101D01*
X035690Y024024D01*
X035843Y023871D02*
X035843Y024331D01*
X036073Y024331D01*
X036150Y024254D01*
X036150Y024101D01*
X036073Y024024D01*
X035690Y024254D02*
X035613Y024331D01*
X035460Y024331D01*
X035383Y024254D01*
X035383Y024178D01*
X035460Y024101D01*
X030985Y024178D02*
X030679Y023871D01*
X030985Y023871D01*
X030985Y024178D02*
X030985Y024254D01*
X030909Y024331D01*
X030755Y024331D01*
X030679Y024254D01*
X030525Y024331D02*
X030218Y024331D01*
X030218Y023871D01*
X030065Y023947D02*
X030065Y024254D01*
X029988Y024331D01*
X029758Y024331D01*
X029758Y023871D01*
X029988Y023871D01*
X030065Y023947D01*
X030218Y024101D02*
X030372Y024101D01*
X025207Y023871D02*
X025054Y023871D01*
X025130Y023871D02*
X025130Y024331D01*
X025054Y024254D01*
X024900Y024331D02*
X024593Y024331D01*
X024593Y023871D01*
X024440Y023947D02*
X024440Y024254D01*
X024363Y024331D01*
X024133Y024331D01*
X024133Y023871D01*
X024363Y023871D01*
X024440Y023947D01*
X024593Y024101D02*
X024747Y024101D01*
X019735Y024254D02*
X019429Y023947D01*
X019505Y023871D01*
X019659Y023871D01*
X019735Y023947D01*
X019735Y024254D01*
X019659Y024331D01*
X019505Y024331D01*
X019429Y024254D01*
X019429Y023947D01*
X019122Y024101D02*
X018968Y024101D01*
X018815Y024254D02*
X018738Y024331D01*
X018508Y024331D01*
X018508Y023871D01*
X018738Y023871D01*
X018815Y023947D01*
X018815Y024254D01*
X018968Y024331D02*
X018968Y023871D01*
X018968Y024331D02*
X019275Y024331D01*
X014034Y024254D02*
X013957Y024331D01*
X013804Y024331D01*
X013727Y024254D01*
X013573Y024331D02*
X013266Y024331D01*
X013266Y023871D01*
X013036Y023871D02*
X012883Y023871D01*
X012960Y023871D02*
X012960Y024331D01*
X013036Y024331D02*
X012883Y024331D01*
X013266Y024101D02*
X013420Y024101D01*
X013727Y023871D02*
X014034Y024178D01*
X014034Y024254D01*
X014034Y023871D02*
X013727Y023871D01*
X008255Y023871D02*
X008102Y023871D01*
X008179Y023871D02*
X008179Y024331D01*
X008102Y024254D01*
X007948Y024331D02*
X007641Y024331D01*
X007641Y023871D01*
X007411Y023871D02*
X007258Y023871D01*
X007335Y023871D02*
X007335Y024331D01*
X007411Y024331D02*
X007258Y024331D01*
X007641Y024101D02*
X007795Y024101D01*
X002784Y024254D02*
X002477Y023947D01*
X002554Y023871D01*
X002707Y023871D01*
X002784Y023947D01*
X002784Y024254D01*
X002707Y024331D01*
X002554Y024331D01*
X002477Y024254D01*
X002477Y023947D01*
X002170Y024101D02*
X002016Y024101D01*
X002016Y023871D02*
X002016Y024331D01*
X002323Y024331D01*
X001786Y024331D02*
X001633Y024331D01*
X001710Y024331D02*
X001710Y023871D01*
X001786Y023871D02*
X001633Y023871D01*
D13*
X007450Y029788D02*
X007456Y029911D01*
X007472Y030033D01*
X007500Y030152D01*
X007539Y030269D01*
X007588Y030382D01*
X007647Y030489D01*
X007715Y030591D01*
X007793Y030687D01*
X007879Y030775D01*
X007972Y030854D01*
X008072Y030925D01*
X008179Y030987D01*
X008290Y031038D01*
X008406Y031079D01*
X008525Y031110D01*
X008647Y031129D01*
X008769Y031138D01*
X008892Y031135D01*
X009014Y031121D01*
X009135Y031096D01*
X009252Y031060D01*
X009366Y031014D01*
X009475Y030957D01*
X009579Y030891D01*
X009676Y030816D01*
X009765Y030732D01*
X009847Y030640D01*
X009920Y030541D01*
X009984Y030436D01*
X010038Y030326D01*
X010082Y030211D01*
X010115Y030093D01*
X010137Y029972D01*
X010149Y029849D01*
X010149Y029727D01*
X010137Y029604D01*
X010115Y029483D01*
X010082Y029365D01*
X010038Y029250D01*
X009984Y029140D01*
X009920Y029035D01*
X009847Y028936D01*
X009765Y028844D01*
X009676Y028760D01*
X009579Y028685D01*
X009475Y028619D01*
X009366Y028562D01*
X009252Y028516D01*
X009135Y028480D01*
X009014Y028455D01*
X008892Y028441D01*
X008769Y028438D01*
X008647Y028447D01*
X008525Y028466D01*
X008406Y028497D01*
X008290Y028538D01*
X008179Y028589D01*
X008072Y028651D01*
X007972Y028722D01*
X007879Y028801D01*
X007793Y028889D01*
X007715Y028985D01*
X007647Y029087D01*
X007588Y029194D01*
X007539Y029307D01*
X007500Y029424D01*
X007472Y029543D01*
X007456Y029665D01*
X007450Y029788D01*
X067763Y029788D02*
X067769Y029911D01*
X067785Y030033D01*
X067813Y030152D01*
X067852Y030269D01*
X067901Y030382D01*
X067960Y030489D01*
X068028Y030591D01*
X068106Y030687D01*
X068192Y030775D01*
X068285Y030854D01*
X068385Y030925D01*
X068492Y030987D01*
X068603Y031038D01*
X068719Y031079D01*
X068838Y031110D01*
X068960Y031129D01*
X069082Y031138D01*
X069205Y031135D01*
X069327Y031121D01*
X069448Y031096D01*
X069565Y031060D01*
X069679Y031014D01*
X069788Y030957D01*
X069892Y030891D01*
X069989Y030816D01*
X070078Y030732D01*
X070160Y030640D01*
X070233Y030541D01*
X070297Y030436D01*
X070351Y030326D01*
X070395Y030211D01*
X070428Y030093D01*
X070450Y029972D01*
X070462Y029849D01*
X070462Y029727D01*
X070450Y029604D01*
X070428Y029483D01*
X070395Y029365D01*
X070351Y029250D01*
X070297Y029140D01*
X070233Y029035D01*
X070160Y028936D01*
X070078Y028844D01*
X069989Y028760D01*
X069892Y028685D01*
X069788Y028619D01*
X069679Y028562D01*
X069565Y028516D01*
X069448Y028480D01*
X069327Y028455D01*
X069205Y028441D01*
X069082Y028438D01*
X068960Y028447D01*
X068838Y028466D01*
X068719Y028497D01*
X068603Y028538D01*
X068492Y028589D01*
X068385Y028651D01*
X068285Y028722D01*
X068192Y028801D01*
X068106Y028889D01*
X068028Y028985D01*
X067960Y029087D01*
X067901Y029194D01*
X067852Y029307D01*
X067813Y029424D01*
X067785Y029543D01*
X067769Y029665D01*
X067763Y029788D01*
X077763Y029788D02*
X077769Y029911D01*
X077785Y030033D01*
X077813Y030152D01*
X077852Y030269D01*
X077901Y030382D01*
X077960Y030489D01*
X078028Y030591D01*
X078106Y030687D01*
X078192Y030775D01*
X078285Y030854D01*
X078385Y030925D01*
X078492Y030987D01*
X078603Y031038D01*
X078719Y031079D01*
X078838Y031110D01*
X078960Y031129D01*
X079082Y031138D01*
X079205Y031135D01*
X079327Y031121D01*
X079448Y031096D01*
X079565Y031060D01*
X079679Y031014D01*
X079788Y030957D01*
X079892Y030891D01*
X079989Y030816D01*
X080078Y030732D01*
X080160Y030640D01*
X080233Y030541D01*
X080297Y030436D01*
X080351Y030326D01*
X080395Y030211D01*
X080428Y030093D01*
X080450Y029972D01*
X080462Y029849D01*
X080462Y029727D01*
X080450Y029604D01*
X080428Y029483D01*
X080395Y029365D01*
X080351Y029250D01*
X080297Y029140D01*
X080233Y029035D01*
X080160Y028936D01*
X080078Y028844D01*
X079989Y028760D01*
X079892Y028685D01*
X079788Y028619D01*
X079679Y028562D01*
X079565Y028516D01*
X079448Y028480D01*
X079327Y028455D01*
X079205Y028441D01*
X079082Y028438D01*
X078960Y028447D01*
X078838Y028466D01*
X078719Y028497D01*
X078603Y028538D01*
X078492Y028589D01*
X078385Y028651D01*
X078285Y028722D01*
X078192Y028801D01*
X078106Y028889D01*
X078028Y028985D01*
X077960Y029087D01*
X077901Y029194D01*
X077852Y029307D01*
X077813Y029424D01*
X077785Y029543D01*
X077769Y029665D01*
X077763Y029788D01*
X137450Y029788D02*
X137456Y029911D01*
X137472Y030033D01*
X137500Y030152D01*
X137539Y030269D01*
X137588Y030382D01*
X137647Y030489D01*
X137715Y030591D01*
X137793Y030687D01*
X137879Y030775D01*
X137972Y030854D01*
X138072Y030925D01*
X138179Y030987D01*
X138290Y031038D01*
X138406Y031079D01*
X138525Y031110D01*
X138647Y031129D01*
X138769Y031138D01*
X138892Y031135D01*
X139014Y031121D01*
X139135Y031096D01*
X139252Y031060D01*
X139366Y031014D01*
X139475Y030957D01*
X139579Y030891D01*
X139676Y030816D01*
X139765Y030732D01*
X139847Y030640D01*
X139920Y030541D01*
X139984Y030436D01*
X140038Y030326D01*
X140082Y030211D01*
X140115Y030093D01*
X140137Y029972D01*
X140149Y029849D01*
X140149Y029727D01*
X140137Y029604D01*
X140115Y029483D01*
X140082Y029365D01*
X140038Y029250D01*
X139984Y029140D01*
X139920Y029035D01*
X139847Y028936D01*
X139765Y028844D01*
X139676Y028760D01*
X139579Y028685D01*
X139475Y028619D01*
X139366Y028562D01*
X139252Y028516D01*
X139135Y028480D01*
X139014Y028455D01*
X138892Y028441D01*
X138769Y028438D01*
X138647Y028447D01*
X138525Y028466D01*
X138406Y028497D01*
X138290Y028538D01*
X138179Y028589D01*
X138072Y028651D01*
X137972Y028722D01*
X137879Y028801D01*
X137793Y028889D01*
X137715Y028985D01*
X137647Y029087D01*
X137588Y029194D01*
X137539Y029307D01*
X137500Y029424D01*
X137472Y029543D01*
X137456Y029665D01*
X137450Y029788D01*
X144950Y012913D02*
X144956Y013036D01*
X144972Y013158D01*
X145000Y013277D01*
X145039Y013394D01*
X145088Y013507D01*
X145147Y013614D01*
X145215Y013716D01*
X145293Y013812D01*
X145379Y013900D01*
X145472Y013979D01*
X145572Y014050D01*
X145679Y014112D01*
X145790Y014163D01*
X145906Y014204D01*
X146025Y014235D01*
X146147Y014254D01*
X146269Y014263D01*
X146392Y014260D01*
X146514Y014246D01*
X146635Y014221D01*
X146752Y014185D01*
X146866Y014139D01*
X146975Y014082D01*
X147079Y014016D01*
X147176Y013941D01*
X147265Y013857D01*
X147347Y013765D01*
X147420Y013666D01*
X147484Y013561D01*
X147538Y013451D01*
X147582Y013336D01*
X147615Y013218D01*
X147637Y013097D01*
X147649Y012974D01*
X147649Y012852D01*
X147637Y012729D01*
X147615Y012608D01*
X147582Y012490D01*
X147538Y012375D01*
X147484Y012265D01*
X147420Y012160D01*
X147347Y012061D01*
X147265Y011969D01*
X147176Y011885D01*
X147079Y011810D01*
X146975Y011744D01*
X146866Y011687D01*
X146752Y011641D01*
X146635Y011605D01*
X146514Y011580D01*
X146392Y011566D01*
X146269Y011563D01*
X146147Y011572D01*
X146025Y011591D01*
X145906Y011622D01*
X145790Y011663D01*
X145679Y011714D01*
X145572Y011776D01*
X145472Y011847D01*
X145379Y011926D01*
X145293Y012014D01*
X145215Y012110D01*
X145147Y012212D01*
X145088Y012319D01*
X145039Y012432D01*
X145000Y012549D01*
X144972Y012668D01*
X144956Y012790D01*
X144950Y012913D01*
X137450Y009476D02*
X137456Y009599D01*
X137472Y009721D01*
X137500Y009840D01*
X137539Y009957D01*
X137588Y010070D01*
X137647Y010177D01*
X137715Y010279D01*
X137793Y010375D01*
X137879Y010463D01*
X137972Y010542D01*
X138072Y010613D01*
X138179Y010675D01*
X138290Y010726D01*
X138406Y010767D01*
X138525Y010798D01*
X138647Y010817D01*
X138769Y010826D01*
X138892Y010823D01*
X139014Y010809D01*
X139135Y010784D01*
X139252Y010748D01*
X139366Y010702D01*
X139475Y010645D01*
X139579Y010579D01*
X139676Y010504D01*
X139765Y010420D01*
X139847Y010328D01*
X139920Y010229D01*
X139984Y010124D01*
X140038Y010014D01*
X140082Y009899D01*
X140115Y009781D01*
X140137Y009660D01*
X140149Y009537D01*
X140149Y009415D01*
X140137Y009292D01*
X140115Y009171D01*
X140082Y009053D01*
X140038Y008938D01*
X139984Y008828D01*
X139920Y008723D01*
X139847Y008624D01*
X139765Y008532D01*
X139676Y008448D01*
X139579Y008373D01*
X139475Y008307D01*
X139366Y008250D01*
X139252Y008204D01*
X139135Y008168D01*
X139014Y008143D01*
X138892Y008129D01*
X138769Y008126D01*
X138647Y008135D01*
X138525Y008154D01*
X138406Y008185D01*
X138290Y008226D01*
X138179Y008277D01*
X138072Y008339D01*
X137972Y008410D01*
X137879Y008489D01*
X137793Y008577D01*
X137715Y008673D01*
X137647Y008775D01*
X137588Y008882D01*
X137539Y008995D01*
X137500Y009112D01*
X137472Y009231D01*
X137456Y009353D01*
X137450Y009476D01*
X111825Y012913D02*
X111831Y013036D01*
X111847Y013158D01*
X111875Y013277D01*
X111914Y013394D01*
X111963Y013507D01*
X112022Y013614D01*
X112090Y013716D01*
X112168Y013812D01*
X112254Y013900D01*
X112347Y013979D01*
X112447Y014050D01*
X112554Y014112D01*
X112665Y014163D01*
X112781Y014204D01*
X112900Y014235D01*
X113022Y014254D01*
X113144Y014263D01*
X113267Y014260D01*
X113389Y014246D01*
X113510Y014221D01*
X113627Y014185D01*
X113741Y014139D01*
X113850Y014082D01*
X113954Y014016D01*
X114051Y013941D01*
X114140Y013857D01*
X114222Y013765D01*
X114295Y013666D01*
X114359Y013561D01*
X114413Y013451D01*
X114457Y013336D01*
X114490Y013218D01*
X114512Y013097D01*
X114524Y012974D01*
X114524Y012852D01*
X114512Y012729D01*
X114490Y012608D01*
X114457Y012490D01*
X114413Y012375D01*
X114359Y012265D01*
X114295Y012160D01*
X114222Y012061D01*
X114140Y011969D01*
X114051Y011885D01*
X113954Y011810D01*
X113850Y011744D01*
X113741Y011687D01*
X113627Y011641D01*
X113510Y011605D01*
X113389Y011580D01*
X113267Y011566D01*
X113144Y011563D01*
X113022Y011572D01*
X112900Y011591D01*
X112781Y011622D01*
X112665Y011663D01*
X112554Y011714D01*
X112447Y011776D01*
X112347Y011847D01*
X112254Y011926D01*
X112168Y012014D01*
X112090Y012110D01*
X112022Y012212D01*
X111963Y012319D01*
X111914Y012432D01*
X111875Y012549D01*
X111847Y012668D01*
X111831Y012790D01*
X111825Y012913D01*
X078388Y012913D02*
X078394Y013036D01*
X078410Y013158D01*
X078438Y013277D01*
X078477Y013394D01*
X078526Y013507D01*
X078585Y013614D01*
X078653Y013716D01*
X078731Y013812D01*
X078817Y013900D01*
X078910Y013979D01*
X079010Y014050D01*
X079117Y014112D01*
X079228Y014163D01*
X079344Y014204D01*
X079463Y014235D01*
X079585Y014254D01*
X079707Y014263D01*
X079830Y014260D01*
X079952Y014246D01*
X080073Y014221D01*
X080190Y014185D01*
X080304Y014139D01*
X080413Y014082D01*
X080517Y014016D01*
X080614Y013941D01*
X080703Y013857D01*
X080785Y013765D01*
X080858Y013666D01*
X080922Y013561D01*
X080976Y013451D01*
X081020Y013336D01*
X081053Y013218D01*
X081075Y013097D01*
X081087Y012974D01*
X081087Y012852D01*
X081075Y012729D01*
X081053Y012608D01*
X081020Y012490D01*
X080976Y012375D01*
X080922Y012265D01*
X080858Y012160D01*
X080785Y012061D01*
X080703Y011969D01*
X080614Y011885D01*
X080517Y011810D01*
X080413Y011744D01*
X080304Y011687D01*
X080190Y011641D01*
X080073Y011605D01*
X079952Y011580D01*
X079830Y011566D01*
X079707Y011563D01*
X079585Y011572D01*
X079463Y011591D01*
X079344Y011622D01*
X079228Y011663D01*
X079117Y011714D01*
X079010Y011776D01*
X078910Y011847D01*
X078817Y011926D01*
X078731Y012014D01*
X078653Y012110D01*
X078585Y012212D01*
X078526Y012319D01*
X078477Y012432D01*
X078438Y012549D01*
X078410Y012668D01*
X078394Y012790D01*
X078388Y012913D01*
X068388Y012913D02*
X068394Y013036D01*
X068410Y013158D01*
X068438Y013277D01*
X068477Y013394D01*
X068526Y013507D01*
X068585Y013614D01*
X068653Y013716D01*
X068731Y013812D01*
X068817Y013900D01*
X068910Y013979D01*
X069010Y014050D01*
X069117Y014112D01*
X069228Y014163D01*
X069344Y014204D01*
X069463Y014235D01*
X069585Y014254D01*
X069707Y014263D01*
X069830Y014260D01*
X069952Y014246D01*
X070073Y014221D01*
X070190Y014185D01*
X070304Y014139D01*
X070413Y014082D01*
X070517Y014016D01*
X070614Y013941D01*
X070703Y013857D01*
X070785Y013765D01*
X070858Y013666D01*
X070922Y013561D01*
X070976Y013451D01*
X071020Y013336D01*
X071053Y013218D01*
X071075Y013097D01*
X071087Y012974D01*
X071087Y012852D01*
X071075Y012729D01*
X071053Y012608D01*
X071020Y012490D01*
X070976Y012375D01*
X070922Y012265D01*
X070858Y012160D01*
X070785Y012061D01*
X070703Y011969D01*
X070614Y011885D01*
X070517Y011810D01*
X070413Y011744D01*
X070304Y011687D01*
X070190Y011641D01*
X070073Y011605D01*
X069952Y011580D01*
X069830Y011566D01*
X069707Y011563D01*
X069585Y011572D01*
X069463Y011591D01*
X069344Y011622D01*
X069228Y011663D01*
X069117Y011714D01*
X069010Y011776D01*
X068910Y011847D01*
X068817Y011926D01*
X068731Y012014D01*
X068653Y012110D01*
X068585Y012212D01*
X068526Y012319D01*
X068477Y012432D01*
X068438Y012549D01*
X068410Y012668D01*
X068394Y012790D01*
X068388Y012913D01*
X067763Y009476D02*
X067769Y009599D01*
X067785Y009721D01*
X067813Y009840D01*
X067852Y009957D01*
X067901Y010070D01*
X067960Y010177D01*
X068028Y010279D01*
X068106Y010375D01*
X068192Y010463D01*
X068285Y010542D01*
X068385Y010613D01*
X068492Y010675D01*
X068603Y010726D01*
X068719Y010767D01*
X068838Y010798D01*
X068960Y010817D01*
X069082Y010826D01*
X069205Y010823D01*
X069327Y010809D01*
X069448Y010784D01*
X069565Y010748D01*
X069679Y010702D01*
X069788Y010645D01*
X069892Y010579D01*
X069989Y010504D01*
X070078Y010420D01*
X070160Y010328D01*
X070233Y010229D01*
X070297Y010124D01*
X070351Y010014D01*
X070395Y009899D01*
X070428Y009781D01*
X070450Y009660D01*
X070462Y009537D01*
X070462Y009415D01*
X070450Y009292D01*
X070428Y009171D01*
X070395Y009053D01*
X070351Y008938D01*
X070297Y008828D01*
X070233Y008723D01*
X070160Y008624D01*
X070078Y008532D01*
X069989Y008448D01*
X069892Y008373D01*
X069788Y008307D01*
X069679Y008250D01*
X069565Y008204D01*
X069448Y008168D01*
X069327Y008143D01*
X069205Y008129D01*
X069082Y008126D01*
X068960Y008135D01*
X068838Y008154D01*
X068719Y008185D01*
X068603Y008226D01*
X068492Y008277D01*
X068385Y008339D01*
X068285Y008410D01*
X068192Y008489D01*
X068106Y008577D01*
X068028Y008673D01*
X067960Y008775D01*
X067901Y008882D01*
X067852Y008995D01*
X067813Y009112D01*
X067785Y009231D01*
X067769Y009353D01*
X067763Y009476D01*
X077763Y009476D02*
X077769Y009599D01*
X077785Y009721D01*
X077813Y009840D01*
X077852Y009957D01*
X077901Y010070D01*
X077960Y010177D01*
X078028Y010279D01*
X078106Y010375D01*
X078192Y010463D01*
X078285Y010542D01*
X078385Y010613D01*
X078492Y010675D01*
X078603Y010726D01*
X078719Y010767D01*
X078838Y010798D01*
X078960Y010817D01*
X079082Y010826D01*
X079205Y010823D01*
X079327Y010809D01*
X079448Y010784D01*
X079565Y010748D01*
X079679Y010702D01*
X079788Y010645D01*
X079892Y010579D01*
X079989Y010504D01*
X080078Y010420D01*
X080160Y010328D01*
X080233Y010229D01*
X080297Y010124D01*
X080351Y010014D01*
X080395Y009899D01*
X080428Y009781D01*
X080450Y009660D01*
X080462Y009537D01*
X080462Y009415D01*
X080450Y009292D01*
X080428Y009171D01*
X080395Y009053D01*
X080351Y008938D01*
X080297Y008828D01*
X080233Y008723D01*
X080160Y008624D01*
X080078Y008532D01*
X079989Y008448D01*
X079892Y008373D01*
X079788Y008307D01*
X079679Y008250D01*
X079565Y008204D01*
X079448Y008168D01*
X079327Y008143D01*
X079205Y008129D01*
X079082Y008126D01*
X078960Y008135D01*
X078838Y008154D01*
X078719Y008185D01*
X078603Y008226D01*
X078492Y008277D01*
X078385Y008339D01*
X078285Y008410D01*
X078192Y008489D01*
X078106Y008577D01*
X078028Y008673D01*
X077960Y008775D01*
X077901Y008882D01*
X077852Y008995D01*
X077813Y009112D01*
X077785Y009231D01*
X077769Y009353D01*
X077763Y009476D01*
X035263Y012913D02*
X035269Y013036D01*
X035285Y013158D01*
X035313Y013277D01*
X035352Y013394D01*
X035401Y013507D01*
X035460Y013614D01*
X035528Y013716D01*
X035606Y013812D01*
X035692Y013900D01*
X035785Y013979D01*
X035885Y014050D01*
X035992Y014112D01*
X036103Y014163D01*
X036219Y014204D01*
X036338Y014235D01*
X036460Y014254D01*
X036582Y014263D01*
X036705Y014260D01*
X036827Y014246D01*
X036948Y014221D01*
X037065Y014185D01*
X037179Y014139D01*
X037288Y014082D01*
X037392Y014016D01*
X037489Y013941D01*
X037578Y013857D01*
X037660Y013765D01*
X037733Y013666D01*
X037797Y013561D01*
X037851Y013451D01*
X037895Y013336D01*
X037928Y013218D01*
X037950Y013097D01*
X037962Y012974D01*
X037962Y012852D01*
X037950Y012729D01*
X037928Y012608D01*
X037895Y012490D01*
X037851Y012375D01*
X037797Y012265D01*
X037733Y012160D01*
X037660Y012061D01*
X037578Y011969D01*
X037489Y011885D01*
X037392Y011810D01*
X037288Y011744D01*
X037179Y011687D01*
X037065Y011641D01*
X036948Y011605D01*
X036827Y011580D01*
X036705Y011566D01*
X036582Y011563D01*
X036460Y011572D01*
X036338Y011591D01*
X036219Y011622D01*
X036103Y011663D01*
X035992Y011714D01*
X035885Y011776D01*
X035785Y011847D01*
X035692Y011926D01*
X035606Y012014D01*
X035528Y012110D01*
X035460Y012212D01*
X035401Y012319D01*
X035352Y012432D01*
X035313Y012549D01*
X035285Y012668D01*
X035269Y012790D01*
X035263Y012913D01*
X007450Y009476D02*
X007456Y009599D01*
X007472Y009721D01*
X007500Y009840D01*
X007539Y009957D01*
X007588Y010070D01*
X007647Y010177D01*
X007715Y010279D01*
X007793Y010375D01*
X007879Y010463D01*
X007972Y010542D01*
X008072Y010613D01*
X008179Y010675D01*
X008290Y010726D01*
X008406Y010767D01*
X008525Y010798D01*
X008647Y010817D01*
X008769Y010826D01*
X008892Y010823D01*
X009014Y010809D01*
X009135Y010784D01*
X009252Y010748D01*
X009366Y010702D01*
X009475Y010645D01*
X009579Y010579D01*
X009676Y010504D01*
X009765Y010420D01*
X009847Y010328D01*
X009920Y010229D01*
X009984Y010124D01*
X010038Y010014D01*
X010082Y009899D01*
X010115Y009781D01*
X010137Y009660D01*
X010149Y009537D01*
X010149Y009415D01*
X010137Y009292D01*
X010115Y009171D01*
X010082Y009053D01*
X010038Y008938D01*
X009984Y008828D01*
X009920Y008723D01*
X009847Y008624D01*
X009765Y008532D01*
X009676Y008448D01*
X009579Y008373D01*
X009475Y008307D01*
X009366Y008250D01*
X009252Y008204D01*
X009135Y008168D01*
X009014Y008143D01*
X008892Y008129D01*
X008769Y008126D01*
X008647Y008135D01*
X008525Y008154D01*
X008406Y008185D01*
X008290Y008226D01*
X008179Y008277D01*
X008072Y008339D01*
X007972Y008410D01*
X007879Y008489D01*
X007793Y008577D01*
X007715Y008673D01*
X007647Y008775D01*
X007588Y008882D01*
X007539Y008995D01*
X007500Y009112D01*
X007472Y009231D01*
X007456Y009353D01*
X007450Y009476D01*
X002450Y012913D02*
X002456Y013036D01*
X002472Y013158D01*
X002500Y013277D01*
X002539Y013394D01*
X002588Y013507D01*
X002647Y013614D01*
X002715Y013716D01*
X002793Y013812D01*
X002879Y013900D01*
X002972Y013979D01*
X003072Y014050D01*
X003179Y014112D01*
X003290Y014163D01*
X003406Y014204D01*
X003525Y014235D01*
X003647Y014254D01*
X003769Y014263D01*
X003892Y014260D01*
X004014Y014246D01*
X004135Y014221D01*
X004252Y014185D01*
X004366Y014139D01*
X004475Y014082D01*
X004579Y014016D01*
X004676Y013941D01*
X004765Y013857D01*
X004847Y013765D01*
X004920Y013666D01*
X004984Y013561D01*
X005038Y013451D01*
X005082Y013336D01*
X005115Y013218D01*
X005137Y013097D01*
X005149Y012974D01*
X005149Y012852D01*
X005137Y012729D01*
X005115Y012608D01*
X005082Y012490D01*
X005038Y012375D01*
X004984Y012265D01*
X004920Y012160D01*
X004847Y012061D01*
X004765Y011969D01*
X004676Y011885D01*
X004579Y011810D01*
X004475Y011744D01*
X004366Y011687D01*
X004252Y011641D01*
X004135Y011605D01*
X004014Y011580D01*
X003892Y011566D01*
X003769Y011563D01*
X003647Y011572D01*
X003525Y011591D01*
X003406Y011622D01*
X003290Y011663D01*
X003179Y011714D01*
X003072Y011776D01*
X002972Y011847D01*
X002879Y011926D01*
X002793Y012014D01*
X002715Y012110D01*
X002647Y012212D01*
X002588Y012319D01*
X002539Y012432D01*
X002500Y012549D01*
X002472Y012668D01*
X002456Y012790D01*
X002450Y012913D01*
D14*
X003052Y012913D02*
X003055Y012981D01*
X003064Y013048D01*
X003080Y013115D01*
X003101Y013179D01*
X003128Y013242D01*
X003161Y013302D01*
X003199Y013358D01*
X003242Y013411D01*
X003289Y013460D01*
X003341Y013504D01*
X003397Y013543D01*
X003456Y013577D01*
X003518Y013606D01*
X003582Y013628D01*
X003648Y013645D01*
X003715Y013656D01*
X003783Y013661D01*
X003851Y013659D01*
X003919Y013652D01*
X003985Y013638D01*
X004050Y013618D01*
X004114Y013592D01*
X004174Y013561D01*
X004231Y013524D01*
X004285Y013482D01*
X004335Y013436D01*
X004380Y013385D01*
X004421Y013330D01*
X004456Y013272D01*
X004486Y013211D01*
X004510Y013147D01*
X004529Y013082D01*
X004541Y013015D01*
X004547Y012947D01*
X004547Y012879D01*
X004541Y012811D01*
X004529Y012744D01*
X004510Y012679D01*
X004486Y012615D01*
X004456Y012554D01*
X004421Y012496D01*
X004380Y012441D01*
X004335Y012390D01*
X004285Y012344D01*
X004231Y012302D01*
X004174Y012265D01*
X004114Y012234D01*
X004050Y012208D01*
X003985Y012188D01*
X003919Y012174D01*
X003851Y012167D01*
X003783Y012165D01*
X003715Y012170D01*
X003648Y012181D01*
X003582Y012198D01*
X003518Y012220D01*
X003456Y012249D01*
X003397Y012283D01*
X003341Y012322D01*
X003289Y012366D01*
X003242Y012415D01*
X003199Y012468D01*
X003161Y012524D01*
X003128Y012584D01*
X003101Y012647D01*
X003080Y012711D01*
X003064Y012778D01*
X003055Y012845D01*
X003052Y012913D01*
X008052Y009476D02*
X008055Y009544D01*
X008064Y009611D01*
X008080Y009678D01*
X008101Y009742D01*
X008128Y009805D01*
X008161Y009865D01*
X008199Y009921D01*
X008242Y009974D01*
X008289Y010023D01*
X008341Y010067D01*
X008397Y010106D01*
X008456Y010140D01*
X008518Y010169D01*
X008582Y010191D01*
X008648Y010208D01*
X008715Y010219D01*
X008783Y010224D01*
X008851Y010222D01*
X008919Y010215D01*
X008985Y010201D01*
X009050Y010181D01*
X009114Y010155D01*
X009174Y010124D01*
X009231Y010087D01*
X009285Y010045D01*
X009335Y009999D01*
X009380Y009948D01*
X009421Y009893D01*
X009456Y009835D01*
X009486Y009774D01*
X009510Y009710D01*
X009529Y009645D01*
X009541Y009578D01*
X009547Y009510D01*
X009547Y009442D01*
X009541Y009374D01*
X009529Y009307D01*
X009510Y009242D01*
X009486Y009178D01*
X009456Y009117D01*
X009421Y009059D01*
X009380Y009004D01*
X009335Y008953D01*
X009285Y008907D01*
X009231Y008865D01*
X009174Y008828D01*
X009114Y008797D01*
X009050Y008771D01*
X008985Y008751D01*
X008919Y008737D01*
X008851Y008730D01*
X008783Y008728D01*
X008715Y008733D01*
X008648Y008744D01*
X008582Y008761D01*
X008518Y008783D01*
X008456Y008812D01*
X008397Y008846D01*
X008341Y008885D01*
X008289Y008929D01*
X008242Y008978D01*
X008199Y009031D01*
X008161Y009087D01*
X008128Y009147D01*
X008101Y009210D01*
X008080Y009274D01*
X008064Y009341D01*
X008055Y009408D01*
X008052Y009476D01*
X035865Y012913D02*
X035868Y012981D01*
X035877Y013048D01*
X035893Y013115D01*
X035914Y013179D01*
X035941Y013242D01*
X035974Y013302D01*
X036012Y013358D01*
X036055Y013411D01*
X036102Y013460D01*
X036154Y013504D01*
X036210Y013543D01*
X036269Y013577D01*
X036331Y013606D01*
X036395Y013628D01*
X036461Y013645D01*
X036528Y013656D01*
X036596Y013661D01*
X036664Y013659D01*
X036732Y013652D01*
X036798Y013638D01*
X036863Y013618D01*
X036927Y013592D01*
X036987Y013561D01*
X037044Y013524D01*
X037098Y013482D01*
X037148Y013436D01*
X037193Y013385D01*
X037234Y013330D01*
X037269Y013272D01*
X037299Y013211D01*
X037323Y013147D01*
X037342Y013082D01*
X037354Y013015D01*
X037360Y012947D01*
X037360Y012879D01*
X037354Y012811D01*
X037342Y012744D01*
X037323Y012679D01*
X037299Y012615D01*
X037269Y012554D01*
X037234Y012496D01*
X037193Y012441D01*
X037148Y012390D01*
X037098Y012344D01*
X037044Y012302D01*
X036987Y012265D01*
X036927Y012234D01*
X036863Y012208D01*
X036798Y012188D01*
X036732Y012174D01*
X036664Y012167D01*
X036596Y012165D01*
X036528Y012170D01*
X036461Y012181D01*
X036395Y012198D01*
X036331Y012220D01*
X036269Y012249D01*
X036210Y012283D01*
X036154Y012322D01*
X036102Y012366D01*
X036055Y012415D01*
X036012Y012468D01*
X035974Y012524D01*
X035941Y012584D01*
X035914Y012647D01*
X035893Y012711D01*
X035877Y012778D01*
X035868Y012845D01*
X035865Y012913D01*
X068365Y009476D02*
X068368Y009544D01*
X068377Y009611D01*
X068393Y009678D01*
X068414Y009742D01*
X068441Y009805D01*
X068474Y009865D01*
X068512Y009921D01*
X068555Y009974D01*
X068602Y010023D01*
X068654Y010067D01*
X068710Y010106D01*
X068769Y010140D01*
X068831Y010169D01*
X068895Y010191D01*
X068961Y010208D01*
X069028Y010219D01*
X069096Y010224D01*
X069164Y010222D01*
X069232Y010215D01*
X069298Y010201D01*
X069363Y010181D01*
X069427Y010155D01*
X069487Y010124D01*
X069544Y010087D01*
X069598Y010045D01*
X069648Y009999D01*
X069693Y009948D01*
X069734Y009893D01*
X069769Y009835D01*
X069799Y009774D01*
X069823Y009710D01*
X069842Y009645D01*
X069854Y009578D01*
X069860Y009510D01*
X069860Y009442D01*
X069854Y009374D01*
X069842Y009307D01*
X069823Y009242D01*
X069799Y009178D01*
X069769Y009117D01*
X069734Y009059D01*
X069693Y009004D01*
X069648Y008953D01*
X069598Y008907D01*
X069544Y008865D01*
X069487Y008828D01*
X069427Y008797D01*
X069363Y008771D01*
X069298Y008751D01*
X069232Y008737D01*
X069164Y008730D01*
X069096Y008728D01*
X069028Y008733D01*
X068961Y008744D01*
X068895Y008761D01*
X068831Y008783D01*
X068769Y008812D01*
X068710Y008846D01*
X068654Y008885D01*
X068602Y008929D01*
X068555Y008978D01*
X068512Y009031D01*
X068474Y009087D01*
X068441Y009147D01*
X068414Y009210D01*
X068393Y009274D01*
X068377Y009341D01*
X068368Y009408D01*
X068365Y009476D01*
X078365Y009476D02*
X078368Y009544D01*
X078377Y009611D01*
X078393Y009678D01*
X078414Y009742D01*
X078441Y009805D01*
X078474Y009865D01*
X078512Y009921D01*
X078555Y009974D01*
X078602Y010023D01*
X078654Y010067D01*
X078710Y010106D01*
X078769Y010140D01*
X078831Y010169D01*
X078895Y010191D01*
X078961Y010208D01*
X079028Y010219D01*
X079096Y010224D01*
X079164Y010222D01*
X079232Y010215D01*
X079298Y010201D01*
X079363Y010181D01*
X079427Y010155D01*
X079487Y010124D01*
X079544Y010087D01*
X079598Y010045D01*
X079648Y009999D01*
X079693Y009948D01*
X079734Y009893D01*
X079769Y009835D01*
X079799Y009774D01*
X079823Y009710D01*
X079842Y009645D01*
X079854Y009578D01*
X079860Y009510D01*
X079860Y009442D01*
X079854Y009374D01*
X079842Y009307D01*
X079823Y009242D01*
X079799Y009178D01*
X079769Y009117D01*
X079734Y009059D01*
X079693Y009004D01*
X079648Y008953D01*
X079598Y008907D01*
X079544Y008865D01*
X079487Y008828D01*
X079427Y008797D01*
X079363Y008771D01*
X079298Y008751D01*
X079232Y008737D01*
X079164Y008730D01*
X079096Y008728D01*
X079028Y008733D01*
X078961Y008744D01*
X078895Y008761D01*
X078831Y008783D01*
X078769Y008812D01*
X078710Y008846D01*
X078654Y008885D01*
X078602Y008929D01*
X078555Y008978D01*
X078512Y009031D01*
X078474Y009087D01*
X078441Y009147D01*
X078414Y009210D01*
X078393Y009274D01*
X078377Y009341D01*
X078368Y009408D01*
X078365Y009476D01*
X078990Y012913D02*
X078993Y012981D01*
X079002Y013048D01*
X079018Y013115D01*
X079039Y013179D01*
X079066Y013242D01*
X079099Y013302D01*
X079137Y013358D01*
X079180Y013411D01*
X079227Y013460D01*
X079279Y013504D01*
X079335Y013543D01*
X079394Y013577D01*
X079456Y013606D01*
X079520Y013628D01*
X079586Y013645D01*
X079653Y013656D01*
X079721Y013661D01*
X079789Y013659D01*
X079857Y013652D01*
X079923Y013638D01*
X079988Y013618D01*
X080052Y013592D01*
X080112Y013561D01*
X080169Y013524D01*
X080223Y013482D01*
X080273Y013436D01*
X080318Y013385D01*
X080359Y013330D01*
X080394Y013272D01*
X080424Y013211D01*
X080448Y013147D01*
X080467Y013082D01*
X080479Y013015D01*
X080485Y012947D01*
X080485Y012879D01*
X080479Y012811D01*
X080467Y012744D01*
X080448Y012679D01*
X080424Y012615D01*
X080394Y012554D01*
X080359Y012496D01*
X080318Y012441D01*
X080273Y012390D01*
X080223Y012344D01*
X080169Y012302D01*
X080112Y012265D01*
X080052Y012234D01*
X079988Y012208D01*
X079923Y012188D01*
X079857Y012174D01*
X079789Y012167D01*
X079721Y012165D01*
X079653Y012170D01*
X079586Y012181D01*
X079520Y012198D01*
X079456Y012220D01*
X079394Y012249D01*
X079335Y012283D01*
X079279Y012322D01*
X079227Y012366D01*
X079180Y012415D01*
X079137Y012468D01*
X079099Y012524D01*
X079066Y012584D01*
X079039Y012647D01*
X079018Y012711D01*
X079002Y012778D01*
X078993Y012845D01*
X078990Y012913D01*
X068990Y012913D02*
X068993Y012981D01*
X069002Y013048D01*
X069018Y013115D01*
X069039Y013179D01*
X069066Y013242D01*
X069099Y013302D01*
X069137Y013358D01*
X069180Y013411D01*
X069227Y013460D01*
X069279Y013504D01*
X069335Y013543D01*
X069394Y013577D01*
X069456Y013606D01*
X069520Y013628D01*
X069586Y013645D01*
X069653Y013656D01*
X069721Y013661D01*
X069789Y013659D01*
X069857Y013652D01*
X069923Y013638D01*
X069988Y013618D01*
X070052Y013592D01*
X070112Y013561D01*
X070169Y013524D01*
X070223Y013482D01*
X070273Y013436D01*
X070318Y013385D01*
X070359Y013330D01*
X070394Y013272D01*
X070424Y013211D01*
X070448Y013147D01*
X070467Y013082D01*
X070479Y013015D01*
X070485Y012947D01*
X070485Y012879D01*
X070479Y012811D01*
X070467Y012744D01*
X070448Y012679D01*
X070424Y012615D01*
X070394Y012554D01*
X070359Y012496D01*
X070318Y012441D01*
X070273Y012390D01*
X070223Y012344D01*
X070169Y012302D01*
X070112Y012265D01*
X070052Y012234D01*
X069988Y012208D01*
X069923Y012188D01*
X069857Y012174D01*
X069789Y012167D01*
X069721Y012165D01*
X069653Y012170D01*
X069586Y012181D01*
X069520Y012198D01*
X069456Y012220D01*
X069394Y012249D01*
X069335Y012283D01*
X069279Y012322D01*
X069227Y012366D01*
X069180Y012415D01*
X069137Y012468D01*
X069099Y012524D01*
X069066Y012584D01*
X069039Y012647D01*
X069018Y012711D01*
X069002Y012778D01*
X068993Y012845D01*
X068990Y012913D01*
X112427Y012913D02*
X112430Y012981D01*
X112439Y013048D01*
X112455Y013115D01*
X112476Y013179D01*
X112503Y013242D01*
X112536Y013302D01*
X112574Y013358D01*
X112617Y013411D01*
X112664Y013460D01*
X112716Y013504D01*
X112772Y013543D01*
X112831Y013577D01*
X112893Y013606D01*
X112957Y013628D01*
X113023Y013645D01*
X113090Y013656D01*
X113158Y013661D01*
X113226Y013659D01*
X113294Y013652D01*
X113360Y013638D01*
X113425Y013618D01*
X113489Y013592D01*
X113549Y013561D01*
X113606Y013524D01*
X113660Y013482D01*
X113710Y013436D01*
X113755Y013385D01*
X113796Y013330D01*
X113831Y013272D01*
X113861Y013211D01*
X113885Y013147D01*
X113904Y013082D01*
X113916Y013015D01*
X113922Y012947D01*
X113922Y012879D01*
X113916Y012811D01*
X113904Y012744D01*
X113885Y012679D01*
X113861Y012615D01*
X113831Y012554D01*
X113796Y012496D01*
X113755Y012441D01*
X113710Y012390D01*
X113660Y012344D01*
X113606Y012302D01*
X113549Y012265D01*
X113489Y012234D01*
X113425Y012208D01*
X113360Y012188D01*
X113294Y012174D01*
X113226Y012167D01*
X113158Y012165D01*
X113090Y012170D01*
X113023Y012181D01*
X112957Y012198D01*
X112893Y012220D01*
X112831Y012249D01*
X112772Y012283D01*
X112716Y012322D01*
X112664Y012366D01*
X112617Y012415D01*
X112574Y012468D01*
X112536Y012524D01*
X112503Y012584D01*
X112476Y012647D01*
X112455Y012711D01*
X112439Y012778D01*
X112430Y012845D01*
X112427Y012913D01*
X138052Y009476D02*
X138055Y009544D01*
X138064Y009611D01*
X138080Y009678D01*
X138101Y009742D01*
X138128Y009805D01*
X138161Y009865D01*
X138199Y009921D01*
X138242Y009974D01*
X138289Y010023D01*
X138341Y010067D01*
X138397Y010106D01*
X138456Y010140D01*
X138518Y010169D01*
X138582Y010191D01*
X138648Y010208D01*
X138715Y010219D01*
X138783Y010224D01*
X138851Y010222D01*
X138919Y010215D01*
X138985Y010201D01*
X139050Y010181D01*
X139114Y010155D01*
X139174Y010124D01*
X139231Y010087D01*
X139285Y010045D01*
X139335Y009999D01*
X139380Y009948D01*
X139421Y009893D01*
X139456Y009835D01*
X139486Y009774D01*
X139510Y009710D01*
X139529Y009645D01*
X139541Y009578D01*
X139547Y009510D01*
X139547Y009442D01*
X139541Y009374D01*
X139529Y009307D01*
X139510Y009242D01*
X139486Y009178D01*
X139456Y009117D01*
X139421Y009059D01*
X139380Y009004D01*
X139335Y008953D01*
X139285Y008907D01*
X139231Y008865D01*
X139174Y008828D01*
X139114Y008797D01*
X139050Y008771D01*
X138985Y008751D01*
X138919Y008737D01*
X138851Y008730D01*
X138783Y008728D01*
X138715Y008733D01*
X138648Y008744D01*
X138582Y008761D01*
X138518Y008783D01*
X138456Y008812D01*
X138397Y008846D01*
X138341Y008885D01*
X138289Y008929D01*
X138242Y008978D01*
X138199Y009031D01*
X138161Y009087D01*
X138128Y009147D01*
X138101Y009210D01*
X138080Y009274D01*
X138064Y009341D01*
X138055Y009408D01*
X138052Y009476D01*
X145552Y012913D02*
X145555Y012981D01*
X145564Y013048D01*
X145580Y013115D01*
X145601Y013179D01*
X145628Y013242D01*
X145661Y013302D01*
X145699Y013358D01*
X145742Y013411D01*
X145789Y013460D01*
X145841Y013504D01*
X145897Y013543D01*
X145956Y013577D01*
X146018Y013606D01*
X146082Y013628D01*
X146148Y013645D01*
X146215Y013656D01*
X146283Y013661D01*
X146351Y013659D01*
X146419Y013652D01*
X146485Y013638D01*
X146550Y013618D01*
X146614Y013592D01*
X146674Y013561D01*
X146731Y013524D01*
X146785Y013482D01*
X146835Y013436D01*
X146880Y013385D01*
X146921Y013330D01*
X146956Y013272D01*
X146986Y013211D01*
X147010Y013147D01*
X147029Y013082D01*
X147041Y013015D01*
X147047Y012947D01*
X147047Y012879D01*
X147041Y012811D01*
X147029Y012744D01*
X147010Y012679D01*
X146986Y012615D01*
X146956Y012554D01*
X146921Y012496D01*
X146880Y012441D01*
X146835Y012390D01*
X146785Y012344D01*
X146731Y012302D01*
X146674Y012265D01*
X146614Y012234D01*
X146550Y012208D01*
X146485Y012188D01*
X146419Y012174D01*
X146351Y012167D01*
X146283Y012165D01*
X146215Y012170D01*
X146148Y012181D01*
X146082Y012198D01*
X146018Y012220D01*
X145956Y012249D01*
X145897Y012283D01*
X145841Y012322D01*
X145789Y012366D01*
X145742Y012415D01*
X145699Y012468D01*
X145661Y012524D01*
X145628Y012584D01*
X145601Y012647D01*
X145580Y012711D01*
X145564Y012778D01*
X145555Y012845D01*
X145552Y012913D01*
X138052Y029788D02*
X138055Y029856D01*
X138064Y029923D01*
X138080Y029990D01*
X138101Y030054D01*
X138128Y030117D01*
X138161Y030177D01*
X138199Y030233D01*
X138242Y030286D01*
X138289Y030335D01*
X138341Y030379D01*
X138397Y030418D01*
X138456Y030452D01*
X138518Y030481D01*
X138582Y030503D01*
X138648Y030520D01*
X138715Y030531D01*
X138783Y030536D01*
X138851Y030534D01*
X138919Y030527D01*
X138985Y030513D01*
X139050Y030493D01*
X139114Y030467D01*
X139174Y030436D01*
X139231Y030399D01*
X139285Y030357D01*
X139335Y030311D01*
X139380Y030260D01*
X139421Y030205D01*
X139456Y030147D01*
X139486Y030086D01*
X139510Y030022D01*
X139529Y029957D01*
X139541Y029890D01*
X139547Y029822D01*
X139547Y029754D01*
X139541Y029686D01*
X139529Y029619D01*
X139510Y029554D01*
X139486Y029490D01*
X139456Y029429D01*
X139421Y029371D01*
X139380Y029316D01*
X139335Y029265D01*
X139285Y029219D01*
X139231Y029177D01*
X139174Y029140D01*
X139114Y029109D01*
X139050Y029083D01*
X138985Y029063D01*
X138919Y029049D01*
X138851Y029042D01*
X138783Y029040D01*
X138715Y029045D01*
X138648Y029056D01*
X138582Y029073D01*
X138518Y029095D01*
X138456Y029124D01*
X138397Y029158D01*
X138341Y029197D01*
X138289Y029241D01*
X138242Y029290D01*
X138199Y029343D01*
X138161Y029399D01*
X138128Y029459D01*
X138101Y029522D01*
X138080Y029586D01*
X138064Y029653D01*
X138055Y029720D01*
X138052Y029788D01*
X078365Y029788D02*
X078368Y029856D01*
X078377Y029923D01*
X078393Y029990D01*
X078414Y030054D01*
X078441Y030117D01*
X078474Y030177D01*
X078512Y030233D01*
X078555Y030286D01*
X078602Y030335D01*
X078654Y030379D01*
X078710Y030418D01*
X078769Y030452D01*
X078831Y030481D01*
X078895Y030503D01*
X078961Y030520D01*
X079028Y030531D01*
X079096Y030536D01*
X079164Y030534D01*
X079232Y030527D01*
X079298Y030513D01*
X079363Y030493D01*
X079427Y030467D01*
X079487Y030436D01*
X079544Y030399D01*
X079598Y030357D01*
X079648Y030311D01*
X079693Y030260D01*
X079734Y030205D01*
X079769Y030147D01*
X079799Y030086D01*
X079823Y030022D01*
X079842Y029957D01*
X079854Y029890D01*
X079860Y029822D01*
X079860Y029754D01*
X079854Y029686D01*
X079842Y029619D01*
X079823Y029554D01*
X079799Y029490D01*
X079769Y029429D01*
X079734Y029371D01*
X079693Y029316D01*
X079648Y029265D01*
X079598Y029219D01*
X079544Y029177D01*
X079487Y029140D01*
X079427Y029109D01*
X079363Y029083D01*
X079298Y029063D01*
X079232Y029049D01*
X079164Y029042D01*
X079096Y029040D01*
X079028Y029045D01*
X078961Y029056D01*
X078895Y029073D01*
X078831Y029095D01*
X078769Y029124D01*
X078710Y029158D01*
X078654Y029197D01*
X078602Y029241D01*
X078555Y029290D01*
X078512Y029343D01*
X078474Y029399D01*
X078441Y029459D01*
X078414Y029522D01*
X078393Y029586D01*
X078377Y029653D01*
X078368Y029720D01*
X078365Y029788D01*
X068365Y029788D02*
X068368Y029856D01*
X068377Y029923D01*
X068393Y029990D01*
X068414Y030054D01*
X068441Y030117D01*
X068474Y030177D01*
X068512Y030233D01*
X068555Y030286D01*
X068602Y030335D01*
X068654Y030379D01*
X068710Y030418D01*
X068769Y030452D01*
X068831Y030481D01*
X068895Y030503D01*
X068961Y030520D01*
X069028Y030531D01*
X069096Y030536D01*
X069164Y030534D01*
X069232Y030527D01*
X069298Y030513D01*
X069363Y030493D01*
X069427Y030467D01*
X069487Y030436D01*
X069544Y030399D01*
X069598Y030357D01*
X069648Y030311D01*
X069693Y030260D01*
X069734Y030205D01*
X069769Y030147D01*
X069799Y030086D01*
X069823Y030022D01*
X069842Y029957D01*
X069854Y029890D01*
X069860Y029822D01*
X069860Y029754D01*
X069854Y029686D01*
X069842Y029619D01*
X069823Y029554D01*
X069799Y029490D01*
X069769Y029429D01*
X069734Y029371D01*
X069693Y029316D01*
X069648Y029265D01*
X069598Y029219D01*
X069544Y029177D01*
X069487Y029140D01*
X069427Y029109D01*
X069363Y029083D01*
X069298Y029063D01*
X069232Y029049D01*
X069164Y029042D01*
X069096Y029040D01*
X069028Y029045D01*
X068961Y029056D01*
X068895Y029073D01*
X068831Y029095D01*
X068769Y029124D01*
X068710Y029158D01*
X068654Y029197D01*
X068602Y029241D01*
X068555Y029290D01*
X068512Y029343D01*
X068474Y029399D01*
X068441Y029459D01*
X068414Y029522D01*
X068393Y029586D01*
X068377Y029653D01*
X068368Y029720D01*
X068365Y029788D01*
X008052Y029788D02*
X008055Y029856D01*
X008064Y029923D01*
X008080Y029990D01*
X008101Y030054D01*
X008128Y030117D01*
X008161Y030177D01*
X008199Y030233D01*
X008242Y030286D01*
X008289Y030335D01*
X008341Y030379D01*
X008397Y030418D01*
X008456Y030452D01*
X008518Y030481D01*
X008582Y030503D01*
X008648Y030520D01*
X008715Y030531D01*
X008783Y030536D01*
X008851Y030534D01*
X008919Y030527D01*
X008985Y030513D01*
X009050Y030493D01*
X009114Y030467D01*
X009174Y030436D01*
X009231Y030399D01*
X009285Y030357D01*
X009335Y030311D01*
X009380Y030260D01*
X009421Y030205D01*
X009456Y030147D01*
X009486Y030086D01*
X009510Y030022D01*
X009529Y029957D01*
X009541Y029890D01*
X009547Y029822D01*
X009547Y029754D01*
X009541Y029686D01*
X009529Y029619D01*
X009510Y029554D01*
X009486Y029490D01*
X009456Y029429D01*
X009421Y029371D01*
X009380Y029316D01*
X009335Y029265D01*
X009285Y029219D01*
X009231Y029177D01*
X009174Y029140D01*
X009114Y029109D01*
X009050Y029083D01*
X008985Y029063D01*
X008919Y029049D01*
X008851Y029042D01*
X008783Y029040D01*
X008715Y029045D01*
X008648Y029056D01*
X008582Y029073D01*
X008518Y029095D01*
X008456Y029124D01*
X008397Y029158D01*
X008341Y029197D01*
X008289Y029241D01*
X008242Y029290D01*
X008199Y029343D01*
X008161Y029399D01*
X008128Y029459D01*
X008101Y029522D01*
X008080Y029586D01*
X008064Y029653D01*
X008055Y029720D01*
X008052Y029788D01*
M02*
