G75*
G70*
%OFA0B0*%
%FSLAX24Y24*%
%IPPOS*%
%LPD*%
%AMOC8*
5,1,8,0,0,1.08239X$1,22.5*
%
%ADD10C,0.1800*%
%ADD11C,0.1701*%
%ADD12C,0.1500*%
%ADD13R,0.0396X0.1316*%
%ADD14OC8,0.0720*%
%ADD15C,0.3400*%
D10*
X145990Y022288D03*
X143490Y022288D03*
X140365Y022288D03*
X137865Y022288D03*
X134740Y022288D03*
X132240Y022288D03*
X129115Y022288D03*
X126615Y022288D03*
X123490Y022288D03*
X120990Y022288D03*
X117865Y022288D03*
X115365Y022288D03*
X112240Y022288D03*
X109740Y022288D03*
X106615Y022288D03*
X104115Y022288D03*
X100990Y022288D03*
X098490Y022288D03*
X095365Y022288D03*
X092865Y022288D03*
X089740Y022288D03*
X087240Y022288D03*
X084115Y022288D03*
X081615Y022288D03*
X078490Y022288D03*
X075990Y022288D03*
X072865Y022288D03*
X070365Y022288D03*
X067240Y022288D03*
X064740Y022288D03*
X061615Y022288D03*
X059115Y022288D03*
X055990Y022288D03*
X053490Y022288D03*
X050365Y022288D03*
X047865Y022288D03*
X042553Y021038D03*
X036928Y021038D03*
X033178Y021194D03*
X031146Y019476D03*
X027709Y019476D03*
X022084Y019476D03*
X016459Y019476D03*
X010990Y019476D03*
X008490Y019476D03*
X005365Y019476D03*
X002865Y019476D03*
X002865Y022288D03*
X005365Y022288D03*
X008490Y022288D03*
X010990Y022288D03*
X014428Y021038D03*
X020053Y021038D03*
X025678Y021038D03*
X038959Y019476D03*
X044584Y019476D03*
X047865Y019476D03*
X050365Y019476D03*
X053490Y019476D03*
X055990Y019476D03*
X059115Y019476D03*
X061615Y019476D03*
X064740Y019476D03*
X067240Y019476D03*
X070365Y019476D03*
X072865Y019476D03*
X075990Y019476D03*
X078490Y019476D03*
X081615Y019476D03*
X084115Y019476D03*
X087240Y019476D03*
X089740Y019476D03*
X092865Y019476D03*
X095365Y019476D03*
X098490Y019476D03*
X100990Y019476D03*
X104115Y019476D03*
X106615Y019476D03*
X109740Y019476D03*
X112240Y019476D03*
X115365Y019476D03*
X117865Y019476D03*
X120990Y019476D03*
X123490Y019476D03*
X126615Y019476D03*
X129115Y019476D03*
X132240Y019476D03*
X134740Y019476D03*
X137865Y019476D03*
X140365Y019476D03*
X143490Y019476D03*
X145990Y019476D03*
X145990Y016663D03*
X143490Y016663D03*
X140365Y016663D03*
X137865Y016663D03*
X134740Y016663D03*
X132240Y016663D03*
X129115Y016663D03*
X126615Y016663D03*
X123490Y016663D03*
X120990Y016663D03*
X117865Y016663D03*
X115365Y016663D03*
X112240Y016663D03*
X109740Y016663D03*
X106615Y016663D03*
X104115Y016663D03*
X100990Y016663D03*
X098490Y016663D03*
X095365Y016663D03*
X092865Y016663D03*
X089740Y016663D03*
X087240Y016663D03*
X084115Y016663D03*
X081615Y016663D03*
X078490Y016663D03*
X075990Y016663D03*
X072865Y016663D03*
X070365Y016663D03*
X067240Y016663D03*
X064740Y016663D03*
X061615Y016663D03*
X059115Y016663D03*
X055990Y016663D03*
X053490Y016663D03*
X050365Y016663D03*
X047865Y016663D03*
X042553Y017757D03*
X036928Y017757D03*
X033178Y017913D03*
X025678Y017757D03*
X020053Y017757D03*
X014428Y017757D03*
X010990Y016663D03*
X008490Y016663D03*
X005365Y016663D03*
X002865Y016663D03*
D11*
X010053Y009476D03*
X002553Y012913D03*
X035678Y012913D03*
X069115Y012913D03*
X079115Y012913D03*
X079740Y009476D03*
X069740Y009476D03*
X112240Y012913D03*
X140053Y009476D03*
X145053Y012913D03*
X140053Y029788D03*
X079740Y029788D03*
X069740Y029788D03*
X010053Y029788D03*
D12*
X090865Y003788D03*
X110865Y003788D03*
X117115Y003788D03*
X137115Y003788D03*
D13*
X132865Y008476D03*
X132240Y008476D03*
X131615Y008476D03*
X130990Y008476D03*
X130365Y008476D03*
X129740Y008476D03*
X129115Y008476D03*
X128490Y008476D03*
X127865Y008476D03*
X127240Y008476D03*
X126615Y008476D03*
X125990Y008476D03*
X125365Y008476D03*
X124740Y008476D03*
X124115Y008476D03*
X123490Y008476D03*
X122865Y008476D03*
X122240Y008476D03*
X121615Y008476D03*
X106615Y008476D03*
X105990Y008476D03*
X105365Y008476D03*
X104740Y008476D03*
X104115Y008476D03*
X103490Y008476D03*
X102865Y008476D03*
X102240Y008476D03*
X101615Y008476D03*
X100990Y008476D03*
X100365Y008476D03*
X099740Y008476D03*
X099115Y008476D03*
X098490Y008476D03*
X097865Y008476D03*
X097240Y008476D03*
X096615Y008476D03*
X095990Y008476D03*
X095365Y008476D03*
D14*
X094990Y027101D03*
X093990Y027101D03*
X092990Y027101D03*
X095990Y027101D03*
X096990Y027101D03*
X097990Y027101D03*
X098990Y027101D03*
X099990Y027101D03*
X100990Y027101D03*
X101990Y027101D03*
X102990Y027101D03*
X103990Y027101D03*
X104990Y027101D03*
X105990Y027101D03*
X106990Y027101D03*
X107990Y027101D03*
X108990Y027101D03*
X108990Y028101D03*
X107990Y028101D03*
X106990Y028101D03*
X105990Y028101D03*
X104990Y028101D03*
X103990Y028101D03*
X102990Y028101D03*
X101990Y028101D03*
X100990Y028101D03*
X099990Y028101D03*
X098990Y028101D03*
X097990Y028101D03*
X096990Y028101D03*
X095990Y028101D03*
X094990Y028101D03*
X093990Y028101D03*
X092990Y028101D03*
X119240Y028101D03*
X120240Y028101D03*
X121240Y028101D03*
X122240Y028101D03*
X123240Y028101D03*
X124240Y028101D03*
X125240Y028101D03*
X126240Y028101D03*
X127240Y028101D03*
X128240Y028101D03*
X129240Y028101D03*
X130240Y028101D03*
X131240Y028101D03*
X132240Y028101D03*
X133240Y028101D03*
X134240Y028101D03*
X135240Y028101D03*
X135240Y027101D03*
X134240Y027101D03*
X133240Y027101D03*
X132240Y027101D03*
X131240Y027101D03*
X130240Y027101D03*
X129240Y027101D03*
X128240Y027101D03*
X127240Y027101D03*
X126240Y027101D03*
X125240Y027101D03*
X124240Y027101D03*
X123240Y027101D03*
X122240Y027101D03*
X121240Y027101D03*
X120240Y027101D03*
X119240Y027101D03*
D15*
X030365Y029476D03*
X025990Y029476D03*
M02*
