%
M48
M72
T01C0.0320
T02C0.0400
T03C0.1250
%
T01
X11000Y4500
X11000Y6000
X11000Y7500
X11000Y9000
X11000Y10500
X11000Y12000
X11000Y13500
X11000Y15000
X11000Y16500
X11000Y18000
X11000Y19500
X11000Y21000
X11000Y22500
X15000Y22500
X16500Y22500
X16500Y21000
X15000Y21000
X15000Y19500
X16500Y19500
X16500Y18000
X15000Y18000
X15000Y16500
X16500Y16500
X16500Y15000
X15000Y15000
X15000Y13500
X16500Y13500
X16500Y12000
X15000Y12000
X15000Y10500
X16500Y10500
X16500Y9000
X15000Y9000
X15000Y7500
X16500Y7500
X16500Y6000
X15000Y6000
X15000Y4500
X16500Y4500
X20500Y4500
X21500Y4500
X21500Y6000
X20500Y6000
X20500Y7500
X21500Y7500
X21500Y9000
X20500Y9000
X20500Y10500
X21500Y10500
X21500Y12000
X20500Y12000
X20500Y13500
X21500Y13500
X21500Y15000
X20500Y15000
X20500Y16500
X21500Y16500
X21500Y18000
X20500Y18000
X20500Y19500
X21500Y19500
X21500Y21000
X20500Y21000
X20500Y22500
X21500Y22500
X25500Y22500
X25500Y21000
X25500Y19500
X25500Y18000
X25500Y16500
X25500Y15000
X25500Y13500
X25500Y12000
X25500Y10500
X25500Y9000
X25500Y7500
X25500Y6000
X25500Y4500
T02
X38000Y4500
X39000Y4500
X39000Y5500
X38000Y5500
X38000Y6500
X39000Y6500
X39000Y7500
X38000Y7500
X38000Y8500
X39000Y8500
X39000Y9500
X38000Y9500
X38000Y10500
X39000Y10500
X39000Y11500
X38000Y11500
X38000Y12500
X39000Y12500
X39000Y13500
X38000Y13500
X38000Y14500
X39000Y14500
X39000Y15500
X38000Y15500
X38000Y16500
X39000Y16500
X39000Y17500
X38000Y17500
X38000Y18500
X39000Y18500
X39000Y19500
X38000Y19500
X38000Y20500
X39000Y20500
T03
X48000Y22750
X48000Y2750
M30
