G75*
%MOIN*%
%OFA0B0*%
%FSLAX24Y24*%
%IPPOS*%
%LPD*%
%AMOC8*
5,1,8,0,0,1.08239X$1,22.5*
%
%ADD10C,0.0160*%
%ADD11C,0.0000*%
%ADD12C,0.0060*%
%ADD13C,0.0050*%
%ADD14R,0.0340X0.0240*%
%ADD15R,0.0200X0.0800*%
%ADD16R,0.0750X0.0200*%
D10*
X045000Y000500D02*
X045000Y025000D01*
D11*
X006750Y001550D02*
X001000Y001550D01*
X000500Y002050D01*
X000500Y023450D01*
X001000Y023950D01*
X007750Y023950D01*
X007750Y024950D01*
X007750Y025000D02*
X007750Y023950D01*
X001000Y023950D01*
X000500Y023450D01*
X000500Y002050D01*
X001000Y001550D01*
X006750Y001550D01*
X006750Y000500D01*
X050000Y000500D01*
X050000Y025000D01*
X007750Y025000D01*
X047375Y022750D02*
X047377Y022800D01*
X047383Y022849D01*
X047393Y022898D01*
X047406Y022945D01*
X047424Y022992D01*
X047445Y023037D01*
X047469Y023080D01*
X047497Y023121D01*
X047528Y023160D01*
X047562Y023196D01*
X047599Y023230D01*
X047639Y023260D01*
X047680Y023287D01*
X047724Y023311D01*
X047769Y023331D01*
X047816Y023347D01*
X047864Y023360D01*
X047913Y023369D01*
X047963Y023374D01*
X048012Y023375D01*
X048062Y023372D01*
X048111Y023365D01*
X048160Y023354D01*
X048207Y023340D01*
X048253Y023321D01*
X048298Y023299D01*
X048341Y023274D01*
X048381Y023245D01*
X048419Y023213D01*
X048455Y023179D01*
X048488Y023141D01*
X048517Y023101D01*
X048543Y023059D01*
X048566Y023015D01*
X048585Y022969D01*
X048601Y022922D01*
X048613Y022873D01*
X048621Y022824D01*
X048625Y022775D01*
X048625Y022725D01*
X048621Y022676D01*
X048613Y022627D01*
X048601Y022578D01*
X048585Y022531D01*
X048566Y022485D01*
X048543Y022441D01*
X048517Y022399D01*
X048488Y022359D01*
X048455Y022321D01*
X048419Y022287D01*
X048381Y022255D01*
X048341Y022226D01*
X048298Y022201D01*
X048253Y022179D01*
X048207Y022160D01*
X048160Y022146D01*
X048111Y022135D01*
X048062Y022128D01*
X048012Y022125D01*
X047963Y022126D01*
X047913Y022131D01*
X047864Y022140D01*
X047816Y022153D01*
X047769Y022169D01*
X047724Y022189D01*
X047680Y022213D01*
X047639Y022240D01*
X047599Y022270D01*
X047562Y022304D01*
X047528Y022340D01*
X047497Y022379D01*
X047469Y022420D01*
X047445Y022463D01*
X047424Y022508D01*
X047406Y022555D01*
X047393Y022602D01*
X047383Y022651D01*
X047377Y022700D01*
X047375Y022750D01*
X047375Y002750D02*
X047377Y002800D01*
X047383Y002849D01*
X047393Y002898D01*
X047406Y002945D01*
X047424Y002992D01*
X047445Y003037D01*
X047469Y003080D01*
X047497Y003121D01*
X047528Y003160D01*
X047562Y003196D01*
X047599Y003230D01*
X047639Y003260D01*
X047680Y003287D01*
X047724Y003311D01*
X047769Y003331D01*
X047816Y003347D01*
X047864Y003360D01*
X047913Y003369D01*
X047963Y003374D01*
X048012Y003375D01*
X048062Y003372D01*
X048111Y003365D01*
X048160Y003354D01*
X048207Y003340D01*
X048253Y003321D01*
X048298Y003299D01*
X048341Y003274D01*
X048381Y003245D01*
X048419Y003213D01*
X048455Y003179D01*
X048488Y003141D01*
X048517Y003101D01*
X048543Y003059D01*
X048566Y003015D01*
X048585Y002969D01*
X048601Y002922D01*
X048613Y002873D01*
X048621Y002824D01*
X048625Y002775D01*
X048625Y002725D01*
X048621Y002676D01*
X048613Y002627D01*
X048601Y002578D01*
X048585Y002531D01*
X048566Y002485D01*
X048543Y002441D01*
X048517Y002399D01*
X048488Y002359D01*
X048455Y002321D01*
X048419Y002287D01*
X048381Y002255D01*
X048341Y002226D01*
X048298Y002201D01*
X048253Y002179D01*
X048207Y002160D01*
X048160Y002146D01*
X048111Y002135D01*
X048062Y002128D01*
X048012Y002125D01*
X047963Y002126D01*
X047913Y002131D01*
X047864Y002140D01*
X047816Y002153D01*
X047769Y002169D01*
X047724Y002189D01*
X047680Y002213D01*
X047639Y002240D01*
X047599Y002270D01*
X047562Y002304D01*
X047528Y002340D01*
X047497Y002379D01*
X047469Y002420D01*
X047445Y002463D01*
X047424Y002508D01*
X047406Y002555D01*
X047393Y002602D01*
X047383Y002651D01*
X047377Y002700D01*
X047375Y002750D01*
X006750Y001550D02*
X006750Y000500D01*
X006750Y001500D01*
D12*
X012100Y004200D02*
X012100Y004800D01*
X012102Y004817D01*
X012106Y004834D01*
X012113Y004850D01*
X012123Y004864D01*
X012136Y004877D01*
X012150Y004887D01*
X012166Y004894D01*
X012183Y004898D01*
X012200Y004900D01*
X013800Y004900D01*
X013817Y004898D01*
X013834Y004894D01*
X013850Y004887D01*
X013864Y004877D01*
X013877Y004864D01*
X013887Y004850D01*
X013894Y004834D01*
X013898Y004817D01*
X013900Y004800D01*
X013900Y004200D01*
X013898Y004183D01*
X013894Y004166D01*
X013887Y004150D01*
X013877Y004136D01*
X013864Y004123D01*
X013850Y004113D01*
X013834Y004106D01*
X013817Y004102D01*
X013800Y004100D01*
X012200Y004100D01*
X012183Y004102D01*
X012166Y004106D01*
X012150Y004113D01*
X012136Y004123D01*
X012123Y004136D01*
X012113Y004150D01*
X012106Y004166D01*
X012102Y004183D01*
X012100Y004200D01*
X012400Y004500D02*
X013000Y004500D01*
X013000Y004750D01*
X013000Y004500D02*
X012600Y004750D01*
X012600Y004250D01*
X013000Y004500D01*
X013000Y004250D01*
X013000Y004500D02*
X013250Y004500D01*
X013800Y005600D02*
X012200Y005600D01*
X012183Y005602D01*
X012166Y005606D01*
X012150Y005613D01*
X012136Y005623D01*
X012123Y005636D01*
X012113Y005650D01*
X012106Y005666D01*
X012102Y005683D01*
X012100Y005700D01*
X012100Y006300D01*
X012102Y006317D01*
X012106Y006334D01*
X012113Y006350D01*
X012123Y006364D01*
X012136Y006377D01*
X012150Y006387D01*
X012166Y006394D01*
X012183Y006398D01*
X012200Y006400D01*
X013800Y006400D01*
X013817Y006398D01*
X013834Y006394D01*
X013850Y006387D01*
X013864Y006377D01*
X013877Y006364D01*
X013887Y006350D01*
X013894Y006334D01*
X013898Y006317D01*
X013900Y006300D01*
X013900Y005700D01*
X013898Y005683D01*
X013894Y005666D01*
X013887Y005650D01*
X013877Y005636D01*
X013864Y005623D01*
X013850Y005613D01*
X013834Y005606D01*
X013817Y005602D01*
X013800Y005600D01*
X013250Y006000D02*
X013000Y006000D01*
X013000Y006250D01*
X013000Y006000D02*
X012600Y006250D01*
X012600Y005750D01*
X013000Y006000D01*
X013000Y005750D01*
X013000Y006000D02*
X012400Y006000D01*
X012200Y007100D02*
X013800Y007100D01*
X013817Y007102D01*
X013834Y007106D01*
X013850Y007113D01*
X013864Y007123D01*
X013877Y007136D01*
X013887Y007150D01*
X013894Y007166D01*
X013898Y007183D01*
X013900Y007200D01*
X013900Y007800D01*
X013898Y007817D01*
X013894Y007834D01*
X013887Y007850D01*
X013877Y007864D01*
X013864Y007877D01*
X013850Y007887D01*
X013834Y007894D01*
X013817Y007898D01*
X013800Y007900D01*
X012200Y007900D01*
X012183Y007898D01*
X012166Y007894D01*
X012150Y007887D01*
X012136Y007877D01*
X012123Y007864D01*
X012113Y007850D01*
X012106Y007834D01*
X012102Y007817D01*
X012100Y007800D01*
X012100Y007200D01*
X012102Y007183D01*
X012106Y007166D01*
X012113Y007150D01*
X012123Y007136D01*
X012136Y007123D01*
X012150Y007113D01*
X012166Y007106D01*
X012183Y007102D01*
X012200Y007100D01*
X012600Y007250D02*
X013000Y007500D01*
X013000Y007750D01*
X013000Y007500D02*
X012600Y007750D01*
X012600Y007250D01*
X012400Y007500D02*
X013000Y007500D01*
X013000Y007250D01*
X013000Y007500D02*
X013250Y007500D01*
X013800Y008600D02*
X012200Y008600D01*
X012183Y008602D01*
X012166Y008606D01*
X012150Y008613D01*
X012136Y008623D01*
X012123Y008636D01*
X012113Y008650D01*
X012106Y008666D01*
X012102Y008683D01*
X012100Y008700D01*
X012100Y009300D01*
X012102Y009317D01*
X012106Y009334D01*
X012113Y009350D01*
X012123Y009364D01*
X012136Y009377D01*
X012150Y009387D01*
X012166Y009394D01*
X012183Y009398D01*
X012200Y009400D01*
X013800Y009400D01*
X013817Y009398D01*
X013834Y009394D01*
X013850Y009387D01*
X013864Y009377D01*
X013877Y009364D01*
X013887Y009350D01*
X013894Y009334D01*
X013898Y009317D01*
X013900Y009300D01*
X013900Y008700D01*
X013898Y008683D01*
X013894Y008666D01*
X013887Y008650D01*
X013877Y008636D01*
X013864Y008623D01*
X013850Y008613D01*
X013834Y008606D01*
X013817Y008602D01*
X013800Y008600D01*
X013250Y009000D02*
X013000Y009000D01*
X013000Y009250D01*
X013000Y009000D02*
X012600Y009250D01*
X012600Y008750D01*
X013000Y009000D01*
X013000Y008750D01*
X013000Y009000D02*
X012400Y009000D01*
X012200Y010100D02*
X013800Y010100D01*
X013817Y010102D01*
X013834Y010106D01*
X013850Y010113D01*
X013864Y010123D01*
X013877Y010136D01*
X013887Y010150D01*
X013894Y010166D01*
X013898Y010183D01*
X013900Y010200D01*
X013900Y010800D01*
X013898Y010817D01*
X013894Y010834D01*
X013887Y010850D01*
X013877Y010864D01*
X013864Y010877D01*
X013850Y010887D01*
X013834Y010894D01*
X013817Y010898D01*
X013800Y010900D01*
X012200Y010900D01*
X012183Y010898D01*
X012166Y010894D01*
X012150Y010887D01*
X012136Y010877D01*
X012123Y010864D01*
X012113Y010850D01*
X012106Y010834D01*
X012102Y010817D01*
X012100Y010800D01*
X012100Y010200D01*
X012102Y010183D01*
X012106Y010166D01*
X012113Y010150D01*
X012123Y010136D01*
X012136Y010123D01*
X012150Y010113D01*
X012166Y010106D01*
X012183Y010102D01*
X012200Y010100D01*
X012600Y010250D02*
X013000Y010500D01*
X013000Y010750D01*
X013000Y010500D02*
X012600Y010750D01*
X012600Y010250D01*
X012400Y010500D02*
X013000Y010500D01*
X013000Y010250D01*
X013000Y010500D02*
X013250Y010500D01*
X013800Y011600D02*
X012200Y011600D01*
X012183Y011602D01*
X012166Y011606D01*
X012150Y011613D01*
X012136Y011623D01*
X012123Y011636D01*
X012113Y011650D01*
X012106Y011666D01*
X012102Y011683D01*
X012100Y011700D01*
X012100Y012300D01*
X012102Y012317D01*
X012106Y012334D01*
X012113Y012350D01*
X012123Y012364D01*
X012136Y012377D01*
X012150Y012387D01*
X012166Y012394D01*
X012183Y012398D01*
X012200Y012400D01*
X013800Y012400D01*
X013817Y012398D01*
X013834Y012394D01*
X013850Y012387D01*
X013864Y012377D01*
X013877Y012364D01*
X013887Y012350D01*
X013894Y012334D01*
X013898Y012317D01*
X013900Y012300D01*
X013900Y011700D01*
X013898Y011683D01*
X013894Y011666D01*
X013887Y011650D01*
X013877Y011636D01*
X013864Y011623D01*
X013850Y011613D01*
X013834Y011606D01*
X013817Y011602D01*
X013800Y011600D01*
X013250Y012000D02*
X013000Y012000D01*
X013000Y012250D01*
X013000Y012000D02*
X012600Y012250D01*
X012600Y011750D01*
X013000Y012000D01*
X013000Y011750D01*
X013000Y012000D02*
X012400Y012000D01*
X012200Y013100D02*
X013800Y013100D01*
X013817Y013102D01*
X013834Y013106D01*
X013850Y013113D01*
X013864Y013123D01*
X013877Y013136D01*
X013887Y013150D01*
X013894Y013166D01*
X013898Y013183D01*
X013900Y013200D01*
X013900Y013800D01*
X013898Y013817D01*
X013894Y013834D01*
X013887Y013850D01*
X013877Y013864D01*
X013864Y013877D01*
X013850Y013887D01*
X013834Y013894D01*
X013817Y013898D01*
X013800Y013900D01*
X012200Y013900D01*
X012183Y013898D01*
X012166Y013894D01*
X012150Y013887D01*
X012136Y013877D01*
X012123Y013864D01*
X012113Y013850D01*
X012106Y013834D01*
X012102Y013817D01*
X012100Y013800D01*
X012100Y013200D01*
X012102Y013183D01*
X012106Y013166D01*
X012113Y013150D01*
X012123Y013136D01*
X012136Y013123D01*
X012150Y013113D01*
X012166Y013106D01*
X012183Y013102D01*
X012200Y013100D01*
X012600Y013250D02*
X013000Y013500D01*
X013000Y013750D01*
X013000Y013500D02*
X012600Y013750D01*
X012600Y013250D01*
X012400Y013500D02*
X013000Y013500D01*
X013000Y013250D01*
X013000Y013500D02*
X013250Y013500D01*
X013800Y014600D02*
X012200Y014600D01*
X012183Y014602D01*
X012166Y014606D01*
X012150Y014613D01*
X012136Y014623D01*
X012123Y014636D01*
X012113Y014650D01*
X012106Y014666D01*
X012102Y014683D01*
X012100Y014700D01*
X012100Y015300D01*
X012102Y015317D01*
X012106Y015334D01*
X012113Y015350D01*
X012123Y015364D01*
X012136Y015377D01*
X012150Y015387D01*
X012166Y015394D01*
X012183Y015398D01*
X012200Y015400D01*
X013800Y015400D01*
X013817Y015398D01*
X013834Y015394D01*
X013850Y015387D01*
X013864Y015377D01*
X013877Y015364D01*
X013887Y015350D01*
X013894Y015334D01*
X013898Y015317D01*
X013900Y015300D01*
X013900Y014700D01*
X013898Y014683D01*
X013894Y014666D01*
X013887Y014650D01*
X013877Y014636D01*
X013864Y014623D01*
X013850Y014613D01*
X013834Y014606D01*
X013817Y014602D01*
X013800Y014600D01*
X013250Y015000D02*
X013000Y015000D01*
X013000Y015250D01*
X013000Y015000D02*
X012600Y015250D01*
X012600Y014750D01*
X013000Y015000D01*
X013000Y014750D01*
X013000Y015000D02*
X012400Y015000D01*
X012200Y016100D02*
X013800Y016100D01*
X013817Y016102D01*
X013834Y016106D01*
X013850Y016113D01*
X013864Y016123D01*
X013877Y016136D01*
X013887Y016150D01*
X013894Y016166D01*
X013898Y016183D01*
X013900Y016200D01*
X013900Y016800D01*
X013898Y016817D01*
X013894Y016834D01*
X013887Y016850D01*
X013877Y016864D01*
X013864Y016877D01*
X013850Y016887D01*
X013834Y016894D01*
X013817Y016898D01*
X013800Y016900D01*
X012200Y016900D01*
X012183Y016898D01*
X012166Y016894D01*
X012150Y016887D01*
X012136Y016877D01*
X012123Y016864D01*
X012113Y016850D01*
X012106Y016834D01*
X012102Y016817D01*
X012100Y016800D01*
X012100Y016200D01*
X012102Y016183D01*
X012106Y016166D01*
X012113Y016150D01*
X012123Y016136D01*
X012136Y016123D01*
X012150Y016113D01*
X012166Y016106D01*
X012183Y016102D01*
X012200Y016100D01*
X012600Y016250D02*
X013000Y016500D01*
X013000Y016750D01*
X013000Y016500D02*
X012600Y016750D01*
X012600Y016250D01*
X012400Y016500D02*
X013000Y016500D01*
X013000Y016250D01*
X013000Y016500D02*
X013250Y016500D01*
X013800Y017600D02*
X012200Y017600D01*
X012183Y017602D01*
X012166Y017606D01*
X012150Y017613D01*
X012136Y017623D01*
X012123Y017636D01*
X012113Y017650D01*
X012106Y017666D01*
X012102Y017683D01*
X012100Y017700D01*
X012100Y018300D01*
X012102Y018317D01*
X012106Y018334D01*
X012113Y018350D01*
X012123Y018364D01*
X012136Y018377D01*
X012150Y018387D01*
X012166Y018394D01*
X012183Y018398D01*
X012200Y018400D01*
X013800Y018400D01*
X013817Y018398D01*
X013834Y018394D01*
X013850Y018387D01*
X013864Y018377D01*
X013877Y018364D01*
X013887Y018350D01*
X013894Y018334D01*
X013898Y018317D01*
X013900Y018300D01*
X013900Y017700D01*
X013898Y017683D01*
X013894Y017666D01*
X013887Y017650D01*
X013877Y017636D01*
X013864Y017623D01*
X013850Y017613D01*
X013834Y017606D01*
X013817Y017602D01*
X013800Y017600D01*
X013250Y018000D02*
X013000Y018000D01*
X013000Y018250D01*
X013000Y018000D02*
X012600Y018250D01*
X012600Y017750D01*
X013000Y018000D01*
X013000Y017750D01*
X013000Y018000D02*
X012400Y018000D01*
X012200Y019100D02*
X013800Y019100D01*
X013817Y019102D01*
X013834Y019106D01*
X013850Y019113D01*
X013864Y019123D01*
X013877Y019136D01*
X013887Y019150D01*
X013894Y019166D01*
X013898Y019183D01*
X013900Y019200D01*
X013900Y019800D01*
X013898Y019817D01*
X013894Y019834D01*
X013887Y019850D01*
X013877Y019864D01*
X013864Y019877D01*
X013850Y019887D01*
X013834Y019894D01*
X013817Y019898D01*
X013800Y019900D01*
X012200Y019900D01*
X012183Y019898D01*
X012166Y019894D01*
X012150Y019887D01*
X012136Y019877D01*
X012123Y019864D01*
X012113Y019850D01*
X012106Y019834D01*
X012102Y019817D01*
X012100Y019800D01*
X012100Y019200D01*
X012102Y019183D01*
X012106Y019166D01*
X012113Y019150D01*
X012123Y019136D01*
X012136Y019123D01*
X012150Y019113D01*
X012166Y019106D01*
X012183Y019102D01*
X012200Y019100D01*
X012600Y019250D02*
X013000Y019500D01*
X013000Y019750D01*
X013000Y019500D02*
X012600Y019750D01*
X012600Y019250D01*
X012400Y019500D02*
X013000Y019500D01*
X013000Y019250D01*
X013000Y019500D02*
X013250Y019500D01*
X013800Y020600D02*
X012200Y020600D01*
X012183Y020602D01*
X012166Y020606D01*
X012150Y020613D01*
X012136Y020623D01*
X012123Y020636D01*
X012113Y020650D01*
X012106Y020666D01*
X012102Y020683D01*
X012100Y020700D01*
X012100Y021300D01*
X012102Y021317D01*
X012106Y021334D01*
X012113Y021350D01*
X012123Y021364D01*
X012136Y021377D01*
X012150Y021387D01*
X012166Y021394D01*
X012183Y021398D01*
X012200Y021400D01*
X013800Y021400D01*
X013817Y021398D01*
X013834Y021394D01*
X013850Y021387D01*
X013864Y021377D01*
X013877Y021364D01*
X013887Y021350D01*
X013894Y021334D01*
X013898Y021317D01*
X013900Y021300D01*
X013900Y020700D01*
X013898Y020683D01*
X013894Y020666D01*
X013887Y020650D01*
X013877Y020636D01*
X013864Y020623D01*
X013850Y020613D01*
X013834Y020606D01*
X013817Y020602D01*
X013800Y020600D01*
X013250Y021000D02*
X013000Y021000D01*
X013000Y021250D01*
X013000Y021000D02*
X012600Y021250D01*
X012600Y020750D01*
X013000Y021000D01*
X013000Y020750D01*
X013000Y021000D02*
X012400Y021000D01*
X012200Y022100D02*
X013800Y022100D01*
X013817Y022102D01*
X013834Y022106D01*
X013850Y022113D01*
X013864Y022123D01*
X013877Y022136D01*
X013887Y022150D01*
X013894Y022166D01*
X013898Y022183D01*
X013900Y022200D01*
X013900Y022800D01*
X013898Y022817D01*
X013894Y022834D01*
X013887Y022850D01*
X013877Y022864D01*
X013864Y022877D01*
X013850Y022887D01*
X013834Y022894D01*
X013817Y022898D01*
X013800Y022900D01*
X012200Y022900D01*
X012183Y022898D01*
X012166Y022894D01*
X012150Y022887D01*
X012136Y022877D01*
X012123Y022864D01*
X012113Y022850D01*
X012106Y022834D01*
X012102Y022817D01*
X012100Y022800D01*
X012100Y022200D01*
X012102Y022183D01*
X012106Y022166D01*
X012113Y022150D01*
X012123Y022136D01*
X012136Y022123D01*
X012150Y022113D01*
X012166Y022106D01*
X012183Y022102D01*
X012200Y022100D01*
X012600Y022250D02*
X013000Y022500D01*
X013000Y022750D01*
X013000Y022500D02*
X012600Y022750D01*
X012600Y022250D01*
X012400Y022500D02*
X013000Y022500D01*
X013000Y022250D01*
X013000Y022500D02*
X013250Y022500D01*
X017250Y022150D02*
X017250Y022850D01*
X017252Y022867D01*
X017256Y022884D01*
X017263Y022900D01*
X017273Y022914D01*
X017286Y022927D01*
X017300Y022937D01*
X017316Y022944D01*
X017333Y022948D01*
X017350Y022950D01*
X017500Y022950D01*
X017550Y022900D01*
X019450Y022900D01*
X019500Y022950D01*
X019650Y022950D01*
X019667Y022948D01*
X019684Y022944D01*
X019700Y022937D01*
X019714Y022927D01*
X019727Y022914D01*
X019737Y022900D01*
X019744Y022884D01*
X019748Y022867D01*
X019750Y022850D01*
X019750Y022150D01*
X019748Y022133D01*
X019744Y022116D01*
X019737Y022100D01*
X019727Y022086D01*
X019714Y022073D01*
X019700Y022063D01*
X019684Y022056D01*
X019667Y022052D01*
X019650Y022050D01*
X019500Y022050D01*
X019450Y022100D01*
X017550Y022100D01*
X017500Y022050D01*
X017350Y022050D01*
X017333Y022052D01*
X017316Y022056D01*
X017300Y022063D01*
X017286Y022073D01*
X017273Y022086D01*
X017263Y022100D01*
X017256Y022116D01*
X017252Y022133D01*
X017250Y022150D01*
X017350Y021450D02*
X017500Y021450D01*
X017550Y021400D01*
X019450Y021400D01*
X019500Y021450D01*
X019650Y021450D01*
X019667Y021448D01*
X019684Y021444D01*
X019700Y021437D01*
X019714Y021427D01*
X019727Y021414D01*
X019737Y021400D01*
X019744Y021384D01*
X019748Y021367D01*
X019750Y021350D01*
X019750Y020650D01*
X019748Y020633D01*
X019744Y020616D01*
X019737Y020600D01*
X019727Y020586D01*
X019714Y020573D01*
X019700Y020563D01*
X019684Y020556D01*
X019667Y020552D01*
X019650Y020550D01*
X019500Y020550D01*
X019450Y020600D01*
X017550Y020600D01*
X017500Y020550D01*
X017350Y020550D01*
X017333Y020552D01*
X017316Y020556D01*
X017300Y020563D01*
X017286Y020573D01*
X017273Y020586D01*
X017263Y020600D01*
X017256Y020616D01*
X017252Y020633D01*
X017250Y020650D01*
X017250Y021350D01*
X017252Y021367D01*
X017256Y021384D01*
X017263Y021400D01*
X017273Y021414D01*
X017286Y021427D01*
X017300Y021437D01*
X017316Y021444D01*
X017333Y021448D01*
X017350Y021450D01*
X017350Y019950D02*
X017500Y019950D01*
X017550Y019900D01*
X019450Y019900D01*
X019500Y019950D01*
X019650Y019950D01*
X019667Y019948D01*
X019684Y019944D01*
X019700Y019937D01*
X019714Y019927D01*
X019727Y019914D01*
X019737Y019900D01*
X019744Y019884D01*
X019748Y019867D01*
X019750Y019850D01*
X019750Y019150D01*
X019748Y019133D01*
X019744Y019116D01*
X019737Y019100D01*
X019727Y019086D01*
X019714Y019073D01*
X019700Y019063D01*
X019684Y019056D01*
X019667Y019052D01*
X019650Y019050D01*
X019500Y019050D01*
X019450Y019100D01*
X017550Y019100D01*
X017500Y019050D01*
X017350Y019050D01*
X017333Y019052D01*
X017316Y019056D01*
X017300Y019063D01*
X017286Y019073D01*
X017273Y019086D01*
X017263Y019100D01*
X017256Y019116D01*
X017252Y019133D01*
X017250Y019150D01*
X017250Y019850D01*
X017252Y019867D01*
X017256Y019884D01*
X017263Y019900D01*
X017273Y019914D01*
X017286Y019927D01*
X017300Y019937D01*
X017316Y019944D01*
X017333Y019948D01*
X017350Y019950D01*
X017350Y018450D02*
X017500Y018450D01*
X017550Y018400D01*
X019450Y018400D01*
X019500Y018450D01*
X019650Y018450D01*
X019667Y018448D01*
X019684Y018444D01*
X019700Y018437D01*
X019714Y018427D01*
X019727Y018414D01*
X019737Y018400D01*
X019744Y018384D01*
X019748Y018367D01*
X019750Y018350D01*
X019750Y017650D01*
X019748Y017633D01*
X019744Y017616D01*
X019737Y017600D01*
X019727Y017586D01*
X019714Y017573D01*
X019700Y017563D01*
X019684Y017556D01*
X019667Y017552D01*
X019650Y017550D01*
X019500Y017550D01*
X019450Y017600D01*
X017550Y017600D01*
X017500Y017550D01*
X017350Y017550D01*
X017333Y017552D01*
X017316Y017556D01*
X017300Y017563D01*
X017286Y017573D01*
X017273Y017586D01*
X017263Y017600D01*
X017256Y017616D01*
X017252Y017633D01*
X017250Y017650D01*
X017250Y018350D01*
X017252Y018367D01*
X017256Y018384D01*
X017263Y018400D01*
X017273Y018414D01*
X017286Y018427D01*
X017300Y018437D01*
X017316Y018444D01*
X017333Y018448D01*
X017350Y018450D01*
X017350Y016950D02*
X017500Y016950D01*
X017550Y016900D01*
X019450Y016900D01*
X019500Y016950D01*
X019650Y016950D01*
X019667Y016948D01*
X019684Y016944D01*
X019700Y016937D01*
X019714Y016927D01*
X019727Y016914D01*
X019737Y016900D01*
X019744Y016884D01*
X019748Y016867D01*
X019750Y016850D01*
X019750Y016150D01*
X019748Y016133D01*
X019744Y016116D01*
X019737Y016100D01*
X019727Y016086D01*
X019714Y016073D01*
X019700Y016063D01*
X019684Y016056D01*
X019667Y016052D01*
X019650Y016050D01*
X019500Y016050D01*
X019450Y016100D01*
X017550Y016100D01*
X017500Y016050D01*
X017350Y016050D01*
X017333Y016052D01*
X017316Y016056D01*
X017300Y016063D01*
X017286Y016073D01*
X017273Y016086D01*
X017263Y016100D01*
X017256Y016116D01*
X017252Y016133D01*
X017250Y016150D01*
X017250Y016850D01*
X017252Y016867D01*
X017256Y016884D01*
X017263Y016900D01*
X017273Y016914D01*
X017286Y016927D01*
X017300Y016937D01*
X017316Y016944D01*
X017333Y016948D01*
X017350Y016950D01*
X017350Y015450D02*
X017500Y015450D01*
X017550Y015400D01*
X019450Y015400D01*
X019500Y015450D01*
X019650Y015450D01*
X019667Y015448D01*
X019684Y015444D01*
X019700Y015437D01*
X019714Y015427D01*
X019727Y015414D01*
X019737Y015400D01*
X019744Y015384D01*
X019748Y015367D01*
X019750Y015350D01*
X019750Y014650D01*
X019748Y014633D01*
X019744Y014616D01*
X019737Y014600D01*
X019727Y014586D01*
X019714Y014573D01*
X019700Y014563D01*
X019684Y014556D01*
X019667Y014552D01*
X019650Y014550D01*
X019500Y014550D01*
X019450Y014600D01*
X017550Y014600D01*
X017500Y014550D01*
X017350Y014550D01*
X017333Y014552D01*
X017316Y014556D01*
X017300Y014563D01*
X017286Y014573D01*
X017273Y014586D01*
X017263Y014600D01*
X017256Y014616D01*
X017252Y014633D01*
X017250Y014650D01*
X017250Y015350D01*
X017252Y015367D01*
X017256Y015384D01*
X017263Y015400D01*
X017273Y015414D01*
X017286Y015427D01*
X017300Y015437D01*
X017316Y015444D01*
X017333Y015448D01*
X017350Y015450D01*
X017350Y013950D02*
X017500Y013950D01*
X017550Y013900D01*
X019450Y013900D01*
X019500Y013950D01*
X019650Y013950D01*
X019667Y013948D01*
X019684Y013944D01*
X019700Y013937D01*
X019714Y013927D01*
X019727Y013914D01*
X019737Y013900D01*
X019744Y013884D01*
X019748Y013867D01*
X019750Y013850D01*
X019750Y013150D01*
X019748Y013133D01*
X019744Y013116D01*
X019737Y013100D01*
X019727Y013086D01*
X019714Y013073D01*
X019700Y013063D01*
X019684Y013056D01*
X019667Y013052D01*
X019650Y013050D01*
X019500Y013050D01*
X019450Y013100D01*
X017550Y013100D01*
X017500Y013050D01*
X017350Y013050D01*
X017333Y013052D01*
X017316Y013056D01*
X017300Y013063D01*
X017286Y013073D01*
X017273Y013086D01*
X017263Y013100D01*
X017256Y013116D01*
X017252Y013133D01*
X017250Y013150D01*
X017250Y013850D01*
X017252Y013867D01*
X017256Y013884D01*
X017263Y013900D01*
X017273Y013914D01*
X017286Y013927D01*
X017300Y013937D01*
X017316Y013944D01*
X017333Y013948D01*
X017350Y013950D01*
X017350Y012450D02*
X017500Y012450D01*
X017550Y012400D01*
X019450Y012400D01*
X019500Y012450D01*
X019650Y012450D01*
X019667Y012448D01*
X019684Y012444D01*
X019700Y012437D01*
X019714Y012427D01*
X019727Y012414D01*
X019737Y012400D01*
X019744Y012384D01*
X019748Y012367D01*
X019750Y012350D01*
X019750Y011650D01*
X019748Y011633D01*
X019744Y011616D01*
X019737Y011600D01*
X019727Y011586D01*
X019714Y011573D01*
X019700Y011563D01*
X019684Y011556D01*
X019667Y011552D01*
X019650Y011550D01*
X019500Y011550D01*
X019450Y011600D01*
X017550Y011600D01*
X017500Y011550D01*
X017350Y011550D01*
X017333Y011552D01*
X017316Y011556D01*
X017300Y011563D01*
X017286Y011573D01*
X017273Y011586D01*
X017263Y011600D01*
X017256Y011616D01*
X017252Y011633D01*
X017250Y011650D01*
X017250Y012350D01*
X017252Y012367D01*
X017256Y012384D01*
X017263Y012400D01*
X017273Y012414D01*
X017286Y012427D01*
X017300Y012437D01*
X017316Y012444D01*
X017333Y012448D01*
X017350Y012450D01*
X017350Y010950D02*
X017500Y010950D01*
X017550Y010900D01*
X019450Y010900D01*
X019500Y010950D01*
X019650Y010950D01*
X019667Y010948D01*
X019684Y010944D01*
X019700Y010937D01*
X019714Y010927D01*
X019727Y010914D01*
X019737Y010900D01*
X019744Y010884D01*
X019748Y010867D01*
X019750Y010850D01*
X019750Y010150D01*
X019748Y010133D01*
X019744Y010116D01*
X019737Y010100D01*
X019727Y010086D01*
X019714Y010073D01*
X019700Y010063D01*
X019684Y010056D01*
X019667Y010052D01*
X019650Y010050D01*
X019500Y010050D01*
X019450Y010100D01*
X017550Y010100D01*
X017500Y010050D01*
X017350Y010050D01*
X017333Y010052D01*
X017316Y010056D01*
X017300Y010063D01*
X017286Y010073D01*
X017273Y010086D01*
X017263Y010100D01*
X017256Y010116D01*
X017252Y010133D01*
X017250Y010150D01*
X017250Y010850D01*
X017252Y010867D01*
X017256Y010884D01*
X017263Y010900D01*
X017273Y010914D01*
X017286Y010927D01*
X017300Y010937D01*
X017316Y010944D01*
X017333Y010948D01*
X017350Y010950D01*
X017350Y009450D02*
X017500Y009450D01*
X017550Y009400D01*
X019450Y009400D01*
X019500Y009450D01*
X019650Y009450D01*
X019667Y009448D01*
X019684Y009444D01*
X019700Y009437D01*
X019714Y009427D01*
X019727Y009414D01*
X019737Y009400D01*
X019744Y009384D01*
X019748Y009367D01*
X019750Y009350D01*
X019750Y008650D01*
X019748Y008633D01*
X019744Y008616D01*
X019737Y008600D01*
X019727Y008586D01*
X019714Y008573D01*
X019700Y008563D01*
X019684Y008556D01*
X019667Y008552D01*
X019650Y008550D01*
X019500Y008550D01*
X019450Y008600D01*
X017550Y008600D01*
X017500Y008550D01*
X017350Y008550D01*
X017333Y008552D01*
X017316Y008556D01*
X017300Y008563D01*
X017286Y008573D01*
X017273Y008586D01*
X017263Y008600D01*
X017256Y008616D01*
X017252Y008633D01*
X017250Y008650D01*
X017250Y009350D01*
X017252Y009367D01*
X017256Y009384D01*
X017263Y009400D01*
X017273Y009414D01*
X017286Y009427D01*
X017300Y009437D01*
X017316Y009444D01*
X017333Y009448D01*
X017350Y009450D01*
X017350Y007950D02*
X017500Y007950D01*
X017550Y007900D01*
X019450Y007900D01*
X019500Y007950D01*
X019650Y007950D01*
X019667Y007948D01*
X019684Y007944D01*
X019700Y007937D01*
X019714Y007927D01*
X019727Y007914D01*
X019737Y007900D01*
X019744Y007884D01*
X019748Y007867D01*
X019750Y007850D01*
X019750Y007150D01*
X019748Y007133D01*
X019744Y007116D01*
X019737Y007100D01*
X019727Y007086D01*
X019714Y007073D01*
X019700Y007063D01*
X019684Y007056D01*
X019667Y007052D01*
X019650Y007050D01*
X019500Y007050D01*
X019450Y007100D01*
X017550Y007100D01*
X017500Y007050D01*
X017350Y007050D01*
X017333Y007052D01*
X017316Y007056D01*
X017300Y007063D01*
X017286Y007073D01*
X017273Y007086D01*
X017263Y007100D01*
X017256Y007116D01*
X017252Y007133D01*
X017250Y007150D01*
X017250Y007850D01*
X017252Y007867D01*
X017256Y007884D01*
X017263Y007900D01*
X017273Y007914D01*
X017286Y007927D01*
X017300Y007937D01*
X017316Y007944D01*
X017333Y007948D01*
X017350Y007950D01*
X017350Y006450D02*
X017500Y006450D01*
X017550Y006400D01*
X019450Y006400D01*
X019500Y006450D01*
X019650Y006450D01*
X019667Y006448D01*
X019684Y006444D01*
X019700Y006437D01*
X019714Y006427D01*
X019727Y006414D01*
X019737Y006400D01*
X019744Y006384D01*
X019748Y006367D01*
X019750Y006350D01*
X019750Y005650D01*
X019748Y005633D01*
X019744Y005616D01*
X019737Y005600D01*
X019727Y005586D01*
X019714Y005573D01*
X019700Y005563D01*
X019684Y005556D01*
X019667Y005552D01*
X019650Y005550D01*
X019500Y005550D01*
X019450Y005600D01*
X017550Y005600D01*
X017500Y005550D01*
X017350Y005550D01*
X017333Y005552D01*
X017316Y005556D01*
X017300Y005563D01*
X017286Y005573D01*
X017273Y005586D01*
X017263Y005600D01*
X017256Y005616D01*
X017252Y005633D01*
X017250Y005650D01*
X017250Y006350D01*
X017252Y006367D01*
X017256Y006384D01*
X017263Y006400D01*
X017273Y006414D01*
X017286Y006427D01*
X017300Y006437D01*
X017316Y006444D01*
X017333Y006448D01*
X017350Y006450D01*
X017350Y004950D02*
X017500Y004950D01*
X017550Y004900D01*
X019450Y004900D01*
X019500Y004950D01*
X019650Y004950D01*
X019667Y004948D01*
X019684Y004944D01*
X019700Y004937D01*
X019714Y004927D01*
X019727Y004914D01*
X019737Y004900D01*
X019744Y004884D01*
X019748Y004867D01*
X019750Y004850D01*
X019750Y004150D01*
X019748Y004133D01*
X019744Y004116D01*
X019737Y004100D01*
X019727Y004086D01*
X019714Y004073D01*
X019700Y004063D01*
X019684Y004056D01*
X019667Y004052D01*
X019650Y004050D01*
X019500Y004050D01*
X019450Y004100D01*
X017550Y004100D01*
X017500Y004050D01*
X017350Y004050D01*
X017333Y004052D01*
X017316Y004056D01*
X017300Y004063D01*
X017286Y004073D01*
X017273Y004086D01*
X017263Y004100D01*
X017256Y004116D01*
X017252Y004133D01*
X017250Y004150D01*
X017250Y004850D01*
X017252Y004867D01*
X017256Y004884D01*
X017263Y004900D01*
X017273Y004914D01*
X017286Y004927D01*
X017300Y004937D01*
X017316Y004944D01*
X017333Y004948D01*
X017350Y004950D01*
X022250Y004850D02*
X022250Y004150D01*
X022252Y004133D01*
X022256Y004116D01*
X022263Y004100D01*
X022273Y004086D01*
X022286Y004073D01*
X022300Y004063D01*
X022316Y004056D01*
X022333Y004052D01*
X022350Y004050D01*
X022500Y004050D01*
X022550Y004100D01*
X024450Y004100D01*
X024500Y004050D01*
X024650Y004050D01*
X024667Y004052D01*
X024684Y004056D01*
X024700Y004063D01*
X024714Y004073D01*
X024727Y004086D01*
X024737Y004100D01*
X024744Y004116D01*
X024748Y004133D01*
X024750Y004150D01*
X024750Y004850D01*
X024748Y004867D01*
X024744Y004884D01*
X024737Y004900D01*
X024727Y004914D01*
X024714Y004927D01*
X024700Y004937D01*
X024684Y004944D01*
X024667Y004948D01*
X024650Y004950D01*
X024500Y004950D01*
X024450Y004900D01*
X022550Y004900D01*
X022500Y004950D01*
X022350Y004950D01*
X022333Y004948D01*
X022316Y004944D01*
X022300Y004937D01*
X022286Y004927D01*
X022273Y004914D01*
X022263Y004900D01*
X022256Y004884D01*
X022252Y004867D01*
X022250Y004850D01*
X022350Y005550D02*
X022500Y005550D01*
X022550Y005600D01*
X024450Y005600D01*
X024500Y005550D01*
X024650Y005550D01*
X024667Y005552D01*
X024684Y005556D01*
X024700Y005563D01*
X024714Y005573D01*
X024727Y005586D01*
X024737Y005600D01*
X024744Y005616D01*
X024748Y005633D01*
X024750Y005650D01*
X024750Y006350D01*
X024748Y006367D01*
X024744Y006384D01*
X024737Y006400D01*
X024727Y006414D01*
X024714Y006427D01*
X024700Y006437D01*
X024684Y006444D01*
X024667Y006448D01*
X024650Y006450D01*
X024500Y006450D01*
X024450Y006400D01*
X022550Y006400D01*
X022500Y006450D01*
X022350Y006450D01*
X022333Y006448D01*
X022316Y006444D01*
X022300Y006437D01*
X022286Y006427D01*
X022273Y006414D01*
X022263Y006400D01*
X022256Y006384D01*
X022252Y006367D01*
X022250Y006350D01*
X022250Y005650D01*
X022252Y005633D01*
X022256Y005616D01*
X022263Y005600D01*
X022273Y005586D01*
X022286Y005573D01*
X022300Y005563D01*
X022316Y005556D01*
X022333Y005552D01*
X022350Y005550D01*
X022350Y007050D02*
X022500Y007050D01*
X022550Y007100D01*
X024450Y007100D01*
X024500Y007050D01*
X024650Y007050D01*
X024667Y007052D01*
X024684Y007056D01*
X024700Y007063D01*
X024714Y007073D01*
X024727Y007086D01*
X024737Y007100D01*
X024744Y007116D01*
X024748Y007133D01*
X024750Y007150D01*
X024750Y007850D01*
X024748Y007867D01*
X024744Y007884D01*
X024737Y007900D01*
X024727Y007914D01*
X024714Y007927D01*
X024700Y007937D01*
X024684Y007944D01*
X024667Y007948D01*
X024650Y007950D01*
X024500Y007950D01*
X024450Y007900D01*
X022550Y007900D01*
X022500Y007950D01*
X022350Y007950D01*
X022333Y007948D01*
X022316Y007944D01*
X022300Y007937D01*
X022286Y007927D01*
X022273Y007914D01*
X022263Y007900D01*
X022256Y007884D01*
X022252Y007867D01*
X022250Y007850D01*
X022250Y007150D01*
X022252Y007133D01*
X022256Y007116D01*
X022263Y007100D01*
X022273Y007086D01*
X022286Y007073D01*
X022300Y007063D01*
X022316Y007056D01*
X022333Y007052D01*
X022350Y007050D01*
X022350Y008550D02*
X022500Y008550D01*
X022550Y008600D01*
X024450Y008600D01*
X024500Y008550D01*
X024650Y008550D01*
X024667Y008552D01*
X024684Y008556D01*
X024700Y008563D01*
X024714Y008573D01*
X024727Y008586D01*
X024737Y008600D01*
X024744Y008616D01*
X024748Y008633D01*
X024750Y008650D01*
X024750Y009350D01*
X024748Y009367D01*
X024744Y009384D01*
X024737Y009400D01*
X024727Y009414D01*
X024714Y009427D01*
X024700Y009437D01*
X024684Y009444D01*
X024667Y009448D01*
X024650Y009450D01*
X024500Y009450D01*
X024450Y009400D01*
X022550Y009400D01*
X022500Y009450D01*
X022350Y009450D01*
X022333Y009448D01*
X022316Y009444D01*
X022300Y009437D01*
X022286Y009427D01*
X022273Y009414D01*
X022263Y009400D01*
X022256Y009384D01*
X022252Y009367D01*
X022250Y009350D01*
X022250Y008650D01*
X022252Y008633D01*
X022256Y008616D01*
X022263Y008600D01*
X022273Y008586D01*
X022286Y008573D01*
X022300Y008563D01*
X022316Y008556D01*
X022333Y008552D01*
X022350Y008550D01*
X022350Y010050D02*
X022500Y010050D01*
X022550Y010100D01*
X024450Y010100D01*
X024500Y010050D01*
X024650Y010050D01*
X024667Y010052D01*
X024684Y010056D01*
X024700Y010063D01*
X024714Y010073D01*
X024727Y010086D01*
X024737Y010100D01*
X024744Y010116D01*
X024748Y010133D01*
X024750Y010150D01*
X024750Y010850D01*
X024748Y010867D01*
X024744Y010884D01*
X024737Y010900D01*
X024727Y010914D01*
X024714Y010927D01*
X024700Y010937D01*
X024684Y010944D01*
X024667Y010948D01*
X024650Y010950D01*
X024500Y010950D01*
X024450Y010900D01*
X022550Y010900D01*
X022500Y010950D01*
X022350Y010950D01*
X022333Y010948D01*
X022316Y010944D01*
X022300Y010937D01*
X022286Y010927D01*
X022273Y010914D01*
X022263Y010900D01*
X022256Y010884D01*
X022252Y010867D01*
X022250Y010850D01*
X022250Y010150D01*
X022252Y010133D01*
X022256Y010116D01*
X022263Y010100D01*
X022273Y010086D01*
X022286Y010073D01*
X022300Y010063D01*
X022316Y010056D01*
X022333Y010052D01*
X022350Y010050D01*
X022350Y011550D02*
X022500Y011550D01*
X022550Y011600D01*
X024450Y011600D01*
X024500Y011550D01*
X024650Y011550D01*
X024667Y011552D01*
X024684Y011556D01*
X024700Y011563D01*
X024714Y011573D01*
X024727Y011586D01*
X024737Y011600D01*
X024744Y011616D01*
X024748Y011633D01*
X024750Y011650D01*
X024750Y012350D01*
X024748Y012367D01*
X024744Y012384D01*
X024737Y012400D01*
X024727Y012414D01*
X024714Y012427D01*
X024700Y012437D01*
X024684Y012444D01*
X024667Y012448D01*
X024650Y012450D01*
X024500Y012450D01*
X024450Y012400D01*
X022550Y012400D01*
X022500Y012450D01*
X022350Y012450D01*
X022333Y012448D01*
X022316Y012444D01*
X022300Y012437D01*
X022286Y012427D01*
X022273Y012414D01*
X022263Y012400D01*
X022256Y012384D01*
X022252Y012367D01*
X022250Y012350D01*
X022250Y011650D01*
X022252Y011633D01*
X022256Y011616D01*
X022263Y011600D01*
X022273Y011586D01*
X022286Y011573D01*
X022300Y011563D01*
X022316Y011556D01*
X022333Y011552D01*
X022350Y011550D01*
X022350Y013050D02*
X022500Y013050D01*
X022550Y013100D01*
X024450Y013100D01*
X024500Y013050D01*
X024650Y013050D01*
X024667Y013052D01*
X024684Y013056D01*
X024700Y013063D01*
X024714Y013073D01*
X024727Y013086D01*
X024737Y013100D01*
X024744Y013116D01*
X024748Y013133D01*
X024750Y013150D01*
X024750Y013850D01*
X024748Y013867D01*
X024744Y013884D01*
X024737Y013900D01*
X024727Y013914D01*
X024714Y013927D01*
X024700Y013937D01*
X024684Y013944D01*
X024667Y013948D01*
X024650Y013950D01*
X024500Y013950D01*
X024450Y013900D01*
X022550Y013900D01*
X022500Y013950D01*
X022350Y013950D01*
X022333Y013948D01*
X022316Y013944D01*
X022300Y013937D01*
X022286Y013927D01*
X022273Y013914D01*
X022263Y013900D01*
X022256Y013884D01*
X022252Y013867D01*
X022250Y013850D01*
X022250Y013150D01*
X022252Y013133D01*
X022256Y013116D01*
X022263Y013100D01*
X022273Y013086D01*
X022286Y013073D01*
X022300Y013063D01*
X022316Y013056D01*
X022333Y013052D01*
X022350Y013050D01*
X022350Y014550D02*
X022500Y014550D01*
X022550Y014600D01*
X024450Y014600D01*
X024500Y014550D01*
X024650Y014550D01*
X024667Y014552D01*
X024684Y014556D01*
X024700Y014563D01*
X024714Y014573D01*
X024727Y014586D01*
X024737Y014600D01*
X024744Y014616D01*
X024748Y014633D01*
X024750Y014650D01*
X024750Y015350D01*
X024748Y015367D01*
X024744Y015384D01*
X024737Y015400D01*
X024727Y015414D01*
X024714Y015427D01*
X024700Y015437D01*
X024684Y015444D01*
X024667Y015448D01*
X024650Y015450D01*
X024500Y015450D01*
X024450Y015400D01*
X022550Y015400D01*
X022500Y015450D01*
X022350Y015450D01*
X022333Y015448D01*
X022316Y015444D01*
X022300Y015437D01*
X022286Y015427D01*
X022273Y015414D01*
X022263Y015400D01*
X022256Y015384D01*
X022252Y015367D01*
X022250Y015350D01*
X022250Y014650D01*
X022252Y014633D01*
X022256Y014616D01*
X022263Y014600D01*
X022273Y014586D01*
X022286Y014573D01*
X022300Y014563D01*
X022316Y014556D01*
X022333Y014552D01*
X022350Y014550D01*
X022350Y016050D02*
X022500Y016050D01*
X022550Y016100D01*
X024450Y016100D01*
X024500Y016050D01*
X024650Y016050D01*
X024667Y016052D01*
X024684Y016056D01*
X024700Y016063D01*
X024714Y016073D01*
X024727Y016086D01*
X024737Y016100D01*
X024744Y016116D01*
X024748Y016133D01*
X024750Y016150D01*
X024750Y016850D01*
X024748Y016867D01*
X024744Y016884D01*
X024737Y016900D01*
X024727Y016914D01*
X024714Y016927D01*
X024700Y016937D01*
X024684Y016944D01*
X024667Y016948D01*
X024650Y016950D01*
X024500Y016950D01*
X024450Y016900D01*
X022550Y016900D01*
X022500Y016950D01*
X022350Y016950D01*
X022333Y016948D01*
X022316Y016944D01*
X022300Y016937D01*
X022286Y016927D01*
X022273Y016914D01*
X022263Y016900D01*
X022256Y016884D01*
X022252Y016867D01*
X022250Y016850D01*
X022250Y016150D01*
X022252Y016133D01*
X022256Y016116D01*
X022263Y016100D01*
X022273Y016086D01*
X022286Y016073D01*
X022300Y016063D01*
X022316Y016056D01*
X022333Y016052D01*
X022350Y016050D01*
X022350Y017550D02*
X022500Y017550D01*
X022550Y017600D01*
X024450Y017600D01*
X024500Y017550D01*
X024650Y017550D01*
X024667Y017552D01*
X024684Y017556D01*
X024700Y017563D01*
X024714Y017573D01*
X024727Y017586D01*
X024737Y017600D01*
X024744Y017616D01*
X024748Y017633D01*
X024750Y017650D01*
X024750Y018350D01*
X024748Y018367D01*
X024744Y018384D01*
X024737Y018400D01*
X024727Y018414D01*
X024714Y018427D01*
X024700Y018437D01*
X024684Y018444D01*
X024667Y018448D01*
X024650Y018450D01*
X024500Y018450D01*
X024450Y018400D01*
X022550Y018400D01*
X022500Y018450D01*
X022350Y018450D01*
X022333Y018448D01*
X022316Y018444D01*
X022300Y018437D01*
X022286Y018427D01*
X022273Y018414D01*
X022263Y018400D01*
X022256Y018384D01*
X022252Y018367D01*
X022250Y018350D01*
X022250Y017650D01*
X022252Y017633D01*
X022256Y017616D01*
X022263Y017600D01*
X022273Y017586D01*
X022286Y017573D01*
X022300Y017563D01*
X022316Y017556D01*
X022333Y017552D01*
X022350Y017550D01*
X022350Y019050D02*
X022500Y019050D01*
X022550Y019100D01*
X024450Y019100D01*
X024500Y019050D01*
X024650Y019050D01*
X024667Y019052D01*
X024684Y019056D01*
X024700Y019063D01*
X024714Y019073D01*
X024727Y019086D01*
X024737Y019100D01*
X024744Y019116D01*
X024748Y019133D01*
X024750Y019150D01*
X024750Y019850D01*
X024748Y019867D01*
X024744Y019884D01*
X024737Y019900D01*
X024727Y019914D01*
X024714Y019927D01*
X024700Y019937D01*
X024684Y019944D01*
X024667Y019948D01*
X024650Y019950D01*
X024500Y019950D01*
X024450Y019900D01*
X022550Y019900D01*
X022500Y019950D01*
X022350Y019950D01*
X022333Y019948D01*
X022316Y019944D01*
X022300Y019937D01*
X022286Y019927D01*
X022273Y019914D01*
X022263Y019900D01*
X022256Y019884D01*
X022252Y019867D01*
X022250Y019850D01*
X022250Y019150D01*
X022252Y019133D01*
X022256Y019116D01*
X022263Y019100D01*
X022273Y019086D01*
X022286Y019073D01*
X022300Y019063D01*
X022316Y019056D01*
X022333Y019052D01*
X022350Y019050D01*
X022350Y020550D02*
X022500Y020550D01*
X022550Y020600D01*
X024450Y020600D01*
X024500Y020550D01*
X024650Y020550D01*
X024667Y020552D01*
X024684Y020556D01*
X024700Y020563D01*
X024714Y020573D01*
X024727Y020586D01*
X024737Y020600D01*
X024744Y020616D01*
X024748Y020633D01*
X024750Y020650D01*
X024750Y021350D01*
X024748Y021367D01*
X024744Y021384D01*
X024737Y021400D01*
X024727Y021414D01*
X024714Y021427D01*
X024700Y021437D01*
X024684Y021444D01*
X024667Y021448D01*
X024650Y021450D01*
X024500Y021450D01*
X024450Y021400D01*
X022550Y021400D01*
X022500Y021450D01*
X022350Y021450D01*
X022333Y021448D01*
X022316Y021444D01*
X022300Y021437D01*
X022286Y021427D01*
X022273Y021414D01*
X022263Y021400D01*
X022256Y021384D01*
X022252Y021367D01*
X022250Y021350D01*
X022250Y020650D01*
X022252Y020633D01*
X022256Y020616D01*
X022263Y020600D01*
X022273Y020586D01*
X022286Y020573D01*
X022300Y020563D01*
X022316Y020556D01*
X022333Y020552D01*
X022350Y020550D01*
X022350Y022050D02*
X022500Y022050D01*
X022550Y022100D01*
X024450Y022100D01*
X024500Y022050D01*
X024650Y022050D01*
X024667Y022052D01*
X024684Y022056D01*
X024700Y022063D01*
X024714Y022073D01*
X024727Y022086D01*
X024737Y022100D01*
X024744Y022116D01*
X024748Y022133D01*
X024750Y022150D01*
X024750Y022850D01*
X024748Y022867D01*
X024744Y022884D01*
X024737Y022900D01*
X024727Y022914D01*
X024714Y022927D01*
X024700Y022937D01*
X024684Y022944D01*
X024667Y022948D01*
X024650Y022950D01*
X024500Y022950D01*
X024450Y022900D01*
X022550Y022900D01*
X022500Y022950D01*
X022350Y022950D01*
X022333Y022948D01*
X022316Y022944D01*
X022300Y022937D01*
X022286Y022927D01*
X022273Y022914D01*
X022263Y022900D01*
X022256Y022884D01*
X022252Y022867D01*
X022250Y022850D01*
X022250Y022150D01*
X022252Y022133D01*
X022256Y022116D01*
X022263Y022100D01*
X022273Y022086D01*
X022286Y022073D01*
X022300Y022063D01*
X022316Y022056D01*
X022333Y022052D01*
X022350Y022050D01*
X037500Y020750D02*
X037500Y020250D01*
X037750Y020000D01*
X037500Y019750D01*
X037500Y019250D01*
X037750Y019000D01*
X037500Y018750D01*
X037500Y018250D01*
X037750Y018000D01*
X037500Y017750D01*
X037500Y017250D01*
X037750Y017000D01*
X037500Y016750D01*
X037500Y016250D01*
X037750Y016000D01*
X037500Y015750D01*
X037500Y015250D01*
X037750Y015000D01*
X037500Y014750D01*
X037500Y014250D01*
X037750Y014000D01*
X037500Y013750D01*
X037500Y013250D01*
X037750Y013000D01*
X037500Y012750D01*
X037500Y012250D01*
X037750Y012000D01*
X037500Y011750D01*
X037500Y011250D01*
X037750Y011000D01*
X037500Y010750D01*
X037500Y010250D01*
X037750Y010000D01*
X037500Y009750D01*
X037500Y009250D01*
X037750Y009000D01*
X037500Y008750D01*
X037500Y008250D01*
X037750Y008000D01*
X037500Y007750D01*
X037500Y007250D01*
X037750Y007000D01*
X037500Y006750D01*
X037500Y006250D01*
X037750Y006000D01*
X037500Y005750D01*
X037500Y005250D01*
X037750Y005000D01*
X037500Y004750D01*
X037500Y004250D01*
X037750Y004000D01*
X039250Y004000D01*
X039500Y004250D01*
X039500Y004750D01*
X039250Y005000D01*
X039500Y005250D01*
X039500Y005750D01*
X039250Y006000D01*
X039500Y006250D01*
X039500Y006750D01*
X039250Y007000D01*
X039500Y007250D01*
X039500Y007750D01*
X039250Y008000D01*
X039500Y008250D01*
X039500Y008750D01*
X039250Y009000D01*
X039500Y009250D01*
X039500Y009750D01*
X039250Y010000D01*
X039500Y010250D01*
X039500Y010750D01*
X039250Y011000D01*
X039500Y011250D01*
X039500Y011750D01*
X039250Y012000D01*
X039500Y012250D01*
X039500Y012750D01*
X039250Y013000D01*
X039500Y013250D01*
X039500Y013750D01*
X039250Y014000D01*
X039500Y014250D01*
X039500Y014750D01*
X039250Y015000D01*
X039500Y015250D01*
X039500Y015750D01*
X039250Y016000D01*
X039500Y016250D01*
X039500Y016750D01*
X039250Y017000D01*
X039500Y017250D01*
X039500Y017750D01*
X039250Y018000D01*
X039500Y018250D01*
X039500Y018750D01*
X039250Y019000D01*
X039500Y019250D01*
X039500Y019750D01*
X039250Y020000D01*
X039500Y020250D01*
X039500Y020750D01*
X039250Y021000D01*
X037750Y021000D01*
X037500Y020750D01*
D13*
X037325Y020811D02*
X036875Y020811D01*
X037100Y020585D01*
X037100Y020886D01*
X037175Y020425D02*
X037250Y020425D01*
X037325Y020350D01*
X037325Y020200D01*
X037250Y020125D01*
X037100Y020275D02*
X037100Y020350D01*
X037175Y020425D01*
X037100Y020350D02*
X037025Y020425D01*
X036950Y020425D01*
X036875Y020350D01*
X036875Y020200D01*
X036950Y020125D01*
X024086Y019725D02*
X023786Y019425D01*
X023861Y019500D02*
X024086Y019275D01*
X023786Y019275D02*
X023786Y019725D01*
X023626Y019725D02*
X023326Y019725D01*
X023326Y019500D01*
X023476Y019575D01*
X023551Y019575D01*
X023626Y019500D01*
X023626Y019350D01*
X023551Y019275D01*
X023401Y019275D01*
X023326Y019350D01*
X023170Y019350D02*
X023170Y019275D01*
X023095Y019275D01*
X023095Y019350D01*
X023170Y019350D01*
X022935Y019275D02*
X022635Y019275D01*
X022785Y019275D02*
X022785Y019725D01*
X022635Y019575D01*
X022550Y019075D02*
X022325Y019075D01*
X022325Y018625D01*
X022325Y018775D02*
X022550Y018775D01*
X022625Y018850D01*
X022625Y019000D01*
X022550Y019075D01*
X022785Y018925D02*
X022936Y019075D01*
X022936Y018625D01*
X023086Y018625D02*
X022785Y018625D01*
X022625Y018625D02*
X022475Y018775D01*
X022785Y018225D02*
X022785Y017775D01*
X022635Y017775D02*
X022935Y017775D01*
X023095Y017775D02*
X023170Y017775D01*
X023170Y017850D01*
X023095Y017850D01*
X023095Y017775D01*
X023326Y017850D02*
X023401Y017775D01*
X023551Y017775D01*
X023626Y017850D01*
X023626Y018000D01*
X023551Y018075D01*
X023476Y018075D01*
X023326Y018000D01*
X023326Y018225D01*
X023626Y018225D01*
X023786Y018225D02*
X023786Y017775D01*
X023786Y017925D02*
X024086Y018225D01*
X023861Y018000D02*
X024086Y017775D01*
X023546Y017575D02*
X023546Y017500D01*
X023246Y017200D01*
X023246Y017125D01*
X023086Y017125D02*
X022785Y017125D01*
X022936Y017125D02*
X022936Y017575D01*
X022785Y017425D01*
X022625Y017500D02*
X022625Y017350D01*
X022550Y017275D01*
X022325Y017275D01*
X022325Y017125D02*
X022325Y017575D01*
X022550Y017575D01*
X022625Y017500D01*
X022475Y017275D02*
X022625Y017125D01*
X023246Y017575D02*
X023546Y017575D01*
X022785Y018225D02*
X022635Y018075D01*
X023246Y018700D02*
X023321Y018625D01*
X023471Y018625D01*
X023546Y018700D01*
X023546Y019000D01*
X023471Y019075D01*
X023321Y019075D01*
X023246Y019000D01*
X023246Y018925D01*
X023321Y018850D01*
X023546Y018850D01*
X023546Y020125D02*
X023246Y020125D01*
X023396Y020125D02*
X023396Y020575D01*
X023246Y020425D01*
X023086Y020425D02*
X023086Y020500D01*
X023011Y020575D01*
X022860Y020575D01*
X022785Y020500D01*
X022625Y020500D02*
X022625Y020350D01*
X022550Y020275D01*
X022325Y020275D01*
X022325Y020125D02*
X022325Y020575D01*
X022550Y020575D01*
X022625Y020500D01*
X022475Y020275D02*
X022625Y020125D01*
X022785Y020125D02*
X023086Y020425D01*
X023095Y020775D02*
X023170Y020775D01*
X023170Y020850D01*
X023095Y020850D01*
X023095Y020775D01*
X022935Y020775D02*
X022635Y020775D01*
X022785Y020775D02*
X022785Y021225D01*
X022635Y021075D01*
X023326Y021000D02*
X023326Y021225D01*
X023626Y021225D01*
X023786Y021225D02*
X023786Y020775D01*
X023786Y020925D02*
X024086Y021225D01*
X023861Y021000D02*
X024086Y020775D01*
X023626Y020850D02*
X023626Y021000D01*
X023551Y021075D01*
X023476Y021075D01*
X023326Y021000D01*
X023326Y020850D02*
X023401Y020775D01*
X023551Y020775D01*
X023626Y020850D01*
X023471Y021625D02*
X023321Y021625D01*
X023246Y021700D01*
X023086Y021625D02*
X022785Y021625D01*
X023086Y021925D01*
X023086Y022000D01*
X023011Y022075D01*
X022860Y022075D01*
X022785Y022000D01*
X022625Y022000D02*
X022625Y021850D01*
X022550Y021775D01*
X022325Y021775D01*
X022325Y021625D02*
X022325Y022075D01*
X022550Y022075D01*
X022625Y022000D01*
X022475Y021775D02*
X022625Y021625D01*
X023396Y021850D02*
X023471Y021850D01*
X023546Y021775D01*
X023546Y021700D01*
X023471Y021625D01*
X023471Y021850D02*
X023546Y021925D01*
X023546Y022000D01*
X023471Y022075D01*
X023321Y022075D01*
X023246Y022000D01*
X023170Y022275D02*
X023095Y022275D01*
X023095Y022350D01*
X023170Y022350D01*
X023170Y022275D01*
X023326Y022350D02*
X023401Y022275D01*
X023551Y022275D01*
X023626Y022350D01*
X023626Y022500D01*
X023551Y022575D01*
X023476Y022575D01*
X023326Y022500D01*
X023326Y022725D01*
X023626Y022725D01*
X023786Y022725D02*
X023786Y022275D01*
X023786Y022425D02*
X024086Y022725D01*
X023861Y022500D02*
X024086Y022275D01*
X023471Y023125D02*
X023321Y023125D01*
X023246Y023200D01*
X023246Y023350D02*
X023396Y023425D01*
X023471Y023425D01*
X023546Y023350D01*
X023546Y023200D01*
X023471Y023125D01*
X023246Y023350D02*
X023246Y023575D01*
X023546Y023575D01*
X023086Y023500D02*
X023011Y023575D01*
X022860Y023575D01*
X022785Y023500D01*
X022625Y023500D02*
X022625Y023350D01*
X022550Y023275D01*
X022325Y023275D01*
X022325Y023125D02*
X022325Y023575D01*
X022550Y023575D01*
X022625Y023500D01*
X022475Y023275D02*
X022625Y023125D01*
X022785Y023125D02*
X023086Y023425D01*
X023086Y023500D01*
X023086Y023125D02*
X022785Y023125D01*
X022785Y022725D02*
X022785Y022275D01*
X022635Y022275D02*
X022935Y022275D01*
X022635Y022575D02*
X022785Y022725D01*
X019086Y022725D02*
X018786Y022425D01*
X018861Y022500D02*
X019086Y022275D01*
X018786Y022275D02*
X018786Y022725D01*
X018626Y022725D02*
X018326Y022725D01*
X018326Y022500D01*
X018476Y022575D01*
X018551Y022575D01*
X018626Y022500D01*
X018626Y022350D01*
X018551Y022275D01*
X018401Y022275D01*
X018326Y022350D01*
X018170Y022350D02*
X018170Y022275D01*
X018095Y022275D01*
X018095Y022350D01*
X018170Y022350D01*
X017935Y022275D02*
X017635Y022275D01*
X017785Y022275D02*
X017785Y022725D01*
X017635Y022575D01*
X017550Y022075D02*
X017325Y022075D01*
X017325Y021625D01*
X017325Y021775D02*
X017550Y021775D01*
X017625Y021850D01*
X017625Y022000D01*
X017550Y022075D01*
X017785Y022000D02*
X017860Y022075D01*
X018011Y022075D01*
X018086Y022000D01*
X018086Y021925D01*
X017785Y021625D01*
X018086Y021625D01*
X018246Y021850D02*
X018546Y021850D01*
X018471Y021625D02*
X018471Y022075D01*
X018246Y021850D01*
X017625Y021625D02*
X017475Y021775D01*
X017785Y021225D02*
X017785Y020775D01*
X017635Y020775D02*
X017935Y020775D01*
X018095Y020775D02*
X018170Y020775D01*
X018170Y020850D01*
X018095Y020850D01*
X018095Y020775D01*
X018011Y020575D02*
X017860Y020575D01*
X017785Y020500D01*
X017625Y020500D02*
X017625Y020350D01*
X017550Y020275D01*
X017325Y020275D01*
X017325Y020125D02*
X017325Y020575D01*
X017550Y020575D01*
X017625Y020500D01*
X017475Y020275D02*
X017625Y020125D01*
X017785Y020125D02*
X018086Y020425D01*
X018086Y020500D01*
X018011Y020575D01*
X018246Y020500D02*
X018321Y020575D01*
X018471Y020575D01*
X018546Y020500D01*
X018546Y020425D01*
X018246Y020125D01*
X018546Y020125D01*
X018626Y019725D02*
X018326Y019725D01*
X018326Y019500D01*
X018476Y019575D01*
X018551Y019575D01*
X018626Y019500D01*
X018626Y019350D01*
X018551Y019275D01*
X018401Y019275D01*
X018326Y019350D01*
X018170Y019350D02*
X018170Y019275D01*
X018095Y019275D01*
X018095Y019350D01*
X018170Y019350D01*
X017935Y019275D02*
X017635Y019275D01*
X017785Y019275D02*
X017785Y019725D01*
X017635Y019575D01*
X017550Y019075D02*
X017325Y019075D01*
X017325Y018625D01*
X017325Y018775D02*
X017550Y018775D01*
X017625Y018850D01*
X017625Y019000D01*
X017550Y019075D01*
X017785Y019000D02*
X017860Y019075D01*
X018011Y019075D01*
X018086Y019000D01*
X018086Y018925D01*
X017785Y018625D01*
X018086Y018625D01*
X018246Y018700D02*
X018321Y018625D01*
X018471Y018625D01*
X018546Y018700D01*
X018546Y019000D01*
X018246Y018700D01*
X018246Y019000D01*
X018321Y019075D01*
X018471Y019075D01*
X018546Y019000D01*
X018786Y019275D02*
X018786Y019725D01*
X018861Y019500D02*
X019086Y019275D01*
X018786Y019425D02*
X019086Y019725D01*
X018086Y020125D02*
X017785Y020125D01*
X018401Y020775D02*
X018326Y020850D01*
X018401Y020775D02*
X018551Y020775D01*
X018626Y020850D01*
X018626Y021000D01*
X018551Y021075D01*
X018476Y021075D01*
X018326Y021000D01*
X018326Y021225D01*
X018626Y021225D01*
X018786Y021225D02*
X018786Y020775D01*
X018786Y020925D02*
X019086Y021225D01*
X018861Y021000D02*
X019086Y020775D01*
X017785Y021225D02*
X017635Y021075D01*
X017625Y023125D02*
X017475Y023275D01*
X017550Y023275D02*
X017325Y023275D01*
X017325Y023125D02*
X017325Y023575D01*
X017550Y023575D01*
X017625Y023500D01*
X017625Y023350D01*
X017550Y023275D01*
X017785Y023125D02*
X018086Y023425D01*
X018086Y023500D01*
X018011Y023575D01*
X017860Y023575D01*
X017785Y023500D01*
X018246Y023350D02*
X018471Y023350D01*
X018546Y023275D01*
X018546Y023200D01*
X018471Y023125D01*
X018321Y023125D01*
X018246Y023200D01*
X018246Y023350D01*
X018396Y023500D01*
X018546Y023575D01*
X018086Y023125D02*
X017785Y023125D01*
X013715Y023150D02*
X013715Y023225D01*
X013640Y023300D01*
X013415Y023300D01*
X013415Y023150D01*
X013490Y023075D01*
X013640Y023075D01*
X013715Y023150D01*
X013565Y023450D02*
X013415Y023300D01*
X013565Y023450D02*
X013715Y023525D01*
X013254Y023450D02*
X012954Y023150D01*
X013029Y023075D01*
X013179Y023075D01*
X013254Y023150D01*
X013254Y023450D01*
X013179Y023525D01*
X013029Y023525D01*
X012954Y023450D01*
X012954Y023150D01*
X012794Y023150D02*
X012794Y023225D01*
X012719Y023300D01*
X012494Y023300D01*
X012494Y023150D01*
X012569Y023075D01*
X012719Y023075D01*
X012794Y023150D01*
X012644Y023450D02*
X012494Y023300D01*
X012334Y023225D02*
X012334Y023150D01*
X012259Y023075D01*
X012108Y023075D01*
X012033Y023150D01*
X011873Y023075D02*
X011873Y023525D01*
X012033Y023450D02*
X012108Y023525D01*
X012259Y023525D01*
X012334Y023450D01*
X012334Y023375D01*
X012259Y023300D01*
X012334Y023225D01*
X012259Y023300D02*
X012184Y023300D01*
X011873Y023075D02*
X011573Y023525D01*
X011573Y023075D01*
X011413Y023075D02*
X011113Y023075D01*
X011263Y023075D02*
X011263Y023525D01*
X011113Y023375D01*
X012644Y023450D02*
X012794Y023525D01*
X012794Y022025D02*
X012644Y021950D01*
X012494Y021800D01*
X012719Y021800D01*
X012794Y021725D01*
X012794Y021650D01*
X012719Y021575D01*
X012569Y021575D01*
X012494Y021650D01*
X012494Y021800D01*
X012494Y021975D02*
X012494Y021525D01*
X012719Y021525D01*
X012794Y021600D01*
X012794Y021900D01*
X012719Y021975D01*
X012494Y021975D01*
X012334Y021950D02*
X012334Y021875D01*
X012259Y021800D01*
X012334Y021725D01*
X012334Y021650D01*
X012259Y021575D01*
X012108Y021575D01*
X012033Y021650D01*
X011873Y021575D02*
X011873Y022025D01*
X012033Y021950D02*
X012108Y022025D01*
X012259Y022025D01*
X012334Y021950D01*
X012259Y021800D02*
X012184Y021800D01*
X011873Y021575D02*
X011573Y022025D01*
X011573Y021575D01*
X011413Y021575D02*
X011113Y021575D01*
X011263Y021575D02*
X011263Y022025D01*
X011113Y021875D01*
X012954Y021825D02*
X013104Y021975D01*
X013104Y021525D01*
X013029Y021575D02*
X012954Y021650D01*
X013254Y021950D01*
X013254Y021650D01*
X013179Y021575D01*
X013029Y021575D01*
X012954Y021525D02*
X013254Y021525D01*
X013415Y021600D02*
X013490Y021525D01*
X013640Y021525D01*
X013715Y021600D01*
X013715Y021675D01*
X013640Y021750D01*
X013565Y021750D01*
X013640Y021750D02*
X013715Y021825D01*
X013715Y021900D01*
X013640Y021975D01*
X013490Y021975D01*
X013415Y021900D01*
X013415Y021800D02*
X013640Y021800D01*
X013715Y021725D01*
X013715Y021650D01*
X013640Y021575D01*
X013490Y021575D01*
X013415Y021650D01*
X013415Y021800D01*
X013565Y021950D01*
X013715Y022025D01*
X013254Y021950D02*
X013179Y022025D01*
X013029Y022025D01*
X012954Y021950D01*
X012954Y021650D01*
X013029Y020525D02*
X012954Y020450D01*
X012954Y020150D01*
X013254Y020450D01*
X013254Y020150D01*
X013179Y020075D01*
X013029Y020075D01*
X012954Y020150D01*
X012954Y020025D02*
X013254Y020025D01*
X013104Y020025D02*
X013104Y020475D01*
X012954Y020325D01*
X012794Y020400D02*
X012794Y020100D01*
X012719Y020025D01*
X012494Y020025D01*
X012494Y020475D01*
X012719Y020475D01*
X012794Y020400D01*
X012719Y020300D02*
X012494Y020300D01*
X012494Y020150D01*
X012569Y020075D01*
X012719Y020075D01*
X012794Y020150D01*
X012794Y020225D01*
X012719Y020300D01*
X012644Y020450D02*
X012494Y020300D01*
X012334Y020225D02*
X012334Y020150D01*
X012259Y020075D01*
X012108Y020075D01*
X012033Y020150D01*
X011873Y020075D02*
X011873Y020525D01*
X012033Y020450D02*
X012108Y020525D01*
X012259Y020525D01*
X012334Y020450D01*
X012334Y020375D01*
X012259Y020300D01*
X012334Y020225D01*
X012259Y020300D02*
X012184Y020300D01*
X011873Y020075D02*
X011573Y020525D01*
X011573Y020075D01*
X011413Y020075D02*
X011113Y020075D01*
X011263Y020075D02*
X011263Y020525D01*
X011113Y020375D01*
X012644Y020450D02*
X012794Y020525D01*
X013029Y020525D02*
X013179Y020525D01*
X013254Y020450D01*
X013415Y020400D02*
X013490Y020475D01*
X013640Y020475D01*
X013715Y020400D01*
X013715Y020325D01*
X013415Y020025D01*
X013715Y020025D01*
X013640Y020075D02*
X013715Y020150D01*
X013715Y020225D01*
X013640Y020300D01*
X013415Y020300D01*
X013415Y020150D01*
X013490Y020075D01*
X013640Y020075D01*
X013415Y020300D02*
X013565Y020450D01*
X013715Y020525D01*
X013715Y019025D02*
X013565Y018950D01*
X013415Y018800D01*
X013640Y018800D01*
X013715Y018725D01*
X013715Y018650D01*
X013640Y018575D01*
X013490Y018575D01*
X013415Y018650D01*
X013415Y018800D01*
X013415Y018825D02*
X013565Y018975D01*
X013565Y018525D01*
X013415Y018525D02*
X013715Y018525D01*
X013254Y018525D02*
X012954Y018525D01*
X013029Y018575D02*
X012954Y018650D01*
X013254Y018950D01*
X013254Y018650D01*
X013179Y018575D01*
X013029Y018575D01*
X013104Y018525D02*
X013104Y018975D01*
X012954Y018825D01*
X012954Y018950D02*
X012954Y018650D01*
X012794Y018650D02*
X012794Y018725D01*
X012719Y018800D01*
X012494Y018800D01*
X012494Y018650D01*
X012569Y018575D01*
X012719Y018575D01*
X012794Y018650D01*
X012794Y018600D02*
X012794Y018900D01*
X012719Y018975D01*
X012494Y018975D01*
X012494Y018525D01*
X012719Y018525D01*
X012794Y018600D01*
X012494Y018800D02*
X012644Y018950D01*
X012794Y019025D01*
X012954Y018950D02*
X013029Y019025D01*
X013179Y019025D01*
X013254Y018950D01*
X012334Y018950D02*
X012334Y018875D01*
X012259Y018800D01*
X012334Y018725D01*
X012334Y018650D01*
X012259Y018575D01*
X012108Y018575D01*
X012033Y018650D01*
X011873Y018575D02*
X011873Y019025D01*
X012033Y018950D02*
X012108Y019025D01*
X012259Y019025D01*
X012334Y018950D01*
X012259Y018800D02*
X012184Y018800D01*
X011873Y018575D02*
X011573Y019025D01*
X011573Y018575D01*
X011413Y018575D02*
X011113Y018575D01*
X011263Y018575D02*
X011263Y019025D01*
X011113Y018875D01*
X011263Y017525D02*
X011263Y017075D01*
X011113Y017075D02*
X011413Y017075D01*
X011573Y017075D02*
X011573Y017525D01*
X011873Y017075D01*
X011873Y017525D01*
X012033Y017450D02*
X012108Y017525D01*
X012259Y017525D01*
X012334Y017450D01*
X012334Y017375D01*
X012259Y017300D01*
X012334Y017225D01*
X012334Y017150D01*
X012259Y017075D01*
X012108Y017075D01*
X012033Y017150D01*
X012184Y017300D02*
X012259Y017300D01*
X012494Y017300D02*
X012719Y017300D01*
X012794Y017225D01*
X012794Y017150D01*
X012719Y017075D01*
X012569Y017075D01*
X012494Y017150D01*
X012494Y017300D01*
X012644Y017450D01*
X012794Y017525D01*
X012719Y017475D02*
X012494Y017475D01*
X012494Y017025D01*
X012719Y017025D01*
X012794Y017100D01*
X012794Y017400D01*
X012719Y017475D01*
X012954Y017450D02*
X013029Y017525D01*
X013179Y017525D01*
X013254Y017450D01*
X012954Y017150D01*
X013029Y017075D01*
X013179Y017075D01*
X013254Y017150D01*
X013254Y017450D01*
X013104Y017475D02*
X013104Y017025D01*
X012954Y017025D02*
X013254Y017025D01*
X013415Y017100D02*
X013715Y017400D01*
X013715Y017100D01*
X013640Y017025D01*
X013490Y017025D01*
X013415Y017100D01*
X013415Y017400D01*
X013490Y017475D01*
X013640Y017475D01*
X013715Y017400D01*
X013640Y017300D02*
X013415Y017300D01*
X013415Y017150D01*
X013490Y017075D01*
X013640Y017075D01*
X013715Y017150D01*
X013715Y017225D01*
X013640Y017300D01*
X013565Y017450D02*
X013415Y017300D01*
X013565Y017450D02*
X013715Y017525D01*
X013104Y017475D02*
X012954Y017325D01*
X012954Y017450D02*
X012954Y017150D01*
X011263Y017525D02*
X011113Y017375D01*
X011263Y016025D02*
X011263Y015575D01*
X011113Y015575D02*
X011413Y015575D01*
X011573Y015575D02*
X011573Y016025D01*
X011873Y015575D01*
X011873Y016025D01*
X012033Y015950D02*
X012108Y016025D01*
X012259Y016025D01*
X012334Y015950D01*
X012334Y015875D01*
X012259Y015800D01*
X012334Y015725D01*
X012334Y015650D01*
X012259Y015575D01*
X012108Y015575D01*
X012033Y015650D01*
X012184Y015800D02*
X012259Y015800D01*
X012494Y015800D02*
X012719Y015800D01*
X012794Y015725D01*
X012794Y015650D01*
X012719Y015575D01*
X012569Y015575D01*
X012494Y015650D01*
X012494Y015800D01*
X012644Y015950D01*
X012794Y016025D01*
X012954Y015975D02*
X013179Y015975D01*
X013254Y015900D01*
X013254Y015600D01*
X013179Y015525D01*
X012954Y015525D01*
X012954Y015975D01*
X012954Y015950D02*
X013029Y016025D01*
X013179Y016025D01*
X013254Y015950D01*
X012954Y015650D01*
X013029Y015575D01*
X013179Y015575D01*
X013254Y015650D01*
X013254Y015950D01*
X013415Y015900D02*
X013415Y015825D01*
X013490Y015750D01*
X013715Y015750D01*
X013715Y015725D02*
X013640Y015800D01*
X013415Y015800D01*
X013415Y015650D01*
X013490Y015575D01*
X013640Y015575D01*
X013715Y015650D01*
X013715Y015725D01*
X013715Y015600D02*
X013715Y015900D01*
X013640Y015975D01*
X013490Y015975D01*
X013415Y015900D01*
X013415Y015800D02*
X013565Y015950D01*
X013715Y016025D01*
X013715Y015600D02*
X013640Y015525D01*
X013490Y015525D01*
X013415Y015600D01*
X012954Y015650D02*
X012954Y015950D01*
X011263Y016025D02*
X011113Y015875D01*
X011263Y014525D02*
X011263Y014075D01*
X011113Y014075D02*
X011413Y014075D01*
X011573Y014075D02*
X011573Y014525D01*
X011873Y014075D01*
X011873Y014525D01*
X012033Y014450D02*
X012108Y014525D01*
X012259Y014525D01*
X012334Y014450D01*
X012334Y014375D01*
X012259Y014300D01*
X012334Y014225D01*
X012334Y014150D01*
X012259Y014075D01*
X012108Y014075D01*
X012033Y014150D01*
X012184Y014300D02*
X012259Y014300D01*
X012494Y014300D02*
X012719Y014300D01*
X012794Y014225D01*
X012794Y014150D01*
X012719Y014075D01*
X012569Y014075D01*
X012494Y014150D01*
X012494Y014300D01*
X012644Y014450D01*
X012794Y014525D01*
X012954Y014475D02*
X013179Y014475D01*
X013254Y014400D01*
X013254Y014100D01*
X013179Y014025D01*
X012954Y014025D01*
X012954Y014475D01*
X012954Y014450D02*
X013029Y014525D01*
X013179Y014525D01*
X013254Y014450D01*
X012954Y014150D01*
X013029Y014075D01*
X013179Y014075D01*
X013254Y014150D01*
X013254Y014450D01*
X013415Y014400D02*
X013415Y014325D01*
X013490Y014250D01*
X013640Y014250D01*
X013715Y014175D01*
X013715Y014100D01*
X013640Y014025D01*
X013490Y014025D01*
X013415Y014100D01*
X013415Y014175D01*
X013490Y014250D01*
X013415Y014300D02*
X013640Y014300D01*
X013715Y014225D01*
X013715Y014150D01*
X013640Y014075D01*
X013490Y014075D01*
X013415Y014150D01*
X013415Y014300D01*
X013565Y014450D01*
X013715Y014525D01*
X013640Y014475D02*
X013715Y014400D01*
X013715Y014325D01*
X013640Y014250D01*
X013640Y014475D02*
X013490Y014475D01*
X013415Y014400D01*
X012954Y014450D02*
X012954Y014150D01*
X011263Y014525D02*
X011113Y014375D01*
X011263Y013025D02*
X011263Y012575D01*
X011113Y012575D02*
X011413Y012575D01*
X011573Y012575D02*
X011573Y013025D01*
X011873Y012575D01*
X011873Y013025D01*
X012033Y012950D02*
X012108Y013025D01*
X012259Y013025D01*
X012334Y012950D01*
X012334Y012875D01*
X012259Y012800D01*
X012334Y012725D01*
X012334Y012650D01*
X012259Y012575D01*
X012108Y012575D01*
X012033Y012650D01*
X012184Y012800D02*
X012259Y012800D01*
X012494Y012800D02*
X012719Y012800D01*
X012794Y012725D01*
X012794Y012650D01*
X012719Y012575D01*
X012569Y012575D01*
X012494Y012650D01*
X012494Y012800D01*
X012644Y012950D01*
X012794Y013025D01*
X012954Y012975D02*
X013179Y012975D01*
X013254Y012900D01*
X013254Y012600D01*
X013179Y012525D01*
X012954Y012525D01*
X012954Y012975D01*
X012954Y012950D02*
X013029Y013025D01*
X013179Y013025D01*
X013254Y012950D01*
X012954Y012650D01*
X013029Y012575D01*
X013179Y012575D01*
X013254Y012650D01*
X013254Y012950D01*
X013415Y012975D02*
X013715Y012975D01*
X013715Y012900D01*
X013415Y012600D01*
X013415Y012525D01*
X013490Y012575D02*
X013640Y012575D01*
X013715Y012650D01*
X013715Y012725D01*
X013640Y012800D01*
X013415Y012800D01*
X013415Y012650D01*
X013490Y012575D01*
X013415Y012800D02*
X013565Y012950D01*
X013715Y013025D01*
X012954Y012950D02*
X012954Y012650D01*
X011263Y013025D02*
X011113Y012875D01*
X011263Y011525D02*
X011263Y011075D01*
X011113Y011075D02*
X011413Y011075D01*
X011573Y011075D02*
X011573Y011525D01*
X011873Y011075D01*
X011873Y011525D01*
X012033Y011450D02*
X012108Y011525D01*
X012259Y011525D01*
X012334Y011450D01*
X012334Y011375D01*
X012259Y011300D01*
X012334Y011225D01*
X012334Y011150D01*
X012259Y011075D01*
X012108Y011075D01*
X012033Y011150D01*
X012184Y011300D02*
X012259Y011300D01*
X012494Y011300D02*
X012719Y011300D01*
X012794Y011225D01*
X012794Y011150D01*
X012719Y011075D01*
X012569Y011075D01*
X012494Y011150D01*
X012494Y011300D01*
X012644Y011450D01*
X012794Y011525D01*
X012954Y011475D02*
X013179Y011475D01*
X013254Y011400D01*
X013254Y011100D01*
X013179Y011025D01*
X012954Y011025D01*
X012954Y011475D01*
X012954Y011450D02*
X013029Y011525D01*
X013179Y011525D01*
X013254Y011450D01*
X012954Y011150D01*
X013029Y011075D01*
X013179Y011075D01*
X013254Y011150D01*
X013254Y011450D01*
X013415Y011300D02*
X013640Y011300D01*
X013715Y011225D01*
X013715Y011150D01*
X013640Y011075D01*
X013490Y011075D01*
X013415Y011150D01*
X013415Y011300D01*
X013565Y011450D01*
X013715Y011525D01*
X013715Y011475D02*
X013565Y011400D01*
X013415Y011250D01*
X013640Y011250D01*
X013715Y011175D01*
X013715Y011100D01*
X013640Y011025D01*
X013490Y011025D01*
X013415Y011100D01*
X013415Y011250D01*
X012954Y011150D02*
X012954Y011450D01*
X011263Y011525D02*
X011113Y011375D01*
X011263Y010025D02*
X011263Y009575D01*
X011113Y009575D02*
X011413Y009575D01*
X011573Y009575D02*
X011573Y010025D01*
X011873Y009575D01*
X011873Y010025D01*
X012033Y009950D02*
X012108Y010025D01*
X012259Y010025D01*
X012334Y009950D01*
X012334Y009875D01*
X012259Y009800D01*
X012334Y009725D01*
X012334Y009650D01*
X012259Y009575D01*
X012108Y009575D01*
X012033Y009650D01*
X012184Y009800D02*
X012259Y009800D01*
X012494Y009800D02*
X012719Y009800D01*
X012794Y009725D01*
X012794Y009650D01*
X012719Y009575D01*
X012569Y009575D01*
X012494Y009650D01*
X012494Y009800D01*
X012644Y009950D01*
X012794Y010025D01*
X012954Y009975D02*
X013179Y009975D01*
X013254Y009900D01*
X013254Y009600D01*
X013179Y009525D01*
X012954Y009525D01*
X012954Y009975D01*
X012954Y009950D02*
X013029Y010025D01*
X013179Y010025D01*
X013254Y009950D01*
X012954Y009650D01*
X013029Y009575D01*
X013179Y009575D01*
X013254Y009650D01*
X013254Y009950D01*
X013415Y009975D02*
X013415Y009750D01*
X013565Y009825D01*
X013640Y009825D01*
X013715Y009750D01*
X013715Y009600D01*
X013640Y009525D01*
X013490Y009525D01*
X013415Y009600D01*
X013415Y009650D02*
X013490Y009575D01*
X013640Y009575D01*
X013715Y009650D01*
X013715Y009725D01*
X013640Y009800D01*
X013415Y009800D01*
X013415Y009650D01*
X013415Y009800D02*
X013565Y009950D01*
X013715Y010025D01*
X013715Y009975D02*
X013415Y009975D01*
X012954Y009950D02*
X012954Y009650D01*
X011263Y010025D02*
X011113Y009875D01*
X011263Y008525D02*
X011263Y008075D01*
X011113Y008075D02*
X011413Y008075D01*
X011573Y008075D02*
X011573Y008525D01*
X011873Y008075D01*
X011873Y008525D01*
X012033Y008450D02*
X012108Y008525D01*
X012259Y008525D01*
X012334Y008450D01*
X012334Y008375D01*
X012259Y008300D01*
X012334Y008225D01*
X012334Y008150D01*
X012259Y008075D01*
X012108Y008075D01*
X012033Y008150D01*
X012184Y008300D02*
X012259Y008300D01*
X012494Y008300D02*
X012719Y008300D01*
X012794Y008225D01*
X012794Y008150D01*
X012719Y008075D01*
X012569Y008075D01*
X012494Y008150D01*
X012494Y008300D01*
X012644Y008450D01*
X012794Y008525D01*
X012954Y008475D02*
X013179Y008475D01*
X013254Y008400D01*
X013254Y008100D01*
X013179Y008025D01*
X012954Y008025D01*
X012954Y008475D01*
X012954Y008450D02*
X013029Y008525D01*
X013179Y008525D01*
X013254Y008450D01*
X012954Y008150D01*
X013029Y008075D01*
X013179Y008075D01*
X013254Y008150D01*
X013254Y008450D01*
X013415Y008300D02*
X013640Y008300D01*
X013715Y008225D01*
X013715Y008150D01*
X013640Y008075D01*
X013490Y008075D01*
X013415Y008150D01*
X013415Y008300D01*
X013565Y008450D01*
X013715Y008525D01*
X013640Y008475D02*
X013415Y008250D01*
X013715Y008250D01*
X013640Y008025D02*
X013640Y008475D01*
X012954Y008450D02*
X012954Y008150D01*
X011263Y008525D02*
X011113Y008375D01*
X011263Y007025D02*
X011263Y006575D01*
X011113Y006575D02*
X011413Y006575D01*
X011573Y006575D02*
X011573Y007025D01*
X011873Y006575D01*
X011873Y007025D01*
X012033Y006950D02*
X012108Y007025D01*
X012259Y007025D01*
X012334Y006950D01*
X012334Y006875D01*
X012259Y006800D01*
X012334Y006725D01*
X012334Y006650D01*
X012259Y006575D01*
X012108Y006575D01*
X012033Y006650D01*
X012184Y006800D02*
X012259Y006800D01*
X012494Y006800D02*
X012719Y006800D01*
X012794Y006725D01*
X012794Y006650D01*
X012719Y006575D01*
X012569Y006575D01*
X012494Y006650D01*
X012494Y006800D01*
X012644Y006950D01*
X012794Y007025D01*
X012954Y006975D02*
X013179Y006975D01*
X013254Y006900D01*
X013254Y006600D01*
X013179Y006525D01*
X012954Y006525D01*
X012954Y006975D01*
X012954Y006950D02*
X013029Y007025D01*
X013179Y007025D01*
X013254Y006950D01*
X012954Y006650D01*
X013029Y006575D01*
X013179Y006575D01*
X013254Y006650D01*
X013254Y006950D01*
X013415Y006900D02*
X013490Y006975D01*
X013640Y006975D01*
X013715Y006900D01*
X013715Y006825D01*
X013640Y006750D01*
X013715Y006675D01*
X013715Y006600D01*
X013640Y006525D01*
X013490Y006525D01*
X013415Y006600D01*
X013415Y006650D02*
X013490Y006575D01*
X013640Y006575D01*
X013715Y006650D01*
X013715Y006725D01*
X013640Y006800D01*
X013415Y006800D01*
X013415Y006650D01*
X013415Y006800D02*
X013565Y006950D01*
X013715Y007025D01*
X013640Y006750D02*
X013565Y006750D01*
X012954Y006650D02*
X012954Y006950D01*
X011263Y007025D02*
X011113Y006875D01*
X011263Y005525D02*
X011263Y005075D01*
X011113Y005075D02*
X011413Y005075D01*
X011573Y005075D02*
X011573Y005525D01*
X011873Y005075D01*
X011873Y005525D01*
X012033Y005450D02*
X012108Y005525D01*
X012259Y005525D01*
X012334Y005450D01*
X012334Y005375D01*
X012259Y005300D01*
X012334Y005225D01*
X012334Y005150D01*
X012259Y005075D01*
X012108Y005075D01*
X012033Y005150D01*
X012184Y005300D02*
X012259Y005300D01*
X012494Y005300D02*
X012719Y005300D01*
X012794Y005225D01*
X012794Y005150D01*
X012719Y005075D01*
X012569Y005075D01*
X012494Y005150D01*
X012494Y005300D01*
X012644Y005450D01*
X012794Y005525D01*
X012954Y005475D02*
X013179Y005475D01*
X013254Y005400D01*
X013254Y005100D01*
X013179Y005025D01*
X012954Y005025D01*
X012954Y005475D01*
X012954Y005450D02*
X013029Y005525D01*
X013179Y005525D01*
X013254Y005450D01*
X012954Y005150D01*
X013029Y005075D01*
X013179Y005075D01*
X013254Y005150D01*
X013254Y005450D01*
X013415Y005400D02*
X013490Y005475D01*
X013640Y005475D01*
X013715Y005400D01*
X013715Y005325D01*
X013415Y005025D01*
X013715Y005025D01*
X013640Y005075D02*
X013490Y005075D01*
X013415Y005150D01*
X013415Y005300D01*
X013640Y005300D01*
X013715Y005225D01*
X013715Y005150D01*
X013640Y005075D01*
X013415Y005300D02*
X013565Y005450D01*
X013715Y005525D01*
X012954Y005450D02*
X012954Y005150D01*
X011263Y005525D02*
X011113Y005375D01*
X012954Y003975D02*
X013179Y003975D01*
X013254Y003900D01*
X013254Y003600D01*
X013179Y003525D01*
X012954Y003525D01*
X012954Y003975D01*
X013415Y003825D02*
X013565Y003975D01*
X013565Y003525D01*
X013415Y003525D02*
X013715Y003525D01*
X017325Y005125D02*
X017325Y005575D01*
X017550Y005575D01*
X017625Y005500D01*
X017625Y005350D01*
X017550Y005275D01*
X017325Y005275D01*
X017475Y005275D02*
X017625Y005125D01*
X017785Y005125D02*
X018086Y005425D01*
X018086Y005500D01*
X018011Y005575D01*
X017860Y005575D01*
X017785Y005500D01*
X017785Y005775D02*
X017785Y006225D01*
X017635Y006075D01*
X018095Y005850D02*
X018170Y005850D01*
X018170Y005775D01*
X018095Y005775D01*
X018095Y005850D01*
X017935Y005775D02*
X017635Y005775D01*
X018326Y005850D02*
X018401Y005775D01*
X018551Y005775D01*
X018626Y005850D01*
X018626Y006000D01*
X018551Y006075D01*
X018476Y006075D01*
X018326Y006000D01*
X018326Y006225D01*
X018626Y006225D01*
X018786Y006225D02*
X018786Y005775D01*
X018786Y005925D02*
X019086Y006225D01*
X018861Y006000D02*
X019086Y005775D01*
X018086Y005125D02*
X017785Y005125D01*
X017785Y004725D02*
X017785Y004275D01*
X017635Y004275D02*
X017935Y004275D01*
X018095Y004275D02*
X018095Y004350D01*
X018170Y004350D01*
X018170Y004275D01*
X018095Y004275D01*
X018326Y004350D02*
X018401Y004275D01*
X018551Y004275D01*
X018626Y004350D01*
X018626Y004500D01*
X018551Y004575D01*
X018476Y004575D01*
X018326Y004500D01*
X018326Y004725D01*
X018626Y004725D01*
X018786Y004725D02*
X018786Y004275D01*
X018786Y004425D02*
X019086Y004725D01*
X018861Y004500D02*
X019086Y004275D01*
X017785Y004725D02*
X017635Y004575D01*
X017625Y006625D02*
X017475Y006775D01*
X017550Y006775D02*
X017325Y006775D01*
X017325Y006625D02*
X017325Y007075D01*
X017550Y007075D01*
X017625Y007000D01*
X017625Y006850D01*
X017550Y006775D01*
X017785Y006850D02*
X018086Y006850D01*
X018011Y006625D02*
X018011Y007075D01*
X017785Y006850D01*
X017785Y007275D02*
X017785Y007725D01*
X017635Y007575D01*
X018095Y007350D02*
X018170Y007350D01*
X018170Y007275D01*
X018095Y007275D01*
X018095Y007350D01*
X017935Y007275D02*
X017635Y007275D01*
X018326Y007350D02*
X018401Y007275D01*
X018551Y007275D01*
X018626Y007350D01*
X018626Y007500D01*
X018551Y007575D01*
X018476Y007575D01*
X018326Y007500D01*
X018326Y007725D01*
X018626Y007725D01*
X018786Y007725D02*
X018786Y007275D01*
X018786Y007425D02*
X019086Y007725D01*
X018861Y007500D02*
X019086Y007275D01*
X018086Y008200D02*
X018011Y008125D01*
X017860Y008125D01*
X017785Y008200D01*
X017785Y008350D01*
X018011Y008350D01*
X018086Y008275D01*
X018086Y008200D01*
X017936Y008500D02*
X017785Y008350D01*
X017625Y008350D02*
X017550Y008275D01*
X017325Y008275D01*
X017325Y008125D02*
X017325Y008575D01*
X017550Y008575D01*
X017625Y008500D01*
X017625Y008350D01*
X017475Y008275D02*
X017625Y008125D01*
X017936Y008500D02*
X018086Y008575D01*
X018095Y008775D02*
X018170Y008775D01*
X018170Y008850D01*
X018095Y008850D01*
X018095Y008775D01*
X017935Y008775D02*
X017635Y008775D01*
X017785Y008775D02*
X017785Y009225D01*
X017635Y009075D01*
X018326Y009000D02*
X018476Y009075D01*
X018551Y009075D01*
X018626Y009000D01*
X018626Y008850D01*
X018551Y008775D01*
X018401Y008775D01*
X018326Y008850D01*
X018326Y009000D02*
X018326Y009225D01*
X018626Y009225D01*
X018786Y009225D02*
X018786Y008775D01*
X018786Y008925D02*
X019086Y009225D01*
X018861Y009000D02*
X019086Y008775D01*
X018086Y009700D02*
X018011Y009625D01*
X017860Y009625D01*
X017785Y009700D01*
X017785Y009775D01*
X017860Y009850D01*
X018011Y009850D01*
X018086Y009775D01*
X018086Y009700D01*
X018011Y009850D02*
X018086Y009925D01*
X018086Y010000D01*
X018011Y010075D01*
X017860Y010075D01*
X017785Y010000D01*
X017785Y009925D01*
X017860Y009850D01*
X017625Y009850D02*
X017550Y009775D01*
X017325Y009775D01*
X017325Y009625D02*
X017325Y010075D01*
X017550Y010075D01*
X017625Y010000D01*
X017625Y009850D01*
X017475Y009775D02*
X017625Y009625D01*
X017635Y010275D02*
X017935Y010275D01*
X017785Y010275D02*
X017785Y010725D01*
X017635Y010575D01*
X018095Y010350D02*
X018095Y010275D01*
X018170Y010275D01*
X018170Y010350D01*
X018095Y010350D01*
X018326Y010350D02*
X018401Y010275D01*
X018551Y010275D01*
X018626Y010350D01*
X018626Y010500D01*
X018551Y010575D01*
X018476Y010575D01*
X018326Y010500D01*
X018326Y010725D01*
X018626Y010725D01*
X018786Y010725D02*
X018786Y010275D01*
X018786Y010425D02*
X019086Y010725D01*
X018861Y010500D02*
X019086Y010275D01*
X018471Y011125D02*
X018321Y011125D01*
X018246Y011200D01*
X018546Y011500D01*
X018546Y011200D01*
X018471Y011125D01*
X018246Y011200D02*
X018246Y011500D01*
X018321Y011575D01*
X018471Y011575D01*
X018546Y011500D01*
X018551Y011775D02*
X018401Y011775D01*
X018326Y011850D01*
X018326Y012000D02*
X018476Y012075D01*
X018551Y012075D01*
X018626Y012000D01*
X018626Y011850D01*
X018551Y011775D01*
X018786Y011775D02*
X018786Y012225D01*
X018626Y012225D02*
X018326Y012225D01*
X018326Y012000D01*
X018170Y011850D02*
X018170Y011775D01*
X018095Y011775D01*
X018095Y011850D01*
X018170Y011850D01*
X017935Y011775D02*
X017635Y011775D01*
X017785Y011775D02*
X017785Y012225D01*
X017635Y012075D01*
X017550Y011575D02*
X017325Y011575D01*
X017325Y011125D01*
X017325Y011275D02*
X017550Y011275D01*
X017625Y011350D01*
X017625Y011500D01*
X017550Y011575D01*
X017785Y011425D02*
X017936Y011575D01*
X017936Y011125D01*
X018086Y011125D02*
X017785Y011125D01*
X017625Y011125D02*
X017475Y011275D01*
X018786Y011925D02*
X019086Y012225D01*
X018861Y012000D02*
X019086Y011775D01*
X018546Y012625D02*
X018246Y012625D01*
X018546Y012925D01*
X018546Y013000D01*
X018471Y013075D01*
X018321Y013075D01*
X018246Y013000D01*
X018170Y013275D02*
X018095Y013275D01*
X018095Y013350D01*
X018170Y013350D01*
X018170Y013275D01*
X018326Y013350D02*
X018401Y013275D01*
X018551Y013275D01*
X018626Y013350D01*
X018626Y013500D01*
X018551Y013575D01*
X018476Y013575D01*
X018326Y013500D01*
X018326Y013725D01*
X018626Y013725D01*
X018786Y013725D02*
X018786Y013275D01*
X018786Y013425D02*
X019086Y013725D01*
X018861Y013500D02*
X019086Y013275D01*
X018086Y012625D02*
X017785Y012625D01*
X017936Y012625D02*
X017936Y013075D01*
X017785Y012925D01*
X017625Y012850D02*
X017550Y012775D01*
X017325Y012775D01*
X017325Y012625D02*
X017325Y013075D01*
X017550Y013075D01*
X017625Y013000D01*
X017625Y012850D01*
X017475Y012775D02*
X017625Y012625D01*
X017635Y013275D02*
X017935Y013275D01*
X017785Y013275D02*
X017785Y013725D01*
X017635Y013575D01*
X017625Y014125D02*
X017475Y014275D01*
X017550Y014275D02*
X017325Y014275D01*
X017325Y014125D02*
X017325Y014575D01*
X017550Y014575D01*
X017625Y014500D01*
X017625Y014350D01*
X017550Y014275D01*
X017785Y014125D02*
X018086Y014125D01*
X017936Y014125D02*
X017936Y014575D01*
X017785Y014425D01*
X017785Y014775D02*
X017785Y015225D01*
X017635Y015075D01*
X017635Y014775D02*
X017935Y014775D01*
X018095Y014775D02*
X018170Y014775D01*
X018170Y014850D01*
X018095Y014850D01*
X018095Y014775D01*
X018326Y014850D02*
X018401Y014775D01*
X018551Y014775D01*
X018626Y014850D01*
X018626Y015000D01*
X018551Y015075D01*
X018476Y015075D01*
X018326Y015000D01*
X018326Y015225D01*
X018626Y015225D01*
X018786Y015225D02*
X018786Y014775D01*
X018786Y014925D02*
X019086Y015225D01*
X018861Y015000D02*
X019086Y014775D01*
X018471Y014575D02*
X018246Y014350D01*
X018546Y014350D01*
X018471Y014125D02*
X018471Y014575D01*
X018471Y015625D02*
X018546Y015700D01*
X018546Y015775D01*
X018471Y015850D01*
X018246Y015850D01*
X018246Y015700D01*
X018321Y015625D01*
X018471Y015625D01*
X018246Y015850D02*
X018396Y016000D01*
X018546Y016075D01*
X018551Y016275D02*
X018401Y016275D01*
X018326Y016350D01*
X018326Y016500D02*
X018476Y016575D01*
X018551Y016575D01*
X018626Y016500D01*
X018626Y016350D01*
X018551Y016275D01*
X018786Y016275D02*
X018786Y016725D01*
X018626Y016725D02*
X018326Y016725D01*
X018326Y016500D01*
X018170Y016350D02*
X018170Y016275D01*
X018095Y016275D01*
X018095Y016350D01*
X018170Y016350D01*
X017935Y016275D02*
X017635Y016275D01*
X017785Y016275D02*
X017785Y016725D01*
X017635Y016575D01*
X017550Y016075D02*
X017325Y016075D01*
X017325Y015625D01*
X017325Y015775D02*
X017550Y015775D01*
X017625Y015850D01*
X017625Y016000D01*
X017550Y016075D01*
X017785Y015925D02*
X017936Y016075D01*
X017936Y015625D01*
X018086Y015625D02*
X017785Y015625D01*
X017625Y015625D02*
X017475Y015775D01*
X018786Y016425D02*
X019086Y016725D01*
X018861Y016500D02*
X019086Y016275D01*
X018471Y017125D02*
X018321Y017125D01*
X018246Y017200D01*
X018246Y017275D01*
X018321Y017350D01*
X018471Y017350D01*
X018546Y017275D01*
X018546Y017200D01*
X018471Y017125D01*
X018471Y017350D02*
X018546Y017425D01*
X018546Y017500D01*
X018471Y017575D01*
X018321Y017575D01*
X018246Y017500D01*
X018246Y017425D01*
X018321Y017350D01*
X018086Y017125D02*
X017785Y017125D01*
X017936Y017125D02*
X017936Y017575D01*
X017785Y017425D01*
X017625Y017500D02*
X017625Y017350D01*
X017550Y017275D01*
X017325Y017275D01*
X017325Y017125D02*
X017325Y017575D01*
X017550Y017575D01*
X017625Y017500D01*
X017475Y017275D02*
X017625Y017125D01*
X017635Y017775D02*
X017935Y017775D01*
X017785Y017775D02*
X017785Y018225D01*
X017635Y018075D01*
X018095Y017850D02*
X018170Y017850D01*
X018170Y017775D01*
X018095Y017775D01*
X018095Y017850D01*
X018326Y017850D02*
X018401Y017775D01*
X018551Y017775D01*
X018626Y017850D01*
X018626Y018000D01*
X018551Y018075D01*
X018476Y018075D01*
X018326Y018000D01*
X018326Y018225D01*
X018626Y018225D01*
X018786Y018225D02*
X018786Y017775D01*
X018786Y017925D02*
X019086Y018225D01*
X018861Y018000D02*
X019086Y017775D01*
X017625Y018625D02*
X017475Y018775D01*
X022785Y020125D02*
X023086Y020125D01*
X023326Y016725D02*
X023326Y016500D01*
X023476Y016575D01*
X023551Y016575D01*
X023626Y016500D01*
X023626Y016350D01*
X023551Y016275D01*
X023401Y016275D01*
X023326Y016350D01*
X023170Y016350D02*
X023170Y016275D01*
X023095Y016275D01*
X023095Y016350D01*
X023170Y016350D01*
X022935Y016275D02*
X022635Y016275D01*
X022785Y016275D02*
X022785Y016725D01*
X022635Y016575D01*
X023326Y016725D02*
X023626Y016725D01*
X023786Y016725D02*
X023786Y016275D01*
X023786Y016425D02*
X024086Y016725D01*
X023861Y016500D02*
X024086Y016275D01*
X023546Y016075D02*
X023246Y016075D01*
X023246Y015850D01*
X023396Y015925D01*
X023471Y015925D01*
X023546Y015850D01*
X023546Y015700D01*
X023471Y015625D01*
X023321Y015625D01*
X023246Y015700D01*
X023086Y015625D02*
X022785Y015625D01*
X022936Y015625D02*
X022936Y016075D01*
X022785Y015925D01*
X022625Y016000D02*
X022625Y015850D01*
X022550Y015775D01*
X022325Y015775D01*
X022325Y015625D02*
X022325Y016075D01*
X022550Y016075D01*
X022625Y016000D01*
X022475Y015775D02*
X022625Y015625D01*
X022785Y015225D02*
X022785Y014775D01*
X022635Y014775D02*
X022935Y014775D01*
X023095Y014775D02*
X023170Y014775D01*
X023170Y014850D01*
X023095Y014850D01*
X023095Y014775D01*
X023326Y014850D02*
X023401Y014775D01*
X023551Y014775D01*
X023626Y014850D01*
X023626Y015000D01*
X023551Y015075D01*
X023476Y015075D01*
X023326Y015000D01*
X023326Y015225D01*
X023626Y015225D01*
X023786Y015225D02*
X023786Y014775D01*
X023786Y014925D02*
X024086Y015225D01*
X023861Y015000D02*
X024086Y014775D01*
X023546Y014500D02*
X023546Y014425D01*
X023471Y014350D01*
X023546Y014275D01*
X023546Y014200D01*
X023471Y014125D01*
X023321Y014125D01*
X023246Y014200D01*
X023086Y014125D02*
X022785Y014125D01*
X022936Y014125D02*
X022936Y014575D01*
X022785Y014425D01*
X022625Y014500D02*
X022625Y014350D01*
X022550Y014275D01*
X022325Y014275D01*
X022325Y014125D02*
X022325Y014575D01*
X022550Y014575D01*
X022625Y014500D01*
X022475Y014275D02*
X022625Y014125D01*
X023246Y014500D02*
X023321Y014575D01*
X023471Y014575D01*
X023546Y014500D01*
X023471Y014350D02*
X023396Y014350D01*
X023326Y013725D02*
X023326Y013500D01*
X023476Y013575D01*
X023551Y013575D01*
X023626Y013500D01*
X023626Y013350D01*
X023551Y013275D01*
X023401Y013275D01*
X023326Y013350D01*
X023170Y013350D02*
X023170Y013275D01*
X023095Y013275D01*
X023095Y013350D01*
X023170Y013350D01*
X022935Y013275D02*
X022635Y013275D01*
X022785Y013275D02*
X022785Y013725D01*
X022635Y013575D01*
X023326Y013725D02*
X023626Y013725D01*
X023786Y013725D02*
X023786Y013275D01*
X023786Y013425D02*
X024086Y013725D01*
X023861Y013500D02*
X024086Y013275D01*
X023396Y013075D02*
X023396Y012625D01*
X023246Y012625D02*
X023546Y012625D01*
X023246Y012925D02*
X023396Y013075D01*
X022936Y013075D02*
X022936Y012625D01*
X023086Y012625D02*
X022785Y012625D01*
X022625Y012625D02*
X022475Y012775D01*
X022550Y012775D02*
X022325Y012775D01*
X022325Y012625D02*
X022325Y013075D01*
X022550Y013075D01*
X022625Y013000D01*
X022625Y012850D01*
X022550Y012775D01*
X022785Y012925D02*
X022936Y013075D01*
X022785Y012225D02*
X022785Y011775D01*
X022635Y011775D02*
X022935Y011775D01*
X023095Y011775D02*
X023095Y011850D01*
X023170Y011850D01*
X023170Y011775D01*
X023095Y011775D01*
X023011Y011575D02*
X022860Y011575D01*
X022785Y011500D01*
X022785Y011425D01*
X022860Y011350D01*
X023086Y011350D01*
X023086Y011200D02*
X023086Y011500D01*
X023011Y011575D01*
X023086Y011200D02*
X023011Y011125D01*
X022860Y011125D01*
X022785Y011200D01*
X022625Y011125D02*
X022475Y011275D01*
X022550Y011275D02*
X022325Y011275D01*
X022325Y011125D02*
X022325Y011575D01*
X022550Y011575D01*
X022625Y011500D01*
X022625Y011350D01*
X022550Y011275D01*
X022785Y010725D02*
X022785Y010275D01*
X022635Y010275D02*
X022935Y010275D01*
X023095Y010275D02*
X023095Y010350D01*
X023170Y010350D01*
X023170Y010275D01*
X023095Y010275D01*
X023086Y010075D02*
X023086Y010000D01*
X022785Y009700D01*
X022785Y009625D01*
X022625Y009625D02*
X022475Y009775D01*
X022550Y009775D02*
X022325Y009775D01*
X022325Y009625D02*
X022325Y010075D01*
X022550Y010075D01*
X022625Y010000D01*
X022625Y009850D01*
X022550Y009775D01*
X022785Y010075D02*
X023086Y010075D01*
X023326Y010350D02*
X023401Y010275D01*
X023551Y010275D01*
X023626Y010350D01*
X023626Y010500D01*
X023551Y010575D01*
X023476Y010575D01*
X023326Y010500D01*
X023326Y010725D01*
X023626Y010725D01*
X023786Y010725D02*
X023786Y010275D01*
X023786Y010425D02*
X024086Y010725D01*
X023861Y010500D02*
X024086Y010275D01*
X022785Y010725D02*
X022635Y010575D01*
X022785Y009225D02*
X022785Y008775D01*
X022635Y008775D02*
X022935Y008775D01*
X023095Y008775D02*
X023095Y008850D01*
X023170Y008850D01*
X023170Y008775D01*
X023095Y008775D01*
X023086Y008575D02*
X022785Y008575D01*
X022785Y008350D01*
X022936Y008425D01*
X023011Y008425D01*
X023086Y008350D01*
X023086Y008200D01*
X023011Y008125D01*
X022860Y008125D01*
X022785Y008200D01*
X022625Y008125D02*
X022475Y008275D01*
X022550Y008275D02*
X022325Y008275D01*
X022325Y008125D02*
X022325Y008575D01*
X022550Y008575D01*
X022625Y008500D01*
X022625Y008350D01*
X022550Y008275D01*
X022785Y007725D02*
X022785Y007275D01*
X022635Y007275D02*
X022935Y007275D01*
X023095Y007275D02*
X023095Y007350D01*
X023170Y007350D01*
X023170Y007275D01*
X023095Y007275D01*
X023011Y007075D02*
X023086Y007000D01*
X023086Y006925D01*
X023011Y006850D01*
X023086Y006775D01*
X023086Y006700D01*
X023011Y006625D01*
X022860Y006625D01*
X022785Y006700D01*
X022625Y006625D02*
X022475Y006775D01*
X022550Y006775D02*
X022325Y006775D01*
X022325Y006625D02*
X022325Y007075D01*
X022550Y007075D01*
X022625Y007000D01*
X022625Y006850D01*
X022550Y006775D01*
X022785Y007000D02*
X022860Y007075D01*
X023011Y007075D01*
X023011Y006850D02*
X022936Y006850D01*
X023401Y007275D02*
X023326Y007350D01*
X023401Y007275D02*
X023551Y007275D01*
X023626Y007350D01*
X023626Y007500D01*
X023551Y007575D01*
X023476Y007575D01*
X023326Y007500D01*
X023326Y007725D01*
X023626Y007725D01*
X023786Y007725D02*
X023786Y007275D01*
X023786Y007425D02*
X024086Y007725D01*
X023861Y007500D02*
X024086Y007275D01*
X022785Y007725D02*
X022635Y007575D01*
X023401Y008775D02*
X023326Y008850D01*
X023401Y008775D02*
X023551Y008775D01*
X023626Y008850D01*
X023626Y009000D01*
X023551Y009075D01*
X023476Y009075D01*
X023326Y009000D01*
X023326Y009225D01*
X023626Y009225D01*
X023786Y009225D02*
X023786Y008775D01*
X023786Y008925D02*
X024086Y009225D01*
X023861Y009000D02*
X024086Y008775D01*
X022785Y009225D02*
X022635Y009075D01*
X023401Y011775D02*
X023326Y011850D01*
X023401Y011775D02*
X023551Y011775D01*
X023626Y011850D01*
X023626Y012000D01*
X023551Y012075D01*
X023476Y012075D01*
X023326Y012000D01*
X023326Y012225D01*
X023626Y012225D01*
X023786Y012225D02*
X023786Y011775D01*
X023786Y011925D02*
X024086Y012225D01*
X023861Y012000D02*
X024086Y011775D01*
X022785Y012225D02*
X022635Y012075D01*
X022635Y015075D02*
X022785Y015225D01*
X022785Y006225D02*
X022785Y005775D01*
X022635Y005775D02*
X022935Y005775D01*
X023095Y005775D02*
X023095Y005850D01*
X023170Y005850D01*
X023170Y005775D01*
X023095Y005775D01*
X023326Y005850D02*
X023401Y005775D01*
X023551Y005775D01*
X023626Y005850D01*
X023626Y006000D01*
X023551Y006075D01*
X023476Y006075D01*
X023326Y006000D01*
X023326Y006225D01*
X023626Y006225D01*
X023786Y006225D02*
X023786Y005775D01*
X023786Y005925D02*
X024086Y006225D01*
X023861Y006000D02*
X024086Y005775D01*
X023086Y005125D02*
X022785Y005125D01*
X022936Y005125D02*
X022936Y005575D01*
X022785Y005425D01*
X022625Y005350D02*
X022550Y005275D01*
X022325Y005275D01*
X022325Y005125D02*
X022325Y005575D01*
X022550Y005575D01*
X022625Y005500D01*
X022625Y005350D01*
X022475Y005275D02*
X022625Y005125D01*
X022785Y004725D02*
X022785Y004275D01*
X022635Y004275D02*
X022935Y004275D01*
X023095Y004275D02*
X023095Y004350D01*
X023170Y004350D01*
X023170Y004275D01*
X023095Y004275D01*
X023326Y004350D02*
X023401Y004275D01*
X023551Y004275D01*
X023626Y004350D01*
X023626Y004500D01*
X023551Y004575D01*
X023476Y004575D01*
X023326Y004500D01*
X023326Y004725D01*
X023626Y004725D01*
X023786Y004725D02*
X023786Y004275D01*
X023786Y004425D02*
X024086Y004725D01*
X023861Y004500D02*
X024086Y004275D01*
X022785Y004725D02*
X022635Y004575D01*
X022635Y006075D02*
X022785Y006225D01*
X036875Y005171D02*
X036875Y005021D01*
X036950Y004946D01*
X037250Y004946D01*
X036950Y005246D01*
X037250Y005246D01*
X037325Y005171D01*
X037325Y005021D01*
X037250Y004946D01*
X037100Y004786D02*
X037100Y004485D01*
X036875Y004711D01*
X037325Y004711D01*
X037250Y004325D02*
X037325Y004250D01*
X037325Y004025D01*
X036875Y004025D01*
X036875Y004250D01*
X036950Y004325D01*
X037025Y004325D01*
X037100Y004250D01*
X037100Y004025D01*
X037100Y004250D02*
X037175Y004325D01*
X037250Y004325D01*
X036875Y005171D02*
X036950Y005246D01*
X039675Y004475D02*
X040125Y004475D01*
X040125Y004325D02*
X040125Y004625D01*
X039825Y004325D02*
X039675Y004475D01*
D14*
X024920Y004500D03*
X022080Y004500D03*
X019920Y004500D03*
X017080Y004500D03*
X017080Y006000D03*
X019920Y006000D03*
X022080Y006000D03*
X024920Y006000D03*
X024920Y007500D03*
X022080Y007500D03*
X019920Y007500D03*
X017080Y007500D03*
X017080Y009000D03*
X019920Y009000D03*
X022080Y009000D03*
X024920Y009000D03*
X024920Y010500D03*
X022080Y010500D03*
X019920Y010500D03*
X017080Y010500D03*
X017080Y012000D03*
X019920Y012000D03*
X022080Y012000D03*
X024920Y012000D03*
X024920Y013500D03*
X022080Y013500D03*
X019920Y013500D03*
X017080Y013500D03*
X017080Y015000D03*
X019920Y015000D03*
X022080Y015000D03*
X024920Y015000D03*
X024920Y016500D03*
X022080Y016500D03*
X019920Y016500D03*
X017080Y016500D03*
X017080Y018000D03*
X019920Y018000D03*
X022080Y018000D03*
X024920Y018000D03*
X024920Y019500D03*
X022080Y019500D03*
X019920Y019500D03*
X017080Y019500D03*
X017080Y021000D03*
X019920Y021000D03*
X022080Y021000D03*
X024920Y021000D03*
X024920Y022500D03*
X022080Y022500D03*
X019920Y022500D03*
X017080Y022500D03*
D15*
X013650Y022500D03*
X013650Y021000D03*
X013650Y019500D03*
X013650Y018000D03*
X013650Y016500D03*
X013650Y015000D03*
X013650Y013500D03*
X013650Y012000D03*
X013650Y010500D03*
X013650Y009000D03*
X013650Y007500D03*
X013650Y006000D03*
X013650Y004500D03*
D16*
X014275Y004500D03*
X011725Y004500D03*
X011725Y006000D03*
X014275Y006000D03*
X014275Y007500D03*
X011725Y007500D03*
X011725Y009000D03*
X014275Y009000D03*
X014275Y010500D03*
X011725Y010500D03*
X011725Y012000D03*
X014275Y012000D03*
X014275Y013500D03*
X011725Y013500D03*
X011725Y015000D03*
X014275Y015000D03*
X014275Y016500D03*
X011725Y016500D03*
X011725Y018000D03*
X014275Y018000D03*
X014275Y019500D03*
X011725Y019500D03*
X011725Y021000D03*
X014275Y021000D03*
X014275Y022500D03*
X011725Y022500D03*
M02*
