G75*
%MOIN*%
%OFA0B0*%
%FSLAX24Y24*%
%IPPOS*%
%LPD*%
%AMOC8*
5,1,8,0,0,1.08239X$1,22.5*
%
%ADD10C,0.0170*%
%ADD11R,0.5160X0.0800*%
%ADD12OC8,0.0600*%
%ADD13OC8,0.0520*%
%ADD14C,0.0160*%
%ADD15C,0.0320*%
D10*
X026177Y001585D02*
X026353Y001585D01*
X026442Y001673D01*
X026442Y001850D01*
X026353Y001939D01*
X026177Y001939D01*
X026088Y001850D01*
X026088Y001762D01*
X026442Y001762D01*
X026733Y001939D02*
X026998Y001939D01*
X027086Y001850D01*
X027086Y001673D01*
X026998Y001585D01*
X026733Y001585D01*
X027377Y001585D02*
X027377Y001850D01*
X027466Y001939D01*
X027643Y001939D01*
X027643Y001762D02*
X027377Y001762D01*
X027377Y001585D02*
X027643Y001585D01*
X027731Y001673D01*
X027643Y001762D01*
X027984Y001850D02*
X028161Y001850D01*
X028072Y002027D02*
X027984Y002115D01*
X028072Y002027D02*
X028072Y001585D01*
X028433Y001939D02*
X028521Y001939D01*
X028698Y001762D01*
X028698Y001585D02*
X028698Y001939D01*
X028989Y001850D02*
X028989Y001762D01*
X029342Y001762D01*
X029342Y001850D02*
X029342Y001673D01*
X029254Y001585D01*
X029077Y001585D01*
X028989Y001850D02*
X029077Y001939D01*
X029254Y001939D01*
X029342Y001850D01*
X029595Y001939D02*
X029772Y001939D01*
X029684Y002027D02*
X029684Y001673D01*
X029595Y001585D01*
X030063Y001585D02*
X030063Y001850D01*
X030151Y001939D01*
X030417Y001939D01*
X030417Y001585D01*
X030669Y001585D02*
X030846Y001585D01*
X030758Y001585D02*
X030758Y002115D01*
X030846Y002115D02*
X030669Y002115D01*
X031763Y001939D02*
X031851Y001939D01*
X032028Y001762D01*
X032028Y001585D02*
X032028Y001939D01*
X032319Y001850D02*
X032319Y001762D01*
X032673Y001762D01*
X032673Y001850D02*
X032673Y001673D01*
X032584Y001585D01*
X032407Y001585D01*
X032319Y001850D02*
X032407Y001939D01*
X032584Y001939D01*
X032673Y001850D01*
X032925Y001939D02*
X033102Y001939D01*
X033014Y002027D02*
X033014Y001673D01*
X032925Y001585D01*
X033393Y001673D02*
X033482Y001762D01*
X033658Y001762D01*
X033747Y001850D01*
X033658Y001939D01*
X033393Y001939D01*
X033393Y001673D02*
X033482Y001585D01*
X033747Y001585D01*
X034000Y001585D02*
X034176Y001585D01*
X034088Y001585D02*
X034088Y001939D01*
X034176Y001939D01*
X034088Y002115D02*
X034088Y002204D01*
X034467Y001939D02*
X034733Y001939D01*
X034821Y001850D01*
X034821Y001673D01*
X034733Y001585D01*
X034467Y001585D01*
X034467Y001497D02*
X034467Y001939D01*
X034467Y001497D02*
X034556Y001408D01*
X034644Y001408D01*
X035200Y001585D02*
X035377Y001585D01*
X035466Y001673D01*
X035466Y001850D01*
X035377Y001939D01*
X035200Y001939D01*
X035112Y001850D01*
X035112Y001762D01*
X035466Y001762D01*
X035756Y001850D02*
X035845Y001762D01*
X036110Y001762D01*
X035933Y001762D02*
X035756Y001585D01*
X035756Y001850D02*
X035756Y002027D01*
X035845Y002115D01*
X036110Y002115D01*
X036110Y001585D01*
X037046Y001585D02*
X037046Y001850D01*
X037134Y001939D01*
X037311Y001939D01*
X037399Y001850D01*
X037399Y002115D02*
X037399Y001585D01*
X037690Y001585D02*
X037955Y001585D01*
X038044Y001673D01*
X038044Y001850D01*
X037955Y001939D01*
X037690Y001939D01*
X038297Y001939D02*
X038473Y001939D01*
X038385Y002027D02*
X038385Y001673D01*
X038297Y001585D01*
X038726Y001585D02*
X038903Y001585D01*
X038815Y001585D02*
X038815Y001939D01*
X038903Y001939D01*
X038815Y002115D02*
X038815Y002204D01*
X039194Y001939D02*
X039194Y001673D01*
X039282Y001585D01*
X039371Y001673D01*
X039459Y001585D01*
X039548Y001673D01*
X039548Y001939D01*
X039839Y002027D02*
X039927Y002115D01*
X040104Y002115D01*
X040192Y002027D01*
X040192Y001939D01*
X040104Y001850D01*
X039927Y001850D01*
X039839Y001762D01*
X039839Y001673D01*
X039927Y001585D01*
X040104Y001585D01*
X040192Y001673D01*
X041128Y001673D02*
X041216Y001585D01*
X041393Y001585D01*
X041481Y001673D01*
X041305Y001850D02*
X041216Y001850D01*
X041128Y001762D01*
X041128Y001673D01*
X041216Y001850D02*
X041128Y001939D01*
X041128Y002027D01*
X041216Y002115D01*
X041393Y002115D01*
X041481Y002027D01*
X041772Y002027D02*
X041861Y002115D01*
X042037Y002115D01*
X042126Y002027D01*
X042126Y001939D01*
X042037Y001850D01*
X041772Y001850D01*
X041772Y001673D02*
X041772Y002027D01*
X042417Y002027D02*
X042770Y001673D01*
X042770Y001585D01*
X043061Y001673D02*
X043061Y001850D01*
X043238Y001850D01*
X043061Y001673D02*
X043150Y001585D01*
X043327Y001585D01*
X043415Y001673D01*
X043415Y002027D01*
X043327Y002115D01*
X043150Y002115D01*
X043061Y002027D01*
X042770Y002115D02*
X042417Y002115D01*
X042417Y002027D01*
X042126Y001673D02*
X042037Y001585D01*
X041861Y001585D01*
X041772Y001673D01*
X041770Y023585D02*
X041770Y024115D01*
X041505Y024115D01*
X041417Y024027D01*
X041417Y023850D01*
X041505Y023762D01*
X041770Y023762D01*
X041594Y023762D02*
X041417Y023585D01*
X041126Y023673D02*
X041037Y023585D01*
X040861Y023585D01*
X040772Y023673D01*
X040772Y023762D01*
X040861Y023850D01*
X041037Y023850D01*
X041126Y023939D01*
X041126Y024027D01*
X041037Y024115D01*
X040861Y024115D01*
X040772Y024027D01*
X042061Y024115D02*
X042061Y023762D01*
X042238Y023585D01*
X042415Y023762D01*
X042415Y024115D01*
D11*
X003625Y002125D03*
X003625Y003375D03*
X003625Y004625D03*
X003625Y005875D03*
X003625Y007125D03*
X003625Y008375D03*
X003625Y009625D03*
X003625Y010875D03*
X003625Y012125D03*
X003625Y013375D03*
X003625Y014625D03*
X003625Y015875D03*
X003625Y017125D03*
X003625Y018375D03*
X003625Y019625D03*
X003625Y020875D03*
X003625Y022125D03*
X003625Y023375D03*
D12*
X038000Y020500D03*
X039000Y020500D03*
X039000Y019500D03*
X038000Y019500D03*
X038000Y018500D03*
X039000Y018500D03*
X039000Y017500D03*
X038000Y017500D03*
X038000Y016500D03*
X039000Y016500D03*
X039000Y015500D03*
X038000Y015500D03*
X038000Y014500D03*
X039000Y014500D03*
X039000Y013500D03*
X038000Y013500D03*
X038000Y012500D03*
X039000Y012500D03*
X039000Y011500D03*
X038000Y011500D03*
X038000Y010500D03*
X039000Y010500D03*
X039000Y009500D03*
X038000Y009500D03*
X038000Y008500D03*
X039000Y008500D03*
X039000Y007500D03*
X038000Y007500D03*
X038000Y006500D03*
X039000Y006500D03*
X039000Y005500D03*
X038000Y005500D03*
X038000Y004500D03*
X039000Y004500D03*
D13*
X025500Y004500D03*
X025500Y006000D03*
X025500Y007500D03*
X025500Y009000D03*
X025500Y010500D03*
X025500Y012000D03*
X025500Y013500D03*
X025500Y015000D03*
X025500Y016500D03*
X025500Y018000D03*
X025500Y019500D03*
X025500Y021000D03*
X025500Y022500D03*
X021500Y022500D03*
X020500Y022500D03*
X020500Y021000D03*
X021500Y021000D03*
X021500Y019500D03*
X020500Y019500D03*
X020500Y018000D03*
X021500Y018000D03*
X021500Y016500D03*
X020500Y016500D03*
X020500Y015000D03*
X021500Y015000D03*
X021500Y013500D03*
X020500Y013500D03*
X020500Y012000D03*
X021500Y012000D03*
X021500Y010500D03*
X020500Y010500D03*
X020500Y009000D03*
X021500Y009000D03*
X021500Y007500D03*
X020500Y007500D03*
X020500Y006000D03*
X021500Y006000D03*
X021500Y004500D03*
X020500Y004500D03*
X016500Y004500D03*
X015000Y004500D03*
X015000Y006000D03*
X016500Y006000D03*
X016500Y007500D03*
X015000Y007500D03*
X015000Y009000D03*
X016500Y009000D03*
X016500Y010500D03*
X015000Y010500D03*
X015000Y012000D03*
X016500Y012000D03*
X016500Y013500D03*
X015000Y013500D03*
X015000Y015000D03*
X016500Y015000D03*
X016500Y016500D03*
X015000Y016500D03*
X015000Y018000D03*
X016500Y018000D03*
X016500Y019500D03*
X015000Y019500D03*
X015000Y021000D03*
X016500Y021000D03*
X016500Y022500D03*
X015000Y022500D03*
X011000Y022500D03*
X011000Y021000D03*
X011000Y019500D03*
X011000Y018000D03*
X011000Y016500D03*
X011000Y015000D03*
X011000Y013500D03*
X011000Y012000D03*
X011000Y010500D03*
X011000Y009000D03*
X011000Y007500D03*
X011000Y006000D03*
X011000Y004500D03*
D14*
X013500Y005500D02*
X006500Y005500D01*
X006000Y006000D01*
X003625Y005875D01*
X003625Y007125D02*
X006000Y007000D01*
X006500Y007000D01*
X006750Y006750D01*
X013750Y006750D01*
X014500Y006000D01*
X015000Y006000D01*
X013500Y005500D02*
X014500Y004500D01*
X015000Y004500D01*
X020500Y004500D02*
X021500Y004500D01*
X021750Y004500D01*
X023750Y006500D01*
X038000Y006500D01*
X037250Y007000D02*
X037750Y007500D01*
X038000Y007500D01*
X037250Y007000D02*
X022750Y007000D01*
X021750Y006000D01*
X021500Y006000D01*
X020500Y006000D01*
X020500Y007500D02*
X021500Y007500D01*
X021750Y007500D01*
X022750Y008500D01*
X038000Y008500D01*
X038000Y009500D02*
X022250Y009500D01*
X021750Y009000D01*
X021500Y009000D01*
X020500Y009000D01*
X021750Y010500D02*
X022250Y010000D01*
X037250Y010000D01*
X037750Y010500D01*
X038000Y010500D01*
X038000Y011500D02*
X022250Y011500D01*
X021750Y012000D01*
X021500Y012000D01*
X020500Y012000D01*
X021750Y013500D02*
X022750Y012500D01*
X038000Y012500D01*
X038000Y013500D02*
X037750Y013500D01*
X036750Y014500D01*
X022250Y014500D01*
X021750Y015000D01*
X021500Y015000D01*
X020500Y015000D01*
X020500Y013500D02*
X021500Y013500D01*
X021750Y013500D01*
X021750Y010500D02*
X021500Y010500D01*
X021250Y010500D01*
X020750Y010500D01*
X020500Y010500D01*
X015000Y010500D02*
X014500Y010500D01*
X014000Y011000D01*
X006000Y011000D01*
X003625Y010875D01*
X003625Y012125D02*
X006000Y012000D01*
X006500Y012500D01*
X014000Y012500D01*
X014500Y012000D01*
X015000Y012000D01*
X014000Y013000D02*
X006500Y013000D01*
X006000Y013500D01*
X003625Y013375D01*
X003625Y014625D02*
X006000Y014500D01*
X014000Y014500D01*
X014500Y015000D01*
X015000Y015000D01*
X015000Y013500D02*
X014500Y013500D01*
X014000Y013000D01*
X014000Y009500D02*
X006000Y009500D01*
X003625Y009625D01*
X003625Y008375D02*
X006000Y008500D01*
X006500Y008000D01*
X014000Y008000D01*
X014500Y007500D01*
X015000Y007500D01*
X015000Y009000D02*
X014500Y009000D01*
X014000Y009500D01*
X014500Y016500D02*
X015000Y016500D01*
X014500Y016500D02*
X012500Y018500D01*
X006000Y018500D01*
X003625Y018375D01*
X003625Y019625D02*
X006000Y019500D01*
X006500Y020000D01*
X012500Y020000D01*
X014500Y018000D01*
X015000Y018000D01*
X015000Y019500D02*
X014500Y019500D01*
X013500Y020500D01*
X006500Y020500D01*
X006000Y021000D01*
X003625Y020875D01*
X003625Y022125D02*
X006000Y022000D01*
X006500Y022000D01*
X007000Y021500D01*
X014000Y021500D01*
X014500Y021000D01*
X015000Y021000D01*
X014000Y022000D02*
X007500Y022000D01*
X006250Y023250D01*
X006000Y023500D01*
X003625Y023375D01*
X014000Y022000D02*
X014500Y022500D01*
X015000Y022500D01*
X020000Y022750D02*
X020000Y021250D01*
X020500Y021250D01*
X020500Y021000D01*
X021750Y022500D02*
X022250Y022000D01*
X035250Y022000D01*
X037750Y019500D01*
X038000Y019500D01*
X037250Y019000D02*
X022250Y019000D01*
X021750Y019500D01*
X021500Y019500D01*
X021500Y018000D02*
X020500Y018000D01*
X021500Y018000D02*
X021750Y018000D01*
X022250Y017500D01*
X038000Y017500D01*
X037250Y017000D02*
X022250Y017000D01*
X021750Y016500D01*
X021500Y016500D01*
X020500Y016500D01*
X020500Y022500D02*
X021500Y022500D01*
X021750Y022500D01*
X020250Y023000D02*
X020000Y022750D01*
X020250Y023000D02*
X035250Y023000D01*
X037750Y020500D01*
X038000Y020500D01*
X037250Y019000D02*
X037750Y018500D01*
X038000Y018500D01*
X037250Y017000D02*
X037750Y016500D01*
X038000Y016500D01*
D15*
X039000Y016500D02*
X039000Y016250D01*
X039000Y015750D01*
X039000Y015500D01*
X039000Y015250D01*
X039000Y014750D01*
X039000Y014500D01*
X039000Y014250D01*
X039000Y013750D01*
X039000Y013500D01*
X039000Y013250D01*
X039000Y012750D01*
X039000Y012500D01*
X039000Y012250D01*
X039000Y011750D01*
X039000Y011500D01*
X039000Y011250D01*
X039000Y010750D01*
X039000Y010500D01*
X039000Y010250D01*
X039000Y009750D01*
X039000Y009500D01*
X039000Y009250D01*
X039000Y008750D01*
X039000Y008500D01*
X039000Y008250D01*
X039000Y007750D01*
X039000Y007500D01*
X039000Y007250D01*
X039000Y006750D01*
X039000Y006500D01*
X039000Y006250D01*
X039000Y006000D01*
X039000Y005750D01*
X039000Y005500D01*
X039000Y005250D01*
X039000Y004750D01*
X039000Y004500D01*
X038000Y005500D02*
X037750Y005500D01*
X025750Y005500D01*
X023500Y003500D01*
X005500Y003500D01*
X003625Y003375D01*
X003625Y004625D02*
X006000Y004500D01*
X010500Y004500D01*
X011000Y004500D01*
X005500Y002000D02*
X003625Y002125D01*
X005500Y002000D02*
X023250Y002000D01*
X025500Y004250D01*
X025500Y004500D01*
X039000Y016500D02*
X039000Y016750D01*
X039000Y017250D01*
X039000Y017500D01*
X039000Y017750D01*
X039000Y018250D01*
X039000Y018500D01*
X039000Y018750D01*
X039000Y019250D01*
X039000Y019500D01*
X039000Y019750D01*
X039000Y020250D01*
X039000Y020500D01*
X039000Y020750D01*
X036250Y023500D01*
X012500Y023500D01*
X011500Y022500D01*
X011000Y022500D01*
M02*
