G75*
%MOIN*%
%OFA0B0*%
%FSLAX24Y24*%
%IPPOS*%
%LPD*%
%AMOC8*
5,1,8,0,0,1.08239X$1,22.5*
%
%ADD10R,0.5320X0.0960*%
%ADD11C,0.1500*%
%ADD12OC8,0.0624*%
%ADD13R,0.1316X0.0396*%
%ADD14OC8,0.0720*%
%ADD15C,0.0576*%
D10*
X003625Y002125D03*
X003625Y003375D03*
X003625Y004625D03*
X003625Y005875D03*
X003625Y007125D03*
X003625Y008375D03*
X003625Y009625D03*
X003625Y010875D03*
X003625Y012125D03*
X003625Y013375D03*
X003625Y014625D03*
X003625Y015875D03*
X003625Y017125D03*
X003625Y018375D03*
X003625Y019625D03*
X003625Y020875D03*
X003625Y022125D03*
X003625Y023375D03*
D11*
X048000Y022750D03*
X048000Y002750D03*
D12*
X028500Y002500D03*
X028500Y003500D03*
X028500Y004500D03*
X028500Y005500D03*
X028500Y006500D03*
X028500Y007500D03*
X028500Y008500D03*
X024500Y008500D03*
X023500Y008500D03*
X023500Y007500D03*
X024500Y007500D03*
X024500Y006500D03*
X023500Y006500D03*
X023500Y005500D03*
X024500Y005500D03*
X024500Y004500D03*
X023500Y004500D03*
X023500Y003500D03*
X024500Y003500D03*
X024500Y002500D03*
X023500Y002500D03*
X019500Y002500D03*
X019500Y003500D03*
X019500Y004500D03*
X019500Y005500D03*
X019500Y006500D03*
X019500Y007500D03*
X019500Y008500D03*
X019500Y009500D03*
X016500Y010000D03*
X015500Y010500D03*
X014500Y010500D03*
X013500Y010500D03*
X012500Y010500D03*
X011500Y010500D03*
X010500Y010500D03*
X009500Y010500D03*
X009500Y007500D03*
X010500Y007500D03*
X011500Y007500D03*
X012500Y007500D03*
X013500Y007500D03*
X014500Y007500D03*
X015500Y007500D03*
X016500Y008000D03*
X015500Y005500D03*
X014500Y005500D03*
X013500Y005500D03*
X012500Y005500D03*
X011500Y005500D03*
X010500Y005500D03*
X009500Y005500D03*
X009500Y002500D03*
X010500Y002500D03*
X011500Y002500D03*
X012500Y002500D03*
X013500Y002500D03*
X014500Y002500D03*
X015500Y002500D03*
X016500Y003000D03*
X016500Y005000D03*
X023500Y009500D03*
X023500Y011500D03*
X022500Y011500D03*
X021500Y011500D03*
X020500Y011500D03*
X019500Y011500D03*
X024500Y011500D03*
X025500Y011500D03*
X026500Y012000D03*
X026500Y014000D03*
X025500Y014500D03*
X024500Y014500D03*
X023500Y014500D03*
X022500Y014500D03*
X021500Y014500D03*
X020500Y014500D03*
X019500Y014500D03*
X016500Y016000D03*
X015500Y015500D03*
X014500Y015500D03*
X013500Y015500D03*
X012500Y015500D03*
X011500Y015500D03*
X010500Y015500D03*
X009500Y015500D03*
X009500Y018500D03*
X010500Y018500D03*
X011500Y018500D03*
X012500Y018500D03*
X013500Y018500D03*
X014500Y018500D03*
X015500Y018500D03*
X016500Y018000D03*
X019500Y017500D03*
X019500Y016500D03*
X019500Y018500D03*
X019500Y019500D03*
X019500Y020500D03*
X019500Y021500D03*
X019500Y022500D03*
X019500Y023500D03*
X016500Y023000D03*
X015500Y023500D03*
X014500Y023500D03*
X013500Y023500D03*
X012500Y023500D03*
X011500Y023500D03*
X010500Y023500D03*
X009500Y023500D03*
X009500Y020500D03*
X010500Y020500D03*
X011500Y020500D03*
X012500Y020500D03*
X013500Y020500D03*
X014500Y020500D03*
X015500Y020500D03*
X016500Y021000D03*
X023500Y020500D03*
X024500Y020500D03*
X024500Y019500D03*
X023500Y019500D03*
X023500Y018500D03*
X024500Y018500D03*
X024500Y017500D03*
X023500Y017500D03*
X023500Y016500D03*
X028500Y017500D03*
X028500Y018500D03*
X028500Y019500D03*
X028500Y020500D03*
X028500Y021500D03*
X028500Y022500D03*
X028500Y023500D03*
X024500Y023500D03*
X023500Y023500D03*
X023500Y022500D03*
X024500Y022500D03*
X024500Y021500D03*
X023500Y021500D03*
D13*
X042500Y018625D03*
X042500Y018000D03*
X042500Y017375D03*
X042500Y016750D03*
X042500Y016125D03*
X042500Y015500D03*
X042500Y014875D03*
X042500Y014250D03*
X042500Y013625D03*
X042500Y013000D03*
X042500Y012375D03*
X042500Y011750D03*
X042500Y011125D03*
X042500Y010500D03*
X042500Y009875D03*
X042500Y009250D03*
X042500Y008625D03*
X042500Y008000D03*
X042500Y007375D03*
D14*
X037500Y007500D03*
X036500Y007500D03*
X036500Y006500D03*
X037500Y006500D03*
X037500Y005500D03*
X036500Y005500D03*
X036500Y008500D03*
X037500Y008500D03*
X037500Y009500D03*
X036500Y009500D03*
X036500Y010500D03*
X037500Y010500D03*
X037500Y011500D03*
X036500Y011500D03*
X036500Y012500D03*
X037500Y012500D03*
X037500Y013500D03*
X036500Y013500D03*
X036500Y014500D03*
X037500Y014500D03*
X037500Y015500D03*
X036500Y015500D03*
X036500Y016500D03*
X037500Y016500D03*
X037500Y017500D03*
X036500Y017500D03*
X036500Y018500D03*
X037500Y018500D03*
X037500Y019500D03*
X036500Y019500D03*
X036500Y020500D03*
X037500Y020500D03*
X037500Y021500D03*
X036500Y021500D03*
D15*
X039125Y022000D03*
X034750Y024000D03*
X043375Y019125D03*
X033000Y019000D03*
X033000Y018375D03*
X032500Y017500D03*
X029375Y016000D03*
X026500Y015000D03*
X028875Y014250D03*
X024875Y013250D03*
X024000Y012250D03*
X023000Y009875D03*
X018375Y008750D03*
X017375Y008250D03*
X015875Y010000D03*
X014250Y012250D03*
X013500Y013750D03*
X015000Y014500D03*
X017250Y014500D03*
X018375Y013750D03*
X018375Y012750D03*
X019000Y012750D03*
X017625Y015500D03*
X020250Y017000D03*
X020875Y017000D03*
X021500Y017000D03*
X020250Y018000D03*
X018375Y017250D03*
X014125Y017250D03*
X010500Y019250D03*
X008500Y018500D03*
X007500Y018500D03*
X006625Y018000D03*
X010000Y016750D03*
X009000Y015125D03*
X007625Y014125D03*
X007000Y013625D03*
X008125Y013375D03*
X009500Y013375D03*
X009500Y012750D03*
X008125Y012750D03*
X007250Y011875D03*
X008500Y011750D03*
X006625Y011250D03*
X007625Y010750D03*
X006625Y010125D03*
X009375Y009125D03*
X010750Y008750D03*
X012875Y007000D03*
X011000Y006500D03*
X007250Y004750D03*
X006625Y006500D03*
X006625Y008000D03*
X006750Y012625D03*
X011250Y013625D03*
X006625Y016250D03*
X013500Y019500D03*
X016000Y020000D03*
X017875Y020500D03*
X019125Y020000D03*
X021500Y020000D03*
X022875Y022250D03*
X016375Y022375D03*
X011750Y022250D03*
X011750Y021625D03*
X010125Y022750D03*
X009000Y021625D03*
X006750Y019750D03*
X025500Y016500D03*
X033375Y013250D03*
X035625Y012000D03*
X033375Y011250D03*
X033875Y010500D03*
X033875Y009875D03*
X035625Y009250D03*
X035250Y008000D03*
X031125Y008750D03*
X025750Y006000D03*
X022375Y006000D03*
X021375Y005000D03*
X020500Y006500D03*
X021125Y007500D03*
X026250Y003500D03*
X016500Y001500D03*
X015500Y001000D03*
X036250Y003125D03*
X040375Y007375D03*
X038500Y011250D03*
X038500Y012250D03*
M02*
