%
M48
M72
T01C0.0320
T02C0.0400
T03C0.1250
%
T01
X7250Y4750
X9500Y5500
X10500Y5500
X11500Y5500
X12500Y5500
X13500Y5500
X14500Y5500
X15500Y5500
X16500Y5000
X19500Y4500
X19500Y3500
X19500Y2500
X16500Y3000
X15500Y2500
X14500Y2500
X13500Y2500
X12500Y2500
X11500Y2500
X10500Y2500
X9500Y2500
X15500Y1000
X16500Y1500
X21375Y5000
X22375Y6000
X23500Y5500
X24500Y5500
X25750Y6000
X24500Y6500
X23500Y6500
X23500Y7500
X24500Y7500
X24500Y8500
X23500Y8500
X23500Y9500
X23000Y9875
X22500Y11500
X21500Y11500
X20500Y11500
X19500Y11500
X19000Y12750
X18375Y12750
X18375Y13750
X17250Y14500
X17625Y15500
X16500Y16000
X15500Y15500
X14500Y15500
X13500Y15500
X12500Y15500
X11500Y15500
X10500Y15500
X9500Y15500
X9000Y15125
X7625Y14125
X7000Y13625
X8125Y13375
X9500Y13375
X9500Y12750
X8125Y12750
X7250Y11875
X8500Y11750
X6625Y11250
X7625Y10750
X6625Y10125
X9500Y10500
X10500Y10500
X11500Y10500
X12500Y10500
X13500Y10500
X14500Y10500
X15500Y10500
X15875Y10000
X16500Y10000
X18375Y8750
X17375Y8250
X16500Y8000
X15500Y7500
X14500Y7500
X13500Y7500
X12875Y7000
X12500Y7500
X11500Y7500
X10500Y7500
X9500Y7500
X11000Y6500
X6625Y6500
X6625Y8000
X9375Y9125
X10750Y8750
X14250Y12250
X13500Y13750
X15000Y14500
X11250Y13625
X6750Y12625
X6625Y16250
X10000Y16750
X6625Y18000
X7500Y18500
X8500Y18500
X9500Y18500
X10500Y18500
X11500Y18500
X12500Y18500
X13500Y18500
X14500Y18500
X15500Y18500
X16500Y18000
X18375Y17250
X19500Y17500
X20250Y17000
X20875Y17000
X21500Y17000
X20250Y18000
X19500Y18500
X19500Y19500
X19125Y20000
X19500Y20500
X17875Y20500
X16500Y21000
X15500Y20500
X16000Y20000
X14500Y20500
X13500Y20500
X12500Y20500
X11500Y20500
X10500Y20500
X9500Y20500
X9000Y21625
X10125Y22750
X10500Y23500
X9500Y23500
X11500Y23500
X12500Y23500
X13500Y23500
X14500Y23500
X15500Y23500
X16500Y23000
X16375Y22375
X19500Y22500
X19500Y21500
X21500Y20000
X23500Y19500
X24500Y19500
X24500Y18500
X23500Y18500
X23500Y17500
X24500Y17500
X23500Y16500
X25500Y16500
X26500Y15000
X25500Y14500
X24500Y14500
X23500Y14500
X22500Y14500
X21500Y14500
X20500Y14500
X19500Y14500
X19500Y16500
X14125Y17250
X10500Y19250
X13500Y19500
X11750Y21625
X11750Y22250
X6750Y19750
X19500Y23500
X22875Y22250
X23500Y22500
X24500Y22500
X24500Y21500
X23500Y21500
X23500Y20500
X24500Y20500
X28500Y20500
X28500Y19500
X28500Y18500
X28500Y17500
X29375Y16000
X32500Y17500
X33000Y18375
X33000Y19000
X28500Y21500
X28500Y22500
X28500Y23500
X24500Y23500
X23500Y23500
X34750Y24000
X39125Y22000
X43375Y19125
X33375Y13250
X35625Y12000
X33375Y11250
X33875Y10500
X33875Y9875
X35625Y9250
X35250Y8000
X31125Y8750
X28500Y8500
X28500Y7500
X28500Y6500
X28500Y5500
X28500Y4500
X28500Y3500
X28500Y2500
X26250Y3500
X24500Y3500
X23500Y3500
X23500Y2500
X24500Y2500
X24500Y4500
X23500Y4500
X20500Y6500
X19500Y6500
X19500Y5500
X19500Y7500
X19500Y8500
X19500Y9500
X21125Y7500
X23500Y11500
X24500Y11500
X25500Y11500
X26500Y12000
X24875Y13250
X26500Y14000
X28875Y14250
X24000Y12250
X38500Y12250
X38500Y11250
X40375Y7375
X36250Y3125
T02
X36500Y5500
X37500Y5500
X37500Y6500
X36500Y6500
X36500Y7500
X37500Y7500
X37500Y8500
X36500Y8500
X36500Y9500
X37500Y9500
X37500Y10500
X36500Y10500
X36500Y11500
X37500Y11500
X37500Y12500
X36500Y12500
X36500Y13500
X37500Y13500
X37500Y14500
X36500Y14500
X36500Y15500
X37500Y15500
X37500Y16500
X36500Y16500
X36500Y17500
X37500Y17500
X37500Y18500
X36500Y18500
X36500Y19500
X37500Y19500
X37500Y20500
X36500Y20500
X36500Y21500
X37500Y21500
T03
X48000Y22750
X48000Y2750
M30
