G75*
G70*
%OFA0B0*%
%FSLAX24Y24*%
%IPPOS*%
%LPD*%
%AMOC8*
5,1,8,0,0,1.08239X$1,22.5*
%
%ADD10C,0.1500*%
%ADD11OC8,0.0600*%
%ADD12C,0.3000*%
%ADD13C,0.0150*%
%ADD14C,0.0300*%
D10*
X145988Y022288D03*
X143488Y022288D03*
X140363Y022288D03*
X137863Y022288D03*
X134425Y021038D03*
X128800Y021038D03*
X123175Y021038D03*
X121144Y019476D03*
X117707Y019476D03*
X115675Y017913D03*
X111925Y017757D03*
X106300Y017757D03*
X100988Y016663D03*
X098488Y016663D03*
X095363Y016663D03*
X092863Y016663D03*
X089738Y016663D03*
X087238Y016663D03*
X084113Y016663D03*
X081613Y016663D03*
X078488Y016663D03*
X075988Y016663D03*
X072863Y016663D03*
X070363Y016663D03*
X067238Y016663D03*
X064738Y016663D03*
X061613Y016663D03*
X059113Y016663D03*
X055988Y016663D03*
X053488Y016663D03*
X050363Y016663D03*
X047863Y016663D03*
X044738Y016663D03*
X042238Y016663D03*
X039113Y016663D03*
X036613Y016663D03*
X033488Y016663D03*
X030988Y016663D03*
X027863Y016663D03*
X025363Y016663D03*
X022238Y016663D03*
X019738Y016663D03*
X016613Y016663D03*
X014113Y016663D03*
X010988Y016663D03*
X008488Y016663D03*
X005363Y016663D03*
X002863Y016663D03*
X002863Y019476D03*
X005363Y019476D03*
X008488Y019476D03*
X010988Y019476D03*
X014113Y019476D03*
X016613Y019476D03*
X019738Y019476D03*
X022238Y019476D03*
X025363Y019476D03*
X027863Y019476D03*
X030988Y019476D03*
X033488Y019476D03*
X036613Y019476D03*
X039113Y019476D03*
X042238Y019476D03*
X044738Y019476D03*
X047863Y019476D03*
X050363Y019476D03*
X053488Y019476D03*
X055988Y019476D03*
X059113Y019476D03*
X061613Y019476D03*
X064738Y019476D03*
X067238Y019476D03*
X070363Y019476D03*
X072863Y019476D03*
X075988Y019476D03*
X078488Y019476D03*
X081613Y019476D03*
X084113Y019476D03*
X087238Y019476D03*
X089738Y019476D03*
X092863Y019476D03*
X095363Y019476D03*
X098488Y019476D03*
X100988Y019476D03*
X104269Y019476D03*
X109894Y019476D03*
X111925Y021038D03*
X115675Y021194D03*
X106300Y021038D03*
X100988Y022288D03*
X098488Y022288D03*
X095363Y022288D03*
X092863Y022288D03*
X089738Y022288D03*
X087238Y022288D03*
X084113Y022288D03*
X081613Y022288D03*
X078488Y022288D03*
X075988Y022288D03*
X072863Y022288D03*
X070363Y022288D03*
X067238Y022288D03*
X064738Y022288D03*
X061613Y022288D03*
X059113Y022288D03*
X055988Y022288D03*
X053488Y022288D03*
X050363Y022288D03*
X047863Y022288D03*
X044738Y022288D03*
X042238Y022288D03*
X039113Y022288D03*
X036613Y022288D03*
X033488Y022288D03*
X030988Y022288D03*
X027863Y022288D03*
X025363Y022288D03*
X022238Y022288D03*
X019738Y022288D03*
X016613Y022288D03*
X014113Y022288D03*
X010988Y022288D03*
X008488Y022288D03*
X005363Y022288D03*
X002863Y022288D03*
X123175Y017757D03*
X128800Y017757D03*
X134425Y017757D03*
X137863Y016663D03*
X140363Y016663D03*
X143488Y016663D03*
X145988Y016663D03*
X145988Y019476D03*
X143488Y019476D03*
X140363Y019476D03*
X137863Y019476D03*
X132394Y019476D03*
X126769Y019476D03*
D11*
X055863Y027101D03*
X054863Y027101D03*
X053863Y027101D03*
X052863Y027101D03*
X051863Y027101D03*
X050863Y027101D03*
X049863Y027101D03*
X048863Y027101D03*
X047863Y027101D03*
X046863Y027101D03*
X045863Y027101D03*
X044863Y027101D03*
X043863Y027101D03*
X042863Y027101D03*
X041863Y027101D03*
X040863Y027101D03*
X039863Y027101D03*
X039863Y028101D03*
X040863Y028101D03*
X041863Y028101D03*
X042863Y028101D03*
X043863Y028101D03*
X044863Y028101D03*
X045863Y028101D03*
X046863Y028101D03*
X047863Y028101D03*
X048863Y028101D03*
X049863Y028101D03*
X050863Y028101D03*
X051863Y028101D03*
X052863Y028101D03*
X053863Y028101D03*
X054863Y028101D03*
X055863Y028101D03*
X029613Y028101D03*
X028613Y028101D03*
X027613Y028101D03*
X026613Y028101D03*
X025613Y028101D03*
X024613Y028101D03*
X023613Y028101D03*
X022613Y028101D03*
X021613Y028101D03*
X020613Y028101D03*
X019613Y028101D03*
X018613Y028101D03*
X017613Y028101D03*
X016613Y028101D03*
X015613Y028101D03*
X014613Y028101D03*
X013613Y028101D03*
X013613Y027101D03*
X014613Y027101D03*
X015613Y027101D03*
X016613Y027101D03*
X017613Y027101D03*
X018613Y027101D03*
X019613Y027101D03*
X020613Y027101D03*
X021613Y027101D03*
X022613Y027101D03*
X023613Y027101D03*
X024613Y027101D03*
X025613Y027101D03*
X026613Y027101D03*
X027613Y027101D03*
X028613Y027101D03*
X029613Y027101D03*
D12*
X118488Y029476D03*
X122863Y029476D03*
D13*
X114363Y027788D02*
X056363Y027788D01*
X056363Y028538D01*
X055113Y029788D01*
X048363Y029788D01*
X048363Y026788D01*
X048613Y026538D01*
X052613Y026538D01*
X052613Y027038D01*
X052863Y027101D01*
X052363Y027788D02*
X051863Y027288D01*
X051863Y027101D01*
X052363Y027788D02*
X052363Y028788D01*
X054113Y028788D01*
X054363Y028538D01*
X054363Y026038D01*
X109113Y026038D01*
X116363Y018788D01*
X116363Y018538D01*
X118363Y018538D01*
X118613Y018788D01*
X118613Y019038D01*
X120613Y019038D01*
X121144Y019476D01*
X122113Y019788D02*
X122113Y020038D01*
X114363Y027788D01*
X111863Y026538D02*
X055363Y026538D01*
X055363Y028538D01*
X054613Y029288D01*
X049363Y029288D01*
X049363Y027788D01*
X048863Y027288D01*
X048863Y027101D01*
X046863Y027101D02*
X046863Y027288D01*
X046363Y027788D01*
X046363Y029288D01*
X020863Y029288D01*
X020113Y028538D01*
X020113Y026538D01*
X024113Y022538D01*
X024113Y021288D01*
X025113Y021288D01*
X026363Y020038D01*
X026363Y017788D01*
X102113Y017788D01*
X103613Y019288D01*
X104269Y019476D01*
X105363Y020038D02*
X099863Y025538D01*
X053863Y025538D01*
X053863Y027038D01*
X053863Y027101D01*
X046113Y026038D02*
X046113Y025038D01*
X082863Y025038D01*
X085613Y022288D01*
X085613Y021288D01*
X090863Y021288D01*
X092363Y019788D01*
X092863Y019476D01*
X093363Y019038D01*
X094863Y019038D01*
X095363Y019476D01*
X098488Y019476D02*
X099113Y019288D01*
X100363Y019288D01*
X100988Y019476D01*
X105363Y020038D02*
X105363Y016788D01*
X125613Y016788D01*
X127863Y019038D01*
X131863Y019038D01*
X132394Y019476D01*
X126769Y019476D02*
X126113Y019788D01*
X122113Y019788D01*
X117707Y019476D02*
X117363Y020038D01*
X116613Y020788D01*
X116613Y021788D01*
X111863Y026538D01*
X086613Y019788D02*
X085113Y021288D01*
X068863Y021288D01*
X068863Y022288D01*
X067613Y023538D01*
X045613Y023538D01*
X045613Y025538D01*
X044113Y027038D01*
X043863Y027101D01*
X044863Y027101D02*
X045113Y027038D01*
X046113Y026038D01*
X046363Y022288D02*
X042113Y026538D01*
X028863Y026538D01*
X028863Y027038D01*
X028613Y027101D01*
X027863Y027038D02*
X027613Y027101D01*
X027863Y027038D02*
X027863Y026038D01*
X040113Y026038D01*
X043363Y022788D01*
X043363Y021288D01*
X045363Y021288D01*
X045613Y021038D01*
X045613Y020788D01*
X056363Y020788D01*
X057113Y020038D01*
X057113Y019788D01*
X058613Y019788D01*
X059113Y019476D01*
X059613Y019038D01*
X061113Y019038D01*
X061613Y019476D01*
X064738Y019476D02*
X065363Y019288D01*
X066613Y019288D01*
X067238Y019476D01*
X068363Y021288D02*
X069863Y019788D01*
X070363Y019476D01*
X070863Y019038D01*
X072363Y019038D01*
X072863Y019476D01*
X075988Y019476D02*
X076613Y019288D01*
X077863Y019288D01*
X078488Y019476D01*
X081613Y019476D02*
X082113Y019038D01*
X083613Y019038D01*
X084113Y019476D01*
X086613Y019788D02*
X087238Y019476D01*
X087863Y019288D01*
X089113Y019288D01*
X089738Y019476D01*
X068363Y021288D02*
X046363Y021288D01*
X046363Y022288D01*
X041113Y022788D02*
X038175Y025726D01*
X025863Y025726D01*
X025863Y027038D01*
X025613Y027101D01*
X026113Y027788D02*
X026613Y027288D01*
X026613Y027101D01*
X026113Y027788D02*
X026113Y028788D01*
X022363Y028788D01*
X022113Y028538D01*
X022113Y026788D01*
X023363Y025538D01*
X023363Y024788D01*
X038113Y024788D01*
X040113Y022788D01*
X040113Y018538D01*
X050863Y018538D01*
X051363Y019038D01*
X051363Y019288D01*
X052863Y019288D01*
X053488Y019476D01*
X054113Y019288D01*
X055363Y019288D01*
X055988Y019476D01*
X050363Y019476D02*
X049863Y019038D01*
X048363Y019038D01*
X047863Y019476D01*
X047363Y019788D01*
X044925Y020663D01*
X041113Y020663D01*
X041113Y022788D01*
X040613Y022788D02*
X038113Y025288D01*
X023863Y025288D01*
X023863Y026038D01*
X022863Y027038D01*
X022613Y027101D01*
X021613Y027101D02*
X021613Y027038D01*
X021613Y026038D01*
X023863Y023788D01*
X035613Y023788D01*
X035613Y020788D01*
X036363Y020038D01*
X036613Y019476D01*
X037113Y019038D01*
X038613Y019038D01*
X039113Y019476D01*
X040613Y020038D02*
X040613Y022788D01*
X040613Y020038D02*
X041863Y020038D01*
X042238Y019476D01*
X042863Y019288D01*
X044113Y019288D01*
X044738Y019476D01*
X033488Y019476D02*
X032863Y019288D01*
X031613Y019288D01*
X030988Y019476D01*
X030363Y019788D01*
X028863Y021288D01*
X026363Y021288D01*
X026363Y022788D01*
X025863Y023288D01*
X023863Y023288D01*
X020863Y026288D01*
X020863Y027038D01*
X020613Y027101D01*
X019613Y027101D02*
X019613Y027038D01*
X019613Y026538D01*
X023613Y022538D01*
X023613Y021038D01*
X024863Y019788D01*
X025363Y019476D01*
X022238Y019476D02*
X021613Y019288D01*
X020363Y019288D01*
X019738Y019476D01*
X019363Y020038D01*
X018613Y020788D01*
X018613Y027038D01*
X018613Y027101D01*
X016613Y027101D02*
X016363Y027038D01*
X012113Y022788D01*
X012113Y020788D01*
X011363Y020038D01*
X010988Y019476D01*
X010363Y019288D01*
X009113Y019288D01*
X008488Y019476D01*
X006363Y020788D02*
X005613Y020038D01*
X005363Y019476D01*
X004863Y019038D01*
X003363Y019038D01*
X002863Y019476D01*
X006363Y020788D02*
X006363Y023288D01*
X011613Y023288D01*
X015363Y027038D01*
X015613Y027101D01*
X016613Y019476D02*
X016113Y019038D01*
X014613Y019038D01*
X014113Y019476D01*
X137863Y019476D02*
X138363Y019038D01*
X139863Y019038D01*
X140363Y019476D01*
X143488Y019476D02*
X144113Y019288D01*
X145363Y019288D01*
X145988Y019476D01*
D14*
X003363Y016288D02*
X002863Y016663D01*
X002613Y017288D01*
X001863Y018038D01*
X001863Y023788D01*
X011363Y023788D01*
X014113Y026538D01*
X014113Y026788D01*
X014363Y027038D01*
X014613Y027101D01*
X014113Y016663D02*
X013613Y016288D01*
X011613Y016288D01*
X010988Y016663D01*
X010363Y016288D01*
X009113Y016288D01*
X008488Y016663D01*
X007863Y016288D01*
X005863Y016288D01*
X005363Y016663D01*
X004863Y016288D01*
X003363Y016288D01*
X014113Y016663D02*
X014613Y016288D01*
X016113Y016288D01*
X016613Y016663D01*
X017113Y016288D01*
X019113Y016288D01*
X019738Y016663D01*
X020363Y016288D01*
X021613Y016288D01*
X022238Y016663D01*
X022863Y016288D01*
X024863Y016288D01*
X025363Y016663D01*
X025863Y016288D01*
X027363Y016288D01*
X027863Y016663D01*
X028363Y016288D01*
X030363Y016288D01*
X030988Y016663D01*
X031613Y016288D01*
X032863Y016288D01*
X033488Y016663D01*
X034113Y016288D01*
X036113Y016288D01*
X036613Y016663D01*
X037113Y016288D01*
X038613Y016288D01*
X039113Y016663D01*
X039613Y016288D01*
X041613Y016288D01*
X042238Y016663D01*
X042863Y016288D01*
X044113Y016288D01*
X044738Y016663D01*
X045363Y016288D01*
X047363Y016288D01*
X047863Y016663D01*
X048363Y016288D01*
X049863Y016288D01*
X050363Y016663D01*
X050863Y016288D01*
X052863Y016288D01*
X053488Y016663D01*
X054113Y016288D01*
X055363Y016288D01*
X055988Y016663D01*
X056613Y016288D01*
X058613Y016288D01*
X059113Y016663D01*
X059613Y016288D01*
X061113Y016288D01*
X061613Y016663D01*
X062113Y016288D01*
X064113Y016288D01*
X064738Y016663D01*
X065363Y016288D01*
X066613Y016288D01*
X067238Y016663D01*
X067863Y016288D01*
X069863Y016288D01*
X070363Y016663D01*
X070863Y016288D01*
X072363Y016288D01*
X072863Y016663D01*
X073363Y016288D01*
X075363Y016288D01*
X075988Y016663D01*
X076613Y016288D01*
X077863Y016288D01*
X078488Y016663D01*
X079113Y016288D01*
X081113Y016288D01*
X081613Y016663D01*
X082113Y016288D01*
X083613Y016288D01*
X084113Y016663D01*
X084613Y016288D01*
X086613Y016288D01*
X087238Y016663D01*
X087863Y016288D01*
X089113Y016288D01*
X089738Y016663D01*
X090363Y016288D01*
X092363Y016288D01*
X092863Y016663D01*
X093363Y016288D01*
X094863Y016288D01*
X095363Y016663D01*
X095863Y016288D01*
X097863Y016288D01*
X098488Y016663D01*
X099113Y016288D01*
X100363Y016288D01*
X100988Y016663D01*
X112613Y020788D02*
X115113Y018288D01*
X115675Y017913D01*
X112613Y020788D02*
X111925Y021038D01*
X122863Y021538D02*
X123175Y021038D01*
X122863Y021538D02*
X122863Y028038D01*
X122863Y029476D01*
X121113Y031288D02*
X119863Y030038D01*
X118488Y029476D01*
X121113Y031288D02*
X128363Y031288D01*
X128363Y021538D01*
X128800Y021038D01*
X129363Y020788D01*
X133863Y020788D01*
X134425Y021038D01*
X135113Y021288D01*
X137363Y021288D01*
X137363Y021788D01*
X137863Y022288D01*
X138363Y021788D01*
X139863Y021788D01*
X140363Y022288D01*
X140863Y022038D01*
X142863Y022038D01*
X143488Y022288D01*
X144113Y022038D01*
X145363Y022038D01*
X145988Y022288D01*
M02*
