G75*
G70*
%OFA0B0*%
%FSLAX24Y24*%
%IPPOS*%
%LPD*%
%AMOC8*
5,1,8,0,0,1.08239X$1,22.5*
%
%ADD10C,0.0040*%
%ADD11C,0.0000*%
%ADD12C,0.0060*%
%ADD13C,0.0020*%
%ADD14C,0.0050*%
D10*
X042824Y025131D02*
X042824Y024671D01*
X042747Y024671D02*
X042901Y024671D01*
X042594Y024671D02*
X042594Y024978D01*
X042440Y025131D01*
X042287Y024978D01*
X042287Y024671D01*
X042287Y024901D02*
X042594Y024901D01*
X042747Y025054D02*
X042824Y025131D01*
X042824Y024006D02*
X042824Y023546D01*
X042747Y023546D02*
X042901Y023546D01*
X042594Y023623D02*
X042594Y023699D01*
X042517Y023776D01*
X042287Y023776D01*
X042517Y023776D02*
X042594Y023853D01*
X042594Y023929D01*
X042517Y024006D01*
X042287Y024006D01*
X042287Y023546D01*
X042517Y023546D01*
X042594Y023623D01*
X042747Y023929D02*
X042824Y024006D01*
X042824Y022756D02*
X042747Y022679D01*
X042824Y022756D02*
X042824Y022296D01*
X042747Y022296D02*
X042901Y022296D01*
X042594Y022373D02*
X042517Y022296D01*
X042364Y022296D01*
X042287Y022373D01*
X042287Y022679D01*
X042364Y022756D01*
X042517Y022756D01*
X042594Y022679D01*
X042517Y021506D02*
X042287Y021506D01*
X042287Y021046D01*
X042517Y021046D01*
X042594Y021123D01*
X042594Y021429D01*
X042517Y021506D01*
X042747Y021429D02*
X042824Y021506D01*
X042824Y021046D01*
X042747Y021046D02*
X042901Y021046D01*
X042824Y020256D02*
X042747Y020179D01*
X042824Y020256D02*
X042824Y019796D01*
X042747Y019796D02*
X042901Y019796D01*
X042594Y019796D02*
X042287Y019796D01*
X042287Y020256D01*
X042594Y020256D01*
X042440Y020026D02*
X042287Y020026D01*
X042287Y019006D02*
X042594Y019006D01*
X042747Y018929D02*
X042824Y019006D01*
X042824Y018546D01*
X042747Y018546D02*
X042901Y018546D01*
X042440Y018776D02*
X042287Y018776D01*
X042287Y018546D02*
X042287Y019006D01*
X042287Y017756D02*
X042287Y017296D01*
X042287Y017526D02*
X042594Y017526D01*
X042747Y017679D02*
X042824Y017756D01*
X042824Y017296D01*
X042747Y017296D02*
X042901Y017296D01*
X042594Y017296D02*
X042594Y017756D01*
X042594Y016506D02*
X042440Y016506D01*
X042517Y016506D02*
X042517Y016123D01*
X042440Y016046D01*
X042364Y016046D01*
X042287Y016123D01*
X042747Y016046D02*
X042901Y016046D01*
X042824Y016046D02*
X042824Y016506D01*
X042747Y016429D01*
X042824Y015256D02*
X042747Y015179D01*
X042824Y015256D02*
X042824Y014796D01*
X042747Y014796D02*
X042901Y014796D01*
X042594Y014796D02*
X042364Y015026D01*
X042287Y014949D02*
X042594Y015256D01*
X042287Y015256D02*
X042287Y014796D01*
X042287Y014006D02*
X042287Y013546D01*
X042594Y013546D01*
X042747Y013546D02*
X042901Y013546D01*
X042824Y013546D02*
X042824Y014006D01*
X042747Y013929D01*
X042824Y012756D02*
X042747Y012679D01*
X042824Y012756D02*
X042824Y012296D01*
X042747Y012296D02*
X042901Y012296D01*
X042594Y012296D02*
X042594Y012756D01*
X042440Y012603D01*
X042287Y012756D01*
X042287Y012296D01*
X042287Y011506D02*
X042594Y011046D01*
X042594Y011506D01*
X042747Y011429D02*
X042824Y011506D01*
X042824Y011046D01*
X042747Y011046D02*
X042901Y011046D01*
X042287Y011046D02*
X042287Y011506D01*
X042287Y010256D02*
X042517Y010256D01*
X042594Y010179D01*
X042594Y010026D01*
X042517Y009949D01*
X042287Y009949D01*
X042287Y009796D02*
X042287Y010256D01*
X042747Y010179D02*
X042824Y010256D01*
X042824Y009796D01*
X042747Y009796D02*
X042901Y009796D01*
X042824Y009006D02*
X042747Y008929D01*
X042824Y009006D02*
X042824Y008546D01*
X042747Y008546D02*
X042901Y008546D01*
X042594Y008546D02*
X042440Y008699D01*
X042517Y008699D02*
X042287Y008699D01*
X042287Y008546D02*
X042287Y009006D01*
X042517Y009006D01*
X042594Y008929D01*
X042594Y008776D01*
X042517Y008699D01*
X042517Y007756D02*
X042364Y007756D01*
X042287Y007679D01*
X042287Y007603D01*
X042364Y007526D01*
X042517Y007526D01*
X042594Y007449D01*
X042594Y007373D01*
X042517Y007296D01*
X042364Y007296D01*
X042287Y007373D01*
X042594Y007679D02*
X042517Y007756D01*
X042747Y007679D02*
X042824Y007756D01*
X042824Y007296D01*
X042747Y007296D02*
X042901Y007296D01*
X042824Y006506D02*
X042747Y006429D01*
X042824Y006506D02*
X042824Y006046D01*
X042747Y006046D02*
X042901Y006046D01*
X042440Y006046D02*
X042440Y006506D01*
X042287Y006506D02*
X042594Y006506D01*
X042594Y005256D02*
X042594Y004873D01*
X042517Y004796D01*
X042364Y004796D01*
X042287Y004873D01*
X042287Y005256D01*
X042747Y005179D02*
X042824Y005256D01*
X042824Y004796D01*
X042747Y004796D02*
X042901Y004796D01*
X042824Y004006D02*
X042824Y003546D01*
X042747Y003546D02*
X042901Y003546D01*
X042594Y003699D02*
X042594Y004006D01*
X042747Y003929D02*
X042824Y004006D01*
X042287Y004006D02*
X042287Y003699D01*
X042440Y003546D01*
X042594Y003699D01*
D11*
X042111Y002026D02*
X000111Y002026D01*
X000111Y026526D01*
X043361Y026526D01*
X043361Y025526D01*
X049611Y025526D01*
X049611Y003026D01*
X042111Y003026D01*
X042111Y002026D01*
X042111Y003026D01*
X049611Y003026D01*
X049611Y025526D01*
X043361Y025526D01*
X043361Y026526D01*
X001486Y024276D02*
X001489Y024333D01*
X001496Y024389D01*
X001509Y024445D01*
X001527Y024499D01*
X001550Y024551D01*
X001577Y024601D01*
X001609Y024648D01*
X001645Y024692D01*
X001684Y024733D01*
X001728Y024770D01*
X001774Y024802D01*
X001823Y024831D01*
X001875Y024855D01*
X001929Y024874D01*
X001984Y024888D01*
X002040Y024897D01*
X002097Y024901D01*
X002154Y024900D01*
X002210Y024893D01*
X002266Y024882D01*
X002320Y024865D01*
X002373Y024843D01*
X002423Y024817D01*
X002471Y024787D01*
X002516Y024752D01*
X002558Y024713D01*
X002596Y024670D01*
X002630Y024625D01*
X002659Y024576D01*
X002684Y024525D01*
X002705Y024472D01*
X002720Y024417D01*
X002730Y024361D01*
X002735Y024304D01*
X002735Y024248D01*
X002730Y024191D01*
X002720Y024135D01*
X002705Y024080D01*
X002684Y024027D01*
X002659Y023976D01*
X002630Y023927D01*
X002596Y023882D01*
X002558Y023839D01*
X002516Y023800D01*
X002471Y023765D01*
X002424Y023735D01*
X002373Y023709D01*
X002320Y023687D01*
X002266Y023670D01*
X002210Y023659D01*
X002154Y023652D01*
X002097Y023651D01*
X002040Y023655D01*
X001984Y023664D01*
X001929Y023678D01*
X001875Y023697D01*
X001823Y023721D01*
X001774Y023750D01*
X001728Y023782D01*
X001684Y023819D01*
X001645Y023860D01*
X001609Y023904D01*
X001577Y023951D01*
X001550Y024001D01*
X001527Y024053D01*
X001509Y024107D01*
X001496Y024163D01*
X001489Y024219D01*
X001486Y024276D01*
X001486Y004276D02*
X001489Y004333D01*
X001496Y004389D01*
X001509Y004445D01*
X001527Y004499D01*
X001550Y004551D01*
X001577Y004601D01*
X001609Y004648D01*
X001645Y004692D01*
X001684Y004733D01*
X001728Y004770D01*
X001774Y004802D01*
X001823Y004831D01*
X001875Y004855D01*
X001929Y004874D01*
X001984Y004888D01*
X002040Y004897D01*
X002097Y004901D01*
X002154Y004900D01*
X002210Y004893D01*
X002266Y004882D01*
X002320Y004865D01*
X002373Y004843D01*
X002423Y004817D01*
X002471Y004787D01*
X002516Y004752D01*
X002558Y004713D01*
X002596Y004670D01*
X002630Y004625D01*
X002659Y004576D01*
X002684Y004525D01*
X002705Y004472D01*
X002720Y004417D01*
X002730Y004361D01*
X002735Y004304D01*
X002735Y004248D01*
X002730Y004191D01*
X002720Y004135D01*
X002705Y004080D01*
X002684Y004027D01*
X002659Y003976D01*
X002630Y003927D01*
X002596Y003882D01*
X002558Y003839D01*
X002516Y003800D01*
X002471Y003765D01*
X002424Y003735D01*
X002373Y003709D01*
X002320Y003687D01*
X002266Y003670D01*
X002210Y003659D01*
X002154Y003652D01*
X002097Y003651D01*
X002040Y003655D01*
X001984Y003664D01*
X001929Y003678D01*
X001875Y003697D01*
X001823Y003721D01*
X001774Y003750D01*
X001728Y003782D01*
X001684Y003819D01*
X001645Y003860D01*
X001609Y003904D01*
X001577Y003951D01*
X001550Y004001D01*
X001527Y004053D01*
X001509Y004107D01*
X001496Y004163D01*
X001489Y004219D01*
X001486Y004276D01*
D12*
X008011Y011826D02*
X008311Y011826D01*
X008011Y011826D02*
X008011Y012226D01*
X008311Y012226D01*
X008311Y012026D02*
X008318Y012190D01*
X008341Y012352D01*
X008378Y012512D01*
X008429Y012667D01*
X008494Y012818D01*
X008573Y012961D01*
X008664Y013097D01*
X008768Y013224D01*
X008882Y013342D01*
X009007Y013448D01*
X009141Y013542D01*
X009283Y013624D01*
X009432Y013693D01*
X009586Y013748D01*
X009745Y013788D01*
X009907Y013814D01*
X010070Y013826D01*
X010234Y013822D01*
X010397Y013803D01*
X010557Y013770D01*
X010714Y013722D01*
X010866Y013660D01*
X011011Y013585D01*
X011149Y013497D01*
X011278Y013396D01*
X011398Y013284D01*
X011507Y013162D01*
X011605Y013030D01*
X011690Y012890D01*
X011762Y012743D01*
X011820Y012590D01*
X011865Y012432D01*
X011894Y012271D01*
X011909Y012108D01*
X011909Y011944D01*
X011894Y011781D01*
X011865Y011620D01*
X011820Y011462D01*
X011762Y011309D01*
X011690Y011162D01*
X011605Y011022D01*
X011507Y010890D01*
X011398Y010768D01*
X011278Y010656D01*
X011149Y010555D01*
X011011Y010467D01*
X010866Y010392D01*
X010714Y010330D01*
X010557Y010282D01*
X010397Y010249D01*
X010234Y010230D01*
X010070Y010226D01*
X009907Y010238D01*
X009745Y010264D01*
X009586Y010304D01*
X009432Y010359D01*
X009283Y010428D01*
X009141Y010510D01*
X009007Y010604D01*
X008882Y010710D01*
X008768Y010828D01*
X008664Y010955D01*
X008573Y011091D01*
X008494Y011234D01*
X008429Y011385D01*
X008378Y011540D01*
X008341Y011700D01*
X008318Y011862D01*
X008311Y012026D01*
D13*
X008591Y012026D02*
X008597Y012164D01*
X008616Y012301D01*
X008647Y012436D01*
X008691Y012567D01*
X008746Y012694D01*
X008812Y012816D01*
X008889Y012931D01*
X008977Y013038D01*
X009074Y013137D01*
X009179Y013227D01*
X009292Y013306D01*
X009412Y013376D01*
X009537Y013434D01*
X009668Y013480D01*
X009802Y013514D01*
X009938Y013536D01*
X010076Y013546D01*
X010215Y013542D01*
X010352Y013527D01*
X010488Y013499D01*
X010620Y013458D01*
X010748Y013406D01*
X010871Y013342D01*
X010988Y013268D01*
X011097Y013183D01*
X011198Y013088D01*
X011290Y012985D01*
X011372Y012874D01*
X011444Y012756D01*
X011505Y012632D01*
X011554Y012502D01*
X011592Y012369D01*
X011617Y012233D01*
X011629Y012095D01*
X011629Y011957D01*
X011617Y011819D01*
X011592Y011683D01*
X011554Y011550D01*
X011505Y011420D01*
X011444Y011296D01*
X011372Y011178D01*
X011290Y011067D01*
X011198Y010964D01*
X011097Y010869D01*
X010988Y010784D01*
X010871Y010710D01*
X010748Y010646D01*
X010620Y010594D01*
X010488Y010553D01*
X010352Y010525D01*
X010215Y010510D01*
X010076Y010506D01*
X009938Y010516D01*
X009802Y010538D01*
X009668Y010572D01*
X009537Y010618D01*
X009412Y010676D01*
X009292Y010746D01*
X009179Y010825D01*
X009074Y010915D01*
X008977Y011014D01*
X008889Y011121D01*
X008812Y011236D01*
X008746Y011358D01*
X008691Y011485D01*
X008647Y011616D01*
X008616Y011751D01*
X008597Y011888D01*
X008591Y012026D01*
D14*
X009136Y013951D02*
X009286Y013951D01*
X009211Y013951D02*
X009211Y014401D01*
X009136Y014401D02*
X009286Y014401D01*
X009519Y014326D02*
X009519Y014026D01*
X009595Y013951D01*
X009745Y013951D01*
X009820Y014026D01*
X009980Y013951D02*
X010130Y013951D01*
X010055Y013951D02*
X010055Y014401D01*
X009980Y014326D01*
X009820Y014326D02*
X009745Y014401D01*
X009595Y014401D01*
X009519Y014326D01*
X009646Y010151D02*
X009646Y009701D01*
X009807Y009776D02*
X009882Y009701D01*
X010032Y009701D01*
X010107Y009776D01*
X010107Y010076D01*
X009807Y009776D01*
X009807Y010076D01*
X009882Y010151D01*
X010032Y010151D01*
X010107Y010076D01*
X010267Y010076D02*
X010342Y010151D01*
X010492Y010151D01*
X010567Y010076D01*
X010267Y009776D01*
X010342Y009701D01*
X010492Y009701D01*
X010567Y009776D01*
X010567Y010076D01*
X010727Y010076D02*
X010802Y010151D01*
X010952Y010151D01*
X011028Y010076D01*
X010727Y009776D01*
X010802Y009701D01*
X010952Y009701D01*
X011028Y009776D01*
X011028Y010076D01*
X011188Y009926D02*
X011488Y009926D01*
X011648Y009926D02*
X011948Y009926D01*
X011948Y010151D02*
X011948Y009701D01*
X011648Y009701D02*
X011648Y010151D01*
X011413Y010151D02*
X011188Y009926D01*
X011413Y009701D02*
X011413Y010151D01*
X010727Y010076D02*
X010727Y009776D01*
X010267Y009776D02*
X010267Y010076D01*
X009646Y009926D02*
X009346Y009926D01*
X009346Y009701D02*
X009346Y010151D01*
X008886Y010151D02*
X008886Y009701D01*
X009186Y009701D01*
M02*
