G75*
G70*
%OFA0B0*%
%FSLAX24Y24*%
%IPPOS*%
%LPD*%
%AMOC8*
5,1,8,0,0,1.08239X$1,22.5*
%
%ADD10OC8,0.0774*%
%ADD11C,0.2940*%
%ADD12OC8,0.0480*%
D10*
X002570Y005141D03*
X003820Y006391D03*
X005070Y005141D03*
X006320Y006391D03*
X007570Y005141D03*
X008820Y006391D03*
X010070Y005141D03*
X011320Y006391D03*
X012570Y005141D03*
X013820Y006391D03*
X015070Y005141D03*
X016320Y006391D03*
X017570Y005141D03*
X018820Y006391D03*
X020070Y005141D03*
X021320Y006391D03*
X022570Y005141D03*
X023820Y006391D03*
X025070Y005141D03*
X026320Y006391D03*
X027570Y005141D03*
X028820Y006391D03*
X030070Y005141D03*
X031320Y006391D03*
X032570Y005141D03*
X033820Y006391D03*
X035070Y005141D03*
X036320Y006391D03*
X037570Y005141D03*
X038820Y006391D03*
X040070Y005141D03*
X041320Y006391D03*
X042570Y005141D03*
X043820Y006391D03*
X045070Y005141D03*
X046320Y006391D03*
X047570Y005141D03*
X048820Y006391D03*
X050070Y005141D03*
X051320Y006391D03*
X052570Y005141D03*
X053820Y006391D03*
X055070Y005141D03*
X056320Y006391D03*
X057570Y005141D03*
X058820Y006391D03*
X060070Y005141D03*
X061320Y006391D03*
X062570Y005141D03*
X063820Y006391D03*
X065070Y005141D03*
X066320Y006391D03*
X067570Y005141D03*
X068820Y006391D03*
X070070Y005141D03*
X071320Y006391D03*
X072570Y005141D03*
X073820Y006391D03*
X075070Y005141D03*
X076320Y006391D03*
X077570Y005141D03*
X078820Y006391D03*
X080070Y005141D03*
X081320Y006391D03*
X082570Y005141D03*
X083820Y006391D03*
X085070Y005141D03*
X086320Y006391D03*
X087570Y005141D03*
X088820Y006391D03*
X090070Y005141D03*
X091320Y006391D03*
X092570Y005141D03*
X093820Y006391D03*
X095070Y005141D03*
X096320Y006391D03*
X097570Y005141D03*
X098820Y006391D03*
X100070Y005141D03*
X101320Y006391D03*
X102570Y005141D03*
X103820Y006391D03*
X105070Y005141D03*
X106320Y006391D03*
X107570Y005141D03*
X108820Y006391D03*
X110070Y005141D03*
X111320Y006391D03*
X112570Y005141D03*
X113820Y006391D03*
X115070Y005141D03*
X116320Y006391D03*
X117570Y005141D03*
X118820Y006391D03*
X120070Y005141D03*
X121320Y006391D03*
X120070Y007641D03*
X118820Y008891D03*
X117570Y007641D03*
X116320Y008891D03*
X115070Y007641D03*
X113820Y008891D03*
X112570Y007641D03*
X111320Y008891D03*
X110070Y007641D03*
X108820Y008891D03*
X107570Y007641D03*
X106320Y008891D03*
X105070Y007641D03*
X103820Y008891D03*
X102570Y007641D03*
X101320Y008891D03*
X100070Y007641D03*
X098820Y008891D03*
X097570Y007641D03*
X096320Y008891D03*
X095070Y007641D03*
X093820Y008891D03*
X092570Y007641D03*
X091320Y008891D03*
X090070Y007641D03*
X088820Y008891D03*
X087570Y007641D03*
X086320Y008891D03*
X085070Y007641D03*
X083820Y008891D03*
X082570Y007641D03*
X081320Y008891D03*
X080070Y007641D03*
X078820Y008891D03*
X077570Y007641D03*
X076320Y008891D03*
X075070Y007641D03*
X073820Y008891D03*
X072570Y007641D03*
X071320Y008891D03*
X070070Y007641D03*
X068820Y008891D03*
X067570Y007641D03*
X066320Y008891D03*
X065070Y007641D03*
X063820Y008891D03*
X062570Y007641D03*
X061320Y008891D03*
X060070Y007641D03*
X058820Y008891D03*
X057570Y007641D03*
X056320Y008891D03*
X055070Y007641D03*
X053820Y008891D03*
X052570Y007641D03*
X051320Y008891D03*
X050070Y007641D03*
X048820Y008891D03*
X047570Y007641D03*
X046320Y008891D03*
X045070Y007641D03*
X043820Y008891D03*
X042570Y007641D03*
X041320Y008891D03*
X040070Y007641D03*
X038820Y008891D03*
X037570Y007641D03*
X036320Y008891D03*
X035070Y007641D03*
X033820Y008891D03*
X032570Y007641D03*
X031320Y008891D03*
X030070Y007641D03*
X028820Y008891D03*
X027570Y007641D03*
X026320Y008891D03*
X025070Y007641D03*
X023820Y008891D03*
X022570Y007641D03*
X021320Y008891D03*
X020070Y007641D03*
X018820Y008891D03*
X017570Y007641D03*
X016320Y008891D03*
X015070Y007641D03*
X013820Y008891D03*
X012570Y007641D03*
X011320Y008891D03*
X010070Y007641D03*
X008820Y008891D03*
X007570Y007641D03*
X006320Y008891D03*
X005070Y007641D03*
X003820Y008891D03*
X002570Y007641D03*
X002570Y010141D03*
X003820Y011391D03*
X002570Y012641D03*
X003820Y013891D03*
X002570Y015141D03*
X005070Y015141D03*
X006320Y013891D03*
X005070Y012641D03*
X006320Y011391D03*
X005070Y010141D03*
X007570Y010141D03*
X008820Y011391D03*
X007570Y012641D03*
X008820Y013891D03*
X007570Y015141D03*
X010070Y015141D03*
X011320Y013891D03*
X010070Y012641D03*
X011320Y011391D03*
X010070Y010141D03*
X012570Y010141D03*
X013820Y011391D03*
X012570Y012641D03*
X013820Y013891D03*
X012570Y015141D03*
X015070Y015141D03*
X016320Y013891D03*
X015070Y012641D03*
X016320Y011391D03*
X015070Y010141D03*
X017570Y010141D03*
X018820Y011391D03*
X017570Y012641D03*
X018820Y013891D03*
X017570Y015141D03*
X020070Y015141D03*
X021320Y013891D03*
X020070Y012641D03*
X021320Y011391D03*
X020070Y010141D03*
X022570Y010141D03*
X023820Y011391D03*
X022570Y012641D03*
X023820Y013891D03*
X022570Y015141D03*
X025070Y015141D03*
X026320Y013891D03*
X025070Y012641D03*
X026320Y011391D03*
X025070Y010141D03*
X027570Y010141D03*
X028820Y011391D03*
X027570Y012641D03*
X028820Y013891D03*
X027570Y015141D03*
X030070Y015141D03*
X031320Y013891D03*
X030070Y012641D03*
X031320Y011391D03*
X030070Y010141D03*
X032570Y010141D03*
X033820Y011391D03*
X032570Y012641D03*
X033820Y013891D03*
X032570Y015141D03*
X035070Y015141D03*
X036320Y013891D03*
X035070Y012641D03*
X036320Y011391D03*
X035070Y010141D03*
X037570Y010141D03*
X038820Y011391D03*
X037570Y012641D03*
X038820Y013891D03*
X037570Y015141D03*
X040070Y015141D03*
X041320Y013891D03*
X040070Y012641D03*
X041320Y011391D03*
X040070Y010141D03*
X042570Y010141D03*
X043820Y011391D03*
X042570Y012641D03*
X043820Y013891D03*
X042570Y015141D03*
X045070Y015141D03*
X046320Y013891D03*
X045070Y012641D03*
X046320Y011391D03*
X045070Y010141D03*
X047570Y010141D03*
X048820Y011391D03*
X047570Y012641D03*
X048820Y013891D03*
X047570Y015141D03*
X050070Y015141D03*
X051320Y013891D03*
X050070Y012641D03*
X051320Y011391D03*
X050070Y010141D03*
X052570Y010141D03*
X053820Y011391D03*
X052570Y012641D03*
X053820Y013891D03*
X052570Y015141D03*
X055070Y015141D03*
X056320Y013891D03*
X055070Y012641D03*
X056320Y011391D03*
X055070Y010141D03*
X057570Y010141D03*
X058820Y011391D03*
X057570Y012641D03*
X058820Y013891D03*
X057570Y015141D03*
X060070Y015141D03*
X061320Y013891D03*
X060070Y012641D03*
X061320Y011391D03*
X060070Y010141D03*
X062570Y010141D03*
X063820Y011391D03*
X062570Y012641D03*
X063820Y013891D03*
X062570Y015141D03*
X065070Y015141D03*
X066320Y013891D03*
X065070Y012641D03*
X066320Y011391D03*
X065070Y010141D03*
X067570Y010141D03*
X068820Y011391D03*
X067570Y012641D03*
X068820Y013891D03*
X067570Y015141D03*
X070070Y015141D03*
X071320Y013891D03*
X070070Y012641D03*
X071320Y011391D03*
X070070Y010141D03*
X072570Y010141D03*
X073820Y011391D03*
X072570Y012641D03*
X073820Y013891D03*
X072570Y015141D03*
X075070Y015141D03*
X076320Y013891D03*
X075070Y012641D03*
X076320Y011391D03*
X075070Y010141D03*
X077570Y010141D03*
X078820Y011391D03*
X077570Y012641D03*
X078820Y013891D03*
X077570Y015141D03*
X080070Y015141D03*
X081320Y013891D03*
X080070Y012641D03*
X081320Y011391D03*
X080070Y010141D03*
X082570Y010141D03*
X083820Y011391D03*
X082570Y012641D03*
X083820Y013891D03*
X082570Y015141D03*
X085070Y015141D03*
X086320Y013891D03*
X085070Y012641D03*
X086320Y011391D03*
X085070Y010141D03*
X087570Y010141D03*
X088820Y011391D03*
X087570Y012641D03*
X088820Y013891D03*
X087570Y015141D03*
X090070Y015141D03*
X091320Y013891D03*
X090070Y012641D03*
X091320Y011391D03*
X090070Y010141D03*
X092570Y010141D03*
X093820Y011391D03*
X092570Y012641D03*
X093820Y013891D03*
X092570Y015141D03*
X095070Y015141D03*
X096320Y013891D03*
X095070Y012641D03*
X096320Y011391D03*
X095070Y010141D03*
X097570Y010141D03*
X098820Y011391D03*
X097570Y012641D03*
X098820Y013891D03*
X097570Y015141D03*
X100070Y015141D03*
X101320Y013891D03*
X100070Y012641D03*
X101320Y011391D03*
X100070Y010141D03*
X102570Y010141D03*
X103820Y011391D03*
X102570Y012641D03*
X103820Y013891D03*
X102570Y015141D03*
X105070Y015141D03*
X106320Y013891D03*
X105070Y012641D03*
X106320Y011391D03*
X105070Y010141D03*
X107570Y010141D03*
X108820Y011391D03*
X107570Y012641D03*
X108820Y013891D03*
X107570Y015141D03*
X110070Y015141D03*
X111320Y013891D03*
X110070Y012641D03*
X111320Y011391D03*
X110070Y010141D03*
X112570Y010141D03*
X113820Y011391D03*
X112570Y012641D03*
X113820Y013891D03*
X112570Y015141D03*
X115070Y015141D03*
X116320Y013891D03*
X115070Y012641D03*
X116320Y011391D03*
X115070Y010141D03*
X117570Y010141D03*
X118820Y011391D03*
X117570Y012641D03*
X118820Y013891D03*
X117570Y015141D03*
X120070Y015141D03*
X121320Y013891D03*
X120070Y012641D03*
X121320Y011391D03*
X120070Y010141D03*
X121320Y008891D03*
X121320Y016391D03*
X120070Y017641D03*
X118820Y016391D03*
X117570Y017641D03*
X116320Y016391D03*
X115070Y017641D03*
X113820Y016391D03*
X112570Y017641D03*
X111320Y016391D03*
X110070Y017641D03*
X108820Y016391D03*
X107570Y017641D03*
X106320Y016391D03*
X105070Y017641D03*
X103820Y016391D03*
X102570Y017641D03*
X101320Y016391D03*
X100070Y017641D03*
X098820Y016391D03*
X097570Y017641D03*
X096320Y016391D03*
X095070Y017641D03*
X093820Y016391D03*
X092570Y017641D03*
X091320Y016391D03*
X090070Y017641D03*
X088820Y016391D03*
X087570Y017641D03*
X086320Y016391D03*
X085070Y017641D03*
X083820Y016391D03*
X082570Y017641D03*
X081320Y016391D03*
X080070Y017641D03*
X078820Y016391D03*
X077570Y017641D03*
X076320Y016391D03*
X075070Y017641D03*
X073820Y016391D03*
X072570Y017641D03*
X071320Y016391D03*
X070070Y017641D03*
X068820Y016391D03*
X067570Y017641D03*
X066320Y016391D03*
X065070Y017641D03*
X063820Y016391D03*
X062570Y017641D03*
X061320Y016391D03*
X060070Y017641D03*
X058820Y016391D03*
X057570Y017641D03*
X056320Y016391D03*
X055070Y017641D03*
X053820Y016391D03*
X052570Y017641D03*
X051320Y016391D03*
X050070Y017641D03*
X048820Y016391D03*
X047570Y017641D03*
X046320Y016391D03*
X045070Y017641D03*
X043820Y016391D03*
X042570Y017641D03*
X041320Y016391D03*
X040070Y017641D03*
X038820Y016391D03*
X037570Y017641D03*
X036320Y016391D03*
X035070Y017641D03*
X033820Y016391D03*
X032570Y017641D03*
X031320Y016391D03*
X030070Y017641D03*
X028820Y016391D03*
X027570Y017641D03*
X026320Y016391D03*
X025070Y017641D03*
X023820Y016391D03*
X022570Y017641D03*
X021320Y016391D03*
X020070Y017641D03*
X018820Y016391D03*
X017570Y017641D03*
X016320Y016391D03*
X015070Y017641D03*
X013820Y016391D03*
X012570Y017641D03*
X011320Y016391D03*
X010070Y017641D03*
X008820Y016391D03*
X007570Y017641D03*
X006320Y016391D03*
X005070Y017641D03*
X003820Y016391D03*
X002570Y017641D03*
X003820Y018891D03*
X002570Y020141D03*
X003820Y021391D03*
X002570Y022641D03*
X003820Y023891D03*
X005070Y022641D03*
X006320Y021391D03*
X005070Y020141D03*
X006320Y018891D03*
X007570Y020141D03*
X008820Y018891D03*
X010070Y020141D03*
X008820Y021391D03*
X007570Y022641D03*
X006320Y023891D03*
X008820Y023891D03*
X010070Y022641D03*
X011320Y021391D03*
X012570Y020141D03*
X011320Y018891D03*
X013820Y018891D03*
X015070Y020141D03*
X013820Y021391D03*
X012570Y022641D03*
X011320Y023891D03*
X013820Y023891D03*
X015070Y022641D03*
X016320Y021391D03*
X017570Y020141D03*
X016320Y018891D03*
X018820Y018891D03*
X020070Y020141D03*
X018820Y021391D03*
X017570Y022641D03*
X016320Y023891D03*
X018820Y023891D03*
X020070Y022641D03*
X021320Y021391D03*
X022570Y020141D03*
X021320Y018891D03*
X023820Y018891D03*
X025070Y020141D03*
X023820Y021391D03*
X022570Y022641D03*
X021320Y023891D03*
X023820Y023891D03*
X025070Y022641D03*
X026320Y021391D03*
X027570Y020141D03*
X026320Y018891D03*
X028820Y018891D03*
X030070Y020141D03*
X028820Y021391D03*
X027570Y022641D03*
X026320Y023891D03*
X028820Y023891D03*
X030070Y022641D03*
X031320Y021391D03*
X032570Y020141D03*
X031320Y018891D03*
X033820Y018891D03*
X035070Y020141D03*
X033820Y021391D03*
X032570Y022641D03*
X031320Y023891D03*
X033820Y023891D03*
X035070Y022641D03*
X036320Y021391D03*
X037570Y020141D03*
X036320Y018891D03*
X038820Y018891D03*
X040070Y020141D03*
X038820Y021391D03*
X037570Y022641D03*
X036320Y023891D03*
X038820Y023891D03*
X040070Y022641D03*
X041320Y021391D03*
X042570Y020141D03*
X041320Y018891D03*
X043820Y018891D03*
X045070Y020141D03*
X043820Y021391D03*
X042570Y022641D03*
X041320Y023891D03*
X043820Y023891D03*
X045070Y022641D03*
X046320Y021391D03*
X047570Y020141D03*
X046320Y018891D03*
X048820Y018891D03*
X050070Y020141D03*
X048820Y021391D03*
X047570Y022641D03*
X046320Y023891D03*
X048820Y023891D03*
X050070Y022641D03*
X051320Y021391D03*
X052570Y020141D03*
X051320Y018891D03*
X053820Y018891D03*
X055070Y020141D03*
X053820Y021391D03*
X052570Y022641D03*
X051320Y023891D03*
X053820Y023891D03*
X055070Y022641D03*
X056320Y021391D03*
X057570Y020141D03*
X056320Y018891D03*
X058820Y018891D03*
X060070Y020141D03*
X058820Y021391D03*
X057570Y022641D03*
X056320Y023891D03*
X058820Y023891D03*
X060070Y022641D03*
X061320Y021391D03*
X062570Y020141D03*
X061320Y018891D03*
X063820Y018891D03*
X065070Y020141D03*
X063820Y021391D03*
X062570Y022641D03*
X061320Y023891D03*
X063820Y023891D03*
X065070Y022641D03*
X066320Y021391D03*
X067570Y020141D03*
X066320Y018891D03*
X068820Y018891D03*
X070070Y020141D03*
X068820Y021391D03*
X067570Y022641D03*
X066320Y023891D03*
X068820Y023891D03*
X070070Y022641D03*
X071320Y021391D03*
X072570Y020141D03*
X071320Y018891D03*
X073820Y018891D03*
X075070Y020141D03*
X073820Y021391D03*
X072570Y022641D03*
X071320Y023891D03*
X073820Y023891D03*
X075070Y022641D03*
X076320Y021391D03*
X077570Y020141D03*
X076320Y018891D03*
X078820Y018891D03*
X080070Y020141D03*
X078820Y021391D03*
X077570Y022641D03*
X076320Y023891D03*
X078820Y023891D03*
X080070Y022641D03*
X081320Y021391D03*
X082570Y020141D03*
X081320Y018891D03*
X083820Y018891D03*
X085070Y020141D03*
X083820Y021391D03*
X082570Y022641D03*
X081320Y023891D03*
X083820Y023891D03*
X085070Y022641D03*
X086320Y021391D03*
X087570Y020141D03*
X086320Y018891D03*
X088820Y018891D03*
X090070Y020141D03*
X088820Y021391D03*
X087570Y022641D03*
X086320Y023891D03*
X088820Y023891D03*
X090070Y022641D03*
X091320Y021391D03*
X092570Y020141D03*
X091320Y018891D03*
X093820Y018891D03*
X095070Y020141D03*
X093820Y021391D03*
X092570Y022641D03*
X091320Y023891D03*
X093820Y023891D03*
X095070Y022641D03*
X096320Y021391D03*
X097570Y020141D03*
X096320Y018891D03*
X098820Y018891D03*
X100070Y020141D03*
X098820Y021391D03*
X097570Y022641D03*
X096320Y023891D03*
X098820Y023891D03*
X100070Y022641D03*
X101320Y021391D03*
X102570Y020141D03*
X101320Y018891D03*
X103820Y018891D03*
X105070Y020141D03*
X103820Y021391D03*
X102570Y022641D03*
X101320Y023891D03*
X103820Y023891D03*
X105070Y022641D03*
X106320Y021391D03*
X107570Y020141D03*
X106320Y018891D03*
X108820Y018891D03*
X110070Y020141D03*
X108820Y021391D03*
X107570Y022641D03*
X106320Y023891D03*
X108820Y023891D03*
X110070Y022641D03*
X111320Y021391D03*
X112570Y020141D03*
X111320Y018891D03*
X113820Y018891D03*
X115070Y020141D03*
X113820Y021391D03*
X112570Y022641D03*
X111320Y023891D03*
X113820Y023891D03*
X115070Y022641D03*
X116320Y021391D03*
X117570Y020141D03*
X116320Y018891D03*
X118820Y018891D03*
X120070Y020141D03*
X118820Y021391D03*
X117570Y022641D03*
X116320Y023891D03*
X118820Y023891D03*
X120070Y022641D03*
X121320Y021391D03*
X121320Y018891D03*
X121320Y023891D03*
X120070Y025141D03*
X118820Y026391D03*
X117570Y025141D03*
X116320Y026391D03*
X115070Y025141D03*
X113820Y026391D03*
X112570Y025141D03*
X111320Y026391D03*
X110070Y025141D03*
X108820Y026391D03*
X107570Y025141D03*
X106320Y026391D03*
X105070Y025141D03*
X103820Y026391D03*
X102570Y025141D03*
X101320Y026391D03*
X100070Y025141D03*
X098820Y026391D03*
X097570Y025141D03*
X096320Y026391D03*
X095070Y025141D03*
X093820Y026391D03*
X092570Y025141D03*
X091320Y026391D03*
X090070Y025141D03*
X088820Y026391D03*
X087570Y025141D03*
X086320Y026391D03*
X085070Y025141D03*
X083820Y026391D03*
X082570Y025141D03*
X081320Y026391D03*
X080070Y025141D03*
X078820Y026391D03*
X077570Y025141D03*
X076320Y026391D03*
X075070Y025141D03*
X073820Y026391D03*
X072570Y025141D03*
X071320Y026391D03*
X070070Y025141D03*
X068820Y026391D03*
X067570Y025141D03*
X066320Y026391D03*
X065070Y025141D03*
X063820Y026391D03*
X062570Y025141D03*
X061320Y026391D03*
X060070Y025141D03*
X058820Y026391D03*
X057570Y025141D03*
X056320Y026391D03*
X055070Y025141D03*
X053820Y026391D03*
X052570Y025141D03*
X051320Y026391D03*
X050070Y025141D03*
X048820Y026391D03*
X047570Y025141D03*
X046320Y026391D03*
X045070Y025141D03*
X043820Y026391D03*
X042570Y025141D03*
X041320Y026391D03*
X040070Y025141D03*
X038820Y026391D03*
X037570Y025141D03*
X036320Y026391D03*
X035070Y025141D03*
X033820Y026391D03*
X032570Y025141D03*
X031320Y026391D03*
X030070Y025141D03*
X028820Y026391D03*
X027570Y025141D03*
X026320Y026391D03*
X025070Y025141D03*
X023820Y026391D03*
X022570Y025141D03*
X021320Y026391D03*
X020070Y025141D03*
X018820Y026391D03*
X017570Y025141D03*
X016320Y026391D03*
X015070Y025141D03*
X013820Y026391D03*
X012570Y025141D03*
X011320Y026391D03*
X010070Y025141D03*
X008820Y026391D03*
X007570Y025141D03*
X006320Y026391D03*
X005070Y025141D03*
X003820Y026391D03*
X002570Y025141D03*
X002570Y032641D03*
X005070Y032641D03*
X007570Y032641D03*
X010070Y032641D03*
X012570Y032641D03*
X015070Y032641D03*
X017570Y032641D03*
X020070Y032641D03*
X022570Y032641D03*
X025070Y032641D03*
X027570Y032641D03*
X030070Y032641D03*
X032570Y032641D03*
X035070Y032641D03*
X037570Y032641D03*
X040070Y032641D03*
X042570Y032641D03*
X045070Y032641D03*
X047570Y032641D03*
X050070Y032641D03*
X052570Y032641D03*
X055070Y032641D03*
X057570Y032641D03*
X060070Y032641D03*
X062570Y032641D03*
X065070Y032641D03*
X067570Y032641D03*
X070070Y032641D03*
X072570Y032641D03*
X075070Y032641D03*
X077570Y032641D03*
X080070Y032641D03*
X082570Y032641D03*
X085070Y032641D03*
X087570Y032641D03*
X090070Y032641D03*
X092570Y032641D03*
X095070Y032641D03*
X097570Y032641D03*
X100070Y032641D03*
X102570Y032641D03*
X105070Y032641D03*
X107570Y032641D03*
X110070Y032641D03*
X112570Y032641D03*
X115070Y032641D03*
X117570Y032641D03*
X120070Y032641D03*
X118820Y033891D03*
X117570Y035141D03*
X116320Y033891D03*
X115070Y035141D03*
X113820Y033891D03*
X112570Y035141D03*
X111320Y033891D03*
X110070Y035141D03*
X108820Y033891D03*
X107570Y035141D03*
X106320Y033891D03*
X105070Y035141D03*
X103820Y033891D03*
X102570Y035141D03*
X101320Y033891D03*
X100070Y035141D03*
X098820Y033891D03*
X097570Y035141D03*
X096320Y033891D03*
X095070Y035141D03*
X093820Y033891D03*
X092570Y035141D03*
X091320Y033891D03*
X090070Y035141D03*
X088820Y033891D03*
X087570Y035141D03*
X086320Y033891D03*
X085070Y035141D03*
X083820Y033891D03*
X082570Y035141D03*
X081320Y033891D03*
X080070Y035141D03*
X078820Y033891D03*
X077570Y035141D03*
X076320Y033891D03*
X075070Y035141D03*
X073820Y033891D03*
X072570Y035141D03*
X071320Y033891D03*
X070070Y035141D03*
X068820Y033891D03*
X067570Y035141D03*
X066320Y033891D03*
X065070Y035141D03*
X063820Y033891D03*
X062570Y035141D03*
X061320Y033891D03*
X060070Y035141D03*
X058820Y033891D03*
X057570Y035141D03*
X056320Y033891D03*
X055070Y035141D03*
X053820Y033891D03*
X052570Y035141D03*
X051320Y033891D03*
X050070Y035141D03*
X048820Y033891D03*
X047570Y035141D03*
X046320Y033891D03*
X045070Y035141D03*
X043820Y033891D03*
X042570Y035141D03*
X041320Y033891D03*
X040070Y035141D03*
X038820Y033891D03*
X037570Y035141D03*
X036320Y033891D03*
X035070Y035141D03*
X033820Y033891D03*
X032570Y035141D03*
X031320Y033891D03*
X030070Y035141D03*
X028820Y033891D03*
X027570Y035141D03*
X026320Y033891D03*
X025070Y035141D03*
X023820Y033891D03*
X022570Y035141D03*
X021320Y033891D03*
X020070Y035141D03*
X018820Y033891D03*
X017570Y035141D03*
X016320Y033891D03*
X015070Y035141D03*
X013820Y033891D03*
X012570Y035141D03*
X011320Y033891D03*
X010070Y035141D03*
X008820Y033891D03*
X007570Y035141D03*
X006320Y033891D03*
X005070Y035141D03*
X003820Y033891D03*
X002570Y035141D03*
X003820Y036391D03*
X002570Y037641D03*
X003820Y038891D03*
X002570Y040141D03*
X003820Y041391D03*
X002570Y042641D03*
X005070Y042641D03*
X006320Y041391D03*
X005070Y040141D03*
X006320Y038891D03*
X005070Y037641D03*
X006320Y036391D03*
X007570Y037641D03*
X008820Y036391D03*
X010070Y037641D03*
X008820Y038891D03*
X007570Y040141D03*
X008820Y041391D03*
X007570Y042641D03*
X010070Y042641D03*
X011320Y041391D03*
X010070Y040141D03*
X011320Y038891D03*
X012570Y037641D03*
X011320Y036391D03*
X013820Y036391D03*
X015070Y037641D03*
X013820Y038891D03*
X012570Y040141D03*
X013820Y041391D03*
X012570Y042641D03*
X015070Y042641D03*
X016320Y041391D03*
X015070Y040141D03*
X016320Y038891D03*
X017570Y037641D03*
X016320Y036391D03*
X018820Y036391D03*
X020070Y037641D03*
X018820Y038891D03*
X017570Y040141D03*
X018820Y041391D03*
X017570Y042641D03*
X020070Y042641D03*
X021320Y041391D03*
X020070Y040141D03*
X021320Y038891D03*
X022570Y037641D03*
X021320Y036391D03*
X023820Y036391D03*
X025070Y037641D03*
X023820Y038891D03*
X022570Y040141D03*
X023820Y041391D03*
X022570Y042641D03*
X025070Y042641D03*
X026320Y041391D03*
X025070Y040141D03*
X026320Y038891D03*
X027570Y037641D03*
X026320Y036391D03*
X028820Y036391D03*
X030070Y037641D03*
X028820Y038891D03*
X027570Y040141D03*
X028820Y041391D03*
X027570Y042641D03*
X030070Y042641D03*
X031320Y041391D03*
X030070Y040141D03*
X031320Y038891D03*
X032570Y037641D03*
X031320Y036391D03*
X033820Y036391D03*
X035070Y037641D03*
X033820Y038891D03*
X032570Y040141D03*
X033820Y041391D03*
X032570Y042641D03*
X035070Y042641D03*
X036320Y041391D03*
X035070Y040141D03*
X036320Y038891D03*
X037570Y037641D03*
X036320Y036391D03*
X038820Y036391D03*
X040070Y037641D03*
X038820Y038891D03*
X037570Y040141D03*
X038820Y041391D03*
X037570Y042641D03*
X040070Y042641D03*
X041320Y041391D03*
X040070Y040141D03*
X041320Y038891D03*
X042570Y037641D03*
X041320Y036391D03*
X043820Y036391D03*
X045070Y037641D03*
X043820Y038891D03*
X042570Y040141D03*
X043820Y041391D03*
X042570Y042641D03*
X045070Y042641D03*
X046320Y041391D03*
X045070Y040141D03*
X046320Y038891D03*
X047570Y037641D03*
X046320Y036391D03*
X048820Y036391D03*
X050070Y037641D03*
X048820Y038891D03*
X047570Y040141D03*
X048820Y041391D03*
X047570Y042641D03*
X050070Y042641D03*
X051320Y041391D03*
X050070Y040141D03*
X051320Y038891D03*
X052570Y037641D03*
X051320Y036391D03*
X053820Y036391D03*
X055070Y037641D03*
X053820Y038891D03*
X052570Y040141D03*
X053820Y041391D03*
X052570Y042641D03*
X055070Y042641D03*
X056320Y041391D03*
X055070Y040141D03*
X056320Y038891D03*
X057570Y037641D03*
X056320Y036391D03*
X058820Y036391D03*
X060070Y037641D03*
X058820Y038891D03*
X057570Y040141D03*
X058820Y041391D03*
X057570Y042641D03*
X060070Y042641D03*
X061320Y041391D03*
X060070Y040141D03*
X061320Y038891D03*
X062570Y037641D03*
X061320Y036391D03*
X063820Y036391D03*
X065070Y037641D03*
X063820Y038891D03*
X062570Y040141D03*
X063820Y041391D03*
X062570Y042641D03*
X065070Y042641D03*
X066320Y041391D03*
X065070Y040141D03*
X066320Y038891D03*
X067570Y037641D03*
X066320Y036391D03*
X068820Y036391D03*
X070070Y037641D03*
X068820Y038891D03*
X067570Y040141D03*
X068820Y041391D03*
X067570Y042641D03*
X070070Y042641D03*
X071320Y041391D03*
X070070Y040141D03*
X071320Y038891D03*
X072570Y037641D03*
X071320Y036391D03*
X073820Y036391D03*
X075070Y037641D03*
X073820Y038891D03*
X072570Y040141D03*
X073820Y041391D03*
X072570Y042641D03*
X075070Y042641D03*
X076320Y041391D03*
X075070Y040141D03*
X076320Y038891D03*
X077570Y037641D03*
X076320Y036391D03*
X078820Y036391D03*
X080070Y037641D03*
X078820Y038891D03*
X077570Y040141D03*
X078820Y041391D03*
X077570Y042641D03*
X080070Y042641D03*
X081320Y041391D03*
X080070Y040141D03*
X081320Y038891D03*
X082570Y037641D03*
X081320Y036391D03*
X083820Y036391D03*
X085070Y037641D03*
X083820Y038891D03*
X082570Y040141D03*
X083820Y041391D03*
X082570Y042641D03*
X085070Y042641D03*
X086320Y041391D03*
X085070Y040141D03*
X086320Y038891D03*
X087570Y037641D03*
X086320Y036391D03*
X088820Y036391D03*
X090070Y037641D03*
X088820Y038891D03*
X087570Y040141D03*
X088820Y041391D03*
X087570Y042641D03*
X090070Y042641D03*
X091320Y041391D03*
X090070Y040141D03*
X091320Y038891D03*
X092570Y037641D03*
X091320Y036391D03*
X093820Y036391D03*
X095070Y037641D03*
X093820Y038891D03*
X092570Y040141D03*
X093820Y041391D03*
X092570Y042641D03*
X095070Y042641D03*
X096320Y041391D03*
X095070Y040141D03*
X096320Y038891D03*
X097570Y037641D03*
X096320Y036391D03*
X098820Y036391D03*
X100070Y037641D03*
X098820Y038891D03*
X097570Y040141D03*
X098820Y041391D03*
X097570Y042641D03*
X100070Y042641D03*
X101320Y041391D03*
X100070Y040141D03*
X101320Y038891D03*
X102570Y037641D03*
X101320Y036391D03*
X103820Y036391D03*
X105070Y037641D03*
X103820Y038891D03*
X102570Y040141D03*
X103820Y041391D03*
X102570Y042641D03*
X105070Y042641D03*
X106320Y041391D03*
X105070Y040141D03*
X106320Y038891D03*
X107570Y037641D03*
X106320Y036391D03*
X108820Y036391D03*
X110070Y037641D03*
X108820Y038891D03*
X107570Y040141D03*
X108820Y041391D03*
X107570Y042641D03*
X110070Y042641D03*
X111320Y041391D03*
X110070Y040141D03*
X111320Y038891D03*
X112570Y037641D03*
X111320Y036391D03*
X113820Y036391D03*
X115070Y037641D03*
X113820Y038891D03*
X112570Y040141D03*
X113820Y041391D03*
X112570Y042641D03*
X115070Y042641D03*
X116320Y041391D03*
X115070Y040141D03*
X116320Y038891D03*
X117570Y037641D03*
X116320Y036391D03*
X118820Y036391D03*
X120070Y035141D03*
X121320Y033891D03*
X121320Y036391D03*
X120070Y037641D03*
X118820Y038891D03*
X117570Y040141D03*
X118820Y041391D03*
X117570Y042641D03*
X120070Y042641D03*
X121320Y041391D03*
X120070Y040141D03*
X121320Y038891D03*
X121320Y043891D03*
X120070Y045141D03*
X118820Y043891D03*
X117570Y045141D03*
X116320Y043891D03*
X115070Y045141D03*
X113820Y043891D03*
X112570Y045141D03*
X111320Y043891D03*
X110070Y045141D03*
X108820Y043891D03*
X107570Y045141D03*
X106320Y043891D03*
X105070Y045141D03*
X103820Y043891D03*
X102570Y045141D03*
X101320Y043891D03*
X100070Y045141D03*
X098820Y043891D03*
X097570Y045141D03*
X096320Y043891D03*
X095070Y045141D03*
X093820Y043891D03*
X092570Y045141D03*
X091320Y043891D03*
X090070Y045141D03*
X088820Y043891D03*
X087570Y045141D03*
X086320Y043891D03*
X085070Y045141D03*
X083820Y043891D03*
X082570Y045141D03*
X081320Y043891D03*
X080070Y045141D03*
X078820Y043891D03*
X077570Y045141D03*
X076320Y043891D03*
X075070Y045141D03*
X073820Y043891D03*
X072570Y045141D03*
X071320Y043891D03*
X070070Y045141D03*
X068820Y043891D03*
X067570Y045141D03*
X066320Y043891D03*
X065070Y045141D03*
X063820Y043891D03*
X062570Y045141D03*
X061320Y043891D03*
X060070Y045141D03*
X058820Y043891D03*
X057570Y045141D03*
X056320Y043891D03*
X055070Y045141D03*
X053820Y043891D03*
X052570Y045141D03*
X051320Y043891D03*
X050070Y045141D03*
X048820Y043891D03*
X047570Y045141D03*
X046320Y043891D03*
X045070Y045141D03*
X043820Y043891D03*
X042570Y045141D03*
X041320Y043891D03*
X040070Y045141D03*
X038820Y043891D03*
X037570Y045141D03*
X036320Y043891D03*
X035070Y045141D03*
X033820Y043891D03*
X032570Y045141D03*
X031320Y043891D03*
X030070Y045141D03*
X028820Y043891D03*
X027570Y045141D03*
X026320Y043891D03*
X025070Y045141D03*
X023820Y043891D03*
X022570Y045141D03*
X021320Y043891D03*
X020070Y045141D03*
X018820Y043891D03*
X017570Y045141D03*
X016320Y043891D03*
X015070Y045141D03*
X013820Y043891D03*
X012570Y045141D03*
X011320Y043891D03*
X010070Y045141D03*
X008820Y043891D03*
X007570Y045141D03*
X006320Y043891D03*
X005070Y045141D03*
X003820Y043891D03*
X002570Y045141D03*
X003820Y046391D03*
X002570Y047641D03*
X003820Y048891D03*
X002570Y050141D03*
X003820Y051391D03*
X005070Y050141D03*
X006320Y048891D03*
X005070Y047641D03*
X006320Y046391D03*
X007570Y047641D03*
X008820Y046391D03*
X010070Y047641D03*
X008820Y048891D03*
X007570Y050141D03*
X006320Y051391D03*
X008820Y051391D03*
X010070Y050141D03*
X011320Y048891D03*
X012570Y047641D03*
X011320Y046391D03*
X013820Y046391D03*
X015070Y047641D03*
X013820Y048891D03*
X012570Y050141D03*
X011320Y051391D03*
X013820Y051391D03*
X015070Y050141D03*
X016320Y048891D03*
X017570Y047641D03*
X016320Y046391D03*
X018820Y046391D03*
X020070Y047641D03*
X018820Y048891D03*
X017570Y050141D03*
X016320Y051391D03*
X018820Y051391D03*
X020070Y050141D03*
X021320Y048891D03*
X022570Y047641D03*
X021320Y046391D03*
X023820Y046391D03*
X025070Y047641D03*
X023820Y048891D03*
X022570Y050141D03*
X021320Y051391D03*
X023820Y051391D03*
X025070Y050141D03*
X026320Y048891D03*
X027570Y047641D03*
X026320Y046391D03*
X028820Y046391D03*
X030070Y047641D03*
X028820Y048891D03*
X027570Y050141D03*
X026320Y051391D03*
X028820Y051391D03*
X030070Y050141D03*
X031320Y048891D03*
X032570Y047641D03*
X031320Y046391D03*
X033820Y046391D03*
X035070Y047641D03*
X033820Y048891D03*
X032570Y050141D03*
X031320Y051391D03*
X033820Y051391D03*
X035070Y050141D03*
X036320Y048891D03*
X037570Y047641D03*
X036320Y046391D03*
X038820Y046391D03*
X040070Y047641D03*
X038820Y048891D03*
X037570Y050141D03*
X036320Y051391D03*
X038820Y051391D03*
X040070Y050141D03*
X041320Y048891D03*
X042570Y047641D03*
X041320Y046391D03*
X043820Y046391D03*
X045070Y047641D03*
X043820Y048891D03*
X042570Y050141D03*
X041320Y051391D03*
X043820Y051391D03*
X045070Y050141D03*
X046320Y048891D03*
X047570Y047641D03*
X046320Y046391D03*
X048820Y046391D03*
X050070Y047641D03*
X048820Y048891D03*
X047570Y050141D03*
X046320Y051391D03*
X048820Y051391D03*
X050070Y050141D03*
X051320Y048891D03*
X052570Y047641D03*
X051320Y046391D03*
X053820Y046391D03*
X055070Y047641D03*
X053820Y048891D03*
X052570Y050141D03*
X051320Y051391D03*
X053820Y051391D03*
X055070Y050141D03*
X056320Y048891D03*
X057570Y047641D03*
X056320Y046391D03*
X058820Y046391D03*
X060070Y047641D03*
X058820Y048891D03*
X057570Y050141D03*
X056320Y051391D03*
X058820Y051391D03*
X060070Y050141D03*
X061320Y048891D03*
X062570Y047641D03*
X061320Y046391D03*
X063820Y046391D03*
X065070Y047641D03*
X063820Y048891D03*
X062570Y050141D03*
X061320Y051391D03*
X063820Y051391D03*
X065070Y050141D03*
X066320Y048891D03*
X067570Y047641D03*
X066320Y046391D03*
X068820Y046391D03*
X070070Y047641D03*
X068820Y048891D03*
X067570Y050141D03*
X066320Y051391D03*
X068820Y051391D03*
X070070Y050141D03*
X071320Y048891D03*
X072570Y047641D03*
X071320Y046391D03*
X073820Y046391D03*
X075070Y047641D03*
X073820Y048891D03*
X072570Y050141D03*
X071320Y051391D03*
X073820Y051391D03*
X075070Y050141D03*
X076320Y048891D03*
X077570Y047641D03*
X076320Y046391D03*
X078820Y046391D03*
X080070Y047641D03*
X078820Y048891D03*
X077570Y050141D03*
X076320Y051391D03*
X078820Y051391D03*
X080070Y050141D03*
X081320Y048891D03*
X082570Y047641D03*
X081320Y046391D03*
X083820Y046391D03*
X085070Y047641D03*
X083820Y048891D03*
X082570Y050141D03*
X081320Y051391D03*
X083820Y051391D03*
X085070Y050141D03*
X086320Y048891D03*
X087570Y047641D03*
X086320Y046391D03*
X088820Y046391D03*
X090070Y047641D03*
X088820Y048891D03*
X087570Y050141D03*
X086320Y051391D03*
X088820Y051391D03*
X090070Y050141D03*
X091320Y048891D03*
X092570Y047641D03*
X091320Y046391D03*
X093820Y046391D03*
X095070Y047641D03*
X093820Y048891D03*
X092570Y050141D03*
X091320Y051391D03*
X093820Y051391D03*
X095070Y050141D03*
X096320Y048891D03*
X097570Y047641D03*
X096320Y046391D03*
X098820Y046391D03*
X100070Y047641D03*
X098820Y048891D03*
X097570Y050141D03*
X096320Y051391D03*
X098820Y051391D03*
X100070Y050141D03*
X101320Y048891D03*
X102570Y047641D03*
X101320Y046391D03*
X103820Y046391D03*
X105070Y047641D03*
X103820Y048891D03*
X102570Y050141D03*
X101320Y051391D03*
X103820Y051391D03*
X105070Y050141D03*
X106320Y048891D03*
X107570Y047641D03*
X106320Y046391D03*
X108820Y046391D03*
X110070Y047641D03*
X108820Y048891D03*
X107570Y050141D03*
X106320Y051391D03*
X108820Y051391D03*
X110070Y050141D03*
X111320Y048891D03*
X112570Y047641D03*
X111320Y046391D03*
X113820Y046391D03*
X115070Y047641D03*
X113820Y048891D03*
X112570Y050141D03*
X111320Y051391D03*
X113820Y051391D03*
X115070Y050141D03*
X116320Y048891D03*
X117570Y047641D03*
X116320Y046391D03*
X118820Y046391D03*
X120070Y047641D03*
X118820Y048891D03*
X117570Y050141D03*
X116320Y051391D03*
X118820Y051391D03*
X120070Y050141D03*
X121320Y048891D03*
X121320Y046391D03*
X121320Y051391D03*
X120070Y052641D03*
X118820Y053891D03*
X117570Y052641D03*
X116320Y053891D03*
X115070Y052641D03*
X113820Y053891D03*
X112570Y052641D03*
X111320Y053891D03*
X110070Y052641D03*
X108820Y053891D03*
X107570Y052641D03*
X106320Y053891D03*
X105070Y052641D03*
X103820Y053891D03*
X102570Y052641D03*
X101320Y053891D03*
X100070Y052641D03*
X098820Y053891D03*
X097570Y052641D03*
X096320Y053891D03*
X095070Y052641D03*
X093820Y053891D03*
X092570Y052641D03*
X091320Y053891D03*
X090070Y052641D03*
X088820Y053891D03*
X087570Y052641D03*
X086320Y053891D03*
X085070Y052641D03*
X083820Y053891D03*
X082570Y052641D03*
X081320Y053891D03*
X080070Y052641D03*
X078820Y053891D03*
X077570Y052641D03*
X076320Y053891D03*
X075070Y052641D03*
X073820Y053891D03*
X072570Y052641D03*
X071320Y053891D03*
X070070Y052641D03*
X068820Y053891D03*
X067570Y052641D03*
X066320Y053891D03*
X065070Y052641D03*
X063820Y053891D03*
X062570Y052641D03*
X061320Y053891D03*
X060070Y052641D03*
X058820Y053891D03*
X057570Y052641D03*
X056320Y053891D03*
X055070Y052641D03*
X053820Y053891D03*
X052570Y052641D03*
X051320Y053891D03*
X050070Y052641D03*
X048820Y053891D03*
X047570Y052641D03*
X046320Y053891D03*
X045070Y052641D03*
X043820Y053891D03*
X042570Y052641D03*
X041320Y053891D03*
X040070Y052641D03*
X038820Y053891D03*
X037570Y052641D03*
X036320Y053891D03*
X035070Y052641D03*
X033820Y053891D03*
X032570Y052641D03*
X031320Y053891D03*
X030070Y052641D03*
X028820Y053891D03*
X027570Y052641D03*
X026320Y053891D03*
X025070Y052641D03*
X023820Y053891D03*
X022570Y052641D03*
X021320Y053891D03*
X020070Y052641D03*
X018820Y053891D03*
X017570Y052641D03*
X016320Y053891D03*
X015070Y052641D03*
X013820Y053891D03*
X012570Y052641D03*
X011320Y053891D03*
X010070Y052641D03*
X008820Y053891D03*
X007570Y052641D03*
X006320Y053891D03*
X005070Y052641D03*
X003820Y053891D03*
X002570Y052641D03*
X121320Y053891D03*
X121320Y026391D03*
D11*
X118820Y029516D03*
X105070Y029516D03*
X098820Y029516D03*
X085070Y029516D03*
X078820Y029516D03*
X065070Y029516D03*
X058820Y029516D03*
X045070Y029516D03*
X038820Y029516D03*
X025070Y029516D03*
X018820Y029516D03*
X005070Y029516D03*
D12*
X007145Y029341D03*
X007945Y031391D03*
X008095Y031991D03*
X009195Y032441D03*
X015445Y031191D03*
X018295Y032541D03*
X019045Y032691D03*
X024145Y032791D03*
X025095Y033716D03*
X026995Y034391D03*
X026945Y036841D03*
X033845Y037041D03*
X038995Y035116D03*
X037845Y034341D03*
X040695Y032666D03*
X041845Y030041D03*
X042295Y028991D03*
X041995Y028191D03*
X042295Y027341D03*
X040345Y026491D03*
X041495Y025341D03*
X043195Y025141D03*
X045095Y024041D03*
X043395Y023391D03*
X046645Y025591D03*
X047445Y026366D03*
X048395Y025916D03*
X050195Y026291D03*
X051745Y025841D03*
X053595Y027666D03*
X055295Y027241D03*
X057245Y027591D03*
X057595Y027041D03*
X059295Y027241D03*
X061395Y028791D03*
X062145Y026591D03*
X065595Y026741D03*
X066745Y025591D03*
X068095Y024591D03*
X070695Y023791D03*
X072045Y023391D03*
X073195Y024341D03*
X073195Y024991D03*
X075795Y024891D03*
X077095Y025591D03*
X079995Y024091D03*
X080095Y023491D03*
X079445Y022216D03*
X080895Y021866D03*
X081745Y022341D03*
X081945Y021541D03*
X083295Y022491D03*
X084045Y023241D03*
X084995Y023991D03*
X085695Y024341D03*
X085945Y025441D03*
X084495Y025641D03*
X084445Y025141D03*
X084645Y026266D03*
X081945Y026416D03*
X081445Y027166D03*
X080995Y028141D03*
X081445Y029216D03*
X080695Y029541D03*
X081845Y030391D03*
X084045Y031991D03*
X085145Y031991D03*
X086645Y032341D03*
X086345Y033266D03*
X087095Y033291D03*
X087745Y033491D03*
X088195Y034391D03*
X089745Y033391D03*
X090845Y033291D03*
X091595Y032141D03*
X091195Y031791D03*
X090495Y032016D03*
X088595Y031041D03*
X088145Y030591D03*
X086945Y029891D03*
X087545Y028841D03*
X087895Y028516D03*
X087295Y027891D03*
X087295Y027391D03*
X085395Y027791D03*
X084845Y027741D03*
X089145Y028591D03*
X091245Y028841D03*
X092595Y029066D03*
X093195Y028491D03*
X094645Y028716D03*
X094095Y029641D03*
X093595Y030091D03*
X092745Y030691D03*
X092445Y030091D03*
X093345Y031316D03*
X095595Y031191D03*
X096195Y032241D03*
X096745Y032816D03*
X098145Y033066D03*
X098295Y032341D03*
X098695Y031841D03*
X100545Y032041D03*
X100845Y030566D03*
X100545Y029291D03*
X101045Y028091D03*
X102295Y027991D03*
X103395Y028841D03*
X103295Y029441D03*
X104595Y027791D03*
X105095Y027491D03*
X104845Y026291D03*
X105645Y025941D03*
X106645Y025191D03*
X106045Y024691D03*
X105145Y024441D03*
X107095Y023641D03*
X106945Y022391D03*
X106295Y022391D03*
X107595Y021741D03*
X106945Y020191D03*
X109095Y020216D03*
X112395Y021741D03*
X113045Y021491D03*
X113445Y022091D03*
X114445Y022641D03*
X115095Y021541D03*
X115895Y020791D03*
X117245Y021241D03*
X117845Y021716D03*
X120295Y021991D03*
X121745Y022991D03*
X119845Y024291D03*
X122395Y025141D03*
X122395Y027041D03*
X121695Y027291D03*
X121195Y027241D03*
X120595Y027641D03*
X118195Y026391D03*
X117045Y027891D03*
X115745Y027941D03*
X114645Y027741D03*
X114045Y027591D03*
X113695Y027941D03*
X114095Y028291D03*
X114395Y028791D03*
X112845Y028591D03*
X112595Y028091D03*
X113495Y027041D03*
X110695Y025966D03*
X109645Y027016D03*
X108595Y027591D03*
X107645Y027891D03*
X107695Y026691D03*
X109345Y024591D03*
X109845Y024116D03*
X112095Y024541D03*
X112145Y024041D03*
X112845Y023791D03*
X111145Y022766D03*
X113045Y020591D03*
X114195Y019441D03*
X114845Y019241D03*
X115595Y018691D03*
X117395Y018341D03*
X117145Y019566D03*
X122295Y020691D03*
X122695Y021541D03*
X122545Y019091D03*
X120145Y016466D03*
X118345Y015241D03*
X117995Y015641D03*
X115245Y014241D03*
X112945Y013641D03*
X112045Y013341D03*
X110295Y014141D03*
X108195Y014691D03*
X111345Y015741D03*
X113795Y015741D03*
X114645Y016091D03*
X111295Y017291D03*
X111495Y017991D03*
X104245Y017491D03*
X103495Y018241D03*
X102995Y018241D03*
X102145Y019091D03*
X099745Y018441D03*
X099045Y017541D03*
X100695Y017141D03*
X100445Y016141D03*
X098745Y014941D03*
X096745Y015766D03*
X095695Y016841D03*
X096245Y017191D03*
X095845Y017791D03*
X094645Y019066D03*
X092195Y018841D03*
X091045Y018141D03*
X090395Y019241D03*
X089045Y019541D03*
X090695Y019991D03*
X094195Y020841D03*
X095195Y021141D03*
X095245Y021991D03*
X096295Y022566D03*
X095545Y023091D03*
X097145Y023116D03*
X097345Y023941D03*
X098345Y024491D03*
X097045Y024641D03*
X096895Y025241D03*
X096295Y024691D03*
X093695Y024941D03*
X091945Y025591D03*
X091145Y025241D03*
X090145Y025841D03*
X089945Y026466D03*
X089195Y025841D03*
X091595Y027166D03*
X093945Y027041D03*
X095795Y026966D03*
X097645Y026966D03*
X098645Y027041D03*
X099645Y027091D03*
X102095Y026141D03*
X102595Y026091D03*
X102095Y024041D03*
X102145Y023541D03*
X100845Y024341D03*
X099745Y023266D03*
X099045Y022641D03*
X098545Y023116D03*
X101695Y022491D03*
X102295Y020991D03*
X102795Y020991D03*
X103645Y020541D03*
X099295Y019991D03*
X099195Y020841D03*
X097295Y021341D03*
X097095Y019691D03*
X097795Y019241D03*
X093945Y017091D03*
X094445Y016541D03*
X093345Y015441D03*
X092095Y016191D03*
X091795Y015741D03*
X092795Y016391D03*
X092695Y016991D03*
X090545Y017191D03*
X089245Y016941D03*
X086895Y015991D03*
X086745Y014941D03*
X084645Y014116D03*
X084495Y014741D03*
X082495Y016141D03*
X081945Y015566D03*
X081345Y014966D03*
X082095Y014041D03*
X080145Y013841D03*
X078345Y014341D03*
X078195Y015141D03*
X078945Y015591D03*
X080695Y016391D03*
X080945Y016966D03*
X081795Y017941D03*
X082145Y018291D03*
X082995Y019191D03*
X083945Y018241D03*
X084745Y018291D03*
X085245Y018341D03*
X085745Y018391D03*
X085045Y019491D03*
X084195Y020366D03*
X086345Y022191D03*
X089345Y023341D03*
X090695Y023466D03*
X089645Y024516D03*
X092245Y023241D03*
X092695Y023691D03*
X092395Y021741D03*
X080845Y018441D03*
X077545Y018316D03*
X076995Y017966D03*
X076645Y018316D03*
X075695Y018941D03*
X074795Y019391D03*
X073645Y020441D03*
X074045Y020741D03*
X073845Y022091D03*
X073345Y022091D03*
X075695Y022641D03*
X076945Y022141D03*
X077245Y021341D03*
X079945Y021441D03*
X073195Y017741D03*
X071945Y018741D03*
X071645Y020341D03*
X070645Y021541D03*
X068445Y022091D03*
X068495Y022591D03*
X066295Y022791D03*
X064195Y022841D03*
X064445Y023991D03*
X061745Y023391D03*
X060345Y023441D03*
X058645Y023091D03*
X059445Y021816D03*
X059845Y020991D03*
X061745Y020591D03*
X063095Y021041D03*
X066995Y019241D03*
X069295Y017841D03*
X069445Y016266D03*
X068895Y014791D03*
X067345Y014316D03*
X066845Y014941D03*
X066395Y014516D03*
X065595Y013716D03*
X066245Y013016D03*
X066745Y013091D03*
X067145Y013516D03*
X065845Y015491D03*
X063145Y017241D03*
X063695Y018241D03*
X061745Y018341D03*
X057145Y016616D03*
X056345Y015741D03*
X055695Y014341D03*
X052345Y013691D03*
X051945Y013091D03*
X050345Y013391D03*
X050295Y013866D03*
X050245Y011816D03*
X048995Y009691D03*
X043795Y007216D03*
X042095Y005591D03*
X041145Y004391D03*
X040645Y003841D03*
X042445Y002491D03*
X043195Y003241D03*
X043845Y002791D03*
X043795Y002191D03*
X045745Y001341D03*
X044745Y004391D03*
X048195Y005591D03*
X049895Y006266D03*
X050595Y005591D03*
X051945Y004691D03*
X052445Y006741D03*
X059345Y005691D03*
X061045Y005641D03*
X061545Y004691D03*
X060645Y004216D03*
X059445Y003841D03*
X057695Y003091D03*
X059195Y002491D03*
X064095Y003516D03*
X065295Y003891D03*
X066695Y003191D03*
X067395Y004341D03*
X069445Y004341D03*
X069595Y003291D03*
X068445Y002341D03*
X070445Y001941D03*
X070295Y001341D03*
X069545Y001491D03*
X067745Y001691D03*
X072845Y001341D03*
X073095Y002291D03*
X073945Y001941D03*
X073995Y001441D03*
X074695Y002741D03*
X075195Y002691D03*
X076695Y003616D03*
X077645Y003566D03*
X080145Y003341D03*
X080995Y002516D03*
X079495Y002191D03*
X078995Y002191D03*
X078645Y001841D03*
X082195Y003591D03*
X082745Y003941D03*
X083245Y003891D03*
X083595Y003116D03*
X084745Y002466D03*
X085345Y001841D03*
X085295Y001341D03*
X084645Y001591D03*
X083095Y001491D03*
X086445Y002491D03*
X086245Y003616D03*
X085695Y004341D03*
X084995Y004091D03*
X085845Y005941D03*
X084495Y007191D03*
X082995Y006991D03*
X082245Y006816D03*
X082695Y008541D03*
X082695Y009441D03*
X080695Y010341D03*
X081945Y010641D03*
X082495Y011691D03*
X082995Y012141D03*
X084245Y012041D03*
X084595Y013316D03*
X085395Y013391D03*
X085895Y013191D03*
X087195Y013541D03*
X088495Y013166D03*
X088945Y012766D03*
X088295Y011791D03*
X088045Y010591D03*
X089195Y010391D03*
X089245Y009391D03*
X088145Y009291D03*
X089595Y008441D03*
X090495Y008141D03*
X090695Y006291D03*
X089995Y006041D03*
X089295Y005341D03*
X089945Y004366D03*
X090795Y003641D03*
X091395Y003991D03*
X091645Y004666D03*
X091195Y005616D03*
X094195Y004541D03*
X094745Y003966D03*
X095595Y003591D03*
X095745Y004466D03*
X096245Y005041D03*
X098295Y005441D03*
X098645Y004391D03*
X097995Y002791D03*
X096895Y002191D03*
X096545Y002516D03*
X096545Y001841D03*
X095345Y001741D03*
X094745Y002816D03*
X093645Y002616D03*
X093395Y003666D03*
X091545Y002441D03*
X091195Y002116D03*
X090845Y001741D03*
X089845Y001341D03*
X089045Y002141D03*
X088695Y001816D03*
X087695Y001691D03*
X086995Y001441D03*
X089045Y003091D03*
X088245Y003816D03*
X092845Y001341D03*
X101745Y002466D03*
X103795Y002391D03*
X104945Y002191D03*
X105645Y001866D03*
X105945Y002666D03*
X106445Y002666D03*
X104795Y003441D03*
X103645Y004141D03*
X104145Y004716D03*
X102845Y003991D03*
X106045Y004716D03*
X108045Y004041D03*
X111245Y002091D03*
X109895Y005941D03*
X107395Y008491D03*
X107595Y009191D03*
X104495Y008341D03*
X103045Y009091D03*
X102695Y008741D03*
X102995Y009591D03*
X104695Y010991D03*
X102795Y011766D03*
X104145Y012691D03*
X104345Y013341D03*
X104895Y013741D03*
X105295Y013441D03*
X104945Y014491D03*
X103695Y015641D03*
X102045Y013166D03*
X100645Y012216D03*
X099445Y012716D03*
X098195Y012641D03*
X096545Y012591D03*
X095545Y012041D03*
X093095Y012266D03*
X092645Y011966D03*
X091645Y010291D03*
X090895Y010341D03*
X095095Y009091D03*
X096295Y009841D03*
X097545Y008991D03*
X097895Y009341D03*
X097695Y008391D03*
X096945Y008091D03*
X098445Y007241D03*
X100645Y006141D03*
X099595Y009541D03*
X098145Y010991D03*
X095595Y013541D03*
X090495Y014116D03*
X089645Y014541D03*
X086795Y010591D03*
X086295Y009541D03*
X078595Y010566D03*
X077095Y011991D03*
X076295Y012341D03*
X075545Y012041D03*
X078045Y013066D03*
X074395Y014641D03*
X073695Y014841D03*
X071745Y014516D03*
X071845Y013191D03*
X071945Y011316D03*
X071945Y010566D03*
X069595Y009716D03*
X069495Y008741D03*
X068995Y008116D03*
X068195Y008891D03*
X068745Y010516D03*
X067545Y010816D03*
X063495Y012191D03*
X061845Y013191D03*
X060245Y013891D03*
X058845Y012391D03*
X056495Y012541D03*
X055095Y011991D03*
X061895Y010641D03*
X060445Y008166D03*
X063995Y007691D03*
X069595Y005591D03*
X069995Y006041D03*
X071945Y006791D03*
X074195Y007466D03*
X075695Y006441D03*
X076545Y007691D03*
X077245Y008441D03*
X078195Y009341D03*
X075695Y010091D03*
X075095Y009041D03*
X073195Y004891D03*
X094195Y007741D03*
X106945Y012491D03*
X108695Y012716D03*
X109245Y011891D03*
X111345Y010741D03*
X112995Y009516D03*
X116045Y010541D03*
X118645Y012041D03*
X116695Y012391D03*
X114295Y012866D03*
X115295Y024316D03*
X114395Y025341D03*
X116595Y028791D03*
X116695Y029791D03*
X115795Y030841D03*
X115245Y031841D03*
X113295Y031841D03*
X113195Y030966D03*
X111945Y032191D03*
X109245Y032391D03*
X108445Y031591D03*
X106845Y030891D03*
X107095Y029541D03*
X110095Y029891D03*
X110445Y030241D03*
X111195Y030391D03*
X114895Y033441D03*
X113245Y034291D03*
X113845Y035341D03*
X113195Y035591D03*
X112345Y035941D03*
X112845Y036391D03*
X112295Y036791D03*
X110695Y037191D03*
X109345Y038041D03*
X109045Y037591D03*
X107545Y036991D03*
X107345Y036341D03*
X106295Y035316D03*
X106945Y034716D03*
X107345Y034291D03*
X108995Y035566D03*
X106345Y037841D03*
X104845Y038841D03*
X105295Y039241D03*
X104145Y039641D03*
X103045Y039491D03*
X101945Y040141D03*
X101945Y041391D03*
X104195Y041941D03*
X104445Y043091D03*
X104795Y043841D03*
X104295Y044341D03*
X106645Y044591D03*
X107845Y045791D03*
X107845Y046791D03*
X108295Y047041D03*
X106845Y046791D03*
X105295Y046191D03*
X104295Y045891D03*
X103595Y045641D03*
X102345Y045991D03*
X101595Y045491D03*
X101095Y045491D03*
X100795Y045891D03*
X100295Y045891D03*
X101045Y044991D03*
X100545Y044441D03*
X099245Y045341D03*
X097745Y046391D03*
X096945Y045966D03*
X095045Y045841D03*
X094795Y046491D03*
X093745Y045641D03*
X094595Y044491D03*
X095695Y043891D03*
X095145Y043391D03*
X094745Y043741D03*
X095745Y041891D03*
X096945Y040941D03*
X095995Y040641D03*
X094845Y039291D03*
X095245Y038891D03*
X096195Y038091D03*
X096695Y038041D03*
X097045Y038441D03*
X098845Y037841D03*
X099445Y038091D03*
X099645Y038591D03*
X100245Y039491D03*
X101645Y038091D03*
X103195Y038441D03*
X103845Y037341D03*
X101995Y036441D03*
X101895Y035191D03*
X104095Y035041D03*
X104045Y034541D03*
X102195Y034441D03*
X103295Y033491D03*
X099795Y033841D03*
X098195Y034641D03*
X096745Y034366D03*
X092645Y036041D03*
X093445Y037091D03*
X092345Y038391D03*
X091245Y037891D03*
X090445Y036641D03*
X089295Y037291D03*
X088695Y037191D03*
X087995Y037016D03*
X087395Y036316D03*
X086595Y035566D03*
X086195Y035116D03*
X085545Y034541D03*
X084195Y034941D03*
X085295Y033391D03*
X084595Y033141D03*
X081345Y033241D03*
X080845Y033291D03*
X079145Y033141D03*
X077295Y033666D03*
X074445Y033891D03*
X074445Y032691D03*
X074195Y031641D03*
X073745Y031341D03*
X072995Y031241D03*
X073845Y030541D03*
X075045Y029941D03*
X075295Y028641D03*
X075445Y027991D03*
X076595Y027891D03*
X077795Y027591D03*
X078945Y027591D03*
X074845Y026941D03*
X070895Y027641D03*
X070445Y027141D03*
X069695Y026941D03*
X068395Y027791D03*
X067945Y028641D03*
X068645Y030691D03*
X069845Y030991D03*
X067595Y031591D03*
X066145Y031691D03*
X063845Y031191D03*
X061045Y033091D03*
X059095Y034691D03*
X059345Y035391D03*
X059945Y036391D03*
X060895Y037416D03*
X062795Y035941D03*
X064845Y036791D03*
X066945Y036241D03*
X069345Y037391D03*
X069845Y036341D03*
X073195Y035941D03*
X074645Y036141D03*
X074945Y036741D03*
X075795Y037741D03*
X076945Y037691D03*
X076945Y036391D03*
X079395Y035341D03*
X082395Y035891D03*
X084945Y038691D03*
X084845Y039291D03*
X084145Y039566D03*
X082945Y039566D03*
X084095Y040541D03*
X081095Y040541D03*
X080295Y040891D03*
X079445Y041341D03*
X077445Y040991D03*
X075895Y040291D03*
X074395Y040441D03*
X073895Y040391D03*
X074445Y041366D03*
X074595Y042216D03*
X072145Y041091D03*
X069645Y041616D03*
X069545Y043191D03*
X070695Y043891D03*
X073795Y044841D03*
X074045Y045541D03*
X074895Y046391D03*
X075695Y047191D03*
X077195Y046591D03*
X076745Y045691D03*
X076395Y045341D03*
X077695Y044466D03*
X079445Y043966D03*
X081595Y044791D03*
X081945Y045191D03*
X081995Y045891D03*
X081095Y045241D03*
X079745Y045791D03*
X080795Y047116D03*
X081945Y047141D03*
X084845Y046791D03*
X086345Y047816D03*
X088495Y047541D03*
X089245Y046891D03*
X089745Y047041D03*
X091095Y047141D03*
X090545Y045941D03*
X091345Y045741D03*
X090995Y045141D03*
X089345Y044716D03*
X087745Y045891D03*
X084045Y045541D03*
X083795Y044841D03*
X083345Y042966D03*
X084595Y042191D03*
X086645Y043141D03*
X090445Y043191D03*
X090695Y042391D03*
X090295Y041541D03*
X091695Y042841D03*
X093245Y040791D03*
X093245Y039241D03*
X089645Y038591D03*
X091445Y034641D03*
X098195Y036291D03*
X099445Y036341D03*
X099845Y036841D03*
X104345Y040691D03*
X105645Y040541D03*
X106695Y040841D03*
X108245Y040141D03*
X108245Y039641D03*
X112095Y038291D03*
X112345Y038916D03*
X112995Y038291D03*
X113795Y037441D03*
X115145Y036591D03*
X119245Y037141D03*
X120795Y037241D03*
X121745Y036891D03*
X122145Y036591D03*
X122645Y035741D03*
X122045Y035591D03*
X122495Y035141D03*
X121245Y035441D03*
X121745Y034391D03*
X121045Y033241D03*
X120545Y033291D03*
X120845Y032541D03*
X118195Y033091D03*
X116645Y032141D03*
X120545Y030141D03*
X122145Y037441D03*
X121745Y037741D03*
X121645Y040641D03*
X122095Y041741D03*
X118945Y042541D03*
X117145Y044116D03*
X114345Y043141D03*
X113195Y042841D03*
X112395Y041641D03*
X114445Y042041D03*
X116445Y040341D03*
X109695Y043641D03*
X109045Y044741D03*
X113345Y046841D03*
X115695Y046291D03*
X116345Y047791D03*
X112745Y050791D03*
X108695Y052141D03*
X112545Y053291D03*
X106095Y055166D03*
X104445Y053841D03*
X104845Y053491D03*
X103945Y052766D03*
X103195Y051841D03*
X103645Y049691D03*
X103895Y048241D03*
X105445Y048291D03*
X101645Y047041D03*
X100845Y047491D03*
X100345Y048441D03*
X098195Y048891D03*
X097345Y049291D03*
X098245Y049941D03*
X099045Y050741D03*
X097395Y050791D03*
X095645Y049141D03*
X097045Y048041D03*
X093345Y047941D03*
X092895Y048441D03*
X091795Y049491D03*
X091095Y050191D03*
X090595Y049441D03*
X089545Y049191D03*
X089045Y050091D03*
X088745Y050666D03*
X090495Y051391D03*
X091295Y052191D03*
X090595Y053091D03*
X089995Y053391D03*
X088695Y052716D03*
X087895Y053516D03*
X087045Y053816D03*
X086845Y053341D03*
X085095Y054041D03*
X083295Y054766D03*
X081945Y054016D03*
X081795Y053291D03*
X080695Y052716D03*
X079745Y053666D03*
X078195Y052666D03*
X079095Y052516D03*
X077945Y051916D03*
X077695Y051341D03*
X076945Y051816D03*
X076895Y052316D03*
X077145Y053466D03*
X075095Y053941D03*
X073295Y054841D03*
X073245Y055316D03*
X074045Y055141D03*
X072195Y053741D03*
X070495Y054691D03*
X069695Y054391D03*
X070045Y053741D03*
X067945Y054641D03*
X067595Y055766D03*
X065095Y053741D03*
X066295Y052491D03*
X068845Y050366D03*
X070195Y049491D03*
X071845Y049791D03*
X070695Y048091D03*
X068745Y047591D03*
X069595Y046366D03*
X072995Y046591D03*
X073995Y048141D03*
X076545Y050541D03*
X078195Y049716D03*
X078745Y050266D03*
X079945Y049341D03*
X081495Y050541D03*
X080645Y050891D03*
X083045Y051991D03*
X084895Y051391D03*
X085695Y051316D03*
X088045Y051891D03*
X084195Y050391D03*
X083695Y050166D03*
X083345Y049341D03*
X085345Y049241D03*
X087295Y049491D03*
X091945Y051216D03*
X092895Y051916D03*
X094495Y050991D03*
X093245Y049691D03*
X095945Y052941D03*
X094445Y053266D03*
X094945Y054591D03*
X094095Y055016D03*
X094195Y055766D03*
X093895Y056466D03*
X093045Y056966D03*
X092245Y056616D03*
X091595Y057016D03*
X090795Y057066D03*
X090295Y057066D03*
X091095Y056316D03*
X090745Y055891D03*
X091095Y055541D03*
X091595Y055516D03*
X092595Y055566D03*
X090995Y054466D03*
X088195Y055841D03*
X087945Y056441D03*
X087895Y056916D03*
X087095Y056491D03*
X086545Y055991D03*
X085995Y055466D03*
X085345Y056391D03*
X084845Y056316D03*
X084745Y057066D03*
X084095Y057066D03*
X083695Y056766D03*
X083695Y055616D03*
X082995Y055516D03*
X081845Y055691D03*
X081245Y055166D03*
X080095Y055691D03*
X079645Y055216D03*
X079045Y055916D03*
X078045Y054916D03*
X076795Y056441D03*
X088895Y056791D03*
X089245Y056441D03*
X098095Y054641D03*
X098945Y055266D03*
X099795Y054841D03*
X100295Y054741D03*
X100845Y054341D03*
X100395Y055866D03*
X103645Y055566D03*
X078195Y047141D03*
X066245Y048166D03*
X065695Y049341D03*
X061145Y050491D03*
X060695Y049341D03*
X057245Y049191D03*
X054445Y048091D03*
X053995Y047641D03*
X055445Y047091D03*
X056945Y046841D03*
X055995Y045791D03*
X058795Y044641D03*
X057795Y044391D03*
X057995Y042141D03*
X057145Y041791D03*
X055345Y041491D03*
X058745Y040641D03*
X058495Y039841D03*
X061945Y041241D03*
X065695Y042641D03*
X068295Y039341D03*
X068945Y039541D03*
X071745Y039516D03*
X072145Y039116D03*
X073645Y039691D03*
X078495Y039541D03*
X068295Y034266D03*
X069545Y033091D03*
X075145Y031391D03*
X078295Y031191D03*
X078795Y031441D03*
X089545Y030091D03*
X090345Y029941D03*
X090345Y030441D03*
X095545Y029591D03*
X097045Y029491D03*
X105295Y031241D03*
X100845Y042791D03*
X100295Y043791D03*
X099445Y043741D03*
X064995Y046541D03*
X058195Y051841D03*
X056945Y053066D03*
X059745Y054316D03*
X060245Y054391D03*
X053195Y054991D03*
X052995Y054341D03*
X052695Y056116D03*
X051345Y052241D03*
X053195Y046291D03*
X052845Y044291D03*
X052145Y044091D03*
X047795Y041991D03*
X042595Y040816D03*
X039295Y040366D03*
X037745Y041391D03*
X039295Y042166D03*
X043195Y045116D03*
X050095Y039041D03*
X054045Y037541D03*
X055245Y036941D03*
X052895Y036691D03*
X054645Y034091D03*
X056895Y034241D03*
X052995Y033441D03*
X051245Y031916D03*
X050895Y031591D03*
X051795Y031266D03*
X051095Y030141D03*
X051395Y028791D03*
X049795Y028291D03*
X047545Y028691D03*
X045345Y026941D03*
X047695Y024516D03*
X047445Y021691D03*
X046745Y020816D03*
X047045Y019441D03*
X047345Y018691D03*
X044245Y019516D03*
X043995Y020166D03*
X042395Y019491D03*
X039995Y020791D03*
X037895Y019391D03*
X037695Y018291D03*
X035245Y018266D03*
X032145Y018116D03*
X028545Y018091D03*
X028945Y015641D03*
X024895Y013441D03*
X023745Y017291D03*
X024645Y019141D03*
X026595Y022141D03*
X026595Y022641D03*
X027345Y023841D03*
X031945Y024091D03*
X032545Y026591D03*
X031245Y027091D03*
X031345Y028741D03*
X031745Y029141D03*
X032645Y028791D03*
X032695Y029616D03*
X030595Y029141D03*
X028745Y028641D03*
X027495Y028991D03*
X027245Y027416D03*
X025895Y027416D03*
X025295Y027291D03*
X024795Y027341D03*
X022045Y028141D03*
X020895Y029741D03*
X016745Y029491D03*
X016445Y028241D03*
X017195Y026191D03*
X015145Y025791D03*
X020845Y025691D03*
X016045Y022891D03*
X010745Y020916D03*
X007145Y021991D03*
X009395Y024491D03*
X009895Y024441D03*
X009495Y025641D03*
X001345Y023241D03*
X017145Y016591D03*
X017145Y014116D03*
X026595Y007791D03*
X033095Y008141D03*
X035195Y009491D03*
X040695Y007541D03*
X038345Y005391D03*
X036945Y004691D03*
X033745Y005641D03*
X025245Y003941D03*
X022695Y001891D03*
X020945Y002541D03*
X040595Y013341D03*
X037745Y013716D03*
X042245Y011666D03*
X046795Y014891D03*
X042145Y016666D03*
X050195Y021091D03*
X051495Y019791D03*
X054845Y020891D03*
X056195Y022441D03*
X055395Y023741D03*
X053745Y022941D03*
X053595Y029416D03*
X053795Y029891D03*
X055595Y030491D03*
X049395Y031241D03*
X047095Y031991D03*
X038845Y027491D03*
X037095Y027491D03*
X036495Y028541D03*
X036695Y029641D03*
X037045Y029991D03*
X033545Y031641D03*
X033195Y032641D03*
X029945Y030541D03*
X035445Y026941D03*
X039445Y023091D03*
X036295Y022141D03*
X030195Y021341D03*
X062145Y016216D03*
X075845Y015941D03*
X013095Y040591D03*
X006445Y039641D03*
X006695Y044891D03*
M02*
