G75*
G70*
%OFA0B0*%
%FSLAX24Y24*%
%IPPOS*%
%LPD*%
%AMOC8*
5,1,8,0,0,1.08239X$1,22.5*
%
%ADD10C,0.0060*%
%ADD11R,0.6750X0.0850*%
%ADD12C,0.0160*%
%ADD13R,0.0560X0.0560*%
%ADD14OC8,0.0560*%
%ADD15C,0.0560*%
%ADD16O,0.1120X0.0560*%
%ADD17O,0.0560X0.1120*%
%ADD18OC8,0.0630*%
%ADD19C,0.0100*%
D10*
X005071Y002953D02*
X004431Y002953D01*
X004644Y003167D01*
X004431Y003380D01*
X005071Y003380D01*
X004751Y003598D02*
X004751Y004025D01*
X004751Y004242D02*
X004644Y004456D01*
X004644Y004563D01*
X004751Y004669D01*
X004965Y004669D01*
X005071Y004563D01*
X005071Y004349D01*
X004965Y004242D01*
X004751Y004242D02*
X004431Y004242D01*
X004431Y004669D01*
X004538Y004887D02*
X004431Y004994D01*
X004431Y005207D01*
X004538Y005314D01*
X004644Y005314D01*
X005071Y004887D01*
X005071Y005314D01*
X006431Y005424D02*
X006431Y005531D01*
X007071Y005531D01*
X007071Y005637D02*
X007071Y005424D01*
X006965Y005206D02*
X007071Y005100D01*
X007071Y004886D01*
X006965Y004779D01*
X006751Y004886D02*
X006644Y004779D01*
X006538Y004779D01*
X006431Y004886D01*
X006431Y005100D01*
X006538Y005206D01*
X006751Y005100D02*
X006858Y005206D01*
X006965Y005206D01*
X006751Y005100D02*
X006751Y004886D01*
X006644Y005961D02*
X006965Y005961D01*
X007071Y006068D01*
X007071Y006388D01*
X007178Y006388D02*
X007285Y006281D01*
X007285Y006175D01*
X007178Y006388D02*
X006644Y006388D01*
X006644Y006606D02*
X007071Y006606D01*
X007071Y007033D02*
X006751Y007033D01*
X006644Y006926D01*
X006644Y006606D01*
X006751Y007250D02*
X006965Y007250D01*
X007071Y007357D01*
X007071Y007677D01*
X007178Y007677D02*
X006644Y007677D01*
X006644Y007357D01*
X006751Y007250D01*
X007285Y007464D02*
X007285Y007570D01*
X007178Y007677D01*
X007071Y007895D02*
X007071Y008215D01*
X006965Y008322D01*
X006858Y008215D01*
X006858Y008001D01*
X006751Y007895D01*
X006644Y008001D01*
X006644Y008322D01*
X006644Y008539D02*
X006644Y008753D01*
X006538Y008646D02*
X006965Y008646D01*
X007071Y008753D01*
X006965Y009076D02*
X007071Y009183D01*
X007071Y009503D01*
X006751Y009503D01*
X006644Y009396D01*
X006644Y009183D01*
X006858Y009183D02*
X006858Y009503D01*
X006965Y009721D02*
X007071Y009828D01*
X007071Y010148D01*
X006431Y010148D01*
X006644Y010148D02*
X006644Y009828D01*
X006751Y009721D01*
X006965Y009721D01*
X006858Y009183D02*
X006965Y009076D01*
X005071Y009074D02*
X005071Y008753D01*
X004965Y008647D01*
X004858Y008753D01*
X004858Y009074D01*
X004751Y009074D02*
X005071Y009074D01*
X004965Y009291D02*
X005071Y009398D01*
X005071Y009718D01*
X004965Y009936D02*
X005071Y010042D01*
X005071Y010256D01*
X004858Y010363D02*
X004858Y009936D01*
X004965Y009936D02*
X004751Y009936D01*
X004644Y010042D01*
X004644Y010256D01*
X004751Y010363D01*
X004858Y010363D01*
X005071Y010580D02*
X004644Y010580D01*
X004644Y010687D01*
X004751Y010794D01*
X004644Y010900D01*
X004751Y011007D01*
X005071Y011007D01*
X005071Y010794D02*
X004751Y010794D01*
X004751Y011225D02*
X004644Y011331D01*
X004644Y011545D01*
X004751Y011652D01*
X004858Y011652D01*
X004858Y011225D01*
X004965Y011225D02*
X004751Y011225D01*
X004965Y011225D02*
X005071Y011331D01*
X005071Y011545D01*
X005071Y011869D02*
X004644Y011869D01*
X004644Y012189D01*
X004751Y012296D01*
X005071Y012296D01*
X004644Y012514D02*
X004644Y012727D01*
X004538Y012621D02*
X004965Y012621D01*
X005071Y012727D01*
X005071Y013695D02*
X005071Y014016D01*
X004965Y014122D01*
X004751Y014122D01*
X004644Y014016D01*
X004644Y013695D01*
X004431Y013695D02*
X005071Y013695D01*
X004965Y014340D02*
X004858Y014447D01*
X004858Y014767D01*
X004751Y014767D02*
X005071Y014767D01*
X005071Y014447D01*
X004965Y014340D01*
X004644Y014447D02*
X004644Y014660D01*
X004751Y014767D01*
X004751Y014984D02*
X004644Y015091D01*
X004644Y015411D01*
X004858Y015305D02*
X004965Y015411D01*
X005071Y015305D01*
X005071Y014984D01*
X004858Y015091D02*
X004858Y015305D01*
X004858Y015091D02*
X004751Y014984D01*
X004751Y015629D02*
X004644Y015736D01*
X004644Y015949D01*
X004751Y016056D01*
X004858Y016056D01*
X004858Y015629D01*
X004965Y015629D02*
X004751Y015629D01*
X004965Y015629D02*
X005071Y015736D01*
X005071Y015949D01*
X004965Y016274D02*
X005071Y016380D01*
X005071Y016701D01*
X004431Y016701D01*
X004644Y016701D02*
X004644Y016380D01*
X004751Y016274D01*
X004965Y016274D01*
X004965Y017563D02*
X005071Y017669D01*
X005071Y017883D01*
X004965Y017990D01*
X004751Y017990D01*
X004644Y017883D01*
X004644Y017669D01*
X004751Y017563D01*
X004965Y017563D01*
X005071Y018207D02*
X004644Y018207D01*
X004644Y018527D01*
X004751Y018634D01*
X005071Y018634D01*
X005071Y019496D02*
X004431Y019496D01*
X004644Y019710D01*
X004431Y019923D01*
X005071Y019923D01*
X004965Y020141D02*
X005071Y020247D01*
X005071Y020461D01*
X004965Y020568D01*
X004858Y020568D01*
X004751Y020461D01*
X004751Y020247D01*
X004644Y020141D01*
X004538Y020141D01*
X004431Y020247D01*
X004431Y020461D01*
X004538Y020568D01*
X004644Y020568D01*
X004751Y020461D01*
X004751Y020247D02*
X004858Y020141D01*
X004965Y020141D01*
X004965Y020785D02*
X005071Y020892D01*
X005071Y021105D01*
X004965Y021212D01*
X004858Y021212D01*
X004751Y021105D01*
X004751Y020785D01*
X004965Y020785D01*
X004751Y020785D02*
X004538Y020999D01*
X004431Y021212D01*
X004431Y021430D02*
X004751Y021430D01*
X004644Y021643D01*
X004644Y021750D01*
X004751Y021857D01*
X004965Y021857D01*
X005071Y021750D01*
X005071Y021536D01*
X004965Y021430D01*
X004431Y021430D02*
X004431Y021857D01*
X004431Y022074D02*
X004751Y022074D01*
X004644Y022288D01*
X004644Y022394D01*
X004751Y022501D01*
X004965Y022501D01*
X005071Y022394D01*
X005071Y022181D01*
X004965Y022074D01*
X004431Y022074D02*
X004431Y022501D01*
X004644Y009718D02*
X004644Y009398D01*
X004751Y009291D01*
X004965Y009291D01*
X004751Y009074D02*
X004644Y008967D01*
X004644Y008753D01*
X005071Y008323D02*
X005071Y008110D01*
X005071Y008216D02*
X004431Y008216D01*
X004431Y008110D01*
X004751Y007892D02*
X004965Y007892D01*
X005071Y007785D01*
X005071Y007465D01*
X005285Y007465D02*
X004644Y007465D01*
X004644Y007785D01*
X004751Y007892D01*
X004751Y007247D02*
X004858Y007247D01*
X004858Y006820D01*
X004965Y006820D02*
X004751Y006820D01*
X004644Y006927D01*
X004644Y007141D01*
X004751Y007247D01*
X005071Y007141D02*
X005071Y006927D01*
X004965Y006820D01*
X005071Y006603D02*
X004858Y006389D01*
X004858Y006496D02*
X004858Y006176D01*
X005071Y006176D02*
X004431Y006176D01*
X004431Y006496D01*
X004538Y006603D01*
X004751Y006603D01*
X004858Y006496D01*
X005071Y003918D02*
X004431Y003918D01*
X004751Y003598D01*
X006431Y003380D02*
X006858Y003380D01*
X007071Y003167D01*
X006858Y002953D01*
X006431Y002953D01*
X006965Y003598D02*
X007071Y003598D01*
X007071Y003705D01*
X006965Y003705D01*
X006965Y003598D01*
D11*
X046576Y003348D03*
X046576Y002098D03*
X046576Y004598D03*
X046576Y005848D03*
X046576Y007098D03*
X046576Y008348D03*
X046576Y009598D03*
X046576Y010848D03*
X046576Y012098D03*
X046576Y013348D03*
X046576Y014598D03*
X046576Y015848D03*
X046576Y017098D03*
X046576Y018348D03*
X046576Y019598D03*
X046576Y020848D03*
X046576Y022098D03*
X046576Y023348D03*
D12*
X043701Y023273D02*
X042201Y023273D01*
X041701Y023773D01*
X041951Y022273D02*
X043351Y022273D01*
X043301Y022073D01*
X042201Y020773D02*
X041701Y021273D01*
X042201Y020773D02*
X043201Y020773D01*
X043201Y019773D02*
X041701Y019773D01*
X041701Y018773D02*
X042201Y018273D01*
X043201Y018273D01*
X043201Y017273D02*
X041701Y017273D01*
X041701Y016273D02*
X042201Y015773D01*
X043201Y015773D01*
X043201Y014773D02*
X041701Y014773D01*
X041701Y013773D02*
X042201Y013273D01*
X043201Y013273D01*
X043201Y012273D02*
X041701Y012273D01*
X041701Y011273D02*
X042201Y010773D01*
X043201Y010773D01*
X043201Y009773D02*
X041701Y009773D01*
X041701Y008773D02*
X042201Y008273D01*
X043201Y008273D01*
X043201Y007273D02*
X041701Y007273D01*
X041701Y006273D02*
X042201Y005773D01*
X043201Y005773D01*
X043201Y004773D02*
X041701Y004773D01*
X041701Y003773D02*
X042201Y003273D01*
X043201Y003273D01*
X043351Y002273D02*
X041951Y002273D01*
X043351Y002273D02*
X043351Y002073D01*
D13*
X041701Y002273D03*
X040201Y001773D03*
X040201Y003273D03*
X041701Y003773D03*
X040201Y004273D03*
X041701Y004773D03*
X040201Y005773D03*
X041701Y006273D03*
X040201Y006773D03*
X041701Y007273D03*
X040201Y008273D03*
X041701Y008773D03*
X040201Y009273D03*
X041701Y009773D03*
X040201Y010773D03*
X041701Y011273D03*
X040201Y011773D03*
X041701Y012273D03*
X040201Y013273D03*
X041701Y013773D03*
X040201Y014273D03*
X041701Y014773D03*
X040201Y015773D03*
X041701Y016273D03*
X040201Y016773D03*
X041701Y017273D03*
X040201Y018273D03*
X041701Y018773D03*
X040201Y019273D03*
X041701Y019773D03*
X040201Y020773D03*
X041701Y021273D03*
X040201Y021773D03*
X041701Y022273D03*
X040201Y023273D03*
X041701Y023773D03*
D14*
X038101Y023423D03*
X035101Y023423D03*
X034101Y023423D03*
X032101Y023423D03*
X029101Y021423D03*
X026101Y020923D03*
X026101Y021923D03*
X026101Y022923D03*
X023101Y022923D03*
X023101Y021923D03*
X023101Y020923D03*
X023101Y019923D03*
X026101Y019923D03*
X029101Y019423D03*
X029101Y017423D03*
X027101Y017423D03*
X033601Y016423D03*
X033601Y014423D03*
X019101Y010923D03*
X016101Y011923D03*
X014101Y011923D03*
X019101Y008923D03*
X018101Y006923D03*
X020101Y006923D03*
X021101Y006923D03*
X021101Y004923D03*
X034101Y004423D03*
X034101Y002423D03*
X039101Y002423D03*
X039101Y004423D03*
D15*
X027101Y002423D03*
X024101Y002423D03*
X024101Y008423D03*
X027101Y008423D03*
D16*
X030101Y008423D03*
X030101Y007423D03*
X030101Y006423D03*
X030101Y005423D03*
X030101Y004423D03*
X030101Y003423D03*
X030101Y002423D03*
X033101Y002423D03*
X033101Y003423D03*
X033101Y004423D03*
X033101Y005423D03*
X033101Y006423D03*
X033101Y007423D03*
X033101Y008423D03*
X035101Y008423D03*
X035101Y007423D03*
X035101Y006423D03*
X035101Y005423D03*
X035101Y004423D03*
X035101Y003423D03*
X035101Y002423D03*
X038101Y002423D03*
X038101Y003423D03*
X038101Y004423D03*
X038101Y005423D03*
X038101Y006423D03*
X038101Y007423D03*
X038101Y008423D03*
X038101Y010423D03*
X038101Y011423D03*
X038101Y012423D03*
X038101Y013423D03*
X038101Y014423D03*
X038101Y015423D03*
X038101Y016423D03*
X035101Y016423D03*
X035101Y015423D03*
X035101Y014423D03*
X035101Y013423D03*
X035101Y012423D03*
X035101Y011423D03*
X035101Y010423D03*
X032101Y010423D03*
X032101Y011423D03*
X032101Y012423D03*
X032101Y013423D03*
X032101Y014423D03*
X032101Y015423D03*
X032101Y016423D03*
X029101Y016423D03*
X029101Y015423D03*
X029101Y014423D03*
X029101Y013423D03*
X029101Y012423D03*
X029101Y011423D03*
X029101Y010423D03*
X016101Y012923D03*
X016101Y013923D03*
X016101Y014923D03*
X016101Y015923D03*
X016101Y016923D03*
X016101Y017923D03*
X016101Y018923D03*
X013101Y018923D03*
X013101Y017923D03*
X013101Y016923D03*
X013101Y015923D03*
X013101Y014923D03*
X013101Y013923D03*
X013101Y012923D03*
D17*
X013101Y010923D03*
X012101Y010923D03*
X014101Y010923D03*
X015101Y010923D03*
X016101Y010923D03*
X017101Y010923D03*
X018101Y010923D03*
X018101Y007923D03*
X017101Y007923D03*
X016101Y007923D03*
X015101Y007923D03*
X014101Y007923D03*
X013101Y007923D03*
X012101Y007923D03*
X013101Y005923D03*
X014101Y005923D03*
X015101Y005923D03*
X016101Y005923D03*
X017101Y005923D03*
X018101Y005923D03*
X019101Y005923D03*
X020101Y005923D03*
X020101Y002923D03*
X019101Y002923D03*
X018101Y002923D03*
X017101Y002923D03*
X016101Y002923D03*
X015101Y002923D03*
X014101Y002923D03*
X013101Y002923D03*
X019101Y014923D03*
X020101Y014923D03*
X021101Y014923D03*
X022101Y014923D03*
X023101Y014923D03*
X024101Y014923D03*
X025101Y014923D03*
X026101Y014923D03*
X026101Y017923D03*
X025101Y017923D03*
X024101Y017923D03*
X023101Y017923D03*
X022101Y017923D03*
X021101Y017923D03*
X020101Y017923D03*
X019101Y017923D03*
X019101Y019923D03*
X020101Y019923D03*
X021101Y019923D03*
X022101Y019923D03*
X022101Y022923D03*
X021101Y022923D03*
X020101Y022923D03*
X019101Y022923D03*
X030101Y022423D03*
X031101Y022423D03*
X032101Y022423D03*
X033101Y022423D03*
X034101Y022423D03*
X035101Y022423D03*
X036101Y022423D03*
X037101Y022423D03*
X037101Y019423D03*
X036101Y019423D03*
X035101Y019423D03*
X034101Y019423D03*
X033101Y019423D03*
X032101Y019423D03*
X031101Y019423D03*
X030101Y019423D03*
D18*
X024101Y018923D03*
X023101Y018923D03*
X022101Y018923D03*
X023101Y013923D03*
X033101Y011423D03*
X029101Y005423D03*
X027101Y005423D03*
X024101Y005423D03*
X018101Y001923D03*
X012101Y014923D03*
X012101Y015923D03*
X012101Y016923D03*
D19*
X012401Y016823D01*
X012601Y016823D01*
X013101Y016923D01*
X013501Y017523D02*
X014401Y016623D01*
X014401Y015423D01*
X015701Y014123D01*
X016101Y013923D01*
X016601Y013823D01*
X016801Y013823D01*
X016501Y012723D02*
X016101Y012923D01*
X016201Y012723D01*
X016201Y012123D01*
X016101Y011923D01*
X015601Y012423D02*
X014901Y013123D01*
X014901Y014523D01*
X013601Y015823D01*
X013101Y015923D01*
X012601Y015823D01*
X012401Y015823D01*
X012101Y015923D01*
X012101Y014923D02*
X012401Y014823D01*
X012601Y014823D01*
X013101Y014923D01*
X013601Y014423D02*
X014601Y013423D01*
X014601Y007423D01*
X014901Y007123D01*
X017301Y007123D01*
X017601Y007423D01*
X017601Y010023D01*
X018001Y010423D01*
X018101Y010923D01*
X017901Y011323D01*
X016501Y012723D01*
X015601Y012423D02*
X015601Y010423D01*
X015201Y010023D01*
X015201Y008423D01*
X015101Y007923D01*
X014101Y007923D02*
X014201Y007423D01*
X014801Y006823D01*
X015201Y006823D01*
X015601Y006423D01*
X015601Y005423D01*
X017001Y004023D01*
X017001Y003423D01*
X017101Y002923D01*
X017601Y002423D02*
X017301Y002123D01*
X016701Y002123D01*
X016301Y002523D01*
X016101Y002923D01*
X015901Y002523D01*
X015301Y002523D01*
X015101Y002923D01*
X014901Y003323D01*
X014001Y004223D01*
X013201Y003423D01*
X013101Y002923D01*
X011601Y003423D02*
X011601Y014723D01*
X011901Y014423D01*
X013601Y014423D01*
X013101Y013923D02*
X012701Y013723D01*
X012701Y013523D01*
X012301Y013123D01*
X012301Y011723D01*
X012601Y011423D01*
X012601Y008823D01*
X012201Y008423D01*
X012101Y007923D01*
X012301Y007523D01*
X012501Y007523D01*
X014101Y005923D01*
X014301Y005523D01*
X014901Y005523D01*
X015101Y005923D01*
X015201Y005423D01*
X014001Y004223D01*
X011601Y003423D02*
X013601Y001423D01*
X023801Y001423D01*
X024701Y002323D01*
X026901Y002323D01*
X027101Y002423D01*
X026901Y002523D01*
X024201Y005223D01*
X024101Y005423D01*
X023601Y006223D02*
X023601Y006423D01*
X027101Y009923D01*
X031601Y009923D01*
X031301Y010223D01*
X031301Y011623D01*
X031701Y012023D01*
X031701Y012223D01*
X032101Y012423D01*
X031601Y012523D01*
X029901Y014223D01*
X029901Y015823D01*
X029501Y016223D01*
X029101Y016423D01*
X029201Y016623D01*
X029201Y017223D01*
X029101Y017423D01*
X029301Y017323D01*
X032601Y017323D01*
X033401Y016523D01*
X033601Y016423D01*
X033801Y016323D01*
X034601Y016323D01*
X035101Y016423D01*
X034701Y016623D01*
X037001Y018923D01*
X037101Y019423D01*
X036601Y018923D02*
X036301Y018623D01*
X035701Y018623D01*
X035301Y019023D01*
X035101Y019423D01*
X035001Y019923D01*
X037001Y021923D01*
X037101Y022423D01*
X037301Y022723D01*
X037901Y023323D01*
X038101Y023423D01*
X038401Y024223D02*
X034201Y024223D01*
X033601Y023623D01*
X033601Y023123D01*
X033901Y022823D01*
X034101Y022423D01*
X034701Y022023D02*
X034301Y021623D01*
X032901Y021623D01*
X032601Y021923D01*
X032601Y023023D01*
X032301Y023323D01*
X032101Y023423D01*
X034101Y023423D02*
X034301Y023323D01*
X034901Y023323D01*
X035101Y023423D01*
X035301Y023323D01*
X035901Y022723D01*
X036101Y022423D01*
X035101Y022423D02*
X034901Y022023D01*
X034701Y022023D01*
X033201Y021323D02*
X029301Y021323D01*
X029101Y021423D01*
X028901Y021323D01*
X026601Y021323D01*
X026201Y021723D01*
X026101Y021923D01*
X026201Y022123D01*
X026201Y022723D01*
X026101Y022923D01*
X025901Y023023D01*
X024101Y023023D01*
X023101Y024023D01*
X016801Y024023D01*
X011601Y018823D01*
X011601Y014723D01*
X013101Y013923D02*
X013501Y013723D01*
X014001Y013223D01*
X014001Y012123D01*
X014101Y011923D01*
X013601Y012823D02*
X013101Y012923D01*
X013601Y012823D02*
X013601Y010423D01*
X013201Y010023D01*
X013201Y008423D01*
X013101Y007923D01*
X017101Y005923D02*
X017301Y005523D01*
X017901Y005523D01*
X018101Y005923D01*
X018001Y005423D01*
X018001Y003823D01*
X017601Y003423D01*
X017601Y002423D01*
X018201Y002423D02*
X018201Y002223D01*
X018101Y001923D01*
X018201Y002423D02*
X018101Y002923D01*
X019101Y002923D02*
X019201Y002423D01*
X019801Y001823D01*
X020401Y001823D01*
X021201Y002623D01*
X021201Y003223D01*
X026301Y008323D01*
X026301Y006923D01*
X028301Y004923D01*
X028301Y004023D01*
X029001Y003323D01*
X029601Y003323D01*
X030101Y003423D01*
X030601Y003923D02*
X028901Y003923D01*
X028601Y004223D01*
X028601Y004623D01*
X028901Y004923D01*
X030601Y004923D01*
X030901Y005223D01*
X030901Y005823D01*
X030501Y006223D01*
X030101Y006423D01*
X029601Y006523D01*
X027801Y008323D01*
X027301Y008323D01*
X027101Y008423D01*
X026601Y008623D02*
X026601Y008223D01*
X029301Y005523D01*
X029401Y005523D01*
X029101Y005423D01*
X029401Y005523D02*
X029601Y005523D01*
X030101Y005423D01*
X031201Y004923D02*
X031201Y006523D01*
X030501Y007223D01*
X030101Y007423D01*
X030101Y008423D02*
X030601Y008323D01*
X031201Y008323D01*
X032301Y007223D01*
X032301Y004223D01*
X032601Y003923D01*
X033701Y003923D01*
X034001Y004223D01*
X034101Y004423D01*
X034101Y004223D01*
X034701Y003623D01*
X035101Y003423D01*
X035601Y003523D01*
X036401Y004323D01*
X037601Y004323D01*
X038101Y004423D01*
X038601Y004323D01*
X038901Y004323D01*
X039101Y004423D01*
X039801Y003723D02*
X040001Y003723D01*
X039801Y003723D02*
X039601Y003523D01*
X038601Y003523D01*
X038101Y003423D01*
X037601Y003323D01*
X036201Y003323D01*
X035801Y002923D01*
X032601Y002923D01*
X031201Y004323D01*
X030601Y004323D01*
X030101Y004423D01*
X029601Y004323D01*
X029401Y004323D01*
X030601Y003923D02*
X030901Y003623D01*
X030901Y003223D01*
X030501Y002823D01*
X030501Y002623D01*
X030101Y002423D01*
X029601Y001923D02*
X029201Y002323D01*
X027301Y002323D01*
X027101Y002423D01*
X027201Y002623D01*
X027201Y005123D01*
X027101Y005423D01*
X027201Y005223D02*
X027201Y005123D01*
X023601Y006223D02*
X020901Y003523D01*
X020901Y002723D01*
X020301Y002123D01*
X019901Y002123D01*
X019601Y002423D01*
X019601Y003423D01*
X019901Y003723D01*
X019901Y005023D01*
X019801Y005023D01*
X019301Y005523D01*
X019101Y005923D01*
X018901Y005523D01*
X018301Y005523D01*
X018101Y005923D01*
X018201Y006423D01*
X018201Y006723D01*
X018101Y006923D01*
X019201Y006423D02*
X019101Y005923D01*
X019201Y006423D02*
X019201Y008723D01*
X019101Y008923D01*
X020001Y009923D02*
X019201Y010723D01*
X019101Y010923D01*
X018901Y010823D01*
X018301Y010823D01*
X018101Y010923D01*
X020001Y009923D02*
X020001Y007123D01*
X020101Y006923D01*
X020301Y006823D01*
X020901Y006823D01*
X021101Y006923D01*
X020201Y006723D02*
X020201Y006423D01*
X020101Y005923D01*
X021201Y005323D02*
X024001Y008123D01*
X024001Y008023D01*
X024001Y008123D02*
X024001Y008223D01*
X024101Y008423D01*
X024001Y008623D01*
X020201Y012423D01*
X020201Y014423D01*
X020101Y014923D01*
X019901Y014523D01*
X019301Y014523D01*
X019101Y014923D01*
X018901Y014823D01*
X016601Y014823D01*
X016101Y014923D01*
X015701Y015123D01*
X014701Y016123D01*
X014701Y017323D01*
X014101Y017923D01*
X018701Y022523D01*
X018901Y022523D01*
X019101Y022923D01*
X019301Y022523D01*
X019901Y022523D01*
X020101Y022923D01*
X020301Y022523D01*
X020901Y022523D01*
X021101Y022923D01*
X021301Y022523D01*
X021901Y022523D01*
X022101Y022923D01*
X023101Y022923D02*
X023201Y022723D01*
X023601Y022323D01*
X023601Y020123D01*
X024601Y019123D01*
X024601Y017423D01*
X026601Y015423D01*
X026601Y010223D01*
X021801Y005423D01*
X021801Y004823D01*
X020301Y003323D01*
X020101Y002923D01*
X019901Y005023D02*
X020901Y005023D01*
X021101Y004923D01*
X021201Y005123D01*
X021201Y005323D01*
X020201Y006723D02*
X020101Y006923D01*
X026301Y008323D02*
X026301Y008723D01*
X026801Y009223D01*
X035301Y009223D01*
X036001Y008523D01*
X037601Y008523D01*
X038101Y008423D01*
X038901Y008623D02*
X038901Y006623D01*
X039201Y006323D01*
X040501Y006323D01*
X041501Y005323D01*
X041501Y005023D01*
X041701Y004773D01*
X040701Y004623D02*
X040401Y004923D01*
X036601Y004923D01*
X035601Y005923D01*
X034001Y005923D01*
X033601Y005523D01*
X033101Y005423D01*
X033501Y004623D02*
X033101Y004423D01*
X033501Y004623D02*
X034201Y005323D01*
X034601Y005323D01*
X035101Y005423D01*
X037001Y006923D02*
X032601Y006923D01*
X032301Y007223D01*
X033601Y008923D02*
X035101Y007423D01*
X035101Y008423D02*
X035601Y008323D01*
X037001Y006923D01*
X038601Y006923D01*
X038901Y006623D01*
X038901Y008623D02*
X038001Y009523D01*
X032001Y009523D01*
X031601Y009923D01*
X032101Y010423D02*
X032601Y010523D01*
X032901Y010523D01*
X034201Y011823D01*
X034201Y013223D01*
X033841Y013943D01*
X033801Y013923D01*
X033601Y013923D01*
X032601Y012923D01*
X031601Y012923D01*
X030601Y013923D01*
X030601Y015923D01*
X031601Y016923D01*
X032601Y016923D01*
X033101Y016423D01*
X033101Y016223D01*
X033401Y015923D01*
X035601Y015923D01*
X037601Y017923D01*
X037601Y019923D01*
X037301Y020223D01*
X036901Y020223D01*
X036601Y019923D01*
X036601Y018923D01*
X036101Y019423D02*
X036201Y019923D01*
X036801Y020523D01*
X037401Y020523D01*
X037901Y020023D01*
X037901Y019723D01*
X040101Y017523D01*
X041501Y017523D01*
X041701Y017273D01*
X039201Y016323D02*
X038601Y016923D01*
X037601Y016923D01*
X036201Y015523D01*
X035601Y015523D01*
X035101Y015423D01*
X035601Y014923D02*
X034401Y014923D01*
X033701Y015623D01*
X033301Y015623D01*
X033001Y015923D01*
X031601Y015923D01*
X031301Y015623D01*
X031301Y014223D01*
X031701Y013823D01*
X031701Y013623D01*
X032101Y013423D01*
X032601Y013523D01*
X032601Y013323D02*
X032101Y013423D01*
X033601Y014423D02*
X033841Y013943D01*
X034601Y014323D02*
X035101Y014423D01*
X034701Y014623D01*
X035101Y014423D02*
X035501Y014223D01*
X035501Y013623D01*
X035101Y013423D01*
X034701Y013623D01*
X035101Y013423D02*
X037601Y010923D01*
X038601Y010923D01*
X038901Y010623D01*
X038901Y010223D01*
X038601Y009923D01*
X037601Y009923D01*
X037201Y010323D01*
X035601Y010323D01*
X035101Y010423D01*
X035501Y010623D01*
X035501Y011223D01*
X035101Y011423D01*
X034301Y011923D02*
X034201Y011823D01*
X034301Y011923D02*
X036001Y011923D01*
X037401Y010523D01*
X037601Y010523D01*
X038101Y010423D01*
X038101Y011423D02*
X038501Y011623D01*
X038501Y012223D01*
X038101Y012423D01*
X037701Y012623D01*
X037701Y012823D01*
X035601Y014923D01*
X038501Y014923D01*
X038501Y014623D01*
X038101Y014423D01*
X038501Y014923D02*
X038501Y015223D01*
X038101Y015423D01*
X038901Y015823D02*
X038501Y016223D01*
X038101Y016423D01*
X038901Y015823D02*
X038901Y013723D01*
X039801Y012823D01*
X040001Y012823D01*
X041301Y011523D01*
X041501Y011523D01*
X041701Y011273D01*
X041701Y012273D02*
X041501Y012523D01*
X041501Y012823D01*
X040501Y013823D01*
X039801Y013823D01*
X039201Y014423D01*
X039201Y016323D01*
X035501Y016623D02*
X035101Y016423D01*
X033601Y015323D02*
X034601Y014323D01*
X033601Y015323D02*
X032601Y015323D01*
X032101Y015423D01*
X029101Y017423D02*
X029001Y017623D01*
X029001Y019223D01*
X029101Y019423D01*
X029301Y019323D01*
X029901Y019323D01*
X030101Y019423D01*
X033201Y021323D02*
X034701Y019823D01*
X034901Y019823D01*
X035101Y019423D01*
X040701Y019823D02*
X040701Y022123D01*
X040001Y022823D01*
X039801Y022823D01*
X038401Y024223D01*
X040701Y019823D02*
X041501Y019023D01*
X041701Y018773D01*
X033101Y011423D02*
X032801Y011323D01*
X032601Y011323D01*
X032101Y011423D01*
X032101Y010423D02*
X032601Y010323D01*
X033601Y008923D02*
X026901Y008923D01*
X026601Y008623D01*
X031201Y004923D02*
X032601Y003523D01*
X033101Y003423D01*
X033101Y002423D02*
X033601Y002323D01*
X033901Y002323D01*
X034101Y002423D01*
X034201Y002223D01*
X034501Y001923D01*
X035601Y001923D01*
X036001Y002323D01*
X037601Y002323D01*
X038101Y002423D01*
X038601Y002323D01*
X038901Y002323D01*
X039101Y002423D01*
X039301Y002323D01*
X041501Y002323D01*
X041701Y002273D01*
X040701Y002923D02*
X040701Y004623D01*
X040701Y002923D02*
X040601Y002823D01*
X039801Y002823D01*
X039701Y002923D01*
X037601Y002923D01*
X037401Y002723D01*
X036001Y002723D01*
X035801Y002523D01*
X035601Y002523D01*
X035101Y002423D01*
X033101Y002423D02*
X032601Y002323D01*
X032201Y001923D01*
X029601Y001923D01*
X024601Y013423D02*
X021601Y013423D01*
X020601Y014423D01*
X020601Y015423D01*
X020201Y015823D01*
X016601Y015823D01*
X016101Y015923D01*
X015601Y016423D02*
X015001Y017023D01*
X015001Y018223D01*
X015601Y018823D01*
X016101Y018923D01*
X016601Y018423D02*
X015601Y018423D01*
X015301Y018123D01*
X015301Y017523D01*
X015701Y017123D01*
X016101Y016923D01*
X015601Y016423D02*
X021601Y016423D01*
X022701Y015323D01*
X022901Y015323D01*
X023101Y014923D01*
X023701Y015323D02*
X022201Y016823D01*
X017601Y016823D01*
X016601Y017823D01*
X016101Y017923D01*
X016601Y018423D02*
X017901Y017123D01*
X022901Y017123D01*
X024701Y015323D01*
X024901Y015323D01*
X025101Y014923D01*
X024101Y014923D02*
X023901Y015323D01*
X023701Y015323D01*
X022801Y014023D02*
X022301Y014523D01*
X022101Y014923D01*
X022801Y014023D02*
X023101Y013923D01*
X024601Y013423D02*
X025701Y014523D01*
X025901Y014523D01*
X026101Y014923D01*
X026301Y017523D02*
X026901Y017523D01*
X027101Y017423D01*
X026301Y017523D02*
X026101Y017923D01*
X026201Y018423D01*
X026201Y019723D01*
X026101Y019923D01*
X026201Y020123D01*
X026201Y020723D01*
X026101Y020923D01*
X026301Y021023D01*
X026601Y021323D01*
X025001Y021723D02*
X023001Y023723D01*
X016901Y023723D01*
X012301Y019123D01*
X012301Y018523D01*
X012701Y018123D01*
X013101Y017923D01*
X013501Y017723D01*
X013501Y017523D01*
X014101Y017923D02*
X013501Y018523D01*
X013501Y018723D01*
X013101Y018923D01*
X019101Y017923D02*
X019201Y018423D01*
X019201Y019423D01*
X019101Y019923D01*
X019301Y020323D01*
X020801Y021823D01*
X022901Y021823D01*
X023101Y021923D01*
X022901Y021023D02*
X023101Y020923D01*
X022901Y021023D02*
X021001Y021023D01*
X020301Y020323D01*
X020101Y019923D01*
X020201Y019423D01*
X020201Y018423D01*
X020101Y017923D01*
X021101Y017923D02*
X021201Y018423D01*
X021201Y019423D01*
X021101Y019923D01*
X021301Y020323D01*
X021701Y020723D01*
X022401Y020723D01*
X023001Y020123D01*
X023101Y019923D01*
X023601Y019723D02*
X023301Y019423D01*
X022901Y019423D01*
X022801Y019523D01*
X022301Y019523D01*
X022101Y019923D01*
X023601Y020123D02*
X023601Y019723D01*
X025001Y019223D02*
X025201Y019023D01*
X025201Y018423D01*
X025101Y017923D01*
X024101Y017923D02*
X024201Y018423D01*
X024201Y018623D01*
X024101Y018923D01*
X025001Y019223D02*
X025001Y021723D01*
X023101Y018923D02*
X023201Y018623D01*
X023201Y018423D01*
X023101Y017923D01*
X022101Y017923D02*
X022201Y018423D01*
X022201Y018623D01*
X022101Y018923D01*
M02*
