G75*
G70*
%OFA0B0*%
%FSLAX24Y24*%
%IPPOS*%
%LPD*%
%AMOC8*
5,1,8,0,0,1.08239X$1,22.5*
%
%ADD10C,0.0000*%
%ADD11C,0.0060*%
%ADD12C,0.0070*%
%ADD13C,0.0080*%
%ADD14C,0.0050*%
%ADD15C,0.0040*%
%ADD16C,0.0120*%
%ADD17R,0.0340X0.0240*%
%ADD18C,0.0020*%
%ADD19R,0.0270X0.0240*%
D10*
X050619Y026668D02*
X008124Y026633D01*
X047444Y024133D02*
X047447Y024190D01*
X047454Y024247D01*
X047467Y024303D01*
X047485Y024357D01*
X047508Y024410D01*
X047536Y024460D01*
X047568Y024508D01*
X047604Y024552D01*
X047644Y024593D01*
X047688Y024631D01*
X047734Y024664D01*
X047784Y024692D01*
X047836Y024716D01*
X047890Y024736D01*
X047946Y024750D01*
X048002Y024759D01*
X048060Y024763D01*
X048117Y024762D01*
X048174Y024755D01*
X048230Y024743D01*
X048285Y024727D01*
X048338Y024705D01*
X048389Y024679D01*
X048437Y024648D01*
X048483Y024613D01*
X048525Y024573D01*
X048563Y024531D01*
X048597Y024484D01*
X048627Y024435D01*
X048652Y024384D01*
X048672Y024330D01*
X048688Y024275D01*
X048698Y024219D01*
X048703Y024162D01*
X048703Y024104D01*
X048698Y024047D01*
X048688Y023991D01*
X048672Y023936D01*
X048652Y023882D01*
X048627Y023831D01*
X048597Y023782D01*
X048563Y023735D01*
X048525Y023693D01*
X048483Y023653D01*
X048437Y023618D01*
X048389Y023587D01*
X048338Y023561D01*
X048285Y023539D01*
X048230Y023523D01*
X048174Y023511D01*
X048117Y023504D01*
X048060Y023503D01*
X048002Y023507D01*
X047946Y023516D01*
X047890Y023530D01*
X047836Y023550D01*
X047784Y023574D01*
X047734Y023602D01*
X047688Y023635D01*
X047644Y023673D01*
X047604Y023714D01*
X047568Y023758D01*
X047536Y023806D01*
X047508Y023856D01*
X047485Y023909D01*
X047467Y023963D01*
X047454Y024019D01*
X047447Y024076D01*
X047444Y024133D01*
X050619Y026668D02*
X050569Y001648D01*
X006824Y001633D01*
X047444Y004133D02*
X047447Y004190D01*
X047454Y004247D01*
X047467Y004303D01*
X047485Y004357D01*
X047508Y004410D01*
X047536Y004460D01*
X047568Y004508D01*
X047604Y004552D01*
X047644Y004593D01*
X047688Y004631D01*
X047734Y004664D01*
X047784Y004692D01*
X047836Y004716D01*
X047890Y004736D01*
X047946Y004750D01*
X048002Y004759D01*
X048060Y004763D01*
X048117Y004762D01*
X048174Y004755D01*
X048230Y004743D01*
X048285Y004727D01*
X048338Y004705D01*
X048389Y004679D01*
X048437Y004648D01*
X048483Y004613D01*
X048525Y004573D01*
X048563Y004531D01*
X048597Y004484D01*
X048627Y004435D01*
X048652Y004384D01*
X048672Y004330D01*
X048688Y004275D01*
X048698Y004219D01*
X048703Y004162D01*
X048703Y004104D01*
X048698Y004047D01*
X048688Y003991D01*
X048672Y003936D01*
X048652Y003882D01*
X048627Y003831D01*
X048597Y003782D01*
X048563Y003735D01*
X048525Y003693D01*
X048483Y003653D01*
X048437Y003618D01*
X048389Y003587D01*
X048338Y003561D01*
X048285Y003539D01*
X048230Y003523D01*
X048174Y003511D01*
X048117Y003504D01*
X048060Y003503D01*
X048002Y003507D01*
X047946Y003516D01*
X047890Y003530D01*
X047836Y003550D01*
X047784Y003574D01*
X047734Y003602D01*
X047688Y003635D01*
X047644Y003673D01*
X047604Y003714D01*
X047568Y003758D01*
X047536Y003806D01*
X047508Y003856D01*
X047485Y003909D01*
X047467Y003963D01*
X047454Y004019D01*
X047447Y004076D01*
X047444Y004133D01*
D11*
X046724Y004133D02*
X046730Y004256D01*
X046746Y004378D01*
X046774Y004497D01*
X046813Y004614D01*
X046862Y004727D01*
X046921Y004834D01*
X046989Y004936D01*
X047067Y005032D01*
X047153Y005120D01*
X047246Y005199D01*
X047346Y005270D01*
X047453Y005332D01*
X047564Y005383D01*
X047680Y005424D01*
X047799Y005455D01*
X047921Y005474D01*
X048043Y005483D01*
X048166Y005480D01*
X048288Y005466D01*
X048409Y005441D01*
X048526Y005405D01*
X048640Y005359D01*
X048749Y005302D01*
X048853Y005236D01*
X048950Y005161D01*
X049039Y005077D01*
X049121Y004985D01*
X049194Y004886D01*
X049258Y004781D01*
X049312Y004671D01*
X049356Y004556D01*
X049389Y004438D01*
X049411Y004317D01*
X049423Y004194D01*
X049423Y004072D01*
X049411Y003949D01*
X049389Y003828D01*
X049356Y003710D01*
X049312Y003595D01*
X049258Y003485D01*
X049194Y003380D01*
X049121Y003281D01*
X049039Y003189D01*
X048950Y003105D01*
X048853Y003030D01*
X048749Y002964D01*
X048640Y002907D01*
X048526Y002861D01*
X048409Y002825D01*
X048288Y002800D01*
X048166Y002786D01*
X048043Y002783D01*
X047921Y002792D01*
X047799Y002811D01*
X047680Y002842D01*
X047564Y002883D01*
X047453Y002934D01*
X047346Y002996D01*
X047246Y003067D01*
X047153Y003146D01*
X047067Y003234D01*
X046989Y003330D01*
X046921Y003432D01*
X046862Y003539D01*
X046813Y003652D01*
X046774Y003769D01*
X046746Y003888D01*
X046730Y004010D01*
X046724Y004133D01*
X045544Y004058D02*
X045544Y003844D01*
X045544Y003951D02*
X044904Y003951D01*
X045011Y003844D01*
X044904Y003414D02*
X045544Y003414D01*
X045544Y003307D02*
X045544Y003521D01*
X045011Y003307D02*
X044904Y003414D01*
X044544Y003414D02*
X043904Y003414D01*
X044011Y003307D01*
X043904Y003090D02*
X044544Y003090D01*
X044544Y003307D02*
X044544Y003521D01*
X044544Y003844D02*
X044544Y004058D01*
X044544Y003951D02*
X043904Y003951D01*
X044011Y003844D01*
X043544Y003844D02*
X043544Y004058D01*
X043544Y003951D02*
X042904Y003951D01*
X042904Y003844D01*
X042904Y003414D02*
X042797Y003414D01*
X043117Y003414D02*
X043544Y003414D01*
X043544Y003307D02*
X043544Y003521D01*
X043117Y003414D02*
X043117Y003307D01*
X042904Y003090D02*
X042904Y002663D01*
X043544Y002663D01*
X043224Y002663D02*
X043224Y002876D01*
X043904Y002663D02*
X044117Y002876D01*
X043904Y003090D01*
X043904Y002663D02*
X044544Y002663D01*
X044904Y002663D02*
X045117Y002876D01*
X044904Y003090D01*
X045544Y003090D01*
X045544Y002663D02*
X044904Y002663D01*
X045011Y004381D02*
X044904Y004488D01*
X045544Y004488D01*
X045544Y004381D02*
X045544Y004595D01*
X045544Y004919D02*
X044904Y005346D01*
X044904Y005563D02*
X045117Y005777D01*
X044904Y005990D01*
X045544Y005990D01*
X045544Y006208D02*
X045544Y006421D01*
X045544Y006314D02*
X044904Y006314D01*
X045011Y006208D01*
X044544Y006208D02*
X044544Y006421D01*
X044544Y006314D02*
X043904Y006314D01*
X044011Y006208D01*
X043904Y005990D02*
X044544Y005990D01*
X044117Y005777D02*
X043904Y005990D01*
X044117Y005777D02*
X043904Y005563D01*
X044544Y005563D01*
X044904Y005563D02*
X045544Y005563D01*
X044544Y004919D02*
X043904Y005346D01*
X043544Y005670D02*
X043438Y005563D01*
X043011Y005563D01*
X042904Y005670D01*
X042904Y005883D01*
X043011Y005990D01*
X043438Y005990D01*
X043544Y005883D01*
X043544Y005670D01*
X043544Y006208D02*
X043117Y006208D01*
X043117Y006528D01*
X043224Y006635D01*
X043544Y006635D01*
X043544Y006852D02*
X043544Y007066D01*
X043544Y006959D02*
X042904Y006959D01*
X042904Y006852D01*
X043117Y007389D02*
X043438Y007389D01*
X043544Y007496D01*
X043544Y007816D01*
X043651Y007816D02*
X043117Y007816D01*
X043651Y007816D02*
X043758Y007709D01*
X043758Y007603D01*
X043904Y007709D02*
X043904Y007282D01*
X044224Y007282D01*
X044117Y007495D01*
X044117Y007602D01*
X044224Y007709D01*
X044438Y007709D01*
X044544Y007602D01*
X044544Y007389D01*
X044438Y007282D01*
X044544Y006958D02*
X044544Y006745D01*
X044544Y006851D02*
X043904Y006851D01*
X044011Y006745D01*
X044904Y006851D02*
X045011Y006745D01*
X044904Y006851D02*
X045544Y006851D01*
X045544Y006745D02*
X045544Y006958D01*
X045438Y007282D02*
X045544Y007389D01*
X045544Y007602D01*
X045438Y007709D01*
X045331Y007709D01*
X045224Y007602D01*
X045224Y007495D01*
X045224Y007602D02*
X045117Y007709D01*
X045011Y007709D01*
X044904Y007602D01*
X044904Y007389D01*
X045011Y007282D01*
X044544Y007926D02*
X043904Y008353D01*
X043904Y008571D02*
X044117Y008784D01*
X043904Y008998D01*
X044544Y008998D01*
X044544Y009215D02*
X044117Y009642D01*
X044011Y009642D01*
X043904Y009536D01*
X043904Y009322D01*
X044011Y009215D01*
X043544Y009323D02*
X043117Y009323D01*
X043117Y009643D01*
X043224Y009750D01*
X043544Y009750D01*
X043438Y009967D02*
X043224Y009967D01*
X043117Y010074D01*
X043117Y010288D01*
X043224Y010394D01*
X043331Y010394D01*
X043331Y009967D01*
X043438Y009967D02*
X043544Y010074D01*
X043544Y010288D01*
X043904Y010180D02*
X043904Y009967D01*
X044011Y009860D01*
X044438Y009860D01*
X044011Y010287D01*
X044438Y010287D01*
X044544Y010180D01*
X044544Y009967D01*
X044438Y009860D01*
X044544Y009642D02*
X044544Y009215D01*
X044904Y009322D02*
X045544Y009322D01*
X045544Y009215D02*
X045544Y009429D01*
X045544Y009752D02*
X045544Y009966D01*
X045544Y009859D02*
X044904Y009859D01*
X045011Y009752D01*
X044904Y009322D02*
X045011Y009215D01*
X044904Y008998D02*
X045544Y008998D01*
X045544Y008571D02*
X044904Y008571D01*
X045117Y008784D01*
X044904Y008998D01*
X044544Y008571D02*
X043904Y008571D01*
X043544Y008785D02*
X043544Y008999D01*
X043438Y009105D01*
X043011Y009105D01*
X042904Y008999D01*
X042904Y008785D01*
X043011Y008678D01*
X043438Y008678D01*
X043544Y008785D01*
X044904Y008353D02*
X045544Y007926D01*
X041924Y010133D02*
X039224Y010133D01*
X039204Y010135D01*
X039186Y010141D01*
X039168Y010150D01*
X039153Y010162D01*
X039141Y010177D01*
X039132Y010195D01*
X039126Y010213D01*
X039124Y010233D01*
X039124Y011033D01*
X039126Y011053D01*
X039132Y011071D01*
X039141Y011089D01*
X039153Y011104D01*
X039168Y011116D01*
X039186Y011125D01*
X039204Y011131D01*
X039224Y011133D01*
X041924Y011133D01*
X041944Y011131D01*
X041962Y011125D01*
X041980Y011116D01*
X041995Y011104D01*
X042007Y011089D01*
X042016Y011071D01*
X042022Y011053D01*
X042024Y011033D01*
X042024Y010233D01*
X042022Y010213D01*
X042016Y010195D01*
X042007Y010177D01*
X041995Y010162D01*
X041980Y010150D01*
X041962Y010141D01*
X041944Y010135D01*
X041924Y010133D01*
X041174Y010633D02*
X040694Y010633D01*
X040444Y010633D02*
X039974Y010633D01*
X039954Y011383D02*
X041194Y011383D01*
X041217Y011385D01*
X041240Y011390D01*
X041262Y011399D01*
X041282Y011412D01*
X041300Y011427D01*
X041315Y011445D01*
X041328Y011465D01*
X041337Y011487D01*
X041342Y011510D01*
X041344Y011533D01*
X041344Y014733D01*
X041342Y014756D01*
X041337Y014779D01*
X041328Y014801D01*
X041315Y014821D01*
X041300Y014839D01*
X041282Y014854D01*
X041262Y014867D01*
X041240Y014876D01*
X041217Y014881D01*
X041194Y014883D01*
X039954Y014883D01*
X039931Y014881D01*
X039908Y014876D01*
X039886Y014867D01*
X039866Y014854D01*
X039848Y014839D01*
X039833Y014821D01*
X039820Y014801D01*
X039811Y014779D01*
X039806Y014756D01*
X039804Y014733D01*
X039804Y011533D01*
X039806Y011510D01*
X039811Y011487D01*
X039820Y011465D01*
X039833Y011445D01*
X039848Y011427D01*
X039866Y011412D01*
X039886Y011399D01*
X039908Y011390D01*
X039931Y011385D01*
X039954Y011383D01*
X040374Y011383D02*
X040376Y011410D01*
X040381Y011437D01*
X040391Y011463D01*
X040403Y011487D01*
X040419Y011509D01*
X040437Y011529D01*
X040459Y011546D01*
X040482Y011561D01*
X040507Y011571D01*
X040533Y011579D01*
X040560Y011583D01*
X040588Y011583D01*
X040615Y011579D01*
X040641Y011571D01*
X040666Y011561D01*
X040689Y011546D01*
X040711Y011529D01*
X040729Y011509D01*
X040745Y011487D01*
X040757Y011463D01*
X040767Y011437D01*
X040772Y011410D01*
X040774Y011383D01*
X042904Y011256D02*
X042904Y011577D01*
X043011Y011683D01*
X043224Y011683D01*
X043331Y011577D01*
X043331Y011256D01*
X043544Y011256D02*
X042904Y011256D01*
X043331Y011470D02*
X043544Y011683D01*
X043438Y011901D02*
X043544Y012008D01*
X043544Y012221D01*
X043438Y012328D01*
X043224Y012328D01*
X043117Y012221D01*
X043117Y012008D01*
X043224Y011901D01*
X043438Y011901D01*
X043904Y011793D02*
X044117Y012007D01*
X043904Y012220D01*
X044544Y012220D01*
X044544Y012438D02*
X044117Y012865D01*
X044011Y012865D01*
X043904Y012758D01*
X043904Y012545D01*
X044011Y012438D01*
X043544Y012652D02*
X043438Y012759D01*
X043544Y012866D01*
X043438Y012972D01*
X043117Y012972D01*
X043438Y013190D02*
X043438Y013297D01*
X043544Y013297D01*
X043544Y013190D01*
X043438Y013190D01*
X043904Y013189D02*
X043904Y013403D01*
X044011Y013510D01*
X044438Y013083D01*
X044544Y013189D01*
X044544Y013403D01*
X044438Y013510D01*
X044011Y013510D01*
X043904Y013727D02*
X043904Y014154D01*
X044011Y014154D01*
X044438Y013727D01*
X044544Y013727D01*
X044904Y013724D02*
X044904Y013297D01*
X044904Y013724D02*
X045011Y013724D01*
X045438Y013297D01*
X045544Y013297D01*
X045544Y012974D02*
X045544Y012760D01*
X045544Y012867D02*
X044904Y012867D01*
X045011Y012760D01*
X044544Y012865D02*
X044544Y012438D01*
X044904Y012330D02*
X045544Y012330D01*
X045544Y012223D02*
X045544Y012437D01*
X045011Y012223D02*
X044904Y012330D01*
X044904Y012006D02*
X045544Y012006D01*
X045544Y011579D02*
X044904Y011579D01*
X045117Y011792D01*
X044904Y012006D01*
X044544Y011793D02*
X043904Y011793D01*
X043904Y011576D02*
X044544Y011149D01*
X044438Y010931D02*
X044331Y010931D01*
X044224Y010825D01*
X044224Y010504D01*
X044438Y010504D01*
X044544Y010611D01*
X044544Y010825D01*
X044438Y010931D01*
X044011Y010718D02*
X044224Y010504D01*
X044011Y010718D02*
X043904Y010931D01*
X044011Y010287D02*
X043904Y010180D01*
X044904Y010290D02*
X045224Y010290D01*
X045117Y010503D01*
X045117Y010610D01*
X045224Y010717D01*
X045438Y010717D01*
X045544Y010610D01*
X045544Y010396D01*
X045438Y010290D01*
X044904Y010290D02*
X044904Y010717D01*
X044904Y011361D02*
X045544Y010934D01*
X043544Y012652D02*
X043438Y012545D01*
X043117Y012545D01*
X043904Y013189D02*
X044011Y013083D01*
X044438Y013083D01*
X044904Y014369D02*
X045544Y013942D01*
X045544Y014586D02*
X044904Y014586D01*
X045117Y014800D01*
X044904Y015013D01*
X045544Y015013D01*
X045544Y015231D02*
X045544Y015444D01*
X045544Y015338D02*
X044904Y015338D01*
X045011Y015231D01*
X045011Y015768D02*
X044904Y015875D01*
X045544Y015875D01*
X045544Y015981D02*
X045544Y015768D01*
X045438Y016305D02*
X045544Y016412D01*
X045544Y016625D01*
X045438Y016732D01*
X045011Y016732D01*
X044904Y016625D01*
X044904Y016412D01*
X045011Y016305D01*
X045117Y016305D01*
X045224Y016412D01*
X045224Y016732D01*
X045544Y016950D02*
X044904Y017377D01*
X044904Y017594D02*
X045117Y017808D01*
X044904Y018021D01*
X045544Y018021D01*
X045544Y018239D02*
X045117Y018666D01*
X045011Y018666D01*
X044904Y018559D01*
X044904Y018345D01*
X045011Y018239D01*
X044544Y018345D02*
X044117Y018558D01*
X044224Y018776D02*
X044117Y018883D01*
X044117Y019096D01*
X044224Y019203D01*
X044331Y019203D01*
X044331Y018776D01*
X044438Y018776D02*
X044224Y018776D01*
X044438Y018776D02*
X044544Y018883D01*
X044544Y019096D01*
X044904Y018990D02*
X045011Y018883D01*
X045438Y018883D01*
X045011Y019310D01*
X045438Y019310D01*
X045544Y019203D01*
X045544Y018990D01*
X045438Y018883D01*
X045544Y018666D02*
X045544Y018239D01*
X045544Y017594D02*
X044904Y017594D01*
X044544Y017594D02*
X044438Y017487D01*
X044224Y017487D01*
X044117Y017594D01*
X044117Y017807D01*
X044224Y017914D01*
X044438Y017914D01*
X044544Y017807D01*
X044544Y017594D01*
X044544Y017269D02*
X044224Y017269D01*
X044117Y017162D01*
X044224Y017056D01*
X044544Y017056D01*
X044544Y016842D02*
X044117Y016842D01*
X044117Y016949D01*
X044224Y017056D01*
X044224Y016625D02*
X044117Y016518D01*
X044117Y016304D01*
X044224Y016198D01*
X044438Y016198D01*
X044544Y016304D01*
X044544Y016518D01*
X044331Y016625D02*
X044331Y016198D01*
X044224Y015980D02*
X044011Y015980D01*
X043904Y015873D01*
X043904Y015553D01*
X044544Y015553D01*
X044331Y015553D02*
X044331Y015873D01*
X044224Y015980D01*
X044331Y015767D02*
X044544Y015980D01*
X044331Y016625D02*
X044224Y016625D01*
X042024Y016733D02*
X042024Y017533D01*
X042022Y017553D01*
X042016Y017571D01*
X042007Y017589D01*
X041995Y017604D01*
X041980Y017616D01*
X041962Y017625D01*
X041944Y017631D01*
X041924Y017633D01*
X039224Y017633D01*
X039204Y017631D01*
X039186Y017625D01*
X039168Y017616D01*
X039153Y017604D01*
X039141Y017589D01*
X039132Y017571D01*
X039126Y017553D01*
X039124Y017533D01*
X039124Y016733D01*
X039126Y016713D01*
X039132Y016695D01*
X039141Y016677D01*
X039153Y016662D01*
X039168Y016650D01*
X039186Y016641D01*
X039204Y016635D01*
X039224Y016633D01*
X041924Y016633D01*
X041944Y016635D01*
X041962Y016641D01*
X041980Y016650D01*
X041995Y016662D01*
X042007Y016677D01*
X042016Y016695D01*
X042022Y016713D01*
X042024Y016733D01*
X041174Y017133D02*
X040694Y017133D01*
X040444Y017133D02*
X039974Y017133D01*
X039954Y017883D02*
X041194Y017883D01*
X041217Y017885D01*
X041240Y017890D01*
X041262Y017899D01*
X041282Y017912D01*
X041300Y017927D01*
X041315Y017945D01*
X041328Y017965D01*
X041337Y017987D01*
X041342Y018010D01*
X041344Y018033D01*
X041344Y021233D01*
X041342Y021256D01*
X041337Y021279D01*
X041328Y021301D01*
X041315Y021321D01*
X041300Y021339D01*
X041282Y021354D01*
X041262Y021367D01*
X041240Y021376D01*
X041217Y021381D01*
X041194Y021383D01*
X039954Y021383D01*
X039931Y021381D01*
X039908Y021376D01*
X039886Y021367D01*
X039866Y021354D01*
X039848Y021339D01*
X039833Y021321D01*
X039820Y021301D01*
X039811Y021279D01*
X039806Y021256D01*
X039804Y021233D01*
X039804Y018033D01*
X039806Y018010D01*
X039811Y017987D01*
X039820Y017965D01*
X039833Y017945D01*
X039848Y017927D01*
X039866Y017912D01*
X039886Y017899D01*
X039908Y017890D01*
X039931Y017885D01*
X039954Y017883D01*
X040374Y017883D02*
X040376Y017910D01*
X040381Y017937D01*
X040391Y017963D01*
X040403Y017987D01*
X040419Y018009D01*
X040437Y018029D01*
X040459Y018046D01*
X040482Y018061D01*
X040507Y018071D01*
X040533Y018079D01*
X040560Y018083D01*
X040588Y018083D01*
X040615Y018079D01*
X040641Y018071D01*
X040666Y018061D01*
X040689Y018046D01*
X040711Y018029D01*
X040729Y018009D01*
X040745Y017987D01*
X040757Y017963D01*
X040767Y017937D01*
X040772Y017910D01*
X040774Y017883D01*
X044117Y018131D02*
X044544Y018345D01*
X044904Y018990D02*
X044904Y019203D01*
X045011Y019310D01*
X045224Y019528D02*
X045011Y019741D01*
X044904Y019955D01*
X045224Y019848D02*
X045224Y019528D01*
X045438Y019528D01*
X045544Y019634D01*
X045544Y019848D01*
X045438Y019955D01*
X045331Y019955D01*
X045224Y019848D01*
X045544Y020172D02*
X044904Y020599D01*
X044904Y020817D02*
X045117Y021030D01*
X044904Y021244D01*
X045544Y021244D01*
X045544Y021461D02*
X045117Y021888D01*
X045011Y021888D01*
X044904Y021781D01*
X044904Y021568D01*
X045011Y021461D01*
X044544Y021354D02*
X044544Y021674D01*
X044438Y021781D01*
X044331Y021674D01*
X044331Y021461D01*
X044224Y021354D01*
X044117Y021461D01*
X044117Y021781D01*
X044117Y021998D02*
X044117Y022105D01*
X044544Y022105D01*
X044544Y021998D02*
X044544Y022212D01*
X044544Y022536D02*
X044544Y022856D01*
X044438Y022963D01*
X044331Y022856D01*
X044331Y022642D01*
X044224Y022536D01*
X044117Y022642D01*
X044117Y022963D01*
X044117Y023180D02*
X044117Y023394D01*
X044011Y023287D02*
X044438Y023287D01*
X044544Y023394D01*
X044438Y023717D02*
X044544Y023824D01*
X044544Y024037D01*
X044438Y024144D01*
X044224Y024144D01*
X044117Y024037D01*
X044117Y023824D01*
X044224Y023717D01*
X044438Y023717D01*
X044904Y023177D02*
X045011Y023177D01*
X045438Y022750D01*
X045544Y022750D01*
X045438Y022533D02*
X045011Y022533D01*
X045438Y022106D01*
X045544Y022213D01*
X045544Y022426D01*
X045438Y022533D01*
X045438Y022106D02*
X045011Y022106D01*
X044904Y022213D01*
X044904Y022426D01*
X045011Y022533D01*
X044904Y022750D02*
X044904Y023177D01*
X044544Y024362D02*
X044117Y024362D01*
X044117Y024575D02*
X044117Y024682D01*
X044117Y024575D02*
X044331Y024362D01*
X044224Y025006D02*
X044117Y025113D01*
X044117Y025433D01*
X044331Y025326D02*
X044331Y025113D01*
X044224Y025006D01*
X044544Y025006D02*
X044544Y025326D01*
X044438Y025433D01*
X044331Y025326D01*
X044438Y025651D02*
X044438Y025757D01*
X044544Y025757D01*
X044544Y025651D01*
X044438Y025651D01*
X046724Y024133D02*
X046730Y024256D01*
X046746Y024378D01*
X046774Y024497D01*
X046813Y024614D01*
X046862Y024727D01*
X046921Y024834D01*
X046989Y024936D01*
X047067Y025032D01*
X047153Y025120D01*
X047246Y025199D01*
X047346Y025270D01*
X047453Y025332D01*
X047564Y025383D01*
X047680Y025424D01*
X047799Y025455D01*
X047921Y025474D01*
X048043Y025483D01*
X048166Y025480D01*
X048288Y025466D01*
X048409Y025441D01*
X048526Y025405D01*
X048640Y025359D01*
X048749Y025302D01*
X048853Y025236D01*
X048950Y025161D01*
X049039Y025077D01*
X049121Y024985D01*
X049194Y024886D01*
X049258Y024781D01*
X049312Y024671D01*
X049356Y024556D01*
X049389Y024438D01*
X049411Y024317D01*
X049423Y024194D01*
X049423Y024072D01*
X049411Y023949D01*
X049389Y023828D01*
X049356Y023710D01*
X049312Y023595D01*
X049258Y023485D01*
X049194Y023380D01*
X049121Y023281D01*
X049039Y023189D01*
X048950Y023105D01*
X048853Y023030D01*
X048749Y022964D01*
X048640Y022907D01*
X048526Y022861D01*
X048409Y022825D01*
X048288Y022800D01*
X048166Y022786D01*
X048043Y022783D01*
X047921Y022792D01*
X047799Y022811D01*
X047680Y022842D01*
X047564Y022883D01*
X047453Y022934D01*
X047346Y022996D01*
X047246Y023067D01*
X047153Y023146D01*
X047067Y023234D01*
X046989Y023330D01*
X046921Y023432D01*
X046862Y023539D01*
X046813Y023652D01*
X046774Y023769D01*
X046746Y023888D01*
X046730Y024010D01*
X046724Y024133D01*
X043904Y022105D02*
X043797Y022105D01*
X045544Y021888D02*
X045544Y021461D01*
X045544Y020817D02*
X044904Y020817D01*
X044544Y020816D02*
X044544Y021030D01*
X044544Y020816D02*
X044438Y020709D01*
X044224Y020709D01*
X044117Y020816D01*
X044117Y021030D01*
X044224Y021136D01*
X044331Y021136D01*
X044331Y020709D01*
X044224Y020492D02*
X044011Y020492D01*
X043904Y020385D01*
X043904Y020065D01*
X044544Y020065D01*
X044331Y020065D02*
X044331Y020385D01*
X044224Y020492D01*
X044331Y020278D02*
X044544Y020492D01*
X038874Y021833D02*
X038774Y021833D01*
X038874Y021833D02*
X038874Y021933D01*
X038374Y021833D02*
X038274Y021833D01*
X038274Y021933D01*
X038274Y022333D02*
X038274Y022433D01*
X038374Y022433D01*
X038774Y022433D02*
X038874Y022433D01*
X038874Y022333D01*
X037924Y022733D02*
X037924Y023533D01*
X037922Y023553D01*
X037916Y023571D01*
X037907Y023589D01*
X037895Y023604D01*
X037880Y023616D01*
X037862Y023625D01*
X037844Y023631D01*
X037824Y023633D01*
X035324Y023633D01*
X035304Y023631D01*
X035286Y023625D01*
X035268Y023616D01*
X035253Y023604D01*
X035241Y023589D01*
X035232Y023571D01*
X035226Y023553D01*
X035224Y023533D01*
X035224Y022733D01*
X035226Y022713D01*
X035232Y022695D01*
X035241Y022677D01*
X035253Y022662D01*
X035268Y022650D01*
X035286Y022641D01*
X035304Y022635D01*
X035324Y022633D01*
X037824Y022633D01*
X037844Y022635D01*
X037862Y022641D01*
X037880Y022650D01*
X037895Y022662D01*
X037907Y022677D01*
X037916Y022695D01*
X037922Y022713D01*
X037924Y022733D01*
X038274Y023833D02*
X038274Y023933D01*
X038274Y023833D02*
X038374Y023833D01*
X038774Y023833D02*
X038874Y023833D01*
X038874Y023933D01*
X038874Y024333D02*
X038874Y024433D01*
X038774Y024433D01*
X038374Y024433D02*
X038274Y024433D01*
X038274Y024333D01*
X037924Y024733D02*
X037924Y025533D01*
X037922Y025553D01*
X037916Y025571D01*
X037907Y025589D01*
X037895Y025604D01*
X037880Y025616D01*
X037862Y025625D01*
X037844Y025631D01*
X037824Y025633D01*
X035324Y025633D01*
X035304Y025631D01*
X035286Y025625D01*
X035268Y025616D01*
X035253Y025604D01*
X035241Y025589D01*
X035232Y025571D01*
X035226Y025553D01*
X035224Y025533D01*
X035224Y024733D01*
X035226Y024713D01*
X035232Y024695D01*
X035241Y024677D01*
X035253Y024662D01*
X035268Y024650D01*
X035286Y024641D01*
X035304Y024635D01*
X035324Y024633D01*
X037824Y024633D01*
X037844Y024635D01*
X037862Y024641D01*
X037880Y024650D01*
X037895Y024662D01*
X037907Y024677D01*
X037916Y024695D01*
X037922Y024713D01*
X037924Y024733D01*
X034874Y024433D02*
X034774Y024433D01*
X034874Y024433D02*
X034874Y024333D01*
X034374Y024433D02*
X034274Y024433D01*
X034274Y024333D01*
X034176Y024197D02*
X034069Y024303D01*
X033856Y024303D01*
X033749Y024197D01*
X033531Y024303D02*
X033104Y023876D01*
X033211Y023983D02*
X033531Y023663D01*
X033749Y023663D02*
X034176Y024090D01*
X034176Y024197D01*
X034274Y023933D02*
X034274Y023833D01*
X034374Y023833D01*
X034176Y023663D02*
X033749Y023663D01*
X033856Y023303D02*
X033856Y022663D01*
X033749Y022663D02*
X033963Y022663D01*
X034274Y022433D02*
X034274Y022333D01*
X034274Y022433D02*
X034374Y022433D01*
X034176Y022197D02*
X034069Y022303D01*
X033856Y022303D01*
X033749Y022197D01*
X033531Y022303D02*
X033104Y021876D01*
X033211Y021983D02*
X033531Y021663D01*
X033749Y021663D02*
X034176Y022090D01*
X034176Y022197D01*
X034274Y021933D02*
X034274Y021833D01*
X034374Y021833D01*
X034176Y021663D02*
X033749Y021663D01*
X033104Y021663D02*
X033104Y022303D01*
X033104Y022663D02*
X033104Y023090D01*
X033318Y023303D01*
X033531Y023090D01*
X033531Y022663D01*
X033531Y022983D02*
X033104Y022983D01*
X033749Y023197D02*
X033856Y023303D01*
X033104Y023663D02*
X033104Y024303D01*
X033104Y024663D02*
X033104Y025090D01*
X033318Y025303D01*
X033531Y025090D01*
X033531Y024663D01*
X033749Y024663D02*
X033963Y024663D01*
X033856Y024663D02*
X033856Y025303D01*
X033749Y025197D01*
X033531Y024983D02*
X033104Y024983D01*
X034774Y023833D02*
X034874Y023833D01*
X034874Y023933D01*
X034874Y022433D02*
X034774Y022433D01*
X034874Y022433D02*
X034874Y022333D01*
X034874Y021933D02*
X034874Y021833D01*
X034774Y021833D01*
X035304Y021233D02*
X035304Y018033D01*
X035306Y018010D01*
X035311Y017987D01*
X035320Y017965D01*
X035333Y017945D01*
X035348Y017927D01*
X035366Y017912D01*
X035386Y017899D01*
X035408Y017890D01*
X035431Y017885D01*
X035454Y017883D01*
X036694Y017883D01*
X036717Y017885D01*
X036740Y017890D01*
X036762Y017899D01*
X036782Y017912D01*
X036800Y017927D01*
X036815Y017945D01*
X036828Y017965D01*
X036837Y017987D01*
X036842Y018010D01*
X036844Y018033D01*
X036844Y021233D01*
X036842Y021256D01*
X036837Y021279D01*
X036828Y021301D01*
X036815Y021321D01*
X036800Y021339D01*
X036782Y021354D01*
X036762Y021367D01*
X036740Y021376D01*
X036717Y021381D01*
X036694Y021383D01*
X035454Y021383D01*
X035431Y021381D01*
X035408Y021376D01*
X035386Y021367D01*
X035366Y021354D01*
X035348Y021339D01*
X035333Y021321D01*
X035320Y021301D01*
X035311Y021279D01*
X035306Y021256D01*
X035304Y021233D01*
X032344Y021233D02*
X032344Y018033D01*
X032342Y018010D01*
X032337Y017987D01*
X032328Y017965D01*
X032315Y017945D01*
X032300Y017927D01*
X032282Y017912D01*
X032262Y017899D01*
X032240Y017890D01*
X032217Y017885D01*
X032194Y017883D01*
X030954Y017883D01*
X030931Y017885D01*
X030908Y017890D01*
X030886Y017899D01*
X030866Y017912D01*
X030848Y017927D01*
X030833Y017945D01*
X030820Y017965D01*
X030811Y017987D01*
X030806Y018010D01*
X030804Y018033D01*
X030804Y021233D01*
X030806Y021256D01*
X030811Y021279D01*
X030820Y021301D01*
X030833Y021321D01*
X030848Y021339D01*
X030866Y021354D01*
X030886Y021367D01*
X030908Y021376D01*
X030931Y021381D01*
X030954Y021383D01*
X032194Y021383D01*
X032217Y021381D01*
X032240Y021376D01*
X032262Y021367D01*
X032282Y021354D01*
X032300Y021339D01*
X032315Y021321D01*
X032328Y021301D01*
X032337Y021279D01*
X032342Y021256D01*
X032344Y021233D01*
X027844Y021233D02*
X027844Y018033D01*
X027842Y018010D01*
X027837Y017987D01*
X027828Y017965D01*
X027815Y017945D01*
X027800Y017927D01*
X027782Y017912D01*
X027762Y017899D01*
X027740Y017890D01*
X027717Y017885D01*
X027694Y017883D01*
X026454Y017883D01*
X026431Y017885D01*
X026408Y017890D01*
X026386Y017899D01*
X026366Y017912D01*
X026348Y017927D01*
X026333Y017945D01*
X026320Y017965D01*
X026311Y017987D01*
X026306Y018010D01*
X026304Y018033D01*
X026304Y021233D01*
X026306Y021256D01*
X026311Y021279D01*
X026320Y021301D01*
X026333Y021321D01*
X026348Y021339D01*
X026366Y021354D01*
X026386Y021367D01*
X026408Y021376D01*
X026431Y021381D01*
X026454Y021383D01*
X027694Y021383D01*
X027717Y021381D01*
X027740Y021376D01*
X027762Y021367D01*
X027782Y021354D01*
X027800Y021339D01*
X027815Y021321D01*
X027828Y021301D01*
X027837Y021279D01*
X027842Y021256D01*
X027844Y021233D01*
X023324Y021783D02*
X023324Y022483D01*
X023322Y022503D01*
X023316Y022521D01*
X023307Y022539D01*
X023295Y022554D01*
X023280Y022566D01*
X023262Y022575D01*
X023244Y022581D01*
X023224Y022583D01*
X023074Y022583D01*
X023024Y022533D01*
X021124Y022533D01*
X021074Y022583D01*
X020924Y022583D01*
X020924Y022683D02*
X021074Y022683D01*
X021124Y022733D01*
X023024Y022733D01*
X023074Y022683D01*
X023224Y022683D01*
X023244Y022685D01*
X023262Y022691D01*
X023280Y022700D01*
X023295Y022712D01*
X023307Y022727D01*
X023316Y022745D01*
X023322Y022763D01*
X023324Y022783D01*
X023324Y023483D01*
X023322Y023503D01*
X023316Y023521D01*
X023307Y023539D01*
X023295Y023554D01*
X023280Y023566D01*
X023262Y023575D01*
X023244Y023581D01*
X023224Y023583D01*
X023074Y023583D01*
X023024Y023533D01*
X021124Y023533D01*
X021074Y023583D01*
X020924Y023583D01*
X020924Y023683D02*
X021074Y023683D01*
X021124Y023733D01*
X023024Y023733D01*
X023074Y023683D01*
X023224Y023683D01*
X023244Y023685D01*
X023262Y023691D01*
X023280Y023700D01*
X023295Y023712D01*
X023307Y023727D01*
X023316Y023745D01*
X023322Y023763D01*
X023324Y023783D01*
X023324Y024483D01*
X023322Y024503D01*
X023316Y024521D01*
X023307Y024539D01*
X023295Y024554D01*
X023280Y024566D01*
X023262Y024575D01*
X023244Y024581D01*
X023224Y024583D01*
X023074Y024583D01*
X023024Y024533D01*
X021124Y024533D01*
X021074Y024583D01*
X020924Y024583D01*
X020924Y024683D02*
X021074Y024683D01*
X021124Y024733D01*
X023024Y024733D01*
X023074Y024683D01*
X023224Y024683D01*
X023244Y024685D01*
X023262Y024691D01*
X023280Y024700D01*
X023295Y024712D01*
X023307Y024727D01*
X023316Y024745D01*
X023322Y024763D01*
X023324Y024783D01*
X023324Y025483D01*
X023322Y025503D01*
X023316Y025521D01*
X023307Y025539D01*
X023295Y025554D01*
X023280Y025566D01*
X023262Y025575D01*
X023244Y025581D01*
X023224Y025583D01*
X023074Y025583D01*
X023024Y025533D01*
X021124Y025533D01*
X021074Y025583D01*
X020924Y025583D01*
X020904Y025581D01*
X020886Y025575D01*
X020868Y025566D01*
X020853Y025554D01*
X020841Y025539D01*
X020832Y025521D01*
X020826Y025503D01*
X020824Y025483D01*
X020824Y024783D01*
X020826Y024763D01*
X020832Y024745D01*
X020841Y024727D01*
X020853Y024712D01*
X020868Y024700D01*
X020886Y024691D01*
X020904Y024685D01*
X020924Y024683D01*
X020924Y024583D02*
X020904Y024581D01*
X020886Y024575D01*
X020868Y024566D01*
X020853Y024554D01*
X020841Y024539D01*
X020832Y024521D01*
X020826Y024503D01*
X020824Y024483D01*
X020824Y023783D01*
X020826Y023763D01*
X020832Y023745D01*
X020841Y023727D01*
X020853Y023712D01*
X020868Y023700D01*
X020886Y023691D01*
X020904Y023685D01*
X020924Y023683D01*
X020924Y023583D02*
X020904Y023581D01*
X020886Y023575D01*
X020868Y023566D01*
X020853Y023554D01*
X020841Y023539D01*
X020832Y023521D01*
X020826Y023503D01*
X020824Y023483D01*
X020824Y022783D01*
X020826Y022763D01*
X020832Y022745D01*
X020841Y022727D01*
X020853Y022712D01*
X020868Y022700D01*
X020886Y022691D01*
X020904Y022685D01*
X020924Y022683D01*
X020924Y022583D02*
X020904Y022581D01*
X020886Y022575D01*
X020868Y022566D01*
X020853Y022554D01*
X020841Y022539D01*
X020832Y022521D01*
X020826Y022503D01*
X020824Y022483D01*
X020824Y021783D01*
X020826Y021763D01*
X020832Y021745D01*
X020841Y021727D01*
X020853Y021712D01*
X020868Y021700D01*
X020886Y021691D01*
X020904Y021685D01*
X020924Y021683D01*
X021074Y021683D01*
X021124Y021733D01*
X023024Y021733D01*
X023074Y021683D01*
X023224Y021683D01*
X023244Y021685D01*
X023262Y021691D01*
X023280Y021700D01*
X023295Y021712D01*
X023307Y021727D01*
X023316Y021745D01*
X023322Y021763D01*
X023324Y021783D01*
X022844Y021233D02*
X022844Y018033D01*
X022842Y018010D01*
X022837Y017987D01*
X022828Y017965D01*
X022815Y017945D01*
X022800Y017927D01*
X022782Y017912D01*
X022762Y017899D01*
X022740Y017890D01*
X022717Y017885D01*
X022694Y017883D01*
X021454Y017883D01*
X021431Y017885D01*
X021408Y017890D01*
X021386Y017899D01*
X021366Y017912D01*
X021348Y017927D01*
X021333Y017945D01*
X021320Y017965D01*
X021311Y017987D01*
X021306Y018010D01*
X021304Y018033D01*
X021304Y021233D01*
X021306Y021256D01*
X021311Y021279D01*
X021320Y021301D01*
X021333Y021321D01*
X021348Y021339D01*
X021366Y021354D01*
X021386Y021367D01*
X021408Y021376D01*
X021431Y021381D01*
X021454Y021383D01*
X022694Y021383D01*
X022717Y021381D01*
X022740Y021376D01*
X022762Y021367D01*
X022782Y021354D01*
X022800Y021339D01*
X022815Y021321D01*
X022828Y021301D01*
X022837Y021279D01*
X022842Y021256D01*
X022844Y021233D01*
X017344Y021233D02*
X017344Y018033D01*
X017342Y018010D01*
X017337Y017987D01*
X017328Y017965D01*
X017315Y017945D01*
X017300Y017927D01*
X017282Y017912D01*
X017262Y017899D01*
X017240Y017890D01*
X017217Y017885D01*
X017194Y017883D01*
X015954Y017883D01*
X015931Y017885D01*
X015908Y017890D01*
X015886Y017899D01*
X015866Y017912D01*
X015848Y017927D01*
X015833Y017945D01*
X015820Y017965D01*
X015811Y017987D01*
X015806Y018010D01*
X015804Y018033D01*
X015804Y021233D01*
X015806Y021256D01*
X015811Y021279D01*
X015820Y021301D01*
X015833Y021321D01*
X015848Y021339D01*
X015866Y021354D01*
X015886Y021367D01*
X015908Y021376D01*
X015931Y021381D01*
X015954Y021383D01*
X017194Y021383D01*
X017217Y021381D01*
X017240Y021376D01*
X017262Y021367D01*
X017282Y021354D01*
X017300Y021339D01*
X017315Y021321D01*
X017328Y021301D01*
X017337Y021279D01*
X017342Y021256D01*
X017344Y021233D01*
X012344Y021233D02*
X012344Y018033D01*
X012342Y018010D01*
X012337Y017987D01*
X012328Y017965D01*
X012315Y017945D01*
X012300Y017927D01*
X012282Y017912D01*
X012262Y017899D01*
X012240Y017890D01*
X012217Y017885D01*
X012194Y017883D01*
X010954Y017883D01*
X010931Y017885D01*
X010908Y017890D01*
X010886Y017899D01*
X010866Y017912D01*
X010848Y017927D01*
X010833Y017945D01*
X010820Y017965D01*
X010811Y017987D01*
X010806Y018010D01*
X010804Y018033D01*
X010804Y021233D01*
X010806Y021256D01*
X010811Y021279D01*
X010820Y021301D01*
X010833Y021321D01*
X010848Y021339D01*
X010866Y021354D01*
X010886Y021367D01*
X010908Y021376D01*
X010931Y021381D01*
X010954Y021383D01*
X012194Y021383D01*
X012217Y021381D01*
X012240Y021376D01*
X012262Y021367D01*
X012282Y021354D01*
X012300Y021339D01*
X012315Y021321D01*
X012328Y021301D01*
X012337Y021279D01*
X012342Y021256D01*
X012344Y021233D01*
X012430Y024663D02*
X012323Y024769D01*
X012430Y024663D02*
X012643Y024663D01*
X012750Y024769D01*
X012750Y024876D01*
X012643Y024983D01*
X012537Y024983D01*
X012643Y024983D02*
X012750Y025090D01*
X012750Y025197D01*
X012643Y025303D01*
X012430Y025303D01*
X012323Y025197D01*
X011893Y025303D02*
X011893Y024663D01*
X011786Y024663D02*
X012000Y024663D01*
X011463Y024663D02*
X011249Y024663D01*
X011356Y024663D02*
X011356Y025303D01*
X011249Y025197D01*
X011031Y025303D02*
X010818Y025090D01*
X010604Y025303D01*
X010604Y024663D01*
X011031Y024663D02*
X011031Y025303D01*
X011786Y025197D02*
X011893Y025303D01*
X012968Y024663D02*
X013395Y025303D01*
X013612Y025303D02*
X013826Y025090D01*
X014039Y025303D01*
X014039Y024663D01*
X014257Y024663D02*
X014470Y024663D01*
X014364Y024663D02*
X014364Y025303D01*
X014257Y025197D01*
X014794Y025197D02*
X014901Y025303D01*
X014901Y024663D01*
X015007Y024663D02*
X014794Y024663D01*
X015331Y024663D02*
X015331Y024769D01*
X015758Y025197D01*
X015758Y025303D01*
X015331Y025303D01*
X015975Y024663D02*
X016402Y025303D01*
X016620Y025303D02*
X016834Y025090D01*
X017047Y025303D01*
X017047Y024663D01*
X017265Y024663D02*
X017478Y024663D01*
X017371Y024663D02*
X017371Y025303D01*
X017265Y025197D01*
X017802Y025197D02*
X017908Y025303D01*
X017908Y024663D01*
X017802Y024663D02*
X018015Y024663D01*
X018339Y024769D02*
X018445Y024663D01*
X018659Y024663D01*
X018766Y024769D01*
X018766Y025197D01*
X018659Y025303D01*
X018445Y025303D01*
X018339Y025197D01*
X018339Y025090D01*
X018445Y024983D01*
X018766Y024983D01*
X018983Y024983D02*
X018983Y025090D01*
X019090Y025090D01*
X019090Y024983D01*
X018983Y024983D01*
X018983Y024769D02*
X018983Y024663D01*
X019090Y024663D01*
X019090Y024769D01*
X018983Y024769D01*
X016620Y024663D02*
X016620Y025303D01*
X013612Y025303D02*
X013612Y024663D01*
X011774Y017883D02*
X011772Y017910D01*
X011767Y017937D01*
X011757Y017963D01*
X011745Y017987D01*
X011729Y018009D01*
X011711Y018029D01*
X011689Y018046D01*
X011666Y018061D01*
X011641Y018071D01*
X011615Y018079D01*
X011588Y018083D01*
X011560Y018083D01*
X011533Y018079D01*
X011507Y018071D01*
X011482Y018061D01*
X011459Y018046D01*
X011437Y018029D01*
X011419Y018009D01*
X011403Y017987D01*
X011391Y017963D01*
X011381Y017937D01*
X011376Y017910D01*
X011374Y017883D01*
X010224Y017633D02*
X012924Y017633D01*
X012944Y017631D01*
X012962Y017625D01*
X012980Y017616D01*
X012995Y017604D01*
X013007Y017589D01*
X013016Y017571D01*
X013022Y017553D01*
X013024Y017533D01*
X013024Y016733D01*
X013022Y016713D01*
X013016Y016695D01*
X013007Y016677D01*
X012995Y016662D01*
X012980Y016650D01*
X012962Y016641D01*
X012944Y016635D01*
X012924Y016633D01*
X010224Y016633D01*
X010204Y016635D01*
X010186Y016641D01*
X010168Y016650D01*
X010153Y016662D01*
X010141Y016677D01*
X010132Y016695D01*
X010126Y016713D01*
X010124Y016733D01*
X010124Y017533D01*
X010126Y017553D01*
X010132Y017571D01*
X010141Y017589D01*
X010153Y017604D01*
X010168Y017616D01*
X010186Y017625D01*
X010204Y017631D01*
X010224Y017633D01*
X010974Y017133D02*
X011454Y017133D01*
X011704Y017133D02*
X012174Y017133D01*
X015124Y017533D02*
X015124Y016733D01*
X015126Y016713D01*
X015132Y016695D01*
X015141Y016677D01*
X015153Y016662D01*
X015168Y016650D01*
X015186Y016641D01*
X015204Y016635D01*
X015224Y016633D01*
X017924Y016633D01*
X017944Y016635D01*
X017962Y016641D01*
X017980Y016650D01*
X017995Y016662D01*
X018007Y016677D01*
X018016Y016695D01*
X018022Y016713D01*
X018024Y016733D01*
X018024Y017533D01*
X018022Y017553D01*
X018016Y017571D01*
X018007Y017589D01*
X017995Y017604D01*
X017980Y017616D01*
X017962Y017625D01*
X017944Y017631D01*
X017924Y017633D01*
X015224Y017633D01*
X015204Y017631D01*
X015186Y017625D01*
X015168Y017616D01*
X015153Y017604D01*
X015141Y017589D01*
X015132Y017571D01*
X015126Y017553D01*
X015124Y017533D01*
X015974Y017133D02*
X016454Y017133D01*
X016704Y017133D02*
X017174Y017133D01*
X016774Y017883D02*
X016772Y017910D01*
X016767Y017937D01*
X016757Y017963D01*
X016745Y017987D01*
X016729Y018009D01*
X016711Y018029D01*
X016689Y018046D01*
X016666Y018061D01*
X016641Y018071D01*
X016615Y018079D01*
X016588Y018083D01*
X016560Y018083D01*
X016533Y018079D01*
X016507Y018071D01*
X016482Y018061D01*
X016459Y018046D01*
X016437Y018029D01*
X016419Y018009D01*
X016403Y017987D01*
X016391Y017963D01*
X016381Y017937D01*
X016376Y017910D01*
X016374Y017883D01*
X020624Y017533D02*
X020624Y016733D01*
X020626Y016713D01*
X020632Y016695D01*
X020641Y016677D01*
X020653Y016662D01*
X020668Y016650D01*
X020686Y016641D01*
X020704Y016635D01*
X020724Y016633D01*
X023424Y016633D01*
X023444Y016635D01*
X023462Y016641D01*
X023480Y016650D01*
X023495Y016662D01*
X023507Y016677D01*
X023516Y016695D01*
X023522Y016713D01*
X023524Y016733D01*
X023524Y017533D01*
X023522Y017553D01*
X023516Y017571D01*
X023507Y017589D01*
X023495Y017604D01*
X023480Y017616D01*
X023462Y017625D01*
X023444Y017631D01*
X023424Y017633D01*
X020724Y017633D01*
X020704Y017631D01*
X020686Y017625D01*
X020668Y017616D01*
X020653Y017604D01*
X020641Y017589D01*
X020632Y017571D01*
X020626Y017553D01*
X020624Y017533D01*
X021474Y017133D02*
X021954Y017133D01*
X022204Y017133D02*
X022674Y017133D01*
X022274Y017883D02*
X022272Y017910D01*
X022267Y017937D01*
X022257Y017963D01*
X022245Y017987D01*
X022229Y018009D01*
X022211Y018029D01*
X022189Y018046D01*
X022166Y018061D01*
X022141Y018071D01*
X022115Y018079D01*
X022088Y018083D01*
X022060Y018083D01*
X022033Y018079D01*
X022007Y018071D01*
X021982Y018061D01*
X021959Y018046D01*
X021937Y018029D01*
X021919Y018009D01*
X021903Y017987D01*
X021891Y017963D01*
X021881Y017937D01*
X021876Y017910D01*
X021874Y017883D01*
X025624Y017533D02*
X025624Y016733D01*
X025626Y016713D01*
X025632Y016695D01*
X025641Y016677D01*
X025653Y016662D01*
X025668Y016650D01*
X025686Y016641D01*
X025704Y016635D01*
X025724Y016633D01*
X028424Y016633D01*
X028444Y016635D01*
X028462Y016641D01*
X028480Y016650D01*
X028495Y016662D01*
X028507Y016677D01*
X028516Y016695D01*
X028522Y016713D01*
X028524Y016733D01*
X028524Y017533D01*
X028522Y017553D01*
X028516Y017571D01*
X028507Y017589D01*
X028495Y017604D01*
X028480Y017616D01*
X028462Y017625D01*
X028444Y017631D01*
X028424Y017633D01*
X025724Y017633D01*
X025704Y017631D01*
X025686Y017625D01*
X025668Y017616D01*
X025653Y017604D01*
X025641Y017589D01*
X025632Y017571D01*
X025626Y017553D01*
X025624Y017533D01*
X026474Y017133D02*
X026954Y017133D01*
X027204Y017133D02*
X027674Y017133D01*
X027274Y017883D02*
X027272Y017910D01*
X027267Y017937D01*
X027257Y017963D01*
X027245Y017987D01*
X027229Y018009D01*
X027211Y018029D01*
X027189Y018046D01*
X027166Y018061D01*
X027141Y018071D01*
X027115Y018079D01*
X027088Y018083D01*
X027060Y018083D01*
X027033Y018079D01*
X027007Y018071D01*
X026982Y018061D01*
X026959Y018046D01*
X026937Y018029D01*
X026919Y018009D01*
X026903Y017987D01*
X026891Y017963D01*
X026881Y017937D01*
X026876Y017910D01*
X026874Y017883D01*
X030124Y017533D02*
X030124Y016733D01*
X030126Y016713D01*
X030132Y016695D01*
X030141Y016677D01*
X030153Y016662D01*
X030168Y016650D01*
X030186Y016641D01*
X030204Y016635D01*
X030224Y016633D01*
X032924Y016633D01*
X032944Y016635D01*
X032962Y016641D01*
X032980Y016650D01*
X032995Y016662D01*
X033007Y016677D01*
X033016Y016695D01*
X033022Y016713D01*
X033024Y016733D01*
X033024Y017533D01*
X033022Y017553D01*
X033016Y017571D01*
X033007Y017589D01*
X032995Y017604D01*
X032980Y017616D01*
X032962Y017625D01*
X032944Y017631D01*
X032924Y017633D01*
X030224Y017633D01*
X030204Y017631D01*
X030186Y017625D01*
X030168Y017616D01*
X030153Y017604D01*
X030141Y017589D01*
X030132Y017571D01*
X030126Y017553D01*
X030124Y017533D01*
X030974Y017133D02*
X031454Y017133D01*
X031704Y017133D02*
X032174Y017133D01*
X031774Y017883D02*
X031772Y017910D01*
X031767Y017937D01*
X031757Y017963D01*
X031745Y017987D01*
X031729Y018009D01*
X031711Y018029D01*
X031689Y018046D01*
X031666Y018061D01*
X031641Y018071D01*
X031615Y018079D01*
X031588Y018083D01*
X031560Y018083D01*
X031533Y018079D01*
X031507Y018071D01*
X031482Y018061D01*
X031459Y018046D01*
X031437Y018029D01*
X031419Y018009D01*
X031403Y017987D01*
X031391Y017963D01*
X031381Y017937D01*
X031376Y017910D01*
X031374Y017883D01*
X034624Y017533D02*
X034624Y016733D01*
X034626Y016713D01*
X034632Y016695D01*
X034641Y016677D01*
X034653Y016662D01*
X034668Y016650D01*
X034686Y016641D01*
X034704Y016635D01*
X034724Y016633D01*
X037424Y016633D01*
X037444Y016635D01*
X037462Y016641D01*
X037480Y016650D01*
X037495Y016662D01*
X037507Y016677D01*
X037516Y016695D01*
X037522Y016713D01*
X037524Y016733D01*
X037524Y017533D01*
X037522Y017553D01*
X037516Y017571D01*
X037507Y017589D01*
X037495Y017604D01*
X037480Y017616D01*
X037462Y017625D01*
X037444Y017631D01*
X037424Y017633D01*
X034724Y017633D01*
X034704Y017631D01*
X034686Y017625D01*
X034668Y017616D01*
X034653Y017604D01*
X034641Y017589D01*
X034632Y017571D01*
X034626Y017553D01*
X034624Y017533D01*
X035474Y017133D02*
X035954Y017133D01*
X036204Y017133D02*
X036674Y017133D01*
X036274Y017883D02*
X036272Y017910D01*
X036267Y017937D01*
X036257Y017963D01*
X036245Y017987D01*
X036229Y018009D01*
X036211Y018029D01*
X036189Y018046D01*
X036166Y018061D01*
X036141Y018071D01*
X036115Y018079D01*
X036088Y018083D01*
X036060Y018083D01*
X036033Y018079D01*
X036007Y018071D01*
X035982Y018061D01*
X035959Y018046D01*
X035937Y018029D01*
X035919Y018009D01*
X035903Y017987D01*
X035891Y017963D01*
X035881Y017937D01*
X035876Y017910D01*
X035874Y017883D01*
X033938Y015639D02*
X033831Y015639D01*
X033724Y015532D01*
X033724Y015212D01*
X033938Y015212D01*
X034044Y015318D01*
X034044Y015532D01*
X033938Y015639D01*
X033511Y015425D02*
X033724Y015212D01*
X033511Y015425D02*
X033404Y015639D01*
X033404Y014781D02*
X034044Y014781D01*
X034044Y014674D02*
X034044Y014888D01*
X034044Y014457D02*
X034044Y014030D01*
X033617Y014457D01*
X033511Y014457D01*
X033404Y014350D01*
X033404Y014137D01*
X033511Y014030D01*
X033404Y013812D02*
X034044Y013812D01*
X034044Y013385D02*
X033404Y013385D01*
X033617Y013599D01*
X033404Y013812D01*
X033404Y013168D02*
X034044Y012741D01*
X033938Y012523D02*
X033831Y012523D01*
X033724Y012417D01*
X033724Y012096D01*
X033938Y012096D01*
X034044Y012203D01*
X034044Y012417D01*
X033938Y012523D01*
X033511Y012310D02*
X033724Y012096D01*
X033511Y012310D02*
X033404Y012523D01*
X033511Y011879D02*
X033938Y011452D01*
X034044Y011559D01*
X034044Y011772D01*
X033938Y011879D01*
X033511Y011879D01*
X033404Y011772D01*
X033404Y011559D01*
X033511Y011452D01*
X033938Y011452D01*
X034044Y011234D02*
X034044Y010807D01*
X033617Y011234D01*
X033511Y011234D01*
X033404Y011128D01*
X033404Y010914D01*
X033511Y010807D01*
X033404Y010590D02*
X034044Y010590D01*
X033617Y010376D02*
X033404Y010590D01*
X033617Y010376D02*
X033404Y010163D01*
X034044Y010163D01*
X034624Y010233D02*
X034624Y011033D01*
X034626Y011053D01*
X034632Y011071D01*
X034641Y011089D01*
X034653Y011104D01*
X034668Y011116D01*
X034686Y011125D01*
X034704Y011131D01*
X034724Y011133D01*
X037424Y011133D01*
X037444Y011131D01*
X037462Y011125D01*
X037480Y011116D01*
X037495Y011104D01*
X037507Y011089D01*
X037516Y011071D01*
X037522Y011053D01*
X037524Y011033D01*
X037524Y010233D01*
X037522Y010213D01*
X037516Y010195D01*
X037507Y010177D01*
X037495Y010162D01*
X037480Y010150D01*
X037462Y010141D01*
X037444Y010135D01*
X037424Y010133D01*
X034724Y010133D01*
X034704Y010135D01*
X034686Y010141D01*
X034668Y010150D01*
X034653Y010162D01*
X034641Y010177D01*
X034632Y010195D01*
X034626Y010213D01*
X034624Y010233D01*
X035474Y010633D02*
X035954Y010633D01*
X036204Y010633D02*
X036674Y010633D01*
X036694Y011383D02*
X035454Y011383D01*
X035431Y011385D01*
X035408Y011390D01*
X035386Y011399D01*
X035366Y011412D01*
X035348Y011427D01*
X035333Y011445D01*
X035320Y011465D01*
X035311Y011487D01*
X035306Y011510D01*
X035304Y011533D01*
X035304Y014733D01*
X035306Y014756D01*
X035311Y014779D01*
X035320Y014801D01*
X035333Y014821D01*
X035348Y014839D01*
X035366Y014854D01*
X035386Y014867D01*
X035408Y014876D01*
X035431Y014881D01*
X035454Y014883D01*
X036694Y014883D01*
X036717Y014881D01*
X036740Y014876D01*
X036762Y014867D01*
X036782Y014854D01*
X036800Y014839D01*
X036815Y014821D01*
X036828Y014801D01*
X036837Y014779D01*
X036842Y014756D01*
X036844Y014733D01*
X036844Y011533D01*
X036842Y011510D01*
X036837Y011487D01*
X036828Y011465D01*
X036815Y011445D01*
X036800Y011427D01*
X036782Y011412D01*
X036762Y011399D01*
X036740Y011390D01*
X036717Y011385D01*
X036694Y011383D01*
X036274Y011383D02*
X036272Y011410D01*
X036267Y011437D01*
X036257Y011463D01*
X036245Y011487D01*
X036229Y011509D01*
X036211Y011529D01*
X036189Y011546D01*
X036166Y011561D01*
X036141Y011571D01*
X036115Y011579D01*
X036088Y011583D01*
X036060Y011583D01*
X036033Y011579D01*
X036007Y011571D01*
X035982Y011561D01*
X035959Y011546D01*
X035937Y011529D01*
X035919Y011509D01*
X035903Y011487D01*
X035891Y011463D01*
X035881Y011437D01*
X035876Y011410D01*
X035874Y011383D01*
X037904Y011663D02*
X038117Y011876D01*
X037904Y012090D01*
X038544Y012090D01*
X038544Y012307D02*
X038117Y012734D01*
X038011Y012734D01*
X037904Y012628D01*
X037904Y012414D01*
X038011Y012307D01*
X038544Y012307D02*
X038544Y012734D01*
X038438Y012952D02*
X038011Y013379D01*
X038438Y013379D01*
X038544Y013272D01*
X038544Y013059D01*
X038438Y012952D01*
X038011Y012952D01*
X037904Y013059D01*
X037904Y013272D01*
X038011Y013379D01*
X037904Y013596D02*
X037904Y014023D01*
X038011Y014023D01*
X038438Y013596D01*
X038544Y013596D01*
X038544Y011663D02*
X037904Y011663D01*
X033024Y011033D02*
X033024Y010233D01*
X033022Y010213D01*
X033016Y010195D01*
X033007Y010177D01*
X032995Y010162D01*
X032980Y010150D01*
X032962Y010141D01*
X032944Y010135D01*
X032924Y010133D01*
X030224Y010133D01*
X030204Y010135D01*
X030186Y010141D01*
X030168Y010150D01*
X030153Y010162D01*
X030141Y010177D01*
X030132Y010195D01*
X030126Y010213D01*
X030124Y010233D01*
X030124Y011033D01*
X030126Y011053D01*
X030132Y011071D01*
X030141Y011089D01*
X030153Y011104D01*
X030168Y011116D01*
X030186Y011125D01*
X030204Y011131D01*
X030224Y011133D01*
X032924Y011133D01*
X032944Y011131D01*
X032962Y011125D01*
X032980Y011116D01*
X032995Y011104D01*
X033007Y011089D01*
X033016Y011071D01*
X033022Y011053D01*
X033024Y011033D01*
X032344Y011533D02*
X032344Y014733D01*
X032342Y014756D01*
X032337Y014779D01*
X032328Y014801D01*
X032315Y014821D01*
X032300Y014839D01*
X032282Y014854D01*
X032262Y014867D01*
X032240Y014876D01*
X032217Y014881D01*
X032194Y014883D01*
X030954Y014883D01*
X030931Y014881D01*
X030908Y014876D01*
X030886Y014867D01*
X030866Y014854D01*
X030848Y014839D01*
X030833Y014821D01*
X030820Y014801D01*
X030811Y014779D01*
X030806Y014756D01*
X030804Y014733D01*
X030804Y011533D01*
X030806Y011510D01*
X030811Y011487D01*
X030820Y011465D01*
X030833Y011445D01*
X030848Y011427D01*
X030866Y011412D01*
X030886Y011399D01*
X030908Y011390D01*
X030931Y011385D01*
X030954Y011383D01*
X032194Y011383D01*
X032217Y011385D01*
X032240Y011390D01*
X032262Y011399D01*
X032282Y011412D01*
X032300Y011427D01*
X032315Y011445D01*
X032328Y011465D01*
X032337Y011487D01*
X032342Y011510D01*
X032344Y011533D01*
X031774Y011383D02*
X031772Y011410D01*
X031767Y011437D01*
X031757Y011463D01*
X031745Y011487D01*
X031729Y011509D01*
X031711Y011529D01*
X031689Y011546D01*
X031666Y011561D01*
X031641Y011571D01*
X031615Y011579D01*
X031588Y011583D01*
X031560Y011583D01*
X031533Y011579D01*
X031507Y011571D01*
X031482Y011561D01*
X031459Y011546D01*
X031437Y011529D01*
X031419Y011509D01*
X031403Y011487D01*
X031391Y011463D01*
X031381Y011437D01*
X031376Y011410D01*
X031374Y011383D01*
X031454Y010633D02*
X030974Y010633D01*
X031704Y010633D02*
X032174Y010633D01*
X029544Y011663D02*
X028904Y011663D01*
X029117Y011876D01*
X028904Y012090D01*
X029544Y012090D01*
X029544Y012307D02*
X029544Y012521D01*
X029544Y012414D02*
X028904Y012414D01*
X029011Y012307D01*
X029011Y012844D02*
X028904Y012951D01*
X029544Y012951D01*
X029544Y012844D02*
X029544Y013058D01*
X029438Y013381D02*
X029544Y013488D01*
X029544Y013702D01*
X029438Y013808D01*
X029011Y013808D01*
X028904Y013702D01*
X028904Y013488D01*
X029011Y013381D01*
X029117Y013381D01*
X029224Y013488D01*
X029224Y013808D01*
X027844Y014733D02*
X027844Y011533D01*
X027842Y011510D01*
X027837Y011487D01*
X027828Y011465D01*
X027815Y011445D01*
X027800Y011427D01*
X027782Y011412D01*
X027762Y011399D01*
X027740Y011390D01*
X027717Y011385D01*
X027694Y011383D01*
X026454Y011383D01*
X026431Y011385D01*
X026408Y011390D01*
X026386Y011399D01*
X026366Y011412D01*
X026348Y011427D01*
X026333Y011445D01*
X026320Y011465D01*
X026311Y011487D01*
X026306Y011510D01*
X026304Y011533D01*
X026304Y014733D01*
X026306Y014756D01*
X026311Y014779D01*
X026320Y014801D01*
X026333Y014821D01*
X026348Y014839D01*
X026366Y014854D01*
X026386Y014867D01*
X026408Y014876D01*
X026431Y014881D01*
X026454Y014883D01*
X027694Y014883D01*
X027717Y014881D01*
X027740Y014876D01*
X027762Y014867D01*
X027782Y014854D01*
X027800Y014839D01*
X027815Y014821D01*
X027828Y014801D01*
X027837Y014779D01*
X027842Y014756D01*
X027844Y014733D01*
X025044Y013381D02*
X024938Y013381D01*
X024511Y013808D01*
X024404Y013808D01*
X024404Y013381D01*
X025044Y013058D02*
X025044Y012844D01*
X025044Y012951D02*
X024404Y012951D01*
X024511Y012844D01*
X025044Y012521D02*
X025044Y012307D01*
X025044Y012414D02*
X024404Y012414D01*
X024511Y012307D01*
X024404Y012090D02*
X025044Y012090D01*
X025044Y011663D02*
X024404Y011663D01*
X024617Y011876D01*
X024404Y012090D01*
X023424Y011133D02*
X020724Y011133D01*
X020704Y011131D01*
X020686Y011125D01*
X020668Y011116D01*
X020653Y011104D01*
X020641Y011089D01*
X020632Y011071D01*
X020626Y011053D01*
X020624Y011033D01*
X020624Y010233D01*
X020626Y010213D01*
X020632Y010195D01*
X020641Y010177D01*
X020653Y010162D01*
X020668Y010150D01*
X020686Y010141D01*
X020704Y010135D01*
X020724Y010133D01*
X023424Y010133D01*
X023444Y010135D01*
X023462Y010141D01*
X023480Y010150D01*
X023495Y010162D01*
X023507Y010177D01*
X023516Y010195D01*
X023522Y010213D01*
X023524Y010233D01*
X023524Y011033D01*
X023522Y011053D01*
X023516Y011071D01*
X023507Y011089D01*
X023495Y011104D01*
X023480Y011116D01*
X023462Y011125D01*
X023444Y011131D01*
X023424Y011133D01*
X022844Y011533D02*
X022844Y014733D01*
X022842Y014756D01*
X022837Y014779D01*
X022828Y014801D01*
X022815Y014821D01*
X022800Y014839D01*
X022782Y014854D01*
X022762Y014867D01*
X022740Y014876D01*
X022717Y014881D01*
X022694Y014883D01*
X021454Y014883D01*
X021431Y014881D01*
X021408Y014876D01*
X021386Y014867D01*
X021366Y014854D01*
X021348Y014839D01*
X021333Y014821D01*
X021320Y014801D01*
X021311Y014779D01*
X021306Y014756D01*
X021304Y014733D01*
X021304Y011533D01*
X021306Y011510D01*
X021311Y011487D01*
X021320Y011465D01*
X021333Y011445D01*
X021348Y011427D01*
X021366Y011412D01*
X021386Y011399D01*
X021408Y011390D01*
X021431Y011385D01*
X021454Y011383D01*
X022694Y011383D01*
X022717Y011385D01*
X022740Y011390D01*
X022762Y011399D01*
X022782Y011412D01*
X022800Y011427D01*
X022815Y011445D01*
X022828Y011465D01*
X022837Y011487D01*
X022842Y011510D01*
X022844Y011533D01*
X022274Y011383D02*
X022272Y011410D01*
X022267Y011437D01*
X022257Y011463D01*
X022245Y011487D01*
X022229Y011509D01*
X022211Y011529D01*
X022189Y011546D01*
X022166Y011561D01*
X022141Y011571D01*
X022115Y011579D01*
X022088Y011583D01*
X022060Y011583D01*
X022033Y011579D01*
X022007Y011571D01*
X021982Y011561D01*
X021959Y011546D01*
X021937Y011529D01*
X021919Y011509D01*
X021903Y011487D01*
X021891Y011463D01*
X021881Y011437D01*
X021876Y011410D01*
X021874Y011383D01*
X021954Y010633D02*
X021474Y010633D01*
X022204Y010633D02*
X022674Y010633D01*
X020044Y011663D02*
X019404Y011663D01*
X019617Y011876D01*
X019404Y012090D01*
X020044Y012090D01*
X020044Y012307D02*
X020044Y012521D01*
X020044Y012414D02*
X019404Y012414D01*
X019511Y012307D01*
X019511Y012844D02*
X019404Y012951D01*
X020044Y012951D01*
X020044Y012844D02*
X020044Y013058D01*
X019938Y013381D02*
X020044Y013488D01*
X020044Y013702D01*
X019938Y013808D01*
X019724Y013808D01*
X019617Y013702D01*
X019617Y013595D01*
X019724Y013381D01*
X019404Y013381D01*
X019404Y013808D01*
X017344Y014733D02*
X017344Y011533D01*
X017342Y011510D01*
X017337Y011487D01*
X017328Y011465D01*
X017315Y011445D01*
X017300Y011427D01*
X017282Y011412D01*
X017262Y011399D01*
X017240Y011390D01*
X017217Y011385D01*
X017194Y011383D01*
X015954Y011383D01*
X015931Y011385D01*
X015908Y011390D01*
X015886Y011399D01*
X015866Y011412D01*
X015848Y011427D01*
X015833Y011445D01*
X015820Y011465D01*
X015811Y011487D01*
X015806Y011510D01*
X015804Y011533D01*
X015804Y014733D01*
X015806Y014756D01*
X015811Y014779D01*
X015820Y014801D01*
X015833Y014821D01*
X015848Y014839D01*
X015866Y014854D01*
X015886Y014867D01*
X015908Y014876D01*
X015931Y014881D01*
X015954Y014883D01*
X017194Y014883D01*
X017217Y014881D01*
X017240Y014876D01*
X017262Y014867D01*
X017282Y014854D01*
X017300Y014839D01*
X017315Y014821D01*
X017328Y014801D01*
X017337Y014779D01*
X017342Y014756D01*
X017344Y014733D01*
X014544Y013702D02*
X014544Y013488D01*
X014438Y013381D01*
X014224Y013595D02*
X014224Y013702D01*
X014331Y013808D01*
X014438Y013808D01*
X014544Y013702D01*
X014224Y013702D02*
X014117Y013808D01*
X014011Y013808D01*
X013904Y013702D01*
X013904Y013488D01*
X014011Y013381D01*
X014544Y013058D02*
X014544Y012844D01*
X014544Y012951D02*
X013904Y012951D01*
X014011Y012844D01*
X014544Y012521D02*
X014544Y012307D01*
X014544Y012414D02*
X013904Y012414D01*
X014011Y012307D01*
X013904Y012090D02*
X014544Y012090D01*
X014544Y011663D02*
X013904Y011663D01*
X014117Y011876D01*
X013904Y012090D01*
X012924Y011133D02*
X010224Y011133D01*
X010204Y011131D01*
X010186Y011125D01*
X010168Y011116D01*
X010153Y011104D01*
X010141Y011089D01*
X010132Y011071D01*
X010126Y011053D01*
X010124Y011033D01*
X010124Y010233D01*
X010126Y010213D01*
X010132Y010195D01*
X010141Y010177D01*
X010153Y010162D01*
X010168Y010150D01*
X010186Y010141D01*
X010204Y010135D01*
X010224Y010133D01*
X012924Y010133D01*
X012944Y010135D01*
X012962Y010141D01*
X012980Y010150D01*
X012995Y010162D01*
X013007Y010177D01*
X013016Y010195D01*
X013022Y010213D01*
X013024Y010233D01*
X013024Y011033D01*
X013022Y011053D01*
X013016Y011071D01*
X013007Y011089D01*
X012995Y011104D01*
X012980Y011116D01*
X012962Y011125D01*
X012944Y011131D01*
X012924Y011133D01*
X012344Y011533D02*
X012344Y014733D01*
X012342Y014756D01*
X012337Y014779D01*
X012328Y014801D01*
X012315Y014821D01*
X012300Y014839D01*
X012282Y014854D01*
X012262Y014867D01*
X012240Y014876D01*
X012217Y014881D01*
X012194Y014883D01*
X010954Y014883D01*
X010931Y014881D01*
X010908Y014876D01*
X010886Y014867D01*
X010866Y014854D01*
X010848Y014839D01*
X010833Y014821D01*
X010820Y014801D01*
X010811Y014779D01*
X010806Y014756D01*
X010804Y014733D01*
X010804Y011533D01*
X010806Y011510D01*
X010811Y011487D01*
X010820Y011465D01*
X010833Y011445D01*
X010848Y011427D01*
X010866Y011412D01*
X010886Y011399D01*
X010908Y011390D01*
X010931Y011385D01*
X010954Y011383D01*
X012194Y011383D01*
X012217Y011385D01*
X012240Y011390D01*
X012262Y011399D01*
X012282Y011412D01*
X012300Y011427D01*
X012315Y011445D01*
X012328Y011465D01*
X012337Y011487D01*
X012342Y011510D01*
X012344Y011533D01*
X011774Y011383D02*
X011772Y011410D01*
X011767Y011437D01*
X011757Y011463D01*
X011745Y011487D01*
X011729Y011509D01*
X011711Y011529D01*
X011689Y011546D01*
X011666Y011561D01*
X011641Y011571D01*
X011615Y011579D01*
X011588Y011583D01*
X011560Y011583D01*
X011533Y011579D01*
X011507Y011571D01*
X011482Y011561D01*
X011459Y011546D01*
X011437Y011529D01*
X011419Y011509D01*
X011403Y011487D01*
X011391Y011463D01*
X011381Y011437D01*
X011376Y011410D01*
X011374Y011383D01*
X011454Y010633D02*
X010974Y010633D01*
X011704Y010633D02*
X012174Y010633D01*
X009544Y011663D02*
X008904Y011663D01*
X009117Y011876D01*
X008904Y012090D01*
X009544Y012090D01*
X009544Y012307D02*
X009544Y012521D01*
X009544Y012414D02*
X008904Y012414D01*
X009011Y012307D01*
X009011Y012844D02*
X008904Y012951D01*
X009544Y012951D01*
X009544Y012844D02*
X009544Y013058D01*
X009544Y013381D02*
X009544Y013595D01*
X009544Y013488D02*
X008904Y013488D01*
X009011Y013381D01*
X015124Y011033D02*
X015124Y010233D01*
X015126Y010213D01*
X015132Y010195D01*
X015141Y010177D01*
X015153Y010162D01*
X015168Y010150D01*
X015186Y010141D01*
X015204Y010135D01*
X015224Y010133D01*
X017924Y010133D01*
X017944Y010135D01*
X017962Y010141D01*
X017980Y010150D01*
X017995Y010162D01*
X018007Y010177D01*
X018016Y010195D01*
X018022Y010213D01*
X018024Y010233D01*
X018024Y011033D01*
X018022Y011053D01*
X018016Y011071D01*
X018007Y011089D01*
X017995Y011104D01*
X017980Y011116D01*
X017962Y011125D01*
X017944Y011131D01*
X017924Y011133D01*
X015224Y011133D01*
X015204Y011131D01*
X015186Y011125D01*
X015168Y011116D01*
X015153Y011104D01*
X015141Y011089D01*
X015132Y011071D01*
X015126Y011053D01*
X015124Y011033D01*
X015974Y010633D02*
X016454Y010633D01*
X016704Y010633D02*
X017174Y010633D01*
X016774Y011383D02*
X016772Y011410D01*
X016767Y011437D01*
X016757Y011463D01*
X016745Y011487D01*
X016729Y011509D01*
X016711Y011529D01*
X016689Y011546D01*
X016666Y011561D01*
X016641Y011571D01*
X016615Y011579D01*
X016588Y011583D01*
X016560Y011583D01*
X016533Y011579D01*
X016507Y011571D01*
X016482Y011561D01*
X016459Y011546D01*
X016437Y011529D01*
X016419Y011509D01*
X016403Y011487D01*
X016391Y011463D01*
X016381Y011437D01*
X016376Y011410D01*
X016374Y011383D01*
X015954Y008383D02*
X017194Y008383D01*
X017217Y008381D01*
X017240Y008376D01*
X017262Y008367D01*
X017282Y008354D01*
X017300Y008339D01*
X017315Y008321D01*
X017328Y008301D01*
X017337Y008279D01*
X017342Y008256D01*
X017344Y008233D01*
X017344Y005033D01*
X017342Y005010D01*
X017337Y004987D01*
X017328Y004965D01*
X017315Y004945D01*
X017300Y004927D01*
X017282Y004912D01*
X017262Y004899D01*
X017240Y004890D01*
X017217Y004885D01*
X017194Y004883D01*
X015954Y004883D01*
X015931Y004885D01*
X015908Y004890D01*
X015886Y004899D01*
X015866Y004912D01*
X015848Y004927D01*
X015833Y004945D01*
X015820Y004965D01*
X015811Y004987D01*
X015806Y005010D01*
X015804Y005033D01*
X015804Y008233D01*
X015806Y008256D01*
X015811Y008279D01*
X015820Y008301D01*
X015833Y008321D01*
X015848Y008339D01*
X015866Y008354D01*
X015886Y008367D01*
X015908Y008376D01*
X015931Y008381D01*
X015954Y008383D01*
X012344Y008233D02*
X012344Y005033D01*
X012342Y005010D01*
X012337Y004987D01*
X012328Y004965D01*
X012315Y004945D01*
X012300Y004927D01*
X012282Y004912D01*
X012262Y004899D01*
X012240Y004890D01*
X012217Y004885D01*
X012194Y004883D01*
X010954Y004883D01*
X010931Y004885D01*
X010908Y004890D01*
X010886Y004899D01*
X010866Y004912D01*
X010848Y004927D01*
X010833Y004945D01*
X010820Y004965D01*
X010811Y004987D01*
X010806Y005010D01*
X010804Y005033D01*
X010804Y008233D01*
X010806Y008256D01*
X010811Y008279D01*
X010820Y008301D01*
X010833Y008321D01*
X010848Y008339D01*
X010866Y008354D01*
X010886Y008367D01*
X010908Y008376D01*
X010931Y008381D01*
X010954Y008383D01*
X012194Y008383D01*
X012217Y008381D01*
X012240Y008376D01*
X012262Y008367D01*
X012282Y008354D01*
X012300Y008339D01*
X012315Y008321D01*
X012328Y008301D01*
X012337Y008279D01*
X012342Y008256D01*
X012344Y008233D01*
X011774Y004883D02*
X011772Y004910D01*
X011767Y004937D01*
X011757Y004963D01*
X011745Y004987D01*
X011729Y005009D01*
X011711Y005029D01*
X011689Y005046D01*
X011666Y005061D01*
X011641Y005071D01*
X011615Y005079D01*
X011588Y005083D01*
X011560Y005083D01*
X011533Y005079D01*
X011507Y005071D01*
X011482Y005061D01*
X011459Y005046D01*
X011437Y005029D01*
X011419Y005009D01*
X011403Y004987D01*
X011391Y004963D01*
X011381Y004937D01*
X011376Y004910D01*
X011374Y004883D01*
X010224Y004633D02*
X012924Y004633D01*
X012944Y004631D01*
X012962Y004625D01*
X012980Y004616D01*
X012995Y004604D01*
X013007Y004589D01*
X013016Y004571D01*
X013022Y004553D01*
X013024Y004533D01*
X013024Y003733D01*
X013022Y003713D01*
X013016Y003695D01*
X013007Y003677D01*
X012995Y003662D01*
X012980Y003650D01*
X012962Y003641D01*
X012944Y003635D01*
X012924Y003633D01*
X010224Y003633D01*
X010204Y003635D01*
X010186Y003641D01*
X010168Y003650D01*
X010153Y003662D01*
X010141Y003677D01*
X010132Y003695D01*
X010126Y003713D01*
X010124Y003733D01*
X010124Y004533D01*
X010126Y004553D01*
X010132Y004571D01*
X010141Y004589D01*
X010153Y004604D01*
X010168Y004616D01*
X010186Y004625D01*
X010204Y004631D01*
X010224Y004633D01*
X010974Y004133D02*
X011454Y004133D01*
X011704Y004133D02*
X012174Y004133D01*
X015124Y004533D02*
X015124Y003733D01*
X015126Y003713D01*
X015132Y003695D01*
X015141Y003677D01*
X015153Y003662D01*
X015168Y003650D01*
X015186Y003641D01*
X015204Y003635D01*
X015224Y003633D01*
X017924Y003633D01*
X017944Y003635D01*
X017962Y003641D01*
X017980Y003650D01*
X017995Y003662D01*
X018007Y003677D01*
X018016Y003695D01*
X018022Y003713D01*
X018024Y003733D01*
X018024Y004533D01*
X018022Y004553D01*
X018016Y004571D01*
X018007Y004589D01*
X017995Y004604D01*
X017980Y004616D01*
X017962Y004625D01*
X017944Y004631D01*
X017924Y004633D01*
X015224Y004633D01*
X015204Y004631D01*
X015186Y004625D01*
X015168Y004616D01*
X015153Y004604D01*
X015141Y004589D01*
X015132Y004571D01*
X015126Y004553D01*
X015124Y004533D01*
X015974Y004133D02*
X016454Y004133D01*
X016704Y004133D02*
X017174Y004133D01*
X016774Y004883D02*
X016772Y004910D01*
X016767Y004937D01*
X016757Y004963D01*
X016745Y004987D01*
X016729Y005009D01*
X016711Y005029D01*
X016689Y005046D01*
X016666Y005061D01*
X016641Y005071D01*
X016615Y005079D01*
X016588Y005083D01*
X016560Y005083D01*
X016533Y005079D01*
X016507Y005071D01*
X016482Y005061D01*
X016459Y005046D01*
X016437Y005029D01*
X016419Y005009D01*
X016403Y004987D01*
X016391Y004963D01*
X016381Y004937D01*
X016376Y004910D01*
X016374Y004883D01*
X020624Y004533D02*
X020624Y003733D01*
X020626Y003713D01*
X020632Y003695D01*
X020641Y003677D01*
X020653Y003662D01*
X020668Y003650D01*
X020686Y003641D01*
X020704Y003635D01*
X020724Y003633D01*
X023424Y003633D01*
X023444Y003635D01*
X023462Y003641D01*
X023480Y003650D01*
X023495Y003662D01*
X023507Y003677D01*
X023516Y003695D01*
X023522Y003713D01*
X023524Y003733D01*
X023524Y004533D01*
X023522Y004553D01*
X023516Y004571D01*
X023507Y004589D01*
X023495Y004604D01*
X023480Y004616D01*
X023462Y004625D01*
X023444Y004631D01*
X023424Y004633D01*
X020724Y004633D01*
X020704Y004631D01*
X020686Y004625D01*
X020668Y004616D01*
X020653Y004604D01*
X020641Y004589D01*
X020632Y004571D01*
X020626Y004553D01*
X020624Y004533D01*
X021304Y005033D02*
X021304Y008233D01*
X021306Y008256D01*
X021311Y008279D01*
X021320Y008301D01*
X021333Y008321D01*
X021348Y008339D01*
X021366Y008354D01*
X021386Y008367D01*
X021408Y008376D01*
X021431Y008381D01*
X021454Y008383D01*
X022694Y008383D01*
X022717Y008381D01*
X022740Y008376D01*
X022762Y008367D01*
X022782Y008354D01*
X022800Y008339D01*
X022815Y008321D01*
X022828Y008301D01*
X022837Y008279D01*
X022842Y008256D01*
X022844Y008233D01*
X022844Y005033D01*
X022842Y005010D01*
X022837Y004987D01*
X022828Y004965D01*
X022815Y004945D01*
X022800Y004927D01*
X022782Y004912D01*
X022762Y004899D01*
X022740Y004890D01*
X022717Y004885D01*
X022694Y004883D01*
X021454Y004883D01*
X021431Y004885D01*
X021408Y004890D01*
X021386Y004899D01*
X021366Y004912D01*
X021348Y004927D01*
X021333Y004945D01*
X021320Y004965D01*
X021311Y004987D01*
X021306Y005010D01*
X021304Y005033D01*
X021874Y004883D02*
X021876Y004910D01*
X021881Y004937D01*
X021891Y004963D01*
X021903Y004987D01*
X021919Y005009D01*
X021937Y005029D01*
X021959Y005046D01*
X021982Y005061D01*
X022007Y005071D01*
X022033Y005079D01*
X022060Y005083D01*
X022088Y005083D01*
X022115Y005079D01*
X022141Y005071D01*
X022166Y005061D01*
X022189Y005046D01*
X022211Y005029D01*
X022229Y005009D01*
X022245Y004987D01*
X022257Y004963D01*
X022267Y004937D01*
X022272Y004910D01*
X022274Y004883D01*
X022204Y004133D02*
X022674Y004133D01*
X021954Y004133D02*
X021474Y004133D01*
X025624Y004533D02*
X025624Y003733D01*
X025626Y003713D01*
X025632Y003695D01*
X025641Y003677D01*
X025653Y003662D01*
X025668Y003650D01*
X025686Y003641D01*
X025704Y003635D01*
X025724Y003633D01*
X028424Y003633D01*
X028444Y003635D01*
X028462Y003641D01*
X028480Y003650D01*
X028495Y003662D01*
X028507Y003677D01*
X028516Y003695D01*
X028522Y003713D01*
X028524Y003733D01*
X028524Y004533D01*
X028522Y004553D01*
X028516Y004571D01*
X028507Y004589D01*
X028495Y004604D01*
X028480Y004616D01*
X028462Y004625D01*
X028444Y004631D01*
X028424Y004633D01*
X025724Y004633D01*
X025704Y004631D01*
X025686Y004625D01*
X025668Y004616D01*
X025653Y004604D01*
X025641Y004589D01*
X025632Y004571D01*
X025626Y004553D01*
X025624Y004533D01*
X026304Y005033D02*
X026304Y008233D01*
X026306Y008256D01*
X026311Y008279D01*
X026320Y008301D01*
X026333Y008321D01*
X026348Y008339D01*
X026366Y008354D01*
X026386Y008367D01*
X026408Y008376D01*
X026431Y008381D01*
X026454Y008383D01*
X027694Y008383D01*
X027717Y008381D01*
X027740Y008376D01*
X027762Y008367D01*
X027782Y008354D01*
X027800Y008339D01*
X027815Y008321D01*
X027828Y008301D01*
X027837Y008279D01*
X027842Y008256D01*
X027844Y008233D01*
X027844Y005033D01*
X027842Y005010D01*
X027837Y004987D01*
X027828Y004965D01*
X027815Y004945D01*
X027800Y004927D01*
X027782Y004912D01*
X027762Y004899D01*
X027740Y004890D01*
X027717Y004885D01*
X027694Y004883D01*
X026454Y004883D01*
X026431Y004885D01*
X026408Y004890D01*
X026386Y004899D01*
X026366Y004912D01*
X026348Y004927D01*
X026333Y004945D01*
X026320Y004965D01*
X026311Y004987D01*
X026306Y005010D01*
X026304Y005033D01*
X026874Y004883D02*
X026876Y004910D01*
X026881Y004937D01*
X026891Y004963D01*
X026903Y004987D01*
X026919Y005009D01*
X026937Y005029D01*
X026959Y005046D01*
X026982Y005061D01*
X027007Y005071D01*
X027033Y005079D01*
X027060Y005083D01*
X027088Y005083D01*
X027115Y005079D01*
X027141Y005071D01*
X027166Y005061D01*
X027189Y005046D01*
X027211Y005029D01*
X027229Y005009D01*
X027245Y004987D01*
X027257Y004963D01*
X027267Y004937D01*
X027272Y004910D01*
X027274Y004883D01*
X027204Y004133D02*
X027674Y004133D01*
X026954Y004133D02*
X026474Y004133D01*
X030124Y004533D02*
X030124Y003733D01*
X030126Y003713D01*
X030132Y003695D01*
X030141Y003677D01*
X030153Y003662D01*
X030168Y003650D01*
X030186Y003641D01*
X030204Y003635D01*
X030224Y003633D01*
X032924Y003633D01*
X032944Y003635D01*
X032962Y003641D01*
X032980Y003650D01*
X032995Y003662D01*
X033007Y003677D01*
X033016Y003695D01*
X033022Y003713D01*
X033024Y003733D01*
X033024Y004533D01*
X033022Y004553D01*
X033016Y004571D01*
X033007Y004589D01*
X032995Y004604D01*
X032980Y004616D01*
X032962Y004625D01*
X032944Y004631D01*
X032924Y004633D01*
X030224Y004633D01*
X030204Y004631D01*
X030186Y004625D01*
X030168Y004616D01*
X030153Y004604D01*
X030141Y004589D01*
X030132Y004571D01*
X030126Y004553D01*
X030124Y004533D01*
X030804Y005033D02*
X030804Y008233D01*
X030806Y008256D01*
X030811Y008279D01*
X030820Y008301D01*
X030833Y008321D01*
X030848Y008339D01*
X030866Y008354D01*
X030886Y008367D01*
X030908Y008376D01*
X030931Y008381D01*
X030954Y008383D01*
X032194Y008383D01*
X032217Y008381D01*
X032240Y008376D01*
X032262Y008367D01*
X032282Y008354D01*
X032300Y008339D01*
X032315Y008321D01*
X032328Y008301D01*
X032337Y008279D01*
X032342Y008256D01*
X032344Y008233D01*
X032344Y005033D01*
X032342Y005010D01*
X032337Y004987D01*
X032328Y004965D01*
X032315Y004945D01*
X032300Y004927D01*
X032282Y004912D01*
X032262Y004899D01*
X032240Y004890D01*
X032217Y004885D01*
X032194Y004883D01*
X030954Y004883D01*
X030931Y004885D01*
X030908Y004890D01*
X030886Y004899D01*
X030866Y004912D01*
X030848Y004927D01*
X030833Y004945D01*
X030820Y004965D01*
X030811Y004987D01*
X030806Y005010D01*
X030804Y005033D01*
X031374Y004883D02*
X031376Y004910D01*
X031381Y004937D01*
X031391Y004963D01*
X031403Y004987D01*
X031419Y005009D01*
X031437Y005029D01*
X031459Y005046D01*
X031482Y005061D01*
X031507Y005071D01*
X031533Y005079D01*
X031560Y005083D01*
X031588Y005083D01*
X031615Y005079D01*
X031641Y005071D01*
X031666Y005061D01*
X031689Y005046D01*
X031711Y005029D01*
X031729Y005009D01*
X031745Y004987D01*
X031757Y004963D01*
X031767Y004937D01*
X031772Y004910D01*
X031774Y004883D01*
X031704Y004133D02*
X032174Y004133D01*
X031454Y004133D02*
X030974Y004133D01*
X034624Y004533D02*
X034624Y003733D01*
X034626Y003713D01*
X034632Y003695D01*
X034641Y003677D01*
X034653Y003662D01*
X034668Y003650D01*
X034686Y003641D01*
X034704Y003635D01*
X034724Y003633D01*
X037424Y003633D01*
X037444Y003635D01*
X037462Y003641D01*
X037480Y003650D01*
X037495Y003662D01*
X037507Y003677D01*
X037516Y003695D01*
X037522Y003713D01*
X037524Y003733D01*
X037524Y004533D01*
X037522Y004553D01*
X037516Y004571D01*
X037507Y004589D01*
X037495Y004604D01*
X037480Y004616D01*
X037462Y004625D01*
X037444Y004631D01*
X037424Y004633D01*
X034724Y004633D01*
X034704Y004631D01*
X034686Y004625D01*
X034668Y004616D01*
X034653Y004604D01*
X034641Y004589D01*
X034632Y004571D01*
X034626Y004553D01*
X034624Y004533D01*
X035304Y005033D02*
X035304Y008233D01*
X035306Y008256D01*
X035311Y008279D01*
X035320Y008301D01*
X035333Y008321D01*
X035348Y008339D01*
X035366Y008354D01*
X035386Y008367D01*
X035408Y008376D01*
X035431Y008381D01*
X035454Y008383D01*
X036694Y008383D01*
X036717Y008381D01*
X036740Y008376D01*
X036762Y008367D01*
X036782Y008354D01*
X036800Y008339D01*
X036815Y008321D01*
X036828Y008301D01*
X036837Y008279D01*
X036842Y008256D01*
X036844Y008233D01*
X036844Y005033D01*
X036842Y005010D01*
X036837Y004987D01*
X036828Y004965D01*
X036815Y004945D01*
X036800Y004927D01*
X036782Y004912D01*
X036762Y004899D01*
X036740Y004890D01*
X036717Y004885D01*
X036694Y004883D01*
X035454Y004883D01*
X035431Y004885D01*
X035408Y004890D01*
X035386Y004899D01*
X035366Y004912D01*
X035348Y004927D01*
X035333Y004945D01*
X035320Y004965D01*
X035311Y004987D01*
X035306Y005010D01*
X035304Y005033D01*
X035874Y004883D02*
X035876Y004910D01*
X035881Y004937D01*
X035891Y004963D01*
X035903Y004987D01*
X035919Y005009D01*
X035937Y005029D01*
X035959Y005046D01*
X035982Y005061D01*
X036007Y005071D01*
X036033Y005079D01*
X036060Y005083D01*
X036088Y005083D01*
X036115Y005079D01*
X036141Y005071D01*
X036166Y005061D01*
X036189Y005046D01*
X036211Y005029D01*
X036229Y005009D01*
X036245Y004987D01*
X036257Y004963D01*
X036267Y004937D01*
X036272Y004910D01*
X036274Y004883D01*
X036204Y004133D02*
X036674Y004133D01*
X035954Y004133D02*
X035474Y004133D01*
X039124Y004533D02*
X039124Y003733D01*
X039126Y003713D01*
X039132Y003695D01*
X039141Y003677D01*
X039153Y003662D01*
X039168Y003650D01*
X039186Y003641D01*
X039204Y003635D01*
X039224Y003633D01*
X041924Y003633D01*
X041944Y003635D01*
X041962Y003641D01*
X041980Y003650D01*
X041995Y003662D01*
X042007Y003677D01*
X042016Y003695D01*
X042022Y003713D01*
X042024Y003733D01*
X042024Y004533D01*
X042022Y004553D01*
X042016Y004571D01*
X042007Y004589D01*
X041995Y004604D01*
X041980Y004616D01*
X041962Y004625D01*
X041944Y004631D01*
X041924Y004633D01*
X039224Y004633D01*
X039204Y004631D01*
X039186Y004625D01*
X039168Y004616D01*
X039153Y004604D01*
X039141Y004589D01*
X039132Y004571D01*
X039126Y004553D01*
X039124Y004533D01*
X039804Y005033D02*
X039804Y008233D01*
X039806Y008256D01*
X039811Y008279D01*
X039820Y008301D01*
X039833Y008321D01*
X039848Y008339D01*
X039866Y008354D01*
X039886Y008367D01*
X039908Y008376D01*
X039931Y008381D01*
X039954Y008383D01*
X041194Y008383D01*
X041217Y008381D01*
X041240Y008376D01*
X041262Y008367D01*
X041282Y008354D01*
X041300Y008339D01*
X041315Y008321D01*
X041328Y008301D01*
X041337Y008279D01*
X041342Y008256D01*
X041344Y008233D01*
X041344Y005033D01*
X041342Y005010D01*
X041337Y004987D01*
X041328Y004965D01*
X041315Y004945D01*
X041300Y004927D01*
X041282Y004912D01*
X041262Y004899D01*
X041240Y004890D01*
X041217Y004885D01*
X041194Y004883D01*
X039954Y004883D01*
X039931Y004885D01*
X039908Y004890D01*
X039886Y004899D01*
X039866Y004912D01*
X039848Y004927D01*
X039833Y004945D01*
X039820Y004965D01*
X039811Y004987D01*
X039806Y005010D01*
X039804Y005033D01*
X040374Y004883D02*
X040376Y004910D01*
X040381Y004937D01*
X040391Y004963D01*
X040403Y004987D01*
X040419Y005009D01*
X040437Y005029D01*
X040459Y005046D01*
X040482Y005061D01*
X040507Y005071D01*
X040533Y005079D01*
X040560Y005083D01*
X040588Y005083D01*
X040615Y005079D01*
X040641Y005071D01*
X040666Y005061D01*
X040689Y005046D01*
X040711Y005029D01*
X040729Y005009D01*
X040745Y004987D01*
X040757Y004963D01*
X040767Y004937D01*
X040772Y004910D01*
X040774Y004883D01*
X040694Y004133D02*
X041174Y004133D01*
X040444Y004133D02*
X039974Y004133D01*
X042904Y004381D02*
X042904Y004488D01*
X043544Y004488D01*
X043544Y004381D02*
X043544Y004595D01*
X043904Y004488D02*
X044544Y004488D01*
X044544Y004381D02*
X044544Y004595D01*
X044011Y004381D02*
X043904Y004488D01*
X028524Y010233D02*
X028524Y011033D01*
X028522Y011053D01*
X028516Y011071D01*
X028507Y011089D01*
X028495Y011104D01*
X028480Y011116D01*
X028462Y011125D01*
X028444Y011131D01*
X028424Y011133D01*
X025724Y011133D01*
X025704Y011131D01*
X025686Y011125D01*
X025668Y011116D01*
X025653Y011104D01*
X025641Y011089D01*
X025632Y011071D01*
X025626Y011053D01*
X025624Y011033D01*
X025624Y010233D01*
X025626Y010213D01*
X025632Y010195D01*
X025641Y010177D01*
X025653Y010162D01*
X025668Y010150D01*
X025686Y010141D01*
X025704Y010135D01*
X025724Y010133D01*
X028424Y010133D01*
X028444Y010135D01*
X028462Y010141D01*
X028480Y010150D01*
X028495Y010162D01*
X028507Y010177D01*
X028516Y010195D01*
X028522Y010213D01*
X028524Y010233D01*
X027674Y010633D02*
X027204Y010633D01*
X026954Y010633D02*
X026474Y010633D01*
X026874Y011383D02*
X026876Y011410D01*
X026881Y011437D01*
X026891Y011463D01*
X026903Y011487D01*
X026919Y011509D01*
X026937Y011529D01*
X026959Y011546D01*
X026982Y011561D01*
X027007Y011571D01*
X027033Y011579D01*
X027060Y011583D01*
X027088Y011583D01*
X027115Y011579D01*
X027141Y011571D01*
X027166Y011561D01*
X027189Y011546D01*
X027211Y011529D01*
X027229Y011509D01*
X027245Y011487D01*
X027257Y011463D01*
X027267Y011437D01*
X027272Y011410D01*
X027274Y011383D01*
X033404Y014781D02*
X033511Y014674D01*
X044117Y014478D02*
X044117Y014372D01*
X044224Y014372D01*
X044224Y014478D01*
X044117Y014478D01*
X044438Y014478D02*
X044438Y014372D01*
X044544Y014372D01*
X044544Y014478D01*
X044438Y014478D01*
D12*
X041019Y022568D02*
X040599Y022568D01*
X041019Y022988D01*
X041019Y023093D01*
X040914Y023198D01*
X040704Y023198D01*
X040599Y023093D01*
X040374Y023198D02*
X039954Y023198D01*
X039954Y022568D01*
X039309Y022568D02*
X039309Y023198D01*
X039730Y023198D01*
X039520Y022883D02*
X039309Y022883D01*
X039954Y022883D02*
X040164Y022883D01*
X039954Y024568D02*
X039954Y025198D01*
X040374Y025198D01*
X040599Y025093D02*
X040704Y025198D01*
X040704Y024568D01*
X040599Y024568D02*
X040809Y024568D01*
X040164Y024883D02*
X039954Y024883D01*
X039730Y025198D02*
X039309Y025198D01*
X039309Y024568D01*
X039309Y024883D02*
X039520Y024883D01*
X018879Y023773D02*
X018879Y023668D01*
X018773Y023668D01*
X018773Y023773D01*
X018879Y023773D01*
X018549Y023773D02*
X018444Y023668D01*
X018129Y023668D01*
X018234Y023878D02*
X018129Y023983D01*
X018234Y024088D01*
X018549Y024088D01*
X018444Y023878D02*
X018234Y023878D01*
X018444Y023878D02*
X018549Y023773D01*
X017800Y024088D02*
X017695Y024088D01*
X017484Y023878D01*
X017484Y023668D02*
X017484Y024088D01*
X017260Y023983D02*
X017155Y024088D01*
X016945Y024088D01*
X016840Y023983D01*
X016840Y023773D01*
X016945Y023668D01*
X017155Y023668D01*
X017260Y023773D01*
X017260Y023983D01*
X016513Y024088D02*
X016303Y024088D01*
X016408Y024193D02*
X016408Y023773D01*
X016513Y023668D01*
X016079Y023773D02*
X015974Y023878D01*
X015763Y023878D01*
X015658Y023983D01*
X015763Y024088D01*
X016079Y024088D01*
X016079Y023773D02*
X015974Y023668D01*
X015658Y023668D01*
X015331Y023668D02*
X015121Y023668D01*
X015226Y023668D02*
X015226Y024088D01*
X015121Y024088D01*
X014897Y024088D02*
X014582Y024088D01*
X014477Y023983D01*
X014582Y023878D01*
X014792Y023878D01*
X014897Y023773D01*
X014792Y023668D01*
X014477Y023668D01*
X014252Y023878D02*
X013832Y023878D01*
X013832Y023983D02*
X013937Y024088D01*
X014147Y024088D01*
X014252Y023983D01*
X014252Y023878D01*
X014147Y023668D02*
X013937Y023668D01*
X013832Y023773D01*
X013832Y023983D01*
X013608Y023983D02*
X013608Y024193D01*
X013503Y024298D01*
X013188Y024298D01*
X013188Y023668D01*
X013188Y023878D02*
X013503Y023878D01*
X013608Y023983D01*
X013398Y023878D02*
X013608Y023668D01*
X012319Y023668D02*
X012004Y023668D01*
X011899Y023773D01*
X011899Y023983D01*
X012004Y024088D01*
X012319Y024088D01*
X012319Y024298D02*
X012319Y023668D01*
X011674Y023668D02*
X011359Y023668D01*
X011254Y023773D01*
X011254Y023983D01*
X011359Y024088D01*
X011674Y024088D01*
X011674Y024298D02*
X011674Y023668D01*
X011030Y023668D02*
X011030Y024088D01*
X010820Y024298D01*
X010609Y024088D01*
X010609Y023668D01*
X010609Y023983D02*
X011030Y023983D01*
X015226Y024298D02*
X015226Y024403D01*
D13*
X047405Y024133D02*
X047408Y024194D01*
X047416Y024254D01*
X047430Y024313D01*
X047449Y024371D01*
X047473Y024427D01*
X047502Y024481D01*
X047536Y024531D01*
X047575Y024578D01*
X047617Y024622D01*
X047664Y024661D01*
X047713Y024697D01*
X047766Y024727D01*
X047822Y024753D01*
X047879Y024773D01*
X047938Y024788D01*
X047998Y024798D01*
X048059Y024802D01*
X048120Y024800D01*
X048180Y024794D01*
X048240Y024781D01*
X048298Y024763D01*
X048354Y024740D01*
X048408Y024712D01*
X048460Y024680D01*
X048508Y024642D01*
X048552Y024601D01*
X048593Y024555D01*
X048629Y024506D01*
X048661Y024454D01*
X048688Y024400D01*
X048709Y024343D01*
X048726Y024284D01*
X048737Y024224D01*
X048742Y024163D01*
X048742Y024103D01*
X048737Y024042D01*
X048726Y023982D01*
X048709Y023923D01*
X048688Y023866D01*
X048661Y023812D01*
X048629Y023760D01*
X048593Y023711D01*
X048552Y023665D01*
X048508Y023624D01*
X048460Y023586D01*
X048409Y023554D01*
X048354Y023526D01*
X048298Y023503D01*
X048240Y023485D01*
X048180Y023472D01*
X048120Y023466D01*
X048059Y023464D01*
X047998Y023468D01*
X047938Y023478D01*
X047879Y023493D01*
X047822Y023513D01*
X047766Y023539D01*
X047713Y023569D01*
X047664Y023605D01*
X047617Y023644D01*
X047575Y023688D01*
X047536Y023735D01*
X047502Y023785D01*
X047473Y023839D01*
X047449Y023895D01*
X047430Y023953D01*
X047416Y024012D01*
X047408Y024072D01*
X047405Y024133D01*
X047405Y004133D02*
X047408Y004194D01*
X047416Y004254D01*
X047430Y004313D01*
X047449Y004371D01*
X047473Y004427D01*
X047502Y004481D01*
X047536Y004531D01*
X047575Y004578D01*
X047617Y004622D01*
X047664Y004661D01*
X047713Y004697D01*
X047766Y004727D01*
X047822Y004753D01*
X047879Y004773D01*
X047938Y004788D01*
X047998Y004798D01*
X048059Y004802D01*
X048120Y004800D01*
X048180Y004794D01*
X048240Y004781D01*
X048298Y004763D01*
X048354Y004740D01*
X048408Y004712D01*
X048460Y004680D01*
X048508Y004642D01*
X048552Y004601D01*
X048593Y004555D01*
X048629Y004506D01*
X048661Y004454D01*
X048688Y004400D01*
X048709Y004343D01*
X048726Y004284D01*
X048737Y004224D01*
X048742Y004163D01*
X048742Y004103D01*
X048737Y004042D01*
X048726Y003982D01*
X048709Y003923D01*
X048688Y003866D01*
X048661Y003812D01*
X048629Y003760D01*
X048593Y003711D01*
X048552Y003665D01*
X048508Y003624D01*
X048460Y003586D01*
X048409Y003554D01*
X048354Y003526D01*
X048298Y003503D01*
X048240Y003485D01*
X048180Y003472D01*
X048120Y003466D01*
X048059Y003464D01*
X047998Y003468D01*
X047938Y003478D01*
X047879Y003493D01*
X047822Y003513D01*
X047766Y003539D01*
X047713Y003569D01*
X047664Y003605D01*
X047617Y003644D01*
X047575Y003688D01*
X047536Y003735D01*
X047502Y003785D01*
X047473Y003839D01*
X047449Y003895D01*
X047430Y003953D01*
X047416Y004012D01*
X047408Y004072D01*
X047405Y004133D01*
D14*
X006824Y002883D02*
X000574Y002883D01*
X000574Y025383D01*
X008074Y025383D01*
X008074Y026633D01*
X008074Y025383D01*
X000574Y025383D01*
X000574Y002883D01*
X006824Y002883D01*
X006824Y001633D01*
X006824Y002883D01*
X010249Y003133D02*
X010325Y003058D01*
X010475Y003058D01*
X010550Y003133D01*
X010550Y003433D01*
X010249Y003133D01*
X010249Y003433D01*
X010325Y003508D01*
X010475Y003508D01*
X010550Y003433D01*
X010710Y003133D02*
X010785Y003133D01*
X010785Y003058D01*
X010710Y003058D01*
X010710Y003133D01*
X011093Y003058D02*
X011244Y003058D01*
X011169Y003058D02*
X011169Y003508D01*
X011093Y003433D01*
X011477Y003358D02*
X011477Y003133D01*
X011552Y003058D01*
X011777Y003058D01*
X011777Y003358D01*
X011937Y003283D02*
X012088Y003283D01*
X012012Y003433D02*
X012012Y003058D01*
X012012Y003433D02*
X012088Y003508D01*
X012066Y004308D02*
X011916Y004308D01*
X011991Y004308D02*
X011991Y004758D01*
X011916Y004683D01*
X011756Y004758D02*
X011455Y004758D01*
X011455Y004308D01*
X011756Y004308D01*
X011606Y004533D02*
X011455Y004533D01*
X010860Y004808D02*
X010710Y004808D01*
X010785Y004808D02*
X010785Y005258D01*
X010710Y005183D01*
X010550Y005183D02*
X010475Y005258D01*
X010325Y005258D01*
X010249Y005183D01*
X010249Y004883D01*
X010325Y004808D01*
X010475Y004808D01*
X010550Y004883D01*
X011299Y005258D02*
X011299Y005558D01*
X011374Y005558D01*
X011674Y005258D01*
X011749Y005258D01*
X011524Y005718D02*
X011524Y006018D01*
X011374Y006178D02*
X011299Y006254D01*
X011299Y006404D01*
X011374Y006479D01*
X011674Y006178D01*
X011749Y006254D01*
X011749Y006404D01*
X011674Y006479D01*
X011374Y006479D01*
X011524Y006639D02*
X011524Y006939D01*
X011299Y006864D02*
X011524Y006639D01*
X011749Y006864D02*
X011299Y006864D01*
X011299Y007099D02*
X011299Y007324D01*
X011374Y007399D01*
X011674Y007399D01*
X011749Y007324D01*
X011749Y007099D01*
X011299Y007099D01*
X011374Y006178D02*
X011674Y006178D01*
X011749Y005943D02*
X011299Y005943D01*
X011524Y005718D01*
X015249Y005183D02*
X015249Y004883D01*
X015325Y004808D01*
X015475Y004808D01*
X015550Y004883D01*
X015710Y005033D02*
X016010Y005033D01*
X015935Y004808D02*
X015935Y005258D01*
X015710Y005033D01*
X015550Y005183D02*
X015475Y005258D01*
X015325Y005258D01*
X015249Y005183D01*
X016299Y005258D02*
X016299Y005558D01*
X016374Y005558D01*
X016674Y005258D01*
X016749Y005258D01*
X016679Y004758D02*
X016379Y004758D01*
X016379Y004308D01*
X016679Y004308D01*
X016529Y004533D02*
X016379Y004533D01*
X016839Y004533D02*
X017139Y004533D01*
X017064Y004758D02*
X016839Y004533D01*
X017064Y004308D02*
X017064Y004758D01*
X016524Y005718D02*
X016524Y006018D01*
X016374Y006178D02*
X016299Y006254D01*
X016299Y006404D01*
X016374Y006479D01*
X016674Y006178D01*
X016749Y006254D01*
X016749Y006404D01*
X016674Y006479D01*
X016374Y006479D01*
X016374Y006639D02*
X016299Y006714D01*
X016299Y006864D01*
X016374Y006939D01*
X016674Y006639D01*
X016749Y006714D01*
X016749Y006864D01*
X016674Y006939D01*
X016374Y006939D01*
X016299Y007099D02*
X016299Y007324D01*
X016374Y007399D01*
X016674Y007399D01*
X016749Y007324D01*
X016749Y007099D01*
X016299Y007099D01*
X016374Y006639D02*
X016674Y006639D01*
X016674Y006178D02*
X016374Y006178D01*
X016299Y005943D02*
X016524Y005718D01*
X016749Y005943D02*
X016299Y005943D01*
X020749Y005183D02*
X020749Y004883D01*
X020825Y004808D01*
X020975Y004808D01*
X021050Y004883D01*
X021210Y004883D02*
X021210Y004808D01*
X021210Y004883D02*
X021510Y005183D01*
X021510Y005258D01*
X021210Y005258D01*
X021050Y005183D02*
X020975Y005258D01*
X020825Y005258D01*
X020749Y005183D01*
X021799Y005258D02*
X021799Y005558D01*
X021874Y005558D01*
X022174Y005258D01*
X022249Y005258D01*
X022179Y004758D02*
X021879Y004758D01*
X021879Y004308D01*
X022179Y004308D01*
X022339Y004308D02*
X022339Y004383D01*
X022639Y004683D01*
X022639Y004758D01*
X022339Y004758D01*
X022029Y004533D02*
X021879Y004533D01*
X021669Y003508D02*
X021669Y003058D01*
X021744Y003058D02*
X021593Y003058D01*
X021285Y003058D02*
X021285Y003133D01*
X021210Y003133D01*
X021210Y003058D01*
X021285Y003058D01*
X021050Y003133D02*
X020975Y003058D01*
X020825Y003058D01*
X020749Y003133D01*
X021050Y003433D01*
X021050Y003133D01*
X021050Y003433D02*
X020975Y003508D01*
X020825Y003508D01*
X020749Y003433D01*
X020749Y003133D01*
X021593Y003433D02*
X021669Y003508D01*
X021977Y003358D02*
X021977Y003133D01*
X022052Y003058D01*
X022277Y003058D01*
X022277Y003358D01*
X022437Y003283D02*
X022588Y003283D01*
X022512Y003433D02*
X022512Y003058D01*
X022512Y003433D02*
X022588Y003508D01*
X025749Y003433D02*
X025749Y003133D01*
X026050Y003433D01*
X026050Y003133D01*
X025975Y003058D01*
X025825Y003058D01*
X025749Y003133D01*
X025749Y003433D02*
X025825Y003508D01*
X025975Y003508D01*
X026050Y003433D01*
X026210Y003133D02*
X026285Y003133D01*
X026285Y003058D01*
X026210Y003058D01*
X026210Y003133D01*
X026593Y003058D02*
X026744Y003058D01*
X026669Y003058D02*
X026669Y003508D01*
X026593Y003433D01*
X026977Y003358D02*
X026977Y003133D01*
X027052Y003058D01*
X027277Y003058D01*
X027277Y003358D01*
X027437Y003283D02*
X027588Y003283D01*
X027512Y003433D02*
X027512Y003058D01*
X027512Y003433D02*
X027588Y003508D01*
X027564Y004308D02*
X027414Y004308D01*
X027339Y004383D01*
X027639Y004683D01*
X027639Y004383D01*
X027564Y004308D01*
X027339Y004383D02*
X027339Y004683D01*
X027414Y004758D01*
X027564Y004758D01*
X027639Y004683D01*
X027030Y004758D02*
X027030Y004308D01*
X026955Y004308D02*
X027106Y004308D01*
X026795Y004308D02*
X026495Y004308D01*
X026495Y004758D01*
X026795Y004758D01*
X026819Y004808D02*
X026669Y004808D01*
X026593Y004883D01*
X026894Y005183D01*
X026894Y004883D01*
X026819Y004808D01*
X026955Y004683D02*
X027030Y004758D01*
X026645Y004533D02*
X026495Y004533D01*
X026360Y004808D02*
X026210Y004808D01*
X026285Y004808D02*
X026285Y005258D01*
X026210Y005183D01*
X026050Y005183D02*
X025975Y005258D01*
X025825Y005258D01*
X025749Y005183D01*
X025749Y004883D01*
X025825Y004808D01*
X025975Y004808D01*
X026050Y004883D01*
X026593Y004883D02*
X026593Y005183D01*
X026669Y005258D01*
X026819Y005258D01*
X026894Y005183D01*
X026799Y005258D02*
X026799Y005558D01*
X026874Y005558D01*
X027174Y005258D01*
X027249Y005258D01*
X027024Y005718D02*
X027024Y006018D01*
X026874Y006178D02*
X026799Y006254D01*
X026799Y006404D01*
X026874Y006479D01*
X026949Y006479D01*
X027249Y006178D01*
X027249Y006479D01*
X027174Y006639D02*
X026874Y006639D01*
X026799Y006714D01*
X026799Y006864D01*
X026874Y006939D01*
X027174Y006639D01*
X027249Y006714D01*
X027249Y006864D01*
X027174Y006939D01*
X026874Y006939D01*
X026799Y007099D02*
X026799Y007324D01*
X026874Y007399D01*
X027174Y007399D01*
X027249Y007324D01*
X027249Y007099D01*
X026799Y007099D01*
X026799Y005943D02*
X027024Y005718D01*
X027249Y005943D02*
X026799Y005943D01*
X030249Y005183D02*
X030249Y004883D01*
X030325Y004808D01*
X030475Y004808D01*
X030550Y004883D01*
X030710Y004808D02*
X030860Y004808D01*
X030785Y004808D02*
X030785Y005258D01*
X030710Y005183D01*
X030550Y005183D02*
X030475Y005258D01*
X030325Y005258D01*
X030249Y005183D01*
X031093Y005183D02*
X031169Y005258D01*
X031319Y005258D01*
X031394Y005183D01*
X031394Y005108D01*
X031319Y005033D01*
X031394Y004958D01*
X031394Y004883D01*
X031319Y004808D01*
X031169Y004808D01*
X031093Y004883D01*
X030995Y004758D02*
X030995Y004308D01*
X031295Y004308D01*
X031455Y004308D02*
X031606Y004308D01*
X031530Y004308D02*
X031530Y004758D01*
X031455Y004683D01*
X031295Y004758D02*
X030995Y004758D01*
X030995Y004533D02*
X031145Y004533D01*
X031244Y005033D02*
X031319Y005033D01*
X031299Y005258D02*
X031299Y005558D01*
X031374Y005558D01*
X031674Y005258D01*
X031749Y005258D01*
X031524Y005718D02*
X031524Y006018D01*
X031374Y006178D02*
X031299Y006254D01*
X031299Y006404D01*
X031374Y006479D01*
X031449Y006479D01*
X031524Y006404D01*
X031599Y006479D01*
X031674Y006479D01*
X031749Y006404D01*
X031749Y006254D01*
X031674Y006178D01*
X031524Y006329D02*
X031524Y006404D01*
X031374Y006639D02*
X031299Y006714D01*
X031299Y006864D01*
X031374Y006939D01*
X031674Y006639D01*
X031749Y006714D01*
X031749Y006864D01*
X031674Y006939D01*
X031374Y006939D01*
X031299Y007099D02*
X031299Y007324D01*
X031374Y007399D01*
X031674Y007399D01*
X031749Y007324D01*
X031749Y007099D01*
X031299Y007099D01*
X031374Y006639D02*
X031674Y006639D01*
X031749Y005943D02*
X031299Y005943D01*
X031524Y005718D01*
X031914Y004758D02*
X032064Y004758D01*
X032139Y004683D01*
X032139Y004608D01*
X032064Y004533D01*
X032139Y004458D01*
X032139Y004383D01*
X032064Y004308D01*
X031914Y004308D01*
X031839Y004383D01*
X031989Y004533D02*
X032064Y004533D01*
X031839Y004683D02*
X031914Y004758D01*
X032088Y003508D02*
X032012Y003433D01*
X032012Y003058D01*
X031777Y003058D02*
X031777Y003358D01*
X031937Y003283D02*
X032088Y003283D01*
X031777Y003058D02*
X031552Y003058D01*
X031477Y003133D01*
X031477Y003358D01*
X031169Y003508D02*
X031169Y003058D01*
X031244Y003058D02*
X031093Y003058D01*
X030785Y003058D02*
X030785Y003133D01*
X030710Y003133D01*
X030710Y003058D01*
X030785Y003058D01*
X030550Y003133D02*
X030475Y003058D01*
X030325Y003058D01*
X030249Y003133D01*
X030550Y003433D01*
X030550Y003133D01*
X030550Y003433D02*
X030475Y003508D01*
X030325Y003508D01*
X030249Y003433D01*
X030249Y003133D01*
X031093Y003433D02*
X031169Y003508D01*
X034749Y003433D02*
X034749Y003133D01*
X035050Y003433D01*
X035050Y003133D01*
X034975Y003058D01*
X034825Y003058D01*
X034749Y003133D01*
X034749Y003433D02*
X034825Y003508D01*
X034975Y003508D01*
X035050Y003433D01*
X035210Y003133D02*
X035285Y003133D01*
X035285Y003058D01*
X035210Y003058D01*
X035210Y003133D01*
X035593Y003058D02*
X035744Y003058D01*
X035669Y003058D02*
X035669Y003508D01*
X035593Y003433D01*
X035977Y003358D02*
X035977Y003133D01*
X036052Y003058D01*
X036277Y003058D01*
X036277Y003358D01*
X036437Y003283D02*
X036588Y003283D01*
X036512Y003433D02*
X036512Y003058D01*
X036512Y003433D02*
X036588Y003508D01*
X036564Y004308D02*
X036414Y004308D01*
X036339Y004383D01*
X036339Y004533D01*
X036564Y004533D01*
X036639Y004458D01*
X036639Y004383D01*
X036564Y004308D01*
X036339Y004533D02*
X036489Y004683D01*
X036639Y004758D01*
X036106Y004308D02*
X035955Y004308D01*
X036030Y004308D02*
X036030Y004758D01*
X035955Y004683D01*
X035795Y004758D02*
X035495Y004758D01*
X035495Y004308D01*
X035795Y004308D01*
X035645Y004533D02*
X035495Y004533D01*
X035360Y004808D02*
X035210Y004808D01*
X035285Y004808D02*
X035285Y005258D01*
X035210Y005183D01*
X035050Y005183D02*
X034975Y005258D01*
X034825Y005258D01*
X034749Y005183D01*
X034749Y004883D01*
X034825Y004808D01*
X034975Y004808D01*
X035050Y004883D01*
X035593Y004883D02*
X035669Y004808D01*
X035819Y004808D01*
X035894Y004883D01*
X035894Y004958D01*
X035819Y005033D01*
X035593Y005033D01*
X035593Y004883D01*
X035593Y005033D02*
X035744Y005183D01*
X035894Y005258D01*
X035799Y005258D02*
X035799Y005558D01*
X035874Y005558D01*
X036174Y005258D01*
X036249Y005258D01*
X036024Y005718D02*
X036024Y006018D01*
X036174Y006178D02*
X035874Y006479D01*
X035799Y006479D01*
X035799Y006178D01*
X035799Y005943D02*
X036024Y005718D01*
X036249Y005943D02*
X035799Y005943D01*
X036174Y006178D02*
X036249Y006178D01*
X036024Y006639D02*
X036024Y006939D01*
X035799Y006864D02*
X036024Y006639D01*
X036249Y006864D02*
X035799Y006864D01*
X035799Y007099D02*
X035799Y007324D01*
X035874Y007399D01*
X036174Y007399D01*
X036249Y007324D01*
X036249Y007099D01*
X035799Y007099D01*
X039249Y005183D02*
X039249Y004883D01*
X039325Y004808D01*
X039475Y004808D01*
X039550Y004883D01*
X039710Y004808D02*
X039860Y004808D01*
X039785Y004808D02*
X039785Y005258D01*
X039710Y005183D01*
X039550Y005183D02*
X039475Y005258D01*
X039325Y005258D01*
X039249Y005183D01*
X040093Y005183D02*
X040093Y005108D01*
X040169Y005033D01*
X040394Y005033D01*
X040394Y004883D02*
X040394Y005183D01*
X040319Y005258D01*
X040169Y005258D01*
X040093Y005183D01*
X040299Y005258D02*
X040299Y005558D01*
X040374Y005558D01*
X040674Y005258D01*
X040749Y005258D01*
X040394Y004883D02*
X040319Y004808D01*
X040169Y004808D01*
X040093Y004883D01*
X039995Y004758D02*
X039995Y004308D01*
X040295Y004308D01*
X040455Y004308D02*
X040606Y004308D01*
X040530Y004308D02*
X040530Y004758D01*
X040455Y004683D01*
X040295Y004758D02*
X039995Y004758D01*
X039995Y004533D02*
X040145Y004533D01*
X040839Y004608D02*
X040914Y004533D01*
X041139Y004533D01*
X041139Y004683D02*
X041064Y004758D01*
X040914Y004758D01*
X040839Y004683D01*
X040839Y004608D01*
X040839Y004383D02*
X040914Y004308D01*
X041064Y004308D01*
X041139Y004383D01*
X041139Y004683D01*
X041088Y003508D02*
X041012Y003433D01*
X041012Y003058D01*
X040777Y003058D02*
X040777Y003358D01*
X040937Y003283D02*
X041088Y003283D01*
X040777Y003058D02*
X040552Y003058D01*
X040477Y003133D01*
X040477Y003358D01*
X040169Y003508D02*
X040093Y003433D01*
X040169Y003508D02*
X040169Y003058D01*
X040244Y003058D02*
X040093Y003058D01*
X039785Y003058D02*
X039710Y003058D01*
X039710Y003133D01*
X039785Y003133D01*
X039785Y003058D01*
X039550Y003133D02*
X039475Y003058D01*
X039325Y003058D01*
X039249Y003133D01*
X039550Y003433D01*
X039550Y003133D01*
X039550Y003433D02*
X039475Y003508D01*
X039325Y003508D01*
X039249Y003433D01*
X039249Y003133D01*
X040524Y005718D02*
X040524Y006018D01*
X040674Y006178D02*
X040374Y006479D01*
X040299Y006479D01*
X040299Y006178D01*
X040299Y005943D02*
X040524Y005718D01*
X040749Y005943D02*
X040299Y005943D01*
X040674Y006178D02*
X040749Y006178D01*
X040674Y006639D02*
X040749Y006714D01*
X040749Y006864D01*
X040674Y006939D01*
X040599Y006939D01*
X040524Y006864D01*
X040524Y006789D01*
X040524Y006864D02*
X040449Y006939D01*
X040374Y006939D01*
X040299Y006864D01*
X040299Y006714D01*
X040374Y006639D01*
X040299Y007099D02*
X040299Y007324D01*
X040374Y007399D01*
X040674Y007399D01*
X040749Y007324D01*
X040749Y007099D01*
X040299Y007099D01*
X040244Y009558D02*
X040093Y009558D01*
X040169Y009558D02*
X040169Y010008D01*
X040093Y009933D01*
X040477Y009858D02*
X040477Y009633D01*
X040552Y009558D01*
X040777Y009558D01*
X040777Y009858D01*
X040937Y009783D02*
X041088Y009783D01*
X041012Y009933D02*
X041012Y009558D01*
X041012Y009933D02*
X041088Y010008D01*
X039785Y009633D02*
X039785Y009558D01*
X039710Y009558D01*
X039710Y009633D01*
X039785Y009633D01*
X039550Y009633D02*
X039475Y009558D01*
X039325Y009558D01*
X039249Y009633D01*
X039550Y009933D01*
X039550Y009633D01*
X039550Y009933D02*
X039475Y010008D01*
X039325Y010008D01*
X039249Y009933D01*
X039249Y009633D01*
X039918Y010808D02*
X040219Y010808D01*
X040379Y010808D02*
X040679Y011108D01*
X040679Y011183D01*
X040604Y011258D01*
X040454Y011258D01*
X040379Y011183D01*
X040395Y011308D02*
X040245Y011308D01*
X040170Y011383D01*
X040470Y011683D01*
X040470Y011383D01*
X040395Y011308D01*
X040219Y011258D02*
X039918Y011258D01*
X039918Y010808D01*
X039918Y011033D02*
X040068Y011033D01*
X040010Y011308D02*
X039710Y011308D01*
X040010Y011608D01*
X040010Y011683D01*
X039935Y011758D01*
X039785Y011758D01*
X039710Y011683D01*
X039550Y011683D02*
X039475Y011758D01*
X039325Y011758D01*
X039249Y011683D01*
X039249Y011383D01*
X039325Y011308D01*
X039475Y011308D01*
X039550Y011383D01*
X040170Y011383D02*
X040170Y011683D01*
X040245Y011758D01*
X040395Y011758D01*
X040470Y011683D01*
X040299Y011758D02*
X040299Y012058D01*
X040374Y012058D01*
X040674Y011758D01*
X040749Y011758D01*
X040524Y012218D02*
X040524Y012518D01*
X040674Y012678D02*
X040374Y012979D01*
X040299Y012979D01*
X040299Y012678D01*
X040299Y012443D02*
X040524Y012218D01*
X040749Y012443D02*
X040299Y012443D01*
X040674Y012678D02*
X040749Y012678D01*
X040674Y013139D02*
X040749Y013214D01*
X040749Y013364D01*
X040674Y013439D01*
X040599Y013439D01*
X040524Y013364D01*
X040524Y013289D01*
X040524Y013364D02*
X040449Y013439D01*
X040374Y013439D01*
X040299Y013364D01*
X040299Y013214D01*
X040374Y013139D01*
X040299Y013599D02*
X040299Y013824D01*
X040374Y013899D01*
X040674Y013899D01*
X040749Y013824D01*
X040749Y013599D01*
X040299Y013599D01*
X040244Y016058D02*
X040093Y016058D01*
X040169Y016058D02*
X040169Y016508D01*
X040093Y016433D01*
X040477Y016358D02*
X040477Y016133D01*
X040552Y016058D01*
X040777Y016058D01*
X040777Y016358D01*
X040937Y016283D02*
X041088Y016283D01*
X041012Y016433D02*
X041012Y016058D01*
X041012Y016433D02*
X041088Y016508D01*
X039785Y016133D02*
X039785Y016058D01*
X039710Y016058D01*
X039710Y016133D01*
X039785Y016133D01*
X039550Y016133D02*
X039475Y016058D01*
X039325Y016058D01*
X039249Y016133D01*
X039550Y016433D01*
X039550Y016133D01*
X039550Y016433D02*
X039475Y016508D01*
X039325Y016508D01*
X039249Y016433D01*
X039249Y016133D01*
X039995Y017308D02*
X040295Y017308D01*
X040455Y017308D02*
X040756Y017608D01*
X040756Y017683D01*
X040681Y017758D01*
X040530Y017758D01*
X040455Y017683D01*
X040295Y017758D02*
X039995Y017758D01*
X039995Y017308D01*
X039995Y017533D02*
X040145Y017533D01*
X040170Y017808D02*
X040320Y017808D01*
X040245Y017808D02*
X040245Y018258D01*
X040170Y018183D01*
X040299Y018258D02*
X040299Y018558D01*
X040374Y018558D01*
X040674Y018258D01*
X040749Y018258D01*
X040524Y018718D02*
X040524Y019018D01*
X040674Y019178D02*
X040374Y019479D01*
X040299Y019479D01*
X040299Y019178D01*
X040299Y018943D02*
X040524Y018718D01*
X040749Y018943D02*
X040299Y018943D01*
X040674Y019178D02*
X040749Y019178D01*
X040674Y019639D02*
X040749Y019714D01*
X040749Y019864D01*
X040674Y019939D01*
X040599Y019939D01*
X040524Y019864D01*
X040524Y019789D01*
X040524Y019864D02*
X040449Y019939D01*
X040374Y019939D01*
X040299Y019864D01*
X040299Y019714D01*
X040374Y019639D01*
X040299Y020099D02*
X040299Y020324D01*
X040374Y020399D01*
X040674Y020399D01*
X040749Y020324D01*
X040749Y020099D01*
X040299Y020099D01*
X039935Y018258D02*
X039785Y018258D01*
X039710Y018183D01*
X039550Y018183D02*
X039475Y018258D01*
X039325Y018258D01*
X039249Y018183D01*
X039249Y017883D01*
X039325Y017808D01*
X039475Y017808D01*
X039550Y017883D01*
X039710Y017808D02*
X040010Y018108D01*
X040010Y018183D01*
X039935Y018258D01*
X040010Y017808D02*
X039710Y017808D01*
X040455Y017308D02*
X040756Y017308D01*
X040916Y017308D02*
X041066Y017308D01*
X040991Y017308D02*
X040991Y017758D01*
X040916Y017683D01*
X036639Y017683D02*
X036639Y017608D01*
X036564Y017533D01*
X036414Y017533D01*
X036339Y017608D01*
X036339Y017683D01*
X036414Y017758D01*
X036564Y017758D01*
X036639Y017683D01*
X036564Y017533D02*
X036639Y017458D01*
X036639Y017383D01*
X036564Y017308D01*
X036414Y017308D01*
X036339Y017383D01*
X036339Y017458D01*
X036414Y017533D01*
X036106Y017308D02*
X035955Y017308D01*
X036030Y017308D02*
X036030Y017758D01*
X035955Y017683D01*
X035795Y017758D02*
X035495Y017758D01*
X035495Y017308D01*
X035795Y017308D01*
X035645Y017533D02*
X035495Y017533D01*
X035360Y017808D02*
X035210Y017808D01*
X035285Y017808D02*
X035285Y018258D01*
X035210Y018183D01*
X035050Y018183D02*
X034975Y018258D01*
X034825Y018258D01*
X034749Y018183D01*
X034749Y017883D01*
X034825Y017808D01*
X034975Y017808D01*
X035050Y017883D01*
X035593Y017883D02*
X035593Y017958D01*
X035669Y018033D01*
X035819Y018033D01*
X035894Y017958D01*
X035894Y017883D01*
X035819Y017808D01*
X035669Y017808D01*
X035593Y017883D01*
X035669Y018033D02*
X035593Y018108D01*
X035593Y018183D01*
X035669Y018258D01*
X035819Y018258D01*
X035894Y018183D01*
X035894Y018108D01*
X035819Y018033D01*
X035799Y018258D02*
X035799Y018558D01*
X035874Y018558D01*
X036174Y018258D01*
X036249Y018258D01*
X036024Y018718D02*
X036024Y019018D01*
X036174Y019178D02*
X035874Y019479D01*
X035799Y019479D01*
X035799Y019178D01*
X035799Y018943D02*
X036024Y018718D01*
X036249Y018943D02*
X035799Y018943D01*
X036174Y019178D02*
X036249Y019178D01*
X036024Y019639D02*
X036024Y019939D01*
X035799Y019864D02*
X036024Y019639D01*
X036249Y019864D02*
X035799Y019864D01*
X035799Y020099D02*
X035799Y020324D01*
X035874Y020399D01*
X036174Y020399D01*
X036249Y020324D01*
X036249Y020099D01*
X035799Y020099D01*
X035520Y022558D02*
X035520Y022858D01*
X035370Y023008D01*
X035220Y022858D01*
X035220Y022558D01*
X035060Y022558D02*
X034760Y022558D01*
X035060Y022858D01*
X035060Y022933D01*
X034985Y023008D01*
X034835Y023008D01*
X034760Y022933D01*
X034600Y023008D02*
X034299Y022708D01*
X034375Y022783D02*
X034600Y022558D01*
X034299Y022558D02*
X034299Y023008D01*
X035220Y022783D02*
X035520Y022783D01*
X036149Y022983D02*
X036450Y023283D01*
X036450Y022983D01*
X036375Y022908D01*
X036225Y022908D01*
X036149Y022983D01*
X036149Y023283D01*
X036225Y023358D01*
X036375Y023358D01*
X036450Y023283D01*
X036610Y023283D02*
X036610Y023133D01*
X036685Y023058D01*
X036685Y022908D01*
X036610Y022908D01*
X036835Y022908D02*
X036910Y022908D01*
X036835Y022908D02*
X036835Y023058D01*
X036910Y023133D01*
X036910Y023283D01*
X036835Y023358D01*
X036685Y023358D01*
X036610Y023283D01*
X036010Y023758D02*
X035710Y023758D01*
X036010Y024058D01*
X036010Y024133D01*
X035935Y024208D01*
X035785Y024208D01*
X035710Y024133D01*
X035550Y024208D02*
X035400Y024208D01*
X035475Y024208D02*
X035475Y023833D01*
X035400Y023758D01*
X035325Y023758D01*
X035249Y023833D01*
X035220Y024558D02*
X035445Y024558D01*
X035520Y024633D01*
X035520Y024708D01*
X035445Y024783D01*
X035220Y024783D01*
X035060Y024858D02*
X034760Y024558D01*
X035060Y024558D01*
X035220Y024558D02*
X035220Y025008D01*
X035445Y025008D01*
X035520Y024933D01*
X035520Y024858D01*
X035445Y024783D01*
X035060Y024858D02*
X035060Y024933D01*
X034985Y025008D01*
X034835Y025008D01*
X034760Y024933D01*
X034600Y025008D02*
X034299Y024708D01*
X034375Y024783D02*
X034600Y024558D01*
X034299Y024558D02*
X034299Y025008D01*
X035249Y025833D02*
X035325Y025758D01*
X035400Y025758D01*
X035475Y025833D01*
X035475Y026208D01*
X035400Y026208D02*
X035550Y026208D01*
X035710Y026133D02*
X035785Y026208D01*
X035785Y025758D01*
X035710Y025758D02*
X035860Y025758D01*
X036225Y025358D02*
X036375Y025358D01*
X036450Y025283D01*
X036149Y024983D01*
X036225Y024908D01*
X036375Y024908D01*
X036450Y024983D01*
X036450Y025283D01*
X036610Y025283D02*
X036610Y025133D01*
X036685Y025058D01*
X036685Y024908D01*
X036610Y024908D01*
X036835Y024908D02*
X036910Y024908D01*
X036835Y024908D02*
X036835Y025058D01*
X036910Y025133D01*
X036910Y025283D01*
X036835Y025358D01*
X036685Y025358D01*
X036610Y025283D01*
X036225Y025358D02*
X036149Y025283D01*
X036149Y024983D01*
X031674Y020399D02*
X031374Y020399D01*
X031299Y020324D01*
X031299Y020099D01*
X031749Y020099D01*
X031749Y020324D01*
X031674Y020399D01*
X031674Y019939D02*
X031374Y019939D01*
X031674Y019639D01*
X031749Y019714D01*
X031749Y019864D01*
X031674Y019939D01*
X031374Y019939D02*
X031299Y019864D01*
X031299Y019714D01*
X031374Y019639D01*
X031674Y019639D01*
X031674Y019479D02*
X031749Y019404D01*
X031749Y019254D01*
X031674Y019178D01*
X031524Y019329D02*
X031524Y019404D01*
X031599Y019479D01*
X031674Y019479D01*
X031524Y019404D02*
X031449Y019479D01*
X031374Y019479D01*
X031299Y019404D01*
X031299Y019254D01*
X031374Y019178D01*
X031524Y019018D02*
X031524Y018718D01*
X031299Y018943D01*
X031749Y018943D01*
X031374Y018558D02*
X031674Y018258D01*
X031749Y018258D01*
X031394Y018258D02*
X031093Y018258D01*
X031093Y018033D01*
X031244Y018108D01*
X031319Y018108D01*
X031394Y018033D01*
X031394Y017883D01*
X031319Y017808D01*
X031169Y017808D01*
X031093Y017883D01*
X030995Y017758D02*
X030995Y017308D01*
X031295Y017308D01*
X031455Y017308D02*
X031606Y017308D01*
X031530Y017308D02*
X031530Y017758D01*
X031455Y017683D01*
X031295Y017758D02*
X030995Y017758D01*
X030860Y017808D02*
X030710Y017808D01*
X030785Y017808D02*
X030785Y018258D01*
X030710Y018183D01*
X030550Y018183D02*
X030475Y018258D01*
X030325Y018258D01*
X030249Y018183D01*
X030249Y017883D01*
X030325Y017808D01*
X030475Y017808D01*
X030550Y017883D01*
X030995Y017533D02*
X031145Y017533D01*
X031839Y017533D02*
X031989Y017608D01*
X032064Y017608D01*
X032139Y017533D01*
X032139Y017383D01*
X032064Y017308D01*
X031914Y017308D01*
X031839Y017383D01*
X031839Y017533D02*
X031839Y017758D01*
X032139Y017758D01*
X031299Y018258D02*
X031299Y018558D01*
X031374Y018558D01*
X031169Y016508D02*
X031169Y016058D01*
X031244Y016058D02*
X031093Y016058D01*
X030785Y016058D02*
X030785Y016133D01*
X030710Y016133D01*
X030710Y016058D01*
X030785Y016058D01*
X030550Y016133D02*
X030475Y016058D01*
X030325Y016058D01*
X030249Y016133D01*
X030550Y016433D01*
X030550Y016133D01*
X030550Y016433D02*
X030475Y016508D01*
X030325Y016508D01*
X030249Y016433D01*
X030249Y016133D01*
X031093Y016433D02*
X031169Y016508D01*
X031477Y016358D02*
X031477Y016133D01*
X031552Y016058D01*
X031777Y016058D01*
X031777Y016358D01*
X031937Y016283D02*
X032088Y016283D01*
X032012Y016433D02*
X032012Y016058D01*
X032012Y016433D02*
X032088Y016508D01*
X034749Y016433D02*
X034749Y016133D01*
X035050Y016433D01*
X035050Y016133D01*
X034975Y016058D01*
X034825Y016058D01*
X034749Y016133D01*
X034749Y016433D02*
X034825Y016508D01*
X034975Y016508D01*
X035050Y016433D01*
X035210Y016133D02*
X035285Y016133D01*
X035285Y016058D01*
X035210Y016058D01*
X035210Y016133D01*
X035593Y016058D02*
X035744Y016058D01*
X035669Y016058D02*
X035669Y016508D01*
X035593Y016433D01*
X035977Y016358D02*
X035977Y016133D01*
X036052Y016058D01*
X036277Y016058D01*
X036277Y016358D01*
X036437Y016283D02*
X036588Y016283D01*
X036512Y016433D02*
X036512Y016058D01*
X036512Y016433D02*
X036588Y016508D01*
X036174Y013899D02*
X035874Y013899D01*
X035799Y013824D01*
X035799Y013599D01*
X036249Y013599D01*
X036249Y013824D01*
X036174Y013899D01*
X036024Y013439D02*
X036024Y013139D01*
X035799Y013364D01*
X036249Y013364D01*
X035874Y012979D02*
X036174Y012678D01*
X036249Y012678D01*
X036249Y012443D02*
X035799Y012443D01*
X036024Y012218D01*
X036024Y012518D01*
X035799Y012678D02*
X035799Y012979D01*
X035874Y012979D01*
X035874Y012058D02*
X036174Y011758D01*
X036249Y011758D01*
X035894Y011758D02*
X035894Y011683D01*
X035593Y011383D01*
X035593Y011308D01*
X035495Y011258D02*
X035495Y010808D01*
X035795Y010808D01*
X035955Y010808D02*
X036106Y010808D01*
X036030Y010808D02*
X036030Y011258D01*
X035955Y011183D01*
X035795Y011258D02*
X035495Y011258D01*
X035360Y011308D02*
X035210Y011308D01*
X035285Y011308D02*
X035285Y011758D01*
X035210Y011683D01*
X035050Y011683D02*
X034975Y011758D01*
X034825Y011758D01*
X034749Y011683D01*
X034749Y011383D01*
X034825Y011308D01*
X034975Y011308D01*
X035050Y011383D01*
X035495Y011033D02*
X035645Y011033D01*
X036339Y010883D02*
X036339Y010808D01*
X036339Y010883D02*
X036639Y011183D01*
X036639Y011258D01*
X036339Y011258D01*
X035894Y011758D02*
X035593Y011758D01*
X035799Y011758D02*
X035799Y012058D01*
X035874Y012058D01*
X035669Y010008D02*
X035669Y009558D01*
X035744Y009558D02*
X035593Y009558D01*
X035285Y009558D02*
X035285Y009633D01*
X035210Y009633D01*
X035210Y009558D01*
X035285Y009558D01*
X035050Y009633D02*
X034975Y009558D01*
X034825Y009558D01*
X034749Y009633D01*
X035050Y009933D01*
X035050Y009633D01*
X035050Y009933D02*
X034975Y010008D01*
X034825Y010008D01*
X034749Y009933D01*
X034749Y009633D01*
X035593Y009933D02*
X035669Y010008D01*
X035977Y009858D02*
X035977Y009633D01*
X036052Y009558D01*
X036277Y009558D01*
X036277Y009858D01*
X036437Y009783D02*
X036588Y009783D01*
X036512Y009933D02*
X036512Y009558D01*
X036512Y009933D02*
X036588Y010008D01*
X040379Y010808D02*
X040679Y010808D01*
X040839Y010883D02*
X041139Y011183D01*
X041139Y010883D01*
X041064Y010808D01*
X040914Y010808D01*
X040839Y010883D01*
X040839Y011183D01*
X040914Y011258D01*
X041064Y011258D01*
X041139Y011183D01*
X032139Y011033D02*
X031839Y011033D01*
X032064Y011258D01*
X032064Y010808D01*
X031606Y010808D02*
X031455Y010808D01*
X031530Y010808D02*
X031530Y011258D01*
X031455Y011183D01*
X031295Y011258D02*
X030995Y011258D01*
X030995Y010808D01*
X031295Y010808D01*
X031145Y011033D02*
X030995Y011033D01*
X030860Y011308D02*
X030710Y011308D01*
X030785Y011308D02*
X030785Y011758D01*
X030710Y011683D01*
X030550Y011683D02*
X030475Y011758D01*
X030325Y011758D01*
X030249Y011683D01*
X030249Y011383D01*
X030325Y011308D01*
X030475Y011308D01*
X030550Y011383D01*
X031093Y011533D02*
X031319Y011758D01*
X031319Y011308D01*
X031394Y011533D02*
X031093Y011533D01*
X031299Y011758D02*
X031299Y012058D01*
X031374Y012058D01*
X031674Y011758D01*
X031749Y011758D01*
X031524Y012218D02*
X031524Y012518D01*
X031374Y012678D02*
X031299Y012754D01*
X031299Y012904D01*
X031374Y012979D01*
X031449Y012979D01*
X031524Y012904D01*
X031599Y012979D01*
X031674Y012979D01*
X031749Y012904D01*
X031749Y012754D01*
X031674Y012678D01*
X031524Y012829D02*
X031524Y012904D01*
X031374Y013139D02*
X031299Y013214D01*
X031299Y013364D01*
X031374Y013439D01*
X031674Y013139D01*
X031749Y013214D01*
X031749Y013364D01*
X031674Y013439D01*
X031374Y013439D01*
X031299Y013599D02*
X031299Y013824D01*
X031374Y013899D01*
X031674Y013899D01*
X031749Y013824D01*
X031749Y013599D01*
X031299Y013599D01*
X031374Y013139D02*
X031674Y013139D01*
X031749Y012443D02*
X031299Y012443D01*
X031524Y012218D01*
X031169Y010008D02*
X031169Y009558D01*
X031244Y009558D02*
X031093Y009558D01*
X030785Y009558D02*
X030785Y009633D01*
X030710Y009633D01*
X030710Y009558D01*
X030785Y009558D01*
X030550Y009633D02*
X030475Y009558D01*
X030325Y009558D01*
X030249Y009633D01*
X030550Y009933D01*
X030550Y009633D01*
X030550Y009933D02*
X030475Y010008D01*
X030325Y010008D01*
X030249Y009933D01*
X030249Y009633D01*
X031093Y009933D02*
X031169Y010008D01*
X031477Y009858D02*
X031477Y009633D01*
X031552Y009558D01*
X031777Y009558D01*
X031777Y009858D01*
X031937Y009783D02*
X032088Y009783D01*
X032012Y009933D02*
X032012Y009558D01*
X032012Y009933D02*
X032088Y010008D01*
X027588Y010008D02*
X027512Y009933D01*
X027512Y009558D01*
X027277Y009558D02*
X027277Y009858D01*
X027437Y009783D02*
X027588Y009783D01*
X027277Y009558D02*
X027052Y009558D01*
X026977Y009633D01*
X026977Y009858D01*
X026669Y010008D02*
X026669Y009558D01*
X026744Y009558D02*
X026593Y009558D01*
X026285Y009558D02*
X026285Y009633D01*
X026210Y009633D01*
X026210Y009558D01*
X026285Y009558D01*
X026050Y009633D02*
X025975Y009558D01*
X025825Y009558D01*
X025749Y009633D01*
X026050Y009933D01*
X026050Y009633D01*
X026050Y009933D02*
X025975Y010008D01*
X025825Y010008D01*
X025749Y009933D01*
X025749Y009633D01*
X026593Y009933D02*
X026669Y010008D01*
X026572Y010808D02*
X026872Y010808D01*
X027032Y010808D02*
X027182Y010808D01*
X027107Y010808D02*
X027107Y011258D01*
X027032Y011183D01*
X026872Y011258D02*
X026572Y011258D01*
X026572Y010808D01*
X026572Y011033D02*
X026722Y011033D01*
X026744Y011308D02*
X026593Y011308D01*
X026669Y011308D02*
X026669Y011758D01*
X026593Y011683D01*
X026799Y011758D02*
X026799Y012058D01*
X026874Y012058D01*
X027174Y011758D01*
X027249Y011758D01*
X027024Y012218D02*
X027024Y012518D01*
X026874Y012678D02*
X026799Y012754D01*
X026799Y012904D01*
X026874Y012979D01*
X026949Y012979D01*
X027249Y012678D01*
X027249Y012979D01*
X027174Y013139D02*
X026874Y013139D01*
X026799Y013214D01*
X026799Y013364D01*
X026874Y013439D01*
X027174Y013139D01*
X027249Y013214D01*
X027249Y013364D01*
X027174Y013439D01*
X026874Y013439D01*
X026799Y013599D02*
X026799Y013824D01*
X026874Y013899D01*
X027174Y013899D01*
X027249Y013824D01*
X027249Y013599D01*
X026799Y013599D01*
X026799Y012443D02*
X027024Y012218D01*
X027249Y012443D02*
X026799Y012443D01*
X026285Y011758D02*
X026285Y011308D01*
X026210Y011308D02*
X026360Y011308D01*
X026050Y011383D02*
X025975Y011308D01*
X025825Y011308D01*
X025749Y011383D01*
X025749Y011683D01*
X025825Y011758D01*
X025975Y011758D01*
X026050Y011683D01*
X026210Y011683D02*
X026285Y011758D01*
X027416Y011183D02*
X027491Y011258D01*
X027491Y010808D01*
X027416Y010808D02*
X027566Y010808D01*
X022639Y010883D02*
X022564Y010808D01*
X022414Y010808D01*
X022339Y010883D01*
X022339Y010958D01*
X022414Y011033D01*
X022564Y011033D01*
X022639Y010958D01*
X022639Y010883D01*
X022564Y011033D02*
X022639Y011108D01*
X022639Y011183D01*
X022564Y011258D01*
X022414Y011258D01*
X022339Y011183D01*
X022339Y011108D01*
X022414Y011033D01*
X022179Y011258D02*
X021879Y011258D01*
X021879Y010808D01*
X022179Y010808D01*
X022029Y011033D02*
X021879Y011033D01*
X021510Y011383D02*
X021435Y011308D01*
X021285Y011308D01*
X021210Y011383D01*
X021210Y011458D01*
X021285Y011533D01*
X021435Y011533D01*
X021510Y011458D01*
X021510Y011383D01*
X021435Y011533D02*
X021510Y011608D01*
X021510Y011683D01*
X021435Y011758D01*
X021285Y011758D01*
X021210Y011683D01*
X021210Y011608D01*
X021285Y011533D01*
X021050Y011683D02*
X020975Y011758D01*
X020825Y011758D01*
X020749Y011683D01*
X020749Y011383D01*
X020825Y011308D01*
X020975Y011308D01*
X021050Y011383D01*
X021799Y011758D02*
X021799Y012058D01*
X021874Y012058D01*
X022174Y011758D01*
X022249Y011758D01*
X022024Y012218D02*
X022024Y012518D01*
X021874Y012678D02*
X021799Y012754D01*
X022249Y012754D01*
X022249Y012829D02*
X022249Y012678D01*
X022249Y012443D02*
X021799Y012443D01*
X022024Y012218D01*
X021874Y013062D02*
X021799Y013137D01*
X021799Y013287D01*
X021874Y013362D01*
X022174Y013062D01*
X022249Y013137D01*
X022249Y013287D01*
X022174Y013362D01*
X021874Y013362D01*
X021799Y013522D02*
X022249Y013522D01*
X022249Y013748D01*
X022174Y013823D01*
X021874Y013823D01*
X021799Y013748D01*
X021799Y013522D01*
X021874Y013062D02*
X022174Y013062D01*
X022277Y016058D02*
X022277Y016358D01*
X022437Y016283D02*
X022588Y016283D01*
X022512Y016433D02*
X022512Y016058D01*
X022277Y016058D02*
X022052Y016058D01*
X021977Y016133D01*
X021977Y016358D01*
X021669Y016508D02*
X021669Y016058D01*
X021744Y016058D02*
X021593Y016058D01*
X021285Y016058D02*
X021285Y016133D01*
X021210Y016133D01*
X021210Y016058D01*
X021285Y016058D01*
X021050Y016133D02*
X020975Y016058D01*
X020825Y016058D01*
X020749Y016133D01*
X021050Y016433D01*
X021050Y016133D01*
X021050Y016433D02*
X020975Y016508D01*
X020825Y016508D01*
X020749Y016433D01*
X020749Y016133D01*
X021593Y016433D02*
X021669Y016508D01*
X022512Y016433D02*
X022588Y016508D01*
X022564Y017308D02*
X022639Y017383D01*
X022639Y017683D01*
X022564Y017758D01*
X022414Y017758D01*
X022339Y017683D01*
X022339Y017608D01*
X022414Y017533D01*
X022639Y017533D01*
X022564Y017308D02*
X022414Y017308D01*
X022339Y017383D01*
X022179Y017308D02*
X021879Y017308D01*
X021879Y017758D01*
X022179Y017758D01*
X022029Y017533D02*
X021879Y017533D01*
X021510Y017883D02*
X021510Y018183D01*
X021435Y018258D01*
X021285Y018258D01*
X021210Y018183D01*
X021210Y018108D01*
X021285Y018033D01*
X021510Y018033D01*
X021510Y017883D02*
X021435Y017808D01*
X021285Y017808D01*
X021210Y017883D01*
X021050Y017883D02*
X020975Y017808D01*
X020825Y017808D01*
X020749Y017883D01*
X020749Y018183D01*
X020825Y018258D01*
X020975Y018258D01*
X021050Y018183D01*
X021799Y018258D02*
X021799Y018558D01*
X021874Y018558D01*
X022174Y018258D01*
X022249Y018258D01*
X022024Y018718D02*
X022024Y019018D01*
X021874Y019178D02*
X021799Y019254D01*
X022249Y019254D01*
X022249Y019329D02*
X022249Y019178D01*
X022249Y018943D02*
X021799Y018943D01*
X022024Y018718D01*
X021874Y019562D02*
X021799Y019637D01*
X021799Y019787D01*
X021874Y019862D01*
X022174Y019562D01*
X022249Y019637D01*
X022249Y019787D01*
X022174Y019862D01*
X021874Y019862D01*
X021799Y020022D02*
X022249Y020022D01*
X022249Y020248D01*
X022174Y020323D01*
X021874Y020323D01*
X021799Y020248D01*
X021799Y020022D01*
X021874Y019562D02*
X022174Y019562D01*
X025749Y018183D02*
X025749Y017883D01*
X025825Y017808D01*
X025975Y017808D01*
X026050Y017883D01*
X026210Y017808D02*
X026360Y017808D01*
X026285Y017808D02*
X026285Y018258D01*
X026210Y018183D01*
X026050Y018183D02*
X025975Y018258D01*
X025825Y018258D01*
X025749Y018183D01*
X026593Y018183D02*
X026669Y018258D01*
X026819Y018258D01*
X026894Y018183D01*
X026894Y018108D01*
X026593Y017808D01*
X026894Y017808D01*
X026795Y017758D02*
X026495Y017758D01*
X026495Y017308D01*
X026795Y017308D01*
X026955Y017308D02*
X027106Y017308D01*
X027030Y017308D02*
X027030Y017758D01*
X026955Y017683D01*
X026645Y017533D02*
X026495Y017533D01*
X027339Y017683D02*
X027414Y017758D01*
X027564Y017758D01*
X027639Y017683D01*
X027639Y017608D01*
X027339Y017308D01*
X027639Y017308D01*
X027588Y016508D02*
X027512Y016433D01*
X027512Y016058D01*
X027277Y016058D02*
X027277Y016358D01*
X027437Y016283D02*
X027588Y016283D01*
X027277Y016058D02*
X027052Y016058D01*
X026977Y016133D01*
X026977Y016358D01*
X026669Y016508D02*
X026669Y016058D01*
X026744Y016058D02*
X026593Y016058D01*
X026285Y016058D02*
X026285Y016133D01*
X026210Y016133D01*
X026210Y016058D01*
X026285Y016058D01*
X026050Y016133D02*
X025975Y016058D01*
X025825Y016058D01*
X025749Y016133D01*
X026050Y016433D01*
X026050Y016133D01*
X026050Y016433D02*
X025975Y016508D01*
X025825Y016508D01*
X025749Y016433D01*
X025749Y016133D01*
X026593Y016433D02*
X026669Y016508D01*
X026799Y018258D02*
X026799Y018558D01*
X026874Y018558D01*
X027174Y018258D01*
X027249Y018258D01*
X027024Y018718D02*
X027024Y019018D01*
X026874Y019178D02*
X026799Y019254D01*
X026799Y019404D01*
X026874Y019479D01*
X026949Y019479D01*
X027249Y019178D01*
X027249Y019479D01*
X027174Y019639D02*
X026874Y019639D01*
X026799Y019714D01*
X026799Y019864D01*
X026874Y019939D01*
X027174Y019639D01*
X027249Y019714D01*
X027249Y019864D01*
X027174Y019939D01*
X026874Y019939D01*
X026799Y020099D02*
X026799Y020324D01*
X026874Y020399D01*
X027174Y020399D01*
X027249Y020324D01*
X027249Y020099D01*
X026799Y020099D01*
X026799Y018943D02*
X027024Y018718D01*
X027249Y018943D02*
X026799Y018943D01*
X022829Y021983D02*
X022754Y021908D01*
X022604Y021908D01*
X022529Y021983D01*
X022829Y022283D01*
X022829Y021983D01*
X022529Y021983D02*
X022529Y022283D01*
X022604Y022358D01*
X022754Y022358D01*
X022829Y022283D01*
X022369Y022283D02*
X022369Y022208D01*
X022294Y022133D01*
X022369Y022058D01*
X022369Y021983D01*
X022294Y021908D01*
X022144Y021908D01*
X022069Y021983D01*
X021909Y021983D02*
X021834Y021908D01*
X021683Y021908D01*
X021608Y021983D01*
X021758Y022133D02*
X021834Y022133D01*
X021909Y022058D01*
X021909Y021983D01*
X021834Y022133D02*
X021909Y022208D01*
X021909Y022283D01*
X021834Y022358D01*
X021683Y022358D01*
X021608Y022283D01*
X022069Y022283D02*
X022144Y022358D01*
X022294Y022358D01*
X022369Y022283D01*
X022294Y022133D02*
X022219Y022133D01*
X022294Y022908D02*
X022144Y022908D01*
X022069Y022983D01*
X022069Y023133D02*
X022219Y023208D01*
X022294Y023208D01*
X022369Y023133D01*
X022369Y022983D01*
X022294Y022908D01*
X022529Y022983D02*
X022829Y023283D01*
X022829Y022983D01*
X022754Y022908D01*
X022604Y022908D01*
X022529Y022983D01*
X022529Y023283D01*
X022604Y023358D01*
X022754Y023358D01*
X022829Y023283D01*
X022369Y023358D02*
X022069Y023358D01*
X022069Y023133D01*
X021909Y023283D02*
X021608Y022983D01*
X021608Y022908D01*
X021608Y023358D02*
X021909Y023358D01*
X021909Y023283D01*
X021834Y023908D02*
X021683Y023908D01*
X021608Y023983D01*
X021758Y024133D02*
X021834Y024133D01*
X021909Y024058D01*
X021909Y023983D01*
X021834Y023908D01*
X021834Y024133D02*
X021909Y024208D01*
X021909Y024283D01*
X021834Y024358D01*
X021683Y024358D01*
X021608Y024283D01*
X022069Y024283D02*
X022144Y024358D01*
X022294Y024358D01*
X022369Y024283D01*
X022369Y024208D01*
X022294Y024133D01*
X022369Y024058D01*
X022369Y023983D01*
X022294Y023908D01*
X022144Y023908D01*
X022069Y023983D01*
X022219Y024133D02*
X022294Y024133D01*
X022529Y023983D02*
X022529Y024283D01*
X022604Y024358D01*
X022754Y024358D01*
X022829Y024283D01*
X022529Y023983D01*
X022604Y023908D01*
X022754Y023908D01*
X022829Y023983D01*
X022829Y024283D01*
X022754Y024908D02*
X022604Y024908D01*
X022529Y024983D01*
X022829Y025283D01*
X022829Y024983D01*
X022754Y024908D01*
X022529Y024983D02*
X022529Y025283D01*
X022604Y025358D01*
X022754Y025358D01*
X022829Y025283D01*
X022369Y025358D02*
X022069Y025358D01*
X022069Y025133D01*
X022219Y025208D01*
X022294Y025208D01*
X022369Y025133D01*
X022369Y024983D01*
X022294Y024908D01*
X022144Y024908D01*
X022069Y024983D01*
X021909Y025283D02*
X021608Y024983D01*
X021608Y024908D01*
X021608Y025358D02*
X021909Y025358D01*
X021909Y025283D01*
X016749Y020324D02*
X016674Y020399D01*
X016374Y020399D01*
X016299Y020324D01*
X016299Y020099D01*
X016749Y020099D01*
X016749Y020324D01*
X016674Y019939D02*
X016749Y019864D01*
X016749Y019714D01*
X016674Y019639D01*
X016374Y019939D01*
X016674Y019939D01*
X016374Y019939D02*
X016299Y019864D01*
X016299Y019714D01*
X016374Y019639D01*
X016674Y019639D01*
X016674Y019479D02*
X016749Y019404D01*
X016749Y019254D01*
X016674Y019178D01*
X016374Y019479D01*
X016674Y019479D01*
X016374Y019479D02*
X016299Y019404D01*
X016299Y019254D01*
X016374Y019178D01*
X016674Y019178D01*
X016524Y019018D02*
X016524Y018718D01*
X016299Y018943D01*
X016749Y018943D01*
X016374Y018558D02*
X016674Y018258D01*
X016749Y018258D01*
X016299Y018258D02*
X016299Y018558D01*
X016374Y018558D01*
X016010Y018258D02*
X015860Y018183D01*
X015710Y018033D01*
X015935Y018033D01*
X016010Y017958D01*
X016010Y017883D01*
X015935Y017808D01*
X015785Y017808D01*
X015710Y017883D01*
X015710Y018033D01*
X015550Y018183D02*
X015475Y018258D01*
X015325Y018258D01*
X015249Y018183D01*
X015249Y017883D01*
X015325Y017808D01*
X015475Y017808D01*
X015550Y017883D01*
X016379Y017758D02*
X016379Y017308D01*
X016679Y017308D01*
X016839Y017383D02*
X016839Y017533D01*
X017064Y017533D01*
X017139Y017458D01*
X017139Y017383D01*
X017064Y017308D01*
X016914Y017308D01*
X016839Y017383D01*
X016839Y017533D02*
X016989Y017683D01*
X017139Y017758D01*
X016679Y017758D02*
X016379Y017758D01*
X016379Y017533D02*
X016529Y017533D01*
X016169Y016508D02*
X016169Y016058D01*
X016244Y016058D02*
X016093Y016058D01*
X015785Y016058D02*
X015710Y016058D01*
X015710Y016133D01*
X015785Y016133D01*
X015785Y016058D01*
X015550Y016133D02*
X015475Y016058D01*
X015325Y016058D01*
X015249Y016133D01*
X015550Y016433D01*
X015550Y016133D01*
X015550Y016433D02*
X015475Y016508D01*
X015325Y016508D01*
X015249Y016433D01*
X015249Y016133D01*
X016093Y016433D02*
X016169Y016508D01*
X016477Y016358D02*
X016477Y016133D01*
X016552Y016058D01*
X016777Y016058D01*
X016777Y016358D01*
X016937Y016283D02*
X017088Y016283D01*
X017012Y016433D02*
X017012Y016058D01*
X017012Y016433D02*
X017088Y016508D01*
X016674Y013899D02*
X016374Y013899D01*
X016299Y013824D01*
X016299Y013599D01*
X016749Y013599D01*
X016749Y013824D01*
X016674Y013899D01*
X016674Y013439D02*
X016749Y013364D01*
X016749Y013214D01*
X016674Y013139D01*
X016374Y013439D01*
X016674Y013439D01*
X016374Y013439D02*
X016299Y013364D01*
X016299Y013214D01*
X016374Y013139D01*
X016674Y013139D01*
X016674Y012979D02*
X016749Y012904D01*
X016749Y012754D01*
X016674Y012678D01*
X016374Y012979D01*
X016674Y012979D01*
X016374Y012979D02*
X016299Y012904D01*
X016299Y012754D01*
X016374Y012678D01*
X016674Y012678D01*
X016524Y012518D02*
X016524Y012218D01*
X016299Y012443D01*
X016749Y012443D01*
X016374Y012058D02*
X016674Y011758D01*
X016749Y011758D01*
X016299Y011758D02*
X016299Y012058D01*
X016374Y012058D01*
X016010Y011758D02*
X015710Y011758D01*
X015710Y011533D01*
X015860Y011608D01*
X015935Y011608D01*
X016010Y011533D01*
X016010Y011383D01*
X015935Y011308D01*
X015785Y011308D01*
X015710Y011383D01*
X015550Y011383D02*
X015475Y011308D01*
X015325Y011308D01*
X015249Y011383D01*
X015249Y011683D01*
X015325Y011758D01*
X015475Y011758D01*
X015550Y011683D01*
X016379Y011258D02*
X016379Y010808D01*
X016679Y010808D01*
X016839Y010883D02*
X016914Y010808D01*
X017064Y010808D01*
X017139Y010883D01*
X017139Y011033D01*
X017064Y011108D01*
X016989Y011108D01*
X016839Y011033D01*
X016839Y011258D01*
X017139Y011258D01*
X016679Y011258D02*
X016379Y011258D01*
X016379Y011033D02*
X016529Y011033D01*
X016169Y010008D02*
X016169Y009558D01*
X016244Y009558D02*
X016093Y009558D01*
X015785Y009558D02*
X015710Y009558D01*
X015710Y009633D01*
X015785Y009633D01*
X015785Y009558D01*
X015550Y009633D02*
X015475Y009558D01*
X015325Y009558D01*
X015249Y009633D01*
X015550Y009933D01*
X015550Y009633D01*
X015550Y009933D02*
X015475Y010008D01*
X015325Y010008D01*
X015249Y009933D01*
X015249Y009633D01*
X016093Y009933D02*
X016169Y010008D01*
X016477Y009858D02*
X016477Y009633D01*
X016552Y009558D01*
X016777Y009558D01*
X016777Y009858D01*
X016937Y009783D02*
X017088Y009783D01*
X017012Y009933D02*
X017012Y009558D01*
X017012Y009933D02*
X017088Y010008D01*
X020749Y009933D02*
X020749Y009633D01*
X021050Y009933D01*
X021050Y009633D01*
X020975Y009558D01*
X020825Y009558D01*
X020749Y009633D01*
X020749Y009933D02*
X020825Y010008D01*
X020975Y010008D01*
X021050Y009933D01*
X021210Y009633D02*
X021285Y009633D01*
X021285Y009558D01*
X021210Y009558D01*
X021210Y009633D01*
X021593Y009558D02*
X021744Y009558D01*
X021669Y009558D02*
X021669Y010008D01*
X021593Y009933D01*
X021977Y009858D02*
X021977Y009633D01*
X022052Y009558D01*
X022277Y009558D01*
X022277Y009858D01*
X022437Y009783D02*
X022588Y009783D01*
X022512Y009933D02*
X022512Y009558D01*
X022512Y009933D02*
X022588Y010008D01*
X022174Y007323D02*
X021874Y007323D01*
X021799Y007248D01*
X021799Y007022D01*
X022249Y007022D01*
X022249Y007248D01*
X022174Y007323D01*
X022174Y006862D02*
X022249Y006787D01*
X022249Y006637D01*
X022174Y006562D01*
X021874Y006862D01*
X022174Y006862D01*
X021874Y006862D02*
X021799Y006787D01*
X021799Y006637D01*
X021874Y006562D01*
X022174Y006562D01*
X022249Y006329D02*
X022249Y006178D01*
X022249Y006254D02*
X021799Y006254D01*
X021874Y006178D01*
X022024Y006018D02*
X022024Y005718D01*
X021799Y005943D01*
X022249Y005943D01*
X017088Y003508D02*
X017012Y003433D01*
X017012Y003058D01*
X016777Y003058D02*
X016777Y003358D01*
X016937Y003283D02*
X017088Y003283D01*
X016777Y003058D02*
X016552Y003058D01*
X016477Y003133D01*
X016477Y003358D01*
X016169Y003508D02*
X016169Y003058D01*
X016244Y003058D02*
X016093Y003058D01*
X015785Y003058D02*
X015710Y003058D01*
X015710Y003133D01*
X015785Y003133D01*
X015785Y003058D01*
X015550Y003133D02*
X015475Y003058D01*
X015325Y003058D01*
X015249Y003133D01*
X015550Y003433D01*
X015550Y003133D01*
X015550Y003433D02*
X015475Y003508D01*
X015325Y003508D01*
X015249Y003433D01*
X015249Y003133D01*
X016093Y003433D02*
X016169Y003508D01*
X012012Y009558D02*
X012012Y009933D01*
X012088Y010008D01*
X012088Y009783D02*
X011937Y009783D01*
X011777Y009858D02*
X011777Y009558D01*
X011552Y009558D01*
X011477Y009633D01*
X011477Y009858D01*
X011169Y010008D02*
X011093Y009933D01*
X011169Y010008D02*
X011169Y009558D01*
X011244Y009558D02*
X011093Y009558D01*
X010785Y009558D02*
X010710Y009558D01*
X010710Y009633D01*
X010785Y009633D01*
X010785Y009558D01*
X010550Y009633D02*
X010475Y009558D01*
X010325Y009558D01*
X010249Y009633D01*
X010550Y009933D01*
X010550Y009633D01*
X010550Y009933D02*
X010475Y010008D01*
X010325Y010008D01*
X010249Y009933D01*
X010249Y009633D01*
X011379Y010808D02*
X011679Y010808D01*
X011839Y010808D02*
X012139Y011108D01*
X012139Y011183D01*
X012064Y011258D01*
X011914Y011258D01*
X011839Y011183D01*
X011679Y011258D02*
X011379Y011258D01*
X011379Y010808D01*
X011379Y011033D02*
X011529Y011033D01*
X011839Y010808D02*
X012139Y010808D01*
X011010Y011308D02*
X010710Y011308D01*
X011010Y011608D01*
X011010Y011683D01*
X010935Y011758D01*
X010785Y011758D01*
X010710Y011683D01*
X010550Y011683D02*
X010475Y011758D01*
X010325Y011758D01*
X010249Y011683D01*
X010249Y011383D01*
X010325Y011308D01*
X010475Y011308D01*
X010550Y011383D01*
X011299Y011758D02*
X011299Y012058D01*
X011374Y012058D01*
X011674Y011758D01*
X011749Y011758D01*
X011524Y012218D02*
X011524Y012518D01*
X011374Y012678D02*
X011299Y012754D01*
X011299Y012904D01*
X011374Y012979D01*
X011674Y012678D01*
X011749Y012754D01*
X011749Y012904D01*
X011674Y012979D01*
X011374Y012979D01*
X011524Y013139D02*
X011524Y013439D01*
X011299Y013364D02*
X011524Y013139D01*
X011749Y013364D02*
X011299Y013364D01*
X011299Y013599D02*
X011299Y013824D01*
X011374Y013899D01*
X011674Y013899D01*
X011749Y013824D01*
X011749Y013599D01*
X011299Y013599D01*
X011374Y012678D02*
X011674Y012678D01*
X011749Y012443D02*
X011299Y012443D01*
X011524Y012218D01*
X011552Y016058D02*
X011777Y016058D01*
X011777Y016358D01*
X011937Y016283D02*
X012088Y016283D01*
X012012Y016433D02*
X012012Y016058D01*
X011552Y016058D02*
X011477Y016133D01*
X011477Y016358D01*
X011169Y016508D02*
X011093Y016433D01*
X011169Y016508D02*
X011169Y016058D01*
X011244Y016058D02*
X011093Y016058D01*
X010785Y016058D02*
X010710Y016058D01*
X010710Y016133D01*
X010785Y016133D01*
X010785Y016058D01*
X010550Y016133D02*
X010475Y016058D01*
X010325Y016058D01*
X010249Y016133D01*
X010550Y016433D01*
X010550Y016133D01*
X010550Y016433D02*
X010475Y016508D01*
X010325Y016508D01*
X010249Y016433D01*
X010249Y016133D01*
X012012Y016433D02*
X012088Y016508D01*
X012064Y017308D02*
X011914Y017308D01*
X011839Y017383D01*
X011679Y017308D02*
X011379Y017308D01*
X011379Y017758D01*
X011679Y017758D01*
X011839Y017683D02*
X011914Y017758D01*
X012064Y017758D01*
X012139Y017683D01*
X012139Y017608D01*
X012064Y017533D01*
X012139Y017458D01*
X012139Y017383D01*
X012064Y017308D01*
X012064Y017533D02*
X011989Y017533D01*
X011529Y017533D02*
X011379Y017533D01*
X011010Y017883D02*
X010935Y017808D01*
X010785Y017808D01*
X010710Y017883D01*
X010550Y017883D02*
X010475Y017808D01*
X010325Y017808D01*
X010249Y017883D01*
X010249Y018183D01*
X010325Y018258D01*
X010475Y018258D01*
X010550Y018183D01*
X010710Y018183D02*
X010785Y018258D01*
X010935Y018258D01*
X011010Y018183D01*
X011010Y018108D01*
X010935Y018033D01*
X011010Y017958D01*
X011010Y017883D01*
X010935Y018033D02*
X010860Y018033D01*
X011299Y018258D02*
X011299Y018558D01*
X011374Y018558D01*
X011674Y018258D01*
X011749Y018258D01*
X011524Y018718D02*
X011524Y019018D01*
X011374Y019178D02*
X011299Y019254D01*
X011299Y019404D01*
X011374Y019479D01*
X011674Y019178D01*
X011749Y019254D01*
X011749Y019404D01*
X011674Y019479D01*
X011374Y019479D01*
X011524Y019639D02*
X011524Y019939D01*
X011299Y019864D02*
X011524Y019639D01*
X011749Y019864D02*
X011299Y019864D01*
X011299Y020099D02*
X011299Y020324D01*
X011374Y020399D01*
X011674Y020399D01*
X011749Y020324D01*
X011749Y020099D01*
X011299Y020099D01*
X011374Y019178D02*
X011674Y019178D01*
X011749Y018943D02*
X011299Y018943D01*
X011524Y018718D01*
D15*
X007708Y019153D02*
X007555Y019153D01*
X007632Y019153D02*
X007632Y019613D01*
X007555Y019536D01*
X007401Y019536D02*
X007401Y019383D01*
X007325Y019306D01*
X007094Y019306D01*
X007094Y019153D02*
X007094Y019613D01*
X007325Y019613D01*
X007401Y019536D01*
X007248Y019306D02*
X007401Y019153D01*
X007325Y018363D02*
X007094Y018363D01*
X007094Y017903D01*
X007094Y018056D02*
X007325Y018056D01*
X007401Y018133D01*
X007401Y018286D01*
X007325Y018363D01*
X007555Y018286D02*
X007632Y018363D01*
X007632Y017903D01*
X007708Y017903D02*
X007555Y017903D01*
X007632Y017113D02*
X007555Y017036D01*
X007632Y017113D02*
X007632Y016653D01*
X007708Y016653D02*
X007555Y016653D01*
X007401Y016653D02*
X007401Y017113D01*
X007094Y017113D02*
X007401Y016653D01*
X007094Y016653D02*
X007094Y017113D01*
X007094Y015863D02*
X007248Y015710D01*
X007401Y015863D01*
X007401Y015403D01*
X007555Y015403D02*
X007708Y015403D01*
X007632Y015403D02*
X007632Y015863D01*
X007555Y015786D01*
X007094Y015863D02*
X007094Y015403D01*
X007094Y014613D02*
X007094Y014153D01*
X007401Y014153D01*
X007555Y014153D02*
X007708Y014153D01*
X007632Y014153D02*
X007632Y014613D01*
X007555Y014536D01*
X007632Y013363D02*
X007555Y013286D01*
X007632Y013363D02*
X007632Y012903D01*
X007708Y012903D02*
X007555Y012903D01*
X007401Y012903D02*
X007171Y013133D01*
X007094Y013056D02*
X007401Y013363D01*
X007094Y013363D02*
X007094Y012903D01*
X007248Y012113D02*
X007401Y012113D01*
X007325Y012113D02*
X007325Y011729D01*
X007248Y011653D01*
X007171Y011653D01*
X007094Y011729D01*
X007555Y011653D02*
X007708Y011653D01*
X007632Y011653D02*
X007632Y012113D01*
X007555Y012036D01*
X007632Y010863D02*
X007555Y010786D01*
X007632Y010863D02*
X007632Y010403D01*
X007708Y010403D02*
X007555Y010403D01*
X007401Y010403D02*
X007401Y010863D01*
X007401Y010633D02*
X007094Y010633D01*
X007094Y010403D02*
X007094Y010863D01*
X007094Y009613D02*
X007401Y009613D01*
X007555Y009536D02*
X007632Y009613D01*
X007632Y009153D01*
X007708Y009153D02*
X007555Y009153D01*
X007248Y009383D02*
X007094Y009383D01*
X007094Y009153D02*
X007094Y009613D01*
X007094Y008363D02*
X007094Y007903D01*
X007401Y007903D01*
X007555Y007903D02*
X007708Y007903D01*
X007632Y007903D02*
X007632Y008363D01*
X007555Y008286D01*
X007401Y008363D02*
X007094Y008363D01*
X007094Y008133D02*
X007248Y008133D01*
X007325Y007113D02*
X007094Y007113D01*
X007094Y006653D01*
X007325Y006653D01*
X007401Y006729D01*
X007401Y007036D01*
X007325Y007113D01*
X007555Y007036D02*
X007632Y007113D01*
X007632Y006653D01*
X007708Y006653D02*
X007555Y006653D01*
X007632Y005863D02*
X007555Y005786D01*
X007632Y005863D02*
X007632Y005403D01*
X007708Y005403D02*
X007555Y005403D01*
X007401Y005479D02*
X007325Y005403D01*
X007171Y005403D01*
X007094Y005479D01*
X007094Y005786D01*
X007171Y005863D01*
X007325Y005863D01*
X007401Y005786D01*
X007325Y004613D02*
X007094Y004613D01*
X007094Y004153D01*
X007325Y004153D01*
X007401Y004229D01*
X007401Y004306D01*
X007325Y004383D01*
X007094Y004383D01*
X007325Y004383D02*
X007401Y004460D01*
X007401Y004536D01*
X007325Y004613D01*
X007555Y004536D02*
X007632Y004613D01*
X007632Y004153D01*
X007708Y004153D02*
X007555Y004153D01*
X007632Y003488D02*
X007555Y003411D01*
X007632Y003488D02*
X007632Y003028D01*
X007708Y003028D02*
X007555Y003028D01*
X007401Y003028D02*
X007401Y003335D01*
X007248Y003488D01*
X007094Y003335D01*
X007094Y003028D01*
X007094Y003258D02*
X007401Y003258D01*
X007325Y020403D02*
X007171Y020403D01*
X007094Y020479D01*
X007171Y020633D02*
X007094Y020710D01*
X007094Y020786D01*
X007171Y020863D01*
X007325Y020863D01*
X007401Y020786D01*
X007555Y020786D02*
X007632Y020863D01*
X007632Y020403D01*
X007708Y020403D02*
X007555Y020403D01*
X007401Y020479D02*
X007325Y020403D01*
X007401Y020479D02*
X007401Y020556D01*
X007325Y020633D01*
X007171Y020633D01*
X007248Y021653D02*
X007248Y022113D01*
X007401Y022113D02*
X007094Y022113D01*
X007555Y022036D02*
X007632Y022113D01*
X007632Y021653D01*
X007708Y021653D02*
X007555Y021653D01*
X007555Y022903D02*
X007708Y022903D01*
X007632Y022903D02*
X007632Y023363D01*
X007555Y023286D01*
X007401Y023363D02*
X007401Y022979D01*
X007325Y022903D01*
X007171Y022903D01*
X007094Y022979D01*
X007094Y023363D01*
X007248Y024153D02*
X007401Y024306D01*
X007401Y024613D01*
X007555Y024536D02*
X007632Y024613D01*
X007632Y024153D01*
X007708Y024153D02*
X007555Y024153D01*
X007248Y024153D02*
X007094Y024306D01*
X007094Y024613D01*
D16*
X011454Y017383D02*
X011454Y017133D01*
X011454Y016883D01*
X011704Y016883D02*
X011704Y017133D01*
X011704Y017383D01*
X016454Y017383D02*
X016454Y017133D01*
X016454Y016883D01*
X016704Y016883D02*
X016704Y017133D01*
X016704Y017383D01*
X021954Y017383D02*
X021954Y017133D01*
X021954Y016883D01*
X022204Y016883D02*
X022204Y017133D01*
X022204Y017383D01*
X026954Y017383D02*
X026954Y017133D01*
X026954Y016883D01*
X027204Y016883D02*
X027204Y017133D01*
X027204Y017383D01*
X031454Y017383D02*
X031454Y017133D01*
X031454Y016883D01*
X031704Y016883D02*
X031704Y017133D01*
X031704Y017383D01*
X035954Y017383D02*
X035954Y017133D01*
X035954Y016883D01*
X036204Y016883D02*
X036204Y017133D01*
X036204Y017383D01*
X040444Y017383D02*
X040444Y017133D01*
X040444Y016883D01*
X040694Y016883D02*
X040694Y017133D01*
X040694Y017383D01*
X040694Y010883D02*
X040694Y010633D01*
X040694Y010383D01*
X040444Y010383D02*
X040444Y010633D01*
X040444Y010883D01*
X036204Y010883D02*
X036204Y010633D01*
X036204Y010383D01*
X035954Y010383D02*
X035954Y010633D01*
X035954Y010883D01*
X031704Y010883D02*
X031704Y010633D01*
X031704Y010383D01*
X031454Y010383D02*
X031454Y010633D01*
X031454Y010883D01*
X027204Y010883D02*
X027204Y010633D01*
X027204Y010383D01*
X026954Y010383D02*
X026954Y010633D01*
X026954Y010883D01*
X022204Y010883D02*
X022204Y010633D01*
X022204Y010383D01*
X021954Y010383D02*
X021954Y010633D01*
X021954Y010883D01*
X016704Y010883D02*
X016704Y010633D01*
X016704Y010383D01*
X016454Y010383D02*
X016454Y010633D01*
X016454Y010883D01*
X011704Y010883D02*
X011704Y010633D01*
X011704Y010383D01*
X011454Y010383D02*
X011454Y010633D01*
X011454Y010883D01*
X011454Y004383D02*
X011454Y004133D01*
X011454Y003883D01*
X011704Y003883D02*
X011704Y004133D01*
X011704Y004383D01*
X016454Y004383D02*
X016454Y004133D01*
X016454Y003883D01*
X016704Y003883D02*
X016704Y004133D01*
X016704Y004383D01*
X021954Y004383D02*
X021954Y004133D01*
X021954Y003883D01*
X022204Y003883D02*
X022204Y004133D01*
X022204Y004383D01*
X026954Y004383D02*
X026954Y004133D01*
X026954Y003883D01*
X027204Y003883D02*
X027204Y004133D01*
X027204Y004383D01*
X031454Y004383D02*
X031454Y004133D01*
X031454Y003883D01*
X031704Y003883D02*
X031704Y004133D01*
X031704Y004383D01*
X035954Y004383D02*
X035954Y004133D01*
X035954Y003883D01*
X036204Y003883D02*
X036204Y004133D01*
X036204Y004383D01*
X040444Y004383D02*
X040444Y004133D01*
X040444Y003883D01*
X040694Y003883D02*
X040694Y004133D01*
X040694Y004383D01*
D17*
X023494Y022133D03*
X023494Y023133D03*
X023494Y024133D03*
X023494Y025133D03*
X020654Y025133D03*
X020654Y024133D03*
X020654Y023133D03*
X020654Y022133D03*
D18*
X022704Y021383D02*
X022704Y017883D01*
X027704Y017883D02*
X027704Y021383D01*
X032204Y021383D02*
X032204Y017883D01*
X036704Y017883D02*
X036704Y021383D01*
X041204Y021383D02*
X041204Y017883D01*
X041204Y014883D02*
X041204Y011383D01*
X036704Y011383D02*
X036704Y014883D01*
X032204Y014883D02*
X032204Y011383D01*
X027704Y011383D02*
X027704Y014883D01*
X022704Y014883D02*
X022704Y011383D01*
X022704Y008383D02*
X022704Y004883D01*
X027704Y004883D02*
X027704Y008383D01*
X032204Y008383D02*
X032204Y004883D01*
X036704Y004883D02*
X036704Y008383D01*
X041204Y008383D02*
X041204Y004883D01*
X017204Y004883D02*
X017204Y008383D01*
X012204Y008383D02*
X012204Y004883D01*
X012204Y011383D02*
X012204Y014883D01*
X017204Y014883D02*
X017204Y011383D01*
X017204Y017883D02*
X017204Y021383D01*
X012204Y021383D02*
X012204Y017883D01*
D19*
X035089Y023133D03*
X038059Y023133D03*
X038059Y025133D03*
X035089Y025133D03*
M02*
