G75*
G70*
%OFA0B0*%
%FSLAX24Y24*%
%IPPOS*%
%LPD*%
%AMOC8*
5,1,8,0,0,1.08239X$1,22.5*
%
%ADD10C,0.1512*%
%ADD11R,0.5310X0.0900*%
%ADD12OC8,0.0624*%
%ADD13R,0.0852X0.0312*%
%ADD14OC8,0.0756*%
%ADD15C,0.0480*%
D10*
X048074Y024133D03*
X048074Y004133D03*
D11*
X003699Y003695D03*
X003699Y004758D03*
X003699Y005883D03*
X003699Y007133D03*
X003699Y008383D03*
X003699Y009633D03*
X003699Y010883D03*
X003699Y012133D03*
X003699Y013383D03*
X003699Y014633D03*
X003699Y015883D03*
X003699Y017133D03*
X003699Y018383D03*
X003699Y019633D03*
X003699Y020883D03*
X003699Y022133D03*
X003699Y023383D03*
X003699Y024508D03*
D12*
X010574Y017133D03*
X012574Y017133D03*
X015574Y017133D03*
X017574Y017133D03*
X021074Y017133D03*
X023074Y017133D03*
X026074Y017133D03*
X028074Y017133D03*
X030574Y017133D03*
X032574Y017133D03*
X035074Y017133D03*
X037074Y017133D03*
X039574Y017133D03*
X041574Y017133D03*
X041574Y010633D03*
X039574Y010633D03*
X037074Y010633D03*
X035074Y010633D03*
X032574Y010633D03*
X030574Y010633D03*
X028074Y010633D03*
X026074Y010633D03*
X023074Y010633D03*
X021074Y010633D03*
X017574Y010633D03*
X015574Y010633D03*
X012574Y010633D03*
X010574Y010633D03*
X010574Y004133D03*
X012574Y004133D03*
X015574Y004133D03*
X017574Y004133D03*
X021074Y004133D03*
X023074Y004133D03*
X026074Y004133D03*
X028074Y004133D03*
X030574Y004133D03*
X032574Y004133D03*
X035074Y004133D03*
X037074Y004133D03*
X039574Y004133D03*
X041574Y004133D03*
X024074Y022133D03*
X024074Y023133D03*
X024074Y024133D03*
X024074Y025133D03*
X020074Y025133D03*
X020074Y024133D03*
X020074Y023133D03*
X020074Y022133D03*
D13*
X020864Y021133D03*
X020864Y020633D03*
X020864Y020133D03*
X020864Y019633D03*
X020864Y019133D03*
X020864Y018633D03*
X020864Y018133D03*
X023284Y018133D03*
X023284Y018633D03*
X023284Y019133D03*
X023284Y019633D03*
X023284Y020133D03*
X023284Y020633D03*
X023284Y021133D03*
X025864Y021133D03*
X025864Y020633D03*
X025864Y020133D03*
X025864Y019633D03*
X025864Y019133D03*
X025864Y018633D03*
X025864Y018133D03*
X028284Y018133D03*
X028284Y018633D03*
X028284Y019133D03*
X028284Y019633D03*
X028284Y020133D03*
X028284Y020633D03*
X028284Y021133D03*
X030364Y021133D03*
X030364Y020633D03*
X030364Y020133D03*
X030364Y019633D03*
X030364Y019133D03*
X030364Y018633D03*
X030364Y018133D03*
X032784Y018133D03*
X032784Y018633D03*
X032784Y019133D03*
X032784Y019633D03*
X032784Y020133D03*
X032784Y020633D03*
X032784Y021133D03*
X034864Y021133D03*
X034864Y020633D03*
X034864Y020133D03*
X034864Y019633D03*
X034864Y019133D03*
X034864Y018633D03*
X034864Y018133D03*
X037284Y018133D03*
X037284Y018633D03*
X037284Y019133D03*
X037284Y019633D03*
X037284Y020133D03*
X037284Y020633D03*
X037284Y021133D03*
X039364Y021133D03*
X039364Y020633D03*
X039364Y020133D03*
X039364Y019633D03*
X039364Y019133D03*
X039364Y018633D03*
X039364Y018133D03*
X041784Y018133D03*
X041784Y018633D03*
X041784Y019133D03*
X041784Y019633D03*
X041784Y020133D03*
X041784Y020633D03*
X041784Y021133D03*
X041784Y014633D03*
X041784Y014133D03*
X041784Y013633D03*
X041784Y013133D03*
X041784Y012633D03*
X041784Y012133D03*
X041784Y011633D03*
X039364Y011633D03*
X039364Y012133D03*
X039364Y012633D03*
X039364Y013133D03*
X039364Y013633D03*
X039364Y014133D03*
X039364Y014633D03*
X037284Y014633D03*
X037284Y014133D03*
X037284Y013633D03*
X037284Y013133D03*
X037284Y012633D03*
X037284Y012133D03*
X037284Y011633D03*
X034864Y011633D03*
X034864Y012133D03*
X034864Y012633D03*
X034864Y013133D03*
X034864Y013633D03*
X034864Y014133D03*
X034864Y014633D03*
X032784Y014633D03*
X032784Y014133D03*
X032784Y013633D03*
X032784Y013133D03*
X032784Y012633D03*
X032784Y012133D03*
X032784Y011633D03*
X030364Y011633D03*
X030364Y012133D03*
X030364Y012633D03*
X030364Y013133D03*
X030364Y013633D03*
X030364Y014133D03*
X030364Y014633D03*
X028284Y014633D03*
X028284Y014133D03*
X028284Y013633D03*
X028284Y013133D03*
X028284Y012633D03*
X028284Y012133D03*
X028284Y011633D03*
X025864Y011633D03*
X025864Y012133D03*
X025864Y012633D03*
X025864Y013133D03*
X025864Y013633D03*
X025864Y014133D03*
X025864Y014633D03*
X023284Y014633D03*
X023284Y014133D03*
X023284Y013633D03*
X023284Y013133D03*
X023284Y012633D03*
X023284Y012133D03*
X023284Y011633D03*
X020864Y011633D03*
X020864Y012133D03*
X020864Y012633D03*
X020864Y013133D03*
X020864Y013633D03*
X020864Y014133D03*
X020864Y014633D03*
X017784Y014633D03*
X017784Y014133D03*
X017784Y013633D03*
X017784Y013133D03*
X017784Y012633D03*
X017784Y012133D03*
X017784Y011633D03*
X015364Y011633D03*
X015364Y012133D03*
X015364Y012633D03*
X015364Y013133D03*
X015364Y013633D03*
X015364Y014133D03*
X015364Y014633D03*
X012784Y014633D03*
X012784Y014133D03*
X012784Y013633D03*
X012784Y013133D03*
X012784Y012633D03*
X012784Y012133D03*
X012784Y011633D03*
X010364Y011633D03*
X010364Y012133D03*
X010364Y012633D03*
X010364Y013133D03*
X010364Y013633D03*
X010364Y014133D03*
X010364Y014633D03*
X010364Y018133D03*
X010364Y018633D03*
X010364Y019133D03*
X010364Y019633D03*
X010364Y020133D03*
X010364Y020633D03*
X010364Y021133D03*
X012784Y021133D03*
X012784Y020633D03*
X012784Y020133D03*
X012784Y019633D03*
X012784Y019133D03*
X012784Y018633D03*
X012784Y018133D03*
X015364Y018133D03*
X015364Y018633D03*
X015364Y019133D03*
X015364Y019633D03*
X015364Y020133D03*
X015364Y020633D03*
X015364Y021133D03*
X017784Y021133D03*
X017784Y020633D03*
X017784Y020133D03*
X017784Y019633D03*
X017784Y019133D03*
X017784Y018633D03*
X017784Y018133D03*
X017784Y008133D03*
X017784Y007633D03*
X017784Y007133D03*
X017784Y006633D03*
X017784Y006133D03*
X017784Y005633D03*
X017784Y005133D03*
X015364Y005133D03*
X015364Y005633D03*
X015364Y006133D03*
X015364Y006633D03*
X015364Y007133D03*
X015364Y007633D03*
X015364Y008133D03*
X012784Y008133D03*
X012784Y007633D03*
X012784Y007133D03*
X012784Y006633D03*
X012784Y006133D03*
X012784Y005633D03*
X012784Y005133D03*
X010364Y005133D03*
X010364Y005633D03*
X010364Y006133D03*
X010364Y006633D03*
X010364Y007133D03*
X010364Y007633D03*
X010364Y008133D03*
X020864Y008133D03*
X020864Y007633D03*
X020864Y007133D03*
X020864Y006633D03*
X020864Y006133D03*
X020864Y005633D03*
X020864Y005133D03*
X023284Y005133D03*
X023284Y005633D03*
X023284Y006133D03*
X023284Y006633D03*
X023284Y007133D03*
X023284Y007633D03*
X023284Y008133D03*
X025864Y008133D03*
X025864Y007633D03*
X025864Y007133D03*
X025864Y006633D03*
X025864Y006133D03*
X025864Y005633D03*
X025864Y005133D03*
X028284Y005133D03*
X028284Y005633D03*
X028284Y006133D03*
X028284Y006633D03*
X028284Y007133D03*
X028284Y007633D03*
X028284Y008133D03*
X030364Y008133D03*
X030364Y007633D03*
X030364Y007133D03*
X030364Y006633D03*
X030364Y006133D03*
X030364Y005633D03*
X030364Y005133D03*
X032784Y005133D03*
X032784Y005633D03*
X032784Y006133D03*
X032784Y006633D03*
X032784Y007133D03*
X032784Y007633D03*
X032784Y008133D03*
X034864Y008133D03*
X034864Y007633D03*
X034864Y007133D03*
X034864Y006633D03*
X034864Y006133D03*
X034864Y005633D03*
X034864Y005133D03*
X037284Y005133D03*
X037284Y005633D03*
X037284Y006133D03*
X037284Y006633D03*
X037284Y007133D03*
X037284Y007633D03*
X037284Y008133D03*
X039364Y008133D03*
X039364Y007633D03*
X039364Y007133D03*
X039364Y006633D03*
X039364Y006133D03*
X039364Y005633D03*
X039364Y005133D03*
X041784Y005133D03*
X041784Y005633D03*
X041784Y006133D03*
X041784Y006633D03*
X041784Y007133D03*
X041784Y007633D03*
X041784Y008133D03*
D14*
X038574Y022133D03*
X038574Y023133D03*
X038574Y024133D03*
X038574Y025133D03*
X034574Y025133D03*
X034574Y024133D03*
X034574Y023133D03*
X034574Y022133D03*
D15*
X035074Y022633D03*
X035824Y022133D03*
X036574Y023133D03*
X036824Y023633D03*
X038074Y022633D03*
X040574Y022133D03*
X041824Y023133D03*
X043074Y021633D03*
X041074Y020633D03*
X041074Y020133D03*
X040574Y020133D03*
X041074Y019633D03*
X040074Y019133D03*
X040324Y018633D03*
X040074Y017883D03*
X038574Y017633D03*
X036574Y017883D03*
X038074Y019133D03*
X038324Y019633D03*
X038574Y020883D03*
X036574Y020633D03*
X036324Y021133D03*
X035574Y020383D03*
X035574Y019883D03*
X034074Y019633D03*
X033574Y019383D03*
X033574Y020133D03*
X032074Y019633D03*
X031574Y019633D03*
X032074Y018633D03*
X031824Y017633D03*
X033574Y017633D03*
X033574Y018133D03*
X034074Y016633D03*
X033324Y016383D03*
X032574Y015883D03*
X031574Y015133D03*
X030324Y015883D03*
X029824Y016883D03*
X027574Y018133D03*
X026574Y018633D03*
X027574Y019383D03*
X026574Y019883D03*
X027574Y020383D03*
X027074Y020883D03*
X025074Y020633D03*
X024074Y019633D03*
X022574Y019633D03*
X022074Y019383D03*
X021574Y019883D03*
X022574Y020383D03*
X021574Y020633D03*
X022074Y021633D03*
X022824Y021633D03*
X022324Y022633D03*
X023324Y023633D03*
X025324Y023633D03*
X026574Y023133D03*
X027324Y022883D03*
X028574Y022133D03*
X029574Y023133D03*
X030074Y022133D03*
X031074Y020883D03*
X033324Y021883D03*
X032574Y022133D03*
X032074Y024133D03*
X031074Y024633D03*
X030824Y025383D03*
X033824Y025383D03*
X039074Y024633D03*
X040074Y025883D03*
X044574Y023133D03*
X043574Y019133D03*
X039074Y016633D03*
X038074Y016633D03*
X036074Y016633D03*
X038074Y015133D03*
X040074Y014133D03*
X041074Y013633D03*
X042574Y012633D03*
X042574Y012133D03*
X041074Y012383D03*
X040074Y012133D03*
X041074Y011133D03*
X042074Y010133D03*
X040324Y008383D03*
X041074Y008133D03*
X040074Y007633D03*
X038574Y007633D03*
X038074Y008133D03*
X038574Y007133D03*
X038574Y006633D03*
X040074Y005883D03*
X041074Y006133D03*
X041074Y005633D03*
X042574Y006133D03*
X040324Y004383D03*
X040324Y003383D03*
X038324Y003383D03*
X037824Y003383D03*
X037324Y002883D03*
X036824Y002633D03*
X035574Y003133D03*
X035074Y003133D03*
X035574Y003633D03*
X034074Y004883D03*
X033574Y005633D03*
X032074Y005633D03*
X031574Y006633D03*
X031824Y007133D03*
X032074Y007883D03*
X033574Y008633D03*
X033574Y009133D03*
X032074Y008883D03*
X030574Y009883D03*
X028574Y009383D03*
X026574Y008133D03*
X025074Y008883D03*
X024824Y008133D03*
X024074Y007883D03*
X024074Y006883D03*
X024074Y006133D03*
X025074Y006133D03*
X024324Y004883D03*
X022324Y005133D03*
X022074Y005883D03*
X022574Y006133D03*
X022574Y006633D03*
X022324Y007383D03*
X020074Y008633D03*
X019074Y009133D03*
X017074Y009383D03*
X016574Y009383D03*
X016074Y009383D03*
X014574Y009883D03*
X013574Y009883D03*
X013074Y010133D03*
X011824Y010633D03*
X011324Y010633D03*
X009824Y011133D03*
X009074Y010633D03*
X010074Y009633D03*
X009574Y008633D03*
X009574Y008133D03*
X009574Y007633D03*
X009574Y007133D03*
X010574Y008633D03*
X011074Y008633D03*
X011824Y008883D03*
X014574Y007633D03*
X014574Y007133D03*
X014574Y006633D03*
X014574Y006133D03*
X013824Y005883D03*
X012074Y005633D03*
X011324Y005133D03*
X012074Y006633D03*
X013574Y007133D03*
X016074Y007883D03*
X017074Y007383D03*
X018574Y007633D03*
X021074Y009383D03*
X021574Y009383D03*
X022074Y009633D03*
X022574Y008883D03*
X019074Y010633D03*
X019074Y011883D03*
X018574Y012133D03*
X020074Y012133D03*
X021824Y011383D03*
X020074Y013133D03*
X019074Y013133D03*
X018574Y014633D03*
X018074Y015133D03*
X019074Y015633D03*
X018824Y016383D03*
X019824Y016383D03*
X021824Y016883D03*
X020324Y017633D03*
X019324Y017633D03*
X018574Y018133D03*
X018574Y018633D03*
X019074Y018883D03*
X019574Y018883D03*
X018574Y019633D03*
X019074Y019883D03*
X019574Y019883D03*
X018574Y021133D03*
X016574Y021633D03*
X014574Y020633D03*
X013574Y020133D03*
X012074Y019383D03*
X012074Y018883D03*
X011574Y017883D03*
X013574Y018633D03*
X016074Y020133D03*
X016824Y019633D03*
X017074Y018883D03*
X017074Y017633D03*
X014074Y015883D03*
X014574Y015633D03*
X013574Y014883D03*
X014574Y014633D03*
X014574Y014133D03*
X014574Y013633D03*
X013824Y012633D03*
X013574Y011883D03*
X012074Y011883D03*
X012074Y012383D03*
X011574Y013133D03*
X011074Y013133D03*
X009574Y014133D03*
X008824Y014133D03*
X007824Y014383D03*
X006824Y013383D03*
X006824Y012883D03*
X006824Y011883D03*
X007574Y010133D03*
X007074Y008383D03*
X007074Y007883D03*
X006824Y006133D03*
X010074Y003633D03*
X011324Y003133D03*
X014574Y002883D03*
X017074Y005633D03*
X020074Y005383D03*
X024324Y003633D03*
X026074Y002883D03*
X029574Y003133D03*
X030824Y003383D03*
X031324Y003383D03*
X031574Y002633D03*
X032074Y003133D03*
X033074Y003633D03*
X036574Y005133D03*
X036074Y005883D03*
X036074Y006383D03*
X036574Y006883D03*
X036074Y007383D03*
X035574Y007133D03*
X035824Y008133D03*
X033824Y007383D03*
X034074Y006633D03*
X029574Y006133D03*
X029074Y007133D03*
X027574Y006633D03*
X027574Y005633D03*
X027574Y005133D03*
X036574Y009883D03*
X037574Y009883D03*
X036074Y010883D03*
X035574Y012383D03*
X036574Y012383D03*
X036574Y013383D03*
X036574Y013883D03*
X036324Y014383D03*
X035574Y013383D03*
X033824Y013883D03*
X033574Y013133D03*
X032074Y013633D03*
X031074Y013883D03*
X029074Y013883D03*
X029074Y014633D03*
X028074Y015133D03*
X026074Y015883D03*
X024824Y015883D03*
X024824Y015383D03*
X023074Y015133D03*
X022074Y015633D03*
X021574Y014633D03*
X022574Y014133D03*
X022574Y013633D03*
X024074Y013133D03*
X024574Y011633D03*
X026574Y012133D03*
X027074Y012633D03*
X027574Y013133D03*
X027574Y013633D03*
X026574Y013633D03*
X029074Y012133D03*
X029574Y012633D03*
X031574Y012633D03*
X032074Y012133D03*
X031074Y011133D03*
X033574Y011883D03*
X033824Y014883D03*
X038574Y012883D03*
X040824Y015633D03*
X041324Y015633D03*
X042074Y015883D03*
X041324Y016133D03*
X029574Y018633D03*
X021574Y018883D03*
X014074Y022383D03*
X013574Y021633D03*
X011574Y020633D03*
X011074Y021633D03*
X009574Y022383D03*
X009074Y022133D03*
X008324Y023133D03*
X008324Y023633D03*
X008824Y024133D03*
X009574Y023883D03*
X007324Y023133D03*
X006824Y023133D03*
X006824Y021883D03*
X008824Y019883D03*
X007574Y019383D03*
X007074Y018883D03*
X006824Y018383D03*
X008324Y017883D03*
X009324Y018883D03*
X011074Y015883D03*
X011324Y014883D03*
X012074Y014883D03*
X006824Y015383D03*
X016074Y011633D03*
X027574Y011633D03*
X038574Y005383D03*
X042324Y003883D03*
X042574Y008133D03*
X016074Y023383D03*
X015074Y023883D03*
X013574Y024133D03*
X014574Y025383D03*
X019324Y025133D03*
M02*
