G75*
%MOIN*%
%OFA0B0*%
%FSLAX24Y24*%
%IPPOS*%
%LPD*%
%AMOC8*
5,1,8,0,0,1.08239X$1,22.5*
%
%ADD10C,0.0150*%
%ADD11C,0.0080*%
%ADD12C,0.0040*%
%ADD13C,0.0060*%
%ADD14C,0.0020*%
%ADD15C,0.0120*%
%ADD16C,0.0100*%
%ADD17C,0.0050*%
%ADD18R,0.0050X0.0200*%
%ADD19R,0.2402X0.0157*%
%ADD20R,0.1417X0.0157*%
%ADD21R,0.1220X0.0157*%
%ADD22C,0.0110*%
%ADD23C,0.0030*%
%ADD24R,0.0300X1.6000*%
%ADD25R,0.0200X2.0900*%
%ADD26R,0.2850X0.0320*%
%ADD27R,0.1850X0.0320*%
%ADD28C,0.0160*%
%ADD29R,0.0160X0.0230*%
D10*
X003437Y043235D02*
X003437Y044586D01*
X004113Y044586D01*
X004338Y044361D01*
X004338Y043910D01*
X004113Y043685D01*
X003437Y043685D01*
X002957Y043910D02*
X002957Y044361D01*
X002732Y044586D01*
X002281Y044586D01*
X002056Y044361D01*
X002056Y043910D01*
X002281Y043685D01*
X002732Y043685D01*
X002957Y043910D01*
X001576Y045036D02*
X000675Y045036D01*
X001125Y045036D02*
X001125Y043685D01*
X006200Y043910D02*
X006425Y043685D01*
X006875Y043685D01*
X007100Y043910D01*
X007100Y044135D01*
X006875Y044361D01*
X006425Y044361D01*
X006200Y044586D01*
X006200Y044811D01*
X006425Y045036D01*
X006875Y045036D01*
X007100Y044811D01*
X007581Y044586D02*
X007806Y044586D01*
X007806Y043685D01*
X007581Y043685D02*
X008031Y043685D01*
X008502Y043685D02*
X008952Y043685D01*
X008727Y043685D02*
X008727Y045036D01*
X008502Y045036D01*
X007806Y045036D02*
X007806Y045261D01*
X009422Y045036D02*
X009422Y043685D01*
X009422Y044135D02*
X010098Y043685D01*
X009422Y044135D02*
X010098Y044586D01*
D11*
X023313Y042823D02*
X027887Y042823D01*
X027887Y034397D01*
X023313Y034397D01*
X023313Y042823D01*
X026390Y042370D02*
X026530Y042370D01*
X026460Y042370D02*
X026460Y041950D01*
X026390Y041950D02*
X026530Y041950D01*
X026697Y042020D02*
X026767Y041950D01*
X026907Y041950D01*
X026977Y042020D01*
X027157Y041950D02*
X027438Y042230D01*
X027438Y042300D01*
X027368Y042370D01*
X027227Y042370D01*
X027157Y042300D01*
X026977Y042300D02*
X026907Y042370D01*
X026767Y042370D01*
X026697Y042300D01*
X026697Y042020D01*
X027157Y041950D02*
X027438Y041950D01*
X030813Y042823D02*
X035387Y042823D01*
X035387Y034397D01*
X030813Y034397D01*
X030813Y042823D01*
X033590Y042470D02*
X033730Y042470D01*
X033660Y042470D02*
X033660Y042050D01*
X033590Y042050D02*
X033730Y042050D01*
X033897Y042120D02*
X033967Y042050D01*
X034107Y042050D01*
X034177Y042120D01*
X034357Y042120D02*
X034427Y042050D01*
X034568Y042050D01*
X034638Y042120D01*
X034638Y042190D01*
X034568Y042260D01*
X034497Y042260D01*
X034568Y042260D02*
X034638Y042330D01*
X034638Y042400D01*
X034568Y042470D01*
X034427Y042470D01*
X034357Y042400D01*
X034177Y042400D02*
X034107Y042470D01*
X033967Y042470D01*
X033897Y042400D01*
X033897Y042120D01*
X038313Y042823D02*
X042887Y042823D01*
X042887Y034397D01*
X038313Y034397D01*
X038313Y042823D01*
X041190Y042470D02*
X041330Y042470D01*
X041260Y042470D02*
X041260Y042050D01*
X041190Y042050D02*
X041330Y042050D01*
X041497Y042120D02*
X041567Y042050D01*
X041707Y042050D01*
X041777Y042120D01*
X041957Y042260D02*
X042238Y042260D01*
X042168Y042050D02*
X042168Y042470D01*
X041957Y042260D01*
X041777Y042400D02*
X041707Y042470D01*
X041567Y042470D01*
X041497Y042400D01*
X041497Y042120D01*
X046313Y042823D02*
X050887Y042823D01*
X050887Y034397D01*
X046313Y034397D01*
X046313Y042823D01*
X048990Y042170D02*
X049130Y042170D01*
X049060Y042170D02*
X049060Y041750D01*
X048990Y041750D02*
X049130Y041750D01*
X049297Y041820D02*
X049367Y041750D01*
X049507Y041750D01*
X049577Y041820D01*
X049757Y041820D02*
X049827Y041750D01*
X049968Y041750D01*
X050038Y041820D01*
X050038Y041960D01*
X049968Y042030D01*
X049897Y042030D01*
X049757Y041960D01*
X049757Y042170D01*
X050038Y042170D01*
X049577Y042100D02*
X049507Y042170D01*
X049367Y042170D01*
X049297Y042100D01*
X049297Y041820D01*
X053800Y041290D02*
X053800Y041010D01*
X053870Y040940D01*
X054010Y040940D01*
X054080Y041010D01*
X054260Y040940D02*
X054541Y040940D01*
X054401Y040940D02*
X054401Y041360D01*
X054260Y041220D01*
X054080Y041290D02*
X054010Y041360D01*
X053870Y041360D01*
X053800Y041290D01*
X057240Y041280D02*
X057240Y041000D01*
X057310Y040930D01*
X057450Y040930D01*
X057520Y041000D01*
X057700Y040930D02*
X057981Y041210D01*
X057981Y041280D01*
X057911Y041350D01*
X057770Y041350D01*
X057700Y041280D01*
X057520Y041280D02*
X057450Y041350D01*
X057310Y041350D01*
X057240Y041280D01*
X057700Y040930D02*
X057981Y040930D01*
X056900Y038560D02*
X056690Y038350D01*
X056970Y038350D01*
X056900Y038140D02*
X056900Y038560D01*
X056509Y038490D02*
X056439Y038560D01*
X056299Y038560D01*
X056229Y038490D01*
X056229Y038210D01*
X056299Y038140D01*
X056439Y038140D01*
X056509Y038210D01*
X056852Y037555D02*
X057049Y037555D01*
X057049Y035665D01*
X056852Y035665D01*
X056852Y037555D01*
X057049Y037555D02*
X058348Y037555D01*
X058348Y035665D01*
X057049Y035665D01*
X056918Y035320D02*
X056918Y034900D01*
X057198Y034900D01*
X057379Y034970D02*
X057449Y034900D01*
X057589Y034900D01*
X057659Y034970D01*
X057659Y035110D01*
X057519Y035110D01*
X057659Y035250D02*
X057589Y035320D01*
X057449Y035320D01*
X057379Y035250D01*
X057379Y034970D01*
X057058Y035110D02*
X056918Y035110D01*
X056738Y035110D02*
X056668Y035040D01*
X056458Y035040D01*
X056598Y035040D02*
X056738Y034900D01*
X056738Y035110D02*
X056738Y035250D01*
X056668Y035320D01*
X056458Y035320D01*
X056458Y034900D01*
X056918Y035320D02*
X057198Y035320D01*
X057839Y035250D02*
X057909Y035320D01*
X058049Y035320D01*
X058119Y035250D01*
X058119Y035180D01*
X058049Y035110D01*
X058119Y035040D01*
X058119Y034970D01*
X058049Y034900D01*
X057909Y034900D01*
X057839Y034970D01*
X057979Y035110D02*
X058049Y035110D01*
X058299Y034970D02*
X058369Y034970D01*
X058369Y034900D01*
X058299Y034900D01*
X058299Y034970D01*
X058530Y034970D02*
X058600Y034900D01*
X058740Y034900D01*
X058810Y034970D01*
X058810Y035040D01*
X058740Y035110D01*
X058670Y035110D01*
X058740Y035110D02*
X058810Y035180D01*
X058810Y035250D01*
X058740Y035320D01*
X058600Y035320D01*
X058530Y035250D01*
X058580Y034500D02*
X058790Y034500D01*
X058860Y034430D01*
X058860Y034290D01*
X058790Y034220D01*
X058580Y034220D01*
X058580Y034080D02*
X058580Y034500D01*
X058720Y034220D02*
X058860Y034080D01*
X059040Y034080D02*
X059321Y034080D01*
X059181Y034080D02*
X059181Y034500D01*
X059040Y034360D01*
X055242Y034970D02*
X055172Y034900D01*
X055032Y034900D01*
X054962Y034970D01*
X054962Y035110D02*
X055102Y035180D01*
X055172Y035180D01*
X055242Y035110D01*
X055242Y034970D01*
X054962Y035110D02*
X054962Y035320D01*
X055242Y035320D01*
X054848Y035665D02*
X054848Y037555D01*
X053549Y037555D01*
X053549Y035665D01*
X053352Y035665D01*
X053352Y037555D01*
X053549Y037555D01*
X053440Y038250D02*
X053300Y038250D01*
X053230Y038320D01*
X053049Y038320D02*
X052979Y038250D01*
X052839Y038250D01*
X052769Y038320D01*
X052769Y038600D01*
X052839Y038670D01*
X052979Y038670D01*
X053049Y038600D01*
X053230Y038600D02*
X053300Y038670D01*
X053440Y038670D01*
X053510Y038600D01*
X053510Y038530D01*
X053440Y038460D01*
X053510Y038390D01*
X053510Y038320D01*
X053440Y038250D01*
X053440Y038460D02*
X053370Y038460D01*
X053549Y035665D02*
X054848Y035665D01*
X054481Y035320D02*
X054341Y035320D01*
X054271Y035250D01*
X054091Y035250D02*
X054021Y035320D01*
X053881Y035320D01*
X053811Y035250D01*
X053811Y034970D01*
X053881Y034900D01*
X054021Y034900D01*
X054091Y034970D01*
X054091Y035110D01*
X053951Y035110D01*
X054271Y034900D02*
X054551Y035180D01*
X054551Y035250D01*
X054481Y035320D01*
X054551Y034900D02*
X054271Y034900D01*
X054239Y034500D02*
X054169Y034430D01*
X054169Y034150D01*
X054239Y034080D01*
X054379Y034080D01*
X054449Y034150D01*
X054630Y034150D02*
X054910Y034430D01*
X054910Y034500D01*
X054630Y034500D01*
X054449Y034430D02*
X054379Y034500D01*
X054239Y034500D01*
X054630Y034150D02*
X054630Y034080D01*
X054732Y034900D02*
X054802Y034900D01*
X054802Y034970D01*
X054732Y034970D01*
X054732Y034900D01*
X053631Y034900D02*
X053350Y034900D01*
X053350Y035320D01*
X053631Y035320D01*
X053491Y035110D02*
X053350Y035110D01*
X053170Y035110D02*
X053100Y035040D01*
X052890Y035040D01*
X052890Y034900D02*
X052890Y035320D01*
X053100Y035320D01*
X053170Y035250D01*
X053170Y035110D01*
X053030Y035040D02*
X053170Y034900D01*
X051890Y033198D02*
X052170Y032917D01*
X052240Y032917D01*
X052170Y032737D02*
X052240Y032667D01*
X052240Y032527D01*
X052170Y032457D01*
X051890Y032457D01*
X051820Y032527D01*
X051820Y032667D01*
X051890Y032737D01*
X051820Y032917D02*
X051820Y033198D01*
X051890Y033198D01*
X051820Y032290D02*
X051820Y032150D01*
X051820Y032220D02*
X052240Y032220D01*
X052240Y032150D02*
X052240Y032290D01*
X049270Y032389D02*
X049200Y032319D01*
X048920Y032319D01*
X048850Y032389D01*
X048850Y032529D01*
X048920Y032599D01*
X048920Y032780D02*
X048990Y032780D01*
X049060Y032850D01*
X049060Y033060D01*
X049200Y033060D02*
X048920Y033060D01*
X048850Y032990D01*
X048850Y032850D01*
X048920Y032780D01*
X049200Y032780D02*
X049270Y032850D01*
X049270Y032990D01*
X049200Y033060D01*
X049200Y032599D02*
X049270Y032529D01*
X049270Y032389D01*
X048660Y028961D02*
X048730Y028891D01*
X048730Y028750D01*
X048660Y028680D01*
X048730Y028500D02*
X048590Y028360D01*
X048590Y028430D02*
X048590Y028220D01*
X048730Y028220D02*
X048310Y028220D01*
X048310Y028430D01*
X048380Y028500D01*
X048520Y028500D01*
X048590Y028430D01*
X048380Y028680D02*
X048310Y028750D01*
X048310Y028891D01*
X048380Y028961D01*
X048450Y028961D01*
X048520Y028891D01*
X048590Y028961D01*
X048660Y028961D01*
X048520Y028891D02*
X048520Y028821D01*
X052100Y028860D02*
X052100Y028720D01*
X052170Y028650D01*
X052170Y028469D02*
X052100Y028399D01*
X052100Y028189D01*
X052520Y028189D01*
X052380Y028189D02*
X052380Y028399D01*
X052310Y028469D01*
X052170Y028469D01*
X052380Y028329D02*
X052520Y028469D01*
X052520Y028650D02*
X052240Y028930D01*
X052170Y028930D01*
X052100Y028860D01*
X052520Y028930D02*
X052520Y028650D01*
X055423Y026433D02*
X055423Y018787D01*
X047773Y018787D01*
X047773Y026433D01*
X055423Y026433D01*
X061330Y023280D02*
X061330Y023000D01*
X061400Y022930D01*
X061540Y022930D01*
X061610Y023000D01*
X061790Y022930D02*
X062071Y022930D01*
X061931Y022930D02*
X061931Y023350D01*
X061790Y023210D01*
X061610Y023280D02*
X061540Y023350D01*
X061400Y023350D01*
X061330Y023280D01*
X062251Y023140D02*
X062251Y023000D01*
X062321Y022930D01*
X062461Y022930D01*
X062531Y023000D01*
X062531Y023070D01*
X062461Y023140D01*
X062251Y023140D01*
X062391Y023280D01*
X062531Y023350D01*
X063430Y023290D02*
X063430Y023010D01*
X063500Y022940D01*
X063640Y022940D01*
X063710Y023010D01*
X063890Y022940D02*
X064171Y022940D01*
X064031Y022940D02*
X064031Y023360D01*
X063890Y023220D01*
X063710Y023290D02*
X063640Y023360D01*
X063500Y023360D01*
X063430Y023290D01*
X064351Y023360D02*
X064351Y023150D01*
X064491Y023220D01*
X064561Y023220D01*
X064631Y023150D01*
X064631Y023010D01*
X064561Y022940D01*
X064421Y022940D01*
X064351Y023010D01*
X064351Y023360D02*
X064631Y023360D01*
X065650Y024430D02*
X065720Y024360D01*
X065860Y024360D01*
X065930Y024430D01*
X066110Y024360D02*
X066391Y024360D01*
X066251Y024360D02*
X066251Y024780D01*
X066110Y024640D01*
X065930Y024710D02*
X065860Y024780D01*
X065720Y024780D01*
X065650Y024710D01*
X065650Y024430D01*
X066571Y024360D02*
X066851Y024640D01*
X066851Y024710D01*
X066781Y024780D01*
X066641Y024780D01*
X066571Y024710D01*
X066571Y024360D02*
X066851Y024360D01*
X066730Y026210D02*
X066730Y026630D01*
X066940Y026630D01*
X067010Y026560D01*
X067010Y026420D01*
X066940Y026350D01*
X066730Y026350D01*
X066870Y026350D02*
X067010Y026210D01*
X067331Y026210D02*
X067331Y026630D01*
X067471Y026630D02*
X067190Y026630D01*
X067651Y026560D02*
X067651Y026490D01*
X067721Y026420D01*
X067861Y026420D01*
X067931Y026350D01*
X067931Y026280D01*
X067861Y026210D01*
X067721Y026210D01*
X067651Y026280D01*
X067651Y026560D02*
X067721Y026630D01*
X067861Y026630D01*
X067931Y026560D01*
X068400Y026570D02*
X068400Y026290D01*
X068470Y026220D01*
X068610Y026220D01*
X068680Y026290D01*
X068680Y026570D02*
X068610Y026640D01*
X068470Y026640D01*
X068400Y026570D01*
X068860Y026640D02*
X069141Y026640D01*
X069001Y026640D02*
X069001Y026220D01*
X069321Y026290D02*
X069391Y026220D01*
X069531Y026220D01*
X069601Y026290D01*
X069601Y026360D01*
X069531Y026430D01*
X069391Y026430D01*
X069321Y026500D01*
X069321Y026570D01*
X069391Y026640D01*
X069531Y026640D01*
X069601Y026570D01*
X066881Y028920D02*
X066601Y028920D01*
X066741Y028920D02*
X066741Y029340D01*
X066601Y029200D01*
X066421Y028920D02*
X066140Y028920D01*
X066281Y028920D02*
X066281Y029340D01*
X066140Y029200D01*
X065960Y029270D02*
X065890Y029340D01*
X065750Y029340D01*
X065680Y029270D01*
X065680Y028990D01*
X065750Y028920D01*
X065890Y028920D01*
X065960Y028990D01*
X062540Y028478D02*
X062540Y028198D01*
X062540Y028338D02*
X062120Y028338D01*
X062260Y028198D01*
X062540Y028018D02*
X062540Y027737D01*
X062540Y027877D02*
X062120Y027877D01*
X062260Y027737D01*
X062190Y027557D02*
X062120Y027487D01*
X062120Y027347D01*
X062190Y027277D01*
X062470Y027277D01*
X062540Y027347D01*
X062540Y027487D01*
X062470Y027557D01*
X062540Y027110D02*
X062540Y026970D01*
X062540Y027040D02*
X062120Y027040D01*
X062120Y026970D02*
X062120Y027110D01*
X065700Y031090D02*
X065840Y031090D01*
X065910Y031160D01*
X066090Y031090D02*
X066371Y031090D01*
X066231Y031090D02*
X066231Y031510D01*
X066090Y031370D01*
X065910Y031440D02*
X065840Y031510D01*
X065700Y031510D01*
X065630Y031440D01*
X065630Y031160D01*
X065700Y031090D01*
X066551Y031160D02*
X066831Y031440D01*
X066831Y031160D01*
X066761Y031090D01*
X066621Y031090D01*
X066551Y031160D01*
X066551Y031440D01*
X066621Y031510D01*
X066761Y031510D01*
X066831Y031440D01*
X067960Y033730D02*
X068240Y033730D01*
X068100Y033730D02*
X068100Y034150D01*
X067960Y034010D01*
X067960Y037390D02*
X067890Y037460D01*
X068170Y037740D01*
X068170Y037460D01*
X068100Y037390D01*
X067960Y037390D01*
X067890Y037460D02*
X067890Y037740D01*
X067960Y037810D01*
X068100Y037810D01*
X068170Y037740D01*
X068270Y041010D02*
X067990Y041010D01*
X068270Y041290D01*
X068270Y041360D01*
X068200Y041430D01*
X068060Y041430D01*
X067990Y041360D01*
X056791Y032060D02*
X056650Y031920D01*
X056791Y032060D02*
X056791Y031640D01*
X056931Y031640D02*
X056650Y031640D01*
X056470Y031640D02*
X056190Y032060D01*
X056470Y032060D02*
X056190Y031640D01*
X049688Y024460D02*
X049548Y024460D01*
X049478Y024390D01*
X049688Y024460D02*
X049758Y024390D01*
X049758Y024320D01*
X049478Y024040D01*
X049758Y024040D01*
X049298Y024040D02*
X049017Y024040D01*
X049157Y024040D02*
X049157Y024460D01*
X049017Y024320D01*
X048837Y024390D02*
X048767Y024460D01*
X048627Y024460D01*
X048557Y024390D01*
X048557Y024110D01*
X048627Y024040D01*
X048767Y024040D01*
X048837Y024110D01*
X048390Y024040D02*
X048250Y024040D01*
X048320Y024040D02*
X048320Y024460D01*
X048250Y024460D02*
X048390Y024460D01*
X042757Y027873D02*
X042147Y027873D01*
X042147Y029355D01*
X042757Y029355D01*
X042757Y027873D01*
X042757Y007355D01*
X042147Y007355D01*
X042147Y005873D01*
X042757Y005873D01*
X042757Y003677D01*
X039450Y003677D01*
X039450Y005776D01*
X039568Y005776D01*
X039568Y006358D01*
X039450Y006358D01*
X039450Y016873D01*
X039450Y018355D01*
X039450Y028776D01*
X039568Y028776D01*
X039568Y029358D01*
X039450Y029358D01*
X039450Y031551D01*
X042757Y031551D01*
X042757Y029355D01*
X042393Y029358D02*
X042393Y031108D01*
X039814Y031108D01*
X039814Y018355D01*
X040060Y018355D02*
X039450Y018355D01*
X040060Y018355D02*
X040060Y016873D01*
X039450Y016873D01*
X039814Y016873D02*
X039814Y004120D01*
X042393Y004120D01*
X042393Y005870D01*
X042757Y005873D02*
X042757Y007355D01*
X042393Y007356D02*
X042393Y027872D01*
X035830Y029920D02*
X035830Y030060D01*
X035830Y029990D02*
X035410Y029990D01*
X035410Y029920D02*
X035410Y030060D01*
X035480Y030227D02*
X035760Y030227D01*
X035830Y030297D01*
X035830Y030437D01*
X035760Y030507D01*
X035760Y030687D02*
X035830Y030757D01*
X035830Y030898D01*
X035760Y030968D01*
X035480Y030968D01*
X035410Y030898D01*
X035410Y030757D01*
X035480Y030687D01*
X035550Y030687D01*
X035620Y030757D01*
X035620Y030968D01*
X035480Y030507D02*
X035410Y030437D01*
X035410Y030297D01*
X035480Y030227D01*
X032660Y030550D02*
X032380Y030550D01*
X032590Y030760D01*
X032590Y030340D01*
X032199Y030340D02*
X031919Y030340D01*
X032059Y030340D02*
X032059Y030760D01*
X031919Y030620D01*
X031739Y030690D02*
X031669Y030760D01*
X031529Y030760D01*
X031459Y030690D01*
X031459Y030410D01*
X031529Y030340D01*
X031669Y030340D01*
X031739Y030410D01*
X029250Y029858D02*
X029250Y029717D01*
X029180Y029647D01*
X029110Y029647D01*
X029040Y029717D01*
X029040Y029858D01*
X029110Y029928D01*
X029180Y029928D01*
X029250Y029858D01*
X029040Y029858D02*
X028970Y029928D01*
X028900Y029928D01*
X028830Y029858D01*
X028830Y029717D01*
X028900Y029647D01*
X028970Y029647D01*
X029040Y029717D01*
X029180Y029467D02*
X029250Y029397D01*
X029250Y029257D01*
X029180Y029187D01*
X028900Y029187D01*
X028830Y029257D01*
X028830Y029397D01*
X028900Y029467D01*
X028830Y029020D02*
X028830Y028880D01*
X028830Y028950D02*
X029250Y028950D01*
X029250Y028880D02*
X029250Y029020D01*
X025290Y030240D02*
X025220Y030170D01*
X025080Y030170D01*
X025010Y030240D01*
X024829Y030170D02*
X024549Y030170D01*
X024689Y030170D02*
X024689Y030590D01*
X024549Y030450D01*
X024369Y030520D02*
X024299Y030590D01*
X024159Y030590D01*
X024089Y030520D01*
X024089Y030240D01*
X024159Y030170D01*
X024299Y030170D01*
X024369Y030240D01*
X025010Y030520D02*
X025080Y030590D01*
X025220Y030590D01*
X025290Y030520D01*
X025290Y030450D01*
X025220Y030380D01*
X025290Y030310D01*
X025290Y030240D01*
X025220Y030380D02*
X025150Y030380D01*
X022878Y031430D02*
X022808Y031360D01*
X022668Y031360D01*
X022598Y031430D01*
X022878Y031710D01*
X022878Y031430D01*
X022598Y031430D02*
X022598Y031710D01*
X022668Y031780D01*
X022808Y031780D01*
X022878Y031710D01*
X022418Y031360D02*
X022137Y031360D01*
X022277Y031360D02*
X022277Y031780D01*
X022137Y031640D01*
X021957Y031710D02*
X021887Y031780D01*
X021747Y031780D01*
X021677Y031710D01*
X021677Y031430D01*
X021747Y031360D01*
X021887Y031360D01*
X021957Y031430D01*
X021510Y031360D02*
X021370Y031360D01*
X021440Y031360D02*
X021440Y031780D01*
X021370Y031780D02*
X021510Y031780D01*
X022699Y033450D02*
X022839Y033450D01*
X022909Y033520D01*
X023090Y033520D02*
X023160Y033450D01*
X023300Y033450D01*
X023370Y033520D01*
X023370Y033660D01*
X023300Y033730D01*
X023230Y033730D01*
X023090Y033660D01*
X023090Y033870D01*
X023370Y033870D01*
X022909Y033800D02*
X022839Y033870D01*
X022699Y033870D01*
X022629Y033800D01*
X022629Y033520D01*
X022699Y033450D01*
X015870Y032800D02*
X015870Y032730D01*
X015800Y032660D01*
X015660Y032660D01*
X015590Y032730D01*
X015590Y032800D01*
X015660Y032870D01*
X015800Y032870D01*
X015870Y032800D01*
X015800Y032660D02*
X015870Y032590D01*
X015870Y032520D01*
X015800Y032450D01*
X015660Y032450D01*
X015590Y032520D01*
X015590Y032590D01*
X015660Y032660D01*
X015409Y032520D02*
X015339Y032450D01*
X015199Y032450D01*
X015129Y032520D01*
X015129Y032800D01*
X015199Y032870D01*
X015339Y032870D01*
X015409Y032800D01*
X015341Y030570D02*
X015341Y030150D01*
X015341Y030290D02*
X015621Y030570D01*
X015801Y030570D02*
X016011Y030570D01*
X016081Y030500D01*
X016081Y030360D01*
X016011Y030290D01*
X015801Y030290D01*
X015801Y030150D02*
X015801Y030570D01*
X015941Y030290D02*
X016081Y030150D01*
X015621Y030150D02*
X015411Y030360D01*
X015161Y030360D02*
X015091Y030290D01*
X014880Y030290D01*
X014880Y030150D02*
X014880Y030570D01*
X015091Y030570D01*
X015161Y030500D01*
X015161Y030360D01*
X014700Y030290D02*
X014700Y030220D01*
X014630Y030150D01*
X014490Y030150D01*
X014420Y030220D01*
X014490Y030360D02*
X014630Y030360D01*
X014700Y030290D01*
X014700Y030500D02*
X014630Y030570D01*
X014490Y030570D01*
X014420Y030500D01*
X014420Y030430D01*
X014490Y030360D01*
X018930Y027750D02*
X018930Y027330D01*
X018930Y027470D02*
X019140Y027470D01*
X019210Y027540D01*
X019210Y027680D01*
X019140Y027750D01*
X018930Y027750D01*
X019070Y027470D02*
X019210Y027330D01*
X019390Y027540D02*
X019671Y027540D01*
X019601Y027330D02*
X019601Y027750D01*
X019390Y027540D01*
X024769Y020920D02*
X024979Y020920D01*
X025049Y020850D01*
X025049Y020710D01*
X024979Y020640D01*
X024769Y020640D01*
X024769Y020500D02*
X024769Y020920D01*
X024909Y020640D02*
X025049Y020500D01*
X025230Y020570D02*
X025300Y020500D01*
X025440Y020500D01*
X025510Y020570D01*
X025510Y020710D01*
X025440Y020780D01*
X025370Y020780D01*
X025230Y020710D01*
X025230Y020920D01*
X025510Y020920D01*
X028980Y020700D02*
X029594Y020700D01*
X032008Y019490D02*
X032008Y019070D01*
X032219Y019070D01*
X032289Y019140D01*
X032289Y019210D01*
X032219Y019280D01*
X032008Y019280D01*
X032008Y019490D02*
X032219Y019490D01*
X032289Y019420D01*
X032289Y019350D01*
X032219Y019280D01*
X032469Y019280D02*
X032749Y019280D01*
X032749Y019350D02*
X032749Y019070D01*
X032469Y019070D02*
X032469Y019350D01*
X032609Y019490D01*
X032749Y019350D01*
X032929Y019490D02*
X033209Y019490D01*
X033069Y019490D02*
X033069Y019070D01*
X033390Y019070D02*
X033600Y019070D01*
X033670Y019140D01*
X033670Y019210D01*
X033600Y019280D01*
X033390Y019280D01*
X033600Y019280D02*
X033670Y019350D01*
X033670Y019420D01*
X033600Y019490D01*
X033390Y019490D01*
X033390Y019070D01*
X034787Y020393D02*
X034787Y021007D01*
X034480Y020700D02*
X035094Y020700D01*
X037530Y020720D02*
X037950Y020720D01*
X037950Y020580D02*
X037950Y020860D01*
X037670Y020580D02*
X037530Y020720D01*
X037530Y020259D02*
X037950Y020259D01*
X037950Y020119D02*
X037950Y020399D01*
X037670Y020119D02*
X037530Y020259D01*
X037600Y019939D02*
X037740Y019939D01*
X037810Y019869D01*
X037810Y019659D01*
X037810Y019799D02*
X037950Y019939D01*
X037950Y019659D02*
X037530Y019659D01*
X037530Y019869D01*
X037600Y019939D01*
X037091Y018620D02*
X037091Y018550D01*
X036811Y018270D01*
X036811Y018200D01*
X036631Y018200D02*
X036350Y018200D01*
X036491Y018200D02*
X036491Y018620D01*
X036350Y018480D01*
X036170Y018550D02*
X036100Y018620D01*
X035960Y018620D01*
X035890Y018550D01*
X035890Y018270D01*
X035960Y018200D01*
X036100Y018200D01*
X036170Y018270D01*
X036811Y018620D02*
X037091Y018620D01*
X037148Y013330D02*
X036938Y013120D01*
X037218Y013120D01*
X037148Y012910D02*
X037148Y013330D01*
X036617Y013330D02*
X036617Y012910D01*
X036477Y012910D02*
X036758Y012910D01*
X036477Y013190D02*
X036617Y013330D01*
X036297Y013260D02*
X036227Y013330D01*
X036087Y013330D01*
X036017Y013260D01*
X036017Y012980D01*
X036087Y012910D01*
X036227Y012910D01*
X036297Y012980D01*
X035850Y012910D02*
X035710Y012910D01*
X035780Y012910D02*
X035780Y013330D01*
X035710Y013330D02*
X035850Y013330D01*
X036270Y011401D02*
X036340Y011401D01*
X036410Y011331D01*
X036410Y011190D01*
X036340Y011120D01*
X036270Y011120D01*
X036200Y011190D01*
X036200Y011331D01*
X036270Y011401D01*
X036410Y011331D02*
X036480Y011401D01*
X036550Y011401D01*
X036620Y011331D01*
X036620Y011190D01*
X036550Y011120D01*
X036480Y011120D01*
X036410Y011190D01*
X036410Y010940D02*
X036480Y010870D01*
X036480Y010660D01*
X036620Y010660D02*
X036200Y010660D01*
X036200Y010870D01*
X036270Y010940D01*
X036410Y010940D01*
X036480Y010800D02*
X036620Y010940D01*
X035094Y010950D02*
X034480Y010950D01*
X034787Y011257D02*
X034787Y010643D01*
X033600Y009480D02*
X033600Y009200D01*
X033600Y009410D02*
X033320Y009410D01*
X033320Y009480D02*
X033460Y009620D01*
X033600Y009480D01*
X033320Y009480D02*
X033320Y009200D01*
X032999Y009200D02*
X032999Y009620D01*
X032859Y009620D02*
X033139Y009620D01*
X032679Y009480D02*
X032679Y009200D01*
X032679Y009410D02*
X032399Y009410D01*
X032399Y009480D02*
X032539Y009620D01*
X032679Y009480D01*
X032399Y009480D02*
X032399Y009200D01*
X032219Y009270D02*
X032149Y009200D01*
X031938Y009200D01*
X031938Y009620D01*
X032149Y009620D01*
X032219Y009550D01*
X032219Y009480D01*
X032149Y009410D01*
X031938Y009410D01*
X032149Y009410D02*
X032219Y009340D01*
X032219Y009270D01*
X029594Y010950D02*
X028980Y010950D01*
X049928Y010120D02*
X049928Y009840D01*
X049998Y009770D01*
X050138Y009770D01*
X050208Y009840D01*
X050388Y009770D02*
X050388Y010190D01*
X050599Y010190D01*
X050669Y010120D01*
X050669Y009980D01*
X050599Y009910D01*
X050388Y009910D01*
X050208Y010120D02*
X050138Y010190D01*
X049998Y010190D01*
X049928Y010120D01*
X050849Y010190D02*
X051059Y010190D01*
X051129Y010120D01*
X051129Y009980D01*
X051059Y009910D01*
X050849Y009910D01*
X050989Y009910D02*
X051129Y009770D01*
X051309Y009770D02*
X051589Y009770D01*
X051770Y009840D02*
X051840Y009770D01*
X051980Y009770D01*
X052050Y009840D01*
X052050Y010120D01*
X051980Y010190D01*
X051840Y010190D01*
X051770Y010120D01*
X051770Y009840D01*
X051910Y009910D02*
X052050Y009770D01*
X051589Y010190D02*
X051309Y010190D01*
X051309Y009770D01*
X051309Y009980D02*
X051449Y009980D01*
X050849Y009770D02*
X050849Y010190D01*
X056412Y011000D02*
X056552Y011000D01*
X056482Y011000D02*
X056482Y011420D01*
X056412Y011420D02*
X056552Y011420D01*
X056719Y011350D02*
X056719Y011070D01*
X056789Y011000D01*
X056929Y011000D01*
X056999Y011070D01*
X056999Y011350D01*
X056929Y011420D01*
X056789Y011420D01*
X056719Y011350D01*
X057180Y011280D02*
X057320Y011420D01*
X057320Y011000D01*
X057180Y011000D02*
X057460Y011000D01*
X060155Y010858D02*
X060155Y009559D01*
X062045Y009559D01*
X062045Y009362D01*
X060155Y009362D01*
X060155Y009559D01*
X062045Y009559D02*
X062045Y010858D01*
X060155Y010858D01*
X060290Y011660D02*
X060430Y011660D01*
X060360Y011660D02*
X060360Y012080D01*
X060290Y012080D02*
X060430Y012080D01*
X060597Y012010D02*
X060597Y011730D01*
X060667Y011660D01*
X060807Y011660D01*
X060877Y011730D01*
X061057Y011660D02*
X061338Y011660D01*
X061197Y011660D02*
X061197Y012080D01*
X061057Y011940D01*
X060877Y012010D02*
X060807Y012080D01*
X060667Y012080D01*
X060597Y012010D01*
X061518Y011870D02*
X061728Y011870D01*
X061798Y011800D01*
X061798Y011730D01*
X061728Y011660D01*
X061588Y011660D01*
X061518Y011730D01*
X061518Y011870D01*
X061658Y012010D01*
X061798Y012080D01*
X062760Y014910D02*
X062760Y015330D01*
X062970Y015330D01*
X063040Y015260D01*
X063040Y015120D01*
X062970Y015050D01*
X062760Y015050D01*
X062900Y015050D02*
X063040Y014910D01*
X063220Y014980D02*
X063290Y014910D01*
X063431Y014910D01*
X063501Y014980D01*
X063501Y015260D01*
X063431Y015330D01*
X063290Y015330D01*
X063220Y015260D01*
X063220Y015190D01*
X063290Y015120D01*
X063501Y015120D01*
X067670Y015070D02*
X067880Y015070D01*
X067950Y015140D01*
X067950Y015280D01*
X067880Y015350D01*
X067670Y015350D01*
X067670Y014930D01*
X067810Y015070D02*
X067950Y014930D01*
X068130Y014930D02*
X068411Y014930D01*
X068271Y014930D02*
X068271Y015350D01*
X068130Y015210D01*
X068591Y015280D02*
X068661Y015350D01*
X068801Y015350D01*
X068871Y015280D01*
X068591Y015000D01*
X068661Y014930D01*
X068801Y014930D01*
X068871Y015000D01*
X068871Y015280D01*
X068591Y015280D02*
X068591Y015000D01*
X067680Y012808D02*
X067540Y012808D01*
X067470Y012738D01*
X067470Y012668D01*
X067540Y012528D01*
X067330Y012528D01*
X067330Y012808D01*
X067680Y012808D02*
X067750Y012738D01*
X067750Y012598D01*
X067680Y012528D01*
X067750Y012348D02*
X067750Y012067D01*
X067750Y012207D02*
X067330Y012207D01*
X067470Y012067D01*
X067400Y011887D02*
X067330Y011817D01*
X067330Y011677D01*
X067400Y011607D01*
X067680Y011607D01*
X067750Y011677D01*
X067750Y011817D01*
X067680Y011887D01*
X067750Y011440D02*
X067750Y011300D01*
X067750Y011370D02*
X067330Y011370D01*
X067330Y011300D02*
X067330Y011440D01*
X067360Y008798D02*
X067430Y008798D01*
X067710Y008518D01*
X067780Y008518D01*
X067780Y008338D02*
X067780Y008057D01*
X067780Y008197D02*
X067360Y008197D01*
X067500Y008057D01*
X067430Y007877D02*
X067360Y007807D01*
X067360Y007667D01*
X067430Y007597D01*
X067710Y007597D01*
X067780Y007667D01*
X067780Y007807D01*
X067710Y007877D01*
X067780Y007430D02*
X067780Y007290D01*
X067780Y007360D02*
X067360Y007360D01*
X067360Y007290D02*
X067360Y007430D01*
X067360Y008518D02*
X067360Y008798D01*
X062651Y007120D02*
X062581Y007190D01*
X062440Y007190D01*
X062370Y007120D01*
X062190Y007190D02*
X061910Y006770D01*
X062190Y006770D02*
X061910Y007190D01*
X062370Y006770D02*
X062651Y007050D01*
X062651Y007120D01*
X062651Y006770D02*
X062370Y006770D01*
X057460Y006350D02*
X057390Y006420D01*
X057250Y006420D01*
X057180Y006350D01*
X056999Y006350D02*
X056929Y006420D01*
X056789Y006420D01*
X056719Y006350D01*
X056719Y006070D01*
X056789Y006000D01*
X056929Y006000D01*
X056999Y006070D01*
X056999Y006350D01*
X057180Y006000D02*
X057460Y006280D01*
X057460Y006350D01*
X057460Y006000D02*
X057180Y006000D01*
X056552Y006000D02*
X056412Y006000D01*
X056482Y006000D02*
X056482Y006420D01*
X056412Y006420D02*
X056552Y006420D01*
X056190Y017010D02*
X055770Y017010D01*
X055770Y017220D01*
X055840Y017290D01*
X055980Y017290D01*
X056050Y017220D01*
X056050Y017010D01*
X056050Y017150D02*
X056190Y017290D01*
X056190Y017470D02*
X056120Y017470D01*
X055840Y017751D01*
X055770Y017751D01*
X055770Y017470D01*
X061010Y020309D02*
X061010Y020449D01*
X061010Y020379D02*
X061360Y020379D01*
X061430Y020309D01*
X061430Y020238D01*
X061360Y020168D01*
X061010Y020629D02*
X061010Y020909D01*
X061010Y020769D02*
X061430Y020769D01*
X061430Y021089D02*
X061150Y021089D01*
X061010Y021229D01*
X061150Y021369D01*
X061430Y021369D01*
X061360Y021550D02*
X061430Y021620D01*
X061430Y021760D01*
X061360Y021830D01*
X061220Y021830D01*
X061220Y021690D01*
X061080Y021830D02*
X061010Y021760D01*
X061010Y021620D01*
X061080Y021550D01*
X061360Y021550D01*
X061220Y021369D02*
X061220Y021089D01*
X064830Y020158D02*
X064900Y020228D01*
X064970Y020228D01*
X065040Y020158D01*
X065110Y020228D01*
X065180Y020228D01*
X065250Y020158D01*
X065250Y020018D01*
X065180Y019948D01*
X065250Y019768D02*
X065250Y019487D01*
X065250Y019627D02*
X064830Y019627D01*
X064970Y019487D01*
X064900Y019307D02*
X064830Y019237D01*
X064830Y019097D01*
X064900Y019027D01*
X065180Y019027D01*
X065250Y019097D01*
X065250Y019237D01*
X065180Y019307D01*
X065250Y018860D02*
X065250Y018720D01*
X065250Y018790D02*
X064830Y018790D01*
X064830Y018720D02*
X064830Y018860D01*
X064900Y019948D02*
X064830Y020018D01*
X064830Y020158D01*
X065040Y020158D02*
X065040Y020088D01*
X067969Y021570D02*
X067969Y021990D01*
X068179Y021990D01*
X068249Y021920D01*
X068249Y021780D01*
X068179Y021710D01*
X067969Y021710D01*
X068109Y021710D02*
X068249Y021570D01*
X068430Y021640D02*
X068500Y021570D01*
X068640Y021570D01*
X068710Y021640D01*
X068710Y021710D01*
X068640Y021780D01*
X068430Y021780D01*
X068430Y021640D01*
X068430Y021780D02*
X068570Y021920D01*
X068710Y021990D01*
X039030Y033560D02*
X039030Y033630D01*
X038960Y033700D01*
X038750Y033700D01*
X038750Y033560D01*
X038820Y033490D01*
X038960Y033490D01*
X039030Y033560D01*
X038890Y033840D02*
X038750Y033700D01*
X038890Y033840D02*
X039030Y033910D01*
X038569Y033840D02*
X038499Y033910D01*
X038359Y033910D01*
X038289Y033840D01*
X038289Y033560D01*
X038359Y033490D01*
X038499Y033490D01*
X038569Y033560D01*
D12*
X040795Y030512D02*
X040795Y030205D01*
X040795Y030358D02*
X040335Y030358D01*
X040488Y030205D01*
X041319Y030282D02*
X041396Y030205D01*
X041319Y030282D02*
X041319Y030435D01*
X041396Y030512D01*
X041473Y030512D01*
X041779Y030205D01*
X041779Y030512D01*
X042923Y030483D02*
X042923Y030330D01*
X043000Y030253D01*
X043076Y030253D01*
X043153Y030330D01*
X043153Y030483D01*
X043230Y030560D01*
X043307Y030560D01*
X043383Y030483D01*
X043383Y030330D01*
X043307Y030253D01*
X043000Y030560D02*
X042923Y030483D01*
X042923Y030713D02*
X042923Y030943D01*
X043000Y031020D01*
X043076Y031020D01*
X043153Y030943D01*
X043153Y030713D01*
X043383Y030713D02*
X042923Y030713D01*
X043153Y030943D02*
X043230Y031020D01*
X043307Y031020D01*
X043383Y030943D01*
X043383Y030713D01*
X043307Y031174D02*
X043383Y031250D01*
X043383Y031404D01*
X043307Y031480D01*
X043307Y031174D02*
X043000Y031174D01*
X042923Y031250D01*
X042923Y031404D01*
X043000Y031480D01*
X057240Y029120D02*
X057547Y029120D01*
X057700Y029043D02*
X057854Y028890D01*
X058007Y029043D01*
X058007Y029350D01*
X058161Y029350D02*
X058468Y029350D01*
X058314Y029350D02*
X058314Y028890D01*
X057700Y029043D02*
X057700Y029350D01*
X057717Y025450D02*
X058024Y024990D01*
X058024Y025450D01*
X058178Y025450D02*
X058331Y025450D01*
X058254Y025450D02*
X058254Y024990D01*
X058178Y024990D02*
X058331Y024990D01*
X058638Y024990D02*
X058638Y025450D01*
X058485Y025450D02*
X058792Y025450D01*
X057717Y025450D02*
X057717Y024990D01*
X057564Y024990D02*
X057410Y024990D01*
X057487Y024990D02*
X057487Y025450D01*
X057410Y025450D02*
X057564Y025450D01*
X057257Y025220D02*
X056950Y025220D01*
X073920Y040080D02*
X073920Y040387D01*
X074150Y040540D02*
X074073Y040617D01*
X074073Y040771D01*
X074150Y040847D01*
X074227Y040847D01*
X074227Y040540D01*
X074303Y040540D02*
X074150Y040540D01*
X074303Y040540D02*
X074380Y040617D01*
X074380Y040771D01*
X074380Y041001D02*
X074073Y041001D01*
X074073Y041078D01*
X074150Y041154D01*
X074073Y041231D01*
X074150Y041308D01*
X074380Y041308D01*
X074380Y041154D02*
X074150Y041154D01*
X074303Y041461D02*
X074227Y041538D01*
X074227Y041768D01*
X074150Y041768D02*
X074380Y041768D01*
X074380Y041538D01*
X074303Y041461D01*
X074073Y041538D02*
X074073Y041691D01*
X074150Y041768D01*
X074380Y041922D02*
X074380Y042075D01*
X074380Y041998D02*
X073920Y041998D01*
X073920Y041922D01*
X074150Y042228D02*
X074073Y042305D01*
X074073Y042459D01*
X074150Y042535D01*
X074227Y042535D01*
X074227Y042228D01*
X074303Y042228D02*
X074150Y042228D01*
X074303Y042228D02*
X074380Y042305D01*
X074380Y042459D01*
X074150Y040233D02*
X074150Y040080D01*
X074380Y040080D02*
X073920Y040080D01*
X022580Y022437D02*
X022580Y022130D01*
X022580Y022283D02*
X022120Y022283D01*
X022273Y022130D01*
X021079Y020307D02*
X021079Y020153D01*
X021079Y020230D02*
X020619Y020230D01*
X020619Y020153D02*
X020619Y020307D01*
X020849Y019539D02*
X020926Y019539D01*
X020926Y019232D01*
X021003Y019232D02*
X020849Y019232D01*
X020773Y019309D01*
X020773Y019463D01*
X020849Y019539D01*
X021079Y019463D02*
X021079Y019309D01*
X021003Y019232D01*
X021003Y019079D02*
X021079Y019002D01*
X021079Y018772D01*
X021079Y018619D02*
X021079Y018388D01*
X021003Y018312D01*
X020773Y018312D01*
X020619Y018158D02*
X020619Y017851D01*
X020619Y018005D02*
X021079Y018005D01*
X021233Y018465D02*
X021233Y018542D01*
X021156Y018619D01*
X020773Y018619D01*
X020773Y018772D02*
X020773Y019002D01*
X020849Y019079D01*
X021003Y019079D01*
X021233Y018772D02*
X020773Y018772D01*
X020849Y016777D02*
X021079Y016777D01*
X020849Y016777D02*
X020773Y016700D01*
X020773Y016547D01*
X020849Y016470D01*
X020773Y016317D02*
X020773Y016086D01*
X020849Y016010D01*
X020926Y016086D01*
X020926Y016240D01*
X021003Y016317D01*
X021079Y016240D01*
X021079Y016010D01*
X021079Y015856D02*
X021079Y015626D01*
X021003Y015549D01*
X020926Y015626D01*
X020926Y015856D01*
X020849Y015856D02*
X021079Y015856D01*
X020849Y015856D02*
X020773Y015779D01*
X020773Y015626D01*
X020619Y015319D02*
X021079Y015319D01*
X021079Y015242D02*
X021079Y015396D01*
X020619Y015319D02*
X020619Y015242D01*
X020619Y015089D02*
X020619Y014782D01*
X021079Y014782D01*
X020849Y014782D02*
X020849Y014935D01*
X020773Y014168D02*
X020773Y014015D01*
X020696Y014091D02*
X021003Y014091D01*
X021079Y014168D01*
X021079Y013861D02*
X021079Y013631D01*
X021003Y013554D01*
X020849Y013554D01*
X020773Y013631D01*
X020773Y013861D01*
X020849Y013401D02*
X021079Y013401D01*
X021079Y013171D01*
X021003Y013094D01*
X020926Y013171D01*
X020926Y013401D01*
X020849Y013401D02*
X020773Y013324D01*
X020773Y013171D01*
X020849Y012940D02*
X021003Y012940D01*
X021079Y012864D01*
X021079Y012633D01*
X021079Y012480D02*
X020849Y012480D01*
X020773Y012403D01*
X020849Y012327D01*
X021079Y012327D01*
X021079Y012173D02*
X020773Y012173D01*
X020773Y012250D01*
X020849Y012327D01*
X020849Y012020D02*
X020773Y011943D01*
X020773Y011789D01*
X020849Y011713D01*
X021003Y011713D01*
X021079Y011789D01*
X021079Y011943D01*
X021003Y012020D01*
X020849Y012020D01*
X020696Y011559D02*
X020619Y011482D01*
X020619Y011329D01*
X020696Y011252D01*
X021003Y011252D01*
X021079Y011329D01*
X021079Y011482D01*
X021003Y011559D01*
X021233Y012633D02*
X020773Y012633D01*
X020773Y012864D01*
X020849Y012940D01*
X020619Y016470D02*
X021079Y016470D01*
X020315Y040887D02*
X020315Y041040D01*
X020315Y040964D02*
X019855Y040964D01*
X019855Y041040D02*
X019855Y040887D01*
X019932Y041194D02*
X020239Y041194D01*
X020315Y041271D01*
X020315Y041424D01*
X020239Y041501D01*
X020315Y041654D02*
X020315Y041961D01*
X020315Y041808D02*
X019855Y041808D01*
X020008Y041654D01*
X019932Y041501D02*
X019855Y041424D01*
X019855Y041271D01*
X019932Y041194D01*
D13*
X027350Y032160D02*
X028170Y032160D01*
X029170Y032160D01*
X029990Y032160D01*
X030013Y032158D01*
X030036Y032153D01*
X030058Y032144D01*
X030078Y032131D01*
X030096Y032116D01*
X030111Y032098D01*
X030124Y032078D01*
X030133Y032056D01*
X030138Y032033D01*
X030140Y032010D01*
X029170Y032160D02*
X029168Y032116D01*
X029162Y032073D01*
X029153Y032031D01*
X029140Y031989D01*
X029123Y031949D01*
X029103Y031910D01*
X029080Y031873D01*
X029053Y031839D01*
X029024Y031806D01*
X028991Y031777D01*
X028957Y031750D01*
X028920Y031727D01*
X028881Y031707D01*
X028841Y031690D01*
X028799Y031677D01*
X028757Y031668D01*
X028714Y031662D01*
X028670Y031660D01*
X028626Y031662D01*
X028583Y031668D01*
X028541Y031677D01*
X028499Y031690D01*
X028459Y031707D01*
X028420Y031727D01*
X028383Y031750D01*
X028349Y031777D01*
X028316Y031806D01*
X028287Y031839D01*
X028260Y031873D01*
X028237Y031910D01*
X028217Y031949D01*
X028200Y031989D01*
X028187Y032031D01*
X028178Y032073D01*
X028172Y032116D01*
X028170Y032160D01*
X027350Y032160D02*
X027327Y032158D01*
X027304Y032153D01*
X027282Y032144D01*
X027262Y032131D01*
X027244Y032116D01*
X027229Y032098D01*
X027216Y032078D01*
X027207Y032056D01*
X027202Y032033D01*
X027200Y032010D01*
X022830Y031060D02*
X022830Y027860D01*
X022828Y027837D01*
X022823Y027814D01*
X022814Y027792D01*
X022801Y027772D01*
X022786Y027754D01*
X022768Y027739D01*
X022748Y027726D01*
X022726Y027717D01*
X022703Y027712D01*
X022680Y027710D01*
X021440Y027710D01*
X021417Y027712D01*
X021394Y027717D01*
X021372Y027726D01*
X021352Y027739D01*
X021334Y027754D01*
X021319Y027772D01*
X021306Y027792D01*
X021297Y027814D01*
X021292Y027837D01*
X021290Y027860D01*
X021290Y031060D01*
X021292Y031083D01*
X021297Y031106D01*
X021306Y031128D01*
X021319Y031148D01*
X021334Y031166D01*
X021352Y031181D01*
X021372Y031194D01*
X021394Y031203D01*
X021417Y031208D01*
X021440Y031210D01*
X021860Y031210D01*
X022260Y031210D01*
X022680Y031210D01*
X022703Y031208D01*
X022726Y031203D01*
X022748Y031194D01*
X022768Y031181D01*
X022786Y031166D01*
X022801Y031148D01*
X022814Y031128D01*
X022823Y031106D01*
X022828Y031083D01*
X022830Y031060D01*
X022260Y031210D02*
X022258Y031183D01*
X022253Y031156D01*
X022243Y031130D01*
X022231Y031106D01*
X022215Y031084D01*
X022197Y031064D01*
X022175Y031047D01*
X022152Y031032D01*
X022127Y031022D01*
X022101Y031014D01*
X022074Y031010D01*
X022046Y031010D01*
X022019Y031014D01*
X021993Y031022D01*
X021968Y031032D01*
X021945Y031047D01*
X021923Y031064D01*
X021905Y031084D01*
X021889Y031106D01*
X021877Y031130D01*
X021867Y031156D01*
X021862Y031183D01*
X021860Y031210D01*
X017100Y030110D02*
X016700Y030110D01*
X016600Y030110D02*
X016602Y030144D01*
X016608Y030178D01*
X016617Y030211D01*
X016631Y030242D01*
X016648Y030272D01*
X016668Y030300D01*
X016691Y030325D01*
X016717Y030348D01*
X016745Y030367D01*
X016775Y030383D01*
X016807Y030395D01*
X016840Y030404D01*
X016874Y030409D01*
X016909Y030410D01*
X016943Y030407D01*
X016976Y030400D01*
X017009Y030390D01*
X017040Y030375D01*
X017069Y030358D01*
X017096Y030337D01*
X017121Y030313D01*
X017143Y030286D01*
X017161Y030258D01*
X017176Y030227D01*
X017188Y030195D01*
X017196Y030161D01*
X017200Y030127D01*
X017200Y030093D01*
X017196Y030059D01*
X017188Y030025D01*
X017176Y029993D01*
X017161Y029962D01*
X017143Y029934D01*
X017121Y029907D01*
X017096Y029883D01*
X017069Y029862D01*
X017040Y029845D01*
X017009Y029830D01*
X016976Y029820D01*
X016943Y029813D01*
X016909Y029810D01*
X016874Y029811D01*
X016840Y029816D01*
X016807Y029825D01*
X016775Y029837D01*
X016745Y029853D01*
X016717Y029872D01*
X016691Y029895D01*
X016668Y029920D01*
X016648Y029948D01*
X016631Y029978D01*
X016617Y030009D01*
X016608Y030042D01*
X016602Y030076D01*
X016600Y030110D01*
X016900Y030310D02*
X016900Y029910D01*
X013200Y029110D02*
X013202Y029208D01*
X013208Y029306D01*
X013218Y029403D01*
X013232Y029500D01*
X013250Y029596D01*
X013272Y029692D01*
X013297Y029786D01*
X013327Y029880D01*
X013360Y029972D01*
X013397Y030062D01*
X013438Y030151D01*
X013482Y030239D01*
X013530Y030324D01*
X013581Y030408D01*
X013636Y030489D01*
X013693Y030568D01*
X013755Y030644D01*
X013819Y030718D01*
X013886Y030790D01*
X013956Y030858D01*
X014028Y030924D01*
X014104Y030986D01*
X014181Y031046D01*
X014262Y031102D01*
X014344Y031155D01*
X014428Y031205D01*
X014515Y031251D01*
X014603Y031293D01*
X014693Y031332D01*
X014784Y031367D01*
X014877Y031399D01*
X014971Y031426D01*
X015066Y031450D01*
X015162Y031470D01*
X015258Y031486D01*
X015356Y031498D01*
X015453Y031506D01*
X015551Y031510D01*
X015649Y031510D01*
X015747Y031506D01*
X015844Y031498D01*
X015942Y031486D01*
X016038Y031470D01*
X016134Y031450D01*
X016229Y031426D01*
X016323Y031399D01*
X016416Y031367D01*
X016507Y031332D01*
X016597Y031293D01*
X016685Y031251D01*
X016772Y031205D01*
X016856Y031155D01*
X016938Y031102D01*
X017019Y031046D01*
X017096Y030986D01*
X017172Y030924D01*
X017244Y030858D01*
X017314Y030790D01*
X017381Y030718D01*
X017445Y030644D01*
X017507Y030568D01*
X017564Y030489D01*
X017619Y030408D01*
X017670Y030324D01*
X017718Y030239D01*
X017762Y030151D01*
X017803Y030062D01*
X017840Y029972D01*
X017873Y029880D01*
X017903Y029786D01*
X017928Y029692D01*
X017950Y029596D01*
X017968Y029500D01*
X017982Y029403D01*
X017992Y029306D01*
X017998Y029208D01*
X018000Y029110D01*
X017998Y029012D01*
X017992Y028914D01*
X017982Y028817D01*
X017968Y028720D01*
X017950Y028624D01*
X017928Y028528D01*
X017903Y028434D01*
X017873Y028340D01*
X017840Y028248D01*
X017803Y028158D01*
X017762Y028069D01*
X017718Y027981D01*
X017670Y027896D01*
X017619Y027812D01*
X017564Y027731D01*
X017507Y027652D01*
X017445Y027576D01*
X017381Y027502D01*
X017314Y027430D01*
X017244Y027362D01*
X017172Y027296D01*
X017096Y027234D01*
X017019Y027174D01*
X016938Y027118D01*
X016856Y027065D01*
X016772Y027015D01*
X016685Y026969D01*
X016597Y026927D01*
X016507Y026888D01*
X016416Y026853D01*
X016323Y026821D01*
X016229Y026794D01*
X016134Y026770D01*
X016038Y026750D01*
X015942Y026734D01*
X015844Y026722D01*
X015747Y026714D01*
X015649Y026710D01*
X015551Y026710D01*
X015453Y026714D01*
X015356Y026722D01*
X015258Y026734D01*
X015162Y026750D01*
X015066Y026770D01*
X014971Y026794D01*
X014877Y026821D01*
X014784Y026853D01*
X014693Y026888D01*
X014603Y026927D01*
X014515Y026969D01*
X014428Y027015D01*
X014344Y027065D01*
X014262Y027118D01*
X014181Y027174D01*
X014104Y027234D01*
X014028Y027296D01*
X013956Y027362D01*
X013886Y027430D01*
X013819Y027502D01*
X013755Y027576D01*
X013693Y027652D01*
X013636Y027731D01*
X013581Y027812D01*
X013530Y027896D01*
X013482Y027981D01*
X013438Y028069D01*
X013397Y028158D01*
X013360Y028248D01*
X013327Y028340D01*
X013297Y028434D01*
X013272Y028528D01*
X013250Y028624D01*
X013232Y028720D01*
X013218Y028817D01*
X013208Y028914D01*
X013202Y029012D01*
X013200Y029110D01*
X015100Y029110D02*
X015102Y029154D01*
X015108Y029198D01*
X015118Y029241D01*
X015131Y029283D01*
X015148Y029324D01*
X015169Y029363D01*
X015193Y029400D01*
X015220Y029435D01*
X015250Y029467D01*
X015283Y029497D01*
X015319Y029523D01*
X015356Y029547D01*
X015396Y029566D01*
X015437Y029583D01*
X015480Y029595D01*
X015523Y029604D01*
X015567Y029609D01*
X015611Y029610D01*
X015655Y029607D01*
X015699Y029600D01*
X015742Y029589D01*
X015784Y029575D01*
X015824Y029557D01*
X015863Y029535D01*
X015899Y029511D01*
X015933Y029483D01*
X015965Y029452D01*
X015994Y029418D01*
X016020Y029382D01*
X016042Y029344D01*
X016061Y029304D01*
X016076Y029262D01*
X016088Y029220D01*
X016096Y029176D01*
X016100Y029132D01*
X016100Y029088D01*
X016096Y029044D01*
X016088Y029000D01*
X016076Y028958D01*
X016061Y028916D01*
X016042Y028876D01*
X016020Y028838D01*
X015994Y028802D01*
X015965Y028768D01*
X015933Y028737D01*
X015899Y028709D01*
X015863Y028685D01*
X015824Y028663D01*
X015784Y028645D01*
X015742Y028631D01*
X015699Y028620D01*
X015655Y028613D01*
X015611Y028610D01*
X015567Y028611D01*
X015523Y028616D01*
X015480Y028625D01*
X015437Y028637D01*
X015396Y028654D01*
X015356Y028673D01*
X015319Y028697D01*
X015283Y028723D01*
X015250Y028753D01*
X015220Y028785D01*
X015193Y028820D01*
X015169Y028857D01*
X015148Y028896D01*
X015131Y028937D01*
X015118Y028979D01*
X015108Y029022D01*
X015102Y029066D01*
X015100Y029110D01*
X027200Y027190D02*
X027202Y027167D01*
X027207Y027144D01*
X027216Y027122D01*
X027229Y027102D01*
X027244Y027084D01*
X027262Y027069D01*
X027282Y027056D01*
X027304Y027047D01*
X027327Y027042D01*
X027350Y027040D01*
X029990Y027040D01*
X030013Y027042D01*
X030036Y027047D01*
X030058Y027056D01*
X030078Y027069D01*
X030096Y027084D01*
X030111Y027102D01*
X030124Y027122D01*
X030133Y027144D01*
X030138Y027167D01*
X030140Y027190D01*
X034110Y027040D02*
X034112Y027017D01*
X034117Y026994D01*
X034126Y026972D01*
X034139Y026952D01*
X034154Y026934D01*
X034172Y026919D01*
X034192Y026906D01*
X034214Y026897D01*
X034237Y026892D01*
X034260Y026890D01*
X036900Y026890D01*
X036923Y026892D01*
X036946Y026897D01*
X036968Y026906D01*
X036988Y026919D01*
X037006Y026934D01*
X037021Y026952D01*
X037034Y026972D01*
X037043Y026994D01*
X037048Y027017D01*
X037050Y027040D01*
X033553Y022871D02*
X033553Y022444D01*
X033340Y022230D01*
X033126Y022444D01*
X033126Y022871D01*
X032909Y022764D02*
X032909Y022657D01*
X032802Y022550D01*
X032909Y022444D01*
X032909Y022337D01*
X032802Y022230D01*
X032589Y022230D01*
X032482Y022337D01*
X032695Y022550D02*
X032802Y022550D01*
X032909Y022764D02*
X032802Y022871D01*
X032589Y022871D01*
X032482Y022764D01*
X031620Y022550D02*
X031620Y022230D01*
X031406Y022230D02*
X031406Y022550D01*
X031513Y022657D01*
X031620Y022550D01*
X031406Y022550D02*
X031300Y022657D01*
X031193Y022657D01*
X031193Y022230D01*
X030975Y022230D02*
X030975Y022657D01*
X030548Y022657D02*
X030548Y022337D01*
X030655Y022230D01*
X030975Y022230D01*
X030332Y022230D02*
X030118Y022230D01*
X030225Y022230D02*
X030225Y022657D01*
X030118Y022657D01*
X030225Y022871D02*
X030225Y022977D01*
X029794Y022657D02*
X029901Y022550D01*
X029901Y022230D01*
X029474Y022230D02*
X029474Y022871D01*
X029581Y022657D02*
X029474Y022550D01*
X029581Y022657D02*
X029794Y022657D01*
X029258Y022657D02*
X029044Y022657D01*
X029151Y022764D02*
X029151Y022337D01*
X029258Y022230D01*
X028828Y022230D02*
X028615Y022230D01*
X028721Y022230D02*
X028721Y022657D01*
X028615Y022657D01*
X028721Y022871D02*
X028721Y022977D01*
X027970Y022871D02*
X027970Y022230D01*
X028397Y022230D01*
X035670Y017300D02*
X035670Y013600D01*
X035672Y013577D01*
X035677Y013554D01*
X035686Y013532D01*
X035699Y013512D01*
X035714Y013494D01*
X035732Y013479D01*
X035752Y013466D01*
X035774Y013457D01*
X035797Y013452D01*
X035820Y013450D01*
X037060Y013450D01*
X037083Y013452D01*
X037106Y013457D01*
X037128Y013466D01*
X037148Y013479D01*
X037166Y013494D01*
X037181Y013512D01*
X037194Y013532D01*
X037203Y013554D01*
X037208Y013577D01*
X037210Y013600D01*
X037210Y017300D01*
X037208Y017323D01*
X037203Y017346D01*
X037194Y017368D01*
X037181Y017388D01*
X037166Y017406D01*
X037148Y017421D01*
X037128Y017434D01*
X037106Y017443D01*
X037083Y017448D01*
X037060Y017450D01*
X035820Y017450D01*
X035797Y017448D01*
X035774Y017443D01*
X035752Y017434D01*
X035732Y017421D01*
X035714Y017406D01*
X035699Y017388D01*
X035686Y017368D01*
X035677Y017346D01*
X035672Y017323D01*
X035670Y017300D01*
X036240Y017450D02*
X036242Y017423D01*
X036247Y017396D01*
X036257Y017370D01*
X036269Y017346D01*
X036285Y017324D01*
X036303Y017304D01*
X036325Y017287D01*
X036348Y017272D01*
X036373Y017262D01*
X036399Y017254D01*
X036426Y017250D01*
X036454Y017250D01*
X036481Y017254D01*
X036507Y017262D01*
X036532Y017272D01*
X036555Y017287D01*
X036577Y017304D01*
X036595Y017324D01*
X036611Y017346D01*
X036623Y017370D01*
X036633Y017396D01*
X036638Y017423D01*
X036640Y017450D01*
X033553Y013121D02*
X033553Y012694D01*
X033340Y012480D01*
X033126Y012694D01*
X033126Y013121D01*
X032909Y013014D02*
X032909Y012907D01*
X032802Y012800D01*
X032909Y012694D01*
X032909Y012587D01*
X032802Y012480D01*
X032589Y012480D01*
X032482Y012587D01*
X032695Y012800D02*
X032802Y012800D01*
X032909Y013014D02*
X032802Y013121D01*
X032589Y013121D01*
X032482Y013014D01*
X031620Y012800D02*
X031620Y012480D01*
X031406Y012480D02*
X031406Y012800D01*
X031513Y012907D01*
X031620Y012800D01*
X031406Y012800D02*
X031300Y012907D01*
X031193Y012907D01*
X031193Y012480D01*
X030975Y012480D02*
X030975Y012907D01*
X030548Y012907D02*
X030548Y012587D01*
X030655Y012480D01*
X030975Y012480D01*
X030332Y012480D02*
X030118Y012480D01*
X030225Y012480D02*
X030225Y012907D01*
X030118Y012907D01*
X030225Y013121D02*
X030225Y013227D01*
X029901Y012800D02*
X029901Y012480D01*
X029901Y012800D02*
X029794Y012907D01*
X029581Y012907D01*
X029474Y012800D01*
X029258Y012907D02*
X029044Y012907D01*
X029151Y013014D02*
X029151Y012587D01*
X029258Y012480D01*
X029474Y012480D02*
X029474Y013121D01*
X028721Y013121D02*
X028721Y013227D01*
X028721Y012907D02*
X028721Y012480D01*
X028615Y012480D02*
X028828Y012480D01*
X028397Y012480D02*
X027970Y012480D01*
X027970Y013121D01*
X028615Y012907D02*
X028721Y012907D01*
X044600Y013360D02*
X044600Y011860D01*
X044850Y011610D01*
X045350Y011610D01*
X045600Y011860D01*
X045850Y011610D01*
X046350Y011610D01*
X046600Y011860D01*
X046850Y011610D01*
X047350Y011610D01*
X047600Y011860D01*
X047850Y011610D01*
X048350Y011610D01*
X048600Y011860D01*
X048850Y011610D01*
X049350Y011610D01*
X049600Y011860D01*
X049850Y011610D01*
X050350Y011610D01*
X050600Y011860D01*
X050850Y011610D01*
X051350Y011610D01*
X051600Y011860D01*
X051850Y011610D01*
X052350Y011610D01*
X052600Y011860D01*
X052850Y011610D01*
X053350Y011610D01*
X053600Y011860D01*
X053850Y011610D01*
X054350Y011610D01*
X054600Y011860D01*
X054850Y011610D01*
X055350Y011610D01*
X055600Y011860D01*
X055850Y011610D01*
X056350Y011610D01*
X056600Y011860D01*
X056850Y011610D01*
X057350Y011610D01*
X057600Y011860D01*
X057600Y013360D01*
X057350Y013610D01*
X056850Y013610D01*
X056600Y013360D01*
X056350Y013610D01*
X055850Y013610D01*
X055600Y013360D01*
X055350Y013610D01*
X054850Y013610D01*
X054600Y013360D01*
X054350Y013610D01*
X053850Y013610D01*
X053600Y013360D01*
X053350Y013610D01*
X052850Y013610D01*
X052600Y013360D01*
X052350Y013610D01*
X051850Y013610D01*
X051600Y013360D01*
X051350Y013610D01*
X050850Y013610D01*
X050600Y013360D01*
X050350Y013610D01*
X049850Y013610D01*
X049600Y013360D01*
X049350Y013610D01*
X048850Y013610D01*
X048600Y013360D01*
X048350Y013610D01*
X047850Y013610D01*
X047600Y013360D01*
X047350Y013610D01*
X046850Y013610D01*
X046600Y013360D01*
X046350Y013610D01*
X045850Y013610D01*
X045600Y013360D01*
X045350Y013610D01*
X044850Y013610D01*
X044600Y013360D01*
X044850Y008610D02*
X044600Y008360D01*
X044600Y006860D01*
X044850Y006610D01*
X045350Y006610D01*
X045600Y006860D01*
X045850Y006610D01*
X046350Y006610D01*
X046600Y006860D01*
X046850Y006610D01*
X047350Y006610D01*
X047600Y006860D01*
X047850Y006610D01*
X048350Y006610D01*
X048600Y006860D01*
X048850Y006610D01*
X049350Y006610D01*
X049600Y006860D01*
X049850Y006610D01*
X050350Y006610D01*
X050600Y006860D01*
X050850Y006610D01*
X051350Y006610D01*
X051600Y006860D01*
X051850Y006610D01*
X052350Y006610D01*
X052600Y006860D01*
X052850Y006610D01*
X053350Y006610D01*
X053600Y006860D01*
X053850Y006610D01*
X054350Y006610D01*
X054600Y006860D01*
X054850Y006610D01*
X055350Y006610D01*
X055600Y006860D01*
X055850Y006610D01*
X056350Y006610D01*
X056600Y006860D01*
X056850Y006610D01*
X057350Y006610D01*
X057600Y006860D01*
X057600Y008360D01*
X057350Y008610D01*
X056850Y008610D01*
X056600Y008360D01*
X056350Y008610D01*
X055850Y008610D01*
X055600Y008360D01*
X055350Y008610D01*
X054850Y008610D01*
X054600Y008360D01*
X054350Y008610D01*
X053850Y008610D01*
X053600Y008360D01*
X053350Y008610D01*
X052850Y008610D01*
X052600Y008360D01*
X052350Y008610D01*
X051850Y008610D01*
X051600Y008360D01*
X051350Y008610D01*
X050850Y008610D01*
X050600Y008360D01*
X050350Y008610D01*
X049850Y008610D01*
X049600Y008360D01*
X049350Y008610D01*
X048850Y008610D01*
X048600Y008360D01*
X048350Y008610D01*
X047850Y008610D01*
X047600Y008360D01*
X047350Y008610D01*
X046850Y008610D01*
X046600Y008360D01*
X046350Y008610D01*
X045850Y008610D01*
X045600Y008360D01*
X045350Y008610D01*
X044850Y008610D01*
X052600Y009210D02*
X052700Y009110D01*
X053500Y009110D01*
X053600Y009210D01*
X053600Y010010D01*
X053500Y010110D01*
X053600Y010210D01*
X053600Y011010D01*
X053500Y011110D01*
X052700Y011110D01*
X052600Y011010D01*
X052600Y010210D01*
X052700Y010110D01*
X052600Y010010D01*
X052600Y009210D01*
X060700Y007310D02*
X060700Y005160D01*
X060702Y005143D01*
X060706Y005126D01*
X060713Y005110D01*
X060723Y005096D01*
X060736Y005083D01*
X060750Y005073D01*
X060766Y005066D01*
X060783Y005062D01*
X060800Y005060D01*
X061400Y005060D01*
X061417Y005062D01*
X061434Y005066D01*
X061450Y005073D01*
X061464Y005083D01*
X061477Y005096D01*
X061487Y005110D01*
X061494Y005126D01*
X061498Y005143D01*
X061500Y005160D01*
X061500Y007310D01*
X061450Y007310D01*
X060750Y007310D01*
X060700Y007310D01*
X060750Y007310D02*
X060750Y007460D01*
X061450Y007460D01*
X061450Y007310D01*
X061100Y006660D02*
X061100Y006460D01*
X060900Y006460D01*
X060900Y006310D02*
X060900Y006160D01*
X061300Y006160D01*
X061300Y006310D01*
X060900Y006310D01*
X061100Y006460D02*
X061300Y006460D01*
X061300Y006010D02*
X061100Y006010D01*
X060900Y006010D01*
X061100Y006010D02*
X061100Y005810D01*
X064830Y006510D02*
X064830Y009710D01*
X064832Y009733D01*
X064837Y009756D01*
X064846Y009778D01*
X064859Y009798D01*
X064874Y009816D01*
X064892Y009831D01*
X064912Y009844D01*
X064934Y009853D01*
X064957Y009858D01*
X064980Y009860D01*
X065400Y009860D01*
X065800Y009860D01*
X066220Y009860D01*
X066243Y009858D01*
X066266Y009853D01*
X066288Y009844D01*
X066308Y009831D01*
X066326Y009816D01*
X066341Y009798D01*
X066354Y009778D01*
X066363Y009756D01*
X066368Y009733D01*
X066370Y009710D01*
X066370Y006510D01*
X066368Y006487D01*
X066363Y006464D01*
X066354Y006442D01*
X066341Y006422D01*
X066326Y006404D01*
X066308Y006389D01*
X066288Y006376D01*
X066266Y006367D01*
X066243Y006362D01*
X066220Y006360D01*
X064980Y006360D01*
X064957Y006362D01*
X064934Y006367D01*
X064912Y006376D01*
X064892Y006389D01*
X064874Y006404D01*
X064859Y006422D01*
X064846Y006442D01*
X064837Y006464D01*
X064832Y006487D01*
X064830Y006510D01*
X069350Y007310D02*
X069350Y005360D01*
X069550Y005160D01*
X073550Y005160D01*
X073600Y005160D01*
X073600Y007160D01*
X073600Y007510D01*
X069550Y007510D01*
X069350Y007310D01*
X069950Y006350D02*
X069952Y006400D01*
X069958Y006450D01*
X069968Y006500D01*
X069981Y006548D01*
X069998Y006596D01*
X070019Y006642D01*
X070043Y006686D01*
X070071Y006728D01*
X070102Y006768D01*
X070136Y006805D01*
X070173Y006840D01*
X070212Y006871D01*
X070253Y006900D01*
X070297Y006925D01*
X070343Y006947D01*
X070390Y006965D01*
X070438Y006979D01*
X070487Y006990D01*
X070537Y006997D01*
X070587Y007000D01*
X070638Y006999D01*
X070688Y006994D01*
X070738Y006985D01*
X070786Y006973D01*
X070834Y006956D01*
X070880Y006936D01*
X070925Y006913D01*
X070968Y006886D01*
X071008Y006856D01*
X071046Y006823D01*
X071081Y006787D01*
X071114Y006748D01*
X071143Y006707D01*
X071169Y006664D01*
X071192Y006619D01*
X071211Y006572D01*
X071226Y006524D01*
X071238Y006475D01*
X071246Y006425D01*
X071250Y006375D01*
X071250Y006325D01*
X071246Y006275D01*
X071238Y006225D01*
X071226Y006176D01*
X071211Y006128D01*
X071192Y006081D01*
X071169Y006036D01*
X071143Y005993D01*
X071114Y005952D01*
X071081Y005913D01*
X071046Y005877D01*
X071008Y005844D01*
X070968Y005814D01*
X070925Y005787D01*
X070880Y005764D01*
X070834Y005744D01*
X070786Y005727D01*
X070738Y005715D01*
X070688Y005706D01*
X070638Y005701D01*
X070587Y005700D01*
X070537Y005703D01*
X070487Y005710D01*
X070438Y005721D01*
X070390Y005735D01*
X070343Y005753D01*
X070297Y005775D01*
X070253Y005800D01*
X070212Y005829D01*
X070173Y005860D01*
X070136Y005895D01*
X070102Y005932D01*
X070071Y005972D01*
X070043Y006014D01*
X070019Y006058D01*
X069998Y006104D01*
X069981Y006152D01*
X069968Y006200D01*
X069958Y006250D01*
X069952Y006300D01*
X069950Y006350D01*
X073300Y007610D02*
X073600Y007610D01*
X073600Y007510D01*
X073600Y007610D02*
X073600Y023610D01*
X073300Y023610D01*
X073300Y007610D01*
X073600Y007460D02*
X073602Y007430D01*
X073607Y007400D01*
X073616Y007371D01*
X073629Y007344D01*
X073644Y007318D01*
X073663Y007294D01*
X073684Y007273D01*
X073708Y007254D01*
X073734Y007239D01*
X073761Y007226D01*
X073790Y007217D01*
X073820Y007212D01*
X073850Y007210D01*
X074800Y007210D01*
X074800Y007160D01*
X075000Y007160D01*
X075000Y006160D01*
X075000Y005160D01*
X074800Y005160D01*
X073600Y005160D01*
X075000Y005160D02*
X075200Y005160D01*
X075200Y008210D01*
X075200Y023010D01*
X075200Y026060D01*
X075000Y026060D01*
X075000Y025060D01*
X075000Y024060D01*
X075000Y007160D01*
X074800Y007160D02*
X074700Y007160D01*
X075200Y007810D02*
X075202Y007840D01*
X075207Y007870D01*
X075216Y007899D01*
X075229Y007926D01*
X075244Y007952D01*
X075263Y007976D01*
X075284Y007997D01*
X075308Y008016D01*
X075334Y008031D01*
X075361Y008044D01*
X075390Y008053D01*
X075420Y008058D01*
X075450Y008060D01*
X077450Y008060D01*
X077476Y008062D01*
X077502Y008067D01*
X077527Y008075D01*
X077550Y008087D01*
X077572Y008101D01*
X077591Y008119D01*
X077609Y008138D01*
X077623Y008160D01*
X077635Y008183D01*
X077643Y008208D01*
X077648Y008234D01*
X077650Y008260D01*
X077650Y008360D01*
X077650Y022860D01*
X077650Y022960D01*
X077648Y022986D01*
X077643Y023012D01*
X077635Y023037D01*
X077623Y023060D01*
X077609Y023082D01*
X077591Y023101D01*
X077572Y023119D01*
X077550Y023133D01*
X077527Y023145D01*
X077502Y023153D01*
X077476Y023158D01*
X077450Y023160D01*
X075450Y023160D01*
X075420Y023162D01*
X075390Y023167D01*
X075361Y023176D01*
X075334Y023189D01*
X075308Y023204D01*
X075284Y023223D01*
X075263Y023244D01*
X075244Y023268D01*
X075229Y023294D01*
X075216Y023321D01*
X075207Y023350D01*
X075202Y023380D01*
X075200Y023410D01*
X074800Y024010D02*
X073850Y024010D01*
X073820Y024008D01*
X073790Y024003D01*
X073761Y023994D01*
X073734Y023981D01*
X073708Y023966D01*
X073684Y023947D01*
X073663Y023926D01*
X073644Y023902D01*
X073629Y023876D01*
X073616Y023849D01*
X073607Y023820D01*
X073602Y023790D01*
X073600Y023760D01*
X073600Y023710D02*
X069550Y023710D01*
X069350Y023910D01*
X069350Y025810D01*
X069600Y026060D01*
X073550Y026060D01*
X073600Y026060D01*
X074800Y026060D01*
X075000Y026060D01*
X073600Y026060D02*
X073600Y024060D01*
X073600Y023710D01*
X073600Y023610D01*
X074700Y024060D02*
X074800Y024060D01*
X074800Y024010D01*
X074800Y024060D02*
X075000Y024060D01*
X069950Y024870D02*
X069952Y024920D01*
X069958Y024970D01*
X069968Y025020D01*
X069981Y025068D01*
X069998Y025116D01*
X070019Y025162D01*
X070043Y025206D01*
X070071Y025248D01*
X070102Y025288D01*
X070136Y025325D01*
X070173Y025360D01*
X070212Y025391D01*
X070253Y025420D01*
X070297Y025445D01*
X070343Y025467D01*
X070390Y025485D01*
X070438Y025499D01*
X070487Y025510D01*
X070537Y025517D01*
X070587Y025520D01*
X070638Y025519D01*
X070688Y025514D01*
X070738Y025505D01*
X070786Y025493D01*
X070834Y025476D01*
X070880Y025456D01*
X070925Y025433D01*
X070968Y025406D01*
X071008Y025376D01*
X071046Y025343D01*
X071081Y025307D01*
X071114Y025268D01*
X071143Y025227D01*
X071169Y025184D01*
X071192Y025139D01*
X071211Y025092D01*
X071226Y025044D01*
X071238Y024995D01*
X071246Y024945D01*
X071250Y024895D01*
X071250Y024845D01*
X071246Y024795D01*
X071238Y024745D01*
X071226Y024696D01*
X071211Y024648D01*
X071192Y024601D01*
X071169Y024556D01*
X071143Y024513D01*
X071114Y024472D01*
X071081Y024433D01*
X071046Y024397D01*
X071008Y024364D01*
X070968Y024334D01*
X070925Y024307D01*
X070880Y024284D01*
X070834Y024264D01*
X070786Y024247D01*
X070738Y024235D01*
X070688Y024226D01*
X070638Y024221D01*
X070587Y024220D01*
X070537Y024223D01*
X070487Y024230D01*
X070438Y024241D01*
X070390Y024255D01*
X070343Y024273D01*
X070297Y024295D01*
X070253Y024320D01*
X070212Y024349D01*
X070173Y024380D01*
X070136Y024415D01*
X070102Y024452D01*
X070071Y024492D01*
X070043Y024534D01*
X070019Y024578D01*
X069998Y024624D01*
X069981Y024672D01*
X069968Y024720D01*
X069958Y024770D01*
X069952Y024820D01*
X069950Y024870D01*
X069040Y026920D02*
X068240Y026920D01*
X068140Y027020D01*
X068040Y026920D01*
X067240Y026920D01*
X067140Y027020D01*
X067140Y027820D01*
X067240Y027920D01*
X068040Y027920D01*
X068140Y027820D01*
X068240Y027920D01*
X069040Y027920D01*
X069140Y027820D01*
X069140Y027020D01*
X069040Y026920D01*
X064180Y025120D02*
X064180Y030920D01*
X064178Y030943D01*
X064173Y030966D01*
X064164Y030988D01*
X064151Y031008D01*
X064136Y031026D01*
X064118Y031041D01*
X064098Y031054D01*
X064076Y031063D01*
X064053Y031068D01*
X064030Y031070D01*
X063210Y031070D01*
X062210Y031070D01*
X061390Y031070D01*
X061367Y031068D01*
X061344Y031063D01*
X061322Y031054D01*
X061302Y031041D01*
X061284Y031026D01*
X061269Y031008D01*
X061256Y030988D01*
X061247Y030966D01*
X061242Y030943D01*
X061240Y030920D01*
X061240Y025120D01*
X061242Y025097D01*
X061247Y025074D01*
X061256Y025052D01*
X061269Y025032D01*
X061284Y025014D01*
X061302Y024999D01*
X061322Y024986D01*
X061344Y024977D01*
X061367Y024972D01*
X061390Y024970D01*
X064030Y024970D01*
X064053Y024972D01*
X064076Y024977D01*
X064098Y024986D01*
X064118Y024999D01*
X064136Y025014D01*
X064151Y025032D01*
X064164Y025052D01*
X064173Y025074D01*
X064178Y025097D01*
X064180Y025120D01*
X060820Y021720D02*
X060570Y021970D01*
X059070Y021970D01*
X058820Y021720D01*
X058820Y021220D01*
X059070Y020970D01*
X058820Y020720D01*
X058820Y020220D01*
X059070Y019970D01*
X058820Y019720D01*
X058820Y019220D01*
X059070Y018970D01*
X060570Y018970D01*
X060820Y019220D01*
X060820Y019720D01*
X060570Y019970D01*
X060820Y020220D01*
X060820Y020720D01*
X060570Y020970D01*
X060820Y021220D01*
X060820Y021720D01*
X063780Y021170D02*
X064600Y021170D01*
X065600Y021170D01*
X066420Y021170D01*
X066443Y021168D01*
X066466Y021163D01*
X066488Y021154D01*
X066508Y021141D01*
X066526Y021126D01*
X066541Y021108D01*
X066554Y021088D01*
X066563Y021066D01*
X066568Y021043D01*
X066570Y021020D01*
X065600Y021170D02*
X065598Y021126D01*
X065592Y021083D01*
X065583Y021041D01*
X065570Y020999D01*
X065553Y020959D01*
X065533Y020920D01*
X065510Y020883D01*
X065483Y020849D01*
X065454Y020816D01*
X065421Y020787D01*
X065387Y020760D01*
X065350Y020737D01*
X065311Y020717D01*
X065271Y020700D01*
X065229Y020687D01*
X065187Y020678D01*
X065144Y020672D01*
X065100Y020670D01*
X065056Y020672D01*
X065013Y020678D01*
X064971Y020687D01*
X064929Y020700D01*
X064889Y020717D01*
X064850Y020737D01*
X064813Y020760D01*
X064779Y020787D01*
X064746Y020816D01*
X064717Y020849D01*
X064690Y020883D01*
X064667Y020920D01*
X064647Y020959D01*
X064630Y020999D01*
X064617Y021041D01*
X064608Y021083D01*
X064602Y021126D01*
X064600Y021170D01*
X063780Y021170D02*
X063757Y021168D01*
X063734Y021163D01*
X063712Y021154D01*
X063692Y021141D01*
X063674Y021126D01*
X063659Y021108D01*
X063646Y021088D01*
X063637Y021066D01*
X063632Y021043D01*
X063630Y021020D01*
X063630Y016200D02*
X063632Y016177D01*
X063637Y016154D01*
X063646Y016132D01*
X063659Y016112D01*
X063674Y016094D01*
X063692Y016079D01*
X063712Y016066D01*
X063734Y016057D01*
X063757Y016052D01*
X063780Y016050D01*
X066420Y016050D01*
X066443Y016052D01*
X066466Y016057D01*
X066488Y016066D01*
X066508Y016079D01*
X066526Y016094D01*
X066541Y016112D01*
X066554Y016132D01*
X066563Y016154D01*
X066568Y016177D01*
X066570Y016200D01*
X066220Y013860D02*
X065800Y013860D01*
X065400Y013860D01*
X064980Y013860D01*
X064957Y013858D01*
X064934Y013853D01*
X064912Y013844D01*
X064892Y013831D01*
X064874Y013816D01*
X064859Y013798D01*
X064846Y013778D01*
X064837Y013756D01*
X064832Y013733D01*
X064830Y013710D01*
X064830Y010510D01*
X064832Y010487D01*
X064837Y010464D01*
X064846Y010442D01*
X064859Y010422D01*
X064874Y010404D01*
X064892Y010389D01*
X064912Y010376D01*
X064934Y010367D01*
X064957Y010362D01*
X064980Y010360D01*
X066220Y010360D01*
X066243Y010362D01*
X066266Y010367D01*
X066288Y010376D01*
X066308Y010389D01*
X066326Y010404D01*
X066341Y010422D01*
X066354Y010442D01*
X066363Y010464D01*
X066368Y010487D01*
X066370Y010510D01*
X066370Y013710D01*
X066368Y013733D01*
X066363Y013756D01*
X066354Y013778D01*
X066341Y013798D01*
X066326Y013816D01*
X066308Y013831D01*
X066288Y013844D01*
X066266Y013853D01*
X066243Y013858D01*
X066220Y013860D01*
X065800Y013860D02*
X065798Y013833D01*
X065793Y013806D01*
X065783Y013780D01*
X065771Y013756D01*
X065755Y013734D01*
X065737Y013714D01*
X065715Y013697D01*
X065692Y013682D01*
X065667Y013672D01*
X065641Y013664D01*
X065614Y013660D01*
X065586Y013660D01*
X065559Y013664D01*
X065533Y013672D01*
X065508Y013682D01*
X065485Y013697D01*
X065463Y013714D01*
X065445Y013734D01*
X065429Y013756D01*
X065417Y013780D01*
X065407Y013806D01*
X065402Y013833D01*
X065400Y013860D01*
X065400Y009860D02*
X065402Y009833D01*
X065407Y009806D01*
X065417Y009780D01*
X065429Y009756D01*
X065445Y009734D01*
X065463Y009714D01*
X065485Y009697D01*
X065508Y009682D01*
X065533Y009672D01*
X065559Y009664D01*
X065586Y009660D01*
X065614Y009660D01*
X065641Y009664D01*
X065667Y009672D01*
X065692Y009682D01*
X065715Y009697D01*
X065737Y009714D01*
X065755Y009734D01*
X065771Y009756D01*
X065783Y009780D01*
X065793Y009806D01*
X065798Y009833D01*
X065800Y009860D01*
X058280Y025650D02*
X057480Y025650D01*
X057380Y025750D01*
X057380Y026550D01*
X057480Y026650D01*
X057380Y026750D01*
X057380Y027550D01*
X057480Y027650D01*
X057380Y027750D01*
X057380Y028550D01*
X057480Y028650D01*
X058280Y028650D01*
X058380Y028550D01*
X058380Y027750D01*
X058280Y027650D01*
X058380Y027550D01*
X058380Y026750D01*
X058280Y026650D01*
X058380Y026550D01*
X058380Y025750D01*
X058280Y025650D01*
X052030Y029550D02*
X050790Y029550D01*
X050767Y029552D01*
X050744Y029557D01*
X050722Y029566D01*
X050702Y029579D01*
X050684Y029594D01*
X050669Y029612D01*
X050656Y029632D01*
X050647Y029654D01*
X050642Y029677D01*
X050640Y029700D01*
X052030Y029550D02*
X052053Y029552D01*
X052076Y029557D01*
X052098Y029566D01*
X052118Y029579D01*
X052136Y029594D01*
X052151Y029612D01*
X052164Y029632D01*
X052173Y029654D01*
X052178Y029677D01*
X052180Y029700D01*
X052180Y033400D02*
X052178Y033423D01*
X052173Y033446D01*
X052164Y033468D01*
X052151Y033488D01*
X052136Y033506D01*
X052118Y033521D01*
X052098Y033534D01*
X052076Y033543D01*
X052053Y033548D01*
X052030Y033550D01*
X051610Y033550D01*
X051210Y033550D01*
X050790Y033550D01*
X050767Y033548D01*
X050744Y033543D01*
X050722Y033534D01*
X050702Y033521D01*
X050684Y033506D01*
X050669Y033488D01*
X050656Y033468D01*
X050647Y033446D01*
X050642Y033423D01*
X050640Y033400D01*
X051210Y033550D02*
X051212Y033523D01*
X051217Y033496D01*
X051227Y033470D01*
X051239Y033446D01*
X051255Y033424D01*
X051273Y033404D01*
X051295Y033387D01*
X051318Y033372D01*
X051343Y033362D01*
X051369Y033354D01*
X051396Y033350D01*
X051424Y033350D01*
X051451Y033354D01*
X051477Y033362D01*
X051502Y033372D01*
X051525Y033387D01*
X051547Y033404D01*
X051565Y033424D01*
X051581Y033446D01*
X051593Y033470D01*
X051603Y033496D01*
X051608Y033523D01*
X051610Y033550D01*
X046460Y033340D02*
X046460Y029640D01*
X046458Y029617D01*
X046453Y029594D01*
X046444Y029572D01*
X046431Y029552D01*
X046416Y029534D01*
X046398Y029519D01*
X046378Y029506D01*
X046356Y029497D01*
X046333Y029492D01*
X046310Y029490D01*
X045070Y029490D01*
X045047Y029492D01*
X045024Y029497D01*
X045002Y029506D01*
X044982Y029519D01*
X044964Y029534D01*
X044949Y029552D01*
X044936Y029572D01*
X044927Y029594D01*
X044922Y029617D01*
X044920Y029640D01*
X044920Y033340D01*
X044922Y033363D01*
X044927Y033386D01*
X044936Y033408D01*
X044949Y033428D01*
X044964Y033446D01*
X044982Y033461D01*
X045002Y033474D01*
X045024Y033483D01*
X045047Y033488D01*
X045070Y033490D01*
X045490Y033490D01*
X045890Y033490D01*
X046310Y033490D01*
X046333Y033488D01*
X046356Y033483D01*
X046378Y033474D01*
X046398Y033461D01*
X046416Y033446D01*
X046431Y033428D01*
X046444Y033408D01*
X046453Y033386D01*
X046458Y033363D01*
X046460Y033340D01*
X045890Y033490D02*
X045888Y033463D01*
X045883Y033436D01*
X045873Y033410D01*
X045861Y033386D01*
X045845Y033364D01*
X045827Y033344D01*
X045805Y033327D01*
X045782Y033312D01*
X045757Y033302D01*
X045731Y033294D01*
X045704Y033290D01*
X045676Y033290D01*
X045649Y033294D01*
X045623Y033302D01*
X045598Y033312D01*
X045575Y033327D01*
X045553Y033344D01*
X045535Y033364D01*
X045519Y033386D01*
X045507Y033410D01*
X045497Y033436D01*
X045492Y033463D01*
X045490Y033490D01*
X036900Y032010D02*
X036080Y032010D01*
X035080Y032010D01*
X034260Y032010D01*
X034237Y032008D01*
X034214Y032003D01*
X034192Y031994D01*
X034172Y031981D01*
X034154Y031966D01*
X034139Y031948D01*
X034126Y031928D01*
X034117Y031906D01*
X034112Y031883D01*
X034110Y031860D01*
X035080Y032010D02*
X035082Y031966D01*
X035088Y031923D01*
X035097Y031881D01*
X035110Y031839D01*
X035127Y031799D01*
X035147Y031760D01*
X035170Y031723D01*
X035197Y031689D01*
X035226Y031656D01*
X035259Y031627D01*
X035293Y031600D01*
X035330Y031577D01*
X035369Y031557D01*
X035409Y031540D01*
X035451Y031527D01*
X035493Y031518D01*
X035536Y031512D01*
X035580Y031510D01*
X035624Y031512D01*
X035667Y031518D01*
X035709Y031527D01*
X035751Y031540D01*
X035791Y031557D01*
X035830Y031577D01*
X035867Y031600D01*
X035901Y031627D01*
X035934Y031656D01*
X035963Y031689D01*
X035990Y031723D01*
X036013Y031760D01*
X036033Y031799D01*
X036050Y031839D01*
X036063Y031881D01*
X036072Y031923D01*
X036078Y031966D01*
X036080Y032010D01*
X036900Y032010D02*
X036923Y032008D01*
X036946Y032003D01*
X036968Y031994D01*
X036988Y031981D01*
X037006Y031966D01*
X037021Y031948D01*
X037034Y031928D01*
X037043Y031906D01*
X037048Y031883D01*
X037050Y031860D01*
X059550Y032090D02*
X061300Y032090D01*
X061300Y032140D01*
X061800Y032140D01*
X061800Y032090D01*
X062750Y032090D01*
X062750Y032490D01*
X062750Y032590D01*
X060050Y032590D01*
X060050Y035090D01*
X067050Y035090D01*
X067050Y032590D01*
X065350Y032590D01*
X064750Y032590D01*
X064350Y032590D01*
X064350Y032490D01*
X064350Y032090D01*
X062750Y032090D01*
X062750Y032590D02*
X062750Y032890D01*
X064350Y032890D01*
X064350Y032590D01*
X064550Y032290D02*
X064750Y032290D01*
X065350Y032290D01*
X065350Y032490D01*
X065350Y032590D01*
X065350Y032290D02*
X065550Y032290D01*
X065700Y032090D01*
X067550Y032090D01*
X067550Y035590D01*
X067050Y035590D01*
X067050Y035690D01*
X066550Y035690D01*
X066550Y035590D01*
X063800Y035590D01*
X063800Y035690D01*
X063300Y035690D01*
X063300Y035590D01*
X060550Y035590D01*
X060550Y035690D01*
X060050Y035690D01*
X060050Y035590D01*
X059550Y035590D01*
X059550Y032090D01*
X062210Y031070D02*
X062212Y031026D01*
X062218Y030983D01*
X062227Y030941D01*
X062240Y030899D01*
X062257Y030859D01*
X062277Y030820D01*
X062300Y030783D01*
X062327Y030749D01*
X062356Y030716D01*
X062389Y030687D01*
X062423Y030660D01*
X062460Y030637D01*
X062499Y030617D01*
X062539Y030600D01*
X062581Y030587D01*
X062623Y030578D01*
X062666Y030572D01*
X062710Y030570D01*
X062754Y030572D01*
X062797Y030578D01*
X062839Y030587D01*
X062881Y030600D01*
X062921Y030617D01*
X062960Y030637D01*
X062997Y030660D01*
X063031Y030687D01*
X063064Y030716D01*
X063093Y030749D01*
X063120Y030783D01*
X063143Y030820D01*
X063163Y030859D01*
X063180Y030899D01*
X063193Y030941D01*
X063202Y030983D01*
X063208Y031026D01*
X063210Y031070D01*
X064350Y032090D02*
X064400Y032090D01*
X064550Y032290D01*
X064750Y032290D02*
X064750Y032490D01*
X064750Y032590D01*
X068850Y033210D02*
X069050Y033010D01*
X073600Y033010D01*
X073600Y045203D01*
X075039Y045210D02*
X069100Y045210D01*
X068850Y044960D01*
X068850Y043060D01*
X069050Y042860D01*
X073600Y042860D01*
X073850Y042845D02*
X074682Y042845D01*
X074682Y035375D01*
X074682Y035325D01*
X075039Y035325D01*
X074682Y035375D02*
X073850Y035375D01*
X073820Y035377D01*
X073790Y035382D01*
X073761Y035391D01*
X073734Y035404D01*
X073708Y035419D01*
X073684Y035438D01*
X073663Y035459D01*
X073644Y035483D01*
X073629Y035509D01*
X073616Y035536D01*
X073607Y035565D01*
X073602Y035595D01*
X073600Y035625D01*
X073600Y035360D02*
X069050Y035360D01*
X068850Y035160D01*
X068850Y033210D01*
X069950Y034189D02*
X069952Y034239D01*
X069958Y034289D01*
X069968Y034339D01*
X069981Y034387D01*
X069998Y034435D01*
X070019Y034481D01*
X070043Y034525D01*
X070071Y034567D01*
X070102Y034607D01*
X070136Y034644D01*
X070173Y034679D01*
X070212Y034710D01*
X070253Y034739D01*
X070297Y034764D01*
X070343Y034786D01*
X070390Y034804D01*
X070438Y034818D01*
X070487Y034829D01*
X070537Y034836D01*
X070587Y034839D01*
X070638Y034838D01*
X070688Y034833D01*
X070738Y034824D01*
X070786Y034812D01*
X070834Y034795D01*
X070880Y034775D01*
X070925Y034752D01*
X070968Y034725D01*
X071008Y034695D01*
X071046Y034662D01*
X071081Y034626D01*
X071114Y034587D01*
X071143Y034546D01*
X071169Y034503D01*
X071192Y034458D01*
X071211Y034411D01*
X071226Y034363D01*
X071238Y034314D01*
X071246Y034264D01*
X071250Y034214D01*
X071250Y034164D01*
X071246Y034114D01*
X071238Y034064D01*
X071226Y034015D01*
X071211Y033967D01*
X071192Y033920D01*
X071169Y033875D01*
X071143Y033832D01*
X071114Y033791D01*
X071081Y033752D01*
X071046Y033716D01*
X071008Y033683D01*
X070968Y033653D01*
X070925Y033626D01*
X070880Y033603D01*
X070834Y033583D01*
X070786Y033566D01*
X070738Y033554D01*
X070688Y033545D01*
X070638Y033540D01*
X070587Y033539D01*
X070537Y033542D01*
X070487Y033549D01*
X070438Y033560D01*
X070390Y033574D01*
X070343Y033592D01*
X070297Y033614D01*
X070253Y033639D01*
X070212Y033668D01*
X070173Y033699D01*
X070136Y033734D01*
X070102Y033771D01*
X070071Y033811D01*
X070043Y033853D01*
X070019Y033897D01*
X069998Y033943D01*
X069981Y033991D01*
X069968Y034039D01*
X069958Y034089D01*
X069952Y034139D01*
X069950Y034189D01*
X067600Y035860D02*
X067600Y039360D01*
X067100Y039360D01*
X067100Y039460D01*
X066600Y039460D01*
X066600Y039360D01*
X063850Y039360D01*
X063850Y039460D01*
X063350Y039460D01*
X063350Y039360D01*
X060600Y039360D01*
X060600Y039460D01*
X060100Y039460D01*
X060100Y039360D01*
X059600Y039360D01*
X059600Y035860D01*
X061350Y035860D01*
X061350Y035910D01*
X061850Y035910D01*
X061850Y035860D01*
X062800Y035860D01*
X062800Y036260D01*
X062800Y036360D01*
X060100Y036360D01*
X060100Y038860D01*
X067100Y038860D01*
X067100Y036360D01*
X065400Y036360D01*
X064800Y036360D01*
X064400Y036360D01*
X064400Y036260D01*
X064400Y035860D01*
X062800Y035860D01*
X062800Y036360D02*
X062800Y036660D01*
X064400Y036660D01*
X064400Y036360D01*
X064600Y036060D02*
X064450Y035860D01*
X064400Y035860D01*
X064600Y036060D02*
X064800Y036060D01*
X065400Y036060D01*
X065400Y036260D01*
X065400Y036360D01*
X065400Y036060D02*
X065600Y036060D01*
X065750Y035860D01*
X067600Y035860D01*
X064800Y036060D02*
X064800Y036260D01*
X064800Y036360D01*
X064400Y039640D02*
X064550Y039840D01*
X064750Y039840D01*
X065350Y039840D01*
X065350Y040040D01*
X065350Y040140D01*
X064750Y040140D01*
X064350Y040140D01*
X064350Y040040D01*
X064350Y039640D01*
X062750Y039640D01*
X061800Y039640D01*
X061800Y039690D01*
X061300Y039690D01*
X061300Y039640D01*
X059550Y039640D01*
X059550Y043140D01*
X060050Y043140D01*
X060050Y043240D01*
X060550Y043240D01*
X060550Y043140D01*
X063300Y043140D01*
X063300Y043240D01*
X063800Y043240D01*
X063800Y043140D01*
X066550Y043140D01*
X066550Y043240D01*
X067050Y043240D01*
X067050Y043140D01*
X067550Y043140D01*
X067550Y039640D01*
X065700Y039640D01*
X065550Y039840D01*
X065350Y039840D01*
X065350Y040140D02*
X067050Y040140D01*
X067050Y042640D01*
X060050Y042640D01*
X060050Y040140D01*
X062750Y040140D01*
X062750Y040040D01*
X062750Y039640D01*
X062750Y040140D02*
X062750Y040440D01*
X064350Y040440D01*
X064350Y040140D01*
X064750Y040140D02*
X064750Y040040D01*
X064750Y039840D01*
X064400Y039640D02*
X064350Y039640D01*
X069950Y044031D02*
X069952Y044081D01*
X069958Y044131D01*
X069968Y044181D01*
X069981Y044229D01*
X069998Y044277D01*
X070019Y044323D01*
X070043Y044367D01*
X070071Y044409D01*
X070102Y044449D01*
X070136Y044486D01*
X070173Y044521D01*
X070212Y044552D01*
X070253Y044581D01*
X070297Y044606D01*
X070343Y044628D01*
X070390Y044646D01*
X070438Y044660D01*
X070487Y044671D01*
X070537Y044678D01*
X070587Y044681D01*
X070638Y044680D01*
X070688Y044675D01*
X070738Y044666D01*
X070786Y044654D01*
X070834Y044637D01*
X070880Y044617D01*
X070925Y044594D01*
X070968Y044567D01*
X071008Y044537D01*
X071046Y044504D01*
X071081Y044468D01*
X071114Y044429D01*
X071143Y044388D01*
X071169Y044345D01*
X071192Y044300D01*
X071211Y044253D01*
X071226Y044205D01*
X071238Y044156D01*
X071246Y044106D01*
X071250Y044056D01*
X071250Y044006D01*
X071246Y043956D01*
X071238Y043906D01*
X071226Y043857D01*
X071211Y043809D01*
X071192Y043762D01*
X071169Y043717D01*
X071143Y043674D01*
X071114Y043633D01*
X071081Y043594D01*
X071046Y043558D01*
X071008Y043525D01*
X070968Y043495D01*
X070925Y043468D01*
X070880Y043445D01*
X070834Y043425D01*
X070786Y043408D01*
X070738Y043396D01*
X070688Y043387D01*
X070638Y043382D01*
X070587Y043381D01*
X070537Y043384D01*
X070487Y043391D01*
X070438Y043402D01*
X070390Y043416D01*
X070343Y043434D01*
X070297Y043456D01*
X070253Y043481D01*
X070212Y043510D01*
X070173Y043541D01*
X070136Y043576D01*
X070102Y043613D01*
X070071Y043653D01*
X070043Y043695D01*
X070019Y043739D01*
X069998Y043785D01*
X069981Y043833D01*
X069968Y043881D01*
X069958Y043931D01*
X069952Y043981D01*
X069950Y044031D01*
X073600Y042595D02*
X073602Y042625D01*
X073607Y042655D01*
X073616Y042684D01*
X073629Y042711D01*
X073644Y042737D01*
X073663Y042761D01*
X073684Y042782D01*
X073708Y042801D01*
X073734Y042816D01*
X073761Y042829D01*
X073790Y042838D01*
X073820Y042843D01*
X073850Y042845D01*
X074682Y042845D02*
X074682Y042895D01*
X075039Y042895D01*
X075043Y042560D02*
X075045Y042530D01*
X075050Y042500D01*
X075059Y042471D01*
X075072Y042444D01*
X075087Y042418D01*
X075106Y042394D01*
X075127Y042373D01*
X075151Y042354D01*
X075177Y042339D01*
X075204Y042326D01*
X075233Y042317D01*
X075263Y042312D01*
X075293Y042310D01*
X077332Y042310D01*
X077358Y042308D01*
X077384Y042303D01*
X077409Y042295D01*
X077432Y042283D01*
X077454Y042269D01*
X077473Y042251D01*
X077491Y042232D01*
X077505Y042210D01*
X077517Y042187D01*
X077525Y042162D01*
X077530Y042136D01*
X077532Y042110D01*
X077532Y036110D01*
X077530Y036084D01*
X077525Y036058D01*
X077517Y036033D01*
X077505Y036010D01*
X077491Y035988D01*
X077473Y035969D01*
X077454Y035951D01*
X077432Y035937D01*
X077409Y035925D01*
X077384Y035917D01*
X077358Y035912D01*
X077332Y035910D01*
X075293Y035910D01*
X075263Y035908D01*
X075233Y035903D01*
X075204Y035894D01*
X075177Y035881D01*
X075151Y035866D01*
X075127Y035847D01*
X075106Y035826D01*
X075087Y035802D01*
X075072Y035776D01*
X075059Y035749D01*
X075050Y035720D01*
X075045Y035690D01*
X075043Y035660D01*
X075046Y033055D02*
X075046Y045203D01*
X075039Y033010D02*
X073600Y033010D01*
D14*
X067150Y032490D02*
X067150Y035190D01*
X059950Y035190D01*
X059950Y032490D01*
X062750Y032490D01*
X064350Y032490D02*
X064750Y032490D01*
X065350Y032490D02*
X067150Y032490D01*
X067200Y036260D02*
X065400Y036260D01*
X064800Y036260D02*
X064400Y036260D01*
X062800Y036260D02*
X060000Y036260D01*
X060000Y038960D01*
X067200Y038960D01*
X067200Y036260D01*
X067150Y040040D02*
X065350Y040040D01*
X064750Y040040D02*
X064350Y040040D01*
X062750Y040040D02*
X059950Y040040D01*
X059950Y042740D01*
X067150Y042740D01*
X067150Y040040D01*
X061380Y031070D02*
X061380Y024970D01*
X063770Y021160D02*
X063770Y016060D01*
X064970Y013860D02*
X064970Y010360D01*
X064970Y009860D02*
X064970Y006360D01*
X035810Y013450D02*
X035810Y017450D01*
X034250Y026900D02*
X034250Y032000D01*
X027340Y032150D02*
X027340Y027050D01*
X021430Y027710D02*
X021430Y031210D01*
X045060Y029490D02*
X045060Y033490D01*
X050780Y033550D02*
X050780Y029550D01*
D15*
X054530Y030740D02*
X058580Y030740D01*
X036140Y022200D02*
X036140Y019200D01*
X035140Y019200D01*
X026540Y020700D02*
X026542Y020832D01*
X026548Y020964D01*
X026558Y021096D01*
X026572Y021228D01*
X026590Y021359D01*
X026611Y021489D01*
X026637Y021619D01*
X026667Y021748D01*
X026700Y021876D01*
X026737Y022003D01*
X026778Y022129D01*
X026823Y022253D01*
X026872Y022376D01*
X026924Y022498D01*
X026980Y022618D01*
X027039Y022736D01*
X027102Y022852D01*
X027169Y022966D01*
X027238Y023079D01*
X027312Y023189D01*
X027388Y023297D01*
X027468Y023403D01*
X027551Y023506D01*
X027636Y023606D01*
X027725Y023704D01*
X027817Y023800D01*
X027912Y023892D01*
X028009Y023982D01*
X028109Y024068D01*
X028211Y024152D01*
X028316Y024232D01*
X028424Y024310D01*
X028533Y024384D01*
X028645Y024454D01*
X028759Y024521D01*
X028875Y024585D01*
X028993Y024646D01*
X029112Y024702D01*
X029233Y024756D01*
X029356Y024805D01*
X029480Y024851D01*
X029606Y024893D01*
X029732Y024931D01*
X029860Y024965D01*
X029989Y024996D01*
X030118Y025023D01*
X030248Y025045D01*
X030379Y025064D01*
X030511Y025079D01*
X030643Y025090D01*
X030775Y025097D01*
X030907Y025100D01*
X031039Y025099D01*
X031171Y025094D01*
X031303Y025085D01*
X031435Y025072D01*
X031566Y025055D01*
X031697Y025034D01*
X031827Y025010D01*
X031956Y024981D01*
X032084Y024949D01*
X032211Y024912D01*
X032337Y024872D01*
X032462Y024828D01*
X032586Y024781D01*
X032707Y024729D01*
X032828Y024674D01*
X032946Y024616D01*
X033063Y024554D01*
X033178Y024488D01*
X033291Y024419D01*
X033402Y024347D01*
X033510Y024271D01*
X033616Y024192D01*
X033720Y024110D01*
X033821Y024025D01*
X033920Y023937D01*
X034016Y023846D01*
X034109Y023752D01*
X034199Y023656D01*
X034287Y023556D01*
X034371Y023454D01*
X034452Y023350D01*
X034531Y023243D01*
X034605Y023134D01*
X034677Y023023D01*
X034745Y022910D01*
X034810Y022794D01*
X034871Y022677D01*
X034929Y022558D01*
X034983Y022437D01*
X035033Y022315D01*
X035080Y022191D01*
X035123Y022066D01*
X035162Y021940D01*
X035197Y021812D01*
X035229Y021684D01*
X035256Y021554D01*
X035280Y021424D01*
X035300Y021293D01*
X035316Y021162D01*
X035328Y021030D01*
X035336Y020898D01*
X035340Y020766D01*
X035340Y020634D01*
X035336Y020502D01*
X035328Y020370D01*
X035316Y020238D01*
X035300Y020107D01*
X035280Y019976D01*
X035256Y019846D01*
X035229Y019716D01*
X035197Y019588D01*
X035162Y019460D01*
X035123Y019334D01*
X035080Y019209D01*
X035033Y019085D01*
X034983Y018963D01*
X034929Y018842D01*
X034871Y018723D01*
X034810Y018606D01*
X034745Y018490D01*
X034677Y018377D01*
X034605Y018266D01*
X034531Y018157D01*
X034452Y018050D01*
X034371Y017946D01*
X034287Y017844D01*
X034199Y017744D01*
X034109Y017648D01*
X034016Y017554D01*
X033920Y017463D01*
X033821Y017375D01*
X033720Y017290D01*
X033616Y017208D01*
X033510Y017129D01*
X033402Y017053D01*
X033291Y016981D01*
X033178Y016912D01*
X033063Y016846D01*
X032946Y016784D01*
X032828Y016726D01*
X032707Y016671D01*
X032586Y016619D01*
X032462Y016572D01*
X032337Y016528D01*
X032211Y016488D01*
X032084Y016451D01*
X031956Y016419D01*
X031827Y016390D01*
X031697Y016366D01*
X031566Y016345D01*
X031435Y016328D01*
X031303Y016315D01*
X031171Y016306D01*
X031039Y016301D01*
X030907Y016300D01*
X030775Y016303D01*
X030643Y016310D01*
X030511Y016321D01*
X030379Y016336D01*
X030248Y016355D01*
X030118Y016377D01*
X029989Y016404D01*
X029860Y016435D01*
X029732Y016469D01*
X029606Y016507D01*
X029480Y016549D01*
X029356Y016595D01*
X029233Y016644D01*
X029112Y016698D01*
X028993Y016754D01*
X028875Y016815D01*
X028759Y016879D01*
X028645Y016946D01*
X028533Y017016D01*
X028424Y017090D01*
X028316Y017168D01*
X028211Y017248D01*
X028109Y017332D01*
X028009Y017418D01*
X027912Y017508D01*
X027817Y017600D01*
X027725Y017696D01*
X027636Y017794D01*
X027551Y017894D01*
X027468Y017997D01*
X027388Y018103D01*
X027312Y018211D01*
X027238Y018321D01*
X027169Y018434D01*
X027102Y018548D01*
X027039Y018664D01*
X026980Y018782D01*
X026924Y018902D01*
X026872Y019024D01*
X026823Y019147D01*
X026778Y019271D01*
X026737Y019397D01*
X026700Y019524D01*
X026667Y019652D01*
X026637Y019781D01*
X026611Y019911D01*
X026590Y020041D01*
X026572Y020172D01*
X026558Y020304D01*
X026548Y020436D01*
X026542Y020568D01*
X026540Y020700D01*
X035140Y022200D02*
X036140Y022200D01*
X036140Y012450D02*
X035140Y012450D01*
X036140Y012450D02*
X036140Y009450D01*
X035140Y009450D01*
X026540Y010950D02*
X026542Y011082D01*
X026548Y011214D01*
X026558Y011346D01*
X026572Y011478D01*
X026590Y011609D01*
X026611Y011739D01*
X026637Y011869D01*
X026667Y011998D01*
X026700Y012126D01*
X026737Y012253D01*
X026778Y012379D01*
X026823Y012503D01*
X026872Y012626D01*
X026924Y012748D01*
X026980Y012868D01*
X027039Y012986D01*
X027102Y013102D01*
X027169Y013216D01*
X027238Y013329D01*
X027312Y013439D01*
X027388Y013547D01*
X027468Y013653D01*
X027551Y013756D01*
X027636Y013856D01*
X027725Y013954D01*
X027817Y014050D01*
X027912Y014142D01*
X028009Y014232D01*
X028109Y014318D01*
X028211Y014402D01*
X028316Y014482D01*
X028424Y014560D01*
X028533Y014634D01*
X028645Y014704D01*
X028759Y014771D01*
X028875Y014835D01*
X028993Y014896D01*
X029112Y014952D01*
X029233Y015006D01*
X029356Y015055D01*
X029480Y015101D01*
X029606Y015143D01*
X029732Y015181D01*
X029860Y015215D01*
X029989Y015246D01*
X030118Y015273D01*
X030248Y015295D01*
X030379Y015314D01*
X030511Y015329D01*
X030643Y015340D01*
X030775Y015347D01*
X030907Y015350D01*
X031039Y015349D01*
X031171Y015344D01*
X031303Y015335D01*
X031435Y015322D01*
X031566Y015305D01*
X031697Y015284D01*
X031827Y015260D01*
X031956Y015231D01*
X032084Y015199D01*
X032211Y015162D01*
X032337Y015122D01*
X032462Y015078D01*
X032586Y015031D01*
X032707Y014979D01*
X032828Y014924D01*
X032946Y014866D01*
X033063Y014804D01*
X033178Y014738D01*
X033291Y014669D01*
X033402Y014597D01*
X033510Y014521D01*
X033616Y014442D01*
X033720Y014360D01*
X033821Y014275D01*
X033920Y014187D01*
X034016Y014096D01*
X034109Y014002D01*
X034199Y013906D01*
X034287Y013806D01*
X034371Y013704D01*
X034452Y013600D01*
X034531Y013493D01*
X034605Y013384D01*
X034677Y013273D01*
X034745Y013160D01*
X034810Y013044D01*
X034871Y012927D01*
X034929Y012808D01*
X034983Y012687D01*
X035033Y012565D01*
X035080Y012441D01*
X035123Y012316D01*
X035162Y012190D01*
X035197Y012062D01*
X035229Y011934D01*
X035256Y011804D01*
X035280Y011674D01*
X035300Y011543D01*
X035316Y011412D01*
X035328Y011280D01*
X035336Y011148D01*
X035340Y011016D01*
X035340Y010884D01*
X035336Y010752D01*
X035328Y010620D01*
X035316Y010488D01*
X035300Y010357D01*
X035280Y010226D01*
X035256Y010096D01*
X035229Y009966D01*
X035197Y009838D01*
X035162Y009710D01*
X035123Y009584D01*
X035080Y009459D01*
X035033Y009335D01*
X034983Y009213D01*
X034929Y009092D01*
X034871Y008973D01*
X034810Y008856D01*
X034745Y008740D01*
X034677Y008627D01*
X034605Y008516D01*
X034531Y008407D01*
X034452Y008300D01*
X034371Y008196D01*
X034287Y008094D01*
X034199Y007994D01*
X034109Y007898D01*
X034016Y007804D01*
X033920Y007713D01*
X033821Y007625D01*
X033720Y007540D01*
X033616Y007458D01*
X033510Y007379D01*
X033402Y007303D01*
X033291Y007231D01*
X033178Y007162D01*
X033063Y007096D01*
X032946Y007034D01*
X032828Y006976D01*
X032707Y006921D01*
X032586Y006869D01*
X032462Y006822D01*
X032337Y006778D01*
X032211Y006738D01*
X032084Y006701D01*
X031956Y006669D01*
X031827Y006640D01*
X031697Y006616D01*
X031566Y006595D01*
X031435Y006578D01*
X031303Y006565D01*
X031171Y006556D01*
X031039Y006551D01*
X030907Y006550D01*
X030775Y006553D01*
X030643Y006560D01*
X030511Y006571D01*
X030379Y006586D01*
X030248Y006605D01*
X030118Y006627D01*
X029989Y006654D01*
X029860Y006685D01*
X029732Y006719D01*
X029606Y006757D01*
X029480Y006799D01*
X029356Y006845D01*
X029233Y006894D01*
X029112Y006948D01*
X028993Y007004D01*
X028875Y007065D01*
X028759Y007129D01*
X028645Y007196D01*
X028533Y007266D01*
X028424Y007340D01*
X028316Y007418D01*
X028211Y007498D01*
X028109Y007582D01*
X028009Y007668D01*
X027912Y007758D01*
X027817Y007850D01*
X027725Y007946D01*
X027636Y008044D01*
X027551Y008144D01*
X027468Y008247D01*
X027388Y008353D01*
X027312Y008461D01*
X027238Y008571D01*
X027169Y008684D01*
X027102Y008798D01*
X027039Y008914D01*
X026980Y009032D01*
X026924Y009152D01*
X026872Y009274D01*
X026823Y009397D01*
X026778Y009521D01*
X026737Y009647D01*
X026700Y009774D01*
X026667Y009902D01*
X026637Y010031D01*
X026611Y010161D01*
X026590Y010291D01*
X026572Y010422D01*
X026558Y010554D01*
X026548Y010686D01*
X026542Y010818D01*
X026540Y010950D01*
D16*
X028240Y011550D02*
X028240Y010250D01*
X032640Y010250D01*
X032640Y011650D01*
X028240Y011650D01*
X034340Y011650D02*
X034340Y010250D01*
X035840Y010250D01*
X035840Y011650D01*
X034340Y011650D01*
X034340Y020000D02*
X035840Y020000D01*
X035840Y021400D01*
X034340Y021400D01*
X034340Y020000D01*
X032640Y020000D02*
X032640Y021400D01*
X028240Y021400D01*
X028240Y021300D02*
X028240Y020000D01*
X032640Y020000D01*
X047959Y019264D02*
X047961Y019298D01*
X047967Y019332D01*
X047977Y019365D01*
X047990Y019396D01*
X048008Y019426D01*
X048028Y019454D01*
X048052Y019479D01*
X048078Y019501D01*
X048106Y019519D01*
X048137Y019535D01*
X048169Y019547D01*
X048203Y019555D01*
X048237Y019559D01*
X048271Y019559D01*
X048305Y019555D01*
X048339Y019547D01*
X048371Y019535D01*
X048401Y019519D01*
X048430Y019501D01*
X048456Y019479D01*
X048480Y019454D01*
X048500Y019426D01*
X048518Y019396D01*
X048531Y019365D01*
X048541Y019332D01*
X048547Y019298D01*
X048549Y019264D01*
X048547Y019230D01*
X048541Y019196D01*
X048531Y019163D01*
X048518Y019132D01*
X048500Y019102D01*
X048480Y019074D01*
X048456Y019049D01*
X048430Y019027D01*
X048402Y019009D01*
X048371Y018993D01*
X048339Y018981D01*
X048305Y018973D01*
X048271Y018969D01*
X048237Y018969D01*
X048203Y018973D01*
X048169Y018981D01*
X048137Y018993D01*
X048106Y019009D01*
X048078Y019027D01*
X048052Y019049D01*
X048028Y019074D01*
X048008Y019102D01*
X047990Y019132D01*
X047977Y019163D01*
X047967Y019196D01*
X047961Y019230D01*
X047959Y019264D01*
X019069Y041563D02*
X019071Y041590D01*
X019077Y041617D01*
X019086Y041643D01*
X019099Y041667D01*
X019115Y041690D01*
X019134Y041709D01*
X019156Y041726D01*
X019180Y041740D01*
X019205Y041750D01*
X019232Y041757D01*
X019259Y041760D01*
X019287Y041759D01*
X019314Y041754D01*
X019340Y041746D01*
X019364Y041734D01*
X019387Y041718D01*
X019408Y041700D01*
X019425Y041679D01*
X019440Y041655D01*
X019451Y041630D01*
X019459Y041604D01*
X019463Y041577D01*
X019463Y041549D01*
X019459Y041522D01*
X019451Y041496D01*
X019440Y041471D01*
X019425Y041447D01*
X019408Y041426D01*
X019387Y041408D01*
X019365Y041392D01*
X019340Y041380D01*
X019314Y041372D01*
X019287Y041367D01*
X019259Y041366D01*
X019232Y041369D01*
X019205Y041376D01*
X019180Y041386D01*
X019156Y041400D01*
X019134Y041417D01*
X019115Y041436D01*
X019099Y041459D01*
X019086Y041483D01*
X019077Y041509D01*
X019071Y041536D01*
X019069Y041563D01*
D17*
X022930Y006110D02*
X012950Y006110D01*
X012950Y025110D01*
X022930Y025110D01*
X022930Y006110D01*
X044654Y005985D02*
X044954Y006285D01*
X044954Y006360D01*
X044879Y006435D01*
X044729Y006435D01*
X044654Y006360D01*
X044654Y005985D02*
X044954Y005985D01*
X045115Y006060D02*
X045190Y005985D01*
X045340Y005985D01*
X045415Y006060D01*
X045415Y006135D01*
X045340Y006210D01*
X045115Y006210D01*
X045115Y006060D01*
X045115Y006210D02*
X045265Y006360D01*
X045415Y006435D01*
X045340Y010985D02*
X045415Y011060D01*
X045415Y011135D01*
X045340Y011210D01*
X045115Y011210D01*
X045115Y011060D01*
X045190Y010985D01*
X045340Y010985D01*
X045115Y011210D02*
X045265Y011360D01*
X045415Y011435D01*
X044954Y011360D02*
X044879Y011435D01*
X044729Y011435D01*
X044654Y011360D01*
X044954Y011360D02*
X044954Y011285D01*
X044654Y010985D01*
X044954Y010985D01*
X056815Y009085D02*
X056965Y009235D01*
X056965Y008785D01*
X056815Y008785D02*
X057115Y008785D01*
X057115Y013785D02*
X056815Y013785D01*
X056965Y013785D02*
X056965Y014235D01*
X056815Y014085D01*
X060320Y018435D02*
X060320Y018660D01*
X060395Y018735D01*
X060470Y018735D01*
X060545Y018660D01*
X060545Y018510D01*
X060470Y018435D01*
X060320Y018435D01*
X060170Y018585D01*
X060095Y018735D01*
X058645Y021285D02*
X058645Y021585D01*
X058645Y021435D02*
X058195Y021435D01*
X058345Y021285D01*
X057130Y025775D02*
X057205Y025850D01*
X057205Y025925D01*
X057130Y026000D01*
X056755Y026000D01*
X056755Y025925D02*
X056755Y026075D01*
X056830Y026235D02*
X056755Y026310D01*
X056755Y026461D01*
X056830Y026536D01*
X056905Y026536D01*
X056980Y026461D01*
X057055Y026536D01*
X057130Y026536D01*
X057205Y026461D01*
X057205Y026310D01*
X057130Y026235D01*
X056980Y026386D02*
X056980Y026461D01*
X058565Y026288D02*
X058905Y026288D01*
X058905Y026175D02*
X058905Y026402D01*
X058678Y026175D02*
X058565Y026288D01*
X058621Y027175D02*
X058565Y027232D01*
X058565Y027345D01*
X058621Y027402D01*
X058678Y027402D01*
X058905Y027175D01*
X058905Y027402D01*
X058848Y028175D02*
X058905Y028232D01*
X058905Y028345D01*
X058848Y028402D01*
X058792Y028402D01*
X058735Y028345D01*
X058735Y028288D01*
X058735Y028345D02*
X058678Y028402D01*
X058621Y028402D01*
X058565Y028345D01*
X058565Y028232D01*
X058621Y028175D01*
X058631Y030571D02*
X054497Y030571D01*
X054497Y032540D01*
X058631Y032540D01*
X058631Y030571D01*
X060575Y033115D02*
X060875Y033115D01*
X060725Y033115D02*
X060725Y033565D01*
X060575Y033415D01*
X060575Y034115D02*
X060875Y034415D01*
X060875Y034490D01*
X060800Y034565D01*
X060650Y034565D01*
X060575Y034490D01*
X060575Y034115D02*
X060875Y034115D01*
X063175Y032565D02*
X063325Y032715D01*
X063325Y032265D01*
X063175Y032265D02*
X063475Y032265D01*
X063635Y032340D02*
X063710Y032265D01*
X063861Y032265D01*
X063936Y032340D01*
X063936Y032640D01*
X063635Y032340D01*
X063635Y032640D01*
X063710Y032715D01*
X063861Y032715D01*
X063936Y032640D01*
X067250Y030220D02*
X067250Y028970D01*
X069150Y028970D01*
X069150Y030220D01*
X069931Y032366D02*
X069950Y026854D01*
X072411Y026854D01*
X072411Y026972D01*
X073198Y026972D01*
X073198Y026854D01*
X074970Y026854D01*
X074970Y032366D01*
X073198Y032366D01*
X073198Y032248D01*
X072411Y032248D01*
X072411Y032346D01*
X073198Y032366D02*
X069931Y032366D01*
X070537Y036334D02*
X070386Y036484D01*
X070837Y036484D01*
X070837Y036334D02*
X070837Y036634D01*
X070762Y036794D02*
X070837Y036869D01*
X070837Y037019D01*
X070762Y037094D01*
X070461Y037094D01*
X070762Y036794D01*
X070461Y036794D01*
X070386Y036869D01*
X070386Y037019D01*
X070461Y037094D01*
X069790Y036638D02*
X069790Y036488D01*
X069715Y036413D01*
X069564Y036413D02*
X069489Y036563D01*
X069489Y036638D01*
X069564Y036713D01*
X069715Y036713D01*
X069790Y036638D01*
X069564Y036413D02*
X069339Y036413D01*
X069339Y036713D01*
X071528Y036817D02*
X071528Y036517D01*
X071753Y036517D01*
X071678Y036667D01*
X071678Y036742D01*
X071753Y036817D01*
X071903Y036817D01*
X071979Y036742D01*
X071979Y036592D01*
X071903Y036517D01*
X071979Y036357D02*
X071979Y036056D01*
X071979Y036206D02*
X071528Y036206D01*
X071678Y036056D01*
X063986Y036110D02*
X063911Y036035D01*
X063760Y036035D01*
X063685Y036110D01*
X063986Y036410D01*
X063986Y036110D01*
X063986Y036410D02*
X063911Y036485D01*
X063760Y036485D01*
X063685Y036410D01*
X063685Y036110D01*
X063525Y036035D02*
X063225Y036035D01*
X063375Y036035D02*
X063375Y036485D01*
X063225Y036335D01*
X060925Y036885D02*
X060625Y036885D01*
X060775Y036885D02*
X060775Y037335D01*
X060625Y037185D01*
X060625Y037885D02*
X060925Y038185D01*
X060925Y038260D01*
X060850Y038335D01*
X060700Y038335D01*
X060625Y038260D01*
X060625Y037885D02*
X060925Y037885D01*
X063175Y039815D02*
X063475Y039815D01*
X063325Y039815D02*
X063325Y040265D01*
X063175Y040115D01*
X063635Y040190D02*
X063635Y039890D01*
X063936Y040190D01*
X063936Y039890D01*
X063861Y039815D01*
X063710Y039815D01*
X063635Y039890D01*
X063635Y040190D02*
X063710Y040265D01*
X063861Y040265D01*
X063936Y040190D01*
X060875Y040665D02*
X060575Y040665D01*
X060725Y040665D02*
X060725Y041115D01*
X060575Y040965D01*
X060575Y041665D02*
X060875Y041965D01*
X060875Y042040D01*
X060800Y042115D01*
X060650Y042115D01*
X060575Y042040D01*
X060575Y041665D02*
X060875Y041665D01*
X069300Y041443D02*
X069750Y041443D01*
X069750Y041593D02*
X069750Y041292D01*
X069450Y041292D02*
X069300Y041443D01*
X070347Y042026D02*
X070422Y041876D01*
X070572Y041726D01*
X070572Y041951D01*
X070647Y042026D01*
X070722Y042026D01*
X070797Y041951D01*
X070797Y041801D01*
X070722Y041726D01*
X070572Y041726D01*
X071410Y041639D02*
X071560Y041489D01*
X071410Y041639D02*
X071860Y041639D01*
X071860Y041489D02*
X071860Y041790D01*
X071860Y041950D02*
X071860Y042250D01*
X071860Y042100D02*
X071410Y042100D01*
X071560Y041950D01*
X054497Y031871D02*
X054532Y031869D01*
X054567Y031864D01*
X054601Y031855D01*
X054633Y031842D01*
X054665Y031826D01*
X054694Y031807D01*
X054721Y031785D01*
X054746Y031760D01*
X054768Y031733D01*
X054787Y031704D01*
X054803Y031672D01*
X054816Y031640D01*
X054825Y031606D01*
X054830Y031571D01*
X054832Y031536D01*
X054830Y031501D01*
X054825Y031466D01*
X054816Y031432D01*
X054803Y031400D01*
X054787Y031369D01*
X054768Y031339D01*
X054746Y031312D01*
X054721Y031287D01*
X054694Y031265D01*
X054665Y031246D01*
X054633Y031230D01*
X054601Y031217D01*
X054567Y031208D01*
X054532Y031203D01*
X054497Y031201D01*
X046850Y034360D02*
X046850Y042860D01*
X038850Y042860D02*
X038850Y034360D01*
X045015Y034115D02*
X045165Y034115D01*
X045090Y034115D02*
X045090Y033665D01*
X045015Y033665D02*
X045165Y033665D01*
X045322Y033740D02*
X045397Y033665D01*
X045547Y033665D01*
X045622Y033740D01*
X045782Y033740D02*
X045857Y033665D01*
X046008Y033665D01*
X046083Y033740D01*
X046083Y033815D01*
X046008Y033890D01*
X045782Y033890D01*
X045782Y033740D01*
X045782Y033890D02*
X045932Y034040D01*
X046083Y034115D01*
X045622Y034040D02*
X045547Y034115D01*
X045397Y034115D01*
X045322Y034040D01*
X045322Y033740D01*
X031350Y034360D02*
X031350Y042860D01*
X023850Y042860D02*
X023850Y034360D01*
X069875Y022675D02*
X070325Y022675D01*
X070325Y022525D02*
X070325Y022825D01*
X070025Y022525D02*
X069875Y022675D01*
X070875Y022564D02*
X071325Y022564D01*
X071325Y022414D02*
X071325Y022714D01*
X071100Y022875D02*
X071100Y023175D01*
X071325Y023100D02*
X070875Y023100D01*
X071100Y022875D01*
X070875Y022564D02*
X071025Y022414D01*
X073975Y022525D02*
X074200Y022525D01*
X074125Y022675D01*
X074125Y022750D01*
X074200Y022825D01*
X074350Y022825D01*
X074425Y022750D01*
X074425Y022600D01*
X074350Y022525D01*
X074425Y022364D02*
X074425Y022064D01*
X074125Y022364D01*
X074050Y022364D01*
X073975Y022289D01*
X073975Y022139D01*
X074050Y022064D01*
X073975Y021904D02*
X073975Y021604D01*
X074425Y021604D01*
X074200Y021604D02*
X074200Y021754D01*
X073975Y022525D02*
X073975Y022825D01*
X073198Y026854D02*
X072411Y026854D01*
X071250Y008475D02*
X071325Y008400D01*
X071325Y008250D01*
X071250Y008175D01*
X071100Y008175D02*
X071025Y008325D01*
X071025Y008400D01*
X071100Y008475D01*
X071250Y008475D01*
X071100Y008175D02*
X070875Y008175D01*
X070875Y008475D01*
X070950Y008014D02*
X070875Y007939D01*
X070875Y007789D01*
X070950Y007714D01*
X070950Y008014D02*
X071025Y008014D01*
X071325Y007714D01*
X071325Y008014D01*
X070325Y008014D02*
X070325Y007714D01*
X070325Y007864D02*
X069875Y007864D01*
X070025Y007714D01*
X069950Y008175D02*
X069875Y008250D01*
X069875Y008400D01*
X069950Y008475D01*
X070025Y008475D01*
X070100Y008400D01*
X070175Y008475D01*
X070250Y008475D01*
X070325Y008400D01*
X070325Y008250D01*
X070250Y008175D01*
X070100Y008325D02*
X070100Y008400D01*
X071700Y005835D02*
X071625Y005760D01*
X071700Y005835D02*
X071850Y005835D01*
X071925Y005760D01*
X071925Y005685D01*
X071625Y005385D01*
X071925Y005385D01*
X072085Y005235D02*
X072236Y005385D01*
X072160Y005385D01*
X072160Y005460D01*
X072236Y005460D01*
X072236Y005385D01*
X072392Y005460D02*
X072467Y005385D01*
X072618Y005385D01*
X072693Y005460D01*
X072693Y005610D01*
X072618Y005685D01*
X072542Y005685D01*
X072392Y005610D01*
X072392Y005835D01*
X072693Y005835D01*
X072853Y005610D02*
X073153Y005610D01*
X073078Y005385D02*
X073078Y005835D01*
X072853Y005610D01*
D18*
X064205Y025270D03*
X064205Y025770D03*
X064205Y026270D03*
X064205Y026770D03*
X064205Y027270D03*
X064205Y027770D03*
X064205Y028270D03*
X064205Y028770D03*
X064205Y029270D03*
X064205Y029770D03*
X064205Y030270D03*
X064205Y030770D03*
X061215Y030770D03*
X061215Y030270D03*
X061215Y029770D03*
X061215Y029270D03*
X061215Y028770D03*
X061215Y028270D03*
X061215Y027770D03*
X061215Y027270D03*
X061215Y026770D03*
X061215Y026270D03*
X061215Y025770D03*
X061215Y025270D03*
D19*
X072391Y037664D03*
X072391Y038564D03*
X072391Y039464D03*
X072391Y040364D03*
X072391Y041264D03*
D20*
X072883Y040814D03*
X072883Y039914D03*
X072883Y039014D03*
X072883Y038114D03*
X072883Y037214D03*
D21*
X070620Y037214D03*
X070620Y038114D03*
X070620Y039014D03*
X070620Y039914D03*
X070620Y040814D03*
D22*
X071601Y034466D02*
X071601Y034072D01*
X071798Y033875D01*
X071995Y034072D01*
X071995Y034466D01*
X072246Y034367D02*
X072246Y033973D01*
X072344Y033875D01*
X072541Y033875D01*
X072640Y033973D01*
X072640Y034170D01*
X072443Y034170D01*
X072640Y034367D02*
X072541Y034466D01*
X072344Y034466D01*
X072246Y034367D01*
X072890Y034269D02*
X072890Y033875D01*
X072890Y034170D02*
X073284Y034170D01*
X073284Y034269D02*
X073284Y033875D01*
X073284Y034269D02*
X073087Y034466D01*
X072890Y034269D01*
X072859Y031265D02*
X072465Y030872D01*
X072563Y030970D02*
X072859Y030675D01*
X073110Y030675D02*
X073405Y030675D01*
X073503Y030773D01*
X073503Y030872D01*
X073405Y030970D01*
X073110Y030970D01*
X073405Y030970D02*
X073503Y031068D01*
X073503Y031167D01*
X073405Y031265D01*
X073110Y031265D01*
X073110Y030675D01*
X073754Y030675D02*
X073754Y031265D01*
X074049Y031265D01*
X074148Y031167D01*
X074148Y030773D01*
X074049Y030675D01*
X073754Y030675D01*
X072465Y030675D02*
X072465Y031265D01*
X072555Y025146D02*
X072260Y025146D01*
X072260Y024555D01*
X072260Y024752D02*
X072555Y024752D01*
X072653Y024850D01*
X072653Y025047D01*
X072555Y025146D01*
X072904Y025146D02*
X073298Y025146D01*
X073101Y025146D02*
X073101Y024555D01*
X072009Y024555D02*
X071615Y024555D01*
X071615Y025146D01*
D23*
X071361Y028433D02*
X071409Y028481D01*
X071409Y028578D01*
X071361Y028626D01*
X071264Y028626D01*
X071215Y028578D01*
X071215Y028529D01*
X071264Y028433D01*
X071119Y028433D01*
X071119Y028626D01*
X070425Y028644D02*
X070425Y028547D01*
X070376Y028499D01*
X070328Y028499D01*
X070280Y028547D01*
X070280Y028644D01*
X070328Y028692D01*
X070376Y028692D01*
X070425Y028644D01*
X070280Y028644D02*
X070231Y028692D01*
X070183Y028692D01*
X070134Y028644D01*
X070134Y028547D01*
X070183Y028499D01*
X070231Y028499D01*
X070280Y028547D01*
X071134Y029343D02*
X071183Y029294D01*
X071134Y029343D02*
X071134Y029439D01*
X071183Y029488D01*
X071231Y029488D01*
X071425Y029294D01*
X071425Y029488D01*
X071425Y030230D02*
X071425Y030424D01*
X071425Y030327D02*
X071134Y030327D01*
X071231Y030230D01*
X071183Y031133D02*
X071134Y031182D01*
X071134Y031279D01*
X071183Y031327D01*
X071231Y031327D01*
X071280Y031279D01*
X071328Y031327D01*
X071376Y031327D01*
X071425Y031279D01*
X071425Y031182D01*
X071376Y031133D01*
X071280Y031230D02*
X071280Y031279D01*
X070440Y031309D02*
X070392Y031357D01*
X070344Y031357D01*
X070295Y031309D01*
X070295Y031163D01*
X070392Y031163D01*
X070440Y031212D01*
X070440Y031309D01*
X070295Y031163D02*
X070199Y031260D01*
X070150Y031357D01*
X019468Y035196D02*
X019420Y035148D01*
X019323Y035148D01*
X019275Y035196D01*
X019275Y035245D01*
X019323Y035293D01*
X019420Y035293D01*
X019468Y035245D01*
X019468Y035196D01*
X019420Y035293D02*
X019468Y035341D01*
X019468Y035390D01*
X019420Y035438D01*
X019323Y035438D01*
X019275Y035390D01*
X019275Y035341D01*
X019323Y035293D01*
X019173Y035293D02*
X018980Y035293D01*
X019125Y035438D01*
X019125Y035148D01*
X019275Y040857D02*
X019468Y040857D01*
X019371Y040857D02*
X019371Y041147D01*
X019275Y041050D01*
D24*
X073450Y015610D03*
D25*
X075100Y015610D03*
D26*
X071875Y015610D03*
X071875Y014520D03*
X071875Y013440D03*
X071875Y012350D03*
X071875Y011260D03*
X071875Y010180D03*
X071875Y009090D03*
X071875Y016700D03*
X071875Y017780D03*
X071875Y018870D03*
X071875Y019960D03*
X071875Y021040D03*
X071875Y022130D03*
D27*
X072375Y021590D03*
X072375Y020500D03*
X072375Y019410D03*
X072375Y018330D03*
X072375Y017240D03*
X072375Y016150D03*
X072375Y015070D03*
X072375Y013980D03*
X072375Y012900D03*
X072375Y011810D03*
X072375Y010720D03*
X072375Y009630D03*
D28*
X061300Y007810D02*
X061300Y007610D01*
X060900Y007660D02*
X060900Y007810D01*
D29*
X060900Y007595D03*
X061300Y007595D03*
M02*
