G75*
%MOIN*%
%OFA0B0*%
%FSLAX24Y24*%
%IPPOS*%
%LPD*%
%AMOC8*
5,1,8,0,0,1.08239X$1,22.5*
%
%ADD10C,0.0150*%
%ADD11C,0.0100*%
%ADD12C,0.0840*%
%ADD13C,0.0600*%
%ADD14C,0.0560*%
%ADD15C,0.0554*%
%ADD16C,0.1306*%
%ADD17C,0.0520*%
%ADD18C,0.0594*%
%ADD19C,0.0240*%
%ADD20C,0.0400*%
%ADD21C,0.0310*%
%ADD22C,0.0160*%
%ADD23C,0.0070*%
D10*
X003898Y037235D02*
X004123Y037235D01*
X004348Y037460D01*
X004348Y038586D01*
X004829Y038361D02*
X004829Y037910D01*
X005054Y037685D01*
X005504Y037685D01*
X005729Y038135D02*
X004829Y038135D01*
X004829Y038361D02*
X005054Y038586D01*
X005504Y038586D01*
X005729Y038361D01*
X005729Y038135D01*
X006210Y038135D02*
X006660Y038586D01*
X006885Y038586D01*
X006210Y038586D02*
X006210Y037685D01*
X004348Y037685D02*
X003673Y037685D01*
X003447Y037910D01*
X003447Y038586D01*
X002967Y038361D02*
X002967Y037685D01*
X002291Y037685D01*
X002066Y037910D01*
X002291Y038135D01*
X002967Y038135D01*
X002967Y038361D02*
X002742Y038586D01*
X002291Y038586D01*
X001586Y037685D02*
X000685Y037685D01*
X000685Y039036D01*
X008742Y038811D02*
X008967Y039036D01*
X009417Y039036D01*
X009643Y038811D01*
X009643Y038586D01*
X008742Y037685D01*
X009643Y037685D01*
D11*
X015890Y013130D02*
X016157Y013130D01*
X016350Y013130D02*
X016617Y013397D01*
X016617Y013464D01*
X016551Y013530D01*
X016417Y013530D01*
X016350Y013464D01*
X016350Y013130D02*
X016617Y013130D01*
X015890Y013130D02*
X015890Y013530D01*
X032220Y019450D02*
X032220Y028150D01*
X031620Y028750D01*
X031620Y029395D01*
X031560Y029545D01*
X032220Y019450D02*
X033930Y017740D01*
X049860Y018940D02*
X050190Y018610D01*
X050190Y017695D01*
X049860Y018940D02*
X049860Y019660D01*
X049800Y019795D01*
X054900Y022435D02*
X055035Y022495D01*
X055245Y022705D01*
X056760Y022705D01*
X056850Y022600D01*
X057690Y021760D01*
X057690Y021490D01*
X059205Y019975D01*
X059205Y019765D01*
X059320Y019470D01*
D12*
X035940Y020700D03*
X028040Y020700D03*
X028040Y010950D03*
X035940Y010950D03*
D13*
X045100Y012110D03*
X045100Y013110D03*
X046100Y013110D03*
X047100Y013110D03*
X048100Y013110D03*
X048100Y012110D03*
X047100Y012110D03*
X046100Y012110D03*
X049100Y012110D03*
X050100Y012110D03*
X051100Y012110D03*
X052100Y012110D03*
X052100Y013110D03*
X051100Y013110D03*
X050100Y013110D03*
X049100Y013110D03*
X053100Y013110D03*
X054100Y013110D03*
X055100Y013110D03*
X055100Y012110D03*
X054100Y012110D03*
X053100Y012110D03*
X056100Y012110D03*
X057100Y012110D03*
X057100Y013110D03*
X056100Y013110D03*
X056100Y008110D03*
X057100Y008110D03*
X057100Y007110D03*
X056100Y007110D03*
X055100Y007110D03*
X054100Y007110D03*
X053100Y007110D03*
X053100Y008110D03*
X054100Y008110D03*
X055100Y008110D03*
X052100Y008110D03*
X051100Y008110D03*
X050100Y008110D03*
X049100Y008110D03*
X049100Y007110D03*
X050100Y007110D03*
X051100Y007110D03*
X052100Y007110D03*
X048100Y007110D03*
X047100Y007110D03*
X046100Y007110D03*
X046100Y008110D03*
X047100Y008110D03*
X048100Y008110D03*
X045100Y008110D03*
X045100Y007110D03*
X059320Y019470D03*
X060320Y019470D03*
X060320Y020470D03*
X059320Y020470D03*
X059320Y021470D03*
X060320Y021470D03*
X070100Y021040D03*
X071100Y020500D03*
X070100Y019960D03*
X071100Y019410D03*
X070100Y018870D03*
X071100Y018330D03*
X070100Y017780D03*
X071100Y017240D03*
X070100Y016700D03*
X071100Y016150D03*
X070100Y015610D03*
X071100Y015070D03*
X070100Y014520D03*
X071100Y013980D03*
X070100Y013440D03*
X071100Y012890D03*
X070100Y012350D03*
X071100Y011810D03*
X070100Y011260D03*
X071100Y010720D03*
X070100Y010180D03*
X071100Y009630D03*
X070100Y009090D03*
X071100Y021590D03*
X070100Y022130D03*
D14*
X068640Y027420D03*
X067640Y027420D03*
X057880Y027150D03*
X057880Y026150D03*
X057880Y028150D03*
X061550Y033340D03*
X062550Y033340D03*
X063550Y033340D03*
X064550Y033340D03*
X064550Y034340D03*
X063550Y034340D03*
X062550Y034340D03*
X061550Y034340D03*
X065550Y034340D03*
X065550Y033340D03*
X065600Y037110D03*
X064600Y037110D03*
X064600Y038110D03*
X065600Y038110D03*
X063600Y038110D03*
X062600Y038110D03*
X061600Y038110D03*
X061600Y037110D03*
X062600Y037110D03*
X063600Y037110D03*
X063550Y040890D03*
X062550Y040890D03*
X061550Y040890D03*
X061550Y041890D03*
X062550Y041890D03*
X063550Y041890D03*
X064550Y041890D03*
X064550Y040890D03*
X065550Y040890D03*
X065550Y041890D03*
X016880Y029110D03*
X014320Y029110D03*
X053100Y010610D03*
X053100Y009610D03*
D15*
X070639Y028271D03*
X071624Y028271D03*
X071624Y029098D03*
X071624Y030122D03*
X071624Y030949D03*
X070659Y030949D03*
X071600Y037214D03*
X071600Y038114D03*
X071600Y039014D03*
X071600Y039914D03*
X071600Y040814D03*
X070600Y040364D03*
X069600Y039914D03*
X070600Y039464D03*
X069600Y039014D03*
X070600Y038564D03*
X069600Y038114D03*
X070600Y037664D03*
X069600Y037214D03*
X069600Y040814D03*
X070600Y041264D03*
D16*
X072805Y032267D03*
X073120Y029610D03*
X072805Y026933D03*
D17*
X061600Y008110D03*
X060600Y008110D03*
D18*
X041603Y007614D03*
X040603Y007614D03*
X040603Y008614D03*
X041603Y008614D03*
X041603Y009614D03*
X040603Y009614D03*
X040603Y010614D03*
X041603Y010614D03*
X041603Y011614D03*
X040603Y011614D03*
X040603Y012614D03*
X041603Y012614D03*
X041603Y013614D03*
X040603Y013614D03*
X040603Y014614D03*
X041603Y014614D03*
X041603Y015614D03*
X040603Y015614D03*
X040603Y016614D03*
X041603Y016614D03*
X041603Y017614D03*
X040603Y017614D03*
X040603Y018614D03*
X041603Y018614D03*
X041603Y019614D03*
X040603Y019614D03*
X040603Y020614D03*
X041603Y020614D03*
X041603Y021614D03*
X040603Y021614D03*
X040603Y022614D03*
X041603Y022614D03*
X041603Y023614D03*
X040603Y023614D03*
X040603Y024614D03*
X041603Y024614D03*
X041603Y025614D03*
X040603Y025614D03*
X040603Y026614D03*
X041603Y026614D03*
X041603Y027614D03*
X040603Y027614D03*
X040603Y028614D03*
X041603Y028614D03*
X041603Y029614D03*
X040603Y029614D03*
X040603Y006614D03*
X041603Y006614D03*
X041603Y005614D03*
X040603Y005614D03*
D19*
X040603Y029614D02*
X041603Y029614D01*
X054410Y035860D02*
X054420Y035870D01*
X054410Y035860D02*
X055310Y036580D01*
X055310Y039770D01*
D20*
X055310Y039770D03*
X054420Y035870D03*
X059610Y035260D03*
X056020Y027710D03*
X054090Y025090D03*
X060100Y006110D03*
X062100Y006110D03*
D21*
X063750Y006610D03*
X062925Y007915D03*
X061845Y009745D03*
X060240Y010480D03*
X059550Y011695D03*
X058935Y011950D03*
X056220Y011410D03*
X055770Y011260D03*
X054075Y010225D03*
X051405Y010450D03*
X051405Y009520D03*
X051660Y009010D03*
X052575Y007855D03*
X051600Y006880D03*
X050430Y006700D03*
X048345Y006400D03*
X047610Y006715D03*
X045885Y006100D03*
X044850Y005845D03*
X044400Y005845D03*
X042210Y006355D03*
X041400Y004930D03*
X039915Y005740D03*
X038925Y006745D03*
X043605Y007450D03*
X044130Y008005D03*
X046275Y009010D03*
X046785Y009475D03*
X048165Y009265D03*
X045900Y010360D03*
X045525Y010240D03*
X044685Y011080D03*
X043980Y011440D03*
X043290Y013345D03*
X044250Y013690D03*
X045255Y013990D03*
X046350Y013600D03*
X048135Y013660D03*
X049275Y013735D03*
X049125Y014635D03*
X049935Y014380D03*
X050940Y014905D03*
X050280Y016045D03*
X050700Y016270D03*
X051225Y016330D03*
X050190Y016780D03*
X049530Y016675D03*
X049230Y016255D03*
X048975Y015310D03*
X047520Y015670D03*
X047370Y015265D03*
X046860Y015955D03*
X044595Y015160D03*
X044235Y015790D03*
X043485Y016735D03*
X043740Y017005D03*
X042780Y017755D03*
X042270Y017860D03*
X044445Y018100D03*
X045255Y018190D03*
X045915Y019210D03*
X046860Y019360D03*
X046860Y018625D03*
X048195Y019105D03*
X049020Y018970D03*
X049530Y018985D03*
X050198Y019030D03*
X050850Y019060D03*
X051300Y018985D03*
X052035Y018970D03*
X052875Y018985D03*
X053415Y018970D03*
X054000Y018970D03*
X054450Y018985D03*
X054360Y019795D03*
X055230Y019345D03*
X055365Y018625D03*
X054810Y017905D03*
X054315Y017905D03*
X053910Y017440D03*
X053550Y017905D03*
X052680Y017875D03*
X052680Y017425D03*
X052146Y017905D03*
X051175Y017905D03*
X050190Y017695D03*
X049680Y017905D03*
X048855Y017905D03*
X048480Y017560D03*
X048195Y017905D03*
X047115Y017560D03*
X049800Y019795D03*
X049635Y020440D03*
X050085Y020440D03*
X049755Y020950D03*
X049545Y021625D03*
X049800Y022000D03*
X049860Y022510D03*
X049035Y022870D03*
X049545Y023170D03*
X047970Y023140D03*
X047970Y023920D03*
X046860Y024085D03*
X046335Y024820D03*
X045135Y024430D03*
X044790Y023320D03*
X044985Y022270D03*
X045810Y021925D03*
X046155Y021625D03*
X046455Y021955D03*
X046350Y021190D03*
X046860Y020935D03*
X048030Y020965D03*
X047970Y021505D03*
X047970Y022315D03*
X046860Y022990D03*
X048030Y024760D03*
X047970Y025210D03*
X048285Y025735D03*
X047970Y026050D03*
X048555Y026230D03*
X049005Y026245D03*
X048960Y025465D03*
X050130Y026230D03*
X051105Y026245D03*
X051045Y025465D03*
X051900Y026230D03*
X052410Y026245D03*
X053475Y026230D03*
X053925Y026245D03*
X054375Y026245D03*
X055230Y025705D03*
X055230Y024850D03*
X055215Y023890D03*
X054465Y023860D03*
X054240Y022705D03*
X054900Y022435D03*
X055215Y022120D03*
X055230Y021670D03*
X055230Y021190D03*
X055215Y020740D03*
X054465Y020770D03*
X053715Y020440D03*
X053460Y020815D03*
X053715Y021520D03*
X053460Y021895D03*
X052950Y021775D03*
X053205Y022390D03*
X051705Y022000D03*
X051645Y021550D03*
X052320Y020785D03*
X056460Y020605D03*
X056460Y021055D03*
X056910Y020965D03*
X057690Y020920D03*
X057420Y021640D03*
X058007Y021983D03*
X058680Y021160D03*
X058170Y019960D03*
X057660Y019960D03*
X057660Y019135D03*
X058170Y018880D03*
X058170Y018370D03*
X057675Y018370D03*
X057135Y017980D03*
X057645Y017605D03*
X057135Y017095D03*
X056040Y017230D03*
X056145Y016345D03*
X055770Y016345D03*
X054855Y016945D03*
X054825Y017395D03*
X054300Y016690D03*
X054525Y016180D03*
X054510Y015670D03*
X054855Y015490D03*
X054450Y015265D03*
X054240Y014485D03*
X055005Y014335D03*
X054585Y013540D03*
X056940Y013645D03*
X056910Y014215D03*
X058680Y015265D03*
X059505Y014440D03*
X061740Y015265D03*
X062250Y015055D03*
X062355Y015520D03*
X062475Y016360D03*
X062010Y016600D03*
X062475Y016900D03*
X062415Y017350D03*
X060735Y017095D03*
X060000Y016855D03*
X060345Y016345D03*
X059145Y016345D03*
X058680Y017095D03*
X058830Y017860D03*
X059205Y018775D03*
X060720Y020140D03*
X060840Y020770D03*
X061500Y020830D03*
X062010Y020620D03*
X062265Y019315D03*
X064065Y019270D03*
X064065Y018625D03*
X064320Y019885D03*
X064065Y020950D03*
X066435Y020365D03*
X066435Y021640D03*
X067690Y020110D03*
X068850Y019270D03*
X067975Y018610D03*
X069330Y017995D03*
X070065Y018295D03*
X069585Y017110D03*
X067975Y016825D03*
X066690Y013975D03*
X066165Y013105D03*
X066165Y012115D03*
X066165Y011110D03*
X066465Y010235D03*
X066165Y009115D03*
X063750Y010615D03*
X063750Y011605D03*
X061575Y011755D03*
X061500Y013090D03*
X056655Y008860D03*
X056175Y008740D03*
X057990Y007405D03*
X058365Y007405D03*
X054030Y006295D03*
X051435Y005185D03*
X050040Y008755D03*
X048255Y011410D03*
X047685Y011755D03*
X049860Y011620D03*
X052425Y014755D03*
X052680Y015310D03*
X052680Y016585D03*
X053145Y016690D03*
X056760Y019465D03*
X056565Y021670D03*
X056760Y022705D03*
X057154Y022704D03*
X058007Y023229D03*
X058710Y024310D03*
X059220Y024160D03*
X060000Y023485D03*
X060566Y022508D03*
X060090Y022135D03*
X061681Y022704D03*
X062785Y023605D03*
X058095Y024565D03*
X057090Y025615D03*
X056685Y025180D03*
X056310Y024925D03*
X056310Y024055D03*
X053475Y024625D03*
X052830Y024745D03*
X052455Y024490D03*
X051930Y024745D03*
X053205Y025465D03*
X055920Y026335D03*
X055500Y027235D03*
X055050Y027325D03*
X054105Y027325D03*
X053730Y027415D03*
X053430Y027745D03*
X053355Y028300D03*
X052650Y028675D03*
X052365Y028330D03*
X052395Y027805D03*
X052311Y027325D03*
X051465Y027325D03*
X050430Y027325D03*
X049770Y027325D03*
X048330Y027535D03*
X047820Y027025D03*
X047370Y027535D03*
X047265Y028045D03*
X047925Y028300D03*
X047415Y029050D03*
X046965Y029035D03*
X047670Y029560D03*
X048689Y029660D03*
X049305Y029800D03*
X049542Y029266D03*
X048885Y029080D03*
X050340Y028465D03*
X051996Y029161D03*
X051630Y029800D03*
X051973Y030310D03*
X051943Y030835D03*
X051375Y031090D03*
X050841Y030349D03*
X048720Y030640D03*
X048570Y031300D03*
X049149Y031891D03*
X049138Y032650D03*
X049616Y033050D03*
X051120Y033550D03*
X051630Y033550D03*
X052800Y033955D03*
X053135Y033680D03*
X053414Y033925D03*
X054894Y034170D03*
X055065Y033295D03*
X055065Y032740D03*
X053414Y031825D03*
X051380Y032481D03*
X051885Y034520D03*
X050510Y035110D03*
X049980Y034585D03*
X047865Y033775D03*
X047685Y033400D03*
X047970Y033130D03*
X046850Y033665D03*
X046625Y034525D03*
X045405Y034855D03*
X046890Y035620D03*
X047385Y035830D03*
X045420Y036340D03*
X046905Y038185D03*
X047190Y038830D03*
X050460Y041380D03*
X052035Y039340D03*
X053895Y038935D03*
X052380Y037735D03*
X052395Y037360D03*
X052395Y036865D03*
X051780Y037285D03*
X055890Y037360D03*
X055890Y036865D03*
X057360Y037765D03*
X057600Y041575D03*
X054105Y041575D03*
X046755Y042355D03*
X043800Y042355D03*
X042465Y042010D03*
X042465Y041380D03*
X039465Y039355D03*
X039210Y039730D03*
X037425Y038845D03*
X037425Y037990D03*
X038730Y037480D03*
X038685Y036120D03*
X038955Y035740D03*
X039840Y035890D03*
X037395Y034855D03*
X036660Y034855D03*
X036570Y035305D03*
X036405Y033940D03*
X036915Y031645D03*
X036915Y031195D03*
X036915Y030070D03*
X036915Y029575D03*
X035310Y028945D03*
X034860Y029755D03*
X034215Y029455D03*
X032700Y028705D03*
X032445Y028330D03*
X032985Y028240D03*
X032635Y029360D03*
X031560Y029545D03*
X031560Y029950D03*
X032145Y030496D03*
X034245Y031090D03*
X038355Y031225D03*
X038805Y031180D03*
X039720Y030085D03*
X041015Y031990D03*
X040245Y032740D03*
X040095Y033115D03*
X042180Y034240D03*
X042940Y033385D03*
X043860Y032995D03*
X043245Y032740D03*
X042630Y032725D03*
X043440Y031225D03*
X043860Y029740D03*
X044235Y029395D03*
X045345Y029395D03*
X046020Y029035D03*
X045450Y030460D03*
X045885Y030655D03*
X045360Y032200D03*
X045300Y032725D03*
X042780Y027940D03*
X042690Y027295D03*
X041930Y028020D03*
X044085Y027535D03*
X045300Y026590D03*
X044520Y025420D03*
X043575Y024925D03*
X043830Y024370D03*
X042660Y024370D03*
X042660Y025165D03*
X042210Y025300D03*
X040380Y025090D03*
X037830Y025960D03*
X038025Y026680D03*
X036915Y027220D03*
X036915Y028060D03*
X038955Y027250D03*
X034695Y026470D03*
X034605Y027670D03*
X032955Y027205D03*
X031275Y027190D03*
X029325Y028495D03*
X029835Y029005D03*
X029115Y030325D03*
X029625Y030580D03*
X029625Y031345D03*
X027330Y030355D03*
X027315Y029455D03*
X026070Y028195D03*
X026040Y027355D03*
X025650Y024685D03*
X029355Y023485D03*
X031935Y022975D03*
X034950Y022480D03*
X036465Y022480D03*
X037395Y022195D03*
X037005Y021580D03*
X037395Y019720D03*
X037395Y019000D03*
X036435Y019600D03*
X036105Y018355D03*
X035850Y016945D03*
X036480Y016255D03*
X036225Y015910D03*
X035850Y015400D03*
X034620Y015940D03*
X033945Y014800D03*
X034605Y013705D03*
X033465Y013330D03*
X033210Y012670D03*
X032700Y012670D03*
X031935Y012670D03*
X032190Y012055D03*
X034095Y012820D03*
X037230Y011900D03*
X038400Y009970D03*
X039090Y009745D03*
X042225Y013870D03*
X038265Y014545D03*
X038265Y015040D03*
X038700Y016195D03*
X038505Y016750D03*
X039495Y017260D03*
X039510Y017965D03*
X039510Y018415D03*
X041115Y019825D03*
X039780Y020170D03*
X042375Y019450D03*
X043080Y020725D03*
X045240Y019885D03*
X045630Y020275D03*
X045945Y019960D03*
X046605Y019960D03*
X045645Y020935D03*
X043995Y022570D03*
X043080Y022480D03*
X042315Y022885D03*
X039810Y022480D03*
X037755Y023740D03*
X033945Y024970D03*
X031425Y025195D03*
X027210Y021700D03*
X024570Y021745D03*
X023220Y021220D03*
X021975Y021730D03*
X021765Y021190D03*
X019860Y021595D03*
X019860Y022105D03*
X019860Y022600D03*
X019350Y022975D03*
X019860Y026170D03*
X020205Y027955D03*
X019350Y028840D03*
X021615Y030835D03*
X022505Y031735D03*
X022875Y031315D03*
X024225Y031690D03*
X026040Y031855D03*
X024720Y030459D03*
X023760Y033070D03*
X022140Y033565D03*
X021360Y034540D03*
X022395Y034855D03*
X020685Y035515D03*
X020100Y035845D03*
X020475Y036100D03*
X020385Y036850D03*
X019785Y036610D03*
X019335Y036610D03*
X018165Y036070D03*
X018015Y035170D03*
X018720Y035185D03*
X019860Y034915D03*
X020175Y034540D03*
X018765Y034090D03*
X018315Y034090D03*
X017430Y034100D03*
X016980Y034090D03*
X017410Y033500D03*
X015861Y034090D03*
X017250Y035170D03*
X015510Y035635D03*
X017250Y038455D03*
X016905Y039700D03*
X017250Y040585D03*
X016380Y040585D03*
X015315Y039700D03*
X015060Y041200D03*
X015645Y041650D03*
X016305Y041650D03*
X017160Y041650D03*
X017820Y041200D03*
X018600Y041350D03*
X019380Y041215D03*
X019845Y042175D03*
X019866Y042625D03*
X021276Y041215D03*
X023700Y040630D03*
X024075Y040885D03*
X024210Y041290D03*
X024975Y041965D03*
X023760Y042100D03*
X023760Y042610D03*
X027240Y041455D03*
X027515Y041110D03*
X028965Y041350D03*
X029610Y041860D03*
X029835Y042190D03*
X029220Y042475D03*
X029640Y040840D03*
X031260Y042295D03*
X034635Y041605D03*
X036450Y042610D03*
X036885Y041830D03*
X036510Y040120D03*
X037140Y040000D03*
X035010Y039115D03*
X034560Y038995D03*
X033990Y038485D03*
X033720Y038230D03*
X033465Y037510D03*
X034515Y036850D03*
X034965Y036865D03*
X034860Y036415D03*
X036465Y036760D03*
X042465Y037360D03*
X029895Y034855D03*
X029910Y032800D03*
X025230Y034285D03*
X027465Y037360D03*
X025350Y037900D03*
X024720Y039610D03*
X020745Y039205D03*
X020280Y039205D03*
X017670Y042730D03*
X016440Y042730D03*
X015450Y042730D03*
X016260Y032065D03*
X019275Y032065D03*
X021975Y018235D03*
X021975Y017230D03*
X021975Y016735D03*
X021975Y016225D03*
X023220Y016030D03*
X023235Y016540D03*
X021690Y015400D03*
X023235Y015235D03*
X021975Y014230D03*
X021975Y013735D03*
X021990Y012505D03*
X021990Y011290D03*
X021990Y010780D03*
X021975Y009475D03*
X019860Y014095D03*
X033720Y018355D03*
X033930Y017740D03*
X037065Y016450D03*
X048030Y020155D03*
X046725Y026320D03*
X047310Y026335D03*
X053355Y029410D03*
X054090Y027925D03*
X055380Y028900D03*
X057525Y029995D03*
X058185Y031345D03*
X058555Y032075D03*
X059250Y033100D03*
X063240Y032500D03*
X064065Y031135D03*
X064065Y030625D03*
X064065Y029770D03*
X065370Y030100D03*
X067110Y030475D03*
X065415Y028525D03*
X067200Y028105D03*
X063990Y027340D03*
X064065Y026890D03*
X061616Y027101D03*
X061350Y027910D03*
X060140Y028025D03*
X060090Y027265D03*
X058532Y026773D03*
X057135Y027505D03*
X059370Y029155D03*
X059790Y029410D03*
X059250Y029710D03*
X061380Y028765D03*
X061845Y028765D03*
X062520Y029170D03*
X062355Y029770D03*
X070370Y030485D03*
X071055Y031690D03*
X067830Y038875D03*
D22*
X052800Y033955D02*
X052650Y034015D01*
X051810Y034015D01*
X051585Y034240D01*
X050325Y034240D01*
X049980Y034585D01*
D23*
X049095Y033895D02*
X046215Y031015D01*
X045495Y031015D01*
X041985Y027505D01*
X041985Y027430D01*
X041616Y027061D01*
X041211Y027061D01*
X040875Y026725D01*
X040603Y026614D01*
X040460Y026220D02*
X041765Y026220D01*
X042435Y026890D01*
X042435Y027400D01*
X042720Y027685D01*
X042885Y027685D01*
X044595Y029395D01*
X045345Y029395D01*
X046020Y029035D02*
X046275Y028780D01*
X047505Y028780D01*
X048105Y029380D01*
X048980Y029380D01*
X049376Y028984D01*
X050559Y028984D01*
X050991Y029416D01*
X052269Y029416D01*
X053355Y028330D01*
X053355Y028300D01*
X053325Y028000D02*
X053655Y028000D01*
X054075Y027580D01*
X055155Y027580D01*
X055500Y027235D01*
X055575Y027520D02*
X058530Y024565D01*
X059445Y024565D01*
X062520Y021490D01*
X062520Y017815D01*
X057675Y012970D01*
X057675Y010600D01*
X055515Y008440D01*
X055515Y007945D01*
X055095Y007525D01*
X051675Y007525D01*
X051390Y007240D01*
X051100Y007110D01*
X049920Y007705D02*
X052425Y007705D01*
X052575Y007855D01*
X053100Y008110D02*
X052965Y008395D01*
X052965Y008890D01*
X051405Y010450D01*
X051990Y010225D02*
X050595Y011620D01*
X049860Y011620D01*
X050100Y012110D02*
X050385Y012235D01*
X050670Y012520D01*
X054105Y012520D01*
X054510Y012925D01*
X054510Y013105D01*
X054930Y013525D01*
X054975Y013525D01*
X056250Y014800D01*
X056745Y014800D01*
X059085Y017140D01*
X059085Y018535D01*
X057660Y019960D01*
X057690Y020800D02*
X058905Y019585D01*
X058905Y019300D01*
X059175Y019030D01*
X059310Y019030D01*
X059460Y018880D01*
X059460Y017305D01*
X056805Y014650D01*
X056775Y014650D01*
X055695Y013570D01*
X055695Y012685D01*
X055980Y012400D01*
X056100Y012110D01*
X056498Y011943D02*
X056235Y011681D01*
X051511Y011681D01*
X051117Y012075D01*
X051100Y012110D01*
X051100Y013110D02*
X051390Y013240D01*
X051945Y013795D01*
X055035Y013795D01*
X058335Y017095D01*
X058680Y017095D01*
X058425Y017395D02*
X058425Y018475D01*
X058275Y018625D01*
X058065Y018625D01*
X057660Y019030D01*
X057660Y019135D01*
X057405Y019180D02*
X057405Y018640D01*
X057675Y018370D01*
X057390Y018085D02*
X057390Y016720D01*
X055005Y014335D01*
X055110Y014080D02*
X058425Y017395D01*
X057390Y018085D02*
X057240Y018235D01*
X057150Y018235D01*
X054615Y020770D01*
X054465Y020770D01*
X053700Y020815D02*
X054975Y019540D01*
X054975Y019015D01*
X055365Y018625D01*
X055470Y018370D02*
X055620Y018520D01*
X055620Y019315D01*
X055335Y019600D01*
X055275Y019600D01*
X053460Y021415D01*
X053460Y021895D01*
X053715Y021520D02*
X054075Y021520D01*
X056130Y019465D01*
X056760Y019465D01*
X057405Y019180D02*
X055395Y021190D01*
X055230Y021190D01*
X053700Y020815D02*
X053460Y020815D01*
X053205Y021100D02*
X051705Y019600D01*
X051705Y017305D01*
X050700Y016270D01*
X050445Y016405D02*
X050445Y016129D01*
X050415Y016114D01*
X050280Y016045D01*
X050445Y016129D02*
X052494Y014080D01*
X055110Y014080D01*
X056220Y013885D02*
X056220Y013405D01*
X056100Y013110D01*
X056498Y013584D02*
X056498Y011943D01*
X056498Y013584D02*
X056826Y013912D01*
X058269Y013912D01*
X061944Y017586D01*
X061944Y019358D01*
X062272Y019686D01*
X062272Y021392D01*
X061156Y022508D01*
X060566Y022508D01*
X060090Y022135D02*
X056790Y025435D01*
X055455Y025435D01*
X054390Y024370D01*
X053490Y024370D01*
X051705Y022585D01*
X051705Y022000D01*
X051645Y021550D02*
X051795Y021550D01*
X053355Y023110D01*
X057285Y023110D01*
X058905Y021490D01*
X058905Y021295D01*
X059325Y020875D01*
X059745Y020875D01*
X060030Y020590D01*
X060320Y020470D01*
X061500Y020830D02*
X061500Y020875D01*
X060495Y021880D01*
X058905Y021880D01*
X055935Y024850D01*
X055230Y024850D01*
X056115Y026590D02*
X057090Y025615D01*
X057880Y026150D02*
X057876Y026182D01*
X057482Y026576D01*
X057482Y027560D01*
X057285Y027757D01*
X057088Y027757D01*
X052626Y032219D01*
X050067Y032219D01*
X049739Y031891D01*
X049149Y031891D01*
X050130Y032050D02*
X048720Y030640D01*
X048525Y030055D02*
X047520Y029050D01*
X047415Y029050D01*
X047925Y028300D02*
X047415Y027790D01*
X046650Y027790D01*
X045450Y026590D01*
X045300Y026590D01*
X045195Y026335D02*
X044340Y027190D01*
X044340Y027640D01*
X044190Y027790D01*
X043545Y027790D01*
X041826Y026071D01*
X040506Y026071D01*
X039315Y024880D01*
X039315Y018580D01*
X039240Y018505D01*
X039240Y015415D01*
X040650Y014005D01*
X040770Y014005D01*
X041205Y013570D01*
X041205Y013450D01*
X041589Y013066D01*
X041724Y013066D01*
X046695Y008095D01*
X046695Y007930D01*
X047100Y007525D01*
X048525Y007525D01*
X048810Y007240D01*
X049100Y007110D01*
X049095Y007525D02*
X049275Y007525D01*
X049695Y007105D01*
X049695Y006925D01*
X051435Y005185D01*
X049920Y007705D02*
X049695Y007930D01*
X049695Y008095D01*
X046695Y011095D01*
X046695Y012100D01*
X046275Y012520D01*
X046095Y012520D01*
X045690Y012925D01*
X045690Y013105D01*
X043740Y015055D01*
X043740Y017005D01*
X043995Y015910D02*
X043980Y015895D01*
X043980Y015265D01*
X045255Y013990D01*
X045900Y013855D02*
X046935Y013855D01*
X047685Y013105D01*
X047685Y012685D01*
X047970Y012400D01*
X048100Y012110D01*
X048100Y013110D02*
X047985Y013405D01*
X047790Y013600D01*
X047790Y019060D01*
X049425Y020695D01*
X049860Y020695D01*
X050205Y021040D01*
X050205Y022165D01*
X049860Y022510D01*
X049905Y022255D02*
X048360Y022255D01*
X047115Y021010D01*
X047115Y020830D01*
X046200Y019915D01*
X046200Y019855D01*
X044445Y018100D01*
X045255Y018190D02*
X048030Y020965D01*
X047145Y021430D02*
X046905Y021190D01*
X046710Y021190D01*
X046050Y020530D01*
X045525Y020530D01*
X043995Y019000D01*
X043995Y015910D01*
X044235Y015790D02*
X044385Y015790D01*
X047115Y018520D01*
X047115Y018670D01*
X049800Y021355D01*
X049800Y022000D01*
X049905Y022255D02*
X050055Y022105D01*
X050055Y021400D01*
X049755Y021100D01*
X049755Y020950D01*
X049545Y021310D02*
X046860Y018625D01*
X047940Y018010D02*
X047940Y015070D01*
X049275Y013735D01*
X049530Y015115D02*
X049530Y009265D01*
X050040Y008755D01*
X048690Y008110D02*
X048690Y007930D01*
X049095Y007525D01*
X048690Y008110D02*
X048285Y008515D01*
X048105Y008515D01*
X044685Y011935D01*
X044685Y012310D01*
X043035Y013960D01*
X043035Y019510D01*
X045735Y022210D01*
X046440Y022210D01*
X047370Y023140D01*
X047970Y023140D01*
X048465Y023170D02*
X047145Y021850D01*
X047145Y021430D01*
X045645Y020935D02*
X045645Y020860D01*
X043185Y018400D01*
X043185Y014395D01*
X045060Y012520D01*
X045525Y012520D01*
X045810Y012235D01*
X046100Y012110D01*
X045900Y013855D02*
X044595Y015160D01*
X042525Y013735D02*
X045900Y010360D01*
X042525Y013735D02*
X042525Y017860D01*
X042630Y017965D01*
X042630Y020635D01*
X046755Y024760D01*
X048030Y024760D01*
X048330Y025210D02*
X048075Y025465D01*
X045645Y025465D01*
X044805Y024625D01*
X041865Y024625D01*
X041603Y024614D01*
X041616Y025066D02*
X041496Y025066D01*
X041061Y024631D01*
X041061Y020506D01*
X040560Y020005D01*
X040440Y020005D01*
X039765Y019330D01*
X039765Y017530D01*
X039495Y017260D01*
X039180Y018955D02*
X039180Y024940D01*
X040460Y026220D01*
X041616Y025066D02*
X044085Y027535D01*
X043440Y028045D02*
X042690Y027295D01*
X043440Y028045D02*
X047265Y028045D01*
X047370Y027535D02*
X047565Y027535D01*
X048240Y028210D01*
X051045Y028210D01*
X051996Y029161D01*
X051870Y028330D02*
X052365Y028330D01*
X051870Y028330D02*
X049005Y025465D01*
X048960Y025465D01*
X049095Y025975D02*
X048405Y025975D01*
X048045Y026335D01*
X047310Y026335D01*
X047820Y027025D02*
X048330Y027535D01*
X048555Y026590D02*
X045660Y026590D01*
X045405Y026335D01*
X045195Y026335D01*
X048330Y025210D02*
X049710Y025210D01*
X051825Y027325D01*
X052311Y027325D01*
X053175Y027850D02*
X053325Y028000D01*
X053175Y027850D02*
X053175Y026650D01*
X051930Y025405D01*
X051930Y024745D01*
X052275Y026245D02*
X049455Y023425D01*
X045780Y023425D01*
X043080Y020725D01*
X039180Y018955D02*
X036480Y016255D01*
X033720Y018355D02*
X033720Y018910D01*
X034695Y019885D01*
X034695Y022585D01*
X037815Y025705D01*
X037935Y025705D01*
X040445Y028215D01*
X040760Y028215D01*
X041210Y028665D01*
X041210Y028780D01*
X041444Y029014D01*
X042174Y029014D01*
X045360Y032200D01*
X045300Y032725D02*
X041724Y029149D01*
X040494Y029149D01*
X038025Y026680D01*
X037830Y026515D02*
X037770Y026575D01*
X037770Y032665D01*
X042465Y037360D01*
X045420Y036340D02*
X046605Y036340D01*
X047115Y035830D01*
X047385Y035830D01*
X047345Y033775D02*
X041570Y028020D01*
X041537Y028023D01*
X041537Y028019D01*
X040487Y028019D01*
X040444Y028019D01*
X040425Y028000D01*
X034950Y022525D01*
X034950Y022480D01*
X037830Y025960D02*
X037830Y026515D01*
X036915Y027220D02*
X036915Y027700D01*
X037635Y028420D01*
X037635Y034735D01*
X038430Y035530D01*
X038430Y037180D01*
X038730Y037480D01*
X036465Y036760D02*
X035430Y036760D01*
X035070Y037120D01*
X034785Y037120D01*
X034515Y036850D01*
X029640Y040840D02*
X029505Y040900D01*
X029055Y040900D01*
X028500Y041455D01*
X027240Y041455D01*
X029175Y042220D02*
X029475Y041920D01*
X029610Y041860D01*
X029175Y042220D02*
X024870Y042220D01*
X024750Y042100D01*
X023760Y042100D01*
X017655Y035170D02*
X017910Y034915D01*
X019860Y034915D01*
X020175Y034540D02*
X017485Y034540D01*
X017055Y034110D01*
X016980Y034090D01*
X017250Y035170D02*
X017655Y035170D01*
X047345Y033775D02*
X047865Y033775D01*
X049095Y033895D02*
X051645Y033895D01*
X051860Y033680D01*
X053135Y033680D01*
X054135Y032481D02*
X051380Y032481D01*
X052590Y032050D02*
X050130Y032050D01*
X052590Y032050D02*
X057135Y027505D01*
X056115Y026590D02*
X054195Y026590D01*
X053430Y027355D01*
X053430Y027745D01*
X054090Y027925D02*
X051960Y030055D01*
X048525Y030055D01*
X048689Y029660D02*
X048886Y029660D01*
X049280Y029266D01*
X049542Y029266D01*
X051973Y030310D02*
X052815Y030310D01*
X055575Y027550D01*
X055575Y027520D01*
X058532Y028085D02*
X058532Y026773D01*
X058532Y028085D02*
X054135Y032481D01*
X050430Y027325D02*
X049260Y026155D01*
X049260Y026140D01*
X049095Y025975D01*
X049005Y026245D02*
X048900Y026245D01*
X048555Y026590D01*
X052275Y026245D02*
X052410Y026245D01*
X049545Y023170D02*
X048465Y023170D01*
X049545Y021625D02*
X049545Y021310D01*
X049635Y020440D02*
X049635Y020200D01*
X048450Y019015D01*
X048450Y018520D01*
X047940Y018010D01*
X048480Y017560D02*
X048480Y016930D01*
X048465Y016915D01*
X048465Y016180D01*
X049530Y015115D01*
X050940Y014905D02*
X049275Y016570D01*
X049275Y019630D01*
X050085Y020440D01*
X050198Y019686D02*
X052954Y022442D01*
X052954Y022508D01*
X053414Y022967D01*
X056891Y022967D01*
X057154Y022704D01*
X057690Y020920D02*
X057690Y020800D01*
X054705Y019090D02*
X054555Y019240D01*
X053910Y019240D01*
X053670Y019000D01*
X053670Y018385D01*
X052935Y017650D01*
X052935Y017200D01*
X052425Y016690D01*
X052425Y015565D01*
X052680Y015310D01*
X053655Y016690D02*
X054165Y016180D01*
X054525Y016180D01*
X054675Y015670D02*
X055095Y016090D01*
X055890Y016090D01*
X056145Y016345D01*
X056985Y016945D02*
X057135Y017095D01*
X056985Y016945D02*
X054855Y016945D01*
X055095Y017980D02*
X057135Y017980D01*
X055470Y018370D02*
X055260Y018370D01*
X054705Y018925D01*
X054705Y019090D01*
X054105Y018970D02*
X055095Y017980D01*
X053655Y016690D02*
X053145Y016690D01*
X052680Y017425D02*
X052425Y017680D01*
X052425Y018895D01*
X053715Y020185D01*
X053715Y020440D01*
X053205Y021100D02*
X053205Y022390D01*
X052950Y021775D02*
X052950Y021055D01*
X051555Y019660D01*
X051555Y018700D01*
X049530Y016675D01*
X050445Y016405D02*
X051175Y017135D01*
X051175Y017905D01*
X052146Y017905D02*
X052146Y017251D01*
X051225Y016330D01*
X054510Y015670D02*
X054675Y015670D01*
X056220Y013885D02*
X056835Y014500D01*
X056940Y014500D01*
X061755Y019315D01*
X061755Y021385D01*
X061605Y021535D01*
X061125Y021535D01*
X058095Y024565D01*
X054360Y019795D02*
X054240Y019795D01*
X053415Y018970D01*
X054000Y018970D02*
X054105Y018970D01*
X050198Y019030D02*
X050198Y019686D01*
X051990Y010225D02*
X053055Y010225D01*
X054930Y008350D01*
X055100Y008110D01*
X042210Y006355D02*
X041730Y005875D01*
X041603Y005614D01*
M02*
