G75*
%MOIN*%
%OFA0B0*%
%FSLAX24Y24*%
%IPPOS*%
%LPD*%
%AMOC8*
5,1,8,0,0,1.08239X$1,22.5*
%
%ADD10C,0.0150*%
%ADD11C,0.0080*%
D10*
X001822Y028375D02*
X002497Y028825D01*
X001822Y029276D01*
X002497Y029726D02*
X002497Y028375D01*
X002968Y028375D02*
X003418Y028375D01*
X003193Y028375D02*
X003193Y029726D01*
X003418Y029726D01*
X004114Y029726D02*
X004114Y029951D01*
X004114Y029276D02*
X004114Y028375D01*
X004339Y028375D02*
X003889Y028375D01*
X004114Y029276D02*
X004339Y029276D01*
X004819Y029501D02*
X005045Y029726D01*
X005495Y029726D01*
X005720Y029501D01*
X005720Y029276D01*
X005495Y029051D01*
X005045Y029051D01*
X004819Y028825D01*
X004819Y028600D01*
X005045Y028375D01*
X005495Y028375D01*
X005720Y028600D01*
X007567Y028600D02*
X007567Y028375D01*
X007792Y028375D01*
X007792Y028600D01*
X007567Y028600D01*
X008262Y028375D02*
X008487Y028600D01*
X008487Y029501D01*
X008713Y029276D02*
X008262Y029276D01*
X009193Y029051D02*
X009418Y029276D01*
X009869Y029276D01*
X010094Y029051D01*
X010094Y028600D01*
X009869Y028375D01*
X009418Y028375D01*
X009193Y028600D01*
X009193Y029051D01*
X010574Y029276D02*
X010799Y029051D01*
X011475Y029051D01*
X011475Y029726D02*
X011475Y028375D01*
X010799Y028375D01*
X010574Y028600D01*
X010574Y028825D01*
X010799Y029051D01*
X010574Y029276D02*
X010574Y029501D01*
X010799Y029726D01*
X011475Y029726D01*
D11*
X045089Y022120D02*
X045089Y021700D01*
X045019Y021910D02*
X045299Y021910D01*
X045089Y022120D01*
X045479Y022050D02*
X045759Y021770D01*
X045689Y021700D01*
X045549Y021700D01*
X045479Y021770D01*
X045479Y022050D01*
X045549Y022120D01*
X045689Y022120D01*
X045759Y022050D01*
X045759Y021770D01*
X045939Y021700D02*
X046220Y021700D01*
X046079Y021700D02*
X046079Y022120D01*
X046220Y021980D01*
X046400Y022050D02*
X046470Y022120D01*
X046610Y022120D01*
X046680Y022050D01*
X046680Y021770D01*
X046610Y021700D01*
X046470Y021700D01*
X046400Y021770D01*
X046490Y023830D02*
X046420Y023900D01*
X046490Y023830D02*
X046630Y023830D01*
X046700Y023900D01*
X046700Y024180D01*
X046630Y024250D01*
X046490Y024250D01*
X046420Y024180D01*
X046240Y024110D02*
X046099Y024250D01*
X046099Y023830D01*
X045959Y023830D02*
X046240Y023830D01*
X045779Y023900D02*
X045499Y024180D01*
X045499Y023900D01*
X045569Y023830D01*
X045709Y023830D01*
X045779Y023900D01*
X045779Y024180D01*
X045709Y024250D01*
X045569Y024250D01*
X045499Y024180D01*
X045319Y024180D02*
X045249Y024250D01*
X045109Y024250D01*
X045039Y024180D01*
X045039Y024110D01*
X045109Y024040D01*
X045039Y023970D01*
X045039Y023900D01*
X045109Y023830D01*
X045249Y023830D01*
X045319Y023900D01*
X045179Y024040D02*
X045109Y024040D01*
X050120Y027660D02*
X050120Y027800D01*
X050190Y027870D01*
X050120Y028050D02*
X050120Y028331D01*
X050120Y028191D02*
X050540Y028191D01*
X050400Y028050D01*
X050470Y027870D02*
X050540Y027800D01*
X050540Y027660D01*
X050470Y027590D01*
X050190Y027590D01*
X050120Y027660D01*
X050190Y028511D02*
X050470Y028791D01*
X050190Y028791D01*
X050120Y028721D01*
X050120Y028581D01*
X050190Y028511D01*
X050470Y028511D01*
X050540Y028581D01*
X050540Y028721D01*
X050470Y028791D01*
X050540Y028971D02*
X050330Y028971D01*
X050400Y029111D01*
X050400Y029181D01*
X050330Y029251D01*
X050190Y029251D01*
X050120Y029181D01*
X050120Y029041D01*
X050190Y028971D01*
X050540Y028971D02*
X050540Y029251D01*
X052200Y028941D02*
X052270Y028941D01*
X052550Y029221D01*
X052620Y029221D01*
X052620Y028941D01*
X052550Y028761D02*
X052270Y028481D01*
X052200Y028551D01*
X052200Y028691D01*
X052270Y028761D01*
X052550Y028761D01*
X052620Y028691D01*
X052620Y028551D01*
X052550Y028481D01*
X052270Y028481D01*
X052200Y028301D02*
X052200Y028020D01*
X052200Y028161D02*
X052620Y028161D01*
X052480Y028020D01*
X052550Y027840D02*
X052620Y027770D01*
X052620Y027630D01*
X052550Y027560D01*
X052270Y027560D01*
X052200Y027630D01*
X052200Y027770D01*
X052270Y027840D01*
X056380Y024200D02*
X056520Y024130D01*
X056660Y023990D01*
X056450Y023990D01*
X056380Y023920D01*
X056380Y023850D01*
X056450Y023780D01*
X056590Y023780D01*
X056660Y023850D01*
X056660Y023990D01*
X056841Y024130D02*
X056841Y023850D01*
X056911Y023780D01*
X057051Y023780D01*
X057121Y023850D01*
X056841Y024130D01*
X056911Y024200D01*
X057051Y024200D01*
X057121Y024130D01*
X057121Y023850D01*
X057301Y023780D02*
X057581Y023780D01*
X057441Y023780D02*
X057441Y024200D01*
X057581Y024060D01*
X057761Y024130D02*
X057831Y024200D01*
X057972Y024200D01*
X058042Y024130D01*
X058042Y023850D01*
X057972Y023780D01*
X057831Y023780D01*
X057761Y023850D01*
X057761Y021820D02*
X057902Y021820D01*
X057972Y021750D01*
X057972Y021470D01*
X057902Y021400D01*
X057761Y021400D01*
X057691Y021470D01*
X057511Y021400D02*
X057231Y021400D01*
X057371Y021400D02*
X057371Y021820D01*
X057511Y021680D01*
X057691Y021750D02*
X057761Y021820D01*
X057051Y021750D02*
X057051Y021470D01*
X056771Y021750D01*
X056771Y021470D01*
X056841Y021400D01*
X056981Y021400D01*
X057051Y021470D01*
X057051Y021750D02*
X056981Y021820D01*
X056841Y021820D01*
X056771Y021750D01*
X056590Y021750D02*
X056520Y021820D01*
X056380Y021820D01*
X056310Y021750D01*
X056310Y021680D01*
X056590Y021400D01*
X056310Y021400D01*
X052450Y018161D02*
X052380Y018231D01*
X052100Y017951D01*
X052030Y018021D01*
X052030Y018161D01*
X052100Y018231D01*
X052380Y018231D01*
X052450Y018161D02*
X052450Y018021D01*
X052380Y017951D01*
X052100Y017951D01*
X052100Y017771D02*
X052030Y017701D01*
X052030Y017561D01*
X052100Y017491D01*
X052380Y017771D01*
X052100Y017771D01*
X052100Y017491D02*
X052380Y017491D01*
X052450Y017561D01*
X052450Y017701D01*
X052380Y017771D01*
X052030Y017311D02*
X052030Y017030D01*
X052030Y017171D02*
X052450Y017171D01*
X052310Y017030D01*
X052380Y016850D02*
X052450Y016780D01*
X052450Y016640D01*
X052380Y016570D01*
X052100Y016570D01*
X052030Y016640D01*
X052030Y016780D01*
X052100Y016850D01*
X050380Y016790D02*
X050380Y016650D01*
X050310Y016580D01*
X050030Y016580D01*
X049960Y016650D01*
X049960Y016790D01*
X050030Y016860D01*
X049960Y017040D02*
X049960Y017321D01*
X049960Y017181D02*
X050380Y017181D01*
X050240Y017040D01*
X050310Y016860D02*
X050380Y016790D01*
X050310Y017501D02*
X050380Y017571D01*
X050380Y017711D01*
X050310Y017781D01*
X050030Y017501D01*
X049960Y017571D01*
X049960Y017711D01*
X050030Y017781D01*
X050310Y017781D01*
X050240Y017961D02*
X050380Y018101D01*
X049960Y018101D01*
X049960Y017961D02*
X049960Y018241D01*
X050030Y017501D02*
X050310Y017501D01*
M02*
