G75*
%MOIN*%
%OFA0B0*%
%FSLAX24Y24*%
%IPPOS*%
%LPD*%
%AMOC8*
5,1,8,0,0,1.08239X$1,22.5*
%
%ADD10C,0.0150*%
%ADD11C,0.1500*%
%ADD12R,0.0852X0.0312*%
%ADD13R,0.1008X0.1008*%
%ADD14R,0.0913X0.0283*%
%ADD15R,0.0614X0.0693*%
%ADD16R,0.0693X0.0614*%
%ADD17R,0.0142X0.0654*%
%ADD18R,0.0654X0.0142*%
%ADD19R,0.1276X0.1374*%
%ADD20R,0.0614X0.0929*%
%ADD21R,0.0614X0.0732*%
%ADD22R,0.0732X0.0614*%
%ADD23OC8,0.0720*%
%ADD24OC8,0.0672*%
%ADD25R,0.0756X0.0835*%
%ADD26R,0.0835X0.0756*%
%ADD27R,0.0820X0.0198*%
%ADD28R,0.2635X0.1333*%
%ADD29R,0.2537X0.1285*%
%ADD30C,0.1087*%
%ADD31C,0.0600*%
%ADD32C,0.0665*%
%ADD33OC8,0.0665*%
%ADD34C,0.1417*%
%ADD35C,0.1654*%
%ADD36OC8,0.0789*%
%ADD37C,0.1560*%
%ADD38C,0.0672*%
%ADD39OC8,0.1020*%
%ADD40R,0.0756X0.0913*%
%ADD41C,0.0720*%
%ADD42R,0.0283X0.0913*%
%ADD43C,0.0624*%
%ADD44C,0.2000*%
%ADD45C,0.0050*%
%ADD46R,0.0300X0.0550*%
%ADD47C,0.0712*%
%ADD48C,0.0480*%
%ADD49R,0.0480X0.0480*%
D10*
X003437Y041235D02*
X003437Y042586D01*
X004113Y042586D01*
X004338Y042361D01*
X004338Y041910D01*
X004113Y041685D01*
X003437Y041685D01*
X002957Y041910D02*
X002957Y042361D01*
X002732Y042586D01*
X002281Y042586D01*
X002056Y042361D01*
X002056Y041910D01*
X002281Y041685D01*
X002732Y041685D01*
X002957Y041910D01*
X001125Y041685D02*
X001125Y043036D01*
X000675Y043036D02*
X001576Y043036D01*
X006200Y043036D02*
X006200Y041685D01*
X007100Y041685D02*
X007100Y043036D01*
X006650Y042586D01*
X006200Y043036D01*
X007806Y042586D02*
X008256Y042586D01*
X008482Y042361D01*
X008482Y041685D01*
X007806Y041685D01*
X007581Y041910D01*
X007806Y042135D01*
X008482Y042135D01*
X008962Y042361D02*
X009187Y042586D01*
X009863Y042586D01*
X009638Y042135D02*
X009187Y042135D01*
X008962Y042361D01*
X008962Y041685D02*
X009638Y041685D01*
X009863Y041910D01*
X009638Y042135D01*
X010343Y042135D02*
X011019Y042586D01*
X010343Y043036D02*
X010343Y041685D01*
X010343Y042135D02*
X011019Y041685D01*
D11*
X014600Y044610D03*
X043600Y044610D03*
X066600Y044610D03*
X068100Y004610D03*
X032100Y004610D03*
D12*
X035230Y013700D03*
X035230Y014200D03*
X035230Y014700D03*
X035230Y015200D03*
X035230Y015700D03*
X035230Y016200D03*
X035230Y016700D03*
X035230Y017200D03*
X037650Y017200D03*
X037650Y016700D03*
X037650Y016200D03*
X037650Y015700D03*
X037650Y015200D03*
X037650Y014700D03*
X037650Y014200D03*
X037650Y013700D03*
X037560Y027200D03*
X037560Y027700D03*
X037560Y028200D03*
X037560Y028700D03*
X037560Y029200D03*
X037560Y029700D03*
X037560Y030200D03*
X037560Y030700D03*
X037560Y031200D03*
X037560Y031700D03*
X033600Y031700D03*
X033600Y031200D03*
X033600Y030700D03*
X033600Y030200D03*
X033600Y029700D03*
X033600Y029200D03*
X033600Y028700D03*
X033600Y028200D03*
X033600Y027700D03*
X033600Y027200D03*
X030650Y027350D03*
X030650Y027850D03*
X030650Y028350D03*
X030650Y028850D03*
X030650Y029350D03*
X030650Y029850D03*
X030650Y030350D03*
X030650Y030850D03*
X030650Y031350D03*
X030650Y031850D03*
X026690Y031850D03*
X026690Y031350D03*
X026690Y030850D03*
X026690Y030350D03*
X026690Y029850D03*
X026690Y029350D03*
X026690Y028850D03*
X026690Y028350D03*
X026690Y027850D03*
X026690Y027350D03*
X023270Y027960D03*
X023270Y028460D03*
X023270Y028960D03*
X023270Y029460D03*
X023270Y029960D03*
X023270Y030460D03*
X023270Y030960D03*
X020850Y030960D03*
X020850Y030460D03*
X020850Y029960D03*
X020850Y029460D03*
X020850Y028960D03*
X020850Y028460D03*
X020850Y027960D03*
X044480Y029740D03*
X044480Y030240D03*
X044480Y030740D03*
X044480Y031240D03*
X044480Y031740D03*
X044480Y032240D03*
X044480Y032740D03*
X044480Y033240D03*
X046900Y033240D03*
X046900Y032740D03*
X046900Y032240D03*
X046900Y031740D03*
X046900Y031240D03*
X046900Y030740D03*
X046900Y030240D03*
X046900Y029740D03*
X050200Y029800D03*
X050200Y030300D03*
X050200Y030800D03*
X050200Y031300D03*
X050200Y031800D03*
X050200Y032300D03*
X050200Y032800D03*
X050200Y033300D03*
X052620Y033300D03*
X052620Y032800D03*
X052620Y032300D03*
X052620Y031800D03*
X052620Y031300D03*
X052620Y030800D03*
X052620Y030300D03*
X052620Y029800D03*
X060730Y029770D03*
X060730Y029270D03*
X060730Y028770D03*
X060730Y028270D03*
X060730Y027770D03*
X060730Y027270D03*
X060730Y026770D03*
X060730Y026270D03*
X060730Y025770D03*
X060730Y025270D03*
X064690Y025270D03*
X064690Y025770D03*
X064690Y026270D03*
X064690Y026770D03*
X064690Y027270D03*
X064690Y027770D03*
X064690Y028270D03*
X064690Y028770D03*
X064690Y029270D03*
X064690Y029770D03*
X064690Y030270D03*
X064690Y030770D03*
X060730Y030770D03*
X060730Y030270D03*
X063120Y020860D03*
X063120Y020360D03*
X063120Y019860D03*
X063120Y019360D03*
X063120Y018860D03*
X063120Y018360D03*
X063120Y017860D03*
X063120Y017360D03*
X063120Y016860D03*
X063120Y016360D03*
X067080Y016360D03*
X067080Y016860D03*
X067080Y017360D03*
X067080Y017860D03*
X067080Y018360D03*
X067080Y018860D03*
X067080Y019360D03*
X067080Y019860D03*
X067080Y020360D03*
X067080Y020860D03*
X066810Y013610D03*
X066810Y013110D03*
X066810Y012610D03*
X066810Y012110D03*
X066810Y011610D03*
X066810Y011110D03*
X066810Y010610D03*
X066810Y009610D03*
X066810Y009110D03*
X066810Y008610D03*
X066810Y008110D03*
X066810Y007610D03*
X066810Y007110D03*
X066810Y006610D03*
X064390Y006610D03*
X064390Y007110D03*
X064390Y007610D03*
X064390Y008110D03*
X064390Y008610D03*
X064390Y009110D03*
X064390Y009610D03*
X064390Y010610D03*
X064390Y011110D03*
X064390Y011610D03*
X064390Y012110D03*
X064390Y012610D03*
X064390Y013110D03*
X064390Y013610D03*
D13*
X035940Y010950D03*
X028040Y010950D03*
X028040Y020700D03*
X035940Y020700D03*
D14*
X035620Y034860D03*
X035620Y035360D03*
X035620Y035860D03*
X035620Y036360D03*
X035620Y036860D03*
X035620Y037360D03*
X035620Y037860D03*
X035620Y038360D03*
X035620Y038860D03*
X035620Y039360D03*
X035620Y039860D03*
X035620Y040360D03*
X035620Y040860D03*
X035620Y041360D03*
X035620Y041860D03*
X035620Y042360D03*
X038080Y042360D03*
X038080Y041860D03*
X038080Y041360D03*
X038080Y040860D03*
X038080Y040360D03*
X038080Y039860D03*
X038080Y039360D03*
X038080Y038860D03*
X038080Y038360D03*
X038080Y037860D03*
X038080Y037360D03*
X038080Y036860D03*
X038080Y036360D03*
X038080Y035860D03*
X038080Y035360D03*
X038080Y034860D03*
X043120Y034860D03*
X043120Y035360D03*
X043120Y035860D03*
X043120Y036360D03*
X043120Y036860D03*
X043120Y037360D03*
X043120Y037860D03*
X043120Y038360D03*
X043120Y038860D03*
X043120Y039360D03*
X043120Y039860D03*
X043120Y040360D03*
X043120Y040860D03*
X043120Y041360D03*
X043120Y041860D03*
X043120Y042360D03*
X046080Y042360D03*
X046080Y041860D03*
X046080Y041360D03*
X046080Y040860D03*
X046080Y040360D03*
X046080Y039860D03*
X046080Y039360D03*
X046080Y038860D03*
X046080Y038360D03*
X046080Y037860D03*
X046080Y037360D03*
X046080Y036860D03*
X046080Y036360D03*
X046080Y035860D03*
X046080Y035360D03*
X046080Y034860D03*
X051120Y034860D03*
X051120Y035360D03*
X051120Y035860D03*
X051120Y036360D03*
X051120Y036860D03*
X051120Y037360D03*
X051120Y037860D03*
X051120Y038360D03*
X051120Y038860D03*
X051120Y039360D03*
X051120Y039860D03*
X051120Y040360D03*
X051120Y040860D03*
X051120Y041360D03*
X051120Y041860D03*
X051120Y042360D03*
X053076Y037360D03*
X053076Y036860D03*
X053076Y036360D03*
X053076Y035860D03*
X055124Y035860D03*
X055124Y036360D03*
X055124Y036860D03*
X055124Y037360D03*
X056576Y037360D03*
X056576Y036860D03*
X056576Y036360D03*
X056576Y035860D03*
X058624Y035860D03*
X058624Y036360D03*
X058624Y036860D03*
X058624Y037360D03*
X030580Y037360D03*
X030580Y036860D03*
X030580Y036360D03*
X030580Y035860D03*
X030580Y035360D03*
X030580Y034860D03*
X028120Y034860D03*
X028120Y035360D03*
X028120Y035860D03*
X028120Y036360D03*
X028120Y036860D03*
X028120Y037360D03*
X028120Y037860D03*
X028120Y038360D03*
X028120Y038860D03*
X028120Y039360D03*
X028120Y039860D03*
X028120Y040360D03*
X028120Y040860D03*
X028120Y041360D03*
X028120Y041860D03*
X028120Y042360D03*
X030580Y042360D03*
X030580Y041860D03*
X030580Y041360D03*
X030580Y040860D03*
X030580Y040360D03*
X030580Y039860D03*
X030580Y039360D03*
X030580Y038860D03*
X030580Y038360D03*
X030580Y037860D03*
X023080Y037860D03*
X023080Y037360D03*
X023080Y036860D03*
X023080Y036360D03*
X023080Y035860D03*
X023080Y035360D03*
X023080Y034860D03*
X023080Y038360D03*
X023080Y038860D03*
X023080Y039360D03*
X023080Y039860D03*
X023080Y040360D03*
X023080Y040860D03*
X023080Y041360D03*
X023080Y041860D03*
X023080Y042360D03*
D15*
X023726Y033610D03*
X024474Y033610D03*
X016974Y032610D03*
X016226Y032610D03*
X039386Y033660D03*
X040134Y033660D03*
X053856Y038400D03*
X054604Y038400D03*
X057316Y038310D03*
X058064Y038310D03*
X056144Y034370D03*
X055396Y034370D03*
X036814Y017840D03*
X036066Y017840D03*
D16*
X025100Y021236D03*
X025100Y021984D03*
X032100Y029236D03*
X032100Y029984D03*
X024770Y030986D03*
X024770Y031734D03*
X048520Y032416D03*
X048520Y033164D03*
X065910Y030804D03*
X065910Y030056D03*
D17*
X055045Y026783D03*
X054848Y026783D03*
X054651Y026783D03*
X054454Y026783D03*
X054257Y026783D03*
X054061Y026783D03*
X053864Y026783D03*
X053667Y026783D03*
X053470Y026783D03*
X053273Y026783D03*
X053076Y026783D03*
X052880Y026783D03*
X052683Y026783D03*
X052486Y026783D03*
X052289Y026783D03*
X052092Y026783D03*
X051895Y026783D03*
X051698Y026783D03*
X051502Y026783D03*
X051305Y026783D03*
X051108Y026783D03*
X050911Y026783D03*
X050714Y026783D03*
X050517Y026783D03*
X050320Y026783D03*
X050124Y026783D03*
X049927Y026783D03*
X049730Y026783D03*
X049533Y026783D03*
X049336Y026783D03*
X049139Y026783D03*
X048943Y026783D03*
X048746Y026783D03*
X048549Y026783D03*
X048352Y026783D03*
X048155Y026783D03*
X048155Y018437D03*
X048352Y018437D03*
X048549Y018437D03*
X048746Y018437D03*
X048943Y018437D03*
X049139Y018437D03*
X049336Y018437D03*
X049533Y018437D03*
X049730Y018437D03*
X049927Y018437D03*
X050124Y018437D03*
X050320Y018437D03*
X050517Y018437D03*
X050714Y018437D03*
X050911Y018437D03*
X051108Y018437D03*
X051305Y018437D03*
X051502Y018437D03*
X051698Y018437D03*
X051895Y018437D03*
X052092Y018437D03*
X052289Y018437D03*
X052486Y018437D03*
X052683Y018437D03*
X052880Y018437D03*
X053076Y018437D03*
X053273Y018437D03*
X053470Y018437D03*
X053667Y018437D03*
X053864Y018437D03*
X054061Y018437D03*
X054257Y018437D03*
X054454Y018437D03*
X054651Y018437D03*
X054848Y018437D03*
X055045Y018437D03*
X019562Y034634D03*
X019365Y034634D03*
X019168Y034634D03*
X018971Y034634D03*
X018774Y034634D03*
X018577Y034634D03*
X018381Y034634D03*
X018184Y034634D03*
X017987Y034634D03*
X017790Y034634D03*
X017593Y034634D03*
X017396Y034634D03*
X017199Y034634D03*
X017003Y034634D03*
X016806Y034634D03*
X016609Y034634D03*
X016412Y034634D03*
X016215Y034634D03*
X016018Y034634D03*
X015821Y034634D03*
X015625Y034634D03*
X015428Y034634D03*
X015231Y034634D03*
X015034Y034634D03*
X015034Y042193D03*
X015231Y042193D03*
X015428Y042193D03*
X015625Y042193D03*
X015821Y042193D03*
X016018Y042193D03*
X016215Y042193D03*
X016412Y042193D03*
X016609Y042193D03*
X016806Y042193D03*
X017003Y042193D03*
X017199Y042193D03*
X017396Y042193D03*
X017593Y042193D03*
X017790Y042193D03*
X017987Y042193D03*
X018184Y042193D03*
X018381Y042193D03*
X018577Y042193D03*
X018774Y042193D03*
X018971Y042193D03*
X019168Y042193D03*
X019365Y042193D03*
X019562Y042193D03*
D18*
X047427Y026055D03*
X047427Y025858D03*
X047427Y025661D03*
X047427Y025464D03*
X047427Y025267D03*
X047427Y025071D03*
X047427Y024874D03*
X047427Y024677D03*
X047427Y024480D03*
X047427Y024283D03*
X047427Y024086D03*
X047427Y023890D03*
X047427Y023693D03*
X047427Y023496D03*
X047427Y023299D03*
X047427Y023102D03*
X047427Y022905D03*
X047427Y022708D03*
X047427Y022512D03*
X047427Y022315D03*
X047427Y022118D03*
X047427Y021921D03*
X047427Y021724D03*
X047427Y021527D03*
X047427Y021330D03*
X047427Y021134D03*
X047427Y020937D03*
X047427Y020740D03*
X047427Y020543D03*
X047427Y020346D03*
X047427Y020149D03*
X047427Y019953D03*
X047427Y019756D03*
X047427Y019559D03*
X047427Y019362D03*
X047427Y019165D03*
X055773Y019165D03*
X055773Y019362D03*
X055773Y019559D03*
X055773Y019756D03*
X055773Y019953D03*
X055773Y020149D03*
X055773Y020346D03*
X055773Y020543D03*
X055773Y020740D03*
X055773Y020937D03*
X055773Y021134D03*
X055773Y021330D03*
X055773Y021527D03*
X055773Y021724D03*
X055773Y021921D03*
X055773Y022118D03*
X055773Y022315D03*
X055773Y022512D03*
X055773Y022708D03*
X055773Y022905D03*
X055773Y023102D03*
X055773Y023299D03*
X055773Y023496D03*
X055773Y023693D03*
X055773Y023890D03*
X055773Y024086D03*
X055773Y024283D03*
X055773Y024480D03*
X055773Y024677D03*
X055773Y024874D03*
X055773Y025071D03*
X055773Y025267D03*
X055773Y025464D03*
X055773Y025661D03*
X055773Y025858D03*
X055773Y026055D03*
D19*
X054100Y039781D03*
X054100Y042439D03*
X057600Y042439D03*
X057600Y039781D03*
D20*
X057529Y032461D03*
X055560Y032461D03*
X055560Y030650D03*
X057529Y030650D03*
D21*
X051784Y028560D03*
X051036Y028560D03*
X049814Y028530D03*
X049066Y028530D03*
X057316Y034350D03*
X058064Y034350D03*
X064226Y015110D03*
X064974Y015110D03*
X066226Y015110D03*
X066974Y015110D03*
D22*
X068600Y020236D03*
X068600Y020984D03*
X056600Y017984D03*
X056600Y017236D03*
X037090Y020226D03*
X037090Y020974D03*
X037060Y011394D03*
X037060Y010646D03*
D23*
X045100Y012110D03*
X045100Y013110D03*
X046100Y013110D03*
X047100Y013110D03*
X048100Y013110D03*
X048100Y012110D03*
X047100Y012110D03*
X046100Y012110D03*
X049100Y012110D03*
X050100Y012110D03*
X051100Y012110D03*
X052100Y012110D03*
X052100Y013110D03*
X051100Y013110D03*
X050100Y013110D03*
X049100Y013110D03*
X053100Y013110D03*
X054100Y013110D03*
X055100Y013110D03*
X055100Y012110D03*
X054100Y012110D03*
X053100Y012110D03*
X056100Y012110D03*
X057100Y012110D03*
X057100Y013110D03*
X056100Y013110D03*
X056100Y008110D03*
X057100Y008110D03*
X057100Y007110D03*
X056100Y007110D03*
X055100Y007110D03*
X054100Y007110D03*
X053100Y007110D03*
X053100Y008110D03*
X054100Y008110D03*
X055100Y008110D03*
X052100Y008110D03*
X051100Y008110D03*
X050100Y008110D03*
X049100Y008110D03*
X049100Y007110D03*
X050100Y007110D03*
X051100Y007110D03*
X052100Y007110D03*
X048100Y007110D03*
X047100Y007110D03*
X046100Y007110D03*
X046100Y008110D03*
X047100Y008110D03*
X048100Y008110D03*
X045100Y008110D03*
X045100Y007110D03*
X059320Y019470D03*
X060320Y019470D03*
X060320Y020470D03*
X059320Y020470D03*
X060320Y021470D03*
X070100Y021040D03*
X071100Y020500D03*
X070100Y019960D03*
X071100Y019410D03*
X070100Y018870D03*
X070100Y017780D03*
X071100Y015070D03*
X070100Y014520D03*
X071100Y013980D03*
X070100Y013440D03*
X071100Y012890D03*
X070100Y012350D03*
X071100Y011810D03*
X070100Y011260D03*
X071100Y010720D03*
X070100Y010180D03*
X071100Y009630D03*
X070100Y009090D03*
X071100Y021590D03*
X070100Y022130D03*
D24*
X070639Y028271D03*
X071624Y028271D03*
X071624Y029098D03*
X071624Y030122D03*
X071624Y030949D03*
X070659Y030949D03*
X065550Y033340D03*
X065550Y034340D03*
X064550Y034340D03*
X063550Y034340D03*
X062550Y034340D03*
X061550Y034340D03*
X061550Y033340D03*
X062550Y033340D03*
X063550Y033340D03*
X064550Y033340D03*
X064600Y037110D03*
X065600Y037110D03*
X065600Y038110D03*
X064600Y038110D03*
X063600Y038110D03*
X062600Y038110D03*
X061600Y038110D03*
X061600Y037110D03*
X062600Y037110D03*
X063600Y037110D03*
X063550Y040890D03*
X062550Y040890D03*
X061550Y040890D03*
X061550Y041890D03*
X062550Y041890D03*
X063550Y041890D03*
X064550Y041890D03*
X064550Y040890D03*
X065550Y040890D03*
X065550Y041890D03*
D25*
X064531Y024100D03*
X063429Y024100D03*
X062321Y024120D03*
X061219Y024120D03*
D26*
X066000Y025139D03*
X066000Y026241D03*
X066020Y027429D03*
X066020Y028531D03*
D27*
X022610Y021730D03*
X022610Y021480D03*
X022610Y021230D03*
X022610Y020980D03*
X022610Y020730D03*
X022610Y020480D03*
X022610Y020230D03*
X022610Y019980D03*
X022610Y019730D03*
X022610Y019480D03*
X022610Y019230D03*
X022610Y018980D03*
X022610Y018730D03*
X022610Y018480D03*
X022610Y018230D03*
X022610Y017980D03*
X022610Y017730D03*
X022610Y017480D03*
X022610Y017230D03*
X022610Y016980D03*
X022610Y016730D03*
X022610Y016480D03*
X022610Y016230D03*
X022610Y015980D03*
X022610Y015730D03*
X022610Y015480D03*
X022610Y015230D03*
X022610Y014980D03*
X022610Y014730D03*
X022610Y014480D03*
X022610Y014230D03*
X022610Y013980D03*
X022610Y013730D03*
X022610Y013480D03*
X022610Y013230D03*
X022610Y012980D03*
X022610Y012730D03*
X022610Y012480D03*
X022610Y012230D03*
X022610Y011980D03*
X022610Y011730D03*
X022610Y011480D03*
X022610Y011230D03*
X022610Y010980D03*
X022610Y010730D03*
X022610Y010480D03*
X022610Y010230D03*
X022610Y009980D03*
X022610Y009730D03*
X022610Y009480D03*
D28*
X015340Y024698D03*
D29*
X015307Y006473D03*
D30*
X021587Y007453D03*
X021575Y023778D03*
D31*
X022529Y024290D03*
X022529Y006924D03*
D32*
X069600Y037214D03*
X070600Y037664D03*
X069600Y038114D03*
X070600Y038564D03*
X069600Y039014D03*
X070600Y039464D03*
X069600Y039914D03*
X070600Y040364D03*
X070600Y041264D03*
X071600Y040814D03*
X071600Y039914D03*
X071600Y039014D03*
X071600Y038114D03*
X071600Y037214D03*
D33*
X069600Y040814D03*
D34*
X070600Y044031D03*
X070600Y034189D03*
D35*
X072805Y032267D03*
X073120Y029610D03*
X072805Y026933D03*
D36*
X071100Y018330D03*
X071100Y017240D03*
X070100Y016700D03*
X071100Y016150D03*
X070100Y015610D03*
D37*
X070600Y006350D03*
X070600Y024870D03*
D38*
X068640Y027140D02*
X068640Y027700D01*
X067640Y027700D02*
X067640Y027140D01*
X058160Y027150D02*
X057600Y027150D01*
X057600Y026150D02*
X058160Y026150D01*
X058160Y028150D02*
X057600Y028150D01*
X053380Y010610D02*
X052820Y010610D01*
X052820Y009610D02*
X053380Y009610D01*
D39*
X016880Y029110D03*
X014320Y029110D03*
D40*
X018759Y026810D03*
X019861Y026810D03*
D41*
X059320Y021470D03*
D42*
X060350Y011134D03*
X060850Y011134D03*
X061350Y011134D03*
X061850Y011134D03*
X061850Y009086D03*
X061350Y009086D03*
X060850Y009086D03*
X060350Y009086D03*
D43*
X060600Y008110D03*
X061600Y008110D03*
D44*
X016190Y015980D03*
D45*
X012620Y042590D02*
X012620Y045590D01*
X015620Y045590D01*
X074580Y006630D02*
X074580Y003630D01*
X071580Y003630D01*
D46*
X068950Y028970D03*
X068450Y028970D03*
X067950Y028970D03*
X067450Y028970D03*
X067450Y030220D03*
X067950Y030220D03*
X068450Y030220D03*
X068950Y030220D03*
D47*
X041603Y029614D03*
X040603Y029614D03*
X040603Y028614D03*
X041603Y028614D03*
X041603Y027614D03*
X040603Y027614D03*
X040603Y026614D03*
X041603Y026614D03*
X041603Y025614D03*
X040603Y025614D03*
X040603Y024614D03*
X041603Y024614D03*
X041603Y023614D03*
X040603Y023614D03*
X040603Y022614D03*
X041603Y022614D03*
X041603Y021614D03*
X040603Y021614D03*
X040603Y020614D03*
X041603Y020614D03*
X041603Y019614D03*
X040603Y019614D03*
X040603Y018614D03*
X041603Y018614D03*
X041603Y017614D03*
X040603Y017614D03*
X040603Y016614D03*
X041603Y016614D03*
X041603Y015614D03*
X040603Y015614D03*
X040603Y014614D03*
X041603Y014614D03*
X041603Y013614D03*
X040603Y013614D03*
X040603Y012614D03*
X041603Y012614D03*
X041603Y011614D03*
X040603Y011614D03*
X040603Y010614D03*
X041603Y010614D03*
X041603Y009614D03*
X040603Y009614D03*
X040603Y008614D03*
X041603Y008614D03*
X041603Y007614D03*
X040603Y007614D03*
X040603Y006614D03*
X041603Y006614D03*
X041603Y005614D03*
X040603Y005614D03*
D48*
X054090Y025090D03*
X056020Y027710D03*
X059610Y035260D03*
X054420Y035870D03*
X055310Y039770D03*
D49*
X060100Y006110D03*
X062100Y006110D03*
M02*
