G75*
G70*
%OFA0B0*%
%FSLAX24Y24*%
%IPPOS*%
%LPD*%
%AMOC8*
5,1,8,0,0,1.08239X$1,22.5*
%
%ADD10C,0.0110*%
%ADD11OC8,0.0630*%
%ADD12OC8,0.0520*%
%ADD13OC8,0.0600*%
%ADD14O,0.0520X0.1040*%
%ADD15C,0.1240*%
%ADD16OC8,0.1240*%
%ADD17O,0.1040X0.0520*%
%ADD18O,0.1120X0.0560*%
%ADD19C,0.0200*%
%ADD20C,0.0400*%
%ADD21C,0.0100*%
D10*
X087666Y003882D02*
X087764Y003784D01*
X087764Y003685D01*
X087371Y003685D01*
X087371Y003587D02*
X087371Y003784D01*
X087469Y003882D01*
X087666Y003882D01*
X087666Y003488D02*
X087469Y003488D01*
X087371Y003587D01*
X087120Y003488D02*
X086825Y003488D01*
X086726Y003587D01*
X086726Y003784D01*
X086825Y003882D01*
X087120Y003882D01*
X086475Y003784D02*
X086475Y003488D01*
X086180Y003488D01*
X086082Y003587D01*
X086180Y003685D01*
X086475Y003685D01*
X086475Y003784D02*
X086377Y003882D01*
X086180Y003882D01*
X085741Y003784D02*
X085545Y003784D01*
X085643Y003980D02*
X085741Y004079D01*
X085643Y003980D02*
X085643Y003488D01*
X085195Y003882D02*
X085097Y003882D01*
X084900Y003685D01*
X084900Y003488D02*
X084900Y003882D01*
X084649Y003784D02*
X084649Y003685D01*
X084256Y003685D01*
X084256Y003587D02*
X084256Y003784D01*
X084354Y003882D01*
X084551Y003882D01*
X084649Y003784D01*
X084551Y003488D02*
X084354Y003488D01*
X084256Y003587D01*
X083915Y003488D02*
X083817Y003587D01*
X083817Y003980D01*
X083915Y003882D02*
X083718Y003882D01*
X083468Y003784D02*
X083468Y003488D01*
X083468Y003784D02*
X083369Y003882D01*
X083074Y003882D01*
X083074Y003488D01*
X082734Y003488D02*
X082537Y003488D01*
X082635Y003488D02*
X082635Y004079D01*
X082537Y004079D02*
X082734Y004079D01*
X081641Y003882D02*
X081641Y003390D01*
X081543Y003292D01*
X081445Y003292D01*
X081346Y003488D02*
X081641Y003488D01*
X081346Y003488D02*
X081248Y003587D01*
X081248Y003882D01*
X080997Y003784D02*
X080997Y003587D01*
X080898Y003488D01*
X080603Y003488D01*
X080603Y003292D02*
X080603Y003882D01*
X080898Y003882D01*
X080997Y003784D01*
X080352Y003784D02*
X080352Y003587D01*
X080254Y003488D01*
X079959Y003488D01*
X079959Y003292D02*
X079959Y003882D01*
X080254Y003882D01*
X080352Y003784D01*
X079708Y003784D02*
X079609Y003882D01*
X079413Y003882D01*
X079314Y003784D01*
X079314Y003587D01*
X079413Y003488D01*
X079609Y003488D01*
X079708Y003587D01*
X079708Y003784D01*
X078974Y003488D02*
X078777Y003488D01*
X078875Y003488D02*
X078875Y004079D01*
X078777Y004079D01*
X078526Y004079D02*
X078133Y004079D01*
X078133Y003488D01*
X078133Y003784D02*
X078329Y003784D01*
X077237Y003882D02*
X077139Y003784D01*
X076942Y003784D01*
X076844Y003882D01*
X076844Y003980D01*
X076942Y004079D01*
X077139Y004079D01*
X077237Y003980D01*
X077237Y003882D01*
X077139Y003784D02*
X077237Y003685D01*
X077237Y003587D01*
X077139Y003488D01*
X076942Y003488D01*
X076844Y003587D01*
X076844Y003685D01*
X076942Y003784D01*
X076593Y003980D02*
X076199Y003587D01*
X076297Y003488D01*
X076494Y003488D01*
X076593Y003587D01*
X076593Y003980D01*
X076494Y004079D01*
X076297Y004079D01*
X076199Y003980D01*
X076199Y003587D01*
X075948Y003488D02*
X075554Y004079D01*
X075304Y003980D02*
X075304Y003784D01*
X075205Y003685D01*
X074910Y003685D01*
X074910Y003488D02*
X074910Y004079D01*
X075205Y004079D01*
X075304Y003980D01*
X075107Y003685D02*
X075304Y003488D01*
X075554Y003488D02*
X075948Y004079D01*
X085410Y002079D02*
X085410Y001685D01*
X085607Y001488D01*
X085804Y001685D01*
X085804Y002079D01*
X086054Y002079D02*
X086350Y002079D01*
X086448Y001980D01*
X086448Y001784D01*
X086350Y001685D01*
X086054Y001685D01*
X086054Y001488D02*
X086054Y002079D01*
X086251Y001685D02*
X086448Y001488D01*
X086699Y001587D02*
X086797Y001488D01*
X086994Y001488D01*
X087093Y001587D01*
X087093Y001685D01*
X086994Y001784D01*
X086797Y001784D01*
X086699Y001882D01*
X086699Y001980D01*
X086797Y002079D01*
X086994Y002079D01*
X087093Y001980D01*
D11*
X031355Y017433D03*
X030355Y017433D03*
X029355Y017433D03*
X028355Y017433D03*
X027355Y017433D03*
X026355Y017433D03*
X025355Y017433D03*
X024355Y017433D03*
X029355Y016433D03*
X010355Y036433D03*
X009355Y036433D03*
X008355Y036433D03*
X007355Y036433D03*
X006355Y036433D03*
X005355Y036433D03*
X004355Y036433D03*
X003355Y036433D03*
X003355Y041433D03*
X004355Y041433D03*
X005355Y041433D03*
X006355Y041433D03*
X007355Y041433D03*
X008355Y041433D03*
X009355Y041433D03*
X010355Y041433D03*
X076355Y040433D03*
X077355Y040433D03*
X078355Y040433D03*
X079355Y040433D03*
X080355Y040433D03*
X081355Y040433D03*
X082355Y040433D03*
X083355Y040433D03*
X085355Y040433D03*
X086355Y040433D03*
X087355Y040433D03*
X088355Y040433D03*
X089355Y040433D03*
X090355Y040433D03*
X091355Y040433D03*
X092355Y040433D03*
X092355Y035433D03*
X091355Y035433D03*
X090355Y035433D03*
X089355Y035433D03*
X088355Y035433D03*
X087355Y035433D03*
X086355Y035433D03*
X085355Y035433D03*
X083355Y035433D03*
X082355Y035433D03*
X081355Y035433D03*
X080355Y035433D03*
X079355Y035433D03*
X078355Y035433D03*
X077355Y035433D03*
X076355Y035433D03*
D12*
X075355Y036933D03*
X075355Y038933D03*
X066355Y037933D03*
X066355Y039933D03*
X055355Y039933D03*
X055355Y037933D03*
X055355Y033933D03*
X055355Y031933D03*
X055355Y027433D03*
X055355Y025433D03*
X055355Y021933D03*
X055355Y019933D03*
X055355Y015933D03*
X055355Y013933D03*
X055355Y009933D03*
X055355Y007933D03*
X044355Y007933D03*
X044355Y009933D03*
X044355Y013933D03*
X044355Y015933D03*
X044355Y019933D03*
X044355Y021933D03*
X045355Y025933D03*
X045355Y027933D03*
X045355Y031933D03*
X045355Y033933D03*
X045355Y037933D03*
X045355Y039933D03*
X034355Y039933D03*
X034355Y037933D03*
X034355Y033933D03*
X034355Y031933D03*
X034355Y027933D03*
X034355Y025933D03*
X023355Y026433D03*
X023355Y028433D03*
X023355Y031933D03*
X023355Y033933D03*
X022355Y037933D03*
X022355Y039933D03*
X012355Y039933D03*
X012355Y037933D03*
X012355Y033933D03*
X012355Y031933D03*
X012355Y027933D03*
X012355Y025933D03*
X006355Y023433D03*
X002355Y023433D03*
X002355Y025933D03*
X002355Y027933D03*
X002355Y031933D03*
X002355Y033933D03*
X002355Y037933D03*
X002355Y039933D03*
X022355Y021933D03*
X022355Y019933D03*
X022355Y014933D03*
X022355Y012933D03*
X022355Y009933D03*
X022355Y007933D03*
X022355Y004933D03*
X022355Y002933D03*
X003355Y003933D03*
X003355Y005933D03*
X003355Y008933D03*
X003355Y010933D03*
X003355Y013933D03*
X003355Y015933D03*
X002355Y018933D03*
X002355Y020933D03*
X065355Y032433D03*
X069355Y032433D03*
X073355Y032433D03*
X073355Y030433D03*
X066355Y029933D03*
X066355Y027933D03*
X069355Y025433D03*
X071355Y024433D03*
X073355Y025433D03*
X067355Y024433D03*
X075355Y021433D03*
X075355Y019433D03*
X075355Y015933D03*
X075355Y013933D03*
X083355Y014433D03*
X084355Y014433D03*
X085355Y014433D03*
X086355Y014433D03*
X087355Y014433D03*
X088355Y014433D03*
X088355Y015433D03*
X087355Y015433D03*
X086355Y015433D03*
X085355Y015433D03*
X085355Y019433D03*
X086355Y019433D03*
X087355Y019433D03*
X088355Y019433D03*
X084355Y027933D03*
X084355Y029933D03*
X084355Y010433D03*
X085355Y010433D03*
X086355Y010433D03*
X087355Y010433D03*
X088355Y010433D03*
X088355Y009433D03*
X087355Y009433D03*
X086355Y009433D03*
X085355Y009433D03*
X084355Y009433D03*
X083355Y009433D03*
X083355Y010433D03*
X083355Y005433D03*
X084355Y005433D03*
X085355Y005433D03*
X086355Y005433D03*
X087355Y005433D03*
X088355Y005433D03*
D13*
X091355Y005433D03*
X092355Y005433D03*
X092355Y004433D03*
X091355Y004433D03*
X091355Y003433D03*
X092355Y003433D03*
X092355Y006433D03*
X091355Y006433D03*
X091355Y007433D03*
X092355Y007433D03*
X092355Y008433D03*
X091355Y008433D03*
X091355Y009433D03*
X092355Y009433D03*
X092355Y010433D03*
X091355Y010433D03*
X091355Y011433D03*
X092355Y011433D03*
X092355Y012433D03*
X091355Y012433D03*
X091355Y013433D03*
X092355Y013433D03*
X092355Y014433D03*
X091355Y014433D03*
X091355Y015433D03*
X092355Y015433D03*
X092355Y016433D03*
X091355Y016433D03*
X091355Y017433D03*
X092355Y017433D03*
X092355Y018433D03*
X091355Y018433D03*
X091355Y019433D03*
X092355Y019433D03*
X092355Y020433D03*
X091355Y020433D03*
X091355Y021433D03*
X092355Y021433D03*
X092355Y022433D03*
X091355Y022433D03*
X072355Y022433D03*
X071355Y022433D03*
X071355Y021433D03*
X072355Y021433D03*
X072355Y020433D03*
X071355Y020433D03*
X071355Y019433D03*
X072355Y019433D03*
X072355Y018433D03*
X071355Y018433D03*
X071355Y017433D03*
X072355Y017433D03*
X072355Y016433D03*
X071355Y016433D03*
X071355Y015433D03*
X072355Y015433D03*
X072355Y014433D03*
X071355Y014433D03*
X071355Y013433D03*
X072355Y013433D03*
X072355Y012433D03*
X071355Y012433D03*
X071355Y011433D03*
X072355Y011433D03*
X072355Y010433D03*
X071355Y010433D03*
X071355Y009433D03*
X072355Y009433D03*
X072355Y008433D03*
X071355Y008433D03*
X071355Y007433D03*
X072355Y007433D03*
X072355Y006433D03*
X071355Y006433D03*
X071355Y005433D03*
X072355Y005433D03*
X072355Y004433D03*
X071355Y004433D03*
X071355Y003433D03*
X072355Y003433D03*
X068355Y003433D03*
X067355Y003433D03*
X067355Y004433D03*
X068355Y004433D03*
X068355Y005433D03*
X067355Y005433D03*
X067355Y006433D03*
X068355Y006433D03*
X068355Y007433D03*
X067355Y007433D03*
X067355Y008433D03*
X068355Y008433D03*
X068355Y009433D03*
X067355Y009433D03*
X067355Y010433D03*
X068355Y010433D03*
X068355Y011433D03*
X067355Y011433D03*
X067355Y012433D03*
X068355Y012433D03*
X068355Y013433D03*
X067355Y013433D03*
X067355Y014433D03*
X068355Y014433D03*
X068355Y015433D03*
X067355Y015433D03*
X067355Y016433D03*
X068355Y016433D03*
X068355Y017433D03*
X067355Y017433D03*
X067355Y018433D03*
X068355Y018433D03*
X068355Y019433D03*
X067355Y019433D03*
X067355Y020433D03*
X068355Y020433D03*
X068355Y021433D03*
X067355Y021433D03*
X067355Y022433D03*
X068355Y022433D03*
X041355Y022433D03*
X040355Y022433D03*
X040355Y021433D03*
X041355Y021433D03*
X041355Y020433D03*
X040355Y020433D03*
X040355Y019433D03*
X041355Y019433D03*
X041355Y018433D03*
X040355Y018433D03*
X040355Y017433D03*
X041355Y017433D03*
X041355Y016433D03*
X040355Y016433D03*
X040355Y015433D03*
X041355Y015433D03*
X041355Y014433D03*
X040355Y014433D03*
X040355Y013433D03*
X041355Y013433D03*
X041355Y012433D03*
X040355Y012433D03*
X040355Y011433D03*
X041355Y011433D03*
X041355Y010433D03*
X040355Y010433D03*
X040355Y009433D03*
X041355Y009433D03*
X041355Y008433D03*
X040355Y008433D03*
X040355Y007433D03*
X041355Y007433D03*
X041355Y006433D03*
X040355Y006433D03*
X040355Y005433D03*
X041355Y005433D03*
X041355Y004433D03*
X040355Y004433D03*
X040355Y003433D03*
X041355Y003433D03*
X036855Y003433D03*
X035855Y003433D03*
X035855Y004433D03*
X036855Y004433D03*
X036855Y005433D03*
X035855Y005433D03*
X035855Y006433D03*
X036855Y006433D03*
X036855Y007433D03*
X035855Y007433D03*
X035855Y008433D03*
X036855Y008433D03*
X036855Y009433D03*
X035855Y009433D03*
X035855Y010433D03*
X036855Y010433D03*
X036855Y011433D03*
X035855Y011433D03*
X035855Y012433D03*
X036855Y012433D03*
X036855Y013433D03*
X035855Y013433D03*
X035855Y014433D03*
X036855Y014433D03*
X036855Y015433D03*
X035855Y015433D03*
X035855Y016433D03*
X036855Y016433D03*
X036855Y017433D03*
X035855Y017433D03*
X035855Y018433D03*
X036855Y018433D03*
X036855Y019433D03*
X035855Y019433D03*
X035855Y020433D03*
X036855Y020433D03*
X036855Y021433D03*
X035855Y021433D03*
X035855Y022433D03*
X036855Y022433D03*
X019355Y022433D03*
X018355Y022433D03*
X018355Y021433D03*
X019355Y021433D03*
X019355Y020433D03*
X018355Y020433D03*
X018355Y019433D03*
X019355Y019433D03*
X019355Y018433D03*
X018355Y018433D03*
X018355Y017433D03*
X019355Y017433D03*
X019355Y016433D03*
X018355Y016433D03*
X018355Y015433D03*
X019355Y015433D03*
X019355Y014433D03*
X018355Y014433D03*
X018355Y013433D03*
X019355Y013433D03*
X019355Y012433D03*
X018355Y012433D03*
X018355Y011433D03*
X019355Y011433D03*
X019355Y010433D03*
X018355Y010433D03*
X018355Y009433D03*
X019355Y009433D03*
X019355Y008433D03*
X018355Y008433D03*
X018355Y007433D03*
X019355Y007433D03*
X019355Y006433D03*
X018355Y006433D03*
X018355Y005433D03*
X019355Y005433D03*
X019355Y004433D03*
X018355Y004433D03*
X018355Y003433D03*
X019355Y003433D03*
X014355Y003433D03*
X013355Y003433D03*
X013355Y004433D03*
X014355Y004433D03*
X014355Y005433D03*
X013355Y005433D03*
X013355Y006433D03*
X014355Y006433D03*
X014355Y007433D03*
X013355Y007433D03*
X013355Y008433D03*
X014355Y008433D03*
X014355Y009433D03*
X013355Y009433D03*
X013355Y010433D03*
X014355Y010433D03*
X014355Y011433D03*
X013355Y011433D03*
X013355Y012433D03*
X014355Y012433D03*
X014355Y013433D03*
X013355Y013433D03*
X013355Y014433D03*
X014355Y014433D03*
X014355Y015433D03*
X013355Y015433D03*
X013355Y016433D03*
X014355Y016433D03*
X014355Y017433D03*
X013355Y017433D03*
X013355Y018433D03*
X014355Y018433D03*
X014355Y019433D03*
X013355Y019433D03*
X013355Y020433D03*
X014355Y020433D03*
X014355Y021433D03*
X013355Y021433D03*
X013355Y022433D03*
X014355Y022433D03*
D14*
X010355Y021433D03*
X009355Y021433D03*
X008355Y021433D03*
X007355Y021433D03*
X006355Y021433D03*
X005355Y021433D03*
X004355Y021433D03*
X003355Y021433D03*
X003355Y018433D03*
X004355Y018433D03*
X005355Y018433D03*
X006355Y018433D03*
X007355Y018433D03*
X008355Y018433D03*
X009355Y018433D03*
X010355Y018433D03*
X023355Y019433D03*
X024355Y019433D03*
X025355Y019433D03*
X026355Y019433D03*
X027355Y019433D03*
X028355Y019433D03*
X029355Y019433D03*
X030355Y019433D03*
X030355Y022433D03*
X029355Y022433D03*
X028355Y022433D03*
X027355Y022433D03*
X026355Y022433D03*
X025355Y022433D03*
X024355Y022433D03*
X023355Y022433D03*
X019355Y025433D03*
X018355Y025433D03*
X017355Y025433D03*
X016355Y025433D03*
X015355Y025433D03*
X014355Y025433D03*
X013355Y025433D03*
X009355Y025433D03*
X008355Y025433D03*
X007355Y025433D03*
X006355Y025433D03*
X005355Y025433D03*
X004355Y025433D03*
X003355Y025433D03*
X003355Y028433D03*
X004355Y028433D03*
X005355Y028433D03*
X006355Y028433D03*
X007355Y028433D03*
X008355Y028433D03*
X009355Y028433D03*
X013355Y028433D03*
X014355Y028433D03*
X015355Y028433D03*
X016355Y028433D03*
X017355Y028433D03*
X018355Y028433D03*
X019355Y028433D03*
X024355Y028933D03*
X025355Y028933D03*
X026355Y028933D03*
X027355Y028933D03*
X028355Y028933D03*
X029355Y028933D03*
X030355Y028933D03*
X030355Y031433D03*
X029355Y031433D03*
X028355Y031433D03*
X027355Y031433D03*
X026355Y031433D03*
X025355Y031433D03*
X024355Y031433D03*
X024355Y034433D03*
X025355Y034433D03*
X026355Y034433D03*
X027355Y034433D03*
X028355Y034433D03*
X029355Y034433D03*
X030355Y034433D03*
X035355Y034433D03*
X036355Y034433D03*
X037355Y034433D03*
X038355Y034433D03*
X039355Y034433D03*
X040355Y034433D03*
X041355Y034433D03*
X042355Y034433D03*
X046355Y034433D03*
X047355Y034433D03*
X048355Y034433D03*
X049355Y034433D03*
X050355Y034433D03*
X051355Y034433D03*
X052355Y034433D03*
X056355Y034433D03*
X057355Y034433D03*
X058355Y034433D03*
X059355Y034433D03*
X060355Y034433D03*
X061355Y034433D03*
X062355Y034433D03*
X062355Y037433D03*
X061355Y037433D03*
X060355Y037433D03*
X059355Y037433D03*
X058355Y037433D03*
X057355Y037433D03*
X056355Y037433D03*
X052355Y037433D03*
X051355Y037433D03*
X050355Y037433D03*
X049355Y037433D03*
X048355Y037433D03*
X047355Y037433D03*
X046355Y037433D03*
X041355Y037433D03*
X040355Y037433D03*
X039355Y037433D03*
X038355Y037433D03*
X037355Y037433D03*
X036355Y037433D03*
X035355Y037433D03*
X030355Y037433D03*
X029355Y037433D03*
X028355Y037433D03*
X027355Y037433D03*
X026355Y037433D03*
X025355Y037433D03*
X024355Y037433D03*
X023355Y037433D03*
X019355Y037433D03*
X018355Y037433D03*
X017355Y037433D03*
X016355Y037433D03*
X015355Y037433D03*
X014355Y037433D03*
X013355Y037433D03*
X010355Y037433D03*
X009355Y037433D03*
X008355Y037433D03*
X007355Y037433D03*
X006355Y037433D03*
X005355Y037433D03*
X004355Y037433D03*
X003355Y037433D03*
X003355Y040433D03*
X004355Y040433D03*
X005355Y040433D03*
X006355Y040433D03*
X007355Y040433D03*
X008355Y040433D03*
X009355Y040433D03*
X010355Y040433D03*
X013355Y040433D03*
X014355Y040433D03*
X015355Y040433D03*
X016355Y040433D03*
X017355Y040433D03*
X018355Y040433D03*
X019355Y040433D03*
X023355Y040433D03*
X024355Y040433D03*
X025355Y040433D03*
X026355Y040433D03*
X027355Y040433D03*
X028355Y040433D03*
X029355Y040433D03*
X030355Y040433D03*
X035355Y040433D03*
X036355Y040433D03*
X037355Y040433D03*
X038355Y040433D03*
X039355Y040433D03*
X040355Y040433D03*
X041355Y040433D03*
X046355Y040433D03*
X047355Y040433D03*
X048355Y040433D03*
X049355Y040433D03*
X050355Y040433D03*
X051355Y040433D03*
X052355Y040433D03*
X056355Y040433D03*
X057355Y040433D03*
X058355Y040433D03*
X059355Y040433D03*
X060355Y040433D03*
X061355Y040433D03*
X062355Y040433D03*
X068355Y040433D03*
X069355Y040433D03*
X070355Y040433D03*
X071355Y040433D03*
X076355Y039433D03*
X077355Y039433D03*
X078355Y039433D03*
X079355Y039433D03*
X080355Y039433D03*
X081355Y039433D03*
X082355Y039433D03*
X083355Y039433D03*
X085355Y039433D03*
X086355Y039433D03*
X087355Y039433D03*
X088355Y039433D03*
X089355Y039433D03*
X090355Y039433D03*
X091355Y039433D03*
X092355Y039433D03*
X092355Y036433D03*
X091355Y036433D03*
X090355Y036433D03*
X089355Y036433D03*
X088355Y036433D03*
X087355Y036433D03*
X086355Y036433D03*
X085355Y036433D03*
X083355Y036433D03*
X082355Y036433D03*
X081355Y036433D03*
X080355Y036433D03*
X079355Y036433D03*
X078355Y036433D03*
X077355Y036433D03*
X076355Y036433D03*
X071355Y037433D03*
X070355Y037433D03*
X069355Y037433D03*
X068355Y037433D03*
X062355Y031433D03*
X061355Y031433D03*
X060355Y031433D03*
X059355Y031433D03*
X058355Y031433D03*
X057355Y031433D03*
X056355Y031433D03*
X052355Y031433D03*
X051355Y031433D03*
X050355Y031433D03*
X049355Y031433D03*
X048355Y031433D03*
X047355Y031433D03*
X046355Y031433D03*
X042355Y031433D03*
X041355Y031433D03*
X040355Y031433D03*
X039355Y031433D03*
X038355Y031433D03*
X037355Y031433D03*
X036355Y031433D03*
X035355Y031433D03*
X035355Y028433D03*
X036355Y028433D03*
X037355Y028433D03*
X038355Y028433D03*
X039355Y028433D03*
X040355Y028433D03*
X041355Y028433D03*
X046355Y028433D03*
X047355Y028433D03*
X048355Y028433D03*
X049355Y028433D03*
X050355Y028433D03*
X051355Y028433D03*
X052355Y028433D03*
X056355Y028433D03*
X057355Y028433D03*
X058355Y028433D03*
X059355Y028433D03*
X060355Y028433D03*
X061355Y028433D03*
X062355Y028433D03*
X068355Y027433D03*
X069355Y027433D03*
X070355Y027433D03*
X071355Y027433D03*
X071355Y030433D03*
X070355Y030433D03*
X069355Y030433D03*
X068355Y030433D03*
X062355Y025433D03*
X061355Y025433D03*
X060355Y025433D03*
X059355Y025433D03*
X058355Y025433D03*
X057355Y025433D03*
X056355Y025433D03*
X052355Y025433D03*
X051355Y025433D03*
X050355Y025433D03*
X049355Y025433D03*
X048355Y025433D03*
X047355Y025433D03*
X046355Y025433D03*
X041355Y025433D03*
X040355Y025433D03*
X039355Y025433D03*
X038355Y025433D03*
X037355Y025433D03*
X036355Y025433D03*
X035355Y025433D03*
X030355Y025933D03*
X029355Y025933D03*
X028355Y025933D03*
X027355Y025933D03*
X026355Y025933D03*
X025355Y025933D03*
X024355Y025933D03*
X017355Y031433D03*
X016355Y031433D03*
X015355Y031433D03*
X014355Y031433D03*
X014355Y034433D03*
X015355Y034433D03*
X016355Y034433D03*
X017355Y034433D03*
X045355Y022433D03*
X046355Y022433D03*
X047355Y022433D03*
X048355Y022433D03*
X049355Y022433D03*
X050355Y022433D03*
X051355Y022433D03*
X052355Y022433D03*
X056355Y022433D03*
X057355Y022433D03*
X058355Y022433D03*
X059355Y022433D03*
X061355Y022433D03*
X062355Y022433D03*
X063355Y022433D03*
X064355Y022433D03*
X064355Y019433D03*
X063355Y019433D03*
X062355Y019433D03*
X061355Y019433D03*
X059355Y019433D03*
X058355Y019433D03*
X057355Y019433D03*
X056355Y019433D03*
X052355Y019433D03*
X051355Y019433D03*
X050355Y019433D03*
X049355Y019433D03*
X048355Y019433D03*
X047355Y019433D03*
X046355Y019433D03*
X045355Y019433D03*
X045355Y016433D03*
X046355Y016433D03*
X047355Y016433D03*
X048355Y016433D03*
X049355Y016433D03*
X050355Y016433D03*
X051355Y016433D03*
X052355Y016433D03*
X056355Y016433D03*
X057355Y016433D03*
X058355Y016433D03*
X059355Y016433D03*
X061355Y016433D03*
X062355Y016433D03*
X063355Y016433D03*
X064355Y016433D03*
X064355Y013433D03*
X063355Y013433D03*
X062355Y013433D03*
X061355Y013433D03*
X059355Y013433D03*
X058355Y013433D03*
X057355Y013433D03*
X056355Y013433D03*
X052355Y013433D03*
X051355Y013433D03*
X050355Y013433D03*
X049355Y013433D03*
X048355Y013433D03*
X047355Y013433D03*
X046355Y013433D03*
X045355Y013433D03*
X045355Y010433D03*
X046355Y010433D03*
X047355Y010433D03*
X048355Y010433D03*
X049355Y010433D03*
X050355Y010433D03*
X051355Y010433D03*
X052355Y010433D03*
X056355Y010433D03*
X057355Y010433D03*
X058355Y010433D03*
X059355Y010433D03*
X061355Y010433D03*
X062355Y010433D03*
X063355Y010433D03*
X064355Y010433D03*
X064355Y007433D03*
X063355Y007433D03*
X062355Y007433D03*
X061355Y007433D03*
X059355Y007433D03*
X058355Y007433D03*
X057355Y007433D03*
X056355Y007433D03*
X052355Y007433D03*
X051355Y007433D03*
X050355Y007433D03*
X049355Y007433D03*
X048355Y007433D03*
X047355Y007433D03*
X046355Y007433D03*
X045355Y007433D03*
X030355Y007433D03*
X029355Y007433D03*
X028355Y007433D03*
X027355Y007433D03*
X026355Y007433D03*
X025355Y007433D03*
X024355Y007433D03*
X023355Y007433D03*
X023355Y005433D03*
X024355Y005433D03*
X025355Y005433D03*
X026355Y005433D03*
X027355Y005433D03*
X028355Y005433D03*
X029355Y005433D03*
X030355Y005433D03*
X030355Y002433D03*
X029355Y002433D03*
X028355Y002433D03*
X027355Y002433D03*
X026355Y002433D03*
X025355Y002433D03*
X024355Y002433D03*
X023355Y002433D03*
X010355Y003433D03*
X009355Y003433D03*
X008355Y003433D03*
X007355Y003433D03*
X006355Y003433D03*
X005355Y003433D03*
X004355Y003433D03*
X004355Y006433D03*
X005355Y006433D03*
X006355Y006433D03*
X007355Y006433D03*
X008355Y006433D03*
X009355Y006433D03*
X010355Y006433D03*
X010355Y008433D03*
X009355Y008433D03*
X008355Y008433D03*
X007355Y008433D03*
X006355Y008433D03*
X005355Y008433D03*
X004355Y008433D03*
X004355Y011433D03*
X005355Y011433D03*
X006355Y011433D03*
X007355Y011433D03*
X008355Y011433D03*
X009355Y011433D03*
X010355Y011433D03*
X023355Y010433D03*
X024355Y010433D03*
X025355Y010433D03*
X026355Y010433D03*
X027355Y010433D03*
X028355Y010433D03*
X029355Y010433D03*
X030355Y010433D03*
X030355Y012433D03*
X029355Y012433D03*
X028355Y012433D03*
X027355Y012433D03*
X026355Y012433D03*
X025355Y012433D03*
X024355Y012433D03*
X023355Y012433D03*
X023355Y015433D03*
X024355Y015433D03*
X025355Y015433D03*
X026355Y015433D03*
X027355Y015433D03*
X028355Y015433D03*
X029355Y015433D03*
X030355Y015433D03*
X076355Y016433D03*
X077355Y016433D03*
X078355Y016433D03*
X079355Y016433D03*
X080355Y016433D03*
X081355Y016433D03*
X082355Y016433D03*
X082355Y013433D03*
X081355Y013433D03*
X080355Y013433D03*
X079355Y013433D03*
X078355Y013433D03*
X077355Y013433D03*
X076355Y013433D03*
X076355Y019433D03*
X077355Y019433D03*
X078355Y019433D03*
X079355Y019433D03*
X080355Y019433D03*
X081355Y019433D03*
X082355Y019433D03*
X082355Y022433D03*
X081355Y022433D03*
X080355Y022433D03*
X079355Y022433D03*
X078355Y022433D03*
X077355Y022433D03*
X076355Y022433D03*
X086355Y027433D03*
X087355Y027433D03*
X088355Y027433D03*
X089355Y027433D03*
X089355Y030433D03*
X088355Y030433D03*
X087355Y030433D03*
X086355Y030433D03*
D15*
X082355Y028933D03*
D16*
X073355Y028933D03*
D17*
X032355Y014433D03*
X032355Y013433D03*
X032355Y012433D03*
X032355Y011433D03*
X032355Y010433D03*
X032355Y009433D03*
X032355Y008433D03*
X032355Y007433D03*
X032355Y006433D03*
X032355Y005433D03*
D18*
X091355Y029433D03*
X091355Y030433D03*
X091355Y031433D03*
X091355Y032433D03*
D19*
X091355Y031433D02*
X091605Y031183D01*
X091605Y030683D01*
X091355Y030433D01*
X090855Y030433D01*
X089605Y030433D01*
X089355Y030433D01*
X089355Y029933D01*
X089355Y028933D01*
X085605Y028933D01*
X084605Y029933D01*
X084355Y029933D01*
X082855Y028683D02*
X082355Y028933D01*
X082855Y028683D02*
X083355Y028683D01*
X084105Y027933D01*
X084355Y027933D01*
X084355Y028183D01*
X086355Y028183D01*
X089605Y028183D01*
X090855Y029433D01*
X091355Y029433D01*
X086355Y028183D02*
X086355Y027933D01*
X086355Y027433D01*
X082355Y022433D02*
X082355Y021933D01*
X084105Y021933D01*
X084105Y016183D01*
X084355Y016183D01*
X085105Y015433D01*
X085355Y015433D01*
X085605Y015433D01*
X086105Y015933D01*
X089105Y015933D01*
X088605Y015433D01*
X088355Y015433D01*
X089105Y015933D02*
X089605Y016433D01*
X091105Y016433D01*
X091355Y016433D01*
X084105Y016183D02*
X082605Y016183D01*
X082355Y016433D01*
X082855Y017433D02*
X076355Y017433D01*
X075105Y015933D02*
X074605Y016433D01*
X072605Y016433D01*
X072355Y016433D01*
X075105Y015933D02*
X075355Y015933D01*
X075355Y013933D02*
X075605Y013933D01*
X075855Y013933D01*
X076105Y013683D01*
X076355Y013433D01*
X076605Y013183D01*
X079355Y010433D01*
X083105Y010433D01*
X083355Y010433D01*
X083605Y010433D01*
X084105Y010933D01*
X084605Y010933D01*
X085105Y010433D01*
X085355Y010433D01*
X086105Y010433D02*
X086355Y010433D01*
X086605Y010433D01*
X087105Y010433D01*
X087355Y010433D01*
X088355Y010433D02*
X088605Y010433D01*
X091105Y010433D01*
X091355Y010433D01*
X087605Y005933D02*
X087105Y005933D01*
X084105Y005933D01*
X083605Y005433D01*
X083355Y005433D01*
X085355Y005433D02*
X085605Y005433D01*
X086105Y004933D01*
X088105Y004933D01*
X087605Y005433D01*
X087355Y005433D01*
X087605Y005933D02*
X088105Y005433D01*
X088355Y005433D01*
X088105Y004933D02*
X088605Y004433D01*
X091105Y004433D01*
X091355Y004433D01*
X087105Y005933D02*
X086605Y005433D01*
X086355Y005433D01*
X072355Y004433D02*
X072105Y004433D01*
X071605Y003933D01*
X069105Y003933D01*
X068605Y003433D01*
X068355Y003433D01*
X061355Y007433D02*
X061105Y007683D01*
X060605Y008183D01*
X057105Y008183D01*
X056605Y007683D01*
X056355Y007433D01*
X056105Y007683D01*
X055855Y007683D01*
X055605Y007933D01*
X055355Y007933D01*
X055355Y009683D02*
X058605Y009683D01*
X059105Y010183D01*
X059355Y010433D01*
X059605Y010683D01*
X060105Y011183D01*
X063605Y011183D01*
X064105Y010683D01*
X064355Y010433D01*
X064605Y010183D01*
X064855Y009933D01*
X067605Y009933D01*
X068105Y009433D01*
X068355Y009433D01*
X061355Y013433D02*
X061105Y013683D01*
X060605Y014183D01*
X056355Y014183D01*
X056355Y013933D01*
X056355Y013433D01*
X056355Y014183D02*
X055355Y014183D01*
X055355Y013933D01*
X055355Y015683D02*
X058605Y015683D01*
X059105Y016183D01*
X059355Y016433D01*
X059605Y016683D01*
X060105Y017183D01*
X063605Y017183D01*
X064105Y016683D01*
X064355Y016433D01*
X064605Y016683D01*
X064855Y016933D01*
X067605Y016933D01*
X068105Y016433D01*
X068355Y016433D01*
X075355Y019433D02*
X075605Y019433D01*
X076105Y019433D01*
X076355Y019433D01*
X076855Y020933D02*
X078105Y019683D01*
X078355Y019433D01*
X078605Y019183D01*
X079105Y019183D01*
X079355Y019433D01*
X076855Y020933D02*
X071855Y020933D01*
X071855Y021683D01*
X071605Y021933D01*
X070855Y021933D01*
X069355Y023433D01*
X068355Y022433D02*
X068105Y022433D01*
X067605Y021933D01*
X064855Y021933D01*
X064605Y022183D01*
X064355Y022433D01*
X064105Y022683D01*
X063605Y023183D01*
X060105Y023183D01*
X059605Y022683D01*
X059355Y022433D01*
X059105Y022183D01*
X058605Y021683D01*
X055355Y021683D01*
X055355Y021933D01*
X055105Y021933D01*
X054855Y022183D01*
X052605Y022183D01*
X052355Y022433D01*
X055355Y019933D02*
X055605Y019933D01*
X055855Y019933D01*
X056105Y019683D01*
X056355Y019433D01*
X054605Y016433D02*
X052605Y016433D01*
X052355Y016433D01*
X054605Y016433D02*
X055105Y015933D01*
X055355Y015933D01*
X055355Y015683D01*
X045355Y013433D02*
X045105Y013683D01*
X044855Y013933D01*
X044605Y013933D01*
X044355Y013933D01*
X043605Y015433D02*
X041605Y015433D01*
X041355Y015433D01*
X043605Y015433D02*
X044105Y015933D01*
X044355Y015933D01*
X045355Y019433D02*
X045105Y019683D01*
X044855Y019933D01*
X044605Y019933D01*
X044355Y019933D01*
X044355Y021933D02*
X044105Y021933D01*
X043605Y022433D01*
X041605Y022433D01*
X041355Y022433D01*
X036855Y022433D02*
X036605Y022433D01*
X036105Y022933D01*
X030855Y022933D01*
X030605Y022683D01*
X030355Y022433D01*
X028355Y022433D02*
X028105Y022183D01*
X026105Y020183D01*
X023355Y020183D01*
X023355Y019933D01*
X023355Y019433D01*
X022355Y019933D02*
X022355Y020183D01*
X023355Y020183D01*
X021605Y021433D02*
X019605Y021433D01*
X019355Y021433D01*
X019355Y022433D02*
X019105Y022433D01*
X018605Y022933D01*
X015105Y022933D01*
X014605Y022433D01*
X014355Y022433D01*
X014355Y021433D02*
X014105Y021433D01*
X013605Y020933D01*
X010855Y020933D01*
X010605Y021183D01*
X010355Y021433D01*
X003355Y018433D02*
X003105Y018683D01*
X002855Y018933D01*
X002605Y018933D01*
X002355Y018933D01*
X003355Y015933D02*
X003355Y015683D01*
X005355Y013683D01*
X005355Y011933D01*
X005355Y011433D01*
X005605Y011683D01*
X006105Y012183D01*
X009605Y012183D01*
X010105Y011683D01*
X010355Y011433D01*
X010605Y011183D01*
X010855Y010933D01*
X013605Y010933D01*
X014105Y010433D01*
X014355Y010433D01*
X019355Y010433D02*
X019605Y010433D01*
X021605Y010433D01*
X022105Y009933D01*
X022355Y009933D01*
X022355Y007933D02*
X022605Y007933D01*
X022855Y007933D01*
X023105Y007683D01*
X023355Y007433D01*
X026605Y004683D02*
X027105Y005183D01*
X027355Y005433D01*
X026605Y004683D02*
X029605Y004683D01*
X030105Y005183D01*
X030355Y005433D01*
X026605Y004683D02*
X022355Y004683D01*
X022355Y004933D01*
X022105Y004933D01*
X021605Y004433D01*
X019605Y004433D01*
X019355Y004433D01*
X022355Y002933D02*
X022605Y002933D01*
X022855Y002933D01*
X023105Y002683D01*
X023355Y002433D01*
X014355Y004433D02*
X014105Y004433D01*
X013605Y004933D01*
X011855Y004933D01*
X010605Y006183D01*
X010355Y006433D01*
X010105Y006183D01*
X009605Y005683D01*
X009105Y005683D01*
X008605Y006183D01*
X008355Y006433D01*
X007355Y006433D02*
X007355Y005933D01*
X006855Y005433D01*
X004105Y005433D01*
X003605Y005933D01*
X003355Y005933D01*
X003355Y003933D02*
X003605Y003933D01*
X003855Y003933D01*
X004105Y003683D01*
X004355Y003433D01*
X004605Y008183D02*
X005105Y008183D01*
X005355Y008433D01*
X005605Y008183D01*
X006105Y008183D01*
X006355Y008433D01*
X004605Y008183D02*
X004355Y008433D01*
X004105Y008683D01*
X003855Y008683D01*
X003605Y008933D01*
X003355Y008933D01*
X003855Y010683D02*
X004605Y010683D01*
X005105Y011183D01*
X005355Y011433D01*
X003855Y010683D02*
X003605Y010933D01*
X003355Y010933D01*
X019355Y014433D02*
X019605Y014433D01*
X021605Y014433D01*
X022105Y014933D01*
X022355Y014933D01*
X022355Y014683D01*
X026605Y014683D01*
X027105Y015183D01*
X027355Y015433D01*
X027605Y015183D01*
X028105Y014683D01*
X029605Y014683D01*
X030105Y015183D01*
X030355Y015433D01*
X030355Y015933D01*
X036105Y015933D01*
X036605Y015433D01*
X036855Y015433D01*
X030105Y010683D02*
X029605Y011183D01*
X028105Y011183D01*
X027605Y010683D01*
X027355Y010433D01*
X030105Y010683D02*
X030355Y010433D01*
X023355Y012433D02*
X023105Y012683D01*
X022855Y012933D01*
X022605Y012933D01*
X022355Y012933D01*
X021605Y021433D02*
X022105Y021933D01*
X022355Y021933D01*
X026355Y022433D02*
X026605Y022183D01*
X027105Y022183D01*
X027355Y022433D01*
X024355Y025933D02*
X024105Y026183D01*
X023855Y026433D01*
X023605Y026433D01*
X023355Y026433D01*
X023355Y028433D02*
X023105Y028433D01*
X019605Y028433D01*
X019355Y028433D01*
X024105Y031683D02*
X024355Y031433D01*
X024105Y031683D02*
X023855Y031933D01*
X023605Y031933D01*
X023355Y031933D01*
X023355Y032183D01*
X027605Y032183D01*
X028105Y031683D01*
X028355Y031433D01*
X028105Y033683D02*
X027605Y034183D01*
X027355Y034433D01*
X028105Y033683D02*
X033855Y033683D01*
X034105Y033933D01*
X034355Y033933D01*
X033605Y034183D02*
X030605Y034183D01*
X030355Y034433D01*
X029855Y036183D02*
X039355Y036183D01*
X039605Y037183D02*
X039355Y037433D01*
X039605Y037183D02*
X040105Y037183D01*
X040355Y037433D01*
X040605Y037683D01*
X041105Y038183D01*
X044855Y038183D01*
X045105Y037933D01*
X045355Y037933D01*
X045605Y037933D01*
X045855Y037933D01*
X046105Y037683D01*
X046355Y037433D01*
X045355Y039933D02*
X045105Y039933D01*
X044855Y040183D01*
X041605Y040183D01*
X041355Y040433D01*
X041105Y040183D01*
X040355Y039433D01*
X035105Y039433D01*
X034605Y039933D01*
X034355Y039933D01*
X033855Y038183D02*
X030105Y038183D01*
X029855Y037933D01*
X029855Y036183D01*
X026355Y037433D02*
X026105Y037683D01*
X025605Y038183D01*
X022355Y038183D01*
X022355Y037933D01*
X022105Y037933D01*
X021855Y037933D01*
X019605Y040183D01*
X019355Y040433D01*
X013855Y038183D02*
X013855Y033683D01*
X016605Y033683D01*
X017105Y034183D01*
X017355Y034433D01*
X017355Y033933D01*
X023105Y033933D01*
X023355Y033933D01*
X023355Y032183D02*
X023355Y031933D01*
X023355Y032183D02*
X015105Y032183D01*
X014605Y031683D01*
X014355Y031433D01*
X014105Y031683D01*
X013855Y031933D01*
X012605Y031933D01*
X012355Y031933D01*
X012105Y031933D01*
X002605Y031933D01*
X002355Y031933D01*
X012355Y033683D02*
X012355Y033933D01*
X012355Y033683D02*
X013855Y033683D01*
X013355Y037433D02*
X013105Y037683D01*
X012855Y037933D01*
X012605Y037933D01*
X012355Y037933D01*
X012105Y037933D01*
X011855Y038183D01*
X002355Y038183D01*
X002355Y037933D01*
X012355Y039683D02*
X012355Y039933D01*
X012355Y039683D02*
X013855Y038183D01*
X027355Y040433D02*
X027605Y040183D01*
X028105Y039683D01*
X028605Y039683D01*
X029105Y040183D01*
X029355Y040433D01*
X033855Y038183D02*
X034105Y037933D01*
X034355Y037933D01*
X034605Y037933D01*
X034855Y037933D01*
X035105Y037683D01*
X035355Y037433D01*
X034355Y032183D02*
X037605Y032183D01*
X038105Y031683D01*
X038355Y031433D01*
X034355Y031933D02*
X034355Y032183D01*
X041355Y028433D02*
X041605Y028183D01*
X044855Y028183D01*
X045105Y027933D01*
X045355Y027933D01*
X045355Y025933D02*
X045605Y025933D01*
X045855Y025933D01*
X046105Y025683D01*
X046355Y025433D01*
X052355Y028433D02*
X052605Y028183D01*
X054355Y028183D01*
X055105Y027433D01*
X055355Y027433D01*
X055605Y027433D01*
X061355Y027433D01*
X062105Y028183D01*
X062355Y028433D01*
X066355Y027933D02*
X066605Y027933D01*
X067855Y027933D01*
X068105Y027683D01*
X068355Y027433D01*
X066855Y029683D02*
X070605Y029683D01*
X071105Y030183D01*
X071355Y030433D01*
X072605Y031933D02*
X066105Y031933D01*
X065605Y032433D01*
X065355Y032433D01*
X067355Y030433D02*
X049355Y030433D01*
X048605Y031183D01*
X048355Y031433D01*
X049105Y031683D02*
X049355Y031433D01*
X049605Y031683D01*
X050105Y032183D01*
X055355Y032183D01*
X055355Y031933D01*
X055605Y031933D01*
X055855Y031933D01*
X056105Y031683D01*
X056355Y031433D01*
X056605Y033683D02*
X056855Y033933D01*
X056855Y035183D01*
X053105Y035183D01*
X052605Y034683D01*
X052355Y034433D01*
X055355Y033933D02*
X055605Y033933D01*
X055855Y033683D01*
X056605Y033683D01*
X056355Y037433D02*
X056105Y037683D01*
X055855Y037933D01*
X055605Y037933D01*
X055355Y037933D01*
X055355Y039933D02*
X055105Y039933D01*
X054855Y040183D01*
X052605Y040183D01*
X052355Y040433D01*
X062355Y040433D02*
X062605Y040183D01*
X062855Y039933D01*
X066105Y039933D01*
X066355Y039933D01*
X066355Y039683D01*
X070605Y039683D01*
X071105Y040183D01*
X071355Y040433D01*
X071605Y040183D01*
X073855Y040183D01*
X075105Y038933D01*
X075355Y038933D01*
X068355Y037433D02*
X068105Y037683D01*
X067855Y037933D01*
X066605Y037933D01*
X066355Y037933D01*
X072605Y031933D02*
X073105Y032433D01*
X073355Y032433D01*
X066855Y029683D02*
X066605Y029933D01*
X066355Y029933D01*
X060355Y025433D02*
X060105Y025183D01*
X059605Y024683D01*
X057605Y024683D01*
X058105Y025183D01*
X058355Y025433D01*
X057105Y024683D02*
X056605Y025183D01*
X056355Y025433D01*
X057105Y024683D02*
X057605Y024683D01*
X047355Y031433D02*
X047355Y031933D01*
X047355Y032183D01*
X048605Y032183D01*
X049105Y031683D01*
X047355Y032183D02*
X046355Y032183D01*
X046355Y031933D01*
X046355Y031433D01*
X045355Y031933D02*
X045355Y032183D01*
X046355Y032183D01*
X035355Y025433D02*
X035105Y025683D01*
X034855Y025933D01*
X034605Y025933D01*
X034355Y025933D01*
X013355Y025433D02*
X013105Y025683D01*
X012855Y025933D01*
X012605Y025933D01*
X012355Y025933D01*
X003355Y025433D02*
X003105Y025683D01*
X002855Y025933D01*
X002605Y025933D01*
X002355Y025933D01*
X041355Y010433D02*
X041605Y010433D01*
X043605Y010433D01*
X044105Y009933D01*
X044355Y009933D01*
X044355Y007933D02*
X044605Y007933D01*
X044855Y007933D01*
X045105Y007683D01*
X045355Y007433D01*
X041605Y005433D02*
X041355Y005433D01*
X041605Y005433D02*
X054605Y005433D01*
X055355Y009683D02*
X055355Y009933D01*
X055105Y009933D01*
X054855Y010183D01*
X052605Y010183D01*
X052355Y010433D01*
X041355Y003433D02*
X041105Y003433D01*
X040605Y002933D01*
X037605Y002933D01*
X037105Y003433D01*
X036855Y003433D01*
X072355Y021433D02*
X072605Y021433D01*
X075105Y021433D01*
X075355Y021433D01*
X075605Y021433D01*
X081355Y021433D01*
X082105Y022183D01*
X082355Y022433D01*
X082855Y020183D02*
X082855Y017433D01*
D20*
X080855Y015683D03*
X076355Y017433D03*
X082855Y020183D03*
X077855Y024933D03*
X069355Y023433D03*
X068605Y026183D03*
X067355Y030433D03*
X067605Y033433D03*
X067105Y033933D03*
X060855Y033433D03*
X056855Y029183D03*
X055855Y026683D03*
X057855Y023683D03*
X052355Y023433D03*
X048855Y023433D03*
X051855Y021683D03*
X051355Y021183D03*
X048855Y020933D03*
X048355Y020933D03*
X043605Y019933D03*
X042105Y020683D03*
X042105Y021933D03*
X039855Y022933D03*
X037605Y022433D03*
X034605Y023933D03*
X037855Y024433D03*
X041855Y026183D03*
X038105Y026683D03*
X037355Y026683D03*
X035855Y027683D03*
X031855Y026183D03*
X030355Y027183D03*
X029855Y026683D03*
X029855Y027683D03*
X026355Y026933D03*
X024355Y023933D03*
X024855Y021683D03*
X021355Y019683D03*
X016855Y018433D03*
X023855Y016933D03*
X027855Y018433D03*
X033105Y018183D03*
X040855Y018933D03*
X042105Y016433D03*
X034605Y012933D03*
X033855Y013433D03*
X033105Y011933D03*
X028855Y011683D03*
X028355Y013933D03*
X021855Y012433D03*
X020855Y008433D03*
X021855Y007433D03*
X020855Y006433D03*
X015355Y007433D03*
X017855Y003933D03*
X027355Y003433D03*
X035355Y008933D03*
X045855Y003183D03*
X046355Y001683D03*
X048355Y004433D03*
X049855Y005933D03*
X054605Y005433D03*
X055855Y008683D03*
X057855Y008683D03*
X058355Y008683D03*
X061355Y005433D03*
X062855Y003933D03*
X048355Y008683D03*
X047855Y009183D03*
X048355Y012183D03*
X054105Y015933D03*
X054605Y018183D03*
X050855Y017933D03*
X058855Y014683D03*
X056855Y012683D03*
X063355Y012183D03*
X061855Y017933D03*
X042355Y024183D03*
X046355Y029683D03*
X049355Y029933D03*
X051355Y029933D03*
X049355Y032433D03*
X048855Y032933D03*
X047855Y032683D03*
X045355Y031183D03*
X038355Y033183D03*
X038355Y035683D03*
X039355Y036183D03*
X040355Y035683D03*
X035355Y038433D03*
X036355Y038933D03*
X038355Y041683D03*
X038855Y041683D03*
X033105Y042183D03*
X026605Y044183D03*
X024605Y043183D03*
X024855Y041933D03*
X019605Y043683D03*
X015355Y042683D03*
X016855Y036683D03*
X020355Y034433D03*
X017605Y032683D03*
X022355Y031183D03*
X025355Y029933D03*
X026355Y030183D03*
X028855Y030183D03*
X032855Y032183D03*
X032355Y032683D03*
X033605Y034183D03*
X033855Y030183D03*
X030355Y024183D03*
X015855Y026683D03*
X013855Y026183D03*
X010605Y029183D03*
X003855Y029683D03*
X012605Y022433D03*
X047605Y036183D03*
X050355Y035933D03*
X051355Y035433D03*
X044355Y038933D03*
X050355Y041683D03*
X048355Y043433D03*
X049355Y044183D03*
X057855Y041933D03*
X079105Y034433D03*
X080855Y037183D03*
X080105Y038433D03*
X079855Y030933D03*
D21*
X004855Y001683D02*
X002605Y003933D01*
X001855Y003933D01*
X001855Y019183D01*
X002105Y019433D01*
X002355Y019433D01*
X004105Y021183D01*
X004355Y021433D01*
X006605Y020683D02*
X009605Y020683D01*
X009855Y020933D01*
X009855Y024683D01*
X016605Y024683D01*
X016855Y024933D01*
X016855Y026183D01*
X022855Y026183D01*
X023855Y025183D01*
X024605Y025183D01*
X025105Y025683D01*
X025355Y025933D01*
X025605Y025183D02*
X026605Y025183D01*
X027105Y025683D01*
X027355Y025933D01*
X026355Y024933D02*
X029355Y024933D01*
X029605Y024683D01*
X036855Y024683D01*
X036855Y025933D01*
X037105Y026183D01*
X039605Y026183D01*
X040105Y025683D01*
X040355Y025433D01*
X039105Y024683D02*
X042855Y024683D01*
X043105Y024433D01*
X060355Y024433D01*
X061105Y025183D01*
X061355Y025433D01*
X061605Y025683D01*
X062105Y026183D01*
X068605Y026183D01*
X069355Y025433D02*
X069605Y025433D01*
X070105Y025433D01*
X071105Y024433D01*
X071355Y024433D01*
X071605Y024433D01*
X088105Y024433D01*
X091105Y021433D01*
X091355Y021433D01*
X091355Y019433D02*
X091105Y019433D01*
X088605Y019433D01*
X088355Y019433D01*
X087355Y019433D02*
X087105Y019433D01*
X083355Y023183D01*
X079105Y023183D01*
X078605Y022683D01*
X078355Y022433D01*
X078105Y021683D02*
X077605Y022183D01*
X077355Y022433D01*
X076355Y022433D02*
X076105Y022683D01*
X074855Y023933D01*
X058105Y023933D01*
X057855Y024183D01*
X042355Y024183D01*
X042605Y023933D02*
X042355Y023683D01*
X034855Y023683D01*
X034605Y023933D01*
X036855Y023183D02*
X037605Y022433D01*
X036855Y023183D02*
X025855Y023183D01*
X025855Y021933D01*
X025605Y021683D01*
X024855Y021683D01*
X025605Y021183D02*
X026355Y021933D01*
X026355Y022433D01*
X025355Y022433D02*
X025105Y022683D01*
X024605Y023183D01*
X020855Y023183D01*
X019605Y021933D01*
X019105Y021933D01*
X018855Y021683D01*
X018855Y018933D01*
X014105Y018933D01*
X013605Y018433D01*
X013355Y018433D01*
X013355Y017433D02*
X013605Y017433D01*
X014105Y016933D01*
X017605Y016933D01*
X018105Y017433D01*
X018355Y017433D01*
X017355Y017933D02*
X026855Y017933D01*
X026855Y020433D01*
X034105Y020433D01*
X035605Y021933D01*
X042105Y021933D01*
X042105Y021433D02*
X041605Y020933D01*
X041105Y020933D01*
X036605Y020933D01*
X036105Y021433D01*
X035855Y021433D01*
X035855Y020433D02*
X036105Y020433D01*
X036605Y019933D01*
X039605Y019933D01*
X040105Y020433D01*
X040355Y020433D01*
X041105Y019933D02*
X041855Y019933D01*
X042355Y020433D01*
X048355Y020433D01*
X048855Y020933D01*
X048355Y020933D02*
X048105Y020683D01*
X042105Y020683D01*
X042105Y021433D02*
X051105Y021433D01*
X051355Y021183D01*
X051855Y021683D02*
X046105Y021683D01*
X045605Y022183D01*
X045355Y022433D01*
X048605Y023183D02*
X040105Y023183D01*
X039855Y022933D01*
X039105Y024683D02*
X038605Y025183D01*
X038355Y025433D01*
X037855Y024433D02*
X030605Y024433D01*
X030355Y024183D01*
X026355Y024933D02*
X025355Y023933D01*
X024355Y023933D01*
X025105Y024683D02*
X025605Y025183D01*
X025105Y024683D02*
X018105Y024683D01*
X017605Y025183D01*
X017355Y025433D01*
X016355Y025433D02*
X016105Y025183D01*
X015605Y025183D01*
X015355Y025433D01*
X014605Y025683D02*
X014355Y025433D01*
X014605Y025683D02*
X015105Y026183D01*
X015855Y026183D01*
X016605Y026933D01*
X026355Y026933D01*
X029105Y027433D02*
X029855Y026683D01*
X037355Y026683D01*
X038105Y026683D02*
X041855Y026683D01*
X042105Y026433D01*
X049355Y026433D01*
X050105Y025683D01*
X050355Y025433D01*
X050855Y024933D02*
X050855Y026683D01*
X045855Y026683D01*
X045355Y027183D01*
X030355Y027183D01*
X030105Y027683D02*
X029855Y027683D01*
X014105Y027683D01*
X013605Y028183D01*
X013355Y028433D01*
X013105Y028433D01*
X012105Y028433D01*
X011355Y027683D01*
X005105Y027683D01*
X004605Y028183D01*
X004355Y028433D01*
X003605Y028183D02*
X003355Y028433D01*
X003605Y028183D02*
X006105Y025683D01*
X006355Y025433D01*
X006105Y024683D02*
X005605Y025183D01*
X005355Y025433D01*
X006105Y024683D02*
X008605Y024683D01*
X009105Y025183D01*
X009355Y025433D01*
X008605Y025683D02*
X008355Y025433D01*
X008105Y025183D01*
X007605Y025183D01*
X007355Y025433D01*
X008605Y025683D02*
X009355Y026433D01*
X013605Y026433D01*
X013855Y026183D01*
X015855Y026683D02*
X016605Y027433D01*
X029105Y027433D01*
X030105Y027683D02*
X031605Y029183D01*
X045605Y029183D01*
X046105Y028683D01*
X046355Y028433D01*
X046605Y028683D01*
X047355Y029433D01*
X051355Y029433D01*
X051605Y029683D01*
X056855Y029683D01*
X057105Y029433D01*
X071355Y029433D01*
X071855Y029933D01*
X073605Y029933D01*
X074105Y030433D01*
X086105Y030433D01*
X086355Y030433D01*
X087355Y027433D02*
X087605Y027183D01*
X088105Y027183D01*
X088355Y027433D01*
X079855Y030933D02*
X079105Y031683D01*
X063105Y031683D01*
X062605Y032183D01*
X061105Y032183D01*
X060605Y031683D01*
X060355Y031433D01*
X062355Y031433D02*
X062605Y031183D01*
X068605Y031183D01*
X069105Y030683D01*
X069355Y030433D01*
X067105Y032933D02*
X058355Y032933D01*
X058105Y032683D01*
X049605Y032683D01*
X049355Y032933D01*
X048855Y032933D01*
X048605Y033183D01*
X042605Y033183D01*
X042105Y032683D01*
X032355Y032683D01*
X032855Y032183D02*
X030105Y032183D01*
X029605Y031683D01*
X029355Y031433D01*
X028855Y030683D02*
X026605Y030683D01*
X027105Y031183D01*
X027355Y031433D01*
X026605Y030683D02*
X022855Y030683D01*
X022355Y031183D01*
X023855Y032683D02*
X017605Y032683D01*
X015355Y034433D02*
X015105Y034183D01*
X014605Y034183D01*
X014355Y034433D01*
X016855Y036683D02*
X023605Y036683D01*
X024105Y037183D01*
X024355Y037433D01*
X026355Y036433D02*
X027105Y037183D01*
X027355Y037433D01*
X026605Y038183D02*
X028605Y038183D01*
X028855Y037933D01*
X028855Y035183D01*
X037105Y035183D01*
X040605Y035183D01*
X041105Y034683D01*
X041355Y034433D01*
X041605Y034683D01*
X042355Y035433D01*
X050355Y035433D01*
X050855Y035933D01*
X057855Y035933D01*
X057855Y033933D01*
X058105Y033683D01*
X059605Y033683D01*
X060105Y034183D01*
X060355Y034433D01*
X060855Y033933D02*
X060855Y035183D01*
X060105Y035183D01*
X059605Y034683D01*
X059355Y034433D01*
X060355Y033433D02*
X060855Y033933D01*
X060855Y033433D02*
X060855Y033183D01*
X066855Y033183D01*
X067605Y033933D01*
X094105Y033933D01*
X094105Y014433D01*
X092605Y012933D01*
X091105Y012933D01*
X090855Y012683D01*
X081105Y012683D01*
X080605Y013183D01*
X080355Y013433D01*
X079855Y013933D02*
X079855Y011683D01*
X087855Y011683D01*
X087855Y010183D01*
X088355Y009683D01*
X088355Y009433D01*
X087855Y008683D02*
X085355Y008683D01*
X084605Y009433D01*
X084355Y009433D01*
X086355Y009433D02*
X086605Y009433D01*
X087105Y008933D01*
X090605Y008933D01*
X091105Y009433D01*
X091355Y009433D01*
X091355Y011433D02*
X091355Y011683D01*
X087855Y011683D01*
X091355Y013433D02*
X091605Y013433D01*
X092105Y013933D01*
X092605Y013933D01*
X093105Y014433D01*
X093105Y018933D01*
X087105Y018933D01*
X086605Y019433D01*
X086355Y019433D01*
X091355Y017433D02*
X091605Y017433D01*
X091855Y017433D01*
X091855Y015183D01*
X091605Y014933D01*
X091105Y014933D01*
X090105Y013933D01*
X087105Y013933D01*
X086605Y014433D01*
X086355Y014433D01*
X086605Y014933D02*
X087105Y014433D01*
X087355Y014433D01*
X087605Y014433D01*
X088105Y014433D01*
X088355Y014433D01*
X088605Y014433D01*
X090105Y014433D01*
X091105Y015433D01*
X091355Y015433D01*
X086605Y014933D02*
X081605Y014933D01*
X080855Y015683D01*
X080355Y015933D02*
X080355Y016433D01*
X080355Y015933D02*
X080355Y014683D01*
X083355Y014683D01*
X083355Y014433D01*
X079855Y013933D02*
X077605Y016183D01*
X077355Y016433D01*
X076355Y016433D02*
X076355Y015933D01*
X072855Y012433D01*
X072855Y002933D01*
X064355Y002933D01*
X062855Y004433D01*
X048355Y004433D01*
X047605Y004933D02*
X071605Y004933D01*
X071855Y005183D01*
X071855Y013933D01*
X068105Y013933D01*
X067605Y014433D01*
X067355Y014433D01*
X067355Y013433D02*
X067105Y013433D01*
X066605Y012933D01*
X070605Y012933D01*
X071105Y013433D01*
X071355Y013433D01*
X071855Y013933D02*
X071855Y014433D01*
X071605Y014433D01*
X071355Y014433D01*
X070605Y014933D02*
X065855Y014933D01*
X064605Y013683D01*
X064355Y013433D01*
X066355Y012683D02*
X066605Y012933D01*
X066355Y012683D02*
X060105Y012683D01*
X059605Y013183D01*
X059355Y013433D01*
X058605Y014433D02*
X048355Y014433D01*
X047605Y013683D01*
X047355Y013433D01*
X046605Y013683D02*
X046355Y013433D01*
X046605Y013683D02*
X047605Y014683D01*
X052355Y014683D01*
X052855Y015183D01*
X060105Y015183D01*
X061105Y016183D01*
X061355Y016433D01*
X063355Y016433D02*
X063605Y016183D01*
X064105Y015683D01*
X066355Y015683D01*
X066605Y015933D01*
X070605Y015933D01*
X071105Y016433D01*
X071355Y016433D01*
X070605Y016933D02*
X068105Y016933D01*
X067605Y017433D01*
X067355Y017433D01*
X067105Y017433D01*
X059355Y017433D01*
X058605Y016683D01*
X058355Y016433D01*
X057605Y016683D02*
X057355Y016433D01*
X057605Y016683D02*
X058105Y017183D01*
X051605Y017183D01*
X050855Y017933D01*
X049105Y018683D02*
X048605Y019183D01*
X048355Y019433D01*
X047605Y019183D02*
X047355Y019433D01*
X047605Y019183D02*
X048355Y018433D01*
X054355Y018433D01*
X054605Y018183D01*
X058105Y017183D02*
X058855Y017933D01*
X061855Y017933D01*
X062605Y018683D02*
X049105Y018683D01*
X048605Y018183D02*
X042355Y018183D01*
X041605Y018933D01*
X040855Y018933D01*
X040605Y018433D02*
X040355Y018433D01*
X040605Y018433D02*
X041105Y017933D01*
X036605Y017933D01*
X036105Y018433D01*
X035855Y018433D01*
X036605Y018933D02*
X039605Y018933D01*
X040105Y019433D01*
X040355Y019433D01*
X040605Y019433D01*
X041105Y019933D01*
X041105Y020933D02*
X040605Y021433D01*
X040355Y021433D01*
X043605Y019933D02*
X044855Y018683D01*
X046605Y018683D01*
X046855Y018933D01*
X046855Y020183D01*
X050105Y020183D01*
X050355Y020433D01*
X059355Y020433D01*
X061105Y022183D01*
X061355Y022433D01*
X063355Y022433D02*
X063605Y022183D01*
X064355Y021433D01*
X067105Y021433D01*
X067355Y021433D01*
X067605Y021433D01*
X068105Y020933D01*
X070605Y020933D01*
X071105Y021433D01*
X071355Y021433D01*
X071355Y020433D02*
X071105Y020433D01*
X070605Y019933D01*
X068105Y019933D01*
X067605Y020433D01*
X067355Y020433D01*
X064355Y019433D02*
X064355Y018933D01*
X070605Y018933D01*
X071105Y019433D01*
X071355Y019433D01*
X071355Y018433D02*
X071105Y018433D01*
X070605Y017933D01*
X068105Y017933D01*
X067605Y018433D01*
X067355Y018433D01*
X067355Y018683D01*
X063855Y018683D01*
X063855Y019933D01*
X063605Y020183D01*
X060105Y020183D01*
X059605Y019683D01*
X059355Y019433D01*
X062605Y018683D02*
X063105Y019183D01*
X063355Y019433D01*
X066605Y015933D02*
X067105Y016433D01*
X067355Y016433D01*
X067355Y015433D02*
X067105Y015433D01*
X066355Y015433D01*
X065855Y014933D01*
X067355Y012433D02*
X067605Y012433D01*
X068105Y011933D01*
X070605Y011933D01*
X071105Y012433D01*
X071355Y012433D01*
X071355Y011433D02*
X071105Y011433D01*
X070605Y010933D01*
X068105Y010933D01*
X067605Y011433D01*
X067355Y011433D01*
X067105Y011433D01*
X059355Y011433D01*
X058605Y010683D01*
X058355Y010433D01*
X057855Y009183D02*
X047855Y009183D01*
X048605Y009683D02*
X044855Y009683D01*
X044105Y008933D01*
X041105Y008933D01*
X036605Y008933D01*
X036105Y009433D01*
X035855Y009433D01*
X035355Y008933D02*
X031855Y008933D01*
X031355Y008433D01*
X028355Y008433D01*
X027605Y007683D01*
X027355Y007433D01*
X026355Y007433D02*
X026105Y007183D01*
X025605Y006683D01*
X021105Y006683D01*
X019855Y007933D01*
X018105Y007933D01*
X017605Y007433D01*
X015355Y007433D01*
X014105Y006933D02*
X017605Y006933D01*
X018105Y007433D01*
X018355Y007433D01*
X017605Y007933D02*
X014105Y007933D01*
X013605Y008433D01*
X013355Y008433D01*
X012605Y008933D02*
X017605Y008933D01*
X018105Y009433D01*
X018355Y009433D01*
X019105Y008933D02*
X023855Y008933D01*
X025105Y010183D01*
X025355Y010433D01*
X026855Y009433D02*
X031855Y009433D01*
X032355Y009433D01*
X032855Y009433D01*
X033355Y009933D01*
X039605Y009933D01*
X040105Y010433D01*
X040355Y010433D01*
X041105Y010933D02*
X041605Y010933D01*
X041855Y011183D01*
X049605Y011183D01*
X050105Y010683D01*
X050355Y010433D01*
X051105Y010683D02*
X051355Y010433D01*
X051105Y010683D02*
X050105Y011683D01*
X042855Y011683D01*
X041605Y012933D01*
X041105Y012933D01*
X040605Y013433D01*
X040355Y013433D01*
X040105Y013433D01*
X039605Y012933D01*
X036605Y012933D01*
X036105Y013433D01*
X035855Y013433D01*
X035605Y013433D01*
X033855Y013433D01*
X034605Y012933D02*
X031855Y012933D01*
X031605Y013183D01*
X029105Y013183D01*
X028605Y012683D01*
X028355Y012433D01*
X027855Y012933D02*
X027855Y011683D01*
X028855Y011683D01*
X029105Y011433D01*
X031855Y011433D01*
X032355Y011433D01*
X031855Y011933D02*
X031605Y011683D01*
X030105Y011683D01*
X029605Y012183D01*
X029355Y012433D01*
X028855Y013933D02*
X027855Y012933D01*
X027605Y013183D02*
X027105Y013183D01*
X026855Y012933D01*
X026855Y009433D01*
X028355Y010433D02*
X028605Y010183D01*
X029105Y009683D01*
X031105Y009683D01*
X031855Y010433D01*
X032355Y010433D01*
X032855Y010433D01*
X034355Y011933D01*
X039605Y011933D01*
X040105Y012433D01*
X040355Y012433D01*
X040355Y011433D02*
X040605Y011433D01*
X041105Y010933D01*
X036605Y010933D01*
X036105Y011433D01*
X035855Y011433D01*
X035855Y010433D02*
X035605Y010433D01*
X033855Y010433D01*
X033355Y009933D01*
X032855Y008433D02*
X035605Y008433D01*
X035855Y008433D01*
X036105Y008433D01*
X036605Y007933D01*
X039605Y007933D01*
X040105Y008433D01*
X040355Y008433D01*
X041105Y007933D02*
X041605Y007933D01*
X042105Y008433D01*
X048105Y008433D01*
X048355Y008683D01*
X048605Y007683D02*
X049605Y008683D01*
X055855Y008683D01*
X056105Y008433D02*
X055855Y008183D01*
X055605Y008433D01*
X050355Y008433D01*
X049605Y007683D01*
X049355Y007433D01*
X048605Y007683D02*
X048355Y007433D01*
X047355Y007433D02*
X047105Y007683D01*
X046605Y008183D01*
X045855Y008183D01*
X045855Y006933D01*
X046355Y006433D01*
X063855Y006433D01*
X063855Y007933D01*
X061605Y010183D01*
X061355Y010433D01*
X063355Y010433D02*
X063605Y010183D01*
X064355Y009433D01*
X067105Y009433D01*
X067355Y009433D01*
X067605Y009433D01*
X068105Y008933D01*
X070605Y008933D01*
X071105Y009433D01*
X071355Y009433D01*
X070605Y009933D02*
X071105Y010433D01*
X071355Y010433D01*
X070605Y009933D02*
X068105Y009933D01*
X067605Y010433D01*
X067355Y010433D01*
X067355Y008433D02*
X067605Y008433D01*
X068105Y007933D01*
X070605Y007933D01*
X071105Y008433D01*
X071355Y008433D01*
X071355Y007433D02*
X071105Y007433D01*
X070605Y006933D01*
X064355Y006933D01*
X064355Y007433D01*
X064605Y007433D01*
X067105Y007433D01*
X067355Y007433D01*
X068105Y005933D02*
X070605Y005933D01*
X071105Y005433D01*
X071355Y005433D01*
X068105Y005933D02*
X067605Y005433D01*
X067355Y005433D01*
X067105Y005433D01*
X061355Y005433D01*
X062605Y006683D02*
X047105Y006683D01*
X046605Y007183D01*
X046355Y007433D01*
X049855Y005933D02*
X041105Y005933D01*
X040605Y005433D01*
X040355Y005433D01*
X040105Y005433D01*
X039605Y004933D01*
X036605Y004933D01*
X036105Y005433D01*
X035855Y005433D01*
X036605Y005933D02*
X036105Y006433D01*
X035855Y006433D01*
X035605Y006433D01*
X033855Y006433D01*
X032855Y007433D01*
X032355Y007433D01*
X032355Y006433D02*
X032855Y006433D01*
X034855Y004433D01*
X035605Y004433D01*
X035855Y004433D01*
X036105Y004433D01*
X036605Y003933D01*
X039605Y003933D01*
X040105Y004433D01*
X040355Y004433D01*
X039605Y005933D02*
X036605Y005933D01*
X036605Y006933D02*
X039605Y006933D01*
X040105Y007433D01*
X040355Y007433D01*
X040605Y007433D01*
X041105Y007933D01*
X041105Y008933D02*
X040605Y009433D01*
X040355Y009433D01*
X036605Y006933D02*
X036105Y007433D01*
X035855Y007433D01*
X032855Y008433D02*
X032355Y008433D01*
X032355Y006433D02*
X031855Y006433D01*
X020855Y006433D01*
X021855Y007433D02*
X020855Y008433D01*
X019105Y008933D02*
X018605Y008433D01*
X018355Y008433D01*
X018105Y008433D01*
X017605Y007933D01*
X018105Y006433D02*
X018355Y006433D01*
X018605Y006433D01*
X019105Y005933D01*
X022855Y005933D01*
X023105Y006183D01*
X023605Y006183D01*
X024105Y005683D01*
X024355Y005433D01*
X023355Y005433D02*
X023105Y005433D01*
X022105Y005433D01*
X021605Y004933D01*
X019105Y004933D01*
X018605Y004433D01*
X018355Y004433D01*
X018105Y004433D01*
X017855Y004433D01*
X017355Y003933D01*
X014105Y003933D01*
X013605Y004433D01*
X013355Y004433D01*
X014105Y004933D02*
X013605Y005433D01*
X013355Y005433D01*
X013105Y005433D01*
X011355Y007183D01*
X006855Y007183D01*
X006855Y005933D01*
X006605Y005683D01*
X005105Y005683D01*
X004605Y006183D01*
X004355Y006433D01*
X005355Y006433D02*
X005605Y006683D01*
X006605Y007683D01*
X011355Y007683D01*
X012605Y008933D01*
X013105Y009433D01*
X013355Y009433D01*
X014105Y009933D02*
X017605Y009933D01*
X018105Y010433D01*
X018355Y010433D01*
X018605Y010433D01*
X019105Y010933D01*
X020355Y010933D01*
X021855Y012433D01*
X018355Y012433D02*
X018105Y012433D01*
X017605Y011933D01*
X014105Y011933D01*
X013605Y012433D01*
X013355Y012433D01*
X014105Y012933D02*
X013605Y013433D01*
X013355Y013433D01*
X014105Y012933D02*
X017605Y012933D01*
X018105Y013433D01*
X018355Y013433D01*
X017605Y013933D02*
X018105Y014433D01*
X018355Y014433D01*
X018605Y014433D01*
X019105Y014933D01*
X019605Y014933D01*
X020105Y015433D01*
X022355Y015433D01*
X023855Y016933D01*
X026355Y015433D02*
X026605Y015683D01*
X027355Y016433D01*
X029105Y016433D01*
X029355Y016433D01*
X028105Y018183D02*
X033105Y018183D01*
X035855Y017433D02*
X036105Y017433D01*
X036605Y016933D01*
X039605Y016933D01*
X040105Y017433D01*
X040355Y017433D01*
X041105Y017933D02*
X047855Y017933D01*
X049105Y016683D01*
X049355Y016433D01*
X049105Y015683D02*
X048605Y016183D01*
X048355Y016433D01*
X048105Y016683D01*
X047605Y017183D01*
X045105Y017183D01*
X044855Y016933D01*
X041105Y016933D01*
X040605Y016433D01*
X040355Y016433D01*
X040105Y016433D01*
X039605Y015933D01*
X036605Y015933D01*
X036105Y016433D01*
X035855Y016433D01*
X035855Y015433D02*
X036105Y015433D01*
X036605Y014933D01*
X039605Y014933D01*
X040105Y015433D01*
X040355Y015433D01*
X040605Y015433D01*
X041105Y015933D01*
X041605Y015933D01*
X042105Y016433D01*
X040355Y014433D02*
X040105Y014433D01*
X039605Y013933D01*
X036605Y013933D01*
X036105Y014433D01*
X035855Y014433D01*
X035605Y014433D01*
X035105Y013933D01*
X028855Y013933D01*
X028355Y013933D02*
X027605Y013183D01*
X031855Y011933D02*
X033105Y011933D01*
X034355Y011933D02*
X034855Y012433D01*
X035605Y012433D01*
X035855Y012433D01*
X028105Y018183D02*
X027855Y018433D01*
X025605Y021183D02*
X022855Y021183D01*
X021355Y019683D01*
X018855Y018933D02*
X018855Y018683D01*
X018355Y018683D01*
X018355Y018433D01*
X017355Y017933D02*
X016855Y018433D01*
X018105Y019433D02*
X018355Y019433D01*
X018105Y019433D02*
X017605Y019933D01*
X014105Y019933D01*
X013605Y019433D01*
X013355Y019433D01*
X013355Y020433D02*
X013605Y020433D01*
X014105Y020933D01*
X017605Y020933D01*
X018105Y020433D01*
X018355Y020433D01*
X018355Y021433D02*
X018105Y021433D01*
X017605Y021933D01*
X014105Y021933D01*
X013605Y021433D01*
X013355Y021433D01*
X012605Y022433D02*
X013605Y023433D01*
X048855Y023433D01*
X052355Y023433D01*
X050855Y024933D02*
X050605Y024683D01*
X049105Y024683D01*
X048605Y025183D01*
X048355Y025433D01*
X047355Y025433D02*
X047105Y025183D01*
X046605Y024683D01*
X043355Y024683D01*
X041855Y026183D01*
X039105Y028183D02*
X038605Y027683D01*
X035855Y027683D01*
X035355Y026433D02*
X032105Y026433D01*
X031855Y026183D01*
X035355Y026433D02*
X036105Y025683D01*
X036355Y025433D01*
X039105Y028183D02*
X039355Y028433D01*
X042355Y031433D02*
X042605Y031183D01*
X045355Y031183D01*
X047605Y032433D02*
X034105Y032433D01*
X032105Y030433D01*
X029105Y030433D01*
X028855Y030683D01*
X028855Y030183D02*
X026355Y030183D01*
X025355Y029933D02*
X025355Y029683D01*
X003855Y029683D01*
X003855Y029183D02*
X005605Y029183D01*
X006105Y028683D01*
X006355Y028433D01*
X003855Y029183D02*
X001855Y031183D01*
X001855Y039433D01*
X011105Y039433D01*
X013105Y041433D01*
X027355Y041433D01*
X028105Y040683D01*
X028355Y040433D01*
X028605Y040683D01*
X029105Y041183D01*
X060605Y041183D01*
X061105Y040683D01*
X061355Y040433D01*
X061855Y040933D02*
X061855Y038683D01*
X062605Y038683D01*
X074855Y038683D01*
X075105Y038433D01*
X080105Y038433D01*
X079855Y038183D02*
X066855Y038183D01*
X066605Y038433D01*
X063355Y038433D01*
X062605Y037683D01*
X062355Y037433D01*
X061605Y037683D02*
X061355Y037433D01*
X061605Y037683D02*
X062605Y038683D01*
X059355Y037433D02*
X059105Y037683D01*
X058355Y038433D01*
X052355Y038433D01*
X037355Y038433D01*
X036605Y037683D01*
X036355Y037433D01*
X036355Y038433D02*
X035355Y038433D01*
X036355Y038433D02*
X036605Y038683D01*
X040105Y038683D01*
X040855Y039433D01*
X047355Y039433D01*
X048105Y040183D01*
X048355Y040433D01*
X049855Y038933D02*
X044355Y038933D01*
X040355Y040433D02*
X040105Y040183D01*
X039605Y039683D01*
X037105Y039683D01*
X036605Y040183D01*
X036355Y040433D01*
X036355Y038933D02*
X027855Y038933D01*
X026605Y040183D01*
X026355Y040433D01*
X024605Y040183D02*
X024355Y040433D01*
X024105Y040683D01*
X023605Y041183D01*
X016105Y041183D01*
X015605Y040683D01*
X015355Y040433D01*
X014105Y039683D02*
X017605Y039683D01*
X018105Y040183D01*
X018355Y040433D01*
X015355Y042683D02*
X050605Y042683D01*
X051605Y041683D01*
X057605Y041683D01*
X057855Y041933D01*
X057355Y041933D02*
X057855Y042433D01*
X066355Y042433D01*
X068105Y040683D01*
X068355Y040433D01*
X069355Y037433D02*
X069105Y037183D01*
X068605Y036683D01*
X031105Y036683D01*
X030605Y037183D01*
X030355Y037433D01*
X026605Y038183D02*
X024605Y040183D01*
X025105Y041683D02*
X038355Y041683D01*
X038855Y041683D02*
X050355Y041683D01*
X050605Y042183D02*
X051355Y041433D01*
X061355Y041433D01*
X061855Y040933D01*
X057355Y041933D02*
X052105Y041933D01*
X051105Y042933D01*
X024855Y042933D01*
X024605Y043183D01*
X026605Y044183D02*
X049355Y044183D01*
X048355Y043433D02*
X048105Y043683D01*
X019605Y043683D01*
X024855Y041933D02*
X025105Y041683D01*
X033105Y042183D02*
X050605Y042183D01*
X051355Y040433D02*
X051105Y040183D01*
X049855Y038933D01*
X051605Y037683D02*
X052355Y038433D01*
X051605Y037683D02*
X051355Y037433D01*
X050355Y035933D02*
X050105Y035683D01*
X040355Y035683D01*
X040355Y036183D02*
X039855Y035683D01*
X038355Y035683D01*
X037105Y035183D02*
X036605Y034683D01*
X036355Y034433D01*
X037105Y034183D02*
X037355Y034433D01*
X037605Y034183D01*
X038105Y033683D01*
X041605Y033683D01*
X042105Y034183D01*
X042355Y034433D01*
X042105Y033183D02*
X044105Y035183D01*
X051105Y035183D01*
X051355Y035433D01*
X051355Y034433D02*
X051605Y034183D01*
X052105Y033683D01*
X054355Y033683D01*
X055105Y034433D01*
X056105Y034433D01*
X056355Y034433D01*
X060355Y033433D02*
X051855Y033433D01*
X051605Y033683D01*
X049105Y033683D01*
X048605Y034183D01*
X048355Y034433D01*
X048605Y033683D02*
X047105Y033683D01*
X046605Y034183D01*
X046355Y034433D01*
X048605Y033683D02*
X049105Y033183D01*
X060855Y033183D01*
X061605Y034183D02*
X062105Y033683D01*
X066855Y033683D01*
X067105Y033933D01*
X067605Y033433D02*
X067105Y032933D01*
X062855Y034933D02*
X061355Y036433D01*
X047855Y036433D01*
X047605Y036183D01*
X040355Y036183D01*
X037105Y034183D02*
X036355Y033433D01*
X025355Y033433D01*
X024605Y034183D01*
X024355Y034433D01*
X023855Y034933D02*
X024105Y035183D01*
X027605Y035183D01*
X028105Y034683D01*
X028355Y034433D01*
X026355Y036433D02*
X022355Y036433D01*
X020355Y034433D01*
X023855Y034933D02*
X023855Y032683D01*
X025355Y029683D02*
X028605Y029683D01*
X029105Y029183D01*
X029355Y028933D01*
X029855Y028433D02*
X029855Y029683D01*
X046355Y029683D01*
X047605Y028683D02*
X047355Y028433D01*
X047605Y028683D02*
X048105Y029183D01*
X056855Y029183D01*
X056605Y030683D02*
X053105Y030683D01*
X052605Y031183D01*
X052355Y031433D01*
X051355Y029933D02*
X049355Y029933D01*
X049105Y030183D01*
X033855Y030183D01*
X029855Y028433D02*
X029605Y028183D01*
X023855Y028183D01*
X023855Y028683D01*
X023355Y029183D01*
X018105Y029183D01*
X017605Y028683D01*
X017355Y028433D01*
X016355Y028433D02*
X016105Y028683D01*
X015605Y029183D01*
X010605Y029183D01*
X007355Y023433D02*
X006605Y023433D01*
X006355Y023433D01*
X007355Y023433D02*
X009105Y021683D01*
X009355Y021433D01*
X006605Y020683D02*
X004605Y018683D01*
X004355Y018433D01*
X013355Y016433D02*
X013605Y016433D01*
X014105Y015933D01*
X017605Y015933D01*
X018105Y016433D01*
X018355Y016433D01*
X018355Y015433D02*
X018105Y015433D01*
X017605Y014933D01*
X014105Y014933D01*
X013605Y015433D01*
X013355Y015433D01*
X013355Y014433D02*
X013605Y014433D01*
X014105Y013933D01*
X017605Y013933D01*
X018105Y011433D02*
X018355Y011433D01*
X018105Y011433D02*
X017605Y010933D01*
X014105Y010933D01*
X013605Y011433D01*
X013355Y011433D01*
X013355Y010433D02*
X013605Y010433D01*
X014105Y009933D01*
X013605Y007433D02*
X013355Y007433D01*
X013605Y007433D02*
X014105Y006933D01*
X013605Y006433D02*
X013355Y006433D01*
X013605Y006433D02*
X014105Y005933D01*
X017605Y005933D01*
X018105Y006433D01*
X018105Y005433D02*
X018355Y005433D01*
X018105Y005433D02*
X017605Y004933D01*
X014105Y004933D01*
X011855Y002933D02*
X009605Y005183D01*
X003355Y005183D01*
X002855Y005683D01*
X002855Y010433D01*
X006355Y010433D01*
X007105Y011183D01*
X007355Y011433D01*
X017855Y003933D02*
X034605Y003933D01*
X035855Y002683D01*
X050855Y002683D01*
X052105Y003933D01*
X062855Y003933D01*
X062605Y006683D02*
X063105Y007183D01*
X063355Y007433D01*
X058355Y008683D02*
X057855Y009183D01*
X057855Y008683D02*
X057605Y008433D01*
X056105Y008433D01*
X049355Y010433D02*
X049105Y010183D01*
X048605Y009683D01*
X048355Y012183D02*
X063355Y012183D01*
X058855Y014683D02*
X058605Y014433D01*
X056855Y012683D02*
X049105Y012683D01*
X048605Y013183D01*
X048355Y013433D01*
X049105Y015683D02*
X053855Y015683D01*
X054105Y015933D01*
X050355Y016433D02*
X050105Y016683D01*
X048605Y018183D01*
X049355Y019433D02*
X049605Y019683D01*
X050105Y020183D01*
X049355Y022433D02*
X049105Y022683D01*
X048605Y023183D01*
X051355Y025433D02*
X051605Y025683D01*
X052355Y026433D01*
X055605Y026433D01*
X055855Y026683D01*
X055605Y026933D02*
X050855Y026933D01*
X049605Y028183D01*
X049355Y028433D01*
X052605Y025683D02*
X053105Y026183D01*
X056605Y026183D01*
X057105Y025683D01*
X057355Y025433D01*
X057605Y023933D02*
X042605Y023933D01*
X036605Y018933D02*
X036105Y019433D01*
X035855Y019433D01*
X052355Y025433D02*
X052605Y025683D01*
X055605Y026933D02*
X055855Y027183D01*
X056355Y026683D01*
X076105Y026683D01*
X077855Y024933D01*
X081105Y022183D02*
X080605Y021683D01*
X078105Y021683D01*
X081105Y022183D02*
X081355Y022433D01*
X071355Y017433D02*
X071105Y017433D01*
X070605Y016933D01*
X071105Y015433D02*
X071355Y015433D01*
X071105Y015433D02*
X070605Y014933D01*
X087855Y008683D02*
X091105Y005433D01*
X091355Y005433D01*
X057855Y023683D02*
X057605Y023933D01*
X069355Y027433D02*
X069605Y027183D01*
X070105Y027183D01*
X070355Y027433D01*
X058355Y031433D02*
X058105Y031683D01*
X057355Y032433D01*
X049355Y032433D01*
X047855Y032683D02*
X047605Y032433D01*
X042105Y033183D02*
X038355Y033183D01*
X028355Y028933D02*
X028105Y028683D01*
X027605Y028683D01*
X027355Y028933D01*
X025355Y028933D02*
X025105Y028683D01*
X024605Y028683D01*
X024355Y028933D01*
X016105Y037183D02*
X016355Y037433D01*
X016105Y037183D02*
X015605Y037183D01*
X015355Y037433D01*
X014105Y039683D02*
X013605Y040183D01*
X013355Y040433D01*
X056605Y030683D02*
X057105Y031183D01*
X057355Y031433D01*
X061355Y034433D02*
X061605Y034183D01*
X062855Y034933D02*
X078605Y034933D01*
X079105Y034433D01*
X080855Y037183D02*
X079855Y038183D01*
X040355Y006433D02*
X040105Y006433D01*
X039605Y005933D01*
X045855Y003183D02*
X047605Y004933D01*
X046355Y001683D02*
X004855Y001683D01*
X011855Y002933D02*
X019605Y002933D01*
X020105Y003433D01*
X027355Y003433D01*
M02*
