%
M48
M72
T01C0.0320
T02C0.0360
T03C0.1250
%
T01
X7500Y2500
X7500Y5000
X7500Y6000
X7500Y7500
X7500Y8500
X7500Y10000
X7500Y11000
X7500Y12500
X7500Y13500
X7500Y15000
X7500Y16000
X7500Y17500
X7500Y18500
X7500Y20000
X7500Y21000
X7500Y22500
X7500Y23500
X10500Y26500
X10500Y29250
X8000Y32000
X7500Y32500
X7500Y33500
X7500Y35000
X7500Y36000
X7500Y37500
X7500Y38500
X7500Y40000
X7500Y41000
X7500Y42500
X7500Y43500
X7500Y45000
X7500Y46000
X8500Y45500
X7500Y47500
X7500Y48500
X7500Y50000
X7500Y51000
X8500Y51000
X10500Y47500
X12500Y45500
X12500Y51000
X9000Y32500
X7500Y30000
X19000Y28000
X19750Y28500
X20500Y28750
X20000Y27500
X19000Y26500
X21500Y25000
X22750Y25250
X23750Y23500
X22500Y27000
X23500Y28000
X22500Y28500
X22000Y29500
X21000Y30000
X23500Y31750
X32500Y30500
X32500Y27500
X32500Y24500
X32500Y24500
X35500Y24500
X35500Y24500
X35500Y27500
X35500Y30500
T02
X39500Y28500
X39500Y27500
X39500Y26500
X39500Y25500
X39500Y24500
X40500Y24500
X40500Y25500
X40500Y26500
X40500Y27500
X40500Y28500
X8500Y31000
X7500Y31000
X8500Y20500
X8500Y19500
X8500Y3500
X7500Y3500
X8500Y47000
X8500Y48000
T03
X48000Y50250
X48000Y30250
X48000Y22750
X48000Y2750
M30
