G75*
%MOIN*%
%OFA0B0*%
%FSLAX24Y24*%
%IPPOS*%
%LPD*%
%AMOC8*
5,1,8,0,0,1.08239X$1,22.5*
%
%ADD10C,0.0060*%
%ADD11C,0.0020*%
%ADD12C,0.0050*%
%ADD13C,0.0070*%
%ADD14C,0.0100*%
%ADD15C,0.0120*%
%ADD16C,0.0080*%
%ADD17C,0.0040*%
%ADD18C,0.0000*%
%ADD19R,0.0340X0.0240*%
D10*
X007000Y003100D02*
X007000Y003900D01*
X007100Y004000D01*
X007900Y004000D01*
X008000Y003900D01*
X008100Y004000D01*
X008900Y004000D01*
X009000Y003900D01*
X009000Y003100D01*
X008900Y003000D01*
X008100Y003000D01*
X008000Y003100D01*
X007900Y003000D01*
X007100Y003000D01*
X007000Y003100D01*
X008100Y019000D02*
X008000Y019100D01*
X008000Y019900D01*
X008100Y020000D01*
X008000Y020100D01*
X008000Y020900D01*
X008100Y021000D01*
X008900Y021000D01*
X009000Y020900D01*
X009000Y020100D01*
X008900Y020000D01*
X009000Y019900D01*
X009000Y019100D01*
X008900Y019000D01*
X008100Y019000D01*
X008100Y030500D02*
X008900Y030500D01*
X009000Y030600D01*
X009000Y031400D01*
X008900Y031500D01*
X008100Y031500D01*
X008000Y031400D01*
X007900Y031500D01*
X007100Y031500D01*
X007000Y031400D01*
X007000Y030600D01*
X007100Y030500D01*
X007900Y030500D01*
X008000Y030600D01*
X008100Y030500D01*
X009350Y045050D02*
X009500Y045050D01*
X009550Y045100D01*
X011450Y045100D01*
X011500Y045050D01*
X011650Y045050D01*
X011667Y045052D01*
X011684Y045056D01*
X011700Y045063D01*
X011714Y045073D01*
X011727Y045086D01*
X011737Y045100D01*
X011744Y045116D01*
X011748Y045133D01*
X011750Y045150D01*
X011750Y045850D01*
X011748Y045867D01*
X011744Y045884D01*
X011737Y045900D01*
X011727Y045914D01*
X011714Y045927D01*
X011700Y045937D01*
X011684Y045944D01*
X011667Y045948D01*
X011650Y045950D01*
X011500Y045950D01*
X011450Y045900D01*
X009550Y045900D01*
X009500Y045950D01*
X009350Y045950D01*
X009333Y045948D01*
X009316Y045944D01*
X009300Y045937D01*
X009286Y045927D01*
X009273Y045914D01*
X009263Y045900D01*
X009256Y045884D01*
X009252Y045867D01*
X009250Y045850D01*
X009250Y045150D01*
X009252Y045133D01*
X009256Y045116D01*
X009263Y045100D01*
X009273Y045086D01*
X009286Y045073D01*
X009300Y045063D01*
X009316Y045056D01*
X009333Y045052D01*
X009350Y045050D01*
X008900Y046500D02*
X008100Y046500D01*
X008000Y046600D01*
X008000Y047400D01*
X008100Y047500D01*
X008000Y047600D01*
X008000Y048400D01*
X008100Y048500D01*
X008900Y048500D01*
X009000Y048400D01*
X009000Y047600D01*
X008900Y047500D01*
X009000Y047400D01*
X009000Y046600D01*
X008900Y046500D01*
X009350Y050550D02*
X009500Y050550D01*
X009550Y050600D01*
X011450Y050600D01*
X011500Y050550D01*
X011650Y050550D01*
X011667Y050552D01*
X011684Y050556D01*
X011700Y050563D01*
X011714Y050573D01*
X011727Y050586D01*
X011737Y050600D01*
X011744Y050616D01*
X011748Y050633D01*
X011750Y050650D01*
X011750Y051350D01*
X011748Y051367D01*
X011744Y051384D01*
X011737Y051400D01*
X011727Y051414D01*
X011714Y051427D01*
X011700Y051437D01*
X011684Y051444D01*
X011667Y051448D01*
X011650Y051450D01*
X011500Y051450D01*
X011450Y051400D01*
X009550Y051400D01*
X009500Y051450D01*
X009350Y051450D01*
X009333Y051448D01*
X009316Y051444D01*
X009300Y051437D01*
X009286Y051427D01*
X009273Y051414D01*
X009263Y051400D01*
X009256Y051384D01*
X009252Y051367D01*
X009250Y051350D01*
X009250Y050650D01*
X009252Y050633D01*
X009256Y050616D01*
X009263Y050600D01*
X009273Y050586D01*
X009286Y050573D01*
X009300Y050563D01*
X009316Y050556D01*
X009333Y050552D01*
X009350Y050550D01*
X031750Y031000D02*
X031750Y024000D01*
X031650Y023900D02*
X031650Y028100D01*
X031652Y028130D01*
X031657Y028160D01*
X031666Y028189D01*
X031679Y028216D01*
X031694Y028242D01*
X031713Y028266D01*
X031734Y028287D01*
X031758Y028306D01*
X031784Y028321D01*
X031811Y028334D01*
X031840Y028343D01*
X031870Y028348D01*
X031900Y028350D01*
X036100Y028350D01*
X036130Y028348D01*
X036160Y028343D01*
X036189Y028334D01*
X036216Y028321D01*
X036242Y028306D01*
X036266Y028287D01*
X036287Y028266D01*
X036306Y028242D01*
X036321Y028216D01*
X036334Y028189D01*
X036343Y028160D01*
X036348Y028130D01*
X036350Y028100D01*
X036350Y023900D01*
X036250Y024000D02*
X036250Y031000D01*
X036248Y031030D01*
X036243Y031060D01*
X036234Y031089D01*
X036221Y031116D01*
X036206Y031142D01*
X036187Y031166D01*
X036166Y031187D01*
X036142Y031206D01*
X036116Y031221D01*
X036089Y031234D01*
X036060Y031243D01*
X036030Y031248D01*
X036000Y031250D01*
X032000Y031250D01*
X031970Y031248D01*
X031940Y031243D01*
X031911Y031234D01*
X031884Y031221D01*
X031858Y031206D01*
X031834Y031187D01*
X031813Y031166D01*
X031794Y031142D01*
X031779Y031116D01*
X031766Y031089D01*
X031757Y031060D01*
X031752Y031030D01*
X031750Y031000D01*
X032500Y028500D02*
X032500Y027870D01*
X032500Y027130D02*
X032500Y026500D01*
X032500Y026370D02*
X032500Y027000D01*
X032500Y025630D02*
X032500Y025000D01*
X031750Y024000D02*
X031752Y023970D01*
X031757Y023940D01*
X031766Y023911D01*
X031779Y023884D01*
X031794Y023858D01*
X031813Y023834D01*
X031834Y023813D01*
X031858Y023794D01*
X031884Y023779D01*
X031911Y023766D01*
X031940Y023757D01*
X031970Y023752D01*
X032000Y023750D01*
X036000Y023750D01*
X036100Y023650D02*
X031900Y023650D01*
X031870Y023652D01*
X031840Y023657D01*
X031811Y023666D01*
X031784Y023679D01*
X031758Y023694D01*
X031734Y023713D01*
X031713Y023734D01*
X031694Y023758D01*
X031679Y023784D01*
X031666Y023811D01*
X031657Y023840D01*
X031652Y023870D01*
X031650Y023900D01*
X036000Y023750D02*
X036030Y023752D01*
X036060Y023757D01*
X036089Y023766D01*
X036116Y023779D01*
X036142Y023794D01*
X036166Y023813D01*
X036187Y023834D01*
X036206Y023858D01*
X036221Y023884D01*
X036234Y023911D01*
X036243Y023940D01*
X036248Y023970D01*
X036250Y024000D01*
X036350Y023900D02*
X036348Y023870D01*
X036343Y023840D01*
X036334Y023811D01*
X036321Y023784D01*
X036306Y023758D01*
X036287Y023734D01*
X036266Y023713D01*
X036242Y023694D01*
X036216Y023679D01*
X036189Y023666D01*
X036160Y023657D01*
X036130Y023652D01*
X036100Y023650D01*
X038150Y023500D02*
X038150Y023000D01*
X038250Y023000D01*
X038250Y022500D01*
X041750Y022500D01*
X041750Y024250D01*
X041700Y024250D01*
X041700Y024750D01*
X041750Y024750D01*
X041750Y025700D01*
X041350Y025700D01*
X041250Y025700D01*
X041250Y023000D01*
X038750Y023000D01*
X038750Y030000D01*
X041250Y030000D01*
X041250Y028300D01*
X041250Y027700D01*
X041250Y027300D01*
X041350Y027300D01*
X041750Y027300D01*
X041750Y025700D01*
X041250Y025700D02*
X040950Y025700D01*
X040950Y027300D01*
X041250Y027300D01*
X041550Y027500D02*
X041550Y027700D01*
X041550Y028300D01*
X041350Y028300D01*
X041250Y028300D01*
X041550Y028300D02*
X041550Y028500D01*
X041750Y028650D01*
X041750Y030500D01*
X038250Y030500D01*
X038250Y030000D01*
X038150Y030000D01*
X038150Y029500D01*
X038250Y029500D01*
X038250Y026750D01*
X038150Y026750D01*
X038150Y026250D01*
X038250Y026250D01*
X038250Y023500D01*
X038150Y023500D01*
X041750Y027300D02*
X041750Y027350D01*
X041550Y027500D01*
X041550Y027700D02*
X041350Y027700D01*
X041250Y027700D01*
D11*
X041350Y027700D02*
X041350Y027300D01*
X041350Y028300D02*
X041350Y030100D01*
X038650Y030100D01*
X038650Y022900D01*
X041350Y022900D01*
X041350Y025700D01*
D12*
X041275Y026125D02*
X041125Y026275D01*
X041575Y026275D01*
X041575Y026125D02*
X041575Y026425D01*
X041500Y026585D02*
X041200Y026886D01*
X041500Y026886D01*
X041575Y026811D01*
X041575Y026660D01*
X041500Y026585D01*
X041200Y026585D01*
X041125Y026660D01*
X041125Y026811D01*
X041200Y026886D01*
X040725Y023825D02*
X040725Y023525D01*
X040725Y023675D02*
X040275Y023675D01*
X040425Y023525D01*
X039725Y023525D02*
X039725Y023825D01*
X039725Y023525D02*
X039425Y023825D01*
X039350Y023825D01*
X039275Y023750D01*
X039275Y023600D01*
X039350Y023525D01*
X036225Y024925D02*
X036225Y025225D01*
X036125Y025275D02*
X036125Y024975D01*
X036225Y025075D02*
X035775Y025075D01*
X035925Y024925D01*
X035825Y024975D02*
X035675Y025125D01*
X036125Y025125D01*
X031185Y025171D02*
X031110Y025246D01*
X031185Y025171D02*
X031185Y025021D01*
X031110Y024946D01*
X030810Y024946D01*
X030735Y025021D01*
X030735Y025171D01*
X030810Y025246D01*
X030885Y025406D02*
X030735Y025556D01*
X031185Y025556D01*
X031185Y025406D02*
X031185Y025706D01*
X031110Y024786D02*
X031035Y024786D01*
X030960Y024711D01*
X030960Y024560D01*
X030885Y024485D01*
X030810Y024485D01*
X030735Y024560D01*
X030735Y024711D01*
X030810Y024786D01*
X031110Y024786D02*
X031185Y024711D01*
X031185Y024560D01*
X031110Y024485D01*
X031110Y024325D02*
X030810Y024325D01*
X030735Y024250D01*
X030735Y024100D01*
X030810Y024025D01*
X031110Y024025D01*
X031185Y024100D01*
X031185Y024250D01*
X031110Y024325D01*
X010706Y003825D02*
X010706Y003375D01*
X010406Y003825D01*
X010406Y003375D01*
X010246Y003375D02*
X009946Y003375D01*
X009946Y003825D01*
X010246Y003825D01*
X010096Y003600D02*
X009946Y003600D01*
X009786Y003600D02*
X009711Y003525D01*
X009485Y003525D01*
X009485Y003375D02*
X009485Y003825D01*
X009711Y003825D01*
X009786Y003750D01*
X009786Y003600D01*
X009325Y003450D02*
X009325Y003750D01*
X009250Y003825D01*
X009100Y003825D01*
X009025Y003750D01*
X009025Y003450D01*
X009100Y003375D01*
X009250Y003375D01*
X009325Y003450D01*
X008246Y004175D02*
X007946Y004175D01*
X008246Y004475D01*
X008246Y004550D01*
X008171Y004625D01*
X008021Y004625D01*
X007946Y004550D01*
X007786Y004550D02*
X007786Y004475D01*
X007711Y004400D01*
X007485Y004400D01*
X007325Y004400D02*
X007025Y004400D01*
X007025Y004475D02*
X007175Y004625D01*
X007325Y004475D01*
X007325Y004175D01*
X007485Y004175D02*
X007711Y004175D01*
X007786Y004250D01*
X007786Y004325D01*
X007711Y004400D01*
X007786Y004550D02*
X007711Y004625D01*
X007485Y004625D01*
X007485Y004175D01*
X007025Y004175D02*
X007025Y004475D01*
X007525Y019025D02*
X007375Y019175D01*
X007525Y019325D01*
X007825Y019325D01*
X007600Y019325D02*
X007600Y019025D01*
X007525Y019025D02*
X007825Y019025D01*
X007825Y019636D02*
X007375Y019636D01*
X007375Y019786D02*
X007375Y019485D01*
X007525Y019946D02*
X007375Y020096D01*
X007825Y020096D01*
X007825Y019946D02*
X007825Y020246D01*
X009175Y020171D02*
X009250Y020246D01*
X009550Y020246D01*
X009625Y020171D01*
X009625Y020021D01*
X009550Y019946D01*
X009250Y019946D01*
X009175Y020021D01*
X009175Y020171D01*
X009175Y020406D02*
X009175Y020631D01*
X009250Y020706D01*
X009400Y020706D01*
X009475Y020631D01*
X009475Y020406D01*
X009625Y020406D02*
X009175Y020406D01*
X009475Y020556D02*
X009625Y020706D01*
X009625Y021017D02*
X009175Y021017D01*
X009175Y020867D02*
X009175Y021167D01*
X009175Y019786D02*
X009625Y019786D01*
X009400Y019786D02*
X009400Y019485D01*
X009475Y019325D02*
X009550Y019325D01*
X009625Y019250D01*
X009625Y019100D01*
X009550Y019025D01*
X009400Y019100D02*
X009400Y019250D01*
X009475Y019325D01*
X009625Y019485D02*
X009175Y019485D01*
X009250Y019325D02*
X009175Y019250D01*
X009175Y019100D01*
X009250Y019025D01*
X009325Y019025D01*
X009400Y019100D01*
X008706Y029875D02*
X008706Y030325D01*
X008406Y030325D02*
X008406Y029875D01*
X008246Y029875D02*
X007946Y029875D01*
X007946Y030325D01*
X008246Y030325D01*
X008406Y030325D02*
X008706Y029875D01*
X008096Y030100D02*
X007946Y030100D01*
X007786Y030100D02*
X007711Y030025D01*
X007485Y030025D01*
X007485Y029875D02*
X007485Y030325D01*
X007711Y030325D01*
X007786Y030250D01*
X007786Y030100D01*
X007325Y029950D02*
X007325Y030250D01*
X007250Y030325D01*
X007100Y030325D01*
X007025Y030250D01*
X007025Y029950D01*
X007100Y029875D01*
X007250Y029875D01*
X007325Y029950D01*
X007250Y031675D02*
X007025Y031675D01*
X007025Y032125D01*
X007250Y032125D01*
X007325Y032050D01*
X007325Y031975D01*
X007250Y031900D01*
X007025Y031900D01*
X007250Y031900D02*
X007325Y031825D01*
X007325Y031750D01*
X007250Y031675D01*
X007485Y031675D02*
X007711Y031675D01*
X007786Y031750D01*
X007786Y031825D01*
X007711Y031900D01*
X007485Y031900D01*
X007485Y031675D02*
X007485Y032125D01*
X007711Y032125D01*
X007786Y032050D01*
X007786Y031975D01*
X007711Y031900D01*
X007946Y032050D02*
X008021Y032125D01*
X008171Y032125D01*
X008246Y032050D01*
X008246Y031975D01*
X007946Y031675D01*
X008246Y031675D01*
X009325Y046125D02*
X009325Y046575D01*
X009550Y046575D01*
X009625Y046500D01*
X009625Y046350D01*
X009550Y046275D01*
X009325Y046275D01*
X009475Y046275D02*
X009625Y046125D01*
X009785Y046125D02*
X010086Y046125D01*
X009936Y046125D02*
X009936Y046575D01*
X009785Y046425D01*
X009625Y046600D02*
X009550Y046525D01*
X009625Y046600D02*
X009625Y046750D01*
X009550Y046825D01*
X009475Y046825D01*
X009400Y046750D01*
X009400Y046600D01*
X009325Y046525D01*
X009250Y046525D01*
X009175Y046600D01*
X009175Y046750D01*
X009250Y046825D01*
X009175Y046985D02*
X009625Y046985D01*
X009400Y046985D02*
X009400Y047286D01*
X009250Y047446D02*
X009550Y047446D01*
X009625Y047521D01*
X009625Y047671D01*
X009550Y047746D01*
X009250Y047746D01*
X009175Y047671D01*
X009175Y047521D01*
X009250Y047446D01*
X009175Y047286D02*
X009625Y047286D01*
X009625Y047906D02*
X009175Y047906D01*
X009175Y048131D01*
X009250Y048206D01*
X009400Y048206D01*
X009475Y048131D01*
X009475Y047906D01*
X009475Y048056D02*
X009625Y048206D01*
X009625Y048517D02*
X009175Y048517D01*
X009175Y048367D02*
X009175Y048667D01*
X007825Y047746D02*
X007825Y047446D01*
X007825Y047596D02*
X007375Y047596D01*
X007525Y047446D01*
X007375Y047286D02*
X007375Y046985D01*
X007375Y047136D02*
X007825Y047136D01*
X007750Y046825D02*
X007825Y046750D01*
X007825Y046525D01*
X007375Y046525D01*
X007375Y046750D01*
X007450Y046825D01*
X007525Y046825D01*
X007600Y046750D01*
X007600Y046525D01*
X007600Y046750D02*
X007675Y046825D01*
X007750Y046825D01*
X009325Y051625D02*
X009325Y052075D01*
X009550Y052075D01*
X009625Y052000D01*
X009625Y051850D01*
X009550Y051775D01*
X009325Y051775D01*
X009475Y051775D02*
X009625Y051625D01*
X009785Y051625D02*
X010086Y051925D01*
X010086Y052000D01*
X010011Y052075D01*
X009860Y052075D01*
X009785Y052000D01*
X009785Y051625D02*
X010086Y051625D01*
D13*
X037334Y030823D02*
X037965Y030823D01*
X037965Y030402D02*
X037334Y030402D01*
X037545Y030612D01*
X037334Y030823D01*
X037545Y030178D02*
X037965Y030178D01*
X037650Y030178D02*
X037650Y029758D01*
X037545Y029758D02*
X037965Y029758D01*
X037965Y029534D02*
X037755Y029323D01*
X037755Y029428D02*
X037755Y029113D01*
X037965Y029113D02*
X037334Y029113D01*
X037334Y029428D01*
X037440Y029534D01*
X037650Y029534D01*
X037755Y029428D01*
X037545Y029758D02*
X037334Y029968D01*
X037545Y030178D01*
X037650Y028889D02*
X037650Y028679D01*
X037650Y028889D02*
X037860Y028889D01*
X037965Y028784D01*
X037965Y028574D01*
X037860Y028469D01*
X037440Y028469D01*
X037334Y028574D01*
X037334Y028784D01*
X037440Y028889D01*
X037440Y028244D02*
X037334Y028139D01*
X037334Y027929D01*
X037440Y027824D01*
X037860Y027824D01*
X037965Y027929D01*
X037965Y028139D01*
X037860Y028244D01*
X037440Y028244D01*
X037440Y027600D02*
X037650Y027600D01*
X037755Y027495D01*
X037755Y027180D01*
X037755Y027390D02*
X037965Y027600D01*
X037965Y027180D02*
X037334Y027180D01*
X037334Y027495D01*
X037440Y027600D01*
X037440Y026955D02*
X037650Y026955D01*
X037755Y026850D01*
X037755Y026535D01*
X037965Y026535D02*
X037334Y026535D01*
X037334Y026850D01*
X037440Y026955D01*
X037965Y024244D02*
X037965Y023824D01*
X037965Y024034D02*
X037334Y024034D01*
X037545Y023824D01*
X037755Y023600D02*
X037334Y023600D01*
X037334Y023180D02*
X037755Y023180D01*
X037965Y023390D01*
X037755Y023600D01*
X037755Y022955D02*
X037860Y022955D01*
X037965Y022850D01*
X037965Y022640D01*
X037860Y022535D01*
X037650Y022640D02*
X037650Y022850D01*
X037755Y022955D01*
X037440Y022955D02*
X037334Y022850D01*
X037334Y022640D01*
X037440Y022535D01*
X037545Y022535D01*
X037650Y022640D01*
D14*
X036600Y023400D02*
X031900Y023400D01*
X032000Y023500D02*
X036500Y023500D01*
X036500Y031000D01*
X036498Y031044D01*
X036492Y031087D01*
X036483Y031129D01*
X036470Y031171D01*
X036453Y031211D01*
X036433Y031250D01*
X036410Y031287D01*
X036383Y031321D01*
X036354Y031354D01*
X036321Y031383D01*
X036287Y031410D01*
X036250Y031433D01*
X036211Y031453D01*
X036171Y031470D01*
X036129Y031483D01*
X036087Y031492D01*
X036044Y031498D01*
X036000Y031500D01*
X032000Y031500D01*
X031956Y031498D01*
X031913Y031492D01*
X031871Y031483D01*
X031829Y031470D01*
X031789Y031453D01*
X031750Y031433D01*
X031713Y031410D01*
X031679Y031383D01*
X031646Y031354D01*
X031617Y031321D01*
X031590Y031287D01*
X031567Y031250D01*
X031547Y031211D01*
X031530Y031171D01*
X031517Y031129D01*
X031508Y031087D01*
X031502Y031044D01*
X031500Y031000D01*
X031500Y024000D01*
X031400Y023900D02*
X031400Y028100D01*
X031402Y028144D01*
X031408Y028187D01*
X031417Y028229D01*
X031430Y028271D01*
X031447Y028311D01*
X031467Y028350D01*
X031490Y028387D01*
X031517Y028421D01*
X031546Y028454D01*
X031579Y028483D01*
X031613Y028510D01*
X031650Y028533D01*
X031689Y028553D01*
X031729Y028570D01*
X031771Y028583D01*
X031813Y028592D01*
X031856Y028598D01*
X031900Y028600D01*
X036100Y028600D01*
X036144Y028598D01*
X036187Y028592D01*
X036229Y028583D01*
X036271Y028570D01*
X036311Y028553D01*
X036350Y028533D01*
X036387Y028510D01*
X036421Y028483D01*
X036454Y028454D01*
X036483Y028421D01*
X036510Y028387D01*
X036533Y028350D01*
X036553Y028311D01*
X036570Y028271D01*
X036583Y028229D01*
X036592Y028187D01*
X036598Y028144D01*
X036600Y028100D01*
X036600Y023400D01*
X032000Y023500D02*
X031956Y023502D01*
X031913Y023508D01*
X031871Y023517D01*
X031829Y023530D01*
X031789Y023547D01*
X031750Y023567D01*
X031713Y023590D01*
X031679Y023617D01*
X031646Y023646D01*
X031617Y023679D01*
X031590Y023713D01*
X031567Y023750D01*
X031547Y023789D01*
X031530Y023829D01*
X031517Y023871D01*
X031508Y023913D01*
X031502Y023956D01*
X031500Y024000D01*
X031400Y023900D02*
X031402Y023856D01*
X031408Y023813D01*
X031417Y023771D01*
X031430Y023729D01*
X031447Y023689D01*
X031467Y023650D01*
X031490Y023613D01*
X031517Y023579D01*
X031546Y023546D01*
X031579Y023517D01*
X031613Y023490D01*
X031650Y023467D01*
X031689Y023447D01*
X031729Y023430D01*
X031771Y023417D01*
X031813Y023408D01*
X031856Y023402D01*
X031900Y023400D01*
X024611Y029665D02*
X024613Y029699D01*
X024619Y029733D01*
X024629Y029766D01*
X024642Y029797D01*
X024660Y029827D01*
X024680Y029855D01*
X024704Y029880D01*
X024730Y029902D01*
X024758Y029920D01*
X024789Y029936D01*
X024821Y029948D01*
X024855Y029956D01*
X024889Y029960D01*
X024923Y029960D01*
X024957Y029956D01*
X024991Y029948D01*
X025023Y029936D01*
X025053Y029920D01*
X025082Y029902D01*
X025108Y029880D01*
X025132Y029855D01*
X025152Y029827D01*
X025170Y029797D01*
X025183Y029766D01*
X025193Y029733D01*
X025199Y029699D01*
X025201Y029665D01*
X025199Y029631D01*
X025193Y029597D01*
X025183Y029564D01*
X025170Y029533D01*
X025152Y029503D01*
X025132Y029475D01*
X025108Y029450D01*
X025082Y029428D01*
X025054Y029410D01*
X025023Y029394D01*
X024991Y029382D01*
X024957Y029374D01*
X024923Y029370D01*
X024889Y029370D01*
X024855Y029374D01*
X024821Y029382D01*
X024789Y029394D01*
X024758Y029410D01*
X024730Y029428D01*
X024704Y029450D01*
X024680Y029475D01*
X024660Y029503D01*
X024642Y029533D01*
X024629Y029564D01*
X024619Y029597D01*
X024613Y029631D01*
X024611Y029665D01*
D15*
X032000Y027870D02*
X032500Y027870D01*
X033000Y027870D01*
X033000Y027620D02*
X032000Y027620D01*
X032000Y027370D01*
X033000Y027370D01*
X033000Y027620D01*
X033000Y027130D02*
X032500Y027130D01*
X032000Y027130D01*
X032000Y026370D02*
X032500Y026370D01*
X033000Y026370D01*
X033000Y026120D02*
X032000Y026120D01*
X032000Y025870D01*
X033000Y025870D01*
X033000Y026120D01*
X033000Y025630D02*
X032500Y025630D01*
X032000Y025630D01*
D16*
X025268Y024917D02*
X025268Y030083D01*
X017736Y030083D01*
X017736Y024917D01*
X025268Y024917D01*
D17*
X023132Y026772D02*
X023132Y026925D01*
X023055Y027002D01*
X022825Y027002D01*
X022825Y026542D01*
X022825Y026695D02*
X023055Y026695D01*
X023132Y026772D01*
X022672Y027002D02*
X022365Y027002D01*
X022365Y026542D01*
X022211Y026542D02*
X022058Y026695D01*
X022135Y026542D02*
X021981Y026542D01*
X021905Y026618D01*
X021905Y026925D01*
X021981Y027002D01*
X022135Y027002D01*
X022211Y026925D01*
X022211Y026618D01*
X022135Y026542D01*
X022365Y026772D02*
X022518Y026772D01*
X021751Y026772D02*
X021751Y026925D01*
X021674Y027002D01*
X021444Y027002D01*
X021444Y026542D01*
X021444Y026695D02*
X021674Y026695D01*
X021751Y026772D01*
X021291Y026925D02*
X020984Y026618D01*
X021060Y026542D01*
X021214Y026542D01*
X021291Y026618D01*
X021291Y026925D01*
X021214Y027002D01*
X021060Y027002D01*
X020984Y026925D01*
X020984Y026618D01*
X020830Y026618D02*
X020754Y026542D01*
X020600Y026542D01*
X020523Y026618D01*
X020830Y026925D01*
X020830Y026618D01*
X020523Y026618D02*
X020523Y026925D01*
X020600Y027002D01*
X020754Y027002D01*
X020830Y026925D01*
X020370Y026542D02*
X020063Y026542D01*
X020216Y026542D02*
X020216Y027002D01*
X020063Y026849D01*
X019909Y027002D02*
X019603Y026542D01*
X019449Y026618D02*
X019449Y026925D01*
X019142Y026618D01*
X019219Y026542D01*
X019372Y026542D01*
X019449Y026618D01*
X019142Y026618D02*
X019142Y026925D01*
X019219Y027002D01*
X019372Y027002D01*
X019449Y026925D01*
X019603Y027002D02*
X019909Y026542D01*
X018989Y026618D02*
X018912Y026542D01*
X018759Y026542D01*
X018682Y026618D01*
X018682Y026772D02*
X018835Y026849D01*
X018912Y026849D01*
X018989Y026772D01*
X018989Y026618D01*
X018682Y026772D02*
X018682Y027002D01*
X018989Y027002D01*
X018375Y027002D02*
X018375Y026542D01*
X018528Y026542D02*
X018221Y026542D01*
X018221Y026849D02*
X018375Y027002D01*
X018068Y027002D02*
X017761Y027002D01*
X017761Y026542D01*
X017761Y026772D02*
X017914Y026772D01*
X017608Y027002D02*
X017301Y027002D01*
X017454Y027002D02*
X017454Y026542D01*
X017147Y026542D02*
X017147Y026849D01*
X016994Y027002D01*
X016840Y026849D01*
X016840Y026542D01*
X016840Y026772D02*
X017147Y026772D01*
X022312Y028024D02*
X022619Y028024D01*
X022772Y028024D02*
X023079Y028024D01*
X022926Y028024D02*
X022926Y028484D01*
X022772Y028331D01*
X022619Y028484D02*
X022312Y028484D01*
X022312Y028024D01*
X022312Y028254D02*
X022465Y028254D01*
X007998Y029645D02*
X007691Y029645D01*
X007844Y029645D02*
X007844Y030105D01*
X007691Y029952D01*
X007537Y029952D02*
X007537Y029645D01*
X007537Y029875D02*
X007230Y029875D01*
X007230Y029952D02*
X007384Y030105D01*
X007537Y029952D01*
X007230Y029952D02*
X007230Y029645D01*
X007077Y029722D02*
X007000Y029645D01*
X006770Y029645D01*
X006770Y030105D01*
X007000Y030105D01*
X007077Y030029D01*
X007077Y029952D01*
X007000Y029875D01*
X006770Y029875D01*
X007000Y029875D02*
X007077Y029798D01*
X007077Y029722D01*
X007000Y030895D02*
X006770Y030895D01*
X006770Y031355D01*
X007000Y031355D01*
X007077Y031279D01*
X007077Y031202D01*
X007000Y031125D01*
X006770Y031125D01*
X007000Y031125D02*
X007077Y031048D01*
X007077Y030972D01*
X007000Y030895D01*
X007230Y030895D02*
X007230Y031355D01*
X007461Y031355D01*
X007537Y031279D01*
X007537Y031202D01*
X007461Y031125D01*
X007230Y031125D01*
X007230Y030895D02*
X007461Y030895D01*
X007537Y030972D01*
X007537Y031048D01*
X007461Y031125D01*
X007691Y031202D02*
X007844Y031355D01*
X007844Y030895D01*
X007691Y030895D02*
X007998Y030895D01*
X007998Y032145D02*
X007691Y032145D01*
X007844Y032145D02*
X007844Y032605D01*
X007691Y032452D01*
X007537Y032529D02*
X007461Y032605D01*
X007307Y032605D01*
X007230Y032529D01*
X007230Y032222D01*
X007307Y032145D01*
X007461Y032145D01*
X007537Y032222D01*
X007077Y032222D02*
X007000Y032145D01*
X006770Y032145D01*
X006770Y032605D01*
X007000Y032605D01*
X007077Y032529D01*
X007077Y032452D01*
X007000Y032375D01*
X006770Y032375D01*
X007000Y032375D02*
X007077Y032298D01*
X007077Y032222D01*
X007000Y033395D02*
X006770Y033395D01*
X006770Y033855D01*
X007000Y033855D01*
X007077Y033779D01*
X007077Y033702D01*
X007000Y033625D01*
X006770Y033625D01*
X007000Y033625D02*
X007077Y033548D01*
X007077Y033472D01*
X007000Y033395D01*
X007230Y033395D02*
X007230Y033855D01*
X007461Y033855D01*
X007537Y033779D01*
X007537Y033472D01*
X007461Y033395D01*
X007230Y033395D01*
X007691Y033395D02*
X007998Y033395D01*
X007844Y033395D02*
X007844Y033855D01*
X007691Y033702D01*
X007691Y034645D02*
X007998Y034645D01*
X007844Y034645D02*
X007844Y035105D01*
X007691Y034952D01*
X007537Y035105D02*
X007230Y035105D01*
X007230Y034645D01*
X007537Y034645D01*
X007384Y034875D02*
X007230Y034875D01*
X007077Y034798D02*
X007077Y034722D01*
X007000Y034645D01*
X006770Y034645D01*
X006770Y035105D01*
X007000Y035105D01*
X007077Y035029D01*
X007077Y034952D01*
X007000Y034875D01*
X006770Y034875D01*
X007000Y034875D02*
X007077Y034798D01*
X007000Y035895D02*
X006770Y035895D01*
X006770Y036355D01*
X007000Y036355D01*
X007077Y036279D01*
X007077Y036202D01*
X007000Y036125D01*
X006770Y036125D01*
X007000Y036125D02*
X007077Y036048D01*
X007077Y035972D01*
X007000Y035895D01*
X007230Y035895D02*
X007230Y036355D01*
X007537Y036355D01*
X007691Y036202D02*
X007844Y036355D01*
X007844Y035895D01*
X007691Y035895D02*
X007998Y035895D01*
X007384Y036125D02*
X007230Y036125D01*
X007230Y037145D02*
X007230Y037605D01*
X007077Y037529D02*
X007077Y037452D01*
X007000Y037375D01*
X006770Y037375D01*
X006770Y037145D02*
X007000Y037145D01*
X007077Y037222D01*
X007077Y037298D01*
X007000Y037375D01*
X007077Y037529D02*
X007000Y037605D01*
X006770Y037605D01*
X006770Y037145D01*
X007230Y037375D02*
X007537Y037375D01*
X007691Y037452D02*
X007844Y037605D01*
X007844Y037145D01*
X007691Y037145D02*
X007998Y037145D01*
X007537Y037145D02*
X007537Y037605D01*
X007384Y038395D02*
X007461Y038472D01*
X007461Y038855D01*
X007537Y038855D02*
X007384Y038855D01*
X007077Y038779D02*
X007077Y038702D01*
X007000Y038625D01*
X006770Y038625D01*
X006770Y038395D02*
X006770Y038855D01*
X007000Y038855D01*
X007077Y038779D01*
X007000Y038625D02*
X007077Y038548D01*
X007077Y038472D01*
X007000Y038395D01*
X006770Y038395D01*
X007230Y038472D02*
X007307Y038395D01*
X007384Y038395D01*
X007691Y038395D02*
X007998Y038395D01*
X007844Y038395D02*
X007844Y038855D01*
X007691Y038702D01*
X007691Y039645D02*
X007998Y039645D01*
X007844Y039645D02*
X007844Y040105D01*
X007691Y039952D01*
X007537Y040105D02*
X007230Y039798D01*
X007307Y039875D02*
X007537Y039645D01*
X007230Y039645D02*
X007230Y040105D01*
X007077Y040029D02*
X007077Y039952D01*
X007000Y039875D01*
X006770Y039875D01*
X006770Y039645D02*
X007000Y039645D01*
X007077Y039722D01*
X007077Y039798D01*
X007000Y039875D01*
X007077Y040029D02*
X007000Y040105D01*
X006770Y040105D01*
X006770Y039645D01*
X006770Y040895D02*
X007000Y040895D01*
X007077Y040972D01*
X007077Y041048D01*
X007000Y041125D01*
X006770Y041125D01*
X006770Y040895D02*
X006770Y041355D01*
X007000Y041355D01*
X007077Y041279D01*
X007077Y041202D01*
X007000Y041125D01*
X007230Y040895D02*
X007537Y040895D01*
X007691Y040895D02*
X007998Y040895D01*
X007844Y040895D02*
X007844Y041355D01*
X007691Y041202D01*
X007230Y041355D02*
X007230Y040895D01*
X007230Y042145D02*
X007230Y042605D01*
X007384Y042452D01*
X007537Y042605D01*
X007537Y042145D01*
X007691Y042145D02*
X007998Y042145D01*
X007844Y042145D02*
X007844Y042605D01*
X007691Y042452D01*
X007077Y042452D02*
X007000Y042375D01*
X006770Y042375D01*
X006770Y042145D02*
X007000Y042145D01*
X007077Y042222D01*
X007077Y042298D01*
X007000Y042375D01*
X007077Y042452D02*
X007077Y042529D01*
X007000Y042605D01*
X006770Y042605D01*
X006770Y042145D01*
X006770Y043395D02*
X007000Y043395D01*
X007077Y043472D01*
X007077Y043548D01*
X007000Y043625D01*
X006770Y043625D01*
X006770Y043395D02*
X006770Y043855D01*
X007000Y043855D01*
X007077Y043779D01*
X007077Y043702D01*
X007000Y043625D01*
X007230Y043395D02*
X007230Y043855D01*
X007537Y043395D01*
X007537Y043855D01*
X007691Y043702D02*
X007844Y043855D01*
X007844Y043395D01*
X007691Y043395D02*
X007998Y043395D01*
X007998Y044645D02*
X007691Y044645D01*
X007844Y044645D02*
X007844Y045105D01*
X007691Y044952D01*
X007537Y045029D02*
X007537Y044875D01*
X007461Y044798D01*
X007230Y044798D01*
X007230Y044645D02*
X007230Y045105D01*
X007461Y045105D01*
X007537Y045029D01*
X007077Y045029D02*
X007077Y044952D01*
X007000Y044875D01*
X006770Y044875D01*
X006770Y044645D02*
X006770Y045105D01*
X007000Y045105D01*
X007077Y045029D01*
X007000Y044875D02*
X007077Y044798D01*
X007077Y044722D01*
X007000Y044645D01*
X006770Y044645D01*
X006770Y045895D02*
X007000Y045895D01*
X007077Y045972D01*
X007077Y046048D01*
X007000Y046125D01*
X006770Y046125D01*
X006770Y045895D02*
X006770Y046355D01*
X007000Y046355D01*
X007077Y046279D01*
X007077Y046202D01*
X007000Y046125D01*
X007230Y046048D02*
X007461Y046048D01*
X007537Y046125D01*
X007537Y046279D01*
X007461Y046355D01*
X007230Y046355D01*
X007230Y045895D01*
X007384Y046048D02*
X007537Y045895D01*
X007691Y045895D02*
X007998Y045895D01*
X007844Y045895D02*
X007844Y046355D01*
X007691Y046202D01*
X007691Y047145D02*
X007998Y047145D01*
X007844Y047145D02*
X007844Y047605D01*
X007691Y047452D01*
X007537Y047529D02*
X007461Y047605D01*
X007307Y047605D01*
X007230Y047529D01*
X007230Y047452D01*
X007307Y047375D01*
X007461Y047375D01*
X007537Y047298D01*
X007537Y047222D01*
X007461Y047145D01*
X007307Y047145D01*
X007230Y047222D01*
X007077Y047222D02*
X007000Y047145D01*
X006770Y047145D01*
X006770Y047605D01*
X007000Y047605D01*
X007077Y047529D01*
X007077Y047452D01*
X007000Y047375D01*
X006770Y047375D01*
X007000Y047375D02*
X007077Y047298D01*
X007077Y047222D01*
X007000Y048395D02*
X006770Y048395D01*
X006770Y048855D01*
X007000Y048855D01*
X007077Y048779D01*
X007077Y048702D01*
X007000Y048625D01*
X006770Y048625D01*
X007000Y048625D02*
X007077Y048548D01*
X007077Y048472D01*
X007000Y048395D01*
X007384Y048395D02*
X007384Y048855D01*
X007537Y048855D02*
X007230Y048855D01*
X007691Y048702D02*
X007844Y048855D01*
X007844Y048395D01*
X007691Y048395D02*
X007998Y048395D01*
X007998Y049645D02*
X007691Y049645D01*
X007844Y049645D02*
X007844Y050105D01*
X007691Y049952D01*
X007537Y050105D02*
X007537Y049722D01*
X007461Y049645D01*
X007307Y049645D01*
X007230Y049722D01*
X007230Y050105D01*
X007077Y050029D02*
X007077Y049952D01*
X007000Y049875D01*
X006770Y049875D01*
X006770Y049645D02*
X007000Y049645D01*
X007077Y049722D01*
X007077Y049798D01*
X007000Y049875D01*
X007077Y050029D02*
X007000Y050105D01*
X006770Y050105D01*
X006770Y049645D01*
X006770Y050895D02*
X007000Y050895D01*
X007077Y050972D01*
X007077Y051048D01*
X007000Y051125D01*
X006770Y051125D01*
X006770Y050895D02*
X006770Y051355D01*
X007000Y051355D01*
X007077Y051279D01*
X007077Y051202D01*
X007000Y051125D01*
X007230Y051048D02*
X007384Y050895D01*
X007537Y051048D01*
X007537Y051355D01*
X007691Y051202D02*
X007844Y051355D01*
X007844Y050895D01*
X007691Y050895D02*
X007998Y050895D01*
X007230Y051048D02*
X007230Y051355D01*
X007230Y023855D02*
X007230Y023548D01*
X007384Y023395D01*
X007537Y023548D01*
X007537Y023855D01*
X007691Y023702D02*
X007844Y023855D01*
X007844Y023395D01*
X007691Y023395D02*
X007998Y023395D01*
X007077Y023395D02*
X007077Y023702D01*
X006923Y023855D01*
X006770Y023702D01*
X006770Y023395D01*
X006770Y023625D02*
X007077Y023625D01*
X007230Y022605D02*
X007230Y022222D01*
X007307Y022145D01*
X007461Y022145D01*
X007537Y022222D01*
X007537Y022605D01*
X007691Y022452D02*
X007844Y022605D01*
X007844Y022145D01*
X007691Y022145D02*
X007998Y022145D01*
X007077Y022145D02*
X007077Y022452D01*
X006923Y022605D01*
X006770Y022452D01*
X006770Y022145D01*
X006770Y022375D02*
X007077Y022375D01*
X007230Y021355D02*
X007537Y021355D01*
X007384Y021355D02*
X007384Y020895D01*
X007691Y020895D02*
X007998Y020895D01*
X007844Y020895D02*
X007844Y021355D01*
X007691Y021202D01*
X007077Y021202D02*
X007077Y020895D01*
X007077Y021125D02*
X006770Y021125D01*
X006770Y021202D02*
X006923Y021355D01*
X007077Y021202D01*
X006770Y021202D02*
X006770Y020895D01*
X006923Y020105D02*
X007077Y019952D01*
X007077Y019645D01*
X007230Y019722D02*
X007307Y019645D01*
X007461Y019645D01*
X007537Y019722D01*
X007537Y019798D01*
X007461Y019875D01*
X007307Y019875D01*
X007230Y019952D01*
X007230Y020029D01*
X007307Y020105D01*
X007461Y020105D01*
X007537Y020029D01*
X007691Y019952D02*
X007844Y020105D01*
X007844Y019645D01*
X007691Y019645D02*
X007998Y019645D01*
X007077Y019875D02*
X006770Y019875D01*
X006770Y019952D02*
X006923Y020105D01*
X006770Y019952D02*
X006770Y019645D01*
X006923Y018855D02*
X007077Y018702D01*
X007077Y018395D01*
X007230Y018395D02*
X007230Y018855D01*
X007461Y018855D01*
X007537Y018779D01*
X007537Y018625D01*
X007461Y018548D01*
X007230Y018548D01*
X007384Y018548D02*
X007537Y018395D01*
X007691Y018395D02*
X007998Y018395D01*
X007844Y018395D02*
X007844Y018855D01*
X007691Y018702D01*
X007077Y018625D02*
X006770Y018625D01*
X006770Y018702D02*
X006923Y018855D01*
X006770Y018702D02*
X006770Y018395D01*
X006923Y017605D02*
X007077Y017452D01*
X007077Y017145D01*
X007230Y017145D02*
X007230Y017605D01*
X007461Y017605D01*
X007537Y017529D01*
X007537Y017375D01*
X007461Y017298D01*
X007230Y017298D01*
X007077Y017375D02*
X006770Y017375D01*
X006770Y017452D02*
X006770Y017145D01*
X006770Y017452D02*
X006923Y017605D01*
X007691Y017452D02*
X007844Y017605D01*
X007844Y017145D01*
X007691Y017145D02*
X007998Y017145D01*
X007844Y016355D02*
X007844Y015895D01*
X007691Y015895D02*
X007998Y015895D01*
X007691Y016202D02*
X007844Y016355D01*
X007537Y016355D02*
X007537Y015895D01*
X007230Y016355D01*
X007230Y015895D01*
X007077Y015895D02*
X007077Y016202D01*
X006923Y016355D01*
X006770Y016202D01*
X006770Y015895D01*
X006770Y016125D02*
X007077Y016125D01*
X007230Y015105D02*
X007384Y014952D01*
X007537Y015105D01*
X007537Y014645D01*
X007691Y014645D02*
X007998Y014645D01*
X007844Y014645D02*
X007844Y015105D01*
X007691Y014952D01*
X007230Y015105D02*
X007230Y014645D01*
X007077Y014645D02*
X007077Y014952D01*
X006923Y015105D01*
X006770Y014952D01*
X006770Y014645D01*
X006770Y014875D02*
X007077Y014875D01*
X007230Y013855D02*
X007230Y013395D01*
X007537Y013395D01*
X007691Y013395D02*
X007998Y013395D01*
X007844Y013395D02*
X007844Y013855D01*
X007691Y013702D01*
X007077Y013702D02*
X007077Y013395D01*
X007077Y013625D02*
X006770Y013625D01*
X006770Y013702D02*
X006770Y013395D01*
X006770Y013702D02*
X006923Y013855D01*
X007077Y013702D01*
X007230Y012605D02*
X007230Y012145D01*
X007077Y012145D02*
X007077Y012452D01*
X006923Y012605D01*
X006770Y012452D01*
X006770Y012145D01*
X006770Y012375D02*
X007077Y012375D01*
X007230Y012298D02*
X007537Y012605D01*
X007691Y012452D02*
X007844Y012605D01*
X007844Y012145D01*
X007691Y012145D02*
X007998Y012145D01*
X007537Y012145D02*
X007307Y012375D01*
X007384Y011355D02*
X007537Y011355D01*
X007461Y011355D02*
X007461Y010972D01*
X007384Y010895D01*
X007307Y010895D01*
X007230Y010972D01*
X007077Y010895D02*
X007077Y011202D01*
X006923Y011355D01*
X006770Y011202D01*
X006770Y010895D01*
X006770Y011125D02*
X007077Y011125D01*
X007691Y011202D02*
X007844Y011355D01*
X007844Y010895D01*
X007691Y010895D02*
X007998Y010895D01*
X007844Y010105D02*
X007844Y009645D01*
X007691Y009645D02*
X007998Y009645D01*
X007691Y009952D02*
X007844Y010105D01*
X007537Y010105D02*
X007537Y009645D01*
X007537Y009875D02*
X007230Y009875D01*
X007077Y009875D02*
X006770Y009875D01*
X006770Y009952D02*
X006923Y010105D01*
X007077Y009952D01*
X007077Y009645D01*
X007230Y009645D02*
X007230Y010105D01*
X006770Y009952D02*
X006770Y009645D01*
X006923Y008855D02*
X007077Y008702D01*
X007077Y008395D01*
X007230Y008395D02*
X007230Y008855D01*
X007537Y008855D01*
X007691Y008702D02*
X007844Y008855D01*
X007844Y008395D01*
X007691Y008395D02*
X007998Y008395D01*
X007384Y008625D02*
X007230Y008625D01*
X007077Y008625D02*
X006770Y008625D01*
X006770Y008702D02*
X006923Y008855D01*
X006770Y008702D02*
X006770Y008395D01*
X006923Y007605D02*
X007077Y007452D01*
X007077Y007145D01*
X007230Y007145D02*
X007537Y007145D01*
X007691Y007145D02*
X007998Y007145D01*
X007844Y007145D02*
X007844Y007605D01*
X007691Y007452D01*
X007537Y007605D02*
X007230Y007605D01*
X007230Y007145D01*
X007230Y007375D02*
X007384Y007375D01*
X007077Y007375D02*
X006770Y007375D01*
X006770Y007452D02*
X006770Y007145D01*
X006770Y007452D02*
X006923Y007605D01*
X006923Y006355D02*
X007077Y006202D01*
X007077Y005895D01*
X007230Y005895D02*
X007461Y005895D01*
X007537Y005972D01*
X007537Y006279D01*
X007461Y006355D01*
X007230Y006355D01*
X007230Y005895D01*
X007077Y006125D02*
X006770Y006125D01*
X006770Y006202D02*
X006923Y006355D01*
X006770Y006202D02*
X006770Y005895D01*
X006923Y005105D02*
X007077Y004952D01*
X007077Y004645D01*
X007230Y004722D02*
X007307Y004645D01*
X007461Y004645D01*
X007537Y004722D01*
X007691Y004645D02*
X007998Y004645D01*
X007844Y004645D02*
X007844Y005105D01*
X007691Y004952D01*
X007537Y005029D02*
X007461Y005105D01*
X007307Y005105D01*
X007230Y005029D01*
X007230Y004722D01*
X007077Y004875D02*
X006770Y004875D01*
X006770Y004952D02*
X006923Y005105D01*
X006770Y004952D02*
X006770Y004645D01*
X006923Y003855D02*
X007077Y003702D01*
X007077Y003395D01*
X007230Y003395D02*
X007461Y003395D01*
X007537Y003472D01*
X007537Y003548D01*
X007461Y003625D01*
X007230Y003625D01*
X007077Y003625D02*
X006770Y003625D01*
X006770Y003702D02*
X006770Y003395D01*
X006770Y003702D02*
X006923Y003855D01*
X007230Y003855D02*
X007230Y003395D01*
X007461Y003625D02*
X007537Y003702D01*
X007537Y003779D01*
X007461Y003855D01*
X007230Y003855D01*
X007691Y003702D02*
X007844Y003855D01*
X007844Y003395D01*
X007691Y003395D02*
X007998Y003395D01*
X007844Y002605D02*
X007844Y002145D01*
X007691Y002145D02*
X007998Y002145D01*
X007691Y002452D02*
X007844Y002605D01*
X007537Y002452D02*
X007537Y002145D01*
X007537Y002375D02*
X007230Y002375D01*
X007230Y002452D02*
X007384Y002605D01*
X007537Y002452D01*
X007230Y002452D02*
X007230Y002145D01*
X007077Y002145D02*
X007077Y002452D01*
X006923Y002605D01*
X006770Y002452D01*
X006770Y002145D01*
X006770Y002375D02*
X007077Y002375D01*
X007691Y005895D02*
X007998Y005895D01*
X007844Y005895D02*
X007844Y006355D01*
X007691Y006202D01*
D18*
X006750Y001550D02*
X001000Y001550D01*
X000500Y002050D01*
X000500Y023450D01*
X001000Y023950D01*
X007750Y023950D01*
X007750Y025350D01*
X006750Y025350D01*
X006750Y029050D01*
X001000Y029050D01*
X000500Y029550D01*
X000500Y050950D01*
X001000Y051450D01*
X007750Y051450D01*
X007750Y052450D01*
X007750Y052500D02*
X007750Y051450D01*
X001000Y051450D01*
X000500Y050950D01*
X000500Y029550D01*
X001000Y029050D01*
X006750Y029050D01*
X006750Y025350D01*
X007750Y025350D01*
X007750Y023950D01*
X001000Y023950D01*
X000500Y023450D01*
X000500Y002050D01*
X001000Y001550D01*
X006750Y001550D01*
X006750Y000500D01*
X050000Y000500D01*
X050000Y052500D01*
X007750Y052500D01*
X047375Y050250D02*
X047377Y050300D01*
X047383Y050349D01*
X047393Y050398D01*
X047406Y050445D01*
X047424Y050492D01*
X047445Y050537D01*
X047469Y050580D01*
X047497Y050621D01*
X047528Y050660D01*
X047562Y050696D01*
X047599Y050730D01*
X047639Y050760D01*
X047680Y050787D01*
X047724Y050811D01*
X047769Y050831D01*
X047816Y050847D01*
X047864Y050860D01*
X047913Y050869D01*
X047963Y050874D01*
X048012Y050875D01*
X048062Y050872D01*
X048111Y050865D01*
X048160Y050854D01*
X048207Y050840D01*
X048253Y050821D01*
X048298Y050799D01*
X048341Y050774D01*
X048381Y050745D01*
X048419Y050713D01*
X048455Y050679D01*
X048488Y050641D01*
X048517Y050601D01*
X048543Y050559D01*
X048566Y050515D01*
X048585Y050469D01*
X048601Y050422D01*
X048613Y050373D01*
X048621Y050324D01*
X048625Y050275D01*
X048625Y050225D01*
X048621Y050176D01*
X048613Y050127D01*
X048601Y050078D01*
X048585Y050031D01*
X048566Y049985D01*
X048543Y049941D01*
X048517Y049899D01*
X048488Y049859D01*
X048455Y049821D01*
X048419Y049787D01*
X048381Y049755D01*
X048341Y049726D01*
X048298Y049701D01*
X048253Y049679D01*
X048207Y049660D01*
X048160Y049646D01*
X048111Y049635D01*
X048062Y049628D01*
X048012Y049625D01*
X047963Y049626D01*
X047913Y049631D01*
X047864Y049640D01*
X047816Y049653D01*
X047769Y049669D01*
X047724Y049689D01*
X047680Y049713D01*
X047639Y049740D01*
X047599Y049770D01*
X047562Y049804D01*
X047528Y049840D01*
X047497Y049879D01*
X047469Y049920D01*
X047445Y049963D01*
X047424Y050008D01*
X047406Y050055D01*
X047393Y050102D01*
X047383Y050151D01*
X047377Y050200D01*
X047375Y050250D01*
X047375Y030250D02*
X047377Y030300D01*
X047383Y030349D01*
X047393Y030398D01*
X047406Y030445D01*
X047424Y030492D01*
X047445Y030537D01*
X047469Y030580D01*
X047497Y030621D01*
X047528Y030660D01*
X047562Y030696D01*
X047599Y030730D01*
X047639Y030760D01*
X047680Y030787D01*
X047724Y030811D01*
X047769Y030831D01*
X047816Y030847D01*
X047864Y030860D01*
X047913Y030869D01*
X047963Y030874D01*
X048012Y030875D01*
X048062Y030872D01*
X048111Y030865D01*
X048160Y030854D01*
X048207Y030840D01*
X048253Y030821D01*
X048298Y030799D01*
X048341Y030774D01*
X048381Y030745D01*
X048419Y030713D01*
X048455Y030679D01*
X048488Y030641D01*
X048517Y030601D01*
X048543Y030559D01*
X048566Y030515D01*
X048585Y030469D01*
X048601Y030422D01*
X048613Y030373D01*
X048621Y030324D01*
X048625Y030275D01*
X048625Y030225D01*
X048621Y030176D01*
X048613Y030127D01*
X048601Y030078D01*
X048585Y030031D01*
X048566Y029985D01*
X048543Y029941D01*
X048517Y029899D01*
X048488Y029859D01*
X048455Y029821D01*
X048419Y029787D01*
X048381Y029755D01*
X048341Y029726D01*
X048298Y029701D01*
X048253Y029679D01*
X048207Y029660D01*
X048160Y029646D01*
X048111Y029635D01*
X048062Y029628D01*
X048012Y029625D01*
X047963Y029626D01*
X047913Y029631D01*
X047864Y029640D01*
X047816Y029653D01*
X047769Y029669D01*
X047724Y029689D01*
X047680Y029713D01*
X047639Y029740D01*
X047599Y029770D01*
X047562Y029804D01*
X047528Y029840D01*
X047497Y029879D01*
X047469Y029920D01*
X047445Y029963D01*
X047424Y030008D01*
X047406Y030055D01*
X047393Y030102D01*
X047383Y030151D01*
X047377Y030200D01*
X047375Y030250D01*
X047375Y022750D02*
X047377Y022800D01*
X047383Y022849D01*
X047393Y022898D01*
X047406Y022945D01*
X047424Y022992D01*
X047445Y023037D01*
X047469Y023080D01*
X047497Y023121D01*
X047528Y023160D01*
X047562Y023196D01*
X047599Y023230D01*
X047639Y023260D01*
X047680Y023287D01*
X047724Y023311D01*
X047769Y023331D01*
X047816Y023347D01*
X047864Y023360D01*
X047913Y023369D01*
X047963Y023374D01*
X048012Y023375D01*
X048062Y023372D01*
X048111Y023365D01*
X048160Y023354D01*
X048207Y023340D01*
X048253Y023321D01*
X048298Y023299D01*
X048341Y023274D01*
X048381Y023245D01*
X048419Y023213D01*
X048455Y023179D01*
X048488Y023141D01*
X048517Y023101D01*
X048543Y023059D01*
X048566Y023015D01*
X048585Y022969D01*
X048601Y022922D01*
X048613Y022873D01*
X048621Y022824D01*
X048625Y022775D01*
X048625Y022725D01*
X048621Y022676D01*
X048613Y022627D01*
X048601Y022578D01*
X048585Y022531D01*
X048566Y022485D01*
X048543Y022441D01*
X048517Y022399D01*
X048488Y022359D01*
X048455Y022321D01*
X048419Y022287D01*
X048381Y022255D01*
X048341Y022226D01*
X048298Y022201D01*
X048253Y022179D01*
X048207Y022160D01*
X048160Y022146D01*
X048111Y022135D01*
X048062Y022128D01*
X048012Y022125D01*
X047963Y022126D01*
X047913Y022131D01*
X047864Y022140D01*
X047816Y022153D01*
X047769Y022169D01*
X047724Y022189D01*
X047680Y022213D01*
X047639Y022240D01*
X047599Y022270D01*
X047562Y022304D01*
X047528Y022340D01*
X047497Y022379D01*
X047469Y022420D01*
X047445Y022463D01*
X047424Y022508D01*
X047406Y022555D01*
X047393Y022602D01*
X047383Y022651D01*
X047377Y022700D01*
X047375Y022750D01*
X047375Y002750D02*
X047377Y002800D01*
X047383Y002849D01*
X047393Y002898D01*
X047406Y002945D01*
X047424Y002992D01*
X047445Y003037D01*
X047469Y003080D01*
X047497Y003121D01*
X047528Y003160D01*
X047562Y003196D01*
X047599Y003230D01*
X047639Y003260D01*
X047680Y003287D01*
X047724Y003311D01*
X047769Y003331D01*
X047816Y003347D01*
X047864Y003360D01*
X047913Y003369D01*
X047963Y003374D01*
X048012Y003375D01*
X048062Y003372D01*
X048111Y003365D01*
X048160Y003354D01*
X048207Y003340D01*
X048253Y003321D01*
X048298Y003299D01*
X048341Y003274D01*
X048381Y003245D01*
X048419Y003213D01*
X048455Y003179D01*
X048488Y003141D01*
X048517Y003101D01*
X048543Y003059D01*
X048566Y003015D01*
X048585Y002969D01*
X048601Y002922D01*
X048613Y002873D01*
X048621Y002824D01*
X048625Y002775D01*
X048625Y002725D01*
X048621Y002676D01*
X048613Y002627D01*
X048601Y002578D01*
X048585Y002531D01*
X048566Y002485D01*
X048543Y002441D01*
X048517Y002399D01*
X048488Y002359D01*
X048455Y002321D01*
X048419Y002287D01*
X048381Y002255D01*
X048341Y002226D01*
X048298Y002201D01*
X048253Y002179D01*
X048207Y002160D01*
X048160Y002146D01*
X048111Y002135D01*
X048062Y002128D01*
X048012Y002125D01*
X047963Y002126D01*
X047913Y002131D01*
X047864Y002140D01*
X047816Y002153D01*
X047769Y002169D01*
X047724Y002189D01*
X047680Y002213D01*
X047639Y002240D01*
X047599Y002270D01*
X047562Y002304D01*
X047528Y002340D01*
X047497Y002379D01*
X047469Y002420D01*
X047445Y002463D01*
X047424Y002508D01*
X047406Y002555D01*
X047393Y002602D01*
X047383Y002651D01*
X047377Y002700D01*
X047375Y002750D01*
X006750Y001550D02*
X006750Y000500D01*
D19*
X009080Y045500D03*
X011920Y045500D03*
X011920Y051000D03*
X009080Y051000D03*
M02*
