G75*
%MOIN*%
%OFA0B0*%
%FSLAX24Y24*%
%IPPOS*%
%LPD*%
%AMOC8*
5,1,8,0,0,1.08239X$1,22.5*
%
%ADD10C,0.0170*%
%ADD11OC8,0.0560*%
%ADD12OC8,0.0520*%
%ADD13R,0.0512X0.0591*%
%ADD14R,0.0591X0.0512*%
%ADD15R,0.5160X0.0800*%
%ADD16C,0.0160*%
%ADD17C,0.0480*%
D10*
X032815Y049085D02*
X032815Y049615D01*
X032992Y049439D01*
X033169Y049615D01*
X033169Y049085D01*
X033459Y049350D02*
X033548Y049262D01*
X033813Y049262D01*
X033813Y049085D02*
X033813Y049615D01*
X033548Y049615D01*
X033459Y049527D01*
X033459Y049350D01*
X033655Y050585D02*
X033832Y050585D01*
X033921Y050673D01*
X033921Y050850D01*
X033832Y050939D01*
X033655Y050939D01*
X033567Y050850D01*
X033567Y050762D01*
X033921Y050762D01*
X034173Y050585D02*
X034350Y050585D01*
X034262Y050585D02*
X034262Y051115D01*
X034350Y051115D01*
X034641Y050850D02*
X034730Y050939D01*
X034995Y050939D01*
X034995Y051115D02*
X034995Y050585D01*
X034730Y050585D01*
X034641Y050673D01*
X034641Y050850D01*
X035286Y050939D02*
X035286Y050585D01*
X035551Y050585D01*
X035639Y050673D01*
X035639Y050939D01*
X035930Y050850D02*
X036019Y050939D01*
X036195Y050939D01*
X036284Y050850D01*
X036284Y050673D01*
X036195Y050585D01*
X036019Y050585D01*
X035930Y050673D01*
X035930Y050850D01*
X036575Y050673D02*
X036575Y051027D01*
X036663Y051115D01*
X036928Y051115D01*
X036928Y050585D01*
X036663Y050585D01*
X036575Y050673D01*
X036625Y049615D02*
X036448Y049615D01*
X036360Y049527D01*
X036714Y049173D01*
X036625Y049085D01*
X036448Y049085D01*
X036360Y049173D01*
X036360Y049527D01*
X036625Y049615D02*
X036714Y049527D01*
X036714Y049173D01*
X037004Y049173D02*
X037093Y049085D01*
X037270Y049085D01*
X037358Y049173D01*
X037358Y049350D02*
X037181Y049439D01*
X037093Y049439D01*
X037004Y049350D01*
X037004Y049173D01*
X037358Y049350D02*
X037358Y049615D01*
X037004Y049615D01*
X037592Y049439D02*
X037592Y049350D01*
X037680Y049350D01*
X037680Y049439D01*
X037592Y049439D01*
X037592Y049173D02*
X037592Y049085D01*
X037680Y049085D01*
X037680Y049173D01*
X037592Y049173D01*
X037971Y049085D02*
X038325Y049085D01*
X038148Y049085D02*
X038148Y049615D01*
X038325Y049439D01*
X038616Y049085D02*
X038970Y049085D01*
X038793Y049085D02*
X038793Y049615D01*
X038970Y049439D01*
X039905Y049615D02*
X040082Y049527D01*
X040259Y049350D01*
X039993Y049350D01*
X039905Y049262D01*
X039905Y049173D01*
X039993Y049085D01*
X040170Y049085D01*
X040259Y049173D01*
X040259Y049350D01*
X040550Y049439D02*
X040550Y049527D01*
X040638Y049615D01*
X040815Y049615D01*
X040903Y049527D01*
X041194Y049527D02*
X041548Y049173D01*
X041459Y049085D01*
X041282Y049085D01*
X041194Y049173D01*
X041194Y049527D01*
X041282Y049615D01*
X041459Y049615D01*
X041548Y049527D01*
X041548Y049173D01*
X041839Y049085D02*
X042192Y049085D01*
X041839Y049439D01*
X041839Y049527D01*
X041927Y049615D01*
X042104Y049615D01*
X042192Y049527D01*
X042483Y049615D02*
X042837Y049085D01*
X043128Y049173D02*
X043216Y049085D01*
X043393Y049085D01*
X043481Y049173D01*
X043305Y049350D02*
X043216Y049350D01*
X043128Y049262D01*
X043128Y049173D01*
X043216Y049350D02*
X043128Y049439D01*
X043128Y049527D01*
X043216Y049615D01*
X043393Y049615D01*
X043481Y049527D01*
X043949Y049615D02*
X043949Y049085D01*
X044126Y049085D02*
X043772Y049085D01*
X044126Y049439D02*
X043949Y049615D01*
X044417Y049615D02*
X044770Y049085D01*
X045061Y049527D02*
X045415Y049173D01*
X045415Y049085D01*
X045415Y049615D02*
X045061Y049615D01*
X045061Y049527D01*
X045150Y050585D02*
X045061Y050673D01*
X045061Y050850D01*
X045238Y050850D01*
X045415Y050673D02*
X045327Y050585D01*
X045150Y050585D01*
X045415Y050673D02*
X045415Y051027D01*
X045327Y051115D01*
X045150Y051115D01*
X045061Y051027D01*
X044770Y050850D02*
X044682Y050939D01*
X044505Y050939D01*
X044417Y050850D01*
X044417Y050762D01*
X044770Y050762D01*
X044770Y050850D02*
X044770Y050673D01*
X044682Y050585D01*
X044505Y050585D01*
X044126Y050585D02*
X044126Y050939D01*
X043861Y050939D01*
X043772Y050850D01*
X043772Y050585D01*
X043481Y050673D02*
X043481Y050850D01*
X043393Y050939D01*
X043216Y050939D01*
X043128Y050850D01*
X043128Y050762D01*
X043481Y050762D01*
X043481Y050673D02*
X043393Y050585D01*
X043216Y050585D01*
X042837Y050585D02*
X042837Y050939D01*
X042660Y050939D02*
X042572Y050939D01*
X042660Y050939D02*
X042837Y050762D01*
X042300Y050939D02*
X042211Y050939D01*
X042211Y050585D01*
X042123Y050585D02*
X042300Y050585D01*
X041870Y050673D02*
X041782Y050585D01*
X041516Y050585D01*
X041516Y050939D02*
X041782Y050939D01*
X041870Y050850D01*
X041870Y050673D01*
X042211Y051115D02*
X042211Y051204D01*
X040581Y051115D02*
X040404Y050939D01*
X040227Y051115D01*
X040227Y050585D01*
X039936Y050585D02*
X039583Y050939D01*
X039292Y050939D02*
X038938Y050585D01*
X038647Y050585D02*
X038294Y050939D01*
X038647Y050939D02*
X038294Y050585D01*
X038003Y050408D02*
X037826Y050585D01*
X037914Y050585D01*
X037914Y050673D01*
X037826Y050673D01*
X037826Y050585D01*
X038938Y050939D02*
X039292Y050585D01*
X039583Y050585D02*
X039936Y050939D01*
X040581Y051115D02*
X040581Y050585D01*
X040550Y049439D02*
X040903Y049085D01*
X040550Y049085D01*
X036069Y049085D02*
X036069Y049173D01*
X035981Y049173D01*
X035981Y049085D01*
X036069Y049085D01*
X036069Y049350D02*
X036069Y049439D01*
X035981Y049439D01*
X035981Y049350D01*
X036069Y049350D01*
X035747Y049527D02*
X035658Y049615D01*
X035482Y049615D01*
X035393Y049527D01*
X035393Y049439D01*
X035747Y049085D01*
X035393Y049085D01*
X035102Y049173D02*
X035014Y049085D01*
X034837Y049085D01*
X034749Y049173D01*
X034749Y049262D01*
X034837Y049350D01*
X034925Y049350D01*
X034837Y049350D02*
X034749Y049439D01*
X034749Y049527D01*
X034837Y049615D01*
X035014Y049615D01*
X035102Y049527D01*
X032631Y050585D02*
X032631Y051115D01*
X032631Y050850D02*
X032278Y050850D01*
X032278Y051115D02*
X032278Y050585D01*
X031987Y050673D02*
X031987Y050850D01*
X031898Y050939D01*
X031722Y050939D01*
X031633Y050850D01*
X031633Y050762D01*
X031987Y050762D01*
X031987Y050673D02*
X031898Y050585D01*
X031722Y050585D01*
X031342Y050585D02*
X031166Y050585D01*
X031254Y050585D02*
X031254Y050939D01*
X031342Y050939D01*
X031254Y051115D02*
X031254Y051204D01*
X030913Y050850D02*
X030913Y050673D01*
X030824Y050585D01*
X030559Y050585D01*
X030559Y050497D02*
X030559Y050939D01*
X030824Y050939D01*
X030913Y050850D01*
X030736Y050408D02*
X030647Y050408D01*
X030559Y050497D01*
X030268Y050585D02*
X030268Y051115D01*
X030180Y050939D02*
X030003Y050939D01*
X029914Y050850D01*
X029914Y050585D01*
X029535Y050673D02*
X029447Y050585D01*
X029535Y050673D02*
X029535Y051027D01*
X029447Y050939D02*
X029624Y050939D01*
X030180Y050939D02*
X030268Y050850D01*
D11*
X039500Y028500D03*
X039500Y027500D03*
X039500Y026500D03*
X039500Y025500D03*
X039500Y024500D03*
X040500Y024500D03*
X040500Y025500D03*
X040500Y026500D03*
X040500Y027500D03*
X040500Y028500D03*
X008500Y031000D03*
X007500Y031000D03*
X008500Y020500D03*
X008500Y019500D03*
X008500Y003500D03*
X007500Y003500D03*
X008500Y047000D03*
X008500Y048000D03*
D12*
X008500Y045500D03*
X012500Y045500D03*
X012500Y051000D03*
X008500Y051000D03*
X032500Y030500D03*
X032500Y027500D03*
X032500Y024500D03*
X032500Y024500D03*
X035500Y024500D03*
X035500Y024500D03*
X035500Y027500D03*
X035500Y030500D03*
D13*
X023374Y029500D03*
X022626Y029500D03*
X022626Y027000D03*
X023374Y027000D03*
X019874Y025500D03*
X019126Y025500D03*
X019126Y029500D03*
X019874Y029500D03*
D14*
X010000Y030126D03*
X010000Y030874D03*
X010000Y003374D03*
X010000Y002626D03*
D15*
X003625Y002125D03*
X003625Y003375D03*
X003625Y004625D03*
X003625Y005875D03*
X003625Y007125D03*
X003625Y008375D03*
X003625Y009625D03*
X003625Y010875D03*
X003625Y012125D03*
X003625Y013375D03*
X003625Y014625D03*
X003625Y015875D03*
X003625Y017125D03*
X003625Y018375D03*
X003625Y019625D03*
X003625Y020875D03*
X003625Y022125D03*
X003625Y023375D03*
X003625Y029625D03*
X003625Y030875D03*
X003625Y032125D03*
X003625Y033375D03*
X003625Y034625D03*
X003625Y035875D03*
X003625Y037125D03*
X003625Y038375D03*
X003625Y039625D03*
X003625Y040875D03*
X003625Y042125D03*
X003625Y043375D03*
X003625Y044625D03*
X003625Y045875D03*
X003625Y047125D03*
X003625Y048375D03*
X003625Y049625D03*
X003625Y050875D03*
D16*
X003625Y002125D02*
X003750Y002000D01*
X006000Y002000D01*
X006500Y002500D01*
X007500Y002500D01*
X010000Y002500D01*
X010000Y002626D01*
X010455Y002561D02*
X046500Y002561D01*
X046500Y002719D02*
X010455Y002719D01*
X010455Y002878D02*
X046500Y002878D01*
X046500Y003036D02*
X010456Y003036D01*
X010463Y003049D02*
X010475Y003094D01*
X010475Y003326D01*
X010048Y003326D01*
X010048Y003422D01*
X010475Y003422D01*
X010475Y003654D01*
X010463Y003699D01*
X010439Y003740D01*
X010406Y003774D01*
X010365Y003798D01*
X010319Y003810D01*
X010048Y003810D01*
X010048Y003422D01*
X009952Y003422D01*
X009952Y003326D01*
X009525Y003326D01*
X009525Y003094D01*
X009537Y003049D01*
X009561Y003008D01*
X009582Y002986D01*
X009545Y002948D01*
X009545Y002740D01*
X007854Y002740D01*
X007738Y002856D01*
X007584Y002920D01*
X007416Y002920D01*
X007262Y002856D01*
X007146Y002740D01*
X006500Y002740D01*
X006500Y003260D01*
X007118Y003260D01*
X007318Y003060D01*
X007682Y003060D01*
X007940Y003318D01*
X007940Y003682D01*
X007682Y003940D01*
X007318Y003940D01*
X007118Y003740D01*
X006500Y003740D01*
X006500Y005760D01*
X007146Y005760D01*
X007262Y005644D01*
X007416Y005580D01*
X007584Y005580D01*
X007738Y005644D01*
X007856Y005762D01*
X007920Y005916D01*
X007920Y006084D01*
X007856Y006238D01*
X007738Y006356D01*
X007584Y006420D01*
X007416Y006420D01*
X007262Y006356D01*
X007146Y006240D01*
X006500Y006240D01*
X006500Y007161D01*
X006599Y007260D01*
X007146Y007260D01*
X007262Y007144D01*
X007416Y007080D01*
X007584Y007080D01*
X007738Y007144D01*
X007856Y007262D01*
X007920Y007416D01*
X007920Y007584D01*
X007856Y007738D01*
X007738Y007856D01*
X007584Y007920D01*
X007416Y007920D01*
X007262Y007856D01*
X007146Y007740D01*
X006500Y007740D01*
X006500Y008260D01*
X007146Y008260D01*
X007262Y008144D01*
X007416Y008080D01*
X007584Y008080D01*
X007738Y008144D01*
X007856Y008262D01*
X007920Y008416D01*
X007920Y008584D01*
X007856Y008738D01*
X007738Y008856D01*
X007584Y008920D01*
X007416Y008920D01*
X007262Y008856D01*
X007146Y008740D01*
X006500Y008740D01*
X006500Y009661D01*
X006599Y009760D01*
X007146Y009760D01*
X007262Y009644D01*
X007416Y009580D01*
X007584Y009580D01*
X007738Y009644D01*
X007856Y009762D01*
X007920Y009916D01*
X007920Y010084D01*
X007856Y010238D01*
X007738Y010356D01*
X007584Y010420D01*
X007416Y010420D01*
X007262Y010356D01*
X007146Y010240D01*
X006500Y010240D01*
X006500Y010760D01*
X007146Y010760D01*
X007262Y010644D01*
X006500Y010644D01*
X006500Y010486D02*
X046500Y010486D01*
X046500Y010644D02*
X007738Y010644D01*
X007856Y010762D01*
X007920Y010916D01*
X007920Y011084D01*
X007856Y011238D01*
X007738Y011356D01*
X007584Y011420D01*
X007416Y011420D01*
X007262Y011356D01*
X007146Y011240D01*
X006500Y011240D01*
X006500Y012161D01*
X006599Y012260D01*
X007146Y012260D01*
X007262Y012144D01*
X007416Y012080D01*
X007584Y012080D01*
X007738Y012144D01*
X007856Y012262D01*
X007920Y012416D01*
X007920Y012584D01*
X007856Y012738D01*
X007738Y012856D01*
X007584Y012920D01*
X007416Y012920D01*
X007262Y012856D01*
X007146Y012740D01*
X006500Y012740D01*
X006500Y013260D01*
X007146Y013260D01*
X007262Y013144D01*
X007416Y013080D01*
X007584Y013080D01*
X007738Y013144D01*
X007856Y013262D01*
X007920Y013416D01*
X007920Y013584D01*
X007856Y013738D01*
X007738Y013856D01*
X007584Y013920D01*
X007416Y013920D01*
X007262Y013856D01*
X007146Y013740D01*
X006500Y013740D01*
X006500Y014661D01*
X006599Y014760D01*
X007146Y014760D01*
X007262Y014644D01*
X007416Y014580D01*
X007584Y014580D01*
X007738Y014644D01*
X007856Y014762D01*
X007920Y014916D01*
X007920Y015084D01*
X007856Y015238D01*
X007738Y015356D01*
X007584Y015420D01*
X007416Y015420D01*
X007262Y015356D01*
X007146Y015240D01*
X006500Y015240D01*
X006500Y015760D01*
X007146Y015760D01*
X007262Y015644D01*
X007416Y015580D01*
X007584Y015580D01*
X007738Y015644D01*
X007856Y015762D01*
X007920Y015916D01*
X007920Y016084D01*
X007856Y016238D01*
X007738Y016356D01*
X007584Y016420D01*
X007416Y016420D01*
X007262Y016356D01*
X007146Y016240D01*
X006500Y016240D01*
X006500Y017161D01*
X006599Y017260D01*
X007146Y017260D01*
X007262Y017144D01*
X007416Y017080D01*
X007584Y017080D01*
X007738Y017144D01*
X007856Y017262D01*
X007920Y017416D01*
X007920Y017584D01*
X007856Y017738D01*
X007738Y017856D01*
X007584Y017920D01*
X007416Y017920D01*
X007262Y017856D01*
X007146Y017740D01*
X006500Y017740D01*
X006500Y018260D01*
X007146Y018260D01*
X007262Y018144D01*
X007416Y018080D01*
X007584Y018080D01*
X007738Y018144D01*
X007856Y018262D01*
X007920Y018416D01*
X007920Y018584D01*
X007856Y018738D01*
X007738Y018856D01*
X007584Y018920D01*
X007416Y018920D01*
X007262Y018856D01*
X007146Y018740D01*
X006500Y018740D01*
X006500Y019661D01*
X006599Y019760D01*
X007146Y019760D01*
X007262Y019644D01*
X007416Y019580D01*
X007584Y019580D01*
X007738Y019644D01*
X007856Y019762D01*
X007920Y019916D01*
X007920Y020084D01*
X007856Y020238D01*
X007738Y020356D01*
X007584Y020420D01*
X007416Y020420D01*
X007262Y020356D01*
X007146Y020240D01*
X006500Y020240D01*
X006500Y020760D01*
X007146Y020760D01*
X007262Y020644D01*
X007416Y020580D01*
X007584Y020580D01*
X007738Y020644D01*
X007856Y020762D01*
X007920Y020916D01*
X007920Y021084D01*
X007856Y021238D01*
X007738Y021356D01*
X007584Y021420D01*
X007416Y021420D01*
X007262Y021356D01*
X007146Y021240D01*
X006500Y021240D01*
X006500Y022161D01*
X006599Y022260D01*
X007146Y022260D01*
X007262Y022144D01*
X007416Y022080D01*
X007584Y022080D01*
X007738Y022144D01*
X007856Y022262D01*
X007920Y022416D01*
X007920Y022584D01*
X007856Y022738D01*
X007738Y022856D01*
X007584Y022920D01*
X007416Y022920D01*
X007262Y022856D01*
X007146Y022740D01*
X006500Y022740D01*
X006500Y023260D01*
X007146Y023260D01*
X007262Y023144D01*
X007416Y023080D01*
X007584Y023080D01*
X007738Y023144D01*
X007856Y023262D01*
X007920Y023416D01*
X007920Y023584D01*
X007856Y023738D01*
X007845Y023748D01*
X007960Y023863D01*
X007960Y025437D01*
X007837Y025560D01*
X006960Y025560D01*
X006960Y029137D01*
X006837Y029260D01*
X006500Y029260D01*
X006500Y029661D01*
X006599Y029760D01*
X007146Y029760D01*
X007262Y029644D01*
X007416Y029580D01*
X007584Y029580D01*
X007738Y029644D01*
X007854Y029760D01*
X009589Y029760D01*
X009638Y029710D01*
X010362Y029710D01*
X010455Y029804D01*
X010455Y030448D01*
X010418Y030486D01*
X010439Y030508D01*
X010463Y030549D01*
X010475Y030594D01*
X010475Y030826D01*
X010048Y030826D01*
X010048Y030922D01*
X010475Y030922D01*
X010475Y031154D01*
X010463Y031199D01*
X010439Y031240D01*
X010406Y031274D01*
X010365Y031298D01*
X010319Y031310D01*
X010048Y031310D01*
X010048Y030922D01*
X009952Y030922D01*
X009952Y030826D01*
X009525Y030826D01*
X009525Y030594D01*
X009537Y030549D01*
X009561Y030508D01*
X009582Y030486D01*
X009545Y030448D01*
X009545Y030240D01*
X008240Y030240D01*
X008240Y030638D01*
X008318Y030560D01*
X008682Y030560D01*
X008940Y030818D01*
X008940Y031182D01*
X008682Y031440D01*
X008318Y031440D01*
X008240Y031362D01*
X008240Y031646D01*
X008356Y031762D01*
X008420Y031916D01*
X008420Y032084D01*
X008356Y032238D01*
X008238Y032356D01*
X008084Y032420D01*
X007916Y032420D01*
X007762Y032356D01*
X007644Y032238D01*
X007580Y032084D01*
X007580Y031916D01*
X007644Y031762D01*
X007760Y031646D01*
X007760Y031362D01*
X007682Y031440D01*
X007318Y031440D01*
X007118Y031240D01*
X006500Y031240D01*
X006500Y033260D01*
X007146Y033260D01*
X007262Y033144D01*
X007416Y033080D01*
X007584Y033080D01*
X007738Y033144D01*
X007856Y033262D01*
X007920Y033416D01*
X007920Y033584D01*
X007856Y033738D01*
X007738Y033856D01*
X007584Y033920D01*
X007416Y033920D01*
X007262Y033856D01*
X007146Y033740D01*
X006500Y033740D01*
X006500Y034661D01*
X006599Y034760D01*
X007146Y034760D01*
X007262Y034644D01*
X007416Y034580D01*
X007584Y034580D01*
X007738Y034644D01*
X007856Y034762D01*
X007920Y034916D01*
X007920Y035084D01*
X007856Y035238D01*
X007738Y035356D01*
X007584Y035420D01*
X007416Y035420D01*
X007262Y035356D01*
X007146Y035240D01*
X006500Y035240D01*
X006500Y035760D01*
X007146Y035760D01*
X007262Y035644D01*
X007416Y035580D01*
X007584Y035580D01*
X007738Y035644D01*
X007856Y035762D01*
X007920Y035916D01*
X007920Y036084D01*
X007856Y036238D01*
X007738Y036356D01*
X007584Y036420D01*
X007416Y036420D01*
X007262Y036356D01*
X007146Y036240D01*
X006500Y036240D01*
X006500Y037161D01*
X006599Y037260D01*
X007146Y037260D01*
X007262Y037144D01*
X007416Y037080D01*
X007584Y037080D01*
X007738Y037144D01*
X007856Y037262D01*
X007920Y037416D01*
X007920Y037584D01*
X007856Y037738D01*
X007738Y037856D01*
X007584Y037920D01*
X007416Y037920D01*
X007262Y037856D01*
X007146Y037740D01*
X006500Y037740D01*
X006500Y038260D01*
X007146Y038260D01*
X007262Y038144D01*
X007416Y038080D01*
X007584Y038080D01*
X007738Y038144D01*
X007856Y038262D01*
X007920Y038416D01*
X007920Y038584D01*
X007856Y038738D01*
X007738Y038856D01*
X007584Y038920D01*
X007416Y038920D01*
X007262Y038856D01*
X007146Y038740D01*
X006500Y038740D01*
X006500Y039661D01*
X006599Y039760D01*
X007146Y039760D01*
X007262Y039644D01*
X007416Y039580D01*
X007584Y039580D01*
X007738Y039644D01*
X007856Y039762D01*
X007920Y039916D01*
X007920Y040084D01*
X007856Y040238D01*
X007738Y040356D01*
X007584Y040420D01*
X007416Y040420D01*
X007262Y040356D01*
X007146Y040240D01*
X006500Y040240D01*
X006500Y040760D01*
X007146Y040760D01*
X007262Y040644D01*
X007416Y040580D01*
X007584Y040580D01*
X007738Y040644D01*
X007856Y040762D01*
X007920Y040916D01*
X007920Y041084D01*
X007856Y041238D01*
X007738Y041356D01*
X007584Y041420D01*
X007416Y041420D01*
X007262Y041356D01*
X007146Y041240D01*
X006500Y041240D01*
X006500Y042161D01*
X006599Y042260D01*
X007146Y042260D01*
X007262Y042144D01*
X007416Y042080D01*
X007584Y042080D01*
X007738Y042144D01*
X007856Y042262D01*
X007920Y042416D01*
X007920Y042584D01*
X007856Y042738D01*
X007738Y042856D01*
X007584Y042920D01*
X007416Y042920D01*
X007262Y042856D01*
X007146Y042740D01*
X006500Y042740D01*
X006500Y043260D01*
X007146Y043260D01*
X007262Y043144D01*
X007416Y043080D01*
X007584Y043080D01*
X007738Y043144D01*
X007856Y043262D01*
X007920Y043416D01*
X007920Y043584D01*
X007856Y043738D01*
X007738Y043856D01*
X007584Y043920D01*
X007416Y043920D01*
X007262Y043856D01*
X007146Y043740D01*
X006500Y043740D01*
X006500Y044661D01*
X006599Y044760D01*
X007146Y044760D01*
X007262Y044644D01*
X007416Y044580D01*
X007584Y044580D01*
X007738Y044644D01*
X007856Y044762D01*
X007920Y044916D01*
X007920Y045084D01*
X007856Y045238D01*
X007738Y045356D01*
X007584Y045420D01*
X007416Y045420D01*
X007262Y045356D01*
X007146Y045240D01*
X006500Y045240D01*
X006500Y045760D01*
X007146Y045760D01*
X007262Y045644D01*
X007416Y045580D01*
X007584Y045580D01*
X007738Y045644D01*
X007856Y045762D01*
X007920Y045916D01*
X007920Y046084D01*
X007856Y046238D01*
X007738Y046356D01*
X007584Y046420D01*
X007416Y046420D01*
X007262Y046356D01*
X007146Y046240D01*
X006500Y046240D01*
X006500Y047161D01*
X006599Y047260D01*
X007146Y047260D01*
X007262Y047144D01*
X007416Y047080D01*
X007584Y047080D01*
X007738Y047144D01*
X007856Y047262D01*
X007920Y047416D01*
X008266Y047416D01*
X008309Y047460D02*
X008040Y047191D01*
X008040Y047010D01*
X008490Y047010D01*
X008490Y047460D01*
X008309Y047460D01*
X008318Y047560D02*
X008682Y047560D01*
X008940Y047818D01*
X008940Y048182D01*
X008682Y048440D01*
X008318Y048440D01*
X008060Y048182D01*
X008060Y047818D01*
X008318Y047560D01*
X008303Y047575D02*
X007920Y047575D01*
X007920Y047584D02*
X007856Y047738D01*
X007738Y047856D01*
X007584Y047920D01*
X007416Y047920D01*
X007262Y047856D01*
X007146Y047740D01*
X006500Y047740D01*
X006500Y048260D01*
X007146Y048260D01*
X007262Y048144D01*
X007416Y048080D01*
X007584Y048080D01*
X007738Y048144D01*
X007856Y048262D01*
X007920Y048416D01*
X007920Y048584D01*
X007856Y048738D01*
X007738Y048856D01*
X007584Y048920D01*
X007416Y048920D01*
X007262Y048856D01*
X007146Y048740D01*
X006500Y048740D01*
X006500Y049661D01*
X006599Y049760D01*
X007146Y049760D01*
X007262Y049644D01*
X007416Y049580D01*
X007584Y049580D01*
X007738Y049644D01*
X007856Y049762D01*
X007920Y049916D01*
X007920Y050084D01*
X007856Y050238D01*
X007738Y050356D01*
X007584Y050420D01*
X007416Y050420D01*
X007262Y050356D01*
X007146Y050240D01*
X006500Y050240D01*
X006500Y050760D01*
X007146Y050760D01*
X007262Y050644D01*
X007416Y050580D01*
X007584Y050580D01*
X007738Y050644D01*
X007856Y050762D01*
X007920Y050916D01*
X007920Y051084D01*
X007856Y051238D01*
X007845Y051248D01*
X007960Y051363D01*
X007960Y052290D01*
X046500Y052290D01*
X046500Y000710D01*
X006960Y000710D01*
X006960Y001637D01*
X006837Y001760D01*
X006500Y001760D01*
X006500Y002161D01*
X006599Y002260D01*
X007146Y002260D01*
X007262Y002144D01*
X007416Y002080D01*
X007584Y002080D01*
X007738Y002144D01*
X007854Y002260D01*
X009589Y002260D01*
X009638Y002210D01*
X010362Y002210D01*
X010455Y002304D01*
X010455Y002948D01*
X010418Y002986D01*
X010439Y003008D01*
X010463Y003049D01*
X010475Y003195D02*
X046500Y003195D01*
X046500Y003353D02*
X010048Y003353D01*
X010000Y003374D02*
X010000Y004500D01*
X009500Y005000D01*
X008500Y005000D01*
X008500Y019500D01*
X010500Y021500D01*
X010500Y026500D01*
X010500Y030500D01*
X010126Y030874D01*
X010000Y030874D01*
X010000Y031500D01*
X009000Y032500D01*
X009000Y046500D01*
X008500Y047000D01*
X008510Y047010D02*
X008960Y047010D01*
X008960Y047191D01*
X008691Y047460D01*
X008510Y047460D01*
X008510Y047010D01*
X008510Y046990D01*
X008960Y046990D01*
X008960Y046809D01*
X008691Y046540D01*
X008510Y046540D01*
X008510Y046990D01*
X008490Y046990D01*
X008490Y046540D01*
X008309Y046540D01*
X008040Y046809D01*
X008040Y046990D01*
X008490Y046990D01*
X008490Y047010D01*
X008510Y047010D01*
X008510Y046941D02*
X008490Y046941D01*
X008490Y047099D02*
X008510Y047099D01*
X008510Y047258D02*
X008490Y047258D01*
X008490Y047416D02*
X008510Y047416D01*
X008734Y047416D02*
X012260Y047416D01*
X012260Y047258D02*
X008893Y047258D01*
X008960Y047099D02*
X012260Y047099D01*
X012260Y046941D02*
X008960Y046941D01*
X008933Y046782D02*
X012260Y046782D01*
X012260Y046624D02*
X008774Y046624D01*
X008510Y046624D02*
X008490Y046624D01*
X008490Y046782D02*
X008510Y046782D01*
X008226Y046624D02*
X006500Y046624D01*
X006500Y046782D02*
X008067Y046782D01*
X008040Y046941D02*
X006500Y046941D01*
X006500Y047099D02*
X007370Y047099D01*
X007630Y047099D02*
X008040Y047099D01*
X008107Y047258D02*
X007852Y047258D01*
X007920Y047416D02*
X007920Y047584D01*
X007858Y047733D02*
X008145Y047733D01*
X008060Y047892D02*
X007652Y047892D01*
X007348Y047892D02*
X006500Y047892D01*
X006500Y048050D02*
X008060Y048050D01*
X008086Y048209D02*
X007803Y048209D01*
X007900Y048367D02*
X008245Y048367D01*
X007920Y048526D02*
X012260Y048526D01*
X012260Y048684D02*
X007878Y048684D01*
X007751Y048843D02*
X012260Y048843D01*
X012260Y049001D02*
X006500Y049001D01*
X006500Y048843D02*
X007249Y048843D01*
X007500Y048500D02*
X003750Y048500D01*
X003625Y048375D01*
X003750Y049500D02*
X006000Y049500D01*
X006500Y050000D01*
X007500Y050000D01*
X007825Y050269D02*
X012260Y050269D01*
X012260Y050111D02*
X007909Y050111D01*
X007920Y049952D02*
X012260Y049952D01*
X012260Y049794D02*
X007869Y049794D01*
X007717Y049635D02*
X012260Y049635D01*
X012260Y049477D02*
X006500Y049477D01*
X006500Y049635D02*
X007283Y049635D01*
X007175Y050269D02*
X006500Y050269D01*
X006500Y050428D02*
X012260Y050428D01*
X012260Y050586D02*
X008680Y050586D01*
X008674Y050580D02*
X008920Y050826D01*
X008920Y051174D01*
X008674Y051420D01*
X008326Y051420D01*
X008080Y051174D01*
X008080Y050826D01*
X008326Y050580D01*
X008674Y050580D01*
X008839Y050745D02*
X012161Y050745D01*
X012080Y050826D02*
X012260Y050646D01*
X012260Y045854D01*
X012080Y045674D01*
X012080Y045326D01*
X012326Y045080D01*
X012581Y045080D01*
X020260Y037401D01*
X020260Y029891D01*
X020196Y029955D01*
X019552Y029955D01*
X019514Y029918D01*
X019492Y029939D01*
X019451Y029963D01*
X019406Y029975D01*
X019174Y029975D01*
X019174Y029548D01*
X019078Y029548D01*
X019078Y029975D01*
X018846Y029975D01*
X018801Y029963D01*
X018760Y029939D01*
X018726Y029906D01*
X018702Y029865D01*
X018690Y029819D01*
X018690Y029548D01*
X019078Y029548D01*
X019078Y029452D01*
X019174Y029452D01*
X019174Y029025D01*
X019406Y029025D01*
X019451Y029037D01*
X019492Y029061D01*
X019514Y029082D01*
X019552Y029045D01*
X019634Y029045D01*
X019634Y028973D01*
X019401Y028740D01*
X018854Y028740D01*
X018738Y028856D01*
X018584Y028920D01*
X018416Y028920D01*
X018262Y028856D01*
X018144Y028738D01*
X018080Y028584D01*
X018080Y028416D01*
X018144Y028262D01*
X018260Y028146D01*
X018260Y027854D01*
X018144Y027738D01*
X018080Y027584D01*
X018080Y027416D01*
X018144Y027262D01*
X018260Y027146D01*
X018260Y025854D01*
X018144Y025738D01*
X018080Y025584D01*
X018080Y025416D01*
X018144Y025262D01*
X018262Y025144D01*
X018416Y025080D01*
X018584Y025080D01*
X018714Y025134D01*
X018804Y025045D01*
X019448Y025045D01*
X019486Y025082D01*
X019508Y025061D01*
X019549Y025037D01*
X019594Y025025D01*
X019826Y025025D01*
X019826Y025452D01*
X019922Y025452D01*
X019922Y025025D01*
X020154Y025025D01*
X020199Y025037D01*
X020240Y025061D01*
X020274Y025094D01*
X020298Y025135D01*
X020310Y025181D01*
X020310Y025452D01*
X019922Y025452D01*
X019922Y025548D01*
X019826Y025548D01*
X019826Y025975D01*
X019594Y025975D01*
X019549Y025963D01*
X019508Y025939D01*
X019486Y025918D01*
X019448Y025955D01*
X019366Y025955D01*
X019366Y026527D01*
X019419Y026580D01*
X019584Y026580D01*
X019738Y026644D01*
X019856Y026762D01*
X019920Y026916D01*
X019920Y027084D01*
X019856Y027238D01*
X019738Y027356D01*
X019584Y027420D01*
X019416Y027420D01*
X019262Y027356D01*
X019144Y027238D01*
X019080Y027084D01*
X019080Y026919D01*
X018990Y026829D01*
X018923Y026762D01*
X018886Y026674D01*
X018886Y025955D01*
X018804Y025955D01*
X018740Y025891D01*
X018740Y027146D01*
X018856Y027262D01*
X018920Y027416D01*
X018920Y027584D01*
X018856Y027738D01*
X018740Y027854D01*
X018740Y028146D01*
X018854Y028260D01*
X019548Y028260D01*
X019636Y028297D01*
X020010Y028671D01*
X020077Y028738D01*
X020114Y028826D01*
X020114Y029045D01*
X020196Y029045D01*
X020286Y029134D01*
X020416Y029080D01*
X020584Y029080D01*
X020696Y029127D01*
X020696Y029033D01*
X020760Y028878D01*
X020878Y028760D01*
X021033Y028696D01*
X021200Y028696D01*
X021354Y028760D01*
X021472Y028878D01*
X021536Y029033D01*
X021536Y029200D01*
X021472Y029354D01*
X021354Y029472D01*
X021240Y029519D01*
X021240Y029901D01*
X022599Y031260D01*
X040401Y031260D01*
X041260Y030401D01*
X041260Y027599D01*
X040601Y026940D01*
X040318Y026940D01*
X040060Y026682D01*
X040060Y026318D01*
X040318Y026060D01*
X040682Y026060D01*
X040940Y026318D01*
X040940Y026601D01*
X041703Y027364D01*
X041740Y027452D01*
X041740Y030548D01*
X041703Y030636D01*
X041636Y030703D01*
X040636Y031703D01*
X040548Y031740D01*
X022452Y031740D01*
X022364Y031703D01*
X022297Y031636D01*
X020864Y030203D01*
X020797Y030136D01*
X020760Y030048D01*
X020760Y029834D01*
X020740Y029854D01*
X020740Y037548D01*
X020703Y037636D01*
X020636Y037703D01*
X012920Y045419D01*
X012920Y045674D01*
X012740Y045854D01*
X012740Y050646D01*
X012920Y050826D01*
X012920Y051174D01*
X012674Y051420D01*
X012326Y051420D01*
X012080Y051174D01*
X012080Y050826D01*
X012080Y050903D02*
X008920Y050903D01*
X008920Y051062D02*
X012080Y051062D01*
X012126Y051220D02*
X008874Y051220D01*
X008715Y051379D02*
X012285Y051379D01*
X012715Y051379D02*
X031082Y051379D01*
X031115Y051412D02*
X031046Y051343D01*
X031009Y051253D01*
X031009Y051100D01*
X030964Y051145D01*
X030963Y051146D01*
X030963Y051146D01*
X030963Y051146D01*
X030926Y051161D01*
X030873Y051184D01*
X030510Y051184D01*
X030506Y051182D01*
X030476Y051254D01*
X030407Y051323D01*
X030317Y051360D01*
X030219Y051360D01*
X030129Y051323D01*
X030060Y051254D01*
X030031Y051184D01*
X029954Y051184D01*
X029864Y051146D01*
X029813Y051095D01*
X029762Y051146D01*
X029749Y051152D01*
X029743Y051166D01*
X029674Y051235D01*
X029584Y051272D01*
X029486Y051272D01*
X029396Y051235D01*
X029327Y051166D01*
X029322Y051152D01*
X029308Y051146D01*
X029239Y051077D01*
X029202Y050987D01*
X029202Y050890D01*
X029239Y050800D01*
X029277Y050762D01*
X029239Y050724D01*
X029202Y050634D01*
X029202Y050536D01*
X029239Y050446D01*
X029308Y050377D01*
X029398Y050340D01*
X029495Y050340D01*
X029585Y050377D01*
X029674Y050466D01*
X029691Y050483D01*
X029707Y050446D01*
X029776Y050377D01*
X029866Y050340D01*
X029963Y050340D01*
X030053Y050377D01*
X030091Y050415D01*
X030129Y050377D01*
X030219Y050340D01*
X030317Y050340D01*
X030354Y050355D01*
X030420Y050289D01*
X030509Y050200D01*
X030599Y050163D01*
X030785Y050163D01*
X030875Y050200D01*
X030944Y050269D01*
X030981Y050359D01*
X030981Y050395D01*
X030995Y050409D01*
X031027Y050377D01*
X031117Y050340D01*
X031391Y050340D01*
X031481Y050377D01*
X031532Y050428D01*
X031583Y050377D01*
X031673Y050340D01*
X031947Y050340D01*
X032037Y050377D01*
X032088Y050428D01*
X032139Y050377D01*
X032229Y050340D01*
X032327Y050340D01*
X032417Y050377D01*
X032455Y050415D01*
X032493Y050377D01*
X032583Y050340D01*
X032680Y050340D01*
X032770Y050377D01*
X032839Y050446D01*
X032876Y050536D01*
X032876Y051164D01*
X032839Y051254D01*
X032770Y051323D01*
X032680Y051360D01*
X032583Y051360D01*
X032493Y051323D01*
X032455Y051285D01*
X032417Y051323D01*
X032327Y051360D01*
X032229Y051360D01*
X032139Y051323D01*
X032070Y051254D01*
X032033Y051164D01*
X032033Y051148D01*
X031999Y051162D01*
X031947Y051184D01*
X031673Y051184D01*
X031583Y051146D01*
X031532Y051095D01*
X031499Y051129D01*
X031499Y051253D01*
X031462Y051343D01*
X031393Y051412D01*
X031303Y051449D01*
X031205Y051449D01*
X031115Y051412D01*
X031009Y051220D02*
X030490Y051220D01*
X030046Y051220D02*
X029689Y051220D01*
X029382Y051220D02*
X012874Y051220D01*
X012920Y051062D02*
X029232Y051062D01*
X029202Y050903D02*
X012920Y050903D01*
X012839Y050745D02*
X029260Y050745D01*
X029202Y050586D02*
X012740Y050586D01*
X012740Y050428D02*
X029258Y050428D01*
X029636Y050428D02*
X029725Y050428D01*
X029674Y050466D02*
X029674Y050466D01*
X030440Y050269D02*
X012740Y050269D01*
X012740Y050111D02*
X046500Y050111D01*
X046500Y050269D02*
X038210Y050269D01*
X038240Y050342D01*
X038245Y050340D01*
X038342Y050340D01*
X038432Y050377D01*
X038470Y050415D01*
X038508Y050377D01*
X038598Y050340D01*
X038696Y050340D01*
X038786Y050377D01*
X038793Y050384D01*
X038799Y050377D01*
X038889Y050340D01*
X038987Y050340D01*
X039077Y050377D01*
X039115Y050415D01*
X039153Y050377D01*
X039243Y050340D01*
X039341Y050340D01*
X039431Y050377D01*
X039437Y050384D01*
X039444Y050377D01*
X039534Y050340D01*
X039631Y050340D01*
X039721Y050377D01*
X039760Y050415D01*
X039798Y050377D01*
X039888Y050340D01*
X039985Y050340D01*
X040075Y050377D01*
X040082Y050384D01*
X040088Y050377D01*
X040179Y050340D01*
X040276Y050340D01*
X040366Y050377D01*
X040404Y050415D01*
X040442Y050377D01*
X040532Y050340D01*
X040630Y050340D01*
X040720Y050377D01*
X040789Y050446D01*
X040826Y050536D01*
X040826Y051164D01*
X040789Y051254D01*
X040720Y051323D01*
X040630Y051360D01*
X040532Y051360D01*
X040442Y051323D01*
X040404Y051285D01*
X040366Y051323D01*
X040276Y051360D01*
X040179Y051360D01*
X040142Y051345D01*
X040088Y051323D01*
X040020Y051254D01*
X039990Y051182D01*
X039985Y051184D01*
X039888Y051184D01*
X039798Y051146D01*
X039760Y051108D01*
X039721Y051146D01*
X039631Y051184D01*
X039534Y051184D01*
X039444Y051146D01*
X039437Y051140D01*
X039431Y051146D01*
X039341Y051184D01*
X039243Y051184D01*
X039153Y051146D01*
X039115Y051108D01*
X039077Y051146D01*
X038987Y051184D01*
X038889Y051184D01*
X038799Y051146D01*
X038793Y051140D01*
X038786Y051146D01*
X038696Y051184D01*
X038598Y051184D01*
X038508Y051146D01*
X038470Y051108D01*
X038432Y051146D01*
X038342Y051184D01*
X038245Y051184D01*
X038155Y051146D01*
X038086Y051077D01*
X038049Y050987D01*
X038049Y050890D01*
X038052Y050882D01*
X037963Y050918D01*
X037777Y050918D01*
X037687Y050881D01*
X037618Y050812D01*
X037581Y050722D01*
X037581Y050536D01*
X037618Y050446D01*
X037687Y050377D01*
X037864Y050200D01*
X037954Y050163D01*
X038051Y050163D01*
X038141Y050200D01*
X038210Y050269D01*
X038197Y049860D02*
X038099Y049860D01*
X038009Y049823D01*
X037940Y049754D01*
X037903Y049664D01*
X037903Y049541D01*
X037888Y049577D01*
X037819Y049646D01*
X037729Y049684D01*
X037595Y049684D01*
X037566Y049754D01*
X037497Y049823D01*
X037407Y049860D01*
X036956Y049860D01*
X036866Y049823D01*
X036815Y049772D01*
X036764Y049823D01*
X036726Y049839D01*
X036674Y049860D01*
X036400Y049860D01*
X036310Y049823D01*
X036221Y049735D01*
X036155Y049668D01*
X036118Y049684D01*
X035937Y049684D01*
X035866Y049754D01*
X035866Y049754D01*
X035797Y049823D01*
X035734Y049849D01*
X035707Y049860D01*
X035433Y049860D01*
X035343Y049823D01*
X035274Y049754D01*
X035248Y049728D01*
X035221Y049754D01*
X035221Y049754D01*
X035153Y049823D01*
X035115Y049839D01*
X035063Y049860D01*
X034788Y049860D01*
X034698Y049823D01*
X034610Y049735D01*
X034541Y049666D01*
X034504Y049576D01*
X034504Y049390D01*
X034520Y049350D01*
X034504Y049311D01*
X034504Y049125D01*
X034526Y049071D01*
X034541Y049035D01*
X034541Y049035D01*
X034542Y049033D01*
X034610Y048966D01*
X034629Y048946D01*
X034698Y048877D01*
X034788Y048840D01*
X035063Y048840D01*
X035153Y048877D01*
X035203Y048928D01*
X035254Y048877D01*
X035344Y048840D01*
X035795Y048840D01*
X035864Y048868D01*
X035932Y048840D01*
X036118Y048840D01*
X036208Y048877D01*
X036259Y048928D01*
X036310Y048877D01*
X036400Y048840D01*
X036674Y048840D01*
X036764Y048877D01*
X036852Y048966D01*
X036859Y048972D01*
X036866Y048966D01*
X036885Y048946D01*
X036954Y048877D01*
X037044Y048840D01*
X037318Y048840D01*
X037409Y048877D01*
X037431Y048900D01*
X037453Y048877D01*
X037543Y048840D01*
X037729Y048840D01*
X037819Y048877D01*
X037826Y048884D01*
X037833Y048877D01*
X037923Y048840D01*
X038374Y048840D01*
X038464Y048877D01*
X038470Y048884D01*
X038477Y048877D01*
X038567Y048840D01*
X039018Y048840D01*
X039108Y048877D01*
X039177Y048946D01*
X039215Y049036D01*
X039215Y049134D01*
X039177Y049224D01*
X039139Y049262D01*
X039177Y049300D01*
X039215Y049390D01*
X039215Y049487D01*
X039177Y049577D01*
X039000Y049754D01*
X038931Y049823D01*
X038841Y049860D01*
X038744Y049860D01*
X038654Y049823D01*
X038585Y049754D01*
X038548Y049664D01*
X038548Y049541D01*
X038533Y049577D01*
X038356Y049754D01*
X038287Y049823D01*
X038197Y049860D01*
X038316Y049794D02*
X038624Y049794D01*
X038548Y049635D02*
X038475Y049635D01*
X038961Y049794D02*
X039736Y049794D01*
X039708Y049769D02*
X039664Y049681D01*
X039657Y049584D01*
X039688Y049492D01*
X039735Y049438D01*
X039697Y049401D01*
X039660Y049311D01*
X039660Y049125D01*
X039682Y049073D01*
X039697Y049035D01*
X039766Y048966D01*
X039766Y048966D01*
X039786Y048946D01*
X039855Y048877D01*
X039945Y048840D01*
X040219Y048840D01*
X040309Y048877D01*
X040360Y048928D01*
X040411Y048877D01*
X040501Y048840D01*
X040952Y048840D01*
X041042Y048877D01*
X041093Y048928D01*
X041144Y048877D01*
X041234Y048840D01*
X041508Y048840D01*
X041598Y048877D01*
X041649Y048928D01*
X041700Y048877D01*
X041790Y048840D01*
X042241Y048840D01*
X042331Y048877D01*
X042400Y048946D01*
X042437Y049036D01*
X042437Y049134D01*
X042400Y049224D01*
X042312Y049312D01*
X042331Y049319D01*
X042364Y049352D01*
X042660Y048909D01*
X042741Y048854D01*
X042837Y048835D01*
X042932Y048854D01*
X043013Y048908D01*
X043027Y048928D01*
X043077Y048877D01*
X043167Y048840D01*
X043442Y048840D01*
X043532Y048877D01*
X043583Y048928D01*
X043633Y048877D01*
X043724Y048840D01*
X044175Y048840D01*
X044265Y048877D01*
X044334Y048946D01*
X044371Y049036D01*
X044371Y049134D01*
X044334Y049224D01*
X044296Y049262D01*
X044333Y049299D01*
X044594Y048909D01*
X044675Y048854D01*
X044770Y048835D01*
X044866Y048854D01*
X044947Y048908D01*
X045001Y048989D01*
X045020Y049085D01*
X045001Y049180D01*
X044881Y049361D01*
X045170Y049072D01*
X045170Y049036D01*
X045207Y048946D01*
X045276Y048877D01*
X045366Y048840D01*
X045464Y048840D01*
X045554Y048877D01*
X045623Y048946D01*
X045660Y049036D01*
X045660Y049222D01*
X045623Y049312D01*
X045554Y049381D01*
X045535Y049400D01*
X045554Y049408D01*
X045623Y049477D01*
X045660Y049567D01*
X045660Y049664D01*
X045623Y049754D01*
X045554Y049823D01*
X045464Y049860D01*
X045013Y049860D01*
X044923Y049823D01*
X044854Y049754D01*
X044816Y049664D01*
X044816Y049478D01*
X044839Y049424D01*
X044594Y049792D01*
X044513Y049846D01*
X044417Y049865D01*
X044321Y049846D01*
X044240Y049792D01*
X044192Y049719D01*
X044157Y049754D01*
X044088Y049823D01*
X043998Y049860D01*
X043900Y049860D01*
X043810Y049823D01*
X043741Y049754D01*
X043704Y049664D01*
X043704Y049630D01*
X043689Y049666D01*
X043601Y049754D01*
X043601Y049754D01*
X043532Y049823D01*
X043494Y049839D01*
X043442Y049860D01*
X043167Y049860D01*
X043077Y049823D01*
X042989Y049735D01*
X042920Y049666D01*
X042883Y049576D01*
X042883Y049458D01*
X042660Y049792D01*
X042579Y049846D01*
X042483Y049865D01*
X042388Y049846D01*
X042307Y049792D01*
X042293Y049772D01*
X042244Y049822D01*
X042243Y049823D01*
X042243Y049823D01*
X042206Y049838D01*
X042153Y049860D01*
X041878Y049860D01*
X041788Y049823D01*
X041719Y049754D01*
X041700Y049735D01*
X041693Y049728D01*
X041686Y049735D01*
X041667Y049754D01*
X041667Y049754D01*
X041598Y049823D01*
X041560Y049839D01*
X041508Y049860D01*
X041234Y049860D01*
X041144Y049823D01*
X041055Y049735D01*
X041049Y049728D01*
X041022Y049754D01*
X040955Y049822D01*
X040954Y049823D01*
X040954Y049823D01*
X040917Y049838D01*
X040863Y049860D01*
X040589Y049860D01*
X040499Y049823D01*
X040430Y049754D01*
X040342Y049666D01*
X040326Y049629D01*
X040261Y049694D01*
X040235Y049724D01*
X040227Y049728D01*
X040221Y049735D01*
X040184Y049750D01*
X039971Y049856D01*
X039874Y049863D01*
X039781Y049832D01*
X039708Y049769D01*
X039661Y049635D02*
X039120Y049635D01*
X039215Y049477D02*
X039701Y049477D01*
X039663Y049318D02*
X039185Y049318D01*
X039204Y049160D02*
X039660Y049160D01*
X039731Y049001D02*
X039200Y049001D01*
X039024Y048843D02*
X039938Y048843D01*
X039786Y048946D02*
X039786Y048946D01*
X040225Y048843D02*
X040495Y048843D01*
X040958Y048843D02*
X041228Y048843D01*
X041514Y048843D02*
X041784Y048843D01*
X042247Y048843D02*
X042800Y048843D01*
X042874Y048843D02*
X043161Y048843D01*
X043448Y048843D02*
X043717Y048843D01*
X044181Y048843D02*
X044733Y048843D01*
X044807Y048843D02*
X045360Y048843D01*
X045470Y048843D02*
X046500Y048843D01*
X046500Y049001D02*
X045645Y049001D01*
X045660Y049160D02*
X046500Y049160D01*
X046500Y049318D02*
X045617Y049318D01*
X045623Y049477D02*
X046500Y049477D01*
X046500Y049635D02*
X045660Y049635D01*
X045583Y049794D02*
X046500Y049794D01*
X046500Y049952D02*
X012740Y049952D01*
X012740Y049794D02*
X032647Y049794D01*
X032676Y049823D02*
X032607Y049754D01*
X032570Y049664D01*
X032570Y049036D01*
X032607Y048946D01*
X032676Y048877D01*
X032766Y048840D01*
X032864Y048840D01*
X032954Y048877D01*
X032992Y048915D01*
X033030Y048877D01*
X033120Y048840D01*
X033217Y048840D01*
X033307Y048877D01*
X033376Y048946D01*
X033414Y049036D01*
X033414Y049052D01*
X033499Y049017D01*
X033576Y049017D01*
X033605Y048946D01*
X033674Y048877D01*
X033764Y048840D01*
X033862Y048840D01*
X033952Y048877D01*
X034021Y048946D01*
X034058Y049036D01*
X034058Y049664D01*
X034021Y049754D01*
X033952Y049823D01*
X033862Y049860D01*
X033499Y049860D01*
X033409Y049823D01*
X033358Y049772D01*
X033307Y049823D01*
X033217Y049860D01*
X033120Y049860D01*
X033030Y049823D01*
X032992Y049785D01*
X032954Y049823D01*
X032864Y049860D01*
X032766Y049860D01*
X032730Y049845D01*
X032676Y049823D01*
X032570Y049635D02*
X012740Y049635D01*
X012740Y049477D02*
X032570Y049477D01*
X032570Y049318D02*
X012740Y049318D01*
X012740Y049160D02*
X032570Y049160D01*
X032584Y049001D02*
X012740Y049001D01*
X012740Y048843D02*
X032760Y048843D01*
X032870Y048843D02*
X033114Y048843D01*
X033224Y048843D02*
X033758Y048843D01*
X033868Y048843D02*
X034782Y048843D01*
X034629Y048946D02*
X034629Y048946D01*
X034610Y048966D02*
X034610Y048966D01*
X034574Y049001D02*
X034044Y049001D01*
X034058Y049160D02*
X034504Y049160D01*
X034507Y049318D02*
X034058Y049318D01*
X034058Y049477D02*
X034504Y049477D01*
X034528Y049635D02*
X034058Y049635D01*
X033981Y049794D02*
X034669Y049794D01*
X035182Y049794D02*
X035313Y049794D01*
X035827Y049794D02*
X036280Y049794D01*
X036794Y049794D02*
X036836Y049794D01*
X036977Y050340D02*
X037067Y050377D01*
X037136Y050446D01*
X037173Y050536D01*
X037173Y051164D01*
X037136Y051254D01*
X037067Y051323D01*
X036977Y051360D01*
X036614Y051360D01*
X036524Y051323D01*
X036456Y051254D01*
X036367Y051166D01*
X036352Y051129D01*
X036335Y051145D01*
X036334Y051146D01*
X036298Y051161D01*
X036244Y051184D01*
X035970Y051184D01*
X035880Y051146D01*
X035829Y051095D01*
X035778Y051146D01*
X035688Y051184D01*
X035591Y051184D01*
X035501Y051146D01*
X035463Y051108D01*
X035424Y051146D01*
X035334Y051184D01*
X035237Y051184D01*
X035232Y051182D01*
X035202Y051254D01*
X035134Y051323D01*
X035044Y051360D01*
X034946Y051360D01*
X034856Y051323D01*
X034787Y051254D01*
X034758Y051184D01*
X034681Y051184D01*
X034595Y051148D01*
X034595Y051164D01*
X034558Y051254D01*
X034489Y051323D01*
X034399Y051360D01*
X034213Y051360D01*
X034123Y051323D01*
X034054Y051254D01*
X034017Y051164D01*
X034017Y051100D01*
X033971Y051146D01*
X033933Y051162D01*
X033881Y051184D01*
X033607Y051184D01*
X033517Y051146D01*
X033428Y051058D01*
X033359Y050989D01*
X033322Y050899D01*
X033322Y050713D01*
X033359Y050623D01*
X033410Y050572D01*
X033410Y050536D01*
X033448Y050446D01*
X033517Y050377D01*
X033607Y050340D01*
X033881Y050340D01*
X033971Y050377D01*
X034003Y050409D01*
X034035Y050377D01*
X034125Y050340D01*
X034399Y050340D01*
X034489Y050377D01*
X034540Y050428D01*
X034591Y050377D01*
X034681Y050340D01*
X035044Y050340D01*
X035134Y050377D01*
X035140Y050384D01*
X035147Y050377D01*
X035237Y050340D01*
X035600Y050340D01*
X035690Y050377D01*
X035759Y050446D01*
X035785Y050472D01*
X035791Y050466D01*
X035791Y050466D01*
X035811Y050446D01*
X035880Y050377D01*
X035970Y050340D01*
X036244Y050340D01*
X036334Y050377D01*
X036429Y050472D01*
X036436Y050466D01*
X036456Y050446D01*
X036524Y050377D01*
X036614Y050340D01*
X036977Y050340D01*
X037117Y050428D02*
X037637Y050428D01*
X037581Y050586D02*
X037173Y050586D01*
X037173Y050745D02*
X037590Y050745D01*
X037740Y050903D02*
X037173Y050903D01*
X037173Y051062D02*
X038079Y051062D01*
X038049Y050903D02*
X038000Y050903D01*
X037795Y050269D02*
X030943Y050269D01*
X031531Y050428D02*
X031533Y050428D01*
X032088Y050428D02*
X032089Y050428D01*
X032820Y050428D02*
X033466Y050428D01*
X033396Y050586D02*
X032876Y050586D01*
X032876Y050745D02*
X033322Y050745D01*
X033324Y050903D02*
X032876Y050903D01*
X032876Y051062D02*
X033432Y051062D01*
X032853Y051220D02*
X034040Y051220D01*
X034572Y051220D02*
X034773Y051220D01*
X035217Y051220D02*
X036421Y051220D01*
X036334Y051146D02*
X036334Y051146D01*
X036436Y050466D02*
X036436Y050466D01*
X036456Y050446D02*
X036456Y050446D01*
X036474Y050428D02*
X036385Y050428D01*
X035830Y050428D02*
X035740Y050428D01*
X035811Y050446D02*
X035811Y050446D01*
X034540Y050428D02*
X034539Y050428D01*
X033380Y049794D02*
X033337Y049794D01*
X033000Y049794D02*
X032983Y049794D01*
X033399Y049001D02*
X033583Y049001D01*
X035069Y048843D02*
X035338Y048843D01*
X035802Y048843D02*
X035926Y048843D01*
X036124Y048843D02*
X036393Y048843D01*
X036680Y048843D02*
X037038Y048843D01*
X036885Y048946D02*
X036885Y048946D01*
X036866Y048966D02*
X036866Y048966D01*
X037325Y048843D02*
X037537Y048843D01*
X037735Y048843D02*
X037916Y048843D01*
X038380Y048843D02*
X038561Y048843D01*
X037903Y049635D02*
X037830Y049635D01*
X037980Y049794D02*
X037526Y049794D01*
X037150Y051220D02*
X040005Y051220D01*
X040803Y051220D02*
X041966Y051220D01*
X041966Y051253D02*
X041966Y051100D01*
X041920Y051146D01*
X041857Y051173D01*
X041830Y051184D01*
X041468Y051184D01*
X041378Y051146D01*
X041309Y051077D01*
X041271Y050987D01*
X041271Y050890D01*
X041309Y050800D01*
X041347Y050762D01*
X041309Y050724D01*
X041271Y050634D01*
X041271Y050536D01*
X041309Y050446D01*
X041378Y050377D01*
X041468Y050340D01*
X041830Y050340D01*
X041920Y050377D01*
X041952Y050409D01*
X041984Y050377D01*
X042074Y050340D01*
X042348Y050340D01*
X042438Y050377D01*
X042507Y050446D01*
X042545Y050536D01*
X042545Y050634D01*
X042519Y050695D01*
X042523Y050694D01*
X042559Y050694D01*
X042592Y050660D01*
X042592Y050536D01*
X042629Y050446D01*
X042698Y050377D01*
X042788Y050340D01*
X042886Y050340D01*
X042976Y050377D01*
X043026Y050428D01*
X043027Y050428D01*
X043026Y050428D02*
X043077Y050377D01*
X043167Y050340D01*
X043442Y050340D01*
X043532Y050377D01*
X043583Y050428D01*
X043633Y050377D01*
X043724Y050340D01*
X043821Y050340D01*
X043911Y050377D01*
X043949Y050415D01*
X043987Y050377D01*
X044077Y050340D01*
X044175Y050340D01*
X044265Y050377D01*
X044316Y050428D01*
X044315Y050428D01*
X044316Y050428D02*
X044366Y050377D01*
X044456Y050340D01*
X044731Y050340D01*
X044821Y050377D01*
X044909Y050466D01*
X044916Y050472D01*
X044923Y050466D01*
X044942Y050446D01*
X045011Y050377D01*
X045101Y050340D01*
X045375Y050340D01*
X045465Y050377D01*
X045534Y050446D01*
X045623Y050535D01*
X045660Y050625D01*
X045660Y051076D01*
X045623Y051166D01*
X045554Y051235D01*
X045554Y051235D01*
X045534Y051254D01*
X045534Y051254D01*
X045467Y051322D01*
X045465Y051323D01*
X045429Y051338D01*
X045375Y051360D01*
X045101Y051360D01*
X045011Y051323D01*
X044942Y051254D01*
X044854Y051166D01*
X044838Y051129D01*
X044821Y051146D01*
X044783Y051162D01*
X044731Y051184D01*
X044456Y051184D01*
X044366Y051146D01*
X044316Y051095D01*
X044265Y051146D01*
X044175Y051184D01*
X043812Y051184D01*
X043722Y051146D01*
X043633Y051058D01*
X043627Y051051D01*
X043620Y051058D01*
X043601Y051077D01*
X043601Y051077D01*
X043532Y051146D01*
X043494Y051162D01*
X043442Y051184D01*
X043167Y051184D01*
X043077Y051146D01*
X043026Y051095D01*
X042976Y051146D01*
X042886Y051184D01*
X042788Y051184D01*
X042748Y051167D01*
X042745Y051169D01*
X042709Y051184D01*
X042523Y051184D01*
X042456Y051156D01*
X042456Y051253D01*
X042419Y051343D01*
X042350Y051412D01*
X042260Y051449D01*
X042163Y051449D01*
X042072Y051412D01*
X042004Y051343D01*
X041966Y051253D01*
X042040Y051379D02*
X031426Y051379D01*
X031499Y051220D02*
X032056Y051220D01*
X040097Y049794D02*
X040470Y049794D01*
X040329Y049635D02*
X040320Y049635D01*
X040983Y049794D02*
X041114Y049794D01*
X041055Y049735D02*
X041055Y049735D01*
X041022Y049754D02*
X041022Y049754D01*
X040770Y050428D02*
X041327Y050428D01*
X041271Y050586D02*
X040826Y050586D01*
X040826Y050745D02*
X041329Y050745D01*
X041271Y050903D02*
X040826Y050903D01*
X040826Y051062D02*
X041302Y051062D01*
X042383Y051379D02*
X046500Y051379D01*
X046500Y051537D02*
X007960Y051537D01*
X007960Y051379D02*
X008285Y051379D01*
X008126Y051220D02*
X007863Y051220D01*
X007920Y051062D02*
X008080Y051062D01*
X008080Y050903D02*
X007914Y050903D01*
X007839Y050745D02*
X008161Y050745D01*
X008320Y050586D02*
X007598Y050586D01*
X007402Y050586D02*
X006500Y050586D01*
X006500Y050745D02*
X007161Y050745D01*
X007500Y051000D02*
X003750Y051000D01*
X003625Y050875D01*
X003625Y049625D02*
X003750Y049500D01*
X003625Y047125D02*
X003750Y047000D01*
X006000Y047000D01*
X006500Y047500D01*
X007500Y047500D01*
X007148Y047258D02*
X006597Y047258D01*
X006500Y046465D02*
X012260Y046465D01*
X012260Y046307D02*
X007787Y046307D01*
X007893Y046148D02*
X012260Y046148D01*
X012260Y045990D02*
X007920Y045990D01*
X007885Y045831D02*
X008237Y045831D01*
X008326Y045920D02*
X008080Y045674D01*
X008080Y045326D01*
X008326Y045080D01*
X008674Y045080D01*
X008920Y045326D01*
X008920Y045674D01*
X008674Y045920D01*
X008326Y045920D01*
X008080Y045673D02*
X007767Y045673D01*
X007738Y045356D02*
X008080Y045356D01*
X008080Y045514D02*
X006500Y045514D01*
X006500Y045356D02*
X007262Y045356D01*
X007233Y045673D02*
X006500Y045673D01*
X006500Y046307D02*
X007213Y046307D01*
X007500Y046000D02*
X003750Y046000D01*
X003625Y045875D01*
X003625Y044625D02*
X003750Y044500D01*
X006000Y044500D01*
X006500Y045000D01*
X007500Y045000D01*
X007184Y044722D02*
X006561Y044722D01*
X006500Y044563D02*
X013098Y044563D01*
X013256Y044405D02*
X006500Y044405D01*
X006500Y044246D02*
X013415Y044246D01*
X013573Y044088D02*
X006500Y044088D01*
X006500Y043929D02*
X013732Y043929D01*
X013890Y043771D02*
X007823Y043771D01*
X007908Y043612D02*
X014049Y043612D01*
X014207Y043454D02*
X007920Y043454D01*
X007870Y043295D02*
X014366Y043295D01*
X014524Y043137D02*
X007720Y043137D01*
X007774Y042820D02*
X014841Y042820D01*
X014683Y042978D02*
X006500Y042978D01*
X006500Y042820D02*
X007226Y042820D01*
X007280Y043137D02*
X006500Y043137D01*
X006500Y042500D02*
X007500Y042500D01*
X007888Y042661D02*
X015000Y042661D01*
X015158Y042503D02*
X007920Y042503D01*
X007890Y042344D02*
X015317Y042344D01*
X015475Y042186D02*
X007780Y042186D01*
X007220Y042186D02*
X006525Y042186D01*
X006500Y042027D02*
X015634Y042027D01*
X015792Y041869D02*
X006500Y041869D01*
X006500Y041710D02*
X015951Y041710D01*
X016109Y041552D02*
X006500Y041552D01*
X006500Y041393D02*
X007351Y041393D01*
X007649Y041393D02*
X016268Y041393D01*
X016426Y041235D02*
X007857Y041235D01*
X007920Y041076D02*
X016585Y041076D01*
X016743Y040918D02*
X007920Y040918D01*
X007853Y040759D02*
X016902Y040759D01*
X017060Y040601D02*
X007633Y040601D01*
X007367Y040601D02*
X006500Y040601D01*
X006500Y040759D02*
X007147Y040759D01*
X007500Y041000D02*
X003750Y041000D01*
X003625Y040875D01*
X003750Y042000D02*
X006000Y042000D01*
X006500Y042500D01*
X007500Y043500D02*
X003750Y043500D01*
X003625Y043375D01*
X003625Y042125D02*
X003750Y042000D01*
X003625Y039625D02*
X003750Y039500D01*
X006000Y039500D01*
X006500Y040000D01*
X007500Y040000D01*
X007810Y040284D02*
X017377Y040284D01*
X017219Y040442D02*
X006500Y040442D01*
X006500Y040284D02*
X007190Y040284D01*
X007256Y039650D02*
X006500Y039650D01*
X006500Y039491D02*
X018170Y039491D01*
X018328Y039333D02*
X006500Y039333D01*
X006500Y039174D02*
X018487Y039174D01*
X018645Y039016D02*
X006500Y039016D01*
X006500Y038857D02*
X007265Y038857D01*
X007500Y038500D02*
X003750Y038500D01*
X003625Y038375D01*
X003625Y037125D02*
X003750Y037000D01*
X006000Y037000D01*
X006500Y037500D01*
X007500Y037500D01*
X007665Y037114D02*
X020260Y037114D01*
X020260Y037272D02*
X007860Y037272D01*
X007920Y037431D02*
X020230Y037431D01*
X020072Y037589D02*
X007918Y037589D01*
X007846Y037748D02*
X019913Y037748D01*
X019755Y037906D02*
X007617Y037906D01*
X007383Y037906D02*
X006500Y037906D01*
X006500Y037748D02*
X007154Y037748D01*
X007183Y038223D02*
X006500Y038223D01*
X006500Y038065D02*
X019596Y038065D01*
X019438Y038223D02*
X007817Y038223D01*
X007906Y038382D02*
X019279Y038382D01*
X019121Y038540D02*
X007920Y038540D01*
X007872Y038699D02*
X018962Y038699D01*
X018804Y038857D02*
X007735Y038857D01*
X007744Y039650D02*
X018011Y039650D01*
X017853Y039808D02*
X007875Y039808D01*
X007920Y039967D02*
X017694Y039967D01*
X017536Y040125D02*
X007903Y040125D01*
X007335Y037114D02*
X006500Y037114D01*
X006500Y036955D02*
X020260Y036955D01*
X020260Y036797D02*
X006500Y036797D01*
X006500Y036638D02*
X020260Y036638D01*
X020260Y036480D02*
X006500Y036480D01*
X006500Y036321D02*
X007227Y036321D01*
X007500Y036000D02*
X003750Y036000D01*
X003625Y035875D01*
X003625Y034625D02*
X003750Y034500D01*
X006000Y034500D01*
X006500Y035000D01*
X007500Y035000D01*
X007830Y034736D02*
X020260Y034736D01*
X020260Y034578D02*
X006500Y034578D01*
X006500Y034419D02*
X020260Y034419D01*
X020260Y034261D02*
X006500Y034261D01*
X006500Y034102D02*
X020260Y034102D01*
X020260Y033944D02*
X006500Y033944D01*
X006500Y033785D02*
X007191Y033785D01*
X007500Y033500D02*
X003750Y033500D01*
X003625Y033375D01*
X003625Y032125D02*
X003750Y032000D01*
X006000Y032000D01*
X006500Y032500D01*
X007500Y032500D01*
X009000Y032500D01*
X008372Y032200D02*
X020260Y032200D01*
X020260Y032042D02*
X008420Y032042D01*
X008406Y031883D02*
X020260Y031883D01*
X020260Y031725D02*
X008319Y031725D01*
X008240Y031566D02*
X020260Y031566D01*
X020260Y031408D02*
X008715Y031408D01*
X008873Y031249D02*
X009569Y031249D01*
X009561Y031240D02*
X009537Y031199D01*
X009525Y031154D01*
X009525Y030922D01*
X009952Y030922D01*
X009952Y031310D01*
X009681Y031310D01*
X009635Y031298D01*
X009594Y031274D01*
X009561Y031240D01*
X009525Y031091D02*
X008940Y031091D01*
X008940Y030932D02*
X009525Y030932D01*
X009525Y030774D02*
X008896Y030774D01*
X008737Y030615D02*
X009525Y030615D01*
X009553Y030457D02*
X008240Y030457D01*
X008240Y030615D02*
X008263Y030615D01*
X008240Y030298D02*
X009545Y030298D01*
X010000Y030126D02*
X010000Y030000D01*
X008000Y030000D01*
X008000Y032000D01*
X007681Y031725D02*
X006500Y031725D01*
X006500Y031883D02*
X007594Y031883D01*
X007580Y032042D02*
X006500Y032042D01*
X006500Y032200D02*
X007628Y032200D01*
X007768Y032359D02*
X006500Y032359D01*
X006500Y032517D02*
X020260Y032517D01*
X020260Y032359D02*
X008232Y032359D01*
X007745Y033151D02*
X020260Y033151D01*
X020260Y032993D02*
X006500Y032993D01*
X006500Y033151D02*
X007255Y033151D01*
X007876Y033310D02*
X020260Y033310D01*
X020260Y033468D02*
X007920Y033468D01*
X007902Y033627D02*
X020260Y033627D01*
X020260Y033785D02*
X007809Y033785D01*
X007170Y034736D02*
X006575Y034736D01*
X006500Y035370D02*
X007296Y035370D01*
X007219Y035687D02*
X006500Y035687D01*
X006500Y035529D02*
X020260Y035529D01*
X020260Y035687D02*
X007781Y035687D01*
X007891Y035846D02*
X020260Y035846D01*
X020260Y036004D02*
X007920Y036004D01*
X007887Y036163D02*
X020260Y036163D01*
X020260Y036321D02*
X007773Y036321D01*
X007704Y035370D02*
X020260Y035370D01*
X020260Y035212D02*
X007867Y035212D01*
X007920Y035053D02*
X020260Y035053D01*
X020260Y034895D02*
X007911Y034895D01*
X006500Y032834D02*
X020260Y032834D01*
X020260Y032676D02*
X006500Y032676D01*
X006500Y031566D02*
X007760Y031566D01*
X007760Y031408D02*
X007715Y031408D01*
X007285Y031408D02*
X006500Y031408D01*
X006500Y031249D02*
X007127Y031249D01*
X007500Y031000D02*
X003750Y031000D01*
X003625Y030875D01*
X003625Y029625D02*
X003750Y029500D01*
X006000Y029500D01*
X006500Y030000D01*
X007500Y030000D01*
X008000Y030000D01*
X007626Y030126D02*
X007500Y030000D01*
X007758Y029664D02*
X018690Y029664D01*
X018691Y029823D02*
X010455Y029823D01*
X010455Y029981D02*
X020260Y029981D01*
X020260Y030140D02*
X010455Y030140D01*
X010455Y030298D02*
X020260Y030298D01*
X020260Y030457D02*
X010447Y030457D01*
X010475Y030615D02*
X020260Y030615D01*
X020260Y030774D02*
X010475Y030774D01*
X010475Y030932D02*
X020260Y030932D01*
X020260Y031091D02*
X010475Y031091D01*
X010431Y031249D02*
X020260Y031249D01*
X020740Y031249D02*
X021910Y031249D01*
X022068Y031408D02*
X020740Y031408D01*
X020740Y031566D02*
X022227Y031566D01*
X022297Y031636D02*
X022297Y031636D01*
X022415Y031725D02*
X020740Y031725D01*
X020740Y031883D02*
X046500Y031883D01*
X046500Y031725D02*
X040585Y031725D01*
X040500Y031500D02*
X041500Y030500D01*
X041500Y027500D01*
X040500Y026500D01*
X040189Y026811D02*
X039811Y026811D01*
X039940Y026682D02*
X039682Y026940D01*
X039318Y026940D01*
X039060Y026682D01*
X039060Y026318D01*
X039318Y026060D01*
X039682Y026060D01*
X039940Y026318D01*
X039940Y026682D01*
X039940Y026653D02*
X040060Y026653D01*
X040060Y026494D02*
X039940Y026494D01*
X039940Y026336D02*
X040060Y026336D01*
X040201Y026177D02*
X039799Y026177D01*
X039682Y025940D02*
X039318Y025940D01*
X039118Y025740D01*
X033452Y025740D01*
X033364Y025703D01*
X032581Y024920D01*
X032326Y024920D01*
X032146Y024740D01*
X026099Y024740D01*
X025240Y025599D01*
X025240Y025646D01*
X025356Y025762D01*
X025420Y025916D01*
X025420Y026084D01*
X025356Y026238D01*
X025240Y026354D01*
X025240Y027646D01*
X025356Y027762D01*
X032168Y027762D01*
X032080Y027674D02*
X032080Y027326D01*
X032326Y027080D01*
X032674Y027080D01*
X032920Y027326D01*
X032920Y027674D01*
X032674Y027920D01*
X032326Y027920D01*
X032080Y027674D01*
X032080Y027604D02*
X025240Y027604D01*
X025240Y027445D02*
X032080Y027445D01*
X032119Y027287D02*
X025240Y027287D01*
X025240Y027128D02*
X032278Y027128D01*
X032722Y027128D02*
X035250Y027128D01*
X035318Y027060D02*
X035060Y027318D01*
X035060Y027500D01*
X035500Y027500D01*
X034000Y029000D01*
X025000Y029000D01*
X024000Y028000D01*
X024000Y027000D01*
X023374Y027000D01*
X023422Y026970D02*
X024760Y026970D01*
X024760Y027128D02*
X023810Y027128D01*
X023810Y027048D02*
X023810Y027319D01*
X023798Y027365D01*
X023774Y027406D01*
X023740Y027439D01*
X023699Y027463D01*
X023654Y027475D01*
X023422Y027475D01*
X023422Y027048D01*
X023326Y027048D01*
X023326Y027475D01*
X023094Y027475D01*
X023049Y027463D01*
X023008Y027439D01*
X022986Y027418D01*
X022948Y027455D01*
X022304Y027455D01*
X022214Y027366D01*
X022084Y027420D01*
X021916Y027420D01*
X021762Y027356D01*
X021644Y027238D01*
X021580Y027084D01*
X021580Y026916D01*
X021644Y026762D01*
X021762Y026644D01*
X021916Y026580D01*
X022084Y026580D01*
X022214Y026634D01*
X022260Y026589D01*
X022260Y026452D01*
X022297Y026364D01*
X022797Y025864D01*
X022864Y025797D01*
X022952Y025760D01*
X023166Y025760D01*
X023144Y025738D01*
X023080Y025584D01*
X023080Y025416D01*
X023144Y025262D01*
X023262Y025144D01*
X023416Y025080D01*
X023584Y025080D01*
X023738Y025144D01*
X023854Y025260D01*
X024401Y025260D01*
X025864Y023797D01*
X025952Y023760D01*
X033548Y023760D01*
X033636Y023797D01*
X033703Y023864D01*
X034599Y024760D01*
X035166Y024760D01*
X035080Y024674D01*
X035080Y024326D01*
X035326Y024080D01*
X035674Y024080D01*
X035920Y024326D01*
X035920Y024674D01*
X035834Y024760D01*
X039109Y024760D01*
X039040Y024691D01*
X039040Y024510D01*
X039490Y024510D01*
X039490Y024490D01*
X039510Y024490D01*
X039510Y024510D01*
X039960Y024510D01*
X039960Y024691D01*
X039891Y024760D01*
X040048Y024760D01*
X040136Y024797D01*
X040203Y024864D01*
X040399Y025060D01*
X040682Y025060D01*
X040940Y025318D01*
X040940Y025682D01*
X040682Y025940D01*
X040318Y025940D01*
X040060Y025682D01*
X040060Y025399D01*
X039901Y025240D01*
X039862Y025240D01*
X039940Y025318D01*
X039940Y025682D01*
X039682Y025940D01*
X039762Y025860D02*
X040238Y025860D01*
X040079Y025702D02*
X039921Y025702D01*
X039940Y025543D02*
X040060Y025543D01*
X040045Y025385D02*
X039940Y025385D01*
X040000Y025000D02*
X034500Y025000D01*
X033500Y024000D01*
X026000Y024000D01*
X024500Y025500D01*
X023500Y025500D01*
X023820Y025226D02*
X024435Y025226D01*
X024593Y025068D02*
X021772Y025068D01*
X021740Y025099D02*
X021740Y025646D01*
X021856Y025762D01*
X021920Y025916D01*
X021920Y026084D01*
X021856Y026238D01*
X021738Y026356D01*
X021584Y026420D01*
X021416Y026420D01*
X021262Y026356D01*
X021144Y026238D01*
X021080Y026084D01*
X021080Y025916D01*
X021144Y025762D01*
X021260Y025646D01*
X021260Y024952D01*
X021297Y024864D01*
X021364Y024797D01*
X022864Y023297D01*
X022952Y023260D01*
X039548Y023260D01*
X039636Y023297D01*
X039703Y023364D01*
X040399Y024060D01*
X040682Y024060D01*
X040940Y024318D01*
X040940Y024682D01*
X040682Y024940D01*
X040318Y024940D01*
X040060Y024682D01*
X040060Y024399D01*
X039401Y023740D01*
X023099Y023740D01*
X021740Y025099D01*
X021740Y025226D02*
X023180Y025226D01*
X023093Y025385D02*
X021740Y025385D01*
X021740Y025543D02*
X023080Y025543D01*
X023129Y025702D02*
X021796Y025702D01*
X021897Y025860D02*
X022801Y025860D01*
X022642Y026019D02*
X021920Y026019D01*
X021881Y026177D02*
X022484Y026177D01*
X022325Y026336D02*
X021758Y026336D01*
X021753Y026653D02*
X019747Y026653D01*
X019876Y026811D02*
X021624Y026811D01*
X021580Y026970D02*
X019920Y026970D01*
X019902Y027128D02*
X021598Y027128D01*
X021693Y027287D02*
X019807Y027287D01*
X019500Y027000D02*
X019126Y026626D01*
X019126Y025500D01*
X018500Y025500D01*
X018500Y027500D01*
X018500Y028500D01*
X019500Y028500D01*
X019874Y028874D01*
X019874Y029500D01*
X020500Y029500D01*
X020500Y037500D01*
X012500Y045500D01*
X012500Y051000D01*
X012260Y049318D02*
X006500Y049318D01*
X006500Y049160D02*
X012260Y049160D01*
X012740Y048684D02*
X046500Y048684D01*
X046500Y048526D02*
X012740Y048526D01*
X012740Y048367D02*
X046500Y048367D01*
X046500Y048209D02*
X012740Y048209D01*
X012740Y048050D02*
X046500Y048050D01*
X046500Y047892D02*
X012740Y047892D01*
X012740Y047733D02*
X046500Y047733D01*
X046500Y047575D02*
X012740Y047575D01*
X012740Y047416D02*
X046500Y047416D01*
X046500Y047258D02*
X012740Y047258D01*
X012740Y047099D02*
X046500Y047099D01*
X046500Y046941D02*
X012740Y046941D01*
X012740Y046782D02*
X046500Y046782D01*
X046500Y046624D02*
X012740Y046624D01*
X012740Y046465D02*
X046500Y046465D01*
X046500Y046307D02*
X012740Y046307D01*
X012740Y046148D02*
X046500Y046148D01*
X046500Y045990D02*
X012740Y045990D01*
X012763Y045831D02*
X046500Y045831D01*
X046500Y045673D02*
X012920Y045673D01*
X012920Y045514D02*
X046500Y045514D01*
X046500Y045356D02*
X012984Y045356D01*
X013142Y045197D02*
X046500Y045197D01*
X046500Y045039D02*
X013301Y045039D01*
X013459Y044880D02*
X046500Y044880D01*
X046500Y044722D02*
X013618Y044722D01*
X013776Y044563D02*
X046500Y044563D01*
X046500Y044405D02*
X013935Y044405D01*
X014093Y044246D02*
X046500Y044246D01*
X046500Y044088D02*
X014252Y044088D01*
X014410Y043929D02*
X046500Y043929D01*
X046500Y043771D02*
X014569Y043771D01*
X014727Y043612D02*
X046500Y043612D01*
X046500Y043454D02*
X014886Y043454D01*
X015044Y043295D02*
X046500Y043295D01*
X046500Y043137D02*
X015203Y043137D01*
X015361Y042978D02*
X046500Y042978D01*
X046500Y042820D02*
X015520Y042820D01*
X015678Y042661D02*
X046500Y042661D01*
X046500Y042503D02*
X015837Y042503D01*
X015995Y042344D02*
X046500Y042344D01*
X046500Y042186D02*
X016154Y042186D01*
X016312Y042027D02*
X046500Y042027D01*
X046500Y041869D02*
X016471Y041869D01*
X016629Y041710D02*
X046500Y041710D01*
X046500Y041552D02*
X016788Y041552D01*
X016946Y041393D02*
X046500Y041393D01*
X046500Y041235D02*
X017105Y041235D01*
X017263Y041076D02*
X046500Y041076D01*
X046500Y040918D02*
X017422Y040918D01*
X017580Y040759D02*
X046500Y040759D01*
X046500Y040601D02*
X017739Y040601D01*
X017897Y040442D02*
X046500Y040442D01*
X046500Y040284D02*
X018056Y040284D01*
X018214Y040125D02*
X046500Y040125D01*
X046500Y039967D02*
X018373Y039967D01*
X018531Y039808D02*
X046500Y039808D01*
X046500Y039650D02*
X018690Y039650D01*
X018848Y039491D02*
X046500Y039491D01*
X046500Y039333D02*
X019007Y039333D01*
X019165Y039174D02*
X046500Y039174D01*
X046500Y039016D02*
X019324Y039016D01*
X019482Y038857D02*
X046500Y038857D01*
X046500Y038699D02*
X019641Y038699D01*
X019799Y038540D02*
X046500Y038540D01*
X046500Y038382D02*
X019958Y038382D01*
X020116Y038223D02*
X046500Y038223D01*
X046500Y038065D02*
X020275Y038065D01*
X020433Y037906D02*
X046500Y037906D01*
X046500Y037748D02*
X020592Y037748D01*
X020723Y037589D02*
X046500Y037589D01*
X046500Y037431D02*
X020740Y037431D01*
X020740Y037272D02*
X046500Y037272D01*
X046500Y037114D02*
X020740Y037114D01*
X020740Y036955D02*
X046500Y036955D01*
X046500Y036797D02*
X020740Y036797D01*
X020740Y036638D02*
X046500Y036638D01*
X046500Y036480D02*
X020740Y036480D01*
X020740Y036321D02*
X046500Y036321D01*
X046500Y036163D02*
X020740Y036163D01*
X020740Y036004D02*
X046500Y036004D01*
X046500Y035846D02*
X020740Y035846D01*
X020740Y035687D02*
X046500Y035687D01*
X046500Y035529D02*
X020740Y035529D01*
X020740Y035370D02*
X046500Y035370D01*
X046500Y035212D02*
X020740Y035212D01*
X020740Y035053D02*
X046500Y035053D01*
X046500Y034895D02*
X020740Y034895D01*
X020740Y034736D02*
X046500Y034736D01*
X046500Y034578D02*
X020740Y034578D01*
X020740Y034419D02*
X046500Y034419D01*
X046500Y034261D02*
X020740Y034261D01*
X020740Y034102D02*
X046500Y034102D01*
X046500Y033944D02*
X020740Y033944D01*
X020740Y033785D02*
X046500Y033785D01*
X046500Y033627D02*
X020740Y033627D01*
X020740Y033468D02*
X046500Y033468D01*
X046500Y033310D02*
X020740Y033310D01*
X020740Y033151D02*
X046500Y033151D01*
X046500Y032993D02*
X020740Y032993D01*
X020740Y032834D02*
X046500Y032834D01*
X046500Y032676D02*
X020740Y032676D01*
X020740Y032517D02*
X046500Y032517D01*
X046500Y032359D02*
X020740Y032359D01*
X020740Y032200D02*
X046500Y032200D01*
X046500Y032042D02*
X020740Y032042D01*
X020740Y031091D02*
X021751Y031091D01*
X021593Y030932D02*
X020740Y030932D01*
X020740Y030774D02*
X021434Y030774D01*
X021276Y030615D02*
X020740Y030615D01*
X020740Y030457D02*
X021117Y030457D01*
X020959Y030298D02*
X020740Y030298D01*
X020864Y030203D02*
X020864Y030203D01*
X020800Y030140D02*
X020740Y030140D01*
X020740Y029981D02*
X020760Y029981D01*
X021000Y030000D02*
X022500Y031500D01*
X040500Y031500D01*
X040412Y031249D02*
X022588Y031249D01*
X022430Y031091D02*
X040570Y031091D01*
X040729Y030932D02*
X035690Y030932D01*
X035682Y030940D02*
X035500Y030940D01*
X035500Y030500D01*
X035500Y030500D01*
X035940Y030500D01*
X035940Y030682D01*
X035682Y030940D01*
X035500Y030940D02*
X035500Y030500D01*
X035500Y030500D01*
X035500Y030500D01*
X035060Y030500D01*
X035060Y030682D01*
X035318Y030940D01*
X035500Y030940D01*
X035500Y030932D02*
X035500Y030932D01*
X035500Y030774D02*
X035500Y030774D01*
X035500Y030615D02*
X035500Y030615D01*
X035500Y030500D02*
X035060Y030500D01*
X035060Y030318D01*
X035318Y030060D01*
X035500Y030060D01*
X035682Y030060D01*
X035940Y030318D01*
X035940Y030500D01*
X035500Y030500D01*
X035500Y030060D01*
X035500Y030500D01*
X035500Y030500D01*
X035500Y030457D02*
X035500Y030457D01*
X035500Y030298D02*
X035500Y030298D01*
X035500Y030140D02*
X035500Y030140D01*
X035762Y030140D02*
X041260Y030140D01*
X041260Y030298D02*
X035920Y030298D01*
X035940Y030457D02*
X041204Y030457D01*
X041046Y030615D02*
X035940Y030615D01*
X035849Y030774D02*
X040887Y030774D01*
X041249Y031091D02*
X046500Y031091D01*
X046500Y031249D02*
X041090Y031249D01*
X040932Y031408D02*
X046500Y031408D01*
X046500Y031566D02*
X040773Y031566D01*
X041407Y030932D02*
X046500Y030932D01*
X046500Y030774D02*
X041566Y030774D01*
X041636Y030703D02*
X041636Y030703D01*
X041712Y030615D02*
X046500Y030615D01*
X046500Y030457D02*
X041740Y030457D01*
X041740Y030298D02*
X046500Y030298D01*
X046500Y030140D02*
X041740Y030140D01*
X041740Y029981D02*
X046500Y029981D01*
X046500Y029823D02*
X041740Y029823D01*
X041740Y029664D02*
X046500Y029664D01*
X046500Y029506D02*
X041740Y029506D01*
X041740Y029347D02*
X046500Y029347D01*
X046500Y029189D02*
X041740Y029189D01*
X041740Y029030D02*
X046500Y029030D01*
X046500Y028872D02*
X041740Y028872D01*
X041740Y028713D02*
X046500Y028713D01*
X046500Y028555D02*
X041740Y028555D01*
X041740Y028396D02*
X046500Y028396D01*
X046500Y028238D02*
X041740Y028238D01*
X041740Y028079D02*
X046500Y028079D01*
X046500Y027921D02*
X041740Y027921D01*
X041740Y027762D02*
X046500Y027762D01*
X046500Y027604D02*
X041740Y027604D01*
X041737Y027445D02*
X046500Y027445D01*
X046500Y027287D02*
X041626Y027287D01*
X041467Y027128D02*
X046500Y027128D01*
X046500Y026970D02*
X041309Y026970D01*
X041150Y026811D02*
X046500Y026811D01*
X046500Y026653D02*
X040992Y026653D01*
X040940Y026494D02*
X046500Y026494D01*
X046500Y026336D02*
X040940Y026336D01*
X040799Y026177D02*
X046500Y026177D01*
X046500Y026019D02*
X025420Y026019D01*
X025397Y025860D02*
X039238Y025860D01*
X039201Y026177D02*
X025381Y026177D01*
X025258Y026336D02*
X039060Y026336D01*
X039060Y026494D02*
X025240Y026494D01*
X025240Y026653D02*
X039060Y026653D01*
X039189Y026811D02*
X025240Y026811D01*
X025240Y026970D02*
X040630Y026970D01*
X040682Y027060D02*
X040940Y027318D01*
X040940Y027682D01*
X040682Y027940D01*
X040318Y027940D01*
X040060Y027682D01*
X040060Y027318D01*
X040318Y027060D01*
X040682Y027060D01*
X040750Y027128D02*
X040789Y027128D01*
X040909Y027287D02*
X040947Y027287D01*
X040940Y027445D02*
X041106Y027445D01*
X041260Y027604D02*
X040940Y027604D01*
X040860Y027762D02*
X041260Y027762D01*
X041260Y027921D02*
X040702Y027921D01*
X040682Y028060D02*
X040940Y028318D01*
X040940Y028682D01*
X040682Y028940D01*
X040399Y028940D01*
X039703Y029636D01*
X039636Y029703D01*
X039548Y029740D01*
X024702Y029740D01*
X024614Y029703D01*
X024420Y029509D01*
X024420Y029584D01*
X024356Y029738D01*
X024238Y029856D01*
X024084Y029920D01*
X023916Y029920D01*
X023786Y029866D01*
X023696Y029955D01*
X023052Y029955D01*
X023014Y029918D01*
X022992Y029939D01*
X022951Y029963D01*
X022906Y029975D01*
X022674Y029975D01*
X022674Y029548D01*
X022578Y029548D01*
X022578Y029975D01*
X022346Y029975D01*
X022301Y029963D01*
X022260Y029939D01*
X022226Y029906D01*
X022202Y029865D01*
X022190Y029819D01*
X022190Y029548D01*
X022578Y029548D01*
X022578Y029452D01*
X022674Y029452D01*
X022674Y029025D01*
X022906Y029025D01*
X022951Y029037D01*
X022992Y029061D01*
X023014Y029082D01*
X023052Y029045D01*
X023696Y029045D01*
X023786Y029134D01*
X023916Y029080D01*
X023991Y029080D01*
X023752Y028842D01*
X023738Y028856D01*
X023584Y028920D01*
X023416Y028920D01*
X023262Y028856D01*
X023144Y028738D01*
X023080Y028584D01*
X023080Y028416D01*
X023144Y028262D01*
X023262Y028144D01*
X023416Y028080D01*
X023584Y028080D01*
X023738Y028144D01*
X023856Y028262D01*
X023867Y028289D01*
X023886Y028297D01*
X023953Y028364D01*
X024849Y029260D01*
X039401Y029260D01*
X040060Y028601D01*
X040060Y028318D01*
X040318Y028060D01*
X040682Y028060D01*
X040701Y028079D02*
X041260Y028079D01*
X041260Y028238D02*
X040860Y028238D01*
X040940Y028396D02*
X041260Y028396D01*
X041260Y028555D02*
X040940Y028555D01*
X040909Y028713D02*
X041260Y028713D01*
X041260Y028872D02*
X040751Y028872D01*
X040500Y028500D02*
X039500Y029500D01*
X024750Y029500D01*
X023750Y028500D01*
X023500Y028500D01*
X023299Y028872D02*
X021466Y028872D01*
X021535Y029030D02*
X022327Y029030D01*
X022346Y029025D02*
X022578Y029025D01*
X022578Y029452D01*
X022190Y029452D01*
X022190Y029181D01*
X022202Y029135D01*
X022226Y029094D01*
X022260Y029061D01*
X022301Y029037D01*
X022346Y029025D01*
X022190Y029189D02*
X021536Y029189D01*
X021475Y029347D02*
X022190Y029347D01*
X022000Y029500D02*
X022626Y029500D01*
X022578Y029506D02*
X021274Y029506D01*
X021240Y029664D02*
X022190Y029664D01*
X022191Y029823D02*
X021240Y029823D01*
X021320Y029981D02*
X041260Y029981D01*
X041260Y029823D02*
X024271Y029823D01*
X024387Y029664D02*
X024575Y029664D01*
X024778Y029189D02*
X039472Y029189D01*
X039631Y029030D02*
X024619Y029030D01*
X024461Y028872D02*
X039221Y028872D01*
X039309Y028960D02*
X039040Y028691D01*
X039040Y028510D01*
X039490Y028510D01*
X039490Y028960D01*
X039309Y028960D01*
X039510Y028960D02*
X039510Y028510D01*
X039490Y028510D01*
X039490Y028490D01*
X039040Y028490D01*
X039040Y028309D01*
X039309Y028040D01*
X039490Y028040D01*
X039490Y028490D01*
X039510Y028490D01*
X039510Y028510D01*
X039960Y028510D01*
X039960Y028691D01*
X039691Y028960D01*
X039510Y028960D01*
X039510Y028872D02*
X039490Y028872D01*
X039490Y028713D02*
X039510Y028713D01*
X039510Y028555D02*
X039490Y028555D01*
X039510Y028490D02*
X039960Y028490D01*
X039960Y028309D01*
X039691Y028040D01*
X039510Y028040D01*
X039510Y028490D01*
X039510Y028396D02*
X039490Y028396D01*
X039490Y028238D02*
X039510Y028238D01*
X039510Y028079D02*
X039490Y028079D01*
X039270Y028079D02*
X025420Y028079D01*
X025420Y028084D02*
X025356Y028238D01*
X025238Y028356D01*
X025084Y028420D01*
X024916Y028420D01*
X024762Y028356D01*
X024644Y028238D01*
X024580Y028084D01*
X024580Y027916D01*
X024644Y027762D01*
X018832Y027762D01*
X018912Y027604D02*
X024760Y027604D01*
X024760Y027646D02*
X024760Y026354D01*
X024646Y026240D01*
X023099Y026240D01*
X022795Y026545D01*
X022948Y026545D01*
X022986Y026582D01*
X023008Y026561D01*
X023049Y026537D01*
X023094Y026525D01*
X023326Y026525D01*
X023326Y026952D01*
X023422Y026952D01*
X023422Y026525D01*
X023654Y026525D01*
X023699Y026537D01*
X023740Y026561D01*
X023774Y026594D01*
X023798Y026635D01*
X023810Y026681D01*
X023810Y026952D01*
X023422Y026952D01*
X023422Y027048D01*
X023810Y027048D01*
X023810Y026811D02*
X024760Y026811D01*
X024760Y026653D02*
X023802Y026653D01*
X023422Y026653D02*
X023326Y026653D01*
X023326Y026811D02*
X023422Y026811D01*
X023422Y027128D02*
X023326Y027128D01*
X023326Y027287D02*
X023422Y027287D01*
X023422Y027445D02*
X023326Y027445D01*
X023018Y027445D02*
X022958Y027445D01*
X022626Y027000D02*
X022500Y026874D01*
X022500Y026500D01*
X023000Y026000D01*
X025000Y026000D01*
X025000Y025500D01*
X026000Y024500D01*
X032500Y024500D01*
X033500Y025500D01*
X039500Y025500D01*
X040000Y025000D02*
X040500Y025500D01*
X040940Y025543D02*
X046500Y025543D01*
X046500Y025385D02*
X040940Y025385D01*
X040848Y025226D02*
X046500Y025226D01*
X046500Y025068D02*
X040690Y025068D01*
X040713Y024909D02*
X046500Y024909D01*
X046500Y024751D02*
X040872Y024751D01*
X040940Y024592D02*
X046500Y024592D01*
X046500Y024434D02*
X040940Y024434D01*
X040897Y024275D02*
X046500Y024275D01*
X046500Y024117D02*
X040739Y024117D01*
X040500Y024500D02*
X039500Y023500D01*
X023000Y023500D01*
X021500Y025000D01*
X021500Y026000D01*
X021204Y025702D02*
X020310Y025702D01*
X020310Y025819D02*
X020310Y025548D01*
X019922Y025548D01*
X019922Y025975D01*
X020154Y025975D01*
X020199Y025963D01*
X020240Y025939D01*
X020274Y025906D01*
X020298Y025865D01*
X020310Y025819D01*
X020299Y025860D02*
X021103Y025860D01*
X021080Y026019D02*
X019366Y026019D01*
X019366Y026177D02*
X021119Y026177D01*
X021242Y026336D02*
X019366Y026336D01*
X019366Y026494D02*
X022260Y026494D01*
X022000Y027000D02*
X022626Y027000D01*
X022845Y026494D02*
X024760Y026494D01*
X024742Y026336D02*
X023004Y026336D01*
X023810Y027287D02*
X024760Y027287D01*
X024760Y027445D02*
X023731Y027445D01*
X023832Y028238D02*
X024644Y028238D01*
X024580Y028079D02*
X018740Y028079D01*
X018740Y027921D02*
X024580Y027921D01*
X024644Y027762D02*
X024760Y027646D01*
X025000Y028000D02*
X025000Y026000D01*
X025296Y025702D02*
X033362Y025702D01*
X033204Y025543D02*
X025296Y025543D01*
X025455Y025385D02*
X033045Y025385D01*
X032887Y025226D02*
X025613Y025226D01*
X025772Y025068D02*
X032728Y025068D01*
X032315Y024909D02*
X025930Y024909D01*
X026089Y024751D02*
X032157Y024751D01*
X033639Y023800D02*
X039460Y023800D01*
X039619Y023958D02*
X033797Y023958D01*
X033956Y024117D02*
X035289Y024117D01*
X035131Y024275D02*
X034114Y024275D01*
X034273Y024434D02*
X035080Y024434D01*
X035080Y024592D02*
X034431Y024592D01*
X034590Y024751D02*
X035157Y024751D01*
X035843Y024751D02*
X039100Y024751D01*
X039040Y024592D02*
X035920Y024592D01*
X035920Y024434D02*
X039040Y024434D01*
X039040Y024490D02*
X039040Y024309D01*
X039309Y024040D01*
X039490Y024040D01*
X039490Y024490D01*
X039040Y024490D01*
X039074Y024275D02*
X035869Y024275D01*
X035711Y024117D02*
X039233Y024117D01*
X039490Y024117D02*
X039510Y024117D01*
X039510Y024040D02*
X039691Y024040D01*
X039960Y024309D01*
X039960Y024490D01*
X039510Y024490D01*
X039510Y024040D01*
X039490Y024275D02*
X039510Y024275D01*
X039510Y024434D02*
X039490Y024434D01*
X039767Y024117D02*
X039777Y024117D01*
X039926Y024275D02*
X039936Y024275D01*
X039960Y024434D02*
X040060Y024434D01*
X040060Y024592D02*
X039960Y024592D01*
X039900Y024751D02*
X040128Y024751D01*
X040248Y024909D02*
X040287Y024909D01*
X040921Y025702D02*
X046500Y025702D01*
X046500Y025860D02*
X040762Y025860D01*
X040250Y027128D02*
X039750Y027128D01*
X039682Y027060D02*
X039940Y027318D01*
X039940Y027682D01*
X039682Y027940D01*
X039318Y027940D01*
X039060Y027682D01*
X039060Y027318D01*
X039318Y027060D01*
X039682Y027060D01*
X039909Y027287D02*
X040091Y027287D01*
X040060Y027445D02*
X039940Y027445D01*
X039940Y027604D02*
X040060Y027604D01*
X040140Y027762D02*
X039860Y027762D01*
X039702Y027921D02*
X040298Y027921D01*
X040299Y028079D02*
X039730Y028079D01*
X039888Y028238D02*
X040140Y028238D01*
X040060Y028396D02*
X039960Y028396D01*
X039960Y028555D02*
X040060Y028555D01*
X039948Y028713D02*
X039937Y028713D01*
X039789Y028872D02*
X039779Y028872D01*
X040151Y029189D02*
X041260Y029189D01*
X041260Y029347D02*
X039992Y029347D01*
X039834Y029506D02*
X041260Y029506D01*
X041260Y029664D02*
X039675Y029664D01*
X040309Y029030D02*
X041260Y029030D01*
X039298Y027921D02*
X035702Y027921D01*
X035682Y027940D02*
X035500Y027940D01*
X035500Y027500D01*
X035500Y027500D01*
X035940Y027500D01*
X035940Y027682D01*
X035682Y027940D01*
X035500Y027940D02*
X035500Y027500D01*
X035500Y027500D01*
X035500Y027500D01*
X035940Y027500D01*
X035940Y027318D01*
X035682Y027060D01*
X035500Y027060D01*
X035500Y027500D01*
X035500Y027500D01*
X035060Y027500D01*
X035060Y027682D01*
X035318Y027940D01*
X035500Y027940D01*
X035500Y027921D02*
X035500Y027921D01*
X035500Y027762D02*
X035500Y027762D01*
X035500Y027604D02*
X035500Y027604D01*
X035500Y027500D02*
X035500Y027060D01*
X035318Y027060D01*
X035500Y027128D02*
X035500Y027128D01*
X035500Y027287D02*
X035500Y027287D01*
X035500Y027445D02*
X035500Y027445D01*
X035750Y027128D02*
X039250Y027128D01*
X039091Y027287D02*
X035909Y027287D01*
X035940Y027445D02*
X039060Y027445D01*
X039060Y027604D02*
X035940Y027604D01*
X035860Y027762D02*
X039140Y027762D01*
X039112Y028238D02*
X025356Y028238D01*
X025420Y028084D02*
X025420Y027916D01*
X025356Y027762D01*
X025420Y027921D02*
X035298Y027921D01*
X035140Y027762D02*
X032832Y027762D01*
X032920Y027604D02*
X035060Y027604D01*
X035060Y027445D02*
X032920Y027445D01*
X032881Y027287D02*
X035091Y027287D01*
X035238Y030140D02*
X032734Y030140D01*
X032674Y030080D02*
X032920Y030326D01*
X032920Y030674D01*
X032674Y030920D01*
X032326Y030920D01*
X032080Y030674D01*
X032080Y030326D01*
X032326Y030080D01*
X032674Y030080D01*
X032892Y030298D02*
X035080Y030298D01*
X035060Y030457D02*
X032920Y030457D01*
X032920Y030615D02*
X035060Y030615D01*
X035151Y030774D02*
X032820Y030774D01*
X032180Y030774D02*
X022113Y030774D01*
X022271Y030932D02*
X035310Y030932D01*
X032266Y030140D02*
X021479Y030140D01*
X021637Y030298D02*
X032108Y030298D01*
X032080Y030457D02*
X021796Y030457D01*
X021954Y030615D02*
X032080Y030615D01*
X039063Y028713D02*
X024302Y028713D01*
X024144Y028555D02*
X039040Y028555D01*
X039040Y028396D02*
X025141Y028396D01*
X024859Y028396D02*
X023985Y028396D01*
X023782Y028872D02*
X023701Y028872D01*
X023941Y029030D02*
X022925Y029030D01*
X022674Y029030D02*
X022578Y029030D01*
X022578Y029189D02*
X022674Y029189D01*
X022674Y029347D02*
X022578Y029347D01*
X022578Y029664D02*
X022674Y029664D01*
X022674Y029823D02*
X022578Y029823D01*
X023374Y029500D02*
X024000Y029500D01*
X023134Y028713D02*
X021240Y028713D01*
X020992Y028713D02*
X020052Y028713D01*
X020114Y028872D02*
X020767Y028872D01*
X020697Y029030D02*
X020114Y029030D01*
X019634Y029030D02*
X019425Y029030D01*
X019532Y028872D02*
X018701Y028872D01*
X018801Y029037D02*
X018846Y029025D01*
X019078Y029025D01*
X019078Y029452D01*
X018690Y029452D01*
X018690Y029181D01*
X018702Y029135D01*
X018726Y029094D01*
X018760Y029061D01*
X018801Y029037D01*
X018827Y029030D02*
X006960Y029030D01*
X006960Y028872D02*
X018299Y028872D01*
X018134Y028713D02*
X006960Y028713D01*
X006960Y028555D02*
X018080Y028555D01*
X018088Y028396D02*
X006960Y028396D01*
X006960Y028238D02*
X018168Y028238D01*
X018260Y028079D02*
X006960Y028079D01*
X006960Y027921D02*
X018260Y027921D01*
X018168Y027762D02*
X006960Y027762D01*
X006960Y027604D02*
X018088Y027604D01*
X018080Y027445D02*
X006960Y027445D01*
X006960Y027287D02*
X018134Y027287D01*
X018260Y027128D02*
X006960Y027128D01*
X006960Y026970D02*
X018260Y026970D01*
X018260Y026811D02*
X006960Y026811D01*
X006960Y026653D02*
X018260Y026653D01*
X018260Y026494D02*
X006960Y026494D01*
X006960Y026336D02*
X018260Y026336D01*
X018260Y026177D02*
X006960Y026177D01*
X006960Y026019D02*
X018260Y026019D01*
X018260Y025860D02*
X006960Y025860D01*
X006960Y025702D02*
X018129Y025702D01*
X018080Y025543D02*
X007854Y025543D01*
X007960Y025385D02*
X018093Y025385D01*
X018180Y025226D02*
X007960Y025226D01*
X007960Y025068D02*
X018781Y025068D01*
X019471Y025068D02*
X019501Y025068D01*
X019826Y025068D02*
X019922Y025068D01*
X019922Y025226D02*
X019826Y025226D01*
X019826Y025385D02*
X019922Y025385D01*
X019874Y025500D02*
X020500Y025500D01*
X020500Y028000D01*
X019894Y028555D02*
X023080Y028555D01*
X023088Y028396D02*
X019735Y028396D01*
X019174Y029030D02*
X019078Y029030D01*
X019078Y029189D02*
X019174Y029189D01*
X019174Y029347D02*
X019078Y029347D01*
X019078Y029506D02*
X006500Y029506D01*
X006503Y029664D02*
X007242Y029664D01*
X006908Y029189D02*
X018690Y029189D01*
X018690Y029347D02*
X006500Y029347D01*
X008240Y031408D02*
X008285Y031408D01*
X009952Y031249D02*
X010048Y031249D01*
X010048Y031091D02*
X009952Y031091D01*
X009952Y030932D02*
X010048Y030932D01*
X007960Y024909D02*
X021278Y024909D01*
X021260Y025068D02*
X020247Y025068D01*
X020310Y025226D02*
X021260Y025226D01*
X021260Y025385D02*
X020310Y025385D01*
X019922Y025543D02*
X021260Y025543D01*
X021930Y024909D02*
X024752Y024909D01*
X024910Y024751D02*
X022089Y024751D01*
X022247Y024592D02*
X025069Y024592D01*
X025227Y024434D02*
X022406Y024434D01*
X022564Y024275D02*
X025386Y024275D01*
X025544Y024117D02*
X022723Y024117D01*
X022881Y023958D02*
X025703Y023958D01*
X025861Y023800D02*
X023040Y023800D01*
X022678Y023483D02*
X007920Y023483D01*
X007896Y023641D02*
X022520Y023641D01*
X022361Y023800D02*
X007897Y023800D01*
X007960Y023958D02*
X022203Y023958D01*
X022044Y024117D02*
X007960Y024117D01*
X007960Y024275D02*
X021886Y024275D01*
X021727Y024434D02*
X007960Y024434D01*
X007960Y024592D02*
X021569Y024592D01*
X021410Y024751D02*
X007960Y024751D01*
X007500Y023500D02*
X003750Y023500D01*
X003625Y023375D01*
X003625Y022125D02*
X003750Y022000D01*
X006000Y022000D01*
X006500Y022500D01*
X007500Y022500D01*
X007191Y022215D02*
X006554Y022215D01*
X006500Y022056D02*
X046500Y022056D01*
X046500Y021898D02*
X006500Y021898D01*
X006500Y021739D02*
X046500Y021739D01*
X046500Y021581D02*
X006500Y021581D01*
X006500Y021422D02*
X046500Y021422D01*
X046500Y021264D02*
X007830Y021264D01*
X007911Y021105D02*
X046500Y021105D01*
X046500Y020947D02*
X007920Y020947D01*
X007867Y020788D02*
X008166Y020788D01*
X008060Y020682D02*
X008060Y020318D01*
X008318Y020060D01*
X008682Y020060D01*
X008940Y020318D01*
X008940Y020682D01*
X008682Y020940D01*
X008318Y020940D01*
X008060Y020682D01*
X008060Y020630D02*
X007703Y020630D01*
X007781Y020313D02*
X008065Y020313D01*
X008060Y020471D02*
X006500Y020471D01*
X006500Y020313D02*
X007219Y020313D01*
X007297Y020630D02*
X006500Y020630D01*
X006500Y021264D02*
X007170Y021264D01*
X007500Y021000D02*
X003750Y021000D01*
X003625Y020875D01*
X003625Y019625D02*
X003750Y019500D01*
X006000Y019500D01*
X006500Y020000D01*
X007500Y020000D01*
X007887Y019837D02*
X008186Y019837D01*
X008309Y019960D02*
X008040Y019691D01*
X008040Y019510D01*
X008490Y019510D01*
X008490Y019960D01*
X008309Y019960D01*
X008510Y019960D02*
X008691Y019960D01*
X008960Y019691D01*
X008960Y019510D01*
X008510Y019510D01*
X008510Y019490D01*
X008960Y019490D01*
X008960Y019309D01*
X008691Y019040D01*
X008510Y019040D01*
X008510Y019490D01*
X008490Y019490D01*
X008490Y019040D01*
X008309Y019040D01*
X008040Y019309D01*
X008040Y019490D01*
X008490Y019490D01*
X008490Y019510D01*
X008510Y019510D01*
X008510Y019960D01*
X008510Y019837D02*
X008490Y019837D01*
X008490Y019679D02*
X008510Y019679D01*
X008510Y019520D02*
X008490Y019520D01*
X008490Y019362D02*
X008510Y019362D01*
X008510Y019203D02*
X008490Y019203D01*
X008490Y019045D02*
X008510Y019045D01*
X008695Y019045D02*
X046500Y019045D01*
X046500Y019203D02*
X008854Y019203D01*
X008960Y019362D02*
X046500Y019362D01*
X046500Y019520D02*
X008960Y019520D01*
X008960Y019679D02*
X046500Y019679D01*
X046500Y019837D02*
X008814Y019837D01*
X008776Y020154D02*
X046500Y020154D01*
X046500Y019996D02*
X007920Y019996D01*
X007891Y020154D02*
X008224Y020154D01*
X008040Y019679D02*
X007772Y019679D01*
X008040Y019520D02*
X006500Y019520D01*
X006500Y019362D02*
X008040Y019362D01*
X008146Y019203D02*
X006500Y019203D01*
X006500Y019045D02*
X008305Y019045D01*
X007860Y018728D02*
X046500Y018728D01*
X046500Y018886D02*
X007666Y018886D01*
X007334Y018886D02*
X006500Y018886D01*
X006500Y018252D02*
X007154Y018252D01*
X007384Y018094D02*
X006500Y018094D01*
X006500Y017935D02*
X046500Y017935D01*
X046500Y017777D02*
X007817Y017777D01*
X007906Y017618D02*
X046500Y017618D01*
X046500Y017460D02*
X007920Y017460D01*
X007872Y017301D02*
X046500Y017301D01*
X046500Y017143D02*
X007734Y017143D01*
X007500Y017500D02*
X006500Y017500D01*
X006000Y017000D01*
X003750Y017000D01*
X003625Y017125D01*
X003750Y016000D02*
X007500Y016000D01*
X007810Y015716D02*
X046500Y015716D01*
X046500Y015558D02*
X006500Y015558D01*
X006500Y015716D02*
X007190Y015716D01*
X007366Y015399D02*
X006500Y015399D01*
X006500Y015241D02*
X007147Y015241D01*
X007500Y015000D02*
X006500Y015000D01*
X006000Y014500D01*
X003750Y014500D01*
X003625Y014625D01*
X003750Y013500D02*
X007500Y013500D01*
X007888Y013339D02*
X046500Y013339D01*
X046500Y013497D02*
X007920Y013497D01*
X007890Y013656D02*
X046500Y013656D01*
X046500Y013814D02*
X007780Y013814D01*
X007220Y013814D02*
X006500Y013814D01*
X006500Y013973D02*
X046500Y013973D01*
X046500Y014131D02*
X006500Y014131D01*
X006500Y014290D02*
X046500Y014290D01*
X046500Y014448D02*
X006500Y014448D01*
X006500Y014607D02*
X007352Y014607D01*
X007648Y014607D02*
X046500Y014607D01*
X046500Y014765D02*
X007857Y014765D01*
X007920Y014924D02*
X046500Y014924D01*
X046500Y015082D02*
X007920Y015082D01*
X007853Y015241D02*
X046500Y015241D01*
X046500Y015399D02*
X007634Y015399D01*
X007903Y015875D02*
X046500Y015875D01*
X046500Y016033D02*
X007920Y016033D01*
X007875Y016192D02*
X046500Y016192D01*
X046500Y016350D02*
X007744Y016350D01*
X007256Y016350D02*
X006500Y016350D01*
X006500Y016509D02*
X046500Y016509D01*
X046500Y016667D02*
X006500Y016667D01*
X006500Y016826D02*
X046500Y016826D01*
X046500Y016984D02*
X006500Y016984D01*
X006500Y017143D02*
X007266Y017143D01*
X007183Y017777D02*
X006500Y017777D01*
X007500Y018500D02*
X003750Y018500D01*
X003625Y018375D01*
X003750Y016000D02*
X003625Y015875D01*
X003750Y013500D02*
X003625Y013375D01*
X003625Y012125D02*
X003750Y012000D01*
X006000Y012000D01*
X006500Y012500D01*
X007500Y012500D01*
X007823Y012229D02*
X046500Y012229D01*
X046500Y012071D02*
X006500Y012071D01*
X006500Y011912D02*
X046500Y011912D01*
X046500Y011754D02*
X006500Y011754D01*
X006500Y011595D02*
X046500Y011595D01*
X046500Y011437D02*
X006500Y011437D01*
X006500Y011278D02*
X007184Y011278D01*
X007500Y011000D02*
X003750Y011000D01*
X003625Y010875D01*
X003625Y009625D02*
X003750Y009500D01*
X006000Y009500D01*
X006500Y010000D01*
X007500Y010000D01*
X007885Y010169D02*
X046500Y010169D01*
X046500Y010327D02*
X007767Y010327D01*
X007584Y010580D02*
X007416Y010580D01*
X007262Y010644D01*
X007233Y010327D02*
X006500Y010327D01*
X006532Y009693D02*
X007213Y009693D01*
X007787Y009693D02*
X046500Y009693D01*
X046500Y009535D02*
X006500Y009535D01*
X006500Y009376D02*
X046500Y009376D01*
X046500Y009218D02*
X006500Y009218D01*
X006500Y009059D02*
X046500Y009059D01*
X046500Y008901D02*
X007631Y008901D01*
X007369Y008901D02*
X006500Y008901D01*
X006500Y008742D02*
X007148Y008742D01*
X007500Y008500D02*
X003750Y008500D01*
X003625Y008375D01*
X003625Y007125D02*
X003750Y007000D01*
X006000Y007000D01*
X006500Y007500D01*
X007500Y007500D01*
X007803Y007791D02*
X046500Y007791D01*
X046500Y007633D02*
X007900Y007633D01*
X007920Y007474D02*
X046500Y007474D01*
X046500Y007316D02*
X007878Y007316D01*
X007751Y007157D02*
X046500Y007157D01*
X046500Y006999D02*
X006500Y006999D01*
X006500Y007157D02*
X007249Y007157D01*
X007197Y007791D02*
X006500Y007791D01*
X006500Y007950D02*
X046500Y007950D01*
X046500Y008108D02*
X007651Y008108D01*
X007858Y008267D02*
X046500Y008267D01*
X046500Y008425D02*
X007920Y008425D01*
X007920Y008584D02*
X046500Y008584D01*
X046500Y008742D02*
X007852Y008742D01*
X007349Y008108D02*
X006500Y008108D01*
X006500Y006840D02*
X046500Y006840D01*
X046500Y006682D02*
X006500Y006682D01*
X006500Y006523D02*
X046500Y006523D01*
X046500Y006365D02*
X007718Y006365D01*
X007869Y006206D02*
X046500Y006206D01*
X046500Y006048D02*
X007920Y006048D01*
X007909Y005889D02*
X046500Y005889D01*
X046500Y005731D02*
X007824Y005731D01*
X007500Y006000D02*
X003750Y006000D01*
X003625Y005875D01*
X003625Y004625D02*
X003750Y004500D01*
X006000Y004500D01*
X006500Y005000D01*
X007500Y005000D01*
X008500Y005000D01*
X008318Y003940D02*
X008060Y003682D01*
X008060Y003318D01*
X008318Y003060D01*
X008682Y003060D01*
X008940Y003318D01*
X008940Y003682D01*
X008682Y003940D01*
X008318Y003940D01*
X008206Y003829D02*
X007794Y003829D01*
X007940Y003670D02*
X008060Y003670D01*
X008060Y003512D02*
X007940Y003512D01*
X007940Y003353D02*
X008060Y003353D01*
X008183Y003195D02*
X007817Y003195D01*
X007686Y002878D02*
X009545Y002878D01*
X009544Y003036D02*
X006500Y003036D01*
X006500Y002878D02*
X007314Y002878D01*
X007183Y003195D02*
X006500Y003195D01*
X006500Y003829D02*
X007206Y003829D01*
X007500Y003500D02*
X003750Y003500D01*
X003625Y003375D01*
X006500Y003987D02*
X046500Y003987D01*
X046500Y003829D02*
X008794Y003829D01*
X008940Y003670D02*
X009529Y003670D01*
X009525Y003654D02*
X009525Y003422D01*
X009952Y003422D01*
X009952Y003810D01*
X009681Y003810D01*
X009635Y003798D01*
X009594Y003774D01*
X009561Y003740D01*
X009537Y003699D01*
X009525Y003654D01*
X009525Y003512D02*
X008940Y003512D01*
X008940Y003353D02*
X009952Y003353D01*
X009952Y003512D02*
X010048Y003512D01*
X010048Y003670D02*
X009952Y003670D01*
X010471Y003670D02*
X046500Y003670D01*
X046500Y003512D02*
X010475Y003512D01*
X009525Y003195D02*
X008817Y003195D01*
X009605Y002244D02*
X007837Y002244D01*
X007596Y002085D02*
X046500Y002085D01*
X046500Y001927D02*
X006500Y001927D01*
X006500Y002085D02*
X007404Y002085D01*
X007163Y002244D02*
X006583Y002244D01*
X006500Y001768D02*
X046500Y001768D01*
X046500Y001610D02*
X006960Y001610D01*
X006960Y001451D02*
X046500Y001451D01*
X046500Y001293D02*
X006960Y001293D01*
X006960Y001134D02*
X046500Y001134D01*
X046500Y000976D02*
X006960Y000976D01*
X006960Y000817D02*
X046500Y000817D01*
X046500Y002244D02*
X010395Y002244D01*
X010455Y002402D02*
X046500Y002402D01*
X046500Y004146D02*
X006500Y004146D01*
X006500Y004304D02*
X046500Y004304D01*
X046500Y004463D02*
X006500Y004463D01*
X006500Y004621D02*
X046500Y004621D01*
X046500Y004780D02*
X006500Y004780D01*
X006500Y004938D02*
X046500Y004938D01*
X046500Y005097D02*
X006500Y005097D01*
X006500Y005255D02*
X046500Y005255D01*
X046500Y005414D02*
X006500Y005414D01*
X006500Y005572D02*
X046500Y005572D01*
X046500Y009852D02*
X007893Y009852D01*
X007920Y010010D02*
X046500Y010010D01*
X046500Y010803D02*
X007873Y010803D01*
X007920Y010961D02*
X046500Y010961D01*
X046500Y011120D02*
X007905Y011120D01*
X007816Y011278D02*
X046500Y011278D01*
X046500Y012388D02*
X007908Y012388D01*
X007920Y012546D02*
X046500Y012546D01*
X046500Y012705D02*
X007870Y012705D01*
X007721Y012863D02*
X046500Y012863D01*
X046500Y013022D02*
X006500Y013022D01*
X006500Y013180D02*
X007226Y013180D01*
X007279Y012863D02*
X006500Y012863D01*
X006568Y012229D02*
X007177Y012229D01*
X007774Y013180D02*
X046500Y013180D01*
X046500Y018094D02*
X007616Y018094D01*
X007846Y018252D02*
X046500Y018252D01*
X046500Y018411D02*
X007918Y018411D01*
X007920Y018569D02*
X046500Y018569D01*
X046500Y020313D02*
X008935Y020313D01*
X008940Y020471D02*
X046500Y020471D01*
X046500Y020630D02*
X008940Y020630D01*
X008834Y020788D02*
X046500Y020788D01*
X046500Y022215D02*
X007809Y022215D01*
X007902Y022373D02*
X046500Y022373D01*
X046500Y022532D02*
X007920Y022532D01*
X007876Y022690D02*
X046500Y022690D01*
X046500Y022849D02*
X007745Y022849D01*
X007760Y023166D02*
X046500Y023166D01*
X046500Y023324D02*
X039663Y023324D01*
X039822Y023483D02*
X046500Y023483D01*
X046500Y023641D02*
X039980Y023641D01*
X040139Y023800D02*
X046500Y023800D01*
X046500Y023958D02*
X040297Y023958D01*
X046500Y023007D02*
X006500Y023007D01*
X006500Y022849D02*
X007255Y022849D01*
X007240Y023166D02*
X006500Y023166D01*
X007882Y023324D02*
X022837Y023324D01*
X019922Y025702D02*
X019826Y025702D01*
X019826Y025860D02*
X019922Y025860D01*
X018886Y026019D02*
X018740Y026019D01*
X018740Y026177D02*
X018886Y026177D01*
X018886Y026336D02*
X018740Y026336D01*
X018740Y026494D02*
X018886Y026494D01*
X018886Y026653D02*
X018740Y026653D01*
X018740Y026811D02*
X018972Y026811D01*
X019080Y026970D02*
X018740Y026970D01*
X018740Y027128D02*
X019098Y027128D01*
X019193Y027287D02*
X018866Y027287D01*
X018920Y027445D02*
X022294Y027445D01*
X023168Y028238D02*
X018832Y028238D01*
X019126Y029500D02*
X018500Y029500D01*
X019078Y029664D02*
X019174Y029664D01*
X019174Y029823D02*
X019078Y029823D01*
X021000Y030000D02*
X021000Y029232D01*
X021116Y029116D01*
X007228Y019679D02*
X006518Y019679D01*
X007738Y010644D02*
X007584Y010580D01*
X007282Y006365D02*
X006500Y006365D01*
X006500Y005731D02*
X007176Y005731D01*
X007177Y043771D02*
X006500Y043771D01*
X007816Y044722D02*
X012939Y044722D01*
X012781Y044880D02*
X007905Y044880D01*
X007920Y045039D02*
X012622Y045039D01*
X012209Y045197D02*
X008791Y045197D01*
X008920Y045356D02*
X012080Y045356D01*
X012080Y045514D02*
X008920Y045514D01*
X008920Y045673D02*
X012080Y045673D01*
X012237Y045831D02*
X008763Y045831D01*
X008209Y045197D02*
X007873Y045197D01*
X008697Y047575D02*
X012260Y047575D01*
X012260Y047733D02*
X008855Y047733D01*
X008940Y047892D02*
X012260Y047892D01*
X012260Y048050D02*
X008940Y048050D01*
X008914Y048209D02*
X012260Y048209D01*
X012260Y048367D02*
X008755Y048367D01*
X007197Y048209D02*
X006500Y048209D01*
X007960Y051696D02*
X046500Y051696D01*
X046500Y051854D02*
X007960Y051854D01*
X007960Y052013D02*
X046500Y052013D01*
X046500Y052171D02*
X007960Y052171D01*
X041628Y049794D02*
X041759Y049794D01*
X041719Y049754D02*
X041719Y049754D01*
X041700Y049735D02*
X041700Y049735D01*
X041686Y049735D02*
X041686Y049735D01*
X042243Y049823D02*
X042243Y049823D01*
X042272Y049794D02*
X042309Y049794D01*
X042657Y049794D02*
X043048Y049794D01*
X042907Y049635D02*
X042765Y049635D01*
X042870Y049477D02*
X042883Y049477D01*
X042493Y049160D02*
X042427Y049160D01*
X042423Y049001D02*
X042598Y049001D01*
X042387Y049318D02*
X042328Y049318D01*
X042489Y050428D02*
X042648Y050428D01*
X042592Y050586D02*
X042545Y050586D01*
X042456Y051220D02*
X044908Y051220D01*
X044942Y051254D02*
X044942Y051254D01*
X045465Y051323D02*
X045465Y051323D01*
X045465Y051323D01*
X045568Y051220D02*
X046500Y051220D01*
X046500Y051062D02*
X045660Y051062D01*
X045660Y050903D02*
X046500Y050903D01*
X046500Y050745D02*
X045660Y050745D01*
X045644Y050586D02*
X046500Y050586D01*
X046500Y050428D02*
X045516Y050428D01*
X044961Y050428D02*
X044871Y050428D01*
X044923Y050466D02*
X044923Y050466D01*
X044942Y050446D02*
X044942Y050446D01*
X044893Y049794D02*
X044591Y049794D01*
X044698Y049635D02*
X044816Y049635D01*
X044804Y049477D02*
X044817Y049477D01*
X044910Y049318D02*
X044924Y049318D01*
X045005Y049160D02*
X045082Y049160D01*
X045004Y049001D02*
X045185Y049001D01*
X044532Y049001D02*
X044356Y049001D01*
X044360Y049160D02*
X044426Y049160D01*
X044242Y049794D02*
X044117Y049794D01*
X043781Y049794D02*
X043561Y049794D01*
X043702Y049635D02*
X043704Y049635D01*
X043582Y050428D02*
X043583Y050428D01*
X043620Y051058D02*
X043620Y051058D01*
X043616Y051062D02*
X043637Y051062D01*
D17*
X025000Y029000D03*
X025000Y028000D03*
X024000Y027000D03*
X025000Y026000D03*
X023500Y025500D03*
X022000Y027000D03*
X021500Y026000D03*
X020500Y025500D03*
X019500Y027000D03*
X018500Y027500D03*
X018500Y028500D03*
X018500Y029500D03*
X020500Y029500D03*
X021116Y029116D03*
X022000Y029500D03*
X023500Y028500D03*
X024000Y029500D03*
X020500Y028000D03*
X018500Y025500D03*
X010500Y026500D03*
X007500Y023500D03*
X007500Y022500D03*
X007500Y021000D03*
X007500Y020000D03*
X007500Y018500D03*
X007500Y017500D03*
X007500Y016000D03*
X007500Y015000D03*
X007500Y013500D03*
X007500Y012500D03*
X007500Y011000D03*
X007500Y010000D03*
X007500Y008500D03*
X007500Y007500D03*
X007500Y006000D03*
X007500Y005000D03*
X007500Y002500D03*
X007500Y030000D03*
X008000Y032000D03*
X007500Y032500D03*
X007500Y033500D03*
X007500Y035000D03*
X007500Y036000D03*
X007500Y037500D03*
X007500Y038500D03*
X007500Y040000D03*
X007500Y041000D03*
X007500Y042500D03*
X007500Y043500D03*
X007500Y045000D03*
X007500Y046000D03*
X007500Y047500D03*
X007500Y048500D03*
X007500Y050000D03*
X007500Y051000D03*
X010500Y047500D03*
M02*
