G75*
%MOIN*%
%OFA0B0*%
%FSLAX24Y24*%
%IPPOS*%
%LPD*%
%AMOC8*
5,1,8,0,0,1.08239X$1,22.5*
%
%ADD10OC8,0.0672*%
%ADD11OC8,0.0624*%
%ADD12R,0.0614X0.0693*%
%ADD13R,0.0693X0.0614*%
%ADD14C,0.1500*%
%ADD15R,0.5320X0.0960*%
%ADD16C,0.0576*%
D10*
X007500Y003500D03*
X008500Y003500D03*
X008500Y019500D03*
X008500Y020500D03*
X008500Y031000D03*
X007500Y031000D03*
X008500Y047000D03*
X008500Y048000D03*
X039500Y028500D03*
X039500Y027500D03*
X039500Y026500D03*
X039500Y025500D03*
X039500Y024500D03*
X040500Y024500D03*
X040500Y025500D03*
X040500Y026500D03*
X040500Y027500D03*
X040500Y028500D03*
D11*
X035500Y027500D03*
X035500Y030500D03*
X032500Y030500D03*
X032500Y027500D03*
X032500Y024500D03*
X032500Y024500D03*
X035500Y024500D03*
X035500Y024500D03*
X012500Y045500D03*
X008500Y045500D03*
X008500Y051000D03*
X012500Y051000D03*
D12*
X019126Y029500D03*
X019874Y029500D03*
X022626Y029500D03*
X023374Y029500D03*
X023374Y026000D03*
X022626Y026000D03*
X019874Y025500D03*
X019126Y025500D03*
D13*
X010000Y030126D03*
X010000Y030874D03*
X010000Y003374D03*
X010000Y002626D03*
D14*
X048000Y002750D03*
X048000Y022750D03*
X048000Y030250D03*
X048000Y050250D03*
D15*
X003625Y002125D03*
X003625Y003375D03*
X003625Y004625D03*
X003625Y005875D03*
X003625Y007125D03*
X003625Y008375D03*
X003625Y009625D03*
X003625Y010875D03*
X003625Y012125D03*
X003625Y013375D03*
X003625Y014625D03*
X003625Y015875D03*
X003625Y017125D03*
X003625Y018375D03*
X003625Y019625D03*
X003625Y020875D03*
X003625Y022125D03*
X003625Y023375D03*
X003625Y029625D03*
X003625Y030875D03*
X003625Y032125D03*
X003625Y033375D03*
X003625Y034625D03*
X003625Y035875D03*
X003625Y037125D03*
X003625Y038375D03*
X003625Y039625D03*
X003625Y040875D03*
X003625Y042125D03*
X003625Y043375D03*
X003625Y044625D03*
X003625Y045875D03*
X003625Y047125D03*
X003625Y048375D03*
X003625Y049625D03*
X003625Y050875D03*
D16*
X007500Y051000D03*
X007500Y050000D03*
X007500Y048500D03*
X007500Y047500D03*
X007500Y046000D03*
X007500Y045000D03*
X007500Y043500D03*
X007500Y042500D03*
X007500Y041000D03*
X007500Y040000D03*
X007500Y038500D03*
X007500Y037500D03*
X007500Y036000D03*
X007500Y035000D03*
X007500Y033500D03*
X007500Y032500D03*
X008000Y032000D03*
X009000Y032500D03*
X007500Y030000D03*
X010500Y029250D03*
X010500Y026500D03*
X007500Y023500D03*
X007500Y022500D03*
X007500Y021000D03*
X007500Y020000D03*
X007500Y018500D03*
X007500Y017500D03*
X007500Y016000D03*
X007500Y015000D03*
X007500Y013500D03*
X007500Y012500D03*
X007500Y011000D03*
X007500Y010000D03*
X007500Y008500D03*
X007500Y007500D03*
X007500Y006000D03*
X007500Y005000D03*
X007500Y002500D03*
X023750Y023500D03*
X022750Y025250D03*
X021500Y025000D03*
X022500Y027000D03*
X023500Y028000D03*
X022500Y028500D03*
X022000Y029500D03*
X021000Y030000D03*
X020500Y028750D03*
X019750Y028500D03*
X019000Y028000D03*
X020000Y027500D03*
X019000Y026500D03*
X023500Y031750D03*
X010500Y047500D03*
M02*
