%
M48
M72
T01C0.0320
T02C0.0360
T03C0.0400
T04C0.0440
T05C0.1250
%
T01
X6500Y6500
X7000Y7000
X9000Y6500
X9500Y7000
X11500Y7500
X12750Y6500
X14500Y6750
X15500Y6750
X16000Y7250
X17000Y6750
X17750Y6500
X19000Y6500
X21500Y6500
X27500Y9000
X29500Y9000
X30000Y10000
X30500Y10500
X30500Y11500
X31500Y11500
X30500Y12500
X30500Y13500
X30500Y14500
X30500Y15500
X31500Y15500
X32000Y16500
X30500Y16500
X30500Y18000
X29500Y18000
X27500Y18000
X27500Y16500
X27500Y15500
X27500Y14500
X27500Y13500
X27500Y12500
X27500Y11500
X27500Y10500
X25250Y11000
X25250Y11500
X25250Y12000
X22000Y15500
X20000Y16000
X19000Y15500
X17000Y15500
X16000Y15500
X16000Y14500
X17000Y14500
X17000Y13500
X16000Y13500
X16000Y12500
X17000Y12500
X17750Y12500
X16000Y11500
X15000Y11500
X14500Y11000
X14000Y11500
X13000Y11500
X13000Y12500
X14000Y12500
X15000Y12500
X12000Y12500
X11000Y12500
X10000Y12500
X10000Y13500
X11000Y13500
X11000Y14500
X10000Y14500
X10000Y15500
X11000Y15500
X11000Y16500
X10000Y16500
X10000Y17500
X11000Y17500
X12000Y17500
X12000Y18500
X11000Y18500
X13000Y18500
X14000Y18500
X15000Y18500
X15000Y17500
X14000Y17500
X13000Y17500
X15000Y19500
X16000Y18500
X16000Y17500
X17000Y17500
X17000Y16500
X16000Y16500
X19000Y17500
X19750Y18500
X14000Y20750
X13000Y20500
X11000Y20500
X9000Y21250
X13500Y24500
X8000Y16500
X8000Y14500
X8250Y13500
X11000Y11500
X12000Y11500
X13000Y9500
X15000Y9500
X9000Y10500
X6500Y10250
X27500Y19500
X27500Y20500
X27500Y21500
X27500Y22500
X27500Y23500
X27500Y24500
X27500Y25500
X27500Y27000
X29500Y27000
X30500Y25500
X30500Y24500
X30500Y23500
X30500Y22500
X30500Y21500
X30500Y20500
X30500Y19500
X33500Y18500
X35750Y19000
X40000Y18500
X40500Y19000
X39500Y15500
X39500Y14500
X39500Y13500
X39500Y12500
X39500Y11500
X39500Y10500
X39500Y9500
X40000Y9000
X40500Y8500
X42500Y9500
X42500Y10500
X42500Y11500
X42500Y12500
X43000Y13000
X42500Y13500
X42500Y14500
X42500Y15500
X45000Y13500
X45000Y11500
X50250Y11500
X50250Y11000
X50250Y12000
X56500Y9750
X60000Y12500
X60000Y13500
X60000Y14500
X60000Y15500
X59500Y16000
X60000Y16500
X60000Y17500
X61000Y17500
X62000Y17500
X63000Y17500
X63000Y18500
X62000Y18500
X61000Y18500
X59000Y20000
X61000Y20500
X63000Y20500
X63500Y21000
X65000Y20000
X65000Y18500
X64000Y18500
X64000Y17500
X65000Y17500
X66000Y17500
X66000Y16500
X66000Y15500
X66000Y14500
X66000Y13500
X66000Y12500
X65000Y12500
X64000Y12500
X64000Y11500
X65000Y11500
X66000Y11500
X67000Y12500
X67000Y13500
X67000Y14500
X67000Y15500
X67000Y16500
X67000Y17500
X66000Y18500
X69000Y17500
X70000Y17000
X70500Y16000
X69000Y15500
X68500Y13000
X70250Y12000
X72000Y11250
X70750Y10000
X69250Y9000
X69000Y10500
X65000Y9500
X64000Y10000
X63000Y9500
X62500Y8500
X63500Y8000
X62500Y7500
X61500Y8250
X61500Y6500
X60250Y6500
X59000Y6500
X56500Y6500
X61000Y11500
X62000Y11500
X63000Y11500
X63000Y12500
X62000Y12500
X61000Y12500
X61000Y13500
X61000Y14500
X61000Y15500
X61000Y16500
X58000Y16500
X57500Y17000
X58000Y14500
X66000Y7250
X65500Y6750
X67500Y7500
X69000Y6500
X70250Y6500
X59500Y22000
X64000Y22500
X63000Y26750
X62500Y29000
X66000Y30500
X67000Y30500
X66750Y27500
X67000Y34500
X68000Y34500
X68000Y35500
X67000Y35500
X66000Y35500
X66000Y34500
X65000Y36500
X63000Y36500
X62000Y36500
X62000Y35500
X61000Y35500
X62000Y34500
X59000Y34500
X59000Y35500
X59000Y36500
X58000Y36500
X59000Y37500
X59000Y38500
X58000Y38500
X58000Y39500
X59000Y39500
X59000Y40500
X59000Y41500
X58000Y41500
X60500Y39500
X62000Y39500
X63000Y39500
X63000Y38500
X62000Y38500
X62000Y37500
X62000Y40500
X62000Y41500
X63000Y41500
X65000Y40500
X66000Y40500
X67000Y40500
X68000Y40500
X68000Y39500
X68000Y38500
X68000Y37500
X68000Y36500
X71000Y36500
X72000Y36500
X73000Y36500
X74000Y35500
X71000Y35500
X71000Y34500
X71000Y37500
X71000Y38500
X71000Y39500
X71000Y40500
X72000Y40500
X73000Y40500
X74000Y40500
X71000Y41500
X70750Y42500
X68000Y41500
X54750Y38500
X54250Y39500
X54250Y36000
X45500Y34500
X45500Y33500
X45500Y32500
X45500Y31500
X45500Y30500
X45500Y29500
X45500Y28500
X45000Y28000
X44500Y27000
X42500Y27000
X42500Y28500
X42500Y29500
X42500Y30500
X42500Y31500
X41500Y31250
X41000Y32000
X42500Y32500
X42500Y33500
X42500Y34500
X42500Y36000
X42500Y37500
X42500Y38500
X42500Y39500
X42500Y40500
X42500Y41500
X42500Y42500
X42500Y43500
X45500Y43500
X45500Y42500
X45500Y41500
X45500Y40500
X45500Y39500
X45500Y38500
X45500Y37500
X44500Y36000
X36500Y34500
X36500Y33500
X36500Y32500
X36500Y31500
X36500Y30500
X37500Y30500
X36500Y29500
X36500Y28500
X33500Y28500
X33500Y29500
X33500Y30500
X33500Y31500
X33500Y32500
X33500Y33500
X33500Y34500
X30500Y34500
X30500Y33500
X30500Y32500
X30500Y31500
X30500Y30500
X30500Y29500
X30500Y28500
X27500Y28500
X27500Y29500
X27500Y30500
X27500Y31500
X27500Y32500
X27500Y33500
X27500Y34500
X27500Y37500
X30500Y37500
X30500Y40500
X33000Y41000
X33000Y43000
X30500Y43500
X30500Y43500
X27500Y43500
X27500Y43500
X25250Y44000
X25250Y44500
X25250Y45000
X27500Y40500
X25250Y28000
X25250Y27500
X25250Y27000
X50250Y27000
X50250Y27500
X50250Y28000
X55250Y26500
X50250Y44000
X50250Y44500
X50250Y45000
X38000Y9000
X38000Y8000
X37000Y7000
X36500Y6500
X37750Y6500
X39000Y6500
X39500Y7000
X40250Y6500
X36000Y8000
X34750Y7500
X34750Y6750
X34000Y6500
X33000Y8000
X31500Y8500
T02
X32500Y8500
X32500Y9500
X32500Y10500
X33500Y10500
X34500Y10500
X35500Y10500
X35500Y9500
X34500Y9500
X33500Y9500
X33500Y8500
X34500Y8500
X35500Y8500
X36500Y8500
X37500Y8500
X37500Y9500
X36500Y9500
X36500Y10500
X37500Y10500
X37500Y13500
X36500Y13500
X36500Y14500
X37500Y14500
X37500Y15500
X36500Y15500
X35500Y15500
X34500Y15500
X33500Y15500
X33500Y14500
X34500Y14500
X35500Y14500
X35500Y13500
X34500Y13500
X33500Y13500
X32500Y13500
X32500Y14500
X32500Y15500
X21000Y19500
X20000Y19500
X20000Y20500
X21000Y20500
X21000Y21500
X20000Y21500
X20000Y22500
X21000Y22500
X21000Y23500
X20000Y23500
X20000Y24500
X21000Y24500
X21000Y25500
X20000Y25500
X17000Y23500
X16000Y23500
X15000Y23500
X13000Y23500
X12000Y23500
X11000Y23500
X11000Y27500
X12000Y27500
X12000Y28500
X11000Y28500
X13000Y28500
X14000Y28500
X15000Y28500
X15000Y27500
X14000Y27500
X13000Y27500
X45000Y25500
X46000Y25500
X46000Y24500
X45000Y24500
X45000Y23500
X46000Y23500
X46000Y22500
X45000Y22500
X45000Y21500
X46000Y21500
X46000Y20500
X45000Y20500
X45000Y19500
X46000Y19500
X56000Y19500
X57000Y19500
X57000Y20500
X56000Y20500
X56000Y21500
X57000Y21500
X57000Y22500
X56000Y22500
X56000Y23500
X57000Y23500
X57000Y24500
X56000Y24500
X56000Y25500
X57000Y25500
X57000Y26500
X56000Y26500
X56000Y27500
X57000Y27500
X57000Y28500
X56000Y28500
X56000Y29500
X57000Y29500
X57000Y30500
X56000Y30500
X56000Y31500
X57000Y31500
X57000Y32500
X56000Y32500
X56000Y33500
X57000Y33500
X57000Y34500
X56000Y34500
X56000Y35500
X57000Y35500
X57000Y36500
X56000Y36500
X56000Y37500
X57000Y37500
X57000Y38500
X56000Y38500
X61000Y28500
X62000Y28500
X63000Y28500
X63000Y27500
X62000Y27500
X61000Y27500
X64000Y27500
X65000Y27500
X65000Y28500
X64000Y28500
X70000Y25500
X71000Y25500
X71000Y24500
X70000Y24500
X70000Y23500
X71000Y23500
X71000Y22500
X70000Y22500
X70000Y21500
X71000Y21500
X71000Y20500
X70000Y20500
X70000Y19500
X71000Y19500
T03
X72500Y16500
X72500Y8500
X47500Y8500
X47500Y16500
X44000Y23500
X43000Y23500
X42000Y23500
X42000Y24500
X43000Y24500
X44000Y24500
X41000Y24500
X40000Y24500
X39000Y24500
X39000Y23500
X40000Y23500
X41000Y23500
X38000Y23500
X37000Y23500
X36000Y23500
X35000Y23500
X35000Y24500
X36000Y24500
X37000Y24500
X38000Y24500
X34000Y24500
X33000Y24500
X32000Y24500
X32000Y23500
X33000Y23500
X34000Y23500
X22500Y16500
X22500Y8500
T04
X72000Y31500
X72000Y35500
T05
X72750Y48000
X52750Y48000
X47770Y48000
X27770Y48000
X22770Y48000
X2770Y48000
M30
