G75*
%MOIN*%
%OFA0B0*%
%FSLAX24Y24*%
%IPPOS*%
%LPD*%
%AMOC8*
5,1,8,0,0,1.08239X$1,22.5*
%
%ADD10C,0.0170*%
%ADD11OC8,0.0520*%
%ADD12R,0.0800X0.5160*%
%ADD13OC8,0.0560*%
%ADD14OC8,0.0660*%
%ADD15OC8,0.0600*%
%ADD16C,0.0280*%
%ADD17C,0.0480*%
%ADD18C,0.0160*%
D10*
X023885Y041585D02*
X023885Y041850D01*
X023973Y041939D01*
X024061Y041939D01*
X024150Y041850D01*
X024150Y041585D01*
X024415Y041585D02*
X023885Y041585D01*
X024150Y041850D02*
X024238Y041939D01*
X024327Y041939D01*
X024415Y041850D01*
X024415Y041585D01*
X024415Y042230D02*
X024061Y042230D01*
X023885Y042406D01*
X024061Y042583D01*
X024415Y042583D01*
X024150Y042583D02*
X024150Y042230D01*
X024327Y042874D02*
X024415Y042963D01*
X024415Y043139D01*
X024327Y043228D01*
X024327Y042874D02*
X023973Y042874D01*
X023885Y042963D01*
X023885Y043139D01*
X023973Y043228D01*
X048885Y043139D02*
X048885Y042874D01*
X049415Y042874D01*
X049415Y043139D01*
X049327Y043228D01*
X049238Y043228D01*
X049150Y043139D01*
X049150Y042874D01*
X049150Y043139D02*
X049061Y043228D01*
X048973Y043228D01*
X048885Y043139D01*
X048885Y042583D02*
X049415Y042583D01*
X049415Y042230D02*
X048885Y042230D01*
X049061Y042406D01*
X048885Y042583D01*
X048973Y041939D02*
X049061Y041939D01*
X049150Y041850D01*
X049150Y041585D01*
X049415Y041585D02*
X049415Y041850D01*
X049327Y041939D01*
X049238Y041939D01*
X049150Y041850D01*
X048973Y041939D02*
X048885Y041850D01*
X048885Y041585D01*
X049415Y041585D01*
X073885Y042085D02*
X073885Y042262D01*
X073885Y042173D02*
X074415Y042173D01*
X074415Y042085D02*
X074415Y042262D01*
X074327Y042515D02*
X074415Y042603D01*
X074415Y042780D01*
X074327Y042868D01*
X073973Y042868D01*
X073885Y042780D01*
X073885Y042603D01*
X073973Y042515D01*
X074327Y042515D01*
X074415Y043159D02*
X074415Y043424D01*
X074327Y043513D01*
X074238Y043513D01*
X074150Y043424D01*
X074150Y043159D01*
X074415Y043159D02*
X073885Y043159D01*
X073885Y043424D01*
X073973Y043513D01*
X074061Y043513D01*
X074150Y043424D01*
D11*
X071000Y041500D03*
X071000Y040500D03*
X072000Y040500D03*
X073000Y040500D03*
X074000Y040500D03*
X071000Y039500D03*
X071000Y038500D03*
X071000Y037500D03*
X071000Y036500D03*
X072000Y036500D03*
X073000Y036500D03*
X074000Y035500D03*
X071000Y035500D03*
X071000Y034500D03*
X068000Y034500D03*
X067000Y034500D03*
X067000Y035500D03*
X068000Y035500D03*
X068000Y036500D03*
X068000Y037500D03*
X068000Y038500D03*
X068000Y039500D03*
X068000Y040500D03*
X067000Y040500D03*
X066000Y040500D03*
X065000Y040500D03*
X063000Y039500D03*
X062000Y039500D03*
X062000Y038500D03*
X063000Y038500D03*
X062000Y037500D03*
X062000Y036500D03*
X063000Y036500D03*
X062000Y035500D03*
X062000Y034500D03*
X059000Y034500D03*
X059000Y035500D03*
X059000Y036500D03*
X058000Y036500D03*
X059000Y037500D03*
X059000Y038500D03*
X058000Y038500D03*
X058000Y039500D03*
X059000Y039500D03*
X059000Y040500D03*
X059000Y041500D03*
X058000Y041500D03*
X062000Y041500D03*
X063000Y041500D03*
X062000Y040500D03*
X065000Y036500D03*
X066000Y035500D03*
X066000Y034500D03*
X066000Y030500D03*
X067000Y030500D03*
X063000Y020500D03*
X061000Y020500D03*
X061000Y018500D03*
X062000Y018500D03*
X063000Y018500D03*
X063000Y017500D03*
X062000Y017500D03*
X061000Y017500D03*
X061000Y016500D03*
X061000Y015500D03*
X061000Y014500D03*
X061000Y013500D03*
X061000Y012500D03*
X062000Y012500D03*
X063000Y012500D03*
X063000Y011500D03*
X062000Y011500D03*
X061000Y011500D03*
X060000Y012500D03*
X060000Y013500D03*
X060000Y014500D03*
X060000Y015500D03*
X060000Y016500D03*
X060000Y017500D03*
X058000Y016500D03*
X058000Y014500D03*
X064000Y012500D03*
X065000Y012500D03*
X066000Y012500D03*
X066000Y011500D03*
X065000Y011500D03*
X064000Y011500D03*
X063000Y009500D03*
X065000Y009500D03*
X067000Y012500D03*
X067000Y013500D03*
X067000Y014500D03*
X067000Y015500D03*
X067000Y016500D03*
X067000Y017500D03*
X066000Y017500D03*
X065000Y017500D03*
X064000Y017500D03*
X064000Y018500D03*
X065000Y018500D03*
X066000Y018500D03*
X066000Y016500D03*
X066000Y015500D03*
X066000Y014500D03*
X066000Y013500D03*
X069000Y015500D03*
X069000Y017500D03*
X045000Y013500D03*
X045000Y011500D03*
X042500Y011500D03*
X042500Y010500D03*
X042500Y009500D03*
X039500Y009500D03*
X039500Y010500D03*
X039500Y011500D03*
X039500Y012500D03*
X039500Y013500D03*
X039500Y014500D03*
X039500Y015500D03*
X042500Y015500D03*
X042500Y014500D03*
X042500Y013500D03*
X042500Y012500D03*
X030500Y012500D03*
X030500Y011500D03*
X030500Y010500D03*
X029500Y009000D03*
X027500Y009000D03*
X027500Y010500D03*
X027500Y011500D03*
X027500Y012500D03*
X027500Y013500D03*
X027500Y014500D03*
X027500Y015500D03*
X027500Y016500D03*
X027500Y018000D03*
X029500Y018000D03*
X030500Y016500D03*
X030500Y015500D03*
X030500Y014500D03*
X030500Y013500D03*
X030500Y019500D03*
X030500Y020500D03*
X030500Y021500D03*
X030500Y022500D03*
X030500Y023500D03*
X030500Y024500D03*
X030500Y025500D03*
X029500Y027000D03*
X027500Y027000D03*
X027500Y025500D03*
X027500Y024500D03*
X027500Y023500D03*
X027500Y022500D03*
X027500Y021500D03*
X027500Y020500D03*
X027500Y019500D03*
X019000Y017500D03*
X017000Y017500D03*
X016000Y017500D03*
X016000Y016500D03*
X017000Y016500D03*
X017000Y015500D03*
X016000Y015500D03*
X016000Y014500D03*
X017000Y014500D03*
X017000Y013500D03*
X016000Y013500D03*
X016000Y012500D03*
X017000Y012500D03*
X016000Y011500D03*
X015000Y011500D03*
X014000Y011500D03*
X013000Y011500D03*
X013000Y012500D03*
X014000Y012500D03*
X015000Y012500D03*
X012000Y012500D03*
X011000Y012500D03*
X010000Y012500D03*
X010000Y013500D03*
X011000Y013500D03*
X011000Y014500D03*
X010000Y014500D03*
X010000Y015500D03*
X011000Y015500D03*
X011000Y016500D03*
X010000Y016500D03*
X010000Y017500D03*
X011000Y017500D03*
X012000Y017500D03*
X012000Y018500D03*
X011000Y018500D03*
X013000Y018500D03*
X014000Y018500D03*
X015000Y018500D03*
X015000Y017500D03*
X014000Y017500D03*
X013000Y017500D03*
X016000Y018500D03*
X013000Y020500D03*
X011000Y020500D03*
X008000Y016500D03*
X008000Y014500D03*
X011000Y011500D03*
X012000Y011500D03*
X013000Y009500D03*
X015000Y009500D03*
X019000Y015500D03*
X027500Y028500D03*
X027500Y029500D03*
X027500Y030500D03*
X027500Y031500D03*
X027500Y032500D03*
X027500Y033500D03*
X027500Y034500D03*
X030500Y034500D03*
X030500Y033500D03*
X030500Y032500D03*
X030500Y031500D03*
X030500Y030500D03*
X030500Y029500D03*
X030500Y028500D03*
X033500Y028500D03*
X033500Y029500D03*
X033500Y030500D03*
X033500Y031500D03*
X033500Y032500D03*
X033500Y033500D03*
X033500Y034500D03*
X036500Y034500D03*
X036500Y033500D03*
X036500Y032500D03*
X036500Y031500D03*
X036500Y030500D03*
X036500Y029500D03*
X036500Y028500D03*
X042500Y028500D03*
X042500Y029500D03*
X042500Y030500D03*
X042500Y031500D03*
X042500Y032500D03*
X042500Y033500D03*
X042500Y034500D03*
X042500Y036000D03*
X042500Y037500D03*
X042500Y038500D03*
X042500Y039500D03*
X042500Y040500D03*
X042500Y041500D03*
X042500Y042500D03*
X042500Y043500D03*
X045500Y043500D03*
X045500Y042500D03*
X045500Y041500D03*
X045500Y040500D03*
X045500Y039500D03*
X045500Y038500D03*
X045500Y037500D03*
X044500Y036000D03*
X045500Y034500D03*
X045500Y033500D03*
X045500Y032500D03*
X045500Y031500D03*
X045500Y030500D03*
X045500Y029500D03*
X045500Y028500D03*
X044500Y027000D03*
X042500Y027000D03*
X030500Y037500D03*
X027500Y037500D03*
X027500Y040500D03*
X030500Y040500D03*
X033000Y041000D03*
X033000Y043000D03*
X030500Y043500D03*
X030500Y043500D03*
X027500Y043500D03*
X027500Y043500D03*
X068000Y041500D03*
D12*
X002125Y003625D03*
X003375Y003625D03*
X004625Y003625D03*
X005875Y003625D03*
X007125Y003625D03*
X008375Y003625D03*
X009625Y003625D03*
X010875Y003625D03*
X012125Y003625D03*
X013375Y003625D03*
X014625Y003625D03*
X015875Y003625D03*
X017125Y003625D03*
X018375Y003625D03*
X019625Y003625D03*
X020875Y003625D03*
X022125Y003625D03*
X023375Y003625D03*
X027125Y003625D03*
X028375Y003625D03*
X029625Y003625D03*
X030875Y003625D03*
X032125Y003625D03*
X033375Y003625D03*
X034625Y003625D03*
X035875Y003625D03*
X037125Y003625D03*
X038375Y003625D03*
X039625Y003625D03*
X040875Y003625D03*
X042125Y003625D03*
X043375Y003625D03*
X044625Y003625D03*
X045875Y003625D03*
X047125Y003625D03*
X048375Y003625D03*
X052125Y003625D03*
X053375Y003625D03*
X054625Y003625D03*
X055875Y003625D03*
X057125Y003625D03*
X058375Y003625D03*
X059625Y003625D03*
X060875Y003625D03*
X062125Y003625D03*
X063375Y003625D03*
X064625Y003625D03*
X065875Y003625D03*
X067125Y003625D03*
X068375Y003625D03*
X069625Y003625D03*
X070875Y003625D03*
X072125Y003625D03*
X073375Y003625D03*
D13*
X071000Y019500D03*
X070000Y019500D03*
X070000Y020500D03*
X071000Y020500D03*
X071000Y021500D03*
X070000Y021500D03*
X070000Y022500D03*
X071000Y022500D03*
X071000Y023500D03*
X070000Y023500D03*
X070000Y024500D03*
X071000Y024500D03*
X071000Y025500D03*
X070000Y025500D03*
X065000Y027500D03*
X064000Y027500D03*
X064000Y028500D03*
X065000Y028500D03*
X063000Y028500D03*
X062000Y028500D03*
X061000Y028500D03*
X061000Y027500D03*
X062000Y027500D03*
X063000Y027500D03*
X057000Y027500D03*
X056000Y027500D03*
X056000Y026500D03*
X057000Y026500D03*
X057000Y025500D03*
X056000Y025500D03*
X056000Y024500D03*
X057000Y024500D03*
X057000Y023500D03*
X056000Y023500D03*
X056000Y022500D03*
X057000Y022500D03*
X057000Y021500D03*
X056000Y021500D03*
X056000Y020500D03*
X057000Y020500D03*
X057000Y019500D03*
X056000Y019500D03*
X046000Y019500D03*
X045000Y019500D03*
X045000Y020500D03*
X046000Y020500D03*
X046000Y021500D03*
X045000Y021500D03*
X045000Y022500D03*
X046000Y022500D03*
X046000Y023500D03*
X045000Y023500D03*
X045000Y024500D03*
X046000Y024500D03*
X046000Y025500D03*
X045000Y025500D03*
X056000Y028500D03*
X057000Y028500D03*
X057000Y029500D03*
X056000Y029500D03*
X056000Y030500D03*
X057000Y030500D03*
X057000Y031500D03*
X056000Y031500D03*
X056000Y032500D03*
X057000Y032500D03*
X057000Y033500D03*
X056000Y033500D03*
X056000Y034500D03*
X057000Y034500D03*
X057000Y035500D03*
X056000Y035500D03*
X056000Y036500D03*
X057000Y036500D03*
X057000Y037500D03*
X056000Y037500D03*
X056000Y038500D03*
X057000Y038500D03*
X037500Y015500D03*
X036500Y015500D03*
X036500Y014500D03*
X037500Y014500D03*
X037500Y013500D03*
X036500Y013500D03*
X035500Y013500D03*
X034500Y013500D03*
X033500Y013500D03*
X033500Y014500D03*
X034500Y014500D03*
X035500Y014500D03*
X035500Y015500D03*
X034500Y015500D03*
X033500Y015500D03*
X032500Y015500D03*
X032500Y014500D03*
X032500Y013500D03*
X032500Y010500D03*
X032500Y009500D03*
X032500Y008500D03*
X033500Y008500D03*
X034500Y008500D03*
X035500Y008500D03*
X035500Y009500D03*
X034500Y009500D03*
X033500Y009500D03*
X033500Y010500D03*
X034500Y010500D03*
X035500Y010500D03*
X036500Y010500D03*
X037500Y010500D03*
X037500Y009500D03*
X036500Y009500D03*
X036500Y008500D03*
X037500Y008500D03*
X021000Y019500D03*
X020000Y019500D03*
X020000Y020500D03*
X021000Y020500D03*
X021000Y021500D03*
X020000Y021500D03*
X020000Y022500D03*
X021000Y022500D03*
X021000Y023500D03*
X020000Y023500D03*
X020000Y024500D03*
X021000Y024500D03*
X021000Y025500D03*
X020000Y025500D03*
X017000Y023500D03*
X016000Y023500D03*
X015000Y023500D03*
X013000Y023500D03*
X012000Y023500D03*
X011000Y023500D03*
X011000Y027500D03*
X012000Y027500D03*
X012000Y028500D03*
X011000Y028500D03*
X013000Y028500D03*
X014000Y028500D03*
X015000Y028500D03*
X015000Y027500D03*
X014000Y027500D03*
X013000Y027500D03*
D14*
X072000Y031500D03*
X072000Y035500D03*
D15*
X044000Y024500D03*
X043000Y024500D03*
X042000Y024500D03*
X042000Y023500D03*
X043000Y023500D03*
X044000Y023500D03*
X041000Y023500D03*
X040000Y023500D03*
X039000Y023500D03*
X039000Y024500D03*
X040000Y024500D03*
X041000Y024500D03*
X038000Y024500D03*
X037000Y024500D03*
X036000Y024500D03*
X035000Y024500D03*
X035000Y023500D03*
X036000Y023500D03*
X037000Y023500D03*
X038000Y023500D03*
X034000Y023500D03*
X033000Y023500D03*
X032000Y023500D03*
X032000Y024500D03*
X033000Y024500D03*
X034000Y024500D03*
X022500Y016500D03*
X022500Y008500D03*
X047500Y008500D03*
X047500Y016500D03*
X072500Y016500D03*
X072500Y008500D03*
D16*
X072500Y015500D01*
X073500Y015500D01*
X073500Y040500D01*
X074000Y040500D01*
X073500Y040500D02*
X073000Y040500D01*
X072000Y040500D01*
X071000Y040500D01*
X070500Y040000D01*
X064500Y040000D01*
X063000Y041500D01*
X062000Y041500D01*
X062750Y041000D02*
X064750Y039000D01*
X069500Y039000D01*
X071000Y037500D01*
X071500Y037541D02*
X073070Y037541D01*
X073070Y037819D02*
X071388Y037819D01*
X071500Y037707D02*
X071207Y038000D01*
X071500Y038293D01*
X071500Y038500D01*
X071500Y038707D01*
X071207Y039000D01*
X071500Y039293D01*
X071500Y039707D01*
X071207Y040000D01*
X071277Y040070D01*
X071723Y040070D01*
X071793Y040000D01*
X072207Y040000D01*
X072277Y040070D01*
X072723Y040070D01*
X072793Y040000D01*
X073070Y040000D01*
X073070Y037000D01*
X072793Y037000D01*
X072500Y036707D01*
X072500Y036293D01*
X072793Y036000D01*
X073070Y036000D01*
X073070Y015930D01*
X070980Y015930D01*
X070980Y016095D01*
X070907Y016272D01*
X070772Y016407D01*
X070595Y016480D01*
X070405Y016480D01*
X070228Y016407D01*
X070191Y016370D01*
X067500Y016370D01*
X067500Y016477D01*
X067653Y016630D01*
X069691Y016630D01*
X069728Y016593D01*
X069905Y016520D01*
X070095Y016520D01*
X070272Y016593D01*
X070407Y016728D01*
X070480Y016905D01*
X070480Y017095D01*
X070407Y017272D01*
X070272Y017407D01*
X070095Y017480D01*
X069905Y017480D01*
X069728Y017407D01*
X069691Y017370D01*
X069500Y017370D01*
X069500Y017500D01*
X069500Y017707D01*
X069207Y018000D01*
X069000Y018000D01*
X069000Y017500D01*
X071500Y017500D01*
X072500Y016500D01*
X072500Y016500D01*
X072500Y017040D01*
X072724Y017040D01*
X073040Y016724D01*
X073040Y016500D01*
X072500Y016500D01*
X072500Y016500D01*
X072500Y016500D01*
X071960Y016500D01*
X071960Y016724D01*
X072276Y017040D01*
X072500Y017040D01*
X072500Y016500D01*
X073040Y016500D01*
X073040Y016276D01*
X072724Y015960D01*
X072500Y015960D01*
X072500Y016500D01*
X072500Y016500D01*
X071960Y016500D01*
X071960Y016276D01*
X072276Y015960D01*
X072500Y015960D01*
X072500Y016500D01*
X072500Y016375D02*
X072500Y016375D01*
X072500Y016653D02*
X072500Y016653D01*
X072500Y016932D02*
X072500Y016932D01*
X072832Y016932D02*
X073070Y016932D01*
X073070Y017210D02*
X070433Y017210D01*
X070480Y016932D02*
X072168Y016932D01*
X071960Y016653D02*
X070332Y016653D01*
X070196Y016375D02*
X067500Y016375D01*
X066977Y017000D02*
X066793Y017000D01*
X066500Y016707D01*
X066500Y016370D01*
X066500Y016370D01*
X066500Y016707D01*
X066207Y017000D01*
X066500Y017293D01*
X066500Y017500D01*
X066500Y017707D01*
X066207Y018000D01*
X066000Y018000D01*
X066000Y017500D01*
X066500Y018000D01*
X065500Y018000D01*
X065500Y018750D01*
X065750Y019000D01*
X069500Y019000D01*
X070000Y019500D01*
X071000Y019500D01*
X071000Y019500D01*
X070000Y019500D01*
X070000Y019500D01*
X070480Y019500D01*
X071000Y019500D01*
X070605Y019160D02*
X070395Y019160D01*
X070500Y019265D02*
X070746Y019019D01*
X070597Y018870D01*
X066337Y018870D01*
X066207Y019000D01*
X065793Y019000D01*
X065500Y018707D01*
X065500Y018293D01*
X065793Y018000D01*
X065500Y017707D01*
X065500Y017500D01*
X066000Y017500D01*
X066000Y017500D01*
X066500Y017500D01*
X066000Y017500D01*
X066000Y017500D01*
X066000Y017500D01*
X066000Y018000D01*
X065793Y018000D01*
X066207Y018000D01*
X066337Y018130D01*
X070824Y018130D01*
X070960Y018186D01*
X071710Y018936D01*
X071814Y019040D01*
X071870Y019176D01*
X071870Y024574D01*
X071814Y024710D01*
X071710Y024814D01*
X071574Y024870D01*
X071365Y024870D01*
X071235Y025000D01*
X071520Y025285D01*
X071520Y025500D01*
X071520Y025715D01*
X071215Y026020D01*
X071000Y026020D01*
X071000Y025500D01*
X070000Y025500D01*
X067000Y025500D01*
X065000Y027500D01*
X063750Y026250D01*
X062250Y026250D01*
X061000Y027500D01*
X061000Y026980D01*
X061215Y026980D01*
X061500Y027265D01*
X061785Y026980D01*
X062215Y026980D01*
X062500Y027265D01*
X062668Y027097D01*
X062593Y027022D01*
X062520Y026845D01*
X062520Y026655D01*
X062593Y026478D01*
X062728Y026343D01*
X062905Y026270D01*
X063095Y026270D01*
X063216Y026320D01*
X063336Y026320D01*
X063494Y026385D01*
X063615Y026506D01*
X064088Y026980D01*
X064215Y026980D01*
X064500Y027265D01*
X064785Y026980D01*
X065000Y026980D01*
X065215Y026980D01*
X065520Y027285D01*
X065520Y027500D01*
X065520Y027715D01*
X065235Y028000D01*
X065481Y028246D01*
X066270Y027457D01*
X066270Y027405D01*
X066343Y027228D01*
X066478Y027093D01*
X066655Y027020D01*
X066845Y027020D01*
X067022Y027093D01*
X067157Y027228D01*
X067230Y027405D01*
X067230Y027595D01*
X067157Y027772D01*
X067022Y027907D01*
X066845Y027980D01*
X066793Y027980D01*
X061564Y033210D01*
X061460Y033314D01*
X061324Y033370D01*
X057520Y033370D01*
X057520Y033630D01*
X061574Y033630D01*
X061710Y033686D01*
X061814Y033790D01*
X062023Y034000D01*
X062207Y034000D01*
X062500Y034293D01*
X062500Y034570D01*
X065500Y034570D01*
X065500Y034293D01*
X065793Y034000D01*
X066207Y034000D01*
X066500Y034293D01*
X066793Y034000D01*
X067207Y034000D01*
X067500Y034293D01*
X067793Y034000D01*
X067892Y034000D01*
X070635Y031256D01*
X070756Y031135D01*
X070914Y031070D01*
X071624Y031070D01*
X071764Y030930D01*
X072236Y030930D01*
X072570Y031264D01*
X072570Y031736D01*
X072236Y032070D01*
X071764Y032070D01*
X071624Y031930D01*
X071178Y031930D01*
X068500Y034608D01*
X068500Y034707D01*
X068207Y035000D01*
X068500Y035293D01*
X068500Y035500D01*
X068500Y035630D01*
X070347Y035630D01*
X070500Y035477D01*
X070500Y035293D01*
X070793Y035000D01*
X070500Y034707D01*
X070500Y034500D01*
X071000Y034500D01*
X070000Y035500D01*
X068000Y035500D01*
X068500Y035500D01*
X068000Y035500D01*
X068000Y035500D01*
X068500Y035591D02*
X070386Y035591D01*
X070500Y035313D02*
X068500Y035313D01*
X068241Y035034D02*
X070759Y035034D01*
X070793Y035000D02*
X071000Y035000D01*
X071207Y035000D01*
X071500Y034707D01*
X071500Y034500D01*
X071000Y034500D01*
X071000Y034500D01*
X071000Y034500D01*
X071000Y035000D01*
X071000Y034500D01*
X071500Y034500D01*
X071500Y034293D01*
X071207Y034000D01*
X071000Y034000D01*
X071000Y034500D01*
X071000Y034500D01*
X071000Y034500D01*
X071000Y034000D01*
X070793Y034000D01*
X070500Y034293D01*
X070500Y034500D01*
X071000Y034500D01*
X071000Y034477D02*
X071000Y034477D01*
X071000Y034199D02*
X071000Y034199D01*
X071406Y034199D02*
X073070Y034199D01*
X073070Y034477D02*
X071500Y034477D01*
X071452Y034756D02*
X073070Y034756D01*
X073070Y035034D02*
X072340Y035034D01*
X072236Y034930D02*
X072570Y035264D01*
X072570Y035736D01*
X072430Y035876D01*
X072430Y036223D01*
X072500Y036293D01*
X072500Y036707D01*
X072207Y037000D01*
X071793Y037000D01*
X071500Y036707D01*
X071207Y037000D01*
X071500Y037293D01*
X071500Y037707D01*
X071500Y038000D02*
X071500Y037000D01*
X068500Y037000D01*
X068000Y036500D01*
X066000Y038500D01*
X063000Y038500D01*
X062500Y039000D01*
X057500Y039000D01*
X057000Y038500D01*
X056000Y038500D01*
X056520Y038500D01*
X057000Y038500D01*
X057000Y038500D01*
X057000Y039020D01*
X057215Y039020D01*
X057514Y038721D01*
X057793Y039000D01*
X058207Y039000D01*
X058337Y039130D01*
X058663Y039130D01*
X058793Y039000D01*
X059207Y039000D01*
X059500Y039293D01*
X059500Y039630D01*
X060034Y039630D01*
X060020Y039595D01*
X060020Y039405D01*
X060093Y039228D01*
X060228Y039093D01*
X060405Y039020D01*
X060595Y039020D01*
X060772Y039093D01*
X060809Y039130D01*
X061663Y039130D01*
X061793Y039000D01*
X062207Y039000D01*
X062500Y039293D01*
X062793Y039000D01*
X062500Y038707D01*
X062500Y038500D01*
X063000Y038500D01*
X063000Y038500D01*
X063000Y039000D01*
X063207Y039000D01*
X063500Y038707D01*
X063500Y038500D01*
X063000Y038500D01*
X063000Y038500D01*
X063000Y038500D01*
X063000Y039000D01*
X062793Y039000D01*
X063207Y039000D01*
X063500Y039293D01*
X063500Y039642D01*
X064385Y038756D01*
X064506Y038635D01*
X064664Y038570D01*
X067500Y038570D01*
X067500Y038293D01*
X067793Y038000D01*
X067500Y037707D01*
X067500Y037293D01*
X067793Y037000D01*
X068207Y037000D01*
X068500Y037293D01*
X068500Y037707D01*
X068207Y038000D01*
X067793Y038000D01*
X068207Y038000D01*
X068500Y038293D01*
X068500Y038570D01*
X069322Y038570D01*
X070500Y037392D01*
X070500Y037293D01*
X070793Y037000D01*
X071207Y037000D01*
X070793Y037000D01*
X070500Y036707D01*
X070500Y036370D01*
X068500Y036370D01*
X068500Y036500D01*
X068500Y036707D01*
X068207Y037000D01*
X068000Y037000D01*
X068000Y036500D01*
X068000Y036500D01*
X068500Y036500D01*
X068000Y036500D01*
X068000Y036500D01*
X068000Y036500D01*
X067500Y036500D01*
X067500Y036707D01*
X067793Y037000D01*
X068000Y037000D01*
X068000Y036500D01*
X067500Y036500D01*
X067500Y036370D01*
X065500Y036370D01*
X065500Y036707D01*
X065207Y037000D01*
X064793Y037000D01*
X064500Y036707D01*
X064500Y036370D01*
X063500Y036370D01*
X063500Y036707D01*
X063207Y037000D01*
X063023Y037000D01*
X062710Y037314D01*
X062574Y037370D01*
X062500Y037370D01*
X062500Y037707D01*
X062207Y038000D01*
X062500Y038293D01*
X062793Y038000D01*
X063000Y038000D01*
X063207Y038000D01*
X063500Y038293D01*
X063500Y038500D01*
X063000Y038500D01*
X063000Y038000D01*
X063000Y038500D01*
X063000Y038500D01*
X062500Y038500D01*
X062500Y038293D01*
X062500Y038707D01*
X062207Y039000D01*
X061793Y039000D01*
X061500Y038707D01*
X061500Y038523D01*
X061347Y038370D01*
X059500Y038370D01*
X059500Y038707D01*
X059207Y039000D01*
X058793Y039000D01*
X058663Y038870D01*
X058337Y038870D01*
X058207Y039000D01*
X057793Y039000D01*
X057500Y039293D01*
X057500Y039707D01*
X057793Y040000D01*
X058207Y040000D01*
X058337Y039870D01*
X058663Y039870D01*
X058793Y040000D01*
X058977Y040000D01*
X058977Y040000D01*
X058793Y040000D01*
X058500Y040293D01*
X058500Y040570D01*
X057428Y040570D01*
X055878Y039020D01*
X056000Y039020D01*
X056000Y038500D01*
X056000Y038500D01*
X056000Y038500D01*
X057000Y038500D01*
X057000Y038500D01*
X057000Y039020D01*
X056785Y039020D01*
X056500Y038735D01*
X056215Y039020D01*
X056000Y039020D01*
X056000Y038500D01*
X056000Y038500D01*
X055480Y038500D01*
X055480Y038622D01*
X055228Y038370D01*
X055480Y038370D01*
X055480Y038500D01*
X056000Y038500D01*
X056000Y038655D02*
X056000Y038655D01*
X056000Y038933D02*
X056000Y038933D01*
X056070Y039212D02*
X057581Y039212D01*
X057500Y039490D02*
X056348Y039490D01*
X056627Y039769D02*
X057561Y039769D01*
X057184Y040326D02*
X058500Y040326D01*
X058746Y040047D02*
X056905Y040047D01*
X057250Y041000D02*
X062750Y041000D01*
X062572Y040570D02*
X063142Y040000D01*
X063023Y040000D01*
X062814Y040210D01*
X062710Y040314D01*
X062574Y040370D01*
X062500Y040370D01*
X062500Y040500D01*
X062500Y040570D01*
X062572Y040570D01*
X062500Y040500D02*
X062000Y040500D01*
X062000Y040500D01*
X062000Y040500D01*
X061500Y040500D01*
X061500Y040570D01*
X059500Y040570D01*
X059500Y040523D01*
X059653Y040370D01*
X061500Y040370D01*
X061500Y040500D01*
X062000Y040500D01*
X062500Y040500D01*
X062681Y040326D02*
X062816Y040326D01*
X062976Y040047D02*
X063095Y040047D01*
X063500Y039490D02*
X063652Y039490D01*
X063419Y039212D02*
X063930Y039212D01*
X064209Y038933D02*
X063274Y038933D01*
X063000Y038933D02*
X063000Y038933D01*
X062726Y038933D02*
X062274Y038933D01*
X062419Y039212D02*
X062581Y039212D01*
X062500Y039293D02*
X062500Y039477D01*
X062500Y039477D01*
X062500Y039293D01*
X062500Y038655D02*
X062500Y038655D01*
X062500Y038376D02*
X062500Y038376D01*
X062305Y038098D02*
X062695Y038098D01*
X063000Y038098D02*
X063000Y038098D01*
X063000Y038376D02*
X063000Y038376D01*
X063000Y038655D02*
X063000Y038655D01*
X063500Y038655D02*
X064487Y038655D01*
X063500Y038376D02*
X067500Y038376D01*
X067695Y038098D02*
X063305Y038098D01*
X062388Y037819D02*
X067612Y037819D01*
X067500Y037541D02*
X062500Y037541D01*
X062761Y037262D02*
X067531Y037262D01*
X067776Y036984D02*
X065224Y036984D01*
X065500Y036705D02*
X067500Y036705D01*
X067500Y036427D02*
X065500Y036427D01*
X064776Y036984D02*
X063224Y036984D01*
X063500Y036705D02*
X064500Y036705D01*
X064500Y036427D02*
X063500Y036427D01*
X062207Y038000D02*
X062023Y038000D01*
X062023Y038000D01*
X062207Y038000D01*
X061353Y038376D02*
X059500Y038376D01*
X059500Y038655D02*
X061500Y038655D01*
X061726Y038933D02*
X059274Y038933D01*
X059419Y039212D02*
X060110Y039212D01*
X060020Y039490D02*
X059500Y039490D01*
X058726Y038933D02*
X058274Y038933D01*
X057726Y038933D02*
X057302Y038933D01*
X057000Y038933D02*
X057000Y038933D01*
X057000Y038655D02*
X057000Y038655D01*
X056698Y038933D02*
X056302Y038933D01*
X055480Y038376D02*
X055234Y038376D01*
X054750Y038500D02*
X057250Y041000D01*
X057500Y042000D02*
X052750Y037250D01*
X052750Y026500D01*
X055250Y026500D01*
X054380Y026070D02*
X054380Y016926D01*
X054436Y016790D01*
X054540Y016686D01*
X057540Y013686D01*
X057676Y013630D01*
X059500Y013630D01*
X059500Y013293D01*
X059510Y013283D01*
X056457Y010230D01*
X056405Y010230D01*
X056228Y010157D01*
X056093Y010022D01*
X056020Y009845D01*
X056020Y009655D01*
X056093Y009478D01*
X056228Y009343D01*
X056405Y009270D01*
X056595Y009270D01*
X056772Y009343D01*
X056907Y009478D01*
X056980Y009655D01*
X056980Y009707D01*
X059533Y012260D01*
X059793Y012000D01*
X060207Y012000D01*
X060500Y012293D01*
X060793Y012000D01*
X061207Y012000D01*
X061500Y012293D01*
X061510Y012283D01*
X061290Y012064D01*
X061217Y011990D01*
X061207Y012000D01*
X060793Y012000D01*
X060500Y011707D01*
X060500Y011293D01*
X060793Y011000D01*
X061130Y011000D01*
X061130Y008559D01*
X061093Y008522D01*
X061020Y008345D01*
X061020Y008155D01*
X061084Y008000D01*
X051652Y008000D01*
X051604Y008020D01*
X050770Y008020D01*
X050770Y010619D01*
X050667Y010833D01*
X050651Y010845D01*
X050680Y010914D01*
X050680Y011086D01*
X050615Y011244D01*
X050608Y011250D01*
X050615Y011256D01*
X050680Y011414D01*
X050680Y011586D01*
X050615Y011744D01*
X050608Y011750D01*
X050615Y011756D01*
X050680Y011914D01*
X050680Y012086D01*
X050651Y012155D01*
X050667Y012167D01*
X050667Y012167D01*
X050667Y012167D01*
X050770Y012381D01*
X050770Y026619D01*
X050667Y026833D01*
X050651Y026845D01*
X050680Y026914D01*
X050680Y027086D01*
X050615Y027244D01*
X050608Y027250D01*
X050615Y027256D01*
X050680Y027414D01*
X050680Y027586D01*
X050615Y027744D01*
X050608Y027750D01*
X050615Y027756D01*
X050680Y027914D01*
X050680Y028086D01*
X050651Y028155D01*
X050667Y028167D01*
X050667Y028167D01*
X050667Y028167D01*
X050770Y028381D01*
X050770Y043619D01*
X050667Y043833D01*
X050651Y043845D01*
X050680Y043914D01*
X050680Y044086D01*
X050615Y044244D01*
X050608Y044250D01*
X050615Y044256D01*
X050680Y044414D01*
X050680Y044586D01*
X050615Y044744D01*
X050608Y044750D01*
X050615Y044756D01*
X050680Y044914D01*
X050680Y045086D01*
X050651Y045155D01*
X050667Y045167D01*
X050667Y045167D01*
X050667Y045167D01*
X050770Y045381D01*
X050770Y045500D01*
X074730Y045500D01*
X074730Y043640D01*
X074667Y043703D01*
X074645Y043725D01*
X074605Y043765D01*
X074539Y043831D01*
X074517Y043840D01*
X074401Y043888D01*
X074164Y043888D01*
X074150Y043882D01*
X074136Y043888D01*
X073898Y043888D01*
X073761Y043831D01*
X073655Y043725D01*
X073567Y043637D01*
X073510Y043499D01*
X073510Y043085D01*
X073557Y042970D01*
X073510Y042855D01*
X073510Y042529D01*
X073549Y042432D01*
X073513Y042345D01*
X073494Y042365D01*
X073336Y042430D01*
X071230Y042430D01*
X071230Y042595D01*
X071157Y042772D01*
X071022Y042907D01*
X070845Y042980D01*
X070655Y042980D01*
X070534Y042930D01*
X057164Y042930D01*
X057006Y042865D01*
X056885Y042744D01*
X054099Y039957D01*
X053978Y039907D01*
X053843Y039772D01*
X053770Y039595D01*
X053770Y039405D01*
X053843Y039228D01*
X053978Y039093D01*
X053983Y039091D01*
X052506Y037615D01*
X052385Y037494D01*
X052320Y037336D01*
X052320Y026414D01*
X052385Y026256D01*
X052506Y026135D01*
X052664Y026070D01*
X054380Y026070D01*
X054380Y025844D02*
X050770Y025844D01*
X050770Y026122D02*
X052539Y026122D01*
X052326Y026401D02*
X050770Y026401D01*
X050741Y026679D02*
X052320Y026679D01*
X052320Y026958D02*
X050680Y026958D01*
X050667Y026833D02*
X050667Y026833D01*
X050618Y027236D02*
X052320Y027236D01*
X052320Y027515D02*
X050680Y027515D01*
X050630Y027793D02*
X052320Y027793D01*
X052320Y028072D02*
X050680Y028072D01*
X050755Y028350D02*
X052320Y028350D01*
X052320Y028629D02*
X050770Y028629D01*
X050770Y028907D02*
X052320Y028907D01*
X052320Y029186D02*
X050770Y029186D01*
X050770Y029464D02*
X052320Y029464D01*
X052320Y029743D02*
X050770Y029743D01*
X050770Y030021D02*
X052320Y030021D01*
X052320Y030300D02*
X050770Y030300D01*
X050770Y030578D02*
X052320Y030578D01*
X052320Y030857D02*
X050770Y030857D01*
X050770Y031135D02*
X052320Y031135D01*
X052320Y031414D02*
X050770Y031414D01*
X050770Y031692D02*
X052320Y031692D01*
X052320Y031971D02*
X050770Y031971D01*
X050770Y032249D02*
X052320Y032249D01*
X052320Y032528D02*
X050770Y032528D01*
X050770Y032806D02*
X052320Y032806D01*
X052320Y033085D02*
X050770Y033085D01*
X050770Y033363D02*
X052320Y033363D01*
X052320Y033642D02*
X050770Y033642D01*
X050770Y033920D02*
X052320Y033920D01*
X052320Y034199D02*
X050770Y034199D01*
X050770Y034477D02*
X052320Y034477D01*
X052320Y034756D02*
X050770Y034756D01*
X050770Y035034D02*
X052320Y035034D01*
X052320Y035313D02*
X050770Y035313D01*
X050770Y035591D02*
X052320Y035591D01*
X052320Y035870D02*
X050770Y035870D01*
X050770Y036148D02*
X052320Y036148D01*
X052320Y036427D02*
X050770Y036427D01*
X050770Y036705D02*
X052320Y036705D01*
X052320Y036984D02*
X050770Y036984D01*
X050770Y037262D02*
X052320Y037262D01*
X052432Y037541D02*
X050770Y037541D01*
X050770Y037819D02*
X052711Y037819D01*
X052989Y038098D02*
X050770Y038098D01*
X050770Y038376D02*
X053268Y038376D01*
X053546Y038655D02*
X050770Y038655D01*
X050770Y038933D02*
X053825Y038933D01*
X053860Y039212D02*
X050770Y039212D01*
X050770Y039490D02*
X053770Y039490D01*
X053842Y039769D02*
X050770Y039769D01*
X050770Y040047D02*
X054189Y040047D01*
X054467Y040326D02*
X050770Y040326D01*
X050770Y040604D02*
X054746Y040604D01*
X055024Y040883D02*
X050770Y040883D01*
X050770Y041161D02*
X055303Y041161D01*
X055581Y041440D02*
X050770Y041440D01*
X050770Y041718D02*
X055860Y041718D01*
X056138Y041997D02*
X050770Y041997D01*
X050770Y042275D02*
X056417Y042275D01*
X056695Y042554D02*
X050770Y042554D01*
X050770Y042832D02*
X056974Y042832D01*
X057250Y042500D02*
X070750Y042500D01*
X071097Y042832D02*
X073510Y042832D01*
X073510Y042554D02*
X071230Y042554D01*
X073250Y042000D02*
X057500Y042000D01*
X057250Y042500D02*
X054250Y039500D01*
X054903Y037630D02*
X054143Y036870D01*
X055635Y036870D01*
X055765Y037000D01*
X055480Y037285D01*
X055480Y037500D01*
X056000Y037500D01*
X056000Y037500D01*
X055480Y037500D01*
X055480Y037630D01*
X054903Y037630D01*
X054814Y037541D02*
X055480Y037541D01*
X055503Y037262D02*
X054535Y037262D01*
X054257Y036984D02*
X055748Y036984D01*
X054500Y036000D02*
X054250Y036000D01*
X054500Y036000D02*
X056000Y034500D01*
X061000Y035500D02*
X061500Y035000D01*
X067500Y035000D01*
X068000Y034500D01*
X071000Y031500D01*
X072000Y031500D01*
X072441Y031135D02*
X073070Y031135D01*
X073070Y030857D02*
X067351Y030857D01*
X067207Y031000D02*
X066793Y031000D01*
X066500Y030707D01*
X066207Y031000D01*
X065793Y031000D01*
X065500Y030707D01*
X065500Y030293D01*
X065793Y030000D01*
X066207Y030000D01*
X066500Y030293D01*
X066500Y030707D01*
X066500Y030293D01*
X066793Y030000D01*
X067207Y030000D01*
X067500Y030293D01*
X067500Y030707D01*
X067207Y031000D01*
X067500Y030578D02*
X073070Y030578D01*
X073070Y030300D02*
X067500Y030300D01*
X067228Y030021D02*
X073070Y030021D01*
X073070Y029743D02*
X065031Y029743D01*
X064752Y030021D02*
X065772Y030021D01*
X065500Y030300D02*
X064474Y030300D01*
X064195Y030578D02*
X065500Y030578D01*
X065649Y030857D02*
X063917Y030857D01*
X063638Y031135D02*
X070757Y031135D01*
X070478Y031414D02*
X063360Y031414D01*
X063081Y031692D02*
X070200Y031692D01*
X069921Y031971D02*
X062803Y031971D01*
X062524Y032249D02*
X069643Y032249D01*
X069364Y032528D02*
X062246Y032528D01*
X061967Y032806D02*
X069086Y032806D01*
X068807Y033085D02*
X061689Y033085D01*
X061340Y033363D02*
X068529Y033363D01*
X068250Y033642D02*
X061601Y033642D01*
X061943Y033920D02*
X067972Y033920D01*
X067594Y034199D02*
X067406Y034199D01*
X067500Y034293D02*
X067500Y034392D01*
X067500Y034392D01*
X067500Y034293D01*
X066594Y034199D02*
X066406Y034199D01*
X066500Y034293D02*
X066500Y034570D01*
X066500Y034293D01*
X066500Y034477D02*
X066500Y034477D01*
X066500Y034570D02*
X066500Y034570D01*
X065594Y034199D02*
X062406Y034199D01*
X062500Y034477D02*
X065500Y034477D01*
X068108Y035000D02*
X068207Y035000D01*
X068108Y035000D01*
X068108Y035000D01*
X068452Y034756D02*
X070548Y034756D01*
X070500Y034477D02*
X068631Y034477D01*
X068910Y034199D02*
X070594Y034199D01*
X071000Y034756D02*
X071000Y034756D01*
X071207Y035000D02*
X071451Y035243D01*
X071764Y034930D01*
X072236Y034930D01*
X072570Y035313D02*
X073070Y035313D01*
X073070Y035591D02*
X072570Y035591D01*
X072437Y035870D02*
X073070Y035870D01*
X072645Y036148D02*
X072430Y036148D01*
X072500Y036427D02*
X072500Y036427D01*
X072500Y036705D02*
X072500Y036705D01*
X072224Y036984D02*
X072776Y036984D01*
X073070Y037262D02*
X071469Y037262D01*
X071224Y036984D02*
X071776Y036984D01*
X071500Y036707D02*
X071500Y036293D01*
X071207Y036000D01*
X071023Y036000D01*
X071023Y036000D01*
X071207Y036000D01*
X071451Y035757D01*
X071570Y035876D01*
X071570Y036223D01*
X071500Y036293D01*
X071500Y036707D01*
X071500Y036705D02*
X071500Y036705D01*
X071500Y036427D02*
X071500Y036427D01*
X071570Y036148D02*
X071355Y036148D01*
X071338Y035870D02*
X071563Y035870D01*
X072000Y035500D02*
X072000Y036500D01*
X070776Y036984D02*
X068224Y036984D01*
X068000Y036984D02*
X068000Y036984D01*
X068000Y036705D02*
X068000Y036705D01*
X068500Y036705D02*
X070500Y036705D01*
X070500Y036427D02*
X068500Y036427D01*
X068469Y037262D02*
X070531Y037262D01*
X070351Y037541D02*
X068500Y037541D01*
X068388Y037819D02*
X070073Y037819D01*
X069794Y038098D02*
X068305Y038098D01*
X068500Y038376D02*
X069516Y038376D01*
X070175Y038933D02*
X070726Y038933D01*
X070793Y039000D02*
X071207Y039000D01*
X071000Y039000D01*
X071000Y038500D01*
X071500Y038000D01*
X071305Y038098D02*
X073070Y038098D01*
X073070Y038376D02*
X071500Y038376D01*
X071500Y038500D02*
X071000Y038500D01*
X071000Y038500D01*
X071500Y038500D01*
X071500Y038655D02*
X073070Y038655D01*
X073070Y038933D02*
X071274Y038933D01*
X071000Y038933D02*
X071000Y038933D01*
X071000Y039000D02*
X070793Y039000D01*
X070500Y039293D01*
X070500Y039570D01*
X068500Y039570D01*
X068500Y039430D01*
X069586Y039430D01*
X069744Y039365D01*
X070500Y038608D01*
X070500Y038707D01*
X070793Y039000D01*
X071000Y039000D02*
X071000Y038500D01*
X071000Y038500D01*
X071000Y038655D02*
X071000Y038655D01*
X070500Y038655D02*
X070454Y038655D01*
X070581Y039212D02*
X069897Y039212D01*
X070500Y039490D02*
X068500Y039490D01*
X071108Y040000D02*
X071108Y040000D01*
X071207Y040000D01*
X071108Y040000D01*
X071254Y040047D02*
X071746Y040047D01*
X071439Y039769D02*
X073070Y039769D01*
X073070Y039490D02*
X071500Y039490D01*
X071419Y039212D02*
X073070Y039212D01*
X072746Y040047D02*
X072254Y040047D01*
X074000Y039750D02*
X074500Y040250D01*
X074500Y040750D01*
X073250Y042000D01*
X073510Y043111D02*
X050770Y043111D01*
X050770Y043389D02*
X073510Y043389D01*
X073597Y043668D02*
X050746Y043668D01*
X050667Y043833D02*
X050667Y043833D01*
X050680Y043946D02*
X074730Y043946D01*
X074539Y043831D02*
X074539Y043831D01*
X074539Y043831D01*
X074645Y043725D02*
X074645Y043725D01*
X074702Y043668D02*
X074730Y043668D01*
X074730Y044225D02*
X050622Y044225D01*
X050680Y044503D02*
X074730Y044503D01*
X074730Y044782D02*
X050625Y044782D01*
X050680Y045060D02*
X074730Y045060D01*
X074730Y045339D02*
X050749Y045339D01*
X049849Y045155D02*
X049820Y045086D01*
X049820Y044914D01*
X049885Y044756D01*
X049892Y044750D01*
X049885Y044744D01*
X049820Y044586D01*
X049820Y044414D01*
X049885Y044256D01*
X049892Y044250D01*
X049885Y044244D01*
X049820Y044086D01*
X049820Y043914D01*
X049849Y043845D01*
X049833Y043833D01*
X049833Y043833D01*
X049833Y043833D01*
X049730Y043619D01*
X049730Y043355D01*
X049667Y043417D01*
X049645Y043440D01*
X049645Y043440D01*
X049605Y043480D01*
X049539Y043546D01*
X049517Y043555D01*
X049401Y043603D01*
X049164Y043603D01*
X049150Y043597D01*
X049136Y043603D01*
X048898Y043603D01*
X048761Y043546D01*
X048655Y043440D01*
X048567Y043352D01*
X048510Y043214D01*
X048510Y042800D01*
X048539Y042729D01*
X048510Y042658D01*
X048510Y042509D01*
X048534Y042450D01*
X048552Y042406D01*
X048510Y042304D01*
X048510Y042155D01*
X048557Y042040D01*
X048510Y041925D01*
X048510Y041510D01*
X048567Y041373D01*
X048672Y041267D01*
X048810Y041210D01*
X049490Y041210D01*
X049627Y041267D01*
X049730Y041370D01*
X049730Y028381D01*
X049833Y028167D01*
X049849Y028155D01*
X049820Y028086D01*
X049820Y027914D01*
X049885Y027756D01*
X049892Y027750D01*
X049885Y027744D01*
X049820Y027586D01*
X049820Y027414D01*
X049885Y027256D01*
X049892Y027250D01*
X049885Y027244D01*
X049820Y027086D01*
X049820Y026914D01*
X049849Y026845D01*
X049833Y026833D01*
X049833Y026833D01*
X049833Y026833D01*
X049730Y026619D01*
X049730Y012381D01*
X049833Y012167D01*
X049849Y012155D01*
X049820Y012086D01*
X049820Y011914D01*
X049885Y011756D01*
X049892Y011750D01*
X049885Y011744D01*
X049820Y011586D01*
X049820Y011414D01*
X049885Y011256D01*
X049892Y011250D01*
X049885Y011244D01*
X049820Y011086D01*
X049820Y010914D01*
X049849Y010845D01*
X049833Y010833D01*
X049730Y010619D01*
X049730Y008000D01*
X047764Y008000D01*
X048040Y008276D01*
X048040Y008724D01*
X047724Y009040D01*
X047568Y009040D01*
X045408Y011201D01*
X045500Y011293D01*
X045500Y011707D01*
X045207Y012000D01*
X045108Y012000D01*
X043930Y013178D01*
X043930Y015086D01*
X043865Y015244D01*
X043744Y015365D01*
X043586Y015430D01*
X043000Y015430D01*
X043000Y015500D01*
X043000Y015707D01*
X042707Y016000D01*
X042500Y016000D01*
X042500Y015500D01*
X043500Y016500D01*
X045000Y016500D01*
X045000Y019500D01*
X046000Y019500D01*
X046520Y019500D01*
X046520Y019715D01*
X046235Y020000D01*
X046520Y020285D01*
X046520Y020715D01*
X046235Y021000D01*
X046520Y021285D01*
X046520Y021715D01*
X046235Y022000D01*
X046520Y022285D01*
X046520Y022715D01*
X046235Y023000D01*
X046520Y023285D01*
X046520Y023630D01*
X046574Y023630D01*
X046710Y023686D01*
X046814Y023790D01*
X046870Y023926D01*
X046870Y033324D01*
X046814Y033460D01*
X046710Y033564D01*
X045990Y034283D01*
X046000Y034293D01*
X046000Y034500D01*
X046000Y034707D01*
X045844Y034863D01*
X045870Y034926D01*
X045870Y037163D01*
X046000Y037293D01*
X046000Y037707D01*
X045707Y038000D01*
X046000Y038293D01*
X046000Y038500D01*
X046000Y038707D01*
X045707Y039000D01*
X046000Y039293D01*
X046000Y039707D01*
X045707Y040000D01*
X046000Y040293D01*
X046000Y040707D01*
X045707Y041000D01*
X046000Y041293D01*
X046000Y041707D01*
X045707Y042000D01*
X045293Y042000D01*
X045000Y041707D01*
X045000Y041293D01*
X045293Y041000D01*
X045707Y041000D01*
X045293Y041000D01*
X045000Y040707D01*
X045000Y040293D01*
X045293Y040000D01*
X045707Y040000D01*
X045293Y040000D01*
X045000Y039707D01*
X045000Y039293D01*
X045293Y039000D01*
X045707Y039000D01*
X045500Y039000D01*
X045500Y038500D01*
X045000Y038500D01*
X045000Y043000D01*
X033000Y043000D01*
X032500Y043500D01*
X030500Y043500D01*
X030500Y043500D01*
X030500Y044000D01*
X030707Y044000D01*
X031000Y043707D01*
X031000Y043500D01*
X030500Y043500D01*
X030500Y043500D01*
X030500Y043500D01*
X030000Y043500D01*
X030000Y043707D01*
X030293Y044000D01*
X030500Y044000D01*
X030500Y043500D01*
X031000Y043500D01*
X031000Y043293D01*
X030707Y043000D01*
X030500Y043000D01*
X030500Y043500D01*
X030500Y043500D01*
X030000Y043500D01*
X030000Y043293D01*
X030293Y043000D01*
X030500Y043000D01*
X030500Y043500D01*
X030500Y043389D02*
X030500Y043389D01*
X030500Y043111D02*
X030500Y043111D01*
X030818Y043111D02*
X032500Y043111D01*
X032500Y043207D02*
X032500Y043000D01*
X033000Y043000D01*
X033000Y043000D01*
X033000Y043500D01*
X033207Y043500D01*
X033500Y043207D01*
X033500Y043000D01*
X033000Y043000D01*
X033000Y043000D01*
X033000Y043000D01*
X033000Y043500D01*
X032793Y043500D01*
X032500Y043207D01*
X032500Y043000D02*
X032500Y042793D01*
X032793Y042500D01*
X033000Y042500D01*
X033207Y042500D01*
X033500Y042793D01*
X033500Y043000D01*
X033000Y043000D01*
X033000Y042500D01*
X033000Y043000D01*
X033000Y043000D01*
X032500Y043000D01*
X032500Y042832D02*
X025770Y042832D01*
X025770Y042554D02*
X032739Y042554D01*
X033000Y042554D02*
X033000Y042554D01*
X033261Y042554D02*
X042000Y042554D01*
X042000Y042707D02*
X042000Y042293D01*
X042293Y042000D01*
X042000Y041707D01*
X042000Y041293D01*
X042293Y041000D01*
X042000Y040707D01*
X042000Y040293D01*
X042293Y040000D01*
X042000Y039707D01*
X042000Y039500D01*
X042500Y039500D01*
X043500Y038500D01*
X045000Y038500D01*
X045500Y038500D01*
X046000Y038500D01*
X045500Y038500D01*
X045500Y038500D01*
X045500Y038500D01*
X045500Y038000D01*
X045707Y038000D01*
X045293Y038000D01*
X045500Y038000D01*
X045500Y038500D01*
X045500Y038500D01*
X045500Y038500D01*
X045500Y039000D01*
X045293Y039000D01*
X045000Y038707D01*
X045000Y038500D01*
X045000Y038293D01*
X045293Y038000D01*
X045000Y037707D01*
X045000Y037293D01*
X045130Y037163D01*
X045130Y035370D01*
X038926Y035370D01*
X038790Y035314D01*
X037000Y033523D01*
X037000Y033707D01*
X036707Y034000D01*
X037000Y034293D01*
X037000Y034500D01*
X037000Y034707D01*
X036707Y035000D01*
X036500Y035000D01*
X036500Y034500D01*
X037500Y035500D01*
X044000Y035500D01*
X044500Y036000D01*
X045000Y036000D01*
X045000Y036207D01*
X044707Y036500D01*
X044500Y036500D01*
X044500Y036000D01*
X044500Y036000D01*
X044500Y036000D01*
X045000Y036000D01*
X045000Y035793D01*
X044707Y035500D01*
X044500Y035500D01*
X044500Y036000D01*
X044500Y036000D01*
X044500Y036000D01*
X044000Y036000D01*
X044000Y036207D01*
X044293Y036500D01*
X044500Y036500D01*
X044500Y036000D01*
X044500Y035500D01*
X044293Y035500D01*
X044000Y035793D01*
X044000Y036000D01*
X044500Y036000D01*
X044500Y035870D02*
X044500Y035870D01*
X044500Y036148D02*
X044500Y036148D01*
X044500Y036427D02*
X044500Y036427D01*
X044781Y036427D02*
X045130Y036427D01*
X045130Y036705D02*
X025770Y036705D01*
X025770Y036427D02*
X042219Y036427D01*
X042293Y036500D02*
X042000Y036207D01*
X042000Y035793D01*
X042293Y035500D01*
X042707Y035500D01*
X043000Y035793D01*
X043000Y036207D01*
X042707Y036500D01*
X042293Y036500D01*
X042000Y036148D02*
X025770Y036148D01*
X025770Y035870D02*
X042000Y035870D01*
X042202Y035591D02*
X025770Y035591D01*
X025770Y035313D02*
X038789Y035313D01*
X038511Y035034D02*
X025770Y035034D01*
X025770Y034756D02*
X027048Y034756D01*
X027000Y034707D02*
X027000Y034293D01*
X027293Y034000D01*
X027000Y033707D01*
X027000Y033293D01*
X027293Y033000D01*
X027000Y032707D01*
X027000Y032293D01*
X027293Y032000D01*
X027000Y031707D01*
X027000Y031293D01*
X027293Y031000D01*
X027000Y030707D01*
X027000Y030293D01*
X027293Y030000D01*
X027707Y030000D01*
X028000Y030293D01*
X028000Y030707D01*
X027707Y031000D01*
X027293Y031000D01*
X027707Y031000D01*
X028000Y031293D01*
X028000Y031707D01*
X027707Y032000D01*
X027293Y032000D01*
X027707Y032000D01*
X028000Y032293D01*
X028000Y032707D01*
X027707Y033000D01*
X027293Y033000D01*
X027707Y033000D01*
X028000Y033293D01*
X028000Y033707D01*
X027707Y034000D01*
X027293Y034000D01*
X027707Y034000D01*
X028000Y034293D01*
X028000Y034707D01*
X027707Y035000D01*
X027293Y035000D01*
X027000Y034707D01*
X027000Y034477D02*
X025770Y034477D01*
X025770Y034199D02*
X027094Y034199D01*
X027213Y033920D02*
X025770Y033920D01*
X025770Y033642D02*
X027000Y033642D01*
X027000Y033363D02*
X025770Y033363D01*
X025770Y033085D02*
X027208Y033085D01*
X027099Y032806D02*
X025770Y032806D01*
X025770Y032528D02*
X027000Y032528D01*
X027044Y032249D02*
X025770Y032249D01*
X025770Y031971D02*
X027263Y031971D01*
X027000Y031692D02*
X025770Y031692D01*
X025770Y031414D02*
X027000Y031414D01*
X027158Y031135D02*
X025770Y031135D01*
X025770Y030857D02*
X027149Y030857D01*
X027000Y030578D02*
X025770Y030578D01*
X025770Y030300D02*
X027000Y030300D01*
X027272Y030021D02*
X025770Y030021D01*
X025770Y029743D02*
X027035Y029743D01*
X027000Y029707D02*
X027000Y029293D01*
X027293Y029000D01*
X027000Y028707D01*
X027000Y028293D01*
X027293Y028000D01*
X027707Y028000D01*
X028000Y028293D01*
X028000Y028392D01*
X028178Y028570D01*
X030000Y028570D01*
X030000Y028293D01*
X030293Y028000D01*
X030477Y028000D01*
X033607Y024870D01*
X033500Y024764D01*
X033224Y025040D01*
X032776Y025040D01*
X032500Y024764D01*
X032224Y025040D01*
X031776Y025040D01*
X031460Y024724D01*
X031460Y024276D01*
X031736Y024000D01*
X031460Y023724D01*
X031460Y023276D01*
X031776Y022960D01*
X032224Y022960D01*
X032394Y023130D01*
X032606Y023130D01*
X032776Y022960D01*
X033224Y022960D01*
X033394Y023130D01*
X033606Y023130D01*
X033776Y022960D01*
X034224Y022960D01*
X034394Y023130D01*
X034606Y023130D01*
X034776Y022960D01*
X035224Y022960D01*
X035394Y023130D01*
X035606Y023130D01*
X035776Y022960D01*
X036224Y022960D01*
X036394Y023130D01*
X036606Y023130D01*
X036776Y022960D01*
X037224Y022960D01*
X037394Y023130D01*
X037606Y023130D01*
X037776Y022960D01*
X038224Y022960D01*
X038394Y023130D01*
X038606Y023130D01*
X038776Y022960D01*
X039224Y022960D01*
X039394Y023130D01*
X039606Y023130D01*
X039776Y022960D01*
X040224Y022960D01*
X040394Y023130D01*
X040606Y023130D01*
X040776Y022960D01*
X041224Y022960D01*
X041394Y023130D01*
X041606Y023130D01*
X041776Y022960D01*
X042224Y022960D01*
X042394Y023130D01*
X042606Y023130D01*
X042776Y022960D01*
X043224Y022960D01*
X043394Y023130D01*
X043606Y023130D01*
X043776Y022960D01*
X044224Y022960D01*
X044514Y023250D01*
X044765Y023000D01*
X044480Y022715D01*
X044480Y022285D01*
X044765Y022000D01*
X044480Y021715D01*
X044480Y021370D01*
X031000Y021370D01*
X031000Y021707D01*
X030707Y022000D01*
X031000Y022293D01*
X031000Y022707D01*
X030707Y023000D01*
X030293Y023000D01*
X030000Y022707D01*
X030000Y022293D01*
X030293Y022000D01*
X030707Y022000D01*
X030293Y022000D01*
X030000Y021707D01*
X030000Y021293D01*
X030293Y021000D01*
X030000Y020707D01*
X030000Y020370D01*
X029153Y020370D01*
X028000Y021523D01*
X028000Y021707D01*
X027707Y022000D01*
X028000Y022293D01*
X028000Y022707D01*
X027707Y023000D01*
X028000Y023293D01*
X028000Y023707D01*
X027707Y024000D01*
X028000Y024293D01*
X028000Y024707D01*
X027707Y025000D01*
X028000Y025293D01*
X028000Y025707D01*
X027707Y026000D01*
X027293Y026000D01*
X027000Y025707D01*
X027000Y025293D01*
X027293Y025000D01*
X027707Y025000D01*
X027293Y025000D01*
X027000Y024707D01*
X027000Y024293D01*
X027293Y024000D01*
X027707Y024000D01*
X027293Y024000D01*
X027000Y023707D01*
X027000Y023293D01*
X027293Y023000D01*
X027707Y023000D01*
X027293Y023000D01*
X027000Y022707D01*
X027000Y022293D01*
X027293Y022000D01*
X027707Y022000D01*
X027293Y022000D01*
X027000Y021707D01*
X027000Y021293D01*
X027293Y021000D01*
X027000Y020707D01*
X027000Y020293D01*
X027293Y020000D01*
X027000Y019707D01*
X027000Y019370D01*
X026426Y019370D01*
X026290Y019314D01*
X026186Y019210D01*
X026130Y019074D01*
X026130Y017426D01*
X026186Y017290D01*
X026290Y017186D01*
X027000Y016477D01*
X027000Y016293D01*
X027010Y016283D01*
X025790Y015064D01*
X025770Y015043D01*
X025770Y026619D01*
X025667Y026833D01*
X025651Y026845D01*
X025680Y026914D01*
X025680Y027086D01*
X025615Y027244D01*
X025608Y027250D01*
X025615Y027256D01*
X025680Y027414D01*
X025680Y027586D01*
X025615Y027744D01*
X025608Y027750D01*
X025615Y027756D01*
X025680Y027914D01*
X025680Y028086D01*
X025651Y028155D01*
X025667Y028167D01*
X025667Y028167D01*
X025667Y028167D01*
X025770Y028381D01*
X025770Y043619D01*
X025667Y043833D01*
X025651Y043845D01*
X025680Y043914D01*
X025680Y044086D01*
X025615Y044244D01*
X025608Y044250D01*
X025615Y044256D01*
X025680Y044414D01*
X025680Y044586D01*
X025615Y044744D01*
X025608Y044750D01*
X025615Y044756D01*
X025680Y044914D01*
X025680Y045086D01*
X025651Y045155D01*
X025667Y045167D01*
X025667Y045167D01*
X025667Y045167D01*
X025770Y045381D01*
X025770Y045500D01*
X049730Y045500D01*
X049730Y045381D01*
X049833Y045167D01*
X049849Y045155D01*
X049833Y045167D02*
X049833Y045167D01*
X049820Y045060D02*
X025680Y045060D01*
X025625Y044782D02*
X049875Y044782D01*
X049820Y044503D02*
X025680Y044503D01*
X025622Y044225D02*
X049878Y044225D01*
X049820Y043946D02*
X045761Y043946D01*
X045707Y044000D02*
X045500Y044000D01*
X045500Y043500D01*
X045000Y043000D01*
X045125Y042832D02*
X042875Y042832D01*
X043000Y042707D02*
X042707Y043000D01*
X042293Y043000D01*
X042000Y042707D01*
X042125Y042832D02*
X033500Y042832D01*
X033500Y043111D02*
X042182Y043111D01*
X042293Y043000D02*
X042000Y043293D01*
X042000Y043707D01*
X042293Y044000D01*
X042707Y044000D01*
X043000Y043707D01*
X043000Y043293D01*
X042707Y043000D01*
X042293Y043000D01*
X042000Y043389D02*
X033318Y043389D01*
X033000Y043389D02*
X033000Y043389D01*
X033000Y043111D02*
X033000Y043111D01*
X033000Y042832D02*
X033000Y042832D01*
X032682Y043389D02*
X031000Y043389D01*
X031000Y043668D02*
X042000Y043668D01*
X042239Y043946D02*
X030761Y043946D01*
X030500Y043946D02*
X030500Y043946D01*
X030239Y043946D02*
X027761Y043946D01*
X027707Y044000D02*
X027293Y044000D01*
X027000Y043707D01*
X027000Y043293D01*
X027293Y043000D01*
X027707Y043000D01*
X028000Y043293D01*
X028000Y043707D01*
X027707Y044000D01*
X028000Y043668D02*
X030000Y043668D01*
X030000Y043389D02*
X028000Y043389D01*
X027818Y043111D02*
X030182Y043111D01*
X030500Y043668D02*
X030500Y043668D01*
X032732Y041440D02*
X025770Y041440D01*
X025770Y041718D02*
X042011Y041718D01*
X042000Y041440D02*
X033268Y041440D01*
X033277Y041430D02*
X033207Y041500D01*
X032793Y041500D01*
X032500Y041207D01*
X032500Y041108D01*
X031822Y040430D01*
X031000Y040430D01*
X031000Y040707D01*
X030707Y041000D01*
X030293Y041000D01*
X030000Y040707D01*
X030000Y040430D01*
X028000Y040430D01*
X028000Y040707D01*
X027707Y041000D01*
X027293Y041000D01*
X027000Y040707D01*
X027000Y040293D01*
X027070Y040223D01*
X027070Y037777D01*
X027000Y037707D01*
X027000Y037293D01*
X027293Y037000D01*
X027707Y037000D01*
X028000Y037293D01*
X028000Y037707D01*
X027930Y037777D01*
X027930Y039570D01*
X032086Y039570D01*
X032244Y039635D01*
X032365Y039756D01*
X033108Y040500D01*
X033207Y040500D01*
X033277Y040570D01*
X038822Y040570D01*
X042000Y037392D01*
X042000Y037293D01*
X042293Y037000D01*
X042707Y037000D01*
X043000Y037293D01*
X043000Y037707D01*
X042707Y038000D01*
X043000Y038293D01*
X043000Y038707D01*
X042707Y039000D01*
X043000Y039293D01*
X043000Y039500D01*
X043000Y039707D01*
X042707Y040000D01*
X042500Y040000D01*
X042500Y039500D01*
X043000Y039500D01*
X042500Y039500D01*
X042500Y039500D01*
X042500Y039500D01*
X042500Y039000D01*
X042707Y039000D01*
X042293Y039000D01*
X042500Y039000D01*
X042500Y039500D01*
X042500Y039500D01*
X042500Y039500D01*
X042500Y040000D01*
X042293Y040000D01*
X042707Y040000D01*
X043000Y040293D01*
X043000Y040707D01*
X042707Y041000D01*
X042293Y041000D01*
X042707Y041000D01*
X043000Y041293D01*
X043000Y041707D01*
X042707Y042000D01*
X042293Y042000D01*
X042707Y042000D01*
X043000Y042293D01*
X043000Y042707D01*
X043000Y042554D02*
X045000Y042554D01*
X045000Y042707D02*
X045000Y042293D01*
X045293Y042000D01*
X045707Y042000D01*
X046000Y042293D01*
X046000Y042707D01*
X045707Y043000D01*
X045293Y043000D01*
X045000Y042707D01*
X045293Y043000D02*
X045500Y043000D01*
X045707Y043000D01*
X046000Y043293D01*
X046000Y043500D01*
X046000Y043707D01*
X045707Y044000D01*
X045500Y044000D02*
X045500Y043500D01*
X046000Y043500D01*
X045500Y043500D01*
X045500Y043500D01*
X045500Y043500D01*
X045500Y043000D01*
X045500Y043500D01*
X045500Y043500D01*
X045500Y043500D01*
X045000Y043500D01*
X045000Y043707D01*
X045293Y044000D01*
X045500Y044000D01*
X045500Y043946D02*
X045500Y043946D01*
X045239Y043946D02*
X042761Y043946D01*
X043000Y043668D02*
X045000Y043668D01*
X045000Y043500D02*
X045000Y043293D01*
X045293Y043000D01*
X045182Y043111D02*
X042818Y043111D01*
X043000Y043389D02*
X045000Y043389D01*
X045000Y043500D02*
X045500Y043500D01*
X045500Y043389D02*
X045500Y043389D01*
X045500Y043111D02*
X045500Y043111D01*
X045818Y043111D02*
X048510Y043111D01*
X048510Y042832D02*
X045875Y042832D01*
X046000Y042554D02*
X048510Y042554D01*
X048510Y042275D02*
X045982Y042275D01*
X045711Y041997D02*
X048539Y041997D01*
X048510Y041718D02*
X045989Y041718D01*
X046000Y041440D02*
X048539Y041440D01*
X049730Y041161D02*
X045868Y041161D01*
X045825Y040883D02*
X049730Y040883D01*
X049730Y040604D02*
X046000Y040604D01*
X046000Y040326D02*
X049730Y040326D01*
X049730Y040047D02*
X045754Y040047D01*
X045939Y039769D02*
X049730Y039769D01*
X049730Y039490D02*
X046000Y039490D01*
X045919Y039212D02*
X049730Y039212D01*
X049730Y038933D02*
X045774Y038933D01*
X045500Y038933D02*
X045500Y038933D01*
X045226Y038933D02*
X042774Y038933D01*
X042919Y039212D02*
X045081Y039212D01*
X045000Y039490D02*
X043000Y039490D01*
X042939Y039769D02*
X045061Y039769D01*
X045246Y040047D02*
X042754Y040047D01*
X043000Y040326D02*
X045000Y040326D01*
X045000Y040604D02*
X043000Y040604D01*
X042825Y040883D02*
X045175Y040883D01*
X045132Y041161D02*
X042868Y041161D01*
X043000Y041440D02*
X045000Y041440D01*
X045011Y041718D02*
X042989Y041718D01*
X042711Y041997D02*
X045289Y041997D01*
X045018Y042275D02*
X042982Y042275D01*
X042289Y041997D02*
X025770Y041997D01*
X025770Y042275D02*
X042018Y042275D01*
X042132Y041161D02*
X039447Y041161D01*
X039365Y041244D02*
X039244Y041365D01*
X039086Y041430D01*
X033277Y041430D01*
X033000Y041000D02*
X039000Y041000D01*
X042500Y037500D01*
X043000Y037541D02*
X045000Y037541D01*
X045031Y037262D02*
X042969Y037262D01*
X042888Y037819D02*
X045112Y037819D01*
X045195Y038098D02*
X042805Y038098D01*
X042707Y038000D02*
X042608Y038000D01*
X042608Y038000D01*
X042707Y038000D01*
X043000Y038376D02*
X045000Y038376D01*
X045000Y038500D02*
X045500Y038500D01*
X045500Y038376D02*
X045500Y038376D01*
X045500Y038098D02*
X045500Y038098D01*
X045805Y038098D02*
X049730Y038098D01*
X049730Y038376D02*
X046000Y038376D01*
X046000Y038655D02*
X049730Y038655D01*
X049730Y037819D02*
X045888Y037819D01*
X046000Y037541D02*
X049730Y037541D01*
X049730Y037262D02*
X045969Y037262D01*
X045870Y036984D02*
X049730Y036984D01*
X049730Y036705D02*
X045870Y036705D01*
X045870Y036427D02*
X049730Y036427D01*
X049730Y036148D02*
X045870Y036148D01*
X045870Y035870D02*
X049730Y035870D01*
X049730Y035591D02*
X045870Y035591D01*
X045870Y035313D02*
X049730Y035313D01*
X049730Y035034D02*
X045870Y035034D01*
X045952Y034756D02*
X049730Y034756D01*
X049730Y034477D02*
X046000Y034477D01*
X046000Y034500D02*
X045500Y034500D01*
X046000Y034500D01*
X046075Y034199D02*
X049730Y034199D01*
X049730Y033920D02*
X046353Y033920D01*
X046632Y033642D02*
X049730Y033642D01*
X049730Y033363D02*
X046854Y033363D01*
X046870Y033085D02*
X049730Y033085D01*
X049730Y032806D02*
X046870Y032806D01*
X046870Y032528D02*
X049730Y032528D01*
X049730Y032249D02*
X046870Y032249D01*
X046870Y031971D02*
X049730Y031971D01*
X049730Y031692D02*
X046870Y031692D01*
X046870Y031414D02*
X049730Y031414D01*
X049730Y031135D02*
X046870Y031135D01*
X046870Y030857D02*
X049730Y030857D01*
X049730Y030578D02*
X046870Y030578D01*
X046870Y030300D02*
X049730Y030300D01*
X049730Y030021D02*
X046870Y030021D01*
X046870Y029743D02*
X049730Y029743D01*
X049730Y029464D02*
X046870Y029464D01*
X046870Y029186D02*
X049730Y029186D01*
X049730Y028907D02*
X046870Y028907D01*
X046870Y028629D02*
X049730Y028629D01*
X049745Y028350D02*
X046870Y028350D01*
X046870Y028072D02*
X049820Y028072D01*
X049833Y028167D02*
X049833Y028167D01*
X049870Y027793D02*
X046870Y027793D01*
X046870Y027515D02*
X049820Y027515D01*
X049882Y027236D02*
X046870Y027236D01*
X046870Y026958D02*
X049820Y026958D01*
X049759Y026679D02*
X046870Y026679D01*
X046870Y026401D02*
X049730Y026401D01*
X049730Y026122D02*
X046870Y026122D01*
X046870Y025844D02*
X049730Y025844D01*
X049730Y025565D02*
X046870Y025565D01*
X046870Y025287D02*
X049730Y025287D01*
X049730Y025008D02*
X046870Y025008D01*
X046870Y024730D02*
X049730Y024730D01*
X049730Y024451D02*
X046870Y024451D01*
X046870Y024173D02*
X049730Y024173D01*
X049730Y023894D02*
X046857Y023894D01*
X046520Y023616D02*
X049730Y023616D01*
X049730Y023337D02*
X046520Y023337D01*
X046294Y023059D02*
X049730Y023059D01*
X049730Y022780D02*
X046455Y022780D01*
X046520Y022502D02*
X049730Y022502D01*
X049730Y022223D02*
X046458Y022223D01*
X046291Y021945D02*
X049730Y021945D01*
X049730Y021666D02*
X046520Y021666D01*
X046520Y021388D02*
X049730Y021388D01*
X049730Y021109D02*
X046344Y021109D01*
X046405Y020831D02*
X049730Y020831D01*
X049730Y020552D02*
X046520Y020552D01*
X046509Y020274D02*
X049730Y020274D01*
X049730Y019995D02*
X046240Y019995D01*
X046519Y019717D02*
X049730Y019717D01*
X049730Y019438D02*
X046520Y019438D01*
X046520Y019500D02*
X046000Y019500D01*
X046000Y019500D01*
X046000Y018980D01*
X046215Y018980D01*
X046520Y019285D01*
X046520Y019500D01*
X046395Y019160D02*
X049730Y019160D01*
X049730Y018881D02*
X040970Y018881D01*
X040980Y018905D02*
X040980Y019095D01*
X040907Y019272D01*
X040772Y019407D01*
X040595Y019480D01*
X040405Y019480D01*
X040228Y019407D01*
X040191Y019370D01*
X036059Y019370D01*
X036022Y019407D01*
X035845Y019480D01*
X035655Y019480D01*
X035478Y019407D01*
X035343Y019272D01*
X035270Y019095D01*
X035270Y018905D01*
X035284Y018870D01*
X033809Y018870D01*
X033772Y018907D01*
X033595Y018980D01*
X033405Y018980D01*
X033228Y018907D01*
X033093Y018772D01*
X033020Y018595D01*
X033020Y018430D01*
X031428Y018430D01*
X031115Y018744D01*
X030994Y018865D01*
X030836Y018930D01*
X030453Y018930D01*
X030523Y019000D01*
X030707Y019000D01*
X031000Y019293D01*
X031000Y019630D01*
X044480Y019630D01*
X044480Y019500D01*
X045000Y019500D01*
X046000Y019500D01*
X046000Y019500D01*
X046000Y019500D01*
X046000Y018980D01*
X045785Y018980D01*
X045500Y019265D01*
X045215Y018980D01*
X045000Y018980D01*
X045000Y019500D01*
X045000Y019500D01*
X045000Y019500D01*
X045000Y019500D01*
X045520Y019500D01*
X046000Y019500D01*
X046000Y019438D02*
X046000Y019438D01*
X046000Y019160D02*
X046000Y019160D01*
X045605Y019160D02*
X045395Y019160D01*
X045000Y019160D02*
X045000Y019160D01*
X045000Y018980D02*
X045000Y019500D01*
X044480Y019500D01*
X044480Y019285D01*
X044785Y018980D01*
X045000Y018980D01*
X044605Y019160D02*
X040953Y019160D01*
X040980Y018905D02*
X040907Y018728D01*
X040772Y018593D01*
X040595Y018520D01*
X040480Y018520D01*
X040480Y018405D01*
X040407Y018228D01*
X040272Y018093D01*
X040095Y018020D01*
X039905Y018020D01*
X039791Y018067D01*
X042076Y015783D01*
X042293Y016000D01*
X042500Y016000D01*
X042500Y015500D01*
X042500Y015500D01*
X043000Y015500D01*
X042500Y015500D01*
X042500Y015500D01*
X042500Y015539D02*
X042500Y015539D01*
X042500Y015818D02*
X042500Y015818D01*
X042890Y015818D02*
X049730Y015818D01*
X049730Y016096D02*
X047860Y016096D01*
X047724Y015960D02*
X048040Y016276D01*
X048040Y016500D01*
X048040Y016724D01*
X047724Y017040D01*
X047500Y017040D01*
X047500Y016500D01*
X045000Y016500D01*
X045000Y013500D01*
X048250Y013500D01*
X048250Y006500D01*
X045750Y006500D01*
X042000Y006500D01*
X042000Y003750D01*
X042125Y003625D01*
X042000Y006500D02*
X042000Y007000D01*
X039500Y007000D01*
X038250Y007000D01*
X037000Y007000D01*
X034250Y007000D01*
X034500Y006750D01*
X034750Y006750D01*
X034500Y006750D02*
X034500Y003750D01*
X034625Y003625D01*
X032250Y003750D02*
X032125Y003625D01*
X032250Y003750D02*
X032250Y007000D01*
X034250Y007000D01*
X031477Y008000D02*
X026652Y008000D01*
X026604Y008020D01*
X025770Y008020D01*
X025770Y009207D01*
X025790Y009186D01*
X025926Y009130D01*
X027000Y009130D01*
X027000Y008793D01*
X027293Y008500D01*
X027707Y008500D01*
X028000Y008793D01*
X028000Y009130D01*
X029000Y009130D01*
X029000Y009000D01*
X029500Y009000D01*
X029500Y003750D01*
X029625Y003625D01*
X031477Y008000D02*
X031457Y008020D01*
X031405Y008020D01*
X031228Y008093D01*
X031093Y008228D01*
X031020Y008405D01*
X031020Y008595D01*
X031034Y008630D01*
X030426Y008630D01*
X030290Y008686D01*
X030186Y008790D01*
X030000Y008977D01*
X030000Y008793D01*
X029707Y008500D01*
X029500Y008500D01*
X029500Y009000D01*
X029500Y009000D01*
X029500Y009000D01*
X029500Y008500D01*
X029293Y008500D01*
X029000Y008793D01*
X029000Y009000D01*
X029500Y009000D01*
X029500Y008855D02*
X029500Y008855D01*
X029500Y008577D02*
X029500Y008577D01*
X029784Y008577D02*
X031020Y008577D01*
X031064Y008298D02*
X025770Y008298D01*
X025770Y008577D02*
X027216Y008577D01*
X027000Y008855D02*
X025770Y008855D01*
X025770Y009134D02*
X025918Y009134D01*
X024730Y009134D02*
X022475Y009134D01*
X022568Y009040D02*
X021865Y009744D01*
X021744Y009865D01*
X021586Y009930D01*
X015277Y009930D01*
X015207Y010000D01*
X014793Y010000D01*
X014500Y009707D01*
X014500Y009293D01*
X014793Y009000D01*
X015207Y009000D01*
X015277Y009070D01*
X021322Y009070D01*
X021960Y008432D01*
X021960Y008276D01*
X022236Y008000D01*
X001652Y008000D01*
X001604Y008020D01*
X000770Y008020D01*
X000770Y045500D01*
X024730Y045500D01*
X024730Y045381D01*
X024833Y045167D01*
X024849Y045155D01*
X024820Y045086D01*
X024820Y044914D01*
X024885Y044756D01*
X024892Y044750D01*
X024885Y044744D01*
X024820Y044586D01*
X024820Y044414D01*
X024885Y044256D01*
X024892Y044250D01*
X024885Y044244D01*
X024820Y044086D01*
X024820Y043914D01*
X024849Y043845D01*
X024833Y043833D01*
X024833Y043833D01*
X024833Y043833D01*
X024730Y043619D01*
X024730Y043355D01*
X024669Y043415D01*
X024539Y043546D01*
X024401Y043603D01*
X024252Y043603D01*
X024150Y043560D01*
X024048Y043603D01*
X023898Y043603D01*
X023761Y043546D01*
X023672Y043457D01*
X023567Y043352D01*
X023510Y043214D01*
X023510Y042888D01*
X023558Y042772D01*
X023567Y042750D01*
X023632Y042684D01*
X023567Y042619D01*
X023533Y042536D01*
X023510Y042481D01*
X023510Y042332D01*
X023567Y042194D01*
X023632Y042128D01*
X023567Y042063D01*
X023510Y041925D01*
X023510Y041510D01*
X023567Y041373D01*
X023672Y041267D01*
X023810Y041210D01*
X024490Y041210D01*
X024627Y041267D01*
X024730Y041370D01*
X024730Y028381D01*
X024833Y028167D01*
X024849Y028155D01*
X024820Y028086D01*
X024820Y027914D01*
X024885Y027756D01*
X024892Y027750D01*
X024885Y027744D01*
X024820Y027586D01*
X024820Y027414D01*
X024885Y027256D01*
X024892Y027250D01*
X024885Y027244D01*
X024820Y027086D01*
X024820Y026914D01*
X024849Y026845D01*
X024833Y026833D01*
X024833Y026833D01*
X024833Y026833D01*
X024730Y026619D01*
X024730Y012381D01*
X024833Y012167D01*
X024849Y012155D01*
X024820Y012086D01*
X024820Y011914D01*
X024885Y011756D01*
X024892Y011750D01*
X024885Y011744D01*
X024820Y011586D01*
X024820Y011414D01*
X024885Y011256D01*
X024892Y011250D01*
X024885Y011244D01*
X024820Y011086D01*
X024820Y010914D01*
X024849Y010845D01*
X024833Y010833D01*
X024833Y010833D01*
X024833Y010833D01*
X024730Y010619D01*
X024730Y008000D01*
X022764Y008000D01*
X023040Y008276D01*
X023040Y008724D01*
X022724Y009040D01*
X022568Y009040D01*
X022909Y008855D02*
X024730Y008855D01*
X024730Y008577D02*
X023040Y008577D01*
X023040Y008298D02*
X024730Y008298D01*
X024730Y008020D02*
X022783Y008020D01*
X022500Y008500D02*
X021500Y009500D01*
X015000Y009500D01*
X014659Y009134D02*
X013341Y009134D01*
X013207Y009000D02*
X013500Y009293D01*
X013500Y009500D01*
X013500Y009707D01*
X013207Y010000D01*
X013023Y010000D01*
X014020Y010997D01*
X014020Y010905D01*
X014093Y010728D01*
X014228Y010593D01*
X014405Y010520D01*
X014595Y010520D01*
X014772Y010593D01*
X014809Y010630D01*
X023074Y010630D01*
X023210Y010686D01*
X023314Y010790D01*
X023370Y010926D01*
X023370Y022574D01*
X023314Y022710D01*
X023210Y022814D01*
X021710Y024314D01*
X021574Y024370D01*
X021520Y024370D01*
X021520Y024715D01*
X021235Y025000D01*
X021520Y025285D01*
X021520Y025500D01*
X021520Y025715D01*
X021215Y026020D01*
X021000Y026020D01*
X021000Y025500D01*
X020000Y025500D01*
X018000Y027500D01*
X015000Y027500D01*
X014250Y026750D01*
X011750Y026750D01*
X011000Y027500D01*
X011000Y026980D01*
X011215Y026980D01*
X011500Y027265D01*
X011785Y026980D01*
X012215Y026980D01*
X012500Y027265D01*
X012785Y026980D01*
X013215Y026980D01*
X013500Y027265D01*
X013785Y026980D01*
X014215Y026980D01*
X014500Y027265D01*
X014785Y026980D01*
X015000Y026980D01*
X015215Y026980D01*
X015520Y027285D01*
X015520Y027500D01*
X015520Y027715D01*
X015235Y028000D01*
X015520Y028285D01*
X015520Y028715D01*
X015215Y029020D01*
X014785Y029020D01*
X014500Y028735D01*
X014215Y029020D01*
X013785Y029020D01*
X013500Y028735D01*
X013215Y029020D01*
X012785Y029020D01*
X012500Y028735D01*
X012215Y029020D01*
X011785Y029020D01*
X011500Y028735D01*
X011215Y029020D01*
X010785Y029020D01*
X010480Y028715D01*
X010480Y028370D01*
X005926Y028370D01*
X005790Y028314D01*
X005686Y028210D01*
X005630Y028074D01*
X005630Y009926D01*
X005686Y009790D01*
X005790Y009686D01*
X006040Y009436D01*
X006176Y009380D01*
X012324Y009380D01*
X012460Y009436D01*
X012500Y009477D01*
X012500Y009293D01*
X012793Y009000D01*
X013000Y009000D01*
X013207Y009000D01*
X013000Y009000D02*
X013000Y009500D01*
X013250Y009500D01*
X013250Y008000D01*
X010500Y008000D01*
X009500Y007000D01*
X007000Y007000D01*
X006750Y007000D01*
X007000Y006750D01*
X007000Y003750D01*
X007125Y003625D01*
X004750Y003750D02*
X004625Y003625D01*
X004750Y003750D02*
X004750Y007000D01*
X006750Y007000D01*
X009500Y007000D02*
X009500Y003750D01*
X009625Y003625D01*
X013250Y003750D02*
X013375Y003625D01*
X013250Y003750D02*
X013250Y006750D01*
X014500Y006750D01*
X013250Y006750D02*
X013250Y007750D01*
X017000Y007750D01*
X017000Y007000D01*
X020750Y007000D01*
X023250Y007000D01*
X023250Y003750D01*
X023375Y003625D01*
X020875Y003625D02*
X020750Y003750D01*
X020750Y007000D01*
X021960Y008298D02*
X000770Y008298D01*
X000770Y008577D02*
X021815Y008577D01*
X021537Y008855D02*
X000770Y008855D01*
X000770Y009134D02*
X012659Y009134D01*
X012500Y009412D02*
X012401Y009412D01*
X013000Y009412D02*
X013000Y009412D01*
X013000Y009500D02*
X013000Y009500D01*
X013500Y009500D01*
X013000Y009500D01*
X013000Y009500D01*
X013000Y009000D01*
X013000Y009134D02*
X013000Y009134D01*
X013500Y009412D02*
X014500Y009412D01*
X014500Y009691D02*
X013500Y009691D01*
X013238Y009969D02*
X014762Y009969D01*
X015238Y009969D02*
X024730Y009969D01*
X024730Y009691D02*
X021918Y009691D01*
X022196Y009412D02*
X024730Y009412D01*
X024730Y010248D02*
X013271Y010248D01*
X013549Y010526D02*
X014390Y010526D01*
X014610Y010526D02*
X024730Y010526D01*
X024819Y010805D02*
X023320Y010805D01*
X023370Y011083D02*
X024820Y011083D01*
X024842Y011362D02*
X023370Y011362D01*
X023370Y011640D02*
X024843Y011640D01*
X024820Y011919D02*
X023370Y011919D01*
X023370Y012197D02*
X024819Y012197D01*
X024833Y012167D02*
X024833Y012167D01*
X024730Y012476D02*
X023370Y012476D01*
X023370Y012754D02*
X024730Y012754D01*
X024730Y013033D02*
X023370Y013033D01*
X023370Y013311D02*
X024730Y013311D01*
X024730Y013590D02*
X023370Y013590D01*
X023370Y013868D02*
X024730Y013868D01*
X024730Y014147D02*
X023370Y014147D01*
X023370Y014425D02*
X024730Y014425D01*
X024730Y014704D02*
X023370Y014704D01*
X023370Y014982D02*
X024730Y014982D01*
X024730Y015261D02*
X023370Y015261D01*
X023370Y015539D02*
X024730Y015539D01*
X024730Y015818D02*
X023370Y015818D01*
X023370Y016096D02*
X024730Y016096D01*
X024730Y016375D02*
X023370Y016375D01*
X023370Y016653D02*
X024730Y016653D01*
X024730Y016932D02*
X023370Y016932D01*
X023370Y017210D02*
X024730Y017210D01*
X024730Y017489D02*
X023370Y017489D01*
X023370Y017767D02*
X024730Y017767D01*
X024730Y018046D02*
X023370Y018046D01*
X023370Y018324D02*
X024730Y018324D01*
X024730Y018603D02*
X023370Y018603D01*
X023370Y018881D02*
X024730Y018881D01*
X024730Y019160D02*
X023370Y019160D01*
X023370Y019438D02*
X024730Y019438D01*
X024730Y019717D02*
X023370Y019717D01*
X023370Y019995D02*
X024730Y019995D01*
X024730Y020274D02*
X023370Y020274D01*
X023370Y020552D02*
X024730Y020552D01*
X024730Y020831D02*
X023370Y020831D01*
X023370Y021109D02*
X024730Y021109D01*
X024730Y021388D02*
X023370Y021388D01*
X023370Y021666D02*
X024730Y021666D01*
X024730Y021945D02*
X023370Y021945D01*
X023370Y022223D02*
X024730Y022223D01*
X024730Y022502D02*
X023370Y022502D01*
X023243Y022780D02*
X024730Y022780D01*
X024730Y023059D02*
X022965Y023059D01*
X022686Y023337D02*
X024730Y023337D01*
X024730Y023616D02*
X022408Y023616D01*
X022129Y023894D02*
X024730Y023894D01*
X024730Y024173D02*
X021851Y024173D01*
X021520Y024451D02*
X024730Y024451D01*
X024730Y024730D02*
X021506Y024730D01*
X021243Y025008D02*
X024730Y025008D01*
X024730Y025287D02*
X021520Y025287D01*
X021520Y025500D02*
X021000Y025500D01*
X021000Y025500D01*
X021520Y025500D01*
X021520Y025565D02*
X024730Y025565D01*
X024730Y025844D02*
X021392Y025844D01*
X021000Y025844D02*
X021000Y025844D01*
X021000Y026020D02*
X020785Y026020D01*
X020500Y025735D01*
X020215Y026020D01*
X020000Y026020D01*
X020000Y025500D01*
X020000Y025500D01*
X021000Y025500D01*
X021000Y025500D01*
X021000Y026020D01*
X020608Y025844D02*
X020392Y025844D01*
X020480Y025500D02*
X021000Y025500D01*
X021000Y025500D01*
X021000Y025565D02*
X021000Y025565D01*
X020480Y025500D02*
X020000Y025500D01*
X020000Y025500D01*
X020000Y025500D01*
X019480Y025500D01*
X019480Y025715D01*
X019785Y026020D01*
X020000Y026020D01*
X020000Y025500D01*
X019480Y025500D01*
X019480Y025285D01*
X019765Y025000D01*
X019635Y024870D01*
X013809Y024870D01*
X013772Y024907D01*
X013595Y024980D01*
X013405Y024980D01*
X013228Y024907D01*
X013093Y024772D01*
X013020Y024595D01*
X013020Y024405D01*
X013034Y024370D01*
X006926Y024370D01*
X006790Y024314D01*
X006686Y024210D01*
X006630Y024074D01*
X006630Y014676D01*
X006686Y014540D01*
X006790Y014436D01*
X007540Y013686D01*
X007676Y013630D01*
X007784Y013630D01*
X007770Y013595D01*
X007770Y013405D01*
X007843Y013228D01*
X007978Y013093D01*
X008155Y013020D01*
X008345Y013020D01*
X008522Y013093D01*
X008559Y013130D01*
X008857Y013130D01*
X006457Y010730D01*
X006405Y010730D01*
X006370Y010716D01*
X006370Y027630D01*
X010480Y027630D01*
X010480Y027500D01*
X011000Y027500D01*
X011000Y027500D01*
X011000Y027500D01*
X011000Y026980D01*
X010785Y026980D01*
X010480Y027285D01*
X010480Y027500D01*
X011000Y027500D01*
X011000Y027236D02*
X011000Y027236D01*
X011471Y027236D02*
X011529Y027236D01*
X012471Y027236D02*
X012529Y027236D01*
X013471Y027236D02*
X013529Y027236D01*
X014471Y027236D02*
X014529Y027236D01*
X015000Y027236D02*
X015000Y027236D01*
X015000Y026980D02*
X015000Y027500D01*
X015520Y027500D01*
X015000Y027500D01*
X015000Y027500D01*
X015000Y027500D01*
X015000Y026980D01*
X015471Y027236D02*
X024882Y027236D01*
X024820Y026958D02*
X006370Y026958D01*
X006370Y027236D02*
X010529Y027236D01*
X010480Y027515D02*
X006370Y027515D01*
X005630Y027515D02*
X000770Y027515D01*
X000770Y027793D02*
X005630Y027793D01*
X005630Y028072D02*
X000770Y028072D01*
X000770Y028350D02*
X005878Y028350D01*
X005630Y027236D02*
X000770Y027236D01*
X000770Y026958D02*
X005630Y026958D01*
X005630Y026679D02*
X000770Y026679D01*
X000770Y026401D02*
X005630Y026401D01*
X005630Y026122D02*
X000770Y026122D01*
X000770Y025844D02*
X005630Y025844D01*
X005630Y025565D02*
X000770Y025565D01*
X000770Y025287D02*
X005630Y025287D01*
X005630Y025008D02*
X000770Y025008D01*
X000770Y024730D02*
X005630Y024730D01*
X005630Y024451D02*
X000770Y024451D01*
X000770Y024173D02*
X005630Y024173D01*
X005630Y023894D02*
X000770Y023894D01*
X000770Y023616D02*
X005630Y023616D01*
X005630Y023337D02*
X000770Y023337D01*
X000770Y023059D02*
X005630Y023059D01*
X005630Y022780D02*
X000770Y022780D01*
X000770Y022502D02*
X005630Y022502D01*
X005630Y022223D02*
X000770Y022223D01*
X000770Y021945D02*
X005630Y021945D01*
X005630Y021666D02*
X000770Y021666D01*
X000770Y021388D02*
X005630Y021388D01*
X005630Y021109D02*
X000770Y021109D01*
X000770Y020831D02*
X005630Y020831D01*
X005630Y020552D02*
X000770Y020552D01*
X000770Y020274D02*
X005630Y020274D01*
X005630Y019995D02*
X000770Y019995D01*
X000770Y019717D02*
X005630Y019717D01*
X005630Y019438D02*
X000770Y019438D01*
X000770Y019160D02*
X005630Y019160D01*
X005630Y018881D02*
X000770Y018881D01*
X000770Y018603D02*
X005630Y018603D01*
X005630Y018324D02*
X000770Y018324D01*
X000770Y018046D02*
X005630Y018046D01*
X005630Y017767D02*
X000770Y017767D01*
X000770Y017489D02*
X005630Y017489D01*
X005630Y017210D02*
X000770Y017210D01*
X000770Y016932D02*
X005630Y016932D01*
X005630Y016653D02*
X000770Y016653D01*
X000770Y016375D02*
X005630Y016375D01*
X005630Y016096D02*
X000770Y016096D01*
X000770Y015818D02*
X005630Y015818D01*
X005630Y015539D02*
X000770Y015539D01*
X000770Y015261D02*
X005630Y015261D01*
X005630Y014982D02*
X000770Y014982D01*
X000770Y014704D02*
X005630Y014704D01*
X005630Y014425D02*
X000770Y014425D01*
X000770Y014147D02*
X005630Y014147D01*
X005630Y013868D02*
X000770Y013868D01*
X000770Y013590D02*
X005630Y013590D01*
X005630Y013311D02*
X000770Y013311D01*
X000770Y013033D02*
X005630Y013033D01*
X005630Y012754D02*
X000770Y012754D01*
X000770Y012476D02*
X005630Y012476D01*
X005630Y012197D02*
X000770Y012197D01*
X000770Y011919D02*
X005630Y011919D01*
X005630Y011640D02*
X000770Y011640D01*
X000770Y011362D02*
X005630Y011362D01*
X005630Y011083D02*
X000770Y011083D01*
X000770Y010805D02*
X005630Y010805D01*
X005630Y010526D02*
X000770Y010526D01*
X000770Y010248D02*
X005630Y010248D01*
X005630Y009969D02*
X000770Y009969D01*
X000770Y009691D02*
X005786Y009691D01*
X006099Y009412D02*
X000770Y009412D01*
X001605Y008020D02*
X022217Y008020D01*
X026605Y008020D02*
X031457Y008020D01*
X030122Y008855D02*
X030000Y008855D01*
X029216Y008577D02*
X027784Y008577D01*
X028000Y008855D02*
X029000Y008855D01*
X027500Y010500D02*
X030500Y010500D01*
X031000Y011370D02*
X031000Y011707D01*
X030707Y012000D01*
X031000Y012293D01*
X031000Y012707D01*
X030707Y013000D01*
X030293Y013000D01*
X030000Y012707D01*
X030000Y012293D01*
X030293Y012000D01*
X030707Y012000D01*
X030293Y012000D01*
X030000Y011707D01*
X030000Y011370D01*
X028000Y011370D01*
X028000Y011707D01*
X027707Y012000D01*
X027837Y012130D01*
X028824Y012130D01*
X028960Y012186D01*
X030033Y013260D01*
X030293Y013000D01*
X030707Y013000D01*
X030837Y013130D01*
X031824Y013130D01*
X031960Y013186D01*
X032019Y013246D01*
X032285Y012980D01*
X032715Y012980D01*
X033000Y013265D01*
X033285Y012980D01*
X033497Y012980D01*
X034607Y011870D01*
X031809Y011870D01*
X031772Y011907D01*
X031595Y011980D01*
X031405Y011980D01*
X031228Y011907D01*
X031093Y011772D01*
X031020Y011595D01*
X031020Y011405D01*
X031034Y011370D01*
X031000Y011370D01*
X031000Y011640D02*
X031038Y011640D01*
X031256Y011919D02*
X030789Y011919D01*
X030904Y012197D02*
X034280Y012197D01*
X034558Y011919D02*
X031744Y011919D01*
X031000Y012476D02*
X034001Y012476D01*
X033723Y012754D02*
X030953Y012754D01*
X030740Y013033D02*
X032232Y013033D01*
X032768Y013033D02*
X033232Y013033D01*
X030260Y013033D02*
X029806Y013033D01*
X030047Y012754D02*
X029527Y012754D01*
X029249Y012476D02*
X030000Y012476D01*
X030096Y012197D02*
X028970Y012197D01*
X028597Y012870D02*
X027837Y012870D01*
X027707Y013000D01*
X027293Y013000D01*
X027000Y012707D01*
X027000Y012293D01*
X027293Y012000D01*
X027707Y012000D01*
X027293Y012000D01*
X027000Y011707D01*
X027000Y011370D01*
X026870Y011370D01*
X026870Y014097D01*
X027033Y014260D01*
X027293Y014000D01*
X027000Y013707D01*
X027000Y013293D01*
X027293Y013000D01*
X027707Y013000D01*
X027837Y013130D01*
X028574Y013130D01*
X028710Y013186D01*
X030000Y014477D01*
X030000Y014293D01*
X030010Y014283D01*
X029936Y014210D01*
X028597Y012870D01*
X028759Y013033D02*
X027740Y013033D01*
X027260Y013033D02*
X026870Y013033D01*
X026870Y013311D02*
X027000Y013311D01*
X027000Y013590D02*
X026870Y013590D01*
X026870Y013868D02*
X027161Y013868D01*
X027293Y014000D02*
X027707Y014000D01*
X027837Y013870D01*
X028347Y013870D01*
X029686Y015210D01*
X029790Y015314D01*
X029926Y015370D01*
X030000Y015370D01*
X030000Y015707D01*
X030293Y016000D01*
X030707Y016000D01*
X031000Y015707D01*
X031000Y015370D01*
X031034Y015370D01*
X031020Y015405D01*
X031020Y015595D01*
X031093Y015772D01*
X031228Y015907D01*
X031405Y015980D01*
X031457Y015980D01*
X031649Y016172D01*
X031593Y016228D01*
X031520Y016405D01*
X031520Y016595D01*
X031534Y016630D01*
X031000Y016630D01*
X031000Y016500D01*
X030500Y016500D01*
X030500Y016500D01*
X031000Y016500D01*
X031000Y016293D01*
X030707Y016000D01*
X030500Y016000D01*
X030500Y016500D01*
X030500Y016500D01*
X030500Y016500D01*
X030000Y016500D01*
X030000Y016630D01*
X029903Y016630D01*
X028064Y014790D01*
X027990Y014717D01*
X028000Y014707D01*
X028000Y014293D01*
X027707Y014000D01*
X027293Y014000D01*
X027146Y014147D02*
X026920Y014147D01*
X027854Y014147D02*
X028623Y014147D01*
X028902Y014425D02*
X028000Y014425D01*
X028000Y014704D02*
X029180Y014704D01*
X029459Y014982D02*
X028255Y014982D01*
X028534Y015261D02*
X029737Y015261D01*
X030000Y015539D02*
X028812Y015539D01*
X029091Y015818D02*
X030110Y015818D01*
X030293Y016000D02*
X030500Y016000D01*
X030500Y016500D01*
X030000Y016500D01*
X030000Y016293D01*
X030293Y016000D01*
X030197Y016096D02*
X029369Y016096D01*
X029648Y016375D02*
X030000Y016375D01*
X030500Y016375D02*
X030500Y016375D01*
X030500Y016096D02*
X030500Y016096D01*
X030803Y016096D02*
X031573Y016096D01*
X031532Y016375D02*
X031000Y016375D01*
X030890Y015818D02*
X031139Y015818D01*
X031020Y015539D02*
X031000Y015539D01*
X030000Y014425D02*
X029948Y014425D01*
X029873Y014147D02*
X029670Y014147D01*
X029595Y013868D02*
X029391Y013868D01*
X029316Y013590D02*
X029113Y013590D01*
X029038Y013311D02*
X028834Y013311D01*
X027047Y012754D02*
X026870Y012754D01*
X026870Y012476D02*
X027000Y012476D01*
X027096Y012197D02*
X026870Y012197D01*
X026870Y011919D02*
X027211Y011919D01*
X027000Y011640D02*
X026870Y011640D01*
X027789Y011919D02*
X030211Y011919D01*
X030000Y011640D02*
X028000Y011640D01*
X025987Y015261D02*
X025770Y015261D01*
X025770Y015539D02*
X026266Y015539D01*
X026544Y015818D02*
X025770Y015818D01*
X025770Y016096D02*
X026823Y016096D01*
X027000Y016375D02*
X025770Y016375D01*
X025770Y016653D02*
X026824Y016653D01*
X026545Y016932D02*
X025770Y016932D01*
X025770Y017210D02*
X026267Y017210D01*
X026130Y017489D02*
X025770Y017489D01*
X025770Y017767D02*
X026130Y017767D01*
X026130Y018046D02*
X025770Y018046D01*
X025770Y018324D02*
X026130Y018324D01*
X026130Y018603D02*
X025770Y018603D01*
X025770Y018881D02*
X026130Y018881D01*
X026166Y019160D02*
X025770Y019160D01*
X025770Y019438D02*
X027000Y019438D01*
X027009Y019717D02*
X025770Y019717D01*
X025770Y019995D02*
X027288Y019995D01*
X027293Y020000D02*
X027707Y020000D01*
X028000Y019707D01*
X028000Y019370D01*
X029847Y019370D01*
X030000Y019523D01*
X030000Y019630D01*
X028926Y019630D01*
X028790Y019686D01*
X028686Y019790D01*
X028000Y020477D01*
X028000Y020293D01*
X027707Y020000D01*
X027293Y020000D01*
X027019Y020274D02*
X025770Y020274D01*
X025770Y020552D02*
X027000Y020552D01*
X027123Y020831D02*
X025770Y020831D01*
X025770Y021109D02*
X027184Y021109D01*
X027293Y021000D02*
X027477Y021000D01*
X027293Y021000D01*
X027477Y021000D02*
X027477Y021000D01*
X027000Y021388D02*
X025770Y021388D01*
X025770Y021666D02*
X027000Y021666D01*
X027237Y021945D02*
X025770Y021945D01*
X025770Y022223D02*
X027070Y022223D01*
X027000Y022502D02*
X025770Y022502D01*
X025770Y022780D02*
X027073Y022780D01*
X027234Y023059D02*
X025770Y023059D01*
X025770Y023337D02*
X027000Y023337D01*
X027000Y023616D02*
X025770Y023616D01*
X025770Y023894D02*
X027187Y023894D01*
X027120Y024173D02*
X025770Y024173D01*
X025770Y024451D02*
X027000Y024451D01*
X027022Y024730D02*
X025770Y024730D01*
X025770Y025008D02*
X027285Y025008D01*
X027006Y025287D02*
X025770Y025287D01*
X025770Y025565D02*
X027000Y025565D01*
X027136Y025844D02*
X025770Y025844D01*
X025770Y026122D02*
X032355Y026122D01*
X032633Y025844D02*
X030864Y025844D01*
X031000Y025707D02*
X030707Y026000D01*
X030500Y026000D01*
X030500Y025500D01*
X031000Y025500D01*
X031000Y025707D01*
X031000Y025565D02*
X032912Y025565D01*
X033190Y025287D02*
X030994Y025287D01*
X031000Y025293D02*
X031000Y025500D01*
X030500Y025500D01*
X030500Y025500D01*
X030500Y025500D01*
X030500Y025000D01*
X030707Y025000D01*
X031000Y025293D01*
X030715Y025008D02*
X031744Y025008D01*
X031466Y024730D02*
X030978Y024730D01*
X031000Y024707D02*
X030707Y025000D01*
X030293Y025000D01*
X030500Y025000D01*
X030500Y025500D01*
X030500Y025500D01*
X030500Y025500D01*
X030000Y025500D01*
X030000Y025707D01*
X030293Y026000D01*
X030500Y026000D01*
X030500Y025500D01*
X030000Y025500D01*
X030000Y025293D01*
X030293Y025000D01*
X030000Y024707D01*
X030000Y024293D01*
X030293Y024000D01*
X030707Y024000D01*
X031000Y024293D01*
X031000Y024707D01*
X031000Y024451D02*
X031460Y024451D01*
X031564Y024173D02*
X030880Y024173D01*
X030707Y024000D02*
X030293Y024000D01*
X030000Y023707D01*
X030000Y023293D01*
X030293Y023000D01*
X030707Y023000D01*
X031000Y023293D01*
X031000Y023707D01*
X030707Y024000D01*
X030813Y023894D02*
X031630Y023894D01*
X031460Y023616D02*
X031000Y023616D01*
X031000Y023337D02*
X031460Y023337D01*
X031678Y023059D02*
X030766Y023059D01*
X030927Y022780D02*
X044545Y022780D01*
X044480Y022502D02*
X031000Y022502D01*
X030930Y022223D02*
X044542Y022223D01*
X044709Y021945D02*
X030763Y021945D01*
X031000Y021666D02*
X044480Y021666D01*
X044480Y021388D02*
X031000Y021388D01*
X030477Y021000D02*
X030293Y021000D01*
X030477Y021000D01*
X030477Y021000D01*
X030184Y021109D02*
X028414Y021109D01*
X028136Y021388D02*
X030000Y021388D01*
X030000Y021666D02*
X028000Y021666D01*
X027763Y021945D02*
X030237Y021945D01*
X030070Y022223D02*
X027930Y022223D01*
X028000Y022502D02*
X030000Y022502D01*
X030073Y022780D02*
X027927Y022780D01*
X027766Y023059D02*
X030234Y023059D01*
X030000Y023337D02*
X028000Y023337D01*
X028000Y023616D02*
X030000Y023616D01*
X030187Y023894D02*
X027813Y023894D01*
X027880Y024173D02*
X030120Y024173D01*
X030000Y024451D02*
X028000Y024451D01*
X027978Y024730D02*
X030022Y024730D01*
X030285Y025008D02*
X027715Y025008D01*
X027994Y025287D02*
X030006Y025287D01*
X030000Y025565D02*
X028000Y025565D01*
X027864Y025844D02*
X030136Y025844D01*
X030500Y025844D02*
X030500Y025844D01*
X030500Y025565D02*
X030500Y025565D01*
X030500Y025287D02*
X030500Y025287D01*
X030500Y025008D02*
X030500Y025008D01*
X032256Y025008D02*
X032744Y025008D01*
X033256Y025008D02*
X033469Y025008D01*
X034153Y025370D02*
X031000Y028523D01*
X031000Y028570D01*
X032072Y028570D01*
X032506Y028135D01*
X032664Y028070D01*
X033223Y028070D01*
X033293Y028000D01*
X033392Y028000D01*
X034635Y026756D01*
X034756Y026635D01*
X034914Y026570D01*
X042223Y026570D01*
X042293Y026500D01*
X042707Y026500D01*
X043000Y026793D01*
X043000Y027207D01*
X042707Y027500D01*
X042293Y027500D01*
X042223Y027430D01*
X035178Y027430D01*
X034000Y028608D01*
X034000Y028630D01*
X036000Y028630D01*
X036000Y028293D01*
X036293Y028000D01*
X036477Y028000D01*
X036686Y027790D01*
X036790Y027686D01*
X036926Y027630D01*
X044691Y027630D01*
X044728Y027593D01*
X044905Y027520D01*
X045095Y027520D01*
X045272Y027593D01*
X045407Y027728D01*
X045480Y027905D01*
X045480Y028000D01*
X045707Y028000D01*
X046000Y028293D01*
X046000Y028707D01*
X045707Y029000D01*
X046000Y029293D01*
X046000Y029630D01*
X046074Y029630D01*
X046130Y029653D01*
X046130Y026020D01*
X046000Y026020D01*
X046000Y025500D01*
X045000Y025500D01*
X045000Y025500D01*
X045000Y026020D01*
X045215Y026020D01*
X045500Y025735D01*
X045785Y026020D01*
X046000Y026020D01*
X046000Y025500D01*
X046000Y025500D01*
X046000Y025500D01*
X045000Y025500D01*
X045000Y025500D01*
X045000Y025500D01*
X044480Y025500D01*
X044480Y025715D01*
X044785Y026020D01*
X045000Y026020D01*
X045000Y025500D01*
X045480Y025500D01*
X046000Y025500D01*
X046000Y025565D02*
X046000Y025565D01*
X046000Y025844D02*
X046000Y025844D01*
X046130Y026122D02*
X033401Y026122D01*
X033123Y026401D02*
X046130Y026401D01*
X046130Y026679D02*
X044886Y026679D01*
X045000Y026793D02*
X045000Y027000D01*
X045000Y027207D01*
X044707Y027500D01*
X044500Y027500D01*
X044500Y027000D01*
X045000Y027000D01*
X044500Y027000D01*
X044500Y027000D01*
X044500Y027000D01*
X044500Y026500D01*
X044707Y026500D01*
X045000Y026793D01*
X045000Y026958D02*
X046130Y026958D01*
X046130Y027236D02*
X044971Y027236D01*
X044500Y027236D02*
X044500Y027236D01*
X044500Y027000D02*
X044500Y027500D01*
X044293Y027500D01*
X044000Y027207D01*
X044000Y027000D01*
X044500Y027000D01*
X044500Y027000D01*
X044500Y027000D01*
X044500Y026500D01*
X044293Y026500D01*
X044000Y026793D01*
X044000Y027000D01*
X044500Y027000D01*
X044500Y026958D02*
X044500Y026958D01*
X044500Y026679D02*
X044500Y026679D01*
X044114Y026679D02*
X042886Y026679D01*
X043000Y026958D02*
X044000Y026958D01*
X044029Y027236D02*
X042971Y027236D01*
X042500Y027000D02*
X035000Y027000D01*
X033500Y028500D01*
X032750Y028500D01*
X032250Y029000D01*
X028000Y029000D01*
X027500Y028500D01*
X027200Y028907D02*
X025770Y028907D01*
X025770Y028629D02*
X027000Y028629D01*
X027000Y028350D02*
X025755Y028350D01*
X025680Y028072D02*
X027221Y028072D01*
X027250Y028000D02*
X027000Y028250D01*
X027000Y035000D01*
X030500Y035000D01*
X036000Y035000D01*
X036500Y034500D01*
X036500Y034500D01*
X037000Y034500D01*
X036500Y034500D01*
X036500Y034500D01*
X036500Y034500D01*
X036000Y034500D01*
X036000Y034707D01*
X036293Y035000D01*
X036500Y035000D01*
X036500Y034500D01*
X036000Y034500D01*
X036000Y034430D01*
X034000Y034430D01*
X034000Y034707D01*
X033707Y035000D01*
X033293Y035000D01*
X033000Y034707D01*
X033000Y034430D01*
X031000Y034430D01*
X031000Y034500D01*
X031000Y034707D01*
X030707Y035000D01*
X030500Y035000D01*
X030500Y034500D01*
X030500Y034500D01*
X030500Y035000D01*
X030293Y035000D01*
X030000Y034707D01*
X030000Y034500D01*
X030500Y034500D01*
X031000Y034500D01*
X030500Y034500D01*
X030500Y034500D01*
X030500Y034500D01*
X030500Y035000D01*
X030500Y034756D02*
X030500Y034756D01*
X030500Y034500D02*
X030000Y034500D01*
X030000Y034430D01*
X029914Y034430D01*
X029756Y034365D01*
X029635Y034244D01*
X029570Y034086D01*
X029570Y029914D01*
X029635Y029756D01*
X029756Y029635D01*
X029962Y029430D01*
X028000Y029430D01*
X028000Y029707D01*
X027707Y030000D01*
X027293Y030000D01*
X027000Y029707D01*
X027000Y029464D02*
X025770Y029464D01*
X025770Y029186D02*
X027107Y029186D01*
X027293Y029000D02*
X027392Y029000D01*
X027392Y029000D01*
X027293Y029000D01*
X028000Y029464D02*
X029928Y029464D01*
X029649Y029743D02*
X027965Y029743D01*
X027728Y030021D02*
X029570Y030021D01*
X029570Y030300D02*
X028000Y030300D01*
X028000Y030578D02*
X029570Y030578D01*
X029570Y030857D02*
X027851Y030857D01*
X027842Y031135D02*
X029570Y031135D01*
X029570Y031414D02*
X028000Y031414D01*
X028000Y031692D02*
X029570Y031692D01*
X029570Y031971D02*
X027737Y031971D01*
X027956Y032249D02*
X029570Y032249D01*
X029570Y032528D02*
X028000Y032528D01*
X027901Y032806D02*
X029570Y032806D01*
X029570Y033085D02*
X027792Y033085D01*
X028000Y033363D02*
X029570Y033363D01*
X029570Y033642D02*
X028000Y033642D01*
X027787Y033920D02*
X029570Y033920D01*
X029617Y034199D02*
X027906Y034199D01*
X028000Y034477D02*
X030000Y034477D01*
X030048Y034756D02*
X027952Y034756D01*
X030000Y034000D02*
X036000Y034000D01*
X036500Y033500D01*
X036787Y033920D02*
X037397Y033920D01*
X037675Y034199D02*
X036906Y034199D01*
X036707Y034000D02*
X036608Y034000D01*
X036608Y034000D01*
X036707Y034000D01*
X037000Y033642D02*
X037118Y033642D01*
X037000Y034477D02*
X037954Y034477D01*
X038232Y034756D02*
X036952Y034756D01*
X036500Y034756D02*
X036500Y034756D01*
X036048Y034756D02*
X033952Y034756D01*
X034000Y034477D02*
X036000Y034477D01*
X033048Y034756D02*
X030952Y034756D01*
X031000Y034477D02*
X033000Y034477D01*
X030000Y034000D02*
X030000Y030000D01*
X030500Y029500D01*
X030000Y028350D02*
X028000Y028350D01*
X027779Y028072D02*
X030221Y028072D01*
X030684Y027793D02*
X025630Y027793D01*
X025680Y027515D02*
X030962Y027515D01*
X031241Y027236D02*
X029971Y027236D01*
X030000Y027207D02*
X029707Y027500D01*
X029500Y027500D01*
X029500Y027000D01*
X028500Y028000D01*
X027250Y028000D01*
X027293Y027500D02*
X027000Y027207D01*
X027000Y026793D01*
X027293Y026500D01*
X027707Y026500D01*
X028000Y026793D01*
X028000Y027207D01*
X027707Y027500D01*
X027293Y027500D01*
X027029Y027236D02*
X025618Y027236D01*
X025680Y026958D02*
X027000Y026958D01*
X027114Y026679D02*
X025741Y026679D01*
X025667Y026833D02*
X025667Y026833D01*
X025770Y026401D02*
X032076Y026401D01*
X031798Y026679D02*
X029886Y026679D01*
X030000Y026793D02*
X030000Y027000D01*
X030000Y027207D01*
X030000Y027000D02*
X029500Y027000D01*
X029500Y027000D01*
X029500Y027000D01*
X030000Y027000D01*
X030000Y026958D02*
X031519Y026958D01*
X032009Y027515D02*
X033877Y027515D01*
X033599Y027793D02*
X031730Y027793D01*
X031452Y028072D02*
X032661Y028072D01*
X032292Y028350D02*
X031173Y028350D01*
X032287Y027236D02*
X034156Y027236D01*
X034434Y026958D02*
X032566Y026958D01*
X032844Y026679D02*
X034713Y026679D01*
X035094Y027515D02*
X046130Y027515D01*
X046130Y027793D02*
X045434Y027793D01*
X045779Y028072D02*
X046130Y028072D01*
X046130Y028350D02*
X046000Y028350D01*
X046000Y028629D02*
X046130Y028629D01*
X046130Y028907D02*
X045800Y028907D01*
X045707Y029000D02*
X045523Y029000D01*
X045523Y029000D01*
X045707Y029000D01*
X045893Y029186D02*
X046130Y029186D01*
X046130Y029464D02*
X046000Y029464D01*
X045000Y030370D02*
X043000Y030370D01*
X043000Y030500D01*
X043000Y030630D01*
X044847Y030630D01*
X045000Y030477D01*
X045000Y030370D01*
X044899Y030578D02*
X043000Y030578D01*
X043000Y030500D02*
X042500Y030500D01*
X042500Y030500D01*
X043000Y030500D01*
X043153Y034370D02*
X043000Y034523D01*
X043000Y034630D01*
X045000Y034630D01*
X045000Y034500D01*
X045500Y034500D01*
X045500Y034500D01*
X045500Y034500D01*
X045000Y034500D01*
X045000Y034370D01*
X043153Y034370D01*
X043046Y034477D02*
X045000Y034477D01*
X045130Y035591D02*
X044798Y035591D01*
X044500Y035591D02*
X044500Y035591D01*
X044202Y035591D02*
X042798Y035591D01*
X043000Y035870D02*
X044000Y035870D01*
X044000Y036148D02*
X043000Y036148D01*
X042781Y036427D02*
X044219Y036427D01*
X045000Y036148D02*
X045130Y036148D01*
X045130Y035870D02*
X045000Y035870D01*
X045130Y036984D02*
X025770Y036984D01*
X025770Y037262D02*
X027031Y037262D01*
X027000Y037541D02*
X025770Y037541D01*
X025770Y037819D02*
X027070Y037819D01*
X027070Y038098D02*
X025770Y038098D01*
X025770Y038376D02*
X027070Y038376D01*
X027070Y038655D02*
X025770Y038655D01*
X025770Y038933D02*
X027070Y038933D01*
X027070Y039212D02*
X025770Y039212D01*
X025770Y039490D02*
X027070Y039490D01*
X027070Y039769D02*
X025770Y039769D01*
X025770Y040047D02*
X027070Y040047D01*
X027000Y040326D02*
X025770Y040326D01*
X025770Y040604D02*
X027000Y040604D01*
X027175Y040883D02*
X025770Y040883D01*
X025770Y041161D02*
X032500Y041161D01*
X032274Y040883D02*
X030825Y040883D01*
X031000Y040604D02*
X031996Y040604D01*
X032000Y040000D02*
X033000Y041000D01*
X032934Y040326D02*
X039066Y040326D01*
X039345Y040047D02*
X032655Y040047D01*
X032377Y039769D02*
X039623Y039769D01*
X039902Y039490D02*
X027930Y039490D01*
X027930Y039212D02*
X040180Y039212D01*
X040459Y038933D02*
X027930Y038933D01*
X027930Y038655D02*
X040737Y038655D01*
X041016Y038376D02*
X027930Y038376D01*
X027930Y038098D02*
X041294Y038098D01*
X041573Y037819D02*
X030888Y037819D01*
X031000Y037707D02*
X030707Y038000D01*
X030293Y038000D01*
X030000Y037707D01*
X030000Y037293D01*
X030293Y037000D01*
X030707Y037000D01*
X031000Y037293D01*
X031000Y037707D01*
X031000Y037541D02*
X041851Y037541D01*
X042031Y037262D02*
X030969Y037262D01*
X030031Y037262D02*
X027969Y037262D01*
X028000Y037541D02*
X030000Y037541D01*
X030112Y037819D02*
X027930Y037819D01*
X027500Y037500D02*
X027500Y040000D01*
X032000Y040000D01*
X030175Y040883D02*
X027825Y040883D01*
X028000Y040604D02*
X030000Y040604D01*
X027500Y040500D02*
X027500Y040000D01*
X024730Y040047D02*
X000770Y040047D01*
X000770Y039769D02*
X024730Y039769D01*
X024730Y039490D02*
X000770Y039490D01*
X000770Y039212D02*
X024730Y039212D01*
X024730Y038933D02*
X000770Y038933D01*
X000770Y038655D02*
X024730Y038655D01*
X024730Y038376D02*
X000770Y038376D01*
X000770Y038098D02*
X024730Y038098D01*
X024730Y037819D02*
X000770Y037819D01*
X000770Y037541D02*
X024730Y037541D01*
X024730Y037262D02*
X000770Y037262D01*
X000770Y036984D02*
X024730Y036984D01*
X024730Y036705D02*
X000770Y036705D01*
X000770Y036427D02*
X024730Y036427D01*
X024730Y036148D02*
X000770Y036148D01*
X000770Y035870D02*
X024730Y035870D01*
X024730Y035591D02*
X000770Y035591D01*
X000770Y035313D02*
X024730Y035313D01*
X024730Y035034D02*
X000770Y035034D01*
X000770Y034756D02*
X024730Y034756D01*
X024730Y034477D02*
X000770Y034477D01*
X000770Y034199D02*
X024730Y034199D01*
X024730Y033920D02*
X000770Y033920D01*
X000770Y033642D02*
X024730Y033642D01*
X024730Y033363D02*
X000770Y033363D01*
X000770Y033085D02*
X024730Y033085D01*
X024730Y032806D02*
X000770Y032806D01*
X000770Y032528D02*
X024730Y032528D01*
X024730Y032249D02*
X000770Y032249D01*
X000770Y031971D02*
X024730Y031971D01*
X024730Y031692D02*
X000770Y031692D01*
X000770Y031414D02*
X024730Y031414D01*
X024730Y031135D02*
X000770Y031135D01*
X000770Y030857D02*
X024730Y030857D01*
X024730Y030578D02*
X000770Y030578D01*
X000770Y030300D02*
X024730Y030300D01*
X024730Y030021D02*
X000770Y030021D01*
X000770Y029743D02*
X024730Y029743D01*
X024730Y029464D02*
X000770Y029464D01*
X000770Y029186D02*
X024730Y029186D01*
X024730Y028907D02*
X015328Y028907D01*
X015520Y028629D02*
X024730Y028629D01*
X024745Y028350D02*
X015520Y028350D01*
X015307Y028072D02*
X024820Y028072D01*
X024833Y028167D02*
X024833Y028167D01*
X024870Y027793D02*
X015442Y027793D01*
X015520Y027515D02*
X024820Y027515D01*
X024759Y026679D02*
X006370Y026679D01*
X006370Y026401D02*
X024730Y026401D01*
X024730Y026122D02*
X006370Y026122D01*
X006370Y025844D02*
X019608Y025844D01*
X019480Y025565D02*
X006370Y025565D01*
X006370Y025287D02*
X019480Y025287D01*
X019757Y025008D02*
X006370Y025008D01*
X006370Y024730D02*
X013076Y024730D01*
X013020Y024451D02*
X006370Y024451D01*
X006370Y024173D02*
X006671Y024173D01*
X006630Y023894D02*
X006370Y023894D01*
X006370Y023616D02*
X006630Y023616D01*
X006630Y023337D02*
X006370Y023337D01*
X006370Y023059D02*
X006630Y023059D01*
X006630Y022780D02*
X006370Y022780D01*
X006370Y022502D02*
X006630Y022502D01*
X006630Y022223D02*
X006370Y022223D01*
X006370Y021945D02*
X006630Y021945D01*
X006630Y021666D02*
X006370Y021666D01*
X006370Y021388D02*
X006630Y021388D01*
X006630Y021109D02*
X006370Y021109D01*
X006370Y020831D02*
X006630Y020831D01*
X006630Y020552D02*
X006370Y020552D01*
X006370Y020274D02*
X006630Y020274D01*
X006630Y019995D02*
X006370Y019995D01*
X006370Y019717D02*
X006630Y019717D01*
X006630Y019438D02*
X006370Y019438D01*
X006370Y019160D02*
X006630Y019160D01*
X006630Y018881D02*
X006370Y018881D01*
X006370Y018603D02*
X006630Y018603D01*
X006630Y018324D02*
X006370Y018324D01*
X006370Y018046D02*
X006630Y018046D01*
X006630Y017767D02*
X006370Y017767D01*
X006370Y017489D02*
X006630Y017489D01*
X006630Y017210D02*
X006370Y017210D01*
X006370Y016932D02*
X006630Y016932D01*
X006630Y016653D02*
X006370Y016653D01*
X006370Y016375D02*
X006630Y016375D01*
X006630Y016096D02*
X006370Y016096D01*
X006370Y015818D02*
X006630Y015818D01*
X006630Y015539D02*
X006370Y015539D01*
X006370Y015261D02*
X006630Y015261D01*
X006630Y014982D02*
X006370Y014982D01*
X006370Y014704D02*
X006630Y014704D01*
X006802Y014425D02*
X006370Y014425D01*
X006370Y014147D02*
X007080Y014147D01*
X007359Y013868D02*
X006370Y013868D01*
X006370Y013590D02*
X007770Y013590D01*
X007809Y013311D02*
X006370Y013311D01*
X006370Y013033D02*
X008124Y013033D01*
X008376Y013033D02*
X008759Y013033D01*
X008481Y012754D02*
X006370Y012754D01*
X006370Y012476D02*
X008202Y012476D01*
X007924Y012197D02*
X006370Y012197D01*
X006370Y011919D02*
X007645Y011919D01*
X007367Y011640D02*
X006370Y011640D01*
X006370Y011362D02*
X007088Y011362D01*
X006810Y011083D02*
X006370Y011083D01*
X006370Y010805D02*
X006531Y010805D01*
X009299Y010120D02*
X009407Y010228D01*
X009480Y010405D01*
X009480Y010457D01*
X010500Y011477D01*
X010500Y011293D01*
X010793Y011000D01*
X011207Y011000D01*
X011500Y011293D01*
X011793Y011000D01*
X012207Y011000D01*
X012500Y011293D01*
X012793Y011000D01*
X012977Y011000D01*
X012097Y010120D01*
X009299Y010120D01*
X009415Y010248D02*
X012224Y010248D01*
X012503Y010526D02*
X009549Y010526D01*
X009828Y010805D02*
X012781Y010805D01*
X012710Y011083D02*
X012290Y011083D01*
X012500Y011293D02*
X012500Y011477D01*
X012500Y011293D01*
X012500Y011362D02*
X012500Y011362D01*
X012500Y011477D02*
X012500Y011477D01*
X011977Y012000D02*
X011793Y012000D01*
X011500Y011707D01*
X011500Y011293D01*
X011500Y011707D01*
X011207Y012000D01*
X011500Y012293D01*
X011793Y012000D01*
X011977Y012000D01*
X011977Y012000D01*
X011711Y011919D02*
X011289Y011919D01*
X011207Y012000D02*
X011023Y012000D01*
X011023Y012000D01*
X011207Y012000D01*
X011404Y012197D02*
X011596Y012197D01*
X011500Y012293D02*
X011500Y012500D01*
X012000Y012500D01*
X013500Y014000D01*
X016500Y014000D01*
X017000Y014500D01*
X017500Y014500D01*
X017500Y014570D01*
X018586Y014570D01*
X018744Y014635D01*
X018865Y014756D01*
X019108Y015000D01*
X019207Y015000D01*
X019500Y015293D01*
X019500Y015630D01*
X019691Y015630D01*
X019728Y015593D01*
X019905Y015520D01*
X020095Y015520D01*
X020272Y015593D01*
X020407Y015728D01*
X020480Y015905D01*
X020480Y016095D01*
X020407Y016272D01*
X020272Y016407D01*
X020095Y016480D01*
X019905Y016480D01*
X019728Y016407D01*
X019691Y016370D01*
X017500Y016370D01*
X017500Y016477D01*
X018500Y017477D01*
X018500Y017293D01*
X018793Y017000D01*
X019000Y017000D01*
X019207Y017000D01*
X019500Y017293D01*
X019500Y017500D01*
X019500Y017707D01*
X019207Y018000D01*
X019023Y018000D01*
X019153Y018130D01*
X019441Y018130D01*
X019478Y018093D01*
X019655Y018020D01*
X019845Y018020D01*
X020022Y018093D01*
X020157Y018228D01*
X020230Y018405D01*
X020230Y018595D01*
X020216Y018630D01*
X021324Y018630D01*
X021460Y018686D01*
X021710Y018936D01*
X021814Y019040D01*
X021870Y019176D01*
X021870Y023107D01*
X022630Y022347D01*
X022630Y017040D01*
X022500Y017040D01*
X022500Y016500D01*
X021500Y017500D01*
X019000Y017500D01*
X019500Y017500D01*
X019000Y017500D01*
X019000Y017500D01*
X019000Y017000D01*
X019000Y017500D01*
X019000Y017500D01*
X019000Y017489D02*
X019000Y017489D01*
X019000Y017210D02*
X019000Y017210D01*
X019417Y017210D02*
X022630Y017210D01*
X022500Y017040D02*
X022276Y017040D01*
X021960Y016724D01*
X021960Y016500D01*
X022500Y016500D01*
X022500Y016500D01*
X022500Y015960D01*
X022630Y015960D01*
X022630Y011370D01*
X016500Y011370D01*
X016500Y011630D01*
X018574Y011630D01*
X018710Y011686D01*
X018814Y011790D01*
X018814Y011790D01*
X022043Y015020D01*
X022095Y015020D01*
X022272Y015093D01*
X022407Y015228D01*
X022480Y015405D01*
X022480Y015595D01*
X022407Y015772D01*
X022272Y015907D01*
X022095Y015980D01*
X021905Y015980D01*
X021728Y015907D01*
X021593Y015772D01*
X021520Y015595D01*
X021520Y015543D01*
X018347Y012370D01*
X018216Y012370D01*
X018230Y012405D01*
X018230Y012595D01*
X018157Y012772D01*
X018022Y012907D01*
X017845Y012980D01*
X017793Y012980D01*
X017490Y013283D01*
X017500Y013293D01*
X017500Y013707D01*
X017207Y014000D01*
X016793Y014000D01*
X016500Y013707D01*
X016207Y014000D01*
X015793Y014000D01*
X015500Y013707D01*
X015500Y013293D01*
X015793Y013000D01*
X015500Y012707D01*
X015207Y013000D01*
X014793Y013000D01*
X014500Y012707D01*
X014207Y013000D01*
X013793Y013000D01*
X013500Y012707D01*
X013207Y013000D01*
X012793Y013000D01*
X012500Y012707D01*
X012207Y013000D01*
X012000Y013000D01*
X012000Y012500D01*
X012000Y012500D01*
X012500Y012500D01*
X012500Y012707D01*
X012500Y012370D01*
X012500Y012370D01*
X012500Y012500D01*
X012000Y012500D01*
X012000Y012500D01*
X012000Y012500D01*
X012000Y013000D01*
X011793Y013000D01*
X011500Y012707D01*
X011500Y012500D01*
X012000Y012500D01*
X012000Y012754D02*
X012000Y012754D01*
X012453Y012754D02*
X012547Y012754D01*
X012500Y012476D02*
X012500Y012476D01*
X013453Y012754D02*
X013547Y012754D01*
X013500Y012707D02*
X013500Y012370D01*
X013500Y012370D01*
X013500Y012707D01*
X013500Y012476D02*
X013500Y012476D01*
X014453Y012754D02*
X014547Y012754D01*
X014500Y012707D02*
X014500Y012370D01*
X014500Y012370D01*
X014500Y012707D01*
X014500Y012476D02*
X014500Y012476D01*
X015453Y012754D02*
X015547Y012754D01*
X015500Y012707D02*
X015500Y012370D01*
X015500Y012370D01*
X015500Y012707D01*
X015500Y012476D02*
X015500Y012476D01*
X015793Y013000D02*
X015977Y013000D01*
X015977Y013000D01*
X015793Y013000D01*
X015760Y013033D02*
X011240Y013033D01*
X011207Y013000D02*
X011500Y013293D01*
X011500Y013707D01*
X011207Y014000D01*
X011277Y014070D01*
X015723Y014070D01*
X015793Y014000D01*
X016207Y014000D01*
X016500Y014293D01*
X016793Y014000D01*
X017000Y014000D01*
X017207Y014000D01*
X017500Y014293D01*
X017500Y014500D01*
X017000Y014500D01*
X017000Y014500D01*
X017000Y014000D01*
X017000Y014500D01*
X017000Y014500D01*
X017000Y014425D02*
X017000Y014425D01*
X017000Y014147D02*
X017000Y014147D01*
X017354Y014147D02*
X020123Y014147D01*
X020402Y014425D02*
X017500Y014425D01*
X017339Y013868D02*
X019845Y013868D01*
X019566Y013590D02*
X017500Y013590D01*
X017500Y013311D02*
X019288Y013311D01*
X019009Y013033D02*
X017741Y013033D01*
X018164Y012754D02*
X018731Y012754D01*
X018452Y012476D02*
X018230Y012476D01*
X018942Y011919D02*
X022630Y011919D01*
X022630Y012197D02*
X019220Y012197D01*
X019499Y012476D02*
X022630Y012476D01*
X022630Y012754D02*
X019777Y012754D01*
X020056Y013033D02*
X022630Y013033D01*
X022630Y013311D02*
X020334Y013311D01*
X020613Y013590D02*
X022630Y013590D01*
X022630Y013868D02*
X020891Y013868D01*
X021170Y014147D02*
X022630Y014147D01*
X022630Y014425D02*
X021448Y014425D01*
X021727Y014704D02*
X022630Y014704D01*
X022630Y014982D02*
X022005Y014982D01*
X022420Y015261D02*
X022630Y015261D01*
X022630Y015539D02*
X022480Y015539D01*
X022361Y015818D02*
X022630Y015818D01*
X022500Y015960D02*
X022500Y016500D01*
X022500Y016500D01*
X022500Y016500D01*
X022500Y017040D01*
X022500Y016932D02*
X022500Y016932D01*
X022500Y016653D02*
X022500Y016653D01*
X022500Y016500D02*
X021960Y016500D01*
X021960Y016276D01*
X022276Y015960D01*
X022500Y015960D01*
X022500Y016096D02*
X022500Y016096D01*
X022500Y016375D02*
X022500Y016375D01*
X022140Y016096D02*
X020480Y016096D01*
X020444Y015818D02*
X021639Y015818D01*
X021516Y015539D02*
X020141Y015539D01*
X019859Y015539D02*
X019500Y015539D01*
X019468Y015261D02*
X021237Y015261D01*
X020959Y014982D02*
X019090Y014982D01*
X018812Y014704D02*
X020680Y014704D01*
X020304Y016375D02*
X021960Y016375D01*
X021960Y016653D02*
X017676Y016653D01*
X017500Y016375D02*
X019696Y016375D01*
X019000Y015500D02*
X018500Y015000D01*
X016500Y015000D01*
X016000Y014500D01*
X012500Y014500D01*
X012500Y018000D01*
X013000Y018500D01*
X013326Y018881D02*
X013674Y018881D01*
X013793Y019000D02*
X013500Y018707D01*
X013500Y018293D01*
X013793Y018000D01*
X014207Y018000D01*
X014500Y018293D01*
X014500Y018707D01*
X014207Y019000D01*
X013793Y019000D01*
X013500Y018707D02*
X013500Y018293D01*
X013207Y018000D01*
X013108Y018000D01*
X013108Y018000D01*
X013207Y018000D01*
X013500Y017707D01*
X013500Y017523D01*
X013500Y017523D01*
X013500Y017707D01*
X013793Y018000D01*
X014207Y018000D01*
X014500Y017707D01*
X014500Y017370D01*
X014500Y017370D01*
X014500Y017707D01*
X014793Y018000D01*
X015207Y018000D01*
X015500Y018293D01*
X015500Y018707D01*
X015207Y019000D01*
X014793Y019000D01*
X014500Y018707D01*
X014500Y018293D01*
X014793Y018000D01*
X015207Y018000D01*
X015500Y017707D01*
X015500Y017370D01*
X015500Y017370D01*
X015500Y017500D01*
X016000Y017500D01*
X016000Y017500D01*
X016000Y018000D01*
X016130Y018000D01*
X016130Y018000D01*
X015793Y018000D01*
X015500Y018293D01*
X015500Y018707D01*
X015793Y019000D01*
X016130Y019000D01*
X016130Y020074D01*
X016153Y020130D01*
X016153Y020130D01*
X015480Y019457D01*
X015480Y019405D01*
X015407Y019228D01*
X015272Y019093D01*
X015095Y019020D01*
X014905Y019020D01*
X014728Y019093D01*
X014593Y019228D01*
X014520Y019405D01*
X014520Y019595D01*
X014593Y019772D01*
X014728Y019907D01*
X014905Y019980D01*
X014957Y019980D01*
X015686Y020710D01*
X015790Y020814D01*
X015926Y020870D01*
X019635Y020870D01*
X019645Y020880D01*
X014466Y020880D01*
X014480Y020845D01*
X014480Y020655D01*
X014407Y020478D01*
X014272Y020343D01*
X014151Y020293D01*
X014115Y020256D01*
X013994Y020135D01*
X013836Y020070D01*
X013277Y020070D01*
X013207Y020000D01*
X012793Y020000D01*
X012500Y020293D01*
X012500Y020707D01*
X012673Y020880D01*
X011327Y020880D01*
X011500Y020707D01*
X011500Y020500D01*
X011000Y020500D01*
X011500Y020000D01*
X011500Y017250D01*
X011250Y017000D01*
X010500Y017000D01*
X010000Y016500D01*
X008000Y016500D01*
X008000Y016500D01*
X008000Y017000D01*
X008207Y017000D01*
X008500Y016707D01*
X008500Y016500D01*
X008000Y016500D01*
X008000Y016500D01*
X008000Y017000D01*
X007870Y017000D01*
X007870Y022630D01*
X008153Y022630D01*
X008130Y022574D01*
X008130Y019926D01*
X008186Y019790D01*
X008290Y019686D01*
X009977Y018000D01*
X009793Y018000D01*
X009500Y017707D01*
X009500Y017293D01*
X009793Y017000D01*
X010207Y017000D01*
X010500Y017293D01*
X010793Y017000D01*
X010500Y016707D01*
X010500Y016293D01*
X010793Y016000D01*
X011207Y016000D01*
X011500Y016293D01*
X011500Y016707D01*
X011207Y017000D01*
X010793Y017000D01*
X011207Y017000D01*
X011500Y017293D01*
X011500Y017707D01*
X011207Y018000D01*
X011500Y018293D01*
X011500Y018707D01*
X011207Y019000D01*
X010793Y019000D01*
X010500Y018707D01*
X010500Y018523D01*
X008870Y020153D01*
X008870Y020784D01*
X008905Y020770D01*
X009095Y020770D01*
X009272Y020843D01*
X009309Y020880D01*
X010673Y020880D01*
X010500Y020707D01*
X010500Y020500D01*
X011000Y020500D01*
X011000Y020500D01*
X011500Y020500D01*
X011500Y020293D01*
X011207Y020000D01*
X011000Y020000D01*
X011000Y020500D01*
X011000Y020500D01*
X011000Y020500D01*
X011000Y020000D01*
X010793Y020000D01*
X010500Y020293D01*
X010500Y020500D01*
X011000Y020500D01*
X011000Y020274D02*
X011000Y020274D01*
X011481Y020274D02*
X012519Y020274D01*
X012500Y020552D02*
X011500Y020552D01*
X011377Y020831D02*
X012623Y020831D01*
X013000Y020500D02*
X013750Y020500D01*
X014000Y020750D01*
X014438Y020552D02*
X015529Y020552D01*
X015250Y020274D02*
X014132Y020274D01*
X014480Y020831D02*
X015831Y020831D01*
X016018Y019995D02*
X016130Y019995D01*
X016130Y019717D02*
X015740Y019717D01*
X015480Y019438D02*
X016130Y019438D01*
X016130Y019160D02*
X015338Y019160D01*
X015250Y019000D02*
X015500Y018750D01*
X015500Y017500D01*
X016000Y017500D01*
X016000Y017500D01*
X016000Y018000D01*
X015793Y018000D01*
X015500Y017707D01*
X015500Y017500D01*
X016000Y017500D01*
X016000Y017767D02*
X016000Y017767D01*
X015747Y018046D02*
X015253Y018046D01*
X015440Y017767D02*
X015560Y017767D01*
X015500Y017489D02*
X015500Y017489D01*
X014560Y017767D02*
X014440Y017767D01*
X014500Y017489D02*
X014500Y017489D01*
X014253Y018046D02*
X014747Y018046D01*
X014500Y018324D02*
X014500Y018324D01*
X014500Y018603D02*
X014500Y018603D01*
X014326Y018881D02*
X014674Y018881D01*
X014662Y019160D02*
X009864Y019160D01*
X009585Y019438D02*
X014520Y019438D01*
X014570Y019717D02*
X009307Y019717D01*
X009028Y019995D02*
X014972Y019995D01*
X015250Y019000D02*
X012500Y019000D01*
X011500Y020000D01*
X010519Y020274D02*
X008870Y020274D01*
X008870Y020552D02*
X010500Y020552D01*
X010623Y020831D02*
X009242Y020831D01*
X008130Y020831D02*
X007870Y020831D01*
X007870Y021109D02*
X008130Y021109D01*
X008130Y021388D02*
X007870Y021388D01*
X007870Y021666D02*
X008130Y021666D01*
X008130Y021945D02*
X007870Y021945D01*
X007870Y022223D02*
X008130Y022223D01*
X008130Y022502D02*
X007870Y022502D01*
X007870Y020552D02*
X008130Y020552D01*
X008130Y020274D02*
X007870Y020274D01*
X007870Y019995D02*
X008130Y019995D01*
X008260Y019717D02*
X007870Y019717D01*
X007870Y019438D02*
X008539Y019438D01*
X008817Y019160D02*
X007870Y019160D01*
X007870Y018881D02*
X009096Y018881D01*
X009374Y018603D02*
X007870Y018603D01*
X007870Y018324D02*
X009653Y018324D01*
X009931Y018046D02*
X007870Y018046D01*
X007870Y017767D02*
X009560Y017767D01*
X009500Y017489D02*
X007870Y017489D01*
X007870Y017210D02*
X009583Y017210D01*
X009793Y017000D02*
X009500Y016707D01*
X009500Y016500D01*
X010000Y016500D01*
X010000Y016500D01*
X010000Y017000D01*
X010207Y017000D01*
X010500Y016707D01*
X010500Y016500D01*
X010000Y016500D01*
X010000Y016500D01*
X010000Y016500D01*
X010000Y017000D01*
X009793Y017000D01*
X009724Y016932D02*
X008276Y016932D01*
X008000Y016932D02*
X008000Y016932D01*
X008000Y016653D02*
X008000Y016653D01*
X008000Y016500D02*
X008500Y016500D01*
X008500Y016370D01*
X009500Y016370D01*
X009500Y016500D01*
X010000Y016500D01*
X010500Y016500D01*
X010500Y016293D01*
X010207Y016000D01*
X010023Y016000D01*
X010023Y016000D01*
X010207Y016000D01*
X010500Y015707D01*
X010500Y015430D01*
X010500Y015430D01*
X010500Y015707D01*
X010793Y016000D01*
X011207Y016000D01*
X011500Y015707D01*
X011500Y015293D01*
X011207Y015000D01*
X011108Y015000D01*
X011108Y015000D01*
X011207Y015000D01*
X011277Y014930D01*
X012070Y014930D01*
X012070Y017000D01*
X011793Y017000D01*
X011500Y017293D01*
X011500Y017707D01*
X011793Y018000D01*
X012070Y018000D01*
X012070Y018000D01*
X011793Y018000D01*
X011500Y018293D01*
X011500Y018707D01*
X011793Y019000D01*
X012207Y019000D01*
X012500Y018707D01*
X012500Y018608D01*
X012500Y018608D01*
X012500Y018707D01*
X012793Y019000D01*
X013207Y019000D01*
X013500Y018707D01*
X013500Y018603D02*
X013500Y018603D01*
X013500Y018324D02*
X013500Y018324D01*
X013253Y018046D02*
X013747Y018046D01*
X013560Y017767D02*
X013440Y017767D01*
X012674Y018881D02*
X012326Y018881D01*
X011674Y018881D02*
X011326Y018881D01*
X011500Y018603D02*
X011500Y018603D01*
X011500Y018324D02*
X011500Y018324D01*
X011253Y018046D02*
X011747Y018046D01*
X011560Y017767D02*
X011440Y017767D01*
X011500Y017489D02*
X011500Y017489D01*
X011417Y017210D02*
X011583Y017210D01*
X011276Y016932D02*
X012070Y016932D01*
X012070Y016653D02*
X011500Y016653D01*
X011500Y016375D02*
X012070Y016375D01*
X012070Y016096D02*
X011303Y016096D01*
X011390Y015818D02*
X012070Y015818D01*
X012070Y015539D02*
X011500Y015539D01*
X011468Y015261D02*
X012070Y015261D01*
X012070Y014982D02*
X011225Y014982D01*
X011000Y014500D02*
X012500Y014500D01*
X011500Y013590D02*
X015500Y013590D01*
X015500Y013311D02*
X011500Y013311D01*
X011207Y013000D02*
X011023Y013000D01*
X011023Y013000D01*
X011207Y013000D01*
X011500Y012707D01*
X011500Y012293D01*
X011500Y012476D02*
X011500Y012476D01*
X011453Y012754D02*
X011547Y012754D01*
X011500Y011640D02*
X011500Y011640D01*
X011500Y011362D02*
X011500Y011362D01*
X011290Y011083D02*
X011710Y011083D01*
X010710Y011083D02*
X010106Y011083D01*
X010385Y011362D02*
X010500Y011362D01*
X010500Y013523D02*
X010500Y013707D01*
X010207Y014000D01*
X010500Y014293D01*
X010793Y014000D01*
X011207Y014000D01*
X010793Y014000D01*
X010500Y013707D01*
X010500Y013523D01*
X010500Y013523D01*
X010500Y013590D02*
X010500Y013590D01*
X010339Y013868D02*
X010661Y013868D01*
X010646Y014147D02*
X010354Y014147D01*
X010500Y014293D02*
X010500Y014392D01*
X010500Y014392D01*
X010500Y014293D01*
X010207Y014000D02*
X010023Y014000D01*
X010023Y014000D01*
X010207Y014000D01*
X011000Y014500D02*
X010500Y015000D01*
X008500Y015000D01*
X008000Y014500D01*
X010500Y015539D02*
X010500Y015539D01*
X010390Y015818D02*
X010610Y015818D01*
X010697Y016096D02*
X010303Y016096D01*
X010500Y016375D02*
X010500Y016375D01*
X010500Y016653D02*
X010500Y016653D01*
X010276Y016932D02*
X010724Y016932D01*
X010583Y017210D02*
X010417Y017210D01*
X010500Y017293D02*
X010500Y017477D01*
X010500Y017477D01*
X010500Y017293D01*
X010000Y016932D02*
X010000Y016932D01*
X010000Y016653D02*
X010000Y016653D01*
X009500Y016653D02*
X008500Y016653D01*
X008500Y016375D02*
X009500Y016375D01*
X011023Y018000D02*
X011207Y018000D01*
X011023Y018000D01*
X011023Y018000D01*
X010500Y018603D02*
X010421Y018603D01*
X010674Y018881D02*
X010142Y018881D01*
X015326Y018881D02*
X015674Y018881D01*
X015500Y018603D02*
X015500Y018603D01*
X015500Y018324D02*
X015500Y018324D01*
X016870Y018324D02*
X017301Y018324D01*
X017579Y018603D02*
X016870Y018603D01*
X016870Y018881D02*
X017858Y018881D01*
X018136Y019160D02*
X016870Y019160D01*
X016870Y019438D02*
X019480Y019438D01*
X019480Y019500D02*
X019480Y019370D01*
X018426Y019370D01*
X018290Y019314D01*
X018186Y019210D01*
X016977Y018000D01*
X016870Y018000D01*
X016870Y019630D01*
X019480Y019630D01*
X019480Y019500D01*
X020000Y019500D01*
X021000Y019500D01*
X021000Y019500D01*
X020000Y019500D01*
X020000Y019500D01*
X020000Y019500D01*
X020480Y019500D01*
X021000Y019500D01*
X021870Y019438D02*
X022630Y019438D01*
X022630Y019160D02*
X021863Y019160D01*
X021654Y018881D02*
X022630Y018881D01*
X022630Y018603D02*
X020227Y018603D01*
X020197Y018324D02*
X022630Y018324D01*
X022630Y018046D02*
X019907Y018046D01*
X019593Y018046D02*
X019069Y018046D01*
X019440Y017767D02*
X022630Y017767D01*
X022630Y017489D02*
X019500Y017489D01*
X018583Y017210D02*
X018233Y017210D01*
X017955Y016932D02*
X022168Y016932D01*
X020000Y019500D02*
X019480Y019500D01*
X021870Y019717D02*
X022630Y019717D01*
X022630Y019995D02*
X021870Y019995D01*
X021870Y020274D02*
X022630Y020274D01*
X022630Y020552D02*
X021870Y020552D01*
X021870Y020831D02*
X022630Y020831D01*
X022630Y021109D02*
X021870Y021109D01*
X021870Y021388D02*
X022630Y021388D01*
X022630Y021666D02*
X021870Y021666D01*
X021870Y021945D02*
X022630Y021945D01*
X022630Y022223D02*
X021870Y022223D01*
X021870Y022502D02*
X022475Y022502D01*
X022197Y022780D02*
X021870Y022780D01*
X021870Y023059D02*
X021918Y023059D01*
X020000Y025565D02*
X020000Y025565D01*
X020000Y025844D02*
X020000Y025844D01*
X014672Y028907D02*
X014328Y028907D01*
X013672Y028907D02*
X013328Y028907D01*
X012672Y028907D02*
X012328Y028907D01*
X011672Y028907D02*
X011328Y028907D01*
X010672Y028907D02*
X000770Y028907D01*
X000770Y028629D02*
X010480Y028629D01*
X016870Y018046D02*
X017022Y018046D01*
X016500Y014392D02*
X016500Y014293D01*
X016500Y014392D01*
X016500Y014392D01*
X016354Y014147D02*
X016646Y014147D01*
X016661Y013868D02*
X016339Y013868D01*
X016500Y013707D02*
X016500Y013370D01*
X016500Y013370D01*
X016500Y013707D01*
X016500Y013590D02*
X016500Y013590D01*
X015661Y013868D02*
X011339Y013868D01*
X013828Y010805D02*
X014061Y010805D01*
X013250Y008000D02*
X013250Y007750D01*
X017000Y007000D02*
X017000Y006750D01*
X017000Y003750D01*
X017125Y003625D01*
X018598Y011640D02*
X022630Y011640D01*
X027523Y017000D02*
X026870Y017653D01*
X026870Y018630D01*
X027522Y018630D01*
X027392Y018500D01*
X027293Y018500D01*
X027000Y018207D01*
X027000Y017793D01*
X027293Y017500D01*
X027707Y017500D01*
X028000Y017793D01*
X028000Y017892D01*
X028178Y018070D01*
X029000Y018070D01*
X029000Y018000D01*
X029500Y018000D01*
X030500Y018000D01*
X030572Y018070D02*
X030772Y017870D01*
X030000Y017870D01*
X030000Y018000D01*
X030000Y018070D01*
X030572Y018070D01*
X030596Y018046D02*
X030000Y018046D01*
X030000Y018000D02*
X029500Y018000D01*
X029500Y018000D01*
X029500Y018000D01*
X030000Y018000D01*
X029500Y018000D02*
X029000Y018000D01*
X029000Y017793D01*
X029010Y017783D01*
X027967Y016740D01*
X027707Y017000D01*
X027523Y017000D01*
X027776Y016932D02*
X028158Y016932D01*
X028437Y017210D02*
X027313Y017210D01*
X027035Y017489D02*
X028715Y017489D01*
X028994Y017767D02*
X027974Y017767D01*
X028154Y018046D02*
X029000Y018046D01*
X028000Y018500D02*
X027500Y018000D01*
X027117Y018324D02*
X026870Y018324D01*
X026870Y018046D02*
X027000Y018046D01*
X027026Y017767D02*
X026870Y017767D01*
X028000Y018500D02*
X030750Y018500D01*
X031250Y018000D01*
X039250Y018000D01*
X042250Y015000D01*
X043500Y015000D01*
X043500Y013000D01*
X045000Y011500D01*
X044750Y011250D01*
X047500Y008500D01*
X047909Y008855D02*
X049730Y008855D01*
X049730Y008577D02*
X048040Y008577D01*
X048040Y008298D02*
X049730Y008298D01*
X049730Y008020D02*
X047783Y008020D01*
X047475Y009134D02*
X049730Y009134D01*
X049730Y009412D02*
X047196Y009412D01*
X046918Y009691D02*
X049730Y009691D01*
X049730Y009969D02*
X046639Y009969D01*
X046361Y010248D02*
X049730Y010248D01*
X049730Y010526D02*
X046082Y010526D01*
X045804Y010805D02*
X049819Y010805D01*
X049833Y010833D02*
X049833Y010833D01*
X049820Y011083D02*
X045525Y011083D01*
X045500Y011362D02*
X049842Y011362D01*
X049843Y011640D02*
X045500Y011640D01*
X045289Y011919D02*
X049820Y011919D01*
X049833Y012167D02*
X049833Y012167D01*
X049819Y012197D02*
X044911Y012197D01*
X044633Y012476D02*
X049730Y012476D01*
X049730Y012754D02*
X044354Y012754D01*
X044076Y013033D02*
X044760Y013033D01*
X044793Y013000D02*
X044500Y013293D01*
X044500Y013500D01*
X045000Y013500D01*
X045000Y013500D01*
X045000Y014000D01*
X045207Y014000D01*
X045500Y013707D01*
X045500Y013500D01*
X045000Y013500D01*
X045000Y013500D01*
X045000Y013500D01*
X045000Y014000D01*
X044793Y014000D01*
X044500Y013707D01*
X044500Y013500D01*
X045000Y013500D01*
X045500Y013500D01*
X045500Y013293D01*
X045207Y013000D01*
X045000Y013000D01*
X045000Y013500D01*
X045000Y013500D01*
X045000Y013000D01*
X044793Y013000D01*
X045000Y013033D02*
X045000Y013033D01*
X045240Y013033D02*
X049730Y013033D01*
X049730Y013311D02*
X045500Y013311D01*
X045500Y013590D02*
X049730Y013590D01*
X049730Y013868D02*
X045339Y013868D01*
X045000Y013868D02*
X045000Y013868D01*
X045000Y013590D02*
X045000Y013590D01*
X045000Y013311D02*
X045000Y013311D01*
X044500Y013311D02*
X043930Y013311D01*
X043930Y013590D02*
X044500Y013590D01*
X044661Y013868D02*
X043930Y013868D01*
X043930Y014147D02*
X049730Y014147D01*
X049730Y014425D02*
X043930Y014425D01*
X043930Y014704D02*
X049730Y014704D01*
X049730Y014982D02*
X043930Y014982D01*
X043848Y015261D02*
X049730Y015261D01*
X049730Y015539D02*
X043000Y015539D01*
X042110Y015818D02*
X042041Y015818D01*
X041762Y016096D02*
X047140Y016096D01*
X047276Y015960D02*
X046960Y016276D01*
X046960Y016500D01*
X047500Y016500D01*
X047500Y016500D01*
X048040Y016500D01*
X047500Y016500D01*
X047500Y016500D01*
X047500Y016500D01*
X047500Y017040D01*
X047276Y017040D01*
X046960Y016724D01*
X046960Y016500D01*
X047500Y016500D01*
X047500Y015960D01*
X047724Y015960D01*
X047500Y015960D02*
X047500Y016500D01*
X047500Y016500D01*
X047500Y016375D02*
X047500Y016375D01*
X047500Y016653D02*
X047500Y016653D01*
X047500Y016932D02*
X047500Y016932D01*
X047832Y016932D02*
X049730Y016932D01*
X049730Y017210D02*
X040648Y017210D01*
X040370Y017489D02*
X049730Y017489D01*
X049730Y017767D02*
X040091Y017767D01*
X040157Y018046D02*
X049730Y018046D01*
X049730Y018324D02*
X040447Y018324D01*
X040781Y018603D02*
X049730Y018603D01*
X050770Y018603D02*
X054380Y018603D01*
X054380Y018881D02*
X050770Y018881D01*
X050770Y019160D02*
X054380Y019160D01*
X054380Y019438D02*
X050770Y019438D01*
X050770Y019717D02*
X054380Y019717D01*
X054380Y019995D02*
X050770Y019995D01*
X050770Y020274D02*
X054380Y020274D01*
X054380Y020552D02*
X050770Y020552D01*
X050770Y020831D02*
X054380Y020831D01*
X054380Y021109D02*
X050770Y021109D01*
X050770Y021388D02*
X054380Y021388D01*
X054380Y021666D02*
X050770Y021666D01*
X050770Y021945D02*
X054380Y021945D01*
X054380Y022223D02*
X050770Y022223D01*
X050770Y022502D02*
X054380Y022502D01*
X054380Y022780D02*
X050770Y022780D01*
X050770Y023059D02*
X054380Y023059D01*
X054380Y023337D02*
X050770Y023337D01*
X050770Y023616D02*
X054380Y023616D01*
X054380Y023894D02*
X050770Y023894D01*
X050770Y024173D02*
X054380Y024173D01*
X054380Y024451D02*
X050770Y024451D01*
X050770Y024730D02*
X054380Y024730D01*
X054380Y025008D02*
X050770Y025008D01*
X050770Y025287D02*
X054380Y025287D01*
X054380Y025565D02*
X050770Y025565D01*
X045608Y025844D02*
X045392Y025844D01*
X045000Y025844D02*
X045000Y025844D01*
X045000Y025565D02*
X045000Y025565D01*
X045000Y025500D02*
X044480Y025500D01*
X044480Y025285D01*
X044765Y025000D01*
X044514Y024750D01*
X044224Y025040D01*
X043983Y025040D01*
X043710Y025314D01*
X043574Y025370D01*
X034153Y025370D01*
X033958Y025565D02*
X044480Y025565D01*
X044480Y025287D02*
X043737Y025287D01*
X044256Y025008D02*
X044757Y025008D01*
X044608Y025844D02*
X033680Y025844D01*
X034815Y027793D02*
X036684Y027793D01*
X036221Y028072D02*
X034537Y028072D01*
X034258Y028350D02*
X036000Y028350D01*
X036000Y028629D02*
X034000Y028629D01*
X030000Y026793D02*
X029707Y026500D01*
X029500Y026500D01*
X029500Y027000D01*
X029500Y027000D01*
X029500Y027000D01*
X029000Y027000D01*
X029000Y027207D01*
X029293Y027500D01*
X029500Y027500D01*
X029500Y027000D01*
X029500Y026500D01*
X029293Y026500D01*
X029000Y026793D01*
X029000Y027000D01*
X029500Y027000D01*
X029500Y026958D02*
X029500Y026958D01*
X029500Y027236D02*
X029500Y027236D01*
X029029Y027236D02*
X027971Y027236D01*
X028000Y026958D02*
X029000Y026958D01*
X029114Y026679D02*
X027886Y026679D01*
X029500Y026679D02*
X029500Y026679D01*
X032322Y023059D02*
X032678Y023059D01*
X033322Y023059D02*
X033678Y023059D01*
X034322Y023059D02*
X034678Y023059D01*
X035322Y023059D02*
X035678Y023059D01*
X036322Y023059D02*
X036678Y023059D01*
X037322Y023059D02*
X037678Y023059D01*
X038322Y023059D02*
X038678Y023059D01*
X039322Y023059D02*
X039678Y023059D01*
X040322Y023059D02*
X040678Y023059D01*
X041322Y023059D02*
X041678Y023059D01*
X042322Y023059D02*
X042678Y023059D01*
X043322Y023059D02*
X043678Y023059D01*
X044322Y023059D02*
X044706Y023059D01*
X044480Y019438D02*
X040697Y019438D01*
X040303Y019438D02*
X035947Y019438D01*
X035553Y019438D02*
X031000Y019438D01*
X030867Y019160D02*
X035297Y019160D01*
X035280Y018881D02*
X033798Y018881D01*
X033202Y018881D02*
X030954Y018881D01*
X031256Y018603D02*
X033023Y018603D01*
X029915Y019438D02*
X028000Y019438D01*
X027991Y019717D02*
X028760Y019717D01*
X028482Y019995D02*
X027712Y019995D01*
X027981Y020274D02*
X028203Y020274D01*
X028693Y020831D02*
X030123Y020831D01*
X030000Y020552D02*
X028971Y020552D01*
X027494Y018603D02*
X026870Y018603D01*
X039813Y018046D02*
X039843Y018046D01*
X040927Y016932D02*
X047168Y016932D01*
X046960Y016653D02*
X041205Y016653D01*
X041484Y016375D02*
X046960Y016375D01*
X047276Y015960D02*
X047500Y015960D01*
X047500Y016096D02*
X047500Y016096D01*
X048040Y016375D02*
X049730Y016375D01*
X049730Y016653D02*
X048040Y016653D01*
X050770Y016653D02*
X054574Y016653D01*
X054380Y016932D02*
X050770Y016932D01*
X050770Y017210D02*
X054380Y017210D01*
X054380Y017489D02*
X050770Y017489D01*
X050770Y017767D02*
X054380Y017767D01*
X054380Y018046D02*
X050770Y018046D01*
X050770Y018324D02*
X054380Y018324D01*
X055120Y018324D02*
X055155Y018324D01*
X055164Y018320D02*
X055120Y018338D01*
X055120Y017153D01*
X057533Y014740D01*
X057793Y015000D01*
X057892Y015000D01*
X058635Y015744D01*
X058756Y015865D01*
X058914Y015930D01*
X059020Y015930D01*
X059020Y016095D01*
X059093Y016272D01*
X059228Y016407D01*
X059405Y016480D01*
X059500Y016480D01*
X059500Y016500D01*
X060000Y016500D01*
X058000Y016500D01*
X058500Y016500D01*
X058500Y016630D01*
X059500Y016630D01*
X059500Y016500D01*
X060000Y016500D01*
X060000Y016500D01*
X059196Y016375D02*
X058500Y016375D01*
X058500Y016293D02*
X058500Y016500D01*
X058000Y016500D01*
X058000Y016500D01*
X058000Y016000D01*
X058207Y016000D01*
X058500Y016293D01*
X058303Y016096D02*
X059020Y016096D01*
X058709Y015818D02*
X056456Y015818D01*
X056177Y016096D02*
X057697Y016096D01*
X057793Y016000D02*
X057500Y016293D01*
X057500Y016500D01*
X058000Y016500D01*
X058000Y016500D01*
X058000Y016500D01*
X058000Y016000D01*
X057793Y016000D01*
X058000Y016096D02*
X058000Y016096D01*
X058000Y016375D02*
X058000Y016375D01*
X058000Y016500D02*
X057500Y016500D01*
X057500Y016520D01*
X057405Y016520D01*
X057228Y016593D01*
X057093Y016728D01*
X057020Y016905D01*
X057020Y017095D01*
X057093Y017272D01*
X057228Y017407D01*
X057405Y017480D01*
X057595Y017480D01*
X057772Y017407D01*
X057809Y017370D01*
X059500Y017370D01*
X059500Y017707D01*
X059793Y018000D01*
X060207Y018000D01*
X060500Y017707D01*
X060500Y017370D01*
X060500Y017370D01*
X060500Y017707D01*
X060793Y018000D01*
X061207Y018000D01*
X061500Y017707D01*
X061500Y017370D01*
X061500Y017370D01*
X061500Y017707D01*
X061793Y018000D01*
X062207Y018000D01*
X062500Y018293D01*
X062500Y018707D01*
X062207Y019000D01*
X061793Y019000D01*
X061500Y018707D01*
X061500Y018293D01*
X061793Y018000D01*
X062207Y018000D01*
X062500Y017707D01*
X062500Y017370D01*
X062500Y017370D01*
X062500Y017707D01*
X062793Y018000D01*
X062892Y018000D01*
X062892Y018000D01*
X062793Y018000D01*
X062500Y018293D01*
X062500Y018707D01*
X062793Y019000D01*
X063207Y019000D01*
X063500Y018707D01*
X063500Y018608D01*
X063500Y018608D01*
X063500Y018707D01*
X063793Y019000D01*
X064207Y019000D01*
X064500Y018707D01*
X064500Y018358D01*
X064500Y018358D01*
X064500Y018707D01*
X064630Y018837D01*
X064630Y019570D01*
X061928Y019570D01*
X061283Y018924D01*
X061500Y018707D01*
X061500Y018293D01*
X061207Y018000D01*
X060793Y018000D01*
X060500Y018293D01*
X060500Y018320D01*
X055164Y018320D01*
X055120Y018046D02*
X060747Y018046D01*
X060560Y017767D02*
X060440Y017767D01*
X060500Y017489D02*
X060500Y017489D01*
X061440Y017767D02*
X061560Y017767D01*
X061500Y017489D02*
X061500Y017489D01*
X061253Y018046D02*
X061747Y018046D01*
X061500Y018324D02*
X061500Y018324D01*
X061500Y018603D02*
X061500Y018603D01*
X061326Y018881D02*
X061674Y018881D01*
X061518Y019160D02*
X064630Y019160D01*
X064630Y019438D02*
X061796Y019438D01*
X061750Y020000D02*
X065000Y020000D01*
X065370Y019130D02*
X069074Y019130D01*
X069210Y019186D01*
X069480Y019457D01*
X069480Y019285D01*
X069785Y018980D01*
X070000Y018980D01*
X070215Y018980D01*
X070500Y019265D01*
X070608Y018881D02*
X066326Y018881D01*
X065674Y018881D02*
X065370Y018881D01*
X065370Y018837D02*
X065370Y019130D01*
X065370Y018837D02*
X065500Y018707D01*
X065500Y018293D01*
X065207Y018000D01*
X064858Y018000D01*
X064858Y018000D01*
X065207Y018000D01*
X065500Y017707D01*
X065500Y017293D01*
X065793Y017000D01*
X066000Y017000D01*
X066207Y017000D01*
X065793Y017000D01*
X065500Y016707D01*
X065500Y016293D01*
X065793Y016000D01*
X065500Y015707D01*
X065500Y015293D01*
X065793Y015000D01*
X065723Y014930D01*
X064930Y014930D01*
X064930Y017000D01*
X065207Y017000D01*
X065500Y017293D01*
X065500Y017500D01*
X066000Y017500D01*
X066000Y017000D01*
X066000Y017500D01*
X066000Y017500D01*
X066000Y017489D02*
X066000Y017489D01*
X066000Y017767D02*
X066000Y017767D01*
X066253Y018046D02*
X073070Y018046D01*
X073070Y018324D02*
X071097Y018324D01*
X071376Y018603D02*
X073070Y018603D01*
X073070Y018881D02*
X071654Y018881D01*
X071863Y019160D02*
X073070Y019160D01*
X073070Y019438D02*
X071870Y019438D01*
X071870Y019717D02*
X073070Y019717D01*
X073070Y019995D02*
X071870Y019995D01*
X071870Y020274D02*
X073070Y020274D01*
X073070Y020552D02*
X071870Y020552D01*
X071870Y020831D02*
X073070Y020831D01*
X073070Y021109D02*
X071870Y021109D01*
X071870Y021388D02*
X073070Y021388D01*
X073070Y021666D02*
X071870Y021666D01*
X071870Y021945D02*
X073070Y021945D01*
X073070Y022223D02*
X071870Y022223D01*
X071870Y022502D02*
X073070Y022502D01*
X073070Y022780D02*
X071870Y022780D01*
X071870Y023059D02*
X073070Y023059D01*
X073070Y023337D02*
X071870Y023337D01*
X071870Y023616D02*
X073070Y023616D01*
X073070Y023894D02*
X071870Y023894D01*
X071870Y024173D02*
X073070Y024173D01*
X073070Y024451D02*
X071870Y024451D01*
X071794Y024730D02*
X073070Y024730D01*
X073070Y025008D02*
X071243Y025008D01*
X071520Y025287D02*
X073070Y025287D01*
X073070Y025565D02*
X071520Y025565D01*
X071520Y025500D02*
X071000Y025500D01*
X071000Y025500D01*
X071000Y025500D01*
X071000Y025500D01*
X070000Y025500D01*
X070000Y025500D01*
X070000Y025500D01*
X070000Y026020D01*
X070215Y026020D01*
X070500Y025735D01*
X070785Y026020D01*
X071000Y026020D01*
X071000Y025500D01*
X071520Y025500D01*
X071392Y025844D02*
X073070Y025844D01*
X073070Y026122D02*
X059395Y026122D01*
X059117Y025844D02*
X069608Y025844D01*
X069480Y025715D02*
X069480Y025500D01*
X070000Y025500D01*
X070480Y025500D01*
X071000Y025500D01*
X071000Y025565D02*
X071000Y025565D01*
X071000Y025844D02*
X071000Y025844D01*
X070608Y025844D02*
X070392Y025844D01*
X070000Y025844D02*
X070000Y025844D01*
X070000Y026020D02*
X069785Y026020D01*
X069480Y025715D01*
X069480Y025565D02*
X057520Y025565D01*
X057520Y025630D02*
X058824Y025630D01*
X058960Y025686D01*
X060519Y027246D01*
X060785Y026980D01*
X061000Y026980D01*
X061000Y027500D01*
X061000Y027500D01*
X061000Y027236D02*
X061000Y027236D01*
X061471Y027236D02*
X061529Y027236D01*
X060529Y027236D02*
X060509Y027236D01*
X060231Y026958D02*
X062566Y026958D01*
X062529Y027236D02*
X062471Y027236D01*
X062520Y026679D02*
X059952Y026679D01*
X059674Y026401D02*
X062671Y026401D01*
X063000Y026750D02*
X063250Y026750D01*
X064000Y027500D01*
X064471Y027236D02*
X064529Y027236D01*
X065000Y027236D02*
X065000Y027236D01*
X065000Y026980D02*
X065000Y027500D01*
X065520Y027500D01*
X065000Y027500D01*
X065000Y027500D01*
X065000Y027500D01*
X065000Y026980D01*
X065471Y027236D02*
X066340Y027236D01*
X066212Y027515D02*
X065520Y027515D01*
X065442Y027793D02*
X065934Y027793D01*
X065655Y028072D02*
X065307Y028072D01*
X065866Y028907D02*
X073070Y028907D01*
X073070Y028629D02*
X066145Y028629D01*
X066423Y028350D02*
X073070Y028350D01*
X073070Y028072D02*
X066702Y028072D01*
X067136Y027793D02*
X073070Y027793D01*
X073070Y027515D02*
X067230Y027515D01*
X067160Y027236D02*
X073070Y027236D01*
X073070Y026958D02*
X064066Y026958D01*
X063787Y026679D02*
X073070Y026679D01*
X073070Y026401D02*
X063509Y026401D01*
X065588Y029186D02*
X073070Y029186D01*
X073070Y029464D02*
X065309Y029464D01*
X066228Y030021D02*
X066772Y030021D01*
X066500Y030300D02*
X066500Y030300D01*
X066500Y030578D02*
X066500Y030578D01*
X066351Y030857D02*
X066649Y030857D01*
X069745Y033363D02*
X073070Y033363D01*
X073070Y033085D02*
X070024Y033085D01*
X070302Y032806D02*
X073070Y032806D01*
X073070Y032528D02*
X070581Y032528D01*
X070859Y032249D02*
X073070Y032249D01*
X073070Y031971D02*
X072336Y031971D01*
X072570Y031692D02*
X073070Y031692D01*
X073070Y031414D02*
X072570Y031414D01*
X071664Y031971D02*
X071138Y031971D01*
X069467Y033642D02*
X073070Y033642D01*
X073070Y033920D02*
X069188Y033920D01*
X070793Y035000D02*
X071207Y035000D01*
X071241Y035034D02*
X071660Y035034D01*
X074000Y035500D02*
X074000Y039750D01*
X071207Y038000D02*
X071108Y038000D01*
X071108Y038000D01*
X071207Y038000D01*
X070000Y026020D02*
X070000Y025500D01*
X070000Y025500D01*
X069480Y025500D01*
X069480Y025285D01*
X069765Y025000D01*
X069480Y024715D01*
X069480Y024503D01*
X067847Y022870D01*
X064309Y022870D01*
X064272Y022907D01*
X064095Y022980D01*
X063905Y022980D01*
X063728Y022907D01*
X063593Y022772D01*
X063520Y022595D01*
X063520Y022405D01*
X063534Y022370D01*
X059809Y022370D01*
X059772Y022407D01*
X059595Y022480D01*
X059405Y022480D01*
X059228Y022407D01*
X059093Y022272D01*
X059020Y022095D01*
X059020Y021905D01*
X059093Y021728D01*
X059228Y021593D01*
X059405Y021520D01*
X059595Y021520D01*
X059772Y021593D01*
X059809Y021630D01*
X060107Y021630D01*
X058957Y020480D01*
X058905Y020480D01*
X058728Y020407D01*
X058593Y020272D01*
X058520Y020095D01*
X058520Y019905D01*
X058593Y019728D01*
X058728Y019593D01*
X058905Y019520D01*
X059095Y019520D01*
X059272Y019593D01*
X059407Y019728D01*
X059480Y019905D01*
X059480Y019957D01*
X060653Y021130D01*
X063034Y021130D01*
X063020Y021095D01*
X063020Y021000D01*
X062793Y021000D01*
X062500Y020707D01*
X062500Y020430D01*
X061664Y020430D01*
X061506Y020365D01*
X061500Y020358D01*
X061500Y020500D01*
X061500Y020707D01*
X061207Y021000D01*
X061000Y021000D01*
X061000Y020500D01*
X060000Y019500D01*
X057000Y019500D01*
X056000Y019500D01*
X056480Y019500D01*
X057000Y019500D01*
X057520Y019500D01*
X057520Y019715D01*
X057235Y020000D01*
X057520Y020285D01*
X057520Y020715D01*
X057235Y021000D01*
X057520Y021285D01*
X057520Y021715D01*
X057235Y022000D01*
X057520Y022285D01*
X057520Y022715D01*
X057235Y023000D01*
X057520Y023285D01*
X057520Y023715D01*
X057235Y024000D01*
X057520Y024285D01*
X057520Y024715D01*
X057235Y025000D01*
X057520Y025285D01*
X057520Y025630D01*
X057520Y025287D02*
X069480Y025287D01*
X069757Y025008D02*
X057243Y025008D01*
X057506Y024730D02*
X069494Y024730D01*
X069428Y024451D02*
X057520Y024451D01*
X057408Y024173D02*
X069149Y024173D01*
X068871Y023894D02*
X057341Y023894D01*
X057520Y023616D02*
X068592Y023616D01*
X068314Y023337D02*
X057520Y023337D01*
X057294Y023059D02*
X068035Y023059D01*
X070000Y025565D02*
X070000Y025565D01*
X063601Y022780D02*
X057455Y022780D01*
X057520Y022502D02*
X063520Y022502D01*
X063026Y021109D02*
X060632Y021109D01*
X060793Y021000D02*
X060500Y020707D01*
X060500Y020500D01*
X061000Y020500D01*
X061000Y020500D01*
X061500Y020500D01*
X061000Y020500D01*
X061000Y020500D01*
X061000Y020000D01*
X061142Y020000D01*
X060322Y019180D01*
X057415Y019180D01*
X057520Y019285D01*
X057520Y019500D01*
X057000Y019500D01*
X057000Y019500D01*
X057000Y019500D01*
X056000Y019500D01*
X056000Y019500D01*
X055250Y018750D02*
X060500Y018750D01*
X061750Y020000D01*
X061137Y019995D02*
X059518Y019995D01*
X059395Y019717D02*
X060858Y019717D01*
X060793Y020000D02*
X061000Y020000D01*
X061000Y020500D01*
X061000Y020500D01*
X061000Y020500D01*
X061000Y021000D01*
X060793Y021000D01*
X060623Y020831D02*
X060354Y020831D01*
X060500Y020552D02*
X060075Y020552D01*
X059797Y020274D02*
X060519Y020274D01*
X060500Y020293D02*
X060793Y020000D01*
X061000Y020274D02*
X061000Y020274D01*
X061000Y020500D02*
X060500Y020500D01*
X060500Y020293D01*
X061000Y020552D02*
X061000Y020552D01*
X061000Y020831D02*
X061000Y020831D01*
X061377Y020831D02*
X062623Y020831D01*
X062500Y020552D02*
X061500Y020552D01*
X059864Y021388D02*
X057520Y021388D01*
X057520Y021666D02*
X059155Y021666D01*
X059020Y021945D02*
X057291Y021945D01*
X057458Y022223D02*
X059073Y022223D01*
X059586Y021109D02*
X057344Y021109D01*
X057405Y020831D02*
X059307Y020831D01*
X059029Y020552D02*
X057520Y020552D01*
X057509Y020274D02*
X058595Y020274D01*
X058520Y019995D02*
X057240Y019995D01*
X057519Y019717D02*
X058605Y019717D01*
X057520Y019438D02*
X060580Y019438D01*
X062326Y018881D02*
X062674Y018881D01*
X062500Y018603D02*
X062500Y018603D01*
X062500Y018324D02*
X062500Y018324D01*
X062253Y018046D02*
X062747Y018046D01*
X062560Y017767D02*
X062440Y017767D01*
X062500Y017489D02*
X062500Y017489D01*
X063500Y018000D02*
X064250Y018000D01*
X064500Y017750D01*
X064500Y014500D01*
X064500Y012000D01*
X065000Y011500D01*
X065290Y011083D02*
X065710Y011083D01*
X065793Y011000D02*
X065500Y011293D01*
X065500Y011707D01*
X065207Y012000D01*
X065500Y012293D01*
X065500Y012707D01*
X065207Y013000D01*
X064930Y013000D01*
X064930Y014070D01*
X065723Y014070D01*
X065793Y014000D01*
X066207Y014000D01*
X066500Y014293D01*
X066793Y014000D01*
X067000Y014000D01*
X067207Y014000D01*
X067500Y014293D01*
X067500Y014500D01*
X067500Y014570D01*
X068586Y014570D01*
X068744Y014635D01*
X068865Y014756D01*
X069108Y015000D01*
X069207Y015000D01*
X069277Y015070D01*
X072070Y015070D01*
X072070Y011730D01*
X071905Y011730D01*
X071728Y011657D01*
X071593Y011522D01*
X071520Y011345D01*
X071520Y011155D01*
X071593Y010978D01*
X071630Y010941D01*
X071630Y008870D01*
X071597Y008870D01*
X071620Y008926D01*
X071620Y010324D01*
X071564Y010460D01*
X071460Y010564D01*
X070710Y011314D01*
X070574Y011370D01*
X067653Y011370D01*
X067023Y012000D01*
X067207Y012000D01*
X067500Y012293D01*
X067500Y012630D01*
X068191Y012630D01*
X068228Y012593D01*
X068405Y012520D01*
X068595Y012520D01*
X068772Y012593D01*
X068907Y012728D01*
X068934Y012793D01*
X069770Y011957D01*
X069770Y011905D01*
X069843Y011728D01*
X069978Y011593D01*
X070155Y011520D01*
X070345Y011520D01*
X070522Y011593D01*
X070657Y011728D01*
X070730Y011905D01*
X070730Y012095D01*
X070657Y012272D01*
X070522Y012407D01*
X070345Y012480D01*
X070293Y012480D01*
X068960Y013814D01*
X068824Y013870D01*
X067337Y013870D01*
X067207Y014000D01*
X066793Y014000D01*
X066500Y013707D01*
X066207Y014000D01*
X065793Y014000D01*
X065500Y013707D01*
X065500Y013293D01*
X065793Y013000D01*
X065500Y012707D01*
X065500Y012293D01*
X065793Y012000D01*
X065500Y011707D01*
X065500Y011293D01*
X065207Y011000D01*
X064793Y011000D01*
X064500Y011293D01*
X064500Y011392D01*
X064500Y011392D01*
X064500Y011293D01*
X064207Y011000D01*
X063793Y011000D01*
X063500Y011293D01*
X063500Y011477D01*
X063500Y011477D01*
X063500Y011293D01*
X063207Y011000D01*
X063023Y011000D01*
X063153Y010870D01*
X067107Y010870D01*
X066500Y011477D01*
X066500Y011293D01*
X066207Y011000D01*
X065793Y011000D01*
X065500Y011362D02*
X065500Y011362D01*
X065500Y011640D02*
X065500Y011640D01*
X065289Y011919D02*
X065711Y011919D01*
X065793Y012000D02*
X065977Y012000D01*
X065977Y012000D01*
X065793Y012000D01*
X065596Y012197D02*
X065404Y012197D01*
X065207Y012000D02*
X065108Y012000D01*
X065108Y012000D01*
X065207Y012000D01*
X065500Y012476D02*
X065500Y012476D01*
X065453Y012754D02*
X065547Y012754D01*
X065793Y013000D02*
X065977Y013000D01*
X065977Y013000D01*
X065793Y013000D01*
X065760Y013033D02*
X064930Y013033D01*
X064930Y013311D02*
X065500Y013311D01*
X065500Y013590D02*
X064930Y013590D01*
X064930Y013868D02*
X065661Y013868D01*
X066339Y013868D02*
X066661Y013868D01*
X066500Y013707D02*
X066500Y013523D01*
X066500Y013523D01*
X066500Y013707D01*
X066500Y013590D02*
X066500Y013590D01*
X066354Y014147D02*
X066646Y014147D01*
X066500Y014293D02*
X066500Y014392D01*
X066500Y014392D01*
X066500Y014293D01*
X067000Y014425D02*
X067000Y014425D01*
X067000Y014500D02*
X067000Y014000D01*
X067000Y014500D01*
X067500Y014500D01*
X067000Y014500D01*
X067000Y014500D01*
X067000Y014500D01*
X067000Y014147D02*
X067000Y014147D01*
X067354Y014147D02*
X072070Y014147D01*
X072070Y014425D02*
X067500Y014425D01*
X066500Y015000D02*
X066000Y014500D01*
X064500Y014500D01*
X061000Y014500D01*
X060000Y015500D01*
X059000Y015500D01*
X058000Y014500D01*
X057775Y014982D02*
X057291Y014982D01*
X057013Y015261D02*
X058152Y015261D01*
X058431Y015539D02*
X056734Y015539D01*
X055966Y015261D02*
X050770Y015261D01*
X050770Y015539D02*
X055688Y015539D01*
X055409Y015818D02*
X050770Y015818D01*
X050770Y016096D02*
X055131Y016096D01*
X054852Y016375D02*
X050770Y016375D01*
X050770Y014982D02*
X056245Y014982D01*
X056523Y014704D02*
X050770Y014704D01*
X050770Y014425D02*
X056802Y014425D01*
X057080Y014147D02*
X050770Y014147D01*
X050770Y013868D02*
X057359Y013868D01*
X058981Y012754D02*
X050770Y012754D01*
X050770Y012476D02*
X058702Y012476D01*
X058424Y012197D02*
X050681Y012197D01*
X050680Y011919D02*
X058145Y011919D01*
X057867Y011640D02*
X050657Y011640D01*
X050658Y011362D02*
X057588Y011362D01*
X057310Y011083D02*
X050680Y011083D01*
X050667Y010833D02*
X050667Y010833D01*
X050681Y010805D02*
X057031Y010805D01*
X056753Y010526D02*
X050770Y010526D01*
X050770Y010248D02*
X056474Y010248D01*
X056071Y009969D02*
X050770Y009969D01*
X050770Y009691D02*
X056020Y009691D01*
X056159Y009412D02*
X050770Y009412D01*
X050770Y009134D02*
X061130Y009134D01*
X061130Y009412D02*
X056841Y009412D01*
X056980Y009691D02*
X061130Y009691D01*
X061130Y009969D02*
X057242Y009969D01*
X057521Y010248D02*
X061130Y010248D01*
X061130Y010526D02*
X057799Y010526D01*
X058078Y010805D02*
X061130Y010805D01*
X060710Y011083D02*
X058356Y011083D01*
X058635Y011362D02*
X060500Y011362D01*
X060500Y011640D02*
X058913Y011640D01*
X059192Y011919D02*
X060711Y011919D01*
X060596Y012197D02*
X060404Y012197D01*
X060500Y012293D02*
X060500Y012630D01*
X060500Y012293D01*
X060500Y012476D02*
X060500Y012476D01*
X060500Y012630D02*
X060500Y012630D01*
X061023Y013000D02*
X061023Y013000D01*
X061207Y013000D01*
X061500Y013293D01*
X061500Y013630D01*
X063130Y013630D01*
X063130Y013000D01*
X062793Y013000D01*
X062500Y012707D01*
X062207Y013000D01*
X062000Y013000D01*
X062000Y012500D01*
X062000Y012500D01*
X062000Y012500D01*
X061500Y012500D01*
X061500Y012707D01*
X061793Y013000D01*
X062000Y013000D01*
X062000Y012500D01*
X061500Y012500D01*
X061500Y012293D01*
X061500Y012707D01*
X061207Y013000D01*
X061023Y013000D01*
X061240Y013033D02*
X063130Y013033D01*
X063130Y013311D02*
X061500Y013311D01*
X061500Y013590D02*
X063130Y013590D01*
X062547Y012754D02*
X062453Y012754D01*
X062500Y012707D02*
X062500Y012523D01*
X062500Y012523D01*
X062500Y012707D01*
X062000Y012754D02*
X062000Y012754D01*
X061547Y012754D02*
X061453Y012754D01*
X061500Y012476D02*
X061500Y012476D01*
X061424Y012197D02*
X061404Y012197D01*
X059596Y012197D02*
X059470Y012197D01*
X059259Y013033D02*
X050770Y013033D01*
X050770Y013311D02*
X059500Y013311D01*
X059500Y013590D02*
X050770Y013590D01*
X055342Y016932D02*
X057020Y016932D01*
X057067Y017210D02*
X055120Y017210D01*
X055120Y017489D02*
X059500Y017489D01*
X059560Y017767D02*
X055120Y017767D01*
X055250Y018750D02*
X055250Y020750D01*
X056000Y021500D01*
X055620Y016653D02*
X057168Y016653D01*
X057500Y016375D02*
X055899Y016375D01*
X063000Y018500D02*
X063500Y018000D01*
X063326Y018881D02*
X063674Y018881D01*
X064326Y018881D02*
X064630Y018881D01*
X064500Y018603D02*
X064500Y018603D01*
X065253Y018046D02*
X065747Y018046D01*
X065560Y017767D02*
X065440Y017767D01*
X065500Y017489D02*
X065500Y017489D01*
X065417Y017210D02*
X065583Y017210D01*
X065724Y016932D02*
X064930Y016932D01*
X064930Y016653D02*
X065500Y016653D01*
X065500Y016375D02*
X064930Y016375D01*
X064930Y016096D02*
X065697Y016096D01*
X065793Y016000D02*
X065977Y016000D01*
X065977Y016000D01*
X065793Y016000D01*
X065610Y015818D02*
X064930Y015818D01*
X064930Y015539D02*
X065500Y015539D01*
X065532Y015261D02*
X064930Y015261D01*
X064930Y014982D02*
X065775Y014982D01*
X065793Y015000D02*
X065892Y015000D01*
X065892Y015000D01*
X065793Y015000D01*
X066500Y015000D02*
X068500Y015000D01*
X069000Y015500D01*
X072500Y015500D01*
X072070Y014982D02*
X069090Y014982D01*
X068812Y014704D02*
X072070Y014704D01*
X072070Y013868D02*
X068828Y013868D01*
X069184Y013590D02*
X072070Y013590D01*
X072070Y013311D02*
X069462Y013311D01*
X069741Y013033D02*
X072070Y013033D01*
X072070Y012754D02*
X070019Y012754D01*
X070356Y012476D02*
X072070Y012476D01*
X072070Y012197D02*
X070688Y012197D01*
X070730Y011919D02*
X072070Y011919D01*
X071711Y011640D02*
X070569Y011640D01*
X070594Y011362D02*
X071527Y011362D01*
X071550Y011083D02*
X070940Y011083D01*
X071219Y010805D02*
X071630Y010805D01*
X071630Y010526D02*
X071497Y010526D01*
X071620Y010248D02*
X071630Y010248D01*
X071620Y009969D02*
X071630Y009969D01*
X071620Y009691D02*
X071630Y009691D01*
X071620Y009412D02*
X071630Y009412D01*
X071620Y009134D02*
X071630Y009134D01*
X070880Y009370D02*
X070880Y009534D01*
X070845Y009520D01*
X070655Y009520D01*
X070478Y009593D01*
X070441Y009630D01*
X065500Y009630D01*
X065500Y009293D01*
X065207Y009000D01*
X064793Y009000D01*
X064500Y009293D01*
X064500Y009630D01*
X064309Y009630D01*
X064272Y009593D01*
X064095Y009520D01*
X063905Y009520D01*
X063728Y009593D01*
X063593Y009728D01*
X063520Y009905D01*
X063520Y010095D01*
X063534Y010130D01*
X062926Y010130D01*
X062790Y010186D01*
X062686Y010290D01*
X061977Y011000D01*
X061870Y011000D01*
X061870Y008559D01*
X061907Y008522D01*
X061980Y008345D01*
X061980Y008155D01*
X061916Y008000D01*
X062977Y008000D01*
X063020Y008043D01*
X063020Y008095D01*
X063034Y008130D01*
X062809Y008130D01*
X062772Y008093D01*
X062595Y008020D01*
X062405Y008020D01*
X062228Y008093D01*
X062093Y008228D01*
X062020Y008405D01*
X062020Y008595D01*
X062093Y008772D01*
X062228Y008907D01*
X062405Y008980D01*
X062595Y008980D01*
X062772Y008907D01*
X062809Y008870D01*
X068784Y008870D01*
X068770Y008905D01*
X068770Y009095D01*
X068843Y009272D01*
X068978Y009407D01*
X069155Y009480D01*
X069345Y009480D01*
X069522Y009407D01*
X069559Y009370D01*
X070880Y009370D01*
X070880Y009412D02*
X069510Y009412D01*
X068990Y009412D02*
X065500Y009412D01*
X065341Y009134D02*
X068786Y009134D01*
X067250Y008000D02*
X067000Y007750D01*
X064000Y007750D01*
X063250Y007000D01*
X062000Y007000D01*
X062000Y008750D01*
X062250Y009000D01*
X062500Y009000D01*
X063000Y009500D01*
X063500Y009500D01*
X063500Y009707D01*
X063207Y010000D01*
X063000Y010000D01*
X063000Y009500D01*
X063000Y009500D01*
X063000Y009500D01*
X063500Y009500D01*
X063500Y009293D01*
X063207Y009000D01*
X063000Y009000D01*
X063000Y009500D01*
X063000Y009500D01*
X063000Y009500D01*
X062500Y009500D01*
X062500Y009707D01*
X062793Y010000D01*
X063000Y010000D01*
X063000Y009500D01*
X063000Y009000D01*
X062793Y009000D01*
X062500Y009293D01*
X062500Y009500D01*
X063000Y009500D01*
X063000Y009412D02*
X063000Y009412D01*
X063000Y009134D02*
X063000Y009134D01*
X063341Y009134D02*
X064659Y009134D01*
X064500Y009412D02*
X063500Y009412D01*
X063500Y009691D02*
X063631Y009691D01*
X063520Y009969D02*
X063238Y009969D01*
X063000Y009969D02*
X063000Y009969D01*
X062762Y009969D02*
X061870Y009969D01*
X061870Y009691D02*
X062500Y009691D01*
X062500Y009412D02*
X061870Y009412D01*
X061870Y009134D02*
X062659Y009134D01*
X062176Y008855D02*
X061870Y008855D01*
X061870Y008577D02*
X062020Y008577D01*
X061980Y008298D02*
X062064Y008298D01*
X061924Y008020D02*
X062996Y008020D01*
X061076Y008020D02*
X051605Y008020D01*
X050770Y008298D02*
X061020Y008298D01*
X061130Y008577D02*
X050770Y008577D01*
X050770Y008855D02*
X061130Y008855D01*
X063000Y009691D02*
X063000Y009691D01*
X062729Y010248D02*
X061870Y010248D01*
X061870Y010526D02*
X062451Y010526D01*
X062172Y010805D02*
X061870Y010805D01*
X063290Y011083D02*
X063710Y011083D01*
X063500Y011362D02*
X063500Y011362D01*
X064290Y011083D02*
X064710Y011083D01*
X064500Y011362D02*
X064500Y011362D01*
X066290Y011083D02*
X066894Y011083D01*
X066615Y011362D02*
X066500Y011362D01*
X067105Y011919D02*
X069770Y011919D01*
X069931Y011640D02*
X067383Y011640D01*
X067404Y012197D02*
X069530Y012197D01*
X069251Y012476D02*
X067500Y012476D01*
X068918Y012754D02*
X068973Y012754D01*
X070980Y016096D02*
X072140Y016096D01*
X071960Y016375D02*
X070804Y016375D01*
X069500Y017489D02*
X073070Y017489D01*
X073070Y017767D02*
X069440Y017767D01*
X069500Y017500D02*
X069000Y017500D01*
X068500Y018000D01*
X066500Y018000D01*
X066440Y017767D02*
X066560Y017767D01*
X066500Y017707D02*
X066500Y017293D01*
X066793Y017000D01*
X066977Y017000D01*
X066977Y017000D01*
X066724Y016932D02*
X066276Y016932D01*
X066417Y017210D02*
X066583Y017210D01*
X066500Y017489D02*
X066500Y017489D01*
X066500Y017707D02*
X066793Y018000D01*
X067207Y018000D01*
X067500Y017707D01*
X067500Y017370D01*
X068500Y017370D01*
X068500Y017500D01*
X069000Y017500D01*
X069000Y017500D01*
X069000Y017500D01*
X069000Y017500D01*
X069000Y018000D01*
X068793Y018000D01*
X068500Y017707D01*
X068500Y017500D01*
X069000Y017500D01*
X069500Y017500D01*
X069000Y017767D02*
X069000Y017767D01*
X068560Y017767D02*
X067440Y017767D01*
X067500Y017489D02*
X068500Y017489D01*
X070000Y018980D02*
X070000Y019500D01*
X070000Y018980D01*
X070000Y019160D02*
X070000Y019160D01*
X070000Y019438D02*
X070000Y019438D01*
X070000Y019500D02*
X070000Y019500D01*
X069605Y019160D02*
X069145Y019160D01*
X069461Y019438D02*
X069480Y019438D01*
X065500Y018603D02*
X065500Y018603D01*
X065500Y018324D02*
X065500Y018324D01*
X066000Y017210D02*
X066000Y017210D01*
X066500Y016653D02*
X066500Y016653D01*
X066500Y016375D02*
X066500Y016375D01*
X072500Y016096D02*
X072500Y016096D01*
X072860Y016096D02*
X073070Y016096D01*
X073070Y016375D02*
X073040Y016375D01*
X073040Y016653D02*
X073070Y016653D01*
X071250Y008000D02*
X067250Y008000D01*
X067000Y007750D02*
X067000Y007000D01*
X070750Y007000D01*
X070750Y003750D01*
X070875Y003625D01*
X073250Y003750D02*
X073375Y003625D01*
X073250Y003750D02*
X073250Y007750D01*
X071500Y007750D01*
X071250Y008000D01*
X067000Y007000D02*
X067000Y003750D01*
X067125Y003625D01*
X063375Y003625D02*
X063250Y003750D01*
X063250Y007000D01*
X062000Y007000D02*
X059500Y007000D01*
X056750Y007000D01*
X057000Y006750D01*
X057000Y003750D01*
X057125Y003625D01*
X054750Y003750D02*
X054625Y003625D01*
X054750Y003750D02*
X054750Y007000D01*
X056750Y007000D01*
X059500Y007000D02*
X059500Y003750D01*
X059625Y003625D01*
X048375Y003625D02*
X048250Y003750D01*
X048250Y006500D01*
X045750Y006500D02*
X045750Y003750D01*
X045875Y003625D01*
X038375Y003625D02*
X038250Y003750D01*
X038250Y007000D01*
X039500Y009500D02*
X042500Y009500D01*
X042500Y010500D01*
X044000Y010500D01*
X044750Y011250D01*
X045000Y019438D02*
X045000Y019438D01*
X045000Y038655D02*
X043000Y038655D01*
X042500Y039212D02*
X042500Y039212D01*
X042500Y039490D02*
X042500Y039490D01*
X042500Y039500D02*
X042000Y039500D01*
X042000Y039293D01*
X042293Y039000D01*
X042000Y038707D01*
X042000Y038608D01*
X039365Y041244D01*
X039726Y040883D02*
X042175Y040883D01*
X042000Y040604D02*
X040004Y040604D01*
X040283Y040326D02*
X042000Y040326D01*
X042246Y040047D02*
X040561Y040047D01*
X040840Y039769D02*
X042061Y039769D01*
X042000Y039490D02*
X041118Y039490D01*
X041397Y039212D02*
X042081Y039212D01*
X042226Y038933D02*
X041675Y038933D01*
X041954Y038655D02*
X042000Y038655D01*
X042500Y039769D02*
X042500Y039769D01*
X045500Y038655D02*
X045500Y038655D01*
X046000Y043389D02*
X048604Y043389D01*
X048655Y043440D02*
X048655Y043440D01*
X049539Y043546D02*
X049539Y043546D01*
X049539Y043546D01*
X049696Y043389D02*
X049730Y043389D01*
X049754Y043668D02*
X046000Y043668D01*
X045500Y043668D02*
X045500Y043668D01*
X049751Y045339D02*
X025749Y045339D01*
X024833Y045167D02*
X024833Y045167D01*
X024820Y045060D02*
X000770Y045060D01*
X000770Y044782D02*
X024875Y044782D01*
X024820Y044503D02*
X000770Y044503D01*
X000770Y044225D02*
X024878Y044225D01*
X024820Y043946D02*
X000770Y043946D01*
X000770Y043668D02*
X024754Y043668D01*
X024730Y043389D02*
X024696Y043389D01*
X025667Y043833D02*
X025667Y043833D01*
X025680Y043946D02*
X027239Y043946D01*
X027000Y043668D02*
X025746Y043668D01*
X025770Y043389D02*
X027000Y043389D01*
X027182Y043111D02*
X025770Y043111D01*
X023632Y042684D02*
X023632Y042684D01*
X023567Y042750D02*
X023567Y042750D01*
X023567Y042750D01*
X023533Y042832D02*
X000770Y042832D01*
X000770Y042554D02*
X023540Y042554D01*
X023533Y042275D02*
X000770Y042275D01*
X000770Y041997D02*
X023539Y041997D01*
X023510Y041718D02*
X000770Y041718D01*
X000770Y041440D02*
X023539Y041440D01*
X024730Y041161D02*
X000770Y041161D01*
X000770Y040883D02*
X024730Y040883D01*
X024730Y040604D02*
X000770Y040604D01*
X000770Y040326D02*
X024730Y040326D01*
X023510Y043111D02*
X000770Y043111D01*
X000770Y043389D02*
X023604Y043389D01*
X024751Y045339D02*
X000770Y045339D01*
D17*
X013500Y024500D03*
X009000Y021250D03*
X014000Y020750D03*
X015000Y019500D03*
X019750Y018500D03*
X020000Y016000D03*
X022000Y015500D03*
X017750Y012500D03*
X014500Y011000D03*
X016000Y007250D03*
X015500Y006750D03*
X014500Y006750D03*
X012750Y006500D03*
X011500Y007500D03*
X009500Y007000D03*
X009000Y006500D03*
X007000Y007000D03*
X006500Y006500D03*
X006500Y010250D03*
X009000Y010500D03*
X008250Y013500D03*
X017000Y006750D03*
X017750Y006500D03*
X019000Y006500D03*
X021500Y006500D03*
X030000Y010000D03*
X031500Y008500D03*
X033000Y008000D03*
X034750Y007500D03*
X034750Y006750D03*
X034000Y006500D03*
X036000Y008000D03*
X037000Y007000D03*
X036500Y006500D03*
X037750Y006500D03*
X039000Y006500D03*
X039500Y007000D03*
X040250Y006500D03*
X038000Y008000D03*
X038000Y009000D03*
X040000Y009000D03*
X040500Y008500D03*
X043000Y013000D03*
X040000Y018500D03*
X040500Y019000D03*
X035750Y019000D03*
X033500Y018500D03*
X032000Y016500D03*
X031500Y015500D03*
X030500Y018000D03*
X031500Y011500D03*
X055250Y026500D03*
X059500Y022000D03*
X059000Y020000D03*
X057500Y017000D03*
X059500Y016000D03*
X065000Y020000D03*
X063500Y021000D03*
X064000Y022500D03*
X063000Y026750D03*
X062500Y029000D03*
X066750Y027500D03*
X061000Y035500D03*
X060500Y039500D03*
X054750Y038500D03*
X054250Y039500D03*
X054250Y036000D03*
X045000Y028000D03*
X041500Y031250D03*
X041000Y032000D03*
X037500Y030500D03*
X056500Y009750D03*
X061500Y008250D03*
X062500Y008500D03*
X063500Y008000D03*
X062500Y007500D03*
X061500Y006500D03*
X060250Y006500D03*
X059000Y006500D03*
X056500Y006500D03*
X064000Y010000D03*
X066000Y007250D03*
X065500Y006750D03*
X067500Y007500D03*
X069000Y006500D03*
X070250Y006500D03*
X069250Y009000D03*
X070750Y010000D03*
X072000Y011250D03*
X070250Y012000D03*
X068500Y013000D03*
X069000Y010500D03*
X070500Y016000D03*
X070000Y017000D03*
X070750Y042500D03*
D18*
X071000Y041500D02*
X070500Y041000D01*
X066500Y041000D01*
X066000Y040500D01*
X065000Y040500D01*
X067000Y040500D02*
X068000Y040500D01*
X063000Y039500D02*
X062500Y040000D01*
X059500Y040000D01*
X059000Y040500D01*
X059000Y039500D02*
X058000Y039500D01*
X058000Y038500D02*
X059000Y038500D01*
X059000Y037500D02*
X058000Y036500D01*
X059000Y036500D02*
X059500Y037000D01*
X062500Y037000D01*
X063000Y036500D01*
X061500Y038000D02*
X054750Y038000D01*
X053250Y036500D01*
X053250Y027000D01*
X056500Y027000D01*
X057000Y026500D01*
X058750Y026000D02*
X054750Y026000D01*
X054750Y017000D01*
X057750Y014000D01*
X063500Y014000D01*
X063500Y012000D01*
X064000Y011500D01*
X063000Y010500D02*
X069000Y010500D01*
X070500Y011000D02*
X067500Y011000D01*
X066000Y012500D01*
X066500Y013000D02*
X068500Y013000D01*
X068750Y013500D02*
X070250Y012000D01*
X070500Y011000D02*
X071250Y010250D01*
X071250Y009000D01*
X069250Y009000D01*
X070750Y010000D02*
X064000Y010000D01*
X063000Y010500D02*
X062000Y011500D01*
X061500Y011750D02*
X061500Y008250D01*
X062500Y008500D02*
X072000Y008500D01*
X072000Y011250D01*
X068750Y013500D02*
X067000Y013500D01*
X066500Y013000D02*
X066000Y013500D01*
X066000Y015500D02*
X066500Y016000D01*
X070500Y016000D01*
X070000Y017000D02*
X067500Y017000D01*
X067000Y016500D01*
X066000Y018500D02*
X070750Y018500D01*
X071500Y019250D01*
X071500Y024500D01*
X071000Y024500D01*
X070000Y024500D02*
X068000Y022500D01*
X064000Y022500D01*
X063500Y021000D02*
X070500Y021000D01*
X071000Y021500D01*
X070500Y022000D02*
X059500Y022000D01*
X060500Y021500D02*
X070000Y021500D01*
X070500Y022000D02*
X071000Y022500D01*
X070000Y020500D02*
X069000Y019500D01*
X065000Y019500D01*
X065000Y018500D01*
X064000Y017500D02*
X063500Y017000D01*
X057500Y017000D01*
X059500Y016000D02*
X060500Y016000D01*
X061000Y016500D01*
X061000Y013500D02*
X060500Y013000D01*
X059750Y013000D01*
X056500Y009750D01*
X061500Y011750D02*
X061750Y012000D01*
X062500Y012000D01*
X063000Y012500D01*
X063500Y008000D02*
X063000Y007500D01*
X062500Y007500D01*
X061750Y006500D02*
X061500Y006500D01*
X061750Y006500D02*
X062000Y006250D01*
X062000Y003750D01*
X062125Y003625D01*
X060875Y003625D02*
X060750Y003750D01*
X060750Y006250D01*
X060500Y006500D01*
X060250Y006500D01*
X059000Y006500D02*
X058750Y006500D01*
X058500Y006250D01*
X058500Y003750D01*
X058375Y003625D01*
X056000Y003750D02*
X055875Y003625D01*
X056000Y003750D02*
X056000Y006250D01*
X056250Y006500D01*
X056500Y006500D01*
X064625Y003625D02*
X064750Y003750D01*
X064750Y006250D01*
X065000Y006500D01*
X065250Y006500D01*
X065500Y006750D01*
X066000Y007250D02*
X066000Y003750D01*
X065875Y003625D01*
X068375Y003625D02*
X068500Y003750D01*
X068500Y006250D01*
X068750Y006500D01*
X069000Y006500D01*
X069750Y006250D02*
X069750Y003750D01*
X069625Y003625D01*
X072000Y003750D02*
X072125Y003625D01*
X072000Y003750D02*
X072000Y006500D01*
X071000Y007500D01*
X067500Y007500D01*
X069750Y006250D02*
X070000Y006500D01*
X070250Y006500D01*
X059000Y020000D02*
X060500Y021500D01*
X058750Y026000D02*
X060750Y028000D01*
X062500Y028000D01*
X063000Y028500D01*
X063500Y029000D02*
X062500Y029000D01*
X063500Y029000D02*
X064000Y028500D01*
X066750Y027500D02*
X061250Y033000D01*
X055750Y033000D01*
X053750Y035000D01*
X053750Y036500D01*
X056000Y036500D01*
X056500Y036000D02*
X070500Y036000D01*
X071000Y035500D01*
X062000Y034500D02*
X061500Y034000D01*
X056500Y034000D01*
X056000Y033500D01*
X056000Y035500D02*
X056500Y036000D01*
X057000Y035500D02*
X058000Y035500D01*
X059000Y034500D01*
X061500Y038000D02*
X062000Y038500D01*
X062000Y039500D02*
X060500Y039500D01*
X059000Y041500D02*
X058000Y041500D01*
X046500Y033250D02*
X046500Y024000D01*
X032500Y024000D01*
X032000Y024500D01*
X032000Y023500D02*
X033000Y023500D01*
X034000Y023500D01*
X035000Y023500D01*
X036000Y023500D01*
X037000Y023500D01*
X038000Y023500D01*
X039000Y023500D01*
X040000Y023500D01*
X041000Y023500D01*
X042000Y023500D01*
X043000Y023500D01*
X044000Y023500D01*
X044000Y024500D02*
X043500Y025000D01*
X034000Y025000D01*
X030500Y028500D01*
X033000Y029000D02*
X033000Y030000D01*
X033500Y030500D01*
X034000Y030000D02*
X042000Y030000D01*
X046000Y030000D01*
X046000Y033000D01*
X045500Y033500D01*
X045750Y034000D02*
X046500Y033250D01*
X045750Y034000D02*
X043000Y034000D01*
X042500Y034500D01*
X041000Y035000D02*
X041000Y032000D01*
X041500Y031250D02*
X036500Y031250D01*
X036500Y031500D01*
X036000Y032000D01*
X031000Y032000D01*
X030500Y031500D01*
X030500Y032500D02*
X031000Y033000D01*
X036000Y033000D01*
X036500Y032500D01*
X039000Y035000D01*
X041000Y035000D01*
X045500Y035000D01*
X045500Y037500D01*
X036500Y031250D02*
X036500Y030500D01*
X037500Y030500D02*
X037750Y030750D01*
X042000Y030750D01*
X042250Y031000D01*
X045000Y031000D01*
X045500Y030500D01*
X045500Y029500D02*
X045000Y029000D01*
X033000Y029000D01*
X033500Y029500D02*
X034000Y030000D01*
X036500Y028500D02*
X037000Y028000D01*
X045000Y028000D01*
X042500Y029500D02*
X042000Y030000D01*
X045500Y021000D02*
X031000Y021000D01*
X030500Y020500D01*
X030500Y019500D02*
X030000Y019000D01*
X026500Y019000D01*
X026500Y017500D01*
X027500Y016500D01*
X027250Y016000D02*
X026000Y014750D01*
X026000Y009500D01*
X030000Y009500D01*
X030500Y009000D01*
X034000Y009000D01*
X034500Y009500D01*
X035000Y009750D02*
X034750Y010000D01*
X033000Y010000D01*
X032500Y010500D01*
X032500Y009500D02*
X030500Y009500D01*
X030000Y010000D01*
X031500Y008500D02*
X032000Y008000D01*
X033000Y008000D01*
X033250Y007500D02*
X032000Y007500D01*
X031000Y006500D01*
X031000Y003750D01*
X030875Y003625D01*
X033375Y003625D02*
X033500Y003750D01*
X033500Y006250D01*
X033750Y006500D01*
X034000Y006500D01*
X033250Y007500D02*
X033750Y008000D01*
X035000Y008000D01*
X035500Y008500D01*
X035750Y009000D02*
X035000Y009000D01*
X035000Y009750D01*
X035500Y009750D02*
X035500Y009500D01*
X035500Y009750D02*
X035000Y010250D01*
X035000Y010750D01*
X034750Y011000D01*
X026500Y011000D01*
X026500Y014250D01*
X027250Y015000D01*
X027750Y015000D01*
X029750Y017000D01*
X039000Y017000D01*
X042500Y013500D01*
X043000Y013000D02*
X035000Y013000D01*
X034500Y013500D01*
X033500Y013500D02*
X035000Y012000D01*
X035500Y012000D01*
X036000Y011500D01*
X036000Y009250D01*
X036250Y009000D01*
X038000Y009000D01*
X037750Y009500D02*
X037500Y009500D01*
X037750Y009500D02*
X038250Y010000D01*
X041000Y010000D01*
X042500Y011500D01*
X042500Y012500D02*
X041000Y011000D01*
X038750Y011000D01*
X037750Y010000D01*
X037000Y010000D01*
X036500Y009500D01*
X036000Y008750D02*
X036000Y008000D01*
X036000Y008750D02*
X035750Y009000D01*
X038000Y008000D02*
X039000Y008000D01*
X040000Y009000D01*
X040500Y008500D02*
X039500Y007500D01*
X034750Y007500D01*
X036000Y006250D02*
X036000Y003750D01*
X035875Y003625D01*
X037125Y003625D02*
X037250Y003750D01*
X037250Y006250D01*
X037500Y006500D01*
X037750Y006500D01*
X036500Y006500D02*
X036250Y006500D01*
X036000Y006250D01*
X039000Y006500D02*
X039250Y006500D01*
X039500Y006250D01*
X039500Y003750D01*
X039625Y003625D01*
X040750Y003750D02*
X040875Y003625D01*
X040750Y003750D02*
X040750Y006250D01*
X040500Y006500D01*
X040250Y006500D01*
X035500Y010500D02*
X035500Y011500D01*
X031500Y011500D01*
X031750Y013500D02*
X030500Y013500D01*
X030250Y014000D02*
X031750Y014000D01*
X032250Y014500D01*
X032500Y014500D01*
X032250Y014000D02*
X036000Y014000D01*
X036500Y014500D01*
X037000Y014500D02*
X037500Y014500D01*
X037000Y014500D02*
X037000Y015750D01*
X036250Y016500D01*
X032000Y016500D01*
X032000Y016000D02*
X034750Y016000D01*
X035000Y015750D01*
X035000Y014500D01*
X035500Y014500D01*
X033500Y014500D02*
X033000Y015000D01*
X030000Y015000D01*
X028500Y013500D01*
X027500Y013500D01*
X027500Y012500D02*
X028750Y012500D01*
X030250Y014000D01*
X031750Y013500D02*
X032250Y014000D01*
X031500Y015500D02*
X032000Y016000D01*
X029250Y017500D02*
X027750Y016000D01*
X027250Y016000D01*
X029250Y017500D02*
X039000Y017500D01*
X042000Y014500D01*
X042500Y014500D01*
X040000Y018500D02*
X033500Y018500D01*
X035750Y019000D02*
X040500Y019000D01*
X044500Y020000D02*
X045000Y020500D01*
X044500Y020000D02*
X029000Y020000D01*
X027500Y021500D01*
X023000Y022500D02*
X023000Y011000D01*
X014500Y011000D01*
X014000Y011500D02*
X012250Y009750D01*
X006250Y009750D01*
X006000Y010000D01*
X006000Y028000D01*
X012500Y028000D01*
X013000Y028500D01*
X013500Y024500D02*
X020000Y024500D01*
X020500Y024000D02*
X021500Y024000D01*
X023000Y022500D01*
X021500Y023500D02*
X021000Y023500D01*
X021500Y023500D02*
X021500Y019250D01*
X021250Y019000D01*
X018500Y019000D01*
X017000Y017500D01*
X016500Y017250D02*
X016250Y017000D01*
X013500Y017000D01*
X013000Y017500D01*
X011000Y017500D02*
X008500Y020000D01*
X008500Y022500D01*
X014000Y022500D01*
X015000Y023500D01*
X016500Y024000D02*
X017000Y023500D01*
X017500Y023000D01*
X020500Y023000D01*
X021000Y022500D01*
X021000Y021500D02*
X020500Y021500D01*
X020500Y020250D01*
X020250Y020000D01*
X016500Y020000D01*
X016500Y017250D01*
X017000Y016500D02*
X019000Y018500D01*
X019750Y018500D01*
X020000Y020500D02*
X016000Y020500D01*
X015000Y019500D01*
X019750Y021250D02*
X009000Y021250D01*
X007500Y023000D02*
X011500Y023000D01*
X012000Y023500D01*
X007500Y023000D02*
X007500Y016250D01*
X007750Y016000D01*
X009500Y016000D01*
X010000Y015500D01*
X010000Y014500D02*
X009500Y014000D01*
X007750Y014000D01*
X007000Y014750D01*
X007000Y024000D01*
X016500Y024000D01*
X020000Y023500D02*
X020500Y024000D01*
X020000Y021500D02*
X019750Y021250D01*
X020000Y016000D02*
X017500Y016000D01*
X017000Y015500D01*
X017250Y013000D02*
X016500Y013000D01*
X016000Y012500D01*
X017250Y013000D02*
X017750Y012500D01*
X018500Y012000D02*
X012500Y012000D01*
X012000Y011500D01*
X011000Y012500D02*
X009000Y010500D01*
X006500Y010250D02*
X009250Y013000D01*
X010500Y013000D01*
X011000Y013500D01*
X010000Y013500D02*
X008250Y013500D01*
X011500Y007500D02*
X011500Y006500D01*
X011250Y006500D01*
X011000Y006250D01*
X011000Y003750D01*
X010875Y003625D01*
X012125Y003625D02*
X012250Y003750D01*
X012250Y006250D01*
X012500Y006500D01*
X012750Y006500D01*
X014750Y006250D02*
X014750Y003750D01*
X014625Y003625D01*
X015875Y003625D02*
X016000Y003750D01*
X016000Y007250D01*
X015500Y006750D02*
X015250Y006500D01*
X015000Y006500D01*
X014750Y006250D01*
X017750Y006500D02*
X018000Y006500D01*
X018250Y006250D01*
X018250Y003750D01*
X018375Y003625D01*
X019500Y003750D02*
X019625Y003625D01*
X019500Y003750D02*
X019500Y006250D01*
X019250Y006500D01*
X019000Y006500D01*
X021500Y006500D02*
X021750Y006500D01*
X022000Y006250D01*
X022000Y003750D01*
X022125Y003625D01*
X018500Y012000D02*
X022000Y015500D01*
X009000Y006500D02*
X008750Y006500D01*
X008500Y006250D01*
X008500Y003750D01*
X008375Y003625D01*
X006000Y003750D02*
X005875Y003625D01*
X006000Y003750D02*
X006000Y006250D01*
X006250Y006500D01*
X006500Y006500D01*
X045500Y021000D02*
X046000Y020500D01*
M02*
