G75*
%MOIN*%
%OFA0B0*%
%FSLAX24Y24*%
%IPPOS*%
%LPD*%
%AMOC8*
5,1,8,0,0,1.08239X$1,22.5*
%
%ADD10C,0.0170*%
%ADD11OC8,0.0520*%
%ADD12R,0.0800X0.5160*%
%ADD13OC8,0.0560*%
%ADD14OC8,0.0660*%
%ADD15OC8,0.0600*%
%ADD16C,0.0280*%
%ADD17C,0.0480*%
%ADD18C,0.0160*%
D10*
X023885Y041585D02*
X023885Y041850D01*
X023973Y041939D01*
X024061Y041939D01*
X024150Y041850D01*
X024150Y041585D01*
X024415Y041585D02*
X023885Y041585D01*
X024150Y041850D02*
X024238Y041939D01*
X024327Y041939D01*
X024415Y041850D01*
X024415Y041585D01*
X024415Y042230D02*
X024061Y042230D01*
X023885Y042406D01*
X024061Y042583D01*
X024415Y042583D01*
X024150Y042583D02*
X024150Y042230D01*
X024327Y042874D02*
X024415Y042963D01*
X024415Y043139D01*
X024327Y043228D01*
X024327Y042874D02*
X023973Y042874D01*
X023885Y042963D01*
X023885Y043139D01*
X023973Y043228D01*
X048885Y043139D02*
X048885Y042874D01*
X049415Y042874D01*
X049415Y043139D01*
X049327Y043228D01*
X049238Y043228D01*
X049150Y043139D01*
X049150Y042874D01*
X049150Y043139D02*
X049061Y043228D01*
X048973Y043228D01*
X048885Y043139D01*
X048885Y042583D02*
X049415Y042583D01*
X049415Y042230D02*
X048885Y042230D01*
X049061Y042406D01*
X048885Y042583D01*
X048973Y041939D02*
X049061Y041939D01*
X049150Y041850D01*
X049150Y041585D01*
X049415Y041585D02*
X049415Y041850D01*
X049327Y041939D01*
X049238Y041939D01*
X049150Y041850D01*
X048973Y041939D02*
X048885Y041850D01*
X048885Y041585D01*
X049415Y041585D01*
X073885Y042085D02*
X073885Y042262D01*
X073885Y042173D02*
X074415Y042173D01*
X074415Y042085D02*
X074415Y042262D01*
X074327Y042515D02*
X074415Y042603D01*
X074415Y042780D01*
X074327Y042868D01*
X073973Y042868D01*
X073885Y042780D01*
X073885Y042603D01*
X073973Y042515D01*
X074327Y042515D01*
X074415Y043159D02*
X074415Y043424D01*
X074327Y043513D01*
X074238Y043513D01*
X074150Y043424D01*
X074150Y043159D01*
X074415Y043159D02*
X073885Y043159D01*
X073885Y043424D01*
X073973Y043513D01*
X074061Y043513D01*
X074150Y043424D01*
D11*
X071000Y041500D03*
X071000Y040500D03*
X072000Y040500D03*
X073000Y040500D03*
X074000Y040500D03*
X071000Y039500D03*
X071000Y038500D03*
X071000Y037500D03*
X071000Y036500D03*
X072000Y036500D03*
X073000Y036500D03*
X074000Y035500D03*
X071000Y035500D03*
X071000Y034500D03*
X068000Y034500D03*
X067000Y034500D03*
X067000Y035500D03*
X068000Y035500D03*
X068000Y036500D03*
X068000Y037500D03*
X068000Y038500D03*
X068000Y039500D03*
X068000Y040500D03*
X067000Y040500D03*
X066000Y040500D03*
X065000Y040500D03*
X063000Y039500D03*
X062000Y039500D03*
X062000Y038500D03*
X063000Y038500D03*
X062000Y037500D03*
X062000Y036500D03*
X063000Y036500D03*
X062000Y035500D03*
X062000Y034500D03*
X059000Y034500D03*
X059000Y035500D03*
X059000Y036500D03*
X058000Y036500D03*
X059000Y037500D03*
X059000Y038500D03*
X058000Y038500D03*
X058000Y039500D03*
X059000Y039500D03*
X059000Y040500D03*
X059000Y041500D03*
X058000Y041500D03*
X062000Y041500D03*
X063000Y041500D03*
X062000Y040500D03*
X065000Y036500D03*
X066000Y035500D03*
X066000Y034500D03*
X066000Y030500D03*
X067000Y030500D03*
X063000Y020500D03*
X061000Y020500D03*
X061000Y018500D03*
X062000Y018500D03*
X063000Y018500D03*
X063000Y017500D03*
X062000Y017500D03*
X061000Y017500D03*
X061000Y016500D03*
X061000Y015500D03*
X061000Y014500D03*
X061000Y013500D03*
X061000Y012500D03*
X062000Y012500D03*
X063000Y012500D03*
X063000Y011500D03*
X062000Y011500D03*
X061000Y011500D03*
X060000Y012500D03*
X060000Y013500D03*
X060000Y014500D03*
X060000Y015500D03*
X060000Y016500D03*
X060000Y017500D03*
X058000Y016500D03*
X058000Y014500D03*
X064000Y012500D03*
X065000Y012500D03*
X066000Y012500D03*
X066000Y011500D03*
X065000Y011500D03*
X064000Y011500D03*
X063000Y009500D03*
X065000Y009500D03*
X067000Y012500D03*
X067000Y013500D03*
X067000Y014500D03*
X067000Y015500D03*
X067000Y016500D03*
X067000Y017500D03*
X066000Y017500D03*
X065000Y017500D03*
X064000Y017500D03*
X064000Y018500D03*
X065000Y018500D03*
X066000Y018500D03*
X066000Y016500D03*
X066000Y015500D03*
X066000Y014500D03*
X066000Y013500D03*
X069000Y015500D03*
X069000Y017500D03*
X045000Y013500D03*
X045000Y011500D03*
X042500Y011500D03*
X042500Y010500D03*
X042500Y009500D03*
X039500Y009500D03*
X039500Y010500D03*
X039500Y011500D03*
X039500Y012500D03*
X039500Y013500D03*
X039500Y014500D03*
X039500Y015500D03*
X042500Y015500D03*
X042500Y014500D03*
X042500Y013500D03*
X042500Y012500D03*
X030500Y012500D03*
X030500Y011500D03*
X030500Y010500D03*
X029500Y009000D03*
X027500Y009000D03*
X027500Y010500D03*
X027500Y011500D03*
X027500Y012500D03*
X027500Y013500D03*
X027500Y014500D03*
X027500Y015500D03*
X027500Y016500D03*
X027500Y018000D03*
X029500Y018000D03*
X030500Y016500D03*
X030500Y015500D03*
X030500Y014500D03*
X030500Y013500D03*
X030500Y019500D03*
X030500Y020500D03*
X030500Y021500D03*
X030500Y022500D03*
X030500Y023500D03*
X030500Y024500D03*
X030500Y025500D03*
X029500Y027000D03*
X027500Y027000D03*
X027500Y025500D03*
X027500Y024500D03*
X027500Y023500D03*
X027500Y022500D03*
X027500Y021500D03*
X027500Y020500D03*
X027500Y019500D03*
X019000Y017500D03*
X017000Y017500D03*
X016000Y017500D03*
X016000Y016500D03*
X017000Y016500D03*
X017000Y015500D03*
X016000Y015500D03*
X016000Y014500D03*
X017000Y014500D03*
X017000Y013500D03*
X016000Y013500D03*
X016000Y012500D03*
X017000Y012500D03*
X016000Y011500D03*
X015000Y011500D03*
X014000Y011500D03*
X013000Y011500D03*
X013000Y012500D03*
X014000Y012500D03*
X015000Y012500D03*
X012000Y012500D03*
X011000Y012500D03*
X010000Y012500D03*
X010000Y013500D03*
X011000Y013500D03*
X011000Y014500D03*
X010000Y014500D03*
X010000Y015500D03*
X011000Y015500D03*
X011000Y016500D03*
X010000Y016500D03*
X010000Y017500D03*
X011000Y017500D03*
X012000Y017500D03*
X012000Y018500D03*
X011000Y018500D03*
X013000Y018500D03*
X014000Y018500D03*
X015000Y018500D03*
X015000Y017500D03*
X014000Y017500D03*
X013000Y017500D03*
X016000Y018500D03*
X013000Y020500D03*
X011000Y020500D03*
X008000Y016500D03*
X008000Y014500D03*
X011000Y011500D03*
X012000Y011500D03*
X013000Y009500D03*
X015000Y009500D03*
X019000Y015500D03*
X027500Y028500D03*
X027500Y029500D03*
X027500Y030500D03*
X027500Y031500D03*
X027500Y032500D03*
X027500Y033500D03*
X027500Y034500D03*
X030500Y034500D03*
X030500Y033500D03*
X030500Y032500D03*
X030500Y031500D03*
X030500Y030500D03*
X030500Y029500D03*
X030500Y028500D03*
X033500Y028500D03*
X033500Y029500D03*
X033500Y030500D03*
X033500Y031500D03*
X033500Y032500D03*
X033500Y033500D03*
X033500Y034500D03*
X036500Y034500D03*
X036500Y033500D03*
X036500Y032500D03*
X036500Y031500D03*
X036500Y030500D03*
X036500Y029500D03*
X036500Y028500D03*
X042500Y028500D03*
X042500Y029500D03*
X042500Y030500D03*
X042500Y031500D03*
X042500Y032500D03*
X042500Y033500D03*
X042500Y034500D03*
X042500Y036000D03*
X042500Y037500D03*
X042500Y038500D03*
X042500Y039500D03*
X042500Y040500D03*
X042500Y041500D03*
X042500Y042500D03*
X042500Y043500D03*
X045500Y043500D03*
X045500Y042500D03*
X045500Y041500D03*
X045500Y040500D03*
X045500Y039500D03*
X045500Y038500D03*
X045500Y037500D03*
X044500Y036000D03*
X045500Y034500D03*
X045500Y033500D03*
X045500Y032500D03*
X045500Y031500D03*
X045500Y030500D03*
X045500Y029500D03*
X045500Y028500D03*
X044500Y027000D03*
X042500Y027000D03*
X030500Y037500D03*
X027500Y037500D03*
X027500Y040500D03*
X030500Y040500D03*
X033000Y041000D03*
X033000Y043000D03*
X030500Y043500D03*
X030500Y043500D03*
X027500Y043500D03*
X027500Y043500D03*
X068000Y041500D03*
D12*
X002125Y003625D03*
X003375Y003625D03*
X004625Y003625D03*
X005875Y003625D03*
X007125Y003625D03*
X008375Y003625D03*
X009625Y003625D03*
X010875Y003625D03*
X012125Y003625D03*
X013375Y003625D03*
X014625Y003625D03*
X015875Y003625D03*
X017125Y003625D03*
X018375Y003625D03*
X019625Y003625D03*
X020875Y003625D03*
X022125Y003625D03*
X023375Y003625D03*
X027125Y003625D03*
X028375Y003625D03*
X029625Y003625D03*
X030875Y003625D03*
X032125Y003625D03*
X033375Y003625D03*
X034625Y003625D03*
X035875Y003625D03*
X037125Y003625D03*
X038375Y003625D03*
X039625Y003625D03*
X040875Y003625D03*
X042125Y003625D03*
X043375Y003625D03*
X044625Y003625D03*
X045875Y003625D03*
X047125Y003625D03*
X048375Y003625D03*
X052125Y003625D03*
X053375Y003625D03*
X054625Y003625D03*
X055875Y003625D03*
X057125Y003625D03*
X058375Y003625D03*
X059625Y003625D03*
X060875Y003625D03*
X062125Y003625D03*
X063375Y003625D03*
X064625Y003625D03*
X065875Y003625D03*
X067125Y003625D03*
X068375Y003625D03*
X069625Y003625D03*
X070875Y003625D03*
X072125Y003625D03*
X073375Y003625D03*
D13*
X071000Y019500D03*
X070000Y019500D03*
X070000Y020500D03*
X071000Y020500D03*
X071000Y021500D03*
X070000Y021500D03*
X070000Y022500D03*
X071000Y022500D03*
X071000Y023500D03*
X070000Y023500D03*
X070000Y024500D03*
X071000Y024500D03*
X071000Y025500D03*
X070000Y025500D03*
X065000Y027500D03*
X064000Y027500D03*
X064000Y028500D03*
X065000Y028500D03*
X063000Y028500D03*
X062000Y028500D03*
X061000Y028500D03*
X061000Y027500D03*
X062000Y027500D03*
X063000Y027500D03*
X057000Y027500D03*
X056000Y027500D03*
X056000Y026500D03*
X057000Y026500D03*
X057000Y025500D03*
X056000Y025500D03*
X056000Y024500D03*
X057000Y024500D03*
X057000Y023500D03*
X056000Y023500D03*
X056000Y022500D03*
X057000Y022500D03*
X057000Y021500D03*
X056000Y021500D03*
X056000Y020500D03*
X057000Y020500D03*
X057000Y019500D03*
X056000Y019500D03*
X046000Y019500D03*
X045000Y019500D03*
X045000Y020500D03*
X046000Y020500D03*
X046000Y021500D03*
X045000Y021500D03*
X045000Y022500D03*
X046000Y022500D03*
X046000Y023500D03*
X045000Y023500D03*
X045000Y024500D03*
X046000Y024500D03*
X046000Y025500D03*
X045000Y025500D03*
X056000Y028500D03*
X057000Y028500D03*
X057000Y029500D03*
X056000Y029500D03*
X056000Y030500D03*
X057000Y030500D03*
X057000Y031500D03*
X056000Y031500D03*
X056000Y032500D03*
X057000Y032500D03*
X057000Y033500D03*
X056000Y033500D03*
X056000Y034500D03*
X057000Y034500D03*
X057000Y035500D03*
X056000Y035500D03*
X056000Y036500D03*
X057000Y036500D03*
X057000Y037500D03*
X056000Y037500D03*
X056000Y038500D03*
X057000Y038500D03*
X037500Y015500D03*
X036500Y015500D03*
X036500Y014500D03*
X037500Y014500D03*
X037500Y013500D03*
X036500Y013500D03*
X035500Y013500D03*
X034500Y013500D03*
X033500Y013500D03*
X033500Y014500D03*
X034500Y014500D03*
X035500Y014500D03*
X035500Y015500D03*
X034500Y015500D03*
X033500Y015500D03*
X032500Y015500D03*
X032500Y014500D03*
X032500Y013500D03*
X032500Y010500D03*
X032500Y009500D03*
X032500Y008500D03*
X033500Y008500D03*
X034500Y008500D03*
X035500Y008500D03*
X035500Y009500D03*
X034500Y009500D03*
X033500Y009500D03*
X033500Y010500D03*
X034500Y010500D03*
X035500Y010500D03*
X036500Y010500D03*
X037500Y010500D03*
X037500Y009500D03*
X036500Y009500D03*
X036500Y008500D03*
X037500Y008500D03*
X021000Y019500D03*
X020000Y019500D03*
X020000Y020500D03*
X021000Y020500D03*
X021000Y021500D03*
X020000Y021500D03*
X020000Y022500D03*
X021000Y022500D03*
X021000Y023500D03*
X020000Y023500D03*
X020000Y024500D03*
X021000Y024500D03*
X021000Y025500D03*
X020000Y025500D03*
X017000Y023500D03*
X016000Y023500D03*
X015000Y023500D03*
X013000Y023500D03*
X012000Y023500D03*
X011000Y023500D03*
X011000Y027500D03*
X012000Y027500D03*
X012000Y028500D03*
X011000Y028500D03*
X013000Y028500D03*
X014000Y028500D03*
X015000Y028500D03*
X015000Y027500D03*
X014000Y027500D03*
X013000Y027500D03*
D14*
X072000Y031500D03*
X072000Y035500D03*
D15*
X044000Y024500D03*
X043000Y024500D03*
X042000Y024500D03*
X042000Y023500D03*
X043000Y023500D03*
X044000Y023500D03*
X041000Y023500D03*
X040000Y023500D03*
X039000Y023500D03*
X039000Y024500D03*
X040000Y024500D03*
X041000Y024500D03*
X038000Y024500D03*
X037000Y024500D03*
X036000Y024500D03*
X035000Y024500D03*
X035000Y023500D03*
X036000Y023500D03*
X037000Y023500D03*
X038000Y023500D03*
X034000Y023500D03*
X033000Y023500D03*
X032000Y023500D03*
X032000Y024500D03*
X033000Y024500D03*
X034000Y024500D03*
X022500Y016500D03*
X022500Y008500D03*
X047500Y008500D03*
X047500Y016500D03*
X072500Y016500D03*
X072500Y008500D03*
D16*
X072500Y015500D01*
X073500Y015500D01*
X073500Y040500D01*
X074000Y040500D01*
X073500Y040500D02*
X073000Y040500D01*
X072000Y040500D01*
X071000Y040500D01*
X070500Y040000D01*
X064500Y040000D01*
X063000Y041500D01*
X062000Y041500D01*
X062750Y041000D02*
X064750Y039000D01*
X069500Y039000D01*
X071000Y037500D01*
X071500Y037000D02*
X068500Y037000D01*
X068000Y036500D01*
X066000Y038500D01*
X063000Y038500D01*
X062500Y039000D01*
X057500Y039000D01*
X057000Y038500D01*
X056000Y038500D01*
X054750Y038500D02*
X057250Y041000D01*
X062750Y041000D01*
X057500Y042000D02*
X052750Y037250D01*
X052750Y026500D01*
X055250Y026500D01*
X061000Y027500D02*
X062250Y026250D01*
X063750Y026250D01*
X065000Y027500D01*
X067000Y025500D01*
X070000Y025500D01*
X071000Y025500D01*
X064000Y027500D02*
X063250Y026750D01*
X063000Y026750D01*
X056000Y021500D02*
X055250Y020750D01*
X055250Y018750D01*
X060500Y018750D01*
X061750Y020000D01*
X065000Y020000D01*
X065750Y019000D02*
X065500Y018750D01*
X065500Y018000D01*
X066500Y018000D01*
X068500Y018000D01*
X069000Y017500D01*
X071500Y017500D01*
X072500Y016500D01*
X072500Y015500D02*
X069000Y015500D01*
X068500Y015000D01*
X066500Y015000D01*
X066000Y014500D01*
X064500Y014500D01*
X064500Y017750D01*
X064250Y018000D01*
X063500Y018000D01*
X063000Y018500D01*
X065750Y019000D02*
X069500Y019000D01*
X070000Y019500D01*
X071000Y019500D01*
X066500Y018000D02*
X066000Y017500D01*
X064500Y014500D02*
X061000Y014500D01*
X060000Y015500D01*
X059000Y015500D01*
X058000Y014500D01*
X058000Y016500D02*
X060000Y016500D01*
X060000Y019500D02*
X057000Y019500D01*
X056000Y019500D01*
X060000Y019500D02*
X061000Y020500D01*
X064500Y014500D02*
X064500Y012000D01*
X065000Y011500D01*
X063000Y009500D02*
X062500Y009000D01*
X062250Y009000D01*
X062000Y008750D01*
X062000Y007000D01*
X063250Y007000D01*
X064000Y007750D01*
X067000Y007750D01*
X067250Y008000D01*
X071250Y008000D01*
X071500Y007750D01*
X073250Y007750D01*
X073250Y003750D01*
X073375Y003625D01*
X070875Y003625D02*
X070750Y003750D01*
X070750Y007000D01*
X067000Y007000D01*
X067000Y003750D01*
X067125Y003625D01*
X063375Y003625D02*
X063250Y003750D01*
X063250Y007000D01*
X062000Y007000D02*
X059500Y007000D01*
X056750Y007000D01*
X057000Y006750D01*
X057000Y003750D01*
X057125Y003625D01*
X054750Y003750D02*
X054625Y003625D01*
X054750Y003750D02*
X054750Y007000D01*
X056750Y007000D01*
X059500Y007000D02*
X059500Y003750D01*
X059625Y003625D01*
X067000Y007000D02*
X067000Y007750D01*
X048250Y006500D02*
X048250Y003750D01*
X048375Y003625D01*
X045875Y003625D02*
X045750Y003750D01*
X045750Y006500D01*
X048250Y006500D01*
X048250Y013500D01*
X045000Y013500D01*
X045000Y016500D01*
X045000Y019500D01*
X046000Y019500D01*
X045000Y016500D02*
X043500Y016500D01*
X042500Y015500D01*
X042250Y015000D02*
X039250Y018000D01*
X031250Y018000D01*
X030750Y018500D01*
X028000Y018500D01*
X027500Y018000D01*
X029500Y018000D02*
X030500Y018000D01*
X022500Y016500D02*
X021500Y017500D01*
X019000Y017500D01*
X016000Y017500D02*
X015500Y017500D01*
X015500Y018750D01*
X015250Y019000D01*
X012500Y019000D01*
X011500Y020000D01*
X011500Y017250D01*
X011250Y017000D01*
X010500Y017000D01*
X010000Y016500D01*
X008000Y016500D01*
X008500Y015000D02*
X010500Y015000D01*
X011000Y014500D01*
X012500Y014500D01*
X012500Y018000D01*
X013000Y018500D01*
X011500Y020000D02*
X011000Y020500D01*
X013000Y020500D02*
X013750Y020500D01*
X014000Y020750D01*
X020000Y019500D02*
X021000Y019500D01*
X019000Y015500D02*
X018500Y015000D01*
X016500Y015000D01*
X016000Y014500D01*
X012500Y014500D01*
X013500Y014000D02*
X016500Y014000D01*
X017000Y014500D01*
X013500Y014000D02*
X012000Y012500D01*
X008500Y015000D02*
X008000Y014500D01*
X013000Y009500D02*
X013250Y009500D01*
X013250Y008000D01*
X010500Y008000D01*
X009500Y007000D01*
X007000Y007000D01*
X006750Y007000D01*
X007000Y006750D01*
X007000Y003750D01*
X007125Y003625D01*
X004750Y003750D02*
X004625Y003625D01*
X004750Y003750D02*
X004750Y007000D01*
X006750Y007000D01*
X009500Y007000D02*
X009500Y003750D01*
X009625Y003625D01*
X013250Y003750D02*
X013375Y003625D01*
X013250Y003750D02*
X013250Y006750D01*
X014500Y006750D01*
X013250Y006750D02*
X013250Y007750D01*
X017000Y007750D01*
X017000Y007000D01*
X020750Y007000D01*
X023250Y007000D01*
X023250Y003750D01*
X023375Y003625D01*
X020875Y003625D02*
X020750Y003750D01*
X020750Y007000D01*
X022500Y008500D02*
X021500Y009500D01*
X015000Y009500D01*
X013250Y008000D02*
X013250Y007750D01*
X017000Y007000D02*
X017000Y006750D01*
X017000Y003750D01*
X017125Y003625D01*
X027500Y010500D02*
X030500Y010500D01*
X029500Y009000D02*
X029500Y003750D01*
X029625Y003625D01*
X032125Y003625D02*
X032250Y003750D01*
X032250Y007000D01*
X034250Y007000D01*
X037000Y007000D01*
X038250Y007000D01*
X039500Y007000D01*
X042000Y007000D01*
X042000Y006500D01*
X045750Y006500D01*
X047500Y008500D02*
X044750Y011250D01*
X045000Y011500D01*
X043500Y013000D01*
X043500Y015000D01*
X042250Y015000D01*
X045000Y016500D02*
X047500Y016500D01*
X044750Y011250D02*
X044000Y010500D01*
X042500Y010500D01*
X042500Y009500D01*
X039500Y009500D01*
X038250Y007000D02*
X038250Y003750D01*
X038375Y003625D01*
X042000Y003750D02*
X042000Y006500D01*
X042000Y003750D02*
X042125Y003625D01*
X034625Y003625D02*
X034500Y003750D01*
X034500Y006750D01*
X034750Y006750D01*
X034500Y006750D02*
X034250Y007000D01*
X045000Y025500D02*
X046000Y025500D01*
X042500Y027000D02*
X035000Y027000D01*
X033500Y028500D01*
X032750Y028500D01*
X032250Y029000D01*
X028000Y029000D01*
X027500Y028500D01*
X027000Y028250D02*
X027250Y028000D01*
X028500Y028000D01*
X029500Y027000D01*
X027000Y028250D02*
X027000Y035000D01*
X030500Y035000D01*
X036000Y035000D01*
X036500Y034500D01*
X037500Y035500D01*
X044000Y035500D01*
X044500Y036000D01*
X042500Y037500D02*
X039000Y041000D01*
X033000Y041000D01*
X032000Y040000D01*
X027500Y040000D01*
X027500Y037500D01*
X027500Y040000D02*
X027500Y040500D01*
X030500Y043500D02*
X032500Y043500D01*
X033000Y043000D01*
X045000Y043000D01*
X045000Y038500D01*
X043500Y038500D01*
X042500Y039500D01*
X045000Y038500D02*
X045500Y038500D01*
X045000Y043000D02*
X045500Y043500D01*
X054250Y039500D02*
X057250Y042500D01*
X070750Y042500D01*
X073250Y042000D02*
X057500Y042000D01*
X054500Y036000D02*
X054250Y036000D01*
X054500Y036000D02*
X056000Y034500D01*
X061000Y035500D02*
X061500Y035000D01*
X067500Y035000D01*
X068000Y034500D01*
X071000Y031500D01*
X072000Y031500D01*
X071000Y034500D02*
X070000Y035500D01*
X068000Y035500D01*
X071500Y037000D02*
X071500Y038000D01*
X071000Y038500D01*
X072000Y036500D02*
X072000Y035500D01*
X074000Y035500D02*
X074000Y039750D01*
X074500Y040250D01*
X074500Y040750D01*
X073250Y042000D01*
X036500Y033500D02*
X036000Y034000D01*
X030000Y034000D01*
X030000Y030000D01*
X030500Y029500D01*
X030500Y034500D02*
X030500Y035000D01*
X020000Y025500D02*
X018000Y027500D01*
X015000Y027500D01*
X014250Y026750D01*
X011750Y026750D01*
X011000Y027500D01*
X020000Y025500D02*
X021000Y025500D01*
D17*
X014000Y020750D03*
X015000Y019500D03*
X019750Y018500D03*
X020000Y016000D03*
X022000Y015500D03*
X017750Y012500D03*
X014500Y011000D03*
X016000Y007250D03*
X015500Y006750D03*
X014500Y006750D03*
X012750Y006500D03*
X011500Y007500D03*
X009500Y007000D03*
X009000Y006500D03*
X007000Y007000D03*
X006500Y006500D03*
X006500Y010250D03*
X009000Y010500D03*
X008250Y013500D03*
X017000Y006750D03*
X017750Y006500D03*
X019000Y006500D03*
X021500Y006500D03*
X030000Y010000D03*
X031500Y008500D03*
X033000Y008000D03*
X034750Y007500D03*
X034750Y006750D03*
X034000Y006500D03*
X036000Y008000D03*
X037000Y007000D03*
X036500Y006500D03*
X037750Y006500D03*
X039000Y006500D03*
X039500Y007000D03*
X040250Y006500D03*
X038000Y008000D03*
X038000Y009000D03*
X040000Y009000D03*
X040500Y008500D03*
X043000Y013000D03*
X040000Y018500D03*
X040500Y019000D03*
X035750Y019000D03*
X033500Y018500D03*
X032000Y016500D03*
X031500Y015500D03*
X030500Y018000D03*
X031500Y011500D03*
X013500Y024500D03*
X009000Y021250D03*
X037500Y030500D03*
X041000Y032000D03*
X041500Y031250D03*
X045000Y028000D03*
X055250Y026500D03*
X059500Y022000D03*
X059000Y020000D03*
X057500Y017000D03*
X059500Y016000D03*
X065000Y020000D03*
X063500Y021000D03*
X064000Y022500D03*
X063000Y026750D03*
X062500Y029000D03*
X066750Y027500D03*
X061000Y035500D03*
X060500Y039500D03*
X054750Y038500D03*
X054250Y039500D03*
X054250Y036000D03*
X070750Y042500D03*
X070000Y017000D03*
X070500Y016000D03*
X068500Y013000D03*
X070250Y012000D03*
X072000Y011250D03*
X070750Y010000D03*
X069250Y009000D03*
X069000Y010500D03*
X067500Y007500D03*
X066000Y007250D03*
X065500Y006750D03*
X063500Y008000D03*
X062500Y007500D03*
X062500Y008500D03*
X061500Y008250D03*
X061500Y006500D03*
X060250Y006500D03*
X059000Y006500D03*
X056500Y006500D03*
X056500Y009750D03*
X064000Y010000D03*
X069000Y006500D03*
X070250Y006500D03*
D18*
X070000Y006500D01*
X069750Y006250D01*
X069750Y003750D01*
X069625Y003625D01*
X068500Y003750D02*
X068375Y003625D01*
X068500Y003750D02*
X068500Y006250D01*
X068750Y006500D01*
X069000Y006500D01*
X067500Y007500D02*
X071000Y007500D01*
X072000Y006500D01*
X072000Y003750D01*
X072125Y003625D01*
X066000Y003750D02*
X065875Y003625D01*
X066000Y003750D02*
X066000Y007250D01*
X065500Y006750D02*
X065250Y006500D01*
X065000Y006500D01*
X064750Y006250D01*
X064750Y003750D01*
X064625Y003625D01*
X062125Y003625D02*
X062000Y003750D01*
X062000Y006250D01*
X061750Y006500D01*
X061500Y006500D01*
X060750Y006250D02*
X060750Y003750D01*
X060875Y003625D01*
X058500Y003750D02*
X058375Y003625D01*
X058500Y003750D02*
X058500Y006250D01*
X058750Y006500D01*
X059000Y006500D01*
X060250Y006500D02*
X060500Y006500D01*
X060750Y006250D01*
X062500Y007500D02*
X063000Y007500D01*
X063500Y008000D01*
X062500Y008500D02*
X072000Y008500D01*
X072000Y011250D01*
X071250Y010250D02*
X071250Y009000D01*
X069250Y009000D01*
X070750Y010000D02*
X064000Y010000D01*
X063000Y010500D02*
X069000Y010500D01*
X070500Y011000D02*
X067500Y011000D01*
X066000Y012500D01*
X066500Y013000D02*
X068500Y013000D01*
X068750Y013500D02*
X070250Y012000D01*
X070500Y011000D02*
X071250Y010250D01*
X068750Y013500D02*
X067000Y013500D01*
X066500Y013000D02*
X066000Y013500D01*
X063500Y014000D02*
X063500Y012000D01*
X064000Y011500D01*
X063000Y010500D02*
X062000Y011500D01*
X061500Y011750D02*
X061500Y008250D01*
X059750Y013000D02*
X056500Y009750D01*
X059750Y013000D02*
X060500Y013000D01*
X061000Y013500D01*
X062500Y012000D02*
X063000Y012500D01*
X062500Y012000D02*
X061750Y012000D01*
X061500Y011750D01*
X063500Y014000D02*
X057750Y014000D01*
X054750Y017000D01*
X054750Y026000D01*
X058750Y026000D01*
X060750Y028000D01*
X062500Y028000D01*
X063000Y028500D01*
X063500Y029000D02*
X062500Y029000D01*
X063500Y029000D02*
X064000Y028500D01*
X066750Y027500D02*
X061250Y033000D01*
X055750Y033000D01*
X053750Y035000D01*
X053750Y036500D01*
X056000Y036500D01*
X056500Y036000D02*
X070500Y036000D01*
X071000Y035500D01*
X068000Y040500D02*
X067000Y040500D01*
X066500Y041000D02*
X066000Y040500D01*
X065000Y040500D01*
X066500Y041000D02*
X070500Y041000D01*
X071000Y041500D01*
X063000Y039500D02*
X062500Y040000D01*
X059500Y040000D01*
X059000Y040500D01*
X059000Y039500D02*
X058000Y039500D01*
X058000Y038500D02*
X059000Y038500D01*
X059000Y037500D02*
X058000Y036500D01*
X059000Y036500D02*
X059500Y037000D01*
X062500Y037000D01*
X063000Y036500D01*
X061500Y038000D02*
X054750Y038000D01*
X053250Y036500D01*
X053250Y027000D01*
X056500Y027000D01*
X057000Y026500D01*
X059500Y022000D02*
X070500Y022000D01*
X071000Y022500D01*
X071000Y021500D02*
X070500Y021000D01*
X063500Y021000D01*
X064000Y022500D02*
X068000Y022500D01*
X070000Y024500D01*
X071000Y024500D02*
X071500Y024500D01*
X071500Y019250D01*
X070750Y018500D01*
X066000Y018500D01*
X065000Y018500D02*
X065000Y019500D01*
X069000Y019500D01*
X070000Y020500D01*
X070000Y021500D02*
X060500Y021500D01*
X059000Y020000D01*
X057500Y017000D02*
X063500Y017000D01*
X064000Y017500D01*
X066000Y015500D02*
X066500Y016000D01*
X070500Y016000D01*
X070000Y017000D02*
X067500Y017000D01*
X067000Y016500D01*
X061000Y016500D02*
X060500Y016000D01*
X059500Y016000D01*
X046500Y024000D02*
X032500Y024000D01*
X032000Y024500D01*
X032000Y023500D02*
X033000Y023500D01*
X034000Y023500D01*
X035000Y023500D01*
X036000Y023500D01*
X037000Y023500D01*
X038000Y023500D01*
X039000Y023500D01*
X040000Y023500D01*
X041000Y023500D01*
X042000Y023500D01*
X043000Y023500D01*
X044000Y023500D01*
X044000Y024500D02*
X043500Y025000D01*
X034000Y025000D01*
X030500Y028500D01*
X033000Y029000D02*
X033000Y030000D01*
X033500Y030500D01*
X034000Y030000D02*
X042000Y030000D01*
X046000Y030000D01*
X046000Y033000D01*
X045500Y033500D01*
X045750Y034000D02*
X046500Y033250D01*
X046500Y024000D01*
X045500Y021000D02*
X046000Y020500D01*
X045500Y021000D02*
X031000Y021000D01*
X030500Y020500D01*
X030500Y019500D02*
X030000Y019000D01*
X026500Y019000D01*
X026500Y017500D01*
X027500Y016500D01*
X027250Y016000D02*
X026000Y014750D01*
X026000Y009500D01*
X030000Y009500D01*
X030500Y009000D01*
X034000Y009000D01*
X034500Y009500D01*
X035000Y009750D02*
X034750Y010000D01*
X033000Y010000D01*
X032500Y010500D01*
X032500Y009500D02*
X030500Y009500D01*
X030000Y010000D01*
X031500Y008500D02*
X032000Y008000D01*
X033000Y008000D01*
X033250Y007500D02*
X032000Y007500D01*
X031000Y006500D01*
X031000Y003750D01*
X030875Y003625D01*
X033375Y003625D02*
X033500Y003750D01*
X033500Y006250D01*
X033750Y006500D01*
X034000Y006500D01*
X033250Y007500D02*
X033750Y008000D01*
X035000Y008000D01*
X035500Y008500D01*
X035750Y009000D02*
X035000Y009000D01*
X035000Y009750D01*
X035500Y009750D02*
X035500Y009500D01*
X035500Y009750D02*
X035000Y010250D01*
X035000Y010750D01*
X034750Y011000D01*
X026500Y011000D01*
X026500Y014250D01*
X027250Y015000D01*
X027750Y015000D01*
X029750Y017000D01*
X039000Y017000D01*
X042500Y013500D01*
X043000Y013000D02*
X035000Y013000D01*
X034500Y013500D01*
X033500Y013500D02*
X035000Y012000D01*
X035500Y012000D01*
X036000Y011500D01*
X036000Y009250D01*
X036250Y009000D01*
X038000Y009000D01*
X037750Y009500D02*
X037500Y009500D01*
X037750Y009500D02*
X038250Y010000D01*
X041000Y010000D01*
X042500Y011500D01*
X042500Y012500D02*
X041000Y011000D01*
X038750Y011000D01*
X037750Y010000D01*
X037000Y010000D01*
X036500Y009500D01*
X036000Y008750D02*
X036000Y008000D01*
X036000Y008750D02*
X035750Y009000D01*
X038000Y008000D02*
X039000Y008000D01*
X040000Y009000D01*
X040500Y008500D02*
X039500Y007500D01*
X034750Y007500D01*
X036000Y006250D02*
X036000Y003750D01*
X035875Y003625D01*
X037125Y003625D02*
X037250Y003750D01*
X037250Y006250D01*
X037500Y006500D01*
X037750Y006500D01*
X036500Y006500D02*
X036250Y006500D01*
X036000Y006250D01*
X039000Y006500D02*
X039250Y006500D01*
X039500Y006250D01*
X039500Y003750D01*
X039625Y003625D01*
X040750Y003750D02*
X040875Y003625D01*
X040750Y003750D02*
X040750Y006250D01*
X040500Y006500D01*
X040250Y006500D01*
X035500Y010500D02*
X035500Y011500D01*
X031500Y011500D01*
X031750Y013500D02*
X030500Y013500D01*
X030250Y014000D02*
X031750Y014000D01*
X032250Y014500D01*
X032500Y014500D01*
X032250Y014000D02*
X036000Y014000D01*
X036500Y014500D01*
X037000Y014500D02*
X037500Y014500D01*
X037000Y014500D02*
X037000Y015750D01*
X036250Y016500D01*
X032000Y016500D01*
X032000Y016000D02*
X034750Y016000D01*
X035000Y015750D01*
X035000Y014500D01*
X035500Y014500D01*
X033500Y014500D02*
X033000Y015000D01*
X030000Y015000D01*
X028500Y013500D01*
X027500Y013500D01*
X027500Y012500D02*
X028750Y012500D01*
X030250Y014000D01*
X031750Y013500D02*
X032250Y014000D01*
X031500Y015500D02*
X032000Y016000D01*
X029250Y017500D02*
X027750Y016000D01*
X027250Y016000D01*
X029250Y017500D02*
X039000Y017500D01*
X042000Y014500D01*
X042500Y014500D01*
X040000Y018500D02*
X033500Y018500D01*
X035750Y019000D02*
X040500Y019000D01*
X044500Y020000D02*
X045000Y020500D01*
X044500Y020000D02*
X029000Y020000D01*
X027500Y021500D01*
X023000Y022500D02*
X023000Y011000D01*
X014500Y011000D01*
X014000Y011500D02*
X012250Y009750D01*
X006250Y009750D01*
X006000Y010000D01*
X006000Y028000D01*
X012500Y028000D01*
X013000Y028500D01*
X013500Y024500D02*
X020000Y024500D01*
X020500Y024000D02*
X021500Y024000D01*
X023000Y022500D01*
X021500Y023500D02*
X021000Y023500D01*
X021500Y023500D02*
X021500Y019250D01*
X021250Y019000D01*
X018500Y019000D01*
X017000Y017500D01*
X016500Y017250D02*
X016250Y017000D01*
X013500Y017000D01*
X013000Y017500D01*
X011000Y017500D02*
X008500Y020000D01*
X008500Y022500D01*
X014000Y022500D01*
X015000Y023500D01*
X016500Y024000D02*
X017000Y023500D01*
X017500Y023000D01*
X020500Y023000D01*
X021000Y022500D01*
X021000Y021500D02*
X020500Y021500D01*
X020500Y020250D01*
X020250Y020000D01*
X016500Y020000D01*
X016500Y017250D01*
X017000Y016500D02*
X019000Y018500D01*
X019750Y018500D01*
X020000Y020500D02*
X016000Y020500D01*
X015000Y019500D01*
X019750Y021250D02*
X009000Y021250D01*
X007500Y023000D02*
X011500Y023000D01*
X012000Y023500D01*
X007500Y023000D02*
X007500Y016250D01*
X007750Y016000D01*
X009500Y016000D01*
X010000Y015500D01*
X010000Y014500D02*
X009500Y014000D01*
X007750Y014000D01*
X007000Y014750D01*
X007000Y024000D01*
X016500Y024000D01*
X020000Y023500D02*
X020500Y024000D01*
X020000Y021500D02*
X019750Y021250D01*
X020000Y016000D02*
X017500Y016000D01*
X017000Y015500D01*
X017250Y013000D02*
X016500Y013000D01*
X016000Y012500D01*
X017250Y013000D02*
X017750Y012500D01*
X018500Y012000D02*
X012500Y012000D01*
X012000Y011500D01*
X011000Y012500D02*
X009000Y010500D01*
X006500Y010250D02*
X009250Y013000D01*
X010500Y013000D01*
X011000Y013500D01*
X010000Y013500D02*
X008250Y013500D01*
X011500Y007500D02*
X011500Y006500D01*
X011250Y006500D01*
X011000Y006250D01*
X011000Y003750D01*
X010875Y003625D01*
X012125Y003625D02*
X012250Y003750D01*
X012250Y006250D01*
X012500Y006500D01*
X012750Y006500D01*
X014750Y006250D02*
X014750Y003750D01*
X014625Y003625D01*
X015875Y003625D02*
X016000Y003750D01*
X016000Y007250D01*
X015500Y006750D02*
X015250Y006500D01*
X015000Y006500D01*
X014750Y006250D01*
X017750Y006500D02*
X018000Y006500D01*
X018250Y006250D01*
X018250Y003750D01*
X018375Y003625D01*
X019500Y003750D02*
X019625Y003625D01*
X019500Y003750D02*
X019500Y006250D01*
X019250Y006500D01*
X019000Y006500D01*
X021500Y006500D02*
X021750Y006500D01*
X022000Y006250D01*
X022000Y003750D01*
X022125Y003625D01*
X018500Y012000D02*
X022000Y015500D01*
X009000Y006500D02*
X008750Y006500D01*
X008500Y006250D01*
X008500Y003750D01*
X008375Y003625D01*
X006000Y003750D02*
X005875Y003625D01*
X006000Y003750D02*
X006000Y006250D01*
X006250Y006500D01*
X006500Y006500D01*
X036500Y028500D02*
X037000Y028000D01*
X045000Y028000D01*
X045000Y029000D02*
X045500Y029500D01*
X045000Y029000D02*
X033000Y029000D01*
X033500Y029500D02*
X034000Y030000D01*
X036500Y030500D02*
X036500Y031250D01*
X036500Y031500D01*
X036000Y032000D01*
X031000Y032000D01*
X030500Y031500D01*
X030500Y032500D02*
X031000Y033000D01*
X036000Y033000D01*
X036500Y032500D01*
X039000Y035000D01*
X041000Y035000D01*
X041000Y032000D01*
X041500Y031250D02*
X036500Y031250D01*
X037500Y030500D02*
X037750Y030750D01*
X042000Y030750D01*
X042250Y031000D01*
X045000Y031000D01*
X045500Y030500D01*
X042500Y029500D02*
X042000Y030000D01*
X043000Y034000D02*
X045750Y034000D01*
X045500Y035000D02*
X041000Y035000D01*
X042500Y034500D02*
X043000Y034000D01*
X045500Y035000D02*
X045500Y037500D01*
X056000Y035500D02*
X056500Y036000D01*
X057000Y035500D02*
X058000Y035500D01*
X059000Y034500D01*
X056500Y034000D02*
X056000Y033500D01*
X056500Y034000D02*
X061500Y034000D01*
X062000Y034500D01*
X061500Y038000D02*
X062000Y038500D01*
X062000Y039500D02*
X060500Y039500D01*
X059000Y041500D02*
X058000Y041500D01*
X056500Y006500D02*
X056250Y006500D01*
X056000Y006250D01*
X056000Y003750D01*
X055875Y003625D01*
M02*
