G75*
%MOIN*%
%OFA0B0*%
%FSLAX24Y24*%
%IPPOS*%
%LPD*%
%AMOC8*
5,1,8,0,0,1.08239X$1,22.5*
%
%ADD10C,0.0170*%
%ADD11OC8,0.0520*%
%ADD12R,0.0800X0.5160*%
%ADD13OC8,0.0560*%
%ADD14OC8,0.0660*%
%ADD15OC8,0.0600*%
%ADD16C,0.0280*%
%ADD17C,0.0480*%
%ADD18C,0.0160*%
D10*
X023885Y041651D02*
X023885Y041917D01*
X023973Y042005D01*
X024062Y042005D01*
X024150Y041917D01*
X024150Y041651D01*
X023885Y041651D02*
X024415Y041651D01*
X024415Y041917D01*
X024327Y042005D01*
X024239Y042005D01*
X024150Y041917D01*
X024150Y042296D02*
X024150Y042650D01*
X024239Y042650D02*
X023885Y042650D01*
X023973Y042940D02*
X023885Y043029D01*
X023885Y043206D01*
X023973Y043294D01*
X023973Y042940D02*
X024327Y042940D01*
X024415Y043029D01*
X024415Y043206D01*
X024327Y043294D01*
X024239Y042650D02*
X024415Y042473D01*
X024239Y042296D01*
X023885Y042296D01*
X048885Y042296D02*
X049415Y042296D01*
X049239Y042473D01*
X049415Y042650D01*
X048885Y042650D01*
X048885Y042940D02*
X048885Y043206D01*
X048973Y043294D01*
X049062Y043294D01*
X049150Y043206D01*
X049150Y042940D01*
X048885Y042940D02*
X049415Y042940D01*
X049415Y043206D01*
X049327Y043294D01*
X049239Y043294D01*
X049150Y043206D01*
X049062Y042005D02*
X048973Y042005D01*
X048885Y041917D01*
X048885Y041651D01*
X049415Y041651D01*
X049415Y041917D01*
X049327Y042005D01*
X049239Y042005D01*
X049150Y041917D01*
X049150Y041651D01*
X049150Y041917D02*
X049062Y042005D01*
X073885Y041866D02*
X073885Y042043D01*
X073885Y041955D02*
X074415Y041955D01*
X074415Y042043D02*
X074415Y041866D01*
X074327Y042296D02*
X073973Y042296D01*
X073885Y042384D01*
X073885Y042561D01*
X073973Y042650D01*
X074327Y042650D01*
X074415Y042561D01*
X074415Y042384D01*
X074327Y042296D01*
X074415Y042940D02*
X074415Y043206D01*
X074327Y043294D01*
X074239Y043294D01*
X074150Y043206D01*
X074150Y042940D01*
X073885Y042940D02*
X073885Y043206D01*
X073973Y043294D01*
X074062Y043294D01*
X074150Y043206D01*
X073885Y042940D02*
X074415Y042940D01*
D11*
X071000Y041500D03*
X071000Y040500D03*
X072000Y040500D03*
X073000Y040500D03*
X074000Y040500D03*
X071000Y039500D03*
X071000Y038500D03*
X071000Y037500D03*
X071000Y036500D03*
X072000Y036500D03*
X073000Y036500D03*
X074000Y035500D03*
X071000Y035500D03*
X071000Y034500D03*
X068000Y034500D03*
X067000Y034500D03*
X067000Y035500D03*
X068000Y035500D03*
X068000Y036500D03*
X068000Y037500D03*
X068000Y038500D03*
X068000Y039500D03*
X068000Y040500D03*
X067000Y040500D03*
X066000Y040500D03*
X065000Y040500D03*
X063000Y039500D03*
X062000Y039500D03*
X062000Y038500D03*
X063000Y038500D03*
X062000Y037500D03*
X062000Y036500D03*
X063000Y036500D03*
X062000Y035500D03*
X062000Y034500D03*
X059000Y034500D03*
X059000Y035500D03*
X059000Y036500D03*
X058000Y036500D03*
X059000Y037500D03*
X059000Y038500D03*
X058000Y038500D03*
X058000Y039500D03*
X059000Y039500D03*
X059000Y040500D03*
X059000Y041500D03*
X058000Y041500D03*
X062000Y041500D03*
X063000Y041500D03*
X062000Y040500D03*
X065000Y036500D03*
X066000Y035500D03*
X066000Y034500D03*
X066000Y030500D03*
X067000Y030500D03*
X063000Y020500D03*
X061000Y020500D03*
X061000Y018500D03*
X062000Y018500D03*
X063000Y018500D03*
X063000Y017500D03*
X062000Y017500D03*
X061000Y017500D03*
X061000Y016500D03*
X061000Y015500D03*
X061000Y014500D03*
X061000Y013500D03*
X061000Y012500D03*
X062000Y012500D03*
X063000Y012500D03*
X063000Y011500D03*
X062000Y011500D03*
X061000Y011500D03*
X060000Y012500D03*
X060000Y013500D03*
X060000Y014500D03*
X060000Y015500D03*
X060000Y016500D03*
X060000Y017500D03*
X058000Y016500D03*
X058000Y014500D03*
X064000Y012500D03*
X065000Y012500D03*
X066000Y012500D03*
X066000Y011500D03*
X065000Y011500D03*
X064000Y011500D03*
X063000Y009500D03*
X065000Y009500D03*
X067000Y012500D03*
X067000Y013500D03*
X067000Y014500D03*
X067000Y015500D03*
X067000Y016500D03*
X067000Y017500D03*
X066000Y017500D03*
X065000Y017500D03*
X064000Y017500D03*
X064000Y018500D03*
X065000Y018500D03*
X066000Y018500D03*
X066000Y016500D03*
X066000Y015500D03*
X066000Y014500D03*
X066000Y013500D03*
X069000Y015500D03*
X069000Y017500D03*
X045000Y013500D03*
X045000Y011500D03*
X042500Y011500D03*
X042500Y010500D03*
X042500Y009500D03*
X039500Y009500D03*
X039500Y010500D03*
X039500Y011500D03*
X039500Y012500D03*
X039500Y013500D03*
X039500Y014500D03*
X039500Y015500D03*
X042500Y015500D03*
X042500Y014500D03*
X042500Y013500D03*
X042500Y012500D03*
X030500Y012500D03*
X030500Y011500D03*
X030500Y010500D03*
X029500Y009000D03*
X027500Y009000D03*
X027500Y010500D03*
X027500Y011500D03*
X027500Y012500D03*
X027500Y013500D03*
X027500Y014500D03*
X027500Y015500D03*
X027500Y016500D03*
X027500Y018000D03*
X029500Y018000D03*
X030500Y016500D03*
X030500Y015500D03*
X030500Y014500D03*
X030500Y013500D03*
X030500Y019500D03*
X030500Y020500D03*
X030500Y021500D03*
X030500Y022500D03*
X030500Y023500D03*
X030500Y024500D03*
X030500Y025500D03*
X029500Y027000D03*
X027500Y027000D03*
X027500Y025500D03*
X027500Y024500D03*
X027500Y023500D03*
X027500Y022500D03*
X027500Y021500D03*
X027500Y020500D03*
X027500Y019500D03*
X019000Y017500D03*
X017000Y017500D03*
X016000Y017500D03*
X016000Y016500D03*
X017000Y016500D03*
X017000Y015500D03*
X016000Y015500D03*
X016000Y014500D03*
X017000Y014500D03*
X017000Y013500D03*
X016000Y013500D03*
X016000Y012500D03*
X017000Y012500D03*
X016000Y011500D03*
X015000Y011500D03*
X014000Y011500D03*
X013000Y011500D03*
X013000Y012500D03*
X014000Y012500D03*
X015000Y012500D03*
X012000Y012500D03*
X011000Y012500D03*
X010000Y012500D03*
X010000Y013500D03*
X011000Y013500D03*
X011000Y014500D03*
X010000Y014500D03*
X010000Y015500D03*
X011000Y015500D03*
X011000Y016500D03*
X010000Y016500D03*
X010000Y017500D03*
X011000Y017500D03*
X012000Y017500D03*
X012000Y018500D03*
X011000Y018500D03*
X013000Y018500D03*
X014000Y018500D03*
X015000Y018500D03*
X015000Y017500D03*
X014000Y017500D03*
X013000Y017500D03*
X016000Y018500D03*
X013000Y020500D03*
X011000Y020500D03*
X008000Y016500D03*
X008000Y014500D03*
X011000Y011500D03*
X012000Y011500D03*
X013000Y009500D03*
X015000Y009500D03*
X019000Y015500D03*
X027500Y028500D03*
X027500Y029500D03*
X027500Y030500D03*
X027500Y031500D03*
X027500Y032500D03*
X027500Y033500D03*
X027500Y034500D03*
X030500Y034500D03*
X030500Y033500D03*
X030500Y032500D03*
X030500Y031500D03*
X030500Y030500D03*
X030500Y029500D03*
X030500Y028500D03*
X033500Y028500D03*
X033500Y029500D03*
X033500Y030500D03*
X033500Y031500D03*
X033500Y032500D03*
X033500Y033500D03*
X033500Y034500D03*
X036500Y034500D03*
X036500Y033500D03*
X036500Y032500D03*
X036500Y031500D03*
X036500Y030500D03*
X036500Y029500D03*
X036500Y028500D03*
X042500Y028500D03*
X042500Y029500D03*
X042500Y030500D03*
X042500Y031500D03*
X042500Y032500D03*
X042500Y033500D03*
X042500Y034500D03*
X042500Y036000D03*
X042500Y037500D03*
X042500Y038500D03*
X042500Y039500D03*
X042500Y040500D03*
X042500Y041500D03*
X042500Y042500D03*
X042500Y043500D03*
X045500Y043500D03*
X045500Y042500D03*
X045500Y041500D03*
X045500Y040500D03*
X045500Y039500D03*
X045500Y038500D03*
X045500Y037500D03*
X044500Y036000D03*
X045500Y034500D03*
X045500Y033500D03*
X045500Y032500D03*
X045500Y031500D03*
X045500Y030500D03*
X045500Y029500D03*
X045500Y028500D03*
X044500Y027000D03*
X042500Y027000D03*
X030500Y037500D03*
X027500Y037500D03*
X027500Y040500D03*
X030500Y040500D03*
X033000Y041000D03*
X033000Y043000D03*
X030500Y043500D03*
X030500Y043500D03*
X027500Y043500D03*
X027500Y043500D03*
X068000Y041500D03*
D12*
X002125Y003625D03*
X003375Y003625D03*
X004625Y003625D03*
X005875Y003625D03*
X007125Y003625D03*
X008375Y003625D03*
X009625Y003625D03*
X010875Y003625D03*
X012125Y003625D03*
X013375Y003625D03*
X014625Y003625D03*
X015875Y003625D03*
X017125Y003625D03*
X018375Y003625D03*
X019625Y003625D03*
X020875Y003625D03*
X022125Y003625D03*
X023375Y003625D03*
X027125Y003625D03*
X028375Y003625D03*
X029625Y003625D03*
X030875Y003625D03*
X032125Y003625D03*
X033375Y003625D03*
X034625Y003625D03*
X035875Y003625D03*
X037125Y003625D03*
X038375Y003625D03*
X039625Y003625D03*
X040875Y003625D03*
X042125Y003625D03*
X043375Y003625D03*
X044625Y003625D03*
X045875Y003625D03*
X047125Y003625D03*
X048375Y003625D03*
X052125Y003625D03*
X053375Y003625D03*
X054625Y003625D03*
X055875Y003625D03*
X057125Y003625D03*
X058375Y003625D03*
X059625Y003625D03*
X060875Y003625D03*
X062125Y003625D03*
X063375Y003625D03*
X064625Y003625D03*
X065875Y003625D03*
X067125Y003625D03*
X068375Y003625D03*
X069625Y003625D03*
X070875Y003625D03*
X072125Y003625D03*
X073375Y003625D03*
D13*
X071000Y019500D03*
X070000Y019500D03*
X070000Y020500D03*
X071000Y020500D03*
X071000Y021500D03*
X070000Y021500D03*
X070000Y022500D03*
X071000Y022500D03*
X071000Y023500D03*
X070000Y023500D03*
X070000Y024500D03*
X071000Y024500D03*
X071000Y025500D03*
X070000Y025500D03*
X065000Y027500D03*
X064000Y027500D03*
X064000Y028500D03*
X065000Y028500D03*
X063000Y028500D03*
X062000Y028500D03*
X061000Y028500D03*
X061000Y027500D03*
X062000Y027500D03*
X063000Y027500D03*
X057000Y027500D03*
X056000Y027500D03*
X056000Y026500D03*
X057000Y026500D03*
X057000Y025500D03*
X056000Y025500D03*
X056000Y024500D03*
X057000Y024500D03*
X057000Y023500D03*
X056000Y023500D03*
X056000Y022500D03*
X057000Y022500D03*
X057000Y021500D03*
X056000Y021500D03*
X056000Y020500D03*
X057000Y020500D03*
X057000Y019500D03*
X056000Y019500D03*
X046000Y019500D03*
X045000Y019500D03*
X045000Y020500D03*
X046000Y020500D03*
X046000Y021500D03*
X045000Y021500D03*
X045000Y022500D03*
X046000Y022500D03*
X046000Y023500D03*
X045000Y023500D03*
X045000Y024500D03*
X046000Y024500D03*
X046000Y025500D03*
X045000Y025500D03*
X056000Y028500D03*
X057000Y028500D03*
X057000Y029500D03*
X056000Y029500D03*
X056000Y030500D03*
X057000Y030500D03*
X057000Y031500D03*
X056000Y031500D03*
X056000Y032500D03*
X057000Y032500D03*
X057000Y033500D03*
X056000Y033500D03*
X056000Y034500D03*
X057000Y034500D03*
X057000Y035500D03*
X056000Y035500D03*
X056000Y036500D03*
X057000Y036500D03*
X057000Y037500D03*
X056000Y037500D03*
X056000Y038500D03*
X057000Y038500D03*
X037500Y015500D03*
X036500Y015500D03*
X036500Y014500D03*
X037500Y014500D03*
X037500Y013500D03*
X036500Y013500D03*
X035500Y013500D03*
X034500Y013500D03*
X033500Y013500D03*
X033500Y014500D03*
X034500Y014500D03*
X035500Y014500D03*
X035500Y015500D03*
X034500Y015500D03*
X033500Y015500D03*
X032500Y015500D03*
X032500Y014500D03*
X032500Y013500D03*
X032500Y010500D03*
X032500Y009500D03*
X032500Y008500D03*
X033500Y008500D03*
X034500Y008500D03*
X035500Y008500D03*
X035500Y009500D03*
X034500Y009500D03*
X033500Y009500D03*
X033500Y010500D03*
X034500Y010500D03*
X035500Y010500D03*
X036500Y010500D03*
X037500Y010500D03*
X037500Y009500D03*
X036500Y009500D03*
X036500Y008500D03*
X037500Y008500D03*
X021000Y019500D03*
X020000Y019500D03*
X020000Y020500D03*
X021000Y020500D03*
X021000Y021500D03*
X020000Y021500D03*
X020000Y022500D03*
X021000Y022500D03*
X021000Y023500D03*
X020000Y023500D03*
X020000Y024500D03*
X021000Y024500D03*
X021000Y025500D03*
X020000Y025500D03*
X017000Y023500D03*
X016000Y023500D03*
X015000Y023500D03*
X013000Y023500D03*
X012000Y023500D03*
X011000Y023500D03*
X011000Y027500D03*
X012000Y027500D03*
X012000Y028500D03*
X011000Y028500D03*
X013000Y028500D03*
X014000Y028500D03*
X015000Y028500D03*
X015000Y027500D03*
X014000Y027500D03*
X013000Y027500D03*
D14*
X072000Y031500D03*
X072000Y035500D03*
D15*
X044000Y024500D03*
X043000Y024500D03*
X042000Y024500D03*
X042000Y023500D03*
X043000Y023500D03*
X044000Y023500D03*
X041000Y023500D03*
X040000Y023500D03*
X039000Y023500D03*
X039000Y024500D03*
X040000Y024500D03*
X041000Y024500D03*
X038000Y024500D03*
X037000Y024500D03*
X036000Y024500D03*
X035000Y024500D03*
X035000Y023500D03*
X036000Y023500D03*
X037000Y023500D03*
X038000Y023500D03*
X034000Y023500D03*
X033000Y023500D03*
X032000Y023500D03*
X032000Y024500D03*
X033000Y024500D03*
X034000Y024500D03*
X022500Y016500D03*
X022500Y008500D03*
X047500Y008500D03*
X047500Y016500D03*
X072500Y016500D03*
X072500Y008500D03*
D16*
X073250Y007750D01*
X073250Y003750D01*
X073375Y003625D01*
X071000Y003750D02*
X070875Y003625D01*
X071000Y003750D02*
X071000Y009500D01*
X072500Y011000D01*
X072500Y016500D01*
X072500Y024000D01*
X071000Y025500D01*
X071000Y034500D01*
X071000Y034000D01*
X071207Y034000D01*
X071500Y034293D01*
X071500Y034477D01*
X071540Y034436D01*
X071676Y034380D01*
X073074Y034380D01*
X073210Y034436D01*
X073314Y034540D01*
X073370Y034676D01*
X073370Y036163D01*
X073500Y036293D01*
X073500Y036707D01*
X073207Y037000D01*
X072793Y037000D01*
X072500Y036707D01*
X072430Y036777D01*
X072430Y037336D01*
X072365Y037494D01*
X072244Y037615D01*
X071930Y037928D01*
X071930Y040000D01*
X072207Y040000D01*
X072500Y040293D01*
X072793Y040000D01*
X073207Y040000D01*
X073500Y040293D01*
X073793Y040000D01*
X074207Y040000D01*
X074500Y040293D01*
X074500Y040707D01*
X074207Y041000D01*
X073793Y041000D01*
X073500Y040707D01*
X073500Y040293D01*
X073500Y040707D01*
X073207Y041000D01*
X072793Y041000D01*
X072500Y040707D01*
X072500Y040293D01*
X072500Y040707D01*
X072207Y041000D01*
X071930Y041000D01*
X071930Y041836D01*
X071865Y041994D01*
X071744Y042115D01*
X071207Y042651D01*
X071157Y042772D01*
X071022Y042907D01*
X070845Y042980D01*
X070655Y042980D01*
X070478Y042907D01*
X070343Y042772D01*
X070270Y042595D01*
X070270Y042405D01*
X070343Y042228D01*
X070478Y042093D01*
X070599Y042043D01*
X070717Y041924D01*
X070500Y041707D01*
X070500Y041293D01*
X070793Y041000D01*
X070500Y040707D01*
X070500Y040293D01*
X070793Y040000D01*
X070500Y039707D01*
X070500Y039293D01*
X070793Y039000D01*
X070500Y038707D01*
X070500Y038500D01*
X071000Y038500D01*
X071000Y038500D01*
X071000Y039000D01*
X071070Y039000D01*
X071070Y039000D01*
X070793Y039000D01*
X071000Y039000D01*
X071000Y038500D01*
X071000Y038000D01*
X071070Y038000D01*
X071070Y038000D01*
X070793Y038000D01*
X070500Y037707D01*
X070500Y037608D01*
X068930Y039178D01*
X068930Y041836D01*
X068865Y041994D01*
X068615Y042244D01*
X068494Y042365D01*
X068336Y042430D01*
X053664Y042430D01*
X053506Y042365D01*
X053385Y042244D01*
X053320Y042086D01*
X053320Y025664D01*
X053385Y025506D01*
X053506Y025385D01*
X053506Y025385D01*
X055480Y023412D01*
X055480Y023285D01*
X055765Y023000D01*
X055480Y022715D01*
X055480Y022285D01*
X055765Y022000D01*
X055480Y021715D01*
X055480Y021285D01*
X055765Y021000D01*
X055480Y020715D01*
X055480Y020285D01*
X055765Y020000D01*
X055480Y019715D01*
X055480Y019500D01*
X056000Y019500D01*
X056480Y019500D01*
X057000Y019500D01*
X058000Y018500D01*
X058000Y018250D01*
X057000Y017250D01*
X057000Y003750D01*
X057125Y003625D01*
X059625Y003625D02*
X059750Y003750D01*
X059750Y007250D01*
X062500Y010000D01*
X062500Y012000D01*
X064250Y012000D01*
X064500Y012250D01*
X064500Y013750D01*
X065750Y015000D01*
X066500Y015000D01*
X066500Y015750D01*
X066750Y016000D01*
X068000Y016000D01*
X068000Y007250D01*
X067250Y006500D01*
X067250Y003750D01*
X067125Y003625D01*
X064625Y003625D02*
X064500Y003750D01*
X064500Y011750D01*
X064250Y012000D01*
X064207Y012000D02*
X063793Y012000D01*
X063500Y011707D01*
X063500Y011523D01*
X063500Y011523D01*
X063500Y011707D01*
X063207Y012000D01*
X063500Y012293D01*
X063500Y012707D01*
X063207Y013000D01*
X062793Y013000D01*
X062500Y012707D01*
X062500Y012293D01*
X062793Y012000D01*
X063207Y012000D01*
X062793Y012000D01*
X062500Y011707D01*
X062207Y012000D01*
X062500Y012293D01*
X062500Y012500D01*
X062500Y012707D01*
X062207Y013000D01*
X062000Y013000D01*
X062000Y012500D01*
X062500Y012000D01*
X062404Y012197D02*
X062596Y012197D01*
X062500Y012476D02*
X062500Y012476D01*
X062500Y012500D02*
X062000Y012500D01*
X062000Y012500D01*
X062500Y012500D01*
X062453Y012754D02*
X062547Y012754D01*
X062000Y012754D02*
X062000Y012754D01*
X062000Y013000D02*
X061793Y013000D01*
X061500Y012707D01*
X061207Y013000D01*
X061500Y013293D01*
X061500Y013707D01*
X061207Y014000D01*
X061500Y014293D01*
X061500Y014707D01*
X061207Y015000D01*
X061337Y015130D01*
X063574Y015130D01*
X063630Y015153D01*
X063630Y012837D01*
X063500Y012707D01*
X063500Y012293D01*
X063793Y012000D01*
X064207Y012000D01*
X064500Y011707D01*
X064500Y011293D01*
X064207Y011000D01*
X063870Y011000D01*
X063870Y010466D01*
X063905Y010480D01*
X064095Y010480D01*
X064272Y010407D01*
X064407Y010272D01*
X064480Y010095D01*
X064480Y009905D01*
X064407Y009728D01*
X064370Y009691D01*
X064370Y008000D01*
X065130Y008000D01*
X065130Y009000D01*
X064793Y009000D01*
X064500Y009293D01*
X064500Y009707D01*
X064570Y009777D01*
X064570Y011223D01*
X064500Y011293D01*
X064500Y011707D01*
X064793Y012000D01*
X064977Y012000D01*
X064977Y012000D01*
X064793Y012000D01*
X064500Y012293D01*
X064500Y012707D01*
X064793Y013000D01*
X065207Y013000D01*
X065500Y012707D01*
X065500Y012523D01*
X065500Y012523D01*
X065500Y012707D01*
X065793Y013000D01*
X066207Y013000D01*
X066500Y013293D01*
X066500Y013707D01*
X066207Y014000D01*
X066500Y014293D01*
X066500Y014707D01*
X066207Y015000D01*
X066500Y015293D01*
X066500Y015707D01*
X066207Y016000D01*
X065793Y016000D01*
X065500Y015707D01*
X065500Y015293D01*
X065793Y015000D01*
X066207Y015000D01*
X065793Y015000D01*
X065500Y014707D01*
X065500Y014293D01*
X065793Y014000D01*
X066207Y014000D01*
X065793Y014000D01*
X065500Y013707D01*
X065500Y013293D01*
X065793Y013000D01*
X066207Y013000D01*
X066500Y012707D01*
X066500Y012523D01*
X066500Y012523D01*
X066500Y012707D01*
X066793Y013000D01*
X067130Y013000D01*
X067130Y013000D01*
X066793Y013000D01*
X066500Y013293D01*
X066500Y013707D01*
X066793Y014000D01*
X067130Y014000D01*
X067130Y014000D01*
X067000Y014000D01*
X067000Y014500D01*
X066500Y015000D01*
X066468Y015261D02*
X066532Y015261D01*
X066500Y015293D02*
X066793Y015000D01*
X066500Y014707D01*
X066500Y014500D01*
X067000Y014500D01*
X067000Y014500D01*
X067000Y014500D01*
X067000Y014000D01*
X066793Y014000D01*
X066500Y014293D01*
X066500Y014500D01*
X067000Y014500D01*
X067000Y014425D02*
X067000Y014425D01*
X067000Y014147D02*
X067000Y014147D01*
X066646Y014147D02*
X066354Y014147D01*
X066339Y013868D02*
X066661Y013868D01*
X066500Y013590D02*
X066500Y013590D01*
X066500Y013311D02*
X066500Y013311D01*
X066240Y013033D02*
X066760Y013033D01*
X066547Y012754D02*
X066453Y012754D01*
X065760Y013033D02*
X064370Y013033D01*
X064370Y012837D02*
X064370Y015597D01*
X065710Y016936D01*
X065783Y017010D01*
X065793Y017000D01*
X065500Y016707D01*
X065500Y016293D01*
X065793Y016000D01*
X066207Y016000D01*
X066500Y016293D01*
X066793Y016000D01*
X066500Y015707D01*
X066500Y015293D01*
X066500Y015539D02*
X066500Y015539D01*
X066390Y015818D02*
X066610Y015818D01*
X066793Y016000D02*
X067207Y016000D01*
X067500Y015707D01*
X067500Y015523D01*
X067710Y015314D01*
X067814Y015210D01*
X067870Y015074D01*
X067870Y008000D01*
X068130Y008000D01*
X068130Y012691D01*
X068093Y012728D01*
X068020Y012905D01*
X068020Y013095D01*
X068093Y013272D01*
X068228Y013407D01*
X068405Y013480D01*
X068595Y013480D01*
X068772Y013407D01*
X068880Y013299D01*
X068880Y015000D01*
X068793Y015000D01*
X068500Y015293D01*
X068500Y015707D01*
X068793Y016000D01*
X069130Y016000D01*
X069130Y017000D01*
X069000Y017000D01*
X069000Y017500D01*
X069000Y016000D01*
X068000Y016000D01*
X067500Y016293D02*
X067500Y016707D01*
X067207Y017000D01*
X067500Y017293D01*
X067500Y017477D01*
X069130Y019107D01*
X069130Y018000D01*
X069000Y018000D01*
X069000Y017500D01*
X069000Y017500D01*
X069000Y017500D01*
X069000Y017500D01*
X068500Y017500D01*
X068500Y017707D01*
X068793Y018000D01*
X069000Y018000D01*
X069000Y017500D01*
X069000Y017000D01*
X068793Y017000D01*
X068500Y017293D01*
X068500Y017500D01*
X069000Y017500D01*
X069000Y017489D02*
X069000Y017489D01*
X069000Y017767D02*
X069000Y017767D01*
X069130Y018046D02*
X068069Y018046D01*
X068347Y018324D02*
X069130Y018324D01*
X069130Y018603D02*
X068626Y018603D01*
X068904Y018881D02*
X069130Y018881D01*
X069870Y018881D02*
X070130Y018881D01*
X070130Y018980D02*
X070130Y017653D01*
X069957Y017480D01*
X069905Y017480D01*
X069870Y017466D01*
X069870Y018980D01*
X070000Y018980D01*
X070130Y018980D01*
X070000Y018980D02*
X070000Y019500D01*
X070000Y019500D01*
X070000Y018980D01*
X070000Y019160D02*
X070000Y019160D01*
X070000Y019438D02*
X070000Y019438D01*
X069870Y018603D02*
X070130Y018603D01*
X070130Y018324D02*
X069870Y018324D01*
X069870Y018046D02*
X070130Y018046D01*
X070130Y017767D02*
X069870Y017767D01*
X069870Y017489D02*
X069965Y017489D01*
X070480Y016957D02*
X070710Y017186D01*
X070814Y017290D01*
X070870Y017426D01*
X070870Y018980D01*
X071000Y018980D01*
X071130Y018980D01*
X071130Y010903D01*
X070707Y010480D01*
X070655Y010480D01*
X070620Y010466D01*
X070620Y011691D01*
X070657Y011728D01*
X070730Y011905D01*
X070730Y012095D01*
X070657Y012272D01*
X070522Y012407D01*
X070370Y012470D01*
X070370Y015347D01*
X070543Y015520D01*
X070595Y015520D01*
X070772Y015593D01*
X070907Y015728D01*
X070980Y015905D01*
X070980Y016095D01*
X070907Y016272D01*
X070772Y016407D01*
X070595Y016480D01*
X070405Y016480D01*
X070228Y016407D01*
X070093Y016272D01*
X070020Y016095D01*
X070020Y016043D01*
X069870Y015893D01*
X069870Y016534D01*
X069905Y016520D01*
X070095Y016520D01*
X070272Y016593D01*
X070407Y016728D01*
X070480Y016905D01*
X070480Y016957D01*
X070480Y016932D02*
X071130Y016932D01*
X071130Y017210D02*
X070733Y017210D01*
X070870Y017489D02*
X071130Y017489D01*
X071130Y017767D02*
X070870Y017767D01*
X070870Y018046D02*
X071130Y018046D01*
X071130Y018324D02*
X070870Y018324D01*
X070870Y018603D02*
X071130Y018603D01*
X071130Y018881D02*
X070870Y018881D01*
X071000Y018980D02*
X071000Y019500D01*
X071000Y018980D01*
X071000Y019160D02*
X071000Y019160D01*
X071000Y019438D02*
X071000Y019438D01*
X071000Y019500D02*
X071000Y019500D01*
X072370Y019438D02*
X074730Y019438D01*
X074730Y019160D02*
X072370Y019160D01*
X072370Y018881D02*
X074730Y018881D01*
X074730Y018603D02*
X072370Y018603D01*
X072370Y018324D02*
X074730Y018324D01*
X074730Y018046D02*
X072370Y018046D01*
X072370Y017767D02*
X074730Y017767D01*
X074730Y017489D02*
X072370Y017489D01*
X072370Y017210D02*
X074730Y017210D01*
X074730Y016932D02*
X072832Y016932D01*
X072724Y017040D02*
X072500Y017040D01*
X072500Y016500D01*
X072500Y016500D01*
X073040Y016500D01*
X073040Y016724D01*
X072724Y017040D01*
X072500Y017040D02*
X072370Y017040D01*
X072370Y023574D01*
X072314Y023710D01*
X072210Y023814D01*
X071520Y024503D01*
X071520Y024715D01*
X071235Y025000D01*
X071520Y025285D01*
X071520Y025500D01*
X071520Y025715D01*
X071215Y026020D01*
X071000Y026020D01*
X071000Y025500D01*
X071000Y025500D01*
X071520Y025500D01*
X071000Y025500D01*
X071000Y025500D01*
X071000Y025500D01*
X070000Y025500D01*
X070000Y025500D01*
X070000Y025500D01*
X070000Y026020D01*
X070215Y026020D01*
X070500Y025735D01*
X070785Y026020D01*
X071000Y026020D01*
X071000Y025500D01*
X070480Y025500D01*
X070000Y025500D01*
X070000Y026020D01*
X069870Y026020D01*
X069870Y028074D01*
X069814Y028210D01*
X069710Y028314D01*
X069574Y028370D01*
X066426Y028370D01*
X066290Y028314D01*
X066186Y028210D01*
X066180Y028203D01*
X066180Y029072D01*
X067108Y030000D01*
X067207Y030000D01*
X067500Y030293D01*
X067500Y030707D01*
X067430Y030777D01*
X067430Y031336D01*
X067365Y031494D01*
X067244Y031615D01*
X066930Y031928D01*
X066930Y034000D01*
X067207Y034000D01*
X067500Y034293D01*
X067793Y034000D01*
X068207Y034000D01*
X068500Y034293D01*
X068500Y034642D01*
X068615Y034756D01*
X068865Y035006D01*
X068930Y035164D01*
X068930Y035570D01*
X070500Y035570D01*
X070500Y035293D01*
X070793Y035000D01*
X070500Y034707D01*
X070500Y034500D01*
X071000Y034500D01*
X071000Y034500D01*
X071000Y034500D01*
X071000Y034000D01*
X070793Y034000D01*
X070500Y034293D01*
X070500Y034500D01*
X071000Y034500D01*
X071000Y034477D02*
X071000Y034477D01*
X071000Y034199D02*
X071000Y034199D01*
X071406Y034199D02*
X074730Y034199D01*
X074730Y034477D02*
X073250Y034477D01*
X073370Y034756D02*
X074730Y034756D01*
X074730Y035034D02*
X074241Y035034D01*
X074207Y035000D02*
X074500Y035293D01*
X074500Y035707D01*
X074207Y036000D01*
X073793Y036000D01*
X073500Y035707D01*
X073500Y035293D01*
X073793Y035000D01*
X074207Y035000D01*
X074500Y035313D02*
X074730Y035313D01*
X074730Y035591D02*
X074500Y035591D01*
X074338Y035870D02*
X074730Y035870D01*
X074730Y036148D02*
X073370Y036148D01*
X073370Y035870D02*
X073662Y035870D01*
X073500Y035591D02*
X073370Y035591D01*
X073370Y035313D02*
X073500Y035313D01*
X073370Y035034D02*
X073759Y035034D01*
X072630Y035120D02*
X072426Y035120D01*
X072570Y035264D01*
X072570Y035736D01*
X072257Y036049D01*
X072500Y036293D01*
X072500Y036707D01*
X072500Y036293D01*
X072630Y036163D01*
X072630Y035120D01*
X072630Y035313D02*
X072570Y035313D01*
X072570Y035591D02*
X072630Y035591D01*
X072630Y035870D02*
X072437Y035870D01*
X072355Y036148D02*
X072630Y036148D01*
X072500Y036427D02*
X072500Y036427D01*
X072500Y036705D02*
X072500Y036705D01*
X072430Y036984D02*
X072776Y036984D01*
X072430Y037262D02*
X074730Y037262D01*
X074730Y036984D02*
X073224Y036984D01*
X073500Y036705D02*
X074730Y036705D01*
X074730Y036427D02*
X073500Y036427D01*
X072000Y036500D02*
X072000Y037250D01*
X071500Y037750D01*
X071500Y041750D01*
X070750Y042500D01*
X071097Y042832D02*
X073524Y042832D01*
X073510Y042866D02*
X073558Y042751D01*
X073557Y042748D01*
X073510Y042636D01*
X073510Y042310D01*
X073550Y042214D01*
X073510Y042118D01*
X073510Y041792D01*
X073567Y041654D01*
X073673Y041548D01*
X073810Y041491D01*
X073960Y041491D01*
X074097Y041548D01*
X074129Y041580D01*
X074172Y041580D01*
X074203Y041548D01*
X074341Y041491D01*
X074490Y041491D01*
X074628Y041548D01*
X074730Y041650D01*
X074730Y008000D01*
X073608Y008000D01*
X073494Y008115D01*
X073040Y008568D01*
X073040Y008724D01*
X072724Y009040D01*
X072276Y009040D01*
X071960Y008724D01*
X071960Y008276D01*
X072236Y008000D01*
X070620Y008000D01*
X070620Y009534D01*
X070655Y009520D01*
X070845Y009520D01*
X071022Y009593D01*
X071157Y009728D01*
X071230Y009905D01*
X071230Y009957D01*
X071814Y010540D01*
X071870Y010676D01*
X071870Y010784D01*
X071905Y010770D01*
X072095Y010770D01*
X072272Y010843D01*
X072407Y010978D01*
X072480Y011155D01*
X072480Y011345D01*
X072407Y011522D01*
X072370Y011559D01*
X072370Y015960D01*
X072500Y015960D01*
X072724Y015960D01*
X073040Y016276D01*
X073040Y016500D01*
X072500Y016500D01*
X072500Y016500D01*
X072500Y017040D01*
X072500Y016932D02*
X072500Y016932D01*
X072500Y016653D02*
X072500Y016653D01*
X072500Y016500D02*
X072500Y015960D01*
X072500Y016500D01*
X072500Y016500D01*
X072500Y016375D02*
X072500Y016375D01*
X072500Y016096D02*
X072500Y016096D01*
X072370Y015818D02*
X074730Y015818D01*
X074730Y016096D02*
X072860Y016096D01*
X073040Y016375D02*
X074730Y016375D01*
X074730Y016653D02*
X073040Y016653D01*
X072370Y015539D02*
X074730Y015539D01*
X074730Y015261D02*
X072370Y015261D01*
X072370Y014982D02*
X074730Y014982D01*
X074730Y014704D02*
X072370Y014704D01*
X072370Y014425D02*
X074730Y014425D01*
X074730Y014147D02*
X072370Y014147D01*
X072370Y013868D02*
X074730Y013868D01*
X074730Y013590D02*
X072370Y013590D01*
X072370Y013311D02*
X074730Y013311D01*
X074730Y013033D02*
X072370Y013033D01*
X072370Y012754D02*
X074730Y012754D01*
X074730Y012476D02*
X072370Y012476D01*
X072370Y012197D02*
X074730Y012197D01*
X074730Y011919D02*
X072370Y011919D01*
X072370Y011640D02*
X074730Y011640D01*
X074730Y011362D02*
X072473Y011362D01*
X072450Y011083D02*
X074730Y011083D01*
X074730Y010805D02*
X072179Y010805D01*
X071799Y010526D02*
X074730Y010526D01*
X074730Y010248D02*
X071521Y010248D01*
X071242Y009969D02*
X074730Y009969D01*
X074730Y009691D02*
X071119Y009691D01*
X070620Y009412D02*
X074730Y009412D01*
X074730Y009134D02*
X070620Y009134D01*
X070620Y008855D02*
X072091Y008855D01*
X071960Y008577D02*
X070620Y008577D01*
X070620Y008298D02*
X071960Y008298D01*
X072217Y008020D02*
X070620Y008020D01*
X072909Y008855D02*
X074730Y008855D01*
X074730Y008577D02*
X073040Y008577D01*
X073310Y008298D02*
X074730Y008298D01*
X074730Y008020D02*
X073589Y008020D01*
X071031Y010805D02*
X070620Y010805D01*
X070620Y011083D02*
X071130Y011083D01*
X071130Y011362D02*
X070620Y011362D01*
X070620Y011640D02*
X071130Y011640D01*
X071130Y011919D02*
X070730Y011919D01*
X070688Y012197D02*
X071130Y012197D01*
X071130Y012476D02*
X070370Y012476D01*
X070370Y012754D02*
X071130Y012754D01*
X071130Y013033D02*
X070370Y013033D01*
X070370Y013311D02*
X071130Y013311D01*
X071130Y013590D02*
X070370Y013590D01*
X070370Y013868D02*
X071130Y013868D01*
X071130Y014147D02*
X070370Y014147D01*
X070370Y014425D02*
X071130Y014425D01*
X071130Y014704D02*
X070370Y014704D01*
X070370Y014982D02*
X071130Y014982D01*
X071130Y015261D02*
X070370Y015261D01*
X070641Y015539D02*
X071130Y015539D01*
X071130Y015818D02*
X070944Y015818D01*
X070980Y016096D02*
X071130Y016096D01*
X071130Y016375D02*
X070804Y016375D01*
X071130Y016653D02*
X070332Y016653D01*
X070196Y016375D02*
X069870Y016375D01*
X069870Y016096D02*
X070020Y016096D01*
X069130Y016096D02*
X067303Y016096D01*
X067207Y016000D02*
X067500Y016293D01*
X067500Y016375D02*
X069130Y016375D01*
X069130Y016653D02*
X067500Y016653D01*
X067276Y016932D02*
X069130Y016932D01*
X069000Y017210D02*
X069000Y017210D01*
X068583Y017210D02*
X067417Y017210D01*
X067512Y017489D02*
X068500Y017489D01*
X068560Y017767D02*
X067790Y017767D01*
X067207Y017000D02*
X066870Y017000D01*
X066870Y017000D01*
X067207Y017000D01*
X066500Y016477D02*
X066500Y016293D01*
X066500Y016477D01*
X066500Y016477D01*
X066500Y016375D02*
X066500Y016375D01*
X066303Y016096D02*
X066697Y016096D01*
X066793Y016000D02*
X067207Y016000D01*
X067390Y015818D02*
X068610Y015818D01*
X068500Y015539D02*
X067500Y015539D01*
X067763Y015261D02*
X068532Y015261D01*
X068880Y014982D02*
X067870Y014982D01*
X067870Y014704D02*
X068880Y014704D01*
X068880Y014425D02*
X067870Y014425D01*
X067870Y014147D02*
X068880Y014147D01*
X068880Y013868D02*
X067870Y013868D01*
X067870Y013590D02*
X068880Y013590D01*
X068868Y013311D02*
X068880Y013311D01*
X068132Y013311D02*
X067870Y013311D01*
X067870Y013033D02*
X068020Y013033D01*
X068082Y012754D02*
X067870Y012754D01*
X067870Y012476D02*
X068130Y012476D01*
X068130Y012197D02*
X067870Y012197D01*
X067870Y011919D02*
X068130Y011919D01*
X068130Y011640D02*
X067870Y011640D01*
X067870Y011362D02*
X068130Y011362D01*
X068130Y011083D02*
X067870Y011083D01*
X067870Y010805D02*
X068130Y010805D01*
X068130Y010526D02*
X067870Y010526D01*
X067870Y010248D02*
X068130Y010248D01*
X068130Y009969D02*
X067870Y009969D01*
X067870Y009691D02*
X068130Y009691D01*
X068130Y009412D02*
X067870Y009412D01*
X067870Y009134D02*
X068130Y009134D01*
X068130Y008855D02*
X067870Y008855D01*
X067870Y008577D02*
X068130Y008577D01*
X068130Y008298D02*
X067870Y008298D01*
X067870Y008020D02*
X068130Y008020D01*
X065130Y008020D02*
X064370Y008020D01*
X064370Y008298D02*
X065130Y008298D01*
X065130Y008577D02*
X064370Y008577D01*
X064370Y008855D02*
X065130Y008855D01*
X064659Y009134D02*
X064370Y009134D01*
X064370Y009412D02*
X064500Y009412D01*
X064500Y009691D02*
X064370Y009691D01*
X064480Y009969D02*
X064570Y009969D01*
X064570Y010248D02*
X064417Y010248D01*
X064570Y010526D02*
X063870Y010526D01*
X063870Y010805D02*
X064570Y010805D01*
X064570Y011083D02*
X064290Y011083D01*
X064500Y011362D02*
X064500Y011362D01*
X064500Y011640D02*
X064500Y011640D01*
X064289Y011919D02*
X064711Y011919D01*
X064596Y012197D02*
X064404Y012197D01*
X064500Y012293D02*
X064500Y012707D01*
X064370Y012837D01*
X064453Y012754D02*
X064547Y012754D01*
X064500Y012476D02*
X064500Y012476D01*
X064500Y012293D02*
X064207Y012000D01*
X063711Y011919D02*
X063289Y011919D01*
X063404Y012197D02*
X063596Y012197D01*
X063500Y012476D02*
X063500Y012476D01*
X063453Y012754D02*
X063547Y012754D01*
X063630Y013033D02*
X061240Y013033D01*
X061207Y013000D02*
X060870Y013000D01*
X060870Y013000D01*
X061207Y013000D01*
X061453Y012754D02*
X061547Y012754D01*
X061500Y012707D02*
X061500Y012523D01*
X061500Y012523D01*
X061500Y012707D01*
X062000Y012500D02*
X062000Y013000D01*
X062000Y012500D02*
X062000Y012500D01*
X062000Y012000D01*
X062207Y012000D01*
X061870Y012000D01*
X062000Y012000D01*
X062000Y012500D01*
X062000Y012500D01*
X062000Y012476D02*
X062000Y012476D01*
X062000Y012197D02*
X062000Y012197D01*
X061870Y012000D02*
X061870Y012000D01*
X062289Y011919D02*
X062711Y011919D01*
X062500Y011707D02*
X062500Y011293D01*
X062500Y011707D01*
X062500Y011640D02*
X062500Y011640D01*
X062500Y011362D02*
X062500Y011362D01*
X062500Y011293D02*
X062207Y011000D01*
X061870Y011000D01*
X061870Y010926D01*
X061814Y010790D01*
X059370Y008347D01*
X059370Y008000D01*
X060727Y008000D01*
X061020Y008293D01*
X061020Y008345D01*
X061093Y008522D01*
X061228Y008657D01*
X061405Y008730D01*
X061595Y008730D01*
X061772Y008657D01*
X061907Y008522D01*
X061934Y008457D01*
X062020Y008543D01*
X062020Y008595D01*
X062093Y008772D01*
X062228Y008907D01*
X062405Y008980D01*
X062595Y008980D01*
X062772Y008907D01*
X062907Y008772D01*
X062980Y008595D01*
X062980Y008405D01*
X062907Y008228D01*
X062772Y008093D01*
X062595Y008020D01*
X062543Y008020D01*
X062523Y008000D01*
X063020Y008000D01*
X063020Y008095D01*
X063093Y008272D01*
X063130Y008309D01*
X063130Y009000D01*
X063000Y009000D01*
X063000Y009500D01*
X063000Y007250D01*
X062250Y006500D01*
X062250Y003750D01*
X062125Y003625D01*
X058630Y008000D02*
X057870Y008000D01*
X057870Y014000D01*
X058207Y014000D01*
X058500Y014293D01*
X058500Y014707D01*
X058207Y015000D01*
X057870Y015000D01*
X057870Y016000D01*
X058000Y016000D01*
X058207Y016000D01*
X058500Y016293D01*
X058500Y016500D01*
X058500Y016707D01*
X058207Y017000D01*
X058000Y017000D01*
X058000Y016500D01*
X058000Y018250D01*
X058630Y018324D02*
X050770Y018324D01*
X050770Y018046D02*
X058630Y018046D01*
X058630Y017767D02*
X050770Y017767D01*
X050770Y017489D02*
X058630Y017489D01*
X058630Y017210D02*
X057933Y017210D01*
X057907Y017272D02*
X057772Y017407D01*
X057595Y017480D01*
X057405Y017480D01*
X057228Y017407D01*
X057093Y017272D01*
X057020Y017095D01*
X057020Y016905D01*
X057093Y016728D01*
X057130Y016691D01*
X057130Y008000D01*
X056870Y008000D01*
X056870Y009441D01*
X056907Y009478D01*
X056980Y009655D01*
X056980Y009845D01*
X056907Y010022D01*
X056772Y010157D01*
X056595Y010230D01*
X056405Y010230D01*
X056228Y010157D01*
X056093Y010022D01*
X056020Y009845D01*
X056020Y009655D01*
X056093Y009478D01*
X056130Y009441D01*
X056130Y008000D01*
X051652Y008000D01*
X051604Y008020D01*
X050770Y008020D01*
X050770Y010619D01*
X050667Y010833D01*
X050651Y010845D01*
X050680Y010914D01*
X050680Y011086D01*
X050615Y011244D01*
X050608Y011250D01*
X050615Y011256D01*
X050680Y011414D01*
X050680Y011586D01*
X050615Y011744D01*
X050608Y011750D01*
X050615Y011756D01*
X050680Y011914D01*
X050680Y012086D01*
X050651Y012155D01*
X050667Y012167D01*
X050667Y012167D01*
X050667Y012167D01*
X050770Y012381D01*
X050770Y026619D01*
X050667Y026833D01*
X050651Y026845D01*
X050680Y026914D01*
X050680Y027086D01*
X050615Y027244D01*
X050608Y027250D01*
X050615Y027256D01*
X050680Y027414D01*
X050680Y027586D01*
X050615Y027744D01*
X050608Y027750D01*
X050615Y027756D01*
X050680Y027914D01*
X050680Y028086D01*
X050651Y028155D01*
X050667Y028167D01*
X050667Y028167D01*
X050667Y028167D01*
X050770Y028381D01*
X050770Y043619D01*
X050667Y043833D01*
X050651Y043845D01*
X050680Y043914D01*
X050680Y044086D01*
X050615Y044244D01*
X050608Y044250D01*
X050615Y044256D01*
X050680Y044414D01*
X050680Y044586D01*
X050615Y044744D01*
X050608Y044750D01*
X050615Y044756D01*
X050680Y044914D01*
X050680Y045086D01*
X050651Y045155D01*
X050667Y045167D01*
X050667Y045167D01*
X050667Y045167D01*
X050770Y045381D01*
X050770Y045500D01*
X074730Y045500D01*
X074730Y043421D01*
X074645Y043507D01*
X074539Y043612D01*
X074402Y043669D01*
X074164Y043669D01*
X074150Y043663D01*
X074136Y043669D01*
X073899Y043669D01*
X073783Y043621D01*
X073761Y043612D01*
X073761Y043612D01*
X073761Y043612D01*
X073695Y043546D01*
X073655Y043507D01*
X073633Y043484D01*
X073567Y043418D01*
X073558Y043396D01*
X073510Y043280D01*
X073510Y042866D01*
X073510Y043111D02*
X050770Y043111D01*
X050770Y043389D02*
X073555Y043389D01*
X073567Y043418D02*
X073567Y043418D01*
X073567Y043418D01*
X073655Y043507D02*
X073655Y043507D01*
X073895Y043668D02*
X050746Y043668D01*
X050667Y043833D02*
X050667Y043833D01*
X050680Y043946D02*
X074730Y043946D01*
X074730Y043668D02*
X074405Y043668D01*
X074160Y043668D02*
X074140Y043668D01*
X074730Y044225D02*
X050622Y044225D01*
X050680Y044503D02*
X074730Y044503D01*
X074730Y044782D02*
X050625Y044782D01*
X050680Y045060D02*
X074730Y045060D01*
X074730Y045339D02*
X050749Y045339D01*
X049849Y045155D02*
X049820Y045086D01*
X049820Y044914D01*
X049885Y044756D01*
X049892Y044750D01*
X049885Y044744D01*
X049820Y044586D01*
X049820Y044414D01*
X049885Y044256D01*
X049892Y044250D01*
X049885Y044244D01*
X049820Y044086D01*
X049820Y043914D01*
X049849Y043845D01*
X049833Y043833D01*
X049833Y043833D01*
X049833Y043833D01*
X049730Y043619D01*
X049730Y043421D01*
X049645Y043507D01*
X049539Y043612D01*
X049402Y043669D01*
X049164Y043669D01*
X049150Y043663D01*
X049136Y043669D01*
X048899Y043669D01*
X048783Y043621D01*
X048761Y043612D01*
X048761Y043612D01*
X048761Y043612D01*
X048695Y043546D01*
X048655Y043507D01*
X048633Y043484D01*
X048567Y043418D01*
X048558Y043396D01*
X048510Y043280D01*
X048510Y042866D01*
X048539Y042795D01*
X048510Y042724D01*
X048510Y042575D01*
X048552Y042473D01*
X048510Y042370D01*
X048510Y042221D01*
X048558Y042106D01*
X048510Y041991D01*
X048510Y041577D01*
X048567Y041439D01*
X048673Y041333D01*
X048810Y041276D01*
X049490Y041276D01*
X049628Y041333D01*
X049730Y041436D01*
X049730Y028381D01*
X049833Y028167D01*
X049849Y028155D01*
X049820Y028086D01*
X049820Y027914D01*
X049885Y027756D01*
X049892Y027750D01*
X049885Y027744D01*
X049820Y027586D01*
X049820Y027414D01*
X049885Y027256D01*
X049892Y027250D01*
X049885Y027244D01*
X049820Y027086D01*
X049820Y026914D01*
X049849Y026845D01*
X049833Y026833D01*
X049833Y026833D01*
X049833Y026833D01*
X049730Y026619D01*
X049730Y012381D01*
X049833Y012167D01*
X049849Y012155D01*
X049820Y012086D01*
X049820Y011914D01*
X049885Y011756D01*
X049892Y011750D01*
X049885Y011744D01*
X049820Y011586D01*
X049820Y011414D01*
X049885Y011256D01*
X049892Y011250D01*
X049885Y011244D01*
X049820Y011086D01*
X049820Y010914D01*
X049849Y010845D01*
X049833Y010833D01*
X049730Y010619D01*
X049730Y008000D01*
X048608Y008000D01*
X048494Y008115D01*
X048040Y008568D01*
X048040Y008724D01*
X047724Y009040D01*
X047276Y009040D01*
X046960Y008724D01*
X046960Y008276D01*
X047236Y008000D01*
X044870Y008000D01*
X044870Y011000D01*
X045207Y011000D01*
X045500Y011293D01*
X045500Y011707D01*
X045207Y012000D01*
X044870Y012000D01*
X044870Y013000D01*
X045000Y013000D01*
X045207Y013000D01*
X045500Y013293D01*
X045500Y013500D01*
X045500Y013707D01*
X045207Y014000D01*
X045000Y014000D01*
X045000Y013500D01*
X045750Y012750D01*
X045750Y003750D01*
X045875Y003625D01*
X048250Y003750D02*
X048375Y003625D01*
X048250Y003750D02*
X048250Y007750D01*
X047500Y008500D01*
X047909Y008855D02*
X049730Y008855D01*
X049730Y008577D02*
X048040Y008577D01*
X048310Y008298D02*
X049730Y008298D01*
X049730Y008020D02*
X048589Y008020D01*
X047217Y008020D02*
X044870Y008020D01*
X044870Y008298D02*
X046960Y008298D01*
X046960Y008577D02*
X044870Y008577D01*
X044870Y008855D02*
X047091Y008855D01*
X044870Y009134D02*
X049730Y009134D01*
X049730Y009412D02*
X044870Y009412D01*
X044870Y009691D02*
X049730Y009691D01*
X049730Y009969D02*
X044870Y009969D01*
X044870Y010248D02*
X049730Y010248D01*
X049730Y010526D02*
X044870Y010526D01*
X044870Y010805D02*
X049819Y010805D01*
X049833Y010833D02*
X049833Y010833D01*
X049820Y011083D02*
X045290Y011083D01*
X045500Y011362D02*
X049842Y011362D01*
X049843Y011640D02*
X045500Y011640D01*
X045289Y011919D02*
X049820Y011919D01*
X049833Y012167D02*
X049833Y012167D01*
X049819Y012197D02*
X044870Y012197D01*
X044870Y012476D02*
X049730Y012476D01*
X049730Y012754D02*
X044870Y012754D01*
X045000Y013000D02*
X045000Y013500D01*
X045000Y013500D01*
X045500Y013500D01*
X045000Y013500D01*
X045000Y013500D01*
X045000Y014000D01*
X044870Y014000D01*
X044870Y015074D01*
X044814Y015210D01*
X044710Y015314D01*
X040980Y019043D01*
X040980Y019095D01*
X040907Y019272D01*
X040772Y019407D01*
X040595Y019480D01*
X040405Y019480D01*
X040228Y019407D01*
X040093Y019272D01*
X040020Y019095D01*
X040020Y018980D01*
X039905Y018980D01*
X039870Y018966D01*
X039870Y020074D01*
X039814Y020210D01*
X039710Y020314D01*
X039574Y020370D01*
X034903Y020370D01*
X032620Y022653D01*
X032676Y022630D01*
X037574Y022630D01*
X037710Y022686D01*
X037814Y022790D01*
X037870Y022926D01*
X037870Y022960D01*
X038130Y022960D01*
X038130Y022926D01*
X038186Y022790D01*
X038290Y022686D01*
X038426Y022630D01*
X044480Y022630D01*
X044480Y022285D01*
X044765Y022000D01*
X044480Y021715D01*
X044480Y021285D01*
X044765Y021000D01*
X044480Y020715D01*
X044480Y020285D01*
X044765Y020000D01*
X044480Y019715D01*
X044480Y019500D01*
X045000Y019500D01*
X046000Y019500D01*
X046750Y020250D01*
X046750Y024750D01*
X046000Y025500D01*
X046520Y025500D01*
X046520Y025715D01*
X046254Y025981D01*
X046814Y026540D01*
X046870Y026676D01*
X046870Y040574D01*
X046814Y040710D01*
X046710Y040814D01*
X046000Y041523D01*
X046000Y041707D01*
X045707Y042000D01*
X046000Y042293D01*
X046000Y042707D01*
X045707Y043000D01*
X046000Y043293D01*
X046000Y043500D01*
X046000Y043707D01*
X045707Y044000D01*
X045500Y044000D01*
X045500Y043500D01*
X046000Y043500D01*
X045500Y043500D01*
X045500Y043500D01*
X045500Y043500D01*
X045500Y043000D01*
X045707Y043000D01*
X045293Y043000D01*
X045500Y043000D01*
X045500Y043500D01*
X045500Y043500D01*
X045500Y043500D01*
X045000Y043500D01*
X045000Y043707D01*
X045293Y044000D01*
X045500Y044000D01*
X045500Y043500D01*
X045000Y043500D01*
X045000Y043293D01*
X045293Y043000D01*
X045000Y042707D01*
X045000Y042523D01*
X044686Y042210D01*
X044630Y042074D01*
X044630Y041153D01*
X043000Y039523D01*
X043000Y039707D01*
X042707Y040000D01*
X043000Y040293D01*
X043000Y040707D01*
X042707Y041000D01*
X042293Y041000D01*
X042000Y040707D01*
X042000Y040523D01*
X037790Y036314D01*
X037686Y036210D01*
X037630Y036074D01*
X037630Y030966D01*
X037595Y030980D01*
X037405Y030980D01*
X037228Y030907D01*
X037093Y030772D01*
X037020Y030595D01*
X037020Y030543D01*
X037000Y030523D01*
X037000Y030707D01*
X036707Y031000D01*
X037000Y031293D01*
X037000Y031707D01*
X036707Y032000D01*
X037000Y032293D01*
X037000Y032707D01*
X036707Y033000D01*
X036293Y033000D01*
X036000Y032707D01*
X036000Y032293D01*
X036293Y032000D01*
X036707Y032000D01*
X036293Y032000D01*
X036000Y031707D01*
X036000Y031293D01*
X036293Y031000D01*
X036707Y031000D01*
X036293Y031000D01*
X036000Y030707D01*
X036000Y030293D01*
X036293Y030000D01*
X036000Y029707D01*
X036000Y029293D01*
X036293Y029000D01*
X036000Y028707D01*
X036000Y028293D01*
X036293Y028000D01*
X036707Y028000D01*
X037000Y028293D01*
X037000Y028707D01*
X036707Y029000D01*
X036293Y029000D01*
X036707Y029000D01*
X037000Y029293D01*
X037000Y029477D01*
X037543Y030020D01*
X037595Y030020D01*
X037630Y030034D01*
X037630Y028903D01*
X035870Y027143D01*
X035870Y042130D01*
X042163Y042130D01*
X042293Y042000D01*
X042000Y041707D01*
X042000Y041293D01*
X042293Y041000D01*
X042707Y041000D01*
X043000Y041293D01*
X043000Y041477D01*
X043210Y041686D01*
X043314Y041790D01*
X043370Y041926D01*
X043370Y042824D01*
X043314Y042960D01*
X043064Y043210D01*
X042990Y043283D01*
X043000Y043293D01*
X043000Y043707D01*
X042707Y044000D01*
X042293Y044000D01*
X042163Y043870D01*
X033926Y043870D01*
X033790Y043814D01*
X033686Y043710D01*
X033630Y043574D01*
X033630Y035000D01*
X033293Y035000D01*
X033000Y034707D01*
X033000Y034293D01*
X033293Y034000D01*
X033000Y033707D01*
X033000Y033293D01*
X033293Y033000D01*
X033000Y032707D01*
X033000Y032293D01*
X033293Y032000D01*
X033000Y031707D01*
X033000Y031293D01*
X033293Y031000D01*
X033000Y030707D01*
X033000Y030293D01*
X033293Y030000D01*
X033000Y029707D01*
X033000Y029293D01*
X033293Y029000D01*
X033000Y028707D01*
X033000Y028293D01*
X033293Y028000D01*
X033630Y028000D01*
X033630Y025653D01*
X033017Y025040D01*
X032870Y025040D01*
X032870Y028574D01*
X032814Y028710D01*
X032710Y028814D01*
X031000Y030523D01*
X031000Y030707D01*
X030707Y031000D01*
X031000Y031293D01*
X031000Y031707D01*
X030707Y032000D01*
X031000Y032293D01*
X031000Y032707D01*
X030707Y033000D01*
X031000Y033293D01*
X031000Y033707D01*
X030707Y034000D01*
X031000Y034293D01*
X031000Y034500D01*
X031000Y034707D01*
X030707Y035000D01*
X030500Y035000D01*
X030500Y034500D01*
X030500Y034500D01*
X031000Y034500D01*
X030500Y034500D01*
X030500Y034500D01*
X030500Y035000D01*
X030370Y035000D01*
X030370Y037000D01*
X030707Y037000D01*
X031000Y037293D01*
X031000Y037707D01*
X030707Y038000D01*
X030370Y038000D01*
X030370Y040000D01*
X030707Y040000D01*
X031000Y040293D01*
X031000Y040707D01*
X030707Y041000D01*
X030370Y041000D01*
X030370Y041074D01*
X030314Y041210D01*
X030210Y041314D01*
X028000Y043523D01*
X028000Y043707D01*
X027707Y044000D01*
X027293Y044000D01*
X027000Y043707D01*
X027000Y043293D01*
X027293Y043000D01*
X027477Y043000D01*
X029630Y040847D01*
X029630Y028926D01*
X029686Y028790D01*
X030000Y028477D01*
X030000Y028293D01*
X030293Y028000D01*
X030707Y028000D01*
X031000Y028293D01*
X031000Y028707D01*
X030707Y029000D01*
X031000Y029293D01*
X031000Y029477D01*
X032130Y028347D01*
X032130Y025040D01*
X031870Y025040D01*
X031870Y027574D01*
X031814Y027710D01*
X031710Y027814D01*
X031574Y027870D01*
X029176Y027870D01*
X029040Y027814D01*
X028936Y027710D01*
X028686Y027460D01*
X028630Y027324D01*
X028630Y022153D01*
X028000Y021523D01*
X028000Y021707D01*
X027707Y022000D01*
X028000Y022293D01*
X028000Y022707D01*
X027707Y023000D01*
X028000Y023293D01*
X028000Y023707D01*
X027707Y024000D01*
X028000Y024293D01*
X028000Y024707D01*
X027707Y025000D01*
X028000Y025293D01*
X028000Y025707D01*
X027707Y026000D01*
X027430Y026000D01*
X027430Y026322D01*
X027608Y026500D01*
X027707Y026500D01*
X028000Y026793D01*
X028000Y027207D01*
X027930Y027277D01*
X027930Y028223D01*
X028000Y028293D01*
X028000Y028707D01*
X027707Y029000D01*
X028000Y029293D01*
X028000Y029707D01*
X027707Y030000D01*
X028000Y030293D01*
X028000Y030707D01*
X027707Y031000D01*
X028000Y031293D01*
X028000Y031707D01*
X027707Y032000D01*
X028000Y032293D01*
X028000Y032707D01*
X027707Y033000D01*
X028000Y033293D01*
X028000Y033707D01*
X027707Y034000D01*
X028000Y034293D01*
X028000Y034707D01*
X027707Y035000D01*
X027430Y035000D01*
X027430Y036822D01*
X027608Y037000D01*
X027707Y037000D01*
X028000Y037293D01*
X028000Y037707D01*
X027707Y038000D01*
X027293Y038000D01*
X027000Y037707D01*
X027000Y037608D01*
X026756Y037365D01*
X026635Y037244D01*
X026570Y037086D01*
X026570Y019914D01*
X026635Y019756D01*
X026756Y019635D01*
X027000Y019392D01*
X027000Y019293D01*
X027070Y019223D01*
X027070Y018277D01*
X027000Y018207D01*
X027000Y018108D01*
X026756Y017865D01*
X026635Y017744D01*
X026570Y017586D01*
X026570Y010914D01*
X026635Y010756D01*
X027000Y010392D01*
X027000Y010293D01*
X027070Y010223D01*
X027070Y009277D01*
X027000Y009207D01*
X027000Y008793D01*
X027293Y008500D01*
X027707Y008500D01*
X028000Y008793D01*
X028000Y009207D01*
X027930Y009277D01*
X027930Y010223D01*
X028000Y010293D01*
X028000Y010707D01*
X027707Y011000D01*
X028000Y011293D01*
X028000Y011707D01*
X027707Y012000D01*
X028000Y012293D01*
X028000Y012707D01*
X027707Y013000D01*
X028000Y013293D01*
X028000Y013707D01*
X027707Y014000D01*
X028000Y014293D01*
X028000Y014707D01*
X027707Y015000D01*
X028000Y015293D01*
X028000Y015707D01*
X027707Y016000D01*
X028000Y016293D01*
X028000Y016707D01*
X027707Y017000D01*
X027430Y017000D01*
X027430Y017322D01*
X027608Y017500D01*
X027707Y017500D01*
X028000Y017793D01*
X028000Y018207D01*
X027930Y018277D01*
X027930Y019223D01*
X028000Y019293D01*
X028000Y019707D01*
X027707Y020000D01*
X028000Y020293D01*
X028000Y020477D01*
X029210Y021686D01*
X029314Y021790D01*
X029370Y021926D01*
X029370Y026500D01*
X029500Y026500D01*
X029500Y018000D01*
X029500Y009000D01*
X032000Y006500D01*
X032000Y003750D01*
X032125Y003625D01*
X034625Y003625D02*
X034750Y003750D01*
X034750Y006750D01*
X037000Y007000D02*
X037000Y003750D01*
X037125Y003625D01*
X039500Y003750D02*
X039625Y003625D01*
X039500Y003750D02*
X039500Y007000D01*
X041370Y008000D02*
X041370Y017574D01*
X041347Y017630D01*
X044130Y014847D01*
X044130Y008000D01*
X043620Y008000D01*
X043620Y012824D01*
X043564Y012960D01*
X043480Y013043D01*
X043480Y013095D01*
X043407Y013272D01*
X043272Y013407D01*
X043095Y013480D01*
X043000Y013480D01*
X043000Y013707D01*
X042707Y014000D01*
X043000Y014293D01*
X043000Y014707D01*
X042707Y015000D01*
X042293Y015000D01*
X042000Y014707D01*
X042000Y014293D01*
X042293Y014000D01*
X042707Y014000D01*
X042293Y014000D01*
X042000Y013707D01*
X042000Y013293D01*
X042293Y013000D01*
X042000Y012707D01*
X042000Y012293D01*
X042293Y012000D01*
X042000Y011707D01*
X042000Y011293D01*
X042293Y011000D01*
X042000Y010707D01*
X042000Y010293D01*
X042293Y010000D01*
X042000Y009707D01*
X042000Y009293D01*
X042293Y009000D01*
X042707Y009000D01*
X042880Y009173D01*
X042880Y008000D01*
X041370Y008000D01*
X041370Y008020D02*
X042880Y008020D01*
X042880Y008298D02*
X041370Y008298D01*
X041370Y008577D02*
X042880Y008577D01*
X042880Y008855D02*
X041370Y008855D01*
X041370Y009134D02*
X042159Y009134D01*
X042000Y009412D02*
X041370Y009412D01*
X041370Y009691D02*
X042000Y009691D01*
X042262Y009969D02*
X041370Y009969D01*
X041370Y010248D02*
X042045Y010248D01*
X042000Y010526D02*
X041370Y010526D01*
X041370Y010805D02*
X042097Y010805D01*
X042293Y011000D02*
X042707Y011000D01*
X042880Y010827D01*
X042880Y011173D01*
X042707Y011000D01*
X042293Y011000D01*
X042210Y011083D02*
X041370Y011083D01*
X041370Y011362D02*
X042000Y011362D01*
X042000Y011640D02*
X041370Y011640D01*
X041370Y011919D02*
X042211Y011919D01*
X042293Y012000D02*
X042707Y012000D01*
X042880Y011827D01*
X042880Y012173D01*
X042707Y012000D01*
X042293Y012000D01*
X042096Y012197D02*
X041370Y012197D01*
X041370Y012476D02*
X042000Y012476D01*
X042047Y012754D02*
X041370Y012754D01*
X041370Y013033D02*
X042260Y013033D01*
X042293Y013000D02*
X042520Y013000D01*
X042520Y013000D01*
X042293Y013000D01*
X042000Y013311D02*
X041370Y013311D01*
X041370Y013590D02*
X042000Y013590D01*
X042161Y013868D02*
X041370Y013868D01*
X041370Y014147D02*
X042146Y014147D01*
X042000Y014425D02*
X041370Y014425D01*
X041370Y014704D02*
X042000Y014704D01*
X042000Y015000D02*
X042500Y015500D01*
X043000Y015500D01*
X043000Y015707D01*
X042707Y016000D01*
X042500Y016000D01*
X042500Y015500D01*
X042500Y015500D01*
X042500Y015500D01*
X043000Y015500D01*
X043000Y015293D01*
X042707Y015000D01*
X042500Y015000D01*
X042500Y015500D01*
X042500Y015500D01*
X042500Y015500D01*
X042000Y015500D01*
X042000Y015707D01*
X042293Y016000D01*
X042500Y016000D01*
X042500Y015500D01*
X042500Y015000D01*
X042293Y015000D01*
X042000Y015293D01*
X042000Y015500D01*
X042500Y015500D01*
X042500Y015539D02*
X042500Y015539D01*
X042500Y015261D02*
X042500Y015261D01*
X042725Y014982D02*
X043995Y014982D01*
X044130Y014704D02*
X043000Y014704D01*
X043000Y014425D02*
X044130Y014425D01*
X044130Y014147D02*
X042854Y014147D01*
X042839Y013868D02*
X044130Y013868D01*
X044130Y013590D02*
X043000Y013590D01*
X043368Y013311D02*
X044130Y013311D01*
X044130Y013033D02*
X043491Y013033D01*
X043620Y012754D02*
X044130Y012754D01*
X044130Y012476D02*
X043620Y012476D01*
X043620Y012197D02*
X044130Y012197D01*
X044130Y011919D02*
X043620Y011919D01*
X043620Y011640D02*
X044130Y011640D01*
X044130Y011362D02*
X043620Y011362D01*
X043620Y011083D02*
X044130Y011083D01*
X044130Y010805D02*
X043620Y010805D01*
X043620Y010526D02*
X044130Y010526D01*
X044130Y010248D02*
X043620Y010248D01*
X043620Y009969D02*
X044130Y009969D01*
X044130Y009691D02*
X043620Y009691D01*
X043620Y009412D02*
X044130Y009412D01*
X044130Y009134D02*
X043620Y009134D01*
X043620Y008855D02*
X044130Y008855D01*
X044130Y008577D02*
X043620Y008577D01*
X043620Y008298D02*
X044130Y008298D01*
X044130Y008020D02*
X043620Y008020D01*
X042880Y009134D02*
X042841Y009134D01*
X042880Y009827D02*
X042707Y010000D01*
X042293Y010000D01*
X042707Y010000D01*
X042880Y010173D01*
X042880Y009827D01*
X042880Y009969D02*
X042738Y009969D01*
X042790Y011083D02*
X042880Y011083D01*
X042880Y011919D02*
X042789Y011919D01*
X045000Y013000D02*
X045000Y013500D01*
X045000Y013500D01*
X045000Y013590D02*
X045000Y013590D01*
X045000Y013868D02*
X045000Y013868D01*
X044870Y014147D02*
X049730Y014147D01*
X049730Y014425D02*
X044870Y014425D01*
X044870Y014704D02*
X049730Y014704D01*
X049730Y014982D02*
X044870Y014982D01*
X044763Y015261D02*
X049730Y015261D01*
X049730Y015539D02*
X044484Y015539D01*
X044206Y015818D02*
X049730Y015818D01*
X049730Y016096D02*
X047860Y016096D01*
X047724Y015960D02*
X048040Y016276D01*
X048040Y016500D01*
X048040Y016724D01*
X047724Y017040D01*
X047500Y017040D01*
X047500Y016500D01*
X047500Y016500D01*
X048040Y016500D01*
X047500Y016500D01*
X047500Y016500D01*
X047500Y016500D01*
X046960Y016500D01*
X046960Y016724D01*
X047276Y017040D01*
X047500Y017040D01*
X047500Y016500D01*
X047500Y015960D01*
X047724Y015960D01*
X047500Y015960D02*
X047500Y016500D01*
X047500Y016500D01*
X046960Y016500D01*
X046960Y016276D01*
X047276Y015960D01*
X047500Y015960D01*
X047500Y016096D02*
X047500Y016096D01*
X047500Y016375D02*
X047500Y016375D01*
X047500Y016653D02*
X047500Y016653D01*
X047500Y016932D02*
X047500Y016932D01*
X047832Y016932D02*
X049730Y016932D01*
X049730Y017210D02*
X042813Y017210D01*
X042535Y017489D02*
X049730Y017489D01*
X049730Y017767D02*
X042256Y017767D01*
X041978Y018046D02*
X049730Y018046D01*
X049730Y018324D02*
X041699Y018324D01*
X041421Y018603D02*
X049730Y018603D01*
X049730Y018881D02*
X041142Y018881D01*
X040953Y019160D02*
X044605Y019160D01*
X044480Y019285D02*
X044785Y018980D01*
X045000Y018980D01*
X045215Y018980D01*
X045500Y019265D01*
X045785Y018980D01*
X046000Y018980D01*
X046215Y018980D01*
X046520Y019285D01*
X046520Y019500D01*
X046520Y019715D01*
X046235Y020000D01*
X046520Y020285D01*
X046520Y020715D01*
X046235Y021000D01*
X046520Y021285D01*
X046520Y021715D01*
X046235Y022000D01*
X046520Y022285D01*
X046520Y022715D01*
X046235Y023000D01*
X046520Y023285D01*
X046520Y023715D01*
X046235Y024000D01*
X046520Y024285D01*
X046520Y024715D01*
X046235Y025000D01*
X046520Y025285D01*
X046520Y025500D01*
X046000Y025500D01*
X046000Y025500D01*
X046392Y025844D02*
X049730Y025844D01*
X049730Y026122D02*
X046395Y026122D01*
X046674Y026401D02*
X049730Y026401D01*
X049759Y026679D02*
X046870Y026679D01*
X046870Y026958D02*
X049820Y026958D01*
X049882Y027236D02*
X046870Y027236D01*
X046870Y027515D02*
X049820Y027515D01*
X049870Y027793D02*
X046870Y027793D01*
X046870Y028072D02*
X049820Y028072D01*
X049833Y028167D02*
X049833Y028167D01*
X049745Y028350D02*
X046870Y028350D01*
X046870Y028629D02*
X049730Y028629D01*
X049730Y028907D02*
X046870Y028907D01*
X046870Y029186D02*
X049730Y029186D01*
X049730Y029464D02*
X046870Y029464D01*
X046870Y029743D02*
X049730Y029743D01*
X049730Y030021D02*
X046870Y030021D01*
X046870Y030300D02*
X049730Y030300D01*
X049730Y030578D02*
X046870Y030578D01*
X046870Y030857D02*
X049730Y030857D01*
X049730Y031135D02*
X046870Y031135D01*
X046870Y031414D02*
X049730Y031414D01*
X049730Y031692D02*
X046870Y031692D01*
X046870Y031971D02*
X049730Y031971D01*
X049730Y032249D02*
X046870Y032249D01*
X046870Y032528D02*
X049730Y032528D01*
X049730Y032806D02*
X046870Y032806D01*
X046870Y033085D02*
X049730Y033085D01*
X049730Y033363D02*
X046870Y033363D01*
X046870Y033642D02*
X049730Y033642D01*
X049730Y033920D02*
X046870Y033920D01*
X046870Y034199D02*
X049730Y034199D01*
X049730Y034477D02*
X046870Y034477D01*
X046870Y034756D02*
X049730Y034756D01*
X049730Y035034D02*
X046870Y035034D01*
X046870Y035313D02*
X049730Y035313D01*
X049730Y035591D02*
X046870Y035591D01*
X046870Y035870D02*
X049730Y035870D01*
X049730Y036148D02*
X046870Y036148D01*
X046870Y036427D02*
X049730Y036427D01*
X049730Y036705D02*
X046870Y036705D01*
X046870Y036984D02*
X049730Y036984D01*
X049730Y037262D02*
X046870Y037262D01*
X046870Y037541D02*
X049730Y037541D01*
X049730Y037819D02*
X046870Y037819D01*
X046870Y038098D02*
X049730Y038098D01*
X049730Y038376D02*
X046870Y038376D01*
X046870Y038655D02*
X049730Y038655D01*
X049730Y038933D02*
X046870Y038933D01*
X046870Y039212D02*
X049730Y039212D01*
X049730Y039490D02*
X046870Y039490D01*
X046870Y039769D02*
X049730Y039769D01*
X049730Y040047D02*
X046870Y040047D01*
X046870Y040326D02*
X049730Y040326D01*
X049730Y040604D02*
X046857Y040604D01*
X046641Y040883D02*
X049730Y040883D01*
X049730Y041161D02*
X046362Y041161D01*
X046084Y041440D02*
X048567Y041440D01*
X048510Y041718D02*
X045989Y041718D01*
X045711Y041997D02*
X048512Y041997D01*
X048510Y042275D02*
X045982Y042275D01*
X046000Y042554D02*
X048519Y042554D01*
X048524Y042832D02*
X045875Y042832D01*
X045818Y043111D02*
X048510Y043111D01*
X048555Y043389D02*
X046000Y043389D01*
X046000Y043668D02*
X048895Y043668D01*
X049140Y043668D02*
X049160Y043668D01*
X049405Y043668D02*
X049754Y043668D01*
X049820Y043946D02*
X045761Y043946D01*
X045500Y043946D02*
X045500Y043946D01*
X045239Y043946D02*
X042761Y043946D01*
X043000Y043668D02*
X045000Y043668D01*
X045000Y043389D02*
X043000Y043389D01*
X043163Y043111D02*
X045182Y043111D01*
X045125Y042832D02*
X043367Y042832D01*
X043370Y042554D02*
X045000Y042554D01*
X044752Y042275D02*
X043370Y042275D01*
X043370Y041997D02*
X044630Y041997D01*
X044630Y041718D02*
X043241Y041718D01*
X043000Y041440D02*
X044630Y041440D01*
X044630Y041161D02*
X042868Y041161D01*
X042825Y040883D02*
X044359Y040883D01*
X044081Y040604D02*
X043000Y040604D01*
X043000Y040326D02*
X043802Y040326D01*
X043524Y040047D02*
X042754Y040047D01*
X042707Y040000D02*
X042523Y040000D01*
X042523Y040000D01*
X042707Y040000D01*
X042939Y039769D02*
X043245Y039769D01*
X042000Y040604D02*
X035870Y040604D01*
X035870Y040326D02*
X041802Y040326D01*
X041524Y040047D02*
X035870Y040047D01*
X035870Y039769D02*
X041245Y039769D01*
X040967Y039490D02*
X035870Y039490D01*
X035870Y039212D02*
X040688Y039212D01*
X040410Y038933D02*
X035870Y038933D01*
X035870Y038655D02*
X040131Y038655D01*
X039853Y038376D02*
X035870Y038376D01*
X035870Y038098D02*
X039574Y038098D01*
X039296Y037819D02*
X035870Y037819D01*
X035870Y037541D02*
X039017Y037541D01*
X038739Y037262D02*
X035870Y037262D01*
X035870Y036984D02*
X038460Y036984D01*
X038182Y036705D02*
X035870Y036705D01*
X035870Y036427D02*
X037903Y036427D01*
X037661Y036148D02*
X035870Y036148D01*
X035870Y035870D02*
X037630Y035870D01*
X037630Y035591D02*
X035870Y035591D01*
X035870Y035313D02*
X037630Y035313D01*
X037630Y035034D02*
X035870Y035034D01*
X035870Y034756D02*
X036048Y034756D01*
X036000Y034707D02*
X036000Y034500D01*
X036500Y034500D01*
X037000Y034500D01*
X037000Y034707D01*
X036707Y035000D01*
X036500Y035000D01*
X036500Y034500D01*
X036500Y034500D01*
X036500Y034500D01*
X037000Y034500D01*
X037000Y034293D01*
X036707Y034000D01*
X036293Y034000D01*
X036000Y033707D01*
X036000Y033293D01*
X036293Y033000D01*
X036707Y033000D01*
X037000Y033293D01*
X037000Y033707D01*
X036707Y034000D01*
X036500Y034000D01*
X036500Y034500D01*
X036500Y034500D01*
X036500Y034500D01*
X036500Y035000D01*
X036293Y035000D01*
X036000Y034707D01*
X036000Y034500D02*
X036000Y034293D01*
X036293Y034000D01*
X036500Y034000D01*
X036500Y034500D01*
X036000Y034500D01*
X036000Y034477D02*
X035870Y034477D01*
X035870Y034199D02*
X036094Y034199D01*
X036213Y033920D02*
X035870Y033920D01*
X035870Y033642D02*
X036000Y033642D01*
X036000Y033363D02*
X035870Y033363D01*
X035870Y033085D02*
X036208Y033085D01*
X036099Y032806D02*
X035870Y032806D01*
X035870Y032528D02*
X036000Y032528D01*
X036044Y032249D02*
X035870Y032249D01*
X035870Y031971D02*
X036263Y031971D01*
X036000Y031692D02*
X035870Y031692D01*
X035870Y031414D02*
X036000Y031414D01*
X035870Y031135D02*
X036158Y031135D01*
X036149Y030857D02*
X035870Y030857D01*
X035870Y030578D02*
X036000Y030578D01*
X036000Y030300D02*
X035870Y030300D01*
X035870Y030021D02*
X036272Y030021D01*
X036293Y030000D02*
X036477Y030000D01*
X036477Y030000D01*
X036293Y030000D01*
X036035Y029743D02*
X035870Y029743D01*
X035870Y029464D02*
X036000Y029464D01*
X036107Y029186D02*
X035870Y029186D01*
X035870Y028907D02*
X036200Y028907D01*
X036000Y028629D02*
X035870Y028629D01*
X035870Y028350D02*
X036000Y028350D01*
X035870Y028072D02*
X036221Y028072D01*
X036520Y027793D02*
X035870Y027793D01*
X035870Y027515D02*
X036241Y027515D01*
X035963Y027236D02*
X035870Y027236D01*
X036779Y028072D02*
X036798Y028072D01*
X037000Y028350D02*
X037077Y028350D01*
X037000Y028629D02*
X037355Y028629D01*
X037630Y028907D02*
X036800Y028907D01*
X036893Y029186D02*
X037630Y029186D01*
X037630Y029464D02*
X037000Y029464D01*
X037266Y029743D02*
X037630Y029743D01*
X037630Y030021D02*
X037598Y030021D01*
X037020Y030578D02*
X037000Y030578D01*
X036851Y030857D02*
X037178Y030857D01*
X036842Y031135D02*
X037630Y031135D01*
X037630Y031414D02*
X037000Y031414D01*
X037000Y031692D02*
X037630Y031692D01*
X037630Y031971D02*
X036737Y031971D01*
X036956Y032249D02*
X037630Y032249D01*
X037630Y032528D02*
X037000Y032528D01*
X036901Y032806D02*
X037630Y032806D01*
X037630Y033085D02*
X036792Y033085D01*
X037000Y033363D02*
X037630Y033363D01*
X037630Y033642D02*
X037000Y033642D01*
X036787Y033920D02*
X037630Y033920D01*
X037630Y034199D02*
X036906Y034199D01*
X037000Y034477D02*
X037630Y034477D01*
X037630Y034756D02*
X036952Y034756D01*
X036500Y034756D02*
X036500Y034756D01*
X036500Y034477D02*
X036500Y034477D01*
X036500Y034199D02*
X036500Y034199D01*
X033630Y034000D02*
X033293Y034000D01*
X033630Y034000D01*
X033630Y034000D01*
X033213Y033920D02*
X030787Y033920D01*
X030707Y034000D02*
X030500Y034000D01*
X030500Y034500D01*
X030500Y034500D01*
X030500Y034000D01*
X030370Y034000D01*
X030370Y034000D01*
X030707Y034000D01*
X030906Y034199D02*
X033094Y034199D01*
X033000Y034477D02*
X031000Y034477D01*
X030952Y034756D02*
X033048Y034756D01*
X033630Y035034D02*
X030370Y035034D01*
X030370Y035313D02*
X033630Y035313D01*
X033630Y035591D02*
X030370Y035591D01*
X030370Y035870D02*
X033630Y035870D01*
X033630Y036148D02*
X030370Y036148D01*
X030370Y036427D02*
X033630Y036427D01*
X033630Y036705D02*
X030370Y036705D01*
X030370Y036984D02*
X033630Y036984D01*
X033630Y037262D02*
X030969Y037262D01*
X031000Y037541D02*
X033630Y037541D01*
X033630Y037819D02*
X030888Y037819D01*
X030370Y038098D02*
X033630Y038098D01*
X033630Y038376D02*
X030370Y038376D01*
X030370Y038655D02*
X033630Y038655D01*
X033630Y038933D02*
X030370Y038933D01*
X030370Y039212D02*
X033630Y039212D01*
X033630Y039490D02*
X030370Y039490D01*
X030370Y039769D02*
X033630Y039769D01*
X033630Y040047D02*
X030754Y040047D01*
X031000Y040326D02*
X033630Y040326D01*
X033630Y040604D02*
X033311Y040604D01*
X033207Y040500D02*
X033500Y040793D01*
X033500Y041207D01*
X033207Y041500D01*
X032793Y041500D01*
X032500Y041207D01*
X032500Y040793D01*
X032793Y040500D01*
X033207Y040500D01*
X033500Y040883D02*
X033630Y040883D01*
X033630Y041161D02*
X033500Y041161D01*
X033630Y041440D02*
X033268Y041440D01*
X033630Y041718D02*
X029805Y041718D01*
X029527Y041997D02*
X033630Y041997D01*
X033630Y042275D02*
X029248Y042275D01*
X028970Y042554D02*
X032739Y042554D01*
X032793Y042500D02*
X032500Y042793D01*
X032500Y043000D01*
X033000Y043000D01*
X033000Y043000D01*
X033000Y043500D01*
X033207Y043500D01*
X033500Y043207D01*
X033500Y043000D01*
X033000Y043000D01*
X033000Y043000D01*
X033000Y043000D01*
X033000Y043500D01*
X032793Y043500D01*
X032500Y043207D01*
X032500Y043000D01*
X033000Y043000D01*
X033500Y043000D01*
X033500Y042793D01*
X033207Y042500D01*
X033000Y042500D01*
X033000Y043000D01*
X033000Y043000D01*
X033000Y042500D01*
X032793Y042500D01*
X033000Y042554D02*
X033000Y042554D01*
X033261Y042554D02*
X033630Y042554D01*
X033630Y042832D02*
X033500Y042832D01*
X033500Y043111D02*
X033630Y043111D01*
X033630Y043389D02*
X033318Y043389D01*
X033000Y043389D02*
X033000Y043389D01*
X033000Y043111D02*
X033000Y043111D01*
X033000Y042832D02*
X033000Y042832D01*
X032500Y042832D02*
X028691Y042832D01*
X028413Y043111D02*
X030182Y043111D01*
X030293Y043000D02*
X030000Y043293D01*
X030000Y043500D01*
X030500Y043500D01*
X030500Y043500D01*
X030500Y044000D01*
X030707Y044000D01*
X031000Y043707D01*
X031000Y043500D01*
X030500Y043500D01*
X030500Y043500D01*
X030500Y043500D01*
X030500Y044000D01*
X030293Y044000D01*
X030000Y043707D01*
X030000Y043500D01*
X030500Y043500D01*
X031000Y043500D01*
X031000Y043293D01*
X030707Y043000D01*
X030500Y043000D01*
X030500Y043500D01*
X030500Y043500D01*
X030500Y043000D01*
X030293Y043000D01*
X030500Y043111D02*
X030500Y043111D01*
X030500Y043389D02*
X030500Y043389D01*
X030500Y043668D02*
X030500Y043668D01*
X030500Y043946D02*
X030500Y043946D01*
X030761Y043946D02*
X042239Y043946D01*
X042293Y042000D02*
X042477Y042000D01*
X042477Y042000D01*
X042293Y042000D01*
X042289Y041997D02*
X035870Y041997D01*
X035870Y041718D02*
X042011Y041718D01*
X042000Y041440D02*
X035870Y041440D01*
X035870Y041161D02*
X042132Y041161D01*
X042175Y040883D02*
X035870Y040883D01*
X032732Y041440D02*
X030084Y041440D01*
X030334Y041161D02*
X032500Y041161D01*
X032500Y040883D02*
X030825Y040883D01*
X031000Y040604D02*
X032689Y040604D01*
X029630Y040604D02*
X028000Y040604D01*
X028000Y040707D02*
X027707Y041000D01*
X027293Y041000D01*
X027000Y040707D01*
X027000Y040293D01*
X027293Y040000D01*
X027707Y040000D01*
X028000Y040293D01*
X028000Y040707D01*
X027825Y040883D02*
X029594Y040883D01*
X029316Y041161D02*
X025770Y041161D01*
X025770Y040883D02*
X027175Y040883D01*
X027000Y040604D02*
X025770Y040604D01*
X025770Y040326D02*
X027000Y040326D01*
X027246Y040047D02*
X025770Y040047D01*
X025770Y039769D02*
X029630Y039769D01*
X029630Y040047D02*
X027754Y040047D01*
X028000Y040326D02*
X029630Y040326D01*
X029630Y039490D02*
X025770Y039490D01*
X025770Y039212D02*
X029630Y039212D01*
X029630Y038933D02*
X025770Y038933D01*
X025770Y038655D02*
X029630Y038655D01*
X029630Y038376D02*
X025770Y038376D01*
X025770Y038098D02*
X029630Y038098D01*
X029630Y037819D02*
X027888Y037819D01*
X028000Y037541D02*
X029630Y037541D01*
X029630Y037262D02*
X027969Y037262D01*
X027592Y036984D02*
X029630Y036984D01*
X029630Y036705D02*
X027430Y036705D01*
X027430Y036427D02*
X029630Y036427D01*
X029630Y036148D02*
X027430Y036148D01*
X027430Y035870D02*
X029630Y035870D01*
X029630Y035591D02*
X027430Y035591D01*
X027430Y035313D02*
X029630Y035313D01*
X029630Y035034D02*
X027430Y035034D01*
X027952Y034756D02*
X029630Y034756D01*
X029630Y034477D02*
X028000Y034477D01*
X027906Y034199D02*
X029630Y034199D01*
X029630Y033920D02*
X027787Y033920D01*
X027707Y034000D02*
X027430Y034000D01*
X027430Y034000D01*
X027707Y034000D01*
X028000Y033642D02*
X029630Y033642D01*
X029630Y033363D02*
X028000Y033363D01*
X027792Y033085D02*
X029630Y033085D01*
X029630Y032806D02*
X027901Y032806D01*
X027707Y033000D02*
X027430Y033000D01*
X027707Y033000D01*
X027430Y033000D02*
X027430Y033000D01*
X028000Y032528D02*
X029630Y032528D01*
X029630Y032249D02*
X027956Y032249D01*
X027707Y032000D02*
X027430Y032000D01*
X027430Y032000D01*
X027707Y032000D01*
X027737Y031971D02*
X029630Y031971D01*
X029630Y031692D02*
X028000Y031692D01*
X028000Y031414D02*
X029630Y031414D01*
X029630Y031135D02*
X027842Y031135D01*
X027707Y031000D02*
X027430Y031000D01*
X027430Y031000D01*
X027707Y031000D01*
X027851Y030857D02*
X029630Y030857D01*
X029630Y030578D02*
X028000Y030578D01*
X028000Y030300D02*
X029630Y030300D01*
X029630Y030021D02*
X027728Y030021D01*
X027707Y030000D02*
X027430Y030000D01*
X027430Y030000D01*
X027707Y030000D01*
X027965Y029743D02*
X029630Y029743D01*
X029630Y029464D02*
X028000Y029464D01*
X027893Y029186D02*
X029630Y029186D01*
X029638Y028907D02*
X027800Y028907D01*
X027707Y029000D02*
X027430Y029000D01*
X027707Y029000D01*
X027430Y029000D02*
X027430Y029000D01*
X027500Y028500D02*
X027500Y027000D01*
X027000Y026500D01*
X027000Y037000D01*
X027500Y037500D01*
X027112Y037819D02*
X025770Y037819D01*
X025770Y037541D02*
X026932Y037541D01*
X026654Y037262D02*
X025770Y037262D01*
X025770Y036984D02*
X026570Y036984D01*
X026570Y036705D02*
X025770Y036705D01*
X025770Y036427D02*
X026570Y036427D01*
X026570Y036148D02*
X025770Y036148D01*
X025770Y035870D02*
X026570Y035870D01*
X026570Y035591D02*
X025770Y035591D01*
X025770Y035313D02*
X026570Y035313D01*
X026570Y035034D02*
X025770Y035034D01*
X025770Y034756D02*
X026570Y034756D01*
X026570Y034477D02*
X025770Y034477D01*
X025770Y034199D02*
X026570Y034199D01*
X026570Y033920D02*
X025770Y033920D01*
X025770Y033642D02*
X026570Y033642D01*
X026570Y033363D02*
X025770Y033363D01*
X025770Y033085D02*
X026570Y033085D01*
X026570Y032806D02*
X025770Y032806D01*
X025770Y032528D02*
X026570Y032528D01*
X026570Y032249D02*
X025770Y032249D01*
X025770Y031971D02*
X026570Y031971D01*
X026570Y031692D02*
X025770Y031692D01*
X025770Y031414D02*
X026570Y031414D01*
X026570Y031135D02*
X025770Y031135D01*
X025770Y030857D02*
X026570Y030857D01*
X026570Y030578D02*
X025770Y030578D01*
X025770Y030300D02*
X026570Y030300D01*
X026570Y030021D02*
X025770Y030021D01*
X025770Y029743D02*
X026570Y029743D01*
X026570Y029464D02*
X025770Y029464D01*
X025770Y029186D02*
X026570Y029186D01*
X026570Y028907D02*
X025770Y028907D01*
X025770Y028629D02*
X026570Y028629D01*
X026570Y028350D02*
X025755Y028350D01*
X025770Y028381D02*
X025770Y043619D01*
X025667Y043833D01*
X025651Y043845D01*
X025680Y043914D01*
X025680Y044086D01*
X025615Y044244D01*
X025608Y044250D01*
X025615Y044256D01*
X025680Y044414D01*
X025680Y044586D01*
X025615Y044744D01*
X025608Y044750D01*
X025615Y044756D01*
X025680Y044914D01*
X025680Y045086D01*
X025651Y045155D01*
X025667Y045167D01*
X025667Y045167D01*
X025667Y045167D01*
X025770Y045381D01*
X025770Y045500D01*
X049730Y045500D01*
X049730Y045381D01*
X049833Y045167D01*
X049849Y045155D01*
X049833Y045167D02*
X049833Y045167D01*
X049820Y045060D02*
X025680Y045060D01*
X025625Y044782D02*
X049875Y044782D01*
X049820Y044503D02*
X025680Y044503D01*
X025622Y044225D02*
X049878Y044225D01*
X049751Y045339D02*
X025749Y045339D01*
X024849Y045155D02*
X024820Y045086D01*
X024820Y044914D01*
X024885Y044756D01*
X024892Y044750D01*
X024885Y044744D01*
X024820Y044586D01*
X024820Y044414D01*
X024885Y044256D01*
X024892Y044250D01*
X024885Y044244D01*
X024820Y044086D01*
X024820Y043914D01*
X024849Y043845D01*
X024833Y043833D01*
X024833Y043833D01*
X024833Y043833D01*
X024730Y043619D01*
X024730Y043421D01*
X024539Y043612D01*
X024402Y043669D01*
X024252Y043669D01*
X024150Y043627D01*
X024048Y043669D01*
X023899Y043669D01*
X023761Y043612D01*
X023631Y043482D01*
X023567Y043418D01*
X023557Y043393D01*
X023510Y043280D01*
X023510Y042954D01*
X023558Y042839D01*
X023510Y042724D01*
X023510Y042575D01*
X023552Y042473D01*
X023510Y042370D01*
X023510Y042221D01*
X023558Y042106D01*
X023510Y041991D01*
X023510Y041577D01*
X023567Y041439D01*
X023673Y041333D01*
X023810Y041276D01*
X024490Y041276D01*
X024628Y041333D01*
X024730Y041436D01*
X024730Y028381D01*
X024833Y028167D01*
X024849Y028155D01*
X024820Y028086D01*
X024820Y027914D01*
X024885Y027756D01*
X024892Y027750D01*
X024885Y027744D01*
X024820Y027586D01*
X024820Y027414D01*
X024885Y027256D01*
X024892Y027250D01*
X024885Y027244D01*
X024820Y027086D01*
X024820Y026914D01*
X024849Y026845D01*
X024833Y026833D01*
X024833Y026833D01*
X024833Y026833D01*
X024730Y026619D01*
X024730Y012381D01*
X024833Y012167D01*
X024849Y012155D01*
X024820Y012086D01*
X024820Y011914D01*
X024885Y011756D01*
X024892Y011750D01*
X024885Y011744D01*
X024820Y011586D01*
X024820Y011414D01*
X024885Y011256D01*
X024892Y011250D01*
X024885Y011244D01*
X024820Y011086D01*
X024820Y010914D01*
X024849Y010845D01*
X024833Y010833D01*
X024833Y010833D01*
X024833Y010833D01*
X024730Y010619D01*
X024730Y008000D01*
X023608Y008000D01*
X023040Y008568D01*
X023040Y008724D01*
X022724Y009040D01*
X022276Y009040D01*
X021960Y008724D01*
X021960Y008276D01*
X022236Y008000D01*
X021870Y008000D01*
X021870Y014574D01*
X021814Y014710D01*
X021710Y014814D01*
X020480Y016043D01*
X020480Y016095D01*
X020407Y016272D01*
X020272Y016407D01*
X020095Y016480D01*
X019905Y016480D01*
X019728Y016407D01*
X019593Y016272D01*
X019520Y016095D01*
X019520Y015905D01*
X019593Y015728D01*
X019728Y015593D01*
X019905Y015520D01*
X019957Y015520D01*
X021130Y014347D01*
X021130Y008000D01*
X019870Y008000D01*
X019870Y014074D01*
X019814Y014210D01*
X019710Y014314D01*
X019574Y014370D01*
X017500Y014370D01*
X017500Y014500D01*
X017500Y014707D01*
X017207Y015000D01*
X017500Y015293D01*
X017500Y015707D01*
X017207Y016000D01*
X017500Y016293D01*
X017500Y016707D01*
X017207Y017000D01*
X016793Y017000D01*
X016500Y016707D01*
X016500Y016293D01*
X016793Y016000D01*
X017207Y016000D01*
X016793Y016000D01*
X016500Y015707D01*
X016207Y016000D01*
X015793Y016000D01*
X015500Y015707D01*
X015500Y015293D01*
X015793Y015000D01*
X015500Y014707D01*
X015500Y014608D01*
X014135Y013244D01*
X014070Y013086D01*
X014070Y013000D01*
X013793Y013000D01*
X013500Y012707D01*
X013207Y013000D01*
X013023Y013000D01*
X012814Y013210D01*
X012710Y013314D01*
X012574Y013370D01*
X011500Y013370D01*
X011500Y013707D01*
X011207Y014000D01*
X011500Y014293D01*
X011500Y014707D01*
X011207Y015000D01*
X011500Y015293D01*
X011500Y015707D01*
X011207Y016000D01*
X010793Y016000D01*
X010500Y015707D01*
X010207Y016000D01*
X010500Y016293D01*
X010500Y016500D01*
X010500Y016707D01*
X010207Y017000D01*
X010500Y017293D01*
X010793Y017000D01*
X011207Y017000D01*
X011500Y017293D01*
X011793Y017000D01*
X012207Y017000D01*
X012500Y017293D01*
X012793Y017000D01*
X013207Y017000D01*
X013500Y017293D01*
X013500Y017707D01*
X013207Y018000D01*
X012793Y018000D01*
X012500Y017707D01*
X012500Y017293D01*
X012500Y017707D01*
X012207Y018000D01*
X012500Y018293D01*
X012793Y018000D01*
X013207Y018000D01*
X013500Y018293D01*
X013793Y018000D01*
X013500Y017707D01*
X013500Y017293D01*
X013793Y017000D01*
X014207Y017000D01*
X014500Y017293D01*
X014793Y017000D01*
X015130Y017000D01*
X015130Y016870D01*
X011337Y016870D01*
X011207Y017000D01*
X010793Y017000D01*
X010500Y016707D01*
X010500Y016293D01*
X010793Y016000D01*
X011207Y016000D01*
X011337Y016130D01*
X015574Y016130D01*
X015637Y016156D01*
X015793Y016000D01*
X016207Y016000D01*
X016500Y016293D01*
X016500Y016707D01*
X016207Y017000D01*
X016500Y017293D01*
X016793Y017000D01*
X017207Y017000D01*
X017500Y017293D01*
X017500Y017707D01*
X017207Y018000D01*
X016793Y018000D01*
X016500Y017707D01*
X016500Y017293D01*
X016500Y017500D01*
X016500Y017707D01*
X016207Y018000D01*
X016500Y018293D01*
X016500Y018477D01*
X018960Y020936D01*
X019064Y021040D01*
X019120Y021176D01*
X019120Y024847D01*
X019519Y025246D01*
X019765Y025000D01*
X019480Y024715D01*
X019480Y024285D01*
X019765Y024000D01*
X019480Y023715D01*
X019480Y023285D01*
X019765Y023000D01*
X019480Y022715D01*
X019480Y022285D01*
X019765Y022000D01*
X019480Y021715D01*
X019480Y021285D01*
X019765Y021000D01*
X019480Y020715D01*
X019480Y020285D01*
X019765Y020000D01*
X019480Y019715D01*
X019480Y019500D01*
X020000Y019500D01*
X019250Y018750D01*
X019250Y024750D01*
X020000Y025500D01*
X019757Y025008D02*
X019281Y025008D01*
X019120Y024730D02*
X019494Y024730D01*
X019480Y024451D02*
X019120Y024451D01*
X019120Y024173D02*
X019592Y024173D01*
X019659Y023894D02*
X019120Y023894D01*
X019120Y023616D02*
X019480Y023616D01*
X019480Y023337D02*
X019120Y023337D01*
X019120Y023059D02*
X019706Y023059D01*
X019545Y022780D02*
X019120Y022780D01*
X019120Y022502D02*
X019480Y022502D01*
X019542Y022223D02*
X019120Y022223D01*
X019120Y021945D02*
X019709Y021945D01*
X019480Y021666D02*
X019120Y021666D01*
X019120Y021388D02*
X019480Y021388D01*
X019656Y021109D02*
X019092Y021109D01*
X018854Y020831D02*
X019595Y020831D01*
X019480Y020552D02*
X018575Y020552D01*
X018297Y020274D02*
X019491Y020274D01*
X019760Y019995D02*
X018018Y019995D01*
X017740Y019717D02*
X019481Y019717D01*
X019480Y019500D02*
X019480Y019285D01*
X019746Y019019D01*
X019707Y018980D01*
X019655Y018980D01*
X019478Y018907D01*
X019343Y018772D01*
X019270Y018595D01*
X019270Y018405D01*
X019343Y018228D01*
X019478Y018093D01*
X019655Y018020D01*
X019845Y018020D01*
X020022Y018093D01*
X020157Y018228D01*
X020230Y018405D01*
X020230Y018457D01*
X020710Y018936D01*
X020769Y018996D01*
X020785Y018980D01*
X021000Y018980D01*
X021215Y018980D01*
X021520Y019285D01*
X021520Y019500D01*
X021520Y019715D01*
X021235Y020000D01*
X021520Y020285D01*
X021520Y020715D01*
X021235Y021000D01*
X021520Y021285D01*
X021520Y021630D01*
X021630Y021630D01*
X021630Y015809D01*
X021593Y015772D01*
X021520Y015595D01*
X021520Y015405D01*
X021593Y015228D01*
X021728Y015093D01*
X021905Y015020D01*
X022095Y015020D01*
X022272Y015093D01*
X022407Y015228D01*
X022480Y015405D01*
X022480Y015595D01*
X022407Y015772D01*
X022370Y015809D01*
X022370Y015960D01*
X022500Y015960D01*
X022724Y015960D01*
X023040Y016276D01*
X023040Y016500D01*
X023040Y016724D01*
X022724Y017040D01*
X022500Y017040D01*
X022500Y016500D01*
X022500Y016500D01*
X023040Y016500D01*
X022500Y016500D01*
X022500Y016500D01*
X022500Y017040D01*
X022370Y017040D01*
X022370Y022074D01*
X022314Y022210D01*
X022210Y022314D01*
X022074Y022370D01*
X021520Y022370D01*
X021520Y022715D01*
X021235Y023000D01*
X021520Y023285D01*
X021520Y023715D01*
X021235Y024000D01*
X021520Y024285D01*
X021520Y024715D01*
X021235Y025000D01*
X021520Y025285D01*
X021520Y025500D01*
X021520Y025715D01*
X021215Y026020D01*
X021000Y026020D01*
X021000Y025500D01*
X021000Y025500D01*
X021520Y025500D01*
X021000Y025500D01*
X021000Y025500D01*
X021000Y026020D01*
X020870Y026020D01*
X020870Y026074D01*
X020814Y026210D01*
X020710Y026314D01*
X020574Y026370D01*
X019676Y026370D01*
X019540Y026314D01*
X019436Y026210D01*
X018436Y025210D01*
X018380Y025074D01*
X018380Y021403D01*
X015977Y019000D01*
X015870Y019000D01*
X015870Y022847D01*
X016003Y022980D01*
X016215Y022980D01*
X016500Y023265D01*
X016785Y022980D01*
X017215Y022980D01*
X017520Y023285D01*
X017520Y023715D01*
X017215Y024020D01*
X016785Y024020D01*
X016500Y023735D01*
X016215Y024020D01*
X015785Y024020D01*
X015500Y023735D01*
X015215Y024020D01*
X014870Y024020D01*
X014870Y026980D01*
X015000Y026980D01*
X015215Y026980D01*
X015520Y027285D01*
X015520Y027500D01*
X015520Y027715D01*
X015235Y028000D01*
X015520Y028285D01*
X015520Y028715D01*
X015215Y029020D01*
X014785Y029020D01*
X014500Y028735D01*
X014215Y029020D01*
X013785Y029020D01*
X013500Y028735D01*
X013215Y029020D01*
X012785Y029020D01*
X012500Y028735D01*
X012215Y029020D01*
X011785Y029020D01*
X011500Y028735D01*
X011215Y029020D01*
X010785Y029020D01*
X010480Y028715D01*
X010480Y028503D01*
X009186Y027210D01*
X009130Y027074D01*
X009130Y021716D01*
X009095Y021730D01*
X008905Y021730D01*
X008728Y021657D01*
X008593Y021522D01*
X008520Y021345D01*
X008520Y021155D01*
X008593Y020978D01*
X008630Y020941D01*
X008630Y013799D01*
X008522Y013907D01*
X008345Y013980D01*
X008155Y013980D01*
X007978Y013907D01*
X007843Y013772D01*
X007770Y013595D01*
X007770Y013543D01*
X002227Y008000D01*
X001652Y008000D01*
X001604Y008020D01*
X000770Y008020D01*
X000770Y045500D01*
X024730Y045500D01*
X024730Y045381D01*
X024833Y045167D01*
X024849Y045155D01*
X024833Y045167D02*
X024833Y045167D01*
X024820Y045060D02*
X000770Y045060D01*
X000770Y044782D02*
X024875Y044782D01*
X024820Y044503D02*
X000770Y044503D01*
X000770Y044225D02*
X024878Y044225D01*
X024820Y043946D02*
X000770Y043946D01*
X000770Y043668D02*
X023895Y043668D01*
X024052Y043668D02*
X024249Y043668D01*
X024405Y043668D02*
X024754Y043668D01*
X025667Y043833D02*
X025667Y043833D01*
X025680Y043946D02*
X027239Y043946D01*
X027000Y043668D02*
X025746Y043668D01*
X025770Y043389D02*
X027000Y043389D01*
X027182Y043111D02*
X025770Y043111D01*
X025770Y042832D02*
X027645Y042832D01*
X027923Y042554D02*
X025770Y042554D01*
X025770Y042275D02*
X028202Y042275D01*
X028480Y041997D02*
X025770Y041997D01*
X025770Y041718D02*
X028759Y041718D01*
X029037Y041440D02*
X025770Y041440D01*
X024730Y041161D02*
X000770Y041161D01*
X000770Y040883D02*
X024730Y040883D01*
X024730Y040604D02*
X000770Y040604D01*
X000770Y040326D02*
X024730Y040326D01*
X024730Y040047D02*
X000770Y040047D01*
X000770Y039769D02*
X024730Y039769D01*
X024730Y039490D02*
X000770Y039490D01*
X000770Y039212D02*
X024730Y039212D01*
X024730Y038933D02*
X000770Y038933D01*
X000770Y038655D02*
X024730Y038655D01*
X024730Y038376D02*
X000770Y038376D01*
X000770Y038098D02*
X024730Y038098D01*
X024730Y037819D02*
X000770Y037819D01*
X000770Y037541D02*
X024730Y037541D01*
X024730Y037262D02*
X000770Y037262D01*
X000770Y036984D02*
X024730Y036984D01*
X024730Y036705D02*
X000770Y036705D01*
X000770Y036427D02*
X024730Y036427D01*
X024730Y036148D02*
X000770Y036148D01*
X000770Y035870D02*
X024730Y035870D01*
X024730Y035591D02*
X000770Y035591D01*
X000770Y035313D02*
X024730Y035313D01*
X024730Y035034D02*
X000770Y035034D01*
X000770Y034756D02*
X024730Y034756D01*
X024730Y034477D02*
X000770Y034477D01*
X000770Y034199D02*
X024730Y034199D01*
X024730Y033920D02*
X000770Y033920D01*
X000770Y033642D02*
X024730Y033642D01*
X024730Y033363D02*
X000770Y033363D01*
X000770Y033085D02*
X024730Y033085D01*
X024730Y032806D02*
X000770Y032806D01*
X000770Y032528D02*
X024730Y032528D01*
X024730Y032249D02*
X000770Y032249D01*
X000770Y031971D02*
X024730Y031971D01*
X024730Y031692D02*
X000770Y031692D01*
X000770Y031414D02*
X024730Y031414D01*
X024730Y031135D02*
X000770Y031135D01*
X000770Y030857D02*
X024730Y030857D01*
X024730Y030578D02*
X000770Y030578D01*
X000770Y030300D02*
X024730Y030300D01*
X024730Y030021D02*
X000770Y030021D01*
X000770Y029743D02*
X024730Y029743D01*
X024730Y029464D02*
X000770Y029464D01*
X000770Y029186D02*
X024730Y029186D01*
X024730Y028907D02*
X015328Y028907D01*
X015520Y028629D02*
X024730Y028629D01*
X024745Y028350D02*
X015520Y028350D01*
X015307Y028072D02*
X024820Y028072D01*
X024833Y028167D02*
X024833Y028167D01*
X024870Y027793D02*
X015442Y027793D01*
X015520Y027515D02*
X024820Y027515D01*
X024882Y027236D02*
X015471Y027236D01*
X015520Y027500D02*
X015000Y027500D01*
X015520Y027500D01*
X015000Y027500D02*
X015000Y027500D01*
X015000Y026980D01*
X015000Y027500D01*
X015000Y027500D01*
X015000Y027236D02*
X015000Y027236D01*
X014870Y026958D02*
X024820Y026958D01*
X024759Y026679D02*
X014870Y026679D01*
X014870Y026401D02*
X024730Y026401D01*
X024730Y026122D02*
X020850Y026122D01*
X021000Y025844D02*
X021000Y025844D01*
X021000Y025565D02*
X021000Y025565D01*
X021392Y025844D02*
X024730Y025844D01*
X024730Y025565D02*
X021520Y025565D01*
X021520Y025287D02*
X024730Y025287D01*
X024730Y025008D02*
X021243Y025008D01*
X021506Y024730D02*
X024730Y024730D01*
X024730Y024451D02*
X021520Y024451D01*
X021408Y024173D02*
X024730Y024173D01*
X024730Y023894D02*
X021341Y023894D01*
X021520Y023616D02*
X024730Y023616D01*
X024730Y023337D02*
X021520Y023337D01*
X021294Y023059D02*
X024730Y023059D01*
X024730Y022780D02*
X021455Y022780D01*
X021520Y022502D02*
X024730Y022502D01*
X024730Y022223D02*
X022300Y022223D01*
X022370Y021945D02*
X024730Y021945D01*
X024730Y021666D02*
X022370Y021666D01*
X022370Y021388D02*
X024730Y021388D01*
X024730Y021109D02*
X022370Y021109D01*
X022370Y020831D02*
X024730Y020831D01*
X024730Y020552D02*
X022370Y020552D01*
X022370Y020274D02*
X024730Y020274D01*
X024730Y019995D02*
X022370Y019995D01*
X022370Y019717D02*
X024730Y019717D01*
X024730Y019438D02*
X022370Y019438D01*
X022370Y019160D02*
X024730Y019160D01*
X024730Y018881D02*
X022370Y018881D01*
X022370Y018603D02*
X024730Y018603D01*
X024730Y018324D02*
X022370Y018324D01*
X022370Y018046D02*
X024730Y018046D01*
X024730Y017767D02*
X022370Y017767D01*
X022370Y017489D02*
X024730Y017489D01*
X024730Y017210D02*
X022370Y017210D01*
X022500Y016932D02*
X022500Y016932D01*
X022500Y016653D02*
X022500Y016653D01*
X022500Y016500D02*
X022500Y015960D01*
X022500Y016500D01*
X022500Y016500D01*
X022500Y016375D02*
X022500Y016375D01*
X022500Y016096D02*
X022500Y016096D01*
X022370Y015818D02*
X024730Y015818D01*
X024730Y016096D02*
X022860Y016096D01*
X023040Y016375D02*
X024730Y016375D01*
X024730Y016653D02*
X023040Y016653D01*
X022832Y016932D02*
X024730Y016932D01*
X025770Y016932D02*
X026570Y016932D01*
X026570Y017210D02*
X025770Y017210D01*
X025770Y017489D02*
X026570Y017489D01*
X026659Y017767D02*
X025770Y017767D01*
X025770Y018046D02*
X026937Y018046D01*
X027070Y018324D02*
X025770Y018324D01*
X025770Y018603D02*
X027070Y018603D01*
X027070Y018881D02*
X025770Y018881D01*
X025770Y019160D02*
X027070Y019160D01*
X026954Y019438D02*
X025770Y019438D01*
X025770Y019717D02*
X026675Y019717D01*
X026570Y019995D02*
X025770Y019995D01*
X025770Y020274D02*
X026570Y020274D01*
X026570Y020552D02*
X025770Y020552D01*
X025770Y020831D02*
X026570Y020831D01*
X026570Y021109D02*
X025770Y021109D01*
X025770Y021388D02*
X026570Y021388D01*
X026570Y021666D02*
X025770Y021666D01*
X025770Y021945D02*
X026570Y021945D01*
X026570Y022223D02*
X025770Y022223D01*
X025770Y022502D02*
X026570Y022502D01*
X026570Y022780D02*
X025770Y022780D01*
X025770Y023059D02*
X026570Y023059D01*
X026570Y023337D02*
X025770Y023337D01*
X025770Y023616D02*
X026570Y023616D01*
X026570Y023894D02*
X025770Y023894D01*
X025770Y024173D02*
X026570Y024173D01*
X026570Y024451D02*
X025770Y024451D01*
X025770Y024730D02*
X026570Y024730D01*
X026570Y025008D02*
X025770Y025008D01*
X025770Y025287D02*
X026570Y025287D01*
X026570Y025565D02*
X025770Y025565D01*
X025770Y025844D02*
X026570Y025844D01*
X026570Y026122D02*
X025770Y026122D01*
X025770Y026401D02*
X026570Y026401D01*
X026570Y026679D02*
X025741Y026679D01*
X025770Y026619D02*
X025667Y026833D01*
X025651Y026845D01*
X025680Y026914D01*
X025680Y027086D01*
X025615Y027244D01*
X025608Y027250D01*
X025615Y027256D01*
X025680Y027414D01*
X025680Y027586D01*
X025615Y027744D01*
X025608Y027750D01*
X025615Y027756D01*
X025680Y027914D01*
X025680Y028086D01*
X025651Y028155D01*
X025667Y028167D01*
X025667Y028167D01*
X025667Y028167D01*
X025770Y028381D01*
X025680Y028072D02*
X026570Y028072D01*
X026570Y027793D02*
X025630Y027793D01*
X025680Y027515D02*
X026570Y027515D01*
X026570Y027236D02*
X025618Y027236D01*
X025680Y026958D02*
X026570Y026958D01*
X027000Y026500D02*
X027000Y020000D01*
X027500Y019500D01*
X027500Y018000D01*
X027000Y017500D01*
X027000Y011000D01*
X027500Y010500D01*
X027500Y009000D01*
X027784Y008577D02*
X029216Y008577D01*
X029293Y008500D02*
X029000Y008793D01*
X029000Y009000D01*
X029500Y009000D01*
X028500Y008000D01*
X028500Y003750D01*
X028375Y003625D01*
X023375Y003625D02*
X023250Y003750D01*
X023250Y007750D01*
X022500Y008500D01*
X022909Y008855D02*
X024730Y008855D01*
X024730Y008577D02*
X023040Y008577D01*
X023310Y008298D02*
X024730Y008298D01*
X024730Y008020D02*
X023589Y008020D01*
X022217Y008020D02*
X021870Y008020D01*
X021870Y008298D02*
X021960Y008298D01*
X021960Y008577D02*
X021870Y008577D01*
X021870Y008855D02*
X022091Y008855D01*
X021870Y009134D02*
X024730Y009134D01*
X024730Y009412D02*
X021870Y009412D01*
X021870Y009691D02*
X024730Y009691D01*
X024730Y009969D02*
X021870Y009969D01*
X021870Y010248D02*
X024730Y010248D01*
X024730Y010526D02*
X021870Y010526D01*
X021870Y010805D02*
X024819Y010805D01*
X024820Y011083D02*
X021870Y011083D01*
X021870Y011362D02*
X024842Y011362D01*
X024843Y011640D02*
X021870Y011640D01*
X021870Y011919D02*
X024820Y011919D01*
X024833Y012167D02*
X024833Y012167D01*
X024819Y012197D02*
X021870Y012197D01*
X021870Y012476D02*
X024730Y012476D01*
X024730Y012754D02*
X021870Y012754D01*
X021870Y013033D02*
X024730Y013033D01*
X024730Y013311D02*
X021870Y013311D01*
X021870Y013590D02*
X024730Y013590D01*
X024730Y013868D02*
X021870Y013868D01*
X021870Y014147D02*
X024730Y014147D01*
X024730Y014425D02*
X021870Y014425D01*
X021816Y014704D02*
X024730Y014704D01*
X024730Y014982D02*
X021541Y014982D01*
X021580Y015261D02*
X021263Y015261D01*
X021520Y015539D02*
X020984Y015539D01*
X020706Y015818D02*
X021630Y015818D01*
X021630Y016096D02*
X020480Y016096D01*
X020304Y016375D02*
X021630Y016375D01*
X021630Y016653D02*
X017500Y016653D01*
X017500Y016375D02*
X019696Y016375D01*
X019520Y016096D02*
X017303Y016096D01*
X017390Y015818D02*
X018610Y015818D01*
X018500Y015707D02*
X018500Y015293D01*
X018793Y015000D01*
X019207Y015000D01*
X019500Y015293D01*
X019500Y015707D01*
X019207Y016000D01*
X018793Y016000D01*
X018500Y015707D01*
X018500Y015539D02*
X017500Y015539D01*
X017468Y015261D02*
X018532Y015261D01*
X019468Y015261D02*
X020216Y015261D01*
X020495Y014982D02*
X017225Y014982D01*
X017207Y015000D02*
X016870Y015000D01*
X016870Y015000D01*
X017000Y015000D01*
X017000Y014500D01*
X019000Y016500D01*
X019000Y016250D01*
X020750Y014500D01*
X020750Y003750D01*
X020875Y003625D01*
X017125Y003625D02*
X017000Y003750D01*
X017000Y006750D01*
X014500Y006750D02*
X014500Y003750D01*
X014625Y003625D01*
X012250Y003750D02*
X012125Y003625D01*
X012250Y003750D02*
X012250Y006750D01*
X013000Y007500D01*
X013000Y009500D01*
X012500Y010000D01*
X012500Y012000D01*
X012000Y012500D01*
X012000Y012000D01*
X012207Y012000D01*
X012500Y012293D01*
X012793Y012000D01*
X013130Y012000D01*
X013130Y012000D01*
X012793Y012000D01*
X012500Y011707D01*
X012207Y012000D01*
X011870Y012000D01*
X012000Y012000D01*
X012000Y012500D01*
X012000Y012500D01*
X012000Y012476D02*
X012000Y012476D01*
X012000Y012197D02*
X012000Y012197D01*
X011870Y012000D02*
X011870Y012000D01*
X012289Y011919D02*
X012711Y011919D01*
X012500Y011707D02*
X012500Y011293D01*
X012500Y011707D01*
X012500Y011640D02*
X012500Y011640D01*
X012500Y011362D02*
X012500Y011362D01*
X012500Y011293D02*
X012370Y011163D01*
X012370Y008000D01*
X013130Y008000D01*
X013130Y009000D01*
X013000Y009000D01*
X013000Y009500D01*
X013000Y009500D01*
X013000Y009500D01*
X012500Y009500D01*
X012500Y009707D01*
X012760Y009967D01*
X012686Y010040D01*
X012630Y010176D01*
X012630Y011163D01*
X012500Y011293D01*
X012370Y011083D02*
X012630Y011083D01*
X012630Y010805D02*
X012370Y010805D01*
X012370Y010526D02*
X012630Y010526D01*
X012630Y010248D02*
X012370Y010248D01*
X012370Y009969D02*
X012758Y009969D01*
X012500Y009691D02*
X012370Y009691D01*
X012500Y009500D02*
X012500Y009293D01*
X012793Y009000D01*
X013000Y009000D01*
X013000Y009500D01*
X012500Y009500D01*
X012500Y009412D02*
X012370Y009412D01*
X012370Y009134D02*
X012659Y009134D01*
X013000Y009134D02*
X013000Y009134D01*
X013000Y009412D02*
X013000Y009412D01*
X013130Y008855D02*
X012370Y008855D01*
X012370Y008577D02*
X013130Y008577D01*
X013130Y008298D02*
X012370Y008298D01*
X012370Y008020D02*
X013130Y008020D01*
X015000Y009500D02*
X015000Y011500D01*
X014500Y012000D01*
X014500Y013000D01*
X016000Y014500D01*
X015977Y015000D02*
X015793Y015000D01*
X015977Y015000D01*
X015977Y015000D01*
X015775Y014982D02*
X011225Y014982D01*
X011207Y015000D02*
X011023Y015000D01*
X011023Y015000D01*
X011207Y015000D01*
X011468Y015261D02*
X015532Y015261D01*
X015500Y015539D02*
X011500Y015539D01*
X011390Y015818D02*
X015610Y015818D01*
X015697Y016096D02*
X011303Y016096D01*
X010697Y016096D02*
X010303Y016096D01*
X010207Y016000D02*
X010000Y016000D01*
X010000Y016500D01*
X010000Y016500D01*
X010000Y017000D01*
X010207Y017000D01*
X009870Y017000D01*
X009870Y017000D01*
X010000Y017000D01*
X010000Y016500D01*
X010500Y016500D01*
X010000Y016500D01*
X010000Y016500D01*
X010000Y016500D01*
X010000Y016000D01*
X009870Y016000D01*
X009870Y016000D01*
X010207Y016000D01*
X010000Y016096D02*
X010000Y016096D01*
X010000Y016375D02*
X010000Y016375D01*
X010000Y016653D02*
X010000Y016653D01*
X010000Y016932D02*
X010000Y016932D01*
X010276Y016932D02*
X010724Y016932D01*
X010583Y017210D02*
X010417Y017210D01*
X010500Y017293D02*
X010500Y017707D01*
X010793Y018000D01*
X011130Y018000D01*
X011130Y018000D01*
X010793Y018000D01*
X010500Y018293D01*
X010500Y018477D01*
X010290Y018686D01*
X010186Y018790D01*
X010130Y018926D01*
X010130Y023074D01*
X010186Y023210D01*
X010480Y023503D01*
X010480Y023715D01*
X010785Y024020D01*
X011130Y024020D01*
X011130Y025324D01*
X011186Y025460D01*
X012746Y027019D01*
X012500Y027265D01*
X012215Y026980D01*
X011785Y026980D01*
X011500Y027265D01*
X011215Y026980D01*
X011000Y026980D01*
X011000Y027500D01*
X011000Y027500D01*
X011000Y026980D01*
X010785Y026980D01*
X010480Y027285D01*
X010480Y027457D01*
X009870Y026847D01*
X009870Y018000D01*
X010207Y018000D01*
X010500Y017707D01*
X010500Y017293D01*
X010500Y017489D02*
X010500Y017489D01*
X010440Y017767D02*
X010560Y017767D01*
X010747Y018046D02*
X009870Y018046D01*
X009870Y018324D02*
X010500Y018324D01*
X010374Y018603D02*
X009870Y018603D01*
X009870Y018881D02*
X010149Y018881D01*
X010130Y019160D02*
X009870Y019160D01*
X009870Y019438D02*
X010130Y019438D01*
X010130Y019717D02*
X009870Y019717D01*
X009870Y019995D02*
X010130Y019995D01*
X010130Y020274D02*
X009870Y020274D01*
X009870Y020552D02*
X010130Y020552D01*
X010130Y020831D02*
X009870Y020831D01*
X009870Y021109D02*
X010130Y021109D01*
X010130Y021388D02*
X009870Y021388D01*
X009870Y021666D02*
X010130Y021666D01*
X010130Y021945D02*
X009870Y021945D01*
X009870Y022223D02*
X010130Y022223D01*
X010130Y022502D02*
X009870Y022502D01*
X009870Y022780D02*
X010130Y022780D01*
X010130Y023059D02*
X009870Y023059D01*
X009870Y023337D02*
X010314Y023337D01*
X010480Y023616D02*
X009870Y023616D01*
X009870Y023894D02*
X010659Y023894D01*
X011130Y024173D02*
X009870Y024173D01*
X009870Y024451D02*
X011130Y024451D01*
X011130Y024730D02*
X009870Y024730D01*
X009870Y025008D02*
X011130Y025008D01*
X011130Y025287D02*
X009870Y025287D01*
X009870Y025565D02*
X011292Y025565D01*
X011570Y025844D02*
X009870Y025844D01*
X009870Y026122D02*
X011849Y026122D01*
X012127Y026401D02*
X009870Y026401D01*
X009870Y026679D02*
X012406Y026679D01*
X012684Y026958D02*
X009981Y026958D01*
X010259Y027236D02*
X010529Y027236D01*
X011000Y027236D02*
X011000Y027236D01*
X011471Y027236D02*
X011529Y027236D01*
X012471Y027236D02*
X012529Y027236D01*
X014000Y027500D02*
X014000Y020750D01*
X013000Y020500D02*
X013000Y018500D01*
X013500Y018477D02*
X013500Y018477D01*
X013500Y018293D01*
X013500Y018477D01*
X013500Y018324D02*
X013500Y018324D01*
X013253Y018046D02*
X013747Y018046D01*
X013793Y018000D02*
X014130Y018000D01*
X014130Y018000D01*
X013793Y018000D01*
X013560Y017767D02*
X013440Y017767D01*
X013500Y017489D02*
X013500Y017489D01*
X013417Y017210D02*
X013583Y017210D01*
X014417Y017210D02*
X014583Y017210D01*
X014500Y017293D02*
X014500Y017477D01*
X014500Y017477D01*
X014500Y017293D01*
X015130Y016932D02*
X011276Y016932D01*
X011417Y017210D02*
X011583Y017210D01*
X011500Y017293D02*
X011500Y017477D01*
X011500Y017477D01*
X011500Y017293D01*
X012023Y018000D02*
X012207Y018000D01*
X012023Y018000D01*
X012023Y018000D01*
X012253Y018046D02*
X012747Y018046D01*
X012560Y017767D02*
X012440Y017767D01*
X012500Y017489D02*
X012500Y017489D01*
X012417Y017210D02*
X012583Y017210D01*
X012500Y018293D02*
X012500Y018477D01*
X012500Y018477D01*
X012500Y018293D01*
X012500Y018324D02*
X012500Y018324D01*
X011130Y019000D02*
X011023Y019000D01*
X010870Y019153D01*
X010870Y020000D01*
X011000Y020000D01*
X011130Y020000D01*
X011130Y019000D01*
X011130Y019160D02*
X010870Y019160D01*
X010870Y019438D02*
X011130Y019438D01*
X011130Y019717D02*
X010870Y019717D01*
X010870Y019995D02*
X011130Y019995D01*
X011000Y020000D02*
X011000Y020500D01*
X011000Y020500D01*
X011000Y021000D01*
X011130Y021000D01*
X011130Y022980D01*
X011003Y022980D01*
X010870Y022847D01*
X010870Y021000D01*
X011000Y021000D01*
X011000Y020500D01*
X011000Y020500D01*
X011000Y020000D01*
X011000Y020274D02*
X011000Y020274D01*
X011000Y020552D02*
X011000Y020552D01*
X011000Y020831D02*
X011000Y020831D01*
X010870Y021109D02*
X011130Y021109D01*
X011130Y021388D02*
X010870Y021388D01*
X010870Y021666D02*
X011130Y021666D01*
X011130Y021945D02*
X010870Y021945D01*
X010870Y022223D02*
X011130Y022223D01*
X011130Y022502D02*
X010870Y022502D01*
X010870Y022780D02*
X011130Y022780D01*
X009130Y022780D02*
X000770Y022780D01*
X000770Y022502D02*
X009130Y022502D01*
X009130Y022223D02*
X000770Y022223D01*
X000770Y021945D02*
X009130Y021945D01*
X008750Y021666D02*
X000770Y021666D01*
X000770Y021388D02*
X008537Y021388D01*
X008539Y021109D02*
X000770Y021109D01*
X000770Y020831D02*
X008630Y020831D01*
X008630Y020552D02*
X000770Y020552D01*
X000770Y020274D02*
X008630Y020274D01*
X008630Y019995D02*
X000770Y019995D01*
X000770Y019717D02*
X008630Y019717D01*
X008630Y019438D02*
X000770Y019438D01*
X000770Y019160D02*
X008630Y019160D01*
X008630Y018881D02*
X000770Y018881D01*
X000770Y018603D02*
X008630Y018603D01*
X008630Y018324D02*
X000770Y018324D01*
X000770Y018046D02*
X008630Y018046D01*
X008630Y017767D02*
X000770Y017767D01*
X000770Y017489D02*
X008630Y017489D01*
X008630Y017210D02*
X000770Y017210D01*
X000770Y016932D02*
X007724Y016932D01*
X007793Y017000D02*
X007500Y016707D01*
X007500Y016500D01*
X008000Y016500D01*
X008000Y016500D01*
X008000Y017000D01*
X008207Y017000D01*
X008500Y016707D01*
X008500Y016500D01*
X008000Y016500D01*
X008000Y016500D01*
X008000Y016500D01*
X008000Y017000D01*
X007793Y017000D01*
X008000Y016932D02*
X008000Y016932D01*
X008276Y016932D02*
X008630Y016932D01*
X008630Y016653D02*
X008500Y016653D01*
X008500Y016500D02*
X008000Y016500D01*
X008000Y016000D01*
X008207Y016000D01*
X008500Y016293D01*
X008500Y016500D01*
X008500Y016375D02*
X008630Y016375D01*
X008630Y016096D02*
X008303Y016096D01*
X008000Y016096D02*
X008000Y016096D01*
X008000Y016000D02*
X008000Y016500D01*
X008000Y016500D01*
X007500Y016500D01*
X007500Y016293D01*
X007793Y016000D01*
X008000Y016000D01*
X007697Y016096D02*
X000770Y016096D01*
X000770Y015818D02*
X008630Y015818D01*
X008630Y015539D02*
X000770Y015539D01*
X000770Y015261D02*
X008630Y015261D01*
X008630Y014982D02*
X008225Y014982D01*
X008207Y015000D02*
X007793Y015000D01*
X007500Y014707D01*
X007500Y014293D01*
X007793Y014000D01*
X008207Y014000D01*
X008500Y014293D01*
X008500Y014707D01*
X008207Y015000D01*
X008500Y014704D02*
X008630Y014704D01*
X008630Y014425D02*
X008500Y014425D01*
X008630Y014147D02*
X008354Y014147D01*
X008561Y013868D02*
X008630Y013868D01*
X008630Y013201D02*
X008630Y011653D01*
X008290Y011314D01*
X008186Y011210D01*
X008130Y011074D01*
X008130Y008000D01*
X006870Y008000D01*
X006870Y009941D01*
X006907Y009978D01*
X006980Y010155D01*
X006980Y010345D01*
X006907Y010522D01*
X006772Y010657D01*
X006595Y010730D01*
X006405Y010730D01*
X006228Y010657D01*
X006093Y010522D01*
X006020Y010345D01*
X006020Y010155D01*
X006093Y009978D01*
X006130Y009941D01*
X006130Y008000D01*
X003273Y008000D01*
X008293Y013020D01*
X008345Y013020D01*
X008522Y013093D01*
X008630Y013201D01*
X008630Y013033D02*
X008376Y013033D01*
X008630Y012754D02*
X008027Y012754D01*
X007749Y012476D02*
X008630Y012476D01*
X008630Y012197D02*
X007470Y012197D01*
X007192Y011919D02*
X008630Y011919D01*
X008617Y011640D02*
X006913Y011640D01*
X006635Y011362D02*
X008338Y011362D01*
X008134Y011083D02*
X006356Y011083D01*
X006250Y010750D02*
X007000Y010750D01*
X007000Y007000D01*
X007000Y003750D01*
X007125Y003625D01*
X009500Y003750D02*
X009625Y003625D01*
X009500Y003750D02*
X009500Y007000D01*
X008130Y008020D02*
X006870Y008020D01*
X006870Y008298D02*
X008130Y008298D01*
X008130Y008577D02*
X006870Y008577D01*
X006870Y008855D02*
X008130Y008855D01*
X008130Y009134D02*
X006870Y009134D01*
X006870Y009412D02*
X008130Y009412D01*
X008130Y009691D02*
X006870Y009691D01*
X006898Y009969D02*
X008130Y009969D01*
X008130Y010248D02*
X006980Y010248D01*
X006903Y010526D02*
X008130Y010526D01*
X008130Y010805D02*
X006078Y010805D01*
X006250Y010750D02*
X003500Y008000D01*
X003500Y003750D01*
X003375Y003625D01*
X003293Y008020D02*
X006130Y008020D01*
X006130Y008298D02*
X003571Y008298D01*
X003850Y008577D02*
X006130Y008577D01*
X006130Y008855D02*
X004128Y008855D01*
X004407Y009134D02*
X006130Y009134D01*
X006130Y009412D02*
X004685Y009412D01*
X004964Y009691D02*
X006130Y009691D01*
X006102Y009969D02*
X005242Y009969D01*
X005521Y010248D02*
X006020Y010248D01*
X006097Y010526D02*
X005799Y010526D01*
X005310Y011083D02*
X000770Y011083D01*
X000770Y010805D02*
X005031Y010805D01*
X004753Y010526D02*
X000770Y010526D01*
X000770Y010248D02*
X004474Y010248D01*
X004196Y009969D02*
X000770Y009969D01*
X000770Y009691D02*
X003917Y009691D01*
X003639Y009412D02*
X000770Y009412D01*
X000770Y009134D02*
X003360Y009134D01*
X003082Y008855D02*
X000770Y008855D01*
X000770Y008577D02*
X002803Y008577D01*
X002525Y008298D02*
X000770Y008298D01*
X001605Y008020D02*
X002246Y008020D01*
X000770Y011362D02*
X005588Y011362D01*
X005867Y011640D02*
X000770Y011640D01*
X000770Y011919D02*
X006145Y011919D01*
X006424Y012197D02*
X000770Y012197D01*
X000770Y012476D02*
X006702Y012476D01*
X006981Y012754D02*
X000770Y012754D01*
X000770Y013033D02*
X007259Y013033D01*
X007538Y013311D02*
X000770Y013311D01*
X000770Y013590D02*
X007770Y013590D01*
X007939Y013868D02*
X000770Y013868D01*
X000770Y014147D02*
X007646Y014147D01*
X007500Y014425D02*
X000770Y014425D01*
X000770Y014704D02*
X007500Y014704D01*
X007775Y014982D02*
X000770Y014982D01*
X000770Y016375D02*
X007500Y016375D01*
X007500Y016653D02*
X000770Y016653D01*
X008000Y016653D02*
X008000Y016653D01*
X008000Y016375D02*
X008000Y016375D01*
X010390Y015818D02*
X010610Y015818D01*
X010500Y015707D02*
X010500Y015523D01*
X010500Y015523D01*
X010500Y015707D01*
X010500Y015539D02*
X010500Y015539D01*
X010500Y016375D02*
X010500Y016375D01*
X010500Y016653D02*
X010500Y016653D01*
X011500Y014704D02*
X015500Y014704D01*
X015317Y014425D02*
X011500Y014425D01*
X011354Y014147D02*
X015038Y014147D01*
X014760Y013868D02*
X011339Y013868D01*
X011207Y014000D02*
X010870Y014000D01*
X011207Y014000D01*
X010870Y014000D02*
X010870Y014000D01*
X011500Y013590D02*
X014481Y013590D01*
X014203Y013311D02*
X012712Y013311D01*
X012991Y013033D02*
X014070Y013033D01*
X013547Y012754D02*
X013453Y012754D01*
X013500Y012707D02*
X013500Y012523D01*
X013500Y012523D01*
X013500Y012707D01*
X012500Y012477D02*
X012500Y012293D01*
X012500Y012477D01*
X012500Y012477D01*
X012500Y012476D02*
X012500Y012476D01*
X012404Y012197D02*
X012596Y012197D01*
X017000Y014500D02*
X017000Y015000D01*
X017207Y015000D01*
X017000Y014982D02*
X017000Y014982D01*
X017000Y014704D02*
X017000Y014704D01*
X017000Y014500D02*
X017000Y014500D01*
X017500Y014500D01*
X017000Y014500D01*
X017000Y014500D01*
X017500Y014425D02*
X021052Y014425D01*
X021130Y014147D02*
X019840Y014147D01*
X019870Y013868D02*
X021130Y013868D01*
X021130Y013590D02*
X019870Y013590D01*
X019870Y013311D02*
X021130Y013311D01*
X021130Y013033D02*
X019870Y013033D01*
X019870Y012754D02*
X021130Y012754D01*
X021130Y012476D02*
X019870Y012476D01*
X019870Y012197D02*
X021130Y012197D01*
X021130Y011919D02*
X019870Y011919D01*
X019870Y011640D02*
X021130Y011640D01*
X021130Y011362D02*
X019870Y011362D01*
X019870Y011083D02*
X021130Y011083D01*
X021130Y010805D02*
X019870Y010805D01*
X019870Y010526D02*
X021130Y010526D01*
X021130Y010248D02*
X019870Y010248D01*
X019870Y009969D02*
X021130Y009969D01*
X021130Y009691D02*
X019870Y009691D01*
X019870Y009412D02*
X021130Y009412D01*
X021130Y009134D02*
X019870Y009134D01*
X019870Y008855D02*
X021130Y008855D01*
X021130Y008577D02*
X019870Y008577D01*
X019870Y008298D02*
X021130Y008298D01*
X021130Y008020D02*
X019870Y008020D01*
X025770Y008020D02*
X025770Y010619D01*
X025667Y010833D01*
X025651Y010845D01*
X025680Y010914D01*
X025680Y011086D01*
X025615Y011244D01*
X025608Y011250D01*
X025615Y011256D01*
X025680Y011414D01*
X025680Y011586D01*
X025615Y011744D01*
X025608Y011750D01*
X025615Y011756D01*
X025680Y011914D01*
X025680Y012086D01*
X025651Y012155D01*
X025667Y012167D01*
X025667Y012167D01*
X025667Y012167D01*
X025770Y012381D01*
X025770Y026619D01*
X025667Y026833D02*
X025667Y026833D01*
X027509Y026401D02*
X028630Y026401D01*
X028630Y026679D02*
X027886Y026679D01*
X028000Y026958D02*
X028630Y026958D01*
X028630Y027236D02*
X027971Y027236D01*
X027930Y027515D02*
X028741Y027515D01*
X029020Y027793D02*
X027930Y027793D01*
X027930Y028072D02*
X030221Y028072D01*
X030000Y028350D02*
X028000Y028350D01*
X028000Y028629D02*
X029848Y028629D01*
X030523Y029000D02*
X030707Y029000D01*
X030523Y029000D01*
X030523Y029000D01*
X030800Y028907D02*
X031570Y028907D01*
X031848Y028629D02*
X031000Y028629D01*
X031000Y028350D02*
X032127Y028350D01*
X032130Y028072D02*
X030779Y028072D01*
X031730Y027793D02*
X032130Y027793D01*
X032130Y027515D02*
X031870Y027515D01*
X031870Y027236D02*
X032130Y027236D01*
X032130Y026958D02*
X031870Y026958D01*
X031870Y026679D02*
X032130Y026679D01*
X032130Y026401D02*
X031870Y026401D01*
X031870Y026122D02*
X032130Y026122D01*
X032130Y025844D02*
X031870Y025844D01*
X031870Y025565D02*
X032130Y025565D01*
X032130Y025287D02*
X031870Y025287D01*
X031130Y025287D02*
X030994Y025287D01*
X031000Y025293D02*
X031000Y025500D01*
X031000Y025707D01*
X030707Y026000D01*
X030500Y026000D01*
X030500Y025500D01*
X029500Y026500D01*
X029500Y027000D01*
X030000Y027000D01*
X030000Y027130D01*
X031130Y027130D01*
X031130Y023176D01*
X031186Y023040D01*
X034357Y019870D01*
X030926Y019870D01*
X030863Y019844D01*
X030707Y020000D01*
X031000Y020293D01*
X031000Y020707D01*
X030707Y021000D01*
X030293Y021000D01*
X030000Y020707D01*
X030000Y020293D01*
X030293Y020000D01*
X030707Y020000D01*
X030293Y020000D01*
X030000Y019707D01*
X030000Y019293D01*
X030260Y019033D01*
X029790Y018564D01*
X029717Y018490D01*
X029707Y018500D01*
X029500Y018500D01*
X029500Y018000D01*
X029500Y018000D01*
X029500Y017500D01*
X029630Y017500D01*
X029630Y010309D01*
X029593Y010272D01*
X029520Y010095D01*
X029520Y009905D01*
X029593Y009728D01*
X029728Y009593D01*
X029905Y009520D01*
X030095Y009520D01*
X030272Y009593D01*
X030407Y009728D01*
X030480Y009905D01*
X030480Y010000D01*
X030707Y010000D01*
X031000Y010293D01*
X031000Y010707D01*
X030930Y010777D01*
X030930Y011223D01*
X031000Y011293D01*
X031000Y011707D01*
X030707Y012000D01*
X031000Y012293D01*
X031000Y012477D01*
X031653Y013130D01*
X031630Y013074D01*
X031630Y011966D01*
X031595Y011980D01*
X031405Y011980D01*
X031228Y011907D01*
X031093Y011772D01*
X031020Y011595D01*
X031020Y011405D01*
X031093Y011228D01*
X031130Y011191D01*
X031130Y008809D01*
X031093Y008772D01*
X031020Y008595D01*
X031020Y008405D01*
X031093Y008228D01*
X031228Y008093D01*
X031405Y008020D01*
X031595Y008020D01*
X031772Y008093D01*
X031907Y008228D01*
X031980Y008405D01*
X031980Y008497D01*
X031980Y008497D01*
X031980Y008285D01*
X032130Y008135D01*
X032130Y008000D01*
X026652Y008000D01*
X026604Y008020D01*
X025770Y008020D01*
X025770Y008298D02*
X031064Y008298D01*
X031020Y008577D02*
X029784Y008577D01*
X029707Y008500D02*
X030000Y008793D01*
X030000Y009000D01*
X030000Y009207D01*
X029707Y009500D01*
X029500Y009500D01*
X029500Y009000D01*
X030000Y009000D01*
X029500Y009000D01*
X029500Y009000D01*
X029500Y009000D01*
X029500Y008500D01*
X029707Y008500D01*
X029500Y008500D02*
X029500Y009000D01*
X029500Y009000D01*
X029500Y009000D01*
X029500Y009500D01*
X029293Y009500D01*
X029000Y009207D01*
X029000Y009000D01*
X029500Y009000D01*
X029500Y009134D02*
X029500Y009134D01*
X029500Y009412D02*
X029500Y009412D01*
X029795Y009412D02*
X031130Y009412D01*
X031130Y009134D02*
X030000Y009134D01*
X030000Y008855D02*
X031130Y008855D01*
X031130Y009691D02*
X030369Y009691D01*
X030480Y009969D02*
X031130Y009969D01*
X031130Y010248D02*
X030955Y010248D01*
X031000Y010526D02*
X031130Y010526D01*
X031130Y010805D02*
X030930Y010805D01*
X030930Y011083D02*
X031130Y011083D01*
X031038Y011362D02*
X031000Y011362D01*
X031000Y011640D02*
X031038Y011640D01*
X031256Y011919D02*
X030789Y011919D01*
X030707Y012000D02*
X030370Y012000D01*
X030707Y012000D01*
X030904Y012197D02*
X031630Y012197D01*
X031630Y012476D02*
X031000Y012476D01*
X031277Y012754D02*
X031630Y012754D01*
X031630Y013033D02*
X031556Y013033D01*
X030370Y012000D02*
X030370Y012000D01*
X030500Y011500D02*
X030500Y010500D01*
X029630Y010526D02*
X028000Y010526D01*
X027955Y010248D02*
X029583Y010248D01*
X029520Y009969D02*
X027930Y009969D01*
X027930Y009691D02*
X029631Y009691D01*
X029205Y009412D02*
X027930Y009412D01*
X028000Y009134D02*
X029000Y009134D01*
X029000Y008855D02*
X028000Y008855D01*
X027216Y008577D02*
X025770Y008577D01*
X025770Y008855D02*
X027000Y008855D01*
X027000Y009134D02*
X025770Y009134D01*
X025770Y009412D02*
X027070Y009412D01*
X027070Y009691D02*
X025770Y009691D01*
X025770Y009969D02*
X027070Y009969D01*
X027045Y010248D02*
X025770Y010248D01*
X025770Y010526D02*
X026866Y010526D01*
X026616Y010805D02*
X025681Y010805D01*
X025667Y010833D02*
X025667Y010833D01*
X025680Y011083D02*
X026570Y011083D01*
X026570Y011362D02*
X025658Y011362D01*
X025657Y011640D02*
X026570Y011640D01*
X026570Y011919D02*
X025680Y011919D01*
X025681Y012197D02*
X026570Y012197D01*
X026570Y012476D02*
X025770Y012476D01*
X025770Y012754D02*
X026570Y012754D01*
X026570Y013033D02*
X025770Y013033D01*
X025770Y013311D02*
X026570Y013311D01*
X026570Y013590D02*
X025770Y013590D01*
X025770Y013868D02*
X026570Y013868D01*
X026570Y014147D02*
X025770Y014147D01*
X025770Y014425D02*
X026570Y014425D01*
X026570Y014704D02*
X025770Y014704D01*
X025770Y014982D02*
X026570Y014982D01*
X026570Y015261D02*
X025770Y015261D01*
X025770Y015539D02*
X026570Y015539D01*
X026570Y015818D02*
X025770Y015818D01*
X025770Y016096D02*
X026570Y016096D01*
X026570Y016375D02*
X025770Y016375D01*
X025770Y016653D02*
X026570Y016653D01*
X027430Y017210D02*
X029630Y017210D01*
X029630Y016932D02*
X027776Y016932D01*
X028000Y016653D02*
X029630Y016653D01*
X029630Y016375D02*
X028000Y016375D01*
X027803Y016096D02*
X029630Y016096D01*
X029630Y015818D02*
X027890Y015818D01*
X027707Y016000D02*
X027430Y016000D01*
X027707Y016000D01*
X027430Y016000D02*
X027430Y016000D01*
X028000Y015539D02*
X029630Y015539D01*
X029630Y015261D02*
X027968Y015261D01*
X027707Y015000D02*
X027430Y015000D01*
X027430Y015000D01*
X027707Y015000D01*
X027725Y014982D02*
X029630Y014982D01*
X029630Y014704D02*
X028000Y014704D01*
X028000Y014425D02*
X029630Y014425D01*
X029630Y014147D02*
X027854Y014147D01*
X027707Y014000D02*
X027430Y014000D01*
X027430Y014000D01*
X027707Y014000D01*
X027839Y013868D02*
X029630Y013868D01*
X029630Y013590D02*
X028000Y013590D01*
X028000Y013311D02*
X029630Y013311D01*
X029630Y013033D02*
X027740Y013033D01*
X027707Y013000D02*
X027430Y013000D01*
X027430Y013000D01*
X027707Y013000D01*
X027953Y012754D02*
X029630Y012754D01*
X029630Y012476D02*
X028000Y012476D01*
X027904Y012197D02*
X029630Y012197D01*
X029630Y011919D02*
X027789Y011919D01*
X027707Y012000D02*
X027430Y012000D01*
X027707Y012000D01*
X027430Y012000D02*
X027430Y012000D01*
X028000Y011640D02*
X029630Y011640D01*
X029630Y011362D02*
X028000Y011362D01*
X027790Y011083D02*
X029630Y011083D01*
X029630Y010805D02*
X027903Y010805D01*
X027707Y011000D02*
X027608Y011000D01*
X027608Y011000D01*
X027707Y011000D01*
X029500Y008855D02*
X029500Y008855D01*
X029500Y008577D02*
X029500Y008577D01*
X029500Y008500D02*
X029293Y008500D01*
X031936Y008298D02*
X031980Y008298D01*
X032130Y008020D02*
X026605Y008020D01*
X020773Y014704D02*
X017500Y014704D01*
X016500Y015523D02*
X016500Y015707D01*
X016500Y015523D01*
X016500Y015523D01*
X016500Y015539D02*
X016500Y015539D01*
X016390Y015818D02*
X016610Y015818D01*
X016697Y016096D02*
X016303Y016096D01*
X016500Y016375D02*
X016500Y016375D01*
X016500Y016653D02*
X016500Y016653D01*
X016500Y017000D02*
X019000Y017000D01*
X019000Y016500D01*
X019000Y017000D02*
X019207Y017000D01*
X019500Y017293D01*
X019500Y017500D01*
X019500Y017707D01*
X019207Y018000D01*
X019000Y018000D01*
X019000Y017500D01*
X019000Y018500D01*
X019250Y018750D01*
X019273Y018603D02*
X016626Y018603D01*
X016500Y018324D02*
X019303Y018324D01*
X019593Y018046D02*
X016253Y018046D01*
X016207Y018000D02*
X015870Y018000D01*
X015870Y018000D01*
X016000Y018000D01*
X016000Y017500D01*
X016500Y017000D01*
X016417Y017210D02*
X016583Y017210D01*
X016500Y017489D02*
X016500Y017489D01*
X016500Y017500D02*
X016000Y017500D01*
X016000Y017500D01*
X016500Y017500D01*
X016440Y017767D02*
X016560Y017767D01*
X016207Y018000D02*
X016000Y018000D01*
X016000Y017500D01*
X016000Y017500D01*
X016000Y017000D01*
X016207Y017000D01*
X015870Y017000D01*
X016000Y017000D01*
X016000Y017500D01*
X016000Y017500D01*
X016000Y017489D02*
X016000Y017489D01*
X016000Y017767D02*
X016000Y017767D01*
X016000Y017210D02*
X016000Y017210D01*
X015870Y017000D02*
X015870Y017000D01*
X016276Y016932D02*
X016724Y016932D01*
X017276Y016932D02*
X021630Y016932D01*
X021630Y017210D02*
X019417Y017210D01*
X019500Y017489D02*
X021630Y017489D01*
X021630Y017767D02*
X019440Y017767D01*
X019500Y017500D02*
X019000Y017500D01*
X019000Y017000D01*
X019000Y017500D01*
X019000Y017500D01*
X019000Y017500D01*
X019000Y017500D01*
X018500Y017500D01*
X018500Y017707D01*
X018793Y018000D01*
X019000Y018000D01*
X019000Y017500D01*
X019500Y017500D01*
X019000Y017500D02*
X019000Y017500D01*
X018500Y017500D01*
X018500Y017293D01*
X018793Y017000D01*
X019000Y017000D01*
X019000Y017500D01*
X019000Y017489D02*
X019000Y017489D01*
X019000Y017767D02*
X019000Y017767D01*
X018560Y017767D02*
X017440Y017767D01*
X017500Y017489D02*
X018500Y017489D01*
X018583Y017210D02*
X017417Y017210D01*
X019000Y017210D02*
X019000Y017210D01*
X019907Y018046D02*
X021630Y018046D01*
X021630Y018324D02*
X020197Y018324D01*
X020376Y018603D02*
X021630Y018603D01*
X021630Y018881D02*
X020654Y018881D01*
X021000Y018980D02*
X021000Y019500D01*
X021520Y019500D01*
X021000Y019500D01*
X021000Y019500D01*
X021000Y018980D01*
X021000Y019160D02*
X021000Y019160D01*
X021000Y019438D02*
X021000Y019438D01*
X021000Y019500D02*
X021000Y019500D01*
X021395Y019160D02*
X021630Y019160D01*
X021630Y019438D02*
X021520Y019438D01*
X021519Y019717D02*
X021630Y019717D01*
X021630Y019995D02*
X021240Y019995D01*
X021509Y020274D02*
X021630Y020274D01*
X021630Y020552D02*
X021520Y020552D01*
X021630Y020831D02*
X021405Y020831D01*
X021344Y021109D02*
X021630Y021109D01*
X021630Y021388D02*
X021520Y021388D01*
X020000Y019500D02*
X020000Y019500D01*
X019480Y019500D01*
X019480Y019438D02*
X017461Y019438D01*
X017183Y019160D02*
X019605Y019160D01*
X019452Y018881D02*
X016904Y018881D01*
X016415Y019438D02*
X015870Y019438D01*
X015870Y019160D02*
X016136Y019160D01*
X015870Y019717D02*
X016693Y019717D01*
X016972Y019995D02*
X015870Y019995D01*
X015870Y020274D02*
X017250Y020274D01*
X017529Y020552D02*
X015870Y020552D01*
X015870Y020831D02*
X017807Y020831D01*
X018086Y021109D02*
X015870Y021109D01*
X015870Y021388D02*
X018364Y021388D01*
X018380Y021666D02*
X015870Y021666D01*
X015870Y021945D02*
X018380Y021945D01*
X018380Y022223D02*
X015870Y022223D01*
X015870Y022502D02*
X018380Y022502D01*
X018380Y022780D02*
X015870Y022780D01*
X016294Y023059D02*
X016706Y023059D01*
X017294Y023059D02*
X018380Y023059D01*
X018380Y023337D02*
X017520Y023337D01*
X017520Y023616D02*
X018380Y023616D01*
X018380Y023894D02*
X017341Y023894D01*
X016659Y023894D02*
X016341Y023894D01*
X015659Y023894D02*
X015341Y023894D01*
X014870Y024173D02*
X018380Y024173D01*
X018380Y024451D02*
X014870Y024451D01*
X014870Y024730D02*
X018380Y024730D01*
X018380Y025008D02*
X014870Y025008D01*
X014870Y025287D02*
X018513Y025287D01*
X018792Y025565D02*
X014870Y025565D01*
X014870Y025844D02*
X019070Y025844D01*
X019349Y026122D02*
X014870Y026122D01*
X014672Y028907D02*
X014328Y028907D01*
X013672Y028907D02*
X013328Y028907D01*
X012672Y028907D02*
X012328Y028907D01*
X011672Y028907D02*
X011328Y028907D01*
X010672Y028907D02*
X000770Y028907D01*
X000770Y028629D02*
X010480Y028629D01*
X010327Y028350D02*
X000770Y028350D01*
X000770Y028072D02*
X010048Y028072D01*
X009770Y027793D02*
X000770Y027793D01*
X000770Y027515D02*
X009491Y027515D01*
X009213Y027236D02*
X000770Y027236D01*
X000770Y026958D02*
X009130Y026958D01*
X009130Y026679D02*
X000770Y026679D01*
X000770Y026401D02*
X009130Y026401D01*
X009130Y026122D02*
X000770Y026122D01*
X000770Y025844D02*
X009130Y025844D01*
X009130Y025565D02*
X000770Y025565D01*
X000770Y025287D02*
X009130Y025287D01*
X009130Y025008D02*
X000770Y025008D01*
X000770Y024730D02*
X009130Y024730D01*
X009130Y024451D02*
X000770Y024451D01*
X000770Y024173D02*
X009130Y024173D01*
X009130Y023894D02*
X000770Y023894D01*
X000770Y023616D02*
X009130Y023616D01*
X009130Y023337D02*
X000770Y023337D01*
X000770Y023059D02*
X009130Y023059D01*
X019390Y015818D02*
X019556Y015818D01*
X019500Y015539D02*
X019859Y015539D01*
X022420Y015261D02*
X024730Y015261D01*
X024730Y015539D02*
X022480Y015539D01*
X027597Y017489D02*
X029630Y017489D01*
X029500Y017500D02*
X029500Y018000D01*
X029500Y018000D01*
X029500Y018000D01*
X029000Y018000D01*
X029000Y018207D01*
X029293Y018500D01*
X029500Y018500D01*
X029500Y018000D01*
X029000Y018000D01*
X029000Y017793D01*
X029293Y017500D01*
X029500Y017500D01*
X029500Y017767D02*
X029500Y017767D01*
X029500Y018046D02*
X029500Y018046D01*
X029500Y018324D02*
X029500Y018324D01*
X029117Y018324D02*
X027930Y018324D01*
X027930Y018603D02*
X029829Y018603D01*
X030108Y018881D02*
X027930Y018881D01*
X027930Y019160D02*
X030133Y019160D01*
X030000Y019438D02*
X028000Y019438D01*
X027991Y019717D02*
X030009Y019717D01*
X030288Y019995D02*
X027712Y019995D01*
X027707Y020000D02*
X027608Y020000D01*
X027707Y020000D01*
X027608Y020000D02*
X027608Y020000D01*
X027981Y020274D02*
X030019Y020274D01*
X030000Y020552D02*
X028075Y020552D01*
X028354Y020831D02*
X030123Y020831D01*
X030293Y021000D02*
X030707Y021000D01*
X031000Y021293D01*
X031000Y021707D01*
X030707Y022000D01*
X030293Y022000D01*
X030000Y021707D01*
X030000Y021293D01*
X030293Y021000D01*
X030184Y021109D02*
X028632Y021109D01*
X028911Y021388D02*
X030000Y021388D01*
X030000Y021666D02*
X029189Y021666D01*
X029370Y021945D02*
X030237Y021945D01*
X030293Y022000D02*
X030707Y022000D01*
X031000Y022293D01*
X031000Y022707D01*
X030707Y023000D01*
X030293Y023000D01*
X030000Y022707D01*
X030000Y022293D01*
X030293Y022000D01*
X030070Y022223D02*
X029370Y022223D01*
X029370Y022502D02*
X030000Y022502D01*
X030073Y022780D02*
X029370Y022780D01*
X029370Y023059D02*
X030234Y023059D01*
X030293Y023000D02*
X030000Y023293D01*
X030000Y023707D01*
X030293Y024000D01*
X030707Y024000D01*
X031000Y024293D01*
X031000Y024707D01*
X030707Y025000D01*
X031000Y025293D01*
X031000Y025500D02*
X030500Y025500D01*
X031000Y025500D01*
X031000Y025565D02*
X031130Y025565D01*
X031130Y025844D02*
X030864Y025844D01*
X030500Y025844D02*
X030500Y025844D01*
X030500Y026000D02*
X030293Y026000D01*
X030000Y025707D01*
X030000Y025500D01*
X030500Y025500D01*
X030500Y025500D01*
X030500Y025500D01*
X030500Y025000D01*
X030707Y025000D01*
X030293Y025000D01*
X030500Y025000D01*
X030500Y025500D01*
X030500Y025500D01*
X030500Y025500D01*
X030500Y026000D01*
X030136Y025844D02*
X029370Y025844D01*
X029370Y026122D02*
X031130Y026122D01*
X031130Y026401D02*
X029370Y026401D01*
X029500Y026500D02*
X029500Y027000D01*
X029500Y027000D01*
X030000Y027000D01*
X030000Y026793D01*
X029707Y026500D01*
X029500Y026500D01*
X029500Y027000D01*
X029500Y027000D01*
X029500Y026958D02*
X029500Y026958D01*
X029500Y026679D02*
X029500Y026679D01*
X029886Y026679D02*
X031130Y026679D01*
X031130Y026958D02*
X030000Y026958D01*
X030000Y025565D02*
X029370Y025565D01*
X029370Y025287D02*
X030006Y025287D01*
X030000Y025293D02*
X030293Y025000D01*
X030000Y024707D01*
X030000Y024293D01*
X030293Y024000D01*
X030707Y024000D01*
X031000Y023707D01*
X031000Y023293D01*
X030707Y023000D01*
X030293Y023000D01*
X030000Y023337D02*
X029370Y023337D01*
X029370Y023616D02*
X030000Y023616D01*
X030187Y023894D02*
X029370Y023894D01*
X029370Y024173D02*
X030120Y024173D01*
X030000Y024451D02*
X029370Y024451D01*
X029370Y024730D02*
X030022Y024730D01*
X030285Y025008D02*
X029370Y025008D01*
X030000Y025293D02*
X030000Y025500D01*
X030500Y025500D01*
X030500Y025565D02*
X030500Y025565D01*
X030500Y025287D02*
X030500Y025287D01*
X030500Y025008D02*
X030500Y025008D01*
X030715Y025008D02*
X031130Y025008D01*
X031130Y024730D02*
X030978Y024730D01*
X031000Y024451D02*
X031130Y024451D01*
X031130Y024173D02*
X030880Y024173D01*
X030813Y023894D02*
X031130Y023894D01*
X031130Y023616D02*
X031000Y023616D01*
X031000Y023337D02*
X031130Y023337D01*
X031179Y023059D02*
X030766Y023059D01*
X030927Y022780D02*
X031447Y022780D01*
X031725Y022502D02*
X031000Y022502D01*
X030930Y022223D02*
X032004Y022223D01*
X032282Y021945D02*
X030763Y021945D01*
X031000Y021666D02*
X032561Y021666D01*
X032839Y021388D02*
X031000Y021388D01*
X030816Y021109D02*
X033118Y021109D01*
X033396Y020831D02*
X030877Y020831D01*
X031000Y020552D02*
X033675Y020552D01*
X033953Y020274D02*
X030981Y020274D01*
X030712Y019995D02*
X034232Y019995D01*
X034721Y020552D02*
X044480Y020552D01*
X044491Y020274D02*
X039750Y020274D01*
X039870Y019995D02*
X044760Y019995D01*
X044481Y019717D02*
X039870Y019717D01*
X039870Y019438D02*
X040303Y019438D01*
X040047Y019160D02*
X039870Y019160D01*
X040697Y019438D02*
X044480Y019438D01*
X044480Y019500D02*
X044480Y019285D01*
X044480Y019500D02*
X045000Y019500D01*
X045000Y019500D01*
X045000Y018980D01*
X045000Y019500D01*
X045000Y019500D01*
X045000Y019500D01*
X045520Y019500D01*
X046000Y019500D01*
X046520Y019500D01*
X046000Y019500D01*
X046000Y019500D01*
X046000Y018980D01*
X046000Y019500D01*
X046000Y019500D01*
X046000Y019500D01*
X046000Y019438D02*
X046000Y019438D01*
X046000Y019160D02*
X046000Y019160D01*
X046395Y019160D02*
X049730Y019160D01*
X049730Y019438D02*
X046520Y019438D01*
X046519Y019717D02*
X049730Y019717D01*
X049730Y019995D02*
X046240Y019995D01*
X046509Y020274D02*
X049730Y020274D01*
X049730Y020552D02*
X046520Y020552D01*
X046405Y020831D02*
X049730Y020831D01*
X049730Y021109D02*
X046344Y021109D01*
X046520Y021388D02*
X049730Y021388D01*
X049730Y021666D02*
X046520Y021666D01*
X046291Y021945D02*
X049730Y021945D01*
X049730Y022223D02*
X046458Y022223D01*
X046520Y022502D02*
X049730Y022502D01*
X049730Y022780D02*
X046455Y022780D01*
X046294Y023059D02*
X049730Y023059D01*
X049730Y023337D02*
X046520Y023337D01*
X046520Y023616D02*
X049730Y023616D01*
X049730Y023894D02*
X046341Y023894D01*
X046408Y024173D02*
X049730Y024173D01*
X049730Y024451D02*
X046520Y024451D01*
X046506Y024730D02*
X049730Y024730D01*
X049730Y025008D02*
X046243Y025008D01*
X046520Y025287D02*
X049730Y025287D01*
X049730Y025565D02*
X046520Y025565D01*
X045627Y026401D02*
X041870Y026401D01*
X041870Y026679D02*
X042114Y026679D01*
X042000Y026793D02*
X042293Y026500D01*
X042707Y026500D01*
X043000Y026793D01*
X043000Y027207D01*
X042930Y027277D01*
X042930Y028223D01*
X043000Y028293D01*
X043000Y028707D01*
X042707Y029000D01*
X043000Y029293D01*
X043000Y029707D01*
X042707Y030000D01*
X043000Y030293D01*
X043000Y030500D01*
X043000Y030707D01*
X042707Y031000D01*
X042500Y031000D01*
X042500Y030500D01*
X045000Y033000D01*
X045000Y035000D01*
X045500Y034500D01*
X045500Y034500D01*
X045500Y035000D01*
X045630Y035000D01*
X045630Y037000D01*
X045293Y037000D01*
X045000Y037293D01*
X045000Y037707D01*
X045293Y038000D01*
X045630Y038000D01*
X045630Y038000D01*
X045500Y038000D01*
X045500Y038500D01*
X044500Y037500D01*
X044500Y036000D01*
X044500Y035500D01*
X045000Y035000D01*
X045048Y034756D02*
X044370Y034756D01*
X044370Y035034D02*
X045630Y035034D01*
X045500Y035000D02*
X045500Y034500D01*
X045500Y034000D01*
X045630Y034000D01*
X045630Y034000D01*
X045293Y034000D01*
X045000Y033707D01*
X045000Y033293D01*
X045293Y033000D01*
X045000Y032707D01*
X045000Y032293D01*
X045293Y032000D01*
X045000Y031707D01*
X045000Y031523D01*
X044686Y031210D01*
X044630Y031074D01*
X044630Y028309D01*
X044593Y028272D01*
X044520Y028095D01*
X044520Y027905D01*
X044593Y027728D01*
X044728Y027593D01*
X044905Y027520D01*
X045095Y027520D01*
X045272Y027593D01*
X045407Y027728D01*
X045480Y027905D01*
X045480Y028000D01*
X045707Y028000D01*
X046000Y028293D01*
X046000Y028477D01*
X046130Y028607D01*
X046130Y026903D01*
X045290Y026064D01*
X045231Y026004D01*
X045215Y026020D01*
X045000Y026020D01*
X045000Y025500D01*
X045000Y026500D01*
X044500Y027000D01*
X044500Y028500D01*
X042500Y030500D01*
X043000Y030500D01*
X042500Y030500D01*
X042500Y030500D01*
X042500Y030500D01*
X042500Y030000D01*
X042707Y030000D01*
X042293Y030000D01*
X042500Y030000D01*
X042500Y030500D01*
X042500Y030500D01*
X042500Y030500D01*
X042000Y030500D01*
X042000Y030707D01*
X042293Y031000D01*
X042500Y031000D01*
X042500Y030500D01*
X042000Y030500D01*
X042000Y030293D01*
X042293Y030000D01*
X042000Y029707D01*
X042000Y029293D01*
X042293Y029000D01*
X042707Y029000D01*
X042293Y029000D01*
X042000Y028707D01*
X042000Y028293D01*
X042070Y028223D01*
X042070Y027277D01*
X042000Y027207D01*
X042000Y026793D01*
X042000Y026958D02*
X041870Y026958D01*
X041870Y027236D02*
X042029Y027236D01*
X042070Y027515D02*
X041870Y027515D01*
X041870Y027793D02*
X042070Y027793D01*
X042070Y028072D02*
X041870Y028072D01*
X041870Y028350D02*
X042000Y028350D01*
X042000Y028629D02*
X041870Y028629D01*
X041870Y028907D02*
X042200Y028907D01*
X042107Y029186D02*
X041870Y029186D01*
X041870Y029464D02*
X042000Y029464D01*
X042035Y029743D02*
X041870Y029743D01*
X041870Y030021D02*
X042272Y030021D01*
X042500Y030021D02*
X042500Y030021D01*
X042728Y030021D02*
X044630Y030021D01*
X044630Y029743D02*
X042965Y029743D01*
X043000Y029464D02*
X044630Y029464D01*
X044630Y029186D02*
X042893Y029186D01*
X042800Y028907D02*
X044630Y028907D01*
X044630Y028629D02*
X043000Y028629D01*
X043000Y028350D02*
X044630Y028350D01*
X044520Y028072D02*
X042930Y028072D01*
X042930Y027793D02*
X044566Y027793D01*
X044500Y027500D02*
X044707Y027500D01*
X045000Y027207D01*
X045000Y027000D01*
X044500Y027000D01*
X044500Y027000D01*
X044500Y027000D01*
X044500Y027500D01*
X044293Y027500D01*
X044000Y027207D01*
X044000Y027000D01*
X044500Y027000D01*
X045000Y027000D01*
X045000Y026793D01*
X044707Y026500D01*
X044500Y026500D01*
X044500Y027000D01*
X044500Y027000D01*
X044500Y027000D01*
X044500Y027500D01*
X044500Y027236D02*
X044500Y027236D01*
X044500Y027000D02*
X044000Y027000D01*
X044000Y026793D01*
X044293Y026500D01*
X044500Y026500D01*
X044500Y027000D01*
X044500Y026958D02*
X044500Y026958D01*
X044500Y026679D02*
X044500Y026679D01*
X044886Y026679D02*
X045906Y026679D01*
X046130Y026958D02*
X045000Y026958D01*
X044971Y027236D02*
X046130Y027236D01*
X046130Y027515D02*
X042930Y027515D01*
X042971Y027236D02*
X044029Y027236D01*
X044000Y026958D02*
X043000Y026958D01*
X042886Y026679D02*
X044114Y026679D01*
X045349Y026122D02*
X041870Y026122D01*
X041870Y025844D02*
X044608Y025844D01*
X044480Y025715D02*
X044480Y025500D01*
X045000Y025500D01*
X045000Y025500D01*
X045000Y025500D01*
X045000Y026020D01*
X044785Y026020D01*
X044480Y025715D01*
X044480Y025565D02*
X041870Y025565D01*
X041870Y025287D02*
X044480Y025287D01*
X044480Y025285D02*
X044765Y025000D01*
X044514Y024750D01*
X044224Y025040D01*
X043776Y025040D01*
X043500Y024764D01*
X043224Y025040D01*
X042776Y025040D01*
X042500Y024764D01*
X042224Y025040D01*
X041983Y025040D01*
X041870Y025153D01*
X041870Y030941D01*
X041907Y030978D01*
X041980Y031155D01*
X041980Y031345D01*
X041907Y031522D01*
X041772Y031657D01*
X041595Y031730D01*
X041408Y031730D01*
X041480Y031905D01*
X041480Y032095D01*
X041407Y032272D01*
X041272Y032407D01*
X041207Y032434D01*
X042033Y033260D01*
X042293Y033000D01*
X042000Y032707D01*
X042000Y032293D01*
X042293Y032000D01*
X042000Y031707D01*
X042000Y031293D01*
X042293Y031000D01*
X042707Y031000D01*
X043000Y031293D01*
X043000Y031707D01*
X042707Y032000D01*
X042293Y032000D01*
X042707Y032000D01*
X043000Y032293D01*
X043000Y032707D01*
X042707Y033000D01*
X042293Y033000D01*
X042707Y033000D01*
X043000Y033293D01*
X043000Y033630D01*
X044074Y033630D01*
X044210Y033686D01*
X044314Y033790D01*
X044370Y033926D01*
X044370Y035500D01*
X044500Y035500D01*
X044707Y035500D01*
X045000Y035793D01*
X045000Y036000D01*
X045000Y036207D01*
X044707Y036500D01*
X044500Y036500D01*
X044500Y036000D01*
X044500Y036000D01*
X045000Y036000D01*
X044500Y036000D01*
X044500Y036000D01*
X044500Y036500D01*
X044370Y036500D01*
X044370Y037847D01*
X045000Y038477D01*
X045000Y038293D01*
X045293Y038000D01*
X045500Y038000D01*
X045500Y038500D01*
X045500Y038500D01*
X045500Y038376D02*
X045500Y038376D01*
X045500Y038098D02*
X045500Y038098D01*
X045195Y038098D02*
X044621Y038098D01*
X044370Y037819D02*
X045112Y037819D01*
X045000Y037541D02*
X044370Y037541D01*
X044370Y037262D02*
X045031Y037262D01*
X045630Y036984D02*
X044370Y036984D01*
X044370Y036705D02*
X045630Y036705D01*
X045630Y036427D02*
X044781Y036427D01*
X044500Y036427D02*
X044500Y036427D01*
X044500Y036148D02*
X044500Y036148D01*
X044500Y036000D02*
X044500Y035500D01*
X044500Y036000D01*
X044500Y036000D01*
X044500Y035870D02*
X044500Y035870D01*
X044500Y035591D02*
X044500Y035591D01*
X044798Y035591D02*
X045630Y035591D01*
X045630Y035313D02*
X044370Y035313D01*
X045000Y035870D02*
X045630Y035870D01*
X045630Y036148D02*
X045000Y036148D01*
X045293Y035000D02*
X045000Y034707D01*
X045000Y034500D01*
X045500Y034500D01*
X045500Y034500D01*
X045500Y034500D01*
X045500Y034000D01*
X045293Y034000D01*
X045000Y034293D01*
X045000Y034500D01*
X045500Y034500D01*
X045500Y034477D02*
X045500Y034477D01*
X045500Y034199D02*
X045500Y034199D01*
X045213Y033920D02*
X044367Y033920D01*
X044370Y034199D02*
X045094Y034199D01*
X045000Y034477D02*
X044370Y034477D01*
X044101Y033642D02*
X045000Y033642D01*
X045000Y033363D02*
X043000Y033363D01*
X042792Y033085D02*
X045208Y033085D01*
X045293Y033000D02*
X045630Y033000D01*
X045630Y033000D01*
X045293Y033000D01*
X045099Y032806D02*
X042901Y032806D01*
X043000Y032528D02*
X045000Y032528D01*
X045044Y032249D02*
X042956Y032249D01*
X042737Y031971D02*
X045263Y031971D01*
X045293Y032000D02*
X045630Y032000D01*
X045630Y032000D01*
X045293Y032000D01*
X045000Y031692D02*
X043000Y031692D01*
X043000Y031414D02*
X044890Y031414D01*
X044655Y031135D02*
X042842Y031135D01*
X042851Y030857D02*
X044630Y030857D01*
X044630Y030578D02*
X043000Y030578D01*
X043000Y030300D02*
X044630Y030300D01*
X042500Y030300D02*
X042500Y030300D01*
X042500Y030578D02*
X042500Y030578D01*
X042500Y030857D02*
X042500Y030857D01*
X042149Y030857D02*
X041870Y030857D01*
X041870Y030578D02*
X042000Y030578D01*
X042000Y030300D02*
X041870Y030300D01*
X041972Y031135D02*
X042158Y031135D01*
X042000Y031414D02*
X041952Y031414D01*
X042000Y031692D02*
X041687Y031692D01*
X041480Y031971D02*
X042263Y031971D01*
X042044Y032249D02*
X041416Y032249D01*
X041301Y032528D02*
X042000Y032528D01*
X042099Y032806D02*
X041579Y032806D01*
X041858Y033085D02*
X042208Y033085D01*
X045293Y035000D02*
X045500Y035000D01*
X045500Y034756D02*
X045500Y034756D01*
X042500Y036000D02*
X042500Y037500D01*
X044899Y038376D02*
X045000Y038376D01*
X045523Y042000D02*
X045523Y042000D01*
X045707Y042000D01*
X045523Y042000D01*
X045500Y043111D02*
X045500Y043111D01*
X045500Y043389D02*
X045500Y043389D01*
X045500Y043668D02*
X045500Y043668D01*
X048567Y043418D02*
X048567Y043418D01*
X048567Y043418D01*
X048655Y043507D02*
X048655Y043507D01*
X050770Y042832D02*
X070403Y042832D01*
X070270Y042554D02*
X050770Y042554D01*
X050770Y042275D02*
X053417Y042275D01*
X053320Y041997D02*
X050770Y041997D01*
X050770Y041718D02*
X053320Y041718D01*
X053320Y041440D02*
X050770Y041440D01*
X050770Y041161D02*
X053320Y041161D01*
X053320Y040883D02*
X050770Y040883D01*
X050770Y040604D02*
X053320Y040604D01*
X053320Y040326D02*
X050770Y040326D01*
X050770Y040047D02*
X053320Y040047D01*
X053320Y039769D02*
X050770Y039769D01*
X050770Y039490D02*
X053320Y039490D01*
X053320Y039212D02*
X050770Y039212D01*
X050770Y038933D02*
X053320Y038933D01*
X053320Y038655D02*
X050770Y038655D01*
X050770Y038376D02*
X053320Y038376D01*
X053320Y038098D02*
X050770Y038098D01*
X050770Y037819D02*
X053320Y037819D01*
X053320Y037541D02*
X050770Y037541D01*
X050770Y037262D02*
X053320Y037262D01*
X053320Y036984D02*
X050770Y036984D01*
X050770Y036705D02*
X053320Y036705D01*
X053320Y036427D02*
X050770Y036427D01*
X050770Y036148D02*
X053320Y036148D01*
X053320Y035870D02*
X050770Y035870D01*
X050770Y035591D02*
X053320Y035591D01*
X053320Y035313D02*
X050770Y035313D01*
X050770Y035034D02*
X053320Y035034D01*
X053320Y034756D02*
X050770Y034756D01*
X050770Y034477D02*
X053320Y034477D01*
X053320Y034199D02*
X050770Y034199D01*
X050770Y033920D02*
X053320Y033920D01*
X053320Y033642D02*
X050770Y033642D01*
X050770Y033363D02*
X053320Y033363D01*
X053320Y033085D02*
X050770Y033085D01*
X050770Y032806D02*
X053320Y032806D01*
X053320Y032528D02*
X050770Y032528D01*
X050770Y032249D02*
X053320Y032249D01*
X053320Y031971D02*
X050770Y031971D01*
X050770Y031692D02*
X053320Y031692D01*
X053320Y031414D02*
X050770Y031414D01*
X050770Y031135D02*
X053320Y031135D01*
X053320Y030857D02*
X050770Y030857D01*
X050770Y030578D02*
X053320Y030578D01*
X053320Y030300D02*
X050770Y030300D01*
X050770Y030021D02*
X053320Y030021D01*
X053320Y029743D02*
X050770Y029743D01*
X050770Y029464D02*
X053320Y029464D01*
X053320Y029186D02*
X050770Y029186D01*
X050770Y028907D02*
X053320Y028907D01*
X053320Y028629D02*
X050770Y028629D01*
X050755Y028350D02*
X053320Y028350D01*
X053320Y028072D02*
X050680Y028072D01*
X050630Y027793D02*
X053320Y027793D01*
X053320Y027515D02*
X050680Y027515D01*
X050618Y027236D02*
X053320Y027236D01*
X053320Y026958D02*
X050680Y026958D01*
X050667Y026833D02*
X050667Y026833D01*
X050741Y026679D02*
X053320Y026679D01*
X053320Y026401D02*
X050770Y026401D01*
X050770Y026122D02*
X053320Y026122D01*
X053320Y025844D02*
X050770Y025844D01*
X050770Y025565D02*
X053361Y025565D01*
X053605Y025287D02*
X050770Y025287D01*
X050770Y025008D02*
X053884Y025008D01*
X054162Y024730D02*
X050770Y024730D01*
X050770Y024451D02*
X054441Y024451D01*
X054719Y024173D02*
X050770Y024173D01*
X050770Y023894D02*
X054998Y023894D01*
X055276Y023616D02*
X050770Y023616D01*
X050770Y023337D02*
X055480Y023337D01*
X055706Y023059D02*
X050770Y023059D01*
X050770Y022780D02*
X055545Y022780D01*
X055480Y022502D02*
X050770Y022502D01*
X050770Y022223D02*
X055542Y022223D01*
X055709Y021945D02*
X050770Y021945D01*
X050770Y021666D02*
X055480Y021666D01*
X055480Y021388D02*
X050770Y021388D01*
X050770Y021109D02*
X055656Y021109D01*
X055595Y020831D02*
X050770Y020831D01*
X050770Y020552D02*
X055480Y020552D01*
X055491Y020274D02*
X050770Y020274D01*
X050770Y019995D02*
X055760Y019995D01*
X055481Y019717D02*
X050770Y019717D01*
X050770Y019438D02*
X055480Y019438D01*
X055480Y019500D02*
X055480Y019285D01*
X055785Y018980D01*
X056000Y018980D01*
X056215Y018980D01*
X056500Y019265D01*
X056785Y018980D01*
X057000Y018980D01*
X057215Y018980D01*
X057520Y019285D01*
X057520Y019500D01*
X057520Y019715D01*
X057235Y020000D01*
X057520Y020285D01*
X057520Y020715D01*
X057235Y021000D01*
X057520Y021285D01*
X057520Y021715D01*
X057235Y022000D01*
X057520Y022285D01*
X057520Y022715D01*
X057235Y023000D01*
X057520Y023285D01*
X057520Y023715D01*
X057235Y024000D01*
X057520Y024285D01*
X057520Y024715D01*
X057235Y025000D01*
X057520Y025285D01*
X057520Y025715D01*
X057235Y026000D01*
X057520Y026285D01*
X057520Y026715D01*
X057235Y027000D01*
X057520Y027285D01*
X057520Y027715D01*
X057235Y028000D01*
X057520Y028285D01*
X057520Y028715D01*
X057235Y029000D01*
X057520Y029285D01*
X057520Y029715D01*
X057235Y030000D01*
X057520Y030285D01*
X057520Y030497D01*
X059630Y032607D01*
X059630Y022466D01*
X059595Y022480D01*
X059405Y022480D01*
X059228Y022407D01*
X059093Y022272D01*
X059020Y022095D01*
X059020Y021905D01*
X059093Y021728D01*
X059130Y021691D01*
X059130Y020466D01*
X059095Y020480D01*
X058905Y020480D01*
X058728Y020407D01*
X058593Y020272D01*
X058520Y020095D01*
X058520Y019905D01*
X058593Y019728D01*
X058630Y019691D01*
X058630Y013426D01*
X058686Y013290D01*
X058790Y013186D01*
X059500Y012477D01*
X059500Y012293D01*
X059793Y012000D01*
X060130Y012000D01*
X060130Y011926D01*
X060186Y011790D01*
X060290Y011686D01*
X060500Y011477D01*
X060500Y011293D01*
X060793Y011000D01*
X060977Y011000D01*
X058790Y008814D01*
X058686Y008710D01*
X058630Y008574D01*
X058630Y008000D01*
X058630Y008020D02*
X057870Y008020D01*
X057870Y008298D02*
X058630Y008298D01*
X058631Y008577D02*
X057870Y008577D01*
X057870Y008855D02*
X058832Y008855D01*
X059110Y009134D02*
X057870Y009134D01*
X057870Y009412D02*
X059389Y009412D01*
X059667Y009691D02*
X057870Y009691D01*
X057870Y009969D02*
X059946Y009969D01*
X060224Y010248D02*
X057870Y010248D01*
X057870Y010526D02*
X060503Y010526D01*
X060781Y010805D02*
X057870Y010805D01*
X057870Y011083D02*
X060710Y011083D01*
X060500Y011362D02*
X057870Y011362D01*
X057870Y011640D02*
X060337Y011640D01*
X060133Y011919D02*
X057870Y011919D01*
X057870Y012197D02*
X059596Y012197D01*
X059500Y012476D02*
X057870Y012476D01*
X057870Y012754D02*
X059223Y012754D01*
X058944Y013033D02*
X057870Y013033D01*
X057870Y013311D02*
X058678Y013311D01*
X058630Y013590D02*
X057870Y013590D01*
X057870Y013868D02*
X058630Y013868D01*
X058630Y014147D02*
X058354Y014147D01*
X058500Y014425D02*
X058630Y014425D01*
X058630Y014704D02*
X058500Y014704D01*
X058630Y014982D02*
X058225Y014982D01*
X057870Y015261D02*
X058630Y015261D01*
X058630Y015539D02*
X057870Y015539D01*
X057870Y015818D02*
X058630Y015818D01*
X058630Y016096D02*
X058303Y016096D01*
X058000Y016096D02*
X058000Y016096D01*
X058000Y016000D02*
X058000Y016500D01*
X058000Y016500D01*
X058500Y016500D01*
X058000Y016500D01*
X058000Y016500D01*
X058000Y017000D01*
X057980Y017000D01*
X057980Y017095D01*
X057907Y017272D01*
X058000Y016932D02*
X058000Y016932D01*
X058276Y016932D02*
X058630Y016932D01*
X058630Y016653D02*
X058500Y016653D01*
X058500Y016375D02*
X058630Y016375D01*
X058000Y016375D02*
X058000Y016375D01*
X058000Y016500D02*
X058000Y016500D01*
X058000Y016000D01*
X057130Y016096D02*
X050770Y016096D01*
X050770Y015818D02*
X057130Y015818D01*
X057130Y015539D02*
X050770Y015539D01*
X050770Y015261D02*
X057130Y015261D01*
X057130Y014982D02*
X050770Y014982D01*
X050770Y014704D02*
X057130Y014704D01*
X057130Y014425D02*
X050770Y014425D01*
X050770Y014147D02*
X057130Y014147D01*
X057130Y013868D02*
X050770Y013868D01*
X050770Y013590D02*
X057130Y013590D01*
X057130Y013311D02*
X050770Y013311D01*
X050770Y013033D02*
X057130Y013033D01*
X057130Y012754D02*
X050770Y012754D01*
X050770Y012476D02*
X057130Y012476D01*
X057130Y012197D02*
X050681Y012197D01*
X050680Y011919D02*
X057130Y011919D01*
X057130Y011640D02*
X050657Y011640D01*
X050658Y011362D02*
X057130Y011362D01*
X057130Y011083D02*
X050680Y011083D01*
X050667Y010833D02*
X050667Y010833D01*
X050681Y010805D02*
X057130Y010805D01*
X057130Y010526D02*
X050770Y010526D01*
X050770Y010248D02*
X057130Y010248D01*
X057130Y009969D02*
X056929Y009969D01*
X056980Y009691D02*
X057130Y009691D01*
X057130Y009412D02*
X056870Y009412D01*
X056870Y009134D02*
X057130Y009134D01*
X057130Y008855D02*
X056870Y008855D01*
X056870Y008577D02*
X057130Y008577D01*
X057130Y008298D02*
X056870Y008298D01*
X056870Y008020D02*
X057130Y008020D01*
X056130Y008020D02*
X051605Y008020D01*
X050770Y008298D02*
X056130Y008298D01*
X056130Y008577D02*
X050770Y008577D01*
X050770Y008855D02*
X056130Y008855D01*
X056130Y009134D02*
X050770Y009134D01*
X050770Y009412D02*
X056130Y009412D01*
X056020Y009691D02*
X050770Y009691D01*
X050770Y009969D02*
X056071Y009969D01*
X059370Y008298D02*
X061020Y008298D01*
X061148Y008577D02*
X059600Y008577D01*
X059878Y008855D02*
X062176Y008855D01*
X062020Y008577D02*
X061852Y008577D01*
X062543Y008020D02*
X063020Y008020D01*
X062936Y008298D02*
X063119Y008298D01*
X063130Y008577D02*
X062980Y008577D01*
X063130Y008855D02*
X062824Y008855D01*
X062793Y009000D02*
X063000Y009000D01*
X063000Y009500D01*
X062500Y010000D01*
X062762Y009969D02*
X060992Y009969D01*
X060714Y009691D02*
X062500Y009691D01*
X062500Y009707D02*
X062500Y009500D01*
X063000Y009500D01*
X063000Y009500D01*
X063000Y010000D01*
X063130Y010000D01*
X063130Y010847D01*
X062977Y011000D01*
X062793Y011000D01*
X062500Y011293D01*
X062290Y011083D02*
X062710Y011083D01*
X063130Y010805D02*
X061820Y010805D01*
X061549Y010526D02*
X063130Y010526D01*
X063130Y010248D02*
X061271Y010248D01*
X060435Y009412D02*
X062500Y009412D01*
X062500Y009500D02*
X062500Y009293D01*
X062793Y009000D01*
X062659Y009134D02*
X060157Y009134D01*
X060746Y008020D02*
X059370Y008020D01*
X062500Y009500D02*
X063000Y009500D01*
X063000Y009500D01*
X063000Y009500D01*
X063000Y010000D01*
X062793Y010000D01*
X062500Y009707D01*
X063000Y009691D02*
X063000Y009691D01*
X063000Y009969D02*
X063000Y009969D01*
X063000Y009412D02*
X063000Y009412D01*
X063000Y009134D02*
X063000Y009134D01*
X065000Y009500D02*
X065000Y011500D01*
X063500Y011640D02*
X063500Y011640D01*
X063630Y013311D02*
X061500Y013311D01*
X061500Y013590D02*
X063630Y013590D01*
X063630Y013868D02*
X061339Y013868D01*
X061207Y014000D02*
X060870Y014000D01*
X061207Y014000D01*
X061354Y014147D02*
X063630Y014147D01*
X063630Y014425D02*
X061500Y014425D01*
X061500Y014704D02*
X063630Y014704D01*
X063630Y014982D02*
X061225Y014982D01*
X061207Y015000D02*
X060870Y015000D01*
X060870Y015000D01*
X061207Y015000D01*
X061337Y015870D02*
X061207Y016000D01*
X061500Y016293D01*
X061500Y016707D01*
X061207Y017000D01*
X061500Y017293D01*
X061793Y017000D01*
X062207Y017000D01*
X062500Y017293D01*
X062793Y017000D01*
X063130Y017000D01*
X063130Y015870D01*
X061337Y015870D01*
X061207Y016000D02*
X060870Y016000D01*
X061207Y016000D01*
X061303Y016096D02*
X063130Y016096D01*
X063130Y016375D02*
X061500Y016375D01*
X061500Y016653D02*
X063130Y016653D01*
X063130Y016932D02*
X061276Y016932D01*
X061207Y017000D02*
X060870Y017000D01*
X061207Y017000D01*
X061417Y017210D02*
X061583Y017210D01*
X061500Y017293D02*
X061500Y017707D01*
X061793Y018000D01*
X061977Y018000D01*
X061977Y018000D01*
X061793Y018000D01*
X061500Y018293D01*
X061500Y018707D01*
X061793Y019000D01*
X062130Y019000D01*
X062130Y026980D01*
X061785Y026980D01*
X061500Y027265D01*
X061215Y026980D01*
X061000Y026980D01*
X061000Y027500D01*
X061000Y020500D01*
X061000Y020500D01*
X061000Y021000D01*
X061207Y021000D01*
X061500Y020707D01*
X061500Y020500D01*
X061000Y020500D01*
X061000Y020500D01*
X061000Y021000D01*
X060870Y021000D01*
X060870Y026980D01*
X061000Y026980D01*
X061000Y027500D01*
X061000Y027500D01*
X061000Y027236D02*
X061000Y027236D01*
X060870Y026958D02*
X062130Y026958D01*
X062130Y026679D02*
X060870Y026679D01*
X060870Y026401D02*
X062130Y026401D01*
X062130Y026122D02*
X060870Y026122D01*
X060870Y025844D02*
X062130Y025844D01*
X062130Y025565D02*
X060870Y025565D01*
X060870Y025287D02*
X062130Y025287D01*
X062130Y025008D02*
X060870Y025008D01*
X060870Y024730D02*
X062130Y024730D01*
X062130Y024451D02*
X060870Y024451D01*
X060870Y024173D02*
X062130Y024173D01*
X062130Y023894D02*
X060870Y023894D01*
X060870Y023616D02*
X062130Y023616D01*
X062130Y023337D02*
X060870Y023337D01*
X060870Y023059D02*
X062130Y023059D01*
X062130Y022780D02*
X060870Y022780D01*
X060870Y022502D02*
X062130Y022502D01*
X062130Y022223D02*
X060870Y022223D01*
X060870Y021945D02*
X062130Y021945D01*
X062130Y021666D02*
X060870Y021666D01*
X060870Y021388D02*
X062130Y021388D01*
X062130Y021109D02*
X060870Y021109D01*
X061000Y020831D02*
X061000Y020831D01*
X061000Y020552D02*
X061000Y020552D01*
X061000Y020500D02*
X061500Y020500D01*
X061500Y020293D01*
X061207Y020000D01*
X061000Y020000D01*
X061000Y020500D01*
X061000Y020500D01*
X061000Y020000D01*
X060870Y020000D01*
X060870Y019000D01*
X061207Y019000D01*
X061500Y018707D01*
X061500Y018293D01*
X061207Y018000D01*
X060870Y018000D01*
X060870Y018000D01*
X061207Y018000D01*
X061500Y017707D01*
X061500Y017293D01*
X061500Y017489D02*
X061500Y017489D01*
X061440Y017767D02*
X061560Y017767D01*
X061747Y018046D02*
X061253Y018046D01*
X061500Y018324D02*
X061500Y018324D01*
X061500Y018603D02*
X061500Y018603D01*
X061326Y018881D02*
X061674Y018881D01*
X062130Y019160D02*
X060870Y019160D01*
X060870Y019438D02*
X062130Y019438D01*
X062130Y019717D02*
X060870Y019717D01*
X060870Y019995D02*
X062130Y019995D01*
X062130Y020274D02*
X061481Y020274D01*
X061500Y020552D02*
X062130Y020552D01*
X062130Y020831D02*
X061377Y020831D01*
X061000Y020274D02*
X061000Y020274D01*
X063000Y020500D02*
X063000Y026750D01*
X061529Y027236D02*
X061471Y027236D01*
X059630Y027236D02*
X057471Y027236D01*
X057520Y027515D02*
X059630Y027515D01*
X059630Y027793D02*
X057442Y027793D01*
X057307Y028072D02*
X059630Y028072D01*
X059630Y028350D02*
X057520Y028350D01*
X057520Y028629D02*
X059630Y028629D01*
X059630Y028907D02*
X057328Y028907D01*
X057421Y029186D02*
X059630Y029186D01*
X059630Y029464D02*
X057520Y029464D01*
X057493Y029743D02*
X059630Y029743D01*
X059630Y030021D02*
X057256Y030021D01*
X057520Y030300D02*
X059630Y030300D01*
X059630Y030578D02*
X057601Y030578D01*
X057880Y030857D02*
X059630Y030857D01*
X059630Y031135D02*
X058158Y031135D01*
X058437Y031414D02*
X059630Y031414D01*
X059630Y031692D02*
X058715Y031692D01*
X058994Y031971D02*
X059630Y031971D01*
X059630Y032249D02*
X059272Y032249D01*
X059551Y032528D02*
X059630Y032528D01*
X056000Y031500D02*
X055250Y032250D01*
X055250Y038500D01*
X056750Y040000D01*
X061000Y040000D01*
X061000Y035500D01*
X061870Y036000D02*
X061870Y036000D01*
X062207Y036000D01*
X062500Y036293D01*
X062793Y036000D01*
X063207Y036000D01*
X063500Y036293D01*
X063500Y036707D01*
X063207Y037000D01*
X063023Y037000D01*
X065653Y039630D01*
X067500Y039630D01*
X067500Y039293D01*
X067793Y039000D01*
X067500Y038707D01*
X067500Y038293D01*
X067793Y038000D01*
X068207Y038000D01*
X068500Y038293D01*
X068500Y038392D01*
X070462Y036430D01*
X068500Y036430D01*
X068500Y036500D01*
X068500Y036707D01*
X068207Y037000D01*
X068500Y037293D01*
X068500Y037707D01*
X068207Y038000D01*
X067793Y038000D01*
X067663Y037870D01*
X067176Y037870D01*
X067040Y037814D01*
X066936Y037710D01*
X065430Y036203D01*
X065430Y036223D01*
X065500Y036293D01*
X065500Y036707D01*
X065207Y037000D01*
X064793Y037000D01*
X064500Y036707D01*
X064500Y036293D01*
X064570Y036223D01*
X064570Y033453D01*
X062500Y035523D01*
X062500Y035707D01*
X062207Y036000D01*
X061870Y036000D01*
X062338Y035870D02*
X064570Y035870D01*
X064570Y036148D02*
X063355Y036148D01*
X063500Y036427D02*
X064500Y036427D01*
X064500Y036705D02*
X063500Y036705D01*
X063224Y036984D02*
X064776Y036984D01*
X065224Y036984D02*
X066210Y036984D01*
X066489Y037262D02*
X063285Y037262D01*
X063564Y037541D02*
X066767Y037541D01*
X067053Y037819D02*
X063842Y037819D01*
X064121Y038098D02*
X067695Y038098D01*
X067500Y038376D02*
X064399Y038376D01*
X064678Y038655D02*
X067500Y038655D01*
X067726Y038933D02*
X064956Y038933D01*
X065235Y039212D02*
X067581Y039212D01*
X067500Y039490D02*
X065513Y039490D01*
X064977Y040000D02*
X063500Y038523D01*
X063500Y038707D01*
X063207Y039000D01*
X063500Y039293D01*
X063500Y039707D01*
X063207Y040000D01*
X062793Y040000D01*
X062500Y039707D01*
X062207Y040000D01*
X062500Y040293D01*
X062500Y040500D01*
X062500Y040707D01*
X062207Y041000D01*
X062000Y041000D01*
X062000Y040500D01*
X062500Y040000D01*
X062500Y039000D01*
X063000Y038500D01*
X063000Y038500D01*
X063000Y039000D01*
X063207Y039000D01*
X062793Y039000D01*
X062500Y039293D01*
X062207Y039000D01*
X061793Y039000D01*
X061500Y039293D01*
X061500Y039707D01*
X061793Y040000D01*
X062000Y040000D01*
X062207Y040000D01*
X061793Y040000D01*
X061500Y040293D01*
X061500Y040500D01*
X062000Y040500D01*
X062500Y040500D01*
X062000Y040500D01*
X062000Y040500D01*
X062000Y040500D01*
X062000Y040000D01*
X062000Y040500D01*
X062000Y040500D01*
X062000Y040500D01*
X062000Y041000D01*
X061793Y041000D01*
X061500Y040707D01*
X061500Y040500D01*
X062000Y040500D01*
X062000Y040604D02*
X062000Y040604D01*
X062000Y040326D02*
X062000Y040326D01*
X062000Y040047D02*
X062000Y040047D01*
X062254Y040047D02*
X064746Y040047D01*
X064793Y040000D02*
X064977Y040000D01*
X064793Y040000D02*
X064500Y040293D01*
X064500Y040707D01*
X064793Y041000D01*
X065207Y041000D01*
X065500Y040707D01*
X065500Y040370D01*
X065500Y040370D01*
X065500Y040707D01*
X065793Y041000D01*
X066207Y041000D01*
X066500Y040707D01*
X066500Y040370D01*
X066500Y040370D01*
X066500Y040707D01*
X066793Y041000D01*
X067130Y041000D01*
X067130Y041074D01*
X067186Y041210D01*
X067500Y041523D01*
X067500Y041570D01*
X063500Y041570D01*
X063500Y041293D01*
X063207Y041000D01*
X062793Y041000D01*
X062500Y041293D01*
X062500Y041570D01*
X062500Y041570D01*
X062500Y041293D01*
X062207Y041000D01*
X061793Y041000D01*
X061500Y041293D01*
X061500Y041570D01*
X059500Y041570D01*
X059500Y041293D01*
X059207Y041000D01*
X058793Y041000D01*
X058500Y041293D01*
X058500Y041570D01*
X058500Y041570D01*
X058500Y041293D01*
X058207Y041000D01*
X057793Y041000D01*
X057500Y041293D01*
X057500Y041570D01*
X054180Y041570D01*
X054180Y039980D01*
X054345Y039980D01*
X054522Y039907D01*
X054657Y039772D01*
X054730Y039595D01*
X054730Y039405D01*
X054680Y039284D01*
X054680Y038980D01*
X054845Y038980D01*
X055022Y038907D01*
X055035Y038893D01*
X056385Y040244D01*
X056506Y040365D01*
X056664Y040430D01*
X058500Y040430D01*
X058500Y040707D01*
X058793Y041000D01*
X059207Y041000D01*
X059500Y040707D01*
X059500Y040430D01*
X061086Y040430D01*
X061244Y040365D01*
X061365Y040244D01*
X061430Y040086D01*
X061430Y037453D01*
X061500Y037523D01*
X061500Y037707D01*
X061793Y038000D01*
X062207Y038000D01*
X062500Y038293D01*
X062500Y038707D01*
X062207Y039000D01*
X061793Y039000D01*
X061500Y038707D01*
X061500Y038293D01*
X061793Y038000D01*
X062207Y038000D01*
X062500Y037707D01*
X062500Y037523D01*
X062977Y038000D01*
X062793Y038000D01*
X062500Y038293D01*
X062500Y038500D01*
X063000Y038500D01*
X063000Y038500D01*
X063000Y039000D01*
X062793Y039000D01*
X062500Y038707D01*
X062500Y038500D01*
X063000Y038500D01*
X063000Y038655D02*
X063000Y038655D01*
X063000Y038933D02*
X063000Y038933D01*
X063274Y038933D02*
X063910Y038933D01*
X064188Y039212D02*
X063419Y039212D01*
X063500Y039490D02*
X064467Y039490D01*
X064745Y039769D02*
X063439Y039769D01*
X062561Y039769D02*
X062439Y039769D01*
X062500Y039707D02*
X062500Y039293D01*
X062500Y039707D01*
X062500Y039490D02*
X062500Y039490D01*
X062419Y039212D02*
X062581Y039212D01*
X062726Y038933D02*
X062274Y038933D01*
X062500Y038655D02*
X062500Y038655D01*
X062500Y038376D02*
X062500Y038376D01*
X062305Y038098D02*
X062695Y038098D01*
X062796Y037819D02*
X062388Y037819D01*
X062500Y037541D02*
X062517Y037541D01*
X061612Y037819D02*
X061430Y037819D01*
X061430Y037541D02*
X061500Y037541D01*
X061430Y038098D02*
X061695Y038098D01*
X061500Y038376D02*
X061430Y038376D01*
X061430Y038655D02*
X061500Y038655D01*
X061430Y038933D02*
X061726Y038933D01*
X061581Y039212D02*
X061430Y039212D01*
X061430Y039490D02*
X061500Y039490D01*
X061561Y039769D02*
X061430Y039769D01*
X061430Y040047D02*
X061746Y040047D01*
X061500Y040326D02*
X061283Y040326D01*
X061500Y040604D02*
X059500Y040604D01*
X059325Y040883D02*
X061675Y040883D01*
X061632Y041161D02*
X059368Y041161D01*
X059500Y041440D02*
X061500Y041440D01*
X062000Y040883D02*
X062000Y040883D01*
X062325Y040883D02*
X064675Y040883D01*
X064500Y040604D02*
X062500Y040604D01*
X062500Y040326D02*
X064500Y040326D01*
X065325Y040883D02*
X065675Y040883D01*
X065500Y040604D02*
X065500Y040604D01*
X066325Y040883D02*
X066675Y040883D01*
X066500Y040604D02*
X066500Y040604D01*
X067166Y041161D02*
X063368Y041161D01*
X063500Y041440D02*
X067416Y041440D01*
X068250Y042000D02*
X053750Y042000D01*
X053750Y025750D01*
X056000Y023500D01*
X057294Y023059D02*
X059630Y023059D01*
X059630Y023337D02*
X057520Y023337D01*
X057520Y023616D02*
X059630Y023616D01*
X059630Y023894D02*
X057341Y023894D01*
X057408Y024173D02*
X059630Y024173D01*
X059630Y024451D02*
X057520Y024451D01*
X057506Y024730D02*
X059630Y024730D01*
X059630Y025008D02*
X057243Y025008D01*
X057520Y025287D02*
X059630Y025287D01*
X059630Y025565D02*
X057520Y025565D01*
X057392Y025844D02*
X059630Y025844D01*
X059630Y026122D02*
X057357Y026122D01*
X057520Y026401D02*
X059630Y026401D01*
X059630Y026679D02*
X057520Y026679D01*
X057278Y026958D02*
X059630Y026958D01*
X056000Y027250D02*
X056000Y027500D01*
X056000Y027250D02*
X055250Y026500D01*
X054750Y025500D02*
X054750Y038500D01*
X054959Y038933D02*
X055075Y038933D01*
X055353Y039212D02*
X054680Y039212D01*
X054730Y039490D02*
X055632Y039490D01*
X055910Y039769D02*
X054658Y039769D01*
X054250Y039500D02*
X054250Y036000D01*
X056000Y037500D02*
X056000Y038500D01*
X056520Y038500D01*
X057000Y038500D01*
X057000Y038500D01*
X057000Y039020D01*
X057215Y039020D01*
X057514Y038721D01*
X057793Y039000D01*
X058207Y039000D01*
X058500Y039293D01*
X058793Y039000D01*
X058500Y038707D01*
X058207Y039000D01*
X057793Y039000D01*
X057500Y039293D01*
X057500Y039570D01*
X056928Y039570D01*
X056297Y038939D01*
X056500Y038735D01*
X056785Y039020D01*
X057000Y039020D01*
X057000Y038500D01*
X057000Y038500D01*
X056000Y038500D01*
X056000Y038500D01*
X056000Y037980D01*
X056000Y037500D01*
X056000Y037500D01*
X056000Y038500D01*
X056000Y038500D01*
X056000Y038376D02*
X056000Y038376D01*
X056000Y038098D02*
X056000Y038098D01*
X056000Y037819D02*
X056000Y037819D01*
X056000Y037541D02*
X056000Y037541D01*
X057235Y038000D02*
X057514Y038279D01*
X057793Y038000D01*
X058207Y038000D01*
X058500Y038293D01*
X058500Y038707D01*
X058500Y038293D01*
X058793Y038000D01*
X058500Y037707D01*
X058500Y037293D01*
X058793Y037000D01*
X058500Y036707D01*
X058207Y037000D01*
X057793Y037000D01*
X057514Y036721D01*
X057235Y037000D01*
X057520Y037285D01*
X057520Y037715D01*
X057235Y038000D01*
X057333Y038098D02*
X057695Y038098D01*
X057416Y037819D02*
X058612Y037819D01*
X058793Y038000D02*
X059130Y038000D01*
X059130Y038000D01*
X058793Y038000D01*
X058695Y038098D02*
X058305Y038098D01*
X058500Y038376D02*
X058500Y038376D01*
X058500Y038655D02*
X058500Y038655D01*
X058274Y038933D02*
X058726Y038933D01*
X058793Y039000D02*
X059207Y039000D01*
X059342Y038865D01*
X060020Y039543D01*
X060020Y039570D01*
X059500Y039570D01*
X059500Y039293D01*
X059207Y039000D01*
X058793Y039000D01*
X058581Y039212D02*
X058419Y039212D01*
X058500Y039293D02*
X058500Y039570D01*
X058500Y039293D01*
X058500Y039490D02*
X058500Y039490D01*
X058500Y039570D02*
X058500Y039570D01*
X057581Y039212D02*
X056570Y039212D01*
X056698Y038933D02*
X056302Y038933D01*
X057000Y038933D02*
X057000Y038933D01*
X057000Y038655D02*
X057000Y038655D01*
X057302Y038933D02*
X057726Y038933D01*
X057500Y039490D02*
X056848Y039490D01*
X056189Y040047D02*
X054180Y040047D01*
X054180Y040326D02*
X056467Y040326D01*
X057632Y041161D02*
X054180Y041161D01*
X054180Y040883D02*
X058675Y040883D01*
X058632Y041161D02*
X058368Y041161D01*
X058500Y041440D02*
X058500Y041440D01*
X058500Y040604D02*
X054180Y040604D01*
X054180Y041440D02*
X057500Y041440D01*
X059500Y039490D02*
X059967Y039490D01*
X059688Y039212D02*
X059419Y039212D01*
X059410Y038933D02*
X059274Y038933D01*
X058500Y037541D02*
X057520Y037541D01*
X057497Y037262D02*
X058531Y037262D01*
X058793Y037000D02*
X059130Y037000D01*
X059130Y037000D01*
X058793Y037000D01*
X058776Y036984D02*
X058224Y036984D01*
X058500Y036707D02*
X058500Y036293D01*
X058207Y036000D01*
X057870Y036000D01*
X057870Y035870D01*
X058663Y035870D01*
X058793Y036000D01*
X059130Y036000D01*
X059130Y036000D01*
X058793Y036000D01*
X058500Y036293D01*
X058500Y036707D01*
X058500Y036705D02*
X058500Y036705D01*
X058500Y036427D02*
X058500Y036427D01*
X058355Y036148D02*
X058645Y036148D01*
X057776Y036984D02*
X057252Y036984D01*
X062355Y036148D02*
X062645Y036148D01*
X062500Y036293D02*
X062500Y036477D01*
X062500Y036477D01*
X062500Y036293D01*
X062500Y036427D02*
X062500Y036427D01*
X062500Y035591D02*
X064570Y035591D01*
X064570Y035313D02*
X062711Y035313D01*
X062989Y035034D02*
X064570Y035034D01*
X064570Y034756D02*
X063268Y034756D01*
X063546Y034477D02*
X064570Y034477D01*
X064570Y034199D02*
X063825Y034199D01*
X064103Y033920D02*
X064570Y033920D01*
X064570Y033642D02*
X064382Y033642D01*
X065000Y033250D02*
X066500Y031750D01*
X066500Y035000D01*
X066000Y035500D01*
X066338Y035870D02*
X066662Y035870D01*
X066793Y036000D02*
X066500Y035707D01*
X066240Y035967D01*
X067403Y037130D01*
X067663Y037130D01*
X067793Y037000D01*
X068207Y037000D01*
X068000Y037000D01*
X068000Y036500D01*
X068000Y035500D01*
X068000Y035500D01*
X068000Y036000D01*
X068070Y036000D01*
X068070Y036000D01*
X068000Y036000D01*
X068000Y036500D01*
X068000Y036500D01*
X068500Y036500D01*
X068000Y036500D01*
X068000Y036500D01*
X068000Y036500D01*
X068000Y036500D01*
X067500Y036500D01*
X067500Y036707D01*
X067793Y037000D01*
X068000Y037000D01*
X068000Y036500D01*
X068000Y036000D01*
X067793Y036000D01*
X067500Y035707D01*
X067207Y036000D01*
X066793Y036000D01*
X066421Y036148D02*
X067645Y036148D01*
X067500Y036293D02*
X067793Y036000D01*
X068000Y036000D01*
X068000Y035500D01*
X068000Y035500D01*
X067500Y035500D01*
X067500Y035707D01*
X067500Y035430D01*
X067500Y035430D01*
X067500Y035500D01*
X068000Y035500D01*
X068000Y035591D02*
X068000Y035591D01*
X068000Y035870D02*
X068000Y035870D01*
X068000Y036148D02*
X068000Y036148D01*
X068000Y036427D02*
X068000Y036427D01*
X068000Y036500D02*
X067500Y036500D01*
X067500Y036293D01*
X067500Y036427D02*
X066700Y036427D01*
X066978Y036705D02*
X067500Y036705D01*
X067257Y036984D02*
X067776Y036984D01*
X068000Y036984D02*
X068000Y036984D01*
X068224Y036984D02*
X069908Y036984D01*
X069630Y037262D02*
X068469Y037262D01*
X068500Y037541D02*
X069351Y037541D01*
X069073Y037819D02*
X068388Y037819D01*
X068305Y038098D02*
X068794Y038098D01*
X068516Y038376D02*
X068500Y038376D01*
X068500Y039000D02*
X068500Y041750D01*
X068250Y042000D01*
X068583Y042275D02*
X070324Y042275D01*
X070645Y041997D02*
X068862Y041997D01*
X068930Y041718D02*
X070511Y041718D01*
X070500Y041440D02*
X068930Y041440D01*
X068930Y041161D02*
X070632Y041161D01*
X070793Y041000D02*
X071070Y041000D01*
X071070Y041000D01*
X070793Y041000D01*
X070675Y040883D02*
X068930Y040883D01*
X068930Y040604D02*
X070500Y040604D01*
X070500Y040326D02*
X068930Y040326D01*
X068930Y040047D02*
X070746Y040047D01*
X070793Y040000D02*
X071070Y040000D01*
X071070Y040000D01*
X070793Y040000D01*
X070561Y039769D02*
X068930Y039769D01*
X068930Y039490D02*
X070500Y039490D01*
X070581Y039212D02*
X068930Y039212D01*
X069175Y038933D02*
X070726Y038933D01*
X071000Y038933D02*
X071000Y038933D01*
X071000Y038655D02*
X071000Y038655D01*
X071000Y038500D02*
X071000Y038500D01*
X071000Y038500D01*
X071000Y038000D01*
X070793Y038000D01*
X070500Y038293D01*
X070500Y038500D01*
X071000Y038500D01*
X071000Y038376D02*
X071000Y038376D01*
X071000Y038098D02*
X071000Y038098D01*
X070695Y038098D02*
X070011Y038098D01*
X069732Y038376D02*
X070500Y038376D01*
X070500Y038655D02*
X069454Y038655D01*
X068500Y039000D02*
X071000Y036500D01*
X071250Y036000D02*
X068500Y036000D01*
X068500Y035250D01*
X068250Y035000D01*
X067000Y035000D01*
X067000Y034500D01*
X067000Y035000D02*
X067000Y035500D01*
X067338Y035870D02*
X067662Y035870D01*
X067500Y035591D02*
X067500Y035591D01*
X066500Y035608D02*
X066500Y035608D01*
X066500Y035707D01*
X066500Y035608D01*
X065653Y036427D02*
X065500Y036427D01*
X065500Y036705D02*
X065932Y036705D01*
X065000Y036500D02*
X065000Y033250D01*
X066930Y033363D02*
X074730Y033363D01*
X074730Y033085D02*
X066930Y033085D01*
X066930Y032806D02*
X074730Y032806D01*
X074730Y032528D02*
X066930Y032528D01*
X066930Y032249D02*
X074730Y032249D01*
X074730Y031971D02*
X072336Y031971D01*
X072236Y032070D02*
X072570Y031736D01*
X072570Y031264D01*
X072236Y030930D01*
X071764Y030930D01*
X071430Y031264D01*
X071430Y031736D01*
X071764Y032070D01*
X072236Y032070D01*
X072570Y031692D02*
X074730Y031692D01*
X074730Y031414D02*
X072570Y031414D01*
X072441Y031135D02*
X074730Y031135D01*
X074730Y030857D02*
X067430Y030857D01*
X067430Y031135D02*
X071559Y031135D01*
X071430Y031414D02*
X067398Y031414D01*
X067166Y031692D02*
X071430Y031692D01*
X071664Y031971D02*
X066930Y031971D01*
X066500Y031750D02*
X067000Y031250D01*
X067000Y030500D01*
X065750Y029250D01*
X065750Y020750D01*
X065000Y020000D01*
X064870Y020478D02*
X064870Y026980D01*
X065000Y026980D01*
X065215Y026980D01*
X065320Y027085D01*
X065320Y020928D01*
X064870Y020478D01*
X064870Y020552D02*
X064944Y020552D01*
X064870Y020831D02*
X065222Y020831D01*
X065320Y021109D02*
X064870Y021109D01*
X064870Y021388D02*
X065320Y021388D01*
X065320Y021666D02*
X064870Y021666D01*
X064870Y021945D02*
X065320Y021945D01*
X065320Y022223D02*
X064870Y022223D01*
X064870Y022502D02*
X065320Y022502D01*
X065320Y022780D02*
X064870Y022780D01*
X064870Y023059D02*
X065320Y023059D01*
X065320Y023337D02*
X064870Y023337D01*
X064870Y023616D02*
X065320Y023616D01*
X065320Y023894D02*
X064870Y023894D01*
X064870Y024173D02*
X065320Y024173D01*
X065320Y024451D02*
X064870Y024451D01*
X064870Y024730D02*
X065320Y024730D01*
X065320Y025008D02*
X064870Y025008D01*
X064870Y025287D02*
X065320Y025287D01*
X065320Y025565D02*
X064870Y025565D01*
X064870Y025844D02*
X065320Y025844D01*
X065320Y026122D02*
X064870Y026122D01*
X064870Y026401D02*
X065320Y026401D01*
X065320Y026679D02*
X064870Y026679D01*
X064870Y026958D02*
X065320Y026958D01*
X065000Y026980D02*
X065000Y027500D01*
X065000Y027500D01*
X065000Y026980D01*
X065000Y027236D02*
X065000Y027236D01*
X066180Y028350D02*
X066378Y028350D01*
X066180Y028629D02*
X074730Y028629D01*
X074730Y028907D02*
X066180Y028907D01*
X066294Y029186D02*
X074730Y029186D01*
X074730Y029464D02*
X066572Y029464D01*
X066851Y029743D02*
X074730Y029743D01*
X074730Y030021D02*
X067228Y030021D01*
X067500Y030300D02*
X074730Y030300D01*
X074730Y030578D02*
X067500Y030578D01*
X069622Y028350D02*
X074730Y028350D01*
X074730Y028072D02*
X069870Y028072D01*
X069870Y027793D02*
X074730Y027793D01*
X074730Y027515D02*
X069870Y027515D01*
X069870Y027236D02*
X074730Y027236D01*
X074730Y026958D02*
X069870Y026958D01*
X069870Y026679D02*
X074730Y026679D01*
X074730Y026401D02*
X069870Y026401D01*
X069870Y026122D02*
X074730Y026122D01*
X074730Y025844D02*
X071392Y025844D01*
X071520Y025565D02*
X074730Y025565D01*
X074730Y025287D02*
X071520Y025287D01*
X071243Y025008D02*
X074730Y025008D01*
X074730Y024730D02*
X071506Y024730D01*
X071572Y024451D02*
X074730Y024451D01*
X074730Y024173D02*
X071851Y024173D01*
X072129Y023894D02*
X074730Y023894D01*
X074730Y023616D02*
X072353Y023616D01*
X072210Y023814D02*
X072210Y023814D01*
X072370Y023337D02*
X074730Y023337D01*
X074730Y023059D02*
X072370Y023059D01*
X072370Y022780D02*
X074730Y022780D01*
X074730Y022502D02*
X072370Y022502D01*
X072370Y022223D02*
X074730Y022223D01*
X074730Y021945D02*
X072370Y021945D01*
X072370Y021666D02*
X074730Y021666D01*
X074730Y021388D02*
X072370Y021388D01*
X072370Y021109D02*
X074730Y021109D01*
X074730Y020831D02*
X072370Y020831D01*
X072370Y020552D02*
X074730Y020552D01*
X074730Y020274D02*
X072370Y020274D01*
X072370Y019995D02*
X074730Y019995D01*
X074730Y019717D02*
X072370Y019717D01*
X065977Y017000D02*
X065977Y017000D01*
X065793Y017000D01*
X065977Y017000D01*
X065724Y016932D02*
X065705Y016932D01*
X065500Y016653D02*
X065426Y016653D01*
X065500Y016375D02*
X065148Y016375D01*
X064869Y016096D02*
X065697Y016096D01*
X065610Y015818D02*
X064591Y015818D01*
X064370Y015539D02*
X065500Y015539D01*
X065532Y015261D02*
X064370Y015261D01*
X064370Y014982D02*
X065775Y014982D01*
X065500Y014704D02*
X064370Y014704D01*
X064370Y014425D02*
X065500Y014425D01*
X065646Y014147D02*
X064370Y014147D01*
X064370Y013868D02*
X065661Y013868D01*
X065500Y013590D02*
X064370Y013590D01*
X064370Y013311D02*
X065500Y013311D01*
X065453Y012754D02*
X065547Y012754D01*
X066500Y014425D02*
X066500Y014425D01*
X066500Y014704D02*
X066500Y014704D01*
X066225Y014982D02*
X066775Y014982D01*
X066793Y015000D02*
X066977Y015000D01*
X066977Y015000D01*
X066793Y015000D01*
X062583Y017210D02*
X062417Y017210D01*
X062500Y017293D02*
X062500Y017477D01*
X062500Y017477D01*
X062500Y017293D01*
X063000Y018500D02*
X063000Y020500D01*
X059630Y022502D02*
X057520Y022502D01*
X057455Y022780D02*
X059630Y022780D01*
X059073Y022223D02*
X057458Y022223D01*
X057291Y021945D02*
X059020Y021945D01*
X059130Y021666D02*
X057520Y021666D01*
X057520Y021388D02*
X059130Y021388D01*
X059130Y021109D02*
X057344Y021109D01*
X057405Y020831D02*
X059130Y020831D01*
X059130Y020552D02*
X057520Y020552D01*
X057509Y020274D02*
X058595Y020274D01*
X058520Y019995D02*
X057240Y019995D01*
X057519Y019717D02*
X058605Y019717D01*
X058630Y019438D02*
X057520Y019438D01*
X057520Y019500D02*
X057000Y019500D01*
X057520Y019500D01*
X057395Y019160D02*
X058630Y019160D01*
X058630Y018881D02*
X050770Y018881D01*
X050770Y018603D02*
X058630Y018603D01*
X057000Y018980D02*
X057000Y019500D01*
X057000Y019500D01*
X057000Y019500D01*
X057000Y019500D01*
X056000Y019500D01*
X056000Y019500D01*
X056000Y018980D01*
X056000Y019500D01*
X056000Y019500D01*
X056000Y019500D01*
X055480Y019500D01*
X055605Y019160D02*
X050770Y019160D01*
X050770Y017210D02*
X057067Y017210D01*
X057000Y017250D02*
X053500Y013750D01*
X053500Y003750D01*
X053375Y003625D01*
X042125Y003625D02*
X042000Y003750D01*
X042000Y015000D01*
X042032Y015261D02*
X041370Y015261D01*
X041370Y015539D02*
X042000Y015539D01*
X042110Y015818D02*
X041370Y015818D01*
X041370Y016096D02*
X042881Y016096D01*
X042890Y015818D02*
X043159Y015818D01*
X043000Y015539D02*
X043438Y015539D01*
X043716Y015261D02*
X042968Y015261D01*
X042500Y015818D02*
X042500Y015818D01*
X042602Y016375D02*
X041370Y016375D01*
X041370Y016653D02*
X042324Y016653D01*
X042045Y016932D02*
X041370Y016932D01*
X041370Y017210D02*
X041767Y017210D01*
X041488Y017489D02*
X041370Y017489D01*
X043092Y016932D02*
X047168Y016932D01*
X046960Y016653D02*
X043370Y016653D01*
X043649Y016375D02*
X046960Y016375D01*
X047140Y016096D02*
X043927Y016096D01*
X042275Y014982D02*
X041370Y014982D01*
X045000Y013311D02*
X045000Y013311D01*
X045000Y013033D02*
X045000Y013033D01*
X045240Y013033D02*
X049730Y013033D01*
X049730Y013311D02*
X045500Y013311D01*
X045500Y013590D02*
X049730Y013590D01*
X049730Y013868D02*
X045339Y013868D01*
X048040Y016375D02*
X049730Y016375D01*
X049730Y016653D02*
X048040Y016653D01*
X050770Y016653D02*
X057130Y016653D01*
X057130Y016375D02*
X050770Y016375D01*
X050770Y016932D02*
X057020Y016932D01*
X058000Y016653D02*
X058000Y016653D01*
X057000Y018980D02*
X057000Y019500D01*
X057000Y019438D02*
X057000Y019438D01*
X057000Y019160D02*
X057000Y019160D01*
X056605Y019160D02*
X056395Y019160D01*
X056000Y019160D02*
X056000Y019160D01*
X056000Y019438D02*
X056000Y019438D01*
X060870Y017000D02*
X060870Y017000D01*
X060870Y016000D02*
X060870Y016000D01*
X060870Y014000D02*
X060870Y014000D01*
X070620Y010526D02*
X070753Y010526D01*
X056000Y025500D02*
X054750Y025500D01*
X046130Y027793D02*
X045434Y027793D01*
X045779Y028072D02*
X046130Y028072D01*
X046130Y028350D02*
X046000Y028350D01*
X045000Y025844D02*
X045000Y025844D01*
X045000Y025565D02*
X045000Y025565D01*
X045000Y025500D02*
X044480Y025500D01*
X044480Y025285D01*
X044256Y025008D02*
X044757Y025008D01*
X043744Y025008D02*
X043256Y025008D01*
X042744Y025008D02*
X042256Y025008D01*
X042500Y027000D02*
X042500Y028500D01*
X038197Y022780D02*
X037803Y022780D01*
X034443Y020831D02*
X044595Y020831D01*
X044656Y021109D02*
X034164Y021109D01*
X033886Y021388D02*
X044480Y021388D01*
X044480Y021666D02*
X033607Y021666D01*
X033329Y021945D02*
X044709Y021945D01*
X044542Y022223D02*
X033050Y022223D01*
X032772Y022502D02*
X044480Y022502D01*
X045000Y019438D02*
X045000Y019438D01*
X045000Y019160D02*
X045000Y019160D01*
X045395Y019160D02*
X045605Y019160D01*
X033542Y025565D02*
X032870Y025565D01*
X032870Y025287D02*
X033263Y025287D01*
X033630Y025844D02*
X032870Y025844D01*
X032870Y026122D02*
X033630Y026122D01*
X033630Y026401D02*
X032870Y026401D01*
X032870Y026679D02*
X033630Y026679D01*
X033630Y026958D02*
X032870Y026958D01*
X032870Y027236D02*
X033630Y027236D01*
X033630Y027515D02*
X032870Y027515D01*
X032870Y027793D02*
X033630Y027793D01*
X033221Y028072D02*
X032870Y028072D01*
X032870Y028350D02*
X033000Y028350D01*
X033000Y028629D02*
X032847Y028629D01*
X032616Y028907D02*
X033200Y028907D01*
X033293Y029000D02*
X033630Y029000D01*
X033630Y029000D01*
X033293Y029000D01*
X033107Y029186D02*
X032338Y029186D01*
X032059Y029464D02*
X033000Y029464D01*
X033035Y029743D02*
X031781Y029743D01*
X031502Y030021D02*
X033272Y030021D01*
X033293Y030000D02*
X033630Y030000D01*
X033630Y030000D01*
X033293Y030000D01*
X033000Y030300D02*
X031224Y030300D01*
X031000Y030578D02*
X033000Y030578D01*
X033149Y030857D02*
X030851Y030857D01*
X030707Y031000D02*
X030370Y031000D01*
X030707Y031000D01*
X030842Y031135D02*
X033158Y031135D01*
X033293Y031000D02*
X033630Y031000D01*
X033630Y031000D01*
X033293Y031000D01*
X033000Y031414D02*
X031000Y031414D01*
X031000Y031692D02*
X033000Y031692D01*
X033263Y031971D02*
X030737Y031971D01*
X030707Y032000D02*
X030370Y032000D01*
X030707Y032000D01*
X030370Y032000D02*
X030370Y032000D01*
X030956Y032249D02*
X033044Y032249D01*
X033000Y032528D02*
X031000Y032528D01*
X030901Y032806D02*
X033099Y032806D01*
X033293Y033000D02*
X033630Y033000D01*
X033630Y033000D01*
X033293Y033000D01*
X033208Y033085D02*
X030792Y033085D01*
X030707Y033000D02*
X030370Y033000D01*
X030370Y033000D01*
X030707Y033000D01*
X031000Y033363D02*
X033000Y033363D01*
X033000Y033642D02*
X031000Y033642D01*
X030500Y034199D02*
X030500Y034199D01*
X030500Y034477D02*
X030500Y034477D01*
X030500Y034756D02*
X030500Y034756D01*
X033293Y032000D02*
X033630Y032000D01*
X033630Y032000D01*
X033293Y032000D01*
X030370Y031000D02*
X030370Y031000D01*
X031000Y029464D02*
X031013Y029464D01*
X030893Y029186D02*
X031291Y029186D01*
X028630Y026122D02*
X027430Y026122D01*
X027864Y025844D02*
X028630Y025844D01*
X028630Y025565D02*
X028000Y025565D01*
X027994Y025287D02*
X028630Y025287D01*
X028630Y025008D02*
X027715Y025008D01*
X027707Y025000D02*
X027430Y025000D01*
X027430Y025000D01*
X027707Y025000D01*
X027978Y024730D02*
X028630Y024730D01*
X028630Y024451D02*
X028000Y024451D01*
X027880Y024173D02*
X028630Y024173D01*
X028630Y023894D02*
X027813Y023894D01*
X027707Y024000D02*
X027430Y024000D01*
X027707Y024000D01*
X027430Y024000D02*
X027430Y024000D01*
X028000Y023616D02*
X028630Y023616D01*
X028630Y023337D02*
X028000Y023337D01*
X027766Y023059D02*
X028630Y023059D01*
X028630Y022780D02*
X027927Y022780D01*
X028000Y022502D02*
X028630Y022502D01*
X028630Y022223D02*
X027930Y022223D01*
X027707Y022000D02*
X027430Y022000D01*
X027430Y022000D01*
X027707Y022000D01*
X027763Y021945D02*
X028421Y021945D01*
X028143Y021666D02*
X028000Y021666D01*
X027707Y023000D02*
X027430Y023000D01*
X027707Y023000D01*
X027430Y023000D02*
X027430Y023000D01*
X031351Y019130D02*
X032857Y019130D01*
X031186Y017460D01*
X031130Y017324D01*
X031130Y016653D01*
X031000Y016653D01*
X031000Y016707D02*
X030707Y017000D01*
X030500Y017000D01*
X030500Y016500D01*
X030500Y018000D01*
X030370Y018046D02*
X031772Y018046D01*
X032051Y018324D02*
X030597Y018324D01*
X030370Y018097D02*
X031314Y019040D01*
X031351Y019130D01*
X031154Y018881D02*
X032608Y018881D01*
X032329Y018603D02*
X030876Y018603D01*
X030370Y018097D02*
X030370Y017000D01*
X030500Y017000D01*
X030500Y016500D01*
X030500Y016500D01*
X030500Y016653D02*
X030500Y016653D01*
X030500Y016932D02*
X030500Y016932D01*
X030776Y016932D02*
X031130Y016932D01*
X031000Y016707D02*
X031000Y016523D01*
X031130Y016653D01*
X031130Y017210D02*
X030370Y017210D01*
X030370Y017489D02*
X031215Y017489D01*
X031494Y017767D02*
X030370Y017767D01*
X029026Y017767D02*
X027974Y017767D01*
X028000Y018046D02*
X029000Y018046D01*
X063500Y038655D02*
X063631Y038655D01*
X062632Y041161D02*
X062368Y041161D01*
X062500Y041440D02*
X062500Y041440D01*
X067793Y039000D02*
X068070Y039000D01*
X068070Y039000D01*
X067793Y039000D01*
X070289Y037819D02*
X070612Y037819D01*
X071000Y037500D02*
X071500Y037000D01*
X071500Y036250D01*
X071250Y036000D01*
X070500Y035313D02*
X068930Y035313D01*
X068876Y035034D02*
X070759Y035034D01*
X070793Y035000D02*
X070977Y035000D01*
X070977Y035000D01*
X070793Y035000D01*
X070548Y034756D02*
X068614Y034756D01*
X068500Y034477D02*
X070500Y034477D01*
X070594Y034199D02*
X068406Y034199D01*
X067594Y034199D02*
X067406Y034199D01*
X067500Y034293D02*
X067500Y034570D01*
X067500Y034293D01*
X067500Y034477D02*
X067500Y034477D01*
X067500Y034570D02*
X067500Y034570D01*
X066930Y033920D02*
X074730Y033920D01*
X074730Y033642D02*
X066930Y033642D01*
X068000Y036705D02*
X068000Y036705D01*
X068500Y036705D02*
X070187Y036705D01*
X072039Y037819D02*
X074730Y037819D01*
X074730Y037541D02*
X072318Y037541D01*
X071930Y038098D02*
X074730Y038098D01*
X074730Y038376D02*
X071930Y038376D01*
X071930Y038655D02*
X074730Y038655D01*
X074730Y038933D02*
X071930Y038933D01*
X071930Y039212D02*
X074730Y039212D01*
X074730Y039490D02*
X071930Y039490D01*
X071930Y039769D02*
X074730Y039769D01*
X074730Y040047D02*
X074254Y040047D01*
X074500Y040326D02*
X074730Y040326D01*
X074730Y040604D02*
X074500Y040604D01*
X074325Y040883D02*
X074730Y040883D01*
X074730Y041161D02*
X071930Y041161D01*
X071930Y041440D02*
X074730Y041440D01*
X073675Y040883D02*
X073325Y040883D01*
X073500Y040604D02*
X073500Y040604D01*
X073500Y040326D02*
X073500Y040326D01*
X073254Y040047D02*
X073746Y040047D01*
X072746Y040047D02*
X072254Y040047D01*
X072500Y040326D02*
X072500Y040326D01*
X072500Y040604D02*
X072500Y040604D01*
X072325Y040883D02*
X072675Y040883D01*
X071930Y041718D02*
X073540Y041718D01*
X073510Y041997D02*
X071862Y041997D01*
X071583Y042275D02*
X073524Y042275D01*
X073510Y042554D02*
X071305Y042554D01*
X071000Y025844D02*
X071000Y025844D01*
X071000Y025565D02*
X071000Y025565D01*
X070608Y025844D02*
X070392Y025844D01*
X070000Y025844D02*
X070000Y025844D01*
X070000Y025565D02*
X070000Y025565D01*
X033669Y043668D02*
X031000Y043668D01*
X031000Y043389D02*
X032682Y043389D01*
X032500Y043111D02*
X030818Y043111D01*
X030000Y043389D02*
X028134Y043389D01*
X028000Y043668D02*
X030000Y043668D01*
X030239Y043946D02*
X027761Y043946D01*
X024751Y045339D02*
X000770Y045339D01*
X000770Y043389D02*
X023555Y043389D01*
X023567Y043418D02*
X023567Y043418D01*
X023567Y043418D01*
X023510Y043111D02*
X000770Y043111D01*
X000770Y042832D02*
X023555Y042832D01*
X023519Y042554D02*
X000770Y042554D01*
X000770Y042275D02*
X023510Y042275D01*
X023512Y041997D02*
X000770Y041997D01*
X000770Y041718D02*
X023510Y041718D01*
X023567Y041440D02*
X000770Y041440D01*
D17*
X013500Y024500D03*
X009000Y021250D03*
X014000Y020750D03*
X015000Y019500D03*
X019750Y018500D03*
X020000Y016000D03*
X022000Y015500D03*
X017750Y012500D03*
X014500Y011000D03*
X016000Y007250D03*
X015500Y006750D03*
X014500Y006750D03*
X012750Y006500D03*
X011500Y007500D03*
X009500Y007000D03*
X009000Y006500D03*
X007000Y007000D03*
X006500Y006500D03*
X006500Y010250D03*
X009000Y010500D03*
X008250Y013500D03*
X017000Y006750D03*
X017750Y006500D03*
X019000Y006500D03*
X021500Y006500D03*
X030000Y010000D03*
X031500Y008500D03*
X033000Y008000D03*
X034750Y007500D03*
X034750Y006750D03*
X034000Y006500D03*
X036000Y008000D03*
X037000Y007000D03*
X036500Y006500D03*
X037750Y006500D03*
X039000Y006500D03*
X039500Y007000D03*
X040250Y006500D03*
X038000Y008000D03*
X038000Y009000D03*
X040000Y009000D03*
X040500Y008500D03*
X043000Y013000D03*
X040000Y018500D03*
X040500Y019000D03*
X035750Y019000D03*
X033500Y018500D03*
X032000Y016500D03*
X031500Y015500D03*
X030500Y018000D03*
X031500Y011500D03*
X055250Y026500D03*
X059500Y022000D03*
X059000Y020000D03*
X057500Y017000D03*
X059500Y016000D03*
X065000Y020000D03*
X063500Y021000D03*
X064000Y022500D03*
X063000Y026750D03*
X062500Y029000D03*
X066750Y027500D03*
X061000Y035500D03*
X060500Y039500D03*
X054750Y038500D03*
X054250Y039500D03*
X054250Y036000D03*
X045000Y028000D03*
X041500Y031250D03*
X041000Y032000D03*
X037500Y030500D03*
X056500Y009750D03*
X061500Y008250D03*
X062500Y008500D03*
X063500Y008000D03*
X062500Y007500D03*
X061500Y006500D03*
X060250Y006500D03*
X059000Y006500D03*
X056500Y006500D03*
X064000Y010000D03*
X066000Y007250D03*
X065500Y006750D03*
X067500Y007500D03*
X069000Y006500D03*
X070250Y006500D03*
X069250Y009000D03*
X070750Y010000D03*
X072000Y011250D03*
X070250Y012000D03*
X068500Y013000D03*
X069000Y010500D03*
X070500Y016000D03*
X070000Y017000D03*
X070750Y042500D03*
D18*
X068000Y041500D02*
X067500Y041000D01*
X067500Y040000D01*
X065500Y040000D01*
X062000Y036500D01*
X061500Y037000D02*
X062000Y037500D01*
X061500Y037000D02*
X061500Y035250D01*
X060000Y033750D01*
X060000Y017500D01*
X059500Y016000D02*
X059500Y022000D01*
X059000Y020000D02*
X059000Y013500D01*
X060000Y012500D01*
X060500Y012000D02*
X060500Y028000D01*
X061000Y028500D01*
X062500Y029000D02*
X062500Y018000D01*
X062000Y017500D01*
X063000Y017500D02*
X063000Y017750D01*
X063500Y018250D01*
X063500Y021000D01*
X063500Y028750D01*
X065250Y030500D01*
X065250Y032250D01*
X062000Y035500D01*
X059000Y035500D02*
X057500Y035500D01*
X057500Y036000D01*
X057000Y036500D01*
X059500Y038500D02*
X059500Y033000D01*
X057000Y030500D01*
X064500Y028000D02*
X065000Y028500D01*
X064500Y028000D02*
X064500Y018000D01*
X065000Y017500D01*
X065500Y017250D02*
X065500Y019750D01*
X066250Y020500D01*
X066250Y027750D01*
X066500Y028000D01*
X069500Y028000D01*
X069500Y024000D01*
X070000Y023500D01*
X069750Y023000D02*
X071000Y023000D01*
X071500Y023000D01*
X071500Y010750D01*
X070750Y010000D01*
X069250Y010750D02*
X069250Y015000D01*
X069500Y015250D01*
X069500Y022000D01*
X070000Y022500D01*
X069750Y023000D02*
X069000Y022250D01*
X069000Y019500D01*
X067000Y017500D01*
X066500Y017000D02*
X066500Y019750D01*
X066750Y020000D01*
X066750Y027500D01*
X066000Y030500D02*
X065250Y030500D01*
X066000Y034500D02*
X065500Y035000D01*
X065500Y035750D01*
X067250Y037500D01*
X068000Y037500D01*
X071000Y035500D02*
X071750Y034750D01*
X073000Y034750D01*
X073000Y036500D01*
X060500Y039500D02*
X059500Y038500D01*
X046500Y040500D02*
X046500Y026750D01*
X045500Y025750D01*
X045500Y023250D01*
X045250Y023000D01*
X038500Y023000D01*
X038500Y023750D01*
X038000Y024250D01*
X038000Y024500D01*
X037750Y025000D02*
X038500Y025000D01*
X038500Y024250D01*
X038750Y024000D01*
X043000Y024000D01*
X043000Y024500D01*
X042000Y024500D02*
X041500Y025000D01*
X041500Y031250D01*
X041000Y032000D02*
X041000Y024500D01*
X040500Y025000D02*
X040500Y032250D01*
X042250Y034000D01*
X044000Y034000D01*
X044000Y038000D01*
X045500Y039500D01*
X046000Y039000D01*
X046000Y029000D01*
X045500Y028500D01*
X045000Y028000D02*
X045000Y031000D01*
X045500Y031500D01*
X043000Y035750D02*
X039750Y032500D01*
X039750Y025250D01*
X039000Y024500D01*
X040000Y024500D02*
X040500Y025000D01*
X037750Y025000D02*
X037500Y024750D01*
X037500Y023000D01*
X032750Y023000D01*
X032500Y023250D01*
X032500Y028500D01*
X030500Y030500D01*
X030000Y029000D02*
X030500Y028500D01*
X030000Y029000D02*
X030000Y041000D01*
X027500Y043500D01*
X034000Y043500D02*
X034000Y025500D01*
X033000Y024500D01*
X034000Y024500D02*
X034000Y024000D01*
X035250Y024000D01*
X035500Y024250D01*
X035500Y042500D01*
X042500Y042500D01*
X043000Y042750D02*
X043000Y042000D01*
X042500Y041500D01*
X042500Y040500D02*
X038000Y036000D01*
X038000Y028750D01*
X036000Y026750D01*
X036000Y024500D01*
X035000Y024500D02*
X035000Y043000D01*
X042750Y043000D01*
X043000Y042750D01*
X042500Y043500D02*
X034000Y043500D01*
X039250Y035250D02*
X042500Y038500D01*
X045000Y041000D01*
X045000Y042000D01*
X045500Y042500D01*
X045500Y041500D02*
X046500Y040500D01*
X045500Y040500D02*
X043000Y038000D01*
X043000Y035750D01*
X039250Y035250D02*
X039250Y029500D01*
X037000Y027250D01*
X037000Y024500D01*
X034750Y020000D02*
X031500Y023250D01*
X031500Y027500D01*
X029250Y027500D01*
X029000Y027250D01*
X029000Y022000D01*
X027500Y020500D01*
X030000Y018250D02*
X030000Y010000D01*
X031500Y008500D02*
X031500Y011500D01*
X030500Y012500D02*
X032000Y014000D01*
X032000Y016500D01*
X031500Y016500D02*
X031500Y017250D01*
X033250Y019000D01*
X034000Y019000D01*
X034000Y015250D01*
X034500Y014750D01*
X034500Y014500D01*
X034000Y014750D02*
X033500Y015250D01*
X033500Y015500D01*
X033500Y018500D01*
X034750Y020000D02*
X039500Y020000D01*
X039500Y015500D01*
X039000Y016500D02*
X036000Y019500D01*
X031000Y019500D01*
X031000Y019250D01*
X030000Y018250D01*
X031500Y016500D02*
X030500Y015500D01*
X031500Y015500D02*
X030500Y014500D01*
X032000Y013000D02*
X032500Y013500D01*
X033000Y013250D02*
X032500Y012750D01*
X032500Y010500D01*
X033000Y011250D02*
X033500Y011750D01*
X033500Y013500D01*
X033000Y013250D02*
X033000Y015000D01*
X032500Y015500D01*
X034000Y014750D02*
X034000Y011750D01*
X033500Y011250D01*
X033500Y010500D01*
X034500Y010500D02*
X034500Y010750D01*
X035000Y011250D01*
X035000Y015000D01*
X034500Y015500D01*
X035750Y016750D01*
X035750Y019000D01*
X037250Y016250D02*
X038500Y016250D01*
X038500Y010750D01*
X039250Y010000D01*
X040000Y010000D01*
X040000Y009000D01*
X040500Y008500D02*
X040500Y011500D01*
X039500Y012500D01*
X039000Y012000D02*
X039000Y016500D01*
X037500Y015500D02*
X038000Y015000D01*
X038000Y011000D01*
X037750Y010750D01*
X039000Y009500D01*
X039000Y009000D01*
X040250Y007750D01*
X040250Y006500D01*
X039000Y006500D02*
X039000Y008500D01*
X038500Y009000D01*
X038500Y009250D01*
X038000Y009750D01*
X038000Y010000D01*
X037000Y010000D01*
X037000Y009000D01*
X037500Y008500D01*
X038000Y008000D02*
X037750Y007750D01*
X037750Y006500D01*
X036500Y006500D02*
X036500Y008500D01*
X036000Y009000D01*
X036000Y010750D01*
X036500Y011250D01*
X036500Y013500D01*
X037500Y013500D02*
X037500Y011250D01*
X037000Y010750D01*
X037000Y010000D01*
X036500Y010500D02*
X036500Y010750D01*
X037000Y011250D01*
X037000Y015000D01*
X036500Y015500D01*
X037250Y016250D01*
X036000Y015000D02*
X035500Y015500D01*
X036000Y015000D02*
X036000Y011250D01*
X035500Y010750D01*
X035500Y010500D01*
X035000Y010750D02*
X035500Y011250D01*
X035500Y013500D01*
X034500Y013500D02*
X034500Y011750D01*
X034000Y011250D01*
X034000Y009250D01*
X034500Y008750D01*
X034500Y008500D01*
X034000Y008750D02*
X033500Y009250D01*
X033500Y009500D01*
X033000Y009000D02*
X033000Y011250D01*
X032000Y013000D02*
X032000Y009000D01*
X032500Y008500D01*
X032500Y007000D01*
X033250Y006250D01*
X033250Y003750D01*
X033375Y003625D01*
X035875Y003625D02*
X036000Y003750D01*
X036000Y008000D01*
X035500Y008500D02*
X035000Y009000D01*
X035000Y010750D01*
X037500Y010500D02*
X037750Y010750D01*
X039000Y012000D02*
X039500Y011500D01*
X038000Y009000D02*
X038500Y008500D01*
X038500Y003750D01*
X038375Y003625D01*
X040875Y003625D02*
X041000Y003750D01*
X041000Y017500D01*
X040000Y018500D01*
X040500Y019000D02*
X044500Y015000D01*
X044500Y003750D01*
X044625Y003625D01*
X043375Y003625D02*
X043250Y003750D01*
X043250Y012750D01*
X043000Y013000D01*
X034750Y007500D02*
X034000Y008250D01*
X034000Y008750D01*
X033500Y008500D02*
X033000Y009000D01*
X033000Y008000D02*
X034000Y007000D01*
X034000Y006500D01*
X021500Y006500D02*
X021500Y014500D01*
X020000Y016000D01*
X022000Y015500D02*
X022000Y022000D01*
X020500Y022000D01*
X020000Y022500D01*
X018750Y021250D02*
X018750Y025000D01*
X019750Y026000D01*
X020500Y026000D01*
X020500Y025000D01*
X021000Y024500D01*
X018750Y021250D02*
X016000Y018500D01*
X015000Y018500D02*
X015000Y019500D01*
X014000Y018500D02*
X013500Y019000D01*
X013500Y024500D01*
X013000Y023500D02*
X012500Y023000D01*
X012500Y019000D01*
X012000Y018500D01*
X011500Y018000D02*
X011500Y025250D01*
X013500Y027250D01*
X013500Y028000D01*
X014000Y028500D01*
X014500Y028000D02*
X015000Y028500D01*
X014500Y028000D02*
X014500Y018000D01*
X015000Y017500D01*
X015500Y016500D02*
X015500Y023000D01*
X016000Y023500D01*
X020500Y020000D02*
X021000Y020500D01*
X020500Y020000D02*
X020500Y019250D01*
X019750Y018500D01*
X015500Y016500D02*
X011000Y016500D01*
X011000Y015500D02*
X010500Y015000D01*
X010500Y014000D01*
X010000Y013500D01*
X010250Y013000D02*
X009500Y013000D01*
X009500Y027000D01*
X011000Y028500D01*
X011000Y023500D02*
X010500Y023000D01*
X010500Y019000D01*
X011000Y018500D01*
X011500Y018000D02*
X012000Y017500D01*
X016000Y015500D02*
X016500Y015000D01*
X016500Y014250D01*
X016750Y014000D01*
X019500Y014000D01*
X019500Y003750D01*
X019625Y003625D01*
X018375Y003625D02*
X018250Y003750D01*
X018250Y013000D01*
X016500Y013000D01*
X016000Y013500D01*
X017000Y013500D02*
X019000Y013500D01*
X019000Y006500D01*
X017750Y006500D02*
X017750Y012500D01*
X017000Y012500D02*
X016500Y012000D01*
X016500Y006750D01*
X016000Y006250D01*
X016000Y003750D01*
X015875Y003625D01*
X013500Y003750D02*
X013375Y003625D01*
X013500Y003750D02*
X013500Y006250D01*
X014000Y006750D01*
X014000Y010500D01*
X014500Y011000D01*
X014000Y010500D02*
X013500Y011000D01*
X013500Y012000D01*
X014000Y012500D01*
X013000Y012500D02*
X012500Y013000D01*
X011500Y013000D01*
X011500Y007500D01*
X012000Y007250D02*
X011000Y006250D01*
X011000Y003750D01*
X010875Y003625D01*
X008500Y003750D02*
X008375Y003625D01*
X008500Y003750D02*
X008500Y011000D01*
X009000Y011500D01*
X009000Y021250D01*
X008250Y013500D02*
X002250Y007500D01*
X002250Y003750D01*
X002125Y003625D01*
X006500Y006500D02*
X006500Y010250D01*
X009000Y010500D02*
X009000Y006500D01*
X012000Y007250D02*
X012000Y011500D01*
X011000Y011500D02*
X010500Y012000D01*
X010500Y012750D01*
X010250Y013000D01*
X010000Y012500D02*
X009000Y011500D01*
X013000Y011500D02*
X013000Y010250D01*
X013500Y009750D01*
X013500Y007250D01*
X012750Y006500D01*
X015500Y006750D02*
X015500Y012000D01*
X015000Y012500D01*
X016000Y011500D02*
X016000Y007250D01*
X036500Y029500D02*
X037500Y030500D01*
X057500Y017000D02*
X057500Y007000D01*
X058250Y006250D01*
X058250Y003750D01*
X058375Y003625D01*
X060875Y003625D02*
X061000Y003750D01*
X061000Y007000D01*
X062500Y008500D01*
X063500Y008000D02*
X063500Y011000D01*
X063000Y011500D01*
X064000Y012500D02*
X064000Y015750D01*
X065500Y017250D01*
X066000Y016500D02*
X066500Y017000D01*
X067000Y015500D02*
X067500Y015000D01*
X067500Y007500D01*
X066500Y006750D02*
X066000Y006250D01*
X066000Y003750D01*
X065875Y003625D01*
X063500Y003750D02*
X063375Y003625D01*
X063500Y003750D02*
X063500Y006250D01*
X064000Y006750D01*
X064000Y010000D01*
X066000Y011500D02*
X066000Y007250D01*
X065500Y006750D02*
X065500Y012000D01*
X065000Y012500D01*
X066500Y012000D02*
X066500Y006750D01*
X069000Y006500D02*
X069000Y008750D01*
X069250Y009000D01*
X069000Y010500D02*
X069250Y010750D01*
X070250Y012000D02*
X070250Y006500D01*
X069750Y003750D02*
X069625Y003625D01*
X069750Y003750D02*
X069750Y012250D01*
X070000Y012500D01*
X070000Y015500D01*
X070500Y016000D01*
X070000Y017000D02*
X070500Y017500D01*
X070500Y020000D01*
X071000Y020500D01*
X071000Y023000D02*
X071000Y023500D01*
X072000Y023500D02*
X072000Y011250D01*
X068500Y013000D02*
X068500Y003750D01*
X068375Y003625D01*
X062500Y007500D02*
X061500Y006500D01*
X060250Y006500D02*
X060250Y007000D01*
X061500Y008250D01*
X059000Y008500D02*
X059000Y006500D01*
X056500Y006500D02*
X056500Y009750D01*
X059000Y008500D02*
X061500Y011000D01*
X061500Y012000D01*
X061000Y012500D01*
X060500Y012000D02*
X061000Y011500D01*
X060000Y014500D02*
X059500Y015000D01*
X059500Y016000D01*
X061000Y015500D02*
X063500Y015500D01*
X063500Y017750D01*
X064000Y018250D01*
X064000Y018500D01*
X064000Y022500D01*
X071000Y024500D02*
X072000Y023500D01*
X067000Y012500D02*
X066500Y012000D01*
M02*
