G75*
%MOIN*%
%OFA0B0*%
%FSLAX24Y24*%
%IPPOS*%
%LPD*%
%AMOC8*
5,1,8,0,0,1.08239X$1,22.5*
%
%ADD10C,0.0000*%
%ADD11C,0.0060*%
%ADD12C,0.0040*%
%ADD13C,0.0050*%
%ADD14C,0.0020*%
%ADD15C,0.0100*%
%ADD16C,0.0120*%
%ADD17C,0.0070*%
%ADD18C,0.0080*%
%ADD19C,0.0039*%
%ADD20C,0.0079*%
D10*
X000180Y000180D02*
X000180Y050180D01*
X070180Y050180D01*
X070172Y000180D01*
X000180Y000180D01*
X001399Y002180D02*
X001401Y002236D01*
X001407Y002291D01*
X001417Y002346D01*
X001431Y002400D01*
X001448Y002453D01*
X001470Y002504D01*
X001495Y002554D01*
X001523Y002602D01*
X001555Y002648D01*
X001590Y002691D01*
X001628Y002732D01*
X001669Y002770D01*
X001712Y002805D01*
X001758Y002837D01*
X001806Y002865D01*
X001856Y002890D01*
X001907Y002912D01*
X001960Y002929D01*
X002014Y002943D01*
X002069Y002953D01*
X002124Y002959D01*
X002180Y002961D01*
X002236Y002959D01*
X002291Y002953D01*
X002346Y002943D01*
X002400Y002929D01*
X002453Y002912D01*
X002504Y002890D01*
X002554Y002865D01*
X002602Y002837D01*
X002648Y002805D01*
X002691Y002770D01*
X002732Y002732D01*
X002770Y002691D01*
X002805Y002648D01*
X002837Y002602D01*
X002865Y002554D01*
X002890Y002504D01*
X002912Y002453D01*
X002929Y002400D01*
X002943Y002346D01*
X002953Y002291D01*
X002959Y002236D01*
X002961Y002180D01*
X002959Y002124D01*
X002953Y002069D01*
X002943Y002014D01*
X002929Y001960D01*
X002912Y001907D01*
X002890Y001856D01*
X002865Y001806D01*
X002837Y001758D01*
X002805Y001712D01*
X002770Y001669D01*
X002732Y001628D01*
X002691Y001590D01*
X002648Y001555D01*
X002602Y001523D01*
X002554Y001495D01*
X002504Y001470D01*
X002453Y001448D01*
X002400Y001431D01*
X002346Y001417D01*
X002291Y001407D01*
X002236Y001401D01*
X002180Y001399D01*
X002124Y001401D01*
X002069Y001407D01*
X002014Y001417D01*
X001960Y001431D01*
X001907Y001448D01*
X001856Y001470D01*
X001806Y001495D01*
X001758Y001523D01*
X001712Y001555D01*
X001669Y001590D01*
X001628Y001628D01*
X001590Y001669D01*
X001555Y001712D01*
X001523Y001758D01*
X001495Y001806D01*
X001470Y001856D01*
X001448Y001907D01*
X001431Y001960D01*
X001417Y002014D01*
X001407Y002069D01*
X001401Y002124D01*
X001399Y002180D01*
X001399Y048180D02*
X001401Y048236D01*
X001407Y048291D01*
X001417Y048346D01*
X001431Y048400D01*
X001448Y048453D01*
X001470Y048504D01*
X001495Y048554D01*
X001523Y048602D01*
X001555Y048648D01*
X001590Y048691D01*
X001628Y048732D01*
X001669Y048770D01*
X001712Y048805D01*
X001758Y048837D01*
X001806Y048865D01*
X001856Y048890D01*
X001907Y048912D01*
X001960Y048929D01*
X002014Y048943D01*
X002069Y048953D01*
X002124Y048959D01*
X002180Y048961D01*
X002236Y048959D01*
X002291Y048953D01*
X002346Y048943D01*
X002400Y048929D01*
X002453Y048912D01*
X002504Y048890D01*
X002554Y048865D01*
X002602Y048837D01*
X002648Y048805D01*
X002691Y048770D01*
X002732Y048732D01*
X002770Y048691D01*
X002805Y048648D01*
X002837Y048602D01*
X002865Y048554D01*
X002890Y048504D01*
X002912Y048453D01*
X002929Y048400D01*
X002943Y048346D01*
X002953Y048291D01*
X002959Y048236D01*
X002961Y048180D01*
X002959Y048124D01*
X002953Y048069D01*
X002943Y048014D01*
X002929Y047960D01*
X002912Y047907D01*
X002890Y047856D01*
X002865Y047806D01*
X002837Y047758D01*
X002805Y047712D01*
X002770Y047669D01*
X002732Y047628D01*
X002691Y047590D01*
X002648Y047555D01*
X002602Y047523D01*
X002554Y047495D01*
X002504Y047470D01*
X002453Y047448D01*
X002400Y047431D01*
X002346Y047417D01*
X002291Y047407D01*
X002236Y047401D01*
X002180Y047399D01*
X002124Y047401D01*
X002069Y047407D01*
X002014Y047417D01*
X001960Y047431D01*
X001907Y047448D01*
X001856Y047470D01*
X001806Y047495D01*
X001758Y047523D01*
X001712Y047555D01*
X001669Y047590D01*
X001628Y047628D01*
X001590Y047669D01*
X001555Y047712D01*
X001523Y047758D01*
X001495Y047806D01*
X001470Y047856D01*
X001448Y047907D01*
X001431Y047960D01*
X001417Y048014D01*
X001407Y048069D01*
X001401Y048124D01*
X001399Y048180D01*
X067399Y048180D02*
X067401Y048236D01*
X067407Y048291D01*
X067417Y048346D01*
X067431Y048400D01*
X067448Y048453D01*
X067470Y048504D01*
X067495Y048554D01*
X067523Y048602D01*
X067555Y048648D01*
X067590Y048691D01*
X067628Y048732D01*
X067669Y048770D01*
X067712Y048805D01*
X067758Y048837D01*
X067806Y048865D01*
X067856Y048890D01*
X067907Y048912D01*
X067960Y048929D01*
X068014Y048943D01*
X068069Y048953D01*
X068124Y048959D01*
X068180Y048961D01*
X068236Y048959D01*
X068291Y048953D01*
X068346Y048943D01*
X068400Y048929D01*
X068453Y048912D01*
X068504Y048890D01*
X068554Y048865D01*
X068602Y048837D01*
X068648Y048805D01*
X068691Y048770D01*
X068732Y048732D01*
X068770Y048691D01*
X068805Y048648D01*
X068837Y048602D01*
X068865Y048554D01*
X068890Y048504D01*
X068912Y048453D01*
X068929Y048400D01*
X068943Y048346D01*
X068953Y048291D01*
X068959Y048236D01*
X068961Y048180D01*
X068959Y048124D01*
X068953Y048069D01*
X068943Y048014D01*
X068929Y047960D01*
X068912Y047907D01*
X068890Y047856D01*
X068865Y047806D01*
X068837Y047758D01*
X068805Y047712D01*
X068770Y047669D01*
X068732Y047628D01*
X068691Y047590D01*
X068648Y047555D01*
X068602Y047523D01*
X068554Y047495D01*
X068504Y047470D01*
X068453Y047448D01*
X068400Y047431D01*
X068346Y047417D01*
X068291Y047407D01*
X068236Y047401D01*
X068180Y047399D01*
X068124Y047401D01*
X068069Y047407D01*
X068014Y047417D01*
X067960Y047431D01*
X067907Y047448D01*
X067856Y047470D01*
X067806Y047495D01*
X067758Y047523D01*
X067712Y047555D01*
X067669Y047590D01*
X067628Y047628D01*
X067590Y047669D01*
X067555Y047712D01*
X067523Y047758D01*
X067495Y047806D01*
X067470Y047856D01*
X067448Y047907D01*
X067431Y047960D01*
X067417Y048014D01*
X067407Y048069D01*
X067401Y048124D01*
X067399Y048180D01*
X067399Y002180D02*
X067401Y002236D01*
X067407Y002291D01*
X067417Y002346D01*
X067431Y002400D01*
X067448Y002453D01*
X067470Y002504D01*
X067495Y002554D01*
X067523Y002602D01*
X067555Y002648D01*
X067590Y002691D01*
X067628Y002732D01*
X067669Y002770D01*
X067712Y002805D01*
X067758Y002837D01*
X067806Y002865D01*
X067856Y002890D01*
X067907Y002912D01*
X067960Y002929D01*
X068014Y002943D01*
X068069Y002953D01*
X068124Y002959D01*
X068180Y002961D01*
X068236Y002959D01*
X068291Y002953D01*
X068346Y002943D01*
X068400Y002929D01*
X068453Y002912D01*
X068504Y002890D01*
X068554Y002865D01*
X068602Y002837D01*
X068648Y002805D01*
X068691Y002770D01*
X068732Y002732D01*
X068770Y002691D01*
X068805Y002648D01*
X068837Y002602D01*
X068865Y002554D01*
X068890Y002504D01*
X068912Y002453D01*
X068929Y002400D01*
X068943Y002346D01*
X068953Y002291D01*
X068959Y002236D01*
X068961Y002180D01*
X068959Y002124D01*
X068953Y002069D01*
X068943Y002014D01*
X068929Y001960D01*
X068912Y001907D01*
X068890Y001856D01*
X068865Y001806D01*
X068837Y001758D01*
X068805Y001712D01*
X068770Y001669D01*
X068732Y001628D01*
X068691Y001590D01*
X068648Y001555D01*
X068602Y001523D01*
X068554Y001495D01*
X068504Y001470D01*
X068453Y001448D01*
X068400Y001431D01*
X068346Y001417D01*
X068291Y001407D01*
X068236Y001401D01*
X068180Y001399D01*
X068124Y001401D01*
X068069Y001407D01*
X068014Y001417D01*
X067960Y001431D01*
X067907Y001448D01*
X067856Y001470D01*
X067806Y001495D01*
X067758Y001523D01*
X067712Y001555D01*
X067669Y001590D01*
X067628Y001628D01*
X067590Y001669D01*
X067555Y001712D01*
X067523Y001758D01*
X067495Y001806D01*
X067470Y001856D01*
X067448Y001907D01*
X067431Y001960D01*
X067417Y002014D01*
X067407Y002069D01*
X067401Y002124D01*
X067399Y002180D01*
D11*
X060680Y001930D02*
X060430Y001680D01*
X059930Y001680D01*
X059680Y001930D01*
X059430Y001680D01*
X058930Y001680D01*
X058680Y001930D01*
X058430Y001680D01*
X057930Y001680D01*
X057680Y001930D01*
X057430Y001680D01*
X056930Y001680D01*
X056680Y001930D01*
X056430Y001680D01*
X055930Y001680D01*
X055680Y001930D01*
X055430Y001680D01*
X054930Y001680D01*
X054680Y001930D01*
X054430Y001680D01*
X053930Y001680D01*
X053680Y001930D01*
X053430Y001680D01*
X052930Y001680D01*
X052680Y001930D01*
X052430Y001680D01*
X051930Y001680D01*
X051680Y001930D01*
X051430Y001680D01*
X050930Y001680D01*
X050680Y001930D01*
X050680Y003430D01*
X050930Y003680D01*
X051430Y003680D01*
X051680Y003430D01*
X051930Y003680D01*
X052430Y003680D01*
X052680Y003430D01*
X052930Y003680D01*
X053430Y003680D01*
X053680Y003430D01*
X053930Y003680D01*
X054430Y003680D01*
X054680Y003430D01*
X054930Y003680D01*
X055430Y003680D01*
X055680Y003430D01*
X055930Y003680D01*
X056430Y003680D01*
X056680Y003430D01*
X056930Y003680D01*
X057430Y003680D01*
X057680Y003430D01*
X057930Y003680D01*
X058430Y003680D01*
X058680Y003430D01*
X058930Y003680D01*
X059430Y003680D01*
X059680Y003430D01*
X059930Y003680D01*
X060430Y003680D01*
X060680Y003430D01*
X060680Y001930D01*
X060430Y005680D02*
X059930Y005680D01*
X059680Y005930D01*
X059430Y005680D01*
X058930Y005680D01*
X058680Y005930D01*
X058430Y005680D01*
X057930Y005680D01*
X057680Y005930D01*
X057430Y005680D01*
X056930Y005680D01*
X056680Y005930D01*
X056430Y005680D01*
X055930Y005680D01*
X055680Y005930D01*
X055430Y005680D01*
X054930Y005680D01*
X054680Y005930D01*
X054430Y005680D01*
X053930Y005680D01*
X053680Y005930D01*
X053430Y005680D01*
X052930Y005680D01*
X052680Y005930D01*
X052430Y005680D01*
X051930Y005680D01*
X051680Y005930D01*
X051430Y005680D01*
X050930Y005680D01*
X050680Y005930D01*
X050680Y007430D01*
X050930Y007680D01*
X051430Y007680D01*
X051680Y007430D01*
X051930Y007680D01*
X052430Y007680D01*
X052680Y007430D01*
X052930Y007680D01*
X053430Y007680D01*
X053680Y007430D01*
X053930Y007680D01*
X054430Y007680D01*
X054680Y007430D01*
X054930Y007680D01*
X055430Y007680D01*
X055680Y007430D01*
X055930Y007680D01*
X056430Y007680D01*
X056680Y007430D01*
X056930Y007680D01*
X057430Y007680D01*
X057680Y007430D01*
X057930Y007680D01*
X058430Y007680D01*
X058680Y007430D01*
X058930Y007680D01*
X059430Y007680D01*
X059680Y007430D01*
X059930Y007680D01*
X060430Y007680D01*
X060680Y007430D01*
X060680Y005930D01*
X060430Y005680D01*
X060430Y009680D02*
X059930Y009680D01*
X059680Y009930D01*
X059430Y009680D01*
X058930Y009680D01*
X058680Y009930D01*
X058430Y009680D01*
X057930Y009680D01*
X057680Y009930D01*
X057430Y009680D01*
X056930Y009680D01*
X056680Y009930D01*
X056430Y009680D01*
X055930Y009680D01*
X055680Y009930D01*
X055430Y009680D01*
X054930Y009680D01*
X054680Y009930D01*
X054430Y009680D01*
X053930Y009680D01*
X053680Y009930D01*
X053430Y009680D01*
X052930Y009680D01*
X052680Y009930D01*
X052430Y009680D01*
X051930Y009680D01*
X051680Y009930D01*
X051430Y009680D01*
X050930Y009680D01*
X050680Y009930D01*
X050680Y011430D01*
X050930Y011680D01*
X051430Y011680D01*
X051680Y011430D01*
X051930Y011680D01*
X052430Y011680D01*
X052680Y011430D01*
X052930Y011680D01*
X053430Y011680D01*
X053680Y011430D01*
X053930Y011680D01*
X054430Y011680D01*
X054680Y011430D01*
X054930Y011680D01*
X055430Y011680D01*
X055680Y011430D01*
X055930Y011680D01*
X056430Y011680D01*
X056680Y011430D01*
X056930Y011680D01*
X057430Y011680D01*
X057680Y011430D01*
X057930Y011680D01*
X058430Y011680D01*
X058680Y011430D01*
X058930Y011680D01*
X059430Y011680D01*
X059680Y011430D01*
X059930Y011680D01*
X060430Y011680D01*
X060680Y011430D01*
X060680Y009930D01*
X060430Y009680D01*
X060430Y013680D02*
X059930Y013680D01*
X059680Y013930D01*
X059430Y013680D01*
X058930Y013680D01*
X058680Y013930D01*
X058430Y013680D01*
X057930Y013680D01*
X057680Y013930D01*
X057430Y013680D01*
X056930Y013680D01*
X056680Y013930D01*
X056430Y013680D01*
X055930Y013680D01*
X055680Y013930D01*
X055430Y013680D01*
X054930Y013680D01*
X054680Y013930D01*
X054430Y013680D01*
X053930Y013680D01*
X053680Y013930D01*
X053430Y013680D01*
X052930Y013680D01*
X052680Y013930D01*
X052430Y013680D01*
X051930Y013680D01*
X051680Y013930D01*
X051430Y013680D01*
X050930Y013680D01*
X050680Y013930D01*
X050680Y015430D01*
X050930Y015680D01*
X051430Y015680D01*
X051680Y015430D01*
X051930Y015680D01*
X052430Y015680D01*
X052680Y015430D01*
X052930Y015680D01*
X053430Y015680D01*
X053680Y015430D01*
X053930Y015680D01*
X054430Y015680D01*
X054680Y015430D01*
X054930Y015680D01*
X055430Y015680D01*
X055680Y015430D01*
X055930Y015680D01*
X056430Y015680D01*
X056680Y015430D01*
X056930Y015680D01*
X057430Y015680D01*
X057680Y015430D01*
X057930Y015680D01*
X058430Y015680D01*
X058680Y015430D01*
X058930Y015680D01*
X059430Y015680D01*
X059680Y015430D01*
X059930Y015680D01*
X060430Y015680D01*
X060680Y015430D01*
X060680Y013930D01*
X060430Y013680D01*
X048680Y020930D02*
X048430Y020680D01*
X047930Y020680D01*
X047680Y020930D01*
X047430Y020680D01*
X046930Y020680D01*
X046680Y020930D01*
X046430Y020680D01*
X045930Y020680D01*
X045680Y020930D01*
X045430Y020680D01*
X044930Y020680D01*
X044680Y020930D01*
X044430Y020680D01*
X043930Y020680D01*
X043680Y020930D01*
X043430Y020680D01*
X042930Y020680D01*
X042680Y020930D01*
X042430Y020680D01*
X041930Y020680D01*
X041680Y020930D01*
X041430Y020680D01*
X040930Y020680D01*
X040680Y020930D01*
X040680Y022430D01*
X040930Y022680D01*
X041430Y022680D01*
X041680Y022430D01*
X041930Y022680D01*
X042430Y022680D01*
X042680Y022430D01*
X042930Y022680D01*
X043430Y022680D01*
X043680Y022430D01*
X043930Y022680D01*
X044430Y022680D01*
X044680Y022430D01*
X044930Y022680D01*
X045430Y022680D01*
X045680Y022430D01*
X045930Y022680D01*
X046430Y022680D01*
X046680Y022430D01*
X046930Y022680D01*
X047430Y022680D01*
X047680Y022430D01*
X047930Y022680D01*
X048430Y022680D01*
X048680Y022430D01*
X048680Y020930D01*
X048280Y020351D02*
X048387Y020244D01*
X047960Y019817D01*
X048067Y019710D01*
X048280Y019710D01*
X048387Y019817D01*
X048387Y020244D01*
X048280Y020351D02*
X048067Y020351D01*
X047960Y020244D01*
X047960Y019817D01*
X047387Y019710D02*
X046960Y019710D01*
X047174Y019710D02*
X047174Y020351D01*
X046960Y020137D01*
X046387Y020137D02*
X046387Y020244D01*
X046280Y020351D01*
X046067Y020351D01*
X045960Y020244D01*
X046387Y020137D02*
X045960Y019710D01*
X046387Y019710D01*
X045387Y019817D02*
X045280Y019710D01*
X045067Y019710D01*
X044960Y019817D01*
X045174Y020030D02*
X045280Y020030D01*
X045387Y019924D01*
X045387Y019817D01*
X045280Y020030D02*
X045387Y020137D01*
X045387Y020244D01*
X045280Y020351D01*
X045067Y020351D01*
X044960Y020244D01*
X044387Y020030D02*
X043960Y020030D01*
X044280Y020351D01*
X044280Y019710D01*
X043387Y019817D02*
X043280Y019710D01*
X043067Y019710D01*
X042960Y019817D01*
X042960Y020030D02*
X043174Y020137D01*
X043280Y020137D01*
X043387Y020030D01*
X043387Y019817D01*
X042960Y020030D02*
X042960Y020351D01*
X043387Y020351D01*
X042387Y020351D02*
X042174Y020244D01*
X041960Y020030D01*
X042280Y020030D01*
X042387Y019924D01*
X042387Y019817D01*
X042280Y019710D01*
X042067Y019710D01*
X041960Y019817D01*
X041960Y020030D01*
X041387Y020244D02*
X040960Y019817D01*
X040960Y019710D01*
X040960Y020351D02*
X041387Y020351D01*
X041387Y020244D01*
X039430Y015680D02*
X038930Y015680D01*
X038680Y015430D01*
X038430Y015680D01*
X037930Y015680D01*
X037680Y015430D01*
X037430Y015680D01*
X036930Y015680D01*
X036680Y015430D01*
X036430Y015680D01*
X035930Y015680D01*
X035680Y015430D01*
X035430Y015680D01*
X034930Y015680D01*
X034680Y015430D01*
X034430Y015680D01*
X033930Y015680D01*
X033680Y015430D01*
X033430Y015680D01*
X032930Y015680D01*
X032680Y015430D01*
X032430Y015680D01*
X031930Y015680D01*
X031680Y015430D01*
X031430Y015680D01*
X030930Y015680D01*
X030680Y015430D01*
X030430Y015680D01*
X029930Y015680D01*
X029680Y015430D01*
X029680Y013930D01*
X029930Y013680D01*
X030430Y013680D01*
X030680Y013930D01*
X030930Y013680D01*
X031430Y013680D01*
X031680Y013930D01*
X031930Y013680D01*
X032430Y013680D01*
X032680Y013930D01*
X032930Y013680D01*
X033430Y013680D01*
X033680Y013930D01*
X033930Y013680D01*
X034430Y013680D01*
X034680Y013930D01*
X034930Y013680D01*
X035430Y013680D01*
X035680Y013930D01*
X035930Y013680D01*
X036430Y013680D01*
X036680Y013930D01*
X036930Y013680D01*
X037430Y013680D01*
X037680Y013930D01*
X037930Y013680D01*
X038430Y013680D01*
X038680Y013930D01*
X038930Y013680D01*
X039430Y013680D01*
X039680Y013930D01*
X039680Y015430D01*
X039430Y015680D01*
X039430Y011680D02*
X038930Y011680D01*
X038680Y011430D01*
X038430Y011680D01*
X037930Y011680D01*
X037680Y011430D01*
X037430Y011680D01*
X036930Y011680D01*
X036680Y011430D01*
X036430Y011680D01*
X035930Y011680D01*
X035680Y011430D01*
X035430Y011680D01*
X034930Y011680D01*
X034680Y011430D01*
X034430Y011680D01*
X033930Y011680D01*
X033680Y011430D01*
X033430Y011680D01*
X032930Y011680D01*
X032680Y011430D01*
X032430Y011680D01*
X031930Y011680D01*
X031680Y011430D01*
X031430Y011680D01*
X030930Y011680D01*
X030680Y011430D01*
X030430Y011680D01*
X029930Y011680D01*
X029680Y011430D01*
X029680Y009930D01*
X029930Y009680D01*
X030430Y009680D01*
X030680Y009930D01*
X030930Y009680D01*
X031430Y009680D01*
X031680Y009930D01*
X031930Y009680D01*
X032430Y009680D01*
X032680Y009930D01*
X032930Y009680D01*
X033430Y009680D01*
X033680Y009930D01*
X033930Y009680D01*
X034430Y009680D01*
X034680Y009930D01*
X034930Y009680D01*
X035430Y009680D01*
X035680Y009930D01*
X035930Y009680D01*
X036430Y009680D01*
X036680Y009930D01*
X036930Y009680D01*
X037430Y009680D01*
X037680Y009930D01*
X037930Y009680D01*
X038430Y009680D01*
X038680Y009930D01*
X038930Y009680D01*
X039430Y009680D01*
X039680Y009930D01*
X039680Y011430D01*
X039430Y011680D01*
X039430Y003680D02*
X038930Y003680D01*
X038680Y003430D01*
X038430Y003680D01*
X037930Y003680D01*
X037680Y003430D01*
X037430Y003680D01*
X036930Y003680D01*
X036680Y003430D01*
X036430Y003680D01*
X035930Y003680D01*
X035680Y003430D01*
X035430Y003680D01*
X034930Y003680D01*
X034680Y003430D01*
X034430Y003680D01*
X033930Y003680D01*
X033680Y003430D01*
X033430Y003680D01*
X032930Y003680D01*
X032680Y003430D01*
X032430Y003680D01*
X031930Y003680D01*
X031680Y003430D01*
X031430Y003680D01*
X030930Y003680D01*
X030680Y003430D01*
X030430Y003680D01*
X029930Y003680D01*
X029680Y003430D01*
X029680Y001930D01*
X029930Y001680D01*
X030430Y001680D01*
X030680Y001930D01*
X030930Y001680D01*
X031430Y001680D01*
X031680Y001930D01*
X031930Y001680D01*
X032430Y001680D01*
X032680Y001930D01*
X032930Y001680D01*
X033430Y001680D01*
X033680Y001930D01*
X033930Y001680D01*
X034430Y001680D01*
X034680Y001930D01*
X034930Y001680D01*
X035430Y001680D01*
X035680Y001930D01*
X035930Y001680D01*
X036430Y001680D01*
X036680Y001930D01*
X036930Y001680D01*
X037430Y001680D01*
X037680Y001930D01*
X037930Y001680D01*
X038430Y001680D01*
X038680Y001930D01*
X038930Y001680D01*
X039430Y001680D01*
X039680Y001930D01*
X039680Y003430D01*
X039430Y003680D01*
X019680Y003430D02*
X019680Y001930D01*
X019430Y001680D01*
X018930Y001680D01*
X018680Y001930D01*
X018430Y001680D01*
X017930Y001680D01*
X017680Y001930D01*
X017430Y001680D01*
X016930Y001680D01*
X016680Y001930D01*
X016430Y001680D01*
X015930Y001680D01*
X015680Y001930D01*
X015430Y001680D01*
X014930Y001680D01*
X014680Y001930D01*
X014430Y001680D01*
X013930Y001680D01*
X013680Y001930D01*
X013430Y001680D01*
X012930Y001680D01*
X012680Y001930D01*
X012430Y001680D01*
X011930Y001680D01*
X011680Y001930D01*
X011430Y001680D01*
X010930Y001680D01*
X010680Y001930D01*
X010430Y001680D01*
X009930Y001680D01*
X009680Y001930D01*
X009680Y003430D01*
X009930Y003680D01*
X010430Y003680D01*
X010680Y003430D01*
X010930Y003680D01*
X011430Y003680D01*
X011680Y003430D01*
X011930Y003680D01*
X012430Y003680D01*
X012680Y003430D01*
X012930Y003680D01*
X013430Y003680D01*
X013680Y003430D01*
X013930Y003680D01*
X014430Y003680D01*
X014680Y003430D01*
X014930Y003680D01*
X015430Y003680D01*
X015680Y003430D01*
X015930Y003680D01*
X016430Y003680D01*
X016680Y003430D01*
X016930Y003680D01*
X017430Y003680D01*
X017680Y003430D01*
X017930Y003680D01*
X018430Y003680D01*
X018680Y003430D01*
X018930Y003680D01*
X019430Y003680D01*
X019680Y003430D01*
X019430Y005680D02*
X018930Y005680D01*
X018680Y005930D01*
X018430Y005680D01*
X017930Y005680D01*
X017680Y005930D01*
X017430Y005680D01*
X016930Y005680D01*
X016680Y005930D01*
X016430Y005680D01*
X015930Y005680D01*
X015680Y005930D01*
X015430Y005680D01*
X014930Y005680D01*
X014680Y005930D01*
X014430Y005680D01*
X013930Y005680D01*
X013680Y005930D01*
X013430Y005680D01*
X012930Y005680D01*
X012680Y005930D01*
X012430Y005680D01*
X011930Y005680D01*
X011680Y005930D01*
X011430Y005680D01*
X010930Y005680D01*
X010680Y005930D01*
X010430Y005680D01*
X009930Y005680D01*
X009680Y005930D01*
X009680Y007430D01*
X009930Y007680D01*
X010430Y007680D01*
X010680Y007430D01*
X010930Y007680D01*
X011430Y007680D01*
X011680Y007430D01*
X011930Y007680D01*
X012430Y007680D01*
X012680Y007430D01*
X012930Y007680D01*
X013430Y007680D01*
X013680Y007430D01*
X013930Y007680D01*
X014430Y007680D01*
X014680Y007430D01*
X014930Y007680D01*
X015430Y007680D01*
X015680Y007430D01*
X015930Y007680D01*
X016430Y007680D01*
X016680Y007430D01*
X016930Y007680D01*
X017430Y007680D01*
X017680Y007430D01*
X017930Y007680D01*
X018430Y007680D01*
X018680Y007430D01*
X018930Y007680D01*
X019430Y007680D01*
X019680Y007430D01*
X019680Y005930D01*
X019430Y005680D01*
X019430Y009680D02*
X018930Y009680D01*
X018680Y009930D01*
X018430Y009680D01*
X017930Y009680D01*
X017680Y009930D01*
X017430Y009680D01*
X016930Y009680D01*
X016680Y009930D01*
X016430Y009680D01*
X015930Y009680D01*
X015680Y009930D01*
X015430Y009680D01*
X014930Y009680D01*
X014680Y009930D01*
X014430Y009680D01*
X013930Y009680D01*
X013680Y009930D01*
X013430Y009680D01*
X012930Y009680D01*
X012680Y009930D01*
X012430Y009680D01*
X011930Y009680D01*
X011680Y009930D01*
X011430Y009680D01*
X010930Y009680D01*
X010680Y009930D01*
X010430Y009680D01*
X009930Y009680D01*
X009680Y009930D01*
X009680Y011430D01*
X009930Y011680D01*
X010430Y011680D01*
X010680Y011430D01*
X010930Y011680D01*
X011430Y011680D01*
X011680Y011430D01*
X011930Y011680D01*
X012430Y011680D01*
X012680Y011430D01*
X012930Y011680D01*
X013430Y011680D01*
X013680Y011430D01*
X013930Y011680D01*
X014430Y011680D01*
X014680Y011430D01*
X014930Y011680D01*
X015430Y011680D01*
X015680Y011430D01*
X015930Y011680D01*
X016430Y011680D01*
X016680Y011430D01*
X016930Y011680D01*
X017430Y011680D01*
X017680Y011430D01*
X017930Y011680D01*
X018430Y011680D01*
X018680Y011430D01*
X018930Y011680D01*
X019430Y011680D01*
X019680Y011430D01*
X019680Y009930D01*
X019430Y009680D01*
X019430Y013680D02*
X018930Y013680D01*
X018680Y013930D01*
X018430Y013680D01*
X017930Y013680D01*
X017680Y013930D01*
X017430Y013680D01*
X016930Y013680D01*
X016680Y013930D01*
X016430Y013680D01*
X015930Y013680D01*
X015680Y013930D01*
X015430Y013680D01*
X014930Y013680D01*
X014680Y013930D01*
X014430Y013680D01*
X013930Y013680D01*
X013680Y013930D01*
X013430Y013680D01*
X012930Y013680D01*
X012680Y013930D01*
X012430Y013680D01*
X011930Y013680D01*
X011680Y013930D01*
X011430Y013680D01*
X010930Y013680D01*
X010680Y013930D01*
X010430Y013680D01*
X009930Y013680D01*
X009680Y013930D01*
X009680Y015430D01*
X009930Y015680D01*
X010430Y015680D01*
X010680Y015430D01*
X010930Y015680D01*
X011430Y015680D01*
X011680Y015430D01*
X011930Y015680D01*
X012430Y015680D01*
X012680Y015430D01*
X012930Y015680D01*
X013430Y015680D01*
X013680Y015430D01*
X013930Y015680D01*
X014430Y015680D01*
X014680Y015430D01*
X014930Y015680D01*
X015430Y015680D01*
X015680Y015430D01*
X015930Y015680D01*
X016430Y015680D01*
X016680Y015430D01*
X016930Y015680D01*
X017430Y015680D01*
X017680Y015430D01*
X017930Y015680D01*
X018430Y015680D01*
X018680Y015430D01*
X018930Y015680D01*
X019430Y015680D01*
X019680Y015430D01*
X019680Y013930D01*
X019430Y013680D01*
X024930Y021180D02*
X028430Y021180D01*
X028430Y021680D01*
X028530Y021680D01*
X028530Y022180D01*
X028430Y022180D01*
X028430Y024930D01*
X028530Y024930D01*
X028530Y025430D01*
X028430Y025430D01*
X028430Y028180D01*
X028530Y028180D01*
X028530Y028680D01*
X028430Y028680D01*
X028430Y029180D01*
X024930Y029180D01*
X024930Y027430D01*
X024980Y027430D01*
X024980Y026930D01*
X024930Y026930D01*
X024930Y025980D01*
X025330Y025980D01*
X025430Y025980D01*
X025430Y028680D01*
X027930Y028680D01*
X027930Y021680D01*
X025430Y021680D01*
X025430Y023380D01*
X025430Y023980D01*
X025430Y024380D01*
X025330Y024380D01*
X024930Y024380D01*
X024930Y025980D01*
X025430Y025980D02*
X025730Y025980D01*
X025730Y024380D01*
X025430Y024380D01*
X025130Y024180D02*
X025130Y023980D01*
X025130Y023380D01*
X025330Y023380D01*
X025430Y023380D01*
X025130Y023380D02*
X025130Y023180D01*
X024930Y023030D01*
X024930Y021180D01*
X025130Y023980D02*
X025330Y023980D01*
X025430Y023980D01*
X025130Y024180D02*
X024930Y024330D01*
X024930Y024380D01*
X008530Y024930D02*
X008430Y024930D01*
X008430Y022180D01*
X008530Y022180D01*
X008530Y021680D01*
X008430Y021680D01*
X008430Y021180D01*
X004930Y021180D01*
X004930Y023030D01*
X005130Y023180D01*
X005130Y023380D01*
X005130Y023980D01*
X005130Y024180D01*
X004930Y024330D01*
X004930Y024380D01*
X005330Y024380D01*
X005430Y024380D01*
X005430Y023980D01*
X005430Y023380D01*
X005330Y023380D01*
X005130Y023380D01*
X005430Y023380D02*
X005430Y021680D01*
X007930Y021680D01*
X007930Y028680D01*
X005430Y028680D01*
X005430Y025980D01*
X005330Y025980D01*
X004930Y025980D01*
X004930Y026930D01*
X004980Y026930D01*
X004980Y027430D01*
X004930Y027430D01*
X004930Y029180D01*
X008430Y029180D01*
X008430Y028680D01*
X008530Y028680D01*
X008530Y028180D01*
X008430Y028180D01*
X008430Y025430D01*
X008530Y025430D01*
X008530Y024930D01*
X005730Y024380D02*
X005430Y024380D01*
X005730Y024380D02*
X005730Y025980D01*
X005430Y025980D01*
X004930Y025980D02*
X004930Y024380D01*
X005130Y023980D02*
X005330Y023980D01*
X005430Y023980D01*
X022430Y037680D02*
X022430Y044680D01*
X022330Y044780D02*
X022330Y040580D01*
X022332Y040550D01*
X022337Y040520D01*
X022346Y040491D01*
X022359Y040464D01*
X022374Y040438D01*
X022393Y040414D01*
X022414Y040393D01*
X022438Y040374D01*
X022464Y040359D01*
X022491Y040346D01*
X022520Y040337D01*
X022550Y040332D01*
X022580Y040330D01*
X026780Y040330D01*
X026810Y040332D01*
X026840Y040337D01*
X026869Y040346D01*
X026896Y040359D01*
X026922Y040374D01*
X026946Y040393D01*
X026967Y040414D01*
X026986Y040438D01*
X027001Y040464D01*
X027014Y040491D01*
X027023Y040520D01*
X027028Y040550D01*
X027030Y040580D01*
X027030Y044780D01*
X026930Y044680D02*
X026930Y037680D01*
X026928Y037650D01*
X026923Y037620D01*
X026914Y037591D01*
X026901Y037564D01*
X026886Y037538D01*
X026867Y037514D01*
X026846Y037493D01*
X026822Y037474D01*
X026796Y037459D01*
X026769Y037446D01*
X026740Y037437D01*
X026710Y037432D01*
X026680Y037430D01*
X022680Y037430D01*
X022650Y037432D01*
X022620Y037437D01*
X022591Y037446D01*
X022564Y037459D01*
X022538Y037474D01*
X022514Y037493D01*
X022493Y037514D01*
X022474Y037538D01*
X022459Y037564D01*
X022446Y037591D01*
X022437Y037620D01*
X022432Y037650D01*
X022430Y037680D01*
X026180Y040180D02*
X026180Y040810D01*
X026180Y041550D02*
X026180Y042180D01*
X026180Y042310D02*
X026180Y041680D01*
X026180Y043050D02*
X026180Y043680D01*
X026930Y044680D02*
X026928Y044710D01*
X026923Y044740D01*
X026914Y044769D01*
X026901Y044796D01*
X026886Y044822D01*
X026867Y044846D01*
X026846Y044867D01*
X026822Y044886D01*
X026796Y044901D01*
X026769Y044914D01*
X026740Y044923D01*
X026710Y044928D01*
X026680Y044930D01*
X022680Y044930D01*
X022580Y045030D02*
X026780Y045030D01*
X026810Y045028D01*
X026840Y045023D01*
X026869Y045014D01*
X026896Y045001D01*
X026922Y044986D01*
X026946Y044967D01*
X026967Y044946D01*
X026986Y044922D01*
X027001Y044896D01*
X027014Y044869D01*
X027023Y044840D01*
X027028Y044810D01*
X027030Y044780D01*
X029680Y044430D02*
X029680Y042930D01*
X029930Y042680D01*
X030430Y042680D01*
X030680Y042930D01*
X030930Y042680D01*
X031430Y042680D01*
X031680Y042930D01*
X031930Y042680D01*
X032430Y042680D01*
X032680Y042930D01*
X032930Y042680D01*
X033430Y042680D01*
X033680Y042930D01*
X033930Y042680D01*
X034430Y042680D01*
X034680Y042930D01*
X034930Y042680D01*
X035430Y042680D01*
X035680Y042930D01*
X035930Y042680D01*
X036430Y042680D01*
X036680Y042930D01*
X036930Y042680D01*
X037430Y042680D01*
X037680Y042930D01*
X037930Y042680D01*
X038430Y042680D01*
X038680Y042930D01*
X038930Y042680D01*
X039430Y042680D01*
X039680Y042930D01*
X039680Y044430D01*
X039430Y044680D01*
X038930Y044680D01*
X038680Y044430D01*
X038430Y044680D01*
X037930Y044680D01*
X037680Y044430D01*
X037430Y044680D01*
X036930Y044680D01*
X036680Y044430D01*
X036430Y044680D01*
X035930Y044680D01*
X035680Y044430D01*
X035430Y044680D01*
X034930Y044680D01*
X034680Y044430D01*
X034430Y044680D01*
X033930Y044680D01*
X033680Y044430D01*
X033430Y044680D01*
X032930Y044680D01*
X032680Y044430D01*
X032430Y044680D01*
X031930Y044680D01*
X031680Y044430D01*
X031430Y044680D01*
X030930Y044680D01*
X030680Y044430D01*
X030430Y044680D01*
X029930Y044680D01*
X029680Y044430D01*
X029930Y046680D02*
X030430Y046680D01*
X030680Y046930D01*
X030930Y046680D01*
X031430Y046680D01*
X031680Y046930D01*
X031930Y046680D01*
X032430Y046680D01*
X032680Y046930D01*
X032930Y046680D01*
X033430Y046680D01*
X033680Y046930D01*
X033930Y046680D01*
X034430Y046680D01*
X034680Y046930D01*
X034930Y046680D01*
X035430Y046680D01*
X035680Y046930D01*
X035930Y046680D01*
X036430Y046680D01*
X036680Y046930D01*
X036930Y046680D01*
X037430Y046680D01*
X037680Y046930D01*
X037930Y046680D01*
X038430Y046680D01*
X038680Y046930D01*
X038930Y046680D01*
X039430Y046680D01*
X039680Y046930D01*
X039680Y048430D01*
X039430Y048680D01*
X038930Y048680D01*
X038680Y048430D01*
X038430Y048680D01*
X037930Y048680D01*
X037680Y048430D01*
X037430Y048680D01*
X036930Y048680D01*
X036680Y048430D01*
X036430Y048680D01*
X035930Y048680D01*
X035680Y048430D01*
X035430Y048680D01*
X034930Y048680D01*
X034680Y048430D01*
X034430Y048680D01*
X033930Y048680D01*
X033680Y048430D01*
X033430Y048680D01*
X032930Y048680D01*
X032680Y048430D01*
X032430Y048680D01*
X031930Y048680D01*
X031680Y048430D01*
X031430Y048680D01*
X030930Y048680D01*
X030680Y048430D01*
X030430Y048680D01*
X029930Y048680D01*
X029680Y048430D01*
X029680Y046930D01*
X029930Y046680D01*
X022680Y044930D02*
X022650Y044928D01*
X022620Y044923D01*
X022591Y044914D01*
X022564Y044901D01*
X022538Y044886D01*
X022514Y044867D01*
X022493Y044846D01*
X022474Y044822D01*
X022459Y044796D01*
X022446Y044769D01*
X022437Y044740D01*
X022432Y044710D01*
X022430Y044680D01*
X022330Y044780D02*
X022332Y044810D01*
X022337Y044840D01*
X022346Y044869D01*
X022359Y044896D01*
X022374Y044922D01*
X022393Y044946D01*
X022414Y044967D01*
X022438Y044986D01*
X022464Y045001D01*
X022491Y045014D01*
X022520Y045023D01*
X022550Y045028D01*
X022580Y045030D01*
X019680Y044430D02*
X019680Y042930D01*
X019430Y042680D01*
X018930Y042680D01*
X018680Y042930D01*
X018430Y042680D01*
X017930Y042680D01*
X017680Y042930D01*
X017430Y042680D01*
X016930Y042680D01*
X016680Y042930D01*
X016430Y042680D01*
X015930Y042680D01*
X015680Y042930D01*
X015430Y042680D01*
X014930Y042680D01*
X014680Y042930D01*
X014430Y042680D01*
X013930Y042680D01*
X013680Y042930D01*
X013430Y042680D01*
X012930Y042680D01*
X012680Y042930D01*
X012430Y042680D01*
X011930Y042680D01*
X011680Y042930D01*
X011430Y042680D01*
X010930Y042680D01*
X010680Y042930D01*
X010430Y042680D01*
X009930Y042680D01*
X009680Y042930D01*
X009680Y044430D01*
X009930Y044680D01*
X010430Y044680D01*
X010680Y044430D01*
X010930Y044680D01*
X011430Y044680D01*
X011680Y044430D01*
X011930Y044680D01*
X012430Y044680D01*
X012680Y044430D01*
X012930Y044680D01*
X013430Y044680D01*
X013680Y044430D01*
X013930Y044680D01*
X014430Y044680D01*
X014680Y044430D01*
X014930Y044680D01*
X015430Y044680D01*
X015680Y044430D01*
X015930Y044680D01*
X016430Y044680D01*
X016680Y044430D01*
X016930Y044680D01*
X017430Y044680D01*
X017680Y044430D01*
X017930Y044680D01*
X018430Y044680D01*
X018680Y044430D01*
X018930Y044680D01*
X019430Y044680D01*
X019680Y044430D01*
X019430Y046680D02*
X018930Y046680D01*
X018680Y046930D01*
X018430Y046680D01*
X017930Y046680D01*
X017680Y046930D01*
X017430Y046680D01*
X016930Y046680D01*
X016680Y046930D01*
X016430Y046680D01*
X015930Y046680D01*
X015680Y046930D01*
X015430Y046680D01*
X014930Y046680D01*
X014680Y046930D01*
X014430Y046680D01*
X013930Y046680D01*
X013680Y046930D01*
X013430Y046680D01*
X012930Y046680D01*
X012680Y046930D01*
X012430Y046680D01*
X011930Y046680D01*
X011680Y046930D01*
X011430Y046680D01*
X010930Y046680D01*
X010680Y046930D01*
X010430Y046680D01*
X009930Y046680D01*
X009680Y046930D01*
X009680Y048430D01*
X009930Y048680D01*
X010430Y048680D01*
X010680Y048430D01*
X010930Y048680D01*
X011430Y048680D01*
X011680Y048430D01*
X011930Y048680D01*
X012430Y048680D01*
X012680Y048430D01*
X012930Y048680D01*
X013430Y048680D01*
X013680Y048430D01*
X013930Y048680D01*
X014430Y048680D01*
X014680Y048430D01*
X014930Y048680D01*
X015430Y048680D01*
X015680Y048430D01*
X015930Y048680D01*
X016430Y048680D01*
X016680Y048430D01*
X016930Y048680D01*
X017430Y048680D01*
X017680Y048430D01*
X017930Y048680D01*
X018430Y048680D01*
X018680Y048430D01*
X018930Y048680D01*
X019430Y048680D01*
X019680Y048430D01*
X019680Y046930D01*
X019430Y046680D01*
X050680Y046930D02*
X050930Y046680D01*
X051430Y046680D01*
X051680Y046930D01*
X051930Y046680D01*
X052430Y046680D01*
X052680Y046930D01*
X052930Y046680D01*
X053430Y046680D01*
X053680Y046930D01*
X053930Y046680D01*
X054430Y046680D01*
X054680Y046930D01*
X054930Y046680D01*
X055430Y046680D01*
X055680Y046930D01*
X055930Y046680D01*
X056430Y046680D01*
X056680Y046930D01*
X056930Y046680D01*
X057430Y046680D01*
X057680Y046930D01*
X057930Y046680D01*
X058430Y046680D01*
X058680Y046930D01*
X058930Y046680D01*
X059430Y046680D01*
X059680Y046930D01*
X059930Y046680D01*
X060430Y046680D01*
X060680Y046930D01*
X060680Y048430D01*
X060430Y048680D01*
X059930Y048680D01*
X059680Y048430D01*
X059430Y048680D01*
X058930Y048680D01*
X058680Y048430D01*
X058430Y048680D01*
X057930Y048680D01*
X057680Y048430D01*
X057430Y048680D01*
X056930Y048680D01*
X056680Y048430D01*
X056430Y048680D01*
X055930Y048680D01*
X055680Y048430D01*
X055430Y048680D01*
X054930Y048680D01*
X054680Y048430D01*
X054430Y048680D01*
X053930Y048680D01*
X053680Y048430D01*
X053430Y048680D01*
X052930Y048680D01*
X052680Y048430D01*
X052430Y048680D01*
X051930Y048680D01*
X051680Y048430D01*
X051430Y048680D01*
X050930Y048680D01*
X050680Y048430D01*
X050680Y046930D01*
X050930Y044680D02*
X050680Y044430D01*
X050680Y042930D01*
X050930Y042680D01*
X051430Y042680D01*
X051680Y042930D01*
X051930Y042680D01*
X052430Y042680D01*
X052680Y042930D01*
X052930Y042680D01*
X053430Y042680D01*
X053680Y042930D01*
X053930Y042680D01*
X054430Y042680D01*
X054680Y042930D01*
X054930Y042680D01*
X055430Y042680D01*
X055680Y042930D01*
X055930Y042680D01*
X056430Y042680D01*
X056680Y042930D01*
X056930Y042680D01*
X057430Y042680D01*
X057680Y042930D01*
X057930Y042680D01*
X058430Y042680D01*
X058680Y042930D01*
X058930Y042680D01*
X059430Y042680D01*
X059680Y042930D01*
X059930Y042680D01*
X060430Y042680D01*
X060680Y042930D01*
X060680Y044430D01*
X060430Y044680D01*
X059930Y044680D01*
X059680Y044430D01*
X059430Y044680D01*
X058930Y044680D01*
X058680Y044430D01*
X058430Y044680D01*
X057930Y044680D01*
X057680Y044430D01*
X057430Y044680D01*
X056930Y044680D01*
X056680Y044430D01*
X056430Y044680D01*
X055930Y044680D01*
X055680Y044430D01*
X055430Y044680D01*
X054930Y044680D01*
X054680Y044430D01*
X054430Y044680D01*
X053930Y044680D01*
X053680Y044430D01*
X053430Y044680D01*
X052930Y044680D01*
X052680Y044430D01*
X052430Y044680D01*
X051930Y044680D01*
X051680Y044430D01*
X051430Y044680D01*
X050930Y044680D01*
X051730Y037780D02*
X065630Y037780D01*
X065630Y032580D01*
X051730Y032580D01*
X051730Y034680D01*
X051680Y034780D02*
X051680Y034030D01*
X065680Y034030D01*
X065680Y036330D01*
X051680Y036330D01*
X051680Y035580D01*
X051730Y035680D02*
X051730Y037780D01*
X051730Y035680D02*
X051774Y035678D01*
X051817Y035672D01*
X051859Y035663D01*
X051901Y035650D01*
X051941Y035633D01*
X051980Y035613D01*
X052017Y035590D01*
X052051Y035563D01*
X052084Y035534D01*
X052113Y035501D01*
X052140Y035467D01*
X052163Y035430D01*
X052183Y035391D01*
X052200Y035351D01*
X052213Y035309D01*
X052222Y035267D01*
X052228Y035224D01*
X052230Y035180D01*
X052228Y035136D01*
X052222Y035093D01*
X052213Y035051D01*
X052200Y035009D01*
X052183Y034969D01*
X052163Y034930D01*
X052140Y034893D01*
X052113Y034859D01*
X052084Y034826D01*
X052051Y034797D01*
X052017Y034770D01*
X051980Y034747D01*
X051941Y034727D01*
X051901Y034710D01*
X051859Y034697D01*
X051817Y034688D01*
X051774Y034682D01*
X051730Y034680D01*
X051680Y034780D02*
X051719Y034782D01*
X051758Y034788D01*
X051796Y034797D01*
X051833Y034810D01*
X051869Y034827D01*
X051902Y034847D01*
X051934Y034871D01*
X051963Y034897D01*
X051989Y034926D01*
X052013Y034958D01*
X052033Y034991D01*
X052050Y035027D01*
X052063Y035064D01*
X052072Y035102D01*
X052078Y035141D01*
X052080Y035180D01*
X052078Y035219D01*
X052072Y035258D01*
X052063Y035296D01*
X052050Y035333D01*
X052033Y035369D01*
X052013Y035402D01*
X051989Y035434D01*
X051963Y035463D01*
X051934Y035489D01*
X051902Y035513D01*
X051869Y035533D01*
X051833Y035550D01*
X051796Y035563D01*
X051758Y035572D01*
X051719Y035578D01*
X051680Y035580D01*
X051730Y028780D02*
X065630Y028780D01*
X065630Y023580D01*
X051730Y023580D01*
X051730Y025680D01*
X051680Y025780D02*
X051680Y025030D01*
X065680Y025030D01*
X065680Y027330D01*
X051680Y027330D01*
X051680Y026580D01*
X051730Y026680D02*
X051730Y028780D01*
X051730Y026680D02*
X051774Y026678D01*
X051817Y026672D01*
X051859Y026663D01*
X051901Y026650D01*
X051941Y026633D01*
X051980Y026613D01*
X052017Y026590D01*
X052051Y026563D01*
X052084Y026534D01*
X052113Y026501D01*
X052140Y026467D01*
X052163Y026430D01*
X052183Y026391D01*
X052200Y026351D01*
X052213Y026309D01*
X052222Y026267D01*
X052228Y026224D01*
X052230Y026180D01*
X052228Y026136D01*
X052222Y026093D01*
X052213Y026051D01*
X052200Y026009D01*
X052183Y025969D01*
X052163Y025930D01*
X052140Y025893D01*
X052113Y025859D01*
X052084Y025826D01*
X052051Y025797D01*
X052017Y025770D01*
X051980Y025747D01*
X051941Y025727D01*
X051901Y025710D01*
X051859Y025697D01*
X051817Y025688D01*
X051774Y025682D01*
X051730Y025680D01*
X051680Y025780D02*
X051719Y025782D01*
X051758Y025788D01*
X051796Y025797D01*
X051833Y025810D01*
X051869Y025827D01*
X051902Y025847D01*
X051934Y025871D01*
X051963Y025897D01*
X051989Y025926D01*
X052013Y025958D01*
X052033Y025991D01*
X052050Y026027D01*
X052063Y026064D01*
X052072Y026102D01*
X052078Y026141D01*
X052080Y026180D01*
X052078Y026219D01*
X052072Y026258D01*
X052063Y026296D01*
X052050Y026333D01*
X052033Y026369D01*
X052013Y026402D01*
X051989Y026434D01*
X051963Y026463D01*
X051934Y026489D01*
X051902Y026513D01*
X051869Y026533D01*
X051833Y026550D01*
X051796Y026563D01*
X051758Y026572D01*
X051719Y026578D01*
X051680Y026580D01*
D12*
X035636Y033196D02*
X035406Y033426D01*
X035329Y033350D02*
X035636Y033656D01*
X035329Y033656D02*
X035329Y033196D01*
X035176Y033196D02*
X034869Y033196D01*
X035176Y033503D01*
X035176Y033580D01*
X035099Y033656D01*
X034945Y033656D01*
X034869Y033580D01*
X034715Y033580D02*
X034715Y033503D01*
X034638Y033426D01*
X034715Y033350D01*
X034715Y033273D01*
X034638Y033196D01*
X034485Y033196D01*
X034408Y033273D01*
X034255Y033196D02*
X034255Y033656D01*
X034101Y033503D01*
X033948Y033656D01*
X033948Y033196D01*
X033794Y033196D02*
X033794Y033656D01*
X033641Y033503D01*
X033487Y033656D01*
X033487Y033196D01*
X034408Y033580D02*
X034485Y033656D01*
X034638Y033656D01*
X034715Y033580D01*
X034638Y033426D02*
X034562Y033426D01*
X015636Y033196D02*
X015329Y033196D01*
X015329Y033656D01*
X015176Y033580D02*
X015176Y033503D01*
X015099Y033426D01*
X014945Y033426D01*
X014869Y033503D01*
X014869Y033580D01*
X014945Y033656D01*
X015099Y033656D01*
X015176Y033580D01*
X015099Y033426D02*
X015176Y033350D01*
X015176Y033273D01*
X015099Y033196D01*
X014945Y033196D01*
X014869Y033273D01*
X014869Y033350D01*
X014945Y033426D01*
X014715Y033273D02*
X014638Y033196D01*
X014485Y033196D01*
X014408Y033273D01*
X014408Y033656D01*
X014255Y033656D02*
X014255Y033196D01*
X013948Y033196D02*
X013948Y033656D01*
X014101Y033503D01*
X014255Y033656D01*
X014715Y033656D02*
X014715Y033273D01*
X013794Y033196D02*
X013794Y033656D01*
X013641Y033503D01*
X013487Y033656D01*
X013487Y033196D01*
X002314Y013507D02*
X002314Y013200D01*
X002007Y013507D01*
X001930Y013507D01*
X001853Y013430D01*
X001853Y013277D01*
X001930Y013200D01*
X001853Y013047D02*
X001853Y012893D01*
X001853Y012970D02*
X002237Y012970D01*
X002314Y012893D01*
X002314Y012816D01*
X002237Y012740D01*
X042200Y048700D02*
X042200Y049160D01*
X042430Y049160D01*
X042507Y049084D01*
X042507Y048930D01*
X042430Y048853D01*
X042200Y048853D01*
X042660Y048777D02*
X042737Y048700D01*
X042891Y048700D01*
X042967Y048777D01*
X042967Y048930D01*
X042891Y049007D01*
X042737Y049007D01*
X042660Y048930D01*
X042660Y048777D01*
X043121Y048700D02*
X043351Y048700D01*
X043428Y048777D01*
X043351Y048853D01*
X043198Y048853D01*
X043121Y048930D01*
X043198Y049007D01*
X043428Y049007D01*
X043581Y049007D02*
X043658Y049007D01*
X043658Y048700D01*
X043581Y048700D02*
X043735Y048700D01*
X043888Y048700D02*
X044118Y048700D01*
X044195Y048777D01*
X044195Y048930D01*
X044118Y049007D01*
X043888Y049007D01*
X043888Y049160D02*
X043888Y048700D01*
X044348Y048777D02*
X044348Y049007D01*
X044348Y048777D02*
X044425Y048700D01*
X044655Y048700D01*
X044655Y049007D01*
X044809Y048930D02*
X044886Y049007D01*
X045116Y049007D01*
X045039Y048853D02*
X044886Y048853D01*
X044809Y048930D01*
X044809Y048700D02*
X045039Y048700D01*
X045116Y048777D01*
X045039Y048853D01*
X045730Y049160D02*
X046037Y049160D01*
X045883Y049160D02*
X045883Y048700D01*
X046190Y048777D02*
X046190Y048930D01*
X046267Y049007D01*
X046420Y049007D01*
X046497Y048930D01*
X046497Y048853D01*
X046190Y048853D01*
X046190Y048777D02*
X046267Y048700D01*
X046420Y048700D01*
X046650Y048700D02*
X046650Y049007D01*
X046650Y048853D02*
X046804Y049007D01*
X046881Y049007D01*
X047034Y049007D02*
X047111Y049007D01*
X047188Y048930D01*
X047264Y049007D01*
X047341Y048930D01*
X047341Y048700D01*
X047188Y048700D02*
X047188Y048930D01*
X047034Y049007D02*
X047034Y048700D01*
X047495Y048700D02*
X047648Y048700D01*
X047571Y048700D02*
X047571Y049007D01*
X047495Y049007D01*
X047571Y049160D02*
X047571Y049237D01*
X047801Y049007D02*
X048032Y049007D01*
X048108Y048930D01*
X048108Y048700D01*
X048262Y048777D02*
X048339Y048853D01*
X048569Y048853D01*
X048569Y048930D02*
X048569Y048700D01*
X048339Y048700D01*
X048262Y048777D01*
X048339Y049007D02*
X048492Y049007D01*
X048569Y048930D01*
X048722Y049007D02*
X048876Y049007D01*
X048799Y049084D02*
X048799Y048777D01*
X048876Y048700D01*
X049029Y048700D02*
X049183Y048700D01*
X049106Y048700D02*
X049106Y049007D01*
X049029Y049007D01*
X049106Y049160D02*
X049106Y049237D01*
X049336Y048930D02*
X049336Y048777D01*
X049413Y048700D01*
X049566Y048700D01*
X049643Y048777D01*
X049643Y048930D01*
X049566Y049007D01*
X049413Y049007D01*
X049336Y048930D01*
X049796Y049007D02*
X050027Y049007D01*
X050103Y048930D01*
X050103Y048700D01*
X049796Y048700D02*
X049796Y049007D01*
X047801Y049007D02*
X047801Y048700D01*
X043658Y049160D02*
X043658Y049237D01*
D13*
X039466Y049230D02*
X039165Y048930D01*
X039240Y048855D01*
X039391Y048855D01*
X039466Y048930D01*
X039466Y049230D01*
X039391Y049305D01*
X039240Y049305D01*
X039165Y049230D01*
X039165Y048930D01*
X039005Y048855D02*
X038705Y048855D01*
X039005Y049155D01*
X039005Y049230D01*
X038930Y049305D01*
X038780Y049305D01*
X038705Y049230D01*
X038780Y045305D02*
X038705Y045230D01*
X038780Y045305D02*
X038930Y045305D01*
X039005Y045230D01*
X039005Y045155D01*
X038705Y044855D01*
X039005Y044855D01*
X039165Y044930D02*
X039466Y045230D01*
X039466Y044930D01*
X039391Y044855D01*
X039240Y044855D01*
X039165Y044930D01*
X039165Y045230D01*
X039240Y045305D01*
X039391Y045305D01*
X039466Y045230D01*
X031847Y045230D02*
X031847Y045080D01*
X031772Y045005D01*
X031547Y045005D01*
X031547Y044855D02*
X031547Y045305D01*
X031772Y045305D01*
X031847Y045230D01*
X031386Y044855D02*
X031086Y044855D01*
X031236Y044855D02*
X031236Y045305D01*
X031086Y045155D01*
X030926Y045155D02*
X030851Y045080D01*
X030626Y045080D01*
X030851Y045080D02*
X030926Y045005D01*
X030926Y044930D01*
X030851Y044855D01*
X030626Y044855D01*
X030626Y045305D01*
X030851Y045305D01*
X030926Y045230D01*
X030926Y045155D01*
X030466Y045305D02*
X030466Y044855D01*
X030165Y044855D02*
X030165Y045305D01*
X030316Y045155D01*
X030466Y045305D01*
X030005Y045230D02*
X030005Y045155D01*
X029930Y045080D01*
X029705Y045080D01*
X029705Y044855D02*
X029930Y044855D01*
X030005Y044930D01*
X030005Y045005D01*
X029930Y045080D01*
X030005Y045230D02*
X029930Y045305D01*
X029705Y045305D01*
X029705Y044855D01*
X030005Y046055D02*
X030305Y046055D01*
X030155Y046055D02*
X030155Y046505D01*
X030005Y046355D01*
X029930Y048855D02*
X029705Y048855D01*
X029705Y049305D01*
X029930Y049305D01*
X030005Y049230D01*
X030005Y049155D01*
X029930Y049080D01*
X029705Y049080D01*
X029930Y049080D02*
X030005Y049005D01*
X030005Y048930D01*
X029930Y048855D01*
X030165Y048855D02*
X030165Y049305D01*
X030316Y049155D01*
X030466Y049305D01*
X030466Y048855D01*
X030626Y048855D02*
X030851Y048855D01*
X030926Y048930D01*
X030926Y049005D01*
X030851Y049080D01*
X030626Y049080D01*
X030851Y049080D02*
X030926Y049155D01*
X030926Y049230D01*
X030851Y049305D01*
X030626Y049305D01*
X030626Y048855D01*
X031086Y048855D02*
X031386Y049155D01*
X031386Y049230D01*
X031311Y049305D01*
X031161Y049305D01*
X031086Y049230D01*
X031086Y048855D02*
X031386Y048855D01*
X031547Y048855D02*
X031547Y049305D01*
X031772Y049305D01*
X031847Y049230D01*
X031847Y049080D01*
X031772Y049005D01*
X031547Y049005D01*
X025426Y045755D02*
X025426Y045455D01*
X025426Y045680D02*
X025126Y045680D01*
X025126Y045755D02*
X025276Y045905D01*
X025426Y045755D01*
X025126Y045755D02*
X025126Y045455D01*
X024966Y045455D02*
X024665Y045455D01*
X024966Y045455D01*
X024816Y045455D02*
X024816Y045905D01*
X024665Y045755D01*
X024816Y045905D01*
X024816Y045455D01*
X024505Y045455D02*
X024355Y045605D01*
X024505Y045455D01*
X024430Y045455D02*
X024280Y045455D01*
X024205Y045530D01*
X024205Y045830D01*
X024280Y045905D01*
X024430Y045905D01*
X024505Y045830D01*
X024505Y045530D01*
X024430Y045455D01*
X024280Y045455D01*
X024205Y045530D01*
X024205Y045830D01*
X024280Y045905D01*
X024430Y045905D01*
X024505Y045830D01*
X024505Y045530D01*
X024430Y045455D01*
X023005Y043595D02*
X023005Y043295D01*
X022905Y043345D02*
X022905Y043645D01*
X022905Y043495D02*
X022455Y043495D01*
X022605Y043345D01*
X022555Y043445D02*
X023005Y043445D01*
X022705Y043295D02*
X022555Y043445D01*
X019466Y044930D02*
X019391Y044855D01*
X019240Y044855D01*
X019165Y044930D01*
X019466Y045230D01*
X019466Y044930D01*
X019466Y045230D02*
X019391Y045305D01*
X019240Y045305D01*
X019165Y045230D01*
X019165Y044930D01*
X019005Y044855D02*
X018705Y044855D01*
X019005Y045155D01*
X019005Y045230D01*
X018930Y045305D01*
X018780Y045305D01*
X018705Y045230D01*
X018705Y048855D02*
X019005Y049155D01*
X019005Y049230D01*
X018930Y049305D01*
X018780Y049305D01*
X018705Y049230D01*
X018705Y048855D02*
X019005Y048855D01*
X019165Y048930D02*
X019466Y049230D01*
X019466Y048930D01*
X019391Y048855D01*
X019240Y048855D01*
X019165Y048930D01*
X019165Y049230D01*
X019240Y049305D01*
X019391Y049305D01*
X019466Y049230D01*
X011847Y049230D02*
X011847Y049080D01*
X011772Y049005D01*
X011547Y049005D01*
X011547Y048855D02*
X011547Y049305D01*
X011772Y049305D01*
X011847Y049230D01*
X011386Y049230D02*
X011311Y049305D01*
X011161Y049305D01*
X011086Y049230D01*
X010926Y049230D02*
X010926Y049155D01*
X010851Y049080D01*
X010626Y049080D01*
X010466Y048930D02*
X010391Y048855D01*
X010240Y048855D01*
X010165Y048930D01*
X010165Y049230D01*
X010240Y049305D01*
X010391Y049305D01*
X010466Y049230D01*
X010626Y049305D02*
X010851Y049305D01*
X010926Y049230D01*
X010851Y049080D02*
X010926Y049005D01*
X010926Y048930D01*
X010851Y048855D01*
X010626Y048855D01*
X010626Y049305D01*
X010005Y049155D02*
X010005Y048855D01*
X010005Y049080D02*
X009705Y049080D01*
X009705Y049155D02*
X009855Y049305D01*
X010005Y049155D01*
X009705Y049155D02*
X009705Y048855D01*
X011086Y048855D02*
X011386Y049155D01*
X011386Y049230D01*
X011386Y048855D02*
X011086Y048855D01*
X010155Y046505D02*
X010155Y046055D01*
X010005Y046055D02*
X010305Y046055D01*
X010005Y046355D02*
X010155Y046505D01*
X010240Y045305D02*
X010165Y045230D01*
X010165Y044930D01*
X010240Y044855D01*
X010391Y044855D01*
X010466Y044930D01*
X010626Y044855D02*
X010851Y044855D01*
X010926Y044930D01*
X010926Y045005D01*
X010851Y045080D01*
X010626Y045080D01*
X010466Y045230D02*
X010391Y045305D01*
X010240Y045305D01*
X010005Y045155D02*
X010005Y044855D01*
X010005Y045080D02*
X009705Y045080D01*
X009705Y045155D02*
X009855Y045305D01*
X010005Y045155D01*
X009705Y045155D02*
X009705Y044855D01*
X010626Y044855D02*
X010626Y045305D01*
X010851Y045305D01*
X010926Y045230D01*
X010926Y045155D01*
X010851Y045080D01*
X011086Y045155D02*
X011236Y045305D01*
X011236Y044855D01*
X011086Y044855D02*
X011386Y044855D01*
X011547Y044855D02*
X011547Y045305D01*
X011772Y045305D01*
X011847Y045230D01*
X011847Y045080D01*
X011772Y045005D01*
X011547Y045005D01*
X010155Y042505D02*
X010155Y042055D01*
X010005Y042055D02*
X010305Y042055D01*
X010005Y042355D02*
X010155Y042505D01*
X030005Y042355D02*
X030155Y042505D01*
X030155Y042055D01*
X030005Y042055D02*
X030305Y042055D01*
X047174Y036930D02*
X047174Y036630D01*
X047249Y036555D01*
X047399Y036555D01*
X047474Y036630D01*
X047634Y036555D02*
X047934Y036555D01*
X047784Y036555D02*
X047784Y037005D01*
X047634Y036855D01*
X047474Y036930D02*
X047399Y037005D01*
X047249Y037005D01*
X047174Y036930D01*
X048095Y036930D02*
X048095Y036855D01*
X048170Y036780D01*
X048320Y036780D01*
X048395Y036705D01*
X048395Y036630D01*
X048320Y036555D01*
X048170Y036555D01*
X048095Y036630D01*
X048095Y036705D01*
X048170Y036780D01*
X048320Y036780D02*
X048395Y036855D01*
X048395Y036930D01*
X048320Y037005D01*
X048170Y037005D01*
X048095Y036930D01*
X051205Y034776D02*
X051355Y034926D01*
X051655Y034926D01*
X051430Y034926D02*
X051430Y034626D01*
X051355Y034626D02*
X051655Y034626D01*
X051655Y034391D02*
X051205Y034391D01*
X051430Y034165D01*
X051430Y034466D01*
X051430Y034165D01*
X051205Y034391D01*
X051655Y034391D01*
X051355Y034626D02*
X051205Y034776D01*
X051205Y034005D02*
X051205Y033705D01*
X051655Y033705D01*
X051655Y034005D01*
X051655Y033705D01*
X051205Y033705D01*
X051205Y034005D01*
X051430Y033855D02*
X051430Y033705D01*
X051430Y033855D01*
X048395Y028005D02*
X048395Y027930D01*
X048095Y027630D01*
X048095Y027555D01*
X047934Y027555D02*
X047634Y027555D01*
X047784Y027555D02*
X047784Y028005D01*
X047634Y027855D01*
X047474Y027930D02*
X047399Y028005D01*
X047249Y028005D01*
X047174Y027930D01*
X047174Y027630D01*
X047249Y027555D01*
X047399Y027555D01*
X047474Y027630D01*
X048095Y028005D02*
X048395Y028005D01*
X051205Y025776D02*
X051355Y025926D01*
X051655Y025926D01*
X051430Y025926D02*
X051430Y025626D01*
X051355Y025626D02*
X051655Y025626D01*
X051580Y025466D02*
X051655Y025391D01*
X051655Y025240D01*
X051580Y025165D01*
X051655Y025240D01*
X051655Y025391D01*
X051580Y025466D01*
X051505Y025466D01*
X051430Y025391D01*
X051430Y025316D01*
X051430Y025391D01*
X051355Y025466D01*
X051280Y025466D01*
X051205Y025391D01*
X051205Y025240D01*
X051280Y025165D01*
X051205Y025240D01*
X051205Y025391D01*
X051280Y025466D01*
X051355Y025466D01*
X051430Y025391D01*
X051505Y025466D01*
X051580Y025466D01*
X051355Y025626D02*
X051205Y025776D01*
X051205Y025005D02*
X051205Y024705D01*
X051655Y024705D01*
X051655Y025005D01*
X051655Y024705D01*
X051205Y024705D01*
X051205Y025005D01*
X051430Y024855D02*
X051430Y024705D01*
X051430Y024855D01*
X048466Y023305D02*
X048316Y023230D01*
X048165Y023080D01*
X048391Y023080D01*
X048466Y023005D01*
X048466Y022930D01*
X048391Y022855D01*
X048240Y022855D01*
X048165Y022930D01*
X048165Y023080D01*
X048005Y022855D02*
X047705Y022855D01*
X047855Y022855D02*
X047855Y023305D01*
X047705Y023155D01*
X043154Y023230D02*
X043079Y023305D01*
X042929Y023305D01*
X042853Y023230D01*
X042853Y023155D01*
X042929Y023080D01*
X043079Y023080D01*
X043154Y023005D01*
X043154Y022930D01*
X043079Y022855D01*
X042929Y022855D01*
X042853Y022930D01*
X042693Y022930D02*
X042693Y023230D01*
X042618Y023305D01*
X042393Y023305D01*
X042393Y022855D01*
X042618Y022855D01*
X042693Y022930D01*
X042233Y022855D02*
X041933Y022855D01*
X041933Y023305D01*
X041773Y023305D02*
X041472Y023305D01*
X041472Y022855D01*
X041773Y022855D01*
X041622Y023080D02*
X041472Y023080D01*
X041316Y022855D02*
X041165Y022855D01*
X041240Y022855D02*
X041240Y023305D01*
X041165Y023305D02*
X041316Y023305D01*
X041005Y023305D02*
X040705Y023305D01*
X040705Y022855D01*
X040705Y023080D02*
X040855Y023080D01*
X041155Y020505D02*
X041155Y020055D01*
X041005Y020055D02*
X041305Y020055D01*
X041005Y020355D02*
X041155Y020505D01*
X039391Y016305D02*
X039466Y016230D01*
X039165Y015930D01*
X039240Y015855D01*
X039391Y015855D01*
X039466Y015930D01*
X039466Y016230D01*
X039391Y016305D02*
X039240Y016305D01*
X039165Y016230D01*
X039165Y015930D01*
X039005Y015855D02*
X038705Y015855D01*
X039005Y016155D01*
X039005Y016230D01*
X038930Y016305D01*
X038780Y016305D01*
X038705Y016230D01*
X038780Y012305D02*
X038705Y012230D01*
X038780Y012305D02*
X038930Y012305D01*
X039005Y012230D01*
X039005Y012155D01*
X038705Y011855D01*
X039005Y011855D01*
X039165Y011930D02*
X039466Y012230D01*
X039466Y011930D01*
X039391Y011855D01*
X039240Y011855D01*
X039165Y011930D01*
X039165Y012230D01*
X039240Y012305D01*
X039391Y012305D01*
X039466Y012230D01*
X031847Y012230D02*
X031847Y012080D01*
X031772Y012005D01*
X031547Y012005D01*
X031547Y011855D02*
X031547Y012305D01*
X031772Y012305D01*
X031847Y012230D01*
X031386Y011855D02*
X031086Y011855D01*
X031236Y011855D02*
X031236Y012305D01*
X031086Y012155D01*
X030926Y012305D02*
X030926Y011855D01*
X030626Y011855D02*
X030626Y012305D01*
X030776Y012155D01*
X030926Y012305D01*
X030466Y012305D02*
X030165Y012305D01*
X030165Y011855D01*
X030466Y011855D01*
X030316Y012080D02*
X030165Y012080D01*
X030005Y012305D02*
X030005Y011855D01*
X029705Y011855D02*
X029705Y012305D01*
X029855Y012155D01*
X030005Y012305D01*
X030005Y013055D02*
X030305Y013055D01*
X030155Y013055D02*
X030155Y013505D01*
X030005Y013355D01*
X030005Y015855D02*
X030005Y016305D01*
X029855Y016155D01*
X029705Y016305D01*
X029705Y015855D01*
X030165Y015855D02*
X030466Y015855D01*
X030626Y015855D02*
X030626Y016305D01*
X030776Y016155D01*
X030926Y016305D01*
X030926Y015855D01*
X031086Y015855D02*
X031386Y016155D01*
X031386Y016230D01*
X031311Y016305D01*
X031161Y016305D01*
X031086Y016230D01*
X031086Y015855D02*
X031386Y015855D01*
X031547Y015855D02*
X031547Y016305D01*
X031772Y016305D01*
X031847Y016230D01*
X031847Y016080D01*
X031772Y016005D01*
X031547Y016005D01*
X030466Y016305D02*
X030165Y016305D01*
X030165Y015855D01*
X030165Y016080D02*
X030316Y016080D01*
X030155Y009505D02*
X030155Y009055D01*
X030005Y009055D02*
X030305Y009055D01*
X030005Y009355D02*
X030155Y009505D01*
X030316Y004305D02*
X030165Y004155D01*
X030165Y003855D01*
X030165Y004080D02*
X030466Y004080D01*
X030466Y004155D02*
X030466Y003855D01*
X030626Y003855D02*
X030626Y004305D01*
X030926Y003855D01*
X030926Y004305D01*
X031086Y004305D02*
X031086Y003855D01*
X031386Y003855D01*
X031547Y003855D02*
X031847Y003855D01*
X031547Y003855D02*
X031547Y004305D01*
X031386Y004305D02*
X031086Y004305D01*
X031086Y004080D02*
X031236Y004080D01*
X030466Y004155D02*
X030316Y004305D01*
X030005Y004230D02*
X030005Y004080D01*
X029930Y004005D01*
X029705Y004005D01*
X029705Y003855D02*
X029705Y004305D01*
X029930Y004305D01*
X030005Y004230D01*
X030155Y001505D02*
X030155Y001055D01*
X030005Y001055D02*
X030305Y001055D01*
X030005Y001355D02*
X030155Y001505D01*
X038705Y003855D02*
X039005Y004155D01*
X039005Y004230D01*
X038930Y004305D01*
X038780Y004305D01*
X038705Y004230D01*
X038705Y003855D02*
X039005Y003855D01*
X039165Y003930D02*
X039466Y004230D01*
X039466Y003930D01*
X039391Y003855D01*
X039240Y003855D01*
X039165Y003930D01*
X039165Y004230D01*
X039240Y004305D01*
X039391Y004305D01*
X039466Y004230D01*
X050705Y004305D02*
X050705Y003855D01*
X050930Y003855D01*
X051005Y003930D01*
X051005Y004230D01*
X050930Y004305D01*
X050705Y004305D01*
X051165Y004155D02*
X051316Y004305D01*
X051466Y004155D01*
X051466Y003855D01*
X051626Y003855D02*
X051851Y003855D01*
X051926Y003930D01*
X051926Y004230D01*
X051851Y004305D01*
X051626Y004305D01*
X051626Y003855D01*
X051466Y004080D02*
X051165Y004080D01*
X051165Y004155D02*
X051165Y003855D01*
X052086Y003855D02*
X052386Y003855D01*
X052236Y003855D02*
X052236Y004305D01*
X052086Y004155D01*
X052547Y004005D02*
X052772Y004005D01*
X052847Y004080D01*
X052847Y004230D01*
X052772Y004305D01*
X052547Y004305D01*
X052547Y003855D01*
X051305Y005055D02*
X051005Y005055D01*
X051155Y005055D02*
X051155Y005505D01*
X051005Y005355D01*
X050930Y007855D02*
X051005Y007930D01*
X051005Y008230D01*
X050930Y008305D01*
X050705Y008305D01*
X050705Y007855D01*
X050930Y007855D01*
X051165Y007855D02*
X051165Y008155D01*
X051316Y008305D01*
X051466Y008155D01*
X051466Y007855D01*
X051626Y007855D02*
X051851Y007855D01*
X051926Y007930D01*
X051926Y008230D01*
X051851Y008305D01*
X051626Y008305D01*
X051626Y007855D01*
X051466Y008080D02*
X051165Y008080D01*
X051155Y009055D02*
X051155Y009505D01*
X051005Y009355D01*
X051005Y009055D02*
X051305Y009055D01*
X052086Y008230D02*
X052161Y008305D01*
X052311Y008305D01*
X052386Y008230D01*
X052386Y008155D01*
X052086Y007855D01*
X052386Y007855D01*
X052547Y007855D02*
X052547Y008305D01*
X052772Y008305D01*
X052847Y008230D01*
X052847Y008080D01*
X052772Y008005D01*
X052547Y008005D01*
X052547Y011855D02*
X052547Y012305D01*
X052772Y012305D01*
X052847Y012230D01*
X052847Y012080D01*
X052772Y012005D01*
X052547Y012005D01*
X052386Y011855D02*
X052086Y011855D01*
X052236Y011855D02*
X052236Y012305D01*
X052086Y012155D01*
X051926Y012155D02*
X051926Y011855D01*
X051926Y012080D02*
X051626Y012080D01*
X051626Y012155D02*
X051626Y011855D01*
X051466Y011855D02*
X051466Y012305D01*
X051316Y012155D01*
X051165Y012305D01*
X051165Y011855D01*
X051005Y011930D02*
X050930Y011855D01*
X050705Y011855D01*
X050705Y012305D01*
X050930Y012305D01*
X051005Y012230D01*
X051005Y012155D01*
X050930Y012080D01*
X050705Y012080D01*
X050930Y012080D02*
X051005Y012005D01*
X051005Y011930D01*
X051626Y012155D02*
X051776Y012305D01*
X051926Y012155D01*
X051305Y013055D02*
X051005Y013055D01*
X051155Y013055D02*
X051155Y013505D01*
X051005Y013355D01*
X050930Y015855D02*
X050705Y015855D01*
X050705Y016305D01*
X050930Y016305D01*
X051005Y016230D01*
X051005Y016155D01*
X050930Y016080D01*
X050705Y016080D01*
X050930Y016080D02*
X051005Y016005D01*
X051005Y015930D01*
X050930Y015855D01*
X051165Y015855D02*
X051165Y016305D01*
X051316Y016155D01*
X051466Y016305D01*
X051466Y015855D01*
X051626Y015855D02*
X051626Y016155D01*
X051776Y016305D01*
X051926Y016155D01*
X051926Y015855D01*
X052086Y015855D02*
X052386Y016155D01*
X052386Y016230D01*
X052311Y016305D01*
X052161Y016305D01*
X052086Y016230D01*
X051926Y016080D02*
X051626Y016080D01*
X052086Y015855D02*
X052386Y015855D01*
X052547Y015855D02*
X052547Y016305D01*
X052772Y016305D01*
X052847Y016230D01*
X052847Y016080D01*
X052772Y016005D01*
X052547Y016005D01*
X059705Y015855D02*
X060005Y016155D01*
X060005Y016230D01*
X059930Y016305D01*
X059780Y016305D01*
X059705Y016230D01*
X059705Y015855D02*
X060005Y015855D01*
X060165Y015930D02*
X060466Y016230D01*
X060466Y015930D01*
X060391Y015855D01*
X060240Y015855D01*
X060165Y015930D01*
X060165Y016230D01*
X060240Y016305D01*
X060391Y016305D01*
X060466Y016230D01*
X060391Y012305D02*
X060466Y012230D01*
X060165Y011930D01*
X060240Y011855D01*
X060391Y011855D01*
X060466Y011930D01*
X060466Y012230D01*
X060391Y012305D02*
X060240Y012305D01*
X060165Y012230D01*
X060165Y011930D01*
X060005Y011855D02*
X059705Y011855D01*
X060005Y012155D01*
X060005Y012230D01*
X059930Y012305D01*
X059780Y012305D01*
X059705Y012230D01*
X059780Y008305D02*
X059705Y008230D01*
X059780Y008305D02*
X059930Y008305D01*
X060005Y008230D01*
X060005Y008155D01*
X059705Y007855D01*
X060005Y007855D01*
X060165Y007930D02*
X060466Y008230D01*
X060466Y007930D01*
X060391Y007855D01*
X060240Y007855D01*
X060165Y007930D01*
X060165Y008230D01*
X060240Y008305D01*
X060391Y008305D01*
X060466Y008230D01*
X060391Y004305D02*
X060466Y004230D01*
X060165Y003930D01*
X060240Y003855D01*
X060391Y003855D01*
X060466Y003930D01*
X060466Y004230D01*
X060391Y004305D02*
X060240Y004305D01*
X060165Y004230D01*
X060165Y003930D01*
X060005Y003855D02*
X059705Y003855D01*
X060005Y004155D01*
X060005Y004230D01*
X059930Y004305D01*
X059780Y004305D01*
X059705Y004230D01*
X051155Y001505D02*
X051155Y001055D01*
X051005Y001055D02*
X051305Y001055D01*
X051005Y001355D02*
X051155Y001505D01*
X019466Y003930D02*
X019391Y003855D01*
X019240Y003855D01*
X019165Y003930D01*
X019466Y004230D01*
X019466Y003930D01*
X019466Y004230D02*
X019391Y004305D01*
X019240Y004305D01*
X019165Y004230D01*
X019165Y003930D01*
X019005Y003855D02*
X018705Y003855D01*
X019005Y004155D01*
X019005Y004230D01*
X018930Y004305D01*
X018780Y004305D01*
X018705Y004230D01*
X018705Y007855D02*
X019005Y008155D01*
X019005Y008230D01*
X018930Y008305D01*
X018780Y008305D01*
X018705Y008230D01*
X018705Y007855D02*
X019005Y007855D01*
X019165Y007930D02*
X019466Y008230D01*
X019466Y007930D01*
X019391Y007855D01*
X019240Y007855D01*
X019165Y007930D01*
X019165Y008230D01*
X019240Y008305D01*
X019391Y008305D01*
X019466Y008230D01*
X019391Y011855D02*
X019240Y011855D01*
X019165Y011930D01*
X019466Y012230D01*
X019466Y011930D01*
X019391Y011855D01*
X019165Y011930D02*
X019165Y012230D01*
X019240Y012305D01*
X019391Y012305D01*
X019466Y012230D01*
X019005Y012230D02*
X018930Y012305D01*
X018780Y012305D01*
X018705Y012230D01*
X019005Y012230D02*
X019005Y012155D01*
X018705Y011855D01*
X019005Y011855D01*
X019005Y015855D02*
X018705Y015855D01*
X019005Y016155D01*
X019005Y016230D01*
X018930Y016305D01*
X018780Y016305D01*
X018705Y016230D01*
X019165Y016230D02*
X019165Y015930D01*
X019466Y016230D01*
X019466Y015930D01*
X019391Y015855D01*
X019240Y015855D01*
X019165Y015930D01*
X019165Y016230D02*
X019240Y016305D01*
X019391Y016305D01*
X019466Y016230D01*
X011847Y016230D02*
X011847Y016080D01*
X011772Y016005D01*
X011547Y016005D01*
X011547Y015855D02*
X011547Y016305D01*
X011772Y016305D01*
X011847Y016230D01*
X011386Y016230D02*
X011311Y016305D01*
X011161Y016305D01*
X011086Y016230D01*
X010926Y016305D02*
X010926Y015930D01*
X010851Y015855D01*
X010701Y015855D01*
X010626Y015930D01*
X010626Y016305D01*
X010466Y016230D02*
X010466Y016080D01*
X010391Y016005D01*
X010165Y016005D01*
X010165Y015855D02*
X010165Y016305D01*
X010391Y016305D01*
X010466Y016230D01*
X010005Y016230D02*
X009930Y016305D01*
X009780Y016305D01*
X009705Y016230D01*
X009705Y015930D01*
X009780Y015855D01*
X009930Y015855D01*
X010005Y015930D01*
X011086Y015855D02*
X011386Y016155D01*
X011386Y016230D01*
X011386Y015855D02*
X011086Y015855D01*
X010155Y013505D02*
X010155Y013055D01*
X010005Y013055D02*
X010305Y013055D01*
X010005Y013355D02*
X010155Y013505D01*
X010165Y012305D02*
X010391Y012305D01*
X010466Y012230D01*
X010466Y012080D01*
X010391Y012005D01*
X010165Y012005D01*
X010165Y011855D02*
X010165Y012305D01*
X010005Y012230D02*
X009930Y012305D01*
X009780Y012305D01*
X009705Y012230D01*
X009705Y011930D01*
X009780Y011855D01*
X009930Y011855D01*
X010005Y011930D01*
X010626Y011930D02*
X010626Y012305D01*
X010926Y012305D02*
X010926Y011930D01*
X010851Y011855D01*
X010701Y011855D01*
X010626Y011930D01*
X011086Y011855D02*
X011386Y011855D01*
X011236Y011855D02*
X011236Y012305D01*
X011086Y012155D01*
X011547Y012005D02*
X011772Y012005D01*
X011847Y012080D01*
X011847Y012230D01*
X011772Y012305D01*
X011547Y012305D01*
X011547Y011855D01*
X010155Y009505D02*
X010155Y009055D01*
X010005Y009055D02*
X010305Y009055D01*
X010005Y009355D02*
X010155Y009505D01*
X010316Y008305D02*
X010466Y008155D01*
X010466Y007855D01*
X010466Y008080D02*
X010165Y008080D01*
X010165Y008155D02*
X010316Y008305D01*
X010165Y008155D02*
X010165Y007855D01*
X010005Y007930D02*
X010005Y008230D01*
X009930Y008305D01*
X009705Y008305D01*
X009705Y007855D01*
X009930Y007855D01*
X010005Y007930D01*
X010626Y008305D02*
X010926Y008305D01*
X010776Y008305D02*
X010776Y007855D01*
X011086Y007855D02*
X011386Y008155D01*
X011386Y008230D01*
X011311Y008305D01*
X011161Y008305D01*
X011086Y008230D01*
X011086Y007855D02*
X011386Y007855D01*
X011547Y007855D02*
X011547Y008305D01*
X011772Y008305D01*
X011847Y008230D01*
X011847Y008080D01*
X011772Y008005D01*
X011547Y008005D01*
X010155Y005505D02*
X010155Y005055D01*
X010005Y005055D02*
X010305Y005055D01*
X010005Y005355D02*
X010155Y005505D01*
X010316Y004305D02*
X010466Y004155D01*
X010466Y003855D01*
X010466Y004080D02*
X010165Y004080D01*
X010165Y004155D02*
X010316Y004305D01*
X010165Y004155D02*
X010165Y003855D01*
X010005Y003930D02*
X010005Y004230D01*
X009930Y004305D01*
X009705Y004305D01*
X009705Y003855D01*
X009930Y003855D01*
X010005Y003930D01*
X010626Y004305D02*
X010926Y004305D01*
X010776Y004305D02*
X010776Y003855D01*
X011086Y003855D02*
X011386Y003855D01*
X011236Y003855D02*
X011236Y004305D01*
X011086Y004155D01*
X011547Y004005D02*
X011772Y004005D01*
X011847Y004080D01*
X011847Y004230D01*
X011772Y004305D01*
X011547Y004305D01*
X011547Y003855D01*
X010155Y001505D02*
X010155Y001055D01*
X010005Y001055D02*
X010305Y001055D01*
X010005Y001355D02*
X010155Y001505D01*
X005555Y024684D02*
X005555Y024984D01*
X005555Y024834D02*
X005105Y024834D01*
X005255Y024684D01*
X005180Y025145D02*
X005105Y025220D01*
X005105Y025370D01*
X005180Y025445D01*
X005480Y025145D01*
X005555Y025220D01*
X005555Y025370D01*
X005480Y025445D01*
X005180Y025445D01*
X005180Y025145D02*
X005480Y025145D01*
X006105Y027745D02*
X005955Y027895D01*
X006405Y027895D01*
X006405Y027745D02*
X006405Y028045D01*
X006955Y027970D02*
X006955Y027820D01*
X007030Y027745D01*
X006955Y027970D02*
X007030Y028045D01*
X007105Y028045D01*
X007405Y027745D01*
X007405Y028045D01*
X025105Y025370D02*
X025180Y025445D01*
X025480Y025145D01*
X025555Y025220D01*
X025555Y025370D01*
X025480Y025445D01*
X025180Y025445D01*
X025105Y025370D02*
X025105Y025220D01*
X025180Y025145D01*
X025480Y025145D01*
X025555Y024984D02*
X025555Y024684D01*
X025555Y024834D02*
X025105Y024834D01*
X025255Y024684D01*
X026105Y027745D02*
X025955Y027895D01*
X026405Y027895D01*
X026405Y027745D02*
X026405Y028045D01*
X026955Y027970D02*
X026955Y027820D01*
X027030Y027745D01*
X026955Y027970D02*
X027030Y028045D01*
X027105Y028045D01*
X027405Y027745D01*
X027405Y028045D01*
X051005Y042055D02*
X051305Y042055D01*
X051155Y042055D02*
X051155Y042505D01*
X051005Y042355D01*
X050930Y044855D02*
X050705Y044855D01*
X050705Y045305D01*
X050930Y045305D01*
X051005Y045230D01*
X051005Y045155D01*
X050930Y045080D01*
X050705Y045080D01*
X050930Y045080D02*
X051005Y045005D01*
X051005Y044930D01*
X050930Y044855D01*
X051165Y044855D02*
X051165Y045155D01*
X051316Y045305D01*
X051466Y045155D01*
X051466Y044855D01*
X051626Y044930D02*
X051701Y044855D01*
X051851Y044855D01*
X051926Y044930D01*
X052086Y044855D02*
X052386Y044855D01*
X052236Y044855D02*
X052236Y045305D01*
X052086Y045155D01*
X051926Y045230D02*
X051851Y045305D01*
X051701Y045305D01*
X051626Y045230D01*
X051626Y044930D01*
X051466Y045080D02*
X051165Y045080D01*
X051155Y046055D02*
X051155Y046505D01*
X051005Y046355D01*
X051005Y046055D02*
X051305Y046055D01*
X052547Y045305D02*
X052772Y045305D01*
X052847Y045230D01*
X052847Y045080D01*
X052772Y045005D01*
X052547Y045005D01*
X052547Y044855D02*
X052547Y045305D01*
X052547Y048855D02*
X052547Y049305D01*
X052772Y049305D01*
X052847Y049230D01*
X052847Y049080D01*
X052772Y049005D01*
X052547Y049005D01*
X052386Y048855D02*
X052086Y048855D01*
X052386Y049155D01*
X052386Y049230D01*
X052311Y049305D01*
X052161Y049305D01*
X052086Y049230D01*
X051926Y049230D02*
X051851Y049305D01*
X051701Y049305D01*
X051626Y049230D01*
X051626Y048930D01*
X051701Y048855D01*
X051851Y048855D01*
X051926Y048930D01*
X051466Y048855D02*
X051466Y049155D01*
X051316Y049305D01*
X051165Y049155D01*
X051165Y048855D01*
X051005Y048930D02*
X050930Y048855D01*
X050705Y048855D01*
X050705Y049305D01*
X050930Y049305D01*
X051005Y049230D01*
X051005Y049155D01*
X050930Y049080D01*
X050705Y049080D01*
X050930Y049080D02*
X051005Y049005D01*
X051005Y048930D01*
X051165Y049080D02*
X051466Y049080D01*
X059705Y049230D02*
X059780Y049305D01*
X059930Y049305D01*
X060005Y049230D01*
X060005Y049155D01*
X059705Y048855D01*
X060005Y048855D01*
X060165Y048930D02*
X060466Y049230D01*
X060466Y048930D01*
X060391Y048855D01*
X060240Y048855D01*
X060165Y048930D01*
X060165Y049230D01*
X060240Y049305D01*
X060391Y049305D01*
X060466Y049230D01*
X060391Y045305D02*
X060466Y045230D01*
X060165Y044930D01*
X060240Y044855D01*
X060391Y044855D01*
X060466Y044930D01*
X060466Y045230D01*
X060391Y045305D02*
X060240Y045305D01*
X060165Y045230D01*
X060165Y044930D01*
X060005Y044855D02*
X059705Y044855D01*
X060005Y045155D01*
X060005Y045230D01*
X059930Y045305D01*
X059780Y045305D01*
X059705Y045230D01*
D14*
X048670Y047190D02*
X048450Y047190D01*
X048450Y047300D01*
X048487Y047337D01*
X048560Y047337D01*
X048597Y047300D01*
X048597Y047190D01*
X048597Y047263D02*
X048670Y047337D01*
X048670Y047411D02*
X048670Y047558D01*
X048670Y047484D02*
X048450Y047484D01*
X048523Y047411D01*
X048487Y047632D02*
X048450Y047669D01*
X048450Y047742D01*
X048487Y047779D01*
X048633Y047632D01*
X048670Y047669D01*
X048670Y047742D01*
X048633Y047779D01*
X048487Y047779D01*
X048487Y047632D02*
X048633Y047632D01*
X047170Y047521D02*
X047133Y047558D01*
X046987Y047558D01*
X046950Y047521D01*
X046950Y047448D01*
X046987Y047411D01*
X047023Y047411D01*
X047060Y047448D01*
X047060Y047558D01*
X047170Y047521D02*
X047170Y047448D01*
X047133Y047411D01*
X047170Y047337D02*
X047097Y047263D01*
X047097Y047300D02*
X047097Y047190D01*
X047170Y047190D02*
X046950Y047190D01*
X046950Y047300D01*
X046987Y047337D01*
X047060Y047337D01*
X047097Y047300D01*
X045670Y047337D02*
X045597Y047263D01*
X045597Y047300D02*
X045597Y047190D01*
X045670Y047190D02*
X045450Y047190D01*
X045450Y047300D01*
X045487Y047337D01*
X045560Y047337D01*
X045597Y047300D01*
X045597Y047411D02*
X045560Y047448D01*
X045560Y047521D01*
X045597Y047558D01*
X045633Y047558D01*
X045670Y047521D01*
X045670Y047448D01*
X045633Y047411D01*
X045597Y047411D01*
X045560Y047448D02*
X045523Y047411D01*
X045487Y047411D01*
X045450Y047448D01*
X045450Y047521D01*
X045487Y047558D01*
X045523Y047558D01*
X045560Y047521D01*
X044170Y047411D02*
X044133Y047411D01*
X043987Y047558D01*
X043950Y047558D01*
X043950Y047411D01*
X043987Y047337D02*
X044060Y047337D01*
X044097Y047300D01*
X044097Y047190D01*
X044170Y047190D02*
X043950Y047190D01*
X043950Y047300D01*
X043987Y047337D01*
X044097Y047263D02*
X044170Y047337D01*
X042670Y047337D02*
X042597Y047263D01*
X042597Y047300D02*
X042597Y047190D01*
X042670Y047190D02*
X042450Y047190D01*
X042450Y047300D01*
X042487Y047337D01*
X042560Y047337D01*
X042597Y047300D01*
X042633Y047411D02*
X042670Y047448D01*
X042670Y047521D01*
X042633Y047558D01*
X042597Y047558D01*
X042560Y047521D01*
X042560Y047411D01*
X042633Y047411D01*
X042560Y047411D02*
X042487Y047484D01*
X042450Y047558D01*
X041170Y047521D02*
X041170Y047448D01*
X041133Y047411D01*
X041060Y047411D02*
X041023Y047484D01*
X041023Y047521D01*
X041060Y047558D01*
X041133Y047558D01*
X041170Y047521D01*
X041060Y047411D02*
X040950Y047411D01*
X040950Y047558D01*
X040987Y047337D02*
X041060Y047337D01*
X041097Y047300D01*
X041097Y047190D01*
X041170Y047190D02*
X040950Y047190D01*
X040950Y047300D01*
X040987Y047337D01*
X041097Y047263D02*
X041170Y047337D01*
X028616Y040133D02*
X028469Y039987D01*
X028506Y039950D01*
X028579Y039950D01*
X028616Y039987D01*
X028616Y040133D01*
X028579Y040170D01*
X028506Y040170D01*
X028469Y040133D01*
X028469Y039987D01*
X028395Y039950D02*
X028248Y039950D01*
X028395Y040097D01*
X028395Y040133D01*
X028358Y040170D01*
X028285Y040170D01*
X028248Y040133D01*
X028174Y040133D02*
X028137Y040170D01*
X028064Y040170D01*
X028027Y040133D01*
X028027Y039987D01*
X028064Y039950D01*
X028137Y039950D01*
X028174Y039987D01*
X028030Y028780D02*
X025330Y028780D01*
X025330Y025980D01*
X025330Y024380D02*
X025330Y023980D01*
X025330Y023380D02*
X025330Y021580D01*
X028030Y021580D01*
X028030Y028780D01*
X008030Y028780D02*
X008030Y021580D01*
X005330Y021580D01*
X005330Y023380D01*
X005330Y023980D02*
X005330Y024380D01*
X005330Y025980D02*
X005330Y028780D01*
X008030Y028780D01*
X008227Y012616D02*
X008190Y012579D01*
X008190Y012506D01*
X008227Y012469D01*
X008263Y012469D01*
X008300Y012506D01*
X008300Y012616D01*
X008373Y012616D02*
X008227Y012616D01*
X008373Y012616D02*
X008410Y012579D01*
X008410Y012506D01*
X008373Y012469D01*
X008410Y012395D02*
X008410Y012248D01*
X008410Y012321D02*
X008190Y012321D01*
X008263Y012248D01*
X008227Y012174D02*
X008190Y012137D01*
X008190Y012064D01*
X008227Y012027D01*
X008373Y012027D01*
X008410Y012064D01*
X008410Y012137D01*
X008373Y012174D01*
X007410Y012248D02*
X007190Y012248D01*
X007190Y012358D01*
X007227Y012395D01*
X007300Y012395D01*
X007337Y012358D01*
X007337Y012248D01*
X007337Y012321D02*
X007410Y012395D01*
X007300Y012469D02*
X007300Y012616D01*
X007410Y012579D02*
X007190Y012579D01*
X007300Y012469D01*
X005910Y012506D02*
X005873Y012469D01*
X005910Y012506D02*
X005910Y012579D01*
X005873Y012616D01*
X005837Y012616D01*
X005800Y012579D01*
X005800Y012542D01*
X005800Y012579D02*
X005763Y012616D01*
X005727Y012616D01*
X005690Y012579D01*
X005690Y012506D01*
X005727Y012469D01*
X005727Y012395D02*
X005800Y012395D01*
X005837Y012358D01*
X005837Y012248D01*
X005910Y012248D02*
X005690Y012248D01*
X005690Y012358D01*
X005727Y012395D01*
X005837Y012321D02*
X005910Y012395D01*
X050950Y016690D02*
X050950Y016800D01*
X050987Y016837D01*
X051060Y016837D01*
X051097Y016800D01*
X051097Y016690D01*
X051170Y016690D02*
X050950Y016690D01*
X051097Y016763D02*
X051170Y016837D01*
X051170Y016911D02*
X051023Y017058D01*
X050987Y017058D01*
X050950Y017021D01*
X050950Y016948D01*
X050987Y016911D01*
X051170Y016911D02*
X051170Y017058D01*
X052700Y016984D02*
X052920Y016984D01*
X052920Y016911D02*
X052920Y017058D01*
X052773Y016911D02*
X052700Y016984D01*
X052737Y016837D02*
X052810Y016837D01*
X052847Y016800D01*
X052847Y016690D01*
X052920Y016690D02*
X052700Y016690D01*
X052700Y016800D01*
X052737Y016837D01*
X052847Y016763D02*
X052920Y016837D01*
D15*
X031479Y032015D02*
X031481Y032049D01*
X031487Y032083D01*
X031497Y032116D01*
X031510Y032147D01*
X031528Y032177D01*
X031548Y032205D01*
X031572Y032230D01*
X031598Y032252D01*
X031626Y032270D01*
X031657Y032286D01*
X031689Y032298D01*
X031723Y032306D01*
X031757Y032310D01*
X031791Y032310D01*
X031825Y032306D01*
X031859Y032298D01*
X031891Y032286D01*
X031921Y032270D01*
X031950Y032252D01*
X031976Y032230D01*
X032000Y032205D01*
X032020Y032177D01*
X032038Y032147D01*
X032051Y032116D01*
X032061Y032083D01*
X032067Y032049D01*
X032069Y032015D01*
X032067Y031981D01*
X032061Y031947D01*
X032051Y031914D01*
X032038Y031883D01*
X032020Y031853D01*
X032000Y031825D01*
X031976Y031800D01*
X031950Y031778D01*
X031922Y031760D01*
X031891Y031744D01*
X031859Y031732D01*
X031825Y031724D01*
X031791Y031720D01*
X031757Y031720D01*
X031723Y031724D01*
X031689Y031732D01*
X031657Y031744D01*
X031626Y031760D01*
X031598Y031778D01*
X031572Y031800D01*
X031548Y031825D01*
X031528Y031853D01*
X031510Y031883D01*
X031497Y031914D01*
X031487Y031947D01*
X031481Y031981D01*
X031479Y032015D01*
X026680Y037180D02*
X022680Y037180D01*
X022636Y037182D01*
X022593Y037188D01*
X022551Y037197D01*
X022509Y037210D01*
X022469Y037227D01*
X022430Y037247D01*
X022393Y037270D01*
X022359Y037297D01*
X022326Y037326D01*
X022297Y037359D01*
X022270Y037393D01*
X022247Y037430D01*
X022227Y037469D01*
X022210Y037509D01*
X022197Y037551D01*
X022188Y037593D01*
X022182Y037636D01*
X022180Y037680D01*
X022180Y045180D01*
X026680Y045180D01*
X026780Y045280D02*
X022080Y045280D01*
X022080Y040580D01*
X022082Y040536D01*
X022088Y040493D01*
X022097Y040451D01*
X022110Y040409D01*
X022127Y040369D01*
X022147Y040330D01*
X022170Y040293D01*
X022197Y040259D01*
X022226Y040226D01*
X022259Y040197D01*
X022293Y040170D01*
X022330Y040147D01*
X022369Y040127D01*
X022409Y040110D01*
X022451Y040097D01*
X022493Y040088D01*
X022536Y040082D01*
X022580Y040080D01*
X026780Y040080D01*
X026824Y040082D01*
X026867Y040088D01*
X026909Y040097D01*
X026951Y040110D01*
X026991Y040127D01*
X027030Y040147D01*
X027067Y040170D01*
X027101Y040197D01*
X027134Y040226D01*
X027163Y040259D01*
X027190Y040293D01*
X027213Y040330D01*
X027233Y040369D01*
X027250Y040409D01*
X027263Y040451D01*
X027272Y040493D01*
X027278Y040536D01*
X027280Y040580D01*
X027280Y044780D01*
X027180Y044680D02*
X027180Y037680D01*
X027178Y037636D01*
X027172Y037593D01*
X027163Y037551D01*
X027150Y037509D01*
X027133Y037469D01*
X027113Y037430D01*
X027090Y037393D01*
X027063Y037359D01*
X027034Y037326D01*
X027001Y037297D01*
X026967Y037270D01*
X026930Y037247D01*
X026891Y037227D01*
X026851Y037210D01*
X026809Y037197D01*
X026767Y037188D01*
X026724Y037182D01*
X026680Y037180D01*
X027180Y044680D02*
X027178Y044724D01*
X027172Y044767D01*
X027163Y044809D01*
X027150Y044851D01*
X027133Y044891D01*
X027113Y044930D01*
X027090Y044967D01*
X027063Y045001D01*
X027034Y045034D01*
X027001Y045063D01*
X026967Y045090D01*
X026930Y045113D01*
X026891Y045133D01*
X026851Y045150D01*
X026809Y045163D01*
X026767Y045172D01*
X026724Y045178D01*
X026680Y045180D01*
X026780Y045280D02*
X026824Y045278D01*
X026867Y045272D01*
X026909Y045263D01*
X026951Y045250D01*
X026991Y045233D01*
X027030Y045213D01*
X027067Y045190D01*
X027101Y045163D01*
X027134Y045134D01*
X027163Y045101D01*
X027190Y045067D01*
X027213Y045030D01*
X027233Y044991D01*
X027250Y044951D01*
X027263Y044909D01*
X027272Y044867D01*
X027278Y044824D01*
X027280Y044780D01*
X011479Y032015D02*
X011481Y032049D01*
X011487Y032083D01*
X011497Y032116D01*
X011510Y032147D01*
X011528Y032177D01*
X011548Y032205D01*
X011572Y032230D01*
X011598Y032252D01*
X011626Y032270D01*
X011657Y032286D01*
X011689Y032298D01*
X011723Y032306D01*
X011757Y032310D01*
X011791Y032310D01*
X011825Y032306D01*
X011859Y032298D01*
X011891Y032286D01*
X011921Y032270D01*
X011950Y032252D01*
X011976Y032230D01*
X012000Y032205D01*
X012020Y032177D01*
X012038Y032147D01*
X012051Y032116D01*
X012061Y032083D01*
X012067Y032049D01*
X012069Y032015D01*
X012067Y031981D01*
X012061Y031947D01*
X012051Y031914D01*
X012038Y031883D01*
X012020Y031853D01*
X012000Y031825D01*
X011976Y031800D01*
X011950Y031778D01*
X011922Y031760D01*
X011891Y031744D01*
X011859Y031732D01*
X011825Y031724D01*
X011791Y031720D01*
X011757Y031720D01*
X011723Y031724D01*
X011689Y031732D01*
X011657Y031744D01*
X011626Y031760D01*
X011598Y031778D01*
X011572Y031800D01*
X011548Y031825D01*
X011528Y031853D01*
X011510Y031883D01*
X011497Y031914D01*
X011487Y031947D01*
X011481Y031981D01*
X011479Y032015D01*
D16*
X025680Y040810D02*
X026180Y040810D01*
X026680Y040810D01*
X026680Y041060D02*
X026680Y041310D01*
X025680Y041310D01*
X025680Y041060D01*
X026680Y041060D01*
X026680Y041550D02*
X026180Y041550D01*
X025680Y041550D01*
X025680Y042310D02*
X026180Y042310D01*
X026680Y042310D01*
X026680Y042560D02*
X026680Y042810D01*
X025680Y042810D01*
X025680Y042560D01*
X026680Y042560D01*
X026680Y043050D02*
X026180Y043050D01*
X025680Y043050D01*
D17*
X028820Y028991D02*
X028714Y028886D01*
X028714Y028676D01*
X028820Y028570D01*
X028820Y028346D02*
X028714Y028241D01*
X028714Y028031D01*
X028820Y027926D01*
X029240Y027926D01*
X029345Y028031D01*
X029345Y028241D01*
X029240Y028346D01*
X029030Y028346D01*
X029030Y028136D01*
X029240Y027702D02*
X028820Y027702D01*
X028714Y027597D01*
X028714Y027386D01*
X028820Y027281D01*
X029240Y027281D01*
X029345Y027386D01*
X029345Y027597D01*
X029240Y027702D01*
X029345Y028570D02*
X028925Y028991D01*
X028820Y028991D01*
X029345Y028991D02*
X029345Y028570D01*
X029345Y027057D02*
X029135Y026847D01*
X029135Y026952D02*
X029135Y026637D01*
X029345Y026637D02*
X028714Y026637D01*
X028714Y026952D01*
X028820Y027057D01*
X029030Y027057D01*
X029135Y026952D01*
X029030Y026413D02*
X028820Y026413D01*
X028714Y026308D01*
X028714Y025992D01*
X029345Y025992D01*
X029135Y025992D02*
X029135Y026308D01*
X029030Y026413D01*
X009345Y026637D02*
X008714Y026637D01*
X008714Y026952D01*
X008820Y027057D01*
X009030Y027057D01*
X009135Y026952D01*
X009135Y026637D01*
X009135Y026847D02*
X009345Y027057D01*
X009240Y027281D02*
X008820Y027281D01*
X008714Y027386D01*
X008714Y027597D01*
X008820Y027702D01*
X009240Y027702D01*
X009345Y027597D01*
X009345Y027386D01*
X009240Y027281D01*
X009240Y027926D02*
X008820Y027926D01*
X008714Y028031D01*
X008714Y028241D01*
X008820Y028346D01*
X009030Y028346D02*
X009030Y028136D01*
X009030Y028346D02*
X009240Y028346D01*
X009345Y028241D01*
X009345Y028031D01*
X009240Y027926D01*
X009345Y028570D02*
X009345Y028991D01*
X009345Y028781D02*
X008714Y028781D01*
X008925Y028570D01*
X009030Y026413D02*
X009135Y026308D01*
X009135Y025992D01*
X009345Y025992D02*
X008714Y025992D01*
X008714Y026308D01*
X008820Y026413D01*
X009030Y026413D01*
D18*
X011412Y031597D02*
X011412Y036763D01*
X018944Y036763D01*
X018944Y031597D01*
X011412Y031597D01*
X031412Y031597D02*
X031412Y036763D01*
X038944Y036763D01*
X038944Y031597D01*
X031412Y031597D01*
D19*
X003688Y013377D02*
X003688Y013377D01*
X003686Y013385D01*
X003682Y013391D01*
X003676Y013395D01*
X003668Y013397D01*
X003660Y013395D01*
X003654Y013391D01*
X003650Y013385D01*
X003648Y013377D01*
X003649Y013377D02*
X003649Y013377D01*
X003648Y013377D02*
X003650Y013369D01*
X003654Y013363D01*
X003660Y013359D01*
X003668Y013357D01*
X003676Y013359D01*
X003682Y013363D01*
X003686Y013369D01*
X003688Y013377D01*
D20*
X002704Y014940D02*
X002231Y014940D01*
X001129Y014940D02*
X000656Y014940D01*
X000656Y011420D01*
X001129Y011420D01*
X002231Y011420D02*
X002704Y011420D01*
M02*
