%
M48
M72
T01C0.0236
T02C0.0276
T03C0.0320
T04C0.0360
T05C0.0400
T06C0.0528
T07C0.1260
%
T01
X35680Y25180
T02
X25180Y34180
X12620Y38180
T03
X12680Y36180
X11680Y35680
X12930Y34430
X11680Y33680
X12680Y32180
X14680Y32180
X16180Y33180
X16680Y32180
X17930Y32430
X18180Y33180
X18680Y33680
X18180Y34180
X18680Y35180
X18180Y36180
X16180Y36180
X15430Y36180
X14680Y36180
X8180Y40180
X8180Y41180
X7180Y35680
X6680Y35180
X6180Y34680
X7680Y33180
X6680Y31680
X7180Y31180
X8680Y30680
X9180Y30180
X10680Y23680
X12424Y23645
X18680Y25680
X20680Y31180
X21180Y31680
X21680Y32180
X22180Y32680
X22680Y33180
X23180Y33680
X24180Y33680
X28180Y31180
X28680Y30680
X29180Y30180
X32180Y32680
X31680Y34180
X32180Y35680
X31680Y36180
X32930Y36680
X34180Y35680
X34180Y33680
X34180Y32180
X36180Y32180
X36680Y32680
X38680Y32680
X36680Y34180
X38680Y34680
X36680Y35680
X38680Y36180
X36180Y41180
X35680Y41680
X34680Y41430
X34180Y41930
X33680Y42430
X32680Y42180
X32180Y41680
X31680Y42180
X30680Y42680
X26180Y41180
X24680Y39680
X24180Y40180
X23680Y40680
X23180Y41180
X22180Y41180
X21680Y41680
X21180Y42180
X20680Y42680
X20180Y43180
X23180Y44180
X23180Y44180
X26180Y44180
X26180Y44180
X25180Y39180
X25680Y38680
X26180Y38180
X25680Y37180
X24680Y37680
X23180Y38180
X37180Y41430
X38180Y42180
X41680Y45180
X43180Y45680
X44680Y46180
X50180Y46680
X52180Y38180
X53180Y38180
X54180Y38180
X55180Y38180
X56180Y38180
X57180Y38180
X58180Y38180
X59180Y38180
X60180Y38180
X61180Y38180
X62180Y38180
X63180Y38180
X64180Y38180
X65180Y38180
X65180Y36680
X64180Y36680
X63180Y36680
X62180Y36680
X61180Y36680
X60180Y36680
X59180Y36680
X58180Y36680
X57180Y36680
X56180Y36680
X55180Y36680
X54180Y36680
X53180Y36680
X52180Y36680
X49180Y36680
X48180Y34180
X48680Y33180
X48180Y32680
X52180Y32180
X53180Y32180
X54180Y32180
X55180Y32180
X56180Y32180
X57180Y32180
X58180Y32180
X59180Y32180
X60180Y32180
X61180Y32180
X62180Y32180
X63180Y32180
X64180Y32180
X65180Y32180
X65180Y33680
X64180Y33680
X63180Y33680
X62180Y33680
X61180Y33680
X60180Y33680
X59180Y33680
X58180Y33680
X57180Y33680
X56180Y33680
X55180Y33680
X54180Y33680
X53180Y33680
X52180Y33680
X52180Y29180
X53180Y29180
X54180Y29180
X55180Y29180
X56180Y29180
X57180Y29180
X58180Y29180
X59180Y29180
X60180Y29180
X61180Y29180
X62180Y29180
X63180Y29180
X64180Y29180
X65180Y29180
X65180Y27680
X64180Y27680
X63180Y27680
X62180Y27680
X61180Y27680
X60180Y27680
X59180Y27680
X58180Y27680
X57180Y27680
X56180Y27680
X55180Y27680
X54180Y27680
X53180Y27680
X52180Y27680
X54180Y25930
X54180Y24680
X55180Y24680
X56180Y24680
X57180Y24680
X58180Y24680
X59180Y24680
X60180Y24680
X61180Y24680
X62180Y24680
X63180Y24680
X64180Y24680
X65180Y24680
X65180Y23180
X64180Y23180
X63180Y23180
X62180Y23180
X61180Y23180
X60180Y23180
X59180Y23180
X58180Y23180
X57180Y23180
X56180Y23180
X55180Y23180
X54180Y23180
X53180Y23180
X52180Y23180
X52180Y24680
X53180Y24680
X49180Y27680
X53180Y21180
X52680Y19180
X52180Y18680
X53180Y18680
X54180Y18680
X54680Y18180
X56680Y17680
X60680Y17680
X50680Y18680
X50180Y18180
X42180Y15180
X38180Y16180
X37180Y16680
X36180Y17180
X35180Y17680
X34180Y18180
X31180Y16680
X30180Y16180
X30180Y21180
X32680Y21180
X32680Y22680
X29180Y24680
X18180Y16180
X17180Y16180
X16180Y16180
X12180Y16180
X11180Y16180
X10180Y16180
X7180Y11180
X6680Y10680
X9680Y4680
X9180Y4180
X8680Y3680
X6680Y3180
X6180Y2680
X5680Y2180
X42180Y8180
X63680Y41680
X63180Y42180
X62680Y42680
T04
X27180Y27180
X26180Y27180
X26180Y26180
X26180Y25180
X27180Y25180
X27180Y26180
X27180Y24180
X26180Y24180
X26180Y23180
X27180Y23180
X7180Y23180
X7180Y24180
X7180Y25180
X7180Y26180
X7180Y27180
X6180Y27180
X6180Y26180
X6180Y25180
X6180Y24180
X6180Y23180
T05
X10180Y15180
X11180Y15180
X11180Y14180
X10180Y14180
X12180Y14180
X13180Y14180
X13180Y15180
X12180Y15180
X14180Y15180
X15180Y15180
X16180Y15180
X16180Y14180
X15180Y14180
X14180Y14180
X17180Y14180
X18180Y14180
X18180Y15180
X17180Y15180
X19180Y15180
X19180Y14180
X19180Y11180
X19180Y10180
X18180Y10180
X17180Y10180
X17180Y11180
X18180Y11180
X16180Y11180
X15180Y11180
X14180Y11180
X14180Y10180
X15180Y10180
X16180Y10180
X13180Y10180
X12180Y10180
X12180Y11180
X13180Y11180
X11180Y11180
X10180Y11180
X10180Y10180
X11180Y10180
X11180Y7180
X10180Y7180
X10180Y6180
X11180Y6180
X12180Y6180
X13180Y6180
X13180Y7180
X12180Y7180
X14180Y7180
X15180Y7180
X16180Y7180
X16180Y6180
X15180Y6180
X14180Y6180
X17180Y6180
X18180Y6180
X18180Y7180
X17180Y7180
X19180Y7180
X19180Y6180
X19180Y3180
X19180Y2180
X18180Y2180
X17180Y2180
X17180Y3180
X18180Y3180
X16180Y3180
X15180Y3180
X14180Y3180
X14180Y2180
X15180Y2180
X16180Y2180
X13180Y2180
X12180Y2180
X12180Y3180
X13180Y3180
X11180Y3180
X10180Y3180
X10180Y2180
X11180Y2180
X30180Y2180
X30180Y3180
X31180Y3180
X32180Y3180
X32180Y2180
X31180Y2180
X33180Y2180
X34180Y2180
X34180Y3180
X33180Y3180
X35180Y3180
X36180Y3180
X37180Y3180
X37180Y2180
X36180Y2180
X35180Y2180
X38180Y2180
X39180Y2180
X39180Y3180
X38180Y3180
X38180Y10180
X39180Y10180
X39180Y11180
X38180Y11180
X37180Y11180
X36180Y11180
X35180Y11180
X35180Y10180
X36180Y10180
X37180Y10180
X34180Y10180
X33180Y10180
X33180Y11180
X34180Y11180
X32180Y11180
X31180Y11180
X31180Y10180
X32180Y10180
X30180Y10180
X30180Y11180
X30180Y14180
X30180Y15180
X31180Y15180
X32180Y15180
X32180Y14180
X31180Y14180
X33180Y14180
X34180Y14180
X34180Y15180
X33180Y15180
X35180Y15180
X36180Y15180
X37180Y15180
X37180Y14180
X36180Y14180
X35180Y14180
X38180Y14180
X39180Y14180
X39180Y15180
X38180Y15180
X41180Y21180
X42180Y21180
X42180Y22180
X41180Y22180
X43180Y22180
X44180Y22180
X44180Y21180
X43180Y21180
X45180Y21180
X46180Y21180
X46180Y22180
X45180Y22180
X47180Y22180
X48180Y22180
X48180Y21180
X47180Y21180
X51180Y15180
X51180Y14180
X52180Y14180
X53180Y14180
X53180Y15180
X52180Y15180
X54180Y15180
X55180Y15180
X56180Y15180
X56180Y14180
X55180Y14180
X54180Y14180
X57180Y14180
X58180Y14180
X58180Y15180
X57180Y15180
X59180Y15180
X60180Y15180
X60180Y14180
X59180Y14180
X59180Y11180
X60180Y11180
X60180Y10180
X59180Y10180
X58180Y10180
X57180Y10180
X57180Y11180
X58180Y11180
X56180Y11180
X55180Y11180
X54180Y11180
X54180Y10180
X55180Y10180
X56180Y10180
X53180Y10180
X52180Y10180
X52180Y11180
X53180Y11180
X51180Y11180
X51180Y10180
X51180Y7180
X51180Y6180
X52180Y6180
X53180Y6180
X53180Y7180
X52180Y7180
X54180Y7180
X55180Y7180
X56180Y7180
X56180Y6180
X55180Y6180
X54180Y6180
X57180Y6180
X58180Y6180
X58180Y7180
X57180Y7180
X59180Y7180
X60180Y7180
X60180Y6180
X59180Y6180
X59180Y3180
X60180Y3180
X60180Y2180
X59180Y2180
X58180Y2180
X57180Y2180
X57180Y3180
X58180Y3180
X56180Y3180
X55180Y3180
X54180Y3180
X54180Y2180
X55180Y2180
X56180Y2180
X53180Y2180
X52180Y2180
X52180Y3180
X53180Y3180
X51180Y3180
X51180Y2180
X51180Y43180
X51180Y44180
X52180Y44180
X53180Y44180
X53180Y43180
X52180Y43180
X54180Y43180
X55180Y43180
X56180Y43180
X56180Y44180
X55180Y44180
X54180Y44180
X57180Y44180
X58180Y44180
X58180Y43180
X57180Y43180
X59180Y43180
X60180Y43180
X60180Y44180
X59180Y44180
X59180Y47180
X60180Y47180
X60180Y48180
X59180Y48180
X58180Y48180
X57180Y48180
X57180Y47180
X58180Y47180
X56180Y47180
X55180Y47180
X54180Y47180
X54180Y48180
X55180Y48180
X56180Y48180
X53180Y48180
X52180Y48180
X52180Y47180
X53180Y47180
X51180Y47180
X51180Y48180
X39180Y48180
X38180Y48180
X38180Y47180
X39180Y47180
X37180Y47180
X36180Y47180
X35180Y47180
X35180Y48180
X36180Y48180
X37180Y48180
X34180Y48180
X33180Y48180
X33180Y47180
X34180Y47180
X32180Y47180
X31180Y47180
X31180Y48180
X32180Y48180
X30180Y48180
X30180Y47180
X30180Y44180
X30180Y43180
X31180Y43180
X32180Y43180
X32180Y44180
X31180Y44180
X33180Y44180
X34180Y44180
X34180Y43180
X33180Y43180
X35180Y43180
X36180Y43180
X37180Y43180
X37180Y44180
X36180Y44180
X35180Y44180
X38180Y44180
X39180Y44180
X39180Y43180
X38180Y43180
X19180Y43180
X19180Y44180
X18180Y44180
X17180Y44180
X17180Y43180
X18180Y43180
X16180Y43180
X15180Y43180
X14180Y43180
X14180Y44180
X15180Y44180
X16180Y44180
X13180Y44180
X12180Y44180
X12180Y43180
X13180Y43180
X11180Y43180
X10180Y43180
X10180Y44180
X11180Y44180
X11180Y47180
X10180Y47180
X10180Y48180
X11180Y48180
X12180Y48180
X13180Y48180
X13180Y47180
X12180Y47180
X14180Y47180
X15180Y47180
X16180Y47180
X16180Y48180
X15180Y48180
X14180Y48180
X17180Y48180
X18180Y48180
X18180Y47180
X17180Y47180
X19180Y47180
X19180Y48180
T06
X3176Y14881
X1680Y14881
X1680Y11479
X3176Y11479
T07
X2180Y2180
X2180Y48180
X68180Y48180
X68180Y2180
M30
