%
M48
M72
T01C0.0320
T02C0.0400
T03C0.1250
%
T01
X8500Y2500
X8500Y3500
X11000Y5000
X12500Y3500
X12500Y2500
X14000Y5000
X14000Y7000
X11000Y7000
X8000Y7000
X8000Y6000
X11000Y9000
X14000Y9000
X14000Y11000
X11000Y11000
X8000Y12000
X11000Y13500
X14000Y13500
X14000Y16000
X11000Y16000
X8000Y17000
X11000Y18500
X14000Y18500
X14000Y20500
X11000Y20500
X8000Y21000
X8000Y19500
X11000Y22500
X14000Y22500
X8000Y23500
X25500Y23000
X26000Y21500
X28500Y21000
X28000Y19500
X30500Y19500
X32000Y19000
X33500Y19000
X36000Y20000
X36500Y19000
X33500Y21000
X32000Y23000
X28500Y23000
X31000Y17000
X31000Y16000
X28500Y9500
X27500Y9500
X25500Y9000
X25500Y8000
X29500Y7500
X31000Y8000
X30000Y9000
X33500Y9500
X33500Y7500
X36500Y7500
X30500Y5500
X8000Y9500
X8000Y14500
T02
X18500Y14500
X19500Y14500
X20500Y14500
X21500Y14500
X22500Y14500
X22500Y16500
X21500Y16500
X20500Y16500
X19500Y16500
X18500Y16500
X18500Y19500
X19500Y19500
X20500Y19500
X21500Y19500
X22500Y19500
X22500Y21500
X21500Y21500
X20500Y21500
X19500Y21500
X18500Y21500
X18500Y23500
X19500Y23500
X20500Y23500
X21500Y23500
X22500Y23500
X41500Y17500
X42500Y17500
X42500Y16500
X41500Y16500
X41500Y15500
X42500Y15500
X42500Y14500
X41500Y14500
X41500Y13500
X42500Y13500
X42500Y12500
X41500Y12500
X41500Y11500
X42500Y11500
X42500Y10500
X41500Y10500
X41500Y9500
X42500Y9500
X42500Y8500
X41500Y8500
X22500Y7500
X21500Y7500
X20500Y7500
X19500Y7500
X18500Y7500
X18500Y5500
X19500Y5500
X20500Y5500
X21500Y5500
X22500Y5500
X22500Y9500
X21500Y9500
X20500Y9500
X19500Y9500
X18500Y9500
X18500Y11500
X19500Y11500
X20500Y11500
X21500Y11500
X22500Y11500
T03
X48000Y2750
X48000Y22750
M30
