G75*
%MOIN*%
%OFA0B0*%
%FSLAX24Y24*%
%IPPOS*%
%LPD*%
%AMOC8*
5,1,8,0,0,1.08239X$1,22.5*
%
%ADD10R,0.5320X0.0960*%
%ADD11C,0.1500*%
%ADD12OC8,0.0720*%
%ADD13OC8,0.0624*%
%ADD14C,0.0576*%
D10*
X003625Y002125D03*
X003625Y003375D03*
X003625Y004625D03*
X003625Y005875D03*
X003625Y007125D03*
X003625Y008375D03*
X003625Y009625D03*
X003625Y010875D03*
X003625Y012125D03*
X003625Y013375D03*
X003625Y014625D03*
X003625Y015875D03*
X003625Y017125D03*
X003625Y018375D03*
X003625Y019625D03*
X003625Y020875D03*
X003625Y022125D03*
X003625Y023375D03*
D11*
X048000Y022750D03*
X048000Y002750D03*
D12*
X042500Y008500D03*
X041500Y008500D03*
X041500Y009500D03*
X042500Y009500D03*
X042500Y010500D03*
X041500Y010500D03*
X041500Y011500D03*
X042500Y011500D03*
X042500Y012500D03*
X041500Y012500D03*
X041500Y013500D03*
X042500Y013500D03*
X042500Y014500D03*
X041500Y014500D03*
X041500Y015500D03*
X042500Y015500D03*
X042500Y016500D03*
X041500Y016500D03*
X041500Y017500D03*
X042500Y017500D03*
X022500Y016500D03*
X021500Y016500D03*
X020500Y016500D03*
X019500Y016500D03*
X018500Y016500D03*
X018500Y014500D03*
X019500Y014500D03*
X020500Y014500D03*
X021500Y014500D03*
X022500Y014500D03*
X022500Y011500D03*
X021500Y011500D03*
X020500Y011500D03*
X019500Y011500D03*
X018500Y011500D03*
X018500Y009500D03*
X019500Y009500D03*
X020500Y009500D03*
X021500Y009500D03*
X022500Y009500D03*
X022500Y007500D03*
X021500Y007500D03*
X020500Y007500D03*
X019500Y007500D03*
X018500Y007500D03*
X018500Y005500D03*
X019500Y005500D03*
X020500Y005500D03*
X021500Y005500D03*
X022500Y005500D03*
X022500Y019500D03*
X021500Y019500D03*
X020500Y019500D03*
X019500Y019500D03*
X018500Y019500D03*
X018500Y021500D03*
X019500Y021500D03*
X020500Y021500D03*
X021500Y021500D03*
X022500Y021500D03*
X022500Y023500D03*
X021500Y023500D03*
X020500Y023500D03*
X019500Y023500D03*
X018500Y023500D03*
D13*
X033500Y021000D03*
X033500Y019000D03*
X033500Y009500D03*
X033500Y007500D03*
X012500Y003500D03*
X012500Y002500D03*
X008500Y002500D03*
X008500Y003500D03*
D14*
X011000Y005000D03*
X014000Y005000D03*
X014000Y007000D03*
X011000Y007000D03*
X008000Y007000D03*
X008000Y006000D03*
X011000Y009000D03*
X014000Y009000D03*
X014000Y011000D03*
X011000Y011000D03*
X008000Y012000D03*
X011000Y013500D03*
X014000Y013500D03*
X014000Y016000D03*
X011000Y016000D03*
X008000Y017000D03*
X011000Y018500D03*
X014000Y018500D03*
X014000Y020500D03*
X011000Y020500D03*
X008000Y021000D03*
X008000Y019500D03*
X011000Y022500D03*
X014000Y022500D03*
X008000Y023500D03*
X025500Y023000D03*
X026000Y021500D03*
X028500Y021000D03*
X028000Y019500D03*
X030500Y019500D03*
X032000Y019000D03*
X031000Y017000D03*
X031000Y016000D03*
X036500Y019000D03*
X036000Y020000D03*
X032000Y023000D03*
X028500Y023000D03*
X008000Y014500D03*
X008000Y009500D03*
X025500Y009000D03*
X025500Y008000D03*
X027500Y009500D03*
X028500Y009500D03*
X030000Y009000D03*
X031000Y008000D03*
X029500Y007500D03*
X030500Y005500D03*
X036500Y007500D03*
M02*
