G75*
%MOIN*%
%OFA0B0*%
%FSLAX24Y24*%
%IPPOS*%
%LPD*%
%AMOC8*
5,1,8,0,0,1.08239X$1,22.5*
%
%ADD10C,0.0170*%
%ADD11R,0.5160X0.0800*%
%ADD12OC8,0.0600*%
%ADD13OC8,0.0520*%
%ADD14C,0.0320*%
%ADD15C,0.0480*%
D10*
X036144Y001185D02*
X036321Y001185D01*
X036410Y001273D01*
X036410Y001450D01*
X036321Y001539D01*
X036144Y001539D01*
X036056Y001450D01*
X036056Y001362D01*
X036410Y001362D01*
X036662Y001185D02*
X036839Y001185D01*
X036751Y001185D02*
X036751Y001715D01*
X036839Y001715D01*
X037130Y001715D02*
X037130Y001185D01*
X037395Y001185D01*
X037484Y001273D01*
X037484Y001450D01*
X037395Y001539D01*
X037130Y001539D01*
X037775Y001539D02*
X038040Y001539D01*
X038128Y001450D01*
X038128Y001273D01*
X038040Y001185D01*
X037775Y001185D01*
X037775Y001715D01*
X038419Y001450D02*
X038419Y001185D01*
X038685Y001185D01*
X038773Y001273D01*
X038685Y001362D01*
X038419Y001362D01*
X038419Y001450D02*
X038508Y001539D01*
X038685Y001539D01*
X039064Y001627D02*
X039064Y001450D01*
X039152Y001362D01*
X039417Y001362D01*
X039417Y001185D02*
X039417Y001715D01*
X039152Y001715D01*
X039064Y001627D01*
X040353Y001627D02*
X040353Y001539D01*
X040441Y001450D01*
X040707Y001450D01*
X040707Y001185D02*
X040441Y001185D01*
X040353Y001273D01*
X040353Y001362D01*
X040441Y001450D01*
X040353Y001627D02*
X040441Y001715D01*
X040707Y001715D01*
X040707Y001185D01*
X040997Y001273D02*
X040997Y001362D01*
X041086Y001450D01*
X041263Y001450D01*
X041351Y001539D01*
X041351Y001627D01*
X041263Y001715D01*
X041086Y001715D01*
X040997Y001627D01*
X040997Y001539D01*
X041086Y001450D01*
X041263Y001450D02*
X041351Y001362D01*
X041351Y001273D01*
X041263Y001185D01*
X041086Y001185D01*
X040997Y001273D01*
X041642Y001273D02*
X041730Y001185D01*
X041907Y001185D01*
X041996Y001273D01*
X041642Y001627D01*
X041642Y001273D01*
X041996Y001273D02*
X041996Y001627D01*
X041907Y001715D01*
X041730Y001715D01*
X041642Y001627D01*
X042287Y001715D02*
X042287Y001185D01*
X042463Y001362D01*
X042640Y001185D01*
X042640Y001715D01*
X042931Y001627D02*
X043020Y001715D01*
X043285Y001715D01*
X043285Y001185D01*
X043020Y001185D01*
X042931Y001273D01*
X042931Y001627D01*
D11*
X003625Y002125D03*
X003625Y003375D03*
X003625Y004625D03*
X003625Y005875D03*
X003625Y007125D03*
X003625Y008375D03*
X003625Y009625D03*
X003625Y010875D03*
X003625Y012125D03*
X003625Y013375D03*
X003625Y014625D03*
X003625Y015875D03*
X003625Y017125D03*
X003625Y018375D03*
X003625Y019625D03*
X003625Y020875D03*
X003625Y022125D03*
X003625Y023375D03*
D12*
X018500Y023500D03*
X019500Y023500D03*
X020500Y023500D03*
X021500Y023500D03*
X022500Y023500D03*
X022500Y021500D03*
X021500Y021500D03*
X020500Y021500D03*
X019500Y021500D03*
X018500Y021500D03*
X018500Y019500D03*
X019500Y019500D03*
X020500Y019500D03*
X021500Y019500D03*
X022500Y019500D03*
X022500Y016500D03*
X021500Y016500D03*
X020500Y016500D03*
X019500Y016500D03*
X018500Y016500D03*
X018500Y014500D03*
X019500Y014500D03*
X020500Y014500D03*
X021500Y014500D03*
X022500Y014500D03*
X022500Y011500D03*
X021500Y011500D03*
X020500Y011500D03*
X019500Y011500D03*
X018500Y011500D03*
X018500Y009500D03*
X019500Y009500D03*
X020500Y009500D03*
X021500Y009500D03*
X022500Y009500D03*
X022500Y007500D03*
X021500Y007500D03*
X020500Y007500D03*
X019500Y007500D03*
X018500Y007500D03*
X018500Y005500D03*
X019500Y005500D03*
X020500Y005500D03*
X021500Y005500D03*
X022500Y005500D03*
X041500Y008500D03*
X042500Y008500D03*
X042500Y009500D03*
X041500Y009500D03*
X041500Y010500D03*
X042500Y010500D03*
X042500Y011500D03*
X041500Y011500D03*
X041500Y012500D03*
X042500Y012500D03*
X042500Y013500D03*
X041500Y013500D03*
X041500Y014500D03*
X042500Y014500D03*
X042500Y015500D03*
X041500Y015500D03*
X041500Y016500D03*
X042500Y016500D03*
X042500Y017500D03*
X041500Y017500D03*
D13*
X033500Y019000D03*
X033500Y021000D03*
X033500Y009500D03*
X033500Y007500D03*
X012500Y003500D03*
X012500Y002500D03*
X008500Y002500D03*
X008500Y003500D03*
D14*
X003750Y002000D02*
X003625Y002125D01*
X003750Y002000D02*
X008000Y002000D01*
X008500Y002500D01*
X008913Y002093D02*
X012087Y002093D01*
X011920Y002260D02*
X012260Y001920D01*
X012740Y001920D01*
X013080Y002260D01*
X013080Y002740D01*
X012820Y003000D01*
X013080Y003260D01*
X013080Y003740D01*
X012740Y004080D01*
X012599Y004080D01*
X011555Y005124D01*
X011480Y005305D01*
X011480Y006695D01*
X011560Y006889D01*
X011560Y007111D01*
X011480Y007305D01*
X011480Y008695D01*
X011560Y008889D01*
X011560Y009111D01*
X011480Y009305D01*
X011480Y010695D01*
X011560Y010889D01*
X011560Y011111D01*
X011480Y011305D01*
X011480Y013195D01*
X011560Y013389D01*
X011560Y013611D01*
X011480Y013805D01*
X011480Y015695D01*
X011560Y015889D01*
X011560Y016111D01*
X011480Y016305D01*
X011480Y018195D01*
X011560Y018389D01*
X011560Y018611D01*
X011480Y018805D01*
X011480Y020195D01*
X011560Y020389D01*
X011560Y020611D01*
X011480Y020805D01*
X011480Y022195D01*
X011560Y022389D01*
X011560Y022611D01*
X011475Y022817D01*
X011317Y022975D01*
X011111Y023060D01*
X010889Y023060D01*
X010683Y022975D01*
X010525Y022817D01*
X010440Y022611D01*
X010440Y022389D01*
X010520Y022195D01*
X010520Y020805D01*
X010440Y020611D01*
X010440Y020389D01*
X010520Y020195D01*
X010520Y018805D01*
X010440Y018611D01*
X010440Y018389D01*
X010520Y018195D01*
X010520Y016305D01*
X010440Y016111D01*
X010440Y015889D01*
X010520Y015695D01*
X010520Y013805D01*
X010440Y013611D01*
X010440Y013389D01*
X010520Y013195D01*
X010520Y011305D01*
X010440Y011111D01*
X010440Y010889D01*
X010520Y010695D01*
X010520Y009305D01*
X010440Y009111D01*
X010440Y008889D01*
X010520Y008695D01*
X010520Y007305D01*
X010440Y007111D01*
X010440Y006889D01*
X010520Y006695D01*
X010520Y005305D01*
X010440Y005111D01*
X010440Y004889D01*
X010525Y004683D01*
X010683Y004525D01*
X010876Y004445D01*
X011920Y003401D01*
X011920Y003260D01*
X012180Y003000D01*
X011920Y002740D01*
X011920Y002260D01*
X011920Y002411D02*
X009080Y002411D01*
X009080Y002260D02*
X009080Y002740D01*
X008820Y003000D01*
X009080Y003260D01*
X009080Y003740D01*
X008740Y004080D01*
X008260Y004080D01*
X008160Y003980D01*
X006520Y003980D01*
X006520Y004264D01*
X006471Y004381D01*
X006465Y004388D01*
X006465Y004585D01*
X006000Y004585D01*
X006000Y004665D01*
X006465Y004665D01*
X006465Y004862D01*
X006471Y004869D01*
X006520Y004986D01*
X006520Y005399D01*
X006525Y005411D01*
X006525Y005520D01*
X007695Y005520D01*
X007889Y005440D01*
X008111Y005440D01*
X008317Y005525D01*
X008475Y005683D01*
X008560Y005889D01*
X008560Y006111D01*
X008475Y006317D01*
X008317Y006475D01*
X008256Y006500D01*
X008317Y006525D01*
X008475Y006683D01*
X008560Y006889D01*
X008560Y007111D01*
X008475Y007317D01*
X008317Y007475D01*
X008111Y007560D01*
X007889Y007560D01*
X007695Y007480D01*
X006525Y007480D01*
X006525Y007589D01*
X006520Y007601D01*
X006520Y008014D01*
X006471Y008131D01*
X006465Y008138D01*
X006465Y008335D01*
X006000Y008335D01*
X006000Y008415D01*
X006465Y008415D01*
X006465Y008612D01*
X006471Y008619D01*
X006520Y008736D01*
X006520Y009020D01*
X007695Y009020D01*
X007889Y008940D01*
X008111Y008940D01*
X008317Y009025D01*
X008475Y009183D01*
X008560Y009389D01*
X008560Y009611D01*
X008475Y009817D01*
X008317Y009975D01*
X008111Y010060D01*
X007889Y010060D01*
X007695Y009980D01*
X006525Y009980D01*
X006525Y010089D01*
X006520Y010101D01*
X006520Y010514D01*
X006471Y010631D01*
X006465Y010638D01*
X006465Y010835D01*
X006000Y010835D01*
X006000Y010915D01*
X006465Y010915D01*
X006465Y011112D01*
X006471Y011119D01*
X006520Y011236D01*
X006520Y011520D01*
X007695Y011520D01*
X007889Y011440D01*
X008111Y011440D01*
X008317Y011525D01*
X008475Y011683D01*
X008560Y011889D01*
X008560Y012111D01*
X008475Y012317D01*
X008317Y012475D01*
X008111Y012560D01*
X007889Y012560D01*
X007695Y012480D01*
X006525Y012480D01*
X006525Y012589D01*
X006520Y012601D01*
X006520Y013014D01*
X006471Y013131D01*
X006465Y013138D01*
X006465Y013335D01*
X006000Y013335D01*
X006000Y013415D01*
X006465Y013415D01*
X006465Y013612D01*
X006471Y013619D01*
X006520Y013736D01*
X006520Y014020D01*
X007695Y014020D01*
X007889Y013940D01*
X008111Y013940D01*
X008317Y014025D01*
X008475Y014183D01*
X008560Y014389D01*
X008560Y014611D01*
X008475Y014817D01*
X008317Y014975D01*
X008111Y015060D01*
X007889Y015060D01*
X007695Y014980D01*
X006525Y014980D01*
X006525Y015089D01*
X006520Y015101D01*
X006520Y015514D01*
X006471Y015631D01*
X006465Y015638D01*
X006465Y015835D01*
X006000Y015835D01*
X006000Y015915D01*
X006465Y015915D01*
X006465Y016112D01*
X006471Y016119D01*
X006520Y016236D01*
X006520Y016520D01*
X007695Y016520D01*
X007889Y016440D01*
X008111Y016440D01*
X008317Y016525D01*
X008475Y016683D01*
X008560Y016889D01*
X008560Y017111D01*
X008475Y017317D01*
X008317Y017475D01*
X008111Y017560D01*
X007889Y017560D01*
X007695Y017480D01*
X006525Y017480D01*
X006525Y017589D01*
X006520Y017601D01*
X006520Y018014D01*
X006471Y018131D01*
X006465Y018138D01*
X006465Y018335D01*
X006000Y018335D01*
X006000Y018415D01*
X006465Y018415D01*
X006465Y018612D01*
X006471Y018619D01*
X006520Y018736D01*
X006520Y019020D01*
X007695Y019020D01*
X007889Y018940D01*
X008111Y018940D01*
X008317Y019025D01*
X008475Y019183D01*
X008560Y019389D01*
X008560Y019611D01*
X008475Y019817D01*
X008317Y019975D01*
X008111Y020060D01*
X007889Y020060D01*
X007695Y019980D01*
X006525Y019980D01*
X006525Y020089D01*
X006520Y020101D01*
X006520Y020399D01*
X006525Y020411D01*
X006525Y020520D01*
X007695Y020520D01*
X007889Y020440D01*
X008111Y020440D01*
X008317Y020525D01*
X008475Y020683D01*
X008560Y020889D01*
X008560Y021111D01*
X008475Y021317D01*
X008317Y021475D01*
X008111Y021560D01*
X007889Y021560D01*
X007695Y021480D01*
X006520Y021480D01*
X006520Y021764D01*
X006471Y021881D01*
X006465Y021888D01*
X006465Y022085D01*
X006000Y022085D01*
X006000Y022165D01*
X006465Y022165D01*
X006465Y022362D01*
X006471Y022369D01*
X006520Y022486D01*
X006520Y022899D01*
X006525Y022911D01*
X006525Y023020D01*
X007695Y023020D01*
X007889Y022940D01*
X008111Y022940D01*
X008317Y023025D01*
X008475Y023183D01*
X008560Y023389D01*
X008560Y023611D01*
X008475Y023817D01*
X008317Y023975D01*
X008111Y024060D01*
X008070Y024060D01*
X008070Y024680D01*
X022001Y024680D01*
X021441Y024120D01*
X021243Y024120D01*
X021000Y023877D01*
X020757Y024120D01*
X020243Y024120D01*
X020000Y023877D01*
X019757Y024120D01*
X019243Y024120D01*
X019000Y023877D01*
X018757Y024120D01*
X018243Y024120D01*
X017880Y023757D01*
X017880Y023243D01*
X018243Y022880D01*
X018441Y022880D01*
X019093Y022228D01*
X019222Y022099D01*
X019000Y021877D01*
X018757Y022120D01*
X018243Y022120D01*
X017880Y021757D01*
X017880Y021243D01*
X018243Y020880D01*
X018441Y020880D01*
X019093Y020228D01*
X019222Y020099D01*
X019000Y019877D01*
X018757Y020120D01*
X018243Y020120D01*
X017880Y019757D01*
X017880Y019243D01*
X018243Y018880D01*
X018441Y018880D01*
X019228Y018093D01*
X019405Y018020D01*
X021341Y018020D01*
X021301Y017980D01*
X018405Y017980D01*
X018228Y017907D01*
X018093Y017772D01*
X017093Y016772D01*
X017020Y016595D01*
X017020Y014405D01*
X017093Y014228D01*
X017228Y014093D01*
X019222Y012099D01*
X019000Y011877D01*
X018757Y012120D01*
X018243Y012120D01*
X017880Y011757D01*
X017880Y011243D01*
X018243Y010880D01*
X018441Y010880D01*
X019093Y010228D01*
X019222Y010099D01*
X019000Y009877D01*
X018757Y010120D01*
X018243Y010120D01*
X017880Y009757D01*
X017880Y009243D01*
X018243Y008880D01*
X018441Y008880D01*
X019093Y008228D01*
X019222Y008099D01*
X019000Y007877D01*
X018757Y008120D01*
X018243Y008120D01*
X017880Y007757D01*
X017880Y007243D01*
X018243Y006880D01*
X018441Y006880D01*
X019093Y006228D01*
X019222Y006099D01*
X019000Y005877D01*
X018757Y006120D01*
X018243Y006120D01*
X017880Y005757D01*
X017880Y005243D01*
X018243Y004880D01*
X018441Y004880D01*
X019093Y004228D01*
X019228Y004093D01*
X019405Y004020D01*
X021595Y004020D01*
X021772Y004093D01*
X022559Y004880D01*
X022757Y004880D01*
X022897Y005020D01*
X030195Y005020D01*
X030389Y004940D01*
X030611Y004940D01*
X030817Y005025D01*
X030975Y005183D01*
X031060Y005389D01*
X031060Y005611D01*
X030975Y005817D01*
X030817Y005975D01*
X030708Y006020D01*
X038595Y006020D01*
X038772Y006093D01*
X040901Y008222D01*
X041243Y007880D01*
X041757Y007880D01*
X042042Y008166D01*
X042268Y007940D01*
X042500Y007940D01*
X042732Y007940D01*
X043060Y008268D01*
X043060Y008500D01*
X043060Y008732D01*
X042792Y009000D01*
X043060Y009268D01*
X043060Y009500D01*
X043060Y009732D01*
X042792Y010000D01*
X043060Y010268D01*
X043060Y010500D01*
X043060Y010732D01*
X042792Y011000D01*
X043060Y011268D01*
X043060Y011500D01*
X043060Y011732D01*
X042792Y012000D01*
X043060Y012268D01*
X043060Y012500D01*
X043060Y012732D01*
X042792Y013000D01*
X043060Y013268D01*
X043060Y013500D01*
X043060Y013732D01*
X042792Y014000D01*
X043060Y014268D01*
X043060Y014500D01*
X043060Y014732D01*
X042792Y015000D01*
X043060Y015268D01*
X043060Y015500D01*
X043060Y015732D01*
X042792Y016000D01*
X043060Y016268D01*
X043060Y016500D01*
X043060Y016732D01*
X042792Y017000D01*
X043060Y017268D01*
X043060Y017500D01*
X043060Y017732D01*
X042732Y018060D01*
X042500Y018060D01*
X042500Y017500D01*
X042500Y016500D01*
X042500Y015500D01*
X042500Y014500D01*
X042500Y013500D01*
X042500Y012500D01*
X042500Y011500D01*
X042500Y010500D01*
X042500Y009500D01*
X042500Y008500D01*
X042500Y008500D01*
X042500Y009500D01*
X042500Y009500D01*
X042500Y010500D01*
X042500Y010500D01*
X042500Y011500D01*
X042500Y011500D01*
X042500Y012500D01*
X042500Y012500D01*
X042500Y013500D01*
X042500Y013500D01*
X042500Y014500D01*
X042500Y014500D01*
X042500Y015500D01*
X042500Y015500D01*
X042500Y016500D01*
X042500Y016500D01*
X042500Y017500D01*
X042500Y017500D01*
X043060Y017500D01*
X042500Y017500D01*
X042500Y017500D01*
X042500Y017500D01*
X042500Y018060D01*
X042268Y018060D01*
X042042Y017834D01*
X041757Y018120D01*
X041559Y018120D01*
X034999Y024680D01*
X049680Y024680D01*
X049680Y000820D01*
X043462Y000820D01*
X043514Y000842D01*
X043628Y000956D01*
X043690Y001104D01*
X043690Y001796D01*
X043628Y001945D01*
X043514Y002059D01*
X043365Y002120D01*
X042939Y002120D01*
X042830Y002075D01*
X042721Y002120D01*
X042560Y002120D01*
X042463Y002081D01*
X042367Y002120D01*
X042206Y002120D01*
X042097Y002075D01*
X041988Y002120D01*
X041650Y002120D01*
X041501Y002059D01*
X041497Y002054D01*
X041492Y002059D01*
X041465Y002070D01*
X041343Y002120D01*
X041005Y002120D01*
X040896Y002075D01*
X040787Y002120D01*
X040361Y002120D01*
X040212Y002059D01*
X040124Y001970D01*
X040010Y001856D01*
X039948Y001708D01*
X039948Y001458D01*
X039951Y001450D01*
X039948Y001442D01*
X039948Y001193D01*
X040000Y001068D01*
X040010Y001044D01*
X040078Y000976D01*
X040124Y000930D01*
X040143Y000910D01*
X040212Y000842D01*
X040212Y000842D01*
X040212Y000842D01*
X040229Y000835D01*
X040264Y000820D01*
X039595Y000820D01*
X039647Y000842D01*
X039761Y000956D01*
X039822Y001104D01*
X039822Y001796D01*
X039761Y001945D01*
X039647Y002059D01*
X039498Y002120D01*
X039072Y002120D01*
X038923Y002059D01*
X038834Y001970D01*
X038795Y001931D01*
X038765Y001944D01*
X038427Y001944D01*
X038278Y001882D01*
X038274Y001878D01*
X038269Y001882D01*
X038242Y001893D01*
X038121Y001944D01*
X038119Y001944D01*
X038118Y001945D01*
X038004Y002059D01*
X037855Y002120D01*
X037694Y002120D01*
X037545Y002059D01*
X037452Y001966D01*
X037360Y002059D01*
X037211Y002120D01*
X037050Y002120D01*
X036985Y002094D01*
X036920Y002120D01*
X036670Y002120D01*
X036521Y002059D01*
X036408Y001945D01*
X036406Y001942D01*
X036402Y001944D01*
X036064Y001944D01*
X035915Y001882D01*
X035827Y001794D01*
X035713Y001680D01*
X035651Y001531D01*
X035651Y001281D01*
X035713Y001132D01*
X035739Y001106D01*
X035739Y001104D01*
X035801Y000956D01*
X035915Y000842D01*
X035967Y000820D01*
X007070Y000820D01*
X007070Y001520D01*
X008095Y001520D01*
X008272Y001593D01*
X008599Y001920D01*
X008740Y001920D01*
X009080Y002260D01*
X009080Y002730D02*
X011920Y002730D01*
X012132Y003048D02*
X008868Y003048D01*
X009080Y003367D02*
X011920Y003367D01*
X011636Y003685D02*
X009080Y003685D01*
X008817Y004004D02*
X011318Y004004D01*
X010999Y004322D02*
X006496Y004322D01*
X006520Y004004D02*
X008183Y004004D01*
X008500Y003500D02*
X003750Y003500D01*
X003625Y003375D01*
X006000Y004641D02*
X010568Y004641D01*
X010440Y004959D02*
X006509Y004959D01*
X006520Y005278D02*
X010509Y005278D01*
X010520Y005596D02*
X008388Y005596D01*
X008560Y005915D02*
X010520Y005915D01*
X010520Y006233D02*
X008510Y006233D01*
X008343Y006552D02*
X010520Y006552D01*
X010448Y006870D02*
X008552Y006870D01*
X008000Y007000D02*
X003750Y007000D01*
X003625Y007125D01*
X003750Y006000D02*
X008000Y006000D01*
X008528Y007189D02*
X010472Y007189D01*
X010520Y007507D02*
X008239Y007507D01*
X007761Y007507D02*
X006525Y007507D01*
X006520Y007826D02*
X010520Y007826D01*
X010520Y008144D02*
X006465Y008144D01*
X006465Y008463D02*
X010520Y008463D01*
X010485Y008781D02*
X006520Y008781D01*
X008000Y009500D02*
X003750Y009500D01*
X003625Y009625D01*
X006525Y010055D02*
X007877Y010055D01*
X008123Y010055D02*
X010520Y010055D01*
X010520Y009737D02*
X008508Y009737D01*
X008560Y009418D02*
X010520Y009418D01*
X010440Y009100D02*
X008391Y009100D01*
X006520Y010374D02*
X010520Y010374D01*
X010520Y010692D02*
X006465Y010692D01*
X006465Y011011D02*
X010440Y011011D01*
X010520Y011329D02*
X006520Y011329D01*
X008000Y012000D02*
X003750Y012000D01*
X003625Y012125D01*
X006520Y012603D02*
X010520Y012603D01*
X010520Y012285D02*
X008488Y012285D01*
X008560Y011966D02*
X010520Y011966D01*
X010520Y011648D02*
X008439Y011648D01*
X006520Y012922D02*
X010520Y012922D01*
X010502Y013240D02*
X006465Y013240D01*
X006465Y013559D02*
X010440Y013559D01*
X010520Y013877D02*
X006520Y013877D01*
X008000Y014500D02*
X003750Y014500D01*
X003625Y014625D01*
X006520Y015151D02*
X010520Y015151D01*
X010520Y014833D02*
X008459Y014833D01*
X008560Y014514D02*
X010520Y014514D01*
X010520Y014196D02*
X008480Y014196D01*
X006520Y015470D02*
X010520Y015470D01*
X010482Y015788D02*
X006465Y015788D01*
X006465Y016107D02*
X010440Y016107D01*
X010520Y016425D02*
X006520Y016425D01*
X008000Y017000D02*
X003750Y017000D01*
X003625Y017125D01*
X006000Y018336D02*
X010462Y018336D01*
X010520Y018018D02*
X006518Y018018D01*
X006520Y017699D02*
X010520Y017699D01*
X010520Y017381D02*
X008411Y017381D01*
X008560Y017062D02*
X010520Y017062D01*
X010520Y016744D02*
X008500Y016744D01*
X011000Y016000D02*
X011000Y018500D01*
X011000Y020500D01*
X011000Y022500D01*
X011560Y022477D02*
X013440Y022477D01*
X013440Y022389D02*
X013440Y022611D01*
X013525Y022817D01*
X013683Y022975D01*
X013889Y023060D01*
X014111Y023060D01*
X014317Y022975D01*
X014475Y022817D01*
X014560Y022611D01*
X014560Y022389D01*
X014480Y022195D01*
X014480Y020805D01*
X014560Y020611D01*
X014560Y020389D01*
X014480Y020195D01*
X014480Y018805D01*
X014560Y018611D01*
X014560Y018389D01*
X014480Y018195D01*
X014480Y016305D01*
X014560Y016111D01*
X014560Y015889D01*
X014480Y015695D01*
X014480Y013805D01*
X014560Y013611D01*
X014560Y013389D01*
X014480Y013195D01*
X014480Y011305D01*
X014560Y011111D01*
X014560Y010889D01*
X014480Y010695D01*
X014480Y009305D01*
X014560Y009111D01*
X014560Y008889D01*
X014480Y008695D01*
X014480Y007305D01*
X014560Y007111D01*
X014560Y006889D01*
X014480Y006695D01*
X014480Y005305D01*
X014560Y005111D01*
X014560Y004889D01*
X014475Y004683D01*
X014317Y004525D01*
X014111Y004440D01*
X013889Y004440D01*
X013683Y004525D01*
X013525Y004683D01*
X013440Y004889D01*
X013440Y005111D01*
X013520Y005305D01*
X013520Y006695D01*
X013440Y006889D01*
X013440Y007111D01*
X013520Y007305D01*
X013520Y008695D01*
X013440Y008889D01*
X013440Y009111D01*
X013520Y009305D01*
X013520Y010695D01*
X013440Y010889D01*
X013440Y011111D01*
X013520Y011305D01*
X013520Y013195D01*
X013440Y013389D01*
X013440Y013611D01*
X013520Y013805D01*
X013520Y015695D01*
X013440Y015889D01*
X013440Y016111D01*
X013520Y016305D01*
X013520Y018195D01*
X013440Y018389D01*
X013440Y018611D01*
X013520Y018805D01*
X013520Y020195D01*
X013440Y020389D01*
X013440Y020611D01*
X013520Y020805D01*
X013520Y022195D01*
X013440Y022389D01*
X013520Y022158D02*
X011480Y022158D01*
X011480Y021840D02*
X013520Y021840D01*
X013520Y021521D02*
X011480Y021521D01*
X011480Y021203D02*
X013520Y021203D01*
X013520Y020884D02*
X011480Y020884D01*
X011560Y020566D02*
X013440Y020566D01*
X013499Y020247D02*
X011501Y020247D01*
X011480Y019929D02*
X013520Y019929D01*
X013520Y019610D02*
X011480Y019610D01*
X011480Y019292D02*
X013520Y019292D01*
X013520Y018973D02*
X011480Y018973D01*
X011542Y018655D02*
X013458Y018655D01*
X014000Y018500D02*
X014000Y020500D01*
X014000Y022500D01*
X014560Y022477D02*
X018845Y022477D01*
X018526Y022795D02*
X014484Y022795D01*
X013516Y022795D02*
X011484Y022795D01*
X010516Y022795D02*
X006520Y022795D01*
X006516Y022477D02*
X010440Y022477D01*
X010520Y022158D02*
X006000Y022158D01*
X006489Y021840D02*
X010520Y021840D01*
X010520Y021521D02*
X008206Y021521D01*
X007794Y021521D02*
X006520Y021521D01*
X008000Y021000D02*
X003750Y021000D01*
X003625Y020875D01*
X003625Y019625D02*
X003750Y019500D01*
X008000Y019500D01*
X008520Y019292D02*
X010520Y019292D01*
X010520Y019610D02*
X008560Y019610D01*
X008363Y019929D02*
X010520Y019929D01*
X010499Y020247D02*
X006520Y020247D01*
X008357Y020566D02*
X010440Y020566D01*
X010520Y020884D02*
X008558Y020884D01*
X008522Y021203D02*
X010520Y021203D01*
X008405Y023114D02*
X018010Y023114D01*
X017880Y023432D02*
X008560Y023432D01*
X008000Y023500D02*
X003750Y023500D01*
X003625Y023375D01*
X008070Y024069D02*
X018192Y024069D01*
X017880Y023751D02*
X008502Y023751D01*
X008070Y024388D02*
X021709Y024388D01*
X021192Y024069D02*
X020808Y024069D01*
X020192Y024069D02*
X019808Y024069D01*
X019192Y024069D02*
X018808Y024069D01*
X018500Y023500D02*
X019500Y022500D01*
X021500Y022500D01*
X022500Y023500D01*
X021500Y023500D02*
X022500Y024500D01*
X034500Y024500D01*
X041500Y017500D01*
X041859Y018018D02*
X042226Y018018D01*
X042500Y018018D02*
X042500Y018018D01*
X042774Y018018D02*
X049680Y018018D01*
X049680Y018336D02*
X041343Y018336D01*
X041024Y018655D02*
X049680Y018655D01*
X049680Y018973D02*
X040706Y018973D01*
X040387Y019292D02*
X049680Y019292D01*
X049680Y019610D02*
X040069Y019610D01*
X039750Y019929D02*
X049680Y019929D01*
X049680Y020247D02*
X039432Y020247D01*
X039113Y020566D02*
X049680Y020566D01*
X049680Y020884D02*
X038795Y020884D01*
X038476Y021203D02*
X049680Y021203D01*
X049680Y021521D02*
X048851Y021521D01*
X048892Y021542D02*
X048892Y021542D01*
X048469Y021326D01*
X048469Y021326D01*
X048000Y021252D01*
X048000Y021252D01*
X047531Y021326D01*
X047531Y021326D01*
X047108Y021542D01*
X047108Y021542D01*
X046772Y021878D01*
X046772Y021878D01*
X046556Y022301D01*
X046556Y022301D01*
X046482Y022770D01*
X046482Y022770D01*
X046556Y023239D01*
X046556Y023239D01*
X046772Y023662D01*
X046772Y023662D01*
X047108Y023998D01*
X047108Y023998D01*
X047531Y024214D01*
X047531Y024214D01*
X048000Y024288D01*
X048000Y024288D01*
X048469Y024214D01*
X048469Y024214D01*
X048892Y023998D01*
X048892Y023998D01*
X049228Y023662D01*
X049444Y023239D01*
X049444Y023239D01*
X049518Y022770D01*
X049444Y022301D01*
X049444Y022301D01*
X049228Y021878D01*
X049228Y021878D01*
X048892Y021542D01*
X049190Y021840D02*
X049680Y021840D01*
X049680Y022158D02*
X049371Y022158D01*
X049472Y022477D02*
X049680Y022477D01*
X049680Y022795D02*
X049514Y022795D01*
X049464Y023114D02*
X049680Y023114D01*
X049680Y023432D02*
X049345Y023432D01*
X049228Y023662D02*
X049228Y023662D01*
X049140Y023751D02*
X049680Y023751D01*
X049680Y024069D02*
X048753Y024069D01*
X049680Y024388D02*
X035291Y024388D01*
X035610Y024069D02*
X047247Y024069D01*
X046860Y023751D02*
X035928Y023751D01*
X036247Y023432D02*
X046655Y023432D01*
X046536Y023114D02*
X036565Y023114D01*
X036884Y022795D02*
X046486Y022795D01*
X046528Y022477D02*
X037202Y022477D01*
X037521Y022158D02*
X046629Y022158D01*
X046810Y021840D02*
X037839Y021840D01*
X038158Y021521D02*
X047149Y021521D01*
X049680Y017699D02*
X043060Y017699D01*
X043060Y017381D02*
X049680Y017381D01*
X049680Y017062D02*
X042854Y017062D01*
X042500Y017062D02*
X042500Y017062D01*
X042500Y017060D02*
X042500Y016500D01*
X043060Y016500D01*
X042500Y016500D01*
X042500Y016500D01*
X042500Y016500D01*
X042500Y016060D01*
X042500Y015500D01*
X043060Y015500D01*
X042500Y015500D01*
X042500Y015500D01*
X042500Y015500D01*
X042500Y015060D01*
X042500Y014500D01*
X043060Y014500D01*
X042500Y014500D01*
X042500Y014500D01*
X042500Y014500D01*
X042500Y014060D01*
X042500Y013500D01*
X043060Y013500D01*
X042500Y013500D01*
X042500Y013500D01*
X042500Y013500D01*
X042500Y013060D01*
X042500Y012500D01*
X043060Y012500D01*
X042500Y012500D01*
X042500Y012500D01*
X042500Y012500D01*
X042500Y012060D01*
X042500Y011500D01*
X043060Y011500D01*
X042500Y011500D01*
X042500Y011500D01*
X042500Y011500D01*
X042500Y011060D01*
X042500Y010500D01*
X043060Y010500D01*
X042500Y010500D01*
X042500Y010500D01*
X042500Y010500D01*
X042500Y010060D01*
X042500Y009500D01*
X043060Y009500D01*
X042500Y009500D01*
X042500Y009500D01*
X042500Y009500D01*
X042500Y009060D01*
X042500Y008500D01*
X043060Y008500D01*
X042500Y008500D01*
X042500Y008500D01*
X042500Y007940D01*
X042500Y008500D01*
X042500Y008500D01*
X042500Y008463D02*
X042500Y008463D01*
X042500Y008781D02*
X042500Y008781D01*
X042500Y009100D02*
X042500Y009100D01*
X042500Y009418D02*
X042500Y009418D01*
X042891Y009100D02*
X049680Y009100D01*
X049680Y009418D02*
X043060Y009418D01*
X043055Y009737D02*
X049680Y009737D01*
X049680Y010055D02*
X042847Y010055D01*
X042500Y010055D02*
X042500Y010055D01*
X042500Y009737D02*
X042500Y009737D01*
X042500Y010374D02*
X042500Y010374D01*
X042500Y010692D02*
X042500Y010692D01*
X043060Y010692D02*
X049680Y010692D01*
X049680Y010374D02*
X043060Y010374D01*
X042802Y011011D02*
X049680Y011011D01*
X049680Y011329D02*
X043060Y011329D01*
X043060Y011648D02*
X049680Y011648D01*
X049680Y011966D02*
X042826Y011966D01*
X042500Y011966D02*
X042500Y011966D01*
X042500Y011648D02*
X042500Y011648D01*
X042500Y011329D02*
X042500Y011329D01*
X042500Y011011D02*
X042500Y011011D01*
X041500Y011500D02*
X040500Y010500D01*
X022500Y010500D01*
X021500Y009500D01*
X022500Y009500D02*
X027500Y009500D01*
X028500Y009500D02*
X033500Y009500D01*
X033500Y008020D02*
X033285Y008020D01*
X032980Y007715D01*
X032980Y007500D01*
X033500Y007500D01*
X036500Y007500D01*
X038301Y006980D02*
X029708Y006980D01*
X029817Y007025D01*
X029975Y007183D01*
X030060Y007389D01*
X030060Y007520D01*
X030695Y007520D01*
X030889Y007440D01*
X031111Y007440D01*
X031317Y007525D01*
X031475Y007683D01*
X031560Y007889D01*
X031560Y008020D01*
X039341Y008020D01*
X038301Y006980D01*
X038510Y007189D02*
X033924Y007189D01*
X034020Y007285D02*
X034020Y007500D01*
X034020Y007715D01*
X033715Y008020D01*
X033500Y008020D01*
X033500Y007500D01*
X033500Y007500D01*
X034020Y007500D01*
X033500Y007500D01*
X033500Y007500D01*
X033500Y007500D01*
X033500Y008020D01*
X033500Y007826D02*
X033500Y007826D01*
X033500Y007507D02*
X033500Y007507D01*
X033500Y007500D02*
X032980Y007500D01*
X032980Y007285D01*
X033285Y006980D01*
X033500Y006980D01*
X033715Y006980D01*
X034020Y007285D01*
X034020Y007507D02*
X038828Y007507D01*
X039147Y007826D02*
X033910Y007826D01*
X033500Y007500D02*
X033500Y006980D01*
X033500Y007500D01*
X033500Y007500D01*
X033500Y007189D02*
X033500Y007189D01*
X033076Y007189D02*
X029977Y007189D01*
X030060Y007507D02*
X030727Y007507D01*
X031273Y007507D02*
X032980Y007507D01*
X033090Y007826D02*
X031534Y007826D01*
X031000Y008000D02*
X025500Y008000D01*
X025500Y009000D02*
X030000Y009000D01*
X029500Y007500D02*
X022500Y007500D01*
X021500Y006500D01*
X019500Y006500D01*
X018500Y007500D01*
X017880Y007507D02*
X014480Y007507D01*
X014480Y007826D02*
X017949Y007826D01*
X017935Y007189D02*
X014528Y007189D01*
X014000Y007000D02*
X014000Y009000D01*
X014000Y011000D01*
X014000Y013500D01*
X014000Y016000D01*
X014000Y018500D01*
X014538Y018336D02*
X018985Y018336D01*
X019500Y018500D02*
X021500Y018500D01*
X022500Y019500D01*
X023000Y019000D02*
X032000Y019000D01*
X032560Y018973D02*
X032980Y018973D01*
X032980Y019000D02*
X032980Y018785D01*
X033285Y018480D01*
X033500Y018480D01*
X033715Y018480D01*
X034020Y018785D01*
X034020Y019000D01*
X034020Y019215D01*
X033715Y019520D01*
X033500Y019520D01*
X033500Y019000D01*
X036500Y019000D01*
X037030Y019292D02*
X033944Y019292D01*
X034020Y019000D02*
X033500Y019000D01*
X033500Y019000D01*
X033500Y019000D01*
X033500Y019000D01*
X032980Y019000D01*
X032980Y019215D01*
X033285Y019520D01*
X033500Y019520D01*
X033500Y019000D01*
X034020Y019000D01*
X034020Y018973D02*
X037348Y018973D01*
X037667Y018655D02*
X033890Y018655D01*
X033500Y018655D02*
X033500Y018655D01*
X033500Y018480D02*
X033500Y019000D01*
X033500Y019000D01*
X032980Y019000D01*
X033056Y019292D02*
X032485Y019292D01*
X032475Y019317D02*
X032317Y019475D01*
X032111Y019560D01*
X031889Y019560D01*
X031695Y019480D01*
X031060Y019480D01*
X031060Y019611D01*
X030975Y019817D01*
X030817Y019975D01*
X030611Y020060D01*
X030389Y020060D01*
X030195Y019980D01*
X029199Y019980D01*
X028701Y020477D01*
X028805Y020520D01*
X033160Y020520D01*
X033260Y020420D01*
X033740Y020420D01*
X033840Y020520D01*
X034801Y020520D01*
X035445Y019876D01*
X035525Y019683D01*
X035683Y019525D01*
X035889Y019440D01*
X036111Y019440D01*
X036317Y019525D01*
X036475Y019683D01*
X036523Y019799D01*
X038341Y017980D01*
X022659Y017980D01*
X023199Y018520D01*
X031695Y018520D01*
X031889Y018440D01*
X032111Y018440D01*
X032317Y018525D01*
X032475Y018683D01*
X032560Y018889D01*
X032560Y019111D01*
X032475Y019317D01*
X032446Y018655D02*
X033110Y018655D01*
X033500Y018480D02*
X033500Y019000D01*
X033500Y018973D02*
X033500Y018973D01*
X033500Y019292D02*
X033500Y019292D01*
X035074Y020247D02*
X028932Y020247D01*
X029000Y019500D02*
X030500Y019500D01*
X031060Y019610D02*
X035598Y019610D01*
X035393Y019929D02*
X030863Y019929D01*
X029000Y019500D02*
X025500Y023000D01*
X026159Y023020D02*
X033301Y023020D01*
X034841Y021480D01*
X033840Y021480D01*
X033740Y021580D01*
X033260Y021580D01*
X033160Y021480D01*
X028805Y021480D01*
X028611Y021560D01*
X028389Y021560D01*
X028183Y021475D01*
X028025Y021317D01*
X027977Y021201D01*
X026159Y023020D01*
X026384Y022795D02*
X033526Y022795D01*
X033845Y022477D02*
X026702Y022477D01*
X027021Y022158D02*
X034163Y022158D01*
X034482Y021840D02*
X027339Y021840D01*
X027658Y021521D02*
X028294Y021521D01*
X028706Y021521D02*
X033201Y021521D01*
X033799Y021521D02*
X034800Y021521D01*
X035000Y021000D02*
X033500Y021000D01*
X028500Y021000D01*
X027978Y021203D02*
X027976Y021203D01*
X028000Y019500D02*
X026000Y021500D01*
X025000Y023500D02*
X023500Y022000D01*
X023500Y021500D01*
X021500Y019500D01*
X023000Y019000D02*
X021500Y017500D01*
X018500Y017500D01*
X017500Y016500D01*
X017500Y014500D01*
X020500Y011500D01*
X021500Y011500D02*
X022500Y012500D01*
X041500Y012500D01*
X042500Y012603D02*
X042500Y012603D01*
X042500Y012285D02*
X042500Y012285D01*
X043060Y012285D02*
X049680Y012285D01*
X049680Y012603D02*
X043060Y012603D01*
X042870Y012922D02*
X049680Y012922D01*
X049680Y013240D02*
X043032Y013240D01*
X042500Y013240D02*
X042500Y013240D01*
X042500Y012922D02*
X042500Y012922D01*
X041500Y013500D02*
X039500Y015500D01*
X022500Y015500D01*
X021500Y014500D01*
X022500Y014500D02*
X021500Y013500D01*
X019500Y013500D01*
X018500Y014500D01*
X017444Y013877D02*
X014480Y013877D01*
X014480Y014196D02*
X017126Y014196D01*
X017020Y014514D02*
X014480Y014514D01*
X014480Y014833D02*
X017020Y014833D01*
X017020Y015151D02*
X014480Y015151D01*
X014480Y015470D02*
X017020Y015470D01*
X017020Y015788D02*
X014518Y015788D01*
X014560Y016107D02*
X017020Y016107D01*
X017020Y016425D02*
X014480Y016425D01*
X014480Y016744D02*
X017081Y016744D01*
X017383Y017062D02*
X014480Y017062D01*
X014480Y017381D02*
X017702Y017381D01*
X018020Y017699D02*
X014480Y017699D01*
X014480Y018018D02*
X021339Y018018D01*
X022500Y017500D02*
X038500Y017500D01*
X041500Y014500D01*
X042500Y014514D02*
X042500Y014514D01*
X042500Y014196D02*
X042500Y014196D01*
X042500Y013877D02*
X042500Y013877D01*
X042500Y013559D02*
X042500Y013559D01*
X042915Y013877D02*
X049680Y013877D01*
X049680Y013559D02*
X043060Y013559D01*
X042987Y014196D02*
X049680Y014196D01*
X049680Y014514D02*
X043060Y014514D01*
X042959Y014833D02*
X049680Y014833D01*
X049680Y015151D02*
X042943Y015151D01*
X043060Y015470D02*
X049680Y015470D01*
X049680Y015788D02*
X043004Y015788D01*
X042500Y015788D02*
X042500Y015788D01*
X042500Y015470D02*
X042500Y015470D01*
X042500Y015151D02*
X042500Y015151D01*
X042500Y014833D02*
X042500Y014833D01*
X041500Y015500D02*
X033500Y023500D01*
X025000Y023500D01*
X024000Y024000D02*
X034000Y024000D01*
X041500Y016500D01*
X042500Y016425D02*
X042500Y016425D01*
X042500Y016107D02*
X042500Y016107D01*
X042898Y016107D02*
X049680Y016107D01*
X049680Y016425D02*
X043060Y016425D01*
X043048Y016744D02*
X049680Y016744D01*
X042500Y016744D02*
X042500Y016744D01*
X042500Y017060D02*
X042500Y017500D01*
X042500Y017381D02*
X042500Y017381D01*
X042500Y017699D02*
X042500Y017699D01*
X038304Y018018D02*
X022696Y018018D01*
X023015Y018336D02*
X037985Y018336D01*
X036711Y019610D02*
X036402Y019610D01*
X036000Y020000D02*
X035000Y021000D01*
X031000Y017000D02*
X031000Y016000D01*
X022500Y016500D02*
X021500Y015500D01*
X019500Y015500D01*
X018500Y016500D01*
X021500Y016500D02*
X022500Y017500D01*
X019500Y018500D02*
X018500Y019500D01*
X017880Y019610D02*
X014480Y019610D01*
X014480Y019292D02*
X017880Y019292D01*
X018150Y018973D02*
X014480Y018973D01*
X014542Y018655D02*
X018667Y018655D01*
X018948Y019929D02*
X019052Y019929D01*
X019093Y020228D02*
X019093Y020228D01*
X019074Y020247D02*
X014501Y020247D01*
X014480Y019929D02*
X018052Y019929D01*
X018756Y020566D02*
X014560Y020566D01*
X014480Y020884D02*
X018239Y020884D01*
X017921Y021203D02*
X014480Y021203D01*
X014480Y021521D02*
X017880Y021521D01*
X017963Y021840D02*
X014480Y021840D01*
X014480Y022158D02*
X019163Y022158D01*
X018500Y021500D02*
X019500Y020500D01*
X021500Y020500D01*
X022500Y021500D01*
X021500Y021500D02*
X024000Y024000D01*
X013462Y018336D02*
X011538Y018336D01*
X011480Y018018D02*
X013520Y018018D01*
X013520Y017699D02*
X011480Y017699D01*
X011480Y017381D02*
X013520Y017381D01*
X013520Y017062D02*
X011480Y017062D01*
X011480Y016744D02*
X013520Y016744D01*
X013520Y016425D02*
X011480Y016425D01*
X011560Y016107D02*
X013440Y016107D01*
X013482Y015788D02*
X011518Y015788D01*
X011480Y015470D02*
X013520Y015470D01*
X013520Y015151D02*
X011480Y015151D01*
X011480Y014833D02*
X013520Y014833D01*
X013520Y014514D02*
X011480Y014514D01*
X011480Y014196D02*
X013520Y014196D01*
X013520Y013877D02*
X011480Y013877D01*
X011560Y013559D02*
X013440Y013559D01*
X013502Y013240D02*
X011498Y013240D01*
X011480Y012922D02*
X013520Y012922D01*
X013520Y012603D02*
X011480Y012603D01*
X011480Y012285D02*
X013520Y012285D01*
X013520Y011966D02*
X011480Y011966D01*
X011480Y011648D02*
X013520Y011648D01*
X013520Y011329D02*
X011480Y011329D01*
X011560Y011011D02*
X013440Y011011D01*
X013520Y010692D02*
X011480Y010692D01*
X011480Y010374D02*
X013520Y010374D01*
X013520Y010055D02*
X011480Y010055D01*
X011480Y009737D02*
X013520Y009737D01*
X013520Y009418D02*
X011480Y009418D01*
X011560Y009100D02*
X013440Y009100D01*
X013485Y008781D02*
X011515Y008781D01*
X011480Y008463D02*
X013520Y008463D01*
X013520Y008144D02*
X011480Y008144D01*
X011480Y007826D02*
X013520Y007826D01*
X013520Y007507D02*
X011480Y007507D01*
X011528Y007189D02*
X013472Y007189D01*
X014000Y007000D02*
X014000Y005000D01*
X014560Y004959D02*
X018164Y004959D01*
X017880Y005278D02*
X014491Y005278D01*
X014480Y005596D02*
X017880Y005596D01*
X018500Y005500D02*
X019500Y004500D01*
X021500Y004500D01*
X022500Y005500D01*
X030500Y005500D01*
X031014Y005278D02*
X049680Y005278D01*
X049680Y005596D02*
X031060Y005596D01*
X030877Y005915D02*
X049680Y005915D01*
X049680Y006233D02*
X038912Y006233D01*
X039230Y006552D02*
X049680Y006552D01*
X049680Y006870D02*
X039549Y006870D01*
X039867Y007189D02*
X049680Y007189D01*
X049680Y007507D02*
X040186Y007507D01*
X040504Y007826D02*
X049680Y007826D01*
X049680Y008144D02*
X042936Y008144D01*
X042500Y008144D02*
X042500Y008144D01*
X042064Y008144D02*
X042021Y008144D01*
X040979Y008144D02*
X040823Y008144D01*
X039500Y008500D02*
X041500Y010500D01*
X041500Y009500D02*
X038500Y006500D01*
X022500Y006500D01*
X021500Y005500D01*
X022319Y004641D02*
X049680Y004641D01*
X049680Y004959D02*
X030657Y004959D01*
X030343Y004959D02*
X022836Y004959D01*
X022001Y004322D02*
X049680Y004322D01*
X049680Y004004D02*
X048882Y004004D01*
X048892Y003998D02*
X048469Y004214D01*
X048000Y004288D01*
X047531Y004214D01*
X047531Y004214D01*
X047108Y003998D01*
X046772Y003662D01*
X046556Y003239D01*
X046482Y002770D01*
X046556Y002301D01*
X046772Y001878D01*
X046772Y001878D01*
X047108Y001542D01*
X047531Y001326D01*
X048000Y001252D01*
X048469Y001326D01*
X048892Y001542D01*
X048892Y001542D01*
X049228Y001878D01*
X049444Y002301D01*
X049518Y002770D01*
X049444Y003239D01*
X049228Y003662D01*
X049228Y003662D01*
X048892Y003998D01*
X048892Y003998D01*
X049205Y003685D02*
X049680Y003685D01*
X049680Y003367D02*
X049379Y003367D01*
X049444Y003239D02*
X049444Y003239D01*
X049474Y003048D02*
X049680Y003048D01*
X049680Y002730D02*
X049512Y002730D01*
X049461Y002411D02*
X049680Y002411D01*
X049444Y002301D02*
X049444Y002301D01*
X049338Y002093D02*
X049680Y002093D01*
X049228Y001878D02*
X049228Y001878D01*
X049124Y001774D02*
X049680Y001774D01*
X049680Y001456D02*
X048723Y001456D01*
X048469Y001326D02*
X048469Y001326D01*
X048000Y001252D02*
X048000Y001252D01*
X047531Y001326D02*
X047531Y001326D01*
X047277Y001456D02*
X043690Y001456D01*
X043690Y001774D02*
X046876Y001774D01*
X047108Y001542D02*
X047108Y001542D01*
X046662Y002093D02*
X043433Y002093D01*
X042871Y002093D02*
X042788Y002093D01*
X042492Y002093D02*
X042435Y002093D01*
X042139Y002093D02*
X042055Y002093D01*
X041582Y002093D02*
X041411Y002093D01*
X041492Y002059D02*
X041492Y002059D01*
X041492Y002059D01*
X040938Y002093D02*
X040855Y002093D01*
X040293Y002093D02*
X039565Y002093D01*
X039004Y002093D02*
X037923Y002093D01*
X037627Y002093D02*
X037278Y002093D01*
X036603Y002093D02*
X012913Y002093D01*
X013080Y002411D02*
X046539Y002411D01*
X046488Y002730D02*
X013080Y002730D01*
X012868Y003048D02*
X046526Y003048D01*
X046621Y003367D02*
X013080Y003367D01*
X013080Y003685D02*
X046795Y003685D01*
X047108Y003998D02*
X047108Y003998D01*
X047108Y003998D01*
X047118Y004004D02*
X012817Y004004D01*
X012357Y004322D02*
X018999Y004322D01*
X018681Y004641D02*
X014432Y004641D01*
X013568Y004641D02*
X012038Y004641D01*
X011720Y004959D02*
X013440Y004959D01*
X013509Y005278D02*
X011491Y005278D01*
X011480Y005596D02*
X013520Y005596D01*
X013520Y005915D02*
X011480Y005915D01*
X011480Y006233D02*
X013520Y006233D01*
X013520Y006552D02*
X011480Y006552D01*
X011552Y006870D02*
X013448Y006870D01*
X014480Y006552D02*
X018770Y006552D01*
X018451Y006870D02*
X014552Y006870D01*
X014480Y006233D02*
X019088Y006233D01*
X019038Y005915D02*
X018962Y005915D01*
X018038Y005915D02*
X014480Y005915D01*
X012500Y003500D02*
X011000Y005000D01*
X011000Y007000D01*
X011000Y009000D01*
X011000Y011000D01*
X011000Y013500D01*
X011000Y016000D01*
X014560Y013559D02*
X017763Y013559D01*
X018081Y013240D02*
X014498Y013240D01*
X014480Y012922D02*
X018400Y012922D01*
X018718Y012603D02*
X014480Y012603D01*
X014480Y012285D02*
X019037Y012285D01*
X019089Y011966D02*
X018911Y011966D01*
X018500Y011500D02*
X019500Y010500D01*
X021500Y010500D01*
X022500Y011500D01*
X019178Y010055D02*
X018822Y010055D01*
X018948Y010374D02*
X014480Y010374D01*
X014480Y010692D02*
X018629Y010692D01*
X018113Y011011D02*
X014560Y011011D01*
X014480Y011329D02*
X017880Y011329D01*
X017880Y011648D02*
X014480Y011648D01*
X014480Y011966D02*
X018089Y011966D01*
X018178Y010055D02*
X014480Y010055D01*
X014480Y009737D02*
X017880Y009737D01*
X018500Y009500D02*
X019500Y008500D01*
X021500Y008500D01*
X022500Y009500D01*
X022500Y008500D02*
X039500Y008500D01*
X043011Y008781D02*
X049680Y008781D01*
X049680Y008463D02*
X043060Y008463D01*
X048000Y004288D02*
X048000Y004288D01*
X048469Y004214D02*
X048469Y004214D01*
X049680Y001137D02*
X043690Y001137D01*
X040124Y000930D02*
X040124Y000930D01*
X040010Y001044D02*
X040010Y001044D01*
X040010Y001044D01*
X039971Y001137D02*
X039822Y001137D01*
X039822Y001456D02*
X039949Y001456D01*
X039975Y001774D02*
X039822Y001774D01*
X038269Y001882D02*
X038269Y001882D01*
X038269Y001882D01*
X035807Y001774D02*
X008453Y001774D01*
X007070Y001456D02*
X035651Y001456D01*
X035711Y001137D02*
X007070Y001137D01*
X003625Y005875D02*
X003750Y006000D01*
X014480Y008144D02*
X019177Y008144D01*
X018859Y008463D02*
X014480Y008463D01*
X014515Y008781D02*
X018540Y008781D01*
X018024Y009100D02*
X014560Y009100D01*
X014480Y009418D02*
X017880Y009418D01*
X021500Y007500D02*
X022500Y008500D01*
X010458Y018655D02*
X006486Y018655D01*
X006520Y018973D02*
X007809Y018973D01*
X008191Y018973D02*
X010520Y018973D01*
D15*
X011000Y018500D03*
X014000Y018500D03*
X014000Y020500D03*
X011000Y020500D03*
X008000Y021000D03*
X008000Y019500D03*
X008000Y017000D03*
X011000Y016000D03*
X014000Y016000D03*
X014000Y013500D03*
X011000Y013500D03*
X008000Y014500D03*
X008000Y012000D03*
X011000Y011000D03*
X014000Y011000D03*
X014000Y009000D03*
X011000Y009000D03*
X008000Y009500D03*
X008000Y007000D03*
X008000Y006000D03*
X011000Y005000D03*
X014000Y005000D03*
X014000Y007000D03*
X011000Y007000D03*
X025500Y008000D03*
X025500Y009000D03*
X027500Y009500D03*
X028500Y009500D03*
X030000Y009000D03*
X031000Y008000D03*
X029500Y007500D03*
X030500Y005500D03*
X036500Y007500D03*
X031000Y016000D03*
X031000Y017000D03*
X032000Y019000D03*
X030500Y019500D03*
X028000Y019500D03*
X028500Y021000D03*
X026000Y021500D03*
X025500Y023000D03*
X028500Y023000D03*
X032000Y023000D03*
X036000Y020000D03*
X036500Y019000D03*
X014000Y022500D03*
X011000Y022500D03*
X008000Y023500D03*
M02*
