G75*
%MOIN*%
%OFA0B0*%
%FSLAX24Y24*%
%IPPOS*%
%LPD*%
%AMOC8*
5,1,8,0,0,1.08239X$1,22.5*
%
%ADD10R,0.5320X0.0960*%
%ADD11C,0.1500*%
%ADD12OC8,0.0720*%
%ADD13R,0.0685X0.0567*%
%ADD14R,0.0312X0.0852*%
%ADD15OC8,0.0624*%
%ADD16C,0.0576*%
D10*
X003625Y002125D03*
X003625Y003375D03*
X003625Y004625D03*
X003625Y005875D03*
X003625Y007125D03*
X003625Y008375D03*
X003625Y009625D03*
X003625Y010875D03*
X003625Y012125D03*
X003625Y013375D03*
X003625Y014625D03*
X003625Y015875D03*
X003625Y017125D03*
X003625Y018375D03*
X003625Y019625D03*
X003625Y020875D03*
X003625Y022125D03*
X003625Y023375D03*
D11*
X048000Y022750D03*
X048000Y002750D03*
D12*
X042500Y008500D03*
X041500Y008500D03*
X041500Y009500D03*
X042500Y009500D03*
X042500Y010500D03*
X041500Y010500D03*
X041500Y011500D03*
X042500Y011500D03*
X042500Y012500D03*
X041500Y012500D03*
X041500Y013500D03*
X042500Y013500D03*
X042500Y014500D03*
X041500Y014500D03*
X041500Y015500D03*
X042500Y015500D03*
X042500Y016500D03*
X041500Y016500D03*
X041500Y017500D03*
X042500Y017500D03*
X022500Y016500D03*
X021500Y016500D03*
X020500Y016500D03*
X019500Y016500D03*
X018500Y016500D03*
X018500Y014500D03*
X019500Y014500D03*
X020500Y014500D03*
X021500Y014500D03*
X022500Y014500D03*
X022500Y011500D03*
X021500Y011500D03*
X020500Y011500D03*
X019500Y011500D03*
X018500Y011500D03*
X018500Y009500D03*
X019500Y009500D03*
X020500Y009500D03*
X021500Y009500D03*
X022500Y009500D03*
X022500Y007500D03*
X021500Y007500D03*
X020500Y007500D03*
X019500Y007500D03*
X018500Y007500D03*
X018500Y005500D03*
X019500Y005500D03*
X020500Y005500D03*
X021500Y005500D03*
X022500Y005500D03*
X022500Y019500D03*
X021500Y019500D03*
X020500Y019500D03*
X019500Y019500D03*
X018500Y019500D03*
X018500Y021500D03*
X019500Y021500D03*
X020500Y021500D03*
X021500Y021500D03*
X022500Y021500D03*
X022500Y023500D03*
X021500Y023500D03*
X020500Y023500D03*
X019500Y023500D03*
X018500Y023500D03*
D13*
X016071Y023500D03*
X014929Y023500D03*
X014071Y023500D03*
X012929Y023500D03*
X012071Y023500D03*
X010929Y023500D03*
X010071Y023500D03*
X008929Y023500D03*
X008929Y022500D03*
X010071Y022500D03*
X010071Y021500D03*
X010929Y021500D03*
X012071Y021500D03*
X012929Y021500D03*
X014071Y021500D03*
X014929Y021500D03*
X016071Y021500D03*
X016071Y020500D03*
X014929Y020500D03*
X014929Y019500D03*
X014071Y019500D03*
X012929Y019500D03*
X012071Y019500D03*
X010929Y019500D03*
X010071Y019500D03*
X008929Y019500D03*
X008929Y018500D03*
X010071Y018500D03*
X010071Y017000D03*
X010929Y017000D03*
X012071Y017000D03*
X012929Y017000D03*
X014071Y017000D03*
X014929Y017000D03*
X016071Y017000D03*
X016071Y016000D03*
X014929Y016000D03*
X014929Y014500D03*
X014071Y014500D03*
X012929Y014500D03*
X012071Y014500D03*
X010929Y014500D03*
X010071Y014500D03*
X008929Y014500D03*
X008929Y013500D03*
X010071Y013500D03*
X010071Y012000D03*
X010929Y012000D03*
X012071Y012000D03*
X012929Y012000D03*
X014071Y012000D03*
X014929Y012000D03*
X016071Y012000D03*
X016071Y011000D03*
X014929Y011000D03*
X014929Y010000D03*
X014071Y010000D03*
X012929Y010000D03*
X012071Y010000D03*
X010929Y010000D03*
X010071Y010000D03*
X008929Y010000D03*
X008929Y009000D03*
X010071Y009000D03*
X010071Y008000D03*
X010929Y008000D03*
X012071Y008000D03*
X012929Y008000D03*
X014071Y008000D03*
X014929Y008000D03*
X016071Y008000D03*
X016071Y007000D03*
X014929Y007000D03*
X014929Y006000D03*
X014071Y006000D03*
X012929Y006000D03*
X012071Y006000D03*
X010929Y006000D03*
X010071Y006000D03*
X008929Y006000D03*
X008929Y005000D03*
X010071Y005000D03*
X010071Y007000D03*
X008929Y007000D03*
X008929Y008000D03*
X008929Y011000D03*
X010071Y011000D03*
X008929Y012000D03*
X014929Y013500D03*
X016071Y013500D03*
X016071Y014500D03*
X010071Y016000D03*
X008929Y016000D03*
X008929Y017000D03*
X014929Y018500D03*
X016071Y018500D03*
X016071Y019500D03*
X016071Y022500D03*
X014929Y022500D03*
X010071Y020500D03*
X008929Y020500D03*
X008929Y021500D03*
X016071Y010000D03*
X016071Y009000D03*
X014929Y009000D03*
X016071Y006000D03*
X016071Y005000D03*
X014929Y005000D03*
X015071Y003500D03*
X015929Y003500D03*
X017071Y003500D03*
X017071Y002500D03*
X015929Y002500D03*
X015071Y002500D03*
X013929Y002500D03*
X013929Y003500D03*
X023929Y003500D03*
X025071Y003500D03*
X025929Y003500D03*
X027071Y003500D03*
X027071Y002500D03*
X027929Y002500D03*
X029071Y002500D03*
X029929Y002500D03*
X031071Y002500D03*
X031929Y002500D03*
X033071Y002500D03*
X025929Y002500D03*
X025071Y002500D03*
X023929Y002500D03*
D14*
X028250Y006520D03*
X028750Y006520D03*
X029250Y006520D03*
X029750Y006520D03*
X030250Y006520D03*
X030750Y006520D03*
X031250Y006520D03*
X031750Y006520D03*
X032250Y006520D03*
X032750Y006520D03*
X032750Y010480D03*
X032250Y010480D03*
X031750Y010480D03*
X031250Y010480D03*
X030750Y010480D03*
X030250Y010480D03*
X029750Y010480D03*
X029250Y010480D03*
X028750Y010480D03*
X028250Y010480D03*
X028250Y018020D03*
X028750Y018020D03*
X029250Y018020D03*
X029750Y018020D03*
X030250Y018020D03*
X030750Y018020D03*
X031250Y018020D03*
X031750Y018020D03*
X032250Y018020D03*
X032750Y018020D03*
X032750Y021980D03*
X032250Y021980D03*
X031750Y021980D03*
X031250Y021980D03*
X030750Y021980D03*
X030250Y021980D03*
X029750Y021980D03*
X029250Y021980D03*
X028750Y021980D03*
X028250Y021980D03*
D15*
X033500Y021000D03*
X033500Y019000D03*
X033500Y009500D03*
X033500Y007500D03*
X012500Y003500D03*
X012500Y002500D03*
X008500Y002500D03*
X008500Y003500D03*
D16*
X011000Y005000D03*
X014000Y005000D03*
X014000Y007000D03*
X011000Y007000D03*
X008000Y007000D03*
X008000Y006000D03*
X011000Y009000D03*
X014000Y009000D03*
X014000Y011000D03*
X011000Y011000D03*
X008000Y012000D03*
X011000Y013500D03*
X014000Y013500D03*
X014000Y016000D03*
X011000Y016000D03*
X008000Y017000D03*
X011000Y018500D03*
X014000Y018500D03*
X014000Y020500D03*
X011000Y020500D03*
X008000Y021000D03*
X008000Y019500D03*
X011000Y022500D03*
X014000Y022500D03*
X008000Y023500D03*
X025500Y023000D03*
X026000Y021500D03*
X028500Y021000D03*
X028000Y019500D03*
X030500Y019500D03*
X032000Y019000D03*
X031000Y017000D03*
X031000Y016000D03*
X036500Y019000D03*
X036000Y020000D03*
X032000Y023000D03*
X028500Y023000D03*
X008000Y014500D03*
X008000Y009500D03*
X025500Y009000D03*
X025500Y008000D03*
X027500Y009500D03*
X028500Y009500D03*
X030000Y009000D03*
X031000Y008000D03*
X029500Y007500D03*
X030500Y005500D03*
X036500Y007500D03*
M02*
