G75*
%MOIN*%
%OFA0B0*%
%FSLAX24Y24*%
%IPPOS*%
%LPD*%
%AMOC8*
5,1,8,0,0,1.08239X$1,22.5*
%
%ADD10C,0.1340*%
%ADD11C,0.0680*%
%ADD12R,0.0592X0.0671*%
%ADD13C,0.0600*%
%ADD14C,0.0640*%
%ADD15C,0.0871*%
%ADD16C,0.0867*%
%ADD17C,0.0560*%
%ADD18C,0.0516*%
D10*
X002180Y002180D03*
X002180Y048180D03*
X068180Y048180D03*
X068180Y002180D03*
D11*
X060180Y002180D03*
X059180Y002180D03*
X059180Y003180D03*
X060180Y003180D03*
X058180Y003180D03*
X057180Y003180D03*
X057180Y002180D03*
X058180Y002180D03*
X056180Y002180D03*
X055180Y002180D03*
X054180Y002180D03*
X054180Y003180D03*
X055180Y003180D03*
X056180Y003180D03*
X053180Y003180D03*
X052180Y003180D03*
X052180Y002180D03*
X053180Y002180D03*
X051180Y002180D03*
X051180Y003180D03*
X051180Y006180D03*
X051180Y007180D03*
X052180Y007180D03*
X053180Y007180D03*
X053180Y006180D03*
X052180Y006180D03*
X054180Y006180D03*
X055180Y006180D03*
X056180Y006180D03*
X056180Y007180D03*
X055180Y007180D03*
X054180Y007180D03*
X057180Y007180D03*
X058180Y007180D03*
X058180Y006180D03*
X057180Y006180D03*
X059180Y006180D03*
X060180Y006180D03*
X060180Y007180D03*
X059180Y007180D03*
X023180Y021180D03*
X022180Y021180D03*
X021180Y021180D03*
X021180Y022180D03*
X022180Y022180D03*
X023180Y022180D03*
X020180Y022180D03*
X019180Y022180D03*
X019180Y021180D03*
X020180Y021180D03*
X018180Y021180D03*
X017180Y021180D03*
X017180Y022180D03*
X018180Y022180D03*
X016180Y022180D03*
X015180Y022180D03*
X014180Y022180D03*
X014180Y021180D03*
X015180Y021180D03*
X016180Y021180D03*
X013180Y021180D03*
X012180Y021180D03*
X012180Y022180D03*
X013180Y022180D03*
X011180Y022180D03*
X011180Y021180D03*
X011180Y007180D03*
X010180Y007180D03*
X010180Y006180D03*
X011180Y006180D03*
X012180Y006180D03*
X013180Y006180D03*
X013180Y007180D03*
X012180Y007180D03*
X014180Y007180D03*
X015180Y007180D03*
X016180Y007180D03*
X016180Y006180D03*
X015180Y006180D03*
X014180Y006180D03*
X017180Y006180D03*
X018180Y006180D03*
X018180Y007180D03*
X017180Y007180D03*
X019180Y007180D03*
X019180Y006180D03*
X019180Y003180D03*
X019180Y002180D03*
X018180Y002180D03*
X017180Y002180D03*
X017180Y003180D03*
X018180Y003180D03*
X016180Y003180D03*
X015180Y003180D03*
X014180Y003180D03*
X014180Y002180D03*
X015180Y002180D03*
X016180Y002180D03*
X013180Y002180D03*
X012180Y002180D03*
X012180Y003180D03*
X013180Y003180D03*
X011180Y003180D03*
X010180Y003180D03*
X010180Y002180D03*
X011180Y002180D03*
X011180Y043180D03*
X010180Y043180D03*
X010180Y044180D03*
X011180Y044180D03*
X012180Y044180D03*
X013180Y044180D03*
X013180Y043180D03*
X012180Y043180D03*
X014180Y043180D03*
X015180Y043180D03*
X016180Y043180D03*
X016180Y044180D03*
X015180Y044180D03*
X014180Y044180D03*
X017180Y044180D03*
X018180Y044180D03*
X018180Y043180D03*
X017180Y043180D03*
X019180Y043180D03*
X019180Y044180D03*
X019180Y047180D03*
X019180Y048180D03*
X018180Y048180D03*
X017180Y048180D03*
X017180Y047180D03*
X018180Y047180D03*
X016180Y047180D03*
X015180Y047180D03*
X014180Y047180D03*
X014180Y048180D03*
X015180Y048180D03*
X016180Y048180D03*
X013180Y048180D03*
X012180Y048180D03*
X012180Y047180D03*
X013180Y047180D03*
X011180Y047180D03*
X010180Y047180D03*
X010180Y048180D03*
X011180Y048180D03*
X030180Y048180D03*
X030180Y047180D03*
X031180Y047180D03*
X032180Y047180D03*
X032180Y048180D03*
X031180Y048180D03*
X033180Y048180D03*
X034180Y048180D03*
X034180Y047180D03*
X033180Y047180D03*
X035180Y047180D03*
X036180Y047180D03*
X037180Y047180D03*
X037180Y048180D03*
X036180Y048180D03*
X035180Y048180D03*
X038180Y048180D03*
X039180Y048180D03*
X039180Y047180D03*
X038180Y047180D03*
X038180Y044180D03*
X039180Y044180D03*
X039180Y043180D03*
X038180Y043180D03*
X037180Y043180D03*
X036180Y043180D03*
X035180Y043180D03*
X035180Y044180D03*
X036180Y044180D03*
X037180Y044180D03*
X034180Y044180D03*
X033180Y044180D03*
X033180Y043180D03*
X034180Y043180D03*
X032180Y043180D03*
X031180Y043180D03*
X031180Y044180D03*
X032180Y044180D03*
X030180Y044180D03*
X030180Y043180D03*
X051180Y043180D03*
X051180Y044180D03*
X052180Y044180D03*
X053180Y044180D03*
X053180Y043180D03*
X052180Y043180D03*
X054180Y043180D03*
X055180Y043180D03*
X056180Y043180D03*
X056180Y044180D03*
X055180Y044180D03*
X054180Y044180D03*
X057180Y044180D03*
X058180Y044180D03*
X058180Y043180D03*
X057180Y043180D03*
X059180Y043180D03*
X060180Y043180D03*
X060180Y044180D03*
X059180Y044180D03*
X059180Y047180D03*
X060180Y047180D03*
X060180Y048180D03*
X059180Y048180D03*
X058180Y048180D03*
X057180Y048180D03*
X057180Y047180D03*
X058180Y047180D03*
X056180Y047180D03*
X055180Y047180D03*
X054180Y047180D03*
X054180Y048180D03*
X055180Y048180D03*
X056180Y048180D03*
X053180Y048180D03*
X052180Y048180D03*
X052180Y047180D03*
X053180Y047180D03*
X051180Y047180D03*
X051180Y048180D03*
D12*
X017554Y036180D03*
X016806Y036180D03*
X016806Y034180D03*
X017554Y034180D03*
X017554Y033180D03*
X016806Y033180D03*
X016054Y032180D03*
X015306Y032180D03*
X014054Y032180D03*
X013306Y032180D03*
X013554Y033680D03*
X012806Y033680D03*
X012806Y035180D03*
X013554Y035180D03*
X013306Y036180D03*
X014054Y036180D03*
D13*
X023180Y038180D03*
X026180Y038180D03*
X026180Y041180D03*
X023180Y041180D03*
X023180Y044180D03*
X023180Y044180D03*
X026180Y044180D03*
X026180Y044180D03*
X051180Y032180D03*
X051180Y029180D03*
X052180Y029180D03*
X053180Y029180D03*
X054180Y029180D03*
X055180Y029180D03*
X056180Y029180D03*
X057180Y029180D03*
X058180Y029180D03*
X059180Y028180D03*
X058180Y026180D03*
X057180Y026180D03*
X056180Y026180D03*
X055180Y026180D03*
X054180Y026180D03*
X053180Y026180D03*
X052180Y026180D03*
X052180Y025180D03*
X051180Y026180D03*
X048180Y025180D03*
X051180Y022180D03*
X052180Y022180D03*
X053180Y022180D03*
X054180Y022180D03*
X055180Y022180D03*
X056180Y022180D03*
X057180Y022180D03*
X058180Y022180D03*
X058180Y019180D03*
X057180Y019180D03*
X056180Y019180D03*
X055180Y019180D03*
X054180Y019180D03*
X053180Y019180D03*
X052180Y019180D03*
X051180Y019180D03*
X055180Y032180D03*
X059180Y032180D03*
D14*
X061680Y031680D03*
X061680Y030680D03*
X061680Y029680D03*
X061680Y028680D03*
X061680Y027680D03*
X061680Y026680D03*
X061680Y025680D03*
X061680Y024680D03*
X061680Y023680D03*
X061680Y022680D03*
X061680Y021680D03*
X061680Y020680D03*
X061680Y019680D03*
X061680Y018680D03*
X061680Y017680D03*
X061680Y016680D03*
X062680Y016680D03*
X062680Y017680D03*
X062680Y018680D03*
X062680Y019680D03*
X062680Y020680D03*
X062680Y021680D03*
X062680Y022680D03*
X062680Y023680D03*
X062680Y024680D03*
X062680Y025680D03*
X062680Y026680D03*
X062680Y027680D03*
X062680Y028680D03*
X062680Y029680D03*
X062680Y030680D03*
X062680Y031680D03*
X062680Y032680D03*
X062680Y033680D03*
X062680Y034680D03*
X062680Y035680D03*
X061680Y035680D03*
X061680Y034680D03*
X061680Y033680D03*
X061680Y032680D03*
X013180Y016180D03*
X012180Y016180D03*
X012180Y015180D03*
X013180Y015180D03*
X013180Y014180D03*
X012180Y014180D03*
X011180Y014180D03*
X011180Y015180D03*
X011180Y016180D03*
X007180Y023180D03*
X007180Y024180D03*
X007180Y025180D03*
X007180Y026180D03*
X007180Y027180D03*
X006180Y027180D03*
X006180Y026180D03*
X006180Y025180D03*
X006180Y024180D03*
X006180Y023180D03*
D15*
X003176Y014881D03*
X001680Y014881D03*
X001680Y011479D03*
X003176Y011479D03*
D16*
X004932Y016196D03*
X006113Y018164D03*
X003633Y018164D03*
D17*
X010680Y018680D03*
X011680Y018680D03*
X012680Y018680D03*
X012180Y027180D03*
X012180Y028180D03*
X012680Y028680D03*
X012180Y029180D03*
X010680Y030930D03*
X012680Y032680D03*
X014680Y032180D03*
X015430Y031180D03*
X016680Y032180D03*
X017680Y032180D03*
X017680Y031180D03*
X013430Y034430D03*
X012680Y036180D03*
X014680Y036180D03*
X015430Y036180D03*
X016180Y036180D03*
X016680Y035180D03*
X017680Y035180D03*
X024680Y037680D03*
X025680Y037180D03*
X025680Y038680D03*
X025180Y039180D03*
X024680Y039680D03*
X024180Y040180D03*
X023680Y040680D03*
X022180Y041180D03*
X021680Y041680D03*
X021180Y042180D03*
X020680Y042680D03*
X020180Y043180D03*
X030680Y042680D03*
X031680Y042180D03*
X032680Y042180D03*
X033680Y042430D03*
X034680Y041430D03*
X035680Y041680D03*
X041680Y045180D03*
X043180Y045680D03*
X044680Y046180D03*
X046180Y044680D03*
X048680Y044680D03*
X050180Y046680D03*
X027430Y034930D03*
X026430Y034930D03*
X025430Y034930D03*
X007680Y039680D03*
X007680Y040680D03*
X006680Y035680D03*
X006180Y035180D03*
X005680Y034680D03*
X007180Y032680D03*
X040180Y019180D03*
X042180Y017180D03*
X059180Y016180D03*
X059180Y020180D03*
X060680Y023680D03*
X059680Y024180D03*
D18*
X012870Y038180D03*
M02*
