G75*
G70*
%OFA0B0*%
%FSLAX24Y24*%
%IPPOS*%
%LPD*%
%AMOC8*
5,1,8,0,0,1.08239X$1,22.5*
%
%ADD10C,0.0000*%
%ADD11C,0.0060*%
%ADD12C,0.0080*%
%ADD13R,0.0598X0.0193*%
%ADD14R,0.0599X0.0193*%
D10*
X000104Y017566D02*
X000104Y001196D01*
X008496Y001196D01*
X008496Y017566D01*
X000104Y017566D01*
D11*
X000681Y016739D02*
X001322Y016312D01*
X001322Y016095D02*
X000895Y016095D01*
X000895Y015668D02*
X001215Y015668D01*
X001322Y015775D01*
X001322Y016095D01*
X001322Y015450D02*
X001322Y015130D01*
X001215Y015023D01*
X001002Y015023D01*
X000895Y015130D01*
X000895Y015450D01*
X000681Y015450D02*
X001322Y015450D01*
X001108Y014806D02*
X001108Y014379D01*
X001002Y014379D02*
X000895Y014486D01*
X000895Y014699D01*
X001002Y014806D01*
X001108Y014806D01*
X001322Y014699D02*
X001322Y014486D01*
X001215Y014379D01*
X001002Y014379D01*
X001215Y013949D02*
X001322Y013949D01*
X001322Y013842D01*
X001215Y013842D01*
X001215Y013949D01*
X001322Y013518D02*
X001215Y013411D01*
X000788Y013411D01*
X000895Y013305D02*
X000895Y013518D01*
X000895Y012874D02*
X001322Y012874D01*
X001322Y012768D02*
X001322Y012981D01*
X001322Y012550D02*
X001002Y012550D01*
X000895Y012443D01*
X001002Y012337D01*
X001322Y012337D01*
X001322Y012123D02*
X000895Y012123D01*
X000895Y012230D01*
X001002Y012337D01*
X000895Y012768D02*
X000895Y012874D01*
X000681Y012874D02*
X000575Y012874D01*
X001215Y011693D02*
X001322Y011693D01*
X001322Y011586D01*
X001215Y011586D01*
X001215Y011693D01*
X001322Y011369D02*
X001322Y011048D01*
X001215Y010941D01*
X001108Y011048D01*
X001108Y011369D01*
X001002Y011369D02*
X001322Y011369D01*
X001002Y011369D02*
X000895Y011262D01*
X000895Y011048D01*
X000895Y010511D02*
X001322Y010511D01*
X001322Y010404D02*
X001322Y010618D01*
X001322Y010187D02*
X001322Y009867D01*
X001215Y009760D01*
X001002Y009760D01*
X000895Y009867D01*
X000895Y010187D01*
X000895Y010404D02*
X000895Y010511D01*
X000681Y010511D02*
X000575Y010511D01*
X000681Y010187D02*
X001322Y010187D01*
X001108Y009542D02*
X001002Y009542D01*
X000895Y009436D01*
X000895Y009222D01*
X001002Y009115D01*
X001215Y009115D01*
X001322Y009222D01*
X001322Y009436D01*
X001108Y009542D02*
X001108Y009115D01*
X001002Y008898D02*
X001322Y008898D01*
X001322Y008684D02*
X001002Y008684D01*
X000895Y008791D01*
X001002Y008898D01*
X001002Y008684D02*
X000895Y008578D01*
X000895Y008471D01*
X001322Y008471D01*
X001322Y008040D02*
X001215Y008040D01*
X001215Y007934D01*
X001322Y007934D01*
X001322Y008040D01*
X001215Y007716D02*
X000895Y007716D01*
X000895Y007289D02*
X001215Y007289D01*
X001322Y007396D01*
X001215Y007503D01*
X001322Y007609D01*
X001215Y007716D01*
X001215Y007072D02*
X000895Y007072D01*
X000895Y006645D02*
X001215Y006645D01*
X001322Y006751D01*
X001215Y006858D01*
X001322Y006965D01*
X001215Y007072D01*
X001215Y006427D02*
X000895Y006427D01*
X000895Y006000D02*
X001215Y006000D01*
X001322Y006107D01*
X001215Y006214D01*
X001322Y006320D01*
X001215Y006427D01*
X000681Y005783D02*
X001322Y005356D01*
X001322Y004711D02*
X000681Y005138D01*
X000895Y004281D02*
X001002Y004281D01*
X001002Y004174D01*
X000895Y004174D01*
X000895Y004281D01*
X001002Y003956D02*
X000895Y003850D01*
X000895Y003529D01*
X001535Y003529D01*
X001322Y003529D02*
X001322Y003850D01*
X001215Y003956D01*
X001002Y003956D01*
X001215Y004174D02*
X001322Y004174D01*
X001322Y004281D01*
X001215Y004281D01*
X001215Y004174D01*
X001322Y003206D02*
X001215Y003099D01*
X000788Y003099D01*
X000895Y002992D02*
X000895Y003206D01*
X000895Y002669D02*
X000895Y002455D01*
X000788Y002562D02*
X001215Y002562D01*
X001322Y002669D01*
X001322Y002238D02*
X001002Y002238D01*
X000895Y002131D01*
X000895Y001918D01*
X001002Y001811D01*
X001322Y001811D02*
X000681Y001811D01*
X002502Y007181D02*
X002252Y007431D01*
X002252Y007931D01*
X002502Y008181D01*
X002252Y008431D01*
X002252Y008931D01*
X002502Y009181D01*
X003002Y009181D01*
X003252Y008931D01*
X003252Y008431D01*
X003002Y008181D01*
X003252Y007931D01*
X003252Y007431D01*
X003002Y007181D01*
X002502Y007181D01*
X002502Y008181D02*
X003002Y008181D01*
X003002Y009181D02*
X003252Y009431D01*
X003252Y009931D01*
X003002Y010181D01*
X003252Y010431D01*
X003252Y010931D01*
X003002Y011181D01*
X003252Y011431D01*
X003252Y011931D01*
X003002Y012181D01*
X002502Y012181D01*
X002252Y011931D01*
X002252Y011431D01*
X002502Y011181D01*
X003002Y011181D01*
X002502Y011181D02*
X002252Y010931D01*
X002252Y010431D01*
X002502Y010181D01*
X003002Y010181D01*
X002502Y010181D02*
X002252Y009931D01*
X002252Y009431D01*
X002502Y009181D01*
X002502Y012181D02*
X002252Y012431D01*
X002252Y012931D01*
X002502Y013181D01*
X002252Y013431D01*
X002252Y013931D01*
X002502Y014181D01*
X002252Y014431D01*
X002252Y014931D01*
X002502Y015181D01*
X003002Y015181D01*
X003252Y014931D01*
X003252Y014431D01*
X003002Y014181D01*
X003252Y013931D01*
X003252Y013431D01*
X003002Y013181D01*
X003252Y012931D01*
X003252Y012431D01*
X003002Y012181D01*
X003002Y013181D02*
X002502Y013181D01*
X002502Y014181D02*
X003002Y014181D01*
X003002Y015181D02*
X003252Y015431D01*
X003252Y015931D01*
X003002Y016181D01*
X003252Y016431D01*
X003252Y016931D01*
X003002Y017181D01*
X002502Y017181D01*
X002252Y016931D01*
X002252Y016431D01*
X002502Y016181D01*
X003002Y016181D01*
X002502Y016181D02*
X002252Y015931D01*
X002252Y015431D01*
X002502Y015181D01*
X005252Y015431D02*
X005252Y015931D01*
X005502Y016181D01*
X005252Y016431D01*
X005252Y016931D01*
X005502Y017181D01*
X006002Y017181D01*
X006252Y016931D01*
X006252Y016431D01*
X006002Y016181D01*
X006252Y015931D01*
X006252Y015431D01*
X006002Y015181D01*
X006252Y014931D01*
X006252Y014431D01*
X006002Y014181D01*
X006252Y013931D01*
X006252Y013431D01*
X006002Y013181D01*
X006252Y012931D01*
X006252Y012431D01*
X006002Y012181D01*
X006252Y011931D01*
X006252Y011431D01*
X006002Y011181D01*
X006252Y010931D01*
X006252Y010431D01*
X006002Y010181D01*
X006252Y009931D01*
X006252Y009431D01*
X006002Y009181D01*
X006252Y008931D01*
X006252Y008431D01*
X006002Y008181D01*
X006252Y007931D01*
X006252Y007431D01*
X006002Y007181D01*
X005502Y007181D01*
X005252Y007431D01*
X005252Y007931D01*
X005502Y008181D01*
X005252Y008431D01*
X005252Y008931D01*
X005502Y009181D01*
X006002Y009181D01*
X005502Y009181D02*
X005252Y009431D01*
X005252Y009931D01*
X005502Y010181D01*
X005252Y010431D01*
X005252Y010931D01*
X005502Y011181D01*
X005252Y011431D01*
X005252Y011931D01*
X005502Y012181D01*
X006002Y012181D01*
X005502Y012181D02*
X005252Y012431D01*
X005252Y012931D01*
X005502Y013181D01*
X005252Y013431D01*
X005252Y013931D01*
X005502Y014181D01*
X005252Y014431D01*
X005252Y014931D01*
X005502Y015181D01*
X006002Y015181D01*
X005502Y015181D02*
X005252Y015431D01*
X005502Y016181D02*
X006002Y016181D01*
X006002Y014181D02*
X005502Y014181D01*
X005502Y013181D02*
X006002Y013181D01*
X006002Y011181D02*
X005502Y011181D01*
X005502Y010181D02*
X006002Y010181D01*
X006002Y008181D02*
X005502Y008181D01*
X007081Y007998D02*
X007722Y007998D01*
X007722Y007677D01*
X007615Y007571D01*
X007402Y007571D01*
X007295Y007677D01*
X007295Y007998D01*
X007295Y008322D02*
X007295Y008535D01*
X007402Y008642D01*
X007722Y008642D01*
X007722Y008322D01*
X007615Y008215D01*
X007508Y008322D01*
X007508Y008642D01*
X007722Y008860D02*
X007081Y009287D01*
X007295Y009504D02*
X007722Y009504D01*
X007508Y009504D02*
X007295Y009718D01*
X007295Y009824D01*
X007402Y010149D02*
X007295Y010255D01*
X007295Y010469D01*
X007402Y010576D01*
X007508Y010576D01*
X007508Y010149D01*
X007402Y010149D02*
X007615Y010149D01*
X007722Y010255D01*
X007722Y010469D01*
X007722Y010793D02*
X007722Y011113D01*
X007615Y011220D01*
X007508Y011113D01*
X007508Y010900D01*
X007402Y010793D01*
X007295Y010900D01*
X007295Y011220D01*
X007402Y011438D02*
X007295Y011544D01*
X007295Y011758D01*
X007402Y011865D01*
X007615Y011865D01*
X007722Y011758D01*
X007722Y011544D01*
X007615Y011438D01*
X007402Y011438D01*
X007295Y012082D02*
X007615Y012082D01*
X007722Y012189D01*
X007722Y012509D01*
X007295Y012509D01*
X007295Y012727D02*
X007722Y012727D01*
X007508Y012727D02*
X007295Y012940D01*
X007295Y013047D01*
X007402Y013371D02*
X007615Y013371D01*
X007722Y013478D01*
X007722Y013798D01*
X007615Y014016D02*
X007402Y014016D01*
X007295Y014123D01*
X007295Y014336D01*
X007402Y014443D01*
X007508Y014443D01*
X007508Y014016D01*
X007615Y014016D02*
X007722Y014123D01*
X007722Y014336D01*
X007722Y014660D02*
X007722Y014981D01*
X007615Y015087D01*
X007508Y014981D01*
X007508Y014767D01*
X007402Y014660D01*
X007295Y014767D01*
X007295Y015087D01*
X007295Y013798D02*
X007295Y013478D01*
X007402Y013371D01*
X007402Y007353D02*
X007722Y007353D01*
X007722Y007033D01*
X007615Y006926D01*
X007508Y007033D01*
X007508Y007353D01*
X007402Y007353D02*
X007295Y007246D01*
X007295Y007033D01*
X007295Y006708D02*
X007829Y006708D01*
X007935Y006602D01*
X007935Y006495D01*
X007722Y006388D02*
X007722Y006708D01*
X007722Y006388D02*
X007615Y006281D01*
X007295Y006281D01*
X007295Y006064D02*
X007295Y005744D01*
X007402Y005637D01*
X007615Y005637D01*
X007722Y005744D01*
X007722Y006064D01*
X007081Y006064D01*
X007402Y005419D02*
X007295Y005313D01*
X007295Y005099D01*
X007402Y005419D02*
X007722Y005419D01*
X007722Y005099D01*
X007615Y004992D01*
X007508Y005099D01*
X007508Y005419D01*
X007722Y004669D02*
X007722Y004455D01*
X007722Y004562D02*
X007081Y004562D01*
X007081Y004455D01*
X007081Y004238D02*
X007188Y004131D01*
X006975Y003918D01*
X007081Y003811D01*
D12*
X005759Y001736D02*
X005562Y001736D01*
X005759Y001736D02*
X005759Y006726D01*
X005562Y006726D01*
D13*
X006097Y003481D03*
X006097Y002981D03*
X006097Y002481D03*
X006097Y001981D03*
X002507Y001981D03*
X002507Y002481D03*
X002507Y002981D03*
X002507Y003481D03*
D14*
X006097Y003981D03*
X006097Y004481D03*
X006097Y004981D03*
X006097Y005481D03*
X006097Y005981D03*
X006097Y006481D03*
M02*
