G75*
G70*
%OFA0B0*%
%FSLAX24Y24*%
%IPPOS*%
%LPD*%
%AMOC8*
5,1,8,0,0,1.08239X$1,22.5*
%
%ADD10C,0.0060*%
%ADD11R,0.1750X0.0250*%
%ADD12O,0.1200X0.0600*%
%ADD13C,0.0100*%
D10*
X004515Y015698D02*
X004622Y015591D01*
X004622Y015377D01*
X004515Y015271D01*
X004088Y015698D01*
X004515Y015698D01*
X004515Y015271D02*
X004088Y015271D01*
X003981Y015377D01*
X003981Y015591D01*
X004088Y015698D01*
X004088Y015053D02*
X003981Y014946D01*
X003981Y014733D01*
X004088Y014626D01*
X004088Y015053D02*
X004195Y015053D01*
X004622Y014626D01*
X004622Y015053D01*
X004302Y014408D02*
X004302Y013981D01*
X004515Y013764D02*
X004622Y013657D01*
X004622Y013444D01*
X004515Y013337D01*
X004088Y013337D01*
X003981Y013444D01*
X003981Y013657D01*
X004088Y013764D01*
X003981Y013013D02*
X003981Y012800D01*
X003981Y012907D02*
X004622Y012907D01*
X004622Y013013D02*
X004622Y012800D01*
X004515Y012582D02*
X004088Y012582D01*
X003981Y012476D01*
X003981Y012262D01*
X004088Y012155D01*
X004515Y012155D01*
X004622Y012262D01*
X004622Y012476D01*
X004515Y012582D01*
X004515Y011938D02*
X004408Y011938D01*
X004302Y011831D01*
X004302Y011618D01*
X004195Y011511D01*
X004088Y011511D01*
X003981Y011618D01*
X003981Y011831D01*
X004088Y011938D01*
X004515Y011938D02*
X004622Y011831D01*
X004622Y011618D01*
X004515Y011511D01*
D11*
X005702Y006481D03*
X005702Y005981D03*
X005702Y005481D03*
X005702Y004981D03*
X005702Y004481D03*
X005702Y003981D03*
X005702Y003481D03*
X005702Y002981D03*
X005702Y002481D03*
X005702Y001981D03*
X002902Y001981D03*
X002902Y002481D03*
X002902Y002981D03*
X002902Y003481D03*
X002902Y003981D03*
X002902Y004481D03*
X002902Y004981D03*
X002902Y005481D03*
X002902Y005981D03*
X002902Y006481D03*
D12*
X002752Y007681D03*
X002752Y008681D03*
X002752Y009681D03*
X002752Y010681D03*
X002752Y011681D03*
X002752Y012681D03*
X002752Y013681D03*
X002752Y014681D03*
X002752Y015681D03*
X002752Y016681D03*
X005752Y016681D03*
X005752Y015681D03*
X005752Y014681D03*
X005752Y013681D03*
X005752Y012681D03*
X005752Y011681D03*
X005752Y010681D03*
X005752Y009681D03*
X005752Y008681D03*
X005752Y007681D03*
D13*
X000652Y002981D02*
X001652Y001981D01*
X002902Y001981D01*
X002902Y002481D02*
X001552Y002481D01*
X000852Y003181D01*
X000852Y014381D01*
X002152Y015681D01*
X002752Y015681D01*
X002752Y014781D02*
X002652Y014681D01*
X002052Y014681D01*
X001052Y013681D01*
X001052Y003681D01*
X001752Y002981D01*
X002902Y002981D01*
X002902Y003481D02*
X002052Y003481D01*
X001252Y004281D01*
X001252Y012681D01*
X002252Y013681D01*
X002752Y013681D01*
X002752Y014681D02*
X002752Y014781D01*
X002752Y016681D02*
X001952Y016681D01*
X000652Y015381D01*
X000652Y002981D01*
X001852Y003981D02*
X001452Y004381D01*
X001452Y011881D01*
X002252Y012681D01*
X002752Y012681D01*
X002752Y011681D02*
X002252Y011681D01*
X001652Y011081D01*
X001652Y004481D01*
X002902Y004481D01*
X002902Y004981D02*
X002052Y004981D01*
X001852Y005181D01*
X001852Y010181D01*
X002352Y010681D01*
X002752Y010681D01*
X002752Y009681D02*
X003652Y009681D01*
X004152Y009181D01*
X004152Y005881D01*
X003752Y005481D01*
X002902Y005481D01*
X002902Y005981D02*
X003952Y005981D01*
X003952Y008581D01*
X003852Y008681D01*
X002752Y008681D01*
X002752Y007681D02*
X002752Y006481D01*
X002902Y006481D01*
X002902Y003981D02*
X001852Y003981D01*
X004752Y005481D02*
X004452Y005981D01*
X004452Y008981D01*
X004852Y009581D01*
X005652Y009581D01*
X005752Y009681D01*
X005752Y010681D02*
X006252Y010681D01*
X006752Y010181D01*
X006752Y005281D01*
X006452Y004981D01*
X005702Y004981D01*
X005702Y004481D02*
X006552Y004481D01*
X006952Y004881D01*
X006952Y011081D01*
X006352Y011681D01*
X005752Y011681D01*
X005752Y012681D02*
X006552Y012681D01*
X007152Y012081D01*
X007152Y004581D01*
X006552Y003981D01*
X005702Y003981D01*
X005702Y003481D02*
X006652Y003481D01*
X007352Y004181D01*
X007352Y012881D01*
X006552Y013681D01*
X005752Y013681D01*
X005752Y014681D02*
X006452Y014681D01*
X007552Y013581D01*
X007552Y003981D01*
X006552Y002981D01*
X005702Y002981D01*
X005702Y002481D02*
X007152Y002481D01*
X007752Y003081D01*
X007752Y014581D01*
X006652Y015681D01*
X005752Y015681D01*
X005752Y016681D02*
X006952Y016681D01*
X007952Y015681D01*
X007952Y002581D01*
X007352Y001981D01*
X005702Y001981D01*
X005702Y005481D02*
X004752Y005481D01*
X004752Y005981D02*
X004652Y006181D01*
X004652Y008181D01*
X004952Y008581D01*
X005652Y008581D01*
X005752Y008681D01*
X005752Y007681D02*
X005652Y007681D01*
X005652Y006481D01*
X005702Y006481D01*
X005702Y005981D02*
X004752Y005981D01*
M02*
