G75*
G70*
%OFA0B0*%
%FSLAX24Y24*%
%IPPOS*%
%LPD*%
%AMOC8*
5,1,8,0,0,1.08239X$1,22.5*
%
%ADD10C,0.0060*%
%ADD11R,0.1750X0.0250*%
%ADD12C,0.0550*%
%ADD13C,0.0100*%
D10*
X005725Y006675D02*
X005298Y006675D01*
X005725Y006248D01*
X005831Y006354D01*
X005831Y006568D01*
X005725Y006675D01*
X005725Y006248D02*
X005298Y006248D01*
X005191Y006354D01*
X005191Y006568D01*
X005298Y006675D01*
X005298Y006030D02*
X005191Y005923D01*
X005191Y005710D01*
X005298Y005603D01*
X005511Y005386D02*
X005511Y004959D01*
X005298Y004741D02*
X005191Y004634D01*
X005191Y004421D01*
X005298Y004314D01*
X005725Y004314D01*
X005831Y004421D01*
X005831Y004634D01*
X005725Y004741D01*
X005831Y003991D02*
X005831Y003777D01*
X005831Y003884D02*
X005191Y003884D01*
X005191Y003777D02*
X005191Y003991D01*
X005298Y003559D02*
X005191Y003453D01*
X005191Y003239D01*
X005298Y003132D01*
X005725Y003132D01*
X005831Y003239D01*
X005831Y003453D01*
X005725Y003559D01*
X005298Y003559D01*
X005298Y002915D02*
X005191Y002808D01*
X005191Y002595D01*
X005298Y002488D01*
X005404Y002488D01*
X005511Y002595D01*
X005511Y002808D01*
X005618Y002915D01*
X005725Y002915D01*
X005831Y002808D01*
X005831Y002595D01*
X005725Y002488D01*
X005831Y005603D02*
X005404Y006030D01*
X005298Y006030D01*
X005831Y006030D02*
X005831Y005603D01*
D11*
X006911Y005658D03*
X006911Y005158D03*
X006911Y004658D03*
X006911Y006158D03*
X006911Y006658D03*
X006911Y007158D03*
X006911Y007658D03*
X006911Y008158D03*
X006911Y008658D03*
X006911Y009158D03*
X004111Y009158D03*
X004111Y008658D03*
X004111Y008158D03*
X004111Y007658D03*
X004111Y007158D03*
X004111Y006658D03*
X004111Y006158D03*
X004111Y005658D03*
X004111Y005158D03*
X004111Y004658D03*
D12*
X002461Y004458D03*
X002461Y005458D03*
X002461Y006458D03*
X002461Y007458D03*
X002461Y008458D03*
X002461Y009458D03*
X002461Y010458D03*
X002461Y011458D03*
X008461Y011458D03*
X008461Y010458D03*
X008461Y009458D03*
X008461Y008458D03*
X008461Y007458D03*
X008461Y006458D03*
X008461Y005458D03*
X008461Y004458D03*
X008461Y003458D03*
X008461Y002458D03*
X002461Y002458D03*
X002461Y003458D03*
D13*
X002461Y002458D02*
X002361Y002458D01*
X002461Y002458D02*
X003261Y002458D01*
X004111Y003308D01*
X004111Y004658D01*
X004111Y005158D02*
X003161Y005158D01*
X003061Y005058D01*
X003061Y003758D01*
X002761Y003458D01*
X002461Y003458D01*
X002461Y004458D02*
X002661Y004658D01*
X002661Y004958D01*
X002961Y005258D01*
X002961Y005358D01*
X003261Y005658D01*
X004111Y005658D01*
X004111Y006158D02*
X002861Y006158D01*
X002461Y005758D01*
X002461Y005458D01*
X002461Y006458D02*
X002661Y006658D01*
X004111Y006658D01*
X004111Y007158D02*
X002761Y007158D01*
X002461Y007458D01*
X003061Y007658D02*
X002461Y008258D01*
X002461Y008458D01*
X002961Y008558D02*
X002961Y008358D01*
X003161Y008158D01*
X004111Y008158D01*
X004111Y007658D02*
X003061Y007658D01*
X002961Y008558D02*
X002461Y009258D01*
X002461Y009458D01*
X002461Y009558D01*
X003061Y010258D02*
X003061Y008858D01*
X003161Y008658D01*
X004111Y008658D01*
X004111Y009158D02*
X004111Y009908D01*
X002561Y011458D01*
X002461Y011458D01*
X002461Y010458D02*
X002761Y010458D01*
X003061Y010258D01*
X006911Y010708D02*
X006911Y009158D01*
X006911Y008658D02*
X007761Y008658D01*
X007961Y008958D01*
X007961Y010158D01*
X008261Y010458D01*
X008461Y010458D01*
X008461Y011458D02*
X007661Y011458D01*
X006911Y010708D01*
X008461Y009458D02*
X008261Y008958D01*
X007961Y008458D01*
X007661Y008158D01*
X006911Y008158D01*
X006911Y007658D02*
X007761Y007658D01*
X008461Y008358D01*
X008461Y008458D01*
X008461Y007458D02*
X008161Y007158D01*
X006911Y007158D01*
X006911Y006658D02*
X008261Y006658D01*
X008461Y006458D01*
X007761Y006158D02*
X008461Y005458D01*
X008361Y004958D02*
X008261Y004958D01*
X007961Y005258D01*
X007961Y005458D01*
X007761Y005658D01*
X006911Y005658D01*
X006911Y005158D02*
X007761Y005158D01*
X007961Y004958D01*
X007961Y003958D01*
X008461Y003458D01*
X008461Y002458D02*
X007461Y002458D01*
X006911Y003008D01*
X006911Y004658D01*
X006911Y006158D02*
X007761Y006158D01*
X008361Y004958D02*
X008561Y004758D01*
X008561Y004658D01*
X008461Y004558D01*
X008461Y004458D01*
M02*
