G75*
G70*
%OFA0B0*%
%FSLAX24Y24*%
%IPPOS*%
%LPD*%
%AMOC8*
5,1,8,0,0,1.08239X$1,22.5*
%
%ADD10C,0.0000*%
%ADD11C,0.0080*%
%ADD12C,0.0060*%
%ADD13R,0.0598X0.0193*%
%ADD14R,0.0599X0.0193*%
D10*
X000264Y014476D02*
X000264Y001406D01*
X007956Y001406D01*
X007956Y014476D01*
X000264Y014476D01*
D11*
X001131Y012898D02*
X001018Y012785D01*
X001018Y012558D01*
X001131Y012898D02*
X001472Y012898D01*
X001472Y012558D01*
X001358Y012444D01*
X001245Y012558D01*
X001245Y012898D01*
X001358Y013144D02*
X001358Y013257D01*
X001472Y013257D01*
X001472Y013144D01*
X001358Y013144D01*
X001472Y012088D02*
X001472Y011861D01*
X001472Y011975D02*
X001018Y011975D01*
X001018Y011861D01*
X001018Y011615D02*
X001018Y011275D01*
X001131Y011161D01*
X001358Y011161D01*
X001472Y011275D01*
X001472Y011615D01*
X000791Y011615D01*
X000791Y011975D02*
X000678Y011975D01*
X001131Y010915D02*
X001245Y010915D01*
X001245Y010462D01*
X001358Y010462D02*
X001131Y010462D01*
X001018Y010575D01*
X001018Y010802D01*
X001131Y010915D01*
X001472Y010575D02*
X001358Y010462D01*
X001472Y010575D02*
X001472Y010802D01*
X001472Y010216D02*
X001131Y010216D01*
X001018Y010102D01*
X001131Y009989D01*
X001472Y009989D01*
X001472Y009762D02*
X001018Y009762D01*
X001018Y009875D01*
X001131Y009989D01*
X001358Y009292D02*
X001472Y009292D01*
X001472Y009179D01*
X001358Y009179D01*
X001358Y009292D01*
X001358Y008933D02*
X001018Y008933D01*
X001018Y008479D02*
X001358Y008479D01*
X001472Y008592D01*
X001358Y008706D01*
X001472Y008819D01*
X001358Y008933D01*
X001358Y008233D02*
X001018Y008233D01*
X001018Y007779D02*
X001358Y007779D01*
X001472Y007893D01*
X001358Y008006D01*
X001472Y008119D01*
X001358Y008233D01*
X001358Y007533D02*
X001018Y007533D01*
X001018Y007079D02*
X001358Y007079D01*
X001472Y007193D01*
X001358Y007306D01*
X001472Y007420D01*
X001358Y007533D01*
X000791Y006833D02*
X001472Y006380D01*
X001472Y005680D02*
X000791Y006134D01*
X001018Y005210D02*
X001131Y005210D01*
X001131Y005097D01*
X001018Y005097D01*
X001018Y005210D01*
X001131Y004851D02*
X001018Y004737D01*
X001018Y004397D01*
X001699Y004397D01*
X001472Y004397D02*
X001472Y004737D01*
X001358Y004851D01*
X001131Y004851D01*
X001358Y005097D02*
X001472Y005097D01*
X001472Y005210D01*
X001358Y005210D01*
X001358Y005097D01*
X001472Y004041D02*
X001358Y003927D01*
X000905Y003927D01*
X001018Y003814D02*
X001018Y004041D01*
X001018Y003457D02*
X001018Y003231D01*
X000905Y003344D02*
X001358Y003344D01*
X001472Y003457D01*
X001472Y002985D02*
X001131Y002985D01*
X001018Y002871D01*
X001018Y002644D01*
X001131Y002531D01*
X000791Y002531D02*
X001472Y002531D01*
X005321Y001746D02*
X005518Y001746D01*
X005518Y005736D01*
X005321Y005736D01*
X006691Y007679D02*
X006578Y007793D01*
X006805Y008019D01*
X006691Y008133D01*
X006691Y008379D02*
X006691Y008492D01*
X007372Y008492D01*
X007372Y008379D02*
X007372Y008606D01*
X007258Y008962D02*
X007145Y009075D01*
X007145Y009416D01*
X007031Y009416D02*
X007372Y009416D01*
X007372Y009075D01*
X007258Y008962D01*
X006918Y009302D02*
X007031Y009416D01*
X007031Y009662D02*
X006918Y009775D01*
X006918Y010116D01*
X006918Y010362D02*
X007258Y010362D01*
X007372Y010475D01*
X007372Y010815D01*
X007485Y010815D02*
X007599Y010702D01*
X007599Y010588D01*
X007485Y010815D02*
X006918Y010815D01*
X006918Y011175D02*
X006918Y011402D01*
X007031Y011515D01*
X007372Y011515D01*
X007372Y011175D01*
X007258Y011061D01*
X007145Y011175D01*
X007145Y011515D01*
X007258Y011761D02*
X007031Y011761D01*
X006918Y011875D01*
X006918Y012215D01*
X006691Y012215D02*
X007372Y012215D01*
X007372Y011875D01*
X007258Y011761D01*
X007258Y012461D02*
X007145Y012574D01*
X007145Y012915D01*
X007031Y012915D02*
X007372Y012915D01*
X007372Y012574D01*
X007258Y012461D01*
X006918Y012801D02*
X007031Y012915D01*
X006918Y012801D02*
X006918Y012574D01*
X006691Y010116D02*
X007372Y010116D01*
X007372Y009775D01*
X007258Y009662D01*
X007031Y009662D01*
X006918Y009302D02*
X006918Y009075D01*
X006691Y007433D02*
X007372Y006979D01*
X007372Y006733D02*
X006918Y006733D01*
X006918Y006280D02*
X007258Y006280D01*
X007372Y006393D01*
X007372Y006733D01*
X007372Y006034D02*
X007372Y005693D01*
X007258Y005580D01*
X007031Y005580D01*
X006918Y005693D01*
X006918Y006034D01*
X006691Y006034D02*
X007372Y006034D01*
X007145Y005334D02*
X007031Y005334D01*
X006918Y005220D01*
X006918Y004994D01*
X007031Y004880D01*
X007258Y004880D01*
X007372Y004994D01*
X007372Y005220D01*
X007145Y005334D02*
X007145Y004880D01*
X007258Y004410D02*
X007372Y004410D01*
X007372Y004297D01*
X007258Y004297D01*
X007258Y004410D01*
X007372Y003941D02*
X007258Y003827D01*
X006805Y003827D01*
X006918Y003714D02*
X006918Y003941D01*
X006918Y003244D02*
X007372Y003244D01*
X007372Y003131D02*
X007372Y003357D01*
X007372Y002885D02*
X007031Y002885D01*
X006918Y002771D01*
X007031Y002658D01*
X007372Y002658D01*
X007372Y002431D02*
X006918Y002431D01*
X006918Y002544D01*
X007031Y002658D01*
X006918Y003131D02*
X006918Y003244D01*
X006691Y003244D02*
X006578Y003244D01*
D12*
X005762Y006191D02*
X005262Y006191D01*
X005012Y006441D01*
X005012Y006941D01*
X005262Y007191D01*
X005012Y007441D01*
X005012Y007941D01*
X005262Y008191D01*
X005012Y008441D01*
X005012Y008941D01*
X005262Y009191D01*
X005012Y009441D01*
X005012Y009941D01*
X005262Y010191D01*
X005012Y010441D01*
X005012Y010941D01*
X005262Y011191D01*
X005012Y011441D01*
X005012Y011941D01*
X005262Y012191D01*
X005012Y012441D01*
X005012Y012941D01*
X005262Y013191D01*
X005012Y013441D01*
X005012Y013941D01*
X005262Y014191D01*
X005762Y014191D01*
X006012Y013941D01*
X006012Y013441D01*
X005762Y013191D01*
X006012Y012941D01*
X006012Y012441D01*
X005762Y012191D01*
X005262Y012191D01*
X005762Y012191D02*
X006012Y011941D01*
X006012Y011441D01*
X005762Y011191D01*
X006012Y010941D01*
X006012Y010441D01*
X005762Y010191D01*
X006012Y009941D01*
X006012Y009441D01*
X005762Y009191D01*
X005262Y009191D01*
X005762Y009191D02*
X006012Y008941D01*
X006012Y008441D01*
X005762Y008191D01*
X006012Y007941D01*
X006012Y007441D01*
X005762Y007191D01*
X006012Y006941D01*
X006012Y006441D01*
X005762Y006191D01*
X005762Y007191D02*
X005262Y007191D01*
X005262Y008191D02*
X005762Y008191D01*
X005762Y010191D02*
X005262Y010191D01*
X005262Y011191D02*
X005762Y011191D01*
X005762Y013191D02*
X005262Y013191D01*
X003012Y012941D02*
X003012Y012441D01*
X002762Y012191D01*
X002262Y012191D01*
X002012Y012441D01*
X002012Y012941D01*
X002262Y013191D01*
X002012Y013441D01*
X002012Y013941D01*
X002262Y014191D01*
X002762Y014191D01*
X003012Y013941D01*
X003012Y013441D01*
X002762Y013191D01*
X003012Y012941D01*
X002762Y013191D02*
X002262Y013191D01*
X002262Y012191D02*
X002012Y011941D01*
X002012Y011441D01*
X002262Y011191D01*
X002012Y010941D01*
X002012Y010441D01*
X002262Y010191D01*
X002012Y009941D01*
X002012Y009441D01*
X002262Y009191D01*
X002762Y009191D01*
X003012Y009441D01*
X003012Y009941D01*
X002762Y010191D01*
X002262Y010191D01*
X002762Y010191D02*
X003012Y010441D01*
X003012Y010941D01*
X002762Y011191D01*
X002262Y011191D01*
X002762Y011191D02*
X003012Y011441D01*
X003012Y011941D01*
X002762Y012191D01*
X002762Y009191D02*
X003012Y008941D01*
X003012Y008441D01*
X002762Y008191D01*
X003012Y007941D01*
X003012Y007441D01*
X002762Y007191D01*
X003012Y006941D01*
X003012Y006441D01*
X002762Y006191D01*
X002262Y006191D01*
X002012Y006441D01*
X002012Y006941D01*
X002262Y007191D01*
X002012Y007441D01*
X002012Y007941D01*
X002262Y008191D01*
X002012Y008441D01*
X002012Y008941D01*
X002262Y009191D01*
X002262Y008191D02*
X002762Y008191D01*
X002762Y007191D02*
X002262Y007191D01*
D13*
X002266Y003491D03*
X002266Y002991D03*
X002266Y002491D03*
X002266Y001991D03*
X005857Y001991D03*
X005857Y002491D03*
X005857Y002991D03*
X005857Y003491D03*
D14*
X005857Y003991D03*
X005857Y004491D03*
X005857Y004991D03*
M02*
