G75*
G70*
%OFA0B0*%
%FSLAX24Y24*%
%IPPOS*%
%LPD*%
%AMOC8*
5,1,8,0,0,1.08239X$1,22.5*
%
%ADD10C,0.0060*%
%ADD11R,0.1181X0.0138*%
%ADD12C,0.0550*%
%ADD13C,0.0100*%
D10*
X005832Y011520D02*
X005832Y011306D01*
X005725Y011200D01*
X005298Y011200D01*
X005725Y011627D01*
X005298Y011627D01*
X005191Y011520D01*
X005191Y011306D01*
X005298Y011200D01*
X005191Y010982D02*
X005191Y010555D01*
X005618Y010982D01*
X005725Y010982D01*
X005832Y010875D01*
X005832Y010662D01*
X005725Y010555D01*
X005512Y010338D02*
X005512Y009911D01*
X005512Y009693D02*
X005405Y009586D01*
X005405Y009266D01*
X005298Y009049D02*
X005725Y009049D01*
X005832Y008942D01*
X005832Y008728D01*
X005725Y008622D01*
X005298Y008622D01*
X005191Y008728D01*
X005191Y008942D01*
X005298Y009049D01*
X005191Y009266D02*
X005832Y009266D01*
X005832Y009586D01*
X005725Y009693D01*
X005512Y009693D01*
X005405Y008404D02*
X005298Y008404D01*
X005191Y008297D01*
X005191Y008084D01*
X005298Y007977D01*
X005298Y007759D02*
X005191Y007653D01*
X005191Y007439D01*
X005298Y007332D01*
X005512Y007439D02*
X005512Y007653D01*
X005405Y007759D01*
X005298Y007759D01*
X005512Y007439D02*
X005618Y007332D01*
X005725Y007332D01*
X005832Y007439D01*
X005832Y007653D01*
X005725Y007759D01*
X005725Y007977D02*
X005618Y007977D01*
X005512Y008084D01*
X005512Y008297D01*
X005405Y008404D01*
X005725Y008404D02*
X005832Y008297D01*
X005832Y008084D01*
X005725Y007977D01*
X005832Y007115D02*
X005832Y006688D01*
X005832Y006901D02*
X005191Y006901D01*
X005832Y011520D02*
X005725Y011627D01*
D11*
X006719Y008045D03*
X006709Y007793D03*
X006709Y007537D03*
X006709Y007281D03*
X006709Y007025D03*
X006709Y006769D03*
X006709Y006513D03*
X006709Y006258D03*
X006709Y006002D03*
X006709Y005746D03*
X004367Y005746D03*
X004367Y006002D03*
X004367Y006258D03*
X004367Y006513D03*
X004367Y006769D03*
X004367Y007025D03*
X004367Y007281D03*
X004367Y007537D03*
X004367Y007793D03*
X004367Y008049D03*
D12*
X002461Y002458D03*
X002461Y003458D03*
X002461Y004458D03*
X002461Y005458D03*
X002461Y006458D03*
X002461Y007458D03*
X002461Y008458D03*
X002461Y009458D03*
X002461Y010458D03*
X002461Y011458D03*
X008461Y011458D03*
X008461Y010458D03*
X008461Y009458D03*
X008461Y008458D03*
X008461Y007458D03*
X008461Y006458D03*
X008461Y005458D03*
X008461Y004458D03*
X008461Y003458D03*
X008461Y002458D03*
D13*
X007461Y002458D01*
X006709Y003210D01*
X006709Y005746D01*
X006709Y006002D02*
X007418Y006002D01*
X007461Y005958D01*
X007461Y003958D01*
X007961Y003458D01*
X008361Y003458D01*
X008461Y003558D01*
X008461Y003458D01*
X008461Y004458D02*
X007761Y005158D01*
X007761Y006158D01*
X007662Y006258D01*
X006709Y006258D01*
X006709Y006513D02*
X007706Y006513D01*
X007961Y006258D01*
X007961Y005958D01*
X008461Y005458D01*
X008461Y006458D02*
X008150Y006769D01*
X006709Y006769D01*
X006709Y007025D02*
X008029Y007025D01*
X008461Y007458D01*
X007861Y007558D02*
X007861Y007858D01*
X008461Y008458D01*
X007861Y007558D02*
X007585Y007281D01*
X006709Y007281D01*
X006709Y007537D02*
X007441Y007537D01*
X007661Y007758D01*
X007661Y008658D01*
X008461Y009458D01*
X007461Y009458D02*
X008461Y010458D01*
X008461Y011458D02*
X007661Y011458D01*
X006719Y010515D01*
X006719Y008045D01*
X006709Y007793D02*
X007396Y007793D01*
X007461Y007858D01*
X007461Y009458D01*
X004367Y009653D02*
X004367Y008049D01*
X004367Y007793D02*
X003726Y007793D01*
X003561Y007958D01*
X003561Y009458D01*
X002561Y010458D01*
X002461Y010458D01*
X002461Y011458D02*
X002561Y011458D01*
X004367Y009653D01*
X003261Y008658D02*
X002461Y009458D01*
X002461Y008458D02*
X002961Y007958D01*
X002961Y007758D01*
X003438Y007281D01*
X004367Y007281D01*
X004367Y007025D02*
X002894Y007025D01*
X002461Y007458D01*
X002773Y006769D02*
X002461Y006458D01*
X002773Y006769D02*
X004367Y006769D01*
X004367Y006513D02*
X003417Y006513D01*
X002961Y006058D01*
X002961Y005858D01*
X002561Y005458D01*
X002461Y005458D01*
X002461Y004458D02*
X003261Y004458D01*
X003361Y004558D01*
X003361Y006058D01*
X003561Y006258D01*
X004367Y006258D01*
X004367Y006002D02*
X003605Y006002D01*
X003561Y005958D01*
X003561Y003758D01*
X003261Y003458D01*
X002461Y003458D01*
X002361Y003458D01*
X002461Y002458D02*
X003461Y002458D01*
X004367Y003363D01*
X004367Y005746D01*
X004367Y007537D02*
X003582Y007537D01*
X003261Y007858D01*
X003261Y008658D01*
M02*
