G75*
G70*
%OFA0B0*%
%FSLAX24Y24*%
%IPPOS*%
%LPD*%
%AMOC8*
5,1,8,0,0,1.08239X$1,22.5*
%
%ADD10C,0.0050*%
%ADD11R,0.1750X0.0250*%
%ADD12C,0.0550*%
%ADD13C,0.0100*%
D10*
X006995Y003637D02*
X006845Y003562D01*
X006695Y003412D01*
X006920Y003412D01*
X006995Y003337D01*
X006995Y003261D01*
X006920Y003186D01*
X006770Y003186D01*
X006695Y003261D01*
X006695Y003412D01*
X006462Y003186D02*
X006311Y003186D01*
X006386Y003186D02*
X006386Y003637D01*
X006311Y003562D01*
X006151Y003412D02*
X005851Y003412D01*
X005691Y003562D02*
X005616Y003637D01*
X005466Y003637D01*
X005391Y003562D01*
X005391Y003261D01*
X005466Y003186D01*
X005616Y003186D01*
X005691Y003261D01*
X005157Y003186D02*
X005007Y003186D01*
X005082Y003186D02*
X005082Y003637D01*
X005007Y003637D02*
X005157Y003637D01*
X004847Y003562D02*
X004847Y003261D01*
X004772Y003186D01*
X004622Y003186D01*
X004547Y003261D01*
X004547Y003562D01*
X004622Y003637D01*
X004772Y003637D01*
X004847Y003562D01*
X004387Y003562D02*
X004312Y003637D01*
X004161Y003637D01*
X004086Y003562D01*
X004086Y003487D01*
X004161Y003412D01*
X004312Y003412D01*
X004387Y003337D01*
X004387Y003261D01*
X004312Y003186D01*
X004161Y003186D01*
X004086Y003261D01*
D11*
X004111Y004161D03*
X004111Y004661D03*
X004111Y005161D03*
X004111Y005661D03*
X004111Y006161D03*
X004111Y006661D03*
X004111Y007161D03*
X004111Y007661D03*
X006911Y007661D03*
X006911Y007161D03*
X006911Y006661D03*
X006911Y006161D03*
X006911Y005661D03*
X006911Y005161D03*
X006911Y004661D03*
X006911Y004161D03*
D12*
X002461Y002461D03*
X002461Y003461D03*
X002461Y004461D03*
X002461Y005461D03*
X002461Y006461D03*
X002461Y007461D03*
X002461Y008461D03*
X002461Y009461D03*
X008461Y009461D03*
X008461Y008461D03*
X008461Y007461D03*
X008461Y006461D03*
X008461Y005461D03*
X008461Y004461D03*
X008461Y003461D03*
X008461Y002461D03*
D13*
X006911Y004011D01*
X006911Y004161D01*
X006911Y004661D02*
X007661Y004661D01*
X007961Y004361D01*
X007961Y003961D01*
X008461Y003461D01*
X008461Y004461D02*
X007761Y005161D01*
X006911Y005161D01*
X006911Y005661D02*
X008161Y005661D01*
X008361Y005461D01*
X008461Y005461D01*
X008161Y006161D02*
X008461Y006461D01*
X008161Y006161D02*
X006911Y006161D01*
X006911Y006661D02*
X007961Y006661D01*
X008461Y007161D01*
X008461Y007461D01*
X007961Y007161D02*
X007961Y007961D01*
X008461Y008461D01*
X008461Y009461D02*
X006911Y007911D01*
X006911Y007661D01*
X006911Y007161D02*
X007961Y007161D01*
X004111Y007161D02*
X003161Y007161D01*
X002961Y007361D01*
X002961Y008261D01*
X002761Y008461D01*
X002461Y008461D01*
X002461Y007461D02*
X003261Y006661D01*
X004111Y006661D01*
X004111Y006161D02*
X002861Y006161D01*
X002561Y006461D01*
X002461Y006461D01*
X002661Y005661D02*
X002461Y005461D01*
X002661Y005661D02*
X004111Y005661D01*
X004111Y005161D02*
X002961Y005161D01*
X002461Y004461D01*
X002961Y004461D02*
X002961Y004061D01*
X002461Y003561D01*
X002461Y003461D01*
X002961Y004461D02*
X003161Y004661D01*
X004111Y004661D01*
X004111Y004161D02*
X004111Y004111D01*
X002461Y002461D01*
X004111Y007661D02*
X004111Y007811D01*
X002461Y009461D01*
M02*
