G75*
G70*
%OFA0B0*%
%FSLAX24Y24*%
%IPPOS*%
%LPD*%
%AMOC8*
5,1,8,0,0,1.08239X$1,22.5*
%
%ADD10C,0.0060*%
%ADD11C,0.0070*%
%ADD12C,0.0050*%
%ADD13R,0.1750X0.0250*%
%ADD14O,0.1200X0.0600*%
%ADD15C,0.0550*%
%ADD16C,0.0120*%
%ADD17C,0.0100*%
%ADD18C,0.0400*%
D10*
X038228Y025434D02*
X038061Y025434D01*
X037978Y025351D01*
X038228Y025434D02*
X038312Y025351D01*
X038312Y025267D01*
X037978Y024934D01*
X038312Y024934D01*
X037715Y024934D02*
X037548Y024934D01*
X037632Y024934D02*
X037632Y025434D01*
X037548Y025351D01*
X037366Y025184D02*
X037033Y025184D01*
X036851Y025351D02*
X036767Y025434D01*
X036601Y025434D01*
X036517Y025351D01*
X036517Y025017D01*
X036601Y024934D01*
X036767Y024934D01*
X036851Y025017D01*
X036254Y024934D02*
X036087Y024934D01*
X036171Y024934D02*
X036171Y025434D01*
X036254Y025434D02*
X036087Y025434D01*
X035905Y025351D02*
X035905Y025017D01*
X035822Y024934D01*
X035655Y024934D01*
X035572Y025017D01*
X035572Y025351D01*
X035655Y025434D01*
X035822Y025434D01*
X035905Y025351D01*
X035390Y025351D02*
X035306Y025434D01*
X035140Y025434D01*
X035056Y025351D01*
X035056Y025267D01*
X035140Y025184D01*
X035306Y025184D01*
X035390Y025101D01*
X035390Y025017D01*
X035306Y024934D01*
X035140Y024934D01*
X035056Y025017D01*
X029127Y016281D02*
X028700Y016281D01*
X029127Y015854D01*
X029234Y015960D01*
X029234Y016174D01*
X029127Y016281D01*
X028700Y016281D02*
X028593Y016174D01*
X028593Y015960D01*
X028700Y015854D01*
X029127Y015854D01*
X029234Y015636D02*
X029234Y015209D01*
X028807Y015636D01*
X028700Y015636D01*
X028593Y015529D01*
X028593Y015316D01*
X028700Y015209D01*
X028914Y014991D02*
X028914Y014564D01*
X029127Y014347D02*
X029234Y014240D01*
X029234Y014027D01*
X029127Y013920D01*
X028700Y013920D01*
X028593Y014027D01*
X028593Y014240D01*
X028700Y014347D01*
X028593Y013596D02*
X028593Y013383D01*
X028593Y013490D02*
X029234Y013490D01*
X029234Y013596D02*
X029234Y013383D01*
X029127Y013165D02*
X028700Y013165D01*
X028593Y013059D01*
X028593Y012845D01*
X028700Y012738D01*
X029127Y012738D01*
X029234Y012845D01*
X029234Y013059D01*
X029127Y013165D01*
X029127Y012521D02*
X029234Y012414D01*
X029234Y012201D01*
X029127Y012094D01*
X028914Y012201D02*
X028914Y012414D01*
X029020Y012521D01*
X029127Y012521D01*
X028914Y012201D02*
X028807Y012094D01*
X028700Y012094D01*
X028593Y012201D01*
X028593Y012414D01*
X028700Y012521D01*
X020927Y020689D02*
X021034Y020796D01*
X021034Y021010D01*
X020927Y021116D01*
X020820Y021116D01*
X020714Y021010D01*
X020714Y020796D01*
X020607Y020689D01*
X020500Y020689D01*
X020393Y020796D01*
X020393Y021010D01*
X020500Y021116D01*
X020500Y021334D02*
X020927Y021334D01*
X021034Y021441D01*
X021034Y021654D01*
X020927Y021761D01*
X020500Y021761D01*
X020393Y021654D01*
X020393Y021441D01*
X020500Y021334D01*
X020393Y021978D02*
X020393Y022192D01*
X020393Y022085D02*
X021034Y022085D01*
X021034Y021978D02*
X021034Y022192D01*
X020927Y022516D02*
X020500Y022516D01*
X020393Y022622D01*
X020393Y022836D01*
X020500Y022943D01*
X020714Y023160D02*
X020714Y023587D01*
X020500Y023805D02*
X020393Y023911D01*
X020393Y024125D01*
X020500Y024232D01*
X020607Y024232D01*
X021034Y023805D01*
X021034Y024232D01*
X020927Y024449D02*
X020500Y024449D01*
X020393Y024556D01*
X020393Y024769D01*
X020500Y024876D01*
X020927Y024449D01*
X021034Y024556D01*
X021034Y024769D01*
X020927Y024876D01*
X020500Y024876D01*
X020927Y022943D02*
X021034Y022836D01*
X021034Y022622D01*
X020927Y022516D01*
X014512Y026734D02*
X014178Y026734D01*
X014512Y027067D01*
X014512Y027151D01*
X014428Y027234D01*
X014261Y027234D01*
X014178Y027151D01*
X013832Y027234D02*
X013832Y026734D01*
X013915Y026734D02*
X013748Y026734D01*
X013566Y026984D02*
X013233Y026984D01*
X013051Y027151D02*
X012967Y027234D01*
X012801Y027234D01*
X012717Y027151D01*
X012717Y026817D01*
X012801Y026734D01*
X012967Y026734D01*
X013051Y026817D01*
X012454Y026734D02*
X012287Y026734D01*
X012371Y026734D02*
X012371Y027234D01*
X012454Y027234D02*
X012287Y027234D01*
X012105Y027151D02*
X012022Y027234D01*
X011855Y027234D01*
X011772Y027151D01*
X011772Y026817D01*
X011855Y026734D01*
X012022Y026734D01*
X012105Y026817D01*
X012105Y027151D01*
X011590Y027151D02*
X011506Y027234D01*
X011340Y027234D01*
X011256Y027151D01*
X011256Y027067D01*
X011340Y026984D01*
X011506Y026984D01*
X011590Y026901D01*
X011590Y026817D01*
X011506Y026734D01*
X011340Y026734D01*
X011256Y026817D01*
X013748Y027151D02*
X013832Y027234D01*
X006912Y027151D02*
X006828Y027234D01*
X006661Y027234D01*
X006578Y027151D01*
X006912Y027151D02*
X006912Y027067D01*
X006578Y026734D01*
X006912Y026734D01*
X006315Y026734D02*
X006148Y026734D01*
X006232Y026734D02*
X006232Y027234D01*
X006148Y027151D01*
X005966Y026984D02*
X005633Y026984D01*
X005451Y027151D02*
X005367Y027234D01*
X005201Y027234D01*
X005117Y027151D01*
X005117Y026817D01*
X005201Y026734D01*
X005367Y026734D01*
X005451Y026817D01*
X004854Y026734D02*
X004687Y026734D01*
X004771Y026734D02*
X004771Y027234D01*
X004854Y027234D02*
X004687Y027234D01*
X004505Y027151D02*
X004505Y026817D01*
X004422Y026734D01*
X004255Y026734D01*
X004172Y026817D01*
X004172Y027151D01*
X004255Y027234D01*
X004422Y027234D01*
X004505Y027151D01*
X003990Y027151D02*
X003906Y027234D01*
X003740Y027234D01*
X003656Y027151D01*
X003656Y027067D01*
X003740Y026984D01*
X003906Y026984D01*
X003990Y026901D01*
X003990Y026817D01*
X003906Y026734D01*
X003740Y026734D01*
X003656Y026817D01*
X012917Y011949D02*
X012833Y011866D01*
X012833Y011699D01*
X012917Y011616D01*
X012917Y011949D02*
X013000Y011949D01*
X013334Y011616D01*
X013334Y011949D01*
X013334Y011353D02*
X013334Y011186D01*
X013334Y011269D02*
X012833Y011269D01*
X012917Y011186D01*
X013084Y011004D02*
X013084Y010670D01*
X013250Y010488D02*
X013334Y010405D01*
X013334Y010238D01*
X013250Y010155D01*
X012917Y010155D01*
X012833Y010238D01*
X012833Y010405D01*
X012917Y010488D01*
X012833Y009892D02*
X012833Y009725D01*
X012833Y009808D02*
X013334Y009808D01*
X013334Y009725D02*
X013334Y009892D01*
X013250Y009543D02*
X012917Y009543D01*
X012833Y009460D01*
X012833Y009293D01*
X012917Y009209D01*
X013250Y009209D01*
X013334Y009293D01*
X013334Y009460D01*
X013250Y009543D01*
X013250Y009027D02*
X013334Y008944D01*
X013334Y008777D01*
X013250Y008694D01*
X013084Y008777D02*
X013084Y008944D01*
X013167Y009027D01*
X013250Y009027D01*
X013084Y008777D02*
X013000Y008694D01*
X012917Y008694D01*
X012833Y008777D01*
X012833Y008944D01*
X012917Y009027D01*
D11*
X005829Y006139D02*
X005829Y005942D01*
X005730Y005844D01*
X005632Y005844D01*
X005534Y005942D01*
X005534Y006139D01*
X005632Y006237D01*
X005730Y006237D01*
X005829Y006139D01*
X005534Y006139D02*
X005435Y006237D01*
X005337Y006237D01*
X005238Y006139D01*
X005238Y005942D01*
X005337Y005844D01*
X005435Y005844D01*
X005534Y005942D01*
X005435Y005630D02*
X005337Y005630D01*
X005238Y005531D01*
X005238Y005334D01*
X005337Y005236D01*
X005534Y005022D02*
X005534Y004628D01*
X005730Y004414D02*
X005829Y004316D01*
X005829Y004119D01*
X005730Y004021D01*
X005337Y004021D01*
X005238Y004119D01*
X005238Y004316D01*
X005337Y004414D01*
X005238Y003711D02*
X005238Y003514D01*
X005238Y003613D02*
X005829Y003613D01*
X005829Y003711D02*
X005829Y003514D01*
X005730Y003300D02*
X005337Y003300D01*
X005238Y003202D01*
X005238Y003005D01*
X005337Y002906D01*
X005730Y002906D01*
X005829Y003005D01*
X005829Y003202D01*
X005730Y003300D01*
X005730Y002692D02*
X005829Y002594D01*
X005829Y002397D01*
X005730Y002299D01*
X005534Y002397D02*
X005534Y002594D01*
X005632Y002692D01*
X005730Y002692D01*
X005534Y002397D02*
X005435Y002299D01*
X005337Y002299D01*
X005238Y002397D01*
X005238Y002594D01*
X005337Y002692D01*
X005829Y005236D02*
X005435Y005630D01*
X005829Y005630D02*
X005829Y005236D01*
X020438Y009697D02*
X020537Y009599D01*
X020635Y009599D01*
X020734Y009697D01*
X020734Y009894D01*
X020832Y009992D01*
X020930Y009992D01*
X021029Y009894D01*
X021029Y009697D01*
X020930Y009599D01*
X020438Y009697D02*
X020438Y009894D01*
X020537Y009992D01*
X020537Y010206D02*
X020930Y010206D01*
X021029Y010305D01*
X021029Y010502D01*
X020930Y010600D01*
X020537Y010600D01*
X020438Y010502D01*
X020438Y010305D01*
X020537Y010206D01*
X020438Y010814D02*
X020438Y011011D01*
X020438Y010913D02*
X021029Y010913D01*
X021029Y011011D02*
X021029Y010814D01*
X020930Y011321D02*
X020537Y011321D01*
X020438Y011419D01*
X020438Y011616D01*
X020537Y011714D01*
X020734Y011928D02*
X020734Y012322D01*
X020537Y012536D02*
X020438Y012634D01*
X021029Y012634D01*
X021029Y012536D02*
X021029Y012733D01*
X020930Y013042D02*
X020734Y013042D01*
X020734Y013338D01*
X020832Y013436D01*
X020930Y013436D01*
X021029Y013338D01*
X021029Y013141D01*
X020930Y013042D01*
X020734Y013042D02*
X020537Y013239D01*
X020438Y013436D01*
X020930Y011714D02*
X021029Y011616D01*
X021029Y011419D01*
X020930Y011321D01*
D12*
X014698Y014264D02*
X014623Y014189D01*
X014472Y014189D01*
X014397Y014264D01*
X014397Y014414D01*
X014623Y014414D01*
X014698Y014339D01*
X014698Y014264D01*
X014548Y014564D02*
X014397Y014414D01*
X014548Y014564D02*
X014698Y014639D01*
X014089Y014639D02*
X014089Y014189D01*
X014014Y014189D02*
X014164Y014189D01*
X013854Y014414D02*
X013553Y014414D01*
X013393Y014564D02*
X013318Y014639D01*
X013168Y014639D01*
X013093Y014564D01*
X013093Y014264D01*
X013168Y014189D01*
X013318Y014189D01*
X013393Y014264D01*
X012860Y014189D02*
X012709Y014189D01*
X012785Y014189D02*
X012785Y014639D01*
X012860Y014639D02*
X012709Y014639D01*
X012549Y014564D02*
X012474Y014639D01*
X012324Y014639D01*
X012249Y014564D01*
X012249Y014264D01*
X012324Y014189D01*
X012474Y014189D01*
X012549Y014264D01*
X012549Y014564D01*
X012089Y014564D02*
X012014Y014639D01*
X011864Y014639D01*
X011789Y014564D01*
X011789Y014489D01*
X011864Y014414D01*
X012014Y014414D01*
X012089Y014339D01*
X012089Y014264D01*
X012014Y014189D01*
X011864Y014189D01*
X011789Y014264D01*
X014014Y014564D02*
X014089Y014639D01*
X027489Y019964D02*
X027564Y019889D01*
X027714Y019889D01*
X027789Y019964D01*
X027789Y020039D01*
X027714Y020114D01*
X027564Y020114D01*
X027489Y020189D01*
X027489Y020264D01*
X027564Y020339D01*
X027714Y020339D01*
X027789Y020264D01*
X027949Y020264D02*
X027949Y019964D01*
X028024Y019889D01*
X028174Y019889D01*
X028249Y019964D01*
X028249Y020264D01*
X028174Y020339D01*
X028024Y020339D01*
X027949Y020264D01*
X028409Y020339D02*
X028560Y020339D01*
X028485Y020339D02*
X028485Y019889D01*
X028560Y019889D02*
X028409Y019889D01*
X028793Y019964D02*
X028793Y020264D01*
X028868Y020339D01*
X029018Y020339D01*
X029093Y020264D01*
X029253Y020114D02*
X029554Y020114D01*
X029714Y020264D02*
X029789Y020339D01*
X029789Y019889D01*
X029714Y019889D02*
X029864Y019889D01*
X030097Y019964D02*
X030172Y019889D01*
X030323Y019889D01*
X030398Y019964D01*
X030398Y020039D01*
X030323Y020114D01*
X030097Y020114D01*
X030097Y019964D01*
X030097Y020114D02*
X030248Y020264D01*
X030398Y020339D01*
X029093Y019964D02*
X029018Y019889D01*
X028868Y019889D01*
X028793Y019964D01*
X036688Y013528D02*
X036944Y013273D01*
X036944Y013613D01*
X037199Y013528D02*
X036688Y013528D01*
X036773Y013098D02*
X036688Y013013D01*
X036688Y012842D01*
X036773Y012757D01*
X036944Y012582D02*
X036944Y012242D01*
X037114Y012066D02*
X037199Y011981D01*
X037199Y011811D01*
X037114Y011726D01*
X036773Y011726D01*
X036688Y011811D01*
X036688Y011981D01*
X036773Y012066D01*
X036688Y011467D02*
X036688Y011296D01*
X036688Y011382D02*
X037199Y011382D01*
X037199Y011467D02*
X037199Y011296D01*
X037114Y011121D02*
X036773Y011121D01*
X036688Y011036D01*
X036688Y010866D01*
X036773Y010781D01*
X037114Y010781D01*
X037199Y010866D01*
X037199Y011036D01*
X037114Y011121D01*
X037114Y010606D02*
X037199Y010520D01*
X037199Y010350D01*
X037114Y010265D01*
X036944Y010350D02*
X036944Y010520D01*
X037029Y010606D01*
X037114Y010606D01*
X036944Y010350D02*
X036859Y010265D01*
X036773Y010265D01*
X036688Y010350D01*
X036688Y010520D01*
X036773Y010606D01*
X037199Y012757D02*
X036859Y013098D01*
X036773Y013098D01*
X037199Y013098D02*
X037199Y012757D01*
D13*
X038314Y010764D03*
X038314Y010264D03*
X038314Y009764D03*
X038314Y009264D03*
X038314Y008764D03*
X038314Y008264D03*
X038314Y007764D03*
X038314Y007264D03*
X038314Y006764D03*
X038314Y006264D03*
X038314Y005764D03*
X038314Y005264D03*
X035514Y005264D03*
X035514Y005764D03*
X035514Y006264D03*
X035514Y006764D03*
X035514Y007264D03*
X035514Y007764D03*
X035514Y008264D03*
X035514Y008764D03*
X035514Y009264D03*
X035514Y009764D03*
X035514Y010264D03*
X035514Y010764D03*
X030314Y007064D03*
X030314Y006564D03*
X030314Y006064D03*
X030314Y005564D03*
X030314Y005064D03*
X030314Y004564D03*
X030314Y004064D03*
X030314Y003564D03*
X030314Y003064D03*
X030314Y002564D03*
X027514Y002564D03*
X027514Y003064D03*
X027514Y003564D03*
X027514Y004064D03*
X027514Y004564D03*
X027514Y005064D03*
X027514Y005564D03*
X027514Y006064D03*
X027514Y006564D03*
X027514Y007064D03*
X022214Y005864D03*
X022214Y005364D03*
X022214Y004864D03*
X022214Y004364D03*
X022214Y003864D03*
X022214Y003364D03*
X022214Y002864D03*
X022214Y002364D03*
X019414Y002364D03*
X019414Y002864D03*
X019414Y003364D03*
X019414Y003864D03*
X019414Y004364D03*
X019414Y004864D03*
X019414Y005364D03*
X019414Y005864D03*
X014664Y005164D03*
X014664Y004664D03*
X014664Y004164D03*
X014664Y003664D03*
X014664Y003164D03*
X014664Y002664D03*
X011864Y002664D03*
X011864Y003164D03*
X011864Y003664D03*
X011864Y004164D03*
X011864Y004664D03*
X011864Y005164D03*
X006914Y005664D03*
X006914Y006164D03*
X006914Y006664D03*
X006914Y007164D03*
X006914Y007664D03*
X006914Y008164D03*
X006914Y008664D03*
X006914Y009164D03*
X006914Y009664D03*
X006914Y010164D03*
X006914Y010664D03*
X006914Y011164D03*
X006914Y011664D03*
X006914Y012164D03*
X004114Y012164D03*
X004114Y011664D03*
X004114Y011164D03*
X004114Y010664D03*
X004114Y010164D03*
X004114Y009664D03*
X004114Y009164D03*
X004114Y008664D03*
X004114Y008164D03*
X004114Y007664D03*
X004114Y007164D03*
X004114Y006664D03*
X004114Y006164D03*
X004114Y005664D03*
X011814Y015164D03*
X011814Y015664D03*
X011814Y016164D03*
X011814Y016664D03*
X011814Y017164D03*
X011814Y017664D03*
X011814Y018164D03*
X011814Y018664D03*
X014614Y018664D03*
X014614Y018164D03*
X014614Y017664D03*
X014614Y017164D03*
X014614Y016664D03*
X014614Y016164D03*
X014614Y015664D03*
X014614Y015164D03*
X019314Y018364D03*
X019314Y018864D03*
X019314Y019364D03*
X019314Y019864D03*
X019314Y020364D03*
X019314Y020864D03*
X019314Y021364D03*
X019314Y021864D03*
X019314Y022364D03*
X019314Y022864D03*
X022114Y022864D03*
X022114Y022364D03*
X022114Y021864D03*
X022114Y021364D03*
X022114Y020864D03*
X022114Y020364D03*
X022114Y019864D03*
X022114Y019364D03*
X022114Y018864D03*
X022114Y018364D03*
X027514Y020864D03*
X027514Y021364D03*
X027514Y021864D03*
X027514Y022364D03*
X027514Y022864D03*
X027514Y023364D03*
X027514Y023864D03*
X027514Y024364D03*
X030314Y024364D03*
X030314Y023864D03*
X030314Y023364D03*
X030314Y022864D03*
X030314Y022364D03*
X030314Y021864D03*
X030314Y021364D03*
X030314Y020864D03*
X035464Y021664D03*
X035464Y022164D03*
X035464Y022664D03*
X035464Y023164D03*
X035464Y023664D03*
X035464Y024164D03*
X038264Y024164D03*
X038264Y023664D03*
X038264Y023164D03*
X038264Y022664D03*
X038264Y022164D03*
X038264Y021664D03*
X038264Y017614D03*
X038264Y017114D03*
X038264Y016614D03*
X038264Y016114D03*
X035464Y016114D03*
X035464Y016614D03*
X035464Y017114D03*
X035464Y017614D03*
X014464Y023464D03*
X014464Y023964D03*
X014464Y024464D03*
X014464Y024964D03*
X014464Y025464D03*
X014464Y025964D03*
X011664Y025964D03*
X011664Y025464D03*
X011664Y024964D03*
X011664Y024464D03*
X011664Y023964D03*
X011664Y023464D03*
X006864Y023464D03*
X006864Y023964D03*
X006864Y024464D03*
X006864Y024964D03*
X006864Y025464D03*
X006864Y025964D03*
X004064Y025964D03*
X004064Y025464D03*
X004064Y024964D03*
X004064Y024464D03*
X004064Y023964D03*
X004064Y023464D03*
X004264Y019614D03*
X004264Y019114D03*
X004264Y018614D03*
X004264Y018114D03*
X007064Y018114D03*
X007064Y018614D03*
X007064Y019114D03*
X007064Y019614D03*
D14*
X011764Y011664D03*
X011764Y010664D03*
X011764Y009664D03*
X011764Y008664D03*
X011764Y007664D03*
X011764Y006664D03*
X014764Y006664D03*
X014764Y007664D03*
X014764Y008664D03*
X014764Y009664D03*
X014764Y010664D03*
X014764Y011664D03*
X019264Y012064D03*
X019264Y011064D03*
X019264Y010064D03*
X019264Y009064D03*
X019264Y008064D03*
X019264Y007064D03*
X022264Y007064D03*
X022264Y008064D03*
X022264Y009064D03*
X022264Y010064D03*
X022264Y011064D03*
X022264Y012064D03*
X022264Y013064D03*
X022264Y014064D03*
X019264Y014064D03*
X019264Y013064D03*
X027364Y013264D03*
X027364Y012264D03*
X027364Y011264D03*
X027364Y010264D03*
X027364Y009264D03*
X027364Y008264D03*
X030364Y008264D03*
X030364Y009264D03*
X030364Y010264D03*
X030364Y011264D03*
X030364Y012264D03*
X030364Y013264D03*
X030364Y014264D03*
X030364Y015264D03*
X030364Y016264D03*
X030364Y017264D03*
X027364Y017264D03*
X027364Y016264D03*
X027364Y015264D03*
X027364Y014264D03*
D15*
X002564Y002464D03*
X002564Y003464D03*
X002564Y004464D03*
X002564Y005464D03*
X002564Y006464D03*
X002564Y007464D03*
X002564Y008464D03*
X002564Y009464D03*
X002564Y010464D03*
X002564Y011464D03*
X002564Y012464D03*
X002564Y013464D03*
X002564Y014464D03*
X002564Y015464D03*
X004164Y017364D03*
X005164Y017364D03*
X006164Y017364D03*
X007164Y017364D03*
X008564Y015464D03*
X010164Y015464D03*
X010164Y016464D03*
X010164Y017464D03*
X010164Y018464D03*
X010164Y019464D03*
X010164Y020464D03*
X010064Y022164D03*
X010064Y023164D03*
X010064Y024164D03*
X010064Y025164D03*
X010064Y026164D03*
X010064Y027164D03*
X008464Y027164D03*
X008464Y026164D03*
X008464Y025164D03*
X008464Y024164D03*
X008464Y023164D03*
X008464Y022164D03*
X007164Y020364D03*
X006164Y020364D03*
X005164Y020364D03*
X004164Y020364D03*
X002464Y022164D03*
X002464Y023164D03*
X002464Y024164D03*
X002464Y025164D03*
X002464Y026164D03*
X002464Y027164D03*
X016064Y027164D03*
X016064Y026164D03*
X016064Y025164D03*
X016064Y024164D03*
X016064Y023164D03*
X016064Y022164D03*
X017764Y022064D03*
X017764Y023064D03*
X017764Y024064D03*
X017764Y025064D03*
X017764Y021064D03*
X016164Y020464D03*
X017764Y020064D03*
X017764Y019064D03*
X016164Y019464D03*
X016164Y018464D03*
X017764Y018064D03*
X017764Y017064D03*
X017764Y016064D03*
X016164Y016464D03*
X016164Y017464D03*
X016164Y015464D03*
X016164Y014464D03*
X016164Y013464D03*
X010164Y013464D03*
X010164Y014464D03*
X008564Y014464D03*
X008564Y013464D03*
X008564Y012464D03*
X008564Y011464D03*
X008564Y010464D03*
X008564Y009464D03*
X008564Y008464D03*
X008564Y007464D03*
X008564Y006464D03*
X008564Y005464D03*
X008564Y004464D03*
X008564Y003464D03*
X008564Y002464D03*
X023764Y016064D03*
X023764Y017064D03*
X023764Y018064D03*
X023764Y019064D03*
X023764Y020064D03*
X023764Y021064D03*
X023764Y022064D03*
X023764Y023064D03*
X023764Y024064D03*
X023764Y025064D03*
X025864Y025164D03*
X025864Y024164D03*
X025864Y023164D03*
X025864Y022164D03*
X025864Y021164D03*
X025864Y020164D03*
X025864Y019164D03*
X031864Y019164D03*
X031864Y020164D03*
X031864Y021164D03*
X031864Y022164D03*
X031864Y023164D03*
X031864Y024164D03*
X031864Y025164D03*
X031864Y026164D03*
X033864Y025364D03*
X033864Y024364D03*
X033864Y023364D03*
X033864Y022364D03*
X033864Y021364D03*
X033864Y020364D03*
X035364Y018364D03*
X036364Y018364D03*
X037364Y018364D03*
X038364Y018364D03*
X039864Y020364D03*
X039864Y021364D03*
X039864Y022364D03*
X039864Y023364D03*
X039864Y024364D03*
X039864Y025364D03*
X025864Y026164D03*
X035364Y015364D03*
X036364Y015364D03*
X037364Y015364D03*
X038364Y015364D03*
X039964Y013464D03*
X039964Y012464D03*
X039964Y011464D03*
X039964Y010464D03*
X039964Y009464D03*
X039964Y008464D03*
X039964Y007464D03*
X039964Y006464D03*
X039964Y005464D03*
X039964Y004464D03*
X039964Y003464D03*
X039964Y002464D03*
X033964Y002464D03*
X033964Y003464D03*
X033964Y004464D03*
X033964Y005464D03*
X033964Y006464D03*
X033964Y007464D03*
X033964Y008464D03*
X033964Y009464D03*
X033964Y010464D03*
X033964Y011464D03*
X033964Y012464D03*
X033964Y013464D03*
D16*
X016464Y011164D02*
X016464Y003564D01*
X015564Y002664D01*
X014664Y002664D01*
X014664Y003164D02*
X015664Y003164D01*
X016164Y003664D01*
X016164Y010164D01*
X015664Y010664D01*
X014764Y010664D01*
X014764Y009664D02*
X015464Y009664D01*
X015864Y009264D01*
X015864Y003864D01*
X015664Y003664D01*
X014664Y003664D01*
X014664Y004164D02*
X013564Y004164D01*
X013264Y004464D01*
X013264Y008064D01*
X013864Y008664D01*
X014764Y008664D01*
X014764Y007664D02*
X013764Y007664D01*
X013564Y007364D01*
X013564Y004664D01*
X014664Y004664D01*
X014664Y005164D02*
X014664Y006464D01*
X014864Y006664D01*
X014764Y006664D01*
X012964Y007364D02*
X012664Y007664D01*
X011764Y007664D01*
X011764Y006664D02*
X011864Y006364D01*
X011864Y005164D01*
X011864Y004664D02*
X012964Y004664D01*
X012964Y007364D01*
X011764Y008664D02*
X010864Y008664D01*
X010764Y008564D01*
X010764Y004264D01*
X010864Y004164D01*
X011864Y004164D01*
X011864Y003664D02*
X010864Y003664D01*
X010464Y004064D01*
X010464Y009464D01*
X010664Y009664D01*
X011764Y009664D01*
X011764Y010664D02*
X010364Y010664D01*
X010164Y010464D01*
X010164Y003864D01*
X010864Y003164D01*
X011864Y003164D01*
X011864Y002664D02*
X010864Y002664D01*
X009864Y003664D01*
X009864Y011264D01*
X010264Y011664D01*
X011764Y011664D01*
X011764Y010664D02*
X011664Y010664D01*
X011664Y008664D02*
X011764Y008664D01*
X014764Y011664D02*
X015964Y011664D01*
X016464Y011164D01*
D17*
X017964Y011664D02*
X018364Y012064D01*
X019264Y012064D01*
X019264Y011064D02*
X018464Y011064D01*
X018164Y010764D01*
X018164Y004264D01*
X018564Y003864D01*
X019414Y003864D01*
X019414Y004364D02*
X018464Y004364D01*
X018364Y004464D01*
X018364Y009864D01*
X018564Y010064D01*
X019264Y010064D01*
X019264Y009064D02*
X019864Y009064D01*
X020664Y008264D01*
X020664Y005164D01*
X020364Y004864D01*
X019414Y004864D01*
X019414Y005364D02*
X020364Y005364D01*
X020464Y005564D01*
X020464Y007564D01*
X019964Y008064D01*
X019264Y008064D01*
X019264Y007064D02*
X019264Y005864D01*
X019414Y005864D01*
X020864Y005264D02*
X020864Y008464D01*
X021464Y009064D01*
X022264Y009064D01*
X022864Y010064D02*
X023264Y009664D01*
X023264Y004564D01*
X023064Y004364D01*
X022214Y004364D01*
X022214Y003864D02*
X023064Y003864D01*
X023464Y004264D01*
X023464Y010464D01*
X022864Y011064D01*
X022264Y011064D01*
X022264Y012064D02*
X023164Y012064D01*
X023664Y011564D01*
X023664Y003864D01*
X023164Y003364D01*
X022214Y003364D01*
X022214Y002864D02*
X023164Y002864D01*
X023864Y003664D01*
X023864Y012164D01*
X022964Y013064D01*
X022264Y013064D01*
X022264Y014064D02*
X023364Y014064D01*
X024064Y013364D01*
X024064Y003264D01*
X023164Y002364D01*
X022214Y002364D01*
X019414Y002364D02*
X018564Y002364D01*
X017564Y003364D01*
X017564Y013464D01*
X018164Y014064D01*
X019164Y014064D01*
X019264Y014164D01*
X019264Y014064D01*
X019264Y013064D02*
X018364Y013064D01*
X017764Y012464D01*
X017764Y003564D01*
X018464Y002864D01*
X019414Y002864D01*
X019414Y003364D02*
X018564Y003364D01*
X017964Y003964D01*
X017964Y011664D01*
X016164Y013464D02*
X014614Y015014D01*
X014614Y015164D01*
X014614Y015664D02*
X015364Y015664D01*
X015664Y015364D01*
X015664Y014964D01*
X016164Y014464D01*
X016164Y015464D02*
X015464Y016164D01*
X014614Y016164D01*
X014614Y016664D02*
X015864Y016664D01*
X016064Y016464D01*
X016164Y016464D01*
X015864Y017164D02*
X016164Y017464D01*
X015864Y017164D02*
X014614Y017164D01*
X014614Y017664D02*
X015664Y017664D01*
X016164Y018164D01*
X016164Y018464D01*
X015664Y018164D02*
X015664Y018964D01*
X016164Y019464D01*
X017764Y019164D02*
X018464Y019864D01*
X019314Y019864D01*
X019314Y020364D02*
X018064Y020364D01*
X017764Y020064D01*
X018564Y019364D02*
X018264Y019064D01*
X017964Y018564D01*
X017764Y018064D01*
X018264Y018564D02*
X018264Y017364D01*
X017964Y017064D01*
X017764Y017064D01*
X017764Y016064D02*
X018564Y016064D01*
X019314Y016814D01*
X019314Y018364D01*
X019314Y018864D02*
X018464Y018864D01*
X018264Y018564D01*
X017764Y019064D02*
X017764Y019164D01*
X018564Y019364D02*
X019314Y019364D01*
X019314Y020864D02*
X017964Y020864D01*
X017764Y021064D01*
X018464Y021364D02*
X017764Y022064D01*
X018264Y022064D02*
X018464Y021864D01*
X019314Y021864D01*
X019314Y021364D02*
X018464Y021364D01*
X018264Y022064D02*
X018264Y022264D01*
X017964Y022564D01*
X017864Y022564D01*
X017664Y022764D01*
X017664Y022864D01*
X017764Y022964D01*
X017764Y023064D01*
X018264Y023564D02*
X017764Y024064D01*
X018264Y023564D02*
X018264Y022564D01*
X018464Y022364D01*
X019314Y022364D01*
X019314Y022864D02*
X019314Y024514D01*
X018764Y025064D01*
X017764Y025064D01*
X016064Y025064D02*
X015964Y024964D01*
X014464Y024964D01*
X014464Y025464D02*
X015364Y025464D01*
X016064Y026164D01*
X015564Y027164D02*
X014864Y026464D01*
X014464Y025964D01*
X016064Y025164D02*
X016064Y025064D01*
X015664Y024464D02*
X016064Y024064D01*
X016064Y024164D01*
X015664Y024464D02*
X014464Y024464D01*
X014464Y023964D02*
X015164Y023964D01*
X015964Y023164D01*
X016064Y023164D01*
X015964Y022264D02*
X015164Y022264D01*
X014464Y022964D01*
X014464Y023464D01*
X015964Y022264D02*
X016064Y022164D01*
X016164Y020464D02*
X014614Y018914D01*
X014614Y018664D01*
X014614Y018164D02*
X015664Y018164D01*
X011814Y018164D02*
X010864Y018164D01*
X010664Y018364D01*
X010664Y019264D01*
X010464Y019464D01*
X010164Y019464D01*
X010164Y018464D02*
X010964Y017664D01*
X011814Y017664D01*
X011814Y017164D02*
X010564Y017164D01*
X010264Y017464D01*
X010164Y017464D01*
X010364Y016664D02*
X010164Y016464D01*
X010364Y016664D02*
X011814Y016664D01*
X011814Y016164D02*
X010664Y016164D01*
X010164Y015464D01*
X010664Y015464D02*
X010664Y015064D01*
X010164Y014564D01*
X010164Y014464D01*
X010164Y013464D02*
X011814Y015114D01*
X011814Y015164D01*
X011814Y015664D02*
X010864Y015664D01*
X010664Y015464D01*
X008564Y015464D02*
X007764Y015464D01*
X006914Y014614D01*
X006914Y012164D01*
X006914Y011664D02*
X005964Y011664D01*
X005764Y011864D01*
X005764Y013864D01*
X006364Y014464D01*
X005264Y013764D02*
X004564Y014464D01*
X004114Y014914D02*
X003564Y015464D01*
X002564Y015464D01*
X004114Y014914D02*
X004114Y012164D01*
X004114Y011664D02*
X005064Y011664D01*
X005264Y011864D01*
X005264Y013764D01*
X003064Y012864D02*
X002564Y013464D01*
X003064Y012864D02*
X003064Y011264D01*
X003164Y011164D01*
X004114Y011164D01*
X004114Y010664D02*
X005264Y010664D01*
X005364Y010564D01*
X005664Y010264D02*
X006064Y010664D01*
X006914Y010664D01*
X006964Y010664D01*
X006914Y010164D02*
X007864Y010164D01*
X007964Y010264D01*
X007964Y010864D01*
X008564Y011464D01*
X007964Y011264D02*
X007864Y011164D01*
X006914Y011164D01*
X007964Y011264D02*
X007964Y012964D01*
X008464Y013464D01*
X008564Y013464D01*
X008564Y010464D02*
X008264Y010164D01*
X008264Y009964D01*
X007964Y009664D01*
X006914Y009664D01*
X006914Y009164D02*
X008264Y009164D01*
X008564Y009464D01*
X008264Y008664D02*
X008564Y008364D01*
X008564Y008464D01*
X008264Y008664D02*
X006914Y008664D01*
X006914Y008164D02*
X007864Y008164D01*
X008564Y007464D01*
X008064Y007564D02*
X008064Y007264D01*
X008564Y006764D01*
X008564Y006464D01*
X008264Y006064D02*
X008264Y005764D01*
X008564Y005464D01*
X008264Y006064D02*
X007964Y006364D01*
X007964Y007064D01*
X007864Y007164D01*
X006914Y007164D01*
X006914Y007664D02*
X007964Y007664D01*
X008064Y007564D01*
X006914Y006664D02*
X005964Y006664D01*
X005664Y006964D01*
X005664Y007764D01*
X005264Y007864D02*
X005264Y008164D01*
X005464Y008364D01*
X005264Y007864D02*
X005064Y007664D01*
X004114Y007664D01*
X003164Y007664D01*
X003064Y007564D01*
X003064Y007264D01*
X002664Y006864D01*
X002664Y006564D01*
X002564Y006464D01*
X003064Y006264D02*
X002564Y005764D01*
X002564Y005464D01*
X003064Y005964D02*
X003064Y003764D01*
X002764Y003464D01*
X002564Y003464D01*
X002564Y002464D02*
X002764Y002464D01*
X004114Y003814D01*
X004114Y005664D01*
X004114Y006164D02*
X003264Y006164D01*
X003064Y005964D01*
X003064Y006264D02*
X003064Y006864D01*
X003364Y007164D01*
X004114Y007164D01*
X004114Y006664D02*
X005264Y006664D01*
X005364Y006764D01*
X006914Y006164D02*
X007864Y006164D01*
X007964Y006064D01*
X007964Y004064D01*
X008564Y003464D01*
X008564Y002464D02*
X008464Y002464D01*
X006914Y004014D01*
X006914Y005664D01*
X004114Y008164D02*
X003164Y008164D01*
X002864Y007864D01*
X002864Y007764D01*
X002564Y007464D01*
X002564Y008464D02*
X002764Y008664D01*
X004114Y008664D01*
X004114Y009164D02*
X002864Y009164D01*
X002564Y009464D01*
X003064Y009664D02*
X002664Y010064D01*
X002664Y010364D01*
X002564Y010464D01*
X003064Y010264D02*
X003064Y010664D01*
X002564Y011164D01*
X002564Y011464D01*
X003064Y010264D02*
X003164Y010164D01*
X004114Y010164D01*
X005064Y010164D01*
X005364Y009864D01*
X005364Y009464D01*
X005664Y010064D02*
X005664Y010264D01*
X004114Y009664D02*
X003064Y009664D01*
X005364Y016864D02*
X005164Y017064D01*
X005164Y017364D01*
X005264Y017814D02*
X004614Y017814D01*
X004164Y017364D01*
X004264Y018114D02*
X005214Y018114D01*
X005564Y018464D01*
X005564Y019464D01*
X006014Y019914D01*
X006714Y019914D01*
X007164Y020364D01*
X007064Y019614D02*
X006314Y019614D01*
X005764Y019064D01*
X005764Y018314D01*
X005264Y017814D01*
X005964Y017564D02*
X006164Y017364D01*
X005964Y017564D02*
X005964Y018464D01*
X006114Y018614D01*
X007064Y018614D01*
X007064Y018114D02*
X007064Y017464D01*
X007164Y017364D01*
X007664Y016864D02*
X005364Y016864D01*
X004264Y018614D02*
X003314Y018614D01*
X003164Y018764D01*
X003164Y020264D01*
X003764Y020864D01*
X005664Y020864D01*
X006164Y020364D01*
X005364Y020164D02*
X005164Y020364D01*
X005364Y020164D02*
X005364Y019364D01*
X005114Y019114D01*
X004264Y019114D01*
X004264Y019614D02*
X004264Y020264D01*
X004164Y020364D01*
X003664Y022164D02*
X002464Y022164D01*
X003664Y022164D02*
X004064Y022564D01*
X004064Y023464D01*
X004064Y023964D02*
X003164Y023964D01*
X002864Y023664D01*
X002864Y023564D01*
X002464Y023164D01*
X002464Y024164D02*
X002764Y024464D01*
X004064Y024464D01*
X004064Y024964D02*
X002864Y024964D01*
X002564Y025264D01*
X002464Y025164D01*
X002864Y025764D02*
X002864Y025964D01*
X002664Y026164D01*
X002464Y026164D01*
X002864Y025764D02*
X003164Y025464D01*
X004064Y025464D01*
X004064Y025964D02*
X002864Y027164D01*
X002464Y027164D01*
X006864Y025964D02*
X007264Y026464D01*
X007964Y027164D01*
X008464Y027164D01*
X008464Y026164D02*
X007764Y025464D01*
X006864Y025464D01*
X006864Y024964D02*
X008364Y024964D01*
X008464Y025064D01*
X008464Y025164D01*
X008064Y024464D02*
X008464Y024064D01*
X008464Y024164D01*
X008064Y024464D02*
X006864Y024464D01*
X006864Y023964D02*
X007564Y023964D01*
X008364Y023164D01*
X008464Y023164D01*
X008364Y022264D02*
X007564Y022264D01*
X006864Y022964D01*
X006864Y023464D01*
X008364Y022264D02*
X008464Y022164D01*
X010064Y022164D02*
X011264Y022164D01*
X011664Y022564D01*
X011664Y023464D01*
X011664Y023964D02*
X010764Y023964D01*
X010464Y023664D01*
X010464Y023564D01*
X010064Y023164D01*
X010064Y024164D02*
X010364Y024464D01*
X011664Y024464D01*
X011664Y024964D02*
X010464Y024964D01*
X010164Y025264D01*
X010064Y025164D01*
X010464Y025764D02*
X010464Y025964D01*
X010264Y026164D01*
X010064Y026164D01*
X010464Y025764D02*
X010764Y025464D01*
X011664Y025464D01*
X011664Y025964D02*
X010464Y027164D01*
X010064Y027164D01*
X015564Y027164D02*
X016064Y027164D01*
X022114Y024214D02*
X022114Y022864D01*
X022114Y022364D02*
X023064Y022364D01*
X023164Y022464D01*
X023164Y023764D01*
X023464Y024064D01*
X023764Y024064D01*
X023764Y025064D02*
X022964Y025064D01*
X022114Y024214D01*
X023764Y025064D02*
X023864Y025064D01*
X025864Y025164D02*
X026164Y025164D01*
X026364Y024964D01*
X026364Y024064D01*
X026564Y023864D01*
X027514Y023864D01*
X027514Y024364D02*
X027514Y024514D01*
X025864Y026164D01*
X025864Y024164D02*
X026664Y023364D01*
X027514Y023364D01*
X027514Y022864D02*
X026264Y022864D01*
X025964Y023164D01*
X025864Y023164D01*
X026064Y022364D02*
X025864Y022164D01*
X026064Y022364D02*
X027514Y022364D01*
X027514Y021864D02*
X026364Y021864D01*
X025864Y021164D01*
X026364Y021164D02*
X026364Y020764D01*
X025864Y020264D01*
X025864Y020164D01*
X026364Y021164D02*
X026564Y021364D01*
X027514Y021364D01*
X027514Y020864D02*
X027514Y020814D01*
X025864Y019164D01*
X023764Y019264D02*
X023764Y019064D01*
X023764Y019264D02*
X023164Y019864D01*
X022114Y019864D01*
X022114Y020364D02*
X023464Y020364D01*
X023764Y020064D01*
X023064Y019364D02*
X023264Y019164D01*
X023264Y018964D01*
X023764Y018264D01*
X023764Y018064D01*
X023764Y017964D01*
X023164Y017264D02*
X023164Y018664D01*
X023064Y018864D01*
X022114Y018864D01*
X022114Y019364D02*
X023064Y019364D01*
X022114Y018364D02*
X022114Y017614D01*
X023664Y016064D01*
X023764Y016064D01*
X023764Y017064D02*
X023464Y017064D01*
X023164Y017264D01*
X025264Y015964D02*
X026564Y017264D01*
X027364Y017264D01*
X027364Y016264D02*
X026764Y016264D01*
X025464Y014964D01*
X025464Y003764D01*
X026164Y003064D01*
X027514Y003064D01*
X027514Y003564D02*
X026364Y003564D01*
X025664Y004264D01*
X025664Y014264D01*
X026664Y015264D01*
X027264Y015264D01*
X027364Y015364D01*
X027364Y015264D01*
X027364Y014264D02*
X026864Y014264D01*
X025864Y013264D01*
X025864Y004864D01*
X026664Y004064D01*
X027514Y004064D01*
X027514Y004564D02*
X026464Y004564D01*
X026064Y004964D01*
X026064Y012464D01*
X026864Y013264D01*
X027364Y013264D01*
X027364Y012264D02*
X026864Y012264D01*
X026264Y011664D01*
X026264Y005064D01*
X027514Y005064D01*
X027514Y005564D02*
X026664Y005564D01*
X026464Y005764D01*
X026464Y010764D01*
X026964Y011264D01*
X027364Y011264D01*
X027364Y010264D02*
X028264Y010264D01*
X028764Y009764D01*
X028764Y006464D01*
X028364Y006064D01*
X027514Y006064D01*
X027514Y006564D02*
X028564Y006564D01*
X028564Y009164D01*
X028464Y009264D01*
X027364Y009264D01*
X027364Y008264D02*
X027364Y007064D01*
X027514Y007064D01*
X029064Y006564D02*
X029064Y009564D01*
X029464Y010164D01*
X030264Y010164D01*
X030364Y010264D01*
X030864Y011264D02*
X031364Y010764D01*
X031364Y005864D01*
X031064Y005564D01*
X030314Y005564D01*
X030314Y005064D02*
X031164Y005064D01*
X031564Y005464D01*
X031564Y011664D01*
X030964Y012264D01*
X030364Y012264D01*
X030364Y013264D02*
X031164Y013264D01*
X031764Y012664D01*
X031764Y005164D01*
X031164Y004564D01*
X030314Y004564D01*
X030314Y004064D02*
X031264Y004064D01*
X031964Y004764D01*
X031964Y013464D01*
X031164Y014264D01*
X030364Y014264D01*
X030364Y015264D02*
X031064Y015264D01*
X032164Y014164D01*
X032164Y004564D01*
X031164Y003564D01*
X030314Y003564D01*
X030314Y003064D02*
X031764Y003064D01*
X032364Y003664D01*
X032364Y015164D01*
X031264Y016264D01*
X030364Y016264D01*
X030364Y017264D02*
X031564Y017264D01*
X032564Y016264D01*
X032564Y003164D01*
X031964Y002564D01*
X030314Y002564D01*
X027514Y002564D02*
X026264Y002564D01*
X025264Y003564D01*
X025264Y015964D01*
X030364Y011264D02*
X030864Y011264D01*
X030364Y009264D02*
X030264Y009164D01*
X029564Y009164D01*
X029264Y008764D01*
X029264Y006764D01*
X029364Y006564D01*
X030314Y006564D01*
X030314Y007064D02*
X030264Y007064D01*
X030264Y008264D01*
X030364Y008264D01*
X029064Y006564D02*
X029364Y006064D01*
X030314Y006064D01*
X033964Y006464D02*
X033964Y006664D01*
X034564Y007264D01*
X035514Y007264D01*
X035514Y007764D02*
X034264Y007764D01*
X033964Y007464D01*
X034164Y008264D02*
X033964Y008464D01*
X034164Y008264D02*
X035514Y008264D01*
X035514Y008764D02*
X034564Y008764D01*
X034364Y008964D01*
X034364Y009064D01*
X033964Y009464D01*
X034464Y009564D02*
X034464Y009964D01*
X033964Y010464D01*
X034464Y010464D02*
X034664Y010264D01*
X035514Y010264D01*
X035514Y010764D02*
X035514Y012914D01*
X034964Y013464D01*
X033964Y013464D01*
X033964Y012464D02*
X034164Y012464D01*
X034464Y012164D01*
X034464Y010464D01*
X034464Y009564D02*
X034764Y009264D01*
X035514Y009264D01*
X035514Y009764D02*
X036764Y009764D01*
X037064Y009564D02*
X037264Y009764D01*
X038314Y009764D01*
X038364Y009764D01*
X038314Y009264D02*
X039264Y009264D01*
X039364Y009364D01*
X039364Y009864D01*
X039964Y010464D01*
X039464Y010564D02*
X039464Y011964D01*
X039964Y012464D01*
X039964Y013364D02*
X038964Y013364D01*
X038314Y012714D01*
X038314Y010764D01*
X038314Y010264D02*
X039164Y010264D01*
X039464Y010564D01*
X039964Y009464D02*
X039264Y008764D01*
X038314Y008764D01*
X038314Y008264D02*
X039664Y008264D01*
X039864Y008464D01*
X039964Y008464D01*
X039664Y007764D02*
X039964Y007464D01*
X039664Y007764D02*
X038314Y007764D01*
X038314Y007264D02*
X039164Y007264D01*
X039964Y006464D01*
X039464Y006564D02*
X039464Y005964D01*
X039964Y005464D01*
X039464Y005464D02*
X039464Y003964D01*
X039964Y003464D01*
X039964Y002464D02*
X039064Y002464D01*
X038314Y003214D01*
X038314Y005264D01*
X038314Y005764D02*
X039164Y005764D01*
X039464Y005464D01*
X038314Y006264D02*
X037064Y006264D01*
X036764Y006464D02*
X036764Y007264D01*
X036764Y006464D02*
X036564Y006264D01*
X035514Y006264D01*
X035514Y006764D02*
X034664Y006764D01*
X034464Y006464D01*
X034464Y006164D01*
X033964Y005664D01*
X033964Y005464D01*
X034464Y005564D02*
X034664Y005764D01*
X035514Y005764D01*
X035514Y005264D02*
X035514Y003214D01*
X034764Y002464D01*
X033964Y002464D01*
X033964Y003464D02*
X034164Y003464D01*
X034464Y003764D01*
X034464Y005564D01*
X038314Y006764D02*
X039264Y006764D01*
X039464Y006564D01*
X037064Y009064D02*
X037064Y009564D01*
X039964Y013364D02*
X039964Y013464D01*
X038864Y014864D02*
X036564Y014864D01*
X036364Y015064D01*
X036364Y015364D01*
X036464Y015814D02*
X035814Y015814D01*
X035364Y015364D01*
X036464Y015814D02*
X036964Y016314D01*
X036964Y017064D01*
X037514Y017614D01*
X038264Y017614D01*
X037914Y017914D02*
X038364Y018364D01*
X037914Y017914D02*
X037214Y017914D01*
X036764Y017464D01*
X036764Y016464D01*
X036414Y016114D01*
X035464Y016114D01*
X035464Y016614D02*
X034514Y016614D01*
X034364Y016764D01*
X034364Y018264D01*
X034964Y018864D01*
X036864Y018864D01*
X037364Y018364D01*
X036564Y018164D02*
X036364Y018364D01*
X036564Y018164D02*
X036564Y017364D01*
X036314Y017114D01*
X035464Y017114D01*
X035464Y017614D02*
X035464Y018264D01*
X035364Y018364D01*
X037164Y016464D02*
X037314Y016614D01*
X038264Y016614D01*
X038264Y017114D02*
X039114Y017114D01*
X039364Y016864D01*
X039364Y015364D01*
X038864Y014864D01*
X038364Y015364D02*
X038264Y015464D01*
X038264Y016114D01*
X037164Y016464D02*
X037164Y015564D01*
X037364Y015364D01*
X031864Y019164D02*
X030314Y020714D01*
X030314Y020864D01*
X030314Y021364D02*
X031064Y021364D01*
X031364Y021064D01*
X031364Y020664D01*
X031864Y020164D01*
X031864Y021164D02*
X031164Y021864D01*
X030314Y021864D01*
X030314Y022364D02*
X031564Y022364D01*
X031764Y022164D01*
X031864Y022164D01*
X031564Y022864D02*
X031864Y023164D01*
X031564Y022864D02*
X030314Y022864D01*
X030314Y023364D02*
X031364Y023364D01*
X031864Y023864D01*
X031864Y024164D01*
X031364Y023864D02*
X031364Y024664D01*
X031864Y025164D01*
X031864Y026164D02*
X030314Y024614D01*
X030314Y024364D01*
X030314Y023864D02*
X031364Y023864D01*
X033864Y024364D02*
X034064Y024364D01*
X034264Y024164D01*
X034264Y023964D01*
X034564Y023664D01*
X035464Y023664D01*
X035464Y023164D02*
X034264Y023164D01*
X033964Y023464D01*
X033864Y023364D01*
X034164Y022664D02*
X033864Y022364D01*
X034164Y022664D02*
X035464Y022664D01*
X035464Y022164D02*
X034564Y022164D01*
X034264Y021864D01*
X034264Y021764D01*
X033864Y021364D01*
X033864Y020364D02*
X035064Y020364D01*
X035464Y020764D01*
X035464Y021664D01*
X038264Y021664D02*
X038264Y021164D01*
X038964Y020464D01*
X039764Y020464D01*
X039864Y020364D01*
X039864Y021364D02*
X039764Y021364D01*
X038964Y022164D01*
X038264Y022164D01*
X038264Y022664D02*
X039464Y022664D01*
X039864Y022264D01*
X039864Y022364D01*
X039764Y023164D02*
X038264Y023164D01*
X038264Y023664D02*
X039164Y023664D01*
X039864Y024364D01*
X039364Y025364D02*
X038664Y024664D01*
X038264Y024164D01*
X039864Y023364D02*
X039864Y023264D01*
X039764Y023164D01*
X039864Y025364D02*
X039364Y025364D01*
X035464Y024164D02*
X034264Y025364D01*
X033864Y025364D01*
X023764Y023064D02*
X023564Y022864D01*
X023564Y022564D01*
X023264Y022264D01*
X023264Y022164D01*
X022964Y021864D01*
X022114Y021864D01*
X022114Y021364D02*
X023364Y021364D01*
X023764Y021764D01*
X023764Y022064D01*
X023764Y021064D02*
X023564Y020864D01*
X022114Y020864D01*
X011814Y018814D02*
X011814Y018664D01*
X011814Y018814D02*
X010164Y020464D01*
X008164Y018864D02*
X007914Y019114D01*
X007064Y019114D01*
X008164Y018864D02*
X008164Y017364D01*
X007664Y016864D01*
X021164Y007664D02*
X021564Y008064D01*
X022264Y008064D01*
X021164Y007664D02*
X021164Y005464D01*
X021264Y005364D01*
X022214Y005364D01*
X022214Y005864D02*
X022164Y005864D01*
X022264Y005964D01*
X022264Y007064D01*
X020864Y005264D02*
X021264Y004864D01*
X022214Y004864D01*
X022264Y010064D02*
X022864Y010064D01*
X022264Y010064D02*
X022164Y010064D01*
D18*
X036764Y009764D03*
X037064Y009064D03*
X036764Y007264D03*
X037064Y006264D03*
X006364Y014464D03*
X004564Y014464D03*
X005364Y010564D03*
X005664Y010064D03*
X005364Y009464D03*
X005464Y008364D03*
X005664Y007764D03*
X005364Y006764D03*
M02*
