G75*
G70*
%OFA0B0*%
%FSLAX24Y24*%
%IPPOS*%
%LPD*%
%AMOC8*
5,1,8,0,0,1.08239X$1,22.5*
%
%ADD10C,0.0070*%
%ADD11O,0.1200X0.0600*%
%ADD12R,0.1750X0.0250*%
%ADD13C,0.0100*%
D10*
X004277Y012965D02*
X004277Y012768D01*
X004178Y012670D01*
X003981Y012670D01*
X003981Y012965D01*
X004080Y013063D01*
X004178Y013063D01*
X004277Y012965D01*
X003981Y012670D02*
X003785Y012866D01*
X003686Y013063D01*
X003686Y012262D02*
X004277Y012262D01*
X004277Y012360D02*
X004277Y012163D01*
X003981Y011949D02*
X003981Y011555D01*
X004178Y011341D02*
X004277Y011243D01*
X004277Y011046D01*
X004178Y010948D01*
X003785Y010948D01*
X003686Y011046D01*
X003686Y011243D01*
X003785Y011341D01*
X003686Y010638D02*
X003686Y010441D01*
X003686Y010540D02*
X004277Y010540D01*
X004277Y010638D02*
X004277Y010441D01*
X004178Y010227D02*
X004277Y010129D01*
X004277Y009932D01*
X004178Y009834D01*
X003785Y009834D01*
X003686Y009932D01*
X003686Y010129D01*
X003785Y010227D01*
X004178Y010227D01*
X004178Y009620D02*
X004080Y009620D01*
X003981Y009521D01*
X003981Y009324D01*
X003883Y009226D01*
X003785Y009226D01*
X003686Y009324D01*
X003686Y009521D01*
X003785Y009620D01*
X004178Y009620D02*
X004277Y009521D01*
X004277Y009324D01*
X004178Y009226D01*
X003785Y012163D02*
X003686Y012262D01*
D11*
X002512Y012691D03*
X002512Y013691D03*
X002512Y011691D03*
X002512Y010691D03*
X002512Y009691D03*
X002512Y008691D03*
X002512Y007691D03*
X002512Y006691D03*
X005512Y006691D03*
X005512Y007691D03*
X005512Y008691D03*
X005512Y009691D03*
X005512Y010691D03*
X005512Y011691D03*
X005512Y012691D03*
X005512Y013691D03*
D12*
X005462Y005491D03*
X005462Y004991D03*
X005462Y004491D03*
X005462Y003991D03*
X005462Y003491D03*
X005462Y002991D03*
X005462Y002491D03*
X005462Y001991D03*
X002662Y001991D03*
X002662Y002491D03*
X002662Y002991D03*
X002662Y003491D03*
X002662Y003991D03*
X002662Y004491D03*
X002662Y004991D03*
X002662Y005491D03*
D13*
X000812Y002991D02*
X001812Y001991D01*
X002662Y001991D01*
X002662Y002491D02*
X001712Y002491D01*
X001012Y003191D01*
X001012Y012091D01*
X001612Y012691D01*
X002512Y012691D01*
X002512Y013691D02*
X002512Y013791D01*
X002412Y013691D01*
X001412Y013691D01*
X000812Y013091D01*
X000812Y002991D01*
X001212Y003591D02*
X001212Y011291D01*
X001612Y011691D01*
X002512Y011691D01*
X002512Y010691D02*
X001712Y010691D01*
X001412Y010391D01*
X001412Y003891D01*
X001812Y003491D01*
X002662Y003491D01*
X002662Y003991D02*
X001712Y003991D01*
X001612Y004091D01*
X001612Y009491D01*
X001812Y009691D01*
X002512Y009691D01*
X002512Y008691D02*
X003112Y008691D01*
X003912Y007891D01*
X003912Y004791D01*
X003612Y004491D01*
X002662Y004491D01*
X002662Y004991D02*
X003612Y004991D01*
X003712Y005191D01*
X003712Y007191D01*
X003212Y007691D01*
X002512Y007691D01*
X002512Y006691D02*
X002512Y005491D01*
X002662Y005491D01*
X001212Y003591D02*
X001812Y002991D01*
X002662Y002991D01*
X004512Y004491D02*
X004112Y004891D01*
X004112Y008091D01*
X004712Y008691D01*
X005512Y008691D01*
X005512Y009691D02*
X005412Y009691D01*
X005512Y009691D02*
X006112Y009691D01*
X006512Y009291D01*
X006512Y004191D01*
X006312Y003991D01*
X005462Y003991D01*
X005462Y004491D02*
X004512Y004491D01*
X004512Y004991D02*
X004412Y005091D01*
X004412Y007291D01*
X004812Y007691D01*
X005512Y007691D01*
X005512Y006691D02*
X005512Y005591D01*
X005412Y005491D01*
X005462Y005491D01*
X005462Y004991D02*
X004512Y004991D01*
X005462Y003491D02*
X006312Y003491D01*
X006712Y003891D01*
X006712Y010091D01*
X006112Y010691D01*
X005512Y010691D01*
X005512Y011691D02*
X006412Y011691D01*
X006912Y011191D01*
X006912Y003491D01*
X006412Y002991D01*
X005462Y002991D01*
X005462Y002491D02*
X006412Y002491D01*
X007112Y003291D01*
X007112Y011791D01*
X006212Y012691D01*
X005512Y012691D01*
X005512Y013691D02*
X006612Y013691D01*
X007312Y012991D01*
X007312Y002891D01*
X006412Y001991D01*
X005462Y001991D01*
M02*
