%
M48
M72
T01C0.0320
T02C0.0360
T03C0.0440
T04C0.1250
%
T01
X6750Y2000
X17500Y3000
X19500Y3750
X18500Y4500
X20500Y4500
X21500Y4500
X22500Y4500
X23500Y4500
X24500Y4500
X25500Y4500
X26500Y4500
X27500Y4500
X25500Y3000
X24500Y3500
X21500Y3000
X24500Y1500
X29500Y3000
X29500Y6500
X29500Y7500
X30500Y7500
X31500Y8500
X29500Y9000
X27500Y8500
X27000Y9000
X24500Y8250
X23500Y8500
X23500Y7500
X22500Y7500
X21500Y7500
X20500Y7500
X20500Y9500
X23500Y10500
X24500Y11500
X26500Y11500
X27500Y10500
X28500Y10500
X29500Y10500
X30500Y10500
X31500Y10500
X32500Y10500
X33500Y10500
X34500Y10500
X35500Y10500
X36500Y10500
X37250Y10500
X35500Y8500
X35500Y7500
X33500Y6500
X27500Y7500
X26500Y7500
X25500Y7500
X24500Y7500
X21500Y11500
X19500Y13500
X18500Y14500
X22000Y16000
X21500Y16500
X22500Y17500
X23500Y16500
X26500Y17500
X28500Y16500
X31500Y16500
X31500Y15500
X33500Y15500
X34500Y14500
X34500Y13500
X33500Y13500
X32500Y13500
X31500Y13500
X30500Y13500
X29500Y13500
X29250Y14500
X28500Y12500
X34000Y12750
X35500Y13500
X36500Y13500
X36500Y14500
X35500Y15500
X35500Y16500
X33500Y17500
X37500Y17500
X37500Y15500
X39250Y13750
X35500Y20750
X35500Y22250
X19000Y17250
X19000Y16500
X17750Y16500
X17000Y16750
X14500Y22000
X14500Y8500
T02
X18500Y18500
X19500Y18500
X20500Y18500
X21500Y18500
X22500Y18500
X23500Y18500
X24500Y18500
X25500Y18500
X26500Y18500
X27500Y18500
X28500Y18500
X29500Y18500
X30500Y18500
X31500Y18500
X32500Y18500
X33500Y18500
X34500Y18500
X35500Y18500
X36500Y18500
X37500Y18500
X37500Y19500
X36500Y19500
X35500Y19500
X34500Y19500
X33500Y19500
X32500Y19500
X31500Y19500
X30500Y19500
X29500Y19500
X28500Y19500
X27500Y19500
X26500Y19500
X25500Y19500
X24500Y19500
X23500Y19500
X22500Y19500
X21500Y19500
X20500Y19500
X19500Y19500
X18500Y19500
T03
X28500Y17500
X32500Y17500
T04
X48000Y22750
X48000Y2750
M30
