G75*
%MOIN*%
%OFA0B0*%
%FSLAX24Y24*%
%IPPOS*%
%LPD*%
%AMOC8*
5,1,8,0,0,1.08239X$1,22.5*
%
%ADD10OC8,0.0624*%
%ADD11OC8,0.0792*%
%ADD12OC8,0.0756*%
%ADD13C,0.1500*%
%ADD14OC8,0.0672*%
%ADD15C,0.0576*%
D10*
X017500Y003000D03*
X020500Y004500D03*
X021500Y004500D03*
X022500Y004500D03*
X023500Y004500D03*
X024500Y004500D03*
X025500Y004500D03*
X026500Y004500D03*
X027500Y004500D03*
X025500Y003000D03*
X024500Y003500D03*
X021500Y003000D03*
X024500Y001500D03*
X029500Y003000D03*
X029500Y006500D03*
X030500Y007500D03*
X031500Y008500D03*
X031500Y010500D03*
X030500Y010500D03*
X029500Y010500D03*
X028500Y010500D03*
X027500Y010500D03*
X026500Y011500D03*
X028500Y012500D03*
X029500Y013500D03*
X030500Y013500D03*
X031500Y013500D03*
X032500Y013500D03*
X033500Y013500D03*
X034500Y013500D03*
X035500Y013500D03*
X036500Y013500D03*
X036500Y014500D03*
X035500Y015500D03*
X035500Y016500D03*
X033500Y015500D03*
X034500Y014500D03*
X031500Y015500D03*
X031500Y016500D03*
X033500Y017500D03*
X037500Y017500D03*
X037500Y015500D03*
X028500Y016500D03*
X026500Y017500D03*
X023500Y016500D03*
X022500Y017500D03*
X021500Y011500D03*
X023500Y010500D03*
X023500Y008500D03*
X023500Y007500D03*
X022500Y007500D03*
X021500Y007500D03*
X020500Y007500D03*
X024500Y007500D03*
X025500Y007500D03*
X026500Y007500D03*
X027500Y007500D03*
X027500Y008500D03*
X032500Y010500D03*
X033500Y010500D03*
X034500Y010500D03*
X035500Y010500D03*
X036500Y010500D03*
X035500Y008500D03*
X035500Y007500D03*
X033500Y006500D03*
D11*
X032500Y017500D03*
X028500Y017500D03*
D12*
X029500Y009000D03*
X029500Y007500D03*
D13*
X048000Y002750D03*
X048000Y022750D03*
D14*
X037500Y019500D03*
X036500Y019500D03*
X035500Y019500D03*
X034500Y019500D03*
X033500Y019500D03*
X032500Y019500D03*
X031500Y019500D03*
X030500Y019500D03*
X029500Y019500D03*
X028500Y019500D03*
X027500Y019500D03*
X026500Y019500D03*
X025500Y019500D03*
X024500Y019500D03*
X023500Y019500D03*
X022500Y019500D03*
X021500Y019500D03*
X020500Y019500D03*
X019500Y019500D03*
X018500Y019500D03*
X018500Y018500D03*
X019500Y018500D03*
X020500Y018500D03*
X021500Y018500D03*
X022500Y018500D03*
X023500Y018500D03*
X024500Y018500D03*
X025500Y018500D03*
X026500Y018500D03*
X027500Y018500D03*
X028500Y018500D03*
X029500Y018500D03*
X030500Y018500D03*
X031500Y018500D03*
X032500Y018500D03*
X033500Y018500D03*
X034500Y018500D03*
X035500Y018500D03*
X036500Y018500D03*
X037500Y018500D03*
D15*
X006750Y002000D03*
X018500Y004500D03*
X019500Y003750D03*
X024500Y008250D03*
X027000Y009000D03*
X024500Y011500D03*
X020500Y009500D03*
X014500Y008500D03*
X019500Y013500D03*
X018500Y014500D03*
X022000Y016000D03*
X021500Y016500D03*
X019000Y016500D03*
X017750Y016500D03*
X017000Y016750D03*
X019000Y017250D03*
X014500Y022000D03*
X029250Y014500D03*
X034000Y012750D03*
X037250Y010500D03*
X039250Y013750D03*
X035500Y020750D03*
X035500Y022250D03*
M02*
