G75*
G70*
%OFA0B0*%
%FSLAX24Y24*%
%IPPOS*%
%LPD*%
%AMOC8*
5,1,8,0,0,1.08239X$1,22.5*
%
%ADD10C,0.0000*%
%ADD11C,0.0110*%
%ADD12C,0.0140*%
%ADD13C,0.0100*%
%ADD14R,0.0200X0.1000*%
%ADD15R,0.0750X0.0300*%
%ADD16R,0.1000X0.0200*%
%ADD17R,0.0300X0.0750*%
%ADD18R,0.0200X0.2300*%
%ADD19R,0.0900X0.0200*%
%ADD20R,0.0700X0.0200*%
%ADD21R,0.0500X0.0200*%
%ADD22R,0.0300X0.0200*%
%ADD23R,0.0100X0.0100*%
%ADD24C,0.0010*%
%ADD25R,0.0340X0.0240*%
%ADD26R,0.0240X0.0340*%
%ADD27C,0.0120*%
%ADD28C,0.0200*%
%ADD29C,0.0240*%
D10*
X000103Y023586D02*
X000103Y001216D01*
X006781Y001216D01*
X006781Y000101D01*
X050095Y000116D01*
X050095Y024686D01*
X007741Y024701D01*
X007741Y023586D01*
X000103Y023586D01*
X015151Y018811D02*
X015154Y018870D01*
X015162Y018929D01*
X015175Y018986D01*
X015194Y019043D01*
X015217Y019097D01*
X015246Y019149D01*
X015279Y019198D01*
X015316Y019244D01*
X015357Y019286D01*
X015402Y019324D01*
X015451Y019359D01*
X015502Y019388D01*
X015556Y019413D01*
X015611Y019433D01*
X015669Y019447D01*
X015727Y019457D01*
X015786Y019461D01*
X015845Y019459D01*
X015904Y019453D01*
X015962Y019441D01*
X016019Y019423D01*
X016073Y019401D01*
X016126Y019374D01*
X016176Y019342D01*
X016223Y019306D01*
X016266Y019265D01*
X016305Y019221D01*
X016340Y019174D01*
X016371Y019123D01*
X016397Y019070D01*
X016418Y019015D01*
X016434Y018958D01*
X016445Y018900D01*
X016450Y018841D01*
X016450Y018781D01*
X016445Y018722D01*
X016434Y018664D01*
X016418Y018607D01*
X016397Y018552D01*
X016371Y018499D01*
X016340Y018448D01*
X016305Y018401D01*
X016266Y018357D01*
X016223Y018316D01*
X016176Y018280D01*
X016126Y018248D01*
X016073Y018221D01*
X016019Y018199D01*
X015962Y018181D01*
X015904Y018169D01*
X015845Y018163D01*
X015786Y018161D01*
X015727Y018165D01*
X015669Y018175D01*
X015611Y018189D01*
X015556Y018209D01*
X015502Y018234D01*
X015451Y018263D01*
X015402Y018298D01*
X015357Y018336D01*
X015316Y018378D01*
X015279Y018424D01*
X015246Y018473D01*
X015217Y018525D01*
X015194Y018579D01*
X015175Y018636D01*
X015162Y018693D01*
X015154Y018752D01*
X015151Y018811D01*
X038751Y018811D02*
X038754Y018870D01*
X038762Y018929D01*
X038775Y018986D01*
X038794Y019043D01*
X038817Y019097D01*
X038846Y019149D01*
X038879Y019198D01*
X038916Y019244D01*
X038957Y019286D01*
X039002Y019324D01*
X039051Y019359D01*
X039102Y019388D01*
X039156Y019413D01*
X039211Y019433D01*
X039269Y019447D01*
X039327Y019457D01*
X039386Y019461D01*
X039445Y019459D01*
X039504Y019453D01*
X039562Y019441D01*
X039619Y019423D01*
X039673Y019401D01*
X039726Y019374D01*
X039776Y019342D01*
X039823Y019306D01*
X039866Y019265D01*
X039905Y019221D01*
X039940Y019174D01*
X039971Y019123D01*
X039997Y019070D01*
X040018Y019015D01*
X040034Y018958D01*
X040045Y018900D01*
X040050Y018841D01*
X040050Y018781D01*
X040045Y018722D01*
X040034Y018664D01*
X040018Y018607D01*
X039997Y018552D01*
X039971Y018499D01*
X039940Y018448D01*
X039905Y018401D01*
X039866Y018357D01*
X039823Y018316D01*
X039776Y018280D01*
X039726Y018248D01*
X039673Y018221D01*
X039619Y018199D01*
X039562Y018181D01*
X039504Y018169D01*
X039445Y018163D01*
X039386Y018161D01*
X039327Y018165D01*
X039269Y018175D01*
X039211Y018189D01*
X039156Y018209D01*
X039102Y018234D01*
X039051Y018263D01*
X039002Y018298D01*
X038957Y018336D01*
X038916Y018378D01*
X038879Y018424D01*
X038846Y018473D01*
X038817Y018525D01*
X038794Y018579D01*
X038775Y018636D01*
X038762Y018693D01*
X038754Y018752D01*
X038751Y018811D01*
D11*
X042652Y017349D02*
X042652Y017054D01*
X043243Y017054D01*
X042652Y017054D01*
X042652Y017349D01*
X042751Y017448D01*
X042947Y017448D01*
X043046Y017349D01*
X043046Y017054D01*
X043046Y017349D01*
X042947Y017448D01*
X042751Y017448D01*
X042652Y017349D01*
X042751Y016803D02*
X042652Y016705D01*
X042652Y016508D01*
X042751Y016410D01*
X042947Y016410D01*
X043046Y016508D01*
X043046Y016705D01*
X042947Y016803D01*
X042751Y016803D01*
X042652Y016705D01*
X042652Y016508D01*
X042751Y016410D01*
X042947Y016410D01*
X043046Y016508D01*
X043046Y016705D01*
X042947Y016803D01*
X042751Y016803D01*
X042751Y016159D02*
X042652Y016060D01*
X042652Y015863D01*
X042751Y015765D01*
X042947Y015765D01*
X043046Y015863D01*
X043046Y016060D01*
X042947Y016159D01*
X042751Y016159D01*
X042652Y016060D01*
X042652Y015863D01*
X042751Y015765D01*
X042947Y015765D01*
X043046Y015863D01*
X043046Y016060D01*
X042947Y016159D01*
X042751Y016159D01*
X043046Y015514D02*
X043046Y015121D01*
X042455Y015121D01*
X043046Y015121D01*
X043046Y015514D01*
X043046Y014136D02*
X042947Y014037D01*
X042554Y014037D01*
X042947Y014037D01*
X043046Y014136D01*
X042652Y014136D02*
X042652Y013939D01*
X042652Y014136D01*
X042751Y013688D02*
X043046Y013688D01*
X042751Y013688D01*
X042652Y013590D01*
X042652Y013294D01*
X043046Y013294D01*
X042652Y013294D01*
X042652Y013590D01*
X042751Y013688D01*
X042751Y013044D02*
X042652Y012945D01*
X042652Y012748D01*
X042751Y012650D01*
X042947Y012650D01*
X043046Y012748D01*
X043046Y012945D01*
X043046Y012748D01*
X042947Y012650D01*
X042751Y012650D01*
X042652Y012748D01*
X042652Y012945D01*
X042751Y013044D01*
X042849Y013044D01*
X042849Y012650D01*
X042849Y013044D01*
X042751Y013044D01*
X042652Y012301D02*
X042652Y012202D01*
X042849Y012005D01*
X042652Y012202D01*
X042652Y012301D01*
X042652Y012005D02*
X043046Y012005D01*
X042652Y012005D01*
X042652Y011656D02*
X042652Y011558D01*
X042849Y011361D01*
X042652Y011558D01*
X042652Y011656D01*
X042652Y011361D02*
X043046Y011361D01*
X042652Y011361D01*
X042652Y011110D02*
X043046Y011110D01*
X043046Y010815D01*
X042947Y010716D01*
X042652Y010716D01*
X042947Y010716D01*
X043046Y010815D01*
X043046Y011110D01*
X042652Y011110D01*
X042554Y010465D02*
X042455Y010367D01*
X042455Y010170D01*
X042554Y010072D01*
X042947Y010072D01*
X043046Y010170D01*
X043046Y010367D01*
X042947Y010465D01*
X043046Y010367D01*
X043046Y010170D01*
X042947Y010072D01*
X042554Y010072D01*
X042455Y010170D01*
X042455Y010367D01*
X042554Y010465D01*
X041046Y010465D02*
X040751Y010465D01*
X040652Y010367D01*
X040652Y010072D01*
X041046Y010072D01*
X040652Y010072D01*
X040652Y010367D01*
X040751Y010465D01*
X041046Y010465D01*
X040947Y010815D02*
X040554Y010815D01*
X040947Y010815D01*
X041046Y010913D01*
X040947Y010815D01*
X040652Y010913D02*
X040652Y010716D01*
X040652Y010913D01*
X040751Y009821D02*
X040652Y009722D01*
X040652Y009526D01*
X040751Y009427D01*
X040947Y009427D01*
X041046Y009526D01*
X041046Y009722D01*
X041046Y009526D01*
X040947Y009427D01*
X040751Y009427D01*
X040652Y009526D01*
X040652Y009722D01*
X040751Y009821D01*
X040849Y009821D01*
X040849Y009427D01*
X040849Y009821D01*
X040751Y009821D01*
X040751Y009176D02*
X040652Y009078D01*
X040751Y008979D01*
X041046Y008979D01*
X040751Y008979D01*
X040652Y008881D01*
X040652Y008783D01*
X041046Y008783D01*
X040652Y008783D01*
X040652Y008881D01*
X040751Y008979D01*
X040652Y009078D01*
X040751Y009176D01*
X041046Y009176D01*
X040751Y009176D01*
X040751Y008532D02*
X040849Y008532D01*
X040849Y008138D01*
X040849Y008532D01*
X040751Y008532D01*
X040652Y008433D01*
X040652Y008237D01*
X040751Y008138D01*
X040947Y008138D01*
X041046Y008237D01*
X041046Y008433D01*
X041046Y008237D01*
X040947Y008138D01*
X040751Y008138D01*
X040652Y008237D01*
X040652Y008433D01*
X040751Y008532D01*
X040652Y007887D02*
X040652Y007592D01*
X040751Y007494D01*
X040947Y007494D01*
X041046Y007592D01*
X041046Y007887D01*
X041046Y007592D01*
X040947Y007494D01*
X040751Y007494D01*
X040652Y007592D01*
X040652Y007887D01*
X040751Y007243D02*
X041046Y007243D01*
X041046Y006947D01*
X040947Y006849D01*
X040849Y006947D01*
X040849Y007243D01*
X040849Y006947D01*
X040947Y006849D01*
X041046Y006947D01*
X041046Y007243D01*
X040751Y007243D01*
X040652Y007144D01*
X040652Y006947D01*
X040652Y007144D01*
X040751Y007243D01*
X041046Y006509D02*
X041046Y006312D01*
X041046Y006509D01*
X041046Y006410D02*
X040455Y006410D01*
X040455Y006312D01*
X040455Y006410D01*
X041046Y006410D01*
X040947Y006061D02*
X041046Y005963D01*
X041046Y005667D01*
X041046Y005963D01*
X040947Y006061D01*
X040751Y006061D01*
X040652Y005963D01*
X040652Y005667D01*
X041243Y005667D01*
X040652Y005667D01*
X040652Y005963D01*
X040751Y006061D01*
X040947Y006061D01*
X040849Y005417D02*
X040849Y005023D01*
X040849Y005417D01*
X040751Y005417D01*
X040652Y005318D01*
X040652Y005121D01*
X040751Y005023D01*
X040947Y005023D01*
X041046Y005121D01*
X041046Y005318D01*
X041046Y005121D01*
X040947Y005023D01*
X040751Y005023D01*
X040652Y005121D01*
X040652Y005318D01*
X040751Y005417D01*
X040849Y005417D01*
X040751Y004772D02*
X040554Y004772D01*
X040455Y004674D01*
X040455Y004378D01*
X041046Y004378D01*
X040455Y004378D01*
X040455Y004674D01*
X040554Y004772D01*
X040751Y004772D01*
X040849Y004674D01*
X040849Y004378D01*
X040849Y004674D01*
X040751Y004772D01*
X040849Y004575D02*
X041046Y004772D01*
X040849Y004575D01*
X042455Y004566D02*
X042455Y004369D01*
X042554Y004271D01*
X042652Y004271D01*
X042751Y004369D01*
X042751Y004566D01*
X042849Y004665D01*
X042947Y004665D01*
X043046Y004566D01*
X043046Y004369D01*
X042947Y004271D01*
X043046Y004369D01*
X043046Y004566D01*
X042947Y004665D01*
X042849Y004665D01*
X042751Y004566D01*
X042751Y004369D01*
X042652Y004271D01*
X042554Y004271D01*
X042455Y004369D01*
X042455Y004566D01*
X042554Y004665D01*
X042455Y004566D01*
X042751Y004916D02*
X042751Y005309D01*
X042751Y004916D01*
X042554Y005560D02*
X042455Y005658D01*
X042455Y005855D01*
X042554Y005954D01*
X042652Y005954D01*
X043046Y005560D01*
X043046Y005954D01*
X043046Y005560D01*
X042652Y005954D01*
X042554Y005954D01*
X042455Y005855D01*
X042455Y005658D01*
X042554Y005560D01*
X042554Y006205D02*
X042455Y006303D01*
X042455Y006500D01*
X042554Y006598D01*
X042652Y006598D01*
X042751Y006500D01*
X042849Y006598D01*
X042947Y006598D01*
X043046Y006500D01*
X043046Y006303D01*
X042947Y006205D01*
X043046Y006303D01*
X043046Y006500D01*
X042947Y006598D01*
X042849Y006598D01*
X042751Y006500D01*
X042751Y006401D01*
X042751Y006500D01*
X042652Y006598D01*
X042554Y006598D01*
X042455Y006500D01*
X042455Y006303D01*
X042554Y006205D01*
X042554Y006849D02*
X042455Y006947D01*
X042455Y007144D01*
X042554Y007243D01*
X042652Y007243D01*
X043046Y006849D01*
X043046Y007243D01*
X043046Y006849D01*
X042652Y007243D01*
X042554Y007243D01*
X042455Y007144D01*
X042455Y006947D01*
X042554Y006849D01*
X042751Y008138D02*
X042947Y008138D01*
X043046Y008237D01*
X043046Y008433D01*
X042947Y008532D01*
X042751Y008532D01*
X042652Y008433D01*
X042652Y008237D01*
X042751Y008138D01*
X042947Y008138D01*
X043046Y008237D01*
X043046Y008433D01*
X042947Y008532D01*
X042751Y008532D01*
X042652Y008433D01*
X042652Y008237D01*
X042751Y008138D01*
X042849Y008783D02*
X042652Y008979D01*
X042652Y009078D01*
X042652Y008979D01*
X042849Y008783D01*
X043046Y008783D02*
X042652Y008783D01*
X043046Y008783D01*
X043046Y004020D02*
X042849Y003823D01*
X043046Y004020D01*
X042849Y003922D02*
X042751Y004020D01*
X042554Y004020D01*
X042455Y003922D01*
X042455Y003626D01*
X043046Y003626D01*
X042455Y003626D01*
X042455Y003922D01*
X042554Y004020D01*
X042751Y004020D01*
X042849Y003922D01*
X042849Y003626D01*
X042849Y003922D01*
X041046Y003385D02*
X041046Y003188D01*
X040947Y003089D01*
X040751Y003089D01*
X040751Y003385D01*
X040849Y003483D01*
X040947Y003483D01*
X041046Y003385D01*
X040947Y003483D01*
X040849Y003483D01*
X040751Y003385D01*
X040751Y003089D01*
X040554Y003286D01*
X040455Y003483D01*
X040554Y003286D01*
X040751Y003089D01*
X040947Y003089D01*
X041046Y003188D01*
X041046Y003385D01*
X040554Y002839D02*
X040947Y002445D01*
X041046Y002445D01*
X040947Y002445D01*
X040554Y002839D01*
X040455Y002839D01*
X040455Y002445D01*
X040455Y002839D01*
X040554Y002839D01*
X040554Y002194D02*
X040947Y001800D01*
X041046Y001899D01*
X041046Y002096D01*
X040947Y002194D01*
X040554Y002194D01*
X040455Y002096D01*
X040455Y001899D01*
X040554Y001800D01*
X040947Y001800D01*
X040554Y002194D01*
X040947Y002194D01*
X041046Y002096D01*
X041046Y001899D01*
X040947Y001800D01*
X040554Y001800D01*
X040455Y001899D01*
X040455Y002096D01*
X040554Y002194D01*
X040455Y001549D02*
X041046Y001549D01*
X040849Y001353D01*
X041046Y001156D01*
X040455Y001156D01*
X041046Y001156D01*
X040849Y001353D01*
X041046Y001549D01*
X040455Y001549D01*
X042455Y001353D02*
X042554Y001254D01*
X043046Y001254D01*
X042554Y001254D01*
X042455Y001353D01*
X042751Y001353D02*
X042751Y001156D01*
X042751Y001353D01*
X042751Y001693D02*
X042947Y001693D01*
X043046Y001791D01*
X043046Y001988D01*
X042947Y002087D01*
X042751Y002087D01*
X042652Y001988D01*
X042652Y001791D01*
X042751Y001693D01*
X042947Y001693D01*
X043046Y001791D01*
X043046Y001988D01*
X042947Y002087D01*
X042751Y002087D01*
X042652Y001988D01*
X042652Y001791D01*
X042751Y001693D01*
X042849Y002337D02*
X042652Y002534D01*
X042652Y002633D01*
X042652Y002534D01*
X042849Y002337D01*
X043046Y002337D02*
X042652Y002337D01*
X043046Y002337D01*
X008046Y001997D02*
X008046Y001800D01*
X008046Y001997D01*
X008046Y001899D02*
X007455Y001899D01*
X007554Y001800D01*
X007455Y001899D01*
X008046Y001899D01*
X008046Y001549D02*
X007652Y001549D01*
X007455Y001353D01*
X007652Y001156D01*
X008046Y001156D01*
X007652Y001156D01*
X007455Y001353D01*
X007652Y001549D01*
X008046Y001549D01*
X007751Y001549D02*
X007751Y001156D01*
X007751Y001549D01*
X007849Y022406D02*
X007455Y022406D01*
X007849Y022406D01*
X008046Y022603D01*
X007849Y022799D01*
X007455Y022799D01*
X007849Y022799D01*
X008046Y022603D01*
X007849Y022406D01*
X008046Y023050D02*
X008046Y023247D01*
X008046Y023050D01*
X008046Y023149D02*
X007455Y023149D01*
X007554Y023050D01*
X007455Y023149D01*
X008046Y023149D01*
X018146Y023656D02*
X018146Y024246D01*
X018441Y024246D01*
X018539Y024148D01*
X018539Y023951D01*
X018441Y023853D01*
X018146Y023853D01*
X018441Y023853D01*
X018539Y023951D01*
X018539Y024148D01*
X018441Y024246D01*
X018146Y024246D01*
X018146Y023656D01*
X018790Y023656D02*
X019184Y023656D01*
X018790Y023656D01*
X018790Y024246D01*
X018790Y023656D01*
X019435Y023656D02*
X019632Y023656D01*
X019435Y023656D01*
X019533Y023656D02*
X019533Y024246D01*
X019435Y024148D01*
X019533Y024246D01*
X019533Y023656D01*
D12*
X008031Y023252D02*
X008031Y023065D01*
X008031Y023252D01*
X008031Y023065D01*
X008031Y023252D01*
X008031Y023065D01*
X008031Y023252D01*
X008031Y023065D01*
X008031Y023252D01*
X008031Y023065D01*
X008031Y023252D01*
X008031Y023065D01*
X008031Y023252D01*
X008031Y023065D01*
X008031Y023252D01*
X008031Y023065D01*
X008031Y023252D01*
X008031Y023065D01*
X008031Y023252D01*
X008031Y023065D01*
X008031Y023252D01*
X008031Y023065D01*
X008031Y023252D01*
X008031Y023065D01*
X008031Y023252D01*
X008031Y023065D01*
X008031Y023252D01*
X008031Y023065D01*
X008031Y023252D01*
X008031Y023065D01*
X008031Y023252D01*
X008031Y023065D01*
X008031Y023252D01*
X008031Y023065D01*
X008031Y023252D01*
X008031Y023065D01*
X008031Y023252D01*
X008031Y023065D01*
X008031Y023252D01*
X008031Y023065D01*
X008031Y023252D01*
X008031Y023065D01*
X008031Y023252D01*
X008031Y023065D01*
X008031Y023252D01*
X008031Y023065D01*
X008031Y023252D01*
X008031Y023065D01*
X008031Y023252D01*
X008031Y023065D01*
X008031Y023252D01*
X008031Y023065D01*
X008031Y023252D01*
X008031Y023065D01*
X008031Y023252D01*
X008031Y023065D01*
X008031Y023252D01*
X008031Y023065D01*
X008031Y023252D01*
X008031Y023065D01*
X008031Y023252D01*
X008031Y023065D01*
X008031Y023252D01*
X008031Y023159D02*
X007470Y023159D01*
X007564Y023065D01*
X007470Y023159D01*
X008031Y023159D01*
X007470Y023159D01*
X007564Y023065D01*
X007470Y023159D01*
X008031Y023159D01*
X007470Y023159D01*
X007564Y023065D01*
X007470Y023159D01*
X008031Y023159D01*
X007470Y023159D01*
X007564Y023065D01*
X007470Y023159D01*
X008031Y023159D01*
X007470Y023159D01*
X007564Y023065D01*
X007470Y023159D01*
X008031Y023159D01*
X007470Y023159D01*
X007564Y023065D01*
X007470Y023159D01*
X008031Y023159D01*
X007470Y023159D01*
X007564Y023065D01*
X007470Y023159D01*
X008031Y023159D01*
X007470Y023159D01*
X007564Y023065D01*
X007470Y023159D01*
X008031Y023159D01*
X007470Y023159D01*
X007564Y023065D01*
X007470Y023159D01*
X008031Y023159D01*
X007470Y023159D01*
X007564Y023065D01*
X007470Y023159D01*
X008031Y023159D01*
X007470Y023159D01*
X007564Y023065D01*
X007470Y023159D01*
X008031Y023159D01*
X007470Y023159D01*
X007564Y023065D01*
X007470Y023159D01*
X008031Y023159D01*
X007470Y023159D01*
X007564Y023065D01*
X007470Y023159D01*
X008031Y023159D01*
X007470Y023159D01*
X007564Y023065D01*
X007470Y023159D01*
X008031Y023159D01*
X007470Y023159D01*
X007564Y023065D01*
X007470Y023159D01*
X008031Y023159D01*
X007470Y023159D01*
X007564Y023065D01*
X007470Y023159D01*
X008031Y023159D01*
X007470Y023159D01*
X007564Y023065D01*
X007470Y023159D01*
X008031Y023159D01*
X007470Y023159D01*
X007564Y023065D01*
X007470Y023159D01*
X008031Y023159D01*
X007470Y023159D01*
X007564Y023065D01*
X007470Y023159D01*
X008031Y023159D01*
X007470Y023159D01*
X007564Y023065D01*
X007470Y023159D01*
X008031Y023159D01*
X007470Y023159D01*
X007564Y023065D01*
X007470Y023159D01*
X008031Y023159D01*
X007470Y023159D01*
X007564Y023065D01*
X007470Y023159D01*
X008031Y023159D01*
X007470Y023159D01*
X007564Y023065D01*
X007470Y023159D01*
X008031Y023159D01*
X007470Y023159D01*
X007564Y023065D01*
X007470Y023159D01*
X008031Y023159D01*
X007470Y023159D01*
X007564Y023065D01*
X007470Y023159D01*
X008031Y023159D01*
X007470Y023159D01*
X007564Y023065D01*
X007470Y023159D01*
X008031Y023159D01*
X007470Y023159D01*
X007564Y023065D01*
X007470Y023159D01*
X008031Y023159D01*
X007470Y023159D01*
X007564Y023065D01*
X007470Y023159D01*
X008031Y023159D01*
X007470Y023159D01*
X007564Y023065D01*
X007470Y023159D01*
X008031Y023159D01*
X007470Y023159D01*
X007564Y023065D01*
X007470Y023159D01*
X008031Y023159D01*
X007470Y023159D01*
X007564Y023065D01*
X007470Y023159D01*
X008031Y023159D01*
X007844Y022794D02*
X007470Y022794D01*
X007844Y022794D01*
X008031Y022608D01*
X007844Y022421D01*
X007470Y022421D01*
X007844Y022421D01*
X008031Y022608D01*
X007844Y022794D01*
X007470Y022794D01*
X007844Y022794D01*
X008031Y022608D01*
X007844Y022421D01*
X007470Y022421D01*
X007844Y022421D01*
X008031Y022608D01*
X007844Y022794D01*
X007470Y022794D01*
X007844Y022794D01*
X008031Y022608D01*
X007844Y022421D01*
X007470Y022421D01*
X007844Y022421D01*
X008031Y022608D01*
X007844Y022794D01*
X007470Y022794D01*
X007844Y022794D01*
X008031Y022608D01*
X007844Y022421D01*
X007470Y022421D01*
X007844Y022421D01*
X008031Y022608D01*
X007844Y022794D01*
X007470Y022794D01*
X007844Y022794D01*
X008031Y022608D01*
X007844Y022421D01*
X007470Y022421D01*
X007844Y022421D01*
X008031Y022608D01*
X007844Y022794D01*
X007470Y022794D01*
X007844Y022794D01*
X008031Y022608D01*
X007844Y022421D01*
X007470Y022421D01*
X007844Y022421D01*
X008031Y022608D01*
X007844Y022794D01*
X007470Y022794D01*
X007844Y022794D01*
X008031Y022608D01*
X007844Y022421D01*
X007470Y022421D01*
X007844Y022421D01*
X008031Y022608D01*
X007844Y022794D01*
X007470Y022794D01*
X007844Y022794D01*
X008031Y022608D01*
X007844Y022421D01*
X007470Y022421D01*
X007844Y022421D01*
X008031Y022608D01*
X007844Y022794D01*
X007470Y022794D01*
X007844Y022794D01*
X008031Y022608D01*
X007844Y022421D01*
X007470Y022421D01*
X007844Y022421D01*
X008031Y022608D01*
X007844Y022794D01*
X007470Y022794D01*
X007844Y022794D01*
X008031Y022608D01*
X007844Y022421D01*
X007470Y022421D01*
X007844Y022421D01*
X008031Y022608D01*
X007844Y022794D01*
X007470Y022794D01*
X007844Y022794D01*
X008031Y022608D01*
X007844Y022421D01*
X007470Y022421D01*
X007844Y022421D01*
X008031Y022608D01*
X007844Y022794D01*
X007470Y022794D01*
X007844Y022794D01*
X008031Y022608D01*
X007844Y022421D01*
X007470Y022421D01*
X007844Y022421D01*
X008031Y022608D01*
X007844Y022794D01*
X007470Y022794D01*
X007844Y022794D01*
X008031Y022608D01*
X007844Y022421D01*
X007470Y022421D01*
X007844Y022421D01*
X008031Y022608D01*
X007844Y022794D01*
X007470Y022794D01*
X007844Y022794D01*
X008031Y022608D01*
X007844Y022421D01*
X007470Y022421D01*
X007844Y022421D01*
X008031Y022608D01*
X007844Y022794D01*
X007470Y022794D01*
X007844Y022794D01*
X008031Y022608D01*
X007844Y022421D01*
X007470Y022421D01*
X007844Y022421D01*
X008031Y022608D01*
X007844Y022794D01*
X007470Y022794D01*
X007844Y022794D01*
X008031Y022608D01*
X007844Y022421D01*
X007470Y022421D01*
X007844Y022421D01*
X008031Y022608D01*
X007844Y022794D01*
X007470Y022794D01*
X007844Y022794D01*
X008031Y022608D01*
X007844Y022421D01*
X007470Y022421D01*
X007844Y022421D01*
X008031Y022608D01*
X007844Y022794D01*
X007470Y022794D01*
X007844Y022794D01*
X008031Y022608D01*
X007844Y022421D01*
X007470Y022421D01*
X007844Y022421D01*
X008031Y022608D01*
X007844Y022794D01*
X007470Y022794D01*
X007844Y022794D01*
X008031Y022608D01*
X007844Y022421D01*
X007470Y022421D01*
X007844Y022421D01*
X008031Y022608D01*
X007844Y022794D01*
X007470Y022794D01*
X007844Y022794D01*
X008031Y022608D01*
X007844Y022421D01*
X007470Y022421D01*
X007844Y022421D01*
X008031Y022608D01*
X007844Y022794D01*
X007470Y022794D01*
X007844Y022794D01*
X008031Y022608D01*
X007844Y022421D01*
X007470Y022421D01*
X007844Y022421D01*
X008031Y022608D01*
X007844Y022794D01*
X007470Y022794D01*
X007844Y022794D01*
X008031Y022608D01*
X007844Y022421D01*
X007470Y022421D01*
X007844Y022421D01*
X008031Y022608D01*
X007844Y022794D01*
X007470Y022794D01*
X007844Y022794D01*
X008031Y022608D01*
X007844Y022421D01*
X007470Y022421D01*
X007844Y022421D01*
X008031Y022608D01*
X007844Y022794D01*
X007470Y022794D01*
X007844Y022794D01*
X008031Y022608D01*
X007844Y022421D01*
X007470Y022421D01*
X007844Y022421D01*
X008031Y022608D01*
X007844Y022794D01*
X007470Y022794D01*
X007844Y022794D01*
X008031Y022608D01*
X007844Y022421D01*
X007470Y022421D01*
X007844Y022421D01*
X008031Y022608D01*
X007844Y022794D01*
X007470Y022794D01*
X007844Y022794D01*
X008031Y022608D01*
X007844Y022421D01*
X007470Y022421D01*
X007844Y022421D01*
X008031Y022608D01*
X007844Y022794D01*
X007470Y022794D01*
X007844Y022794D01*
X008031Y022608D01*
X007844Y022421D01*
X007470Y022421D01*
X007844Y022421D01*
X008031Y022608D01*
X007844Y022794D01*
X007470Y022794D01*
X007844Y022794D01*
X008031Y022608D01*
X007844Y022421D01*
X007470Y022421D01*
X007844Y022421D01*
X008031Y022608D01*
X007844Y022794D01*
X007470Y022794D01*
X007844Y022794D01*
X008031Y022608D01*
X007844Y022421D01*
X007470Y022421D01*
X007844Y022421D01*
X008031Y022608D01*
X007844Y022794D01*
X007470Y022794D01*
X007844Y022794D01*
X008031Y022608D01*
X007844Y022421D01*
X007470Y022421D01*
X007844Y022421D01*
X008031Y022608D01*
X007844Y022794D01*
X007470Y022794D01*
X007844Y022794D01*
X008031Y022608D01*
X007844Y022421D01*
X007470Y022421D01*
X007844Y022421D01*
X008031Y022608D01*
X007844Y022794D01*
X008031Y002002D02*
X008031Y001815D01*
X008031Y002002D01*
X008031Y001815D01*
X008031Y002002D01*
X008031Y001815D01*
X008031Y002002D01*
X008031Y001815D01*
X008031Y002002D01*
X008031Y001815D01*
X008031Y002002D01*
X008031Y001815D01*
X008031Y002002D01*
X008031Y001815D01*
X008031Y002002D01*
X008031Y001815D01*
X008031Y002002D01*
X008031Y001815D01*
X008031Y002002D01*
X008031Y001815D01*
X008031Y002002D01*
X008031Y001815D01*
X008031Y002002D01*
X008031Y001815D01*
X008031Y002002D01*
X008031Y001815D01*
X008031Y002002D01*
X008031Y001815D01*
X008031Y002002D01*
X008031Y001815D01*
X008031Y002002D01*
X008031Y001815D01*
X008031Y002002D01*
X008031Y001815D01*
X008031Y002002D01*
X008031Y001815D01*
X008031Y002002D01*
X008031Y001815D01*
X008031Y002002D01*
X008031Y001815D01*
X008031Y002002D01*
X008031Y001815D01*
X008031Y002002D01*
X008031Y001815D01*
X008031Y002002D01*
X008031Y001815D01*
X008031Y002002D01*
X008031Y001815D01*
X008031Y002002D01*
X008031Y001815D01*
X008031Y002002D01*
X008031Y001815D01*
X008031Y002002D01*
X008031Y001815D01*
X008031Y002002D01*
X008031Y001815D01*
X008031Y002002D01*
X008031Y001815D01*
X008031Y002002D01*
X008031Y001815D01*
X008031Y002002D01*
X008031Y001815D01*
X008031Y002002D01*
X008031Y001909D02*
X007470Y001909D01*
X007564Y001815D01*
X007470Y001909D01*
X008031Y001909D01*
X007470Y001909D01*
X007564Y001815D01*
X007470Y001909D01*
X008031Y001909D01*
X007470Y001909D01*
X007564Y001815D01*
X007470Y001909D01*
X008031Y001909D01*
X007470Y001909D01*
X007564Y001815D01*
X007470Y001909D01*
X008031Y001909D01*
X007470Y001909D01*
X007564Y001815D01*
X007470Y001909D01*
X008031Y001909D01*
X007470Y001909D01*
X007564Y001815D01*
X007470Y001909D01*
X008031Y001909D01*
X007470Y001909D01*
X007564Y001815D01*
X007470Y001909D01*
X008031Y001909D01*
X007470Y001909D01*
X007564Y001815D01*
X007470Y001909D01*
X008031Y001909D01*
X007470Y001909D01*
X007564Y001815D01*
X007470Y001909D01*
X008031Y001909D01*
X007470Y001909D01*
X007564Y001815D01*
X007470Y001909D01*
X008031Y001909D01*
X007470Y001909D01*
X007564Y001815D01*
X007470Y001909D01*
X008031Y001909D01*
X007470Y001909D01*
X007564Y001815D01*
X007470Y001909D01*
X008031Y001909D01*
X007470Y001909D01*
X007564Y001815D01*
X007470Y001909D01*
X008031Y001909D01*
X007470Y001909D01*
X007564Y001815D01*
X007470Y001909D01*
X008031Y001909D01*
X007470Y001909D01*
X007564Y001815D01*
X007470Y001909D01*
X008031Y001909D01*
X007470Y001909D01*
X007564Y001815D01*
X007470Y001909D01*
X008031Y001909D01*
X007470Y001909D01*
X007564Y001815D01*
X007470Y001909D01*
X008031Y001909D01*
X007470Y001909D01*
X007564Y001815D01*
X007470Y001909D01*
X008031Y001909D01*
X007470Y001909D01*
X007564Y001815D01*
X007470Y001909D01*
X008031Y001909D01*
X007470Y001909D01*
X007564Y001815D01*
X007470Y001909D01*
X008031Y001909D01*
X007470Y001909D01*
X007564Y001815D01*
X007470Y001909D01*
X008031Y001909D01*
X007470Y001909D01*
X007564Y001815D01*
X007470Y001909D01*
X008031Y001909D01*
X007470Y001909D01*
X007564Y001815D01*
X007470Y001909D01*
X008031Y001909D01*
X007470Y001909D01*
X007564Y001815D01*
X007470Y001909D01*
X008031Y001909D01*
X007470Y001909D01*
X007564Y001815D01*
X007470Y001909D01*
X008031Y001909D01*
X007470Y001909D01*
X007564Y001815D01*
X007470Y001909D01*
X008031Y001909D01*
X007470Y001909D01*
X007564Y001815D01*
X007470Y001909D01*
X008031Y001909D01*
X007470Y001909D01*
X007564Y001815D01*
X007470Y001909D01*
X008031Y001909D01*
X007470Y001909D01*
X007564Y001815D01*
X007470Y001909D01*
X008031Y001909D01*
X007470Y001909D01*
X007564Y001815D01*
X007470Y001909D01*
X008031Y001909D01*
X007470Y001909D01*
X007564Y001815D01*
X007470Y001909D01*
X008031Y001909D01*
X008031Y001544D02*
X007657Y001544D01*
X007470Y001358D01*
X007657Y001171D01*
X008031Y001171D01*
X007657Y001171D01*
X007470Y001358D01*
X007657Y001544D01*
X008031Y001544D01*
X007657Y001544D01*
X007470Y001358D01*
X007657Y001171D01*
X008031Y001171D01*
X007657Y001171D01*
X007470Y001358D01*
X007657Y001544D01*
X008031Y001544D01*
X007657Y001544D01*
X007470Y001358D01*
X007657Y001171D01*
X008031Y001171D01*
X007657Y001171D01*
X007470Y001358D01*
X007657Y001544D01*
X008031Y001544D01*
X007657Y001544D01*
X007470Y001358D01*
X007657Y001171D01*
X008031Y001171D01*
X007657Y001171D01*
X007470Y001358D01*
X007657Y001544D01*
X008031Y001544D01*
X007657Y001544D01*
X007470Y001358D01*
X007657Y001171D01*
X008031Y001171D01*
X007657Y001171D01*
X007470Y001358D01*
X007657Y001544D01*
X008031Y001544D01*
X007657Y001544D01*
X007470Y001358D01*
X007657Y001171D01*
X008031Y001171D01*
X007657Y001171D01*
X007470Y001358D01*
X007657Y001544D01*
X008031Y001544D01*
X007657Y001544D01*
X007470Y001358D01*
X007657Y001171D01*
X008031Y001171D01*
X007657Y001171D01*
X007470Y001358D01*
X007657Y001544D01*
X008031Y001544D01*
X007657Y001544D01*
X007470Y001358D01*
X007657Y001171D01*
X008031Y001171D01*
X007657Y001171D01*
X007470Y001358D01*
X007657Y001544D01*
X008031Y001544D01*
X007657Y001544D01*
X007470Y001358D01*
X007657Y001171D01*
X008031Y001171D01*
X007657Y001171D01*
X007470Y001358D01*
X007657Y001544D01*
X008031Y001544D01*
X007657Y001544D01*
X007470Y001358D01*
X007657Y001171D01*
X008031Y001171D01*
X007657Y001171D01*
X007470Y001358D01*
X007657Y001544D01*
X008031Y001544D01*
X007657Y001544D01*
X007470Y001358D01*
X007657Y001171D01*
X008031Y001171D01*
X007657Y001171D01*
X007470Y001358D01*
X007657Y001544D01*
X008031Y001544D01*
X007657Y001544D01*
X007470Y001358D01*
X007657Y001171D01*
X008031Y001171D01*
X007657Y001171D01*
X007470Y001358D01*
X007657Y001544D01*
X008031Y001544D01*
X007657Y001544D01*
X007470Y001358D01*
X007657Y001171D01*
X008031Y001171D01*
X007657Y001171D01*
X007470Y001358D01*
X007657Y001544D01*
X008031Y001544D01*
X007657Y001544D01*
X007470Y001358D01*
X007657Y001171D01*
X008031Y001171D01*
X007657Y001171D01*
X007470Y001358D01*
X007657Y001544D01*
X008031Y001544D01*
X007657Y001544D01*
X007470Y001358D01*
X007657Y001171D01*
X008031Y001171D01*
X007657Y001171D01*
X007470Y001358D01*
X007657Y001544D01*
X008031Y001544D01*
X007657Y001544D01*
X007470Y001358D01*
X007657Y001171D01*
X008031Y001171D01*
X007657Y001171D01*
X007470Y001358D01*
X007657Y001544D01*
X008031Y001544D01*
X007657Y001544D01*
X007470Y001358D01*
X007657Y001171D01*
X008031Y001171D01*
X007657Y001171D01*
X007470Y001358D01*
X007657Y001544D01*
X008031Y001544D01*
X007657Y001544D01*
X007470Y001358D01*
X007657Y001171D01*
X008031Y001171D01*
X007657Y001171D01*
X007470Y001358D01*
X007657Y001544D01*
X008031Y001544D01*
X007657Y001544D01*
X007470Y001358D01*
X007657Y001171D01*
X008031Y001171D01*
X007657Y001171D01*
X007470Y001358D01*
X007657Y001544D01*
X008031Y001544D01*
X007657Y001544D01*
X007470Y001358D01*
X007657Y001171D01*
X008031Y001171D01*
X007657Y001171D01*
X007470Y001358D01*
X007657Y001544D01*
X008031Y001544D01*
X007657Y001544D01*
X007470Y001358D01*
X007657Y001171D01*
X008031Y001171D01*
X007657Y001171D01*
X007470Y001358D01*
X007657Y001544D01*
X008031Y001544D01*
X007657Y001544D01*
X007470Y001358D01*
X007657Y001171D01*
X008031Y001171D01*
X007657Y001171D01*
X007470Y001358D01*
X007657Y001544D01*
X008031Y001544D01*
X007657Y001544D01*
X007470Y001358D01*
X007657Y001171D01*
X008031Y001171D01*
X007657Y001171D01*
X007470Y001358D01*
X007657Y001544D01*
X008031Y001544D01*
X007657Y001544D01*
X007470Y001358D01*
X007657Y001171D01*
X008031Y001171D01*
X007657Y001171D01*
X007470Y001358D01*
X007657Y001544D01*
X008031Y001544D01*
X007657Y001544D01*
X007470Y001358D01*
X007657Y001171D01*
X008031Y001171D01*
X007657Y001171D01*
X007470Y001358D01*
X007657Y001544D01*
X008031Y001544D01*
X007657Y001544D01*
X007470Y001358D01*
X007657Y001171D01*
X008031Y001171D01*
X007657Y001171D01*
X007470Y001358D01*
X007657Y001544D01*
X008031Y001544D01*
X007657Y001544D01*
X007470Y001358D01*
X007657Y001171D01*
X008031Y001171D01*
X007657Y001171D01*
X007470Y001358D01*
X007657Y001544D01*
X008031Y001544D01*
X007657Y001544D01*
X007470Y001358D01*
X007657Y001171D01*
X008031Y001171D01*
X007657Y001171D01*
X007470Y001358D01*
X007657Y001544D01*
X008031Y001544D01*
X007657Y001544D01*
X007470Y001358D01*
X007657Y001171D01*
X008031Y001171D01*
X007657Y001171D01*
X007470Y001358D01*
X007657Y001544D01*
X008031Y001544D01*
X007657Y001544D01*
X007470Y001358D01*
X007657Y001171D01*
X008031Y001171D01*
X007657Y001171D01*
X007470Y001358D01*
X007657Y001544D01*
X008031Y001544D01*
X007657Y001544D01*
X007470Y001358D01*
X007657Y001171D01*
X008031Y001171D01*
X007657Y001171D01*
X007470Y001358D01*
X007657Y001544D01*
X008031Y001544D01*
X007751Y001544D02*
X007751Y001171D01*
X007751Y001544D01*
X007751Y001171D01*
X007751Y001544D01*
X007751Y001171D01*
X007751Y001544D01*
X007751Y001171D01*
X007751Y001544D01*
X007751Y001171D01*
X007751Y001544D01*
X007751Y001171D01*
X007751Y001544D01*
X007751Y001171D01*
X007751Y001544D01*
X007751Y001171D01*
X007751Y001544D01*
X007751Y001171D01*
X007751Y001544D01*
X007751Y001171D01*
X007751Y001544D01*
X007751Y001171D01*
X007751Y001544D01*
X007751Y001171D01*
X007751Y001544D01*
X007751Y001171D01*
X007751Y001544D01*
X007751Y001171D01*
X007751Y001544D01*
X007751Y001171D01*
X007751Y001544D01*
X007751Y001171D01*
X007751Y001544D01*
X007751Y001171D01*
X007751Y001544D01*
X007751Y001171D01*
X007751Y001544D01*
X007751Y001171D01*
X007751Y001544D01*
X007751Y001171D01*
X007751Y001544D01*
X007751Y001171D01*
X007751Y001544D01*
X007751Y001171D01*
X007751Y001544D01*
X007751Y001171D01*
X007751Y001544D01*
X007751Y001171D01*
X007751Y001544D01*
X007751Y001171D01*
X007751Y001544D01*
X007751Y001171D01*
X007751Y001544D01*
X007751Y001171D01*
X007751Y001544D01*
X007751Y001171D01*
X007751Y001544D01*
X007751Y001171D01*
X007751Y001544D01*
X007751Y001171D01*
X007751Y001544D01*
X007751Y001171D01*
X007751Y001544D01*
D13*
X016801Y003151D02*
X016801Y003251D01*
X016801Y003151D02*
X016901Y003151D01*
X017301Y003151D02*
X017401Y003151D01*
X017401Y003251D01*
X017401Y003651D02*
X017401Y003751D01*
X017301Y003751D01*
X017311Y003901D02*
X017311Y004168D01*
X017445Y004301D01*
X017578Y004168D01*
X017578Y003901D01*
X017578Y004168D01*
X017445Y004301D01*
X017311Y004168D01*
X017311Y003901D01*
X017311Y004101D02*
X017578Y004101D01*
X017311Y004101D01*
X017118Y004101D02*
X017051Y004034D01*
X016851Y004034D01*
X017051Y004034D01*
X017118Y004101D01*
X017118Y004234D01*
X017051Y004301D01*
X016851Y004301D01*
X016851Y003901D01*
X016851Y004301D01*
X017051Y004301D01*
X017118Y004234D01*
X017118Y004101D01*
X016901Y003751D02*
X016801Y003751D01*
X016801Y003651D01*
X017771Y003901D02*
X017972Y003901D01*
X018038Y003967D01*
X018038Y004234D01*
X017972Y004301D01*
X017771Y004301D01*
X017771Y003901D01*
X017972Y003901D01*
X018038Y003967D01*
X018038Y004234D01*
X017972Y004301D01*
X017771Y004301D01*
X017771Y003901D01*
X018232Y003967D02*
X018299Y003901D01*
X018432Y003901D01*
X018499Y003967D01*
X018499Y004101D01*
X018432Y004168D01*
X018365Y004168D01*
X018232Y004101D01*
X018232Y004301D01*
X018499Y004301D01*
X018232Y004301D01*
X018232Y004101D01*
X018365Y004168D01*
X018432Y004168D01*
X018499Y004101D01*
X018499Y003967D01*
X018432Y003901D01*
X018299Y003901D01*
X018232Y003967D01*
X018781Y003781D02*
X018781Y003681D01*
X018781Y003781D02*
X018881Y003781D01*
X018831Y003931D02*
X018831Y004331D01*
X019031Y004331D01*
X019098Y004264D01*
X019098Y004131D01*
X019031Y004064D01*
X018831Y004064D01*
X019031Y004064D01*
X019098Y004131D01*
X019098Y004264D01*
X019031Y004331D01*
X018831Y004331D01*
X018831Y003931D01*
X019291Y003931D02*
X019291Y004198D01*
X019425Y004331D01*
X019558Y004198D01*
X019558Y003931D01*
X019558Y004198D01*
X019425Y004331D01*
X019291Y004198D01*
X019291Y003931D01*
X019281Y003781D02*
X019381Y003781D01*
X019381Y003681D01*
X019381Y003281D02*
X019381Y003181D01*
X019281Y003181D01*
X018881Y003181D02*
X018781Y003181D01*
X018781Y003281D01*
X018151Y002961D02*
X018101Y003011D01*
X017951Y003011D01*
X017931Y003009D01*
X017913Y003003D01*
X017895Y002994D01*
X017880Y002982D01*
X017868Y002967D01*
X017859Y002949D01*
X017853Y002931D01*
X017851Y002911D01*
X017851Y002211D01*
X017853Y002191D01*
X017859Y002173D01*
X017868Y002155D01*
X017880Y002140D01*
X017895Y002128D01*
X017913Y002119D01*
X017931Y002113D01*
X017951Y002111D01*
X018101Y002111D01*
X018151Y002161D01*
X020051Y002161D01*
X020101Y002111D01*
X020251Y002111D01*
X020271Y002113D01*
X020289Y002119D01*
X020307Y002128D01*
X020322Y002140D01*
X020334Y002155D01*
X020343Y002173D01*
X020349Y002191D01*
X020351Y002211D01*
X020351Y002911D01*
X020349Y002931D01*
X020343Y002949D01*
X020334Y002967D01*
X020322Y002982D01*
X020307Y002994D01*
X020289Y003003D01*
X020271Y003009D01*
X020251Y003011D01*
X020101Y003011D01*
X020051Y002961D01*
X018151Y002961D01*
X017951Y003011D02*
X017931Y003009D01*
X017913Y003003D01*
X017895Y002994D01*
X017880Y002982D01*
X017868Y002967D01*
X017859Y002949D01*
X017853Y002931D01*
X017851Y002911D01*
X018353Y002761D02*
X018353Y002561D01*
X018486Y002628D01*
X018553Y002628D01*
X018620Y002561D01*
X018620Y002427D01*
X018553Y002361D01*
X018419Y002361D01*
X018353Y002427D01*
X018419Y002361D01*
X018553Y002361D01*
X018620Y002427D01*
X018620Y002561D01*
X018553Y002628D01*
X018486Y002628D01*
X018353Y002561D01*
X018353Y002761D01*
X018620Y002761D01*
X018353Y002761D01*
X018813Y002427D02*
X018880Y002427D01*
X018880Y002361D01*
X018813Y002361D01*
X018813Y002427D01*
X018880Y002427D01*
X018880Y002361D01*
X018813Y002361D01*
X018813Y002427D01*
X019197Y002361D02*
X019330Y002361D01*
X019197Y002361D01*
X019263Y002361D02*
X019263Y002761D01*
X019197Y002694D01*
X019263Y002761D01*
X019263Y002361D01*
X019580Y002361D02*
X019580Y002761D01*
X019580Y002361D01*
X019580Y002494D02*
X019847Y002761D01*
X019580Y002494D01*
X019647Y002561D02*
X019847Y002361D01*
X019647Y002561D01*
X020251Y003011D02*
X020271Y003009D01*
X020289Y003003D01*
X020307Y002994D01*
X020322Y002982D01*
X020334Y002967D01*
X020343Y002949D01*
X020349Y002931D01*
X020351Y002911D01*
X020351Y002211D02*
X020349Y002191D01*
X020343Y002173D01*
X020334Y002155D01*
X020322Y002140D01*
X020307Y002128D01*
X020289Y002119D01*
X020271Y002113D01*
X020251Y002111D01*
X020091Y001911D02*
X019957Y001911D01*
X019890Y001844D01*
X019890Y001778D01*
X019957Y001711D01*
X020157Y001711D01*
X019957Y001711D01*
X019890Y001778D01*
X019890Y001844D01*
X019957Y001911D01*
X020091Y001911D01*
X020157Y001844D01*
X020157Y001577D01*
X020091Y001511D01*
X019957Y001511D01*
X019890Y001577D01*
X019957Y001511D01*
X020091Y001511D01*
X020157Y001577D01*
X020157Y001844D01*
X020091Y001911D01*
X019697Y001844D02*
X019697Y001711D01*
X019630Y001644D01*
X019430Y001644D01*
X019630Y001644D01*
X019697Y001711D01*
X019697Y001844D01*
X019630Y001911D01*
X019430Y001911D01*
X019430Y001511D01*
X019430Y001911D01*
X019630Y001911D01*
X019697Y001844D01*
X019563Y001644D02*
X019697Y001511D01*
X019563Y001644D01*
X017951Y002111D02*
X017931Y002113D01*
X017913Y002119D01*
X017895Y002128D01*
X017880Y002140D01*
X017868Y002155D01*
X017859Y002173D01*
X017853Y002191D01*
X017851Y002211D01*
X019751Y003931D02*
X019952Y003931D01*
X020018Y003997D01*
X020018Y004264D01*
X019952Y004331D01*
X019751Y004331D01*
X019751Y003931D01*
X019952Y003931D01*
X020018Y003997D01*
X020018Y004264D01*
X019952Y004331D01*
X019751Y004331D01*
X019751Y003931D01*
X019558Y004131D02*
X019291Y004131D01*
X019558Y004131D01*
X019601Y004451D02*
X019601Y006751D01*
X027601Y006751D01*
X027601Y006001D01*
X027800Y005957D02*
X028201Y005957D01*
X027800Y005957D01*
X027867Y005763D02*
X027800Y005697D01*
X027800Y005563D01*
X027867Y005496D01*
X028134Y005496D01*
X028201Y005563D01*
X028201Y005697D01*
X028134Y005763D01*
X027867Y005763D01*
X027800Y005697D01*
X027800Y005563D01*
X027867Y005496D01*
X028134Y005496D01*
X028201Y005563D01*
X028201Y005697D01*
X028134Y005763D01*
X027867Y005763D01*
X028094Y005726D02*
X028094Y005926D01*
X028161Y005993D01*
X028361Y005993D01*
X028161Y005993D01*
X028094Y005926D01*
X028094Y005726D01*
X028361Y005726D01*
X028094Y005726D01*
X028067Y005957D02*
X027800Y006224D01*
X028067Y005957D01*
X028001Y006023D02*
X028201Y006224D01*
X028001Y006023D01*
X028027Y006186D02*
X028094Y006186D01*
X028161Y006253D01*
X028161Y006453D01*
X028161Y006253D01*
X028094Y006186D01*
X028027Y006186D01*
X027960Y006253D01*
X027960Y006386D01*
X028027Y006453D01*
X028294Y006453D01*
X028361Y006386D01*
X028361Y006253D01*
X028294Y006186D01*
X028361Y006253D01*
X028361Y006386D01*
X028294Y006453D01*
X028027Y006453D01*
X027960Y006386D01*
X027960Y006253D01*
X028027Y006186D01*
X027867Y006417D02*
X027800Y006484D01*
X028201Y006484D01*
X027800Y006484D01*
X027867Y006417D01*
X028027Y006647D02*
X027960Y006713D01*
X028361Y006713D01*
X027960Y006713D01*
X028027Y006647D01*
X028201Y006551D02*
X028201Y006417D01*
X028201Y006551D01*
X028361Y006647D02*
X028361Y006780D01*
X028361Y006647D01*
X028761Y006641D02*
X029011Y006641D01*
X029261Y006641D01*
X029011Y006641D02*
X028761Y006241D01*
X029261Y006241D01*
X029011Y006641D01*
X029011Y006041D01*
X028511Y005841D02*
X029511Y005841D01*
X029511Y007441D01*
X028511Y007441D01*
X028511Y005841D01*
X028361Y005476D02*
X028361Y005342D01*
X028361Y005476D01*
X028361Y005409D02*
X027960Y005409D01*
X028027Y005342D01*
X027960Y005409D01*
X028361Y005409D01*
X027601Y005201D02*
X027562Y005203D01*
X027523Y005209D01*
X027485Y005218D01*
X027448Y005231D01*
X027412Y005248D01*
X027379Y005268D01*
X027347Y005292D01*
X027318Y005318D01*
X027292Y005347D01*
X027268Y005379D01*
X027248Y005412D01*
X027231Y005448D01*
X027218Y005485D01*
X027209Y005523D01*
X027203Y005562D01*
X027201Y005601D01*
X027203Y005640D01*
X027209Y005679D01*
X027218Y005717D01*
X027231Y005754D01*
X027248Y005790D01*
X027268Y005823D01*
X027292Y005855D01*
X027318Y005884D01*
X027347Y005910D01*
X027379Y005934D01*
X027412Y005954D01*
X027448Y005971D01*
X027485Y005984D01*
X027523Y005993D01*
X027562Y005999D01*
X027601Y006001D01*
X027562Y005999D01*
X027523Y005993D01*
X027485Y005984D01*
X027448Y005971D01*
X027412Y005954D01*
X027379Y005934D01*
X027347Y005910D01*
X027318Y005884D01*
X027292Y005855D01*
X027268Y005823D01*
X027248Y005790D01*
X027231Y005754D01*
X027218Y005717D01*
X027209Y005679D01*
X027203Y005640D01*
X027201Y005601D01*
X027203Y005562D01*
X027209Y005523D01*
X027218Y005485D01*
X027231Y005448D01*
X027248Y005412D01*
X027268Y005379D01*
X027292Y005347D01*
X027318Y005318D01*
X027347Y005292D01*
X027379Y005268D01*
X027412Y005248D01*
X027448Y005231D01*
X027485Y005218D01*
X027523Y005209D01*
X027562Y005203D01*
X027601Y005201D01*
X027601Y004451D01*
X019601Y004451D01*
X020212Y004264D02*
X020212Y004198D01*
X020279Y004131D01*
X020479Y004131D01*
X020279Y004131D01*
X020212Y004198D01*
X020212Y004264D01*
X020279Y004331D01*
X020412Y004331D01*
X020479Y004264D01*
X020479Y003997D01*
X020412Y003931D01*
X020279Y003931D01*
X020212Y003997D01*
X020279Y003931D01*
X020412Y003931D01*
X020479Y003997D01*
X020479Y004264D01*
X020412Y004331D01*
X020279Y004331D01*
X020212Y004264D01*
X018401Y004801D02*
X018301Y004801D01*
X018401Y004801D02*
X018401Y004901D01*
X017901Y004801D02*
X017801Y004801D01*
X017801Y004901D01*
X017801Y005301D02*
X017801Y005401D01*
X017901Y005401D01*
X017851Y005551D02*
X017851Y005951D01*
X018051Y005951D01*
X018118Y005884D01*
X018118Y005751D01*
X018051Y005684D01*
X017851Y005684D01*
X018051Y005684D01*
X018118Y005751D01*
X018118Y005884D01*
X018051Y005951D01*
X017851Y005951D01*
X017851Y005551D01*
X018311Y005551D02*
X018311Y005818D01*
X018445Y005951D01*
X018578Y005818D01*
X018578Y005551D01*
X018578Y005818D01*
X018445Y005951D01*
X018311Y005818D01*
X018311Y005551D01*
X018301Y005401D02*
X018401Y005401D01*
X018401Y005301D01*
X018771Y005551D02*
X018972Y005551D01*
X019038Y005617D01*
X019038Y005884D01*
X018972Y005951D01*
X018771Y005951D01*
X018771Y005551D01*
X018972Y005551D01*
X019038Y005617D01*
X019038Y005884D01*
X018972Y005951D01*
X018771Y005951D01*
X018771Y005551D01*
X018578Y005751D02*
X018311Y005751D01*
X018578Y005751D01*
X019232Y005617D02*
X019232Y005551D01*
X019232Y005617D01*
X019499Y005884D01*
X019499Y005951D01*
X019232Y005951D01*
X019499Y005951D01*
X019499Y005884D01*
X019232Y005617D01*
X023915Y005801D02*
X024049Y005801D01*
X023915Y005801D01*
X023982Y005801D02*
X023982Y005401D01*
X023982Y005801D01*
X024299Y005734D02*
X024299Y005668D01*
X024366Y005601D01*
X024499Y005601D01*
X024566Y005534D01*
X024566Y005467D01*
X024499Y005401D01*
X024366Y005401D01*
X024299Y005467D01*
X024366Y005401D01*
X024499Y005401D01*
X024566Y005467D01*
X024566Y005534D01*
X024499Y005601D01*
X024366Y005601D01*
X024299Y005668D01*
X024299Y005734D01*
X024366Y005801D01*
X024499Y005801D01*
X024566Y005734D01*
X024499Y005801D01*
X024366Y005801D01*
X024299Y005734D01*
X024759Y005734D02*
X024826Y005801D01*
X024959Y005801D01*
X025026Y005734D01*
X025026Y005467D01*
X024959Y005401D01*
X024826Y005401D01*
X024759Y005467D01*
X024759Y005734D01*
X024826Y005801D01*
X024959Y005801D01*
X025026Y005734D01*
X025026Y005467D01*
X024959Y005401D01*
X024826Y005401D01*
X024759Y005467D01*
X024759Y005734D01*
X024893Y005534D02*
X025026Y005401D01*
X024893Y005534D01*
X025220Y005401D02*
X025486Y005668D01*
X025486Y005734D01*
X025420Y005801D01*
X025286Y005801D01*
X025220Y005734D01*
X025286Y005801D01*
X025420Y005801D01*
X025486Y005734D01*
X025486Y005668D01*
X025220Y005401D01*
X025486Y005401D01*
X025220Y005401D01*
X025680Y005467D02*
X025947Y005734D01*
X025947Y005467D01*
X025880Y005401D01*
X025747Y005401D01*
X025680Y005467D01*
X025680Y005734D01*
X025747Y005801D01*
X025880Y005801D01*
X025947Y005734D01*
X025680Y005467D01*
X025747Y005401D01*
X025880Y005401D01*
X025947Y005467D01*
X025947Y005734D01*
X025880Y005801D01*
X025747Y005801D01*
X025680Y005734D01*
X025680Y005467D01*
X026140Y005467D02*
X026207Y005401D01*
X026340Y005401D01*
X026407Y005467D01*
X026407Y005534D01*
X026340Y005601D01*
X026274Y005601D01*
X026340Y005601D01*
X026407Y005668D01*
X026407Y005734D01*
X026340Y005801D01*
X026207Y005801D01*
X026140Y005734D01*
X026207Y005801D01*
X026340Y005801D01*
X026407Y005734D01*
X026407Y005668D01*
X026340Y005601D01*
X026407Y005534D01*
X026407Y005467D01*
X026340Y005401D01*
X026207Y005401D01*
X026140Y005467D01*
X024049Y005401D02*
X023915Y005401D01*
X024049Y005401D01*
X025951Y003751D02*
X026151Y003751D01*
X026218Y003684D01*
X026218Y003551D01*
X026151Y003484D01*
X025951Y003484D01*
X026151Y003484D01*
X026218Y003551D01*
X026218Y003684D01*
X026151Y003751D01*
X025951Y003751D01*
X025951Y003351D01*
X025951Y003751D01*
X026084Y003484D02*
X026218Y003351D01*
X026084Y003484D01*
X026411Y003351D02*
X026678Y003618D01*
X026678Y003684D01*
X026611Y003751D01*
X026478Y003751D01*
X026411Y003684D01*
X026478Y003751D01*
X026611Y003751D01*
X026678Y003684D01*
X026678Y003618D01*
X026411Y003351D01*
X026678Y003351D01*
X026411Y003351D01*
X026151Y003101D02*
X026101Y003151D01*
X025951Y003151D01*
X025931Y003149D01*
X025913Y003143D01*
X025895Y003134D01*
X025880Y003122D01*
X025868Y003107D01*
X025859Y003089D01*
X025853Y003071D01*
X025851Y003051D01*
X025851Y002351D01*
X025853Y002331D01*
X025859Y002313D01*
X025868Y002295D01*
X025880Y002280D01*
X025895Y002268D01*
X025913Y002259D01*
X025931Y002253D01*
X025951Y002251D01*
X026101Y002251D01*
X026151Y002301D01*
X028051Y002301D01*
X028101Y002251D01*
X028251Y002251D01*
X028271Y002253D01*
X028289Y002259D01*
X028307Y002268D01*
X028322Y002280D01*
X028334Y002295D01*
X028343Y002313D01*
X028349Y002331D01*
X028351Y002351D01*
X028351Y003051D01*
X028349Y003071D01*
X028343Y003089D01*
X028334Y003107D01*
X028322Y003122D01*
X028307Y003134D01*
X028289Y003143D01*
X028271Y003149D01*
X028251Y003151D01*
X028101Y003151D01*
X028051Y003101D01*
X026151Y003101D01*
X025951Y003151D02*
X025931Y003149D01*
X025913Y003143D01*
X025895Y003134D01*
X025880Y003122D01*
X025868Y003107D01*
X025859Y003089D01*
X025853Y003071D01*
X025851Y003051D01*
X026261Y002901D02*
X026261Y002701D01*
X026394Y002768D01*
X026461Y002768D01*
X026528Y002701D01*
X026528Y002567D01*
X026461Y002501D01*
X026327Y002501D01*
X026261Y002567D01*
X026327Y002501D01*
X026461Y002501D01*
X026528Y002567D01*
X026528Y002701D01*
X026461Y002768D01*
X026394Y002768D01*
X026261Y002701D01*
X026261Y002901D01*
X026528Y002901D01*
X026261Y002901D01*
X026721Y002567D02*
X026788Y002567D01*
X026788Y002501D01*
X026721Y002501D01*
X026721Y002567D01*
X026788Y002567D01*
X026788Y002501D01*
X026721Y002501D01*
X026721Y002567D01*
X027105Y002501D02*
X027238Y002501D01*
X027105Y002501D01*
X027171Y002501D02*
X027171Y002901D01*
X027105Y002834D01*
X027171Y002901D01*
X027171Y002501D01*
X027488Y002501D02*
X027488Y002901D01*
X027488Y002501D01*
X027488Y002634D02*
X027755Y002901D01*
X027488Y002634D01*
X027555Y002701D02*
X027755Y002501D01*
X027555Y002701D01*
X028251Y003151D02*
X028271Y003149D01*
X028289Y003143D01*
X028307Y003134D01*
X028322Y003122D01*
X028334Y003107D01*
X028343Y003089D01*
X028349Y003071D01*
X028351Y003051D01*
X029050Y003340D02*
X029451Y003340D01*
X029050Y003340D01*
X029117Y003273D01*
X029050Y003340D01*
X029184Y003657D02*
X029384Y003657D01*
X029451Y003723D01*
X029451Y003924D01*
X029184Y003924D01*
X029451Y003924D01*
X029451Y003723D01*
X029384Y003657D01*
X029184Y003657D01*
X029451Y003406D02*
X029451Y003273D01*
X029451Y003406D01*
X030101Y003221D02*
X030101Y003701D01*
X030800Y003647D02*
X030867Y003580D01*
X031134Y003580D01*
X031201Y003647D01*
X031201Y003780D01*
X031134Y003847D01*
X031201Y003780D01*
X031201Y003647D01*
X031134Y003580D01*
X030867Y003580D01*
X030800Y003647D01*
X030800Y003780D01*
X030867Y003847D01*
X030800Y003780D01*
X030800Y003647D01*
X030800Y004040D02*
X031001Y004040D01*
X030934Y004174D01*
X030934Y004241D01*
X031001Y004307D01*
X031134Y004307D01*
X031201Y004241D01*
X031201Y004107D01*
X031134Y004040D01*
X031201Y004107D01*
X031201Y004241D01*
X031134Y004307D01*
X031001Y004307D01*
X030934Y004241D01*
X030934Y004174D01*
X031001Y004040D01*
X030800Y004040D01*
X030800Y004307D01*
X030800Y004040D01*
X030601Y004451D02*
X030601Y001751D01*
X030599Y001731D01*
X030593Y001713D01*
X030584Y001695D01*
X030572Y001680D01*
X030557Y001668D01*
X030539Y001659D01*
X030521Y001653D01*
X030501Y001651D01*
X029701Y001651D01*
X029681Y001653D01*
X029663Y001659D01*
X029645Y001668D01*
X029630Y001680D01*
X029618Y001695D01*
X029609Y001713D01*
X029603Y001731D01*
X029601Y001751D01*
X029601Y004451D01*
X029603Y004471D01*
X029609Y004489D01*
X029618Y004507D01*
X029630Y004522D01*
X029645Y004534D01*
X029663Y004543D01*
X029681Y004549D01*
X029701Y004551D01*
X030501Y004551D01*
X030521Y004549D01*
X030539Y004543D01*
X030557Y004534D01*
X030572Y004522D01*
X030584Y004507D01*
X030593Y004489D01*
X030599Y004471D01*
X030601Y004451D01*
X030599Y004471D01*
X030593Y004489D01*
X030584Y004507D01*
X030572Y004522D01*
X030557Y004534D01*
X030539Y004543D01*
X030521Y004549D01*
X030501Y004551D01*
X029701Y004551D02*
X029681Y004549D01*
X029663Y004543D01*
X029645Y004534D01*
X029630Y004522D01*
X029618Y004507D01*
X029609Y004489D01*
X029603Y004471D01*
X029601Y004451D01*
X029451Y004184D02*
X029117Y004184D01*
X029050Y004250D01*
X029117Y004184D01*
X029451Y004184D01*
X029251Y004117D02*
X029251Y004250D01*
X029251Y004117D01*
X029384Y002956D02*
X029451Y002956D01*
X029451Y002889D01*
X029384Y002889D01*
X029384Y002956D01*
X029451Y002956D01*
X029451Y002889D01*
X029384Y002889D01*
X029384Y002956D01*
X030101Y002971D02*
X030101Y002501D01*
X030601Y001751D02*
X030599Y001731D01*
X030593Y001713D01*
X030584Y001695D01*
X030572Y001680D01*
X030557Y001668D01*
X030539Y001659D01*
X030521Y001653D01*
X030501Y001651D01*
X029701Y001651D02*
X029681Y001653D01*
X029663Y001659D01*
X029645Y001668D01*
X029630Y001680D01*
X029618Y001695D01*
X029609Y001713D01*
X029603Y001731D01*
X029601Y001751D01*
X028351Y002351D02*
X028349Y002331D01*
X028343Y002313D01*
X028334Y002295D01*
X028322Y002280D01*
X028307Y002268D01*
X028289Y002259D01*
X028271Y002253D01*
X028251Y002251D01*
X025951Y002251D02*
X025931Y002253D01*
X025913Y002259D01*
X025895Y002268D01*
X025880Y002280D01*
X025868Y002295D01*
X025859Y002313D01*
X025853Y002331D01*
X025851Y002351D01*
X029011Y006641D02*
X029011Y006891D01*
X028161Y007030D02*
X028161Y007297D01*
X028161Y007030D01*
X027960Y007230D01*
X028361Y007230D01*
X027960Y007230D01*
X028161Y007030D01*
X029710Y007231D02*
X029911Y007030D01*
X029911Y007297D01*
X029911Y007030D01*
X029710Y007231D01*
X030111Y007231D01*
X029710Y007231D01*
X029777Y006837D02*
X029710Y006770D01*
X029710Y006570D01*
X030111Y006570D01*
X030111Y006770D01*
X030044Y006837D01*
X029777Y006837D01*
X029710Y006770D01*
X029710Y006570D01*
X030111Y006570D01*
X030111Y006770D01*
X030044Y006837D01*
X029777Y006837D01*
X031851Y007751D02*
X031851Y008451D01*
X031853Y008471D01*
X031859Y008489D01*
X031868Y008507D01*
X031880Y008522D01*
X031895Y008534D01*
X031913Y008543D01*
X031931Y008549D01*
X031951Y008551D01*
X032101Y008551D01*
X032151Y008501D01*
X034051Y008501D01*
X034101Y008551D01*
X034251Y008551D01*
X034271Y008549D01*
X034289Y008543D01*
X034307Y008534D01*
X034322Y008522D01*
X034334Y008507D01*
X034343Y008489D01*
X034349Y008471D01*
X034351Y008451D01*
X034351Y007751D01*
X034349Y007731D01*
X034343Y007713D01*
X034334Y007695D01*
X034322Y007680D01*
X034307Y007668D01*
X034289Y007659D01*
X034271Y007653D01*
X034251Y007651D01*
X034101Y007651D01*
X034051Y007701D01*
X032151Y007701D01*
X032101Y007651D01*
X031951Y007651D01*
X031931Y007653D01*
X031913Y007659D01*
X031895Y007668D01*
X031880Y007680D01*
X031868Y007695D01*
X031859Y007713D01*
X031853Y007731D01*
X031851Y007751D01*
X031853Y007731D01*
X031859Y007713D01*
X031868Y007695D01*
X031880Y007680D01*
X031895Y007668D01*
X031913Y007659D01*
X031931Y007653D01*
X031951Y007651D01*
X032261Y007967D02*
X032327Y007901D01*
X032461Y007901D01*
X032528Y007967D01*
X032528Y008101D01*
X032461Y008168D01*
X032394Y008168D01*
X032261Y008101D01*
X032261Y008301D01*
X032528Y008301D01*
X032261Y008301D01*
X032261Y008101D01*
X032394Y008168D01*
X032461Y008168D01*
X032528Y008101D01*
X032528Y007967D01*
X032461Y007901D01*
X032327Y007901D01*
X032261Y007967D01*
X032721Y007967D02*
X032721Y007901D01*
X032788Y007901D01*
X032788Y007967D01*
X032721Y007967D01*
X032788Y007967D01*
X032788Y007901D01*
X032721Y007901D01*
X032721Y007967D01*
X033105Y007901D02*
X033238Y007901D01*
X033105Y007901D01*
X033171Y007901D02*
X033171Y008301D01*
X033105Y008234D01*
X033171Y008301D01*
X033171Y007901D01*
X033488Y007901D02*
X033488Y008301D01*
X033488Y007901D01*
X033488Y008034D02*
X033755Y008301D01*
X033488Y008034D01*
X033555Y008101D02*
X033755Y007901D01*
X033555Y008101D01*
X034251Y008551D02*
X034271Y008549D01*
X034289Y008543D01*
X034307Y008534D01*
X034322Y008522D01*
X034334Y008507D01*
X034343Y008489D01*
X034349Y008471D01*
X034351Y008451D01*
X034351Y007751D02*
X034349Y007731D01*
X034343Y007713D01*
X034334Y007695D01*
X034322Y007680D01*
X034307Y007668D01*
X034289Y007659D01*
X034271Y007653D01*
X034251Y007651D01*
X036140Y007691D02*
X036207Y007758D01*
X036341Y007758D01*
X036407Y007691D01*
X036407Y007491D01*
X036407Y007691D01*
X036341Y007758D01*
X036207Y007758D01*
X036140Y007691D01*
X036140Y007491D01*
X036541Y007491D01*
X036140Y007491D01*
X036140Y007691D01*
X036140Y007951D02*
X036341Y007951D01*
X036274Y008085D01*
X036274Y008151D01*
X036341Y008218D01*
X036474Y008218D01*
X036541Y008151D01*
X036541Y008018D01*
X036474Y007951D01*
X036541Y008018D01*
X036541Y008151D01*
X036474Y008218D01*
X036341Y008218D01*
X036274Y008151D01*
X036274Y008085D01*
X036341Y007951D01*
X036140Y007951D01*
X036140Y008218D01*
X036140Y007951D01*
X036407Y007624D02*
X036541Y007758D01*
X036407Y007624D01*
X036691Y007691D02*
X036741Y007741D01*
X036741Y009641D01*
X036691Y009691D01*
X036691Y009841D01*
X036693Y009861D01*
X036699Y009879D01*
X036708Y009897D01*
X036720Y009912D01*
X036735Y009924D01*
X036753Y009933D01*
X036771Y009939D01*
X036791Y009941D01*
X037491Y009941D01*
X037511Y009939D01*
X037529Y009933D01*
X037547Y009924D01*
X037562Y009912D01*
X037574Y009897D01*
X037583Y009879D01*
X037589Y009861D01*
X037591Y009841D01*
X037591Y009691D01*
X037541Y009641D01*
X037541Y007741D01*
X037591Y007691D01*
X037591Y007541D01*
X037589Y007521D01*
X037583Y007503D01*
X037574Y007485D01*
X037562Y007470D01*
X037547Y007458D01*
X037529Y007449D01*
X037511Y007443D01*
X037491Y007441D01*
X036791Y007441D01*
X036771Y007443D01*
X036753Y007449D01*
X036735Y007458D01*
X036720Y007470D01*
X036708Y007485D01*
X036699Y007503D01*
X036693Y007521D01*
X036691Y007541D01*
X036691Y007691D01*
X036691Y007541D02*
X036693Y007521D01*
X036699Y007503D01*
X036708Y007485D01*
X036720Y007470D01*
X036735Y007458D01*
X036753Y007449D01*
X036771Y007443D01*
X036791Y007441D01*
X037491Y007441D02*
X037511Y007443D01*
X037529Y007449D01*
X037547Y007458D01*
X037562Y007470D01*
X037574Y007485D01*
X037583Y007503D01*
X037589Y007521D01*
X037591Y007541D01*
X037361Y007841D02*
X037361Y007974D01*
X037361Y007841D01*
X037361Y007907D02*
X036960Y007907D01*
X037027Y007841D01*
X036960Y007907D01*
X037361Y007907D01*
X037294Y008224D02*
X037361Y008291D01*
X037361Y008425D01*
X037294Y008491D01*
X037161Y008491D01*
X037094Y008425D01*
X037094Y008358D01*
X037161Y008224D01*
X036960Y008224D01*
X036960Y008491D01*
X036960Y008224D01*
X037161Y008224D01*
X037094Y008358D01*
X037094Y008425D01*
X037161Y008491D01*
X037294Y008491D01*
X037361Y008425D01*
X037361Y008291D01*
X037294Y008224D01*
X037294Y008685D02*
X037027Y008685D01*
X036960Y008751D01*
X036960Y008885D01*
X037027Y008952D01*
X037294Y008685D01*
X037361Y008751D01*
X037361Y008885D01*
X037294Y008952D01*
X037027Y008952D01*
X037294Y008685D01*
X037361Y008751D01*
X037361Y008885D01*
X037294Y008952D01*
X037027Y008952D01*
X036960Y008885D01*
X036960Y008751D01*
X037027Y008685D01*
X037294Y008685D01*
X037361Y009605D02*
X037361Y009739D01*
X037361Y009605D01*
X037361Y009672D02*
X036960Y009672D01*
X037027Y009605D01*
X036960Y009672D01*
X037361Y009672D01*
X037591Y009841D02*
X037589Y009861D01*
X037583Y009879D01*
X037574Y009897D01*
X037562Y009912D01*
X037547Y009924D01*
X037529Y009933D01*
X037511Y009939D01*
X037491Y009941D01*
X037361Y009989D02*
X036960Y010256D01*
X037361Y009989D01*
X037361Y010449D02*
X037094Y010716D01*
X037027Y010716D01*
X036960Y010650D01*
X036960Y010516D01*
X037027Y010449D01*
X036960Y010516D01*
X036960Y010650D01*
X037027Y010716D01*
X037094Y010716D01*
X037361Y010449D01*
X037361Y010716D01*
X037361Y010449D01*
X036651Y010351D02*
X036651Y011101D01*
X036960Y011177D02*
X037361Y011177D01*
X037227Y011043D01*
X037361Y010910D01*
X036960Y010910D01*
X037361Y010910D01*
X037227Y011043D01*
X037361Y011177D01*
X036960Y011177D01*
X036850Y011473D02*
X036850Y011607D01*
X036850Y011473D01*
X036850Y011540D02*
X037251Y011540D01*
X036850Y011540D01*
X036651Y011901D02*
X036612Y011899D01*
X036573Y011893D01*
X036535Y011884D01*
X036498Y011871D01*
X036462Y011854D01*
X036429Y011834D01*
X036397Y011810D01*
X036368Y011784D01*
X036342Y011755D01*
X036318Y011723D01*
X036298Y011690D01*
X036281Y011654D01*
X036268Y011617D01*
X036259Y011579D01*
X036253Y011540D01*
X036251Y011501D01*
X036253Y011462D01*
X036259Y011423D01*
X036268Y011385D01*
X036281Y011348D01*
X036298Y011312D01*
X036318Y011279D01*
X036342Y011247D01*
X036368Y011218D01*
X036397Y011192D01*
X036429Y011168D01*
X036462Y011148D01*
X036498Y011131D01*
X036535Y011118D01*
X036573Y011109D01*
X036612Y011103D01*
X036651Y011101D01*
X036612Y011103D01*
X036573Y011109D01*
X036535Y011118D01*
X036498Y011131D01*
X036462Y011148D01*
X036429Y011168D01*
X036397Y011192D01*
X036368Y011218D01*
X036342Y011247D01*
X036318Y011279D01*
X036298Y011312D01*
X036281Y011348D01*
X036268Y011385D01*
X036259Y011423D01*
X036253Y011462D01*
X036251Y011501D01*
X036253Y011540D01*
X036259Y011579D01*
X036268Y011617D01*
X036281Y011654D01*
X036298Y011690D01*
X036318Y011723D01*
X036342Y011755D01*
X036368Y011784D01*
X036397Y011810D01*
X036429Y011834D01*
X036462Y011854D01*
X036498Y011871D01*
X036535Y011884D01*
X036573Y011893D01*
X036612Y011899D01*
X036651Y011901D01*
X036651Y012651D01*
X028651Y012651D01*
X028651Y010351D01*
X036651Y010351D01*
X036791Y009941D02*
X036771Y009939D01*
X036753Y009933D01*
X036735Y009924D01*
X036720Y009912D01*
X036708Y009897D01*
X036699Y009879D01*
X036693Y009861D01*
X036691Y009841D01*
X035457Y011301D02*
X035457Y011568D01*
X035324Y011701D01*
X035190Y011568D01*
X035190Y011301D01*
X035190Y011568D01*
X035324Y011701D01*
X035457Y011568D01*
X035457Y011301D01*
X035457Y011501D02*
X035190Y011501D01*
X035457Y011501D01*
X034997Y011568D02*
X034730Y011301D01*
X034997Y011301D01*
X034730Y011301D01*
X034997Y011568D01*
X034997Y011634D01*
X034930Y011701D01*
X034797Y011701D01*
X034730Y011634D01*
X034797Y011701D01*
X034930Y011701D01*
X034997Y011634D01*
X034997Y011568D01*
X034536Y011568D02*
X034470Y011501D01*
X034536Y011434D01*
X034536Y011367D01*
X034470Y011301D01*
X034336Y011301D01*
X034269Y011367D01*
X034336Y011301D01*
X034470Y011301D01*
X034536Y011367D01*
X034536Y011434D01*
X034470Y011501D01*
X034403Y011501D01*
X034470Y011501D01*
X034536Y011568D01*
X034536Y011634D01*
X034470Y011701D01*
X034336Y011701D01*
X034269Y011634D01*
X034336Y011701D01*
X034470Y011701D01*
X034536Y011634D01*
X034536Y011568D01*
X034076Y011568D02*
X033809Y011301D01*
X034076Y011301D01*
X033809Y011301D01*
X034076Y011568D01*
X034076Y011634D01*
X034009Y011701D01*
X033876Y011701D01*
X033809Y011634D01*
X033876Y011701D01*
X034009Y011701D01*
X034076Y011634D01*
X034076Y011568D01*
X033616Y011701D02*
X033349Y011301D01*
X033616Y011701D01*
X033349Y011701D02*
X033616Y011301D01*
X033349Y011701D01*
X033155Y011568D02*
X033155Y011301D01*
X033155Y011568D01*
X033022Y011701D01*
X032888Y011568D01*
X032888Y011301D01*
X032888Y011568D01*
X033022Y011701D01*
X033155Y011568D01*
X033155Y011501D02*
X032888Y011501D01*
X033155Y011501D01*
X032695Y011701D02*
X032695Y011301D01*
X032695Y011701D01*
X032561Y011568D01*
X032428Y011701D01*
X032428Y011301D01*
X032428Y011701D01*
X032561Y011568D01*
X032695Y011701D01*
X033801Y013051D02*
X033867Y013051D01*
X033867Y013117D01*
X033801Y013117D01*
X033801Y013051D01*
X033867Y013051D01*
X033867Y013117D01*
X033801Y013117D01*
X033801Y013051D01*
X034184Y013051D02*
X034318Y013051D01*
X034184Y013051D01*
X034251Y013051D02*
X034251Y013451D01*
X034184Y013384D01*
X034251Y013451D01*
X034251Y013051D01*
X034568Y013117D02*
X034635Y013051D01*
X034835Y013051D01*
X034835Y013318D01*
X034835Y013051D01*
X034635Y013051D01*
X034568Y013117D01*
X034568Y013318D01*
X034568Y013117D01*
X035028Y013251D02*
X035162Y013251D01*
X035028Y013251D01*
X035095Y013384D02*
X035162Y013451D01*
X035095Y013384D01*
X035095Y013051D01*
X035095Y013384D01*
X033751Y013601D02*
X036451Y013601D01*
X036471Y013603D01*
X036489Y013609D01*
X036507Y013618D01*
X036522Y013630D01*
X036534Y013645D01*
X036543Y013663D01*
X036549Y013681D01*
X036551Y013701D01*
X036551Y014501D01*
X036549Y014521D01*
X036543Y014539D01*
X036534Y014557D01*
X036522Y014572D01*
X036507Y014584D01*
X036489Y014593D01*
X036471Y014599D01*
X036451Y014601D01*
X034751Y014601D01*
X037451Y014601D01*
X036451Y014601D01*
X036471Y014599D01*
X036489Y014593D01*
X036507Y014584D01*
X036522Y014572D01*
X036534Y014557D01*
X036543Y014539D01*
X036549Y014521D01*
X036551Y014501D01*
X036647Y014401D02*
X036580Y014334D01*
X036580Y014067D01*
X036647Y014001D01*
X036780Y014001D01*
X036847Y014067D01*
X036780Y014001D01*
X036647Y014001D01*
X036580Y014067D01*
X036580Y014334D01*
X036647Y014401D01*
X036780Y014401D01*
X036847Y014334D01*
X036780Y014401D01*
X036647Y014401D01*
X037040Y014334D02*
X037107Y014401D01*
X037241Y014401D01*
X037307Y014334D01*
X037307Y014268D01*
X037241Y014201D01*
X037307Y014134D01*
X037307Y014067D01*
X037241Y014001D01*
X037107Y014001D01*
X037040Y014067D01*
X037107Y014001D01*
X037241Y014001D01*
X037307Y014067D01*
X037307Y014134D01*
X037241Y014201D01*
X037174Y014201D01*
X037241Y014201D01*
X037307Y014268D01*
X037307Y014334D01*
X037241Y014401D01*
X037107Y014401D01*
X037040Y014334D01*
X037451Y014601D02*
X037471Y014603D01*
X037489Y014609D01*
X037507Y014618D01*
X037522Y014630D01*
X037534Y014645D01*
X037543Y014663D01*
X037549Y014681D01*
X037551Y014701D01*
X037551Y015501D01*
X037549Y015521D01*
X037543Y015539D01*
X037534Y015557D01*
X037522Y015572D01*
X037507Y015584D01*
X037489Y015593D01*
X037471Y015599D01*
X037451Y015601D01*
X034751Y015601D01*
X034731Y015599D01*
X034713Y015593D01*
X034695Y015584D01*
X034680Y015572D01*
X034668Y015557D01*
X034659Y015539D01*
X034653Y015521D01*
X034651Y015501D01*
X034651Y014701D01*
X034653Y014681D01*
X034659Y014663D01*
X034668Y014645D01*
X034680Y014630D01*
X034695Y014618D01*
X034713Y014609D01*
X034731Y014603D01*
X034751Y014601D01*
X033751Y014601D01*
X033731Y014599D01*
X033713Y014593D01*
X033695Y014584D01*
X033680Y014572D01*
X033668Y014557D01*
X033659Y014539D01*
X033653Y014521D01*
X033651Y014501D01*
X033651Y013701D01*
X033653Y013681D01*
X033659Y013663D01*
X033668Y013645D01*
X033680Y013630D01*
X033695Y013618D01*
X033713Y013609D01*
X033731Y013603D01*
X033751Y013601D01*
X033731Y013603D01*
X033713Y013609D01*
X033695Y013618D01*
X033680Y013630D01*
X033668Y013645D01*
X033659Y013663D01*
X033653Y013681D01*
X033651Y013701D01*
X034501Y014101D02*
X034981Y014101D01*
X035231Y014101D02*
X035701Y014101D01*
X036451Y013601D02*
X036471Y013603D01*
X036489Y013609D01*
X036507Y013618D01*
X036522Y013630D01*
X036534Y013645D01*
X036543Y013663D01*
X036549Y013681D01*
X036551Y013701D01*
X037451Y014601D02*
X037471Y014603D01*
X037489Y014609D01*
X037507Y014618D01*
X037522Y014630D01*
X037534Y014645D01*
X037543Y014663D01*
X037549Y014681D01*
X037551Y014701D01*
X036701Y015101D02*
X036221Y015101D01*
X035971Y015101D02*
X035501Y015101D01*
X034751Y014601D02*
X034731Y014603D01*
X034713Y014609D01*
X034695Y014618D01*
X034680Y014630D01*
X034668Y014645D01*
X034659Y014663D01*
X034653Y014681D01*
X034651Y014701D01*
X034395Y014801D02*
X034261Y014801D01*
X034395Y014801D01*
X034328Y014801D02*
X034328Y015201D01*
X034261Y015134D01*
X034328Y015201D01*
X034328Y014801D01*
X034068Y014867D02*
X034001Y014801D01*
X033867Y014801D01*
X033801Y014867D01*
X033801Y015134D01*
X033867Y015201D01*
X034001Y015201D01*
X034068Y015134D01*
X034001Y015201D01*
X033867Y015201D01*
X033801Y015134D01*
X033801Y014867D01*
X033867Y014801D01*
X034001Y014801D01*
X034068Y014867D01*
X034101Y015051D02*
X033967Y015051D01*
X034101Y015051D01*
X034034Y015051D02*
X034034Y015451D01*
X033967Y015384D01*
X034034Y015451D01*
X034034Y015051D01*
X033717Y015051D02*
X033583Y015051D01*
X033717Y015051D01*
X033650Y015051D02*
X033650Y015451D01*
X033583Y015384D01*
X033650Y015451D01*
X033650Y015051D01*
X033390Y015051D02*
X033257Y015184D01*
X033390Y015051D01*
X033323Y015184D02*
X033123Y015184D01*
X033323Y015184D01*
X033390Y015251D01*
X033390Y015384D01*
X033323Y015451D01*
X033123Y015451D01*
X033123Y015051D01*
X033123Y015451D01*
X033323Y015451D01*
X033390Y015384D01*
X033390Y015251D01*
X033323Y015184D01*
X033551Y015501D02*
X033549Y015521D01*
X033543Y015539D01*
X033534Y015557D01*
X033522Y015572D01*
X033507Y015584D01*
X033489Y015593D01*
X033471Y015599D01*
X033451Y015601D01*
X030751Y015601D01*
X030731Y015599D01*
X030713Y015593D01*
X030695Y015584D01*
X030680Y015572D01*
X030668Y015557D01*
X030659Y015539D01*
X030653Y015521D01*
X030651Y015501D01*
X030651Y014701D01*
X030653Y014681D01*
X030659Y014663D01*
X030668Y014645D01*
X030680Y014630D01*
X030695Y014618D01*
X030713Y014609D01*
X030731Y014603D01*
X030751Y014601D01*
X033451Y014601D01*
X033471Y014603D01*
X033489Y014609D01*
X033507Y014618D01*
X033522Y014630D01*
X033534Y014645D01*
X033543Y014663D01*
X033549Y014681D01*
X033551Y014701D01*
X033551Y015501D01*
X033549Y015521D01*
X033543Y015539D01*
X033534Y015557D01*
X033522Y015572D01*
X033507Y015584D01*
X033489Y015593D01*
X033471Y015599D01*
X033451Y015601D01*
X033387Y015901D02*
X033120Y015901D01*
X033387Y016168D01*
X033387Y016234D01*
X033320Y016301D01*
X033187Y016301D01*
X033120Y016234D01*
X033187Y016301D01*
X033320Y016301D01*
X033387Y016234D01*
X033387Y016168D01*
X033120Y015901D01*
X033387Y015901D01*
X033580Y015967D02*
X033847Y016234D01*
X033847Y015967D01*
X033781Y015901D01*
X033647Y015901D01*
X033580Y015967D01*
X033580Y016234D01*
X033647Y016301D01*
X033781Y016301D01*
X033847Y016234D01*
X033580Y015967D01*
X033647Y015901D01*
X033781Y015901D01*
X033847Y015967D01*
X033847Y016234D01*
X033781Y016301D01*
X033647Y016301D01*
X033580Y016234D01*
X033580Y015967D01*
X034051Y015701D02*
X032151Y015701D01*
X032101Y015651D01*
X031951Y015651D01*
X031931Y015653D01*
X031913Y015659D01*
X031895Y015668D01*
X031880Y015680D01*
X031868Y015695D01*
X031859Y015713D01*
X031853Y015731D01*
X031851Y015751D01*
X031851Y016451D01*
X031853Y016471D01*
X031859Y016489D01*
X031868Y016507D01*
X031880Y016522D01*
X031895Y016534D01*
X031913Y016543D01*
X031931Y016549D01*
X031951Y016551D01*
X032101Y016551D01*
X032151Y016501D01*
X034051Y016501D01*
X034101Y016551D01*
X034251Y016551D01*
X034271Y016549D01*
X034289Y016543D01*
X034307Y016534D01*
X034322Y016522D01*
X034334Y016507D01*
X034343Y016489D01*
X034349Y016471D01*
X034351Y016451D01*
X034351Y015751D01*
X034349Y015731D01*
X034343Y015713D01*
X034334Y015695D01*
X034322Y015680D01*
X034307Y015668D01*
X034289Y015659D01*
X034271Y015653D01*
X034251Y015651D01*
X034101Y015651D01*
X034051Y015701D01*
X034251Y015651D02*
X034271Y015653D01*
X034289Y015659D01*
X034307Y015668D01*
X034322Y015680D01*
X034334Y015695D01*
X034343Y015713D01*
X034349Y015731D01*
X034351Y015751D01*
X034651Y015501D02*
X034653Y015521D01*
X034659Y015539D01*
X034668Y015557D01*
X034680Y015572D01*
X034695Y015584D01*
X034713Y015593D01*
X034731Y015599D01*
X034751Y015601D01*
X035889Y015751D02*
X035956Y015751D01*
X035956Y015817D01*
X035889Y015817D01*
X035889Y015751D01*
X035956Y015751D01*
X035956Y015817D01*
X035889Y015817D01*
X035889Y015751D01*
X036273Y015751D02*
X036406Y015751D01*
X036273Y015751D01*
X036340Y015751D02*
X036340Y016151D01*
X036273Y016084D01*
X036340Y016151D01*
X036340Y015751D01*
X036657Y015817D02*
X036657Y016018D01*
X036657Y015817D01*
X036723Y015751D01*
X036924Y015751D01*
X036924Y016018D01*
X036924Y015751D01*
X036723Y015751D01*
X036657Y015817D01*
X037117Y015951D02*
X037250Y015951D01*
X037117Y015951D01*
X037184Y016084D02*
X037184Y015751D01*
X037184Y016084D01*
X037250Y016151D01*
X037184Y016084D01*
X037451Y015601D02*
X037471Y015599D01*
X037489Y015593D01*
X037507Y015584D01*
X037522Y015572D01*
X037534Y015557D01*
X037543Y015539D01*
X037549Y015521D01*
X037551Y015501D01*
X036251Y016651D02*
X036101Y016651D01*
X036051Y016701D01*
X034151Y016701D01*
X034101Y016651D01*
X033951Y016651D01*
X033931Y016653D01*
X033913Y016659D01*
X033895Y016668D01*
X033880Y016680D01*
X033868Y016695D01*
X033859Y016713D01*
X033853Y016731D01*
X033851Y016751D01*
X033851Y017451D01*
X033853Y017471D01*
X033859Y017489D01*
X033868Y017507D01*
X033880Y017522D01*
X033895Y017534D01*
X033913Y017543D01*
X033931Y017549D01*
X033951Y017551D01*
X034101Y017551D01*
X034151Y017501D01*
X036051Y017501D01*
X036101Y017551D01*
X036251Y017551D01*
X036271Y017549D01*
X036289Y017543D01*
X036307Y017534D01*
X036322Y017522D01*
X036334Y017507D01*
X036343Y017489D01*
X036349Y017471D01*
X036351Y017451D01*
X036351Y016751D01*
X036349Y016731D01*
X036343Y016713D01*
X036334Y016695D01*
X036322Y016680D01*
X036307Y016668D01*
X036289Y016659D01*
X036271Y016653D01*
X036251Y016651D01*
X036271Y016653D01*
X036289Y016659D01*
X036307Y016668D01*
X036322Y016680D01*
X036334Y016695D01*
X036343Y016713D01*
X036349Y016731D01*
X036351Y016751D01*
X035448Y016967D02*
X035448Y017234D01*
X035181Y016967D01*
X035248Y016901D01*
X035382Y016901D01*
X035448Y016967D01*
X035382Y016901D01*
X035248Y016901D01*
X035181Y016967D01*
X035181Y017234D01*
X035248Y017301D01*
X035382Y017301D01*
X035448Y017234D01*
X035181Y016967D01*
X035181Y017234D01*
X035248Y017301D01*
X035382Y017301D01*
X035448Y017234D01*
X035448Y016967D01*
X034988Y016901D02*
X034721Y016901D01*
X034988Y017168D01*
X034988Y017234D01*
X034921Y017301D01*
X034788Y017301D01*
X034721Y017234D01*
X034788Y017301D01*
X034921Y017301D01*
X034988Y017234D01*
X034988Y017168D01*
X034721Y016901D01*
X034988Y016901D01*
X034528Y016901D02*
X034261Y016901D01*
X034528Y017168D01*
X034528Y017234D01*
X034461Y017301D01*
X034327Y017301D01*
X034261Y017234D01*
X034327Y017301D01*
X034461Y017301D01*
X034528Y017234D01*
X034528Y017168D01*
X034261Y016901D01*
X034528Y016901D01*
X034251Y016551D02*
X034271Y016549D01*
X034289Y016543D01*
X034307Y016534D01*
X034322Y016522D01*
X034334Y016507D01*
X034343Y016489D01*
X034349Y016471D01*
X034351Y016451D01*
X033951Y016651D02*
X033931Y016653D01*
X033913Y016659D01*
X033895Y016668D01*
X033880Y016680D01*
X033868Y016695D01*
X033859Y016713D01*
X033853Y016731D01*
X033851Y016751D01*
X032927Y016234D02*
X032860Y016301D01*
X032726Y016301D01*
X032660Y016234D01*
X032726Y016301D01*
X032860Y016301D01*
X032927Y016234D01*
X032927Y016168D01*
X032660Y015901D01*
X032927Y015901D01*
X032660Y015901D01*
X032927Y016168D01*
X032927Y016234D01*
X031951Y016551D02*
X031931Y016549D01*
X031913Y016543D01*
X031895Y016534D01*
X031880Y016522D01*
X031868Y016507D01*
X031859Y016489D01*
X031853Y016471D01*
X031851Y016451D01*
X031528Y016134D02*
X031461Y016201D01*
X031328Y016201D01*
X031261Y016134D01*
X031328Y016201D01*
X031461Y016201D01*
X031528Y016134D01*
X031528Y016068D01*
X031261Y015801D01*
X031528Y015801D01*
X031261Y015801D01*
X031528Y016068D01*
X031528Y016134D01*
X031068Y016134D02*
X031001Y016201D01*
X030867Y016201D01*
X030801Y016134D01*
X030801Y015867D01*
X030867Y015801D01*
X031001Y015801D01*
X031068Y015867D01*
X031001Y015801D01*
X030867Y015801D01*
X030801Y015867D01*
X030801Y016134D01*
X030867Y016201D01*
X031001Y016201D01*
X031068Y016134D01*
X030741Y015961D02*
X030607Y015961D01*
X030741Y015961D01*
X030674Y015961D02*
X030674Y016361D01*
X030607Y016294D01*
X030674Y016361D01*
X030674Y015961D01*
X030414Y016027D02*
X030414Y016294D01*
X030347Y016361D01*
X030147Y016361D01*
X030147Y015961D01*
X030347Y015961D01*
X030414Y016027D01*
X030414Y016294D01*
X030347Y016361D01*
X030147Y016361D01*
X030147Y015961D01*
X030347Y015961D01*
X030414Y016027D01*
X030751Y015601D02*
X030731Y015599D01*
X030713Y015593D01*
X030695Y015584D01*
X030680Y015572D01*
X030668Y015557D01*
X030659Y015539D01*
X030653Y015521D01*
X030651Y015501D01*
X031501Y015101D02*
X031981Y015101D01*
X032231Y015101D02*
X032701Y015101D01*
X033451Y014601D02*
X033471Y014603D01*
X033489Y014609D01*
X033507Y014618D01*
X033522Y014630D01*
X033534Y014645D01*
X033543Y014663D01*
X033549Y014681D01*
X033551Y014701D01*
X033751Y014601D02*
X033731Y014599D01*
X033713Y014593D01*
X033695Y014584D01*
X033680Y014572D01*
X033668Y014557D01*
X033659Y014539D01*
X033653Y014521D01*
X033651Y014501D01*
X032162Y014451D02*
X032095Y014384D01*
X032095Y014051D01*
X032095Y014384D01*
X032162Y014451D01*
X032162Y014251D02*
X032028Y014251D01*
X032162Y014251D01*
X031835Y014318D02*
X031835Y014051D01*
X031635Y014051D01*
X031568Y014117D01*
X031568Y014318D01*
X031568Y014117D01*
X031635Y014051D01*
X031835Y014051D01*
X031835Y014318D01*
X031318Y014051D02*
X031184Y014051D01*
X031318Y014051D01*
X031251Y014051D02*
X031251Y014451D01*
X031184Y014384D01*
X031251Y014451D01*
X031251Y014051D01*
X030867Y014051D02*
X030801Y014051D01*
X030801Y014117D01*
X030867Y014117D01*
X030867Y014051D01*
X030801Y014051D01*
X030801Y014117D01*
X030867Y014117D01*
X030867Y014051D01*
X030751Y014601D02*
X030731Y014603D01*
X030713Y014609D01*
X030695Y014618D01*
X030680Y014630D01*
X030668Y014645D01*
X030659Y014663D01*
X030653Y014681D01*
X030651Y014701D01*
X031851Y015751D02*
X031853Y015731D01*
X031859Y015713D01*
X031868Y015695D01*
X031880Y015680D01*
X031895Y015668D01*
X031913Y015659D01*
X031931Y015653D01*
X031951Y015651D01*
X030941Y016561D02*
X030941Y017561D01*
X029341Y017561D01*
X029341Y016561D01*
X030941Y016561D01*
X030141Y016811D02*
X030141Y017061D01*
X030141Y017311D01*
X030141Y017061D02*
X029741Y016811D01*
X029741Y017311D01*
X030141Y017061D01*
X029541Y017061D01*
X030141Y017061D02*
X030391Y017061D01*
X030280Y017711D02*
X030147Y017711D01*
X030280Y017711D01*
X030213Y017711D02*
X030213Y018111D01*
X030147Y018044D01*
X030213Y018111D01*
X030213Y017711D01*
X029953Y017777D02*
X029953Y018044D01*
X029886Y018111D01*
X029753Y018111D01*
X029686Y018044D01*
X029686Y017978D01*
X029753Y017911D01*
X029953Y017911D01*
X029753Y017911D01*
X029686Y017978D01*
X029686Y018044D01*
X029753Y018111D01*
X029886Y018111D01*
X029953Y018044D01*
X029953Y017777D01*
X029886Y017711D01*
X029753Y017711D01*
X029686Y017777D01*
X029753Y017711D01*
X029886Y017711D01*
X029953Y017777D01*
X029751Y017901D02*
X029451Y017901D01*
X029493Y017911D02*
X029493Y017711D01*
X029493Y017911D01*
X029426Y017978D01*
X029226Y017978D01*
X029226Y017711D01*
X029226Y017978D01*
X029426Y017978D01*
X029493Y017911D01*
X028976Y017711D02*
X028842Y017711D01*
X028976Y017711D01*
X028909Y017711D02*
X028909Y018111D01*
X028842Y018044D01*
X028909Y018111D01*
X028909Y017711D01*
X028751Y017901D02*
X028451Y017901D01*
X027751Y017901D02*
X027451Y017901D01*
X026751Y017901D02*
X026451Y017901D01*
X025751Y017901D02*
X025451Y017901D01*
X025251Y017551D02*
X025101Y017551D01*
X025051Y017501D01*
X023151Y017501D01*
X023101Y017551D01*
X022951Y017551D01*
X022931Y017549D01*
X022913Y017543D01*
X022895Y017534D01*
X022880Y017522D01*
X022868Y017507D01*
X022859Y017489D01*
X022853Y017471D01*
X022851Y017451D01*
X022851Y016751D01*
X022853Y016731D01*
X022859Y016713D01*
X022868Y016695D01*
X022880Y016680D01*
X022895Y016668D01*
X022913Y016659D01*
X022931Y016653D01*
X022951Y016651D01*
X023101Y016651D01*
X023151Y016701D01*
X025051Y016701D01*
X025101Y016651D01*
X025251Y016651D01*
X025271Y016653D01*
X025289Y016659D01*
X025307Y016668D01*
X025322Y016680D01*
X025334Y016695D01*
X025343Y016713D01*
X025349Y016731D01*
X025351Y016751D01*
X025351Y017451D01*
X025349Y017471D01*
X025343Y017489D01*
X025334Y017507D01*
X025322Y017522D01*
X025307Y017534D01*
X025289Y017543D01*
X025271Y017549D01*
X025251Y017551D01*
X025271Y017549D01*
X025289Y017543D01*
X025307Y017534D01*
X025322Y017522D01*
X025334Y017507D01*
X025343Y017489D01*
X025349Y017471D01*
X025351Y017451D01*
X024847Y017234D02*
X024580Y016967D01*
X024647Y016901D01*
X024781Y016901D01*
X024847Y016967D01*
X024847Y017234D01*
X024781Y017301D01*
X024647Y017301D01*
X024580Y017234D01*
X024580Y016967D01*
X024847Y017234D01*
X024847Y016967D01*
X024781Y016901D01*
X024647Y016901D01*
X024580Y016967D01*
X024580Y017234D01*
X024647Y017301D01*
X024781Y017301D01*
X024847Y017234D01*
X024387Y017234D02*
X024387Y017168D01*
X024120Y016901D01*
X024387Y016901D01*
X024120Y016901D01*
X024387Y017168D01*
X024387Y017234D01*
X024320Y017301D01*
X024187Y017301D01*
X024120Y017234D01*
X024187Y017301D01*
X024320Y017301D01*
X024387Y017234D01*
X023927Y017234D02*
X023927Y017168D01*
X023660Y016901D01*
X023927Y016901D01*
X023660Y016901D01*
X023927Y017168D01*
X023927Y017234D01*
X023860Y017301D01*
X023726Y017301D01*
X023660Y017234D01*
X023726Y017301D01*
X023860Y017301D01*
X023927Y017234D01*
X023751Y017901D02*
X023451Y017901D01*
X022951Y017551D02*
X022931Y017549D01*
X022913Y017543D01*
X022895Y017534D01*
X022880Y017522D01*
X022868Y017507D01*
X022859Y017489D01*
X022853Y017471D01*
X022851Y017451D01*
X022751Y017901D02*
X022451Y017901D01*
X021751Y017901D02*
X021451Y017901D01*
X020751Y017901D02*
X020451Y017901D01*
X019751Y017901D02*
X019451Y017901D01*
X019499Y017884D02*
X019499Y017818D01*
X019432Y017751D01*
X019299Y017751D01*
X019232Y017818D01*
X019232Y017884D01*
X019299Y017951D01*
X019432Y017951D01*
X019499Y017884D01*
X019499Y017818D01*
X019432Y017751D01*
X019499Y017684D01*
X019499Y017617D01*
X019432Y017551D01*
X019299Y017551D01*
X019232Y017617D01*
X019232Y017684D01*
X019299Y017751D01*
X019432Y017751D01*
X019499Y017684D01*
X019499Y017617D01*
X019432Y017551D01*
X019299Y017551D01*
X019232Y017617D01*
X019232Y017684D01*
X019299Y017751D01*
X019232Y017818D01*
X019232Y017884D01*
X019299Y017951D01*
X019432Y017951D01*
X019499Y017884D01*
X019038Y017884D02*
X019038Y017617D01*
X018972Y017551D01*
X018771Y017551D01*
X018771Y017951D01*
X018972Y017951D01*
X019038Y017884D01*
X018972Y017951D01*
X018771Y017951D01*
X018771Y017551D01*
X018972Y017551D01*
X019038Y017617D01*
X019038Y017884D01*
X018751Y017901D02*
X018451Y017901D01*
X018445Y017951D02*
X018311Y017818D01*
X018311Y017551D01*
X018311Y017818D01*
X018445Y017951D01*
X018578Y017818D01*
X018578Y017551D01*
X018578Y017818D01*
X018445Y017951D01*
X018311Y017751D02*
X018578Y017751D01*
X018311Y017751D01*
X018118Y017751D02*
X018051Y017684D01*
X017851Y017684D01*
X018051Y017684D01*
X018118Y017751D01*
X018118Y017884D01*
X018051Y017951D01*
X017851Y017951D01*
X017851Y017551D01*
X017851Y017951D01*
X018051Y017951D01*
X018118Y017884D01*
X018118Y017751D01*
X017751Y017901D02*
X017301Y017901D01*
X016801Y017901D01*
X016801Y019451D01*
X015801Y020101D01*
X014801Y019451D01*
X014801Y017851D01*
X015601Y017851D01*
X015601Y017901D01*
X016801Y017901D01*
X017301Y017901D02*
X017301Y019701D01*
X018751Y019701D01*
X020451Y019701D01*
X020451Y020501D01*
X019901Y020501D01*
X019901Y020801D01*
X019901Y021401D01*
X019899Y021435D01*
X019893Y021468D01*
X019884Y021500D01*
X019871Y021531D01*
X019855Y021561D01*
X019836Y021588D01*
X019813Y021613D01*
X019788Y021636D01*
X019761Y021655D01*
X019731Y021671D01*
X019700Y021684D01*
X019668Y021693D01*
X019635Y021699D01*
X019601Y021701D01*
X019567Y021699D01*
X019534Y021693D01*
X019502Y021684D01*
X019471Y021671D01*
X019441Y021655D01*
X019414Y021636D01*
X019389Y021613D01*
X019366Y021588D01*
X019347Y021561D01*
X019331Y021531D01*
X019318Y021500D01*
X019309Y021468D01*
X019303Y021435D01*
X019301Y021401D01*
X019301Y020801D01*
X019901Y020801D01*
X019301Y020801D02*
X019301Y020501D01*
X018751Y020501D01*
X018751Y019701D01*
X018751Y020501D02*
X018751Y023351D01*
X019201Y023351D01*
X020001Y023351D01*
X020451Y023351D01*
X026751Y023351D01*
X028451Y023351D01*
X035751Y023351D01*
X037851Y023351D01*
X037451Y023351D01*
X037451Y020501D01*
X037451Y019701D01*
X037901Y019701D01*
X037901Y017901D01*
X038401Y017901D01*
X038401Y019451D01*
X039401Y020101D01*
X040401Y019451D01*
X040401Y017851D01*
X039601Y017851D01*
X039601Y017901D01*
X038401Y017901D01*
X037901Y017901D02*
X037451Y017901D01*
X036751Y017901D02*
X036451Y017901D01*
X036251Y017551D02*
X036271Y017549D01*
X036289Y017543D01*
X036307Y017534D01*
X036322Y017522D01*
X036334Y017507D01*
X036343Y017489D01*
X036349Y017471D01*
X036351Y017451D01*
X035751Y017901D02*
X035451Y017901D01*
X034751Y017901D02*
X034451Y017901D01*
X034411Y017884D02*
X034478Y017951D01*
X034611Y017951D01*
X034678Y017884D01*
X034678Y017817D01*
X034611Y017751D01*
X034478Y017751D01*
X034411Y017817D01*
X034411Y017884D01*
X034478Y017951D01*
X034411Y018018D01*
X034411Y018084D01*
X034478Y018151D01*
X034611Y018151D01*
X034678Y018084D01*
X034678Y018018D01*
X034611Y017951D01*
X034478Y017951D01*
X034411Y018018D01*
X034411Y018084D01*
X034478Y018151D01*
X034611Y018151D01*
X034678Y018084D01*
X034678Y018018D01*
X034611Y017951D01*
X034678Y017884D01*
X034678Y017817D01*
X034611Y017751D01*
X034478Y017751D01*
X034411Y017817D01*
X034411Y017884D01*
X034218Y017951D02*
X034151Y017884D01*
X033951Y017884D01*
X034151Y017884D01*
X034218Y017951D01*
X034218Y018084D01*
X034151Y018151D01*
X033951Y018151D01*
X033951Y017751D01*
X033951Y018151D01*
X034151Y018151D01*
X034218Y018084D01*
X034218Y017951D01*
X034084Y017884D02*
X034218Y017751D01*
X034084Y017884D01*
X033751Y017901D02*
X033451Y017901D01*
X033851Y017451D02*
X033853Y017471D01*
X033859Y017489D01*
X033868Y017507D01*
X033880Y017522D01*
X033895Y017534D01*
X033913Y017543D01*
X033931Y017549D01*
X033951Y017551D01*
X032751Y017901D02*
X032451Y017901D01*
X031751Y017901D02*
X031451Y017901D01*
X030797Y017911D02*
X030530Y017911D01*
X030730Y018111D01*
X030730Y017711D01*
X030730Y018111D01*
X030530Y017911D01*
X030797Y017911D01*
X030751Y017901D02*
X030451Y017901D01*
X027780Y016091D02*
X027580Y015891D01*
X027847Y015891D01*
X027580Y015891D01*
X027780Y016091D01*
X027780Y015691D01*
X027780Y016091D01*
X027263Y016091D02*
X027263Y015691D01*
X027263Y016091D01*
X027197Y016024D01*
X027263Y016091D01*
X027003Y016024D02*
X027003Y015757D01*
X026936Y015691D01*
X026803Y015691D01*
X026736Y015757D01*
X026803Y015691D01*
X026936Y015691D01*
X027003Y015757D01*
X027003Y016024D01*
X026936Y016091D01*
X026803Y016091D01*
X026736Y016024D01*
X026736Y015958D01*
X026803Y015891D01*
X027003Y015891D01*
X026803Y015891D01*
X026736Y015958D01*
X026736Y016024D01*
X026803Y016091D01*
X026936Y016091D01*
X027003Y016024D01*
X026851Y016361D02*
X026851Y015661D01*
X026849Y015641D01*
X026843Y015623D01*
X026834Y015605D01*
X026822Y015590D01*
X026807Y015578D01*
X026789Y015569D01*
X026771Y015563D01*
X026751Y015561D01*
X026601Y015561D01*
X026551Y015611D01*
X024651Y015611D01*
X024601Y015561D01*
X024451Y015561D01*
X024431Y015563D01*
X024413Y015569D01*
X024395Y015578D01*
X024380Y015590D01*
X024368Y015605D01*
X024359Y015623D01*
X024353Y015641D01*
X024351Y015661D01*
X024351Y016361D01*
X024353Y016381D01*
X024359Y016399D01*
X024368Y016417D01*
X024380Y016432D01*
X024395Y016444D01*
X024413Y016453D01*
X024431Y016459D01*
X024451Y016461D01*
X024601Y016461D01*
X024651Y016411D01*
X026551Y016411D01*
X026601Y016461D01*
X026751Y016461D01*
X026771Y016459D01*
X026789Y016453D01*
X026807Y016444D01*
X026822Y016432D01*
X026834Y016417D01*
X026843Y016399D01*
X026849Y016381D01*
X026851Y016361D01*
X026849Y016381D01*
X026843Y016399D01*
X026834Y016417D01*
X026822Y016432D01*
X026807Y016444D01*
X026789Y016453D01*
X026771Y016459D01*
X026751Y016461D01*
X026357Y016231D02*
X026357Y015831D01*
X026224Y015964D01*
X026090Y015831D01*
X026090Y016231D01*
X026090Y015831D01*
X026224Y015964D01*
X026357Y015831D01*
X026357Y016231D01*
X026276Y015958D02*
X026476Y015958D01*
X026543Y015891D01*
X026543Y015691D01*
X026543Y015891D01*
X026476Y015958D01*
X026276Y015958D01*
X026276Y015691D01*
X026276Y015958D01*
X025959Y016091D02*
X025959Y015691D01*
X025959Y016091D01*
X025892Y016024D01*
X025959Y016091D01*
X025897Y016098D02*
X025897Y016164D01*
X025830Y016231D01*
X025696Y016231D01*
X025630Y016164D01*
X025696Y016231D01*
X025830Y016231D01*
X025897Y016164D01*
X025897Y016098D01*
X025630Y015831D01*
X025897Y015831D01*
X025630Y015831D01*
X025897Y016098D01*
X025892Y015691D02*
X026026Y015691D01*
X025892Y015691D01*
X026391Y015541D02*
X026391Y014541D01*
X027991Y014541D01*
X027991Y015541D01*
X026391Y015541D01*
X026507Y015411D02*
X026641Y015411D01*
X026707Y015344D01*
X026707Y015278D01*
X026641Y015211D01*
X026707Y015144D01*
X026707Y015077D01*
X026641Y015011D01*
X026507Y015011D01*
X026440Y015077D01*
X026507Y015011D01*
X026641Y015011D01*
X026707Y015077D01*
X026707Y015144D01*
X026641Y015211D01*
X026574Y015211D01*
X026641Y015211D01*
X026707Y015278D01*
X026707Y015344D01*
X026641Y015411D01*
X026507Y015411D01*
X026440Y015344D01*
X026507Y015411D01*
X026247Y015344D02*
X026247Y015211D01*
X026180Y015144D01*
X025980Y015144D01*
X026180Y015144D01*
X026247Y015211D01*
X026247Y015344D01*
X026180Y015411D01*
X025980Y015411D01*
X025980Y015011D01*
X025980Y015411D01*
X026180Y015411D01*
X026247Y015344D01*
X026113Y015144D02*
X026247Y015011D01*
X026113Y015144D01*
X026591Y015041D02*
X027191Y015041D01*
X027191Y015291D01*
X027191Y015041D02*
X027191Y014791D01*
X027191Y015041D02*
X026791Y014791D01*
X026791Y015291D01*
X027191Y015041D01*
X027441Y015041D01*
X026851Y015661D02*
X026849Y015641D01*
X026843Y015623D01*
X026834Y015605D01*
X026822Y015590D01*
X026807Y015578D01*
X026789Y015569D01*
X026771Y015563D01*
X026751Y015561D01*
X027197Y015691D02*
X027330Y015691D01*
X027197Y015691D01*
X025436Y016231D02*
X025169Y015831D01*
X025436Y016231D01*
X025157Y016251D02*
X024890Y016251D01*
X025091Y016451D01*
X025091Y016051D01*
X025091Y016451D01*
X024890Y016251D01*
X025157Y016251D01*
X024853Y016231D02*
X024786Y016164D01*
X024853Y016231D01*
X024853Y015831D01*
X024853Y016231D01*
X024697Y016251D02*
X024630Y016184D01*
X024430Y016184D01*
X024630Y016184D01*
X024697Y016251D01*
X024697Y016384D01*
X024630Y016451D01*
X024430Y016451D01*
X024430Y016051D01*
X024430Y016451D01*
X024630Y016451D01*
X024697Y016384D01*
X024697Y016251D01*
X024563Y016184D02*
X024697Y016051D01*
X024563Y016184D01*
X024351Y016361D02*
X024353Y016381D01*
X024359Y016399D01*
X024368Y016417D01*
X024380Y016432D01*
X024395Y016444D01*
X024413Y016453D01*
X024431Y016459D01*
X024451Y016461D01*
X024132Y016164D02*
X024065Y016231D01*
X023932Y016231D01*
X023865Y016164D01*
X023865Y015897D01*
X024132Y016164D01*
X024132Y015897D01*
X024065Y015831D01*
X023932Y015831D01*
X023865Y015897D01*
X024132Y016164D01*
X024132Y015897D01*
X024065Y015831D01*
X023932Y015831D01*
X023865Y015897D01*
X023865Y016164D01*
X023932Y016231D01*
X024065Y016231D01*
X024132Y016164D01*
X023672Y016164D02*
X023605Y016231D01*
X023471Y016231D01*
X023405Y016164D01*
X023405Y016098D01*
X023471Y016031D01*
X023605Y016031D01*
X023672Y015964D01*
X023672Y015897D01*
X023605Y015831D01*
X023471Y015831D01*
X023405Y015897D01*
X023405Y015964D01*
X023471Y016031D01*
X023605Y016031D01*
X023672Y016098D01*
X023672Y016164D01*
X023672Y016098D01*
X023605Y016031D01*
X023672Y015964D01*
X023672Y015897D01*
X023605Y015831D01*
X023471Y015831D01*
X023405Y015897D01*
X023405Y015964D01*
X023471Y016031D01*
X023405Y016098D01*
X023405Y016164D01*
X023471Y016231D01*
X023605Y016231D01*
X023672Y016164D01*
X023211Y016231D02*
X023078Y016164D01*
X022944Y016031D01*
X023145Y016031D01*
X023211Y015964D01*
X023211Y015897D01*
X023145Y015831D01*
X023011Y015831D01*
X022944Y015897D01*
X022944Y016031D01*
X023145Y016031D01*
X023211Y015964D01*
X023211Y015897D01*
X023145Y015831D01*
X023011Y015831D01*
X022944Y015897D01*
X022944Y016031D01*
X023078Y016164D01*
X023211Y016231D01*
X022951Y016651D02*
X022931Y016653D01*
X022913Y016659D01*
X022895Y016668D01*
X022880Y016680D01*
X022868Y016695D01*
X022859Y016713D01*
X022853Y016731D01*
X022851Y016751D01*
X024451Y017901D02*
X024751Y017901D01*
X025351Y016751D02*
X025349Y016731D01*
X025343Y016713D01*
X025334Y016695D01*
X025322Y016680D01*
X025307Y016668D01*
X025289Y016659D01*
X025271Y016653D01*
X025251Y016651D01*
X024919Y015831D02*
X024786Y015831D01*
X024919Y015831D01*
X024451Y015561D02*
X024431Y015563D01*
X024413Y015569D01*
X024395Y015578D01*
X024380Y015590D01*
X024368Y015605D01*
X024359Y015623D01*
X024353Y015641D01*
X024351Y015661D01*
X024851Y013951D02*
X025051Y013951D01*
X025118Y013884D01*
X025118Y013751D01*
X025051Y013684D01*
X024851Y013684D01*
X025051Y013684D01*
X025118Y013751D01*
X025118Y013884D01*
X025051Y013951D01*
X024851Y013951D01*
X024851Y013551D01*
X024851Y013951D01*
X025311Y013818D02*
X025445Y013951D01*
X025578Y013818D01*
X025578Y013551D01*
X025578Y013818D01*
X025445Y013951D01*
X025311Y013818D01*
X025311Y013551D01*
X025311Y013818D01*
X025311Y013751D02*
X025578Y013751D01*
X025311Y013751D01*
X025771Y013951D02*
X025771Y013551D01*
X025972Y013551D01*
X026038Y013617D01*
X026038Y013884D01*
X025972Y013951D01*
X025771Y013951D01*
X025972Y013951D01*
X026038Y013884D01*
X026038Y013617D01*
X025972Y013551D01*
X025771Y013551D01*
X025771Y013951D01*
X026232Y013884D02*
X026299Y013951D01*
X026432Y013951D01*
X026499Y013884D01*
X026499Y013818D01*
X026232Y013551D01*
X026499Y013551D01*
X026232Y013551D01*
X026499Y013818D01*
X026499Y013884D01*
X026432Y013951D01*
X026299Y013951D01*
X026232Y013884D01*
X027120Y013941D02*
X027120Y014341D01*
X027320Y014341D01*
X027387Y014274D01*
X027387Y014007D01*
X027320Y013941D01*
X027120Y013941D01*
X027320Y013941D01*
X027387Y014007D01*
X027387Y014274D01*
X027320Y014341D01*
X027120Y014341D01*
X027120Y013941D01*
X027580Y013941D02*
X027847Y014208D01*
X027847Y014274D01*
X027781Y014341D01*
X027647Y014341D01*
X027580Y014274D01*
X027647Y014341D01*
X027781Y014341D01*
X027847Y014274D01*
X027847Y014208D01*
X027580Y013941D01*
X027847Y013941D01*
X027580Y013941D01*
X027432Y012951D02*
X027232Y012751D01*
X027499Y012751D01*
X027232Y012751D01*
X027432Y012951D01*
X027432Y012551D01*
X027432Y012951D01*
X027038Y012884D02*
X026972Y012951D01*
X026771Y012951D01*
X026771Y012551D01*
X026972Y012551D01*
X027038Y012617D01*
X027038Y012884D01*
X026972Y012951D01*
X026771Y012951D01*
X026771Y012551D01*
X026972Y012551D01*
X027038Y012617D01*
X027038Y012884D01*
X026578Y012818D02*
X026578Y012551D01*
X026578Y012818D01*
X026445Y012951D01*
X026311Y012818D01*
X026311Y012551D01*
X026311Y012818D01*
X026445Y012951D01*
X026578Y012818D01*
X026578Y012751D02*
X026311Y012751D01*
X026578Y012751D01*
X026118Y012751D02*
X026051Y012684D01*
X025851Y012684D01*
X026051Y012684D01*
X026118Y012751D01*
X026118Y012884D01*
X026051Y012951D01*
X025851Y012951D01*
X025851Y012551D01*
X025851Y012951D01*
X026051Y012951D01*
X026118Y012884D01*
X026118Y012751D01*
X026301Y012401D02*
X026401Y012401D01*
X026401Y012301D01*
X025901Y012401D02*
X025801Y012401D01*
X025801Y012301D01*
X025801Y011901D02*
X025801Y011801D01*
X025901Y011801D01*
X026301Y011801D02*
X026401Y011801D01*
X026401Y011901D01*
X026163Y011281D02*
X026163Y010881D01*
X026030Y011014D01*
X025897Y010881D01*
X025897Y011281D01*
X025897Y010881D01*
X026030Y011014D01*
X026163Y010881D01*
X026163Y011281D01*
X025703Y011214D02*
X025703Y011148D01*
X025436Y010881D01*
X025703Y010881D01*
X025436Y010881D01*
X025703Y011148D01*
X025703Y011214D01*
X025636Y011281D01*
X025503Y011281D01*
X025436Y011214D01*
X025503Y011281D01*
X025636Y011281D01*
X025703Y011214D01*
X025243Y011281D02*
X024976Y010881D01*
X025243Y011281D01*
X024851Y011451D02*
X024851Y010751D01*
X024849Y010731D01*
X024843Y010713D01*
X024834Y010695D01*
X024822Y010680D01*
X024807Y010668D01*
X024789Y010659D01*
X024771Y010653D01*
X024751Y010651D01*
X024601Y010651D01*
X024551Y010701D01*
X022651Y010701D01*
X022601Y010651D01*
X022451Y010651D01*
X022431Y010653D01*
X022413Y010659D01*
X022395Y010668D01*
X022380Y010680D01*
X022368Y010695D01*
X022359Y010713D01*
X022353Y010731D01*
X022351Y010751D01*
X022351Y011451D01*
X022353Y011471D01*
X022359Y011489D01*
X022368Y011507D01*
X022380Y011522D01*
X022395Y011534D01*
X022413Y011543D01*
X022431Y011549D01*
X022451Y011551D01*
X022601Y011551D01*
X022651Y011501D01*
X024551Y011501D01*
X024601Y011551D01*
X024751Y011551D01*
X024771Y011549D01*
X024789Y011543D01*
X024807Y011534D01*
X024822Y011522D01*
X024834Y011507D01*
X024843Y011489D01*
X024849Y011471D01*
X024851Y011451D01*
X024849Y011471D01*
X024843Y011489D01*
X024834Y011507D01*
X024822Y011522D01*
X024807Y011534D01*
X024789Y011543D01*
X024771Y011549D01*
X024751Y011551D01*
X024659Y011281D02*
X024592Y011214D01*
X024659Y011281D01*
X024659Y010881D01*
X024659Y011281D01*
X024592Y010881D02*
X024726Y010881D01*
X024592Y010881D01*
X024751Y010651D02*
X024771Y010653D01*
X024789Y010659D01*
X024807Y010668D01*
X024822Y010680D01*
X024834Y010695D01*
X024843Y010713D01*
X024849Y010731D01*
X024851Y010751D01*
X024151Y010501D02*
X026051Y010501D01*
X026101Y010551D01*
X026251Y010551D01*
X026271Y010549D01*
X026289Y010543D01*
X026307Y010534D01*
X026322Y010522D01*
X026334Y010507D01*
X026343Y010489D01*
X026349Y010471D01*
X026351Y010451D01*
X026351Y009751D01*
X026349Y009731D01*
X026343Y009713D01*
X026334Y009695D01*
X026322Y009680D01*
X026307Y009668D01*
X026289Y009659D01*
X026271Y009653D01*
X026251Y009651D01*
X026101Y009651D01*
X026051Y009701D01*
X024151Y009701D01*
X024101Y009651D01*
X023951Y009651D01*
X023931Y009653D01*
X023913Y009659D01*
X023895Y009668D01*
X023880Y009680D01*
X023868Y009695D01*
X023859Y009713D01*
X023853Y009731D01*
X023851Y009751D01*
X023851Y010451D01*
X023853Y010471D01*
X023859Y010489D01*
X023868Y010507D01*
X023880Y010522D01*
X023895Y010534D01*
X023913Y010543D01*
X023931Y010549D01*
X023951Y010551D01*
X024101Y010551D01*
X024151Y010501D01*
X023951Y010551D02*
X023931Y010549D01*
X023913Y010543D01*
X023895Y010534D01*
X023880Y010522D01*
X023868Y010507D01*
X023859Y010489D01*
X023853Y010471D01*
X023851Y010451D01*
X023872Y010881D02*
X023738Y010881D01*
X023671Y010947D01*
X023938Y011214D01*
X023938Y010947D01*
X023872Y010881D01*
X023738Y010881D01*
X023671Y010947D01*
X023671Y011214D01*
X023738Y011281D01*
X023872Y011281D01*
X023938Y011214D01*
X023671Y010947D01*
X023671Y011214D01*
X023738Y011281D01*
X023872Y011281D01*
X023938Y011214D01*
X023938Y010947D01*
X023872Y010881D01*
X023478Y010947D02*
X023478Y011014D01*
X023411Y011081D01*
X023278Y011081D01*
X023211Y011148D01*
X023211Y011214D01*
X023278Y011281D01*
X023411Y011281D01*
X023478Y011214D01*
X023478Y011148D01*
X023411Y011081D01*
X023278Y011081D01*
X023211Y011014D01*
X023211Y010947D01*
X023278Y010881D01*
X023411Y010881D01*
X023478Y010947D01*
X023411Y010881D01*
X023278Y010881D01*
X023211Y010947D01*
X023211Y011014D01*
X023278Y011081D01*
X023211Y011148D01*
X023211Y011214D01*
X023278Y011281D01*
X023411Y011281D01*
X023478Y011214D01*
X023478Y011148D01*
X023411Y011081D01*
X023478Y011014D01*
X023478Y010947D01*
X023018Y010947D02*
X023018Y011014D01*
X022951Y011081D01*
X022751Y011081D01*
X022751Y010947D01*
X022817Y010881D01*
X022951Y010881D01*
X023018Y010947D01*
X023018Y011014D01*
X022951Y011081D01*
X022751Y011081D01*
X022884Y011214D01*
X023018Y011281D01*
X022884Y011214D01*
X022751Y011081D01*
X022751Y010947D01*
X022817Y010881D01*
X022951Y010881D01*
X023018Y010947D01*
X022451Y010651D02*
X022431Y010653D01*
X022413Y010659D01*
X022395Y010668D01*
X022380Y010680D01*
X022368Y010695D01*
X022359Y010713D01*
X022353Y010731D01*
X022351Y010751D01*
X022351Y011451D02*
X022353Y011471D01*
X022359Y011489D01*
X022368Y011507D01*
X022380Y011522D01*
X022395Y011534D01*
X022413Y011543D01*
X022431Y011549D01*
X022451Y011551D01*
X022401Y011701D02*
X022401Y012101D01*
X022601Y012101D01*
X022668Y012034D01*
X022668Y011901D01*
X022601Y011834D01*
X022401Y011834D01*
X022601Y011834D01*
X022668Y011901D01*
X022668Y012034D01*
X022601Y012101D01*
X022401Y012101D01*
X022401Y011701D01*
X022534Y011834D02*
X022668Y011701D01*
X022534Y011834D01*
X022861Y011767D02*
X022861Y011701D01*
X022861Y011767D01*
X023128Y012034D01*
X023128Y012101D01*
X022861Y012101D01*
X023128Y012101D01*
X023128Y012034D01*
X022861Y011767D01*
X024801Y012801D02*
X024801Y012901D01*
X024801Y012801D02*
X024901Y012801D01*
X025301Y012801D02*
X025401Y012801D01*
X025401Y012901D01*
X025401Y013301D02*
X025401Y013401D01*
X025301Y013401D01*
X024901Y013401D02*
X024801Y013401D01*
X024801Y013301D01*
X027601Y012451D02*
X027601Y009751D01*
X027603Y009731D01*
X027609Y009713D01*
X027618Y009695D01*
X027630Y009680D01*
X027645Y009668D01*
X027663Y009659D01*
X027681Y009653D01*
X027701Y009651D01*
X028501Y009651D01*
X028521Y009653D01*
X028539Y009659D01*
X028557Y009668D01*
X028572Y009680D01*
X028584Y009695D01*
X028593Y009713D01*
X028599Y009731D01*
X028601Y009751D01*
X028601Y012451D01*
X028599Y012471D01*
X028593Y012489D01*
X028584Y012507D01*
X028572Y012522D01*
X028557Y012534D01*
X028539Y012543D01*
X028521Y012549D01*
X028501Y012551D01*
X027701Y012551D01*
X027681Y012549D01*
X027663Y012543D01*
X027645Y012534D01*
X027630Y012522D01*
X027618Y012507D01*
X027609Y012489D01*
X027603Y012471D01*
X027601Y012451D01*
X027603Y012471D01*
X027609Y012489D01*
X027618Y012507D01*
X027630Y012522D01*
X027645Y012534D01*
X027663Y012543D01*
X027681Y012549D01*
X027701Y012551D01*
X028501Y012551D02*
X028521Y012549D01*
X028539Y012543D01*
X028557Y012534D01*
X028572Y012522D01*
X028584Y012507D01*
X028593Y012489D01*
X028599Y012471D01*
X028601Y012451D01*
X028101Y011701D02*
X028101Y011231D01*
X028101Y010981D02*
X028101Y010501D01*
X027401Y010461D02*
X027000Y010461D01*
X027201Y010261D01*
X027201Y010528D01*
X027201Y010261D01*
X027000Y010461D01*
X027401Y010461D01*
X027334Y010068D02*
X027401Y010001D01*
X027401Y009867D01*
X027334Y009801D01*
X027067Y009801D01*
X027000Y009867D01*
X027000Y010001D01*
X027067Y010068D01*
X027000Y010001D01*
X027000Y009867D01*
X027067Y009801D01*
X027334Y009801D01*
X027401Y009867D01*
X027401Y010001D01*
X027334Y010068D01*
X027601Y009751D02*
X027603Y009731D01*
X027609Y009713D01*
X027618Y009695D01*
X027630Y009680D01*
X027645Y009668D01*
X027663Y009659D01*
X027681Y009653D01*
X027701Y009651D01*
X028501Y009651D02*
X028521Y009653D01*
X028539Y009659D01*
X028557Y009668D01*
X028572Y009680D01*
X028584Y009695D01*
X028593Y009713D01*
X028599Y009731D01*
X028601Y009751D01*
X028817Y010184D02*
X028750Y010251D01*
X029151Y010251D01*
X028750Y010251D01*
X028817Y010184D01*
X029151Y010184D02*
X029151Y010318D01*
X029151Y010184D01*
X029151Y009867D02*
X029084Y009867D01*
X029084Y009801D01*
X029151Y009801D01*
X029151Y009867D01*
X029151Y009801D01*
X029084Y009801D01*
X029084Y009867D01*
X029151Y009867D01*
X029084Y010568D02*
X029151Y010635D01*
X029151Y010835D01*
X028884Y010835D01*
X029151Y010835D01*
X029151Y010635D01*
X029084Y010568D01*
X028884Y010568D01*
X029084Y010568D01*
X028951Y011028D02*
X028951Y011162D01*
X028951Y011028D01*
X028817Y011095D02*
X028750Y011162D01*
X028817Y011095D01*
X029151Y011095D01*
X028817Y011095D01*
X026351Y010451D02*
X026349Y010471D01*
X026343Y010489D01*
X026334Y010507D01*
X026322Y010522D01*
X026307Y010534D01*
X026289Y010543D01*
X026271Y010549D01*
X026251Y010551D01*
X025847Y010234D02*
X025580Y009967D01*
X025647Y009901D01*
X025781Y009901D01*
X025847Y009967D01*
X025847Y010234D01*
X025781Y010301D01*
X025647Y010301D01*
X025580Y010234D01*
X025580Y009967D01*
X025847Y010234D01*
X025847Y009967D01*
X025781Y009901D01*
X025647Y009901D01*
X025580Y009967D01*
X025580Y010234D01*
X025647Y010301D01*
X025781Y010301D01*
X025847Y010234D01*
X025387Y010234D02*
X025387Y010168D01*
X025120Y009901D01*
X025387Y009901D01*
X025120Y009901D01*
X025387Y010168D01*
X025387Y010234D01*
X025320Y010301D01*
X025187Y010301D01*
X025120Y010234D01*
X025187Y010301D01*
X025320Y010301D01*
X025387Y010234D01*
X024927Y010234D02*
X024927Y010168D01*
X024660Y009901D01*
X024927Y009901D01*
X024660Y009901D01*
X024927Y010168D01*
X024927Y010234D01*
X024860Y010301D01*
X024726Y010301D01*
X024660Y010234D01*
X024726Y010301D01*
X024860Y010301D01*
X024927Y010234D01*
X023951Y009651D02*
X023931Y009653D01*
X023913Y009659D01*
X023895Y009668D01*
X023880Y009680D01*
X023868Y009695D01*
X023859Y009713D01*
X023853Y009731D01*
X023851Y009751D01*
X023951Y009151D02*
X024151Y009151D01*
X024218Y009084D01*
X024218Y008951D01*
X024151Y008884D01*
X023951Y008884D01*
X024151Y008884D01*
X024218Y008951D01*
X024218Y009084D01*
X024151Y009151D01*
X023951Y009151D01*
X023951Y008751D01*
X023951Y009151D01*
X024084Y008884D02*
X024218Y008751D01*
X024084Y008884D01*
X024101Y008551D02*
X023951Y008551D01*
X023931Y008549D01*
X023913Y008543D01*
X023895Y008534D01*
X023880Y008522D01*
X023868Y008507D01*
X023859Y008489D01*
X023853Y008471D01*
X023851Y008451D01*
X023851Y007751D01*
X023853Y007731D01*
X023859Y007713D01*
X023868Y007695D01*
X023880Y007680D01*
X023895Y007668D01*
X023913Y007659D01*
X023931Y007653D01*
X023951Y007651D01*
X024101Y007651D01*
X024151Y007701D01*
X026051Y007701D01*
X026101Y007651D01*
X026251Y007651D01*
X026271Y007653D01*
X026289Y007659D01*
X026307Y007668D01*
X026322Y007680D01*
X026334Y007695D01*
X026343Y007713D01*
X026349Y007731D01*
X026351Y007751D01*
X026351Y008451D01*
X026349Y008471D01*
X026343Y008489D01*
X026334Y008507D01*
X026322Y008522D01*
X026307Y008534D01*
X026289Y008543D01*
X026271Y008549D01*
X026251Y008551D01*
X026101Y008551D01*
X026051Y008501D01*
X024151Y008501D01*
X024101Y008551D01*
X023951Y008551D02*
X023931Y008549D01*
X023913Y008543D01*
X023895Y008534D01*
X023880Y008522D01*
X023868Y008507D01*
X023859Y008489D01*
X023853Y008471D01*
X023851Y008451D01*
X024261Y008234D02*
X024327Y008301D01*
X024461Y008301D01*
X024528Y008234D01*
X024528Y008168D01*
X024261Y007901D01*
X024528Y007901D01*
X024261Y007901D01*
X024528Y008168D01*
X024528Y008234D01*
X024461Y008301D01*
X024327Y008301D01*
X024261Y008234D01*
X024721Y008234D02*
X024788Y008301D01*
X024921Y008301D01*
X024988Y008234D01*
X024988Y008168D01*
X024721Y007901D01*
X024988Y007901D01*
X024721Y007901D01*
X024988Y008168D01*
X024988Y008234D01*
X024921Y008301D01*
X024788Y008301D01*
X024721Y008234D01*
X025181Y008234D02*
X025181Y007967D01*
X025448Y008234D01*
X025448Y007967D01*
X025382Y007901D01*
X025248Y007901D01*
X025181Y007967D01*
X025448Y008234D01*
X025382Y008301D01*
X025248Y008301D01*
X025181Y008234D01*
X025248Y008301D01*
X025382Y008301D01*
X025448Y008234D01*
X025448Y007967D01*
X025382Y007901D01*
X025248Y007901D01*
X025181Y007967D01*
X025181Y008234D01*
X024995Y008751D02*
X024861Y008751D01*
X024795Y008817D01*
X025062Y009084D01*
X025062Y008817D01*
X024995Y008751D01*
X024861Y008751D01*
X024795Y008817D01*
X024795Y009084D01*
X024861Y009151D01*
X024995Y009151D01*
X025062Y009084D01*
X024795Y008817D01*
X024795Y009084D01*
X024861Y009151D01*
X024995Y009151D01*
X025062Y009084D01*
X025062Y008817D01*
X024995Y008751D01*
X024545Y008751D02*
X024411Y008751D01*
X024545Y008751D01*
X024478Y008751D02*
X024478Y009151D01*
X024411Y009084D01*
X024478Y009151D01*
X024478Y008751D01*
X025507Y009051D02*
X025507Y009451D01*
X025707Y009451D01*
X025774Y009384D01*
X025774Y009251D01*
X025707Y009184D01*
X025507Y009184D01*
X025707Y009184D01*
X025774Y009251D01*
X025774Y009384D01*
X025707Y009451D01*
X025507Y009451D01*
X025507Y009051D01*
X025640Y009184D02*
X025774Y009051D01*
X025640Y009184D01*
X025967Y009051D02*
X026101Y009051D01*
X025967Y009051D01*
X026034Y009051D02*
X026034Y009451D01*
X025967Y009384D01*
X026034Y009451D01*
X026034Y009051D01*
X026251Y008551D02*
X026271Y008549D01*
X026289Y008543D01*
X026307Y008534D01*
X026322Y008522D01*
X026334Y008507D01*
X026343Y008489D01*
X026349Y008471D01*
X026351Y008451D01*
X026351Y007751D02*
X026349Y007731D01*
X026343Y007713D01*
X026334Y007695D01*
X026322Y007680D01*
X026307Y007668D01*
X026289Y007659D01*
X026271Y007653D01*
X026251Y007651D01*
X023951Y007651D02*
X023931Y007653D01*
X023913Y007659D01*
X023895Y007668D01*
X023880Y007680D01*
X023868Y007695D01*
X023859Y007713D01*
X023853Y007731D01*
X023851Y007751D01*
X020882Y009617D02*
X020816Y009551D01*
X020682Y009551D01*
X020615Y009617D01*
X020882Y009884D01*
X020882Y009617D01*
X020816Y009551D01*
X020682Y009551D01*
X020615Y009617D01*
X020615Y009884D01*
X020682Y009951D01*
X020816Y009951D01*
X020882Y009884D01*
X020615Y009617D01*
X020615Y009884D01*
X020682Y009951D01*
X020816Y009951D01*
X020882Y009884D01*
X020882Y009617D01*
X020365Y009551D02*
X020232Y009551D01*
X020365Y009551D01*
X020299Y009551D02*
X020299Y009951D01*
X020232Y009884D01*
X020299Y009951D01*
X020299Y009551D01*
X020038Y009617D02*
X020038Y009884D01*
X019972Y009951D01*
X019771Y009951D01*
X019771Y009551D01*
X019972Y009551D01*
X020038Y009617D01*
X020038Y009884D01*
X019972Y009951D01*
X019771Y009951D01*
X019771Y009551D01*
X019972Y009551D01*
X020038Y009617D01*
X019578Y009551D02*
X019578Y009818D01*
X019445Y009951D01*
X019311Y009818D01*
X019311Y009551D01*
X019311Y009818D01*
X019445Y009951D01*
X019578Y009818D01*
X019578Y009551D01*
X019578Y009751D02*
X019311Y009751D01*
X019578Y009751D01*
X019118Y009751D02*
X019051Y009684D01*
X018851Y009684D01*
X019051Y009684D01*
X019118Y009751D01*
X019118Y009884D01*
X019051Y009951D01*
X018851Y009951D01*
X018851Y009551D01*
X018851Y009951D01*
X019051Y009951D01*
X019118Y009884D01*
X019118Y009751D01*
X019301Y009401D02*
X019401Y009401D01*
X019401Y009301D01*
X018901Y009401D02*
X018801Y009401D01*
X018801Y009301D01*
X018801Y008901D02*
X018801Y008801D01*
X018901Y008801D01*
X019301Y008801D02*
X019401Y008801D01*
X019401Y008901D01*
X016401Y011801D02*
X016301Y011801D01*
X016401Y011801D02*
X016401Y011901D01*
X015901Y011801D02*
X015801Y011801D01*
X015801Y011901D01*
X015801Y012301D02*
X015801Y012401D01*
X015901Y012401D01*
X015851Y012551D02*
X015851Y012951D01*
X016051Y012951D01*
X016118Y012884D01*
X016118Y012751D01*
X016051Y012684D01*
X015851Y012684D01*
X016051Y012684D01*
X016118Y012751D01*
X016118Y012884D01*
X016051Y012951D01*
X015851Y012951D01*
X015851Y012551D01*
X016311Y012551D02*
X016311Y012818D01*
X016445Y012951D01*
X016578Y012818D01*
X016578Y012551D01*
X016578Y012818D01*
X016445Y012951D01*
X016311Y012818D01*
X016311Y012551D01*
X016301Y012401D02*
X016401Y012401D01*
X016401Y012301D01*
X016771Y012551D02*
X016972Y012551D01*
X017038Y012617D01*
X017038Y012884D01*
X016972Y012951D01*
X016771Y012951D01*
X016771Y012551D01*
X016972Y012551D01*
X017038Y012617D01*
X017038Y012884D01*
X016972Y012951D01*
X016771Y012951D01*
X016771Y012551D01*
X016578Y012751D02*
X016311Y012751D01*
X016578Y012751D01*
X017232Y012617D02*
X017299Y012551D01*
X017432Y012551D01*
X017499Y012617D01*
X017499Y012684D01*
X017432Y012751D01*
X017365Y012751D01*
X017432Y012751D01*
X017499Y012818D01*
X017499Y012884D01*
X017432Y012951D01*
X017299Y012951D01*
X017232Y012884D01*
X017299Y012951D01*
X017432Y012951D01*
X017499Y012884D01*
X017499Y012818D01*
X017432Y012751D01*
X017499Y012684D01*
X017499Y012617D01*
X017432Y012551D01*
X017299Y012551D01*
X017232Y012617D01*
X016365Y013551D02*
X016232Y013551D01*
X016365Y013551D01*
X016299Y013551D02*
X016299Y013951D01*
X016232Y013884D01*
X016299Y013951D01*
X016299Y013551D01*
X016038Y013617D02*
X016038Y013884D01*
X015972Y013951D01*
X015771Y013951D01*
X015771Y013551D01*
X015972Y013551D01*
X016038Y013617D01*
X016038Y013884D01*
X015972Y013951D01*
X015771Y013951D01*
X015771Y013551D01*
X015972Y013551D01*
X016038Y013617D01*
X015578Y013551D02*
X015578Y013818D01*
X015445Y013951D01*
X015311Y013818D01*
X015311Y013551D01*
X015311Y013818D01*
X015445Y013951D01*
X015578Y013818D01*
X015578Y013551D01*
X015578Y013751D02*
X015311Y013751D01*
X015578Y013751D01*
X015118Y013751D02*
X015051Y013684D01*
X014851Y013684D01*
X015051Y013684D01*
X015118Y013751D01*
X015118Y013884D01*
X015051Y013951D01*
X014851Y013951D01*
X014851Y013551D01*
X014851Y013951D01*
X015051Y013951D01*
X015118Y013884D01*
X015118Y013751D01*
X015301Y013401D02*
X015401Y013401D01*
X015401Y013301D01*
X014901Y013401D02*
X014801Y013401D01*
X014801Y013301D01*
X014801Y012901D02*
X014801Y012801D01*
X014901Y012801D01*
X015301Y012801D02*
X015401Y012801D01*
X015401Y012901D01*
X016801Y014801D02*
X016801Y014901D01*
X016801Y014801D02*
X016901Y014801D01*
X017301Y014801D02*
X017401Y014801D01*
X017401Y014901D01*
X017401Y015301D02*
X017401Y015401D01*
X017301Y015401D01*
X017311Y015551D02*
X017311Y015818D01*
X017445Y015951D01*
X017578Y015818D01*
X017578Y015551D01*
X017578Y015818D01*
X017445Y015951D01*
X017311Y015818D01*
X017311Y015551D01*
X017311Y015751D02*
X017578Y015751D01*
X017311Y015751D01*
X017118Y015751D02*
X017051Y015684D01*
X016851Y015684D01*
X017051Y015684D01*
X017118Y015751D01*
X017118Y015884D01*
X017051Y015951D01*
X016851Y015951D01*
X016851Y015551D01*
X016851Y015951D01*
X017051Y015951D01*
X017118Y015884D01*
X017118Y015751D01*
X017771Y015951D02*
X017771Y015551D01*
X017972Y015551D01*
X018038Y015617D01*
X018038Y015884D01*
X017972Y015951D01*
X017771Y015951D01*
X017972Y015951D01*
X018038Y015884D01*
X018038Y015617D01*
X017972Y015551D01*
X017771Y015551D01*
X017771Y015951D01*
X018232Y015751D02*
X018432Y015751D01*
X018499Y015684D01*
X018499Y015617D01*
X018432Y015551D01*
X018299Y015551D01*
X018232Y015617D01*
X018232Y015751D01*
X018365Y015884D01*
X018499Y015951D01*
X018365Y015884D01*
X018232Y015751D01*
X018432Y015751D01*
X018499Y015684D01*
X018499Y015617D01*
X018432Y015551D01*
X018299Y015551D01*
X018232Y015617D01*
X018232Y015751D01*
X016901Y015401D02*
X016801Y015401D01*
X016801Y015301D01*
X017801Y016801D02*
X017801Y016901D01*
X017801Y016801D02*
X017901Y016801D01*
X018301Y016801D02*
X018401Y016801D01*
X018401Y016901D01*
X018401Y017301D02*
X018401Y017401D01*
X018301Y017401D01*
X017901Y017401D02*
X017801Y017401D01*
X017801Y017301D01*
X015281Y018811D02*
X015283Y018858D01*
X015290Y018905D01*
X015300Y018951D01*
X015315Y018996D01*
X015334Y019040D01*
X015357Y019081D01*
X015383Y019120D01*
X015413Y019157D01*
X015446Y019191D01*
X015482Y019222D01*
X015521Y019249D01*
X015562Y019273D01*
X015605Y019293D01*
X015649Y019308D01*
X015695Y019320D01*
X015742Y019328D01*
X015789Y019331D01*
X015836Y019330D01*
X015884Y019324D01*
X015930Y019315D01*
X015975Y019301D01*
X016019Y019283D01*
X016061Y019261D01*
X016101Y019236D01*
X016138Y019207D01*
X016173Y019174D01*
X016204Y019139D01*
X016233Y019101D01*
X016257Y019061D01*
X016278Y019018D01*
X016295Y018974D01*
X016308Y018928D01*
X016316Y018882D01*
X016320Y018835D01*
X016320Y018787D01*
X016316Y018740D01*
X016308Y018694D01*
X016295Y018648D01*
X016278Y018604D01*
X016257Y018561D01*
X016233Y018521D01*
X016204Y018483D01*
X016173Y018448D01*
X016138Y018415D01*
X016101Y018386D01*
X016061Y018361D01*
X016019Y018339D01*
X015975Y018321D01*
X015930Y018307D01*
X015884Y018298D01*
X015836Y018292D01*
X015789Y018291D01*
X015742Y018294D01*
X015695Y018302D01*
X015649Y018314D01*
X015605Y018329D01*
X015562Y018349D01*
X015521Y018373D01*
X015482Y018400D01*
X015446Y018431D01*
X015413Y018465D01*
X015383Y018502D01*
X015357Y018541D01*
X015334Y018582D01*
X015315Y018626D01*
X015300Y018671D01*
X015290Y018717D01*
X015283Y018764D01*
X015281Y018811D01*
X015283Y018858D01*
X015290Y018905D01*
X015300Y018951D01*
X015315Y018996D01*
X015334Y019040D01*
X015357Y019081D01*
X015383Y019120D01*
X015413Y019157D01*
X015446Y019191D01*
X015482Y019222D01*
X015521Y019249D01*
X015562Y019273D01*
X015605Y019293D01*
X015649Y019308D01*
X015695Y019320D01*
X015742Y019328D01*
X015789Y019331D01*
X015836Y019330D01*
X015884Y019324D01*
X015930Y019315D01*
X015975Y019301D01*
X016019Y019283D01*
X016061Y019261D01*
X016101Y019236D01*
X016138Y019207D01*
X016173Y019174D01*
X016204Y019139D01*
X016233Y019101D01*
X016257Y019061D01*
X016278Y019018D01*
X016295Y018974D01*
X016308Y018928D01*
X016316Y018882D01*
X016320Y018835D01*
X016320Y018787D01*
X016316Y018740D01*
X016308Y018694D01*
X016295Y018648D01*
X016278Y018604D01*
X016257Y018561D01*
X016233Y018521D01*
X016204Y018483D01*
X016173Y018448D01*
X016138Y018415D01*
X016101Y018386D01*
X016061Y018361D01*
X016019Y018339D01*
X015975Y018321D01*
X015930Y018307D01*
X015884Y018298D01*
X015836Y018292D01*
X015789Y018291D01*
X015742Y018294D01*
X015695Y018302D01*
X015649Y018314D01*
X015605Y018329D01*
X015562Y018349D01*
X015521Y018373D01*
X015482Y018400D01*
X015446Y018431D01*
X015413Y018465D01*
X015383Y018502D01*
X015357Y018541D01*
X015334Y018582D01*
X015315Y018626D01*
X015300Y018671D01*
X015290Y018717D01*
X015283Y018764D01*
X015281Y018811D01*
X013901Y017851D02*
X013801Y017951D01*
X013801Y021901D01*
X014681Y024541D01*
X014901Y024701D02*
X016601Y024701D01*
X016841Y024521D02*
X017091Y023561D01*
X017351Y023351D02*
X018751Y023351D01*
X018601Y023051D02*
X018101Y022051D01*
X017601Y023051D01*
X018601Y023051D01*
X019201Y022951D02*
X019201Y023351D01*
X019201Y022951D02*
X020001Y022951D01*
X020001Y023351D01*
X020451Y023351D02*
X020451Y020501D01*
X020451Y019701D02*
X035751Y019701D01*
X035751Y020501D01*
X035751Y023351D01*
X036201Y023351D01*
X036201Y022951D01*
X037001Y022951D01*
X037001Y023351D01*
X037451Y023351D01*
X037001Y023351D02*
X036201Y023351D01*
X038111Y023561D02*
X038361Y024521D01*
X038601Y024701D02*
X040301Y024701D01*
X040201Y024451D02*
X038701Y024451D01*
X038701Y023351D01*
X040201Y023351D01*
X040201Y024451D01*
X040521Y024541D02*
X041401Y021901D01*
X041401Y017951D01*
X041301Y017851D01*
X040401Y017851D01*
X038881Y018811D02*
X038883Y018858D01*
X038890Y018905D01*
X038900Y018951D01*
X038915Y018996D01*
X038934Y019040D01*
X038957Y019081D01*
X038983Y019120D01*
X039013Y019157D01*
X039046Y019191D01*
X039082Y019222D01*
X039121Y019249D01*
X039162Y019273D01*
X039205Y019293D01*
X039249Y019308D01*
X039295Y019320D01*
X039342Y019328D01*
X039389Y019331D01*
X039436Y019330D01*
X039484Y019324D01*
X039530Y019315D01*
X039575Y019301D01*
X039619Y019283D01*
X039661Y019261D01*
X039701Y019236D01*
X039738Y019207D01*
X039773Y019174D01*
X039804Y019139D01*
X039833Y019101D01*
X039857Y019061D01*
X039878Y019018D01*
X039895Y018974D01*
X039908Y018928D01*
X039916Y018882D01*
X039920Y018835D01*
X039920Y018787D01*
X039916Y018740D01*
X039908Y018694D01*
X039895Y018648D01*
X039878Y018604D01*
X039857Y018561D01*
X039833Y018521D01*
X039804Y018483D01*
X039773Y018448D01*
X039738Y018415D01*
X039701Y018386D01*
X039661Y018361D01*
X039619Y018339D01*
X039575Y018321D01*
X039530Y018307D01*
X039484Y018298D01*
X039436Y018292D01*
X039389Y018291D01*
X039342Y018294D01*
X039295Y018302D01*
X039249Y018314D01*
X039205Y018329D01*
X039162Y018349D01*
X039121Y018373D01*
X039082Y018400D01*
X039046Y018431D01*
X039013Y018465D01*
X038983Y018502D01*
X038957Y018541D01*
X038934Y018582D01*
X038915Y018626D01*
X038900Y018671D01*
X038890Y018717D01*
X038883Y018764D01*
X038881Y018811D01*
X038883Y018858D01*
X038890Y018905D01*
X038900Y018951D01*
X038915Y018996D01*
X038934Y019040D01*
X038957Y019081D01*
X038983Y019120D01*
X039013Y019157D01*
X039046Y019191D01*
X039082Y019222D01*
X039121Y019249D01*
X039162Y019273D01*
X039205Y019293D01*
X039249Y019308D01*
X039295Y019320D01*
X039342Y019328D01*
X039389Y019331D01*
X039436Y019330D01*
X039484Y019324D01*
X039530Y019315D01*
X039575Y019301D01*
X039619Y019283D01*
X039661Y019261D01*
X039701Y019236D01*
X039738Y019207D01*
X039773Y019174D01*
X039804Y019139D01*
X039833Y019101D01*
X039857Y019061D01*
X039878Y019018D01*
X039895Y018974D01*
X039908Y018928D01*
X039916Y018882D01*
X039920Y018835D01*
X039920Y018787D01*
X039916Y018740D01*
X039908Y018694D01*
X039895Y018648D01*
X039878Y018604D01*
X039857Y018561D01*
X039833Y018521D01*
X039804Y018483D01*
X039773Y018448D01*
X039738Y018415D01*
X039701Y018386D01*
X039661Y018361D01*
X039619Y018339D01*
X039575Y018321D01*
X039530Y018307D01*
X039484Y018298D01*
X039436Y018292D01*
X039389Y018291D01*
X039342Y018294D01*
X039295Y018302D01*
X039249Y018314D01*
X039205Y018329D01*
X039162Y018349D01*
X039121Y018373D01*
X039082Y018400D01*
X039046Y018431D01*
X039013Y018465D01*
X038983Y018502D01*
X038957Y018541D01*
X038934Y018582D01*
X038915Y018626D01*
X038900Y018671D01*
X038890Y018717D01*
X038883Y018764D01*
X038881Y018811D01*
X037451Y019701D02*
X035751Y019701D01*
X035751Y020501D02*
X036301Y020501D01*
X036301Y020801D01*
X036901Y020801D01*
X036901Y020501D01*
X037451Y020501D01*
X036901Y020801D02*
X036901Y021401D01*
X036899Y021435D01*
X036893Y021468D01*
X036884Y021500D01*
X036871Y021531D01*
X036855Y021561D01*
X036836Y021588D01*
X036813Y021613D01*
X036788Y021636D01*
X036761Y021655D01*
X036731Y021671D01*
X036700Y021684D01*
X036668Y021693D01*
X036635Y021699D01*
X036601Y021701D01*
X036567Y021699D01*
X036534Y021693D01*
X036502Y021684D01*
X036471Y021671D01*
X036441Y021655D01*
X036414Y021636D01*
X036389Y021613D01*
X036366Y021588D01*
X036347Y021561D01*
X036331Y021531D01*
X036318Y021500D01*
X036309Y021468D01*
X036303Y021435D01*
X036301Y021401D01*
X036301Y020801D01*
X036301Y021401D02*
X036303Y021435D01*
X036309Y021468D01*
X036318Y021500D01*
X036331Y021531D01*
X036347Y021561D01*
X036366Y021588D01*
X036389Y021613D01*
X036414Y021636D01*
X036441Y021655D01*
X036471Y021671D01*
X036502Y021684D01*
X036534Y021693D01*
X036567Y021699D01*
X036601Y021701D01*
X036635Y021699D01*
X036668Y021693D01*
X036700Y021684D01*
X036731Y021671D01*
X036761Y021655D01*
X036788Y021636D01*
X036813Y021613D01*
X036836Y021588D01*
X036855Y021561D01*
X036871Y021531D01*
X036884Y021500D01*
X036893Y021468D01*
X036899Y021435D01*
X036901Y021401D01*
X039351Y021901D02*
X039353Y021951D01*
X039360Y022001D01*
X039371Y022049D01*
X039387Y022097D01*
X039407Y022143D01*
X039431Y022187D01*
X039459Y022228D01*
X039491Y022267D01*
X039526Y022303D01*
X039564Y022335D01*
X039605Y022364D01*
X039648Y022389D01*
X039693Y022410D01*
X039741Y022427D01*
X039789Y022439D01*
X039839Y022447D01*
X039888Y022451D01*
X039939Y022450D01*
X039988Y022444D01*
X040037Y022434D01*
X040085Y022419D01*
X040132Y022400D01*
X040176Y022377D01*
X040218Y022350D01*
X040258Y022320D01*
X040294Y022285D01*
X040328Y022248D01*
X040357Y022208D01*
X040383Y022165D01*
X040405Y022120D01*
X040423Y022073D01*
X040437Y022025D01*
X040446Y021976D01*
X040450Y021926D01*
X040450Y021876D01*
X040446Y021826D01*
X040437Y021777D01*
X040423Y021729D01*
X040405Y021682D01*
X040383Y021637D01*
X040357Y021594D01*
X040328Y021554D01*
X040294Y021517D01*
X040258Y021482D01*
X040218Y021452D01*
X040176Y021425D01*
X040132Y021402D01*
X040085Y021383D01*
X040037Y021368D01*
X039988Y021358D01*
X039939Y021352D01*
X039888Y021351D01*
X039839Y021355D01*
X039789Y021363D01*
X039741Y021375D01*
X039693Y021392D01*
X039648Y021413D01*
X039605Y021438D01*
X039564Y021467D01*
X039526Y021499D01*
X039491Y021535D01*
X039459Y021574D01*
X039431Y021615D01*
X039407Y021659D01*
X039387Y021705D01*
X039371Y021753D01*
X039360Y021801D01*
X039353Y021851D01*
X039351Y021901D01*
X039353Y021951D01*
X039360Y022001D01*
X039371Y022049D01*
X039387Y022097D01*
X039407Y022143D01*
X039431Y022187D01*
X039459Y022228D01*
X039491Y022267D01*
X039526Y022303D01*
X039564Y022335D01*
X039605Y022364D01*
X039648Y022389D01*
X039693Y022410D01*
X039741Y022427D01*
X039789Y022439D01*
X039839Y022447D01*
X039888Y022451D01*
X039939Y022450D01*
X039988Y022444D01*
X040037Y022434D01*
X040085Y022419D01*
X040132Y022400D01*
X040176Y022377D01*
X040218Y022350D01*
X040258Y022320D01*
X040294Y022285D01*
X040328Y022248D01*
X040357Y022208D01*
X040383Y022165D01*
X040405Y022120D01*
X040423Y022073D01*
X040437Y022025D01*
X040446Y021976D01*
X040450Y021926D01*
X040450Y021876D01*
X040446Y021826D01*
X040437Y021777D01*
X040423Y021729D01*
X040405Y021682D01*
X040383Y021637D01*
X040357Y021594D01*
X040328Y021554D01*
X040294Y021517D01*
X040258Y021482D01*
X040218Y021452D01*
X040176Y021425D01*
X040132Y021402D01*
X040085Y021383D01*
X040037Y021368D01*
X039988Y021358D01*
X039939Y021352D01*
X039888Y021351D01*
X039839Y021355D01*
X039789Y021363D01*
X039741Y021375D01*
X039693Y021392D01*
X039648Y021413D01*
X039605Y021438D01*
X039564Y021467D01*
X039526Y021499D01*
X039491Y021535D01*
X039459Y021574D01*
X039431Y021615D01*
X039407Y021659D01*
X039387Y021705D01*
X039371Y021753D01*
X039360Y021801D01*
X039353Y021851D01*
X039351Y021901D01*
X039251Y023651D02*
X039251Y024151D01*
X039001Y023901D01*
X039334Y023901D01*
X039001Y023901D01*
X039251Y024151D01*
X039251Y023651D01*
X039553Y023734D02*
X039887Y024068D01*
X039887Y023734D01*
X039803Y023651D01*
X039637Y023651D01*
X039553Y023734D01*
X039553Y024068D01*
X039637Y024151D01*
X039803Y024151D01*
X039887Y024068D01*
X039553Y023734D01*
X039637Y023651D01*
X039803Y023651D01*
X039887Y023734D01*
X039887Y024068D01*
X039803Y024151D01*
X039637Y024151D01*
X039553Y024068D01*
X039553Y023734D01*
X028451Y023351D02*
X028451Y020801D01*
X028451Y020401D01*
X026751Y020401D01*
X026751Y020801D01*
X028451Y020801D01*
X026751Y020801D02*
X026751Y023351D01*
X019901Y021401D02*
X019899Y021435D01*
X019893Y021468D01*
X019884Y021500D01*
X019871Y021531D01*
X019855Y021561D01*
X019836Y021588D01*
X019813Y021613D01*
X019788Y021636D01*
X019761Y021655D01*
X019731Y021671D01*
X019700Y021684D01*
X019668Y021693D01*
X019635Y021699D01*
X019601Y021701D01*
X019567Y021699D01*
X019534Y021693D01*
X019502Y021684D01*
X019471Y021671D01*
X019441Y021655D01*
X019414Y021636D01*
X019389Y021613D01*
X019366Y021588D01*
X019347Y021561D01*
X019331Y021531D01*
X019318Y021500D01*
X019309Y021468D01*
X019303Y021435D01*
X019301Y021401D01*
X014751Y021901D02*
X014753Y021951D01*
X014760Y022001D01*
X014771Y022049D01*
X014787Y022097D01*
X014807Y022143D01*
X014831Y022187D01*
X014859Y022228D01*
X014891Y022267D01*
X014926Y022303D01*
X014964Y022335D01*
X015005Y022364D01*
X015048Y022389D01*
X015093Y022410D01*
X015141Y022427D01*
X015189Y022439D01*
X015239Y022447D01*
X015288Y022451D01*
X015339Y022450D01*
X015388Y022444D01*
X015437Y022434D01*
X015485Y022419D01*
X015532Y022400D01*
X015576Y022377D01*
X015618Y022350D01*
X015658Y022320D01*
X015694Y022285D01*
X015728Y022248D01*
X015757Y022208D01*
X015783Y022165D01*
X015805Y022120D01*
X015823Y022073D01*
X015837Y022025D01*
X015846Y021976D01*
X015850Y021926D01*
X015850Y021876D01*
X015846Y021826D01*
X015837Y021777D01*
X015823Y021729D01*
X015805Y021682D01*
X015783Y021637D01*
X015757Y021594D01*
X015728Y021554D01*
X015694Y021517D01*
X015658Y021482D01*
X015618Y021452D01*
X015576Y021425D01*
X015532Y021402D01*
X015485Y021383D01*
X015437Y021368D01*
X015388Y021358D01*
X015339Y021352D01*
X015288Y021351D01*
X015239Y021355D01*
X015189Y021363D01*
X015141Y021375D01*
X015093Y021392D01*
X015048Y021413D01*
X015005Y021438D01*
X014964Y021467D01*
X014926Y021499D01*
X014891Y021535D01*
X014859Y021574D01*
X014831Y021615D01*
X014807Y021659D01*
X014787Y021705D01*
X014771Y021753D01*
X014760Y021801D01*
X014753Y021851D01*
X014751Y021901D01*
X014753Y021951D01*
X014760Y022001D01*
X014771Y022049D01*
X014787Y022097D01*
X014807Y022143D01*
X014831Y022187D01*
X014859Y022228D01*
X014891Y022267D01*
X014926Y022303D01*
X014964Y022335D01*
X015005Y022364D01*
X015048Y022389D01*
X015093Y022410D01*
X015141Y022427D01*
X015189Y022439D01*
X015239Y022447D01*
X015288Y022451D01*
X015339Y022450D01*
X015388Y022444D01*
X015437Y022434D01*
X015485Y022419D01*
X015532Y022400D01*
X015576Y022377D01*
X015618Y022350D01*
X015658Y022320D01*
X015694Y022285D01*
X015728Y022248D01*
X015757Y022208D01*
X015783Y022165D01*
X015805Y022120D01*
X015823Y022073D01*
X015837Y022025D01*
X015846Y021976D01*
X015850Y021926D01*
X015850Y021876D01*
X015846Y021826D01*
X015837Y021777D01*
X015823Y021729D01*
X015805Y021682D01*
X015783Y021637D01*
X015757Y021594D01*
X015728Y021554D01*
X015694Y021517D01*
X015658Y021482D01*
X015618Y021452D01*
X015576Y021425D01*
X015532Y021402D01*
X015485Y021383D01*
X015437Y021368D01*
X015388Y021358D01*
X015339Y021352D01*
X015288Y021351D01*
X015239Y021355D01*
X015189Y021363D01*
X015141Y021375D01*
X015093Y021392D01*
X015048Y021413D01*
X015005Y021438D01*
X014964Y021467D01*
X014926Y021499D01*
X014891Y021535D01*
X014859Y021574D01*
X014831Y021615D01*
X014807Y021659D01*
X014787Y021705D01*
X014771Y021753D01*
X014760Y021801D01*
X014753Y021851D01*
X014751Y021901D01*
X014801Y017851D02*
X013901Y017851D01*
X026251Y009651D02*
X026271Y009653D01*
X026289Y009659D01*
X026307Y009668D01*
X026322Y009680D01*
X026334Y009695D01*
X026343Y009713D01*
X026349Y009731D01*
X026351Y009751D01*
X031951Y009151D02*
X031951Y008751D01*
X031951Y009151D01*
X032151Y009151D01*
X032218Y009084D01*
X032218Y008951D01*
X032151Y008884D01*
X031951Y008884D01*
X032151Y008884D01*
X032218Y008951D01*
X032218Y009084D01*
X032151Y009151D01*
X031951Y009151D01*
X032084Y008884D02*
X032218Y008751D01*
X032084Y008884D01*
X032411Y008817D02*
X032478Y008751D01*
X032611Y008751D01*
X032678Y008817D01*
X032678Y008884D01*
X032611Y008951D01*
X032411Y008951D01*
X032411Y008817D01*
X032478Y008751D01*
X032611Y008751D01*
X032678Y008817D01*
X032678Y008884D01*
X032611Y008951D01*
X032411Y008951D01*
X032545Y009084D01*
X032678Y009151D01*
X032545Y009084D01*
X032411Y008951D01*
X032411Y008817D01*
X031951Y008551D02*
X031931Y008549D01*
X031913Y008543D01*
X031895Y008534D01*
X031880Y008522D01*
X031868Y008507D01*
X031859Y008489D01*
X031853Y008471D01*
X031851Y008451D01*
X037251Y011473D02*
X037251Y011607D01*
X037251Y011473D01*
X037184Y011857D02*
X036917Y011857D01*
X036850Y011923D01*
X036850Y012057D01*
X036917Y012124D01*
X036850Y012057D01*
X036850Y011923D01*
X036917Y011857D01*
X037184Y011857D01*
X037251Y011923D01*
X037251Y012057D01*
X037184Y012124D01*
X037251Y012057D01*
X037251Y011923D01*
X037184Y011857D01*
X037251Y012317D02*
X037251Y012451D01*
X037251Y012317D01*
X037251Y012384D02*
X036850Y012384D01*
X036917Y012317D01*
X036850Y012384D01*
X037251Y012384D01*
D14*
X030691Y017061D03*
X030691Y017061D03*
X027741Y015041D03*
X027741Y015041D03*
D15*
X028366Y015041D03*
X028366Y015041D03*
X026016Y015041D03*
X026016Y015041D03*
X028966Y017061D03*
X028966Y017061D03*
X031316Y017061D03*
X031316Y017061D03*
D16*
X029011Y007191D03*
X029011Y007191D03*
D17*
X029011Y007816D03*
X029011Y007816D03*
X029011Y005466D03*
X029011Y005466D03*
D18*
X028101Y021951D03*
X028101Y021951D03*
X027101Y021951D03*
X027101Y021951D03*
D19*
X018101Y022951D03*
X018101Y022951D03*
D20*
X018101Y022751D03*
X018101Y022751D03*
D21*
X018101Y022551D03*
X018101Y022551D03*
D22*
X018101Y022351D03*
X018101Y022351D03*
D23*
X018101Y022201D03*
X018101Y022201D03*
D24*
X017039Y023574D02*
X017128Y023586D01*
X017129Y023586D02*
X017135Y023559D01*
X017144Y023532D01*
X017157Y023506D01*
X017173Y023483D01*
X017192Y023461D01*
X017214Y023443D01*
X017237Y023427D01*
X017263Y023414D01*
X017290Y023404D01*
X017318Y023398D01*
X017346Y023396D01*
X017346Y023306D01*
X017312Y023308D01*
X017279Y023314D01*
X017246Y023324D01*
X017214Y023337D01*
X017185Y023354D01*
X017157Y023373D01*
X017131Y023396D01*
X017108Y023421D01*
X017088Y023448D01*
X017071Y023477D01*
X017057Y023509D01*
X017046Y023541D01*
X017039Y023574D01*
X017048Y023576D01*
X017055Y023543D01*
X017065Y023512D01*
X017079Y023482D01*
X017095Y023453D01*
X017115Y023426D01*
X017137Y023402D01*
X017162Y023380D01*
X017189Y023361D01*
X017218Y023345D01*
X017249Y023333D01*
X017281Y023323D01*
X017313Y023317D01*
X017346Y023315D01*
X017346Y023324D01*
X017314Y023326D01*
X017282Y023332D01*
X017252Y023341D01*
X017222Y023353D01*
X017194Y023369D01*
X017168Y023387D01*
X017144Y023408D01*
X017122Y023432D01*
X017103Y023458D01*
X017087Y023486D01*
X017074Y023515D01*
X017064Y023545D01*
X017057Y023577D01*
X017066Y023578D01*
X017073Y023545D01*
X017084Y023513D01*
X017098Y023483D01*
X017116Y023454D01*
X017137Y023428D01*
X017161Y023404D01*
X017188Y023384D01*
X017217Y023366D01*
X017247Y023352D01*
X017279Y023342D01*
X017312Y023336D01*
X017346Y023333D01*
X017346Y023342D01*
X017314Y023345D01*
X017282Y023351D01*
X017251Y023361D01*
X017221Y023374D01*
X017193Y023391D01*
X017167Y023411D01*
X017144Y023434D01*
X017124Y023459D01*
X017106Y023487D01*
X017092Y023516D01*
X017082Y023547D01*
X017075Y023579D01*
X017084Y023580D01*
X017091Y023550D01*
X017101Y023520D01*
X017114Y023491D01*
X017131Y023465D01*
X017151Y023440D01*
X017173Y023418D01*
X017198Y023399D01*
X017225Y023382D01*
X017254Y023369D01*
X017284Y023360D01*
X017315Y023353D01*
X017346Y023351D01*
X017346Y023360D01*
X017316Y023362D01*
X017286Y023368D01*
X017257Y023378D01*
X017229Y023390D01*
X017203Y023406D01*
X017179Y023425D01*
X017157Y023446D01*
X017138Y023470D01*
X017122Y023495D01*
X017109Y023523D01*
X017099Y023552D01*
X017093Y023582D01*
X017102Y023583D01*
X017109Y023551D01*
X017120Y023521D01*
X017134Y023493D01*
X017152Y023466D01*
X017173Y023442D01*
X017197Y023421D01*
X017224Y023403D01*
X017253Y023389D01*
X017283Y023378D01*
X017314Y023372D01*
X017346Y023369D01*
X017346Y023378D01*
X017315Y023381D01*
X017285Y023387D01*
X017256Y023397D01*
X017228Y023411D01*
X017203Y023428D01*
X017180Y023449D01*
X017159Y023472D01*
X017142Y023497D01*
X017128Y023525D01*
X017117Y023554D01*
X017111Y023584D01*
X017120Y023585D01*
X017126Y023556D01*
X017136Y023528D01*
X017150Y023502D01*
X017166Y023477D01*
X017186Y023455D01*
X017208Y023436D01*
X017233Y023419D01*
X017259Y023406D01*
X017287Y023396D01*
X017316Y023390D01*
X017346Y023387D01*
X017039Y023574D02*
X017128Y023586D01*
X017129Y023586D02*
X017135Y023559D01*
X017144Y023532D01*
X017157Y023506D01*
X017173Y023483D01*
X017192Y023461D01*
X017214Y023443D01*
X017237Y023427D01*
X017263Y023414D01*
X017290Y023404D01*
X017318Y023398D01*
X017346Y023396D01*
X017346Y023306D01*
X017312Y023308D01*
X017279Y023314D01*
X017246Y023324D01*
X017214Y023337D01*
X017185Y023354D01*
X017157Y023373D01*
X017131Y023396D01*
X017108Y023421D01*
X017088Y023448D01*
X017071Y023477D01*
X017057Y023509D01*
X017046Y023541D01*
X017039Y023574D01*
X017048Y023576D01*
X017055Y023543D01*
X017065Y023512D01*
X017079Y023482D01*
X017095Y023453D01*
X017115Y023426D01*
X017137Y023402D01*
X017162Y023380D01*
X017189Y023361D01*
X017218Y023345D01*
X017249Y023333D01*
X017281Y023323D01*
X017313Y023317D01*
X017346Y023315D01*
X017346Y023324D01*
X017314Y023326D01*
X017282Y023332D01*
X017252Y023341D01*
X017222Y023353D01*
X017194Y023369D01*
X017168Y023387D01*
X017144Y023408D01*
X017122Y023432D01*
X017103Y023458D01*
X017087Y023486D01*
X017074Y023515D01*
X017064Y023545D01*
X017057Y023577D01*
X017066Y023578D01*
X017073Y023545D01*
X017084Y023513D01*
X017098Y023483D01*
X017116Y023454D01*
X017137Y023428D01*
X017161Y023404D01*
X017188Y023384D01*
X017217Y023366D01*
X017247Y023352D01*
X017279Y023342D01*
X017312Y023336D01*
X017346Y023333D01*
X017346Y023342D01*
X017314Y023345D01*
X017282Y023351D01*
X017251Y023361D01*
X017221Y023374D01*
X017193Y023391D01*
X017167Y023411D01*
X017144Y023434D01*
X017124Y023459D01*
X017106Y023487D01*
X017092Y023516D01*
X017082Y023547D01*
X017075Y023579D01*
X017084Y023580D01*
X017091Y023550D01*
X017101Y023520D01*
X017114Y023491D01*
X017131Y023465D01*
X017151Y023440D01*
X017173Y023418D01*
X017198Y023399D01*
X017225Y023382D01*
X017254Y023369D01*
X017284Y023360D01*
X017315Y023353D01*
X017346Y023351D01*
X017346Y023360D01*
X017316Y023362D01*
X017286Y023368D01*
X017257Y023378D01*
X017229Y023390D01*
X017203Y023406D01*
X017179Y023425D01*
X017157Y023446D01*
X017138Y023470D01*
X017122Y023495D01*
X017109Y023523D01*
X017099Y023552D01*
X017093Y023582D01*
X017102Y023583D01*
X017109Y023551D01*
X017120Y023521D01*
X017134Y023493D01*
X017152Y023466D01*
X017173Y023442D01*
X017197Y023421D01*
X017224Y023403D01*
X017253Y023389D01*
X017283Y023378D01*
X017314Y023372D01*
X017346Y023369D01*
X017346Y023378D01*
X017315Y023381D01*
X017285Y023387D01*
X017256Y023397D01*
X017228Y023411D01*
X017203Y023428D01*
X017180Y023449D01*
X017159Y023472D01*
X017142Y023497D01*
X017128Y023525D01*
X017117Y023554D01*
X017111Y023584D01*
X017120Y023585D01*
X017126Y023556D01*
X017136Y023528D01*
X017150Y023502D01*
X017166Y023477D01*
X017186Y023455D01*
X017208Y023436D01*
X017233Y023419D01*
X017259Y023406D01*
X017287Y023396D01*
X017316Y023390D01*
X017346Y023387D01*
X016885Y024527D02*
X016798Y024505D01*
X016799Y024506D02*
X016790Y024530D01*
X016778Y024554D01*
X016764Y024575D01*
X016747Y024595D01*
X016727Y024613D01*
X016706Y024627D01*
X016682Y024639D01*
X016658Y024648D01*
X016632Y024654D01*
X016606Y024656D01*
X016606Y024745D01*
X016606Y024746D01*
X016641Y024743D01*
X016675Y024737D01*
X016708Y024726D01*
X016739Y024712D01*
X016769Y024694D01*
X016796Y024672D01*
X016821Y024648D01*
X016842Y024621D01*
X016860Y024592D01*
X016875Y024560D01*
X016886Y024527D01*
X016877Y024525D01*
X016867Y024557D01*
X016852Y024587D01*
X016835Y024616D01*
X016814Y024642D01*
X016790Y024666D01*
X016764Y024686D01*
X016735Y024704D01*
X016704Y024718D01*
X016672Y024728D01*
X016639Y024734D01*
X016606Y024737D01*
X016606Y024728D01*
X016638Y024725D01*
X016670Y024719D01*
X016701Y024709D01*
X016731Y024696D01*
X016758Y024679D01*
X016784Y024659D01*
X016807Y024636D01*
X016827Y024611D01*
X016844Y024583D01*
X016858Y024554D01*
X016868Y024523D01*
X016860Y024521D01*
X016850Y024551D01*
X016836Y024579D01*
X016820Y024606D01*
X016800Y024630D01*
X016778Y024652D01*
X016753Y024672D01*
X016726Y024688D01*
X016698Y024701D01*
X016668Y024710D01*
X016637Y024717D01*
X016606Y024719D01*
X016606Y024710D01*
X016636Y024708D01*
X016666Y024702D01*
X016695Y024692D01*
X016722Y024680D01*
X016748Y024664D01*
X016772Y024645D01*
X016794Y024624D01*
X016813Y024600D01*
X016829Y024575D01*
X016841Y024547D01*
X016851Y024519D01*
X016842Y024516D01*
X016833Y024544D01*
X016821Y024571D01*
X016805Y024595D01*
X016787Y024618D01*
X016766Y024639D01*
X016743Y024657D01*
X016718Y024672D01*
X016692Y024684D01*
X016664Y024693D01*
X016635Y024699D01*
X016606Y024701D01*
X016606Y024692D01*
X016637Y024689D01*
X016667Y024683D01*
X016696Y024672D01*
X016724Y024658D01*
X016749Y024641D01*
X016772Y024620D01*
X016793Y024597D01*
X016810Y024571D01*
X016824Y024544D01*
X016834Y024514D01*
X016825Y024512D01*
X016815Y024540D01*
X016802Y024567D01*
X016786Y024592D01*
X016766Y024614D01*
X016744Y024634D01*
X016719Y024651D01*
X016693Y024664D01*
X016665Y024674D01*
X016636Y024680D01*
X016606Y024683D01*
X016606Y024674D01*
X016634Y024671D01*
X016662Y024665D01*
X016689Y024656D01*
X016715Y024643D01*
X016738Y024627D01*
X016760Y024608D01*
X016778Y024586D01*
X016794Y024562D01*
X016807Y024537D01*
X016816Y024510D01*
X016807Y024508D01*
X016798Y024534D01*
X016786Y024558D01*
X016771Y024581D01*
X016753Y024601D01*
X016733Y024620D01*
X016710Y024635D01*
X016686Y024648D01*
X016660Y024657D01*
X016633Y024663D01*
X016606Y024665D01*
X016885Y024527D02*
X016798Y024505D01*
X016799Y024506D02*
X016790Y024530D01*
X016778Y024554D01*
X016764Y024575D01*
X016747Y024595D01*
X016727Y024613D01*
X016706Y024627D01*
X016682Y024639D01*
X016658Y024648D01*
X016632Y024654D01*
X016606Y024656D01*
X016606Y024745D01*
X016606Y024746D01*
X016641Y024743D01*
X016675Y024737D01*
X016708Y024726D01*
X016739Y024712D01*
X016769Y024694D01*
X016796Y024672D01*
X016821Y024648D01*
X016842Y024621D01*
X016860Y024592D01*
X016875Y024560D01*
X016886Y024527D01*
X016877Y024525D01*
X016867Y024557D01*
X016852Y024587D01*
X016835Y024616D01*
X016814Y024642D01*
X016790Y024666D01*
X016764Y024686D01*
X016735Y024704D01*
X016704Y024718D01*
X016672Y024728D01*
X016639Y024734D01*
X016606Y024737D01*
X016606Y024728D01*
X016638Y024725D01*
X016670Y024719D01*
X016701Y024709D01*
X016731Y024696D01*
X016758Y024679D01*
X016784Y024659D01*
X016807Y024636D01*
X016827Y024611D01*
X016844Y024583D01*
X016858Y024554D01*
X016868Y024523D01*
X016860Y024521D01*
X016850Y024551D01*
X016836Y024579D01*
X016820Y024606D01*
X016800Y024630D01*
X016778Y024652D01*
X016753Y024672D01*
X016726Y024688D01*
X016698Y024701D01*
X016668Y024710D01*
X016637Y024717D01*
X016606Y024719D01*
X016606Y024710D01*
X016636Y024708D01*
X016666Y024702D01*
X016695Y024692D01*
X016722Y024680D01*
X016748Y024664D01*
X016772Y024645D01*
X016794Y024624D01*
X016813Y024600D01*
X016829Y024575D01*
X016841Y024547D01*
X016851Y024519D01*
X016842Y024516D01*
X016833Y024544D01*
X016821Y024571D01*
X016805Y024595D01*
X016787Y024618D01*
X016766Y024639D01*
X016743Y024657D01*
X016718Y024672D01*
X016692Y024684D01*
X016664Y024693D01*
X016635Y024699D01*
X016606Y024701D01*
X016606Y024692D01*
X016637Y024689D01*
X016667Y024683D01*
X016696Y024672D01*
X016724Y024658D01*
X016749Y024641D01*
X016772Y024620D01*
X016793Y024597D01*
X016810Y024571D01*
X016824Y024544D01*
X016834Y024514D01*
X016825Y024512D01*
X016815Y024540D01*
X016802Y024567D01*
X016786Y024592D01*
X016766Y024614D01*
X016744Y024634D01*
X016719Y024651D01*
X016693Y024664D01*
X016665Y024674D01*
X016636Y024680D01*
X016606Y024683D01*
X016606Y024674D01*
X016634Y024671D01*
X016662Y024665D01*
X016689Y024656D01*
X016715Y024643D01*
X016738Y024627D01*
X016760Y024608D01*
X016778Y024586D01*
X016794Y024562D01*
X016807Y024537D01*
X016816Y024510D01*
X016807Y024508D01*
X016798Y024534D01*
X016786Y024558D01*
X016771Y024581D01*
X016753Y024601D01*
X016733Y024620D01*
X016710Y024635D01*
X016686Y024648D01*
X016660Y024657D01*
X016633Y024663D01*
X016606Y024665D01*
X014895Y024745D02*
X014895Y024655D01*
X014896Y024656D02*
X014871Y024654D01*
X014847Y024648D01*
X014824Y024639D01*
X014802Y024627D01*
X014782Y024613D01*
X014764Y024596D01*
X014749Y024576D01*
X014736Y024555D01*
X014726Y024532D01*
X014640Y024559D01*
X014641Y024560D01*
X014652Y024588D01*
X014667Y024615D01*
X014684Y024640D01*
X014704Y024663D01*
X014727Y024684D01*
X014751Y024702D01*
X014778Y024717D01*
X014806Y024729D01*
X014835Y024738D01*
X014865Y024744D01*
X014896Y024746D01*
X014896Y024737D01*
X014864Y024734D01*
X014832Y024728D01*
X014801Y024717D01*
X014772Y024703D01*
X014744Y024686D01*
X014719Y024665D01*
X014697Y024641D01*
X014677Y024615D01*
X014662Y024587D01*
X014649Y024557D01*
X014658Y024554D01*
X014670Y024583D01*
X014685Y024610D01*
X014704Y024636D01*
X014725Y024659D01*
X014749Y024679D01*
X014776Y024695D01*
X014804Y024709D01*
X014834Y024719D01*
X014865Y024725D01*
X014896Y024728D01*
X014896Y024719D01*
X014866Y024716D01*
X014836Y024710D01*
X014808Y024701D01*
X014780Y024688D01*
X014755Y024671D01*
X014731Y024652D01*
X014711Y024630D01*
X014693Y024606D01*
X014678Y024579D01*
X014666Y024551D01*
X014675Y024549D01*
X014686Y024575D01*
X014700Y024601D01*
X014718Y024624D01*
X014738Y024645D01*
X014760Y024664D01*
X014785Y024680D01*
X014811Y024692D01*
X014838Y024702D01*
X014867Y024708D01*
X014896Y024710D01*
X014896Y024701D01*
X014868Y024699D01*
X014841Y024693D01*
X014814Y024684D01*
X014789Y024672D01*
X014765Y024657D01*
X014744Y024639D01*
X014725Y024619D01*
X014708Y024596D01*
X014694Y024572D01*
X014684Y024546D01*
X014692Y024543D01*
X014704Y024571D01*
X014719Y024596D01*
X014737Y024620D01*
X014759Y024640D01*
X014783Y024658D01*
X014809Y024672D01*
X014837Y024683D01*
X014866Y024689D01*
X014896Y024692D01*
X014896Y024683D01*
X014868Y024680D01*
X014840Y024674D01*
X014813Y024664D01*
X014788Y024650D01*
X014765Y024633D01*
X014744Y024614D01*
X014726Y024591D01*
X014712Y024567D01*
X014701Y024540D01*
X014709Y024538D01*
X014720Y024563D01*
X014734Y024586D01*
X014751Y024608D01*
X014771Y024627D01*
X014793Y024643D01*
X014817Y024656D01*
X014842Y024665D01*
X014869Y024671D01*
X014896Y024674D01*
X014896Y024665D01*
X014870Y024663D01*
X014845Y024657D01*
X014820Y024647D01*
X014797Y024635D01*
X014776Y024620D01*
X014758Y024602D01*
X014741Y024581D01*
X014728Y024559D01*
X014718Y024535D01*
X014895Y024745D02*
X014895Y024655D01*
X014896Y024656D02*
X014871Y024654D01*
X014847Y024648D01*
X014824Y024639D01*
X014802Y024627D01*
X014782Y024613D01*
X014764Y024596D01*
X014749Y024576D01*
X014736Y024555D01*
X014726Y024532D01*
X014640Y024559D01*
X014641Y024560D01*
X014652Y024588D01*
X014667Y024615D01*
X014684Y024640D01*
X014704Y024663D01*
X014727Y024684D01*
X014751Y024702D01*
X014778Y024717D01*
X014806Y024729D01*
X014835Y024738D01*
X014865Y024744D01*
X014896Y024746D01*
X014896Y024737D01*
X014864Y024734D01*
X014832Y024728D01*
X014801Y024717D01*
X014772Y024703D01*
X014744Y024686D01*
X014719Y024665D01*
X014697Y024641D01*
X014677Y024615D01*
X014662Y024587D01*
X014649Y024557D01*
X014658Y024554D01*
X014670Y024583D01*
X014685Y024610D01*
X014704Y024636D01*
X014725Y024659D01*
X014749Y024679D01*
X014776Y024695D01*
X014804Y024709D01*
X014834Y024719D01*
X014865Y024725D01*
X014896Y024728D01*
X014896Y024719D01*
X014866Y024716D01*
X014836Y024710D01*
X014808Y024701D01*
X014780Y024688D01*
X014755Y024671D01*
X014731Y024652D01*
X014711Y024630D01*
X014693Y024606D01*
X014678Y024579D01*
X014666Y024551D01*
X014675Y024549D01*
X014686Y024575D01*
X014700Y024601D01*
X014718Y024624D01*
X014738Y024645D01*
X014760Y024664D01*
X014785Y024680D01*
X014811Y024692D01*
X014838Y024702D01*
X014867Y024708D01*
X014896Y024710D01*
X014896Y024701D01*
X014868Y024699D01*
X014841Y024693D01*
X014814Y024684D01*
X014789Y024672D01*
X014765Y024657D01*
X014744Y024639D01*
X014725Y024619D01*
X014708Y024596D01*
X014694Y024572D01*
X014684Y024546D01*
X014692Y024543D01*
X014704Y024571D01*
X014719Y024596D01*
X014737Y024620D01*
X014759Y024640D01*
X014783Y024658D01*
X014809Y024672D01*
X014837Y024683D01*
X014866Y024689D01*
X014896Y024692D01*
X014896Y024683D01*
X014868Y024680D01*
X014840Y024674D01*
X014813Y024664D01*
X014788Y024650D01*
X014765Y024633D01*
X014744Y024614D01*
X014726Y024591D01*
X014712Y024567D01*
X014701Y024540D01*
X014709Y024538D01*
X014720Y024563D01*
X014734Y024586D01*
X014751Y024608D01*
X014771Y024627D01*
X014793Y024643D01*
X014817Y024656D01*
X014842Y024665D01*
X014869Y024671D01*
X014896Y024674D01*
X014896Y024665D01*
X014870Y024663D01*
X014845Y024657D01*
X014820Y024647D01*
X014797Y024635D01*
X014776Y024620D01*
X014758Y024602D01*
X014741Y024581D01*
X014728Y024559D01*
X014718Y024535D01*
X037855Y023306D02*
X037855Y023396D01*
X037856Y023396D02*
X037884Y023398D01*
X037912Y023404D01*
X037939Y023414D01*
X037965Y023427D01*
X037988Y023443D01*
X038010Y023461D01*
X038029Y023483D01*
X038045Y023506D01*
X038058Y023532D01*
X038067Y023559D01*
X038073Y023586D01*
X038162Y023574D01*
X038163Y023574D01*
X038156Y023541D01*
X038145Y023509D01*
X038131Y023478D01*
X038114Y023448D01*
X038094Y023421D01*
X038071Y023396D01*
X038045Y023373D01*
X038017Y023354D01*
X037988Y023337D01*
X037956Y023324D01*
X037924Y023314D01*
X037890Y023308D01*
X037856Y023306D01*
X037856Y023315D01*
X037889Y023317D01*
X037922Y023323D01*
X037953Y023333D01*
X037984Y023345D01*
X038013Y023361D01*
X038040Y023380D01*
X038065Y023402D01*
X038087Y023426D01*
X038107Y023453D01*
X038123Y023482D01*
X038137Y023512D01*
X038147Y023543D01*
X038154Y023576D01*
X038145Y023577D01*
X038138Y023545D01*
X038128Y023515D01*
X038115Y023486D01*
X038099Y023458D01*
X038080Y023432D01*
X038058Y023408D01*
X038034Y023387D01*
X038008Y023369D01*
X037980Y023353D01*
X037950Y023341D01*
X037920Y023332D01*
X037888Y023326D01*
X037856Y023324D01*
X037856Y023333D01*
X037890Y023336D01*
X037923Y023342D01*
X037955Y023352D01*
X037985Y023366D01*
X038014Y023384D01*
X038041Y023404D01*
X038065Y023428D01*
X038086Y023454D01*
X038104Y023483D01*
X038118Y023513D01*
X038129Y023545D01*
X038136Y023578D01*
X038127Y023579D01*
X038120Y023547D01*
X038110Y023516D01*
X038096Y023487D01*
X038078Y023459D01*
X038058Y023434D01*
X038035Y023411D01*
X038009Y023391D01*
X037981Y023374D01*
X037952Y023361D01*
X037920Y023351D01*
X037888Y023345D01*
X037856Y023342D01*
X037856Y023351D01*
X037887Y023353D01*
X037918Y023360D01*
X037948Y023369D01*
X037977Y023382D01*
X038004Y023399D01*
X038029Y023418D01*
X038051Y023440D01*
X038071Y023465D01*
X038088Y023491D01*
X038101Y023520D01*
X038111Y023550D01*
X038118Y023580D01*
X038109Y023582D01*
X038103Y023552D01*
X038093Y023523D01*
X038080Y023495D01*
X038064Y023470D01*
X038045Y023446D01*
X038023Y023425D01*
X037999Y023406D01*
X037973Y023390D01*
X037945Y023378D01*
X037916Y023368D01*
X037886Y023362D01*
X037856Y023360D01*
X037856Y023369D01*
X037888Y023372D01*
X037919Y023378D01*
X037949Y023389D01*
X037978Y023403D01*
X038005Y023421D01*
X038029Y023442D01*
X038050Y023466D01*
X038068Y023493D01*
X038082Y023521D01*
X038093Y023551D01*
X038100Y023583D01*
X038091Y023584D01*
X038085Y023554D01*
X038074Y023525D01*
X038060Y023497D01*
X038043Y023472D01*
X038022Y023449D01*
X037999Y023428D01*
X037974Y023411D01*
X037946Y023397D01*
X037917Y023387D01*
X037887Y023381D01*
X037856Y023378D01*
X037856Y023387D01*
X037886Y023390D01*
X037915Y023396D01*
X037943Y023406D01*
X037969Y023419D01*
X037994Y023436D01*
X038016Y023455D01*
X038036Y023477D01*
X038052Y023502D01*
X038066Y023528D01*
X038076Y023556D01*
X038082Y023585D01*
X037855Y023306D02*
X037855Y023396D01*
X037856Y023396D02*
X037884Y023398D01*
X037912Y023404D01*
X037939Y023414D01*
X037965Y023427D01*
X037988Y023443D01*
X038010Y023461D01*
X038029Y023483D01*
X038045Y023506D01*
X038058Y023532D01*
X038067Y023559D01*
X038073Y023586D01*
X038162Y023574D01*
X038163Y023574D01*
X038156Y023541D01*
X038145Y023509D01*
X038131Y023478D01*
X038114Y023448D01*
X038094Y023421D01*
X038071Y023396D01*
X038045Y023373D01*
X038017Y023354D01*
X037988Y023337D01*
X037956Y023324D01*
X037924Y023314D01*
X037890Y023308D01*
X037856Y023306D01*
X037856Y023315D01*
X037889Y023317D01*
X037922Y023323D01*
X037953Y023333D01*
X037984Y023345D01*
X038013Y023361D01*
X038040Y023380D01*
X038065Y023402D01*
X038087Y023426D01*
X038107Y023453D01*
X038123Y023482D01*
X038137Y023512D01*
X038147Y023543D01*
X038154Y023576D01*
X038145Y023577D01*
X038138Y023545D01*
X038128Y023515D01*
X038115Y023486D01*
X038099Y023458D01*
X038080Y023432D01*
X038058Y023408D01*
X038034Y023387D01*
X038008Y023369D01*
X037980Y023353D01*
X037950Y023341D01*
X037920Y023332D01*
X037888Y023326D01*
X037856Y023324D01*
X037856Y023333D01*
X037890Y023336D01*
X037923Y023342D01*
X037955Y023352D01*
X037985Y023366D01*
X038014Y023384D01*
X038041Y023404D01*
X038065Y023428D01*
X038086Y023454D01*
X038104Y023483D01*
X038118Y023513D01*
X038129Y023545D01*
X038136Y023578D01*
X038127Y023579D01*
X038120Y023547D01*
X038110Y023516D01*
X038096Y023487D01*
X038078Y023459D01*
X038058Y023434D01*
X038035Y023411D01*
X038009Y023391D01*
X037981Y023374D01*
X037952Y023361D01*
X037920Y023351D01*
X037888Y023345D01*
X037856Y023342D01*
X037856Y023351D01*
X037887Y023353D01*
X037918Y023360D01*
X037948Y023369D01*
X037977Y023382D01*
X038004Y023399D01*
X038029Y023418D01*
X038051Y023440D01*
X038071Y023465D01*
X038088Y023491D01*
X038101Y023520D01*
X038111Y023550D01*
X038118Y023580D01*
X038109Y023582D01*
X038103Y023552D01*
X038093Y023523D01*
X038080Y023495D01*
X038064Y023470D01*
X038045Y023446D01*
X038023Y023425D01*
X037999Y023406D01*
X037973Y023390D01*
X037945Y023378D01*
X037916Y023368D01*
X037886Y023362D01*
X037856Y023360D01*
X037856Y023369D01*
X037888Y023372D01*
X037919Y023378D01*
X037949Y023389D01*
X037978Y023403D01*
X038005Y023421D01*
X038029Y023442D01*
X038050Y023466D01*
X038068Y023493D01*
X038082Y023521D01*
X038093Y023551D01*
X038100Y023583D01*
X038091Y023584D01*
X038085Y023554D01*
X038074Y023525D01*
X038060Y023497D01*
X038043Y023472D01*
X038022Y023449D01*
X037999Y023428D01*
X037974Y023411D01*
X037946Y023397D01*
X037917Y023387D01*
X037887Y023381D01*
X037856Y023378D01*
X037856Y023387D01*
X037886Y023390D01*
X037915Y023396D01*
X037943Y023406D01*
X037969Y023419D01*
X037994Y023436D01*
X038016Y023455D01*
X038036Y023477D01*
X038052Y023502D01*
X038066Y023528D01*
X038076Y023556D01*
X038082Y023585D01*
X038596Y024745D02*
X038596Y024655D01*
X038596Y024656D02*
X038568Y024653D01*
X038541Y024647D01*
X038514Y024637D01*
X038490Y024623D01*
X038467Y024606D01*
X038447Y024586D01*
X038430Y024564D01*
X038416Y024539D01*
X038406Y024513D01*
X038319Y024538D01*
X038331Y024570D01*
X038346Y024600D01*
X038365Y024628D01*
X038386Y024653D01*
X038411Y024677D01*
X038438Y024697D01*
X038467Y024714D01*
X038497Y024727D01*
X038530Y024737D01*
X038563Y024743D01*
X038596Y024746D01*
X038596Y024737D01*
X038564Y024735D01*
X038532Y024728D01*
X038501Y024719D01*
X038471Y024706D01*
X038443Y024689D01*
X038417Y024670D01*
X038393Y024647D01*
X038372Y024622D01*
X038354Y024595D01*
X038339Y024566D01*
X038328Y024536D01*
X038337Y024533D01*
X038348Y024563D01*
X038362Y024591D01*
X038379Y024617D01*
X038400Y024641D01*
X038422Y024663D01*
X038448Y024682D01*
X038475Y024698D01*
X038504Y024710D01*
X038534Y024720D01*
X038565Y024726D01*
X038596Y024728D01*
X038596Y024719D01*
X038566Y024717D01*
X038536Y024711D01*
X038507Y024702D01*
X038479Y024690D01*
X038453Y024674D01*
X038428Y024656D01*
X038406Y024635D01*
X038387Y024612D01*
X038370Y024586D01*
X038356Y024559D01*
X038345Y024531D01*
X038354Y024528D01*
X038365Y024558D01*
X038381Y024587D01*
X038399Y024613D01*
X038421Y024637D01*
X038446Y024658D01*
X038473Y024676D01*
X038502Y024690D01*
X038532Y024701D01*
X038564Y024707D01*
X038596Y024710D01*
X038596Y024701D01*
X038565Y024698D01*
X038534Y024692D01*
X038505Y024682D01*
X038477Y024668D01*
X038451Y024651D01*
X038427Y024631D01*
X038406Y024608D01*
X038388Y024582D01*
X038374Y024555D01*
X038362Y024526D01*
X038371Y024523D01*
X038382Y024551D01*
X038396Y024578D01*
X038413Y024602D01*
X038434Y024624D01*
X038456Y024644D01*
X038481Y024660D01*
X038508Y024673D01*
X038537Y024683D01*
X038566Y024689D01*
X038596Y024692D01*
X038596Y024683D01*
X038567Y024681D01*
X038539Y024675D01*
X038512Y024665D01*
X038486Y024652D01*
X038462Y024637D01*
X038440Y024618D01*
X038420Y024597D01*
X038404Y024573D01*
X038390Y024548D01*
X038380Y024521D01*
X038388Y024518D01*
X038398Y024544D01*
X038411Y024568D01*
X038427Y024591D01*
X038446Y024611D01*
X038467Y024629D01*
X038490Y024645D01*
X038515Y024657D01*
X038541Y024666D01*
X038568Y024672D01*
X038596Y024674D01*
X038596Y024665D01*
X038570Y024663D01*
X038544Y024657D01*
X038519Y024648D01*
X038495Y024637D01*
X038473Y024622D01*
X038452Y024605D01*
X038434Y024585D01*
X038419Y024564D01*
X038407Y024540D01*
X038397Y024516D01*
X038316Y024528D02*
X038403Y024504D01*
X038403Y024504D01*
X038315Y024526D01*
X038316Y024527D01*
X038316Y024528D01*
X038325Y024526D01*
X038325Y024525D01*
X038333Y024523D01*
X038334Y024523D01*
X038342Y024521D01*
X038342Y024520D01*
X038351Y024518D01*
X038351Y024518D01*
X038358Y024511D01*
X038361Y024521D01*
X038370Y024518D01*
X038367Y024509D01*
X038376Y024507D01*
X038378Y024516D01*
X038387Y024513D01*
X038385Y024505D01*
X038393Y024503D01*
X038395Y024511D01*
X038316Y024528D02*
X038403Y024504D01*
X038403Y024504D01*
X038315Y024526D01*
X038316Y024527D01*
X038316Y024528D01*
X038325Y024526D01*
X038325Y024525D01*
X038333Y024523D01*
X038334Y024523D01*
X038342Y024521D01*
X038342Y024520D01*
X038351Y024518D01*
X038351Y024518D01*
X038358Y024511D01*
X038361Y024521D01*
X038370Y024518D01*
X038367Y024509D01*
X038376Y024507D01*
X038378Y024516D01*
X038387Y024513D01*
X038385Y024505D01*
X038393Y024503D01*
X038395Y024511D01*
X038596Y024745D02*
X038596Y024655D01*
X038596Y024656D02*
X038568Y024653D01*
X038541Y024647D01*
X038514Y024637D01*
X038490Y024623D01*
X038467Y024606D01*
X038447Y024586D01*
X038430Y024564D01*
X038416Y024539D01*
X038406Y024513D01*
X038319Y024538D01*
X038331Y024570D01*
X038346Y024600D01*
X038365Y024628D01*
X038386Y024653D01*
X038411Y024677D01*
X038438Y024697D01*
X038467Y024714D01*
X038497Y024727D01*
X038530Y024737D01*
X038563Y024743D01*
X038596Y024746D01*
X038596Y024737D01*
X038564Y024735D01*
X038532Y024728D01*
X038501Y024719D01*
X038471Y024706D01*
X038443Y024689D01*
X038417Y024670D01*
X038393Y024647D01*
X038372Y024622D01*
X038354Y024595D01*
X038339Y024566D01*
X038328Y024536D01*
X038337Y024533D01*
X038348Y024563D01*
X038362Y024591D01*
X038379Y024617D01*
X038400Y024641D01*
X038422Y024663D01*
X038448Y024682D01*
X038475Y024698D01*
X038504Y024710D01*
X038534Y024720D01*
X038565Y024726D01*
X038596Y024728D01*
X038596Y024719D01*
X038566Y024717D01*
X038536Y024711D01*
X038507Y024702D01*
X038479Y024690D01*
X038453Y024674D01*
X038428Y024656D01*
X038406Y024635D01*
X038387Y024612D01*
X038370Y024586D01*
X038356Y024559D01*
X038345Y024531D01*
X038354Y024528D01*
X038365Y024558D01*
X038381Y024587D01*
X038399Y024613D01*
X038421Y024637D01*
X038446Y024658D01*
X038473Y024676D01*
X038502Y024690D01*
X038532Y024701D01*
X038564Y024707D01*
X038596Y024710D01*
X038596Y024701D01*
X038565Y024698D01*
X038534Y024692D01*
X038505Y024682D01*
X038477Y024668D01*
X038451Y024651D01*
X038427Y024631D01*
X038406Y024608D01*
X038388Y024582D01*
X038374Y024555D01*
X038362Y024526D01*
X038371Y024523D01*
X038382Y024551D01*
X038396Y024578D01*
X038413Y024602D01*
X038434Y024624D01*
X038456Y024644D01*
X038481Y024660D01*
X038508Y024673D01*
X038537Y024683D01*
X038566Y024689D01*
X038596Y024692D01*
X038596Y024683D01*
X038567Y024681D01*
X038539Y024675D01*
X038512Y024665D01*
X038486Y024652D01*
X038462Y024637D01*
X038440Y024618D01*
X038420Y024597D01*
X038404Y024573D01*
X038390Y024548D01*
X038380Y024521D01*
X038388Y024518D01*
X038398Y024544D01*
X038411Y024568D01*
X038427Y024591D01*
X038446Y024611D01*
X038467Y024629D01*
X038490Y024645D01*
X038515Y024657D01*
X038541Y024666D01*
X038568Y024672D01*
X038596Y024674D01*
X038596Y024665D01*
X038570Y024663D01*
X038544Y024657D01*
X038519Y024648D01*
X038495Y024637D01*
X038473Y024622D01*
X038452Y024605D01*
X038434Y024585D01*
X038419Y024564D01*
X038407Y024540D01*
X038397Y024516D01*
X040561Y024559D02*
X040475Y024532D01*
X040476Y024532D02*
X040466Y024555D01*
X040453Y024576D01*
X040438Y024596D01*
X040420Y024613D01*
X040400Y024627D01*
X040378Y024639D01*
X040355Y024648D01*
X040331Y024654D01*
X040306Y024656D01*
X040306Y024745D01*
X040306Y024746D01*
X040337Y024744D01*
X040367Y024738D01*
X040396Y024729D01*
X040424Y024717D01*
X040451Y024702D01*
X040475Y024684D01*
X040498Y024663D01*
X040518Y024640D01*
X040535Y024615D01*
X040550Y024588D01*
X040561Y024560D01*
X040553Y024557D01*
X040540Y024587D01*
X040525Y024615D01*
X040505Y024641D01*
X040483Y024665D01*
X040458Y024686D01*
X040430Y024703D01*
X040401Y024717D01*
X040370Y024728D01*
X040339Y024734D01*
X040306Y024737D01*
X040306Y024728D01*
X040337Y024725D01*
X040368Y024719D01*
X040398Y024709D01*
X040426Y024695D01*
X040453Y024679D01*
X040477Y024659D01*
X040498Y024636D01*
X040517Y024610D01*
X040532Y024583D01*
X040544Y024554D01*
X040536Y024551D01*
X040524Y024579D01*
X040509Y024606D01*
X040491Y024630D01*
X040471Y024652D01*
X040447Y024671D01*
X040422Y024688D01*
X040395Y024701D01*
X040366Y024710D01*
X040336Y024716D01*
X040306Y024719D01*
X040306Y024710D01*
X040335Y024708D01*
X040364Y024702D01*
X040391Y024692D01*
X040417Y024680D01*
X040442Y024664D01*
X040464Y024645D01*
X040484Y024624D01*
X040502Y024601D01*
X040516Y024575D01*
X040527Y024549D01*
X040518Y024546D01*
X040508Y024572D01*
X040494Y024596D01*
X040477Y024619D01*
X040458Y024639D01*
X040437Y024657D01*
X040413Y024672D01*
X040388Y024684D01*
X040361Y024693D01*
X040334Y024699D01*
X040306Y024701D01*
X040306Y024692D01*
X040336Y024689D01*
X040365Y024683D01*
X040393Y024672D01*
X040419Y024658D01*
X040443Y024640D01*
X040465Y024620D01*
X040483Y024596D01*
X040498Y024571D01*
X040510Y024543D01*
X040501Y024540D01*
X040490Y024567D01*
X040476Y024591D01*
X040458Y024614D01*
X040437Y024633D01*
X040414Y024650D01*
X040389Y024664D01*
X040362Y024674D01*
X040335Y024680D01*
X040306Y024683D01*
X040306Y024674D01*
X040333Y024671D01*
X040360Y024665D01*
X040385Y024656D01*
X040409Y024643D01*
X040431Y024627D01*
X040451Y024608D01*
X040468Y024586D01*
X040482Y024563D01*
X040493Y024538D01*
X040484Y024535D01*
X040474Y024559D01*
X040461Y024581D01*
X040444Y024602D01*
X040426Y024620D01*
X040405Y024635D01*
X040382Y024647D01*
X040357Y024657D01*
X040332Y024663D01*
X040306Y024665D01*
X040561Y024559D02*
X040475Y024532D01*
X040476Y024532D02*
X040466Y024555D01*
X040453Y024576D01*
X040438Y024596D01*
X040420Y024613D01*
X040400Y024627D01*
X040378Y024639D01*
X040355Y024648D01*
X040331Y024654D01*
X040306Y024656D01*
X040306Y024745D01*
X040306Y024746D01*
X040337Y024744D01*
X040367Y024738D01*
X040396Y024729D01*
X040424Y024717D01*
X040451Y024702D01*
X040475Y024684D01*
X040498Y024663D01*
X040518Y024640D01*
X040535Y024615D01*
X040550Y024588D01*
X040561Y024560D01*
X040553Y024557D01*
X040540Y024587D01*
X040525Y024615D01*
X040505Y024641D01*
X040483Y024665D01*
X040458Y024686D01*
X040430Y024703D01*
X040401Y024717D01*
X040370Y024728D01*
X040339Y024734D01*
X040306Y024737D01*
X040306Y024728D01*
X040337Y024725D01*
X040368Y024719D01*
X040398Y024709D01*
X040426Y024695D01*
X040453Y024679D01*
X040477Y024659D01*
X040498Y024636D01*
X040517Y024610D01*
X040532Y024583D01*
X040544Y024554D01*
X040536Y024551D01*
X040524Y024579D01*
X040509Y024606D01*
X040491Y024630D01*
X040471Y024652D01*
X040447Y024671D01*
X040422Y024688D01*
X040395Y024701D01*
X040366Y024710D01*
X040336Y024716D01*
X040306Y024719D01*
X040306Y024710D01*
X040335Y024708D01*
X040364Y024702D01*
X040391Y024692D01*
X040417Y024680D01*
X040442Y024664D01*
X040464Y024645D01*
X040484Y024624D01*
X040502Y024601D01*
X040516Y024575D01*
X040527Y024549D01*
X040518Y024546D01*
X040508Y024572D01*
X040494Y024596D01*
X040477Y024619D01*
X040458Y024639D01*
X040437Y024657D01*
X040413Y024672D01*
X040388Y024684D01*
X040361Y024693D01*
X040334Y024699D01*
X040306Y024701D01*
X040306Y024692D01*
X040336Y024689D01*
X040365Y024683D01*
X040393Y024672D01*
X040419Y024658D01*
X040443Y024640D01*
X040465Y024620D01*
X040483Y024596D01*
X040498Y024571D01*
X040510Y024543D01*
X040501Y024540D01*
X040490Y024567D01*
X040476Y024591D01*
X040458Y024614D01*
X040437Y024633D01*
X040414Y024650D01*
X040389Y024664D01*
X040362Y024674D01*
X040335Y024680D01*
X040306Y024683D01*
X040306Y024674D01*
X040333Y024671D01*
X040360Y024665D01*
X040385Y024656D01*
X040409Y024643D01*
X040431Y024627D01*
X040451Y024608D01*
X040468Y024586D01*
X040482Y024563D01*
X040493Y024538D01*
X040484Y024535D01*
X040474Y024559D01*
X040461Y024581D01*
X040444Y024602D01*
X040426Y024620D01*
X040405Y024635D01*
X040382Y024647D01*
X040357Y024657D01*
X040332Y024663D01*
X040306Y024665D01*
D25*
X036521Y017101D03*
X036521Y017101D03*
X034521Y016101D03*
X034521Y016101D03*
X033681Y017101D03*
X033681Y017101D03*
X031681Y016101D03*
X031681Y016101D03*
X027521Y016011D03*
X027521Y016011D03*
X027021Y016011D03*
X027021Y016011D03*
X025521Y017101D03*
X025521Y017101D03*
X024181Y016011D03*
X024181Y016011D03*
X023681Y016011D03*
X023681Y016011D03*
X022681Y017101D03*
X022681Y017101D03*
X022181Y011101D03*
X022181Y011101D03*
X021681Y011101D03*
X021681Y011101D03*
X023681Y010101D03*
X023681Y010101D03*
X025021Y011101D03*
X025021Y011101D03*
X025521Y011101D03*
X025521Y011101D03*
X026521Y010101D03*
X026521Y010101D03*
X026521Y008101D03*
X026521Y008101D03*
X023681Y008101D03*
X023681Y008101D03*
X031681Y008101D03*
X031681Y008101D03*
X034521Y008101D03*
X034521Y008101D03*
X028521Y002701D03*
X028521Y002701D03*
X025681Y002701D03*
X025681Y002701D03*
X020521Y002561D03*
X020521Y002561D03*
X017681Y002561D03*
X017681Y002561D03*
D26*
X037141Y006771D03*
X037141Y006771D03*
X037141Y007271D03*
X037141Y007271D03*
X037141Y010111D03*
X037141Y010111D03*
X037141Y010611D03*
X037141Y010611D03*
D27*
X035231Y013851D02*
X035231Y014101D01*
X035231Y014351D01*
X034981Y014351D02*
X034981Y014101D01*
X034981Y013851D01*
X035971Y014851D02*
X035971Y015101D01*
X035971Y015351D01*
X036221Y015351D02*
X036221Y015101D01*
X036221Y014851D01*
X032231Y014851D02*
X032231Y015101D01*
X032231Y015351D01*
X031981Y015351D02*
X031981Y015101D01*
X031981Y014851D01*
X028351Y011231D02*
X028101Y011231D01*
X027851Y011231D01*
X027851Y010981D02*
X028101Y010981D01*
X028351Y010981D01*
X029851Y003221D02*
X030101Y003221D01*
X030351Y003221D01*
X030351Y002971D02*
X030101Y002971D01*
X029851Y002971D01*
D28*
X028101Y023001D02*
X028101Y023101D01*
X027101Y023101D02*
X027101Y023001D01*
D29*
X027201Y016011D02*
X027351Y016011D01*
X024001Y016011D02*
X023851Y016011D01*
X025201Y011101D02*
X025351Y011101D01*
X022001Y011101D02*
X021851Y011101D01*
X037141Y010441D02*
X037141Y010291D01*
X037141Y007091D02*
X037141Y006941D01*
M02*
