G75*
%MOIN*%
%OFA0B0*%
%FSLAX24Y24*%
%IPPOS*%
%LPD*%
%AMOC8*
5,1,8,0,0,1.08239X$1,22.5*
%
%ADD10C,0.0170*%
%ADD11OC8,0.0520*%
%ADD12OC8,0.0660*%
%ADD13OC8,0.0630*%
%ADD14OC8,0.0560*%
%ADD15C,0.0320*%
%ADD16C,0.0480*%
%ADD17C,0.0160*%
D10*
X041925Y001585D02*
X042415Y001585D01*
X042252Y001748D01*
X042415Y001912D01*
X041925Y001912D01*
X042006Y002193D02*
X041925Y002274D01*
X041925Y002438D01*
X042006Y002520D01*
X042333Y002193D01*
X042415Y002274D01*
X042415Y002438D01*
X042333Y002520D01*
X042006Y002520D01*
X042006Y002193D02*
X042333Y002193D01*
X042925Y001748D02*
X043006Y001667D01*
X043415Y001667D01*
X043170Y001585D02*
X043170Y001748D01*
X043170Y001990D02*
X043333Y001990D01*
X043415Y002072D01*
X043415Y002235D01*
X043333Y002317D01*
X043170Y002317D01*
X043088Y002235D01*
X043088Y002072D01*
X043170Y001990D01*
X044425Y001830D02*
X044425Y001667D01*
X044506Y001585D01*
X044833Y001585D01*
X044915Y001667D01*
X044915Y001830D01*
X044833Y001912D01*
X044833Y002193D02*
X044915Y002274D01*
X044915Y002438D01*
X044833Y002520D01*
X044670Y002520D01*
X044588Y002438D01*
X044588Y002274D01*
X044670Y002193D01*
X044833Y002193D01*
X044506Y001912D02*
X044425Y001830D01*
X043415Y002598D02*
X043088Y002598D01*
X043088Y002761D02*
X043088Y002843D01*
X043088Y002761D02*
X043252Y002598D01*
X042415Y002800D02*
X042333Y002800D01*
X042006Y003127D01*
X041925Y003127D01*
X041925Y002800D01*
X042170Y003408D02*
X042170Y003653D01*
X042252Y003735D01*
X042333Y003735D01*
X042415Y003653D01*
X042415Y003490D01*
X042333Y003408D01*
X042170Y003408D01*
X042006Y003572D01*
X041925Y003735D01*
X042925Y003712D02*
X042925Y003957D01*
X043006Y004039D01*
X043170Y004039D01*
X043252Y003957D01*
X043252Y003712D01*
X043415Y003712D02*
X042925Y003712D01*
X043252Y003875D02*
X043415Y004039D01*
X043333Y004320D02*
X043415Y004401D01*
X043415Y004565D01*
X043333Y004647D01*
X043252Y004647D01*
X043170Y004565D01*
X043170Y004401D01*
X043088Y004320D01*
X043006Y004320D01*
X042925Y004401D01*
X042925Y004565D01*
X043006Y004647D01*
X043170Y004927D02*
X043170Y005254D01*
X043006Y005535D02*
X042925Y005617D01*
X042925Y005780D01*
X043006Y005862D01*
X043088Y005862D01*
X043415Y005535D01*
X043415Y005862D01*
X043333Y006143D02*
X043415Y006225D01*
X043415Y006388D01*
X043333Y006470D01*
X043252Y006470D01*
X043170Y006388D01*
X043170Y006306D01*
X043170Y006388D02*
X043088Y006470D01*
X043006Y006470D01*
X042925Y006388D01*
X042925Y006225D01*
X043006Y006143D01*
X042578Y005839D02*
X042088Y005839D01*
X042088Y006084D01*
X042170Y006166D01*
X042333Y006166D01*
X042415Y006084D01*
X042415Y005839D01*
X042252Y005558D02*
X042252Y005231D01*
X042333Y005231D02*
X042170Y005231D01*
X042088Y005313D01*
X042088Y005477D01*
X042170Y005558D01*
X042252Y005558D01*
X042415Y005477D02*
X042415Y005313D01*
X042333Y005231D01*
X042415Y004951D02*
X042252Y004787D01*
X042252Y004869D02*
X042252Y004624D01*
X042415Y004624D02*
X041925Y004624D01*
X041925Y004869D01*
X042006Y004951D01*
X042170Y004951D01*
X042252Y004869D01*
X044588Y004869D02*
X044588Y004624D01*
X044915Y004624D01*
X044833Y004343D02*
X044670Y004343D01*
X044588Y004261D01*
X044588Y004098D01*
X044670Y004016D01*
X044833Y004016D01*
X044915Y004098D01*
X044915Y004261D01*
X044833Y004343D01*
X044588Y004869D02*
X044670Y004951D01*
X044915Y004951D01*
X044833Y005231D02*
X044670Y005231D01*
X044588Y005313D01*
X044588Y005477D01*
X044670Y005558D01*
X044752Y005558D01*
X044752Y005231D01*
X044833Y005231D02*
X044915Y005313D01*
X044915Y005477D01*
X044915Y005839D02*
X044588Y005839D01*
X044588Y006084D01*
X044670Y006166D01*
X044915Y006166D01*
X044833Y006528D02*
X044506Y006528D01*
X044588Y006447D02*
X044588Y006610D01*
X044833Y006528D02*
X044915Y006610D01*
X044833Y007460D02*
X044915Y007541D01*
X044915Y007705D01*
X044833Y007787D01*
X044752Y007787D01*
X044670Y007705D01*
X044670Y007541D01*
X044588Y007460D01*
X044506Y007460D01*
X044425Y007541D01*
X044425Y007705D01*
X044506Y007787D01*
X044588Y008067D02*
X044588Y008149D01*
X044915Y008149D01*
X044915Y008067D02*
X044915Y008231D01*
X044833Y008472D02*
X044670Y008472D01*
X044588Y008554D01*
X044588Y008799D01*
X044425Y008799D02*
X044915Y008799D01*
X044915Y008554D01*
X044833Y008472D01*
X044425Y008149D02*
X044343Y008149D01*
X043415Y008211D02*
X043415Y008048D01*
X043333Y007966D01*
X043170Y007966D01*
X043088Y008048D01*
X043088Y008211D01*
X043170Y008293D01*
X043333Y008293D01*
X043415Y008211D01*
X043415Y008574D02*
X043088Y008574D01*
X043088Y008737D02*
X043252Y008574D01*
X043088Y008737D02*
X043088Y008819D01*
X042415Y008839D02*
X042170Y008839D01*
X042088Y008920D01*
X042170Y009002D01*
X042415Y009002D01*
X042333Y009283D02*
X042170Y009283D01*
X042088Y009365D01*
X042088Y009528D01*
X042170Y009610D01*
X042252Y009610D01*
X042252Y009283D01*
X042333Y009283D02*
X042415Y009365D01*
X042415Y009528D01*
X042925Y009770D02*
X043006Y009688D01*
X043333Y009688D01*
X043415Y009770D01*
X043415Y009933D01*
X043333Y010015D01*
X043333Y010296D02*
X043415Y010377D01*
X043415Y010623D01*
X043088Y010623D01*
X043088Y010903D02*
X043415Y010903D01*
X043252Y010903D02*
X043088Y011067D01*
X043088Y011149D01*
X043088Y011410D02*
X043415Y011410D01*
X043252Y011410D02*
X043088Y011573D01*
X043088Y011655D01*
X043170Y011916D02*
X043088Y011998D01*
X043088Y012161D01*
X043170Y012243D01*
X043252Y012243D01*
X043252Y011916D01*
X043333Y011916D02*
X043170Y011916D01*
X043333Y011916D02*
X043415Y011998D01*
X043415Y012161D01*
X043415Y012524D02*
X043088Y012524D01*
X043088Y012769D01*
X043170Y012851D01*
X043415Y012851D01*
X043333Y013213D02*
X043006Y013213D01*
X043088Y013132D02*
X043088Y013295D01*
X043333Y013213D02*
X043415Y013295D01*
X043415Y014145D02*
X042925Y014145D01*
X043415Y014145D02*
X043415Y014471D01*
X043333Y014752D02*
X043415Y014834D01*
X043415Y014997D01*
X043333Y015079D01*
X043170Y015079D01*
X043088Y014997D01*
X043088Y014834D01*
X043170Y014752D01*
X043333Y014752D01*
X043333Y015360D02*
X043415Y015442D01*
X043415Y015605D01*
X043333Y015687D01*
X043170Y015687D01*
X043088Y015605D01*
X043088Y015442D01*
X043170Y015360D01*
X043333Y015360D01*
X043415Y015968D02*
X043415Y016213D01*
X043333Y016295D01*
X043170Y016295D01*
X043088Y016213D01*
X043088Y015968D01*
X043578Y015968D01*
X042415Y010662D02*
X042333Y010580D01*
X042006Y010580D01*
X042088Y010498D02*
X042088Y010662D01*
X042170Y010217D02*
X042415Y010217D01*
X042170Y010217D02*
X042088Y010136D01*
X042088Y009890D01*
X042415Y009890D01*
X042925Y009933D02*
X042925Y009770D01*
X042925Y009933D02*
X043006Y010015D01*
X043088Y010296D02*
X043333Y010296D01*
X044588Y009325D02*
X044670Y009407D01*
X044752Y009407D01*
X044752Y009080D01*
X044833Y009080D02*
X044670Y009080D01*
X044588Y009162D01*
X044588Y009325D01*
X044915Y009325D02*
X044915Y009162D01*
X044833Y009080D01*
X042415Y008675D02*
X042088Y008675D01*
X042088Y008757D01*
X042170Y008839D01*
X042170Y008394D02*
X042252Y008394D01*
X042252Y008067D01*
X042333Y008067D02*
X042170Y008067D01*
X042088Y008149D01*
X042088Y008313D01*
X042170Y008394D01*
X042415Y008313D02*
X042415Y008149D01*
X042333Y008067D01*
X042415Y007787D02*
X042415Y007541D01*
X042333Y007460D01*
X042170Y007460D01*
X042088Y007541D01*
X042088Y007787D01*
X042170Y007179D02*
X042415Y007179D01*
X042415Y006934D01*
X042333Y006852D01*
X042252Y006934D01*
X042252Y007179D01*
X042170Y007179D02*
X042088Y007097D01*
X042088Y006934D01*
X042415Y006610D02*
X042415Y006447D01*
X042415Y006528D02*
X041925Y006528D01*
X041925Y006447D01*
X042925Y006832D02*
X043006Y006751D01*
X042925Y006832D02*
X042925Y006996D01*
X043006Y007078D01*
X043088Y007078D01*
X043415Y006751D01*
X043415Y007078D01*
X044670Y003735D02*
X044588Y003653D01*
X044588Y003408D01*
X045078Y003408D01*
X044915Y003408D02*
X044915Y003653D01*
X044833Y003735D01*
X044670Y003735D01*
X044670Y003127D02*
X044588Y003046D01*
X044670Y002964D01*
X044915Y002964D01*
X044915Y003127D02*
X044670Y003127D01*
X044670Y002964D02*
X044588Y002882D01*
X044588Y002800D01*
X044915Y002800D01*
D11*
X035500Y007500D03*
X035500Y008500D03*
X035500Y010500D03*
X034500Y010500D03*
X033500Y010500D03*
X032500Y010500D03*
X031500Y010500D03*
X030500Y010500D03*
X029500Y010500D03*
X028500Y010500D03*
X027500Y010500D03*
X026500Y011500D03*
X028500Y012500D03*
X029500Y013500D03*
X030500Y013500D03*
X031500Y013500D03*
X032500Y013500D03*
X033500Y013500D03*
X034500Y013500D03*
X035500Y013500D03*
X036500Y013500D03*
X036500Y014500D03*
X035500Y015500D03*
X035500Y016500D03*
X033500Y015500D03*
X034500Y014500D03*
X031500Y015500D03*
X031500Y016500D03*
X033500Y017500D03*
X037500Y017500D03*
X037500Y015500D03*
X028500Y016500D03*
X026500Y017500D03*
X023500Y016500D03*
X022500Y017500D03*
X021500Y011500D03*
X023500Y010500D03*
X023500Y008500D03*
X023500Y007500D03*
X022500Y007500D03*
X021500Y007500D03*
X020500Y007500D03*
X024500Y007500D03*
X025500Y007500D03*
X026500Y007500D03*
X027500Y007500D03*
X027500Y008500D03*
X030500Y007500D03*
X029500Y006500D03*
X027500Y004500D03*
X026500Y004500D03*
X025500Y004500D03*
X024500Y004500D03*
X023500Y004500D03*
X022500Y004500D03*
X021500Y004500D03*
X020500Y004500D03*
X021500Y003000D03*
X024500Y003500D03*
X025500Y003000D03*
X024500Y001500D03*
X029500Y003000D03*
X033500Y006500D03*
X031500Y008500D03*
X036500Y010500D03*
X017500Y003000D03*
D12*
X028500Y017500D03*
X032500Y017500D03*
D13*
X029500Y009000D03*
X029500Y007500D03*
D14*
X029500Y018500D03*
X028500Y018500D03*
X027500Y018500D03*
X026500Y018500D03*
X025500Y018500D03*
X024500Y018500D03*
X023500Y018500D03*
X022500Y018500D03*
X021500Y018500D03*
X020500Y018500D03*
X019500Y018500D03*
X018500Y018500D03*
X018500Y019500D03*
X019500Y019500D03*
X020500Y019500D03*
X021500Y019500D03*
X022500Y019500D03*
X023500Y019500D03*
X024500Y019500D03*
X025500Y019500D03*
X026500Y019500D03*
X027500Y019500D03*
X028500Y019500D03*
X029500Y019500D03*
X030500Y019500D03*
X031500Y019500D03*
X032500Y019500D03*
X033500Y019500D03*
X034500Y019500D03*
X035500Y019500D03*
X036500Y019500D03*
X037500Y019500D03*
X037500Y018500D03*
X036500Y018500D03*
X035500Y018500D03*
X034500Y018500D03*
X033500Y018500D03*
X032500Y018500D03*
X031500Y018500D03*
X030500Y018500D03*
D15*
X037500Y015500D02*
X039250Y013750D01*
X037250Y010500D02*
X036500Y009750D01*
X032750Y009750D01*
X031500Y008500D01*
X023500Y004500D02*
X022750Y003750D01*
X019500Y003750D01*
X019500Y009500D01*
X021500Y011500D01*
X018500Y014500D02*
X018500Y004500D01*
X017500Y003000D02*
X007750Y003000D01*
X006750Y002000D01*
X017750Y016500D02*
X019000Y016500D01*
X019000Y017250D02*
X017500Y017250D01*
X017000Y016750D01*
X021500Y016500D02*
X022500Y017500D01*
D16*
X006750Y002000D03*
X018500Y004500D03*
X019500Y003750D03*
X024500Y008250D03*
X027000Y009000D03*
X024500Y011500D03*
X020500Y009500D03*
X014500Y008500D03*
X019500Y013500D03*
X018500Y014500D03*
X022000Y016000D03*
X021500Y016500D03*
X019000Y016500D03*
X017750Y016500D03*
X017000Y016750D03*
X019000Y017250D03*
X014500Y022000D03*
X029250Y014500D03*
X034000Y012750D03*
X037250Y010500D03*
X039250Y013750D03*
X035500Y020750D03*
X035500Y022250D03*
D17*
X035500Y020750D01*
X034500Y019500D02*
X034000Y019000D01*
X034000Y017250D01*
X031250Y014500D01*
X029250Y014500D01*
X031500Y013500D02*
X028500Y010500D01*
X029500Y010500D02*
X029500Y009000D01*
X029250Y008250D02*
X030250Y008250D01*
X032000Y010000D01*
X032000Y010750D01*
X034000Y012750D01*
X035000Y013000D02*
X035000Y015500D01*
X034500Y016000D01*
X034500Y018500D01*
X035500Y018500D02*
X036000Y018000D01*
X036000Y013250D01*
X034500Y011750D01*
X034500Y010500D01*
X033500Y010500D02*
X033500Y011500D01*
X035000Y013000D01*
X036000Y008500D02*
X041000Y013500D01*
X041000Y019500D01*
X040250Y020250D01*
X021250Y020250D01*
X020500Y019500D01*
X023000Y017000D02*
X028000Y017000D01*
X028500Y017500D01*
X029500Y017500D01*
X030000Y018000D01*
X030000Y019000D01*
X030500Y019500D01*
X023000Y017000D02*
X022000Y016000D01*
X023750Y013500D02*
X019500Y013500D01*
X023750Y013500D02*
X028000Y009250D01*
X028000Y008000D01*
X027500Y007500D01*
X027500Y008500D02*
X026500Y008500D01*
X025500Y009500D01*
X020500Y009500D01*
X024000Y007750D02*
X024000Y007000D01*
X021500Y004500D01*
X025500Y004500D02*
X029250Y008250D01*
X027000Y009000D02*
X024500Y011500D01*
X024500Y008250D02*
X024000Y007750D01*
X014500Y008500D02*
X014500Y022000D01*
X035500Y008500D02*
X036000Y008500D01*
M02*
