G75*
G70*
%OFA0B0*%
%FSLAX24Y24*%
%IPPOS*%
%LPD*%
%AMOC8*
5,1,8,0,0,1.08239X$1,22.5*
%
%ADD10R,0.0672X0.0672*%
%ADD11R,0.6750X0.0850*%
%ADD12O,0.0672X0.1232*%
%ADD13OC8,0.0672*%
%ADD14C,0.0720*%
%ADD15OC8,0.0720*%
%ADD16C,0.1560*%
%ADD17OC8,0.0756*%
%ADD18C,0.0816*%
D10*
X010001Y022951D03*
X008501Y023451D03*
X008501Y021951D03*
X010001Y021451D03*
X008501Y020951D03*
X010001Y020451D03*
X008501Y019451D03*
X010001Y018951D03*
X008501Y018451D03*
X010001Y017951D03*
X008501Y016951D03*
X010001Y016451D03*
X008501Y015951D03*
X010001Y015451D03*
X008501Y014451D03*
X010001Y013951D03*
X008501Y013451D03*
X010001Y012951D03*
X008501Y011951D03*
X010001Y011451D03*
X008501Y010951D03*
X010001Y010451D03*
X008501Y009451D03*
X010001Y008951D03*
X008501Y008451D03*
X010001Y007951D03*
X008501Y006951D03*
X010001Y006451D03*
X008501Y005951D03*
X010001Y005451D03*
X008501Y004451D03*
X010001Y003951D03*
X008501Y003451D03*
X010001Y002951D03*
X008501Y001951D03*
X010001Y001451D03*
D11*
X003626Y001776D03*
X003626Y003026D03*
X003626Y004276D03*
X003626Y005526D03*
X003626Y006776D03*
X003626Y008026D03*
X003626Y009276D03*
X003626Y010526D03*
X003626Y011776D03*
X003626Y013026D03*
X003626Y014276D03*
X003626Y015526D03*
X003626Y016776D03*
X003626Y018026D03*
X003626Y019276D03*
X003626Y020526D03*
X003626Y021776D03*
X003626Y023026D03*
D12*
X029151Y013001D03*
X030151Y013001D03*
X031151Y013001D03*
X032151Y013001D03*
X033151Y013001D03*
X034151Y013001D03*
X035151Y013001D03*
X036151Y013001D03*
X036151Y010001D03*
X035151Y010001D03*
X034151Y010001D03*
X033151Y010001D03*
X032151Y010001D03*
X031151Y010001D03*
X030151Y010001D03*
X029151Y010001D03*
X027101Y007101D03*
X026101Y007101D03*
X025101Y007101D03*
X024101Y007101D03*
X023101Y007101D03*
X022101Y007101D03*
X021101Y007101D03*
X020101Y007101D03*
X020101Y004101D03*
X021101Y004101D03*
X022101Y004101D03*
X023101Y004101D03*
X024101Y004101D03*
X025101Y004101D03*
X026101Y004101D03*
X027101Y004101D03*
D13*
X029101Y002701D03*
X030101Y002101D03*
X030101Y004101D03*
X025101Y002701D03*
X021101Y002561D03*
X017101Y002561D03*
X023101Y008101D03*
X027101Y008101D03*
X027101Y010101D03*
X028101Y010101D03*
X026101Y011101D03*
X028101Y012101D03*
X023101Y010101D03*
X021101Y011101D03*
X031101Y008101D03*
X035101Y008101D03*
X037141Y006191D03*
X037141Y011191D03*
X036101Y014101D03*
X037101Y015101D03*
X035101Y015101D03*
X035101Y016101D03*
X037101Y017101D03*
X033101Y017101D03*
X031101Y016101D03*
X031101Y015101D03*
X033101Y015101D03*
X034101Y014101D03*
X028101Y016011D03*
X026101Y017101D03*
X023101Y016011D03*
X022101Y017101D03*
D14*
X018101Y018101D03*
D15*
X019101Y018101D03*
X020101Y018101D03*
X021101Y018101D03*
X022101Y018101D03*
X023101Y018101D03*
X024101Y018101D03*
X025101Y018101D03*
X026101Y018101D03*
X027101Y018101D03*
X028101Y018101D03*
X029101Y018101D03*
X030101Y018101D03*
X031101Y018101D03*
X032101Y018101D03*
X033101Y018101D03*
X034101Y018101D03*
X035101Y018101D03*
X036101Y018101D03*
X037101Y018101D03*
X037101Y019101D03*
X036101Y019101D03*
X035101Y019101D03*
X034101Y019101D03*
X033101Y019101D03*
X032101Y019101D03*
X031101Y019101D03*
X030101Y019101D03*
X029101Y019101D03*
X028101Y019101D03*
X027101Y019101D03*
X026101Y019101D03*
X025101Y019101D03*
X024101Y019101D03*
X023101Y019101D03*
X022101Y019101D03*
X021101Y019101D03*
X020101Y019101D03*
X019101Y019101D03*
X018101Y019101D03*
D16*
X015801Y018811D03*
X039401Y018811D03*
D17*
X026101Y012101D03*
X025101Y013101D03*
X019101Y009101D03*
X016101Y012101D03*
X015101Y013101D03*
X017101Y015101D03*
X018101Y017101D03*
X018101Y005101D03*
X019081Y003481D03*
X017101Y003451D03*
D18*
X029011Y004641D03*
X029011Y008641D03*
X029191Y015041D03*
X028141Y017061D03*
X025191Y015041D03*
X032141Y017061D03*
M02*
