G75*
%MOIN*%
%OFA0B0*%
%FSLAX24Y24*%
%IPPOS*%
%LPD*%
%AMOC8*
5,1,8,0,0,1.08239X$1,22.5*
%
%ADD10C,0.0170*%
%ADD11OC8,0.0520*%
%ADD12OC8,0.0660*%
%ADD13OC8,0.0630*%
%ADD14R,0.5160X0.0800*%
%ADD15OC8,0.0560*%
%ADD16C,0.0320*%
%ADD17C,0.0480*%
%ADD18C,0.0160*%
D10*
X040422Y004281D02*
X040422Y004362D01*
X040503Y004444D01*
X040912Y004444D01*
X040912Y004725D02*
X040912Y004970D01*
X040830Y005052D01*
X040585Y005052D01*
X040667Y005333D02*
X040585Y005414D01*
X040585Y005660D01*
X040503Y005660D02*
X040912Y005660D01*
X040912Y005414D01*
X040830Y005333D01*
X040667Y005333D01*
X040422Y005496D02*
X040422Y005578D01*
X040503Y005660D01*
X040585Y005940D02*
X040585Y006186D01*
X040667Y006267D01*
X040748Y006186D01*
X040748Y006022D01*
X040830Y005940D01*
X040912Y006022D01*
X040912Y006267D01*
X040912Y006548D02*
X040912Y006712D01*
X040994Y006630D02*
X040667Y006630D01*
X040585Y006712D01*
X040667Y006953D02*
X040748Y007035D01*
X040748Y007280D01*
X040830Y007280D02*
X040585Y007280D01*
X040585Y007035D01*
X040667Y006953D01*
X040912Y007035D02*
X040912Y007198D01*
X040830Y007280D01*
X040830Y007561D02*
X040912Y007643D01*
X040912Y007888D01*
X041075Y007888D02*
X040585Y007888D01*
X040585Y007643D01*
X040667Y007561D01*
X040830Y007561D01*
X042085Y007662D02*
X042412Y007662D01*
X042248Y007662D02*
X042412Y007826D01*
X042412Y007907D01*
X043085Y008048D02*
X043085Y008211D01*
X043167Y008293D01*
X043330Y008293D01*
X043412Y008211D01*
X043412Y008048D01*
X043330Y007966D01*
X043167Y007966D01*
X043085Y008048D01*
X043085Y008574D02*
X043412Y008574D01*
X043412Y008737D02*
X043248Y008574D01*
X043412Y008737D02*
X043412Y008819D01*
X042575Y008776D02*
X042575Y009022D01*
X042494Y009103D01*
X042412Y009103D01*
X042330Y009022D01*
X042330Y008776D01*
X042085Y008776D02*
X042085Y009022D01*
X042167Y009103D01*
X042248Y009103D01*
X042330Y009022D01*
X042085Y008776D02*
X042575Y008776D01*
X042494Y009384D02*
X042167Y009384D01*
X042085Y009466D01*
X042085Y009629D01*
X042167Y009711D01*
X042167Y009992D02*
X042494Y010319D01*
X042167Y010319D01*
X042085Y010237D01*
X042085Y010074D01*
X042167Y009992D01*
X042494Y009992D01*
X042575Y010074D01*
X042575Y010237D01*
X042494Y010319D01*
X042412Y010599D02*
X042575Y010763D01*
X042085Y010763D01*
X042085Y010926D02*
X042085Y010599D01*
X043085Y010623D02*
X043412Y010623D01*
X043412Y010903D02*
X043085Y010903D01*
X043248Y010903D02*
X043412Y011067D01*
X043412Y011149D01*
X043412Y011410D02*
X043085Y011410D01*
X043248Y011410D02*
X043412Y011573D01*
X043412Y011655D01*
X043330Y011916D02*
X043412Y011998D01*
X043412Y012161D01*
X043330Y012243D01*
X043248Y012243D01*
X043248Y011916D01*
X043167Y011916D02*
X043330Y011916D01*
X043167Y011916D02*
X043085Y011998D01*
X043085Y012161D01*
X043085Y012524D02*
X043412Y012524D01*
X043412Y012769D01*
X043330Y012851D01*
X043085Y012851D01*
X042575Y013030D02*
X042085Y013030D01*
X042085Y013276D01*
X042167Y013357D01*
X042330Y013357D01*
X042412Y013276D01*
X042412Y013030D01*
X042330Y012750D02*
X042085Y012750D01*
X042085Y012504D01*
X042167Y012423D01*
X042248Y012504D01*
X042248Y012750D01*
X042330Y012750D02*
X042412Y012668D01*
X042412Y012504D01*
X042494Y012142D02*
X042575Y012060D01*
X042575Y011897D01*
X042494Y011815D01*
X042167Y011815D01*
X042085Y011897D01*
X042085Y012060D01*
X042167Y012142D01*
X043167Y013213D02*
X043085Y013295D01*
X043167Y013213D02*
X043494Y013213D01*
X043412Y013132D02*
X043412Y013295D01*
X042575Y013638D02*
X042575Y013720D01*
X042085Y013720D01*
X042085Y013638D02*
X042085Y013802D01*
X042167Y014043D02*
X042330Y014043D01*
X042412Y014125D01*
X042412Y014288D01*
X042330Y014370D01*
X042248Y014370D01*
X042248Y014043D01*
X042167Y014043D02*
X042085Y014125D01*
X042085Y014288D01*
X043085Y014145D02*
X043085Y014471D01*
X043167Y014752D02*
X043085Y014834D01*
X043085Y014997D01*
X043167Y015079D01*
X043330Y015079D01*
X043412Y014997D01*
X043412Y014834D01*
X043330Y014752D01*
X043167Y014752D01*
X043167Y015360D02*
X043085Y015442D01*
X043085Y015605D01*
X043167Y015687D01*
X043330Y015687D01*
X043412Y015605D01*
X043412Y015442D01*
X043330Y015360D01*
X043167Y015360D01*
X042412Y014978D02*
X042412Y014733D01*
X042330Y014651D01*
X042248Y014733D01*
X042248Y014896D01*
X042167Y014978D01*
X042085Y014896D01*
X042085Y014651D01*
X043085Y014145D02*
X043575Y014145D01*
X043412Y015968D02*
X042922Y015968D01*
X043085Y015968D02*
X043085Y016213D01*
X043167Y016295D01*
X043330Y016295D01*
X043412Y016213D01*
X043412Y015968D01*
X041912Y017585D02*
X042075Y017748D01*
X041912Y017912D01*
X041585Y017912D01*
X041830Y017912D02*
X041830Y017585D01*
X041912Y017585D02*
X041585Y017585D01*
X041912Y018800D02*
X041912Y018964D01*
X041994Y018882D02*
X041667Y018882D01*
X041585Y018964D01*
X041667Y019206D02*
X041585Y019287D01*
X041585Y019451D01*
X041667Y019533D01*
X041830Y019533D01*
X041912Y019451D01*
X041912Y019287D01*
X041830Y019206D01*
X041667Y019206D01*
X041748Y020421D02*
X041748Y020666D01*
X041830Y020748D01*
X041994Y020748D01*
X042075Y020666D01*
X042075Y020421D01*
X041585Y020421D01*
X041585Y021029D02*
X041585Y021192D01*
X041585Y021110D02*
X041912Y021110D01*
X041912Y021029D01*
X042075Y021110D02*
X042157Y021110D01*
X041912Y021434D02*
X041912Y021679D01*
X041830Y021761D01*
X041585Y021761D01*
X041585Y021434D02*
X041912Y021434D01*
X041830Y022649D02*
X041830Y022976D01*
X041585Y022895D02*
X042075Y022895D01*
X041830Y022649D01*
X041667Y023257D02*
X041994Y023584D01*
X041667Y023584D01*
X041585Y023502D01*
X041585Y023339D01*
X041667Y023257D01*
X041994Y023257D01*
X042075Y023339D01*
X042075Y023502D01*
X041994Y023584D01*
X037915Y023141D02*
X037752Y022977D01*
X037425Y022977D01*
X037670Y022977D02*
X037670Y023304D01*
X037752Y023304D02*
X037425Y023304D01*
X037752Y023304D02*
X037915Y023141D01*
X018415Y023197D02*
X018088Y023197D01*
X017925Y023033D01*
X018088Y022870D01*
X018415Y022870D01*
X018415Y023477D02*
X018088Y023477D01*
X017925Y023641D01*
X018088Y023804D01*
X018415Y023804D01*
X043085Y010623D02*
X043085Y010377D01*
X043167Y010296D01*
X043412Y010296D01*
X043494Y010015D02*
X043575Y009933D01*
X043575Y009770D01*
X043494Y009688D01*
X043167Y009688D01*
X043085Y009770D01*
X043085Y009933D01*
X043167Y010015D01*
X042575Y009629D02*
X042575Y009466D01*
X042494Y009384D01*
X042575Y009629D02*
X042494Y009711D01*
X044585Y009890D02*
X044912Y009890D01*
X044912Y010136D01*
X044830Y010217D01*
X044585Y010217D01*
X044667Y010580D02*
X044585Y010662D01*
X044667Y010580D02*
X044994Y010580D01*
X044912Y010498D02*
X044912Y010662D01*
X044830Y009610D02*
X044748Y009610D01*
X044748Y009283D01*
X044667Y009283D02*
X044830Y009283D01*
X044912Y009365D01*
X044912Y009528D01*
X044830Y009610D01*
X044585Y009528D02*
X044585Y009365D01*
X044667Y009283D01*
X044585Y009002D02*
X044830Y009002D01*
X044912Y008920D01*
X044830Y008839D01*
X044585Y008839D01*
X044585Y008675D02*
X044912Y008675D01*
X044912Y008757D01*
X044830Y008839D01*
X044830Y008394D02*
X044748Y008394D01*
X044748Y008067D01*
X044667Y008067D02*
X044830Y008067D01*
X044912Y008149D01*
X044912Y008313D01*
X044830Y008394D01*
X044585Y008313D02*
X044585Y008149D01*
X044667Y008067D01*
X044585Y007787D02*
X044585Y007541D01*
X044667Y007460D01*
X044830Y007460D01*
X044912Y007541D01*
X044912Y007787D01*
X044830Y007179D02*
X044585Y007179D01*
X044585Y006934D01*
X044667Y006852D01*
X044748Y006934D01*
X044748Y007179D01*
X044830Y007179D02*
X044912Y007097D01*
X044912Y006934D01*
X044585Y006610D02*
X044585Y006447D01*
X044585Y006528D02*
X045075Y006528D01*
X045075Y006447D01*
X044830Y006166D02*
X044667Y006166D01*
X044585Y006084D01*
X044585Y005839D01*
X044422Y005839D02*
X044912Y005839D01*
X044912Y006084D01*
X044830Y006166D01*
X044830Y005558D02*
X044748Y005558D01*
X044748Y005231D01*
X044667Y005231D02*
X044830Y005231D01*
X044912Y005313D01*
X044912Y005477D01*
X044830Y005558D01*
X044585Y005477D02*
X044585Y005313D01*
X044667Y005231D01*
X044585Y004951D02*
X044748Y004787D01*
X044748Y004869D02*
X044748Y004624D01*
X044585Y004624D02*
X045075Y004624D01*
X045075Y004869D01*
X044994Y004951D01*
X044830Y004951D01*
X044748Y004869D01*
X043575Y004565D02*
X043575Y004401D01*
X043494Y004320D01*
X043412Y004320D01*
X043330Y004401D01*
X043330Y004565D01*
X043248Y004647D01*
X043167Y004647D01*
X043085Y004565D01*
X043085Y004401D01*
X043167Y004320D01*
X043494Y004647D02*
X043575Y004565D01*
X043330Y004927D02*
X043330Y005254D01*
X043494Y005535D02*
X043575Y005617D01*
X043575Y005780D01*
X043494Y005862D01*
X043412Y005862D01*
X043085Y005535D01*
X043085Y005862D01*
X043167Y006143D02*
X043085Y006225D01*
X043085Y006388D01*
X043167Y006470D01*
X043248Y006470D01*
X043330Y006388D01*
X043330Y006306D01*
X043330Y006388D02*
X043412Y006470D01*
X043494Y006470D01*
X043575Y006388D01*
X043575Y006225D01*
X043494Y006143D01*
X043494Y006751D02*
X043575Y006832D01*
X043575Y006996D01*
X043494Y007078D01*
X043412Y007078D01*
X043085Y006751D01*
X043085Y007078D01*
X042412Y007136D02*
X042330Y007054D01*
X042167Y007054D01*
X042085Y007136D01*
X042085Y007300D01*
X042167Y007381D01*
X042330Y007381D01*
X042412Y007300D01*
X042412Y007136D01*
X042330Y006166D02*
X042167Y006166D01*
X042085Y006084D01*
X042085Y005921D01*
X042167Y005839D01*
X042330Y005839D02*
X042412Y006003D01*
X042412Y006084D01*
X042330Y006166D01*
X042575Y006166D02*
X042575Y005839D01*
X042330Y005839D01*
X042167Y005558D02*
X042085Y005477D01*
X042085Y005313D01*
X042167Y005231D01*
X042494Y005558D01*
X042167Y005558D01*
X042494Y005558D02*
X042575Y005477D01*
X042575Y005313D01*
X042494Y005231D01*
X042167Y005231D01*
X042167Y004951D02*
X042085Y004869D01*
X042085Y004705D01*
X042167Y004624D01*
X042494Y004624D01*
X042575Y004705D01*
X042575Y004869D01*
X042494Y004951D01*
X042494Y004343D02*
X042412Y004343D01*
X042330Y004261D01*
X042330Y004016D01*
X042085Y004016D02*
X042085Y004261D01*
X042167Y004343D01*
X042248Y004343D01*
X042330Y004261D01*
X042494Y004343D02*
X042575Y004261D01*
X042575Y004016D01*
X042085Y004016D01*
X043085Y004039D02*
X043248Y003875D01*
X043248Y003957D02*
X043248Y003712D01*
X043085Y003712D02*
X043575Y003712D01*
X043575Y003957D01*
X043494Y004039D01*
X043330Y004039D01*
X043248Y003957D01*
X044585Y003653D02*
X044585Y003490D01*
X044667Y003408D01*
X044830Y003408D01*
X044830Y003653D01*
X044748Y003735D01*
X044667Y003735D01*
X044585Y003653D01*
X044830Y003408D02*
X044994Y003572D01*
X045075Y003735D01*
X045075Y003127D02*
X044994Y003127D01*
X044667Y002800D01*
X044585Y002800D01*
X045075Y002800D02*
X045075Y003127D01*
X044994Y002520D02*
X044667Y002193D01*
X044585Y002274D01*
X044585Y002438D01*
X044667Y002520D01*
X044994Y002520D01*
X045075Y002438D01*
X045075Y002274D01*
X044994Y002193D01*
X044667Y002193D01*
X044585Y001912D02*
X045075Y001912D01*
X045075Y001585D02*
X044585Y001585D01*
X044748Y001748D01*
X044585Y001912D01*
X043575Y001748D02*
X043494Y001667D01*
X043085Y001667D01*
X043330Y001585D02*
X043330Y001748D01*
X043330Y001990D02*
X043167Y001990D01*
X043085Y002072D01*
X043085Y002235D01*
X043167Y002317D01*
X043330Y002317D01*
X043412Y002235D01*
X043412Y002072D01*
X043330Y001990D01*
X042575Y001912D02*
X042167Y001912D01*
X042085Y001830D01*
X042085Y001667D01*
X042167Y001585D01*
X042575Y001585D01*
X042330Y002193D02*
X042412Y002274D01*
X042412Y002520D01*
X042248Y002438D02*
X042248Y002274D01*
X042330Y002193D01*
X042085Y002193D02*
X042085Y002438D01*
X042167Y002520D01*
X042248Y002438D01*
X043085Y002598D02*
X043412Y002598D01*
X043412Y002761D02*
X043412Y002843D01*
X043412Y002761D02*
X043248Y002598D01*
X042412Y002882D02*
X042412Y003046D01*
X042330Y003127D01*
X042248Y003127D01*
X042248Y002800D01*
X042167Y002800D02*
X042330Y002800D01*
X042412Y002882D01*
X042167Y002800D02*
X042085Y002882D01*
X042085Y003046D01*
X041075Y003186D02*
X040994Y003104D01*
X040912Y003104D01*
X040830Y003186D01*
X040830Y003350D01*
X040748Y003431D01*
X040667Y003431D01*
X040585Y003350D01*
X040585Y003186D01*
X040667Y003104D01*
X041075Y003186D02*
X041075Y003350D01*
X040994Y003431D01*
X041075Y003712D02*
X041075Y003794D01*
X040585Y003794D01*
X040585Y003875D02*
X040585Y003712D01*
X040667Y004117D02*
X040585Y004199D01*
X040585Y004444D01*
X040585Y004725D02*
X040912Y004725D01*
X040912Y004117D02*
X040667Y004117D01*
X040667Y002274D02*
X040585Y002274D01*
X040585Y002193D01*
X040667Y002193D01*
X040667Y002274D01*
X040748Y001912D02*
X041075Y001912D01*
X040748Y001912D02*
X040585Y001748D01*
X040748Y001585D01*
X041075Y001585D01*
D11*
X033500Y006500D03*
X035500Y007500D03*
X035500Y008500D03*
X035500Y010500D03*
X034500Y010500D03*
X033500Y010500D03*
X032500Y010500D03*
X031500Y010500D03*
X030500Y010500D03*
X029500Y010500D03*
X028500Y010500D03*
X027500Y010500D03*
X026500Y011500D03*
X028500Y012500D03*
X029500Y013500D03*
X030500Y013500D03*
X031500Y013500D03*
X032500Y013500D03*
X033500Y013500D03*
X034500Y013500D03*
X035500Y013500D03*
X036500Y013500D03*
X036500Y014500D03*
X035500Y015500D03*
X035500Y016500D03*
X033500Y015500D03*
X034500Y014500D03*
X031500Y015500D03*
X031500Y016500D03*
X033500Y017500D03*
X037500Y017500D03*
X037500Y015500D03*
X028500Y016500D03*
X026500Y017500D03*
X023500Y016500D03*
X022500Y017500D03*
X021500Y011500D03*
X023500Y010500D03*
X023500Y008500D03*
X023500Y007500D03*
X022500Y007500D03*
X021500Y007500D03*
X020500Y007500D03*
X024500Y007500D03*
X025500Y007500D03*
X026500Y007500D03*
X027500Y007500D03*
X027500Y008500D03*
X030500Y007500D03*
X029500Y006500D03*
X027500Y004500D03*
X026500Y004500D03*
X025500Y004500D03*
X024500Y004500D03*
X023500Y004500D03*
X022500Y004500D03*
X021500Y004500D03*
X020500Y004500D03*
X021500Y003000D03*
X024500Y003500D03*
X025500Y003000D03*
X024500Y001500D03*
X029500Y003000D03*
X031500Y008500D03*
X036500Y010500D03*
X017500Y003000D03*
D12*
X028500Y017500D03*
X032500Y017500D03*
D13*
X029500Y009000D03*
X029500Y007500D03*
D14*
X003625Y007125D03*
X003625Y005875D03*
X003625Y004625D03*
X003625Y003375D03*
X003625Y002125D03*
X003625Y008375D03*
X003625Y009625D03*
X003625Y010875D03*
X003625Y012125D03*
X003625Y013375D03*
X003625Y014625D03*
X003625Y015875D03*
X003625Y017125D03*
X003625Y018375D03*
X003625Y019625D03*
X003625Y020875D03*
X003625Y022125D03*
X003625Y023375D03*
D15*
X018500Y019500D03*
X019500Y019500D03*
X020500Y019500D03*
X021500Y019500D03*
X022500Y019500D03*
X023500Y019500D03*
X024500Y019500D03*
X025500Y019500D03*
X026500Y019500D03*
X027500Y019500D03*
X028500Y019500D03*
X029500Y019500D03*
X030500Y019500D03*
X031500Y019500D03*
X032500Y019500D03*
X033500Y019500D03*
X034500Y019500D03*
X035500Y019500D03*
X036500Y019500D03*
X037500Y019500D03*
X037500Y018500D03*
X036500Y018500D03*
X035500Y018500D03*
X034500Y018500D03*
X033500Y018500D03*
X032500Y018500D03*
X031500Y018500D03*
X030500Y018500D03*
X029500Y018500D03*
X028500Y018500D03*
X027500Y018500D03*
X026500Y018500D03*
X025500Y018500D03*
X024500Y018500D03*
X023500Y018500D03*
X022500Y018500D03*
X021500Y018500D03*
X020500Y018500D03*
X019500Y018500D03*
X018500Y018500D03*
D16*
X003625Y002125D02*
X003750Y002000D01*
X006750Y002000D01*
X007250Y001500D01*
X024500Y001500D01*
X025000Y001500D01*
X026500Y003000D01*
X029500Y003000D01*
X031750Y003000D01*
X037500Y008750D01*
X036500Y009750D01*
X036500Y010500D01*
X037250Y010500D02*
X037250Y012750D01*
X038750Y014250D01*
X038750Y019250D01*
X036750Y021250D01*
X025000Y021250D01*
X024500Y020750D01*
X017750Y020750D01*
X017750Y016500D01*
X017000Y016750D02*
X015000Y018750D01*
X015000Y021250D01*
X018750Y021250D01*
X019250Y021750D01*
X039000Y021750D01*
X041000Y019750D01*
X041000Y015500D01*
X039250Y013750D01*
X039250Y010500D01*
X037500Y008750D01*
X035500Y010500D02*
X035500Y011750D01*
X038250Y014500D01*
X038250Y017750D01*
X037500Y018500D01*
X037500Y019500D01*
X037500Y017500D02*
X037500Y016500D01*
X037500Y015500D01*
X037500Y016500D02*
X035500Y016500D01*
X028750Y012250D02*
X028500Y012500D01*
X026500Y012500D01*
X025500Y011500D01*
X025500Y007500D01*
X024500Y006500D01*
X023500Y006500D01*
X022500Y007500D01*
X022500Y010250D01*
X023000Y010750D01*
X023000Y016000D01*
X023500Y016500D01*
X021500Y016500D02*
X019000Y016500D01*
X019000Y017250D02*
X019000Y018000D01*
X019500Y018500D01*
X018500Y018500D02*
X018500Y019500D01*
X018500Y018500D02*
X018500Y014500D01*
X021500Y016500D02*
X021500Y011500D01*
X028750Y012250D02*
X035000Y012250D01*
X035500Y011750D01*
X024500Y006500D02*
X024500Y004500D01*
X024500Y003500D01*
X023250Y002250D01*
X021250Y002250D01*
X020500Y003000D01*
X020500Y004500D01*
X018500Y004500D01*
X003750Y004500D01*
X003625Y004625D01*
X003625Y003375D02*
X003750Y003250D01*
X006250Y003250D01*
X007250Y002250D01*
X018000Y002250D01*
X019500Y003750D01*
X020500Y004500D02*
X021500Y005500D01*
X021500Y007500D01*
X026500Y004500D02*
X026500Y003000D01*
X024500Y019500D02*
X024500Y020750D01*
D17*
X019000Y017250D03*
X019000Y016500D03*
X017750Y016500D03*
X017000Y016750D03*
X018500Y014500D03*
X019500Y013500D03*
X022000Y016000D03*
X021500Y016500D03*
X029250Y014500D03*
X034000Y012750D03*
X037250Y010500D03*
X039250Y013750D03*
X027000Y009000D03*
X024500Y008250D03*
X020500Y009500D03*
X024500Y011500D03*
X014500Y008500D03*
X018500Y004500D03*
X019500Y003750D03*
X006750Y002000D03*
X035500Y020750D03*
X035500Y022250D03*
X014500Y022000D03*
D18*
X018750Y022000D01*
X019000Y022250D01*
X035500Y022250D01*
X035500Y020750D02*
X035500Y019500D01*
X034000Y020000D02*
X034000Y012750D01*
X033500Y013500D02*
X033500Y015500D01*
X034500Y014500D02*
X034500Y013500D01*
X035500Y013500D02*
X035500Y015500D01*
X036500Y014500D02*
X036500Y013500D01*
X032500Y013500D02*
X031500Y014500D01*
X031500Y015500D01*
X031500Y016500D02*
X031750Y016750D01*
X031750Y018000D01*
X032000Y018250D01*
X032000Y019750D01*
X031250Y020500D01*
X027500Y020500D01*
X026500Y019500D01*
X025500Y018500D02*
X026500Y017500D01*
X027500Y017500D01*
X028500Y016500D01*
X029500Y018500D02*
X030500Y017500D01*
X030500Y013500D01*
X029500Y013500D02*
X026500Y013500D01*
X024500Y011500D01*
X024000Y010500D02*
X024500Y010000D01*
X024500Y008250D01*
X024000Y008000D02*
X024000Y010000D01*
X023500Y010500D01*
X024000Y010500D02*
X024000Y014500D01*
X029250Y014500D01*
X030500Y011500D02*
X027750Y011500D01*
X027000Y010750D01*
X027000Y010250D01*
X027500Y009750D01*
X027500Y008500D01*
X027000Y009000D02*
X027000Y007000D01*
X028500Y005500D01*
X027500Y004500D01*
X028500Y005500D02*
X029500Y006500D01*
X029500Y007500D01*
X030500Y007500D01*
X033500Y006500D02*
X034500Y006500D01*
X035500Y007500D01*
X035500Y008500D01*
X032500Y010500D02*
X031750Y009750D01*
X028250Y009750D01*
X027500Y010500D01*
X026500Y011500D02*
X026500Y007500D01*
X024500Y007500D02*
X024000Y008000D01*
X023500Y008500D02*
X023500Y007500D01*
X021500Y008500D02*
X021500Y010750D01*
X022000Y011250D01*
X022000Y016000D01*
X022500Y016250D02*
X022000Y016750D01*
X022000Y019000D01*
X022500Y019500D01*
X022500Y016250D02*
X022500Y011250D01*
X022000Y010750D01*
X022000Y005000D01*
X022500Y004500D01*
X021500Y004500D02*
X021500Y003000D01*
X025500Y003000D02*
X025500Y004500D01*
X021500Y008500D02*
X020500Y007500D01*
X020500Y009500D02*
X003750Y009500D01*
X003625Y009625D01*
X003625Y007125D02*
X003750Y007000D01*
X013000Y007000D01*
X014500Y008500D01*
X019500Y013500D02*
X007500Y013500D01*
X006500Y014500D01*
X003750Y014500D01*
X003625Y014625D01*
X029500Y010500D02*
X030500Y010500D01*
X031500Y010500D02*
X030500Y011500D01*
X032500Y017500D02*
X033000Y017500D01*
X033000Y019000D01*
X033500Y019500D01*
X034000Y020000D02*
X033000Y020000D01*
X032500Y019500D01*
X033000Y017500D02*
X033500Y017500D01*
M02*
