G75*
G70*
%OFA0B0*%
%FSLAX24Y24*%
%IPPOS*%
%LPD*%
%AMOC8*
5,1,8,0,0,1.08239X$1,22.5*
%
%ADD10C,0.0060*%
%ADD11R,0.6750X0.0850*%
%ADD12C,0.0160*%
%ADD13R,0.0560X0.0560*%
%ADD14O,0.0560X0.1120*%
%ADD15OC8,0.0560*%
%ADD16C,0.0600*%
%ADD17OC8,0.0600*%
%ADD18OC8,0.0630*%
%ADD19C,0.0680*%
%ADD20C,0.0100*%
D10*
X006071Y001131D02*
X005431Y001131D01*
X005858Y001344D02*
X006071Y001558D01*
X005431Y001558D01*
X005538Y001775D02*
X005431Y001882D01*
X005431Y002096D01*
X005538Y002202D01*
X005965Y001775D01*
X006071Y001882D01*
X006071Y002096D01*
X005965Y002202D01*
X005538Y002202D01*
X005431Y002420D02*
X005431Y002847D01*
X005538Y002847D01*
X005965Y002420D01*
X006071Y002420D01*
X005965Y001775D02*
X005538Y001775D01*
X005858Y001344D02*
X006071Y001131D01*
X007431Y001344D02*
X007538Y001238D01*
X008071Y001238D01*
X007751Y001131D02*
X007751Y001344D01*
X007751Y001668D02*
X007965Y001668D01*
X008071Y001775D01*
X008071Y001988D01*
X007965Y002095D01*
X007751Y002095D01*
X007644Y001988D01*
X007644Y001775D01*
X007751Y001668D01*
X007644Y002312D02*
X008071Y002312D01*
X007858Y002312D02*
X007644Y002526D01*
X007644Y002633D01*
X006071Y003171D02*
X006071Y003385D01*
X005965Y003491D01*
X005858Y003491D01*
X005751Y003385D01*
X005751Y003064D01*
X005965Y003064D01*
X006071Y003171D01*
X005751Y003064D02*
X005538Y003278D01*
X005431Y003491D01*
X005431Y004353D02*
X006071Y004353D01*
X005858Y004353D02*
X005858Y004674D01*
X005751Y004780D01*
X005538Y004780D01*
X005431Y004674D01*
X005431Y004353D01*
X005858Y004567D02*
X006071Y004780D01*
X005965Y004998D02*
X006071Y005105D01*
X006071Y005318D01*
X005858Y005425D02*
X005858Y004998D01*
X005965Y004998D02*
X005751Y004998D01*
X005644Y005105D01*
X005644Y005318D01*
X005751Y005425D01*
X005858Y005425D01*
X006071Y005642D02*
X006071Y005963D01*
X005965Y006069D01*
X005751Y006069D01*
X005644Y005963D01*
X005644Y005642D01*
X006285Y005642D01*
X007431Y005642D02*
X007538Y005535D01*
X007431Y005642D02*
X007431Y005855D01*
X007538Y005962D01*
X007644Y005962D01*
X008071Y005535D01*
X008071Y005962D01*
X007965Y006180D02*
X008071Y006286D01*
X008071Y006500D01*
X007965Y006607D01*
X007858Y006607D01*
X007751Y006500D01*
X007751Y006393D01*
X007751Y006500D02*
X007644Y006607D01*
X007538Y006607D01*
X007431Y006500D01*
X007431Y006286D01*
X007538Y006180D01*
X007538Y006824D02*
X007431Y006931D01*
X007431Y007144D01*
X007538Y007251D01*
X007644Y007251D01*
X008071Y006824D01*
X008071Y007251D01*
X007965Y008113D02*
X008071Y008220D01*
X008071Y008433D01*
X007965Y008540D01*
X007751Y008540D01*
X007644Y008433D01*
X007644Y008220D01*
X007751Y008113D01*
X007965Y008113D01*
X008071Y008758D02*
X007644Y008758D01*
X007644Y008971D02*
X007858Y008758D01*
X007644Y008971D02*
X007644Y009078D01*
X006071Y009185D02*
X005751Y009185D01*
X005644Y009078D01*
X005751Y008971D01*
X006071Y008971D01*
X006071Y008758D02*
X005644Y008758D01*
X005644Y008864D01*
X005751Y008971D01*
X005751Y009402D02*
X005644Y009509D01*
X005644Y009722D01*
X005751Y009829D01*
X005858Y009829D01*
X005858Y009402D01*
X005965Y009402D02*
X005751Y009402D01*
X005965Y009402D02*
X006071Y009509D01*
X006071Y009722D01*
X006071Y010047D02*
X005644Y010047D01*
X005644Y010367D01*
X005751Y010474D01*
X006071Y010474D01*
X005965Y010798D02*
X006071Y010905D01*
X005965Y010798D02*
X005538Y010798D01*
X005644Y010691D02*
X005644Y010905D01*
X007431Y010367D02*
X007431Y010153D01*
X007538Y010047D01*
X007965Y010047D01*
X008071Y010153D01*
X008071Y010367D01*
X007965Y010474D01*
X007965Y010691D02*
X008071Y010798D01*
X008071Y011118D01*
X007644Y011118D01*
X007644Y011336D02*
X008071Y011336D01*
X007858Y011336D02*
X007644Y011549D01*
X007644Y011656D01*
X007644Y011980D02*
X008071Y011980D01*
X007858Y011980D02*
X007644Y012194D01*
X007644Y012301D01*
X007751Y012625D02*
X007644Y012732D01*
X007644Y012945D01*
X007751Y013052D01*
X007858Y013052D01*
X007858Y012625D01*
X007965Y012625D02*
X007751Y012625D01*
X007965Y012625D02*
X008071Y012732D01*
X008071Y012945D01*
X008071Y013269D02*
X007644Y013269D01*
X007644Y013590D01*
X007751Y013696D01*
X008071Y013696D01*
X007965Y014021D02*
X008071Y014127D01*
X007965Y014021D02*
X007538Y014021D01*
X007644Y014127D02*
X007644Y013914D01*
X009381Y013864D02*
X009381Y013971D01*
X010021Y013971D01*
X010021Y014077D02*
X010021Y013864D01*
X009915Y013646D02*
X009701Y013646D01*
X009594Y013540D01*
X009594Y013219D01*
X009381Y013219D02*
X010021Y013219D01*
X010021Y013540D01*
X009915Y013646D01*
X010021Y013002D02*
X010021Y012682D01*
X009915Y012575D01*
X009808Y012682D01*
X009808Y013002D01*
X009701Y013002D02*
X010021Y013002D01*
X009701Y013002D02*
X009594Y012895D01*
X009594Y012682D01*
X009488Y012357D02*
X009381Y012251D01*
X009381Y012037D01*
X009488Y011930D01*
X009915Y011930D01*
X010021Y012037D01*
X010021Y012251D01*
X009915Y012357D01*
X010021Y010962D02*
X010021Y010749D01*
X010021Y010855D02*
X009381Y010855D01*
X009488Y010749D01*
X009488Y010531D02*
X009915Y010531D01*
X010021Y010424D01*
X010021Y010211D01*
X009915Y010104D01*
X009488Y010531D01*
X009381Y010424D01*
X009381Y010211D01*
X009488Y010104D01*
X009915Y010104D01*
X009915Y009887D02*
X010021Y009780D01*
X010021Y009566D01*
X009915Y009460D01*
X009488Y009460D01*
X009381Y009566D01*
X009381Y009780D01*
X009488Y009887D01*
X009488Y009242D02*
X009594Y009242D01*
X009701Y009135D01*
X009701Y008815D01*
X010021Y008815D02*
X009381Y008815D01*
X009381Y009135D01*
X009488Y009242D01*
X009701Y009135D02*
X009808Y009242D01*
X009915Y009242D01*
X010021Y009135D01*
X010021Y008815D01*
X011241Y008575D02*
X011881Y008575D01*
X011881Y008255D01*
X011775Y008148D01*
X011561Y008148D01*
X011454Y008255D01*
X011454Y008575D01*
X011561Y007931D02*
X011881Y007931D01*
X011881Y007610D01*
X011775Y007504D01*
X011668Y007610D01*
X011668Y007931D01*
X011561Y007931D02*
X011454Y007824D01*
X011454Y007610D01*
X011454Y007180D02*
X011454Y006967D01*
X011348Y007073D02*
X011775Y007073D01*
X011881Y007180D01*
X011775Y006749D02*
X011668Y006642D01*
X011668Y006429D01*
X011561Y006322D01*
X011454Y006429D01*
X011454Y006749D01*
X011775Y006749D02*
X011881Y006642D01*
X011881Y006322D01*
X011881Y006105D02*
X011881Y005784D01*
X011775Y005678D01*
X011561Y005678D01*
X011454Y005784D01*
X011454Y006105D01*
X011988Y006105D01*
X012095Y005998D01*
X012095Y005891D01*
X011881Y005460D02*
X011561Y005460D01*
X011454Y005353D01*
X011454Y005033D01*
X011881Y005033D01*
X011881Y004816D02*
X011881Y004495D01*
X011775Y004389D01*
X011454Y004389D01*
X011881Y004065D02*
X011881Y003851D01*
X011881Y003958D02*
X011241Y003958D01*
X011241Y003851D01*
X011348Y003634D02*
X011241Y003527D01*
X011241Y003314D01*
X011348Y003207D01*
X011454Y003207D01*
X011561Y003314D01*
X011561Y003527D01*
X011668Y003634D01*
X011775Y003634D01*
X011881Y003527D01*
X011881Y003314D01*
X011775Y003207D01*
X011775Y002132D02*
X011881Y002132D01*
X011881Y002025D01*
X011775Y002025D01*
X011775Y002132D01*
X011668Y001808D02*
X011241Y001808D01*
X011668Y001808D02*
X011881Y001594D01*
X011668Y001381D01*
X011241Y001381D01*
X010021Y001401D02*
X010021Y001188D01*
X009915Y001081D01*
X009381Y001081D01*
X009915Y001508D02*
X010021Y001401D01*
X009915Y001508D02*
X009381Y001508D01*
X009701Y001725D02*
X009594Y001832D01*
X009594Y002152D01*
X009808Y002046D02*
X009808Y001832D01*
X009701Y001725D01*
X010021Y001725D02*
X010021Y002046D01*
X009915Y002152D01*
X009808Y002046D01*
X009808Y002370D02*
X009808Y002797D01*
X009701Y002797D01*
X009594Y002690D01*
X009594Y002477D01*
X009701Y002370D01*
X009915Y002370D01*
X010021Y002477D01*
X010021Y002690D01*
X010021Y003659D02*
X010021Y003979D01*
X009915Y004086D01*
X009808Y004086D01*
X009701Y003979D01*
X009701Y003659D01*
X010021Y003659D02*
X009381Y003659D01*
X009381Y003979D01*
X009488Y004086D01*
X009594Y004086D01*
X009701Y003979D01*
X009488Y004303D02*
X009915Y004303D01*
X010021Y004410D01*
X010021Y004624D01*
X009915Y004730D01*
X009915Y004948D02*
X009488Y005375D01*
X009915Y005375D01*
X010021Y005268D01*
X010021Y005055D01*
X009915Y004948D01*
X009488Y004948D01*
X009381Y005055D01*
X009381Y005268D01*
X009488Y005375D01*
X009381Y005592D02*
X009701Y005592D01*
X009594Y005806D01*
X009594Y005913D01*
X009701Y006019D01*
X009915Y006019D01*
X010021Y005913D01*
X010021Y005699D01*
X009915Y005592D01*
X009381Y005592D02*
X009381Y006019D01*
X009701Y006882D02*
X009915Y006882D01*
X010021Y006988D01*
X010021Y007202D01*
X009915Y007309D01*
X009701Y007309D01*
X009594Y007202D01*
X009594Y006988D01*
X009701Y006882D01*
X009594Y007526D02*
X010021Y007526D01*
X009808Y007526D02*
X009594Y007740D01*
X009594Y007846D01*
X006071Y007896D02*
X006071Y007575D01*
X005965Y007469D01*
X005751Y007469D01*
X005644Y007575D01*
X005644Y007896D01*
X005751Y008113D02*
X005644Y008220D01*
X005644Y008433D01*
X005751Y008540D01*
X005858Y008540D01*
X005858Y008113D01*
X005965Y008113D02*
X005751Y008113D01*
X005965Y008113D02*
X006071Y008220D01*
X006071Y008433D01*
X006071Y007251D02*
X006071Y006931D01*
X005965Y006824D01*
X005858Y006931D01*
X005858Y007251D01*
X005751Y007251D02*
X006071Y007251D01*
X005751Y007251D02*
X005644Y007144D01*
X005644Y006931D01*
X006071Y006501D02*
X006071Y006287D01*
X006071Y006394D02*
X005431Y006394D01*
X005431Y006287D01*
X007751Y005318D02*
X007751Y004891D01*
X007858Y004673D02*
X007965Y004673D01*
X008071Y004566D01*
X008071Y004353D01*
X007965Y004246D01*
X007751Y004353D02*
X007751Y004566D01*
X007858Y004673D01*
X007538Y004673D02*
X007431Y004566D01*
X007431Y004353D01*
X007538Y004246D01*
X007644Y004246D01*
X007751Y004353D01*
X007751Y004028D02*
X007858Y003922D01*
X007858Y003601D01*
X008071Y003601D02*
X007431Y003601D01*
X007431Y003922D01*
X007538Y004028D01*
X007751Y004028D01*
X007858Y003815D02*
X008071Y004028D01*
X009381Y004410D02*
X009381Y004624D01*
X009488Y004730D01*
X009381Y004410D02*
X009488Y004303D01*
X011454Y004816D02*
X011988Y004816D01*
X012095Y004709D01*
X012095Y004602D01*
X007431Y010367D02*
X007538Y010474D01*
X007644Y010691D02*
X007965Y010691D01*
X009701Y014401D02*
X009594Y014508D01*
X009594Y014721D01*
X009701Y014828D01*
X009808Y014828D01*
X009808Y014401D01*
X009915Y014401D02*
X009701Y014401D01*
X009915Y014401D02*
X010021Y014508D01*
X010021Y014721D01*
X010021Y015046D02*
X010021Y015366D01*
X009915Y015473D01*
X009808Y015366D01*
X009808Y015152D01*
X009701Y015046D01*
X009594Y015152D01*
X009594Y015473D01*
X008071Y015523D02*
X008071Y015096D01*
X007431Y015096D01*
X007751Y015740D02*
X007965Y015740D01*
X008071Y015847D01*
X008071Y016060D01*
X007965Y016167D01*
X007751Y016167D01*
X007644Y016060D01*
X007644Y015847D01*
X007751Y015740D01*
X007751Y016385D02*
X007965Y016385D01*
X008071Y016491D01*
X008071Y016705D01*
X007965Y016812D01*
X007751Y016812D01*
X007644Y016705D01*
X007644Y016491D01*
X007751Y016385D01*
X007644Y017029D02*
X008285Y017029D01*
X008071Y017029D02*
X008071Y017349D01*
X007965Y017456D01*
X007751Y017456D01*
X007644Y017349D01*
X007644Y017029D01*
X008271Y017454D02*
X008484Y017241D01*
X008911Y017241D01*
X008591Y017241D02*
X008591Y017668D01*
X008484Y017668D02*
X008911Y017668D01*
X008484Y017668D02*
X008271Y017454D01*
X008484Y018530D02*
X008484Y018743D01*
X008378Y018637D02*
X008805Y018637D01*
X008911Y018743D01*
X008805Y019067D02*
X008911Y019174D01*
X008911Y019387D01*
X008805Y019494D01*
X008591Y019494D01*
X008484Y019387D01*
X008484Y019174D01*
X008591Y019067D01*
X008805Y019067D01*
X008911Y020356D02*
X008271Y020356D01*
X008271Y020676D01*
X008378Y020783D01*
X008591Y020783D01*
X008698Y020676D01*
X008698Y020356D01*
X008911Y021001D02*
X008911Y021214D01*
X008911Y021107D02*
X008484Y021107D01*
X008484Y021001D01*
X008271Y021107D02*
X008164Y021107D01*
X008484Y021538D02*
X008911Y021538D01*
X008484Y021538D02*
X008484Y021858D01*
X008591Y021965D01*
X008911Y021965D01*
X008591Y022827D02*
X008591Y023254D01*
X008805Y023471D02*
X008378Y023471D01*
X008271Y023578D01*
X008271Y023791D01*
X008378Y023898D01*
X008805Y023471D01*
X008911Y023578D01*
X008911Y023791D01*
X008805Y023898D01*
X008378Y023898D01*
X008271Y023147D02*
X008911Y023147D01*
X008591Y022827D02*
X008271Y023147D01*
X012631Y022700D02*
X012844Y022486D01*
X013271Y022486D01*
X012951Y022486D02*
X012951Y022913D01*
X012844Y022913D02*
X013271Y022913D01*
X012844Y022913D02*
X012631Y022700D01*
X032131Y022769D02*
X032558Y022769D01*
X032771Y022555D01*
X032558Y022342D01*
X032131Y022342D01*
X032131Y022986D02*
X032558Y022986D01*
X032771Y023200D01*
X032558Y023413D01*
X032131Y023413D01*
D11*
X046576Y023026D03*
X046576Y021776D03*
X046576Y020526D03*
X046576Y019276D03*
X046576Y018026D03*
X046576Y016776D03*
X046576Y015526D03*
X046576Y014276D03*
X046576Y013026D03*
X046576Y011776D03*
X046576Y010526D03*
X046576Y009276D03*
X046576Y008026D03*
X046576Y006776D03*
X046576Y005526D03*
X046576Y004276D03*
X046576Y003026D03*
X046576Y001776D03*
D12*
X043351Y001751D02*
X043351Y001951D01*
X041951Y001951D01*
X042201Y002951D02*
X043201Y002951D01*
X042201Y002951D02*
X041701Y003451D01*
X041701Y004451D02*
X043201Y004451D01*
X043201Y005451D02*
X042201Y005451D01*
X041701Y005951D01*
X041701Y006951D02*
X043201Y006951D01*
X043201Y007951D02*
X042201Y007951D01*
X041701Y008451D01*
X041701Y009451D02*
X043201Y009451D01*
X043201Y010451D02*
X042201Y010451D01*
X041701Y010951D01*
X041701Y011951D02*
X043201Y011951D01*
X043201Y012951D02*
X042201Y012951D01*
X041701Y013451D01*
X041701Y014451D02*
X043201Y014451D01*
X043201Y015451D02*
X042201Y015451D01*
X041701Y015951D01*
X041701Y016951D02*
X043201Y016951D01*
X043201Y017951D02*
X042201Y017951D01*
X041701Y018451D01*
X041701Y019451D02*
X043201Y019451D01*
X043201Y020451D02*
X042201Y020451D01*
X041701Y020951D01*
X043301Y021751D02*
X043351Y021951D01*
X041951Y021951D01*
X042201Y022951D02*
X043701Y022951D01*
X042201Y022951D02*
X041701Y023451D01*
D13*
X041701Y023451D03*
X040201Y022951D03*
X041701Y021951D03*
X040201Y021451D03*
X041701Y020951D03*
X040201Y020451D03*
X041701Y019451D03*
X040201Y018951D03*
X041701Y018451D03*
X040201Y017951D03*
X041701Y016951D03*
X040201Y016451D03*
X041701Y015951D03*
X040201Y015451D03*
X041701Y014451D03*
X040201Y013951D03*
X041701Y013451D03*
X040201Y012951D03*
X041701Y011951D03*
X040201Y011451D03*
X041701Y010951D03*
X040201Y010451D03*
X041701Y009451D03*
X040201Y008951D03*
X041701Y008451D03*
X040201Y007951D03*
X041701Y006951D03*
X040201Y006451D03*
X041701Y005951D03*
X040201Y005451D03*
X041701Y004451D03*
X040201Y003951D03*
X041701Y003451D03*
X040201Y002951D03*
X041701Y001951D03*
X040201Y001451D03*
D14*
X030101Y004101D03*
X029101Y004101D03*
X028101Y004101D03*
X027101Y004101D03*
X026101Y004101D03*
X025101Y004101D03*
X024101Y004101D03*
X023101Y004101D03*
X023101Y007101D03*
X024101Y007101D03*
X025101Y007101D03*
X026101Y007101D03*
X027101Y007101D03*
X028101Y007101D03*
X029101Y007101D03*
X030101Y007101D03*
X021051Y010001D03*
X020051Y010001D03*
X019051Y010001D03*
X018051Y010001D03*
X017051Y010001D03*
X016051Y010001D03*
X015051Y010001D03*
X014051Y010001D03*
X014051Y013001D03*
X015051Y013001D03*
X016051Y013001D03*
X017051Y013001D03*
X018051Y013001D03*
X019051Y013001D03*
X020051Y013001D03*
X021051Y013001D03*
D15*
X022101Y012101D03*
X024101Y011101D03*
X023101Y010101D03*
X022101Y010101D03*
X023101Y008101D03*
X027101Y008101D03*
X027101Y010101D03*
X029101Y011101D03*
X019101Y008101D03*
X015101Y008101D03*
X013061Y006191D03*
X020101Y004101D03*
X021101Y002701D03*
X020101Y002101D03*
X025101Y002701D03*
X029101Y002561D03*
X033101Y002561D03*
X013061Y011191D03*
X014101Y014101D03*
X013101Y015101D03*
X015101Y015101D03*
X015101Y016101D03*
X013101Y017101D03*
X017101Y017101D03*
X019101Y016101D03*
X019101Y015101D03*
X017101Y015101D03*
X016101Y014101D03*
X022101Y016011D03*
X024101Y017101D03*
X027101Y016011D03*
X028101Y017101D03*
D16*
X032101Y018101D03*
D17*
X031101Y018101D03*
X030101Y018101D03*
X029101Y018101D03*
X028101Y018101D03*
X027101Y018101D03*
X026101Y018101D03*
X025101Y018101D03*
X024101Y018101D03*
X023101Y018101D03*
X022101Y018101D03*
X021101Y018101D03*
X020101Y018101D03*
X019101Y018101D03*
X018101Y018101D03*
X017101Y018101D03*
X016101Y018101D03*
X015101Y018101D03*
X014101Y018101D03*
X013101Y018101D03*
X013101Y019101D03*
X014101Y019101D03*
X015101Y019101D03*
X016101Y019101D03*
X017101Y019101D03*
X018101Y019101D03*
X019101Y019101D03*
X020101Y019101D03*
X021101Y019101D03*
X022101Y019101D03*
X023101Y019101D03*
X024101Y019101D03*
X025101Y019101D03*
X026101Y019101D03*
X027101Y019101D03*
X028101Y019101D03*
X029101Y019101D03*
X030101Y019101D03*
X031101Y019101D03*
X032101Y019101D03*
D18*
X032101Y017101D03*
X033101Y015101D03*
X035101Y013101D03*
X034101Y012101D03*
X031101Y009101D03*
X024101Y012101D03*
X025101Y013101D03*
X032101Y005101D03*
X031121Y003481D03*
X033101Y003451D03*
D19*
X021191Y004641D03*
X021191Y008641D03*
X021011Y015041D03*
X022061Y017061D03*
X025011Y015041D03*
X018061Y017061D03*
D20*
X017801Y017001D01*
X017301Y017001D01*
X017101Y017101D01*
X017201Y017301D01*
X017201Y017501D01*
X017601Y017901D01*
X017601Y018601D01*
X017101Y019101D01*
X016601Y019301D02*
X018501Y021201D01*
X030701Y021201D01*
X033201Y018701D01*
X033201Y015701D01*
X033601Y015301D01*
X033601Y012701D01*
X032201Y011301D01*
X032201Y007601D01*
X029201Y004601D01*
X029101Y004101D01*
X029201Y003601D01*
X029201Y002801D01*
X029101Y002561D01*
X029301Y002101D02*
X029401Y002101D01*
X030001Y002701D01*
X030001Y003601D01*
X030101Y004101D01*
X030301Y004501D01*
X031301Y004501D01*
X031501Y004701D01*
X041501Y004701D01*
X041701Y004451D01*
X041501Y003701D02*
X041701Y003451D01*
X041501Y003701D02*
X041301Y003701D01*
X040601Y004401D01*
X032201Y004401D01*
X031401Y003601D01*
X031121Y003481D01*
X031001Y003201D01*
X029401Y001601D01*
X024901Y001601D01*
X023201Y003301D01*
X023201Y003601D01*
X023101Y004101D01*
X023601Y003601D02*
X023601Y004601D01*
X023301Y004901D01*
X022901Y004901D01*
X021301Y003301D01*
X019801Y003301D01*
X018901Y004201D01*
X018901Y005401D01*
X015201Y009101D01*
X015201Y009501D01*
X015051Y010001D01*
X014901Y010501D01*
X012601Y012801D01*
X012601Y017301D01*
X012901Y017601D01*
X012901Y017901D01*
X013101Y018101D01*
X013301Y018301D01*
X013301Y018901D01*
X013101Y019101D01*
X013301Y019601D02*
X013601Y019301D01*
X013601Y017901D01*
X013201Y017501D01*
X013201Y017301D01*
X013101Y017101D01*
X013201Y016901D01*
X013201Y016001D01*
X014901Y016001D01*
X015101Y016101D01*
X016301Y016801D02*
X016301Y017901D01*
X016101Y018101D01*
X016601Y018301D02*
X016301Y018601D01*
X014901Y018601D01*
X014601Y018901D01*
X014601Y019301D01*
X014001Y019901D01*
X012801Y019901D01*
X012001Y019101D01*
X012001Y011001D01*
X014901Y008101D01*
X015101Y008101D01*
X013301Y006301D01*
X013061Y006191D01*
X015601Y006301D02*
X019901Y002001D01*
X020101Y002101D01*
X020001Y002301D01*
X020101Y002101D02*
X020301Y002001D01*
X021701Y002001D01*
X021201Y002501D01*
X021101Y002701D01*
X021701Y002001D02*
X024101Y002001D01*
X024801Y001301D01*
X032001Y001301D01*
X033001Y002301D01*
X033101Y002561D01*
X033201Y002801D01*
X033201Y003201D01*
X033101Y003451D01*
X033101Y002561D02*
X033201Y002301D01*
X033501Y002001D01*
X033301Y002001D01*
X033501Y002001D02*
X041501Y002001D01*
X041701Y001951D01*
X032201Y001301D02*
X032001Y001301D01*
X029331Y002111D02*
X029301Y002101D01*
X025001Y002101D01*
X024601Y002501D01*
X024601Y002601D01*
X023601Y003601D01*
X024101Y004101D02*
X024101Y005001D01*
X023801Y005301D01*
X022001Y005301D01*
X021501Y004801D01*
X021191Y004641D01*
X021401Y004901D01*
X021191Y004641D02*
X021001Y004401D01*
X020601Y004001D01*
X020601Y003901D01*
X020301Y003601D01*
X019901Y003601D01*
X019201Y004301D01*
X019201Y007901D01*
X019101Y008101D01*
X018901Y008101D01*
X017601Y009401D01*
X017601Y010601D01*
X018501Y011501D01*
X018501Y013501D01*
X019401Y014401D01*
X022101Y014401D01*
X025601Y017901D01*
X025601Y018301D01*
X025901Y018601D01*
X025901Y018901D01*
X026101Y019101D01*
X026601Y019301D02*
X026301Y019601D01*
X024901Y019601D01*
X024601Y019301D01*
X024601Y018901D01*
X024301Y018601D01*
X021601Y018601D01*
X021101Y018101D01*
X020901Y017601D02*
X020601Y017901D01*
X020601Y019301D01*
X020901Y019601D01*
X023301Y019601D01*
X023601Y019301D01*
X023901Y019301D01*
X024101Y019101D01*
X025101Y018101D02*
X024101Y017101D01*
X023901Y017001D01*
X023101Y016201D01*
X022301Y016201D01*
X022101Y016011D01*
X022301Y016501D02*
X021801Y016501D01*
X020601Y015301D01*
X019901Y016001D01*
X019301Y016001D01*
X019101Y016101D01*
X018601Y016801D02*
X018301Y016501D01*
X017001Y016501D01*
X016601Y016901D01*
X016601Y018301D01*
X016101Y019101D02*
X016301Y019301D01*
X016601Y019301D01*
X015101Y019101D02*
X017501Y021501D01*
X033401Y021501D01*
X035601Y019301D01*
X035601Y014301D01*
X033601Y012301D01*
X033601Y011901D01*
X038301Y007201D01*
X041501Y007201D01*
X041701Y006951D01*
X041701Y009451D02*
X041501Y009701D01*
X036701Y009701D01*
X034401Y012001D01*
X034101Y012101D01*
X035101Y013101D02*
X035401Y013201D01*
X036901Y014701D01*
X041501Y014701D01*
X041701Y014451D01*
X033101Y015101D02*
X033001Y015401D01*
X031301Y017101D01*
X031301Y017901D01*
X031101Y018101D01*
X032101Y018101D02*
X032301Y018301D01*
X032301Y018901D01*
X032101Y019101D01*
X030601Y019301D02*
X030601Y010701D01*
X031901Y009401D01*
X031901Y007901D01*
X028601Y004601D01*
X028601Y003601D01*
X028301Y003301D01*
X025201Y003301D01*
X025201Y002901D01*
X025101Y002701D01*
X024601Y002601D02*
X024601Y004601D01*
X025201Y005201D01*
X025901Y004501D01*
X026101Y004101D01*
X026301Y003701D01*
X026901Y003701D01*
X027101Y004101D01*
X027201Y004601D01*
X029201Y006601D01*
X029101Y007101D01*
X028901Y006701D01*
X028301Y006701D01*
X028101Y007101D01*
X028001Y007601D01*
X028001Y010901D01*
X024001Y014901D01*
X025101Y016001D01*
X026901Y016001D01*
X027101Y016011D01*
X028201Y016901D02*
X028101Y017101D01*
X028201Y016901D02*
X028201Y012101D01*
X029001Y011301D01*
X029101Y011101D01*
X029201Y010901D01*
X030901Y009201D01*
X031101Y009101D01*
X031601Y009301D02*
X031601Y008801D01*
X030301Y007501D01*
X030101Y007101D01*
X029601Y006601D02*
X029601Y009901D01*
X027601Y011901D01*
X027601Y014901D01*
X025301Y014901D01*
X025011Y015041D01*
X024001Y014901D02*
X021501Y012401D01*
X021301Y012601D01*
X021051Y013001D01*
X020301Y013401D02*
X020051Y013001D01*
X020301Y013401D02*
X021001Y014101D01*
X022801Y014101D01*
X026601Y017901D01*
X026601Y019301D01*
X027601Y018601D02*
X028101Y019101D01*
X028601Y019301D02*
X028001Y019901D01*
X020801Y019901D01*
X020201Y019301D01*
X020101Y019101D01*
X020001Y018901D01*
X019601Y018501D01*
X019601Y017901D01*
X020301Y017201D01*
X021801Y017201D01*
X022061Y017061D01*
X022601Y017301D02*
X022301Y017601D01*
X020901Y017601D01*
X022601Y017301D02*
X022601Y016801D01*
X022301Y016501D01*
X021011Y015041D02*
X020701Y015201D01*
X020601Y015301D01*
X019101Y015101D02*
X019001Y014901D01*
X018201Y014101D01*
X018201Y013501D01*
X018051Y013001D01*
X017201Y013501D02*
X017051Y013001D01*
X017201Y013501D02*
X017201Y014901D01*
X017101Y015101D01*
X016101Y014101D02*
X016201Y013901D01*
X016201Y013501D01*
X016051Y013001D01*
X015201Y013501D02*
X015051Y013001D01*
X015201Y013501D02*
X015201Y014901D01*
X015101Y015101D01*
X014101Y014101D02*
X014201Y013901D01*
X014201Y013501D01*
X014051Y013001D01*
X015601Y012401D02*
X015901Y012101D01*
X015901Y010501D01*
X016051Y010001D01*
X016901Y010501D02*
X017051Y010001D01*
X016901Y010501D02*
X016901Y012101D01*
X016601Y012401D01*
X016601Y016501D01*
X016301Y016801D01*
X015601Y017601D02*
X015101Y018101D01*
X015601Y017601D02*
X015601Y012401D01*
X013801Y010401D02*
X013201Y011001D01*
X013061Y011191D01*
X013001Y011301D01*
X012301Y012001D01*
X012301Y019001D01*
X012901Y019601D01*
X013301Y019601D01*
X018101Y019101D02*
X018301Y019301D01*
X018601Y019301D01*
X019801Y020501D01*
X029401Y020501D01*
X030601Y019301D01*
X030101Y019101D02*
X029901Y019301D01*
X029601Y019301D01*
X028701Y020201D01*
X020501Y020201D01*
X019601Y019301D01*
X019601Y018901D01*
X019301Y018601D01*
X018901Y018601D01*
X018601Y018301D01*
X018601Y016801D01*
X013201Y016001D02*
X013201Y015301D01*
X013101Y015101D01*
X019051Y013001D02*
X019301Y012601D01*
X019701Y012201D01*
X019901Y012201D01*
X021901Y010201D01*
X022101Y010101D01*
X022901Y010001D02*
X023101Y010101D01*
X022901Y010001D02*
X022101Y009201D01*
X020801Y009201D01*
X020601Y009401D01*
X020601Y010501D01*
X020001Y011101D01*
X018701Y011101D01*
X018201Y010601D01*
X018201Y010501D01*
X018051Y010001D01*
X019051Y010001D02*
X019301Y009601D01*
X020801Y008101D01*
X023101Y008101D01*
X023201Y008301D01*
X023201Y009501D01*
X023601Y009901D01*
X023601Y011401D01*
X024001Y011801D01*
X024101Y012101D01*
X025201Y012801D02*
X025601Y012401D01*
X025601Y010901D01*
X024601Y009901D01*
X024601Y006601D01*
X024301Y006301D01*
X023901Y006301D01*
X023501Y006701D01*
X023301Y006701D01*
X023101Y007101D01*
X024101Y007101D02*
X024201Y007601D01*
X024201Y010901D01*
X024101Y011101D01*
X022301Y012001D02*
X022101Y012101D01*
X021901Y012001D01*
X021501Y012401D01*
X025101Y013101D02*
X025201Y012801D01*
X028601Y012301D02*
X028601Y019301D01*
X027601Y018601D02*
X027601Y014901D01*
X032101Y017101D02*
X032201Y017401D01*
X032201Y017901D01*
X032101Y018101D01*
X028601Y012301D02*
X031601Y009301D01*
X027201Y007901D02*
X027201Y007601D01*
X027101Y007101D01*
X026101Y007101D02*
X026201Y007601D01*
X026201Y009101D01*
X027001Y009901D01*
X027101Y010101D01*
X027101Y008101D02*
X027201Y007901D01*
X025101Y007101D02*
X025001Y006601D01*
X024401Y006001D01*
X025201Y005201D01*
X025101Y004101D02*
X025201Y003601D01*
X025201Y003301D01*
X028101Y004101D02*
X028201Y004601D01*
X028201Y005201D01*
X029601Y006601D01*
X031501Y004701D02*
X031801Y005001D01*
X032101Y005101D01*
X031121Y003481D02*
X030901Y003301D01*
X024401Y006001D02*
X021701Y006001D01*
X020201Y004501D01*
X020201Y004301D01*
X020101Y004101D01*
X015601Y006301D02*
X015601Y008301D01*
X014301Y009601D01*
X014051Y010001D01*
X013801Y010401D01*
X014901Y008001D02*
X015101Y008101D01*
X019101Y008101D02*
X019301Y008001D01*
X020201Y009401D02*
X020901Y008701D01*
X021191Y008641D01*
X020201Y009401D02*
X020201Y009501D01*
X020051Y010001D01*
X022901Y008201D02*
X023101Y008101D01*
M02*
