G75*
G70*
%OFA0B0*%
%FSLAX24Y24*%
%IPPOS*%
%LPD*%
%AMOC8*
5,1,8,0,0,1.08239X$1,22.5*
%
%ADD10C,0.0140*%
%ADD11O,0.0520X0.1040*%
%ADD12OC8,0.0600*%
%ADD13OC8,0.0520*%
%ADD14O,0.1120X0.0560*%
%ADD15O,0.1040X0.0520*%
%ADD16C,0.0200*%
%ADD17C,0.0400*%
%ADD18C,0.0100*%
D10*
X050942Y028155D02*
X050848Y028248D01*
X050755Y028248D01*
X050662Y028155D01*
X050662Y027968D01*
X050568Y027875D01*
X050475Y027875D01*
X050381Y027968D01*
X050381Y028155D01*
X050475Y028248D01*
X050942Y028155D02*
X050942Y027968D01*
X050848Y027875D01*
X050942Y027604D02*
X050755Y027417D01*
X050755Y027510D02*
X050755Y027230D01*
X050942Y027230D02*
X050381Y027230D01*
X050381Y027510D01*
X050475Y027604D01*
X050662Y027604D01*
X050755Y027510D01*
X050755Y026959D02*
X050381Y026959D01*
X050381Y026586D02*
X050755Y026586D01*
X050942Y026772D01*
X050755Y026959D01*
X050381Y026315D02*
X050942Y025941D01*
X050662Y025670D02*
X050755Y025577D01*
X050755Y025297D01*
X050942Y025297D02*
X050381Y025297D01*
X050381Y025577D01*
X050475Y025670D01*
X050662Y025670D01*
X050848Y025026D02*
X050475Y025026D01*
X050381Y024932D01*
X050381Y024652D01*
X050942Y024652D01*
X050942Y024932D01*
X050848Y025026D01*
X050662Y024381D02*
X050755Y024288D01*
X050755Y024008D01*
X050942Y024008D02*
X050381Y024008D01*
X050381Y024288D01*
X050475Y024381D01*
X050662Y024381D01*
X050755Y023737D02*
X050848Y023737D01*
X050942Y023643D01*
X050942Y023456D01*
X050848Y023363D01*
X050755Y023363D01*
X050662Y023456D01*
X050662Y023643D01*
X050755Y023737D01*
X050662Y023643D02*
X050568Y023737D01*
X050475Y023737D01*
X050381Y023643D01*
X050381Y023456D01*
X050475Y023363D01*
X050568Y023363D01*
X050662Y023456D01*
X050662Y023092D02*
X050662Y022718D01*
X050568Y022718D02*
X050381Y022905D01*
X050568Y023092D01*
X050942Y023092D01*
X050942Y022718D02*
X050568Y022718D01*
X050475Y022448D02*
X050662Y022448D01*
X050755Y022354D01*
X050755Y022074D01*
X050942Y022074D02*
X050381Y022074D01*
X050381Y022354D01*
X050475Y022448D01*
X050662Y012612D02*
X050755Y012612D01*
X050755Y012238D01*
X050662Y012238D02*
X050568Y012331D01*
X050568Y012518D01*
X050662Y012612D01*
X050942Y012518D02*
X050942Y012331D01*
X050848Y012238D01*
X050662Y012238D01*
X050568Y011967D02*
X050568Y011687D01*
X050662Y011593D01*
X050848Y011593D01*
X050942Y011687D01*
X050942Y011967D01*
X050381Y011967D01*
X050942Y011243D02*
X050942Y011056D01*
X050942Y011150D02*
X050568Y011150D01*
X050568Y011056D01*
X050381Y011150D02*
X050288Y011150D01*
X050475Y010785D02*
X050381Y010692D01*
X050381Y010505D01*
X050475Y010412D01*
X050568Y010412D01*
X050662Y010505D01*
X050662Y010692D01*
X050755Y010785D01*
X050848Y010785D01*
X050942Y010692D01*
X050942Y010505D01*
X050848Y010412D01*
X050942Y009417D02*
X050848Y009324D01*
X050475Y009324D01*
X050568Y009417D02*
X050568Y009230D01*
X050662Y008959D02*
X050942Y008959D01*
X050662Y008959D02*
X050568Y008866D01*
X050568Y008586D01*
X050942Y008586D01*
X050755Y008315D02*
X050755Y007941D01*
X050662Y007941D02*
X050568Y008034D01*
X050568Y008221D01*
X050662Y008315D01*
X050755Y008315D01*
X050942Y008221D02*
X050942Y008034D01*
X050848Y007941D01*
X050662Y007941D01*
X050662Y007670D02*
X050942Y007670D01*
X050662Y007670D02*
X050568Y007577D01*
X050568Y007297D01*
X050942Y007297D01*
X050848Y007026D02*
X050662Y007026D01*
X050568Y006932D01*
X050568Y006745D01*
X050662Y006652D01*
X050848Y006652D01*
X050942Y006745D01*
X050942Y006932D01*
X050848Y007026D01*
X050848Y006381D02*
X050942Y006288D01*
X050942Y006008D01*
X051129Y006008D02*
X050568Y006008D01*
X050568Y006288D01*
X050662Y006381D01*
X050848Y006381D01*
X050942Y005737D02*
X050662Y005737D01*
X050568Y005643D01*
X050662Y005550D01*
X050942Y005550D01*
X050942Y005363D02*
X050568Y005363D01*
X050568Y005456D01*
X050662Y005550D01*
X050662Y005092D02*
X050568Y004999D01*
X050568Y004812D01*
X050662Y004718D01*
X050848Y004718D01*
X050942Y004812D01*
X050942Y004999D01*
X050848Y005092D01*
X050662Y005092D01*
X050848Y004448D02*
X050942Y004354D01*
X050942Y004167D01*
X050848Y004074D01*
X050475Y004074D01*
X050381Y004167D01*
X050381Y004354D01*
X050475Y004448D01*
D11*
X046512Y003504D03*
X045512Y003504D03*
X044512Y003504D03*
X043512Y003504D03*
X042512Y003504D03*
X041512Y003504D03*
X040512Y003504D03*
X039512Y003504D03*
X038512Y003504D03*
X037512Y003504D03*
X037512Y006504D03*
X038512Y006504D03*
X039512Y006504D03*
X040512Y006504D03*
X041512Y006504D03*
X042512Y006504D03*
X043512Y006504D03*
X044512Y006504D03*
X045512Y006504D03*
X046512Y006504D03*
X046512Y008504D03*
X045512Y008504D03*
X044512Y008504D03*
X043512Y008504D03*
X042512Y008504D03*
X041512Y008504D03*
X040512Y008504D03*
X039512Y008504D03*
X038512Y008504D03*
X037512Y008504D03*
X037512Y011504D03*
X038512Y011504D03*
X039512Y011504D03*
X040512Y011504D03*
X041512Y011504D03*
X042512Y011504D03*
X043512Y011504D03*
X044512Y011504D03*
X045512Y011504D03*
X046512Y011504D03*
X046512Y013504D03*
X045512Y013504D03*
X044512Y013504D03*
X043512Y013504D03*
X042512Y013504D03*
X041512Y013504D03*
X040512Y013504D03*
X039512Y013504D03*
X038512Y013504D03*
X037512Y013504D03*
X037512Y016504D03*
X038512Y016504D03*
X039512Y016504D03*
X040512Y016504D03*
X041512Y016504D03*
X042512Y016504D03*
X043512Y016504D03*
X044512Y016504D03*
X045512Y016504D03*
X046512Y016504D03*
X046512Y018504D03*
X045512Y018504D03*
X044512Y018504D03*
X043512Y018504D03*
X042512Y018504D03*
X041512Y018504D03*
X040512Y018504D03*
X039512Y018504D03*
X038512Y018504D03*
X037512Y018504D03*
X037512Y021504D03*
X038512Y021504D03*
X039512Y021504D03*
X040512Y021504D03*
X041512Y021504D03*
X042512Y021504D03*
X043512Y021504D03*
X044512Y021504D03*
X045512Y021504D03*
X046512Y021504D03*
X046512Y023504D03*
X045512Y023504D03*
X044512Y023504D03*
X043512Y023504D03*
X042512Y023504D03*
X041512Y023504D03*
X040512Y023504D03*
X039512Y023504D03*
X038512Y023504D03*
X037512Y023504D03*
X037512Y026504D03*
X038512Y026504D03*
X039512Y026504D03*
X040512Y026504D03*
X041512Y026504D03*
X042512Y026504D03*
X043512Y026504D03*
X044512Y026504D03*
X045512Y026504D03*
X046512Y026504D03*
X046512Y028504D03*
X045512Y028504D03*
X044512Y028504D03*
X043512Y028504D03*
X042512Y028504D03*
X041512Y028504D03*
X040512Y028504D03*
X039512Y028504D03*
X038512Y028504D03*
X037512Y028504D03*
X037512Y031504D03*
X038512Y031504D03*
X039512Y031504D03*
X040512Y031504D03*
X041512Y031504D03*
X042512Y031504D03*
X043512Y031504D03*
X044512Y031504D03*
X045512Y031504D03*
X046512Y031504D03*
X033512Y021504D03*
X032512Y021504D03*
X031512Y021504D03*
X030512Y021504D03*
X029512Y021504D03*
X028512Y021504D03*
X027512Y021504D03*
X026512Y021504D03*
X026512Y024504D03*
X025512Y024504D03*
X024512Y024504D03*
X023512Y024504D03*
X022512Y024504D03*
X022512Y027504D03*
X023512Y027504D03*
X024512Y027504D03*
X025512Y027504D03*
X026512Y027504D03*
X027512Y027504D03*
X028512Y027504D03*
X029512Y027504D03*
X030512Y027504D03*
X031512Y027504D03*
X031512Y029504D03*
X030512Y029504D03*
X029512Y029504D03*
X028512Y029504D03*
X027512Y029504D03*
X026512Y029504D03*
X025512Y029504D03*
X024512Y029504D03*
X023512Y029504D03*
X022512Y029504D03*
X022512Y032504D03*
X023512Y032504D03*
X024512Y032504D03*
X025512Y032504D03*
X026512Y032504D03*
X027512Y032504D03*
X028512Y032504D03*
X029512Y032504D03*
X030512Y032504D03*
X031512Y032504D03*
X031512Y024504D03*
X030512Y024504D03*
X029512Y024504D03*
X028512Y024504D03*
X027512Y024504D03*
X027512Y018504D03*
X028512Y018504D03*
X029512Y018504D03*
X030512Y018504D03*
X031512Y018504D03*
X032512Y018504D03*
X033512Y018504D03*
X033512Y016504D03*
X032512Y016504D03*
X031512Y016504D03*
X030512Y016504D03*
X029512Y016504D03*
X028512Y016504D03*
X027512Y016504D03*
X026512Y016504D03*
X026512Y018504D03*
X026512Y013504D03*
X027512Y013504D03*
X028512Y013504D03*
X029512Y013504D03*
X030512Y013504D03*
X031512Y013504D03*
X032512Y013504D03*
X033512Y013504D03*
X031512Y010504D03*
X030512Y010504D03*
X029512Y010504D03*
X028512Y010504D03*
X027512Y010504D03*
X026512Y010504D03*
X025512Y010504D03*
X024512Y010504D03*
X023512Y010504D03*
X022512Y010504D03*
X022512Y007504D03*
X023512Y007504D03*
X024512Y007504D03*
X025512Y007504D03*
X026512Y007504D03*
X027512Y007504D03*
X028512Y007504D03*
X029512Y007504D03*
X030512Y007504D03*
X031512Y007504D03*
X031512Y005504D03*
X030512Y005504D03*
X029512Y005504D03*
X028512Y005504D03*
X027512Y005504D03*
X026512Y005504D03*
X025512Y005504D03*
X024512Y005504D03*
X023512Y005504D03*
X022512Y005504D03*
X022512Y002504D03*
X023512Y002504D03*
X024512Y002504D03*
X025512Y002504D03*
X026512Y002504D03*
X027512Y002504D03*
X028512Y002504D03*
X029512Y002504D03*
X030512Y002504D03*
X031512Y002504D03*
X015512Y003504D03*
X014512Y003504D03*
X013512Y003504D03*
X012512Y003504D03*
X011512Y003504D03*
X010512Y003504D03*
X009512Y003504D03*
X008512Y003504D03*
X007512Y003504D03*
X006512Y003504D03*
X006512Y006504D03*
X007512Y006504D03*
X008512Y006504D03*
X009512Y006504D03*
X010512Y006504D03*
X011512Y006504D03*
X012512Y006504D03*
X013512Y006504D03*
X014512Y006504D03*
X015512Y006504D03*
X015512Y008504D03*
X014512Y008504D03*
X013512Y008504D03*
X012512Y008504D03*
X011512Y008504D03*
X010512Y008504D03*
X009512Y008504D03*
X008512Y008504D03*
X007512Y008504D03*
X006512Y008504D03*
X006512Y011504D03*
X007512Y011504D03*
X008512Y011504D03*
X009512Y011504D03*
X010512Y011504D03*
X011512Y011504D03*
X012512Y011504D03*
X013512Y011504D03*
X014512Y011504D03*
X015512Y011504D03*
X015512Y013504D03*
X014512Y013504D03*
X013512Y013504D03*
X012512Y013504D03*
X011512Y013504D03*
X010512Y013504D03*
X009512Y013504D03*
X008512Y013504D03*
X007512Y013504D03*
X006512Y013504D03*
X006512Y016504D03*
X007512Y016504D03*
X008512Y016504D03*
X009512Y016504D03*
X010512Y016504D03*
X011512Y016504D03*
X012512Y016504D03*
X013512Y016504D03*
X014512Y016504D03*
X015512Y016504D03*
X015512Y018504D03*
X014512Y018504D03*
X013512Y018504D03*
X012512Y018504D03*
X011512Y018504D03*
X010512Y018504D03*
X009512Y018504D03*
X008512Y018504D03*
X007512Y018504D03*
X006512Y018504D03*
X006512Y021504D03*
X007512Y021504D03*
X008512Y021504D03*
X009512Y021504D03*
X010512Y021504D03*
X011512Y021504D03*
X012512Y021504D03*
X013512Y021504D03*
X014512Y021504D03*
X015512Y021504D03*
X015512Y023504D03*
X014512Y023504D03*
X013512Y023504D03*
X012512Y023504D03*
X011512Y023504D03*
X010512Y023504D03*
X009512Y023504D03*
X008512Y023504D03*
X007512Y023504D03*
X006512Y023504D03*
X006512Y026504D03*
X007512Y026504D03*
X008512Y026504D03*
X009512Y026504D03*
X010512Y026504D03*
X011512Y026504D03*
X012512Y026504D03*
X013512Y026504D03*
X014512Y026504D03*
X015512Y026504D03*
X015512Y028504D03*
X014512Y028504D03*
X013512Y028504D03*
X012512Y028504D03*
X011512Y028504D03*
X010512Y028504D03*
X009512Y028504D03*
X008512Y028504D03*
X007512Y028504D03*
X006512Y028504D03*
X006512Y031504D03*
X007512Y031504D03*
X008512Y031504D03*
X009512Y031504D03*
X010512Y031504D03*
X011512Y031504D03*
X012512Y031504D03*
X013512Y031504D03*
X014512Y031504D03*
X015512Y031504D03*
D12*
X018512Y031504D03*
X019512Y031504D03*
X019512Y032504D03*
X018512Y032504D03*
X018512Y030504D03*
X019512Y030504D03*
X019512Y029504D03*
X018512Y029504D03*
X018512Y028504D03*
X019512Y028504D03*
X019512Y027504D03*
X018512Y027504D03*
X018512Y026504D03*
X019512Y026504D03*
X019512Y025504D03*
X018512Y025504D03*
X023012Y021504D03*
X024012Y021504D03*
X024012Y020504D03*
X024012Y019504D03*
X023012Y019504D03*
X023012Y020504D03*
X023012Y018504D03*
X024012Y018504D03*
X024012Y017504D03*
X023012Y017504D03*
X023012Y016504D03*
X024012Y016504D03*
X024012Y015504D03*
X024012Y014504D03*
X023012Y014504D03*
X023012Y015504D03*
X023012Y013504D03*
X024012Y013504D03*
X019512Y011504D03*
X019512Y010504D03*
X018512Y010504D03*
X018512Y011504D03*
X018512Y009504D03*
X019512Y009504D03*
X019512Y008504D03*
X018512Y008504D03*
X018512Y007504D03*
X019512Y007504D03*
X019512Y006504D03*
X018512Y006504D03*
X018512Y005504D03*
X019512Y005504D03*
X019512Y004504D03*
X018512Y004504D03*
X018512Y003504D03*
X019512Y003504D03*
X019512Y002504D03*
X018512Y002504D03*
X033512Y003504D03*
X034512Y003504D03*
X034512Y004504D03*
X033512Y004504D03*
X033512Y005504D03*
X034512Y005504D03*
X034512Y006504D03*
X034512Y007504D03*
X033512Y007504D03*
X033512Y006504D03*
X033512Y008504D03*
X034512Y008504D03*
X034512Y009504D03*
X033512Y009504D03*
X033512Y010504D03*
X034512Y010504D03*
X048512Y010504D03*
X049512Y010504D03*
X049512Y011504D03*
X048512Y011504D03*
X048512Y009504D03*
X049512Y009504D03*
X049512Y008504D03*
X048512Y008504D03*
X048512Y007504D03*
X049512Y007504D03*
X049512Y006504D03*
X048512Y006504D03*
X048512Y005504D03*
X049512Y005504D03*
X049512Y004504D03*
X048512Y004504D03*
X048512Y014504D03*
X049512Y014504D03*
X049512Y015504D03*
X048512Y015504D03*
X048512Y016504D03*
X049512Y016504D03*
X049512Y017504D03*
X048512Y017504D03*
X048512Y018504D03*
X049512Y018504D03*
X049512Y019504D03*
X049512Y020504D03*
X048512Y020504D03*
X048512Y019504D03*
X048512Y021504D03*
X049512Y021504D03*
X049512Y024504D03*
X048512Y024504D03*
X048512Y025504D03*
X049512Y025504D03*
X049512Y026504D03*
X048512Y026504D03*
X048512Y027504D03*
X049512Y027504D03*
X049512Y028504D03*
X048512Y028504D03*
X048512Y029504D03*
X049512Y029504D03*
X049512Y030504D03*
X048512Y030504D03*
X048512Y031504D03*
X049512Y031504D03*
X033512Y029454D03*
X033512Y023554D03*
X003512Y024504D03*
X002512Y024504D03*
X002512Y025504D03*
X003512Y025504D03*
X003512Y026504D03*
X002512Y026504D03*
X002512Y027504D03*
X003512Y027504D03*
X003512Y028504D03*
X002512Y028504D03*
X002512Y029504D03*
X003512Y029504D03*
X003512Y030504D03*
X002512Y030504D03*
X002512Y031504D03*
X003512Y031504D03*
X003512Y021504D03*
X002512Y021504D03*
X002512Y020504D03*
X003512Y020504D03*
X003512Y019504D03*
X002512Y019504D03*
X002512Y018504D03*
X003512Y018504D03*
X003512Y017504D03*
X002512Y017504D03*
X002512Y016504D03*
X003512Y016504D03*
X003512Y015504D03*
X003512Y014504D03*
X002512Y014504D03*
X002512Y015504D03*
X002512Y011504D03*
X003512Y011504D03*
X003512Y010504D03*
X002512Y010504D03*
X002512Y009504D03*
X003512Y009504D03*
X003512Y008504D03*
X002512Y008504D03*
X002512Y007504D03*
X003512Y007504D03*
X003512Y006504D03*
X002512Y006504D03*
X002512Y005504D03*
X003512Y005504D03*
X003512Y004504D03*
X002512Y004504D03*
D13*
X005512Y004504D03*
X005512Y006504D03*
X005512Y009504D03*
X005512Y011504D03*
X005512Y014504D03*
X005512Y016504D03*
X005512Y019504D03*
X005512Y021504D03*
X005512Y024504D03*
X005512Y026504D03*
X005512Y029504D03*
X005512Y031504D03*
X019012Y021504D03*
X021012Y021504D03*
X025512Y021504D03*
X025512Y019504D03*
X025512Y016504D03*
X025512Y014504D03*
X021512Y010504D03*
X021512Y008504D03*
X021512Y005504D03*
X021512Y003504D03*
X036512Y004504D03*
X036512Y006504D03*
X036512Y009504D03*
X036512Y011504D03*
X036512Y014504D03*
X036512Y016504D03*
X036512Y019504D03*
X036512Y021504D03*
X036512Y024504D03*
X036512Y026504D03*
X036512Y029504D03*
X036512Y031504D03*
X021512Y030504D03*
X021512Y032504D03*
X021512Y027504D03*
X021512Y025504D03*
D14*
X033512Y031504D03*
X033512Y032504D03*
D15*
X021512Y020504D03*
X021512Y019504D03*
X021512Y018504D03*
X021512Y017504D03*
X021512Y016504D03*
X021512Y015504D03*
X021512Y014504D03*
X021512Y013504D03*
X018512Y013504D03*
X018512Y014504D03*
X018512Y015504D03*
X018512Y016504D03*
X018512Y017504D03*
X018512Y018504D03*
X018512Y019504D03*
X018512Y020504D03*
D16*
X017262Y020254D02*
X017262Y021254D01*
X017512Y021504D01*
X018762Y021504D02*
X019012Y021504D01*
X019012Y024504D01*
X017512Y023004D02*
X017512Y022754D01*
X018762Y021504D01*
X017262Y020254D02*
X016512Y019504D01*
X016512Y017254D01*
X016262Y017004D01*
X015512Y018004D02*
X015512Y018504D01*
X015512Y018004D02*
X015012Y017504D01*
X015012Y014504D01*
X015512Y014004D01*
X015512Y013504D01*
X015512Y012504D01*
X016012Y012004D01*
X016012Y009504D01*
X015512Y009004D01*
X015512Y008504D01*
X015512Y008004D01*
X016012Y007504D01*
X016012Y004504D01*
X015512Y004004D01*
X015512Y003504D01*
X018262Y006004D02*
X019262Y006004D01*
X019262Y006504D01*
X019512Y006504D01*
X019512Y007254D02*
X018762Y006504D01*
X018512Y006504D01*
X018012Y006254D02*
X018012Y006754D01*
X018512Y007254D01*
X018512Y007504D01*
X019512Y007504D02*
X019512Y007254D01*
X021012Y007754D02*
X021012Y004254D01*
X021512Y003754D01*
X021512Y003504D01*
X023012Y003504D01*
X023012Y001504D01*
X022512Y005504D02*
X022012Y005504D01*
X022012Y006504D01*
X022012Y010004D01*
X021512Y010504D01*
X022512Y010504D01*
X021512Y010504D02*
X021512Y010754D01*
X020762Y011504D01*
X020762Y021504D01*
X021012Y021504D01*
X021012Y026754D01*
X021512Y027254D01*
X021512Y027504D01*
X022012Y028504D02*
X022012Y025004D01*
X022512Y024504D01*
X022012Y025004D02*
X021762Y025254D01*
X021762Y025504D01*
X021512Y025504D01*
X023512Y023254D02*
X026512Y023254D01*
X026512Y021504D02*
X026012Y021504D01*
X026012Y018004D01*
X025762Y017754D01*
X025762Y017004D01*
X025512Y016754D01*
X025512Y016504D01*
X025012Y015254D02*
X025012Y018754D01*
X025512Y019254D01*
X025512Y019504D01*
X025512Y021504D02*
X026012Y021504D01*
X023512Y023254D02*
X021762Y021504D01*
X021012Y021504D02*
X021012Y021004D01*
X021512Y020504D01*
X016012Y024504D02*
X016012Y027504D01*
X015512Y028004D01*
X015512Y028504D01*
X016012Y024504D02*
X015512Y024004D01*
X015512Y023504D01*
X022012Y028504D02*
X022512Y029004D01*
X022512Y029504D01*
X021512Y029504D02*
X021512Y030504D01*
X022512Y032004D02*
X022512Y032504D01*
X021512Y032504D01*
X022512Y032004D02*
X024012Y030504D01*
X024012Y028754D01*
X032512Y030504D02*
X032762Y030254D01*
X032512Y030504D02*
X032512Y032004D01*
X033012Y032504D01*
X033512Y032504D01*
X033762Y032754D01*
X033762Y034754D01*
X034012Y035004D01*
X036512Y035004D01*
X036512Y031504D01*
X037512Y031504D01*
X037512Y031004D01*
X037012Y030504D01*
X037012Y026504D01*
X037512Y026504D01*
X037512Y026004D01*
X037012Y025504D01*
X037012Y021504D01*
X037012Y017504D01*
X037512Y017004D01*
X037512Y016504D01*
X037012Y016504D01*
X037012Y013254D01*
X036512Y012754D01*
X036512Y011504D01*
X036512Y011004D01*
X037012Y010504D01*
X037012Y007504D01*
X037512Y007004D01*
X037512Y006504D01*
X036512Y006504D01*
X036012Y005254D02*
X036512Y004754D01*
X036512Y004504D01*
X036012Y005254D02*
X036012Y008754D01*
X036512Y009254D01*
X036512Y009504D01*
X036512Y009754D01*
X035512Y010754D01*
X035512Y013754D01*
X036262Y014504D01*
X036512Y014504D01*
X036512Y014754D01*
X036262Y015004D01*
X036262Y016004D01*
X036012Y016254D01*
X036012Y020254D01*
X036512Y019754D01*
X036512Y019504D01*
X036012Y020254D02*
X036012Y023754D01*
X036512Y024254D01*
X036512Y024504D01*
X036512Y023504D02*
X036512Y021504D01*
X037012Y021504D01*
X037512Y021504D01*
X034012Y019504D02*
X033512Y019004D01*
X033512Y018504D01*
X034012Y019504D02*
X034012Y028754D01*
X033512Y029254D01*
X033512Y029454D01*
X033262Y029504D01*
X033262Y031254D01*
X033512Y031504D01*
X036512Y026504D02*
X037012Y026504D01*
X046012Y027504D02*
X046512Y027004D01*
X046512Y026504D01*
X046512Y026004D01*
X046012Y025504D01*
X046012Y022504D01*
X046512Y022004D01*
X046512Y021504D01*
X046512Y021004D01*
X046012Y020504D01*
X046012Y017504D01*
X046512Y017004D01*
X046512Y016504D01*
X046512Y016004D01*
X046012Y015504D01*
X046012Y013004D01*
X046262Y012754D01*
X046262Y012254D01*
X046512Y012004D01*
X046512Y011504D01*
X046512Y010504D01*
X046012Y010004D01*
X046012Y007504D01*
X046512Y007004D01*
X046512Y006504D01*
X046512Y008504D02*
X046512Y009004D01*
X047012Y009504D01*
X047012Y012504D01*
X047012Y017504D01*
X047012Y022504D01*
X047012Y027504D01*
X046512Y028004D01*
X046512Y028504D01*
X046512Y030004D01*
X046012Y030504D02*
X046012Y027504D01*
X046012Y030504D02*
X046512Y031004D01*
X046512Y031504D01*
X046512Y032004D01*
X046012Y032504D01*
X046012Y034004D01*
X046512Y023504D02*
X046512Y023004D01*
X047012Y022504D01*
X046512Y018504D02*
X046512Y018004D01*
X047012Y017504D01*
X046512Y013504D02*
X046512Y013004D01*
X047012Y012504D01*
X037012Y016504D02*
X036512Y016504D01*
X031512Y013504D02*
X031512Y010504D01*
X031512Y008504D01*
X031012Y008004D01*
X031012Y006504D01*
X031512Y006004D01*
X031512Y005504D01*
X032012Y006504D02*
X031512Y007004D01*
X031512Y007504D01*
X032012Y006504D02*
X032012Y003504D01*
X031512Y003004D01*
X031512Y002504D01*
X022012Y005504D02*
X021512Y005504D01*
X021012Y007754D02*
X021512Y008254D01*
X021512Y008504D01*
X018262Y006004D02*
X018012Y006254D01*
X007012Y007504D02*
X007012Y010504D01*
X007012Y015504D01*
X007012Y017504D01*
X007512Y017504D01*
X007012Y017504D02*
X007012Y020504D01*
X006512Y021004D01*
X006512Y021504D01*
X005512Y021504D02*
X005512Y023754D01*
X006262Y024504D01*
X006262Y025254D01*
X006512Y025504D01*
X006512Y026504D01*
X005512Y026504D02*
X005512Y028754D01*
X006512Y029754D01*
X006512Y031504D01*
X005512Y029504D02*
X005512Y029254D01*
X005012Y028754D01*
X005012Y026004D01*
X005762Y025254D01*
X006012Y025504D01*
X006012Y027504D01*
X006512Y028004D01*
X006512Y028504D01*
X005762Y025254D02*
X005512Y025004D01*
X005512Y024504D01*
X006512Y023504D02*
X006512Y023004D01*
X006012Y022504D01*
X006012Y019004D01*
X006512Y018504D01*
X006512Y018004D01*
X006012Y017504D01*
X006012Y014254D01*
X005762Y014504D01*
X005512Y014504D01*
X006012Y014254D02*
X006262Y014004D01*
X006262Y013754D01*
X006512Y013504D01*
X006512Y013004D01*
X006012Y012504D01*
X006012Y009254D01*
X005762Y009504D01*
X005512Y009504D01*
X006012Y009254D02*
X006262Y009004D01*
X006262Y008754D01*
X006512Y008504D01*
X006512Y008004D01*
X006012Y007504D01*
X006012Y005254D01*
X005512Y004754D01*
X005512Y004504D01*
X005512Y003504D01*
X006512Y006504D02*
X006512Y007004D01*
X007012Y007504D01*
X007012Y010504D02*
X006512Y011004D01*
X006512Y011504D01*
X007012Y015504D02*
X006512Y016004D01*
X006512Y016504D01*
X006012Y019004D02*
X005762Y019254D01*
X005762Y019504D01*
X005512Y019504D01*
X025012Y015254D02*
X025512Y014754D01*
X025512Y014504D01*
X046512Y003504D02*
X046512Y001754D01*
D17*
X046512Y001754D03*
X047012Y002254D03*
X048762Y002754D03*
X047512Y004504D03*
X047512Y005504D03*
X047012Y005504D03*
X045262Y005004D03*
X044012Y002754D03*
X045012Y002254D03*
X039012Y007754D03*
X041012Y009504D03*
X043512Y010004D03*
X044512Y010504D03*
X043512Y014504D03*
X044012Y015254D03*
X047512Y015754D03*
X050512Y016504D03*
X050512Y018504D03*
X048012Y022754D03*
X048512Y023754D03*
X044512Y025004D03*
X044012Y027254D03*
X043012Y027254D03*
X043012Y029254D03*
X042512Y030504D03*
X044262Y030504D03*
X045012Y030754D03*
X046512Y030004D03*
X048012Y030004D03*
X050012Y032254D03*
X047262Y032754D03*
X046512Y033004D03*
X046012Y034004D03*
X045512Y034254D03*
X045012Y034504D03*
X044512Y032754D03*
X041762Y033254D03*
X037012Y034504D03*
X035012Y032504D03*
X034262Y033504D03*
X033262Y033504D03*
X032262Y032504D03*
X030012Y033504D03*
X027012Y034004D03*
X024512Y034254D03*
X024012Y034504D03*
X026512Y031504D03*
X025762Y030754D03*
X024012Y028754D03*
X023012Y028504D03*
X021512Y029504D03*
X020512Y029504D03*
X020512Y028004D03*
X023512Y025504D03*
X025512Y026004D03*
X027512Y025754D03*
X029512Y026254D03*
X031012Y026754D03*
X032762Y026254D03*
X034762Y028004D03*
X036012Y026004D03*
X036512Y023504D03*
X040012Y024754D03*
X040512Y025004D03*
X044512Y020504D03*
X044012Y020004D03*
X040512Y019504D03*
X040012Y015754D03*
X035512Y015754D03*
X035512Y015254D03*
X034512Y016004D03*
X033262Y014754D03*
X034262Y014254D03*
X035262Y014254D03*
X035512Y013754D03*
X037012Y012504D03*
X033512Y012254D03*
X033012Y011754D03*
X032512Y010504D03*
X032012Y008754D03*
X032512Y008254D03*
X034012Y009004D03*
X030512Y008504D03*
X029512Y009004D03*
X028512Y009504D03*
X028012Y009504D03*
X026512Y009004D03*
X025012Y008504D03*
X022012Y006504D03*
X020512Y008754D03*
X020012Y011004D03*
X021262Y012004D03*
X021762Y011504D03*
X018762Y012504D03*
X016762Y011504D03*
X016262Y012504D03*
X010512Y010504D03*
X007512Y007504D03*
X010512Y005004D03*
X012262Y005254D03*
X009012Y002504D03*
X005512Y002004D03*
X003762Y002754D03*
X005512Y003504D03*
X014012Y001754D03*
X014512Y001754D03*
X017512Y001754D03*
X023012Y001504D03*
X025512Y003754D03*
X027512Y004004D03*
X029012Y003504D03*
X030512Y004004D03*
X032512Y004504D03*
X029012Y006254D03*
X033262Y001754D03*
X036512Y002004D03*
X029012Y012254D03*
X030012Y012754D03*
X026012Y012254D03*
X025512Y012754D03*
X025012Y014004D03*
X023512Y018004D03*
X023512Y020004D03*
X022262Y020004D03*
X021762Y021504D03*
X023012Y023754D03*
X025012Y023754D03*
X026512Y023254D03*
X027512Y023004D03*
X028012Y023004D03*
X028512Y022754D03*
X031012Y020504D03*
X033012Y020754D03*
X025012Y020004D03*
X020262Y018004D03*
X017262Y019004D03*
X016012Y019254D03*
X016512Y021004D03*
X016512Y021504D03*
X017512Y021504D03*
X017512Y023004D03*
X018512Y023754D03*
X019012Y024504D03*
X019512Y024004D03*
X016512Y025754D03*
X014512Y025254D03*
X011012Y022754D03*
X011012Y022254D03*
X011512Y020504D03*
X010512Y020504D03*
X007012Y022754D03*
X004512Y023004D03*
X003012Y023754D03*
X003012Y022004D03*
X004512Y020504D03*
X007512Y017504D03*
X010512Y015004D03*
X016262Y017004D03*
X007012Y025254D03*
X004512Y029004D03*
X003012Y029004D03*
X004512Y031254D03*
X004512Y032004D03*
X004512Y033254D03*
X004512Y034504D03*
X006262Y034004D03*
X010012Y032754D03*
X011012Y032254D03*
X012012Y034004D03*
X012512Y034504D03*
X013012Y034004D03*
X015012Y032254D03*
X016512Y031004D03*
X017012Y032004D03*
X018512Y033504D03*
X019012Y034504D03*
X020012Y034754D03*
X015512Y029504D03*
X010012Y030504D03*
X032762Y030254D03*
X035512Y030504D03*
X033262Y034754D03*
X004512Y011504D03*
D18*
X003012Y003504D02*
X003762Y002754D01*
X003012Y003504D02*
X003012Y006754D01*
X002512Y007254D01*
X002512Y007504D01*
X002262Y008004D02*
X002012Y007754D01*
X002012Y005254D01*
X002512Y004754D01*
X002512Y004504D01*
X005012Y003004D02*
X005012Y012754D01*
X004012Y012754D01*
X002762Y011504D01*
X002512Y011504D01*
X004512Y011504D02*
X004512Y009754D01*
X003512Y008754D01*
X003512Y008504D01*
X004262Y008004D02*
X002262Y008004D01*
X004262Y008004D02*
X004262Y001504D01*
X005512Y001504D01*
X007512Y003504D01*
X008512Y003504D02*
X008512Y004004D01*
X009012Y004504D01*
X009012Y007004D01*
X008512Y007504D01*
X008512Y008504D01*
X008512Y009004D01*
X008762Y009254D01*
X008762Y010754D01*
X009012Y011004D01*
X009012Y012504D01*
X008512Y013004D01*
X008512Y013504D01*
X008512Y014004D01*
X009012Y014504D01*
X009012Y017504D01*
X008512Y018004D01*
X008512Y018504D01*
X008512Y020004D01*
X009012Y020504D01*
X009012Y022004D01*
X008762Y022254D01*
X008762Y022754D01*
X008512Y023004D01*
X008512Y023504D01*
X008512Y024004D01*
X009012Y024504D01*
X009012Y027004D01*
X008512Y027504D01*
X008512Y028504D01*
X009512Y028504D02*
X009512Y028004D01*
X010012Y027504D01*
X010012Y022504D01*
X010012Y017504D01*
X010012Y012504D01*
X010012Y007504D01*
X009512Y008004D01*
X009512Y008504D01*
X010512Y008504D02*
X010512Y010504D01*
X009512Y011004D02*
X009512Y011504D01*
X009512Y012504D01*
X009012Y013004D01*
X009012Y014004D01*
X009262Y014254D01*
X009262Y015754D01*
X009512Y016004D01*
X009512Y016504D01*
X009512Y017004D01*
X009262Y017254D01*
X009262Y017754D01*
X009012Y018004D01*
X009012Y020004D01*
X009512Y020504D01*
X009512Y021504D01*
X009512Y022004D01*
X009012Y022504D01*
X009012Y024004D01*
X009512Y024504D01*
X009512Y026504D01*
X009512Y027004D01*
X009012Y027504D01*
X009012Y030504D01*
X009512Y031004D01*
X009512Y031504D01*
X009512Y034754D01*
X012262Y034754D01*
X012512Y034504D01*
X012012Y034504D02*
X012512Y034004D01*
X013012Y034004D01*
X012012Y034004D02*
X014012Y032004D01*
X014012Y028004D01*
X014262Y027754D01*
X014262Y027254D01*
X014512Y027004D01*
X014512Y026504D01*
X013512Y026504D02*
X013512Y024504D01*
X013012Y024004D01*
X013012Y022504D01*
X013512Y022004D01*
X013512Y021504D01*
X013512Y019504D01*
X013012Y019004D01*
X013012Y017504D01*
X013512Y017004D01*
X013512Y016504D01*
X013512Y016004D01*
X013262Y015754D01*
X013262Y014254D01*
X013012Y014004D01*
X013012Y012504D01*
X013512Y012004D01*
X013512Y011504D01*
X013512Y011004D01*
X013012Y010504D01*
X013012Y007504D01*
X013512Y007004D01*
X013512Y006504D01*
X013512Y006004D01*
X013012Y005504D01*
X013012Y001254D01*
X018012Y001254D01*
X019012Y002254D01*
X019012Y003754D01*
X019512Y004254D01*
X019512Y004504D01*
X020012Y002754D02*
X020012Y011004D01*
X020512Y011504D02*
X019512Y011504D01*
X019012Y011754D02*
X019262Y012004D01*
X019262Y017754D01*
X018512Y018504D01*
X017512Y018754D02*
X017512Y001754D01*
X016262Y002754D02*
X016262Y012504D01*
X016762Y011504D02*
X016762Y019004D01*
X017512Y019754D01*
X017512Y021004D01*
X019012Y021004D01*
X019262Y020754D01*
X019262Y020254D01*
X018512Y019504D01*
X017762Y019754D02*
X018512Y020504D01*
X017762Y019754D02*
X017762Y010004D01*
X018262Y009504D01*
X018512Y009504D01*
X019012Y009754D02*
X019012Y009254D01*
X019512Y008754D01*
X019512Y008504D01*
X020512Y008754D02*
X020512Y011504D01*
X021262Y012004D02*
X022762Y013504D01*
X023012Y013504D01*
X023512Y013254D02*
X023512Y018004D01*
X023012Y018254D02*
X023012Y018504D01*
X023012Y018254D02*
X022512Y017754D01*
X022512Y017504D01*
X021512Y016504D01*
X021512Y015504D02*
X022512Y016504D01*
X022512Y016754D01*
X023012Y017254D01*
X023012Y017504D01*
X024012Y017504D02*
X024012Y018504D01*
X024012Y019504D01*
X024012Y020504D01*
X024012Y021504D01*
X023512Y020754D02*
X023012Y021254D01*
X023012Y021504D01*
X022512Y021754D02*
X023012Y022254D01*
X027012Y022254D01*
X027012Y021004D01*
X027262Y020754D01*
X029262Y020754D01*
X029262Y021254D01*
X029512Y021504D01*
X030012Y022004D02*
X029762Y022254D01*
X028512Y022254D01*
X028512Y021504D01*
X027512Y021504D02*
X027512Y022254D01*
X027012Y022754D01*
X027012Y025254D01*
X027512Y025754D01*
X028012Y025754D02*
X027262Y026504D01*
X025012Y026504D01*
X025012Y025504D01*
X025512Y025004D01*
X025512Y024504D01*
X026512Y024504D02*
X026512Y025004D01*
X025512Y026004D01*
X025012Y026504D02*
X025012Y028004D01*
X025512Y028504D01*
X025512Y029504D01*
X026512Y029504D02*
X026512Y031504D01*
X026012Y031504D02*
X025512Y032004D01*
X025512Y032504D01*
X025512Y033004D01*
X024512Y034004D01*
X024512Y034254D01*
X024012Y034504D02*
X024012Y032004D01*
X024262Y031754D01*
X024262Y030254D01*
X024512Y030004D01*
X024512Y029504D01*
X024512Y028754D01*
X024012Y028254D01*
X024012Y025504D01*
X024512Y025004D01*
X024512Y024504D01*
X025012Y025004D02*
X024762Y025254D01*
X024762Y026754D01*
X024512Y027004D01*
X024512Y027504D01*
X024512Y028004D01*
X025012Y028504D01*
X025012Y031504D01*
X024512Y032004D01*
X024512Y032504D01*
X026012Y031504D02*
X026012Y030754D01*
X025762Y030754D01*
X026012Y030754D02*
X026012Y028504D01*
X025512Y028004D01*
X025512Y027504D01*
X028012Y027004D02*
X028012Y028504D01*
X028512Y029004D01*
X028512Y029504D01*
X029512Y029504D02*
X029512Y028504D01*
X029012Y028004D01*
X029012Y025504D01*
X029512Y025004D01*
X029512Y024504D01*
X029512Y024004D01*
X030762Y022754D01*
X030762Y022254D01*
X031012Y022004D01*
X031012Y020504D01*
X031012Y008504D01*
X030512Y008004D01*
X030512Y007504D01*
X030512Y006504D01*
X031012Y006004D01*
X031012Y003504D01*
X030512Y003004D01*
X030512Y002504D01*
X030262Y001754D02*
X029512Y002504D01*
X029012Y002004D02*
X029012Y003004D01*
X028512Y003504D01*
X028512Y005504D01*
X029012Y006254D02*
X029012Y003504D01*
X028012Y003504D02*
X028012Y004004D01*
X027512Y004004D01*
X028012Y004004D02*
X028012Y006504D01*
X027512Y007004D01*
X027512Y007504D01*
X026512Y007504D02*
X026512Y006504D01*
X027012Y006004D01*
X027012Y003504D01*
X026512Y003004D01*
X026512Y002504D01*
X026012Y002004D02*
X027012Y001004D01*
X035262Y001004D01*
X035262Y005504D01*
X034512Y006254D01*
X034512Y006504D01*
X034762Y007004D02*
X034012Y007004D01*
X034012Y007754D01*
X033512Y008254D01*
X033512Y008504D01*
X034012Y008254D02*
X034512Y007754D01*
X034512Y007504D01*
X035012Y007254D02*
X034762Y007004D01*
X035012Y007254D02*
X035012Y008754D01*
X035262Y009004D01*
X035262Y012754D01*
X033262Y014754D01*
X034262Y014254D02*
X034512Y014504D01*
X034512Y016004D01*
X035012Y015754D02*
X035012Y027754D01*
X035262Y028004D01*
X035262Y030254D01*
X035012Y030504D01*
X035012Y032504D01*
X034262Y033504D02*
X034262Y017754D01*
X033512Y017004D01*
X033512Y016504D01*
X034012Y017004D02*
X034012Y015754D01*
X033262Y015754D01*
X032512Y016504D01*
X031512Y016504D02*
X033012Y018004D01*
X033012Y020754D01*
X033512Y021504D02*
X033512Y022004D01*
X032762Y022754D01*
X032762Y026254D01*
X031012Y026754D02*
X031012Y022504D01*
X031512Y022004D01*
X031512Y021504D01*
X032262Y021754D02*
X032512Y021504D01*
X032262Y021754D02*
X032262Y032504D01*
X031512Y032504D02*
X031512Y032004D01*
X032012Y031504D01*
X032012Y019504D01*
X032512Y019004D01*
X032512Y018504D01*
X030512Y018504D02*
X030512Y018004D01*
X030012Y017504D01*
X030012Y014504D01*
X030512Y014004D01*
X030512Y013504D01*
X030012Y014004D02*
X028512Y015504D01*
X028512Y016504D01*
X028012Y017504D02*
X028512Y018004D01*
X028512Y018504D01*
X027512Y018504D02*
X027512Y018004D01*
X027012Y017504D01*
X027012Y014504D01*
X027012Y009504D01*
X026512Y009004D01*
X027012Y009004D02*
X027512Y009504D01*
X027512Y010504D01*
X028512Y010504D02*
X028512Y011004D01*
X029012Y011504D01*
X029012Y012254D01*
X029512Y011504D02*
X029512Y013504D01*
X030012Y014004D02*
X030012Y012754D01*
X028512Y013504D02*
X028512Y014004D01*
X028012Y014504D01*
X028012Y009504D01*
X028512Y009504D02*
X029012Y010004D01*
X029012Y011004D01*
X029512Y011504D01*
X029512Y010504D02*
X029512Y009004D01*
X030012Y008504D02*
X030012Y009504D01*
X030512Y010004D01*
X030512Y010504D01*
X032512Y010504D02*
X032512Y013504D01*
X033512Y012254D02*
X035012Y010754D01*
X035012Y009254D01*
X034512Y008754D01*
X034512Y008504D01*
X034012Y008254D02*
X034012Y009004D01*
X032512Y008254D02*
X032512Y004504D01*
X032762Y004254D02*
X033012Y004504D01*
X033012Y005754D01*
X033512Y006254D01*
X033512Y006504D01*
X033512Y005504D02*
X033512Y005254D01*
X034012Y004754D01*
X034012Y002504D01*
X033262Y001754D01*
X032762Y001754D02*
X032762Y004254D01*
X034512Y004254D02*
X034512Y004504D01*
X034512Y004254D02*
X035012Y003754D01*
X035012Y001254D01*
X029762Y001254D01*
X029012Y002004D01*
X030262Y001754D02*
X032762Y001754D01*
X030512Y004004D02*
X029512Y005004D01*
X029512Y005504D01*
X030512Y005504D02*
X030512Y006004D01*
X030012Y006504D01*
X030012Y008504D01*
X030512Y008504D01*
X032012Y008754D02*
X033512Y010254D01*
X033512Y010504D01*
X034262Y010504D02*
X034512Y010504D01*
X034262Y010504D02*
X033012Y011754D01*
X035262Y014254D02*
X036012Y015004D01*
X036012Y015754D01*
X035762Y016004D01*
X035762Y025754D01*
X036012Y026004D01*
X038012Y025504D02*
X038012Y030504D01*
X038512Y031004D01*
X038512Y031504D01*
X039012Y032504D02*
X039012Y027504D01*
X039012Y022504D01*
X039012Y017504D01*
X039012Y012504D01*
X039012Y009504D01*
X038512Y009004D01*
X038512Y008504D01*
X038512Y007504D01*
X039012Y007004D01*
X039012Y004504D01*
X038512Y004004D01*
X038512Y003504D01*
X039512Y003504D02*
X041762Y001254D01*
X048262Y001254D01*
X048262Y004504D01*
X048512Y004504D01*
X049012Y004754D02*
X049512Y005254D01*
X049512Y005504D01*
X049012Y006004D02*
X049012Y008754D01*
X049512Y009254D01*
X049512Y009504D01*
X049012Y010254D02*
X048512Y009754D01*
X048512Y009504D01*
X049012Y010254D02*
X049012Y012504D01*
X050012Y013504D01*
X050012Y020004D01*
X048262Y020004D01*
X047512Y020754D01*
X047512Y032004D01*
X046512Y033004D01*
X047262Y032754D02*
X048012Y032004D01*
X048012Y030004D01*
X049512Y028754D02*
X049512Y028504D01*
X049512Y028754D02*
X050012Y029254D01*
X050012Y032254D01*
X049012Y031754D02*
X049012Y028254D01*
X049512Y027754D01*
X049512Y027504D01*
X048512Y026504D02*
X048512Y026254D01*
X048012Y025754D01*
X048012Y022754D01*
X048512Y023754D02*
X049012Y023254D01*
X049012Y021254D01*
X049512Y020754D01*
X049512Y020504D01*
X049512Y019504D02*
X049262Y019504D01*
X049262Y019004D01*
X048262Y019004D01*
X048012Y018754D01*
X048012Y016254D01*
X047512Y015754D01*
X046012Y016004D02*
X046012Y017004D01*
X045512Y017504D01*
X045512Y018504D01*
X045512Y019004D01*
X045762Y019254D01*
X045762Y020754D01*
X046012Y021004D01*
X046012Y022004D01*
X045512Y022504D01*
X045512Y023504D01*
X045512Y025504D01*
X046012Y026004D01*
X046012Y027004D01*
X045762Y027254D01*
X045762Y027754D01*
X045512Y028004D01*
X045512Y028504D01*
X044512Y028504D02*
X044512Y029004D01*
X044762Y029254D01*
X044762Y030504D01*
X045012Y030754D01*
X045512Y030754D02*
X045512Y031504D01*
X045512Y034254D01*
X045012Y034504D02*
X045012Y032504D01*
X044512Y032004D01*
X044512Y031504D01*
X043512Y031504D02*
X044512Y032504D01*
X044512Y032754D01*
X042512Y031504D02*
X042512Y031004D01*
X042012Y030504D01*
X042012Y027504D01*
X042512Y027004D01*
X042512Y026504D01*
X042512Y026004D01*
X042012Y025504D01*
X042012Y022504D01*
X042512Y022004D01*
X042512Y021504D01*
X042512Y021004D01*
X042012Y020504D01*
X042012Y017504D01*
X042512Y017004D01*
X042512Y016504D01*
X042512Y016004D01*
X042012Y015504D01*
X042012Y012504D01*
X042512Y012004D01*
X042512Y011504D01*
X042512Y011004D01*
X042012Y010504D01*
X042012Y007504D01*
X042512Y007004D01*
X042512Y006504D01*
X042012Y007004D02*
X041512Y007504D01*
X041512Y008504D01*
X041512Y009004D01*
X041762Y009254D01*
X041762Y010754D01*
X042012Y011004D01*
X042012Y012004D01*
X041512Y012504D01*
X041512Y013504D01*
X041512Y014004D01*
X041762Y014254D01*
X041762Y015754D01*
X042012Y016004D01*
X042012Y017004D01*
X041512Y017504D01*
X041512Y018504D01*
X041512Y020504D01*
X042012Y021004D01*
X042012Y022004D01*
X041762Y022254D01*
X041762Y022754D01*
X041512Y023004D01*
X041512Y023504D01*
X041512Y024004D01*
X041762Y024254D01*
X041762Y025754D01*
X042012Y026004D01*
X042012Y027004D01*
X041512Y027504D01*
X041512Y028504D01*
X042512Y028504D02*
X042512Y028004D01*
X043012Y027504D01*
X043012Y027254D01*
X043012Y022504D01*
X043012Y017504D01*
X043012Y012504D01*
X043012Y007504D01*
X042512Y008004D01*
X042512Y008504D01*
X043512Y008504D02*
X043512Y010004D01*
X044012Y010504D02*
X044012Y005004D01*
X045012Y004004D01*
X045012Y002254D01*
X046012Y001754D02*
X046012Y005004D01*
X048012Y007004D01*
X048012Y013254D01*
X049012Y014254D01*
X049012Y016754D01*
X049512Y017254D01*
X049512Y017504D01*
X050512Y018504D02*
X050512Y016504D01*
X046012Y016004D02*
X045762Y015754D01*
X045762Y014254D01*
X045512Y014004D01*
X045512Y013504D01*
X045512Y013004D01*
X046012Y012504D01*
X046012Y010504D01*
X045512Y010004D01*
X045512Y008504D01*
X045512Y007504D01*
X046012Y007004D01*
X046012Y006004D01*
X045762Y005754D01*
X045762Y004254D01*
X045512Y004004D01*
X045512Y003504D01*
X044012Y004004D02*
X044012Y002754D01*
X042512Y003504D02*
X042512Y004004D01*
X043012Y004504D01*
X043012Y007504D01*
X043512Y006504D02*
X043512Y006004D01*
X043762Y005754D01*
X043762Y004254D01*
X044012Y004004D01*
X045262Y005004D02*
X045262Y005254D01*
X044512Y006004D01*
X044512Y006504D01*
X045512Y006504D02*
X045512Y007004D01*
X045012Y007504D01*
X045012Y010504D01*
X045012Y015504D01*
X045012Y020504D01*
X045012Y024004D01*
X045262Y024254D01*
X045262Y025754D01*
X045512Y026004D01*
X045512Y026504D01*
X045512Y027004D01*
X045012Y027504D01*
X045012Y030254D01*
X045512Y030754D01*
X044262Y030504D02*
X044262Y029754D01*
X043512Y029004D01*
X043512Y028504D01*
X043012Y029254D02*
X043012Y030004D01*
X042512Y030504D01*
X041512Y031004D02*
X041512Y031504D01*
X041012Y032004D02*
X044012Y035004D01*
X048762Y035004D01*
X048762Y032004D01*
X049012Y031754D01*
X044012Y027254D02*
X044012Y026004D01*
X045012Y025004D01*
X045012Y024504D01*
X044512Y024004D01*
X044512Y023504D01*
X043012Y022504D02*
X042512Y023004D01*
X042512Y023504D01*
X040512Y023504D02*
X040512Y025004D01*
X040012Y024754D02*
X040012Y022504D01*
X040512Y022004D01*
X040512Y021504D01*
X041512Y021504D02*
X041512Y021004D01*
X041012Y020504D01*
X041012Y025504D01*
X041012Y030504D01*
X041512Y031004D01*
X041012Y031004D02*
X041012Y032004D01*
X040512Y032004D02*
X040512Y031504D01*
X040512Y032004D02*
X041762Y033254D01*
X039012Y032504D02*
X037012Y034504D01*
X033262Y034754D02*
X033262Y033504D01*
X030512Y033504D02*
X030512Y032504D01*
X030012Y032004D02*
X030012Y033504D01*
X030512Y033504D02*
X029012Y035004D01*
X020512Y035004D01*
X020512Y029504D01*
X022012Y029504D02*
X022012Y030004D01*
X022262Y030254D01*
X023012Y030254D01*
X023012Y028504D01*
X022012Y029504D02*
X020512Y028004D01*
X019012Y027754D02*
X018512Y028254D01*
X018512Y028504D01*
X019012Y027754D02*
X019012Y025254D01*
X019512Y024754D01*
X019512Y024004D01*
X018512Y023754D02*
X018012Y024254D01*
X018012Y026754D01*
X018512Y027254D01*
X018512Y027504D01*
X016512Y025754D02*
X016512Y021504D01*
X016512Y021004D02*
X016512Y020754D01*
X014012Y020754D01*
X014012Y022504D01*
X014012Y027504D01*
X013512Y028004D01*
X013512Y028504D01*
X012512Y028504D02*
X012512Y027504D01*
X013012Y027004D01*
X013012Y024504D01*
X012512Y024004D01*
X012512Y023504D01*
X012512Y022504D01*
X013012Y022004D01*
X013012Y019504D01*
X012512Y019004D01*
X012512Y018504D01*
X012512Y017504D01*
X013012Y017004D01*
X013012Y014504D01*
X012512Y014004D01*
X012512Y013504D01*
X012512Y012504D01*
X013012Y012004D01*
X013012Y011004D01*
X012762Y010754D01*
X012762Y009254D01*
X012512Y009004D01*
X012512Y008504D01*
X012512Y007504D01*
X013012Y007004D01*
X013012Y006004D01*
X012762Y005754D01*
X012762Y004254D01*
X012512Y004004D01*
X012512Y003504D01*
X013512Y003504D02*
X013512Y004004D01*
X014012Y004504D01*
X014012Y007504D01*
X014012Y012504D01*
X014012Y017504D01*
X014012Y020754D01*
X014512Y021504D02*
X014512Y022004D01*
X015012Y022504D01*
X015012Y032254D01*
X016512Y032004D02*
X016512Y031004D01*
X016012Y030004D02*
X016012Y035004D01*
X005012Y035004D01*
X005012Y032504D01*
X004512Y032004D01*
X004512Y031254D02*
X004512Y029004D01*
X003012Y029004D02*
X003012Y029754D01*
X002512Y030254D01*
X002512Y030504D01*
X001762Y031504D02*
X003262Y033004D01*
X003762Y033004D01*
X003762Y033254D01*
X004512Y034004D01*
X004512Y034504D01*
X004512Y033254D02*
X004012Y032754D01*
X004012Y019254D01*
X003512Y018754D01*
X003512Y018504D01*
X004512Y020504D02*
X004512Y023004D01*
X003012Y023754D02*
X003012Y024754D01*
X003512Y025254D01*
X003512Y025504D01*
X002512Y025504D02*
X002512Y025254D01*
X002012Y024754D01*
X002012Y023004D01*
X003012Y022004D01*
X002512Y021754D02*
X002512Y021504D01*
X002512Y021754D02*
X001762Y022504D01*
X001762Y031504D01*
X008012Y030504D02*
X008012Y025504D01*
X008012Y020504D01*
X008012Y015504D01*
X008012Y010504D01*
X008512Y011004D01*
X008512Y011504D01*
X009012Y010504D02*
X009512Y011004D01*
X009012Y010504D02*
X009012Y007504D01*
X009512Y007004D01*
X009512Y006504D01*
X008512Y006504D02*
X008512Y007004D01*
X008012Y007504D01*
X008012Y001004D01*
X023512Y001004D01*
X024012Y001504D01*
X024012Y004504D01*
X023512Y005004D01*
X023512Y005504D01*
X023512Y006004D01*
X024012Y006504D01*
X024012Y009504D01*
X023512Y010004D01*
X023512Y010504D01*
X023512Y011004D01*
X024512Y012004D01*
X024512Y019504D01*
X025012Y020004D01*
X023512Y020004D02*
X023512Y020754D01*
X023012Y020504D02*
X023012Y020254D01*
X022512Y019754D01*
X022512Y019504D01*
X021512Y018504D01*
X021512Y017504D02*
X022512Y018504D01*
X022512Y018754D01*
X023012Y019254D01*
X023012Y019504D01*
X022512Y020254D02*
X022512Y021754D01*
X022512Y020254D02*
X022262Y020004D01*
X020262Y018004D02*
X020012Y018254D01*
X020012Y034754D01*
X019012Y034504D02*
X016512Y032004D01*
X017012Y032004D02*
X017012Y020504D01*
X016512Y020504D01*
X014512Y018504D01*
X013512Y018504D02*
X013512Y018004D01*
X014012Y017504D01*
X015512Y017004D02*
X015512Y016504D01*
X015512Y017004D02*
X016012Y017504D01*
X016012Y019254D01*
X017262Y019004D02*
X017512Y018754D01*
X012512Y021004D02*
X012512Y021504D01*
X012512Y021004D02*
X012012Y020504D01*
X012012Y025504D01*
X012512Y026004D01*
X012512Y026504D01*
X012512Y027004D01*
X012012Y027504D01*
X012012Y030504D01*
X012512Y031004D01*
X012512Y031504D01*
X012512Y032004D01*
X011512Y033004D01*
X011512Y034504D01*
X012012Y034504D01*
X010012Y032754D02*
X010012Y031004D01*
X010512Y030504D01*
X010512Y029504D01*
X011012Y029004D01*
X011012Y028004D01*
X012012Y027004D01*
X012012Y026004D01*
X011762Y025754D01*
X011762Y024254D01*
X011512Y024004D01*
X011512Y023504D01*
X011012Y022754D02*
X011012Y025504D01*
X011512Y026004D01*
X011512Y026504D01*
X013012Y027504D02*
X013012Y030504D01*
X013512Y031004D01*
X013512Y031504D01*
X011012Y032254D02*
X011012Y029504D01*
X011512Y029004D01*
X011512Y028504D01*
X010512Y028504D02*
X010512Y029004D01*
X010012Y029504D01*
X010012Y030504D01*
X008512Y031004D02*
X008512Y031504D01*
X008512Y031004D02*
X008012Y030504D01*
X013012Y027504D02*
X013512Y027004D01*
X013512Y026504D01*
X014512Y025254D02*
X014512Y023504D01*
X013512Y023504D02*
X013512Y023004D01*
X014012Y022504D01*
X011012Y022254D02*
X010512Y022754D01*
X010512Y023504D01*
X009512Y023504D02*
X009512Y023004D01*
X010012Y022504D01*
X010512Y021504D02*
X011512Y020504D01*
X012012Y020504D02*
X012012Y015504D01*
X012012Y010504D01*
X012512Y011004D01*
X012512Y011504D01*
X012012Y010504D02*
X012012Y007504D01*
X012512Y007004D01*
X012512Y006504D01*
X012512Y005504D01*
X012262Y005254D01*
X010512Y005004D02*
X010512Y003504D01*
X010262Y003254D01*
X010262Y002504D01*
X009012Y002504D01*
X009512Y003504D02*
X009512Y004004D01*
X010012Y004504D01*
X010012Y007504D01*
X008012Y007504D02*
X008012Y010504D01*
X010012Y012504D02*
X009512Y013004D01*
X009512Y013504D01*
X010512Y013504D02*
X010512Y015004D01*
X012012Y015504D02*
X012512Y016004D01*
X012512Y016504D01*
X010012Y017504D02*
X009512Y018004D01*
X009512Y018504D01*
X010512Y018504D02*
X010512Y020504D01*
X008512Y021004D02*
X008512Y021504D01*
X008512Y021004D02*
X008012Y020504D01*
X007012Y022754D02*
X007012Y025254D01*
X008012Y025504D02*
X008512Y026004D01*
X008512Y026504D01*
X015512Y029504D02*
X016012Y030004D01*
X018512Y032504D02*
X018512Y033504D01*
X027012Y034004D02*
X028512Y032504D01*
X028512Y032004D01*
X029012Y031504D01*
X029012Y028504D01*
X028512Y028004D01*
X028512Y027504D01*
X028012Y027004D02*
X028262Y026754D01*
X028262Y025254D01*
X028512Y025004D01*
X028512Y024504D01*
X028512Y022754D01*
X028012Y023004D02*
X028012Y025754D01*
X029512Y026254D02*
X029512Y026504D01*
X030512Y027504D01*
X029512Y027504D02*
X029512Y028004D01*
X030012Y028504D01*
X030012Y031254D01*
X029512Y031754D01*
X029512Y032504D01*
X030012Y032004D02*
X030262Y031754D01*
X030262Y030254D01*
X030512Y030004D01*
X030512Y029504D01*
X034762Y028004D02*
X034762Y017754D01*
X034012Y017004D01*
X035012Y015754D02*
X035512Y015254D01*
X035512Y015754D02*
X035512Y030504D01*
X038512Y028504D02*
X038512Y028004D01*
X039012Y027504D01*
X039512Y027004D02*
X040012Y027504D01*
X040012Y030004D01*
X041012Y031004D01*
X039512Y027004D02*
X039512Y026504D01*
X038512Y026504D02*
X038512Y026004D01*
X038012Y025504D01*
X038012Y020504D01*
X038012Y015504D01*
X038012Y010504D01*
X038512Y011004D01*
X038512Y011504D01*
X038012Y010504D02*
X038012Y007504D01*
X038512Y007004D01*
X038512Y006504D01*
X039512Y006504D02*
X039512Y007004D01*
X039012Y007504D01*
X039012Y007754D01*
X037512Y008504D02*
X037512Y009004D01*
X037262Y009254D01*
X037262Y010754D01*
X037012Y011004D01*
X037012Y012504D01*
X038512Y013004D02*
X038512Y013504D01*
X038512Y013004D02*
X039012Y012504D01*
X040512Y011504D02*
X040512Y011004D01*
X041012Y010504D01*
X041012Y009504D01*
X041512Y009504D02*
X041512Y011504D01*
X041512Y012004D01*
X041012Y012504D01*
X041012Y015504D01*
X041012Y020504D01*
X040512Y019504D02*
X040012Y019004D01*
X040012Y015754D01*
X039512Y016504D02*
X039512Y014504D01*
X040012Y014004D01*
X040012Y005004D01*
X041012Y004004D01*
X041012Y003004D01*
X042262Y001754D01*
X046012Y001754D01*
X047012Y002254D02*
X048012Y003254D01*
X048012Y005754D01*
X048262Y006004D01*
X049012Y006004D01*
X048512Y006504D02*
X048012Y006504D01*
X047012Y005504D01*
X047512Y005504D02*
X047512Y004504D01*
X049012Y004754D02*
X049012Y003004D01*
X048762Y002754D01*
X042012Y004504D02*
X042012Y007004D01*
X041512Y007004D02*
X041512Y006504D01*
X041512Y007004D02*
X041012Y007504D01*
X041012Y009004D01*
X041512Y009504D01*
X043512Y011004D02*
X043512Y011504D01*
X043512Y011004D02*
X044012Y010504D01*
X044512Y010504D02*
X044512Y008504D01*
X045012Y010504D02*
X045512Y011004D01*
X045512Y011504D01*
X043012Y012504D02*
X042512Y013004D01*
X042512Y013504D01*
X043512Y014504D02*
X043762Y014504D01*
X044512Y015254D01*
X044512Y016504D01*
X045512Y016504D02*
X045512Y016004D01*
X045012Y015504D01*
X044012Y015504D02*
X044012Y015254D01*
X044012Y015504D02*
X043512Y016004D01*
X043512Y016504D01*
X043012Y017504D02*
X042512Y018004D01*
X042512Y018504D01*
X043512Y018504D02*
X043512Y019004D01*
X044012Y019504D01*
X044012Y020004D01*
X044512Y020504D02*
X044512Y018504D01*
X045012Y020504D02*
X045512Y021004D01*
X045512Y021504D01*
X044512Y025004D02*
X043512Y026004D01*
X043512Y026504D01*
X041512Y026504D02*
X041512Y026004D01*
X041012Y025504D01*
X038512Y023504D02*
X038512Y023004D01*
X039012Y022504D01*
X038512Y021504D02*
X038512Y021004D01*
X038012Y020504D01*
X038512Y018504D02*
X038512Y018004D01*
X039012Y017504D01*
X038512Y016504D02*
X038512Y016004D01*
X038012Y015504D01*
X041012Y015504D02*
X041512Y016004D01*
X041512Y016504D01*
X030012Y020504D02*
X030012Y022004D01*
X030012Y020504D02*
X028512Y020504D01*
X027012Y019004D01*
X027012Y018004D01*
X026012Y017004D01*
X026012Y013254D01*
X025512Y012754D01*
X026012Y012254D02*
X026012Y010004D01*
X025762Y009754D01*
X025762Y008254D01*
X025512Y008004D01*
X025512Y007504D01*
X026012Y006504D02*
X026012Y009504D01*
X026512Y010004D01*
X026512Y010504D01*
X027012Y009004D02*
X027012Y006504D01*
X027512Y006004D01*
X027512Y005504D01*
X026512Y005504D02*
X026512Y006004D01*
X026012Y006504D01*
X024512Y005504D02*
X026012Y004004D01*
X026012Y002004D01*
X025512Y002504D02*
X025512Y003754D01*
X027512Y003004D02*
X027512Y002504D01*
X027512Y003004D02*
X028012Y003504D01*
X023512Y003504D02*
X023512Y002504D01*
X022512Y002504D02*
X022262Y002754D01*
X020012Y002754D01*
X023012Y004004D02*
X023512Y003504D01*
X023012Y004004D02*
X023012Y006504D01*
X023512Y007004D01*
X023512Y007504D01*
X025012Y008504D02*
X025012Y014004D01*
X024012Y014504D02*
X024012Y015504D01*
X024012Y016504D01*
X024012Y017504D01*
X023012Y016504D02*
X023012Y016254D01*
X022512Y015754D01*
X022512Y015504D01*
X021512Y014504D01*
X021512Y013504D02*
X022512Y014504D01*
X022512Y014754D01*
X023012Y015254D01*
X023012Y015504D01*
X024012Y014504D02*
X024012Y013504D01*
X023512Y013254D02*
X021762Y011504D01*
X019012Y011254D02*
X019012Y011754D01*
X019012Y011254D02*
X018512Y010754D01*
X018512Y010504D01*
X018012Y010254D02*
X018262Y010004D01*
X018762Y010004D01*
X019012Y009754D01*
X018012Y010254D02*
X018012Y011754D01*
X018762Y012504D01*
X015012Y012504D02*
X015012Y005004D01*
X014012Y004004D01*
X014012Y001754D01*
X014512Y001754D02*
X014512Y003504D01*
X015262Y002754D01*
X016262Y002754D01*
X014012Y007504D02*
X013512Y008004D01*
X013512Y008504D01*
X014012Y012504D02*
X013512Y013004D01*
X013512Y013504D01*
X014512Y013504D02*
X014512Y013004D01*
X015012Y012504D01*
X008512Y016004D02*
X008512Y016504D01*
X008512Y016004D02*
X008012Y015504D01*
X007512Y007504D02*
X007012Y007004D01*
X007012Y005004D01*
X006012Y004004D01*
X006012Y003504D01*
X005512Y003004D01*
X005012Y003004D01*
X027012Y014504D02*
X027512Y014004D01*
X027512Y013504D01*
X028012Y014504D02*
X028012Y017504D01*
X027512Y023004D02*
X027512Y024504D01*
X025012Y025004D02*
X025012Y023754D01*
X023012Y023754D02*
X023012Y025004D01*
X023512Y025504D01*
X042012Y004504D02*
X041512Y004004D01*
X041512Y003504D01*
X037512Y003504D02*
X037512Y003004D01*
X036512Y002004D01*
M02*
