G75*
G70*
%OFA0B0*%
%FSLAX24Y24*%
%IPPOS*%
%LPD*%
%AMOC8*
5,1,8,0,0,1.08239X$1,22.5*
%
%ADD10O,0.0624X0.1144*%
%ADD11OC8,0.0720*%
%ADD12C,0.1323*%
%ADD13OC8,0.0624*%
%ADD14O,0.1232X0.0672*%
%ADD15O,0.1144X0.0624*%
%ADD16C,0.0480*%
D10*
X045505Y031504D03*
X044505Y031504D03*
X043505Y031504D03*
X042505Y031504D03*
X041505Y031504D03*
X040505Y031504D03*
X039505Y031504D03*
X038505Y031504D03*
X037505Y031504D03*
X036505Y031504D03*
X036505Y028504D03*
X037505Y028504D03*
X038505Y028504D03*
X039505Y028504D03*
X040505Y028504D03*
X041505Y028504D03*
X042505Y028504D03*
X043505Y028504D03*
X044505Y028504D03*
X045505Y028504D03*
X045505Y026504D03*
X044505Y026504D03*
X043505Y026504D03*
X042505Y026504D03*
X041505Y026504D03*
X040505Y026504D03*
X039505Y026504D03*
X038505Y026504D03*
X037505Y026504D03*
X036505Y026504D03*
X036505Y023504D03*
X037505Y023504D03*
X038505Y023504D03*
X039505Y023504D03*
X040505Y023504D03*
X041505Y023504D03*
X042505Y023504D03*
X043505Y023504D03*
X044505Y023504D03*
X045505Y023504D03*
X045505Y021504D03*
X044505Y021504D03*
X043505Y021504D03*
X042505Y021504D03*
X041505Y021504D03*
X040505Y021504D03*
X039505Y021504D03*
X038505Y021504D03*
X037505Y021504D03*
X036505Y021504D03*
X036505Y018504D03*
X037505Y018504D03*
X038505Y018504D03*
X039505Y018504D03*
X040505Y018504D03*
X041505Y018504D03*
X042505Y018504D03*
X043505Y018504D03*
X044505Y018504D03*
X045505Y018504D03*
X045505Y016504D03*
X044505Y016504D03*
X043505Y016504D03*
X042505Y016504D03*
X041505Y016504D03*
X040505Y016504D03*
X039505Y016504D03*
X038505Y016504D03*
X037505Y016504D03*
X036505Y016504D03*
X036505Y013504D03*
X037505Y013504D03*
X038505Y013504D03*
X039505Y013504D03*
X040505Y013504D03*
X041505Y013504D03*
X042505Y013504D03*
X043505Y013504D03*
X044505Y013504D03*
X045505Y013504D03*
X045505Y011504D03*
X044505Y011504D03*
X043505Y011504D03*
X042505Y011504D03*
X041505Y011504D03*
X040505Y011504D03*
X039505Y011504D03*
X038505Y011504D03*
X037505Y011504D03*
X036505Y011504D03*
X036505Y008504D03*
X037505Y008504D03*
X038505Y008504D03*
X039505Y008504D03*
X040505Y008504D03*
X041505Y008504D03*
X042505Y008504D03*
X043505Y008504D03*
X044505Y008504D03*
X045505Y008504D03*
X045505Y006504D03*
X044505Y006504D03*
X043505Y006504D03*
X042505Y006504D03*
X041505Y006504D03*
X040505Y006504D03*
X039505Y006504D03*
X038505Y006504D03*
X037505Y006504D03*
X036505Y006504D03*
X036505Y003504D03*
X037505Y003504D03*
X038505Y003504D03*
X039505Y003504D03*
X040505Y003504D03*
X041505Y003504D03*
X042505Y003504D03*
X043505Y003504D03*
X044505Y003504D03*
X045505Y003504D03*
X029505Y002504D03*
X028505Y002504D03*
X027505Y002504D03*
X026505Y002504D03*
X025505Y002504D03*
X024505Y002504D03*
X023505Y002504D03*
X022505Y002504D03*
X021505Y002504D03*
X020505Y002504D03*
X020505Y005504D03*
X021505Y005504D03*
X022505Y005504D03*
X023505Y005504D03*
X024505Y005504D03*
X025505Y005504D03*
X026505Y005504D03*
X027505Y005504D03*
X028505Y005504D03*
X029505Y005504D03*
X029505Y007504D03*
X028505Y007504D03*
X027505Y007504D03*
X026505Y007504D03*
X025505Y007504D03*
X024505Y007504D03*
X023505Y007504D03*
X022505Y007504D03*
X021505Y007504D03*
X020505Y007504D03*
X020505Y010504D03*
X021505Y010504D03*
X022505Y010504D03*
X023505Y010504D03*
X024505Y010504D03*
X025505Y010504D03*
X026505Y010504D03*
X027505Y010504D03*
X028505Y010504D03*
X029505Y010504D03*
X025505Y013504D03*
X024505Y013504D03*
X023505Y013504D03*
X022505Y013504D03*
X021505Y013504D03*
X020505Y013504D03*
X019505Y013504D03*
X018505Y013504D03*
X018505Y016504D03*
X019505Y016504D03*
X020505Y016504D03*
X021505Y016504D03*
X022505Y016504D03*
X023505Y016504D03*
X024505Y016504D03*
X025505Y016504D03*
X025505Y018504D03*
X024505Y018504D03*
X023505Y018504D03*
X022505Y018504D03*
X021505Y018504D03*
X020505Y018504D03*
X019505Y018504D03*
X018505Y018504D03*
X018505Y021504D03*
X019505Y021504D03*
X020505Y021504D03*
X021505Y021504D03*
X022505Y021504D03*
X023505Y021504D03*
X024505Y021504D03*
X025505Y021504D03*
X025505Y024504D03*
X026505Y024504D03*
X027505Y024504D03*
X028505Y024504D03*
X029505Y024504D03*
X029505Y027504D03*
X028505Y027504D03*
X027505Y027504D03*
X026505Y027504D03*
X025505Y027504D03*
X024505Y027504D03*
X023505Y027504D03*
X022505Y027504D03*
X021505Y027504D03*
X020505Y027504D03*
X020505Y029504D03*
X021505Y029504D03*
X022505Y029504D03*
X023505Y029504D03*
X024505Y029504D03*
X025505Y029504D03*
X026505Y029504D03*
X027505Y029504D03*
X028505Y029504D03*
X029505Y029504D03*
X029505Y032504D03*
X028505Y032504D03*
X027505Y032504D03*
X026505Y032504D03*
X025505Y032504D03*
X024505Y032504D03*
X023505Y032504D03*
X022505Y032504D03*
X021505Y032504D03*
X020505Y032504D03*
X014505Y031504D03*
X013505Y031504D03*
X012505Y031504D03*
X011505Y031504D03*
X010505Y031504D03*
X009505Y031504D03*
X008505Y031504D03*
X007505Y031504D03*
X006505Y031504D03*
X005505Y031504D03*
X005505Y028504D03*
X006505Y028504D03*
X007505Y028504D03*
X008505Y028504D03*
X009505Y028504D03*
X010505Y028504D03*
X011505Y028504D03*
X012505Y028504D03*
X013505Y028504D03*
X014505Y028504D03*
X014505Y026504D03*
X013505Y026504D03*
X012505Y026504D03*
X011505Y026504D03*
X010505Y026504D03*
X009505Y026504D03*
X008505Y026504D03*
X007505Y026504D03*
X006505Y026504D03*
X005505Y026504D03*
X005505Y023504D03*
X006505Y023504D03*
X007505Y023504D03*
X008505Y023504D03*
X009505Y023504D03*
X010505Y023504D03*
X011505Y023504D03*
X012505Y023504D03*
X013505Y023504D03*
X014505Y023504D03*
X014505Y021504D03*
X013505Y021504D03*
X012505Y021504D03*
X011505Y021504D03*
X010505Y021504D03*
X009505Y021504D03*
X008505Y021504D03*
X007505Y021504D03*
X006505Y021504D03*
X005505Y021504D03*
X005505Y018504D03*
X006505Y018504D03*
X007505Y018504D03*
X008505Y018504D03*
X009505Y018504D03*
X010505Y018504D03*
X011505Y018504D03*
X012505Y018504D03*
X013505Y018504D03*
X014505Y018504D03*
X014505Y016504D03*
X013505Y016504D03*
X012505Y016504D03*
X011505Y016504D03*
X010505Y016504D03*
X009505Y016504D03*
X008505Y016504D03*
X007505Y016504D03*
X006505Y016504D03*
X005505Y016504D03*
X005505Y013504D03*
X006505Y013504D03*
X007505Y013504D03*
X008505Y013504D03*
X009505Y013504D03*
X010505Y013504D03*
X011505Y013504D03*
X012505Y013504D03*
X013505Y013504D03*
X014505Y013504D03*
X014505Y011504D03*
X013505Y011504D03*
X012505Y011504D03*
X011505Y011504D03*
X010505Y011504D03*
X009505Y011504D03*
X008505Y011504D03*
X007505Y011504D03*
X006505Y011504D03*
X005505Y011504D03*
X005505Y008504D03*
X006505Y008504D03*
X007505Y008504D03*
X008505Y008504D03*
X009505Y008504D03*
X010505Y008504D03*
X011505Y008504D03*
X012505Y008504D03*
X013505Y008504D03*
X014505Y008504D03*
X014505Y006504D03*
X013505Y006504D03*
X012505Y006504D03*
X011505Y006504D03*
X010505Y006504D03*
X009505Y006504D03*
X008505Y006504D03*
X007505Y006504D03*
X006505Y006504D03*
X005505Y006504D03*
X005505Y003504D03*
X006505Y003504D03*
X007505Y003504D03*
X008505Y003504D03*
X009505Y003504D03*
X010505Y003504D03*
X011505Y003504D03*
X012505Y003504D03*
X013505Y003504D03*
X014505Y003504D03*
X020505Y024504D03*
X021505Y024504D03*
X022505Y024504D03*
X023505Y024504D03*
X024505Y024504D03*
D11*
X028005Y021504D03*
X029005Y021504D03*
X029005Y020504D03*
X029005Y019504D03*
X028005Y019504D03*
X028005Y020504D03*
X028005Y018504D03*
X029005Y018504D03*
X029005Y017504D03*
X028005Y017504D03*
X028005Y016504D03*
X029005Y016504D03*
X029005Y015504D03*
X029005Y014504D03*
X028005Y014504D03*
X028005Y015504D03*
X028005Y013504D03*
X029005Y013504D03*
X032505Y011504D03*
X033505Y011504D03*
X033505Y010504D03*
X032505Y010504D03*
X032505Y009504D03*
X033505Y009504D03*
X033505Y008504D03*
X032505Y008504D03*
X032505Y007504D03*
X033505Y007504D03*
X033505Y006504D03*
X032505Y006504D03*
X032505Y005504D03*
X033505Y005504D03*
X033505Y004504D03*
X032505Y004504D03*
X032505Y003504D03*
X033505Y003504D03*
X033505Y002504D03*
X032505Y002504D03*
X018505Y003504D03*
X017505Y003504D03*
X017505Y004504D03*
X018505Y004504D03*
X018505Y005504D03*
X017505Y005504D03*
X017505Y006504D03*
X018505Y006504D03*
X018505Y007504D03*
X017505Y007504D03*
X017505Y008504D03*
X018505Y008504D03*
X018505Y009504D03*
X017505Y009504D03*
X017505Y010504D03*
X018505Y010504D03*
X003505Y010504D03*
X003505Y011504D03*
X002505Y011504D03*
X002505Y010504D03*
X002505Y009504D03*
X003505Y009504D03*
X003505Y008504D03*
X002505Y008504D03*
X002505Y007504D03*
X003505Y007504D03*
X003505Y006504D03*
X002505Y006504D03*
X002505Y005504D03*
X003505Y005504D03*
X003505Y004504D03*
X002505Y004504D03*
X002505Y014504D03*
X003505Y014504D03*
X003505Y015504D03*
X002505Y015504D03*
X002505Y016504D03*
X003505Y016504D03*
X003505Y017504D03*
X002505Y017504D03*
X002505Y018504D03*
X003505Y018504D03*
X003505Y019504D03*
X003505Y020504D03*
X002505Y020504D03*
X002505Y019504D03*
X002505Y021504D03*
X003505Y021504D03*
X003505Y024504D03*
X002505Y024504D03*
X002505Y025504D03*
X003505Y025504D03*
X003505Y026504D03*
X002505Y026504D03*
X002505Y027504D03*
X003505Y027504D03*
X003505Y028504D03*
X002505Y028504D03*
X002505Y029504D03*
X003505Y029504D03*
X003505Y030504D03*
X002505Y030504D03*
X002505Y031504D03*
X003505Y031504D03*
X018505Y029454D03*
X018505Y023554D03*
X032505Y025504D03*
X033505Y025504D03*
X033505Y026504D03*
X032505Y026504D03*
X032505Y027504D03*
X033505Y027504D03*
X033505Y028504D03*
X032505Y028504D03*
X032505Y029504D03*
X033505Y029504D03*
X033505Y030504D03*
X032505Y030504D03*
X032505Y031504D03*
X033505Y031504D03*
X033505Y032504D03*
X032505Y032504D03*
X048505Y031504D03*
X049505Y031504D03*
X049505Y030504D03*
X048505Y030504D03*
X048505Y029504D03*
X049505Y029504D03*
X049505Y028504D03*
X049505Y027504D03*
X048505Y027504D03*
X048505Y028504D03*
X048505Y026504D03*
X049505Y026504D03*
X049505Y025504D03*
X048505Y025504D03*
X048505Y024504D03*
X049505Y024504D03*
X049505Y021504D03*
X048505Y021504D03*
X048505Y020504D03*
X049505Y020504D03*
X049505Y019504D03*
X048505Y019504D03*
X048505Y018504D03*
X049505Y018504D03*
X049505Y017504D03*
X048505Y017504D03*
X048505Y016504D03*
X049505Y016504D03*
X049505Y015504D03*
X049505Y014504D03*
X048505Y014504D03*
X048505Y015504D03*
X048505Y011504D03*
X049505Y011504D03*
X049505Y010504D03*
X048505Y010504D03*
X048505Y009504D03*
X049505Y009504D03*
X049505Y008504D03*
X048505Y008504D03*
X048505Y007504D03*
X049505Y007504D03*
X049505Y006504D03*
X048505Y006504D03*
X048505Y005504D03*
X049505Y005504D03*
X049505Y004504D03*
X048505Y004504D03*
D12*
X001505Y001504D03*
X001505Y034504D03*
X049505Y034504D03*
X049505Y001504D03*
D13*
X046505Y004504D03*
X046505Y006504D03*
X046505Y009504D03*
X046505Y011504D03*
X046505Y014504D03*
X046505Y016504D03*
X046505Y019504D03*
X046505Y021504D03*
X046505Y024504D03*
X046505Y026504D03*
X046505Y029504D03*
X046505Y031504D03*
X033005Y021504D03*
X031005Y021504D03*
X026505Y021504D03*
X026505Y019504D03*
X026505Y016504D03*
X026505Y014504D03*
X030505Y010504D03*
X030505Y008504D03*
X030505Y005504D03*
X030505Y003504D03*
X015505Y004504D03*
X015505Y006504D03*
X015505Y009504D03*
X015505Y011504D03*
X015505Y014504D03*
X015505Y016504D03*
X015505Y019504D03*
X015505Y021504D03*
X015505Y024504D03*
X015505Y026504D03*
X015505Y029504D03*
X015505Y031504D03*
X030505Y030504D03*
X030505Y032504D03*
X030505Y027504D03*
X030505Y025504D03*
D14*
X018505Y031504D03*
X018505Y032504D03*
D15*
X030505Y020504D03*
X030505Y019504D03*
X030505Y018504D03*
X030505Y017504D03*
X030505Y016504D03*
X030505Y015504D03*
X030505Y014504D03*
X030505Y013504D03*
X033505Y013504D03*
X033505Y014504D03*
X033505Y015504D03*
X033505Y016504D03*
X033505Y017504D03*
X033505Y018504D03*
X033505Y019504D03*
X033505Y020504D03*
D16*
X034505Y021504D03*
X035505Y021504D03*
X035505Y021004D03*
X036005Y019254D03*
X034755Y019004D03*
X035755Y017004D03*
X031755Y018004D03*
X029755Y020004D03*
X028505Y020004D03*
X027005Y020004D03*
X028505Y018004D03*
X030255Y021504D03*
X029005Y023754D03*
X027005Y023754D03*
X025505Y023254D03*
X024505Y023004D03*
X024005Y023004D03*
X023505Y022754D03*
X021005Y020504D03*
X019005Y020754D03*
X015505Y023504D03*
X012005Y024754D03*
X011505Y025004D03*
X009005Y027254D03*
X008005Y027254D03*
X009005Y029254D03*
X009505Y030504D03*
X007755Y030504D03*
X007005Y030754D03*
X005505Y030004D03*
X004005Y030004D03*
X002005Y032254D03*
X004755Y032754D03*
X005505Y033004D03*
X006005Y034004D03*
X006505Y034254D03*
X007005Y034504D03*
X007505Y032754D03*
X010255Y033254D03*
X015005Y034504D03*
X017005Y032504D03*
X017755Y033504D03*
X018755Y033504D03*
X019755Y032504D03*
X022005Y033504D03*
X025005Y034004D03*
X027505Y034254D03*
X028005Y034504D03*
X025505Y031504D03*
X026255Y030754D03*
X028005Y028754D03*
X029005Y028504D03*
X030505Y029504D03*
X031505Y029504D03*
X031505Y028004D03*
X028505Y025504D03*
X026505Y026004D03*
X024505Y025754D03*
X022505Y026254D03*
X021005Y026754D03*
X019255Y026254D03*
X017255Y028004D03*
X016005Y026004D03*
X019255Y030254D03*
X016505Y030504D03*
X018755Y034754D03*
X032005Y034754D03*
X033005Y034504D03*
X033505Y033504D03*
X035005Y032004D03*
X035505Y031004D03*
X036505Y029504D03*
X037005Y032254D03*
X039005Y034004D03*
X039505Y034504D03*
X040005Y034004D03*
X042005Y032754D03*
X041005Y032254D03*
X042005Y030504D03*
X045755Y034004D03*
X047505Y034504D03*
X047505Y033254D03*
X047505Y032004D03*
X047505Y031254D03*
X047505Y029004D03*
X049005Y029004D03*
X045005Y025254D03*
X045005Y022754D03*
X047505Y023004D03*
X049005Y023754D03*
X049005Y022004D03*
X047505Y020504D03*
X044505Y017504D03*
X041505Y015004D03*
X035755Y012504D03*
X035255Y011504D03*
X033255Y012504D03*
X032005Y011004D03*
X030755Y012004D03*
X030255Y011504D03*
X031505Y008754D03*
X030005Y006504D03*
X027005Y008504D03*
X025505Y009004D03*
X024005Y009504D03*
X023505Y009504D03*
X022505Y009004D03*
X021505Y008504D03*
X020005Y008754D03*
X019505Y008254D03*
X018005Y009004D03*
X019505Y010504D03*
X019005Y011754D03*
X018505Y012254D03*
X016505Y013754D03*
X016755Y014254D03*
X017755Y014254D03*
X018755Y014754D03*
X017505Y016004D03*
X016505Y015754D03*
X016505Y015254D03*
X015005Y012504D03*
X011005Y009504D03*
X008505Y010004D03*
X007505Y010504D03*
X013005Y007754D03*
X019505Y004504D03*
X021505Y004004D03*
X023005Y003504D03*
X024505Y004004D03*
X026505Y003754D03*
X029005Y001504D03*
X034505Y001754D03*
X037505Y001754D03*
X038005Y001754D03*
X041505Y005004D03*
X039755Y005254D03*
X043005Y002504D03*
X046505Y002004D03*
X048255Y002754D03*
X046505Y003504D03*
X044505Y007504D03*
X041505Y010504D03*
X047505Y011504D03*
X041505Y020504D03*
X040505Y020504D03*
X041005Y022254D03*
X041005Y022754D03*
X037505Y025254D03*
X035505Y025754D03*
X033005Y024504D03*
X032505Y024004D03*
X033505Y023754D03*
X034505Y023004D03*
X027005Y014004D03*
X026505Y012754D03*
X026005Y012254D03*
X023005Y012254D03*
X022005Y012754D03*
X023005Y006254D03*
X018755Y001754D03*
X015505Y002004D03*
X008005Y002754D03*
X007005Y002254D03*
X005505Y001754D03*
X005005Y002254D03*
X003255Y002754D03*
X004505Y004504D03*
X004505Y005504D03*
X005005Y005504D03*
X006755Y005004D03*
X008505Y014504D03*
X008005Y015254D03*
X004505Y015754D03*
X001505Y016504D03*
X001505Y018504D03*
X004005Y022754D03*
X003505Y023754D03*
X007505Y025004D03*
X007505Y020504D03*
X008005Y020004D03*
X011505Y019504D03*
X012005Y015754D03*
M02*
