G75*
G70*
%OFA0B0*%
%FSLAX24Y24*%
%IPPOS*%
%LPD*%
%AMOC8*
5,1,8,0,0,1.08239X$1,22.5*
%
%ADD10O,0.0624X0.1144*%
%ADD11OC8,0.0720*%
%ADD12C,0.1323*%
%ADD13OC8,0.0624*%
%ADD14O,0.1232X0.0672*%
%ADD15O,0.1144X0.0624*%
%ADD16C,0.0480*%
D10*
X046512Y031504D03*
X045512Y031504D03*
X044512Y031504D03*
X043512Y031504D03*
X042512Y031504D03*
X041512Y031504D03*
X040512Y031504D03*
X039512Y031504D03*
X038512Y031504D03*
X037512Y031504D03*
X037512Y028504D03*
X038512Y028504D03*
X039512Y028504D03*
X040512Y028504D03*
X041512Y028504D03*
X042512Y028504D03*
X043512Y028504D03*
X044512Y028504D03*
X045512Y028504D03*
X046512Y028504D03*
X046512Y026504D03*
X045512Y026504D03*
X044512Y026504D03*
X043512Y026504D03*
X042512Y026504D03*
X041512Y026504D03*
X040512Y026504D03*
X039512Y026504D03*
X038512Y026504D03*
X037512Y026504D03*
X037512Y023504D03*
X038512Y023504D03*
X039512Y023504D03*
X040512Y023504D03*
X041512Y023504D03*
X042512Y023504D03*
X043512Y023504D03*
X044512Y023504D03*
X045512Y023504D03*
X046512Y023504D03*
X046512Y021504D03*
X045512Y021504D03*
X044512Y021504D03*
X043512Y021504D03*
X042512Y021504D03*
X041512Y021504D03*
X040512Y021504D03*
X039512Y021504D03*
X038512Y021504D03*
X037512Y021504D03*
X037512Y018504D03*
X038512Y018504D03*
X039512Y018504D03*
X040512Y018504D03*
X041512Y018504D03*
X042512Y018504D03*
X043512Y018504D03*
X044512Y018504D03*
X045512Y018504D03*
X046512Y018504D03*
X046512Y016504D03*
X045512Y016504D03*
X044512Y016504D03*
X043512Y016504D03*
X042512Y016504D03*
X041512Y016504D03*
X040512Y016504D03*
X039512Y016504D03*
X038512Y016504D03*
X037512Y016504D03*
X037512Y013504D03*
X038512Y013504D03*
X039512Y013504D03*
X040512Y013504D03*
X041512Y013504D03*
X042512Y013504D03*
X043512Y013504D03*
X044512Y013504D03*
X045512Y013504D03*
X046512Y013504D03*
X046512Y011504D03*
X045512Y011504D03*
X044512Y011504D03*
X043512Y011504D03*
X042512Y011504D03*
X041512Y011504D03*
X040512Y011504D03*
X039512Y011504D03*
X038512Y011504D03*
X037512Y011504D03*
X037512Y008504D03*
X038512Y008504D03*
X039512Y008504D03*
X040512Y008504D03*
X041512Y008504D03*
X042512Y008504D03*
X043512Y008504D03*
X044512Y008504D03*
X045512Y008504D03*
X046512Y008504D03*
X046512Y006504D03*
X045512Y006504D03*
X044512Y006504D03*
X043512Y006504D03*
X042512Y006504D03*
X041512Y006504D03*
X040512Y006504D03*
X039512Y006504D03*
X038512Y006504D03*
X037512Y006504D03*
X037512Y003504D03*
X038512Y003504D03*
X039512Y003504D03*
X040512Y003504D03*
X041512Y003504D03*
X042512Y003504D03*
X043512Y003504D03*
X044512Y003504D03*
X045512Y003504D03*
X046512Y003504D03*
X033512Y013504D03*
X032512Y013504D03*
X031512Y013504D03*
X030512Y013504D03*
X029512Y013504D03*
X028512Y013504D03*
X027512Y013504D03*
X026512Y013504D03*
X026512Y016504D03*
X027512Y016504D03*
X028512Y016504D03*
X029512Y016504D03*
X030512Y016504D03*
X031512Y016504D03*
X032512Y016504D03*
X033512Y016504D03*
X033512Y018504D03*
X032512Y018504D03*
X031512Y018504D03*
X030512Y018504D03*
X029512Y018504D03*
X028512Y018504D03*
X027512Y018504D03*
X026512Y018504D03*
X026512Y021504D03*
X027512Y021504D03*
X028512Y021504D03*
X029512Y021504D03*
X030512Y021504D03*
X031512Y021504D03*
X032512Y021504D03*
X033512Y021504D03*
X031512Y024504D03*
X030512Y024504D03*
X029512Y024504D03*
X028512Y024504D03*
X027512Y024504D03*
X026512Y024504D03*
X025512Y024504D03*
X024512Y024504D03*
X023512Y024504D03*
X022512Y024504D03*
X022512Y027504D03*
X023512Y027504D03*
X024512Y027504D03*
X025512Y027504D03*
X026512Y027504D03*
X027512Y027504D03*
X028512Y027504D03*
X029512Y027504D03*
X030512Y027504D03*
X031512Y027504D03*
X031512Y029504D03*
X030512Y029504D03*
X029512Y029504D03*
X028512Y029504D03*
X027512Y029504D03*
X026512Y029504D03*
X025512Y029504D03*
X024512Y029504D03*
X023512Y029504D03*
X022512Y029504D03*
X022512Y032504D03*
X023512Y032504D03*
X024512Y032504D03*
X025512Y032504D03*
X026512Y032504D03*
X027512Y032504D03*
X028512Y032504D03*
X029512Y032504D03*
X030512Y032504D03*
X031512Y032504D03*
X015512Y031504D03*
X014512Y031504D03*
X013512Y031504D03*
X012512Y031504D03*
X011512Y031504D03*
X010512Y031504D03*
X009512Y031504D03*
X008512Y031504D03*
X007512Y031504D03*
X006512Y031504D03*
X006512Y028504D03*
X007512Y028504D03*
X008512Y028504D03*
X009512Y028504D03*
X010512Y028504D03*
X011512Y028504D03*
X012512Y028504D03*
X013512Y028504D03*
X014512Y028504D03*
X015512Y028504D03*
X015512Y026504D03*
X014512Y026504D03*
X013512Y026504D03*
X012512Y026504D03*
X011512Y026504D03*
X010512Y026504D03*
X009512Y026504D03*
X008512Y026504D03*
X007512Y026504D03*
X006512Y026504D03*
X006512Y023504D03*
X007512Y023504D03*
X008512Y023504D03*
X009512Y023504D03*
X010512Y023504D03*
X011512Y023504D03*
X012512Y023504D03*
X013512Y023504D03*
X014512Y023504D03*
X015512Y023504D03*
X015512Y021504D03*
X014512Y021504D03*
X013512Y021504D03*
X012512Y021504D03*
X011512Y021504D03*
X010512Y021504D03*
X009512Y021504D03*
X008512Y021504D03*
X007512Y021504D03*
X006512Y021504D03*
X006512Y018504D03*
X007512Y018504D03*
X008512Y018504D03*
X009512Y018504D03*
X010512Y018504D03*
X011512Y018504D03*
X012512Y018504D03*
X013512Y018504D03*
X014512Y018504D03*
X015512Y018504D03*
X015512Y016504D03*
X014512Y016504D03*
X013512Y016504D03*
X012512Y016504D03*
X011512Y016504D03*
X010512Y016504D03*
X009512Y016504D03*
X008512Y016504D03*
X007512Y016504D03*
X006512Y016504D03*
X006512Y013504D03*
X007512Y013504D03*
X008512Y013504D03*
X009512Y013504D03*
X010512Y013504D03*
X011512Y013504D03*
X012512Y013504D03*
X013512Y013504D03*
X014512Y013504D03*
X015512Y013504D03*
X015512Y011504D03*
X014512Y011504D03*
X013512Y011504D03*
X012512Y011504D03*
X011512Y011504D03*
X010512Y011504D03*
X009512Y011504D03*
X008512Y011504D03*
X007512Y011504D03*
X006512Y011504D03*
X006512Y008504D03*
X007512Y008504D03*
X008512Y008504D03*
X009512Y008504D03*
X010512Y008504D03*
X011512Y008504D03*
X012512Y008504D03*
X013512Y008504D03*
X014512Y008504D03*
X015512Y008504D03*
X015512Y006504D03*
X014512Y006504D03*
X013512Y006504D03*
X012512Y006504D03*
X011512Y006504D03*
X010512Y006504D03*
X009512Y006504D03*
X008512Y006504D03*
X007512Y006504D03*
X006512Y006504D03*
X006512Y003504D03*
X007512Y003504D03*
X008512Y003504D03*
X009512Y003504D03*
X010512Y003504D03*
X011512Y003504D03*
X012512Y003504D03*
X013512Y003504D03*
X014512Y003504D03*
X015512Y003504D03*
X022512Y002504D03*
X023512Y002504D03*
X024512Y002504D03*
X025512Y002504D03*
X026512Y002504D03*
X027512Y002504D03*
X028512Y002504D03*
X029512Y002504D03*
X030512Y002504D03*
X031512Y002504D03*
X031512Y005504D03*
X030512Y005504D03*
X029512Y005504D03*
X028512Y005504D03*
X027512Y005504D03*
X026512Y005504D03*
X025512Y005504D03*
X024512Y005504D03*
X023512Y005504D03*
X022512Y005504D03*
X022512Y007504D03*
X023512Y007504D03*
X024512Y007504D03*
X025512Y007504D03*
X026512Y007504D03*
X027512Y007504D03*
X028512Y007504D03*
X029512Y007504D03*
X030512Y007504D03*
X031512Y007504D03*
X031512Y010504D03*
X030512Y010504D03*
X029512Y010504D03*
X028512Y010504D03*
X027512Y010504D03*
X026512Y010504D03*
X025512Y010504D03*
X024512Y010504D03*
X023512Y010504D03*
X022512Y010504D03*
D11*
X019512Y010504D03*
X019512Y011504D03*
X018512Y011504D03*
X018512Y010504D03*
X018512Y009504D03*
X019512Y009504D03*
X019512Y008504D03*
X018512Y008504D03*
X018512Y007504D03*
X019512Y007504D03*
X019512Y006504D03*
X018512Y006504D03*
X018512Y005504D03*
X019512Y005504D03*
X019512Y004504D03*
X018512Y004504D03*
X018512Y003504D03*
X019512Y003504D03*
X019512Y002504D03*
X018512Y002504D03*
X033512Y003504D03*
X034512Y003504D03*
X034512Y004504D03*
X033512Y004504D03*
X033512Y005504D03*
X034512Y005504D03*
X034512Y006504D03*
X034512Y007504D03*
X033512Y007504D03*
X033512Y006504D03*
X033512Y008504D03*
X034512Y008504D03*
X034512Y009504D03*
X033512Y009504D03*
X033512Y010504D03*
X034512Y010504D03*
X024012Y013504D03*
X023012Y013504D03*
X023012Y014504D03*
X024012Y014504D03*
X024012Y015504D03*
X023012Y015504D03*
X023012Y016504D03*
X024012Y016504D03*
X024012Y017504D03*
X023012Y017504D03*
X023012Y018504D03*
X024012Y018504D03*
X024012Y019504D03*
X024012Y020504D03*
X023012Y020504D03*
X023012Y019504D03*
X023012Y021504D03*
X024012Y021504D03*
X019512Y025504D03*
X018512Y025504D03*
X018512Y026504D03*
X019512Y026504D03*
X019512Y027504D03*
X019512Y028504D03*
X018512Y028504D03*
X018512Y027504D03*
X018512Y029504D03*
X019512Y029504D03*
X019512Y030504D03*
X018512Y030504D03*
X018512Y031504D03*
X019512Y031504D03*
X019512Y032504D03*
X018512Y032504D03*
X003512Y031504D03*
X002512Y031504D03*
X002512Y030504D03*
X003512Y030504D03*
X003512Y029504D03*
X002512Y029504D03*
X002512Y028504D03*
X003512Y028504D03*
X003512Y027504D03*
X002512Y027504D03*
X002512Y026504D03*
X003512Y026504D03*
X003512Y025504D03*
X002512Y025504D03*
X002512Y024504D03*
X003512Y024504D03*
X003512Y021504D03*
X002512Y021504D03*
X002512Y020504D03*
X003512Y020504D03*
X003512Y019504D03*
X002512Y019504D03*
X002512Y018504D03*
X003512Y018504D03*
X003512Y017504D03*
X002512Y017504D03*
X002512Y016504D03*
X003512Y016504D03*
X003512Y015504D03*
X003512Y014504D03*
X002512Y014504D03*
X002512Y015504D03*
X002512Y011504D03*
X003512Y011504D03*
X003512Y010504D03*
X002512Y010504D03*
X002512Y009504D03*
X003512Y009504D03*
X003512Y008504D03*
X002512Y008504D03*
X002512Y007504D03*
X003512Y007504D03*
X003512Y006504D03*
X002512Y006504D03*
X002512Y005504D03*
X003512Y005504D03*
X003512Y004504D03*
X002512Y004504D03*
X033512Y023554D03*
X033512Y029454D03*
X048512Y029504D03*
X049512Y029504D03*
X049512Y030504D03*
X048512Y030504D03*
X048512Y031504D03*
X049512Y031504D03*
X049512Y028504D03*
X049512Y027504D03*
X048512Y027504D03*
X048512Y028504D03*
X048512Y026504D03*
X049512Y026504D03*
X049512Y025504D03*
X048512Y025504D03*
X048512Y024504D03*
X049512Y024504D03*
X049512Y021504D03*
X048512Y021504D03*
X048512Y020504D03*
X049512Y020504D03*
X049512Y019504D03*
X048512Y019504D03*
X048512Y018504D03*
X049512Y018504D03*
X049512Y017504D03*
X048512Y017504D03*
X048512Y016504D03*
X049512Y016504D03*
X049512Y015504D03*
X049512Y014504D03*
X048512Y014504D03*
X048512Y015504D03*
X048512Y011504D03*
X049512Y011504D03*
X049512Y010504D03*
X048512Y010504D03*
X048512Y009504D03*
X049512Y009504D03*
X049512Y008504D03*
X048512Y008504D03*
X048512Y007504D03*
X049512Y007504D03*
X049512Y006504D03*
X048512Y006504D03*
X048512Y005504D03*
X049512Y005504D03*
X049512Y004504D03*
X048512Y004504D03*
D12*
X002512Y001504D03*
X002512Y034504D03*
X050512Y034504D03*
X050512Y001504D03*
D13*
X036512Y004504D03*
X036512Y006504D03*
X036512Y009504D03*
X036512Y011504D03*
X036512Y014504D03*
X036512Y016504D03*
X036512Y019504D03*
X036512Y021504D03*
X036512Y024504D03*
X036512Y026504D03*
X036512Y029504D03*
X036512Y031504D03*
X025512Y021504D03*
X025512Y019504D03*
X025512Y016504D03*
X025512Y014504D03*
X021512Y010504D03*
X021512Y008504D03*
X021512Y005504D03*
X021512Y003504D03*
X005512Y004504D03*
X005512Y006504D03*
X005512Y009504D03*
X005512Y011504D03*
X005512Y014504D03*
X005512Y016504D03*
X005512Y019504D03*
X005512Y021504D03*
X005512Y024504D03*
X005512Y026504D03*
X005512Y029504D03*
X005512Y031504D03*
X019012Y021504D03*
X021012Y021504D03*
X021512Y025504D03*
X021512Y027504D03*
X021512Y030504D03*
X021512Y032504D03*
D14*
X033512Y032504D03*
X033512Y031504D03*
D15*
X021512Y020504D03*
X021512Y019504D03*
X021512Y018504D03*
X021512Y017504D03*
X021512Y016504D03*
X021512Y015504D03*
X021512Y014504D03*
X021512Y013504D03*
X018512Y013504D03*
X018512Y014504D03*
X018512Y015504D03*
X018512Y016504D03*
X018512Y017504D03*
X018512Y018504D03*
X018512Y019504D03*
X018512Y020504D03*
D16*
X017512Y021504D03*
X016512Y021504D03*
X016512Y021004D03*
X016012Y019254D03*
X017262Y019004D03*
X016262Y017004D03*
X020262Y018004D03*
X022262Y020004D03*
X023512Y020004D03*
X025012Y020004D03*
X023512Y018004D03*
X021762Y021504D03*
X023012Y023754D03*
X025012Y023754D03*
X026512Y023254D03*
X027512Y023004D03*
X028012Y023004D03*
X028512Y022754D03*
X031012Y020504D03*
X033012Y020754D03*
X036512Y023504D03*
X040012Y024754D03*
X040512Y025004D03*
X043012Y027254D03*
X044012Y027254D03*
X043012Y029254D03*
X042512Y030504D03*
X044262Y030504D03*
X045012Y030754D03*
X046512Y030004D03*
X048012Y030004D03*
X050012Y032254D03*
X047262Y032754D03*
X046512Y033004D03*
X046012Y034004D03*
X045512Y034254D03*
X045012Y034504D03*
X044512Y032754D03*
X041762Y033254D03*
X037012Y034504D03*
X035012Y032504D03*
X034262Y033504D03*
X033262Y033504D03*
X032262Y032504D03*
X030012Y033504D03*
X027012Y034004D03*
X024512Y034254D03*
X024012Y034504D03*
X026512Y031504D03*
X025762Y030754D03*
X024012Y028754D03*
X023012Y028504D03*
X021512Y029504D03*
X020512Y029504D03*
X020512Y028004D03*
X023512Y025504D03*
X025512Y026004D03*
X027512Y025754D03*
X029512Y026254D03*
X031012Y026754D03*
X032762Y026254D03*
X034762Y028004D03*
X036012Y026004D03*
X032762Y030254D03*
X035512Y030504D03*
X033262Y034754D03*
X020012Y034754D03*
X019012Y034504D03*
X018512Y033504D03*
X017012Y032004D03*
X016512Y031004D03*
X015512Y029504D03*
X015012Y032254D03*
X013012Y034004D03*
X012512Y034504D03*
X012012Y034004D03*
X010012Y032754D03*
X011012Y032254D03*
X010012Y030504D03*
X006262Y034004D03*
X004512Y034504D03*
X004512Y033254D03*
X004512Y032004D03*
X004512Y031254D03*
X004512Y029004D03*
X003012Y029004D03*
X007012Y025254D03*
X007012Y022754D03*
X004512Y023004D03*
X003012Y023754D03*
X003012Y022004D03*
X004512Y020504D03*
X007512Y017504D03*
X010512Y015004D03*
X016262Y012504D03*
X016762Y011504D03*
X018762Y012504D03*
X020012Y011004D03*
X021262Y012004D03*
X021762Y011504D03*
X020512Y008754D03*
X022012Y006504D03*
X025012Y008504D03*
X026512Y009004D03*
X028012Y009504D03*
X028512Y009504D03*
X029512Y009004D03*
X030512Y008504D03*
X032012Y008754D03*
X032512Y008254D03*
X034012Y009004D03*
X032512Y010504D03*
X033012Y011754D03*
X033512Y012254D03*
X035512Y013754D03*
X035262Y014254D03*
X034262Y014254D03*
X033262Y014754D03*
X034512Y016004D03*
X035512Y015754D03*
X035512Y015254D03*
X037012Y012504D03*
X041012Y009504D03*
X043512Y010004D03*
X044512Y010504D03*
X039012Y007754D03*
X045262Y005004D03*
X047012Y005504D03*
X047512Y005504D03*
X047512Y004504D03*
X048762Y002754D03*
X047012Y002254D03*
X046512Y001754D03*
X045012Y002254D03*
X044012Y002754D03*
X036512Y002004D03*
X033262Y001754D03*
X030512Y004004D03*
X029012Y003504D03*
X027512Y004004D03*
X025512Y003754D03*
X023012Y001504D03*
X017512Y001754D03*
X014512Y001754D03*
X014012Y001754D03*
X010512Y005004D03*
X012262Y005254D03*
X009012Y002504D03*
X005512Y002004D03*
X003762Y002754D03*
X005512Y003504D03*
X007512Y007504D03*
X010512Y010504D03*
X004512Y011504D03*
X010512Y020504D03*
X011512Y020504D03*
X011012Y022254D03*
X011012Y022754D03*
X014512Y025254D03*
X016512Y025754D03*
X019012Y024504D03*
X019512Y024004D03*
X018512Y023754D03*
X017512Y023004D03*
X025012Y014004D03*
X025512Y012754D03*
X026012Y012254D03*
X029012Y012254D03*
X030012Y012754D03*
X029012Y006254D03*
X032512Y004504D03*
X043512Y014504D03*
X044012Y015254D03*
X047512Y015754D03*
X050512Y016504D03*
X050512Y018504D03*
X048012Y022754D03*
X048512Y023754D03*
X044512Y025004D03*
X044512Y020504D03*
X044012Y020004D03*
X040512Y019504D03*
X040012Y015754D03*
M02*
