  0
SECTION
  2
HEADER
  9
$MEASUREMENT
  70
  0
  9
$INSUNITS
  70
  1
  0
ENDSEC
  0
SECTION
  2
TABLES
  0
TABLE
  2
LTYPE
 70
     1
  0
LTYPE
  2
CONTINUOUS
 70
    64
  3
Ausgezogene Linie
 72
    65
 73
     0
 40
0.0
  0
ENDTAB
  0
TABLE
  2
LAYER
 70
     3
  0
LAYER
  2
Contour
 70
    64
 62
     7
  6
CONTINUOUS
  0
LAYER
  2
Engraving
 70
    64
 62
     7
  6
CONTINUOUS
  0
LAYER
  2
Reference_points
 70
    64
 62
     1
  6
CONTINUOUS
  0
ENDTAB
  0
TABLE
  2
STYLE
 70
     1
  0
STYLE
  2
TXT
 70
    64
 40
0.0
 41
1.0
 50
0.0
 71
     0
 42
3.500000
  3
TXT
  0
ENDTAB
  0
ENDSEC
  0
SECTION
  2
BLOCKS
  0
ENDSEC
  0
SECTION
  2
ENTITIES
  0
LINE
  8
Contour
 62
   7
 39
0.004
  6
CONTINUOUS
 10
19.01575
 20
5.21654
 30
 0
 11
0.00000
 21
5.21654
  0
LINE
  8
Contour
 62
   7
 39
0.004
  6
CONTINUOUS
 10
0.00000
 20
5.21654
 30
 0
 11
0.00000
 21
5.21654
  0
LINE
  8
Contour
 62
   7
 39
0.004
  6
CONTINUOUS
 10
0.00000
 20
5.21654
 30
 0
 11
0.00000
 21
0.00000
  0
LINE
  8
Contour
 62
   7
 39
0.004
  6
CONTINUOUS
 10
0.00000
 20
0.00000
 30
 0
 11
0.00000
 21
0.00000
  0
LINE
  8
Contour
 62
   7
 39
0.004
  6
CONTINUOUS
 10
0.00000
 20
0.00000
 30
 0
 11
19.01575
 21
0.00000
  0
LINE
  8
Contour
 62
   7
 39
0.004
  6
CONTINUOUS
 10
19.01575
 20
0.00000
 30
 0
 11
19.01575
 21
0.00000
  0
LINE
  8
Contour
 62
   7
 39
0.004
  6
CONTINUOUS
 10
19.01575
 20
0.00000
 30
 0
 11
19.01575
 21
5.21654
  0
LINE
  8
Contour
 62
   7
 39
0.004
  6
CONTINUOUS
 10
19.01575
 20
5.21654
 30
 0
 11
19.01575
 21
5.21654
  0
LINE
  8
Engraving
 62
   2
 39
0.008
  6
CONTINUOUS
 10
14.45000
 20
1.95913
 30
 0
 11
14.45000
 21
1.88969
  0
ARC
  8
Engraving
 62
   2
 39
0.008
  6
CONTINUOUS
 10
14.49299
 20
1.88969
 30
 0
 40
0.04299
 50
180.00000
 51
360.00000
  0
LINE
  8
Engraving
 62
   2
 39
0.008
  6
CONTINUOUS
 10
14.53598
 20
1.88969
 30
 0
 11
14.53598
 21
1.95913
  0
ARC
  8
Engraving
 62
   2
 39
0.008
  6
CONTINUOUS
 10
14.49299
 20
1.95913
 30
 0
 40
0.04299
 50
-0.00000
 51
180.00000
  0
LINE
  8
Engraving
 62
   2
 39
0.008
  6
CONTINUOUS
 10
14.57567
 20
1.84008
 30
 0
 11
14.63850
 21
2.00709
  0
LINE
  8
Engraving
 62
   2
 39
0.008
  6
CONTINUOUS
 10
14.69472
 20
1.89134
 30
 0
 11
14.77740
 21
1.89134
  0
LINE
  8
Engraving
 62
   2
 39
0.008
  6
CONTINUOUS
 10
14.67819
 20
1.85000
 30
 0
 11
14.73606
 21
1.99882
  0
LINE
  8
Engraving
 62
   2
 39
0.008
  6
CONTINUOUS
 10
14.73606
 20
1.99882
 30
 0
 11
14.79394
 21
1.85000
  0
ARC
  8
Engraving
 62
   2
 39
0.008
  6
CONTINUOUS
 10
14.88213
 20
1.95386
 30
 0
 40
0.04850
 50
28.90876
 51
181.60147
  0
LINE
  8
Engraving
 62
   2
 39
0.008
  6
CONTINUOUS
 10
14.83362
 20
1.95252
 30
 0
 11
14.83362
 21
1.89630
  0
ARC
  8
Engraving
 62
   2
 39
0.008
  6
CONTINUOUS
 10
14.88331
 20
1.89634
 30
 0
 40
0.04969
 50
-179.95469
 51
-21.52310
  0
LINE
  8
Engraving
 62
   2
 39
0.008
  6
CONTINUOUS
 10
15.32500
 20
1.96575
 30
 0
 11
15.35807
 21
1.99882
  0
LINE
  8
Engraving
 62
   2
 39
0.008
  6
CONTINUOUS
 10
15.35807
 20
1.99882
 30
 0
 11
15.35807
 21
1.85000
  0
LINE
  8
Engraving
 62
   2
 39
0.008
  6
CONTINUOUS
 10
15.39776
 20
1.84008
 30
 0
 11
15.46059
 21
2.00709
  0
LINE
  8
Engraving
 62
   2
 39
0.008
  6
CONTINUOUS
 10
15.50028
 20
1.85000
 30
 0
 11
15.50028
 21
1.99882
  0
LINE
  8
Engraving
 62
   2
 39
0.008
  6
CONTINUOUS
 10
15.50028
 20
1.99882
 30
 0
 11
15.55815
 21
1.89134
  0
LINE
  8
Engraving
 62
   2
 39
0.008
  6
CONTINUOUS
 10
15.55815
 20
1.89134
 30
 0
 11
15.61602
 21
1.99882
  0
LINE
  8
Engraving
 62
   2
 39
0.008
  6
CONTINUOUS
 10
15.61602
 20
1.99882
 30
 0
 11
15.61602
 21
1.85000
  0
ARC
  8
Engraving
 62
   2
 39
0.008
  6
CONTINUOUS
 10
15.70862
 20
1.89961
 30
 0
 40
0.05291
 50
180.00000
 51
360.00000
  0
LINE
  8
Engraving
 62
   2
 39
0.008
  6
CONTINUOUS
 10
15.76154
 20
1.89961
 30
 0
 11
15.76154
 21
1.94921
  0
ARC
  8
Engraving
 62
   2
 39
0.008
  6
CONTINUOUS
 10
15.70862
 20
1.94921
 30
 0
 40
0.05291
 50
-0.00000
 51
180.00000
  0
LINE
  8
Engraving
 62
   2
 39
0.008
  6
CONTINUOUS
 10
15.65571
 20
1.94921
 30
 0
 11
15.65571
 21
1.89961
  0
LINE
  8
Engraving
 62
   2
 39
0.008
  6
CONTINUOUS
 10
15.72516
 20
1.88307
 30
 0
 11
15.76154
 21
1.84669
  0
LINE
  8
Engraving
 62
   2
 39
0.008
  6
CONTINUOUS
 10
14.35165
 20
2.88394
 30
 0
 11
14.36157
 21
2.89220
  0
ARC
  8
Engraving
 62
   2
 39
0.008
  6
CONTINUOUS
 10
14.38846
 20
2.86122
 30
 0
 40
0.04102
 50
319.01163
 51
130.98837
  0
LINE
  8
Engraving
 62
   2
 39
0.008
  6
CONTINUOUS
 10
14.41945
 20
2.83433
 30
 0
 11
14.35000
 21
2.75000
  0
LINE
  8
Engraving
 62
   2
 39
0.008
  6
CONTINUOUS
 10
14.35000
 20
2.75000
 30
 0
 11
14.43268
 21
2.75000
  0
LINE
  8
Engraving
 62
   2
 39
0.008
  6
CONTINUOUS
 10
14.47236
 20
2.74008
 30
 0
 11
14.53520
 21
2.90709
  0
ARC
  8
Engraving
 62
   2
 39
0.008
  6
CONTINUOUS
 10
14.62945
 20
2.86161
 30
 0
 40
0.03720
 50
-90.00000
 51
90.00000
  0
LINE
  8
Engraving
 62
   2
 39
0.008
  6
CONTINUOUS
 10
14.62945
 20
2.89882
 30
 0
 11
14.57488
 21
2.89882
  0
LINE
  8
Engraving
 62
   2
 39
0.008
  6
CONTINUOUS
 10
14.57488
 20
2.89882
 30
 0
 11
14.57488
 21
2.75000
  0
LINE
  8
Engraving
 62
   2
 39
0.008
  6
CONTINUOUS
 10
14.57488
 20
2.75000
 30
 0
 11
14.63772
 21
2.75000
  0
ARC
  8
Engraving
 62
   2
 39
0.008
  6
CONTINUOUS
 10
14.63772
 20
2.78720
 30
 0
 40
0.03720
 50
-90.00000
 51
90.00000
  0
LINE
  8
Engraving
 62
   2
 39
0.008
  6
CONTINUOUS
 10
14.63772
 20
2.82441
 30
 0
 11
14.57488
 21
2.82441
  0
LINE
  8
Engraving
 62
   2
 39
0.008
  6
CONTINUOUS
 10
14.71378
 20
2.89882
 30
 0
 11
14.71378
 21
2.79630
  0
ARC
  8
Engraving
 62
   2
 39
0.008
  6
CONTINUOUS
 10
14.76339
 20
2.79630
 30
 0
 40
0.04961
 50
180.00000
 51
360.00000
  0
LINE
  8
Engraving
 62
   2
 39
0.008
  6
CONTINUOUS
 10
14.81299
 20
2.79630
 30
 0
 11
14.81299
 21
2.89882
  0
ARC
  8
Engraving
 62
   2
 39
0.008
  6
CONTINUOUS
 10
14.91713
 20
2.86047
 30
 0
 40
0.03925
 50
36.74312
 51
77.78643
  0
ARC
  8
Engraving
 62
   2
 39
0.008
  6
CONTINUOUS
 10
14.90551
 20
2.80760
 30
 0
 40
0.09339
 50
77.68325
 51
106.40757
  0
ARC
  8
Engraving
 62
   2
 39
0.008
  6
CONTINUOUS
 10
14.89185
 20
2.85488
 30
 0
 40
0.04417
 50
106.75302
 51
144.32233
  0
ARC
  8
Engraving
 62
   2
 39
0.008
  6
CONTINUOUS
 10
14.88055
 20
2.86299
 30
 0
 40
0.03024
 50
144.28546
 51
251.35232
  0
LINE
  8
Engraving
 62
   2
 39
0.008
  6
CONTINUOUS
 10
14.87087
 20
2.83433
 30
 0
 11
14.92874
 21
2.81449
  0
ARC
  8
Engraving
 62
   2
 39
0.008
  6
CONTINUOUS
 10
14.91906
 20
2.78583
 30
 0
 40
0.03024
 50
324.28546
 51
71.35232
  0
ARC
  8
Engraving
 62
   2
 39
0.008
  6
CONTINUOUS
 10
14.90776
 20
2.79394
 30
 0
 40
0.04417
 50
286.75302
 51
-35.67767
  0
ARC
  8
Engraving
 62
   2
 39
0.008
  6
CONTINUOUS
 10
14.89409
 20
2.84122
 30
 0
 40
0.09339
 50
257.68325
 51
-73.59243
  0
ARC
  8
Engraving
 62
   2
 39
0.008
  6
CONTINUOUS
 10
14.88248
 20
2.78835
 30
 0
 40
0.03925
 50
216.74312
 51
-102.21357
  0
ARC
  8
Engraving
 62
   2
 39
0.008
  6
CONTINUOUS
 10
15.18996
 20
2.85870
 30
 0
 40
0.04343
 50
450.38010
 51
157.00004
  0
ARC
  8
Engraving
 62
   2
 39
0.008
  6
CONTINUOUS
 10
15.18969
 20
2.86327
 30
 0
 40
0.03886
 50
270.00000
 51
90.00000
  0
ARC
  8
Engraving
 62
   2
 39
0.008
  6
CONTINUOUS
 10
15.18969
 20
2.78555
 30
 0
 40
0.03886
 50
270.00000
 51
90.00000
  0
ARC
  8
Engraving
 62
   2
 39
0.008
  6
CONTINUOUS
 10
15.18992
 20
2.79268
 30
 0
 40
0.04598
 50
209.77286
 51
-90.28574
  0
LINE
  8
Engraving
 62
   2
 39
0.008
  6
CONTINUOUS
 10
15.26906
 20
2.74008
 30
 0
 11
15.33189
 21
2.90709
  0
ARC
  8
Engraving
 62
   2
 39
0.008
  6
CONTINUOUS
 10
15.43602
 20
2.86047
 30
 0
 40
0.03925
 50
36.74312
 51
77.78643
  0
ARC
  8
Engraving
 62
   2
 39
0.008
  6
CONTINUOUS
 10
15.42441
 20
2.80760
 30
 0
 40
0.09339
 50
77.68325
 51
106.40757
  0
ARC
  8
Engraving
 62
   2
 39
0.008
  6
CONTINUOUS
 10
15.41075
 20
2.85488
 30
 0
 40
0.04417
 50
106.75302
 51
144.32233
  0
ARC
  8
Engraving
 62
   2
 39
0.008
  6
CONTINUOUS
 10
15.39945
 20
2.86299
 30
 0
 40
0.03024
 50
144.28546
 51
251.35232
  0
LINE
  8
Engraving
 62
   2
 39
0.008
  6
CONTINUOUS
 10
15.38976
 20
2.83433
 30
 0
 11
15.44764
 21
2.81449
  0
ARC
  8
Engraving
 62
   2
 39
0.008
  6
CONTINUOUS
 10
15.43795
 20
2.78583
 30
 0
 40
0.03024
 50
324.28546
 51
71.35232
  0
ARC
  8
Engraving
 62
   2
 39
0.008
  6
CONTINUOUS
 10
15.42665
 20
2.79394
 30
 0
 40
0.04417
 50
286.75302
 51
-35.67767
  0
ARC
  8
Engraving
 62
   2
 39
0.008
  6
CONTINUOUS
 10
15.41299
 20
2.84122
 30
 0
 40
0.09339
 50
257.68325
 51
-73.59243
  0
ARC
  8
Engraving
 62
   2
 39
0.008
  6
CONTINUOUS
 10
15.40138
 20
2.78835
 30
 0
 40
0.03925
 50
216.74312
 51
-102.21357
  0
LINE
  8
Engraving
 62
   2
 39
0.008
  6
CONTINUOUS
 10
15.50717
 20
2.89882
 30
 0
 11
15.60638
 21
2.89882
  0
LINE
  8
Engraving
 62
   2
 39
0.008
  6
CONTINUOUS
 10
15.60638
 20
2.89882
 30
 0
 11
15.55677
 21
2.89882
  0
LINE
  8
Engraving
 62
   2
 39
0.008
  6
CONTINUOUS
 10
15.55677
 20
2.89882
 30
 0
 11
15.55677
 21
2.75000
  0
LINE
  8
Engraving
 62
   2
 39
0.008
  6
CONTINUOUS
 10
15.66260
 20
2.79134
 30
 0
 11
15.74528
 21
2.79134
  0
LINE
  8
Engraving
 62
   2
 39
0.008
  6
CONTINUOUS
 10
15.64606
 20
2.75000
 30
 0
 11
15.70394
 21
2.89882
  0
LINE
  8
Engraving
 62
   2
 39
0.008
  6
CONTINUOUS
 10
15.70394
 20
2.89882
 30
 0
 11
15.76181
 21
2.75000
  0
LINE
  8
Engraving
 62
   2
 39
0.008
  6
CONTINUOUS
 10
15.80150
 20
2.89882
 30
 0
 11
15.90071
 21
2.89882
  0
LINE
  8
Engraving
 62
   2
 39
0.008
  6
CONTINUOUS
 10
15.90071
 20
2.89882
 30
 0
 11
15.85110
 21
2.89882
  0
LINE
  8
Engraving
 62
   2
 39
0.008
  6
CONTINUOUS
 10
15.85110
 20
2.89882
 30
 0
 11
15.85110
 21
2.75000
  0
LINE
  8
Engraving
 62
   2
 39
0.008
  6
CONTINUOUS
 10
16.27461
 20
2.89882
 30
 0
 11
16.22500
 21
2.77480
  0
LINE
  8
Engraving
 62
   2
 39
0.008
  6
CONTINUOUS
 10
16.22500
 20
2.77480
 30
 0
 11
16.30768
 21
2.77480
  0
LINE
  8
Engraving
 62
   2
 39
0.008
  6
CONTINUOUS
 10
16.30768
 20
2.77480
 30
 0
 11
16.29114
 21
2.77480
  0
LINE
  8
Engraving
 62
   2
 39
0.008
  6
CONTINUOUS
 10
16.29114
 20
2.77480
 30
 0
 11
16.29114
 21
2.79961
  0
LINE
  8
Engraving
 62
   2
 39
0.008
  6
CONTINUOUS
 10
16.29114
 20
2.79961
 30
 0
 11
16.29114
 21
2.75000
  0
LINE
  8
Engraving
 62
   2
 39
0.008
  6
CONTINUOUS
 10
16.34736
 20
2.74008
 30
 0
 11
16.41020
 21
2.90709
  0
ARC
  8
Engraving
 62
   2
 39
0.008
  6
CONTINUOUS
 10
16.51433
 20
2.86047
 30
 0
 40
0.03925
 50
36.74312
 51
77.78643
  0
ARC
  8
Engraving
 62
   2
 39
0.008
  6
CONTINUOUS
 10
16.50272
 20
2.80760
 30
 0
 40
0.09339
 50
77.68325
 51
106.40757
  0
ARC
  8
Engraving
 62
   2
 39
0.008
  6
CONTINUOUS
 10
16.48906
 20
2.85488
 30
 0
 40
0.04417
 50
106.75302
 51
144.32233
  0
ARC
  8
Engraving
 62
   2
 39
0.008
  6
CONTINUOUS
 10
16.47776
 20
2.86299
 30
 0
 40
0.03024
 50
144.28546
 51
251.35232
  0
LINE
  8
Engraving
 62
   2
 39
0.008
  6
CONTINUOUS
 10
16.46807
 20
2.83433
 30
 0
 11
16.52594
 21
2.81449
  0
ARC
  8
Engraving
 62
   2
 39
0.008
  6
CONTINUOUS
 10
16.51626
 20
2.78583
 30
 0
 40
0.03024
 50
324.28546
 51
71.35232
  0
ARC
  8
Engraving
 62
   2
 39
0.008
  6
CONTINUOUS
 10
16.50496
 20
2.79394
 30
 0
 40
0.04417
 50
286.75302
 51
-35.67767
  0
ARC
  8
Engraving
 62
   2
 39
0.008
  6
CONTINUOUS
 10
16.49130
 20
2.84122
 30
 0
 40
0.09339
 50
257.68325
 51
-73.59243
  0
ARC
  8
Engraving
 62
   2
 39
0.008
  6
CONTINUOUS
 10
16.47969
 20
2.78835
 30
 0
 40
0.03925
 50
216.74312
 51
-102.21357
  0
LINE
  8
Engraving
 62
   2
 39
0.008
  6
CONTINUOUS
 10
16.58547
 20
2.75000
 30
 0
 11
16.58547
 21
2.89882
  0
LINE
  8
Engraving
 62
   2
 39
0.008
  6
CONTINUOUS
 10
16.58547
 20
2.89882
 30
 0
 11
16.64004
 21
2.89882
  0
ARC
  8
Engraving
 62
   2
 39
0.008
  6
CONTINUOUS
 10
16.64004
 20
2.86161
 30
 0
 40
0.03720
 50
270.00000
 51
90.00000
  0
LINE
  8
Engraving
 62
   2
 39
0.008
  6
CONTINUOUS
 10
16.64004
 20
2.82441
 30
 0
 11
16.58547
 21
2.82441
  0
LINE
  8
Engraving
 62
   2
 39
0.008
  6
CONTINUOUS
 10
16.58547
 20
2.82441
 30
 0
 11
16.64335
 21
2.82441
  0
LINE
  8
Engraving
 62
   2
 39
0.008
  6
CONTINUOUS
 10
16.64335
 20
2.82441
 30
 0
 11
16.67642
 21
2.75000
  0
LINE
  8
Engraving
 62
   2
 39
0.008
  6
CONTINUOUS
 10
14.32606
 20
3.79882
 30
 0
 11
14.25165
 21
3.79882
  0
LINE
  8
Engraving
 62
   2
 39
0.008
  6
CONTINUOUS
 10
14.25165
 20
3.79882
 30
 0
 11
14.25165
 21
3.72937
  0
ARC
  8
Engraving
 62
   2
 39
0.008
  6
CONTINUOUS
 10
14.28626
 20
3.68453
 30
 0
 40
0.05665
 50
444.86267
 51
127.65774
  0
ARC
  8
Engraving
 62
   2
 39
0.008
  6
CONTINUOUS
 10
14.28685
 20
3.69331
 30
 0
 40
0.04783
 50
315.71541
 51
84.62590
  0
ARC
  8
Engraving
 62
   2
 39
0.008
  6
CONTINUOUS
 10
14.28921
 20
3.69118
 30
 0
 40
0.04465
 50
208.54169
 51
-44.42863
  0
LINE
  8
Engraving
 62
   2
 39
0.008
  6
CONTINUOUS
 10
14.37236
 20
3.64008
 30
 0
 11
14.43520
 21
3.80709
  0
ARC
  8
Engraving
 62
   2
 39
0.008
  6
CONTINUOUS
 10
14.53933
 20
3.76047
 30
 0
 40
0.03925
 50
36.74312
 51
77.78643
  0
ARC
  8
Engraving
 62
   2
 39
0.008
  6
CONTINUOUS
 10
14.52772
 20
3.70760
 30
 0
 40
0.09339
 50
77.68325
 51
106.40757
  0
ARC
  8
Engraving
 62
   2
 39
0.008
  6
CONTINUOUS
 10
14.51406
 20
3.75488
 30
 0
 40
0.04417
 50
106.75302
 51
144.32233
  0
ARC
  8
Engraving
 62
   2
 39
0.008
  6
CONTINUOUS
 10
14.50276
 20
3.76299
 30
 0
 40
0.03024
 50
144.28546
 51
251.35232
  0
LINE
  8
Engraving
 62
   2
 39
0.008
  6
CONTINUOUS
 10
14.49307
 20
3.73433
 30
 0
 11
14.55094
 21
3.71449
  0
ARC
  8
Engraving
 62
   2
 39
0.008
  6
CONTINUOUS
 10
14.54126
 20
3.68583
 30
 0
 40
0.03024
 50
324.28546
 51
71.35232
  0
ARC
  8
Engraving
 62
   2
 39
0.008
  6
CONTINUOUS
 10
14.52996
 20
3.69394
 30
 0
 40
0.04417
 50
286.75302
 51
-35.67767
  0
ARC
  8
Engraving
 62
   2
 39
0.008
  6
CONTINUOUS
 10
14.51630
 20
3.74122
 30
 0
 40
0.09339
 50
257.68325
 51
-73.59243
  0
ARC
  8
Engraving
 62
   2
 39
0.008
  6
CONTINUOUS
 10
14.50469
 20
3.68835
 30
 0
 40
0.03925
 50
216.74312
 51
-102.21357
  0
LINE
  8
Engraving
 62
   2
 39
0.008
  6
CONTINUOUS
 10
14.61047
 20
3.79882
 30
 0
 11
14.70969
 21
3.79882
  0
LINE
  8
Engraving
 62
   2
 39
0.008
  6
CONTINUOUS
 10
14.70969
 20
3.79882
 30
 0
 11
14.66008
 21
3.79882
  0
LINE
  8
Engraving
 62
   2
 39
0.008
  6
CONTINUOUS
 10
14.66008
 20
3.79882
 30
 0
 11
14.66008
 21
3.65000
  0
LINE
  8
Engraving
 62
   2
 39
0.008
  6
CONTINUOUS
 10
14.76591
 20
3.69134
 30
 0
 11
14.84858
 21
3.69134
  0
LINE
  8
Engraving
 62
   2
 39
0.008
  6
CONTINUOUS
 10
14.74937
 20
3.65000
 30
 0
 11
14.80724
 21
3.79882
  0
LINE
  8
Engraving
 62
   2
 39
0.008
  6
CONTINUOUS
 10
14.80724
 20
3.79882
 30
 0
 11
14.86512
 21
3.65000
  0
LINE
  8
Engraving
 62
   2
 39
0.008
  6
CONTINUOUS
 10
14.90480
 20
3.79882
 30
 0
 11
15.00402
 21
3.79882
  0
LINE
  8
Engraving
 62
   2
 39
0.008
  6
CONTINUOUS
 10
15.00402
 20
3.79882
 30
 0
 11
14.95441
 21
3.79882
  0
LINE
  8
Engraving
 62
   2
 39
0.008
  6
CONTINUOUS
 10
14.95441
 20
3.79882
 30
 0
 11
14.95441
 21
3.65000
  0
LINE
  8
Engraving
 62
   2
 39
0.008
  6
CONTINUOUS
 10
15.04370
 20
3.72441
 30
 0
 11
15.12638
 21
3.72441
  0
LINE
  8
Engraving
 62
   2
 39
0.008
  6
CONTINUOUS
 10
15.14291
 20
3.79882
 30
 0
 11
15.04370
 21
3.79882
  0
LINE
  8
Engraving
 62
   2
 39
0.008
  6
CONTINUOUS
 10
15.04370
 20
3.79882
 30
 0
 11
15.04370
 21
3.65000
  0
LINE
  8
Engraving
 62
   2
 39
0.008
  6
CONTINUOUS
 10
15.04370
 20
3.65000
 30
 0
 11
15.14291
 21
3.65000
  0
ARC
  8
Engraving
 62
   2
 39
0.008
  6
CONTINUOUS
 10
15.34299
 20
3.69795
 30
 0
 40
0.04299
 50
360.00000
 51
180.00000
  0
LINE
  8
Engraving
 62
   2
 39
0.008
  6
CONTINUOUS
 10
15.38598
 20
3.69795
 30
 0
 11
15.38598
 21
3.68969
  0
ARC
  8
Engraving
 62
   2
 39
0.008
  6
CONTINUOUS
 10
15.34299
 20
3.68969
 30
 0
 40
0.04299
 50
180.00000
 51
-0.00000
  0
LINE
  8
Engraving
 62
   2
 39
0.008
  6
CONTINUOUS
 10
15.30000
 20
3.68969
 30
 0
 11
15.30000
 21
3.75417
  0
ARC
  8
Engraving
 62
   2
 39
0.008
  6
CONTINUOUS
 10
15.34579
 20
3.75602
 30
 0
 40
0.04583
 50
45.83787
 51
-177.68687
  0
LINE
  8
Engraving
 62
   2
 39
0.008
  6
CONTINUOUS
 10
15.42567
 20
3.64008
 30
 0
 11
15.48850
 21
3.80709
  0
LINE
  8
Engraving
 62
   2
 39
0.008
  6
CONTINUOUS
 10
15.52819
 20
3.65000
 30
 0
 11
15.52819
 21
3.79882
  0
LINE
  8
Engraving
 62
   2
 39
0.008
  6
CONTINUOUS
 10
15.52819
 20
3.79882
 30
 0
 11
15.58606
 21
3.69134
  0
LINE
  8
Engraving
 62
   2
 39
0.008
  6
CONTINUOUS
 10
15.58606
 20
3.69134
 30
 0
 11
15.64394
 21
3.79882
  0
LINE
  8
Engraving
 62
   2
 39
0.008
  6
CONTINUOUS
 10
15.64394
 20
3.79882
 30
 0
 11
15.64394
 21
3.65000
  0
LINE
  8
Engraving
 62
   2
 39
0.008
  6
CONTINUOUS
 10
15.68362
 20
3.79882
 30
 0
 11
15.73488
 21
3.79882
  0
ARC
  8
Engraving
 62
   2
 39
0.008
  6
CONTINUOUS
 10
15.73295
 20
3.74898
 30
 0
 40
0.04988
 50
360.27371
 51
87.78424
  0
LINE
  8
Engraving
 62
   2
 39
0.008
  6
CONTINUOUS
 10
15.78283
 20
3.74921
 30
 0
 11
15.78283
 21
3.69961
  0
ARC
  8
Engraving
 62
   2
 39
0.008
  6
CONTINUOUS
 10
15.73496
 20
3.69791
 30
 0
 40
0.04791
 50
269.91714
 51
2.02490
  0
LINE
  8
Engraving
 62
   2
 39
0.008
  6
CONTINUOUS
 10
15.73488
 20
3.65000
 30
 0
 11
15.68362
 21
3.65000
  0
LINE
  8
Engraving
 62
   2
 39
0.008
  6
CONTINUOUS
 10
15.68362
 20
3.65000
 30
 0
 11
15.68362
 21
3.79882
  0
LINE
  8
Engraving
 62
   2
 39
0.008
  6
CONTINUOUS
 10
16.35000
 20
3.77402
 30
 0
 11
16.35000
 21
3.79882
  0
LINE
  8
Engraving
 62
   2
 39
0.008
  6
CONTINUOUS
 10
16.35000
 20
3.79882
 30
 0
 11
16.43268
 21
3.79882
  0
LINE
  8
Engraving
 62
   2
 39
0.008
  6
CONTINUOUS
 10
16.43268
 20
3.79882
 30
 0
 11
16.36654
 21
3.65000
  0
LINE
  8
Engraving
 62
   2
 39
0.008
  6
CONTINUOUS
 10
7.30256
 20
4.79390
 30
 0
 11
7.44035
 21
4.79390
  0
LINE
  8
Engraving
 62
   2
 39
0.008
  6
CONTINUOUS
 10
7.27500
 20
4.72500
 30
 0
 11
7.37146
 21
4.97303
  0
LINE
  8
Engraving
 62
   2
 39
0.008
  6
CONTINUOUS
 10
7.37146
 20
4.97303
 30
 0
 11
7.46791
 21
4.72500
  0
LINE
  8
Engraving
 62
   2
 39
0.008
  6
CONTINUOUS
 10
7.53406
 20
4.97303
 30
 0
 11
7.61949
 21
4.97303
  0
ARC
  8
Engraving
 62
   2
 39
0.008
  6
CONTINUOUS
 10
7.61626
 20
4.88996
 30
 0
 40
0.08315
 50
360.28237
 51
87.77559
  0
LINE
  8
Engraving
 62
   2
 39
0.008
  6
CONTINUOUS
 10
7.69941
 20
4.89035
 30
 0
 11
7.69941
 21
4.80768
  0
ARC
  8
Engraving
 62
   2
 39
0.008
  6
CONTINUOUS
 10
7.61961
 20
4.80484
 30
 0
 40
0.07984
 50
269.90737
 51
2.03467
  0
LINE
  8
Engraving
 62
   2
 39
0.008
  6
CONTINUOUS
 10
7.61949
 20
4.72500
 30
 0
 11
7.53406
 21
4.72500
  0
LINE
  8
Engraving
 62
   2
 39
0.008
  6
CONTINUOUS
 10
7.53406
 20
4.72500
 30
 0
 11
7.53406
 21
4.97303
  0
LINE
  8
Engraving
 62
   2
 39
0.008
  6
CONTINUOUS
 10
7.76555
 20
4.97303
 30
 0
 11
7.85098
 21
4.97303
  0
ARC
  8
Engraving
 62
   2
 39
0.008
  6
CONTINUOUS
 10
7.84776
 20
4.88996
 30
 0
 40
0.08315
 50
360.28237
 51
87.77559
  0
LINE
  8
Engraving
 62
   2
 39
0.008
  6
CONTINUOUS
 10
7.93091
 20
4.89035
 30
 0
 11
7.93091
 21
4.80768
  0
ARC
  8
Engraving
 62
   2
 39
0.008
  6
CONTINUOUS
 10
7.85110
 20
4.80484
 30
 0
 40
0.07984
 50
269.90737
 51
2.03467
  0
LINE
  8
Engraving
 62
   2
 39
0.008
  6
CONTINUOUS
 10
7.85098
 20
4.72500
 30
 0
 11
7.76555
 21
4.72500
  0
LINE
  8
Engraving
 62
   2
 39
0.008
  6
CONTINUOUS
 10
7.76555
 20
4.72500
 30
 0
 11
7.76555
 21
4.97303
  0
LINE
  8
Engraving
 62
   2
 39
0.008
  6
CONTINUOUS
 10
7.99705
 20
4.72500
 30
 0
 11
7.99705
 21
4.97303
  0
LINE
  8
Engraving
 62
   2
 39
0.008
  6
CONTINUOUS
 10
7.99705
 20
4.97303
 30
 0
 11
8.08799
 21
4.97303
  0
ARC
  8
Engraving
 62
   2
 39
0.008
  6
CONTINUOUS
 10
8.08799
 20
4.91102
 30
 0
 40
0.06201
 50
270.00000
 51
90.00000
  0
LINE
  8
Engraving
 62
   2
 39
0.008
  6
CONTINUOUS
 10
8.08799
 20
4.84902
 30
 0
 11
7.99705
 21
4.84902
  0
LINE
  8
Engraving
 62
   2
 39
0.008
  6
CONTINUOUS
 10
7.99705
 20
4.84902
 30
 0
 11
8.09350
 21
4.84902
  0
LINE
  8
Engraving
 62
   2
 39
0.008
  6
CONTINUOUS
 10
8.09350
 20
4.84902
 30
 0
 11
8.14862
 21
4.72500
  0
LINE
  8
Engraving
 62
   2
 39
0.008
  6
CONTINUOUS
 10
10.80000
 20
4.97303
 30
 0
 11
10.88543
 21
4.97303
  0
ARC
  8
Engraving
 62
   2
 39
0.008
  6
CONTINUOUS
 10
10.88220
 20
4.88996
 30
 0
 40
0.08315
 50
360.28237
 51
87.77559
  0
LINE
  8
Engraving
 62
   2
 39
0.008
  6
CONTINUOUS
 10
10.96535
 20
4.89035
 30
 0
 11
10.96535
 21
4.80768
  0
ARC
  8
Engraving
 62
   2
 39
0.008
  6
CONTINUOUS
 10
10.88555
 20
4.80484
 30
 0
 40
0.07984
 50
269.90737
 51
2.03467
  0
LINE
  8
Engraving
 62
   2
 39
0.008
  6
CONTINUOUS
 10
10.88543
 20
4.72500
 30
 0
 11
10.80000
 21
4.72500
  0
LINE
  8
Engraving
 62
   2
 39
0.008
  6
CONTINUOUS
 10
10.80000
 20
4.72500
 30
 0
 11
10.80000
 21
4.97303
  0
LINE
  8
Engraving
 62
   2
 39
0.008
  6
CONTINUOUS
 10
11.05906
 20
4.79390
 30
 0
 11
11.19685
 21
4.79390
  0
LINE
  8
Engraving
 62
   2
 39
0.008
  6
CONTINUOUS
 10
11.03150
 20
4.72500
 30
 0
 11
11.12795
 21
4.97303
  0
LINE
  8
Engraving
 62
   2
 39
0.008
  6
CONTINUOUS
 10
11.12795
 20
4.97303
 30
 0
 11
11.22441
 21
4.72500
  0
LINE
  8
Engraving
 62
   2
 39
0.008
  6
CONTINUOUS
 10
11.29055
 20
4.97303
 30
 0
 11
11.45591
 21
4.97303
  0
LINE
  8
Engraving
 62
   2
 39
0.008
  6
CONTINUOUS
 10
11.45591
 20
4.97303
 30
 0
 11
11.37323
 21
4.97303
  0
LINE
  8
Engraving
 62
   2
 39
0.008
  6
CONTINUOUS
 10
11.37323
 20
4.97303
 30
 0
 11
11.37323
 21
4.72500
  0
LINE
  8
Engraving
 62
   2
 39
0.008
  6
CONTINUOUS
 10
11.54961
 20
4.79390
 30
 0
 11
11.68740
 21
4.79390
  0
LINE
  8
Engraving
 62
   2
 39
0.008
  6
CONTINUOUS
 10
11.52205
 20
4.72500
 30
 0
 11
11.61850
 21
4.97303
  0
LINE
  8
Engraving
 62
   2
 39
0.008
  6
CONTINUOUS
 10
11.61850
 20
4.97303
 30
 0
 11
11.71496
 21
4.72500
  0
LINE
  8
Engraving
 62
   2
 39
0.008
  6
CONTINUOUS
 10
6.52500
 20
4.82441
 30
 0
 11
6.60768
 21
4.82441
  0
LINE
  8
Engraving
 62
   2
 39
0.008
  6
CONTINUOUS
 10
6.62421
 20
4.89882
 30
 0
 11
6.52500
 21
4.89882
  0
LINE
  8
Engraving
 62
   2
 39
0.008
  6
CONTINUOUS
 10
6.52500
 20
4.89882
 30
 0
 11
6.52500
 21
4.75000
  0
LINE
  8
Engraving
 62
   2
 39
0.008
  6
CONTINUOUS
 10
6.66390
 20
4.89882
 30
 0
 11
6.66390
 21
4.75000
  0
LINE
  8
Engraving
 62
   2
 39
0.008
  6
CONTINUOUS
 10
6.66390
 20
4.75000
 30
 0
 11
6.74657
 21
4.75000
  0
LINE
  8
Engraving
 62
   2
 39
0.008
  6
CONTINUOUS
 10
6.78626
 20
4.89882
 30
 0
 11
6.83752
 21
4.89882
  0
ARC
  8
Engraving
 62
   2
 39
0.008
  6
CONTINUOUS
 10
6.83559
 20
4.84898
 30
 0
 40
0.04988
 50
360.27371
 51
87.78424
  0
LINE
  8
Engraving
 62
   2
 39
0.008
  6
CONTINUOUS
 10
6.88547
 20
4.84921
 30
 0
 11
6.88547
 21
4.79961
  0
ARC
  8
Engraving
 62
   2
 39
0.008
  6
CONTINUOUS
 10
6.83760
 20
4.79791
 30
 0
 40
0.04791
 50
269.91714
 51
2.02490
  0
LINE
  8
Engraving
 62
   2
 39
0.008
  6
CONTINUOUS
 10
6.83752
 20
4.75000
 30
 0
 11
6.78626
 21
4.75000
  0
LINE
  8
Engraving
 62
   2
 39
0.008
  6
CONTINUOUS
 10
6.78626
 20
4.75000
 30
 0
 11
6.78626
 21
4.89882
  0
LINE
  8
Engraving
 62
   2
 39
0.008
  6
CONTINUOUS
 10
13.37500
 20
4.69882
 30
 0
 11
13.42626
 21
4.69882
  0
ARC
  8
Engraving
 62
   2
 39
0.008
  6
CONTINUOUS
 10
13.42433
 20
4.64898
 30
 0
 40
0.04988
 50
360.27371
 51
87.78424
  0
LINE
  8
Engraving
 62
   2
 39
0.008
  6
CONTINUOUS
 10
13.47421
 20
4.64921
 30
 0
 11
13.47421
 21
4.59961
  0
ARC
  8
Engraving
 62
   2
 39
0.008
  6
CONTINUOUS
 10
13.42634
 20
4.59791
 30
 0
 40
0.04791
 50
269.91714
 51
2.02490
  0
LINE
  8
Engraving
 62
   2
 39
0.008
  6
CONTINUOUS
 10
13.42626
 20
4.55000
 30
 0
 11
13.37500
 21
4.55000
  0
LINE
  8
Engraving
 62
   2
 39
0.008
  6
CONTINUOUS
 10
13.37500
 20
4.55000
 30
 0
 11
13.37500
 21
4.69882
  0
LINE
  8
Engraving
 62
   2
 39
0.008
  6
CONTINUOUS
 10
13.61972
 20
4.69882
 30
 0
 11
13.71894
 21
4.69882
  0
LINE
  8
Engraving
 62
   2
 39
0.008
  6
CONTINUOUS
 10
13.71894
 20
4.69882
 30
 0
 11
13.66933
 21
4.69882
  0
LINE
  8
Engraving
 62
   2
 39
0.008
  6
CONTINUOUS
 10
13.66933
 20
4.69882
 30
 0
 11
13.66933
 21
4.55000
  0
LINE
  8
Engraving
 62
   2
 39
0.008
  6
CONTINUOUS
 10
13.75862
 20
4.69882
 30
 0
 11
13.75862
 21
4.55000
  0
LINE
  8
Engraving
 62
   2
 39
0.008
  6
CONTINUOUS
 10
13.75862
 20
4.55000
 30
 0
 11
13.75862
 21
4.62441
  0
LINE
  8
Engraving
 62
   2
 39
0.008
  6
CONTINUOUS
 10
13.75862
 20
4.62441
 30
 0
 11
13.85783
 21
4.62441
  0
LINE
  8
Engraving
 62
   2
 39
0.008
  6
CONTINUOUS
 10
13.85783
 20
4.62441
 30
 0
 11
13.85783
 21
4.55000
  0
LINE
  8
Engraving
 62
   2
 39
0.008
  6
CONTINUOUS
 10
13.85783
 20
4.55000
 30
 0
 11
13.85783
 21
4.69882
  0
LINE
  8
Engraving
 62
   2
 39
0.008
  6
CONTINUOUS
 10
13.89752
 20
4.69882
 30
 0
 11
13.89752
 21
4.55000
  0
ARC
  8
Engraving
 62
   2
 39
0.008
  6
CONTINUOUS
 10
14.00165
 20
4.66047
 30
 0
 40
0.03925
 50
36.74312
 51
77.78643
  0
ARC
  8
Engraving
 62
   2
 39
0.008
  6
CONTINUOUS
 10
13.99004
 20
4.60760
 30
 0
 40
0.09339
 50
77.68325
 51
106.40757
  0
ARC
  8
Engraving
 62
   2
 39
0.008
  6
CONTINUOUS
 10
13.97638
 20
4.65488
 30
 0
 40
0.04417
 50
106.75302
 51
144.32233
  0
ARC
  8
Engraving
 62
   2
 39
0.008
  6
CONTINUOUS
 10
13.96508
 20
4.66299
 30
 0
 40
0.03024
 50
144.28546
 51
251.35232
  0
LINE
  8
Engraving
 62
   2
 39
0.008
  6
CONTINUOUS
 10
13.95539
 20
4.63433
 30
 0
 11
14.01327
 21
4.61449
  0
ARC
  8
Engraving
 62
   2
 39
0.008
  6
CONTINUOUS
 10
14.00358
 20
4.58583
 30
 0
 40
0.03024
 50
324.28546
 51
71.35232
  0
ARC
  8
Engraving
 62
   2
 39
0.008
  6
CONTINUOUS
 10
13.99228
 20
4.59394
 30
 0
 40
0.04417
 50
286.75302
 51
-35.67767
  0
ARC
  8
Engraving
 62
   2
 39
0.008
  6
CONTINUOUS
 10
13.97862
 20
4.64122
 30
 0
 40
0.09339
 50
257.68325
 51
-73.59243
  0
ARC
  8
Engraving
 62
   2
 39
0.008
  6
CONTINUOUS
 10
13.96701
 20
4.58835
 30
 0
 40
0.03925
 50
216.74312
 51
-102.21357
  0
LINE
  8
Engraving
 62
   2
 39
0.008
  6
CONTINUOUS
 10
13.35000
 20
3.79882
 30
 0
 11
13.40126
 21
3.79882
  0
ARC
  8
Engraving
 62
   2
 39
0.008
  6
CONTINUOUS
 10
13.39933
 20
3.74898
 30
 0
 40
0.04988
 50
360.27371
 51
87.78424
  0
LINE
  8
Engraving
 62
   2
 39
0.008
  6
CONTINUOUS
 10
13.44921
 20
3.74921
 30
 0
 11
13.44921
 21
3.69961
  0
ARC
  8
Engraving
 62
   2
 39
0.008
  6
CONTINUOUS
 10
13.40134
 20
3.69791
 30
 0
 40
0.04791
 50
269.91714
 51
2.02490
  0
LINE
  8
Engraving
 62
   2
 39
0.008
  6
CONTINUOUS
 10
13.40126
 20
3.65000
 30
 0
 11
13.35000
 21
3.65000
  0
LINE
  8
Engraving
 62
   2
 39
0.008
  6
CONTINUOUS
 10
13.35000
 20
3.65000
 30
 0
 11
13.35000
 21
3.79882
  0
LINE
  8
Engraving
 62
   2
 39
0.008
  6
CONTINUOUS
 10
13.59472
 20
3.65000
 30
 0
 11
13.59472
 21
3.79882
  0
LINE
  8
Engraving
 62
   2
 39
0.008
  6
CONTINUOUS
 10
13.59472
 20
3.79882
 30
 0
 11
13.69394
 21
3.65000
  0
LINE
  8
Engraving
 62
   2
 39
0.008
  6
CONTINUOUS
 10
13.69394
 20
3.65000
 30
 0
 11
13.69394
 21
3.79882
  0
LINE
  8
Engraving
 62
   2
 39
0.008
  6
CONTINUOUS
 10
13.73362
 20
3.72441
 30
 0
 11
13.81630
 21
3.72441
  0
LINE
  8
Engraving
 62
   2
 39
0.008
  6
CONTINUOUS
 10
13.83283
 20
3.79882
 30
 0
 11
13.73362
 21
3.79882
  0
LINE
  8
Engraving
 62
   2
 39
0.008
  6
CONTINUOUS
 10
13.73362
 20
3.79882
 30
 0
 11
13.73362
 21
3.65000
  0
LINE
  8
Engraving
 62
   2
 39
0.008
  6
CONTINUOUS
 10
13.73362
 20
3.65000
 30
 0
 11
13.83283
 21
3.65000
  0
LINE
  8
Engraving
 62
   2
 39
0.008
  6
CONTINUOUS
 10
13.87252
 20
3.79882
 30
 0
 11
13.97173
 21
3.65000
  0
LINE
  8
Engraving
 62
   2
 39
0.008
  6
CONTINUOUS
 10
13.87252
 20
3.65000
 30
 0
 11
13.97173
 21
3.79882
  0
LINE
  8
Engraving
 62
   2
 39
0.008
  6
CONTINUOUS
 10
14.01142
 20
3.79882
 30
 0
 11
14.11063
 21
3.79882
  0
LINE
  8
Engraving
 62
   2
 39
0.008
  6
CONTINUOUS
 10
14.11063
 20
3.79882
 30
 0
 11
14.06102
 21
3.79882
  0
LINE
  8
Engraving
 62
   2
 39
0.008
  6
CONTINUOUS
 10
14.06102
 20
3.79882
 30
 0
 11
14.06102
 21
3.65000
  0
LINE
  8
Engraving
 62
   2
 39
0.008
  6
CONTINUOUS
 10
13.37500
 20
2.82441
 30
 0
 11
13.45768
 21
2.82441
  0
LINE
  8
Engraving
 62
   2
 39
0.008
  6
CONTINUOUS
 10
13.47421
 20
2.89882
 30
 0
 11
13.37500
 21
2.89882
  0
LINE
  8
Engraving
 62
   2
 39
0.008
  6
CONTINUOUS
 10
13.37500
 20
2.89882
 30
 0
 11
13.37500
 21
2.75000
  0
LINE
  8
Engraving
 62
   2
 39
0.008
  6
CONTINUOUS
 10
13.37500
 20
2.75000
 30
 0
 11
13.47421
 21
2.75000
  0
LINE
  8
Engraving
 62
   2
 39
0.008
  6
CONTINUOUS
 10
13.61972
 20
2.89882
 30
 0
 11
13.71894
 21
2.89882
  0
LINE
  8
Engraving
 62
   2
 39
0.008
  6
CONTINUOUS
 10
13.71894
 20
2.89882
 30
 0
 11
13.66933
 21
2.89882
  0
LINE
  8
Engraving
 62
   2
 39
0.008
  6
CONTINUOUS
 10
13.66933
 20
2.89882
 30
 0
 11
13.66933
 21
2.75000
  0
LINE
  8
Engraving
 62
   2
 39
0.008
  6
CONTINUOUS
 10
13.75862
 20
2.89882
 30
 0
 11
13.75862
 21
2.75000
  0
LINE
  8
Engraving
 62
   2
 39
0.008
  6
CONTINUOUS
 10
13.75862
 20
2.75000
 30
 0
 11
13.75862
 21
2.82441
  0
LINE
  8
Engraving
 62
   2
 39
0.008
  6
CONTINUOUS
 10
13.75862
 20
2.82441
 30
 0
 11
13.85783
 21
2.82441
  0
LINE
  8
Engraving
 62
   2
 39
0.008
  6
CONTINUOUS
 10
13.85783
 20
2.82441
 30
 0
 11
13.85783
 21
2.75000
  0
LINE
  8
Engraving
 62
   2
 39
0.008
  6
CONTINUOUS
 10
13.85783
 20
2.75000
 30
 0
 11
13.85783
 21
2.89882
  0
LINE
  8
Engraving
 62
   2
 39
0.008
  6
CONTINUOUS
 10
13.89752
 20
2.89882
 30
 0
 11
13.89752
 21
2.75000
  0
ARC
  8
Engraving
 62
   2
 39
0.008
  6
CONTINUOUS
 10
14.00165
 20
2.86047
 30
 0
 40
0.03925
 50
36.74312
 51
77.78643
  0
ARC
  8
Engraving
 62
   2
 39
0.008
  6
CONTINUOUS
 10
13.99004
 20
2.80760
 30
 0
 40
0.09339
 50
77.68325
 51
106.40757
  0
ARC
  8
Engraving
 62
   2
 39
0.008
  6
CONTINUOUS
 10
13.97638
 20
2.85488
 30
 0
 40
0.04417
 50
106.75302
 51
144.32233
  0
ARC
  8
Engraving
 62
   2
 39
0.008
  6
CONTINUOUS
 10
13.96508
 20
2.86299
 30
 0
 40
0.03024
 50
144.28546
 51
251.35232
  0
LINE
  8
Engraving
 62
   2
 39
0.008
  6
CONTINUOUS
 10
13.95539
 20
2.83433
 30
 0
 11
14.01327
 21
2.81449
  0
ARC
  8
Engraving
 62
   2
 39
0.008
  6
CONTINUOUS
 10
14.00358
 20
2.78583
 30
 0
 40
0.03024
 50
324.28546
 51
71.35232
  0
ARC
  8
Engraving
 62
   2
 39
0.008
  6
CONTINUOUS
 10
13.99228
 20
2.79394
 30
 0
 40
0.04417
 50
286.75302
 51
-35.67767
  0
ARC
  8
Engraving
 62
   2
 39
0.008
  6
CONTINUOUS
 10
13.97862
 20
2.84122
 30
 0
 40
0.09339
 50
257.68325
 51
-73.59243
  0
ARC
  8
Engraving
 62
   2
 39
0.008
  6
CONTINUOUS
 10
13.96701
 20
2.78835
 30
 0
 40
0.03925
 50
216.74312
 51
-102.21357
  0
LINE
  8
Engraving
 62
   2
 39
0.008
  6
CONTINUOUS
 10
13.35000
 20
1.92441
 30
 0
 11
13.43268
 21
1.92441
  0
LINE
  8
Engraving
 62
   2
 39
0.008
  6
CONTINUOUS
 10
13.44921
 20
1.99882
 30
 0
 11
13.35000
 21
1.99882
  0
LINE
  8
Engraving
 62
   2
 39
0.008
  6
CONTINUOUS
 10
13.35000
 20
1.99882
 30
 0
 11
13.35000
 21
1.85000
  0
LINE
  8
Engraving
 62
   2
 39
0.008
  6
CONTINUOUS
 10
13.35000
 20
1.85000
 30
 0
 11
13.44921
 21
1.85000
  0
LINE
  8
Engraving
 62
   2
 39
0.008
  6
CONTINUOUS
 10
13.59472
 20
1.85000
 30
 0
 11
13.59472
 21
1.99882
  0
LINE
  8
Engraving
 62
   2
 39
0.008
  6
CONTINUOUS
 10
13.59472
 20
1.99882
 30
 0
 11
13.69394
 21
1.85000
  0
LINE
  8
Engraving
 62
   2
 39
0.008
  6
CONTINUOUS
 10
13.69394
 20
1.85000
 30
 0
 11
13.69394
 21
1.99882
  0
LINE
  8
Engraving
 62
   2
 39
0.008
  6
CONTINUOUS
 10
13.73362
 20
1.92441
 30
 0
 11
13.81630
 21
1.92441
  0
LINE
  8
Engraving
 62
   2
 39
0.008
  6
CONTINUOUS
 10
13.83283
 20
1.99882
 30
 0
 11
13.73362
 21
1.99882
  0
LINE
  8
Engraving
 62
   2
 39
0.008
  6
CONTINUOUS
 10
13.73362
 20
1.99882
 30
 0
 11
13.73362
 21
1.85000
  0
LINE
  8
Engraving
 62
   2
 39
0.008
  6
CONTINUOUS
 10
13.73362
 20
1.85000
 30
 0
 11
13.83283
 21
1.85000
  0
LINE
  8
Engraving
 62
   2
 39
0.008
  6
CONTINUOUS
 10
13.87252
 20
1.99882
 30
 0
 11
13.97173
 21
1.85000
  0
LINE
  8
Engraving
 62
   2
 39
0.008
  6
CONTINUOUS
 10
13.87252
 20
1.85000
 30
 0
 11
13.97173
 21
1.99882
  0
LINE
  8
Engraving
 62
   2
 39
0.008
  6
CONTINUOUS
 10
14.01142
 20
1.99882
 30
 0
 11
14.11063
 21
1.99882
  0
LINE
  8
Engraving
 62
   2
 39
0.008
  6
CONTINUOUS
 10
14.11063
 20
1.99882
 30
 0
 11
14.06102
 21
1.99882
  0
LINE
  8
Engraving
 62
   2
 39
0.008
  6
CONTINUOUS
 10
14.06102
 20
1.99882
 30
 0
 11
14.06102
 21
1.85000
  0
LINE
  8
Engraving
 62
   2
 39
0.008
  6
CONTINUOUS
 10
17.20000
 20
4.69882
 30
 0
 11
17.20000
 21
4.55000
  0
LINE
  8
Engraving
 62
   2
 39
0.008
  6
CONTINUOUS
 10
17.20000
 20
4.55000
 30
 0
 11
17.28268
 21
4.55000
  0
LINE
  8
Engraving
 62
   2
 39
0.008
  6
CONTINUOUS
 10
17.33890
 20
4.59134
 30
 0
 11
17.42157
 21
4.59134
  0
LINE
  8
Engraving
 62
   2
 39
0.008
  6
CONTINUOUS
 10
17.32236
 20
4.55000
 30
 0
 11
17.38024
 21
4.69882
  0
LINE
  8
Engraving
 62
   2
 39
0.008
  6
CONTINUOUS
 10
17.38024
 20
4.69882
 30
 0
 11
17.43811
 21
4.55000
  0
LINE
  8
Engraving
 62
   2
 39
0.008
  6
CONTINUOUS
 10
16.07500
 20
1.99882
 30
 0
 11
16.07500
 21
1.85000
  0
LINE
  8
Engraving
 62
   2
 39
0.008
  6
CONTINUOUS
 10
16.07500
 20
1.85000
 30
 0
 11
16.07500
 21
1.92441
  0
LINE
  8
Engraving
 62
   2
 39
0.008
  6
CONTINUOUS
 10
16.07500
 20
1.92441
 30
 0
 11
16.17421
 21
1.92441
  0
LINE
  8
Engraving
 62
   2
 39
0.008
  6
CONTINUOUS
 10
16.17421
 20
1.92441
 30
 0
 11
16.17421
 21
1.85000
  0
LINE
  8
Engraving
 62
   2
 39
0.008
  6
CONTINUOUS
 10
16.17421
 20
1.85000
 30
 0
 11
16.17421
 21
1.99882
  0
LINE
  8
Engraving
 62
   2
 39
0.008
  6
CONTINUOUS
 10
16.21390
 20
1.99882
 30
 0
 11
16.21390
 21
1.85000
  0
LINE
  8
Engraving
 62
   2
 39
0.008
  6
CONTINUOUS
 10
16.21390
 20
1.85000
 30
 0
 11
16.29657
 21
1.85000
  0
LINE
  8
Engraving
 62
   2
 39
0.008
  6
CONTINUOUS
 10
16.33626
 20
1.99882
 30
 0
 11
16.43547
 21
1.99882
  0
LINE
  8
Engraving
 62
   2
 39
0.008
  6
CONTINUOUS
 10
16.43547
 20
1.99882
 30
 0
 11
16.38587
 21
1.99882
  0
LINE
  8
Engraving
 62
   2
 39
0.008
  6
CONTINUOUS
 10
16.38587
 20
1.99882
 30
 0
 11
16.38587
 21
1.85000
  0
LINE
  8
Engraving
 62
   2
 39
0.008
  6
CONTINUOUS
 10
16.47516
 20
1.84008
 30
 0
 11
16.53799
 21
2.00709
  0
ARC
  8
Engraving
 62
   2
 39
0.008
  6
CONTINUOUS
 10
16.64213
 20
1.96047
 30
 0
 40
0.03925
 50
36.74312
 51
77.78643
  0
ARC
  8
Engraving
 62
   2
 39
0.008
  6
CONTINUOUS
 10
16.63051
 20
1.90760
 30
 0
 40
0.09339
 50
77.68325
 51
106.40757
  0
ARC
  8
Engraving
 62
   2
 39
0.008
  6
CONTINUOUS
 10
16.61685
 20
1.95488
 30
 0
 40
0.04417
 50
106.75302
 51
144.32233
  0
ARC
  8
Engraving
 62
   2
 39
0.008
  6
CONTINUOUS
 10
16.60555
 20
1.96299
 30
 0
 40
0.03024
 50
144.28546
 51
251.35232
  0
LINE
  8
Engraving
 62
   2
 39
0.008
  6
CONTINUOUS
 10
16.59587
 20
1.93433
 30
 0
 11
16.65374
 21
1.91449
  0
ARC
  8
Engraving
 62
   2
 39
0.008
  6
CONTINUOUS
 10
16.64406
 20
1.88583
 30
 0
 40
0.03024
 50
324.28546
 51
71.35232
  0
ARC
  8
Engraving
 62
   2
 39
0.008
  6
CONTINUOUS
 10
16.63276
 20
1.89394
 30
 0
 40
0.04417
 50
286.75302
 51
-35.67767
  0
ARC
  8
Engraving
 62
   2
 39
0.008
  6
CONTINUOUS
 10
16.61909
 20
1.94122
 30
 0
 40
0.09339
 50
257.68325
 51
-73.59243
  0
ARC
  8
Engraving
 62
   2
 39
0.008
  6
CONTINUOUS
 10
16.60748
 20
1.88835
 30
 0
 40
0.03925
 50
216.74312
 51
-102.21357
  0
ARC
  8
Engraving
 62
   2
 39
0.008
  6
CONTINUOUS
 10
16.77772
 20
1.96047
 30
 0
 40
0.03925
 50
36.74312
 51
77.78643
  0
ARC
  8
Engraving
 62
   2
 39
0.008
  6
CONTINUOUS
 10
16.76610
 20
1.90760
 30
 0
 40
0.09339
 50
77.68325
 51
106.40757
  0
ARC
  8
Engraving
 62
   2
 39
0.008
  6
CONTINUOUS
 10
16.75244
 20
1.95488
 30
 0
 40
0.04417
 50
106.75302
 51
144.32233
  0
ARC
  8
Engraving
 62
   2
 39
0.008
  6
CONTINUOUS
 10
16.74114
 20
1.96299
 30
 0
 40
0.03024
 50
144.28546
 51
251.35232
  0
LINE
  8
Engraving
 62
   2
 39
0.008
  6
CONTINUOUS
 10
16.73146
 20
1.93433
 30
 0
 11
16.78933
 21
1.91449
  0
ARC
  8
Engraving
 62
   2
 39
0.008
  6
CONTINUOUS
 10
16.77965
 20
1.88583
 30
 0
 40
0.03024
 50
324.28546
 51
71.35232
  0
ARC
  8
Engraving
 62
   2
 39
0.008
  6
CONTINUOUS
 10
16.76835
 20
1.89394
 30
 0
 40
0.04417
 50
286.75302
 51
-35.67767
  0
ARC
  8
Engraving
 62
   2
 39
0.008
  6
CONTINUOUS
 10
16.75469
 20
1.94122
 30
 0
 40
0.09339
 50
257.68325
 51
-73.59243
  0
ARC
  8
Engraving
 62
   2
 39
0.008
  6
CONTINUOUS
 10
16.74307
 20
1.88835
 30
 0
 40
0.03925
 50
216.74312
 51
-102.21357
  0
ARC
  8
Engraving
 62
   2
 39
0.008
  6
CONTINUOUS
 10
14.42957
 20
4.66161
 30
 0
 40
0.03720
 50
-90.00000
 51
90.00000
  0
LINE
  8
Engraving
 62
   2
 39
0.008
  6
CONTINUOUS
 10
14.42957
 20
4.69882
 30
 0
 11
14.37500
 21
4.69882
  0
LINE
  8
Engraving
 62
   2
 39
0.008
  6
CONTINUOUS
 10
14.37500
 20
4.69882
 30
 0
 11
14.37500
 21
4.55000
  0
LINE
  8
Engraving
 62
   2
 39
0.008
  6
CONTINUOUS
 10
14.37500
 20
4.55000
 30
 0
 11
14.43783
 21
4.55000
  0
ARC
  8
Engraving
 62
   2
 39
0.008
  6
CONTINUOUS
 10
14.43783
 20
4.58720
 30
 0
 40
0.03720
 50
-90.00000
 51
90.00000
  0
LINE
  8
Engraving
 62
   2
 39
0.008
  6
CONTINUOUS
 10
14.43783
 20
4.62441
 30
 0
 11
14.37500
 21
4.62441
  0
ARC
  8
Engraving
 62
   2
 39
0.008
  6
CONTINUOUS
 10
14.56681
 20
4.59961
 30
 0
 40
0.05291
 50
180.00000
 51
360.00000
  0
LINE
  8
Engraving
 62
   2
 39
0.008
  6
CONTINUOUS
 10
14.61972
 20
4.59961
 30
 0
 11
14.61972
 21
4.64921
  0
ARC
  8
Engraving
 62
   2
 39
0.008
  6
CONTINUOUS
 10
14.56681
 20
4.64921
 30
 0
 40
0.05291
 50
-0.00000
 51
180.00000
  0
LINE
  8
Engraving
 62
   2
 39
0.008
  6
CONTINUOUS
 10
14.51390
 20
4.64921
 30
 0
 11
14.51390
 21
4.59961
  0
ARC
  8
Engraving
 62
   2
 39
0.008
  6
CONTINUOUS
 10
14.71232
 20
4.59961
 30
 0
 40
0.05291
 50
180.00000
 51
360.00000
  0
LINE
  8
Engraving
 62
   2
 39
0.008
  6
CONTINUOUS
 10
14.76524
 20
4.59961
 30
 0
 11
14.76524
 21
4.64921
  0
ARC
  8
Engraving
 62
   2
 39
0.008
  6
CONTINUOUS
 10
14.71232
 20
4.64921
 30
 0
 40
0.05291
 50
-0.00000
 51
180.00000
  0
LINE
  8
Engraving
 62
   2
 39
0.008
  6
CONTINUOUS
 10
14.65941
 20
4.64921
 30
 0
 11
14.65941
 21
4.59961
  0
LINE
  8
Engraving
 62
   2
 39
0.008
  6
CONTINUOUS
 10
14.80492
 20
4.69882
 30
 0
 11
14.90413
 21
4.69882
  0
LINE
  8
Engraving
 62
   2
 39
0.008
  6
CONTINUOUS
 10
14.90413
 20
4.69882
 30
 0
 11
14.85453
 21
4.69882
  0
LINE
  8
Engraving
 62
   2
 39
0.008
  6
CONTINUOUS
 10
14.85453
 20
4.69882
 30
 0
 11
14.85453
 21
4.55000
  0
LINE
  8
Engraving
 62
   2
 39
0.008
  6
CONTINUOUS
 10
17.12500
 20
3.79882
 30
 0
 11
17.12500
 21
3.65000
  0
LINE
  8
Engraving
 62
   2
 39
0.008
  6
CONTINUOUS
 10
17.12500
 20
3.65000
 30
 0
 11
17.20768
 21
3.65000
  0
LINE
  8
Engraving
 62
   2
 39
0.008
  6
CONTINUOUS
 10
17.24736
 20
3.79882
 30
 0
 11
17.34657
 21
3.65000
  0
LINE
  8
Engraving
 62
   2
 39
0.008
  6
CONTINUOUS
 10
17.24736
 20
3.65000
 30
 0
 11
17.34657
 21
3.79882
  0
LINE
  8
Engraving
 62
   2
 39
0.008
  6
CONTINUOUS
 10
17.40280
 20
3.69134
 30
 0
 11
17.48547
 21
3.69134
  0
LINE
  8
Engraving
 62
   2
 39
0.008
  6
CONTINUOUS
 10
17.38626
 20
3.65000
 30
 0
 11
17.44413
 21
3.79882
  0
LINE
  8
Engraving
 62
   2
 39
0.008
  6
CONTINUOUS
 10
17.44413
 20
3.79882
 30
 0
 11
17.50201
 21
3.65000
  0
LINE
  8
Engraving
 62
   2
 39
0.008
  6
CONTINUOUS
 10
17.15000
 20
1.85000
 30
 0
 11
17.15000
 21
1.99882
  0
LINE
  8
Engraving
 62
   2
 39
0.008
  6
CONTINUOUS
 10
17.15000
 20
1.99882
 30
 0
 11
17.20457
 21
1.99882
  0
ARC
  8
Engraving
 62
   2
 39
0.008
  6
CONTINUOUS
 10
17.20457
 20
1.96161
 30
 0
 40
0.03720
 50
270.00000
 51
90.00000
  0
LINE
  8
Engraving
 62
   2
 39
0.008
  6
CONTINUOUS
 10
17.20457
 20
1.92441
 30
 0
 11
17.15000
 21
1.92441
  0
LINE
  8
Engraving
 62
   2
 39
0.008
  6
CONTINUOUS
 10
17.15000
 20
1.92441
 30
 0
 11
17.20787
 21
1.92441
  0
LINE
  8
Engraving
 62
   2
 39
0.008
  6
CONTINUOUS
 10
17.20787
 20
1.92441
 30
 0
 11
17.24094
 21
1.85000
  0
LINE
  8
Engraving
 62
   2
 39
0.008
  6
CONTINUOUS
 10
17.27898
 20
1.99882
 30
 0
 11
17.27898
 21
1.89630
  0
ARC
  8
Engraving
 62
   2
 39
0.008
  6
CONTINUOUS
 10
17.32858
 20
1.89630
 30
 0
 40
0.04961
 50
180.00000
 51
360.00000
  0
LINE
  8
Engraving
 62
   2
 39
0.008
  6
CONTINUOUS
 10
17.37819
 20
1.89630
 30
 0
 11
17.37819
 21
1.99882
  0
LINE
  8
Engraving
 62
   2
 39
0.008
  6
CONTINUOUS
 10
17.41787
 20
1.85000
 30
 0
 11
17.41787
 21
1.99882
  0
LINE
  8
Engraving
 62
   2
 39
0.008
  6
CONTINUOUS
 10
17.41787
 20
1.99882
 30
 0
 11
17.51709
 21
1.85000
  0
LINE
  8
Engraving
 62
   2
 39
0.008
  6
CONTINUOUS
 10
17.51709
 20
1.85000
 30
 0
 11
17.51709
 21
1.99882
  0
LINE
  8
Engraving
 62
   2
 39
0.008
  6
CONTINUOUS
 10
15.32500
 20
4.69882
 30
 0
 11
15.37626
 21
4.69882
  0
ARC
  8
Engraving
 62
   2
 39
0.008
  6
CONTINUOUS
 10
15.37433
 20
4.64898
 30
 0
 40
0.04988
 50
360.27371
 51
87.78424
  0
LINE
  8
Engraving
 62
   2
 39
0.008
  6
CONTINUOUS
 10
15.42421
 20
4.64921
 30
 0
 11
15.42421
 21
4.59961
  0
ARC
  8
Engraving
 62
   2
 39
0.008
  6
CONTINUOUS
 10
15.37634
 20
4.59791
 30
 0
 40
0.04791
 50
269.91714
 51
2.02490
  0
LINE
  8
Engraving
 62
   2
 39
0.008
  6
CONTINUOUS
 10
15.37626
 20
4.55000
 30
 0
 11
15.32500
 21
4.55000
  0
LINE
  8
Engraving
 62
   2
 39
0.008
  6
CONTINUOUS
 10
15.32500
 20
4.55000
 30
 0
 11
15.32500
 21
4.69882
  0
LINE
  8
Engraving
 62
   2
 39
0.008
  6
CONTINUOUS
 10
15.46390
 20
4.69882
 30
 0
 11
15.46390
 21
4.55000
  0
ARC
  8
Engraving
 62
   2
 39
0.008
  6
CONTINUOUS
 10
15.56803
 20
4.66047
 30
 0
 40
0.03925
 50
36.74312
 51
77.78643
  0
ARC
  8
Engraving
 62
   2
 39
0.008
  6
CONTINUOUS
 10
15.55642
 20
4.60760
 30
 0
 40
0.09339
 50
77.68325
 51
106.40757
  0
ARC
  8
Engraving
 62
   2
 39
0.008
  6
CONTINUOUS
 10
15.54276
 20
4.65488
 30
 0
 40
0.04417
 50
106.75302
 51
144.32233
  0
ARC
  8
Engraving
 62
   2
 39
0.008
  6
CONTINUOUS
 10
15.53146
 20
4.66299
 30
 0
 40
0.03024
 50
144.28546
 51
251.35232
  0
LINE
  8
Engraving
 62
   2
 39
0.008
  6
CONTINUOUS
 10
15.52177
 20
4.63433
 30
 0
 11
15.57965
 21
4.61449
  0
ARC
  8
Engraving
 62
   2
 39
0.008
  6
CONTINUOUS
 10
15.56996
 20
4.58583
 30
 0
 40
0.03024
 50
324.28546
 51
71.35232
  0
ARC
  8
Engraving
 62
   2
 39
0.008
  6
CONTINUOUS
 10
15.55866
 20
4.59394
 30
 0
 40
0.04417
 50
286.75302
 51
-35.67767
  0
ARC
  8
Engraving
 62
   2
 39
0.008
  6
CONTINUOUS
 10
15.54500
 20
4.64122
 30
 0
 40
0.09339
 50
257.68325
 51
-73.59243
  0
ARC
  8
Engraving
 62
   2
 39
0.008
  6
CONTINUOUS
 10
15.53339
 20
4.58835
 30
 0
 40
0.03925
 50
216.74312
 51
-102.21357
  0
LINE
  8
Engraving
 62
   2
 39
0.008
  6
CONTINUOUS
 10
15.63917
 20
4.55000
 30
 0
 11
15.63917
 21
4.69882
  0
LINE
  8
Engraving
 62
   2
 39
0.008
  6
CONTINUOUS
 10
15.63917
 20
4.69882
 30
 0
 11
15.69374
 21
4.69882
  0
ARC
  8
Engraving
 62
   2
 39
0.008
  6
CONTINUOUS
 10
15.69374
 20
4.66161
 30
 0
 40
0.03720
 50
270.00000
 51
90.00000
  0
LINE
  8
Engraving
 62
   2
 39
0.008
  6
CONTINUOUS
 10
15.69374
 20
4.62441
 30
 0
 11
15.63917
 21
4.62441
  0
LINE
  8
Engraving
 62
   2
 39
0.008
  6
CONTINUOUS
 10
16.27500
 20
4.69882
 30
 0
 11
16.27500
 21
4.55000
  0
LINE
  8
Engraving
 62
   2
 39
0.008
  6
CONTINUOUS
 10
16.27500
 20
4.55000
 30
 0
 11
16.35768
 21
4.55000
  0
ARC
  8
Engraving
 62
   2
 39
0.008
  6
CONTINUOUS
 10
16.46181
 20
4.66047
 30
 0
 40
0.03925
 50
36.74312
 51
77.78643
  0
ARC
  8
Engraving
 62
   2
 39
0.008
  6
CONTINUOUS
 10
16.45020
 20
4.60760
 30
 0
 40
0.09339
 50
77.68325
 51
106.40757
  0
ARC
  8
Engraving
 62
   2
 39
0.008
  6
CONTINUOUS
 10
16.43654
 20
4.65488
 30
 0
 40
0.04417
 50
106.75302
 51
144.32233
  0
ARC
  8
Engraving
 62
   2
 39
0.008
  6
CONTINUOUS
 10
16.42524
 20
4.66299
 30
 0
 40
0.03024
 50
144.28546
 51
251.35232
  0
LINE
  8
Engraving
 62
   2
 39
0.008
  6
CONTINUOUS
 10
16.41555
 20
4.63433
 30
 0
 11
16.47343
 21
4.61449
  0
ARC
  8
Engraving
 62
   2
 39
0.008
  6
CONTINUOUS
 10
16.46374
 20
4.58583
 30
 0
 40
0.03024
 50
324.28546
 51
71.35232
  0
ARC
  8
Engraving
 62
   2
 39
0.008
  6
CONTINUOUS
 10
16.45244
 20
4.59394
 30
 0
 40
0.04417
 50
286.75302
 51
-35.67767
  0
ARC
  8
Engraving
 62
   2
 39
0.008
  6
CONTINUOUS
 10
16.43878
 20
4.64122
 30
 0
 40
0.09339
 50
257.68325
 51
-73.59243
  0
ARC
  8
Engraving
 62
   2
 39
0.008
  6
CONTINUOUS
 10
16.42717
 20
4.58835
 30
 0
 40
0.03925
 50
216.74312
 51
-102.21357
  0
LINE
  8
Engraving
 62
   2
 39
0.008
  6
CONTINUOUS
 10
16.53295
 20
4.55000
 30
 0
 11
16.53295
 21
4.69882
  0
LINE
  8
Engraving
 62
   2
 39
0.008
  6
CONTINUOUS
 10
16.53295
 20
4.69882
 30
 0
 11
16.58752
 21
4.69882
  0
ARC
  8
Engraving
 62
   2
 39
0.008
  6
CONTINUOUS
 10
16.58752
 20
4.66161
 30
 0
 40
0.03720
 50
270.00000
 51
90.00000
  0
LINE
  8
Engraving
 62
   2
 39
0.008
  6
CONTINUOUS
 10
16.58752
 20
4.62441
 30
 0
 11
16.53295
 21
4.62441
  0
LINE
  8
Engraving
 62
   2
 39
0.008
  6
CONTINUOUS
 10
16.53295
 20
4.62441
 30
 0
 11
16.59083
 21
4.62441
  0
LINE
  8
Engraving
 62
   2
 39
0.008
  6
CONTINUOUS
 10
16.59083
 20
4.62441
 30
 0
 11
16.62390
 21
4.55000
  0
LINE
  8
Engraving
 62
   2
 39
0.008
  6
CONTINUOUS
 10
17.17500
 20
2.89882
 30
 0
 11
17.17500
 21
2.75000
  0
LINE
  8
Engraving
 62
   2
 39
0.008
  6
CONTINUOUS
 10
17.21469
 20
2.75000
 30
 0
 11
17.21469
 21
2.89882
  0
LINE
  8
Engraving
 62
   2
 39
0.008
  6
CONTINUOUS
 10
17.21469
 20
2.89882
 30
 0
 11
17.31390
 21
2.75000
  0
LINE
  8
Engraving
 62
   2
 39
0.008
  6
CONTINUOUS
 10
17.31390
 20
2.75000
 30
 0
 11
17.31390
 21
2.89882
  0
LINE
  8
Engraving
 62
   2
 39
0.008
  6
CONTINUOUS
 10
17.35358
 20
2.89882
 30
 0
 11
17.35358
 21
2.75000
  0
LINE
  8
Engraving
 62
   2
 39
0.008
  6
CONTINUOUS
 10
17.39327
 20
2.89882
 30
 0
 11
17.49248
 21
2.89882
  0
LINE
  8
Engraving
 62
   2
 39
0.008
  6
CONTINUOUS
 10
17.49248
 20
2.89882
 30
 0
 11
17.44287
 21
2.89882
  0
LINE
  8
Engraving
 62
   2
 39
0.008
  6
CONTINUOUS
 10
17.44287
 20
2.89882
 30
 0
 11
17.44287
 21
2.75000
  0
LINE
  8
Engraving
 62
   2
 39
0.016
  6
CONTINUOUS
 10
8.49559
 20
0.45000
 30
 0
 11
8.49559
 21
0.94961
  0
LINE
  8
Engraving
 62
   2
 39
0.016
  6
CONTINUOUS
 10
8.49559
 20
0.94961
 30
 0
 11
8.67878
 21
0.94961
  0
ARC
  8
Engraving
 62
   2
 39
0.016
  6
CONTINUOUS
 10
8.67657
 20
0.82472
 30
 0
 40
0.12492
 50
271.01717
 51
88.98283
  0
LINE
  8
Engraving
 62
   2
 39
0.016
  6
CONTINUOUS
 10
8.67878
 20
0.69980
 30
 0
 11
8.49559
 21
0.69980
  0
LINE
  8
Engraving
 62
   2
 39
0.016
  6
CONTINUOUS
 10
8.92858
 20
0.94961
 30
 0
 11
9.10067
 21
0.94961
  0
ARC
  8
Engraving
 62
   2
 39
0.016
  6
CONTINUOUS
 10
9.09421
 20
0.78228
 30
 0
 40
0.16744
 50
360.26726
 51
87.79069
  0
LINE
  8
Engraving
 62
   2
 39
0.016
  6
CONTINUOUS
 10
9.26165
 20
0.78307
 30
 0
 11
9.26165
 21
0.61654
  0
ARC
  8
Engraving
 62
   2
 39
0.016
  6
CONTINUOUS
 10
9.10094
 20
0.61083
 30
 0
 40
0.16083
 50
269.90779
 51
2.03426
  0
LINE
  8
Engraving
 62
   2
 39
0.016
  6
CONTINUOUS
 10
9.10067
 20
0.45000
 30
 0
 11
8.92858
 21
0.45000
  0
LINE
  8
Engraving
 62
   2
 39
0.016
  6
CONTINUOUS
 10
8.92858
 20
0.45000
 30
 0
 11
8.92858
 21
0.94961
  0
LINE
  8
Engraving
 62
   2
 39
0.016
  6
CONTINUOUS
 10
9.39488
 20
0.45000
 30
 0
 11
9.39488
 21
0.94961
  0
LINE
  8
Engraving
 62
   2
 39
0.016
  6
CONTINUOUS
 10
9.39488
 20
0.94961
 30
 0
 11
9.57807
 21
0.94961
  0
ARC
  8
Engraving
 62
   2
 39
0.016
  6
CONTINUOUS
 10
9.57587
 20
0.82472
 30
 0
 40
0.12492
 50
271.01717
 51
88.98283
  0
LINE
  8
Engraving
 62
   2
 39
0.016
  6
CONTINUOUS
 10
9.57807
 20
0.69980
 30
 0
 11
9.39488
 21
0.69980
  0
LINE
  8
Engraving
 62
   2
 39
0.016
  6
CONTINUOUS
 10
9.82787
 20
0.69980
 30
 0
 11
10.11654
 21
0.69980
  0
ARC
  8
Engraving
 62
   2
 39
0.016
  6
CONTINUOUS
 10
10.39409
 20
0.58323
 30
 0
 40
0.14433
 50
270.00000
 51
90.00000
  0
ARC
  8
Engraving
 62
   2
 39
0.016
  6
CONTINUOUS
 10
10.39409
 20
0.58323
 30
 0
 40
0.14433
 50
90.00000
 51
-90.00000
  0
ARC
  8
Engraving
 62
   2
 39
0.016
  6
CONTINUOUS
 10
10.39409
 20
0.84413
 30
 0
 40
0.11657
 50
-90.00000
 51
90.00000
  0
ARC
  8
Engraving
 62
   2
 39
0.016
  6
CONTINUOUS
 10
10.39409
 20
0.84413
 30
 0
 40
0.11657
 50
90.00000
 51
270.00000
  0
LINE
  8
Engraving
 62
   2
 39
0.016
  6
CONTINUOUS
 10
10.67165
 20
0.41669
 30
 0
 11
10.88260
 21
0.97736
  0
LINE
  8
Engraving
 62
   2
 39
0.016
  6
CONTINUOUS
 10
11.07134
 20
0.58878
 30
 0
 11
11.34890
 21
0.58878
  0
LINE
  8
Engraving
 62
   2
 39
0.016
  6
CONTINUOUS
 10
11.01583
 20
0.45000
 30
 0
 11
11.21012
 21
0.94961
  0
LINE
  8
Engraving
 62
   2
 39
0.016
  6
CONTINUOUS
 10
11.21012
 20
0.94961
 30
 0
 11
11.40441
 21
0.45000
  0
LINE
  8
Engraving
 62
   2
 39
0.016
  6
CONTINUOUS
 10
5.62862
 20
0.94961
 30
 0
 11
5.62862
 21
0.58878
  0
ARC
  8
Engraving
 62
   2
 39
0.016
  6
CONTINUOUS
 10
5.48980
 20
0.58465
 30
 0
 40
0.13890
 50
182.87120
 51
1.71002
  0
LINE
  8
Engraving
 62
   2
 39
0.016
  6
CONTINUOUS
 10
5.35106
 20
0.57768
 30
 0
 11
5.35106
 21
0.64429
  0
ARC
  8
Engraving
 62
   2
 39
0.016
  6
CONTINUOUS
 10
5.48984
 20
0.64429
 30
 0
 40
0.13878
 50
360.00000
 51
180.00000
  0
LINE
  8
Engraving
 62
   2
 39
0.016
  6
CONTINUOUS
 10
5.62862
 20
0.64429
 30
 0
 11
5.62862
 21
0.45000
  0
LINE
  8
Engraving
 62
   2
 39
0.016
  6
CONTINUOUS
 10
5.76185
 20
0.97736
 30
 0
 11
5.76185
 21
0.42224
  0
LINE
  8
Engraving
 62
   2
 39
0.016
  6
CONTINUOUS
 10
5.89508
 20
0.94961
 30
 0
 11
5.89508
 21
0.92185
  0
LINE
  8
Engraving
 62
   2
 39
0.016
  6
CONTINUOUS
 10
5.89508
 20
0.78307
 30
 0
 11
5.89508
 21
0.45000
  0
LINE
  8
Engraving
 62
   2
 39
0.016
  6
CONTINUOUS
 10
6.02831
 20
0.97736
 30
 0
 11
6.02831
 21
0.42224
  0
LINE
  8
Engraving
 62
   2
 39
0.016
  6
CONTINUOUS
 10
6.43909
 20
0.78307
 30
 0
 11
6.43909
 21
0.58878
  0
ARC
  8
Engraving
 62
   2
 39
0.016
  6
CONTINUOUS
 10
6.30028
 20
0.58465
 30
 0
 40
0.13890
 50
182.87120
 51
1.71002
  0
LINE
  8
Engraving
 62
   2
 39
0.016
  6
CONTINUOUS
 10
6.16154
 20
0.57768
 30
 0
 11
6.16154
 21
0.64429
  0
ARC
  8
Engraving
 62
   2
 39
0.016
  6
CONTINUOUS
 10
6.30031
 20
0.64429
 30
 0
 40
0.13878
 50
360.00000
 51
180.00000
  0
LINE
  8
Engraving
 62
   2
 39
0.016
  6
CONTINUOUS
 10
6.43909
 20
0.64429
 30
 0
 11
6.43909
 21
0.42224
  0
ARC
  8
Engraving
 62
   2
 39
0.016
  6
CONTINUOUS
 10
6.29913
 20
0.42150
 30
 0
 40
0.13996
 50
225.13014
 51
0.29868
  0
LINE
  8
Engraving
 62
   2
 39
0.016
  6
CONTINUOUS
 10
6.57232
 20
0.97736
 30
 0
 11
6.57232
 21
0.42224
  0
LINE
  8
Engraving
 62
   2
 39
0.016
  6
CONTINUOUS
 10
6.70555
 20
0.94961
 30
 0
 11
6.70555
 21
0.92185
  0
LINE
  8
Engraving
 62
   2
 39
0.016
  6
CONTINUOUS
 10
6.70555
 20
0.78307
 30
 0
 11
6.70555
 21
0.45000
  0
LINE
  8
Engraving
 62
   2
 39
0.016
  6
CONTINUOUS
 10
6.83878
 20
0.97736
 30
 0
 11
6.83878
 21
0.42224
  0
LINE
  8
Engraving
 62
   2
 39
0.016
  6
CONTINUOUS
 10
7.02197
 20
0.94961
 30
 0
 11
7.02197
 21
0.78307
  0
LINE
  8
Engraving
 62
   2
 39
0.016
  6
CONTINUOUS
 10
7.02197
 20
0.78307
 30
 0
 11
7.10524
 21
0.78307
  0
LINE
  8
Engraving
 62
   2
 39
0.016
  6
CONTINUOUS
 10
7.10524
 20
0.78307
 30
 0
 11
6.96646
 21
0.78307
  0
LINE
  8
Engraving
 62
   2
 39
0.016
  6
CONTINUOUS
 10
6.96646
 20
0.78307
 30
 0
 11
7.02197
 21
0.78307
  0
LINE
  8
Engraving
 62
   2
 39
0.016
  6
CONTINUOUS
 10
7.02197
 20
0.78307
 30
 0
 11
7.02197
 21
0.51661
  0
ARC
  8
Engraving
 62
   2
 39
0.016
  6
CONTINUOUS
 10
7.08969
 20
0.51661
 30
 0
 40
0.06772
 50
179.99445
 51
259.61669
  0
LINE
  8
Engraving
 62
   2
 39
0.016
  6
CONTINUOUS
 10
7.23846
 20
0.97736
 30
 0
 11
7.23846
 21
0.42224
  0
LINE
  8
Engraving
 62
   2
 39
0.016
  6
CONTINUOUS
 10
7.66035
 20
0.78307
 30
 0
 11
7.66035
 21
0.58878
  0
ARC
  8
Engraving
 62
   2
 39
0.016
  6
CONTINUOUS
 10
7.51602
 20
0.58878
 30
 0
 40
0.14433
 50
180.00000
 51
-0.00000
  0
LINE
  8
Engraving
 62
   2
 39
0.016
  6
CONTINUOUS
 10
7.37169
 20
0.58878
 30
 0
 11
7.37169
 21
0.64429
  0
ARC
  8
Engraving
 62
   2
 39
0.016
  6
CONTINUOUS
 10
7.51602
 20
0.64429
 30
 0
 40
0.14433
 50
360.00000
 51
180.00000
  0
LINE
  8
Engraving
 62
   2
 39
0.016
  6
CONTINUOUS
 10
7.66035
 20
0.64429
 30
 0
 11
7.66035
 21
0.51106
  0
ARC
  8
Engraving
 62
   2
 39
0.016
  6
CONTINUOUS
 10
7.74083
 20
0.51854
 30
 0
 40
0.08083
 50
-174.70219
 51
-99.87903
  0
LINE
  8
Engraving
 62
   2
 39
0.016
  6
CONTINUOUS
 10
7.86020
 20
0.97736
 30
 0
 11
7.86020
 21
0.42224
  0
LINE
  8
Engraving
 62
   2
 39
0.016
  6
CONTINUOUS
 10
7.99343
 20
0.94961
 30
 0
 11
7.99343
 21
0.51661
  0
ARC
  8
Engraving
 62
   2
 39
0.016
  6
CONTINUOUS
 10
8.06114
 20
0.51661
 30
 0
 40
0.06772
 50
179.99445
 51
259.61669
  0
LINE
  8
Engraving
 62
   255
 39
0.008
  6
CONTINUOUS
 10
11.72500
 20
1.77500
 30
 0
 11
11.72500
 21
1.92382
  0
LINE
  8
Engraving
 62
   255
 39
0.008
  6
CONTINUOUS
 10
11.72500
 20
1.92382
 30
 0
 11
11.78287
 21
1.81634
  0
LINE
  8
Engraving
 62
   255
 39
0.008
  6
CONTINUOUS
 10
11.78287
 20
1.81634
 30
 0
 11
11.84075
 21
1.92382
  0
LINE
  8
Engraving
 62
   255
 39
0.008
  6
CONTINUOUS
 10
11.84075
 20
1.92382
 30
 0
 11
11.84075
 21
1.77500
  0
ARC
  8
Engraving
 62
   255
 39
0.008
  6
CONTINUOUS
 10
11.93335
 20
1.82461
 30
 0
 40
0.05291
 50
180.00000
 51
360.00000
  0
LINE
  8
Engraving
 62
   255
 39
0.008
  6
CONTINUOUS
 10
11.98626
 20
1.82461
 30
 0
 11
11.98626
 21
1.87421
  0
ARC
  8
Engraving
 62
   255
 39
0.008
  6
CONTINUOUS
 10
11.93335
 20
1.87421
 30
 0
 40
0.05291
 50
-0.00000
 51
180.00000
  0
LINE
  8
Engraving
 62
   255
 39
0.008
  6
CONTINUOUS
 10
11.88043
 20
1.87421
 30
 0
 11
11.88043
 21
1.82461
  0
LINE
  8
Engraving
 62
   255
 39
0.008
  6
CONTINUOUS
 10
11.94988
 20
1.80807
 30
 0
 11
11.98626
 21
1.77169
  0
ARC
  8
Engraving
 62
   255
 39
0.008
  6
CONTINUOUS
 10
10.51681
 20
2.58547
 30
 0
 40
0.03925
 50
36.74312
 51
77.78643
  0
ARC
  8
Engraving
 62
   255
 39
0.008
  6
CONTINUOUS
 10
10.50520
 20
2.53260
 30
 0
 40
0.09339
 50
77.68325
 51
106.40757
  0
ARC
  8
Engraving
 62
   255
 39
0.008
  6
CONTINUOUS
 10
10.49154
 20
2.57988
 30
 0
 40
0.04417
 50
106.75302
 51
144.32233
  0
ARC
  8
Engraving
 62
   255
 39
0.008
  6
CONTINUOUS
 10
10.48024
 20
2.58799
 30
 0
 40
0.03024
 50
144.28546
 51
251.35232
  0
LINE
  8
Engraving
 62
   255
 39
0.008
  6
CONTINUOUS
 10
10.47055
 20
2.55933
 30
 0
 11
10.52843
 21
2.53949
  0
ARC
  8
Engraving
 62
   255
 39
0.008
  6
CONTINUOUS
 10
10.51874
 20
2.51083
 30
 0
 40
0.03024
 50
324.28546
 51
71.35232
  0
ARC
  8
Engraving
 62
   255
 39
0.008
  6
CONTINUOUS
 10
10.50744
 20
2.51894
 30
 0
 40
0.04417
 50
286.75302
 51
-35.67767
  0
ARC
  8
Engraving
 62
   255
 39
0.008
  6
CONTINUOUS
 10
10.49378
 20
2.56622
 30
 0
 40
0.09339
 50
257.68325
 51
-73.59243
  0
ARC
  8
Engraving
 62
   255
 39
0.008
  6
CONTINUOUS
 10
10.48217
 20
2.51335
 30
 0
 40
0.03925
 50
216.74312
 51
-102.21357
  0
LINE
  8
Engraving
 62
   255
 39
0.008
  6
CONTINUOUS
 10
10.58795
 20
2.62382
 30
 0
 11
10.68717
 21
2.62382
  0
LINE
  8
Engraving
 62
   255
 39
0.008
  6
CONTINUOUS
 10
10.68717
 20
2.62382
 30
 0
 11
10.63756
 21
2.62382
  0
LINE
  8
Engraving
 62
   255
 39
0.008
  6
CONTINUOUS
 10
10.63756
 20
2.62382
 30
 0
 11
10.63756
 21
2.47500
  0
LINE
  8
Engraving
 62
   255
 39
0.008
  6
CONTINUOUS
 10
10.74339
 20
2.51634
 30
 0
 11
10.82606
 21
2.51634
  0
LINE
  8
Engraving
 62
   255
 39
0.008
  6
CONTINUOUS
 10
10.72685
 20
2.47500
 30
 0
 11
10.78472
 21
2.62382
  0
LINE
  8
Engraving
 62
   255
 39
0.008
  6
CONTINUOUS
 10
10.78472
 20
2.62382
 30
 0
 11
10.84260
 21
2.47500
  0
LINE
  8
Engraving
 62
   255
 39
0.008
  6
CONTINUOUS
 10
10.88228
 20
2.62382
 30
 0
 11
10.98150
 21
2.62382
  0
LINE
  8
Engraving
 62
   255
 39
0.008
  6
CONTINUOUS
 10
10.98150
 20
2.62382
 30
 0
 11
10.93189
 21
2.62382
  0
LINE
  8
Engraving
 62
   255
 39
0.008
  6
CONTINUOUS
 10
10.93189
 20
2.62382
 30
 0
 11
10.93189
 21
2.47500
  0
LINE
  8
Engraving
 62
   255
 39
0.008
  6
CONTINUOUS
 10
11.02118
 20
2.62382
 30
 0
 11
11.02118
 21
2.52130
  0
ARC
  8
Engraving
 62
   255
 39
0.008
  6
CONTINUOUS
 10
11.07079
 20
2.52130
 30
 0
 40
0.04961
 50
180.00000
 51
360.00000
  0
LINE
  8
Engraving
 62
   255
 39
0.008
  6
CONTINUOUS
 10
11.12039
 20
2.52130
 30
 0
 11
11.12039
 21
2.62382
  0
ARC
  8
Engraving
 62
   255
 39
0.008
  6
CONTINUOUS
 10
11.22453
 20
2.58547
 30
 0
 40
0.03925
 50
36.74312
 51
77.78643
  0
ARC
  8
Engraving
 62
   255
 39
0.008
  6
CONTINUOUS
 10
11.21291
 20
2.53260
 30
 0
 40
0.09339
 50
77.68325
 51
106.40757
  0
ARC
  8
Engraving
 62
   255
 39
0.008
  6
CONTINUOUS
 10
11.19925
 20
2.57988
 30
 0
 40
0.04417
 50
106.75302
 51
144.32233
  0
ARC
  8
Engraving
 62
   255
 39
0.008
  6
CONTINUOUS
 10
11.18795
 20
2.58799
 30
 0
 40
0.03024
 50
144.28546
 51
251.35232
  0
LINE
  8
Engraving
 62
   255
 39
0.008
  6
CONTINUOUS
 10
11.17827
 20
2.55933
 30
 0
 11
11.23614
 21
2.53949
  0
ARC
  8
Engraving
 62
   255
 39
0.008
  6
CONTINUOUS
 10
11.22646
 20
2.51083
 30
 0
 40
0.03024
 50
324.28546
 51
71.35232
  0
ARC
  8
Engraving
 62
   255
 39
0.008
  6
CONTINUOUS
 10
11.21516
 20
2.51894
 30
 0
 40
0.04417
 50
286.75302
 51
-35.67767
  0
ARC
  8
Engraving
 62
   255
 39
0.008
  6
CONTINUOUS
 10
11.20150
 20
2.56622
 30
 0
 40
0.09339
 50
257.68325
 51
-73.59243
  0
ARC
  8
Engraving
 62
   255
 39
0.008
  6
CONTINUOUS
 10
11.18988
 20
2.51335
 30
 0
 40
0.03925
 50
216.74312
 51
-102.21357
  0
ARC
  8
Engraving
 62
   255
 39
0.008
  6
CONTINUOUS
 10
11.81681
 20
2.58547
 30
 0
 40
0.03925
 50
36.74312
 51
77.78643
  0
ARC
  8
Engraving
 62
   255
 39
0.008
  6
CONTINUOUS
 10
11.80520
 20
2.53260
 30
 0
 40
0.09339
 50
77.68325
 51
106.40757
  0
ARC
  8
Engraving
 62
   255
 39
0.008
  6
CONTINUOUS
 10
11.79154
 20
2.57988
 30
 0
 40
0.04417
 50
106.75302
 51
144.32233
  0
ARC
  8
Engraving
 62
   255
 39
0.008
  6
CONTINUOUS
 10
11.78024
 20
2.58799
 30
 0
 40
0.03024
 50
144.28546
 51
251.35232
  0
LINE
  8
Engraving
 62
   255
 39
0.008
  6
CONTINUOUS
 10
11.77055
 20
2.55933
 30
 0
 11
11.82843
 21
2.53949
  0
ARC
  8
Engraving
 62
   255
 39
0.008
  6
CONTINUOUS
 10
11.81874
 20
2.51083
 30
 0
 40
0.03024
 50
324.28546
 51
71.35232
  0
ARC
  8
Engraving
 62
   255
 39
0.008
  6
CONTINUOUS
 10
11.80744
 20
2.51894
 30
 0
 40
0.04417
 50
286.75302
 51
-35.67767
  0
ARC
  8
Engraving
 62
   255
 39
0.008
  6
CONTINUOUS
 10
11.79378
 20
2.56622
 30
 0
 40
0.09339
 50
257.68325
 51
-73.59243
  0
ARC
  8
Engraving
 62
   255
 39
0.008
  6
CONTINUOUS
 10
11.78217
 20
2.51335
 30
 0
 40
0.03925
 50
216.74312
 51
-102.21357
  0
LINE
  8
Engraving
 62
   255
 39
0.008
  6
CONTINUOUS
 10
11.88795
 20
2.47500
 30
 0
 11
11.88795
 21
2.62382
  0
LINE
  8
Engraving
 62
   255
 39
0.008
  6
CONTINUOUS
 10
11.88795
 20
2.62382
 30
 0
 11
11.94252
 21
2.62382
  0
ARC
  8
Engraving
 62
   255
 39
0.008
  6
CONTINUOUS
 10
11.94252
 20
2.58661
 30
 0
 40
0.03720
 50
270.00000
 51
90.00000
  0
LINE
  8
Engraving
 62
   255
 39
0.008
  6
CONTINUOUS
 10
11.94252
 20
2.54941
 30
 0
 11
11.88795
 21
2.54941
  0
LINE
  8
Engraving
 62
   255
 39
0.008
  6
CONTINUOUS
 10
11.88795
 20
2.54941
 30
 0
 11
11.94583
 21
2.54941
  0
LINE
  8
Engraving
 62
   255
 39
0.008
  6
CONTINUOUS
 10
11.94583
 20
2.54941
 30
 0
 11
11.97890
 21
2.47500
  0
LINE
  8
Engraving
 62
   255
 39
0.008
  6
CONTINUOUS
 10
11.75000
 20
3.20000
 30
 0
 11
11.75000
 21
3.34882
  0
LINE
  8
Engraving
 62
   255
 39
0.008
  6
CONTINUOUS
 10
11.75000
 20
3.34882
 30
 0
 11
11.80787
 21
3.24134
  0
LINE
  8
Engraving
 62
   255
 39
0.008
  6
CONTINUOUS
 10
11.80787
 20
3.24134
 30
 0
 11
11.86575
 21
3.34882
  0
LINE
  8
Engraving
 62
   255
 39
0.008
  6
CONTINUOUS
 10
11.86575
 20
3.34882
 30
 0
 11
11.86575
 21
3.20000
  0
LINE
  8
Engraving
 62
   255
 39
0.008
  6
CONTINUOUS
 10
11.90543
 20
3.34882
 30
 0
 11
11.95669
 21
3.34882
  0
ARC
  8
Engraving
 62
   255
 39
0.008
  6
CONTINUOUS
 10
11.95476
 20
3.29898
 30
 0
 40
0.04988
 50
360.27371
 51
87.78424
  0
LINE
  8
Engraving
 62
   255
 39
0.008
  6
CONTINUOUS
 10
12.00465
 20
3.29921
 30
 0
 11
12.00465
 21
3.24961
  0
ARC
  8
Engraving
 62
   255
 39
0.008
  6
CONTINUOUS
 10
11.95677
 20
3.24791
 30
 0
 40
0.04791
 50
269.91714
 51
2.02490
  0
LINE
  8
Engraving
 62
   255
 39
0.008
  6
CONTINUOUS
 10
11.95669
 20
3.20000
 30
 0
 11
11.90543
 21
3.20000
  0
LINE
  8
Engraving
 62
   255
 39
0.008
  6
CONTINUOUS
 10
11.90543
 20
3.20000
 30
 0
 11
11.90543
 21
3.34882
  0
LINE
  8
Engraving
 62
   255
 39
0.008
  6
CONTINUOUS
 10
10.56654
 20
1.81634
 30
 0
 11
10.64921
 21
1.81634
  0
LINE
  8
Engraving
 62
   255
 39
0.008
  6
CONTINUOUS
 10
10.55000
 20
1.77500
 30
 0
 11
10.60787
 21
1.92382
  0
LINE
  8
Engraving
 62
   255
 39
0.008
  6
CONTINUOUS
 10
10.60787
 20
1.92382
 30
 0
 11
10.66575
 21
1.77500
  0
ARC
  8
Engraving
 62
   255
 39
0.008
  6
CONTINUOUS
 10
10.75394
 20
1.87886
 30
 0
 40
0.04850
 50
28.90876
 51
181.60147
  0
LINE
  8
Engraving
 62
   255
 39
0.008
  6
CONTINUOUS
 10
10.70543
 20
1.87752
 30
 0
 11
10.70543
 21
1.82130
  0
ARC
  8
Engraving
 62
   255
 39
0.008
  6
CONTINUOUS
 10
10.75512
 20
1.82134
 30
 0
 40
0.04969
 50
-179.95469
 51
-21.52310
  0
ARC
  8
Engraving
 62
   255
 39
0.008
  6
CONTINUOUS
 10
9.32953
 20
2.58665
 30
 0
 40
0.03720
 50
-90.00000
 51
90.00000
  0
LINE
  8
Engraving
 62
   255
 39
0.008
  6
CONTINUOUS
 10
9.32953
 20
2.62386
 30
 0
 11
9.27496
 21
2.62386
  0
LINE
  8
Engraving
 62
   255
 39
0.008
  6
CONTINUOUS
 10
9.27496
 20
2.62386
 30
 0
 11
9.27496
 21
2.47504
  0
LINE
  8
Engraving
 62
   255
 39
0.008
  6
CONTINUOUS
 10
9.27496
 20
2.47504
 30
 0
 11
9.33780
 21
2.47504
  0
ARC
  8
Engraving
 62
   255
 39
0.008
  6
CONTINUOUS
 10
9.33780
 20
2.51224
 30
 0
 40
0.03720
 50
-90.00000
 51
90.00000
  0
LINE
  8
Engraving
 62
   255
 39
0.008
  6
CONTINUOUS
 10
9.33780
 20
2.54945
 30
 0
 11
9.27496
 21
2.54945
  0
LINE
  8
Engraving
 62
   255
 39
0.008
  6
CONTINUOUS
 10
9.41386
 20
2.62386
 30
 0
 11
9.41386
 21
2.52134
  0
ARC
  8
Engraving
 62
   255
 39
0.008
  6
CONTINUOUS
 10
9.46346
 20
2.52134
 30
 0
 40
0.04961
 50
180.00000
 51
360.00000
  0
LINE
  8
Engraving
 62
   255
 39
0.008
  6
CONTINUOUS
 10
9.51307
 20
2.52134
 30
 0
 11
9.51307
 21
2.62386
  0
ARC
  8
Engraving
 62
   255
 39
0.008
  6
CONTINUOUS
 10
9.61720
 20
2.58551
 30
 0
 40
0.03925
 50
36.74312
 51
77.78643
  0
ARC
  8
Engraving
 62
   255
 39
0.008
  6
CONTINUOUS
 10
9.60559
 20
2.53264
 30
 0
 40
0.09339
 50
77.68325
 51
106.40757
  0
ARC
  8
Engraving
 62
   255
 39
0.008
  6
CONTINUOUS
 10
9.59193
 20
2.57992
 30
 0
 40
0.04417
 50
106.75302
 51
144.32233
  0
ARC
  8
Engraving
 62
   255
 39
0.008
  6
CONTINUOUS
 10
9.58063
 20
2.58803
 30
 0
 40
0.03024
 50
144.28546
 51
251.35232
  0
LINE
  8
Engraving
 62
   255
 39
0.008
  6
CONTINUOUS
 10
9.57094
 20
2.55937
 30
 0
 11
9.62882
 21
2.53953
  0
ARC
  8
Engraving
 62
   255
 39
0.008
  6
CONTINUOUS
 10
9.61913
 20
2.51087
 30
 0
 40
0.03024
 50
324.28546
 51
71.35232
  0
ARC
  8
Engraving
 62
   255
 39
0.008
  6
CONTINUOUS
 10
9.60783
 20
2.51898
 30
 0
 40
0.04417
 50
286.75302
 51
-35.67767
  0
ARC
  8
Engraving
 62
   255
 39
0.008
  6
CONTINUOUS
 10
9.59417
 20
2.56626
 30
 0
 40
0.09339
 50
257.68325
 51
-73.59243
  0
ARC
  8
Engraving
 62
   255
 39
0.008
  6
CONTINUOUS
 10
9.58256
 20
2.51339
 30
 0
 40
0.03925
 50
216.74312
 51
-102.21357
  0
LINE
  8
Engraving
 62
   255
 39
0.008
  6
CONTINUOUS
 10
9.29996
 20
3.20004
 30
 0
 11
9.29996
 21
3.34886
  0
LINE
  8
Engraving
 62
   255
 39
0.008
  6
CONTINUOUS
 10
9.29996
 20
3.34886
 30
 0
 11
9.35453
 21
3.34886
  0
ARC
  8
Engraving
 62
   255
 39
0.008
  6
CONTINUOUS
 10
9.35453
 20
3.31165
 30
 0
 40
0.03720
 50
270.00000
 51
90.00000
  0
LINE
  8
Engraving
 62
   255
 39
0.008
  6
CONTINUOUS
 10
9.35453
 20
3.27445
 30
 0
 11
9.29996
 21
3.27445
  0
LINE
  8
Engraving
 62
   255
 39
0.008
  6
CONTINUOUS
 10
9.29996
 20
3.27445
 30
 0
 11
9.35783
 21
3.27445
  0
LINE
  8
Engraving
 62
   255
 39
0.008
  6
CONTINUOUS
 10
9.35783
 20
3.27445
 30
 0
 11
9.39091
 21
3.20004
  0
LINE
  8
Engraving
 62
   255
 39
0.008
  6
CONTINUOUS
 10
9.42894
 20
3.34886
 30
 0
 11
9.42894
 21
3.24634
  0
ARC
  8
Engraving
 62
   255
 39
0.008
  6
CONTINUOUS
 10
9.47854
 20
3.24634
 30
 0
 40
0.04961
 50
180.00000
 51
360.00000
  0
LINE
  8
Engraving
 62
   255
 39
0.008
  6
CONTINUOUS
 10
9.52815
 20
3.24634
 30
 0
 11
9.52815
 21
3.34886
  0
LINE
  8
Engraving
 62
   255
 39
0.008
  6
CONTINUOUS
 10
9.56783
 20
3.20004
 30
 0
 11
9.56783
 21
3.34886
  0
LINE
  8
Engraving
 62
   255
 39
0.008
  6
CONTINUOUS
 10
9.56783
 20
3.34886
 30
 0
 11
9.66705
 21
3.20004
  0
LINE
  8
Engraving
 62
   255
 39
0.008
  6
CONTINUOUS
 10
9.66705
 20
3.20004
 30
 0
 11
9.66705
 21
3.34886
  0
ARC
  8
Engraving
 62
   255
 39
0.008
  6
CONTINUOUS
 10
10.39181
 20
3.31047
 30
 0
 40
0.03925
 50
36.74312
 51
77.78643
  0
ARC
  8
Engraving
 62
   255
 39
0.008
  6
CONTINUOUS
 10
10.38020
 20
3.25760
 30
 0
 40
0.09339
 50
77.68325
 51
106.40757
  0
ARC
  8
Engraving
 62
   255
 39
0.008
  6
CONTINUOUS
 10
10.36654
 20
3.30488
 30
 0
 40
0.04417
 50
106.75302
 51
144.32233
  0
ARC
  8
Engraving
 62
   255
 39
0.008
  6
CONTINUOUS
 10
10.35524
 20
3.31299
 30
 0
 40
0.03024
 50
144.28546
 51
251.35232
  0
LINE
  8
Engraving
 62
   255
 39
0.008
  6
CONTINUOUS
 10
10.34555
 20
3.28433
 30
 0
 11
10.40343
 21
3.26449
  0
ARC
  8
Engraving
 62
   255
 39
0.008
  6
CONTINUOUS
 10
10.39374
 20
3.23583
 30
 0
 40
0.03024
 50
324.28546
 51
71.35232
  0
ARC
  8
Engraving
 62
   255
 39
0.008
  6
CONTINUOUS
 10
10.38244
 20
3.24394
 30
 0
 40
0.04417
 50
286.75302
 51
-35.67767
  0
ARC
  8
Engraving
 62
   255
 39
0.008
  6
CONTINUOUS
 10
10.36878
 20
3.29122
 30
 0
 40
0.09339
 50
257.68325
 51
-73.59243
  0
ARC
  8
Engraving
 62
   255
 39
0.008
  6
CONTINUOUS
 10
10.35717
 20
3.23835
 30
 0
 40
0.03925
 50
216.74312
 51
-102.21357
  0
LINE
  8
Engraving
 62
   255
 39
0.008
  6
CONTINUOUS
 10
10.46295
 20
3.34882
 30
 0
 11
10.56217
 21
3.34882
  0
LINE
  8
Engraving
 62
   255
 39
0.008
  6
CONTINUOUS
 10
10.56217
 20
3.34882
 30
 0
 11
10.51256
 21
3.34882
  0
LINE
  8
Engraving
 62
   255
 39
0.008
  6
CONTINUOUS
 10
10.51256
 20
3.34882
 30
 0
 11
10.51256
 21
3.20000
  0
LINE
  8
Engraving
 62
   255
 39
0.008
  6
CONTINUOUS
 10
10.61839
 20
3.24134
 30
 0
 11
10.70106
 21
3.24134
  0
LINE
  8
Engraving
 62
   255
 39
0.008
  6
CONTINUOUS
 10
10.60185
 20
3.20000
 30
 0
 11
10.65972
 21
3.34882
  0
LINE
  8
Engraving
 62
   255
 39
0.008
  6
CONTINUOUS
 10
10.65972
 20
3.34882
 30
 0
 11
10.71760
 21
3.20000
  0
LINE
  8
Engraving
 62
   255
 39
0.008
  6
CONTINUOUS
 10
10.75728
 20
3.34882
 30
 0
 11
10.85650
 21
3.34882
  0
LINE
  8
Engraving
 62
   255
 39
0.008
  6
CONTINUOUS
 10
10.85650
 20
3.34882
 30
 0
 11
10.80689
 21
3.34882
  0
LINE
  8
Engraving
 62
   255
 39
0.008
  6
CONTINUOUS
 10
10.80689
 20
3.34882
 30
 0
 11
10.80689
 21
3.20000
  0
LINE
  8
Engraving
 62
   255
 39
0.008
  6
CONTINUOUS
 10
10.89618
 20
3.27441
 30
 0
 11
10.97886
 21
3.27441
  0
LINE
  8
Engraving
 62
   255
 39
0.008
  6
CONTINUOUS
 10
10.99539
 20
3.34882
 30
 0
 11
10.89618
 21
3.34882
  0
LINE
  8
Engraving
 62
   255
 39
0.008
  6
CONTINUOUS
 10
10.89618
 20
3.34882
 30
 0
 11
10.89618
 21
3.20000
  0
LINE
  8
Engraving
 62
   255
 39
0.008
  6
CONTINUOUS
 10
10.89618
 20
3.20000
 30
 0
 11
10.99539
 21
3.20000
  0
ARC
  8
Contour
 62
   7
 39
0.008
  6
CONTINUOUS
 10
14.81591
 20
3.49091
 30
 0
 40
0.05909
 50
360.00000
 51
90.00000
  0
LINE
  8
Contour
 62
   7
 39
0.008
  6
CONTINUOUS
 10
14.87500
 20
3.49091
 30
 0
 11
14.87500
 21
3.10909
  0
ARC
  8
Contour
 62
   7
 39
0.008
  6
CONTINUOUS
 10
14.81591
 20
3.10909
 30
 0
 40
0.05909
 50
270.00000
 51
0.00000
  0
LINE
  8
Contour
 62
   7
 39
0.008
  6
CONTINUOUS
 10
14.81591
 20
3.05000
 30
 0
 11
14.43409
 21
3.05000
  0
ARC
  8
Contour
 62
   7
 39
0.008
  6
CONTINUOUS
 10
14.43409
 20
3.10909
 30
 0
 40
0.05909
 50
180.00000
 51
-90.00000
  0
LINE
  8
Contour
 62
   7
 39
0.008
  6
CONTINUOUS
 10
14.37500
 20
3.10909
 30
 0
 11
14.37500
 21
3.49091
  0
ARC
  8
Contour
 62
   7
 39
0.008
  6
CONTINUOUS
 10
14.43409
 20
3.49091
 30
 0
 40
0.05909
 50
450.00000
 51
180.00000
  0
LINE
  8
Contour
 62
   7
 39
0.008
  6
CONTINUOUS
 10
14.43409
 20
3.55000
 30
 0
 11
14.81591
 21
3.55000
  0
ARC
  8
Contour
 62
   7
 39
0.008
  6
CONTINUOUS
 10
8.91591
 20
4.46591
 30
 0
 40
0.05909
 50
360.00000
 51
90.00000
  0
LINE
  8
Contour
 62
   7
 39
0.008
  6
CONTINUOUS
 10
8.97500
 20
4.46591
 30
 0
 11
8.97500
 21
3.83409
  0
ARC
  8
Contour
 62
   7
 39
0.008
  6
CONTINUOUS
 10
8.91591
 20
3.83409
 30
 0
 40
0.05909
 50
270.00000
 51
0.00000
  0
LINE
  8
Contour
 62
   7
 39
0.008
  6
CONTINUOUS
 10
8.91591
 20
3.77500
 30
 0
 11
6.53409
 21
3.77500
  0
ARC
  8
Contour
 62
   7
 39
0.008
  6
CONTINUOUS
 10
6.53409
 20
3.83409
 30
 0
 40
0.05909
 50
180.00000
 51
-90.00000
  0
LINE
  8
Contour
 62
   7
 39
0.008
  6
CONTINUOUS
 10
6.47500
 20
3.83409
 30
 0
 11
6.47500
 21
4.46591
  0
ARC
  8
Contour
 62
   7
 39
0.008
  6
CONTINUOUS
 10
6.53409
 20
4.46591
 30
 0
 40
0.05909
 50
450.00000
 51
180.00000
  0
LINE
  8
Contour
 62
   7
 39
0.008
  6
CONTINUOUS
 10
6.53409
 20
4.52500
 30
 0
 11
8.91591
 21
4.52500
  0
ARC
  8
Contour
 62
   7
 39
0.008
  6
CONTINUOUS
 10
12.21591
 20
4.46591
 30
 0
 40
0.05909
 50
360.00000
 51
90.00000
  0
LINE
  8
Contour
 62
   7
 39
0.008
  6
CONTINUOUS
 10
12.27500
 20
4.46591
 30
 0
 11
12.27500
 21
3.83409
  0
ARC
  8
Contour
 62
   7
 39
0.008
  6
CONTINUOUS
 10
12.21591
 20
3.83409
 30
 0
 40
0.05909
 50
270.00000
 51
0.00000
  0
LINE
  8
Contour
 62
   7
 39
0.008
  6
CONTINUOUS
 10
12.21591
 20
3.77500
 30
 0
 11
10.33409
 21
3.77500
  0
ARC
  8
Contour
 62
   7
 39
0.008
  6
CONTINUOUS
 10
10.33409
 20
3.83409
 30
 0
 40
0.05909
 50
180.00000
 51
-90.00000
  0
LINE
  8
Contour
 62
   7
 39
0.008
  6
CONTINUOUS
 10
10.27500
 20
3.83409
 30
 0
 11
10.27500
 21
4.46591
  0
ARC
  8
Contour
 62
   7
 39
0.008
  6
CONTINUOUS
 10
10.33409
 20
4.46591
 30
 0
 40
0.05909
 50
450.00000
 51
180.00000
  0
LINE
  8
Contour
 62
   7
 39
0.008
  6
CONTINUOUS
 10
10.33409
 20
4.52500
 30
 0
 11
12.21591
 21
4.52500
  0
ARC
  8
Contour
 62
   7
 39
0.008
  6
CONTINUOUS
 10
13.91591
 20
4.39091
 30
 0
 40
0.05909
 50
360.00000
 51
90.00000
  0
LINE
  8
Contour
 62
   7
 39
0.008
  6
CONTINUOUS
 10
13.97500
 20
4.39091
 30
 0
 11
13.97500
 21
4.00909
  0
ARC
  8
Contour
 62
   7
 39
0.008
  6
CONTINUOUS
 10
13.91591
 20
4.00909
 30
 0
 40
0.05909
 50
270.00000
 51
0.00000
  0
LINE
  8
Contour
 62
   7
 39
0.008
  6
CONTINUOUS
 10
13.91591
 20
3.95000
 30
 0
 11
13.53409
 21
3.95000
  0
ARC
  8
Contour
 62
   7
 39
0.008
  6
CONTINUOUS
 10
13.53409
 20
4.00909
 30
 0
 40
0.05909
 50
180.00000
 51
-90.00000
  0
LINE
  8
Contour
 62
   7
 39
0.008
  6
CONTINUOUS
 10
13.47500
 20
4.00909
 30
 0
 11
13.47500
 21
4.39091
  0
ARC
  8
Contour
 62
   7
 39
0.008
  6
CONTINUOUS
 10
13.53409
 20
4.39091
 30
 0
 40
0.05909
 50
450.00000
 51
180.00000
  0
LINE
  8
Contour
 62
   7
 39
0.008
  6
CONTINUOUS
 10
13.53409
 20
4.45000
 30
 0
 11
13.91591
 21
4.45000
  0
ARC
  8
Contour
 62
   7
 39
0.008
  6
CONTINUOUS
 10
13.91591
 20
2.59091
 30
 0
 40
0.05909
 50
360.00000
 51
90.00000
  0
LINE
  8
Contour
 62
   7
 39
0.008
  6
CONTINUOUS
 10
13.97500
 20
2.59091
 30
 0
 11
13.97500
 21
2.20909
  0
ARC
  8
Contour
 62
   7
 39
0.008
  6
CONTINUOUS
 10
13.91591
 20
2.20909
 30
 0
 40
0.05909
 50
270.00000
 51
0.00000
  0
LINE
  8
Contour
 62
   7
 39
0.008
  6
CONTINUOUS
 10
13.91591
 20
2.15000
 30
 0
 11
13.53409
 21
2.15000
  0
ARC
  8
Contour
 62
   7
 39
0.008
  6
CONTINUOUS
 10
13.53409
 20
2.20909
 30
 0
 40
0.05909
 50
180.00000
 51
-90.00000
  0
LINE
  8
Contour
 62
   7
 39
0.008
  6
CONTINUOUS
 10
13.47500
 20
2.20909
 30
 0
 11
13.47500
 21
2.59091
  0
ARC
  8
Contour
 62
   7
 39
0.008
  6
CONTINUOUS
 10
13.53409
 20
2.59091
 30
 0
 40
0.05909
 50
450.00000
 51
180.00000
  0
LINE
  8
Contour
 62
   7
 39
0.008
  6
CONTINUOUS
 10
13.53409
 20
2.65000
 30
 0
 11
13.91591
 21
2.65000
  0
ARC
  8
Contour
 62
   7
 39
0.008
  6
CONTINUOUS
 10
16.61591
 20
4.39091
 30
 0
 40
0.05909
 50
360.00000
 51
90.00000
  0
LINE
  8
Contour
 62
   7
 39
0.008
  6
CONTINUOUS
 10
16.67500
 20
4.39091
 30
 0
 11
16.67500
 21
4.00909
  0
ARC
  8
Contour
 62
   7
 39
0.008
  6
CONTINUOUS
 10
16.61591
 20
4.00909
 30
 0
 40
0.05909
 50
270.00000
 51
0.00000
  0
LINE
  8
Contour
 62
   7
 39
0.008
  6
CONTINUOUS
 10
16.61591
 20
3.95000
 30
 0
 11
16.23409
 21
3.95000
  0
ARC
  8
Contour
 62
   7
 39
0.008
  6
CONTINUOUS
 10
16.23409
 20
4.00909
 30
 0
 40
0.05909
 50
180.00000
 51
-90.00000
  0
LINE
  8
Contour
 62
   7
 39
0.008
  6
CONTINUOUS
 10
16.17500
 20
4.00909
 30
 0
 11
16.17500
 21
4.39091
  0
ARC
  8
Contour
 62
   7
 39
0.008
  6
CONTINUOUS
 10
16.23409
 20
4.39091
 30
 0
 40
0.05909
 50
450.00000
 51
180.00000
  0
LINE
  8
Contour
 62
   7
 39
0.008
  6
CONTINUOUS
 10
16.23409
 20
4.45000
 30
 0
 11
16.61591
 21
4.45000
  0
ARC
  8
Contour
 62
   7
 39
0.008
  6
CONTINUOUS
 10
13.91591
 20
3.49091
 30
 0
 40
0.05909
 50
360.00000
 51
90.00000
  0
LINE
  8
Contour
 62
   7
 39
0.008
  6
CONTINUOUS
 10
13.97500
 20
3.49091
 30
 0
 11
13.97500
 21
3.10909
  0
ARC
  8
Contour
 62
   7
 39
0.008
  6
CONTINUOUS
 10
13.91591
 20
3.10909
 30
 0
 40
0.05909
 50
270.00000
 51
0.00000
  0
LINE
  8
Contour
 62
   7
 39
0.008
  6
CONTINUOUS
 10
13.91591
 20
3.05000
 30
 0
 11
13.53409
 21
3.05000
  0
ARC
  8
Contour
 62
   7
 39
0.008
  6
CONTINUOUS
 10
13.53409
 20
3.10909
 30
 0
 40
0.05909
 50
180.00000
 51
-90.00000
  0
LINE
  8
Contour
 62
   7
 39
0.008
  6
CONTINUOUS
 10
13.47500
 20
3.10909
 30
 0
 11
13.47500
 21
3.49091
  0
ARC
  8
Contour
 62
   7
 39
0.008
  6
CONTINUOUS
 10
13.53409
 20
3.49091
 30
 0
 40
0.05909
 50
450.00000
 51
180.00000
  0
LINE
  8
Contour
 62
   7
 39
0.008
  6
CONTINUOUS
 10
13.53409
 20
3.55000
 30
 0
 11
13.91591
 21
3.55000
  0
ARC
  8
Contour
 62
   7
 39
0.008
  6
CONTINUOUS
 10
13.91591
 20
1.69091
 30
 0
 40
0.05909
 50
360.00000
 51
90.00000
  0
LINE
  8
Contour
 62
   7
 39
0.008
  6
CONTINUOUS
 10
13.97500
 20
1.69091
 30
 0
 11
13.97500
 21
1.30909
  0
ARC
  8
Contour
 62
   7
 39
0.008
  6
CONTINUOUS
 10
13.91591
 20
1.30909
 30
 0
 40
0.05909
 50
270.00000
 51
0.00000
  0
LINE
  8
Contour
 62
   7
 39
0.008
  6
CONTINUOUS
 10
13.91591
 20
1.25000
 30
 0
 11
13.53409
 21
1.25000
  0
ARC
  8
Contour
 62
   7
 39
0.008
  6
CONTINUOUS
 10
13.53409
 20
1.30909
 30
 0
 40
0.05909
 50
180.00000
 51
-90.00000
  0
LINE
  8
Contour
 62
   7
 39
0.008
  6
CONTINUOUS
 10
13.47500
 20
1.30909
 30
 0
 11
13.47500
 21
1.69091
  0
ARC
  8
Contour
 62
   7
 39
0.008
  6
CONTINUOUS
 10
13.53409
 20
1.69091
 30
 0
 40
0.05909
 50
450.00000
 51
180.00000
  0
LINE
  8
Contour
 62
   7
 39
0.008
  6
CONTINUOUS
 10
13.53409
 20
1.75000
 30
 0
 11
13.91591
 21
1.75000
  0
ARC
  8
Contour
 62
   7
 39
0.008
  6
CONTINUOUS
 10
14.81591
 20
4.39091
 30
 0
 40
0.05909
 50
360.00000
 51
90.00000
  0
LINE
  8
Contour
 62
   7
 39
0.008
  6
CONTINUOUS
 10
14.87500
 20
4.39091
 30
 0
 11
14.87500
 21
4.00909
  0
ARC
  8
Contour
 62
   7
 39
0.008
  6
CONTINUOUS
 10
14.81591
 20
4.00909
 30
 0
 40
0.05909
 50
270.00000
 51
0.00000
  0
LINE
  8
Contour
 62
   7
 39
0.008
  6
CONTINUOUS
 10
14.81591
 20
3.95000
 30
 0
 11
14.43409
 21
3.95000
  0
ARC
  8
Contour
 62
   7
 39
0.008
  6
CONTINUOUS
 10
14.43409
 20
4.00909
 30
 0
 40
0.05909
 50
180.00000
 51
-90.00000
  0
LINE
  8
Contour
 62
   7
 39
0.008
  6
CONTINUOUS
 10
14.37500
 20
4.00909
 30
 0
 11
14.37500
 21
4.39091
  0
ARC
  8
Contour
 62
   7
 39
0.008
  6
CONTINUOUS
 10
14.43409
 20
4.39091
 30
 0
 40
0.05909
 50
450.00000
 51
180.00000
  0
LINE
  8
Contour
 62
   7
 39
0.008
  6
CONTINUOUS
 10
14.43409
 20
4.45000
 30
 0
 11
14.81591
 21
4.45000
  0
ARC
  8
Contour
 62
   7
 39
0.008
  6
CONTINUOUS
 10
17.52591
 20
1.70091
 30
 0
 40
0.05909
 50
360.00000
 51
90.00000
  0
LINE
  8
Contour
 62
   7
 39
0.008
  6
CONTINUOUS
 10
17.58500
 20
1.70091
 30
 0
 11
17.58500
 21
1.29909
  0
ARC
  8
Contour
 62
   7
 39
0.008
  6
CONTINUOUS
 10
17.52591
 20
1.29909
 30
 0
 40
0.05909
 50
270.00000
 51
0.00000
  0
LINE
  8
Contour
 62
   7
 39
0.008
  6
CONTINUOUS
 10
17.52591
 20
1.24000
 30
 0
 11
17.12409
 21
1.24000
  0
ARC
  8
Contour
 62
   7
 39
0.008
  6
CONTINUOUS
 10
17.12409
 20
1.29909
 30
 0
 40
0.05909
 50
180.00000
 51
-90.00000
  0
LINE
  8
Contour
 62
   7
 39
0.008
  6
CONTINUOUS
 10
17.06500
 20
1.29909
 30
 0
 11
17.06500
 21
1.70091
  0
ARC
  8
Contour
 62
   7
 39
0.008
  6
CONTINUOUS
 10
17.12409
 20
1.70091
 30
 0
 40
0.05909
 50
450.00000
 51
180.00000
  0
LINE
  8
Contour
 62
   7
 39
0.008
  6
CONTINUOUS
 10
17.12409
 20
1.76000
 30
 0
 11
17.52591
 21
1.76000
  0
ARC
  8
Contour
 62
   7
 39
0.008
  6
CONTINUOUS
 10
16.61591
 20
3.49091
 30
 0
 40
0.05909
 50
360.00000
 51
90.00000
  0
LINE
  8
Contour
 62
   7
 39
0.008
  6
CONTINUOUS
 10
16.67500
 20
3.49091
 30
 0
 11
16.67500
 21
3.10909
  0
ARC
  8
Contour
 62
   7
 39
0.008
  6
CONTINUOUS
 10
16.61591
 20
3.10909
 30
 0
 40
0.05909
 50
270.00000
 51
0.00000
  0
LINE
  8
Contour
 62
   7
 39
0.008
  6
CONTINUOUS
 10
16.61591
 20
3.05000
 30
 0
 11
16.23409
 21
3.05000
  0
ARC
  8
Contour
 62
   7
 39
0.008
  6
CONTINUOUS
 10
16.23409
 20
3.10909
 30
 0
 40
0.05909
 50
180.00000
 51
-90.00000
  0
LINE
  8
Contour
 62
   7
 39
0.008
  6
CONTINUOUS
 10
16.17500
 20
3.10909
 30
 0
 11
16.17500
 21
3.49091
  0
ARC
  8
Contour
 62
   7
 39
0.008
  6
CONTINUOUS
 10
16.23409
 20
3.49091
 30
 0
 40
0.05909
 50
450.00000
 51
180.00000
  0
LINE
  8
Contour
 62
   7
 39
0.008
  6
CONTINUOUS
 10
16.23409
 20
3.55000
 30
 0
 11
16.61591
 21
3.55000
  0
ARC
  8
Contour
 62
   7
 39
0.008
  6
CONTINUOUS
 10
15.71591
 20
3.49091
 30
 0
 40
0.05909
 50
360.00000
 51
90.00000
  0
LINE
  8
Contour
 62
   7
 39
0.008
  6
CONTINUOUS
 10
15.77500
 20
3.49091
 30
 0
 11
15.77500
 21
3.10909
  0
ARC
  8
Contour
 62
   7
 39
0.008
  6
CONTINUOUS
 10
15.71591
 20
3.10909
 30
 0
 40
0.05909
 50
270.00000
 51
0.00000
  0
LINE
  8
Contour
 62
   7
 39
0.008
  6
CONTINUOUS
 10
15.71591
 20
3.05000
 30
 0
 11
15.33409
 21
3.05000
  0
ARC
  8
Contour
 62
   7
 39
0.008
  6
CONTINUOUS
 10
15.33409
 20
3.10909
 30
 0
 40
0.05909
 50
180.00000
 51
-90.00000
  0
LINE
  8
Contour
 62
   7
 39
0.008
  6
CONTINUOUS
 10
15.27500
 20
3.10909
 30
 0
 11
15.27500
 21
3.49091
  0
ARC
  8
Contour
 62
   7
 39
0.008
  6
CONTINUOUS
 10
15.33409
 20
3.49091
 30
 0
 40
0.05909
 50
450.00000
 51
180.00000
  0
LINE
  8
Contour
 62
   7
 39
0.008
  6
CONTINUOUS
 10
15.33409
 20
3.55000
 30
 0
 11
15.71591
 21
3.55000
  0
ARC
  8
Contour
 62
   7
 39
0.008
  6
CONTINUOUS
 10
14.81591
 20
2.59091
 30
 0
 40
0.05909
 50
360.00000
 51
90.00000
  0
LINE
  8
Contour
 62
   7
 39
0.008
  6
CONTINUOUS
 10
14.87500
 20
2.59091
 30
 0
 11
14.87500
 21
2.20909
  0
ARC
  8
Contour
 62
   7
 39
0.008
  6
CONTINUOUS
 10
14.81591
 20
2.20909
 30
 0
 40
0.05909
 50
270.00000
 51
0.00000
  0
LINE
  8
Contour
 62
   7
 39
0.008
  6
CONTINUOUS
 10
14.81591
 20
2.15000
 30
 0
 11
14.43409
 21
2.15000
  0
ARC
  8
Contour
 62
   7
 39
0.008
  6
CONTINUOUS
 10
14.43409
 20
2.20909
 30
 0
 40
0.05909
 50
180.00000
 51
-90.00000
  0
LINE
  8
Contour
 62
   7
 39
0.008
  6
CONTINUOUS
 10
14.37500
 20
2.20909
 30
 0
 11
14.37500
 21
2.59091
  0
ARC
  8
Contour
 62
   7
 39
0.008
  6
CONTINUOUS
 10
14.43409
 20
2.59091
 30
 0
 40
0.05909
 50
450.00000
 51
180.00000
  0
LINE
  8
Contour
 62
   7
 39
0.008
  6
CONTINUOUS
 10
14.43409
 20
2.65000
 30
 0
 11
14.81591
 21
2.65000
  0
ARC
  8
Contour
 62
   7
 39
0.008
  6
CONTINUOUS
 10
15.71591
 20
2.59091
 30
 0
 40
0.05909
 50
360.00000
 51
90.00000
  0
LINE
  8
Contour
 62
   7
 39
0.008
  6
CONTINUOUS
 10
15.77500
 20
2.59091
 30
 0
 11
15.77500
 21
2.20909
  0
ARC
  8
Contour
 62
   7
 39
0.008
  6
CONTINUOUS
 10
15.71591
 20
2.20909
 30
 0
 40
0.05909
 50
270.00000
 51
0.00000
  0
LINE
  8
Contour
 62
   7
 39
0.008
  6
CONTINUOUS
 10
15.71591
 20
2.15000
 30
 0
 11
15.33409
 21
2.15000
  0
ARC
  8
Contour
 62
   7
 39
0.008
  6
CONTINUOUS
 10
15.33409
 20
2.20909
 30
 0
 40
0.05909
 50
180.00000
 51
-90.00000
  0
LINE
  8
Contour
 62
   7
 39
0.008
  6
CONTINUOUS
 10
15.27500
 20
2.20909
 30
 0
 11
15.27500
 21
2.59091
  0
ARC
  8
Contour
 62
   7
 39
0.008
  6
CONTINUOUS
 10
15.33409
 20
2.59091
 30
 0
 40
0.05909
 50
450.00000
 51
180.00000
  0
LINE
  8
Contour
 62
   7
 39
0.008
  6
CONTINUOUS
 10
15.33409
 20
2.65000
 30
 0
 11
15.71591
 21
2.65000
  0
ARC
  8
Contour
 62
   7
 39
0.008
  6
CONTINUOUS
 10
16.61591
 20
2.59091
 30
 0
 40
0.05909
 50
360.00000
 51
90.00000
  0
LINE
  8
Contour
 62
   7
 39
0.008
  6
CONTINUOUS
 10
16.67500
 20
2.59091
 30
 0
 11
16.67500
 21
2.20909
  0
ARC
  8
Contour
 62
   7
 39
0.008
  6
CONTINUOUS
 10
16.61591
 20
2.20909
 30
 0
 40
0.05909
 50
270.00000
 51
0.00000
  0
LINE
  8
Contour
 62
   7
 39
0.008
  6
CONTINUOUS
 10
16.61591
 20
2.15000
 30
 0
 11
16.23409
 21
2.15000
  0
ARC
  8
Contour
 62
   7
 39
0.008
  6
CONTINUOUS
 10
16.23409
 20
2.20909
 30
 0
 40
0.05909
 50
180.00000
 51
-90.00000
  0
LINE
  8
Contour
 62
   7
 39
0.008
  6
CONTINUOUS
 10
16.17500
 20
2.20909
 30
 0
 11
16.17500
 21
2.59091
  0
ARC
  8
Contour
 62
   7
 39
0.008
  6
CONTINUOUS
 10
16.23409
 20
2.59091
 30
 0
 40
0.05909
 50
450.00000
 51
180.00000
  0
LINE
  8
Contour
 62
   7
 39
0.008
  6
CONTINUOUS
 10
16.23409
 20
2.65000
 30
 0
 11
16.61591
 21
2.65000
  0
ARC
  8
Contour
 62
   7
 39
0.008
  6
CONTINUOUS
 10
14.81591
 20
1.69091
 30
 0
 40
0.05909
 50
360.00000
 51
90.00000
  0
LINE
  8
Contour
 62
   7
 39
0.008
  6
CONTINUOUS
 10
14.87500
 20
1.69091
 30
 0
 11
14.87500
 21
1.30909
  0
ARC
  8
Contour
 62
   7
 39
0.008
  6
CONTINUOUS
 10
14.81591
 20
1.30909
 30
 0
 40
0.05909
 50
270.00000
 51
0.00000
  0
LINE
  8
Contour
 62
   7
 39
0.008
  6
CONTINUOUS
 10
14.81591
 20
1.25000
 30
 0
 11
14.43409
 21
1.25000
  0
ARC
  8
Contour
 62
   7
 39
0.008
  6
CONTINUOUS
 10
14.43409
 20
1.30909
 30
 0
 40
0.05909
 50
180.00000
 51
-90.00000
  0
LINE
  8
Contour
 62
   7
 39
0.008
  6
CONTINUOUS
 10
14.37500
 20
1.30909
 30
 0
 11
14.37500
 21
1.69091
  0
ARC
  8
Contour
 62
   7
 39
0.008
  6
CONTINUOUS
 10
14.43409
 20
1.69091
 30
 0
 40
0.05909
 50
450.00000
 51
180.00000
  0
LINE
  8
Contour
 62
   7
 39
0.008
  6
CONTINUOUS
 10
14.43409
 20
1.75000
 30
 0
 11
14.81591
 21
1.75000
  0
ARC
  8
Contour
 62
   7
 39
0.008
  6
CONTINUOUS
 10
15.71591
 20
1.69091
 30
 0
 40
0.05909
 50
360.00000
 51
90.00000
  0
LINE
  8
Contour
 62
   7
 39
0.008
  6
CONTINUOUS
 10
15.77500
 20
1.69091
 30
 0
 11
15.77500
 21
1.30909
  0
ARC
  8
Contour
 62
   7
 39
0.008
  6
CONTINUOUS
 10
15.71591
 20
1.30909
 30
 0
 40
0.05909
 50
270.00000
 51
0.00000
  0
LINE
  8
Contour
 62
   7
 39
0.008
  6
CONTINUOUS
 10
15.71591
 20
1.25000
 30
 0
 11
15.33409
 21
1.25000
  0
ARC
  8
Contour
 62
   7
 39
0.008
  6
CONTINUOUS
 10
15.33409
 20
1.30909
 30
 0
 40
0.05909
 50
180.00000
 51
-90.00000
  0
LINE
  8
Contour
 62
   7
 39
0.008
  6
CONTINUOUS
 10
15.27500
 20
1.30909
 30
 0
 11
15.27500
 21
1.69091
  0
ARC
  8
Contour
 62
   7
 39
0.008
  6
CONTINUOUS
 10
15.33409
 20
1.69091
 30
 0
 40
0.05909
 50
450.00000
 51
180.00000
  0
LINE
  8
Contour
 62
   7
 39
0.008
  6
CONTINUOUS
 10
15.33409
 20
1.75000
 30
 0
 11
15.71591
 21
1.75000
  0
ARC
  8
Contour
 62
   7
 39
0.008
  6
CONTINUOUS
 10
16.61591
 20
1.69091
 30
 0
 40
0.05909
 50
360.00000
 51
90.00000
  0
LINE
  8
Contour
 62
   7
 39
0.008
  6
CONTINUOUS
 10
16.67500
 20
1.69091
 30
 0
 11
16.67500
 21
1.30909
  0
ARC
  8
Contour
 62
   7
 39
0.008
  6
CONTINUOUS
 10
16.61591
 20
1.30909
 30
 0
 40
0.05909
 50
270.00000
 51
0.00000
  0
LINE
  8
Contour
 62
   7
 39
0.008
  6
CONTINUOUS
 10
16.61591
 20
1.25000
 30
 0
 11
16.23409
 21
1.25000
  0
ARC
  8
Contour
 62
   7
 39
0.008
  6
CONTINUOUS
 10
16.23409
 20
1.30909
 30
 0
 40
0.05909
 50
180.00000
 51
-90.00000
  0
LINE
  8
Contour
 62
   7
 39
0.008
  6
CONTINUOUS
 10
16.17500
 20
1.30909
 30
 0
 11
16.17500
 21
1.69091
  0
ARC
  8
Contour
 62
   7
 39
0.008
  6
CONTINUOUS
 10
16.23409
 20
1.69091
 30
 0
 40
0.05909
 50
450.00000
 51
180.00000
  0
LINE
  8
Contour
 62
   7
 39
0.008
  6
CONTINUOUS
 10
16.23409
 20
1.75000
 30
 0
 11
16.61591
 21
1.75000
  0
ARC
  8
Contour
 62
   7
 39
0.008
  6
CONTINUOUS
 10
17.52591
 20
2.60091
 30
 0
 40
0.05909
 50
360.00000
 51
90.00000
  0
LINE
  8
Contour
 62
   7
 39
0.008
  6
CONTINUOUS
 10
17.58500
 20
2.60091
 30
 0
 11
17.58500
 21
2.19909
  0
ARC
  8
Contour
 62
   7
 39
0.008
  6
CONTINUOUS
 10
17.52591
 20
2.19909
 30
 0
 40
0.05909
 50
270.00000
 51
0.00000
  0
LINE
  8
Contour
 62
   7
 39
0.008
  6
CONTINUOUS
 10
17.52591
 20
2.14000
 30
 0
 11
17.12409
 21
2.14000
  0
ARC
  8
Contour
 62
   7
 39
0.008
  6
CONTINUOUS
 10
17.12409
 20
2.19909
 30
 0
 40
0.05909
 50
180.00000
 51
-90.00000
  0
LINE
  8
Contour
 62
   7
 39
0.008
  6
CONTINUOUS
 10
17.06500
 20
2.19909
 30
 0
 11
17.06500
 21
2.60091
  0
ARC
  8
Contour
 62
   7
 39
0.008
  6
CONTINUOUS
 10
17.12409
 20
2.60091
 30
 0
 40
0.05909
 50
450.00000
 51
180.00000
  0
LINE
  8
Contour
 62
   7
 39
0.008
  6
CONTINUOUS
 10
17.12409
 20
2.66000
 30
 0
 11
17.52591
 21
2.66000
  0
ARC
  8
Contour
 62
   7
 39
0.008
  6
CONTINUOUS
 10
17.52591
 20
3.50091
 30
 0
 40
0.05909
 50
360.00000
 51
90.00000
  0
LINE
  8
Contour
 62
   7
 39
0.008
  6
CONTINUOUS
 10
17.58500
 20
3.50091
 30
 0
 11
17.58500
 21
3.09909
  0
ARC
  8
Contour
 62
   7
 39
0.008
  6
CONTINUOUS
 10
17.52591
 20
3.09909
 30
 0
 40
0.05909
 50
270.00000
 51
0.00000
  0
LINE
  8
Contour
 62
   7
 39
0.008
  6
CONTINUOUS
 10
17.52591
 20
3.04000
 30
 0
 11
17.12409
 21
3.04000
  0
ARC
  8
Contour
 62
   7
 39
0.008
  6
CONTINUOUS
 10
17.12409
 20
3.09909
 30
 0
 40
0.05909
 50
180.00000
 51
-90.00000
  0
LINE
  8
Contour
 62
   7
 39
0.008
  6
CONTINUOUS
 10
17.06500
 20
3.09909
 30
 0
 11
17.06500
 21
3.50091
  0
ARC
  8
Contour
 62
   7
 39
0.008
  6
CONTINUOUS
 10
17.12409
 20
3.50091
 30
 0
 40
0.05909
 50
450.00000
 51
180.00000
  0
LINE
  8
Contour
 62
   7
 39
0.008
  6
CONTINUOUS
 10
17.12409
 20
3.56000
 30
 0
 11
17.52591
 21
3.56000
  0
ARC
  8
Contour
 62
   7
 39
0.008
  6
CONTINUOUS
 10
17.52591
 20
4.40091
 30
 0
 40
0.05909
 50
360.00000
 51
90.00000
  0
LINE
  8
Contour
 62
   7
 39
0.008
  6
CONTINUOUS
 10
17.58500
 20
4.40091
 30
 0
 11
17.58500
 21
3.99909
  0
ARC
  8
Contour
 62
   7
 39
0.008
  6
CONTINUOUS
 10
17.52591
 20
3.99909
 30
 0
 40
0.05909
 50
270.00000
 51
0.00000
  0
LINE
  8
Contour
 62
   7
 39
0.008
  6
CONTINUOUS
 10
17.52591
 20
3.94000
 30
 0
 11
17.12409
 21
3.94000
  0
ARC
  8
Contour
 62
   7
 39
0.008
  6
CONTINUOUS
 10
17.12409
 20
3.99909
 30
 0
 40
0.05909
 50
180.00000
 51
-90.00000
  0
LINE
  8
Contour
 62
   7
 39
0.008
  6
CONTINUOUS
 10
17.06500
 20
3.99909
 30
 0
 11
17.06500
 21
4.40091
  0
ARC
  8
Contour
 62
   7
 39
0.008
  6
CONTINUOUS
 10
17.12409
 20
4.40091
 30
 0
 40
0.05909
 50
450.00000
 51
180.00000
  0
LINE
  8
Contour
 62
   7
 39
0.008
  6
CONTINUOUS
 10
17.12409
 20
4.46000
 30
 0
 11
17.52591
 21
4.46000
  0
ARC
  8
Contour
 62
   7
 39
0.008
  6
CONTINUOUS
 10
15.72591
 20
4.40091
 30
 0
 40
0.05909
 50
360.00000
 51
90.00000
  0
LINE
  8
Contour
 62
   7
 39
0.008
  6
CONTINUOUS
 10
15.78500
 20
4.40091
 30
 0
 11
15.78500
 21
3.99909
  0
ARC
  8
Contour
 62
   7
 39
0.008
  6
CONTINUOUS
 10
15.72591
 20
3.99909
 30
 0
 40
0.05909
 50
270.00000
 51
0.00000
  0
LINE
  8
Contour
 62
   7
 39
0.008
  6
CONTINUOUS
 10
15.72591
 20
3.94000
 30
 0
 11
15.32409
 21
3.94000
  0
ARC
  8
Contour
 62
   7
 39
0.008
  6
CONTINUOUS
 10
15.32409
 20
3.99909
 30
 0
 40
0.05909
 50
180.00000
 51
-90.00000
  0
LINE
  8
Contour
 62
   7
 39
0.008
  6
CONTINUOUS
 10
15.26500
 20
3.99909
 30
 0
 11
15.26500
 21
4.40091
  0
ARC
  8
Contour
 62
   7
 39
0.008
  6
CONTINUOUS
 10
15.32409
 20
4.40091
 30
 0
 40
0.05909
 50
450.00000
 51
180.00000
  0
LINE
  8
Contour
 62
   7
 39
0.008
  6
CONTINUOUS
 10
15.32409
 20
4.46000
 30
 0
 11
15.72591
 21
4.46000
  0
CIRCLE
  8
Contour
 62
   7
 39
0.008
  6
CONTINUOUS
 10
11.87500
 20
2.95000
 30
 0
 40
0.12500
  0
CIRCLE
  8
Contour
 62
   7
 39
0.008
  6
CONTINUOUS
 10
11.87500
 20
2.25000
 30
 0
 40
0.12500
  0
CIRCLE
  8
Contour
 62
   7
 39
0.008
  6
CONTINUOUS
 10
11.87500
 20
1.55000
 30
 0
 40
0.12500
  0
ARC
  8
Contour
 62
   7
 39
0.008
  6
CONTINUOUS
 10
0.23209
 20
1.58661
 30
 0
 40
0.04724
 50
450.01816
 51
140.08379
  0
LINE
  8
Contour
 62
   7
 39
0.008
  6
CONTINUOUS
 10
0.23209
 20
1.63386
 30
 0
 11
0.47657
 21
1.63386
  0
ARC
  8
Contour
 62
   7
 39
0.008
  6
CONTINUOUS
 10
0.47657
 20
1.58661
 30
 0
 40
0.04724
 50
399.91621
 51
89.98184
  0
ARC
  8
Contour
 62
   7
 39
0.008
  6
CONTINUOUS
 10
0.35433
 20
1.48425
 30
 0
 40
0.20669
 50
320.06167
 51
39.93833
  0
ARC
  8
Contour
 62
   7
 39
0.008
  6
CONTINUOUS
 10
0.47657
 20
1.38189
 30
 0
 40
0.04724
 50
269.97817
 51
-39.97849
  0
LINE
  8
Contour
 62
   7
 39
0.008
  6
CONTINUOUS
 10
0.47657
 20
1.33465
 30
 0
 11
0.23209
 21
1.33465
  0
ARC
  8
Contour
 62
   7
 39
0.008
  6
CONTINUOUS
 10
0.23209
 20
1.38189
 30
 0
 40
0.04724
 50
579.91621
 51
269.98184
  0
ARC
  8
Contour
 62
   7
 39
0.008
  6
CONTINUOUS
 10
0.35433
 20
1.48425
 30
 0
 40
0.20669
 50
500.06167
 51
219.93833
  0
ARC
  8
Contour
 62
   7
 39
0.008
  6
CONTINUOUS
 10
0.23209
 20
3.83465
 30
 0
 40
0.04724
 50
450.01816
 51
140.08379
  0
LINE
  8
Contour
 62
   7
 39
0.008
  6
CONTINUOUS
 10
0.23209
 20
3.88189
 30
 0
 11
0.47657
 21
3.88189
  0
ARC
  8
Contour
 62
   7
 39
0.008
  6
CONTINUOUS
 10
0.47657
 20
3.83465
 30
 0
 40
0.04724
 50
399.91621
 51
89.98184
  0
ARC
  8
Contour
 62
   7
 39
0.008
  6
CONTINUOUS
 10
0.35433
 20
3.73228
 30
 0
 40
0.20669
 50
320.06167
 51
39.93833
  0
ARC
  8
Contour
 62
   7
 39
0.008
  6
CONTINUOUS
 10
0.47657
 20
3.62992
 30
 0
 40
0.04724
 50
269.97817
 51
-39.97849
  0
LINE
  8
Contour
 62
   7
 39
0.008
  6
CONTINUOUS
 10
0.47657
 20
3.58268
 30
 0
 11
0.23209
 21
3.58268
  0
ARC
  8
Contour
 62
   7
 39
0.008
  6
CONTINUOUS
 10
0.23209
 20
3.62992
 30
 0
 40
0.04724
 50
579.91621
 51
269.98184
  0
ARC
  8
Contour
 62
   7
 39
0.008
  6
CONTINUOUS
 10
0.35433
 20
3.73228
 30
 0
 40
0.20669
 50
500.06167
 51
219.93833
  0
ARC
  8
Contour
 62
   7
 39
0.008
  6
CONTINUOUS
 10
18.53917
 20
1.58661
 30
 0
 40
0.04724
 50
450.01816
 51
140.08379
  0
LINE
  8
Contour
 62
   7
 39
0.008
  6
CONTINUOUS
 10
18.53917
 20
1.63386
 30
 0
 11
18.78366
 21
1.63386
  0
ARC
  8
Contour
 62
   7
 39
0.008
  6
CONTINUOUS
 10
18.78366
 20
1.58661
 30
 0
 40
0.04724
 50
399.91621
 51
89.98184
  0
ARC
  8
Contour
 62
   7
 39
0.008
  6
CONTINUOUS
 10
18.66142
 20
1.48425
 30
 0
 40
0.20669
 50
320.06167
 51
39.93833
  0
ARC
  8
Contour
 62
   7
 39
0.008
  6
CONTINUOUS
 10
18.78366
 20
1.38189
 30
 0
 40
0.04724
 50
269.97817
 51
-39.97849
  0
LINE
  8
Contour
 62
   7
 39
0.008
  6
CONTINUOUS
 10
18.78366
 20
1.33465
 30
 0
 11
18.53917
 21
1.33465
  0
ARC
  8
Contour
 62
   7
 39
0.008
  6
CONTINUOUS
 10
18.53917
 20
1.38189
 30
 0
 40
0.04724
 50
579.91621
 51
269.98184
  0
ARC
  8
Contour
 62
   7
 39
0.008
  6
CONTINUOUS
 10
18.66142
 20
1.48425
 30
 0
 40
0.20669
 50
500.06167
 51
219.93833
  0
ARC
  8
Contour
 62
   7
 39
0.008
  6
CONTINUOUS
 10
18.53917
 20
3.83465
 30
 0
 40
0.04724
 50
450.01816
 51
140.08379
  0
LINE
  8
Contour
 62
   7
 39
0.008
  6
CONTINUOUS
 10
18.53917
 20
3.88189
 30
 0
 11
18.78366
 21
3.88189
  0
ARC
  8
Contour
 62
   7
 39
0.008
  6
CONTINUOUS
 10
18.78366
 20
3.83465
 30
 0
 40
0.04724
 50
399.91621
 51
89.98184
  0
ARC
  8
Contour
 62
   7
 39
0.008
  6
CONTINUOUS
 10
18.66142
 20
3.73228
 30
 0
 40
0.20669
 50
320.06167
 51
39.93833
  0
ARC
  8
Contour
 62
   7
 39
0.008
  6
CONTINUOUS
 10
18.78366
 20
3.62992
 30
 0
 40
0.04724
 50
269.97817
 51
-39.97849
  0
LINE
  8
Contour
 62
   7
 39
0.008
  6
CONTINUOUS
 10
18.78366
 20
3.58268
 30
 0
 11
18.53917
 21
3.58268
  0
ARC
  8
Contour
 62
   7
 39
0.008
  6
CONTINUOUS
 10
18.53917
 20
3.62992
 30
 0
 40
0.04724
 50
579.91621
 51
269.98184
  0
ARC
  8
Contour
 62
   7
 39
0.008
  6
CONTINUOUS
 10
18.66142
 20
3.73228
 30
 0
 40
0.20669
 50
500.06167
 51
219.93833
  0
CIRCLE
  8
Contour
 62
   7
 39
0.008
  6
CONTINUOUS
 10
17.72500
 20
1.25000
 30
 0
 40
0.07000
  0
CIRCLE
  8
Contour
 62
   7
 39
0.008
  6
CONTINUOUS
 10
17.72500
 20
4.55000
 30
 0
 40
0.07000
  0
CIRCLE
  8
Contour
 62
   7
 39
0.008
  6
CONTINUOUS
 10
2.62500
 20
1.25000
 30
 0
 40
0.07000
  0
CIRCLE
  8
Contour
 62
   7
 39
0.008
  6
CONTINUOUS
 10
2.62500
 20
4.55000
 30
 0
 40
0.07000
  0
CIRCLE
  8
Contour
 62
   7
 39
0.008
  6
CONTINUOUS
 10
6.12500
 20
1.25000
 30
 0
 40
0.07000
  0
CIRCLE
  8
Contour
 62
   7
 39
0.008
  6
CONTINUOUS
 10
6.12500
 20
4.55000
 30
 0
 40
0.07000
  0
CIRCLE
  8
Contour
 62
   7
 39
0.008
  6
CONTINUOUS
 10
9.62500
 20
1.25000
 30
 0
 40
0.07000
  0
CIRCLE
  8
Contour
 62
   7
 39
0.008
  6
CONTINUOUS
 10
9.62500
 20
4.55000
 30
 0
 40
0.07000
  0
CIRCLE
  8
Contour
 62
   7
 39
0.008
  6
CONTINUOUS
 10
13.22500
 20
1.25000
 30
 0
 40
0.07000
  0
CIRCLE
  8
Contour
 62
   7
 39
0.008
  6
CONTINUOUS
 10
13.22500
 20
4.55000
 30
 0
 40
0.07000
  0
CIRCLE
  8
Contour
 62
   7
 39
0.008
  6
CONTINUOUS
 10
9.47496
 20
2.95004
 30
 0
 40
0.12500
  0
CIRCLE
  8
Contour
 62
   7
 39
0.008
  6
CONTINUOUS
 10
10.67500
 20
2.95000
 30
 0
 40
0.12500
  0
CIRCLE
  8
Contour
 62
   7
 39
0.008
  6
CONTINUOUS
 10
10.67500
 20
2.25000
 30
 0
 40
0.12500
  0
CIRCLE
  8
Contour
 62
   7
 39
0.008
  6
CONTINUOUS
 10
9.47496
 20
2.25004
 30
 0
 40
0.12500
  0
CIRCLE
  8
Contour
 62
   7
 39
0.008
  6
CONTINUOUS
 10
10.67500
 20
1.55000
 30
 0
 40
0.12500
  0
LINE
  8
Reference_points
 62
   1
 39
0.008
  6
CONTINUOUS
 10
-0.03937
 20
0.00000
 30
 0
 11
0.03937
 21
0.00000
  0
LINE
  8
Reference_points
 62
   1
 39
0.008
  6
CONTINUOUS
 10
0.00000
 20
-0.03937
 30
 0
 11
0.00000
 21
0.03937
  0
LINE
  8
Reference_points
 62
   1
 39
0.008
  6
CONTINUOUS
 10
14.41063
 20
1.92500
 30
 0
 11
14.48937
 21
1.92500
  0
LINE
  8
Reference_points
 62
   1
 39
0.008
  6
CONTINUOUS
 10
14.45000
 20
1.88563
 30
 0
 11
14.45000
 21
1.96437
  0
LINE
  8
Reference_points
 62
   1
 39
0.008
  6
CONTINUOUS
 10
15.28563
 20
1.92500
 30
 0
 11
15.36437
 21
1.92500
  0
LINE
  8
Reference_points
 62
   1
 39
0.008
  6
CONTINUOUS
 10
15.32500
 20
1.88563
 30
 0
 11
15.32500
 21
1.96437
  0
LINE
  8
Reference_points
 62
   1
 39
0.008
  6
CONTINUOUS
 10
14.31063
 20
2.82500
 30
 0
 11
14.38937
 21
2.82500
  0
LINE
  8
Reference_points
 62
   1
 39
0.008
  6
CONTINUOUS
 10
14.35000
 20
2.78563
 30
 0
 11
14.35000
 21
2.86437
  0
LINE
  8
Reference_points
 62
   1
 39
0.008
  6
CONTINUOUS
 10
14.58563
 20
3.30000
 30
 0
 11
14.66437
 21
3.30000
  0
LINE
  8
Reference_points
 62
   1
 39
0.008
  6
CONTINUOUS
 10
14.62500
 20
3.26063
 30
 0
 11
14.62500
 21
3.33937
  0
LINE
  8
Reference_points
 62
   1
 39
0.008
  6
CONTINUOUS
 10
15.11063
 20
2.82500
 30
 0
 11
15.18937
 21
2.82500
  0
LINE
  8
Reference_points
 62
   1
 39
0.008
  6
CONTINUOUS
 10
15.15000
 20
2.78563
 30
 0
 11
15.15000
 21
2.86437
  0
LINE
  8
Reference_points
 62
   1
 39
0.008
  6
CONTINUOUS
 10
16.18563
 20
2.82500
 30
 0
 11
16.26437
 21
2.82500
  0
LINE
  8
Reference_points
 62
   1
 39
0.008
  6
CONTINUOUS
 10
16.22500
 20
2.78563
 30
 0
 11
16.22500
 21
2.86437
  0
LINE
  8
Reference_points
 62
   1
 39
0.008
  6
CONTINUOUS
 10
14.21063
 20
3.72500
 30
 0
 11
14.28937
 21
3.72500
  0
LINE
  8
Reference_points
 62
   1
 39
0.008
  6
CONTINUOUS
 10
14.25000
 20
3.68563
 30
 0
 11
14.25000
 21
3.76437
  0
LINE
  8
Reference_points
 62
   1
 39
0.008
  6
CONTINUOUS
 10
15.26063
 20
3.72500
 30
 0
 11
15.33937
 21
3.72500
  0
LINE
  8
Reference_points
 62
   1
 39
0.008
  6
CONTINUOUS
 10
15.30000
 20
3.68563
 30
 0
 11
15.30000
 21
3.76437
  0
LINE
  8
Reference_points
 62
   1
 39
0.008
  6
CONTINUOUS
 10
16.31063
 20
3.72500
 30
 0
 11
16.38937
 21
3.72500
  0
LINE
  8
Reference_points
 62
   1
 39
0.008
  6
CONTINUOUS
 10
16.35000
 20
3.68563
 30
 0
 11
16.35000
 21
3.76437
  0
LINE
  8
Reference_points
 62
   1
 39
0.008
  6
CONTINUOUS
 10
7.68563
 20
4.15000
 30
 0
 11
7.76437
 21
4.15000
  0
LINE
  8
Reference_points
 62
   1
 39
0.008
  6
CONTINUOUS
 10
7.72500
 20
4.11063
 30
 0
 11
7.72500
 21
4.18937
  0
LINE
  8
Reference_points
 62
   1
 39
0.008
  6
CONTINUOUS
 10
11.23563
 20
4.15000
 30
 0
 11
11.31437
 21
4.15000
  0
LINE
  8
Reference_points
 62
   1
 39
0.008
  6
CONTINUOUS
 10
11.27500
 20
4.11063
 30
 0
 11
11.27500
 21
4.18937
  0
LINE
  8
Reference_points
 62
   1
 39
0.008
  6
CONTINUOUS
 10
7.23563
 20
4.85000
 30
 0
 11
7.31437
 21
4.85000
  0
LINE
  8
Reference_points
 62
   1
 39
0.008
  6
CONTINUOUS
 10
7.27500
 20
4.81063
 30
 0
 11
7.27500
 21
4.88937
  0
LINE
  8
Reference_points
 62
   1
 39
0.008
  6
CONTINUOUS
 10
10.76063
 20
4.85000
 30
 0
 11
10.83937
 21
4.85000
  0
LINE
  8
Reference_points
 62
   1
 39
0.008
  6
CONTINUOUS
 10
10.80000
 20
4.81063
 30
 0
 11
10.80000
 21
4.88937
  0
LINE
  8
Reference_points
 62
   1
 39
0.008
  6
CONTINUOUS
 10
6.48563
 20
4.82500
 30
 0
 11
6.56437
 21
4.82500
  0
LINE
  8
Reference_points
 62
   1
 39
0.008
  6
CONTINUOUS
 10
6.52500
 20
4.78563
 30
 0
 11
6.52500
 21
4.86437
  0
LINE
  8
Reference_points
 62
   1
 39
0.008
  6
CONTINUOUS
 10
13.68563
 20
4.20000
 30
 0
 11
13.76437
 21
4.20000
  0
LINE
  8
Reference_points
 62
   1
 39
0.008
  6
CONTINUOUS
 10
13.72500
 20
4.16063
 30
 0
 11
13.72500
 21
4.23937
  0
LINE
  8
Reference_points
 62
   1
 39
0.008
  6
CONTINUOUS
 10
13.68563
 20
2.40000
 30
 0
 11
13.76437
 21
2.40000
  0
LINE
  8
Reference_points
 62
   1
 39
0.008
  6
CONTINUOUS
 10
13.72500
 20
2.36063
 30
 0
 11
13.72500
 21
2.43937
  0
LINE
  8
Reference_points
 62
   1
 39
0.008
  6
CONTINUOUS
 10
16.38563
 20
4.20000
 30
 0
 11
16.46437
 21
4.20000
  0
LINE
  8
Reference_points
 62
   1
 39
0.008
  6
CONTINUOUS
 10
16.42500
 20
4.16063
 30
 0
 11
16.42500
 21
4.23937
  0
LINE
  8
Reference_points
 62
   1
 39
0.008
  6
CONTINUOUS
 10
13.68563
 20
3.30000
 30
 0
 11
13.76437
 21
3.30000
  0
LINE
  8
Reference_points
 62
   1
 39
0.008
  6
CONTINUOUS
 10
13.72500
 20
3.26063
 30
 0
 11
13.72500
 21
3.33937
  0
LINE
  8
Reference_points
 62
   1
 39
0.008
  6
CONTINUOUS
 10
13.68563
 20
1.50000
 30
 0
 11
13.76437
 21
1.50000
  0
LINE
  8
Reference_points
 62
   1
 39
0.008
  6
CONTINUOUS
 10
13.72500
 20
1.46063
 30
 0
 11
13.72500
 21
1.53937
  0
LINE
  8
Reference_points
 62
   1
 39
0.008
  6
CONTINUOUS
 10
13.33563
 20
4.62500
 30
 0
 11
13.41437
 21
4.62500
  0
LINE
  8
Reference_points
 62
   1
 39
0.008
  6
CONTINUOUS
 10
13.37500
 20
4.58563
 30
 0
 11
13.37500
 21
4.66437
  0
LINE
  8
Reference_points
 62
   1
 39
0.008
  6
CONTINUOUS
 10
13.31063
 20
3.72500
 30
 0
 11
13.38937
 21
3.72500
  0
LINE
  8
Reference_points
 62
   1
 39
0.008
  6
CONTINUOUS
 10
13.35000
 20
3.68563
 30
 0
 11
13.35000
 21
3.76437
  0
LINE
  8
Reference_points
 62
   1
 39
0.008
  6
CONTINUOUS
 10
13.33563
 20
2.82500
 30
 0
 11
13.41437
 21
2.82500
  0
LINE
  8
Reference_points
 62
   1
 39
0.008
  6
CONTINUOUS
 10
13.37500
 20
2.78563
 30
 0
 11
13.37500
 21
2.86437
  0
LINE
  8
Reference_points
 62
   1
 39
0.008
  6
CONTINUOUS
 10
13.31063
 20
1.92500
 30
 0
 11
13.38937
 21
1.92500
  0
LINE
  8
Reference_points
 62
   1
 39
0.008
  6
CONTINUOUS
 10
13.35000
 20
1.88563
 30
 0
 11
13.35000
 21
1.96437
  0
LINE
  8
Reference_points
 62
   1
 39
0.008
  6
CONTINUOUS
 10
17.16063
 20
4.62500
 30
 0
 11
17.23937
 21
4.62500
  0
LINE
  8
Reference_points
 62
   1
 39
0.008
  6
CONTINUOUS
 10
17.20000
 20
4.58563
 30
 0
 11
17.20000
 21
4.66437
  0
LINE
  8
Reference_points
 62
   1
 39
0.008
  6
CONTINUOUS
 10
14.58563
 20
4.20000
 30
 0
 11
14.66437
 21
4.20000
  0
LINE
  8
Reference_points
 62
   1
 39
0.008
  6
CONTINUOUS
 10
14.62500
 20
4.16063
 30
 0
 11
14.62500
 21
4.23937
  0
LINE
  8
Reference_points
 62
   1
 39
0.008
  6
CONTINUOUS
 10
16.03563
 20
1.92500
 30
 0
 11
16.11437
 21
1.92500
  0
LINE
  8
Reference_points
 62
   1
 39
0.008
  6
CONTINUOUS
 10
16.07500
 20
1.88563
 30
 0
 11
16.07500
 21
1.96437
  0
LINE
  8
Reference_points
 62
   1
 39
0.008
  6
CONTINUOUS
 10
14.33563
 20
4.62500
 30
 0
 11
14.41437
 21
4.62500
  0
LINE
  8
Reference_points
 62
   1
 39
0.008
  6
CONTINUOUS
 10
14.37500
 20
4.58563
 30
 0
 11
14.37500
 21
4.66437
  0
LINE
  8
Reference_points
 62
   1
 39
0.008
  6
CONTINUOUS
 10
17.08563
 20
3.72500
 30
 0
 11
17.16437
 21
3.72500
  0
LINE
  8
Reference_points
 62
   1
 39
0.008
  6
CONTINUOUS
 10
17.12500
 20
3.68563
 30
 0
 11
17.12500
 21
3.76437
  0
LINE
  8
Reference_points
 62
   1
 39
0.008
  6
CONTINUOUS
 10
17.28563
 20
1.50000
 30
 0
 11
17.36437
 21
1.50000
  0
LINE
  8
Reference_points
 62
   1
 39
0.008
  6
CONTINUOUS
 10
17.32500
 20
1.46063
 30
 0
 11
17.32500
 21
1.53937
  0
LINE
  8
Reference_points
 62
   1
 39
0.008
  6
CONTINUOUS
 10
16.38563
 20
3.30000
 30
 0
 11
16.46437
 21
3.30000
  0
LINE
  8
Reference_points
 62
   1
 39
0.008
  6
CONTINUOUS
 10
16.42500
 20
3.26063
 30
 0
 11
16.42500
 21
3.33937
  0
LINE
  8
Reference_points
 62
   1
 39
0.008
  6
CONTINUOUS
 10
15.48563
 20
3.30000
 30
 0
 11
15.56437
 21
3.30000
  0
LINE
  8
Reference_points
 62
   1
 39
0.008
  6
CONTINUOUS
 10
15.52500
 20
3.26063
 30
 0
 11
15.52500
 21
3.33937
  0
LINE
  8
Reference_points
 62
   1
 39
0.008
  6
CONTINUOUS
 10
14.58563
 20
2.40000
 30
 0
 11
14.66437
 21
2.40000
  0
LINE
  8
Reference_points
 62
   1
 39
0.008
  6
CONTINUOUS
 10
14.62500
 20
2.36063
 30
 0
 11
14.62500
 21
2.43937
  0
LINE
  8
Reference_points
 62
   1
 39
0.008
  6
CONTINUOUS
 10
15.48563
 20
2.40000
 30
 0
 11
15.56437
 21
2.40000
  0
LINE
  8
Reference_points
 62
   1
 39
0.008
  6
CONTINUOUS
 10
15.52500
 20
2.36063
 30
 0
 11
15.52500
 21
2.43937
  0
LINE
  8
Reference_points
 62
   1
 39
0.008
  6
CONTINUOUS
 10
16.38563
 20
2.40000
 30
 0
 11
16.46437
 21
2.40000
  0
LINE
  8
Reference_points
 62
   1
 39
0.008
  6
CONTINUOUS
 10
16.42500
 20
2.36063
 30
 0
 11
16.42500
 21
2.43937
  0
LINE
  8
Reference_points
 62
   1
 39
0.008
  6
CONTINUOUS
 10
14.58563
 20
1.50000
 30
 0
 11
14.66437
 21
1.50000
  0
LINE
  8
Reference_points
 62
   1
 39
0.008
  6
CONTINUOUS
 10
14.62500
 20
1.46063
 30
 0
 11
14.62500
 21
1.53937
  0
LINE
  8
Reference_points
 62
   1
 39
0.008
  6
CONTINUOUS
 10
15.48563
 20
1.50000
 30
 0
 11
15.56437
 21
1.50000
  0
LINE
  8
Reference_points
 62
   1
 39
0.008
  6
CONTINUOUS
 10
15.52500
 20
1.46063
 30
 0
 11
15.52500
 21
1.53937
  0
LINE
  8
Reference_points
 62
   1
 39
0.008
  6
CONTINUOUS
 10
16.38563
 20
1.50000
 30
 0
 11
16.46437
 21
1.50000
  0
LINE
  8
Reference_points
 62
   1
 39
0.008
  6
CONTINUOUS
 10
16.42500
 20
1.46063
 30
 0
 11
16.42500
 21
1.53937
  0
LINE
  8
Reference_points
 62
   1
 39
0.008
  6
CONTINUOUS
 10
17.11063
 20
1.92500
 30
 0
 11
17.18937
 21
1.92500
  0
LINE
  8
Reference_points
 62
   1
 39
0.008
  6
CONTINUOUS
 10
17.15000
 20
1.88563
 30
 0
 11
17.15000
 21
1.96437
  0
LINE
  8
Reference_points
 62
   1
 39
0.008
  6
CONTINUOUS
 10
17.28563
 20
2.40000
 30
 0
 11
17.36437
 21
2.40000
  0
LINE
  8
Reference_points
 62
   1
 39
0.008
  6
CONTINUOUS
 10
17.32500
 20
2.36063
 30
 0
 11
17.32500
 21
2.43937
  0
LINE
  8
Reference_points
 62
   1
 39
0.008
  6
CONTINUOUS
 10
17.28563
 20
3.30000
 30
 0
 11
17.36437
 21
3.30000
  0
LINE
  8
Reference_points
 62
   1
 39
0.008
  6
CONTINUOUS
 10
17.32500
 20
3.26063
 30
 0
 11
17.32500
 21
3.33937
  0
LINE
  8
Reference_points
 62
   1
 39
0.008
  6
CONTINUOUS
 10
17.28563
 20
4.20000
 30
 0
 11
17.36437
 21
4.20000
  0
LINE
  8
Reference_points
 62
   1
 39
0.008
  6
CONTINUOUS
 10
17.32500
 20
4.16063
 30
 0
 11
17.32500
 21
4.23937
  0
LINE
  8
Reference_points
 62
   1
 39
0.008
  6
CONTINUOUS
 10
15.48563
 20
4.20000
 30
 0
 11
15.56437
 21
4.20000
  0
LINE
  8
Reference_points
 62
   1
 39
0.008
  6
CONTINUOUS
 10
15.52500
 20
4.16063
 30
 0
 11
15.52500
 21
4.23937
  0
LINE
  8
Reference_points
 62
   1
 39
0.008
  6
CONTINUOUS
 10
15.28563
 20
4.62500
 30
 0
 11
15.36437
 21
4.62500
  0
LINE
  8
Reference_points
 62
   1
 39
0.008
  6
CONTINUOUS
 10
15.32500
 20
4.58563
 30
 0
 11
15.32500
 21
4.66437
  0
LINE
  8
Reference_points
 62
   1
 39
0.008
  6
CONTINUOUS
 10
16.23563
 20
4.62500
 30
 0
 11
16.31437
 21
4.62500
  0
LINE
  8
Reference_points
 62
   1
 39
0.008
  6
CONTINUOUS
 10
16.27500
 20
4.58563
 30
 0
 11
16.27500
 21
4.66437
  0
LINE
  8
Reference_points
 62
   1
 39
0.008
  6
CONTINUOUS
 10
17.13563
 20
2.82500
 30
 0
 11
17.21437
 21
2.82500
  0
LINE
  8
Reference_points
 62
   1
 39
0.008
  6
CONTINUOUS
 10
17.17500
 20
2.78563
 30
 0
 11
17.17500
 21
2.86437
  0
LINE
  8
Reference_points
 62
   1
 39
0.008
  6
CONTINUOUS
 10
9.91063
 20
0.70000
 30
 0
 11
9.98937
 21
0.70000
  0
LINE
  8
Reference_points
 62
   1
 39
0.008
  6
CONTINUOUS
 10
9.95000
 20
0.66063
 30
 0
 11
9.95000
 21
0.73937
  0
LINE
  8
Reference_points
 62
   1
 39
0.008
  6
CONTINUOUS
 10
6.66063
 20
0.70000
 30
 0
 11
6.73937
 21
0.70000
  0
LINE
  8
Reference_points
 62
   1
 39
0.008
  6
CONTINUOUS
 10
6.70000
 20
0.66063
 30
 0
 11
6.70000
 21
0.73937
  0
LINE
  8
Reference_points
 62
   1
 39
0.008
  6
CONTINUOUS
 10
11.83563
 20
2.95000
 30
 0
 11
11.91437
 21
2.95000
  0
LINE
  8
Reference_points
 62
   1
 39
0.008
  6
CONTINUOUS
 10
11.87500
 20
2.91063
 30
 0
 11
11.87500
 21
2.98937
  0
LINE
  8
Reference_points
 62
   1
 39
0.008
  6
CONTINUOUS
 10
11.83563
 20
2.25000
 30
 0
 11
11.91437
 21
2.25000
  0
LINE
  8
Reference_points
 62
   1
 39
0.008
  6
CONTINUOUS
 10
11.87500
 20
2.21063
 30
 0
 11
11.87500
 21
2.28937
  0
LINE
  8
Reference_points
 62
   1
 39
0.008
  6
CONTINUOUS
 10
11.83563
 20
1.55000
 30
 0
 11
11.91437
 21
1.55000
  0
LINE
  8
Reference_points
 62
   1
 39
0.008
  6
CONTINUOUS
 10
11.87500
 20
1.51063
 30
 0
 11
11.87500
 21
1.58937
  0
LINE
  8
Reference_points
 62
   1
 39
0.008
  6
CONTINUOUS
 10
11.68563
 20
1.85000
 30
 0
 11
11.76437
 21
1.85000
  0
LINE
  8
Reference_points
 62
   1
 39
0.008
  6
CONTINUOUS
 10
11.72500
 20
1.81063
 30
 0
 11
11.72500
 21
1.88937
  0
LINE
  8
Reference_points
 62
   1
 39
0.008
  6
CONTINUOUS
 10
10.41063
 20
2.55000
 30
 0
 11
10.48937
 21
2.55000
  0
LINE
  8
Reference_points
 62
   1
 39
0.008
  6
CONTINUOUS
 10
10.45000
 20
2.51063
 30
 0
 11
10.45000
 21
2.58937
  0
LINE
  8
Reference_points
 62
   1
 39
0.008
  6
CONTINUOUS
 10
11.71063
 20
2.55000
 30
 0
 11
11.78937
 21
2.55000
  0
LINE
  8
Reference_points
 62
   1
 39
0.008
  6
CONTINUOUS
 10
11.75000
 20
2.51063
 30
 0
 11
11.75000
 21
2.58937
  0
LINE
  8
Reference_points
 62
   1
 39
0.008
  6
CONTINUOUS
 10
11.71063
 20
3.27500
 30
 0
 11
11.78937
 21
3.27500
  0
LINE
  8
Reference_points
 62
   1
 39
0.008
  6
CONTINUOUS
 10
11.75000
 20
3.23563
 30
 0
 11
11.75000
 21
3.31437
  0
LINE
  8
Reference_points
 62
   1
 39
0.008
  6
CONTINUOUS
 10
0.31496
 20
1.48425
 30
 0
 11
0.39370
 21
1.48425
  0
LINE
  8
Reference_points
 62
   1
 39
0.008
  6
CONTINUOUS
 10
0.35433
 20
1.44488
 30
 0
 11
0.35433
 21
1.52362
  0
LINE
  8
Reference_points
 62
   1
 39
0.008
  6
CONTINUOUS
 10
0.31496
 20
3.73228
 30
 0
 11
0.39370
 21
3.73228
  0
LINE
  8
Reference_points
 62
   1
 39
0.008
  6
CONTINUOUS
 10
0.35433
 20
3.69291
 30
 0
 11
0.35433
 21
3.77165
  0
LINE
  8
Reference_points
 62
   1
 39
0.008
  6
CONTINUOUS
 10
18.62205
 20
1.48425
 30
 0
 11
18.70079
 21
1.48425
  0
LINE
  8
Reference_points
 62
   1
 39
0.008
  6
CONTINUOUS
 10
18.66142
 20
1.44488
 30
 0
 11
18.66142
 21
1.52362
  0
LINE
  8
Reference_points
 62
   1
 39
0.008
  6
CONTINUOUS
 10
18.62205
 20
3.73228
 30
 0
 11
18.70079
 21
3.73228
  0
LINE
  8
Reference_points
 62
   1
 39
0.008
  6
CONTINUOUS
 10
18.66142
 20
3.69291
 30
 0
 11
18.66142
 21
3.77165
  0
LINE
  8
Reference_points
 62
   1
 39
0.008
  6
CONTINUOUS
 10
17.68563
 20
1.25000
 30
 0
 11
17.76437
 21
1.25000
  0
LINE
  8
Reference_points
 62
   1
 39
0.008
  6
CONTINUOUS
 10
17.72500
 20
1.21063
 30
 0
 11
17.72500
 21
1.28937
  0
LINE
  8
Reference_points
 62
   1
 39
0.008
  6
CONTINUOUS
 10
17.68563
 20
4.55000
 30
 0
 11
17.76437
 21
4.55000
  0
LINE
  8
Reference_points
 62
   1
 39
0.008
  6
CONTINUOUS
 10
17.72500
 20
4.51063
 30
 0
 11
17.72500
 21
4.58937
  0
LINE
  8
Reference_points
 62
   1
 39
0.008
  6
CONTINUOUS
 10
2.58563
 20
1.25000
 30
 0
 11
2.66437
 21
1.25000
  0
LINE
  8
Reference_points
 62
   1
 39
0.008
  6
CONTINUOUS
 10
2.62500
 20
1.21063
 30
 0
 11
2.62500
 21
1.28937
  0
LINE
  8
Reference_points
 62
   1
 39
0.008
  6
CONTINUOUS
 10
2.58563
 20
4.55000
 30
 0
 11
2.66437
 21
4.55000
  0
LINE
  8
Reference_points
 62
   1
 39
0.008
  6
CONTINUOUS
 10
2.62500
 20
4.51063
 30
 0
 11
2.62500
 21
4.58937
  0
LINE
  8
Reference_points
 62
   1
 39
0.008
  6
CONTINUOUS
 10
6.08563
 20
1.25000
 30
 0
 11
6.16437
 21
1.25000
  0
LINE
  8
Reference_points
 62
   1
 39
0.008
  6
CONTINUOUS
 10
6.12500
 20
1.21063
 30
 0
 11
6.12500
 21
1.28937
  0
LINE
  8
Reference_points
 62
   1
 39
0.008
  6
CONTINUOUS
 10
6.08563
 20
4.55000
 30
 0
 11
6.16437
 21
4.55000
  0
LINE
  8
Reference_points
 62
   1
 39
0.008
  6
CONTINUOUS
 10
6.12500
 20
4.51063
 30
 0
 11
6.12500
 21
4.58937
  0
LINE
  8
Reference_points
 62
   1
 39
0.008
  6
CONTINUOUS
 10
9.58563
 20
1.25000
 30
 0
 11
9.66437
 21
1.25000
  0
LINE
  8
Reference_points
 62
   1
 39
0.008
  6
CONTINUOUS
 10
9.62500
 20
1.21063
 30
 0
 11
9.62500
 21
1.28937
  0
LINE
  8
Reference_points
 62
   1
 39
0.008
  6
CONTINUOUS
 10
9.58563
 20
4.55000
 30
 0
 11
9.66437
 21
4.55000
  0
LINE
  8
Reference_points
 62
   1
 39
0.008
  6
CONTINUOUS
 10
9.62500
 20
4.51063
 30
 0
 11
9.62500
 21
4.58937
  0
LINE
  8
Reference_points
 62
   1
 39
0.008
  6
CONTINUOUS
 10
13.18563
 20
1.25000
 30
 0
 11
13.26437
 21
1.25000
  0
LINE
  8
Reference_points
 62
   1
 39
0.008
  6
CONTINUOUS
 10
13.22500
 20
1.21063
 30
 0
 11
13.22500
 21
1.28937
  0
LINE
  8
Reference_points
 62
   1
 39
0.008
  6
CONTINUOUS
 10
13.18563
 20
4.55000
 30
 0
 11
13.26437
 21
4.55000
  0
LINE
  8
Reference_points
 62
   1
 39
0.008
  6
CONTINUOUS
 10
13.22500
 20
4.51063
 30
 0
 11
13.22500
 21
4.58937
  0
LINE
  8
Reference_points
 62
   1
 39
0.008
  6
CONTINUOUS
 10
9.43559
 20
2.95004
 30
 0
 11
9.51433
 21
2.95004
  0
LINE
  8
Reference_points
 62
   1
 39
0.008
  6
CONTINUOUS
 10
9.47496
 20
2.91067
 30
 0
 11
9.47496
 21
2.98941
  0
LINE
  8
Reference_points
 62
   1
 39
0.008
  6
CONTINUOUS
 10
10.63563
 20
2.95000
 30
 0
 11
10.71437
 21
2.95000
  0
LINE
  8
Reference_points
 62
   1
 39
0.008
  6
CONTINUOUS
 10
10.67500
 20
2.91063
 30
 0
 11
10.67500
 21
2.98937
  0
LINE
  8
Reference_points
 62
   1
 39
0.008
  6
CONTINUOUS
 10
10.63563
 20
2.25000
 30
 0
 11
10.71437
 21
2.25000
  0
LINE
  8
Reference_points
 62
   1
 39
0.008
  6
CONTINUOUS
 10
10.67500
 20
2.21063
 30
 0
 11
10.67500
 21
2.28937
  0
LINE
  8
Reference_points
 62
   1
 39
0.008
  6
CONTINUOUS
 10
9.43559
 20
2.25004
 30
 0
 11
9.51433
 21
2.25004
  0
LINE
  8
Reference_points
 62
   1
 39
0.008
  6
CONTINUOUS
 10
9.47496
 20
2.21067
 30
 0
 11
9.47496
 21
2.28941
  0
LINE
  8
Reference_points
 62
   1
 39
0.008
  6
CONTINUOUS
 10
10.63563
 20
1.55000
 30
 0
 11
10.71437
 21
1.55000
  0
LINE
  8
Reference_points
 62
   1
 39
0.008
  6
CONTINUOUS
 10
10.67500
 20
1.51063
 30
 0
 11
10.67500
 21
1.58937
  0
LINE
  8
Reference_points
 62
   1
 39
0.008
  6
CONTINUOUS
 10
10.51063
 20
1.85000
 30
 0
 11
10.58937
 21
1.85000
  0
LINE
  8
Reference_points
 62
   1
 39
0.008
  6
CONTINUOUS
 10
10.55000
 20
1.81063
 30
 0
 11
10.55000
 21
1.88937
  0
LINE
  8
Reference_points
 62
   1
 39
0.008
  6
CONTINUOUS
 10
9.23559
 20
2.55004
 30
 0
 11
9.31433
 21
2.55004
  0
LINE
  8
Reference_points
 62
   1
 39
0.008
  6
CONTINUOUS
 10
9.27496
 20
2.51067
 30
 0
 11
9.27496
 21
2.58941
  0
LINE
  8
Reference_points
 62
   1
 39
0.008
  6
CONTINUOUS
 10
9.26059
 20
3.27504
 30
 0
 11
9.33933
 21
3.27504
  0
LINE
  8
Reference_points
 62
   1
 39
0.008
  6
CONTINUOUS
 10
9.29996
 20
3.23567
 30
 0
 11
9.29996
 21
3.31441
  0
LINE
  8
Reference_points
 62
   1
 39
0.008
  6
CONTINUOUS
 10
10.28563
 20
3.27500
 30
 0
 11
10.36437
 21
3.27500
  0
LINE
  8
Reference_points
 62
   1
 39
0.008
  6
CONTINUOUS
 10
10.32500
 20
3.23563
 30
 0
 11
10.32500
 21
3.31437
  0
ENDSEC
  0
EOF
