G75*
%MOIN*%
%OFA0B0*%
%FSLAX24Y24*%
%IPPOS*%
%LPD*%
%AMOC8*
5,1,8,0,0,1.08239X$1,22.5*
%
%ADD10C,0.0170*%
%ADD11OC8,0.0560*%
%ADD12OC8,0.0520*%
%ADD13R,0.0157X0.0709*%
%ADD14R,0.0709X0.0157*%
%ADD15OC8,0.0630*%
%ADD16OC8,0.0600*%
%ADD17OC8,0.0554*%
%ADD18C,0.0530*%
%ADD19C,0.0265*%
%ADD20OC8,0.0700*%
%ADD21OC8,0.0440*%
%ADD22C,0.0120*%
%ADD23C,0.0360*%
D10*
X025313Y031858D02*
X025225Y031946D01*
X025313Y031858D02*
X025490Y031858D01*
X025579Y031946D01*
X025579Y032035D01*
X025490Y032123D01*
X025402Y032123D01*
X025490Y032123D02*
X025579Y032211D01*
X025579Y032300D01*
X025490Y032388D01*
X025313Y032388D01*
X025225Y032300D01*
X025870Y031858D02*
X026223Y032388D01*
X026514Y032211D02*
X026691Y032388D01*
X026691Y031858D01*
X026514Y031858D02*
X026868Y031858D01*
X027159Y031946D02*
X027247Y031858D01*
X027424Y031858D01*
X027512Y031946D01*
X027512Y032123D01*
X027424Y032211D01*
X027335Y032211D01*
X027159Y032123D01*
X027159Y032388D01*
X027512Y032388D01*
X027803Y031858D02*
X028157Y032388D01*
X028448Y032300D02*
X028536Y032388D01*
X028713Y032388D01*
X028801Y032300D01*
X028801Y032211D01*
X028448Y031858D01*
X028801Y031858D01*
X029092Y031946D02*
X029446Y032300D01*
X029446Y031946D01*
X029358Y031858D01*
X029181Y031858D01*
X029092Y031946D01*
X029092Y032300D01*
X029181Y032388D01*
X029358Y032388D01*
X029446Y032300D01*
X029737Y032211D02*
X029914Y032388D01*
X029914Y031858D01*
X030090Y031858D02*
X029737Y031858D01*
X030381Y031946D02*
X030470Y031858D01*
X030647Y031858D01*
X030735Y031946D01*
X030735Y032035D01*
X030647Y032123D01*
X030381Y032123D01*
X030381Y031946D01*
X030381Y032123D02*
X030558Y032300D01*
X030735Y032388D01*
X031670Y032388D02*
X031670Y032123D01*
X031847Y032211D01*
X031936Y032211D01*
X032024Y032123D01*
X032024Y031946D01*
X031936Y031858D01*
X031759Y031858D01*
X031670Y031946D01*
X031670Y032388D02*
X032024Y032388D01*
X032315Y032211D02*
X032315Y032123D01*
X032403Y032123D01*
X032403Y032211D01*
X032315Y032211D01*
X032315Y031946D02*
X032315Y031858D01*
X032403Y031858D01*
X032403Y031946D01*
X032315Y031946D01*
X032637Y031858D02*
X032991Y031858D01*
X032814Y031858D02*
X032814Y032388D01*
X032637Y032211D01*
X033282Y032123D02*
X033547Y032123D01*
X033636Y032035D01*
X033636Y031946D01*
X033547Y031858D01*
X033370Y031858D01*
X033282Y031946D01*
X033282Y032123D01*
X033459Y032300D01*
X033636Y032388D01*
X033926Y032211D02*
X033926Y032123D01*
X034015Y032123D01*
X034015Y032211D01*
X033926Y032211D01*
X033926Y031946D02*
X033926Y031858D01*
X034015Y031858D01*
X034015Y031946D01*
X033926Y031946D01*
X034249Y031946D02*
X034337Y031858D01*
X034514Y031858D01*
X034602Y031946D01*
X034602Y032123D01*
X034514Y032211D01*
X034426Y032211D01*
X034249Y032123D01*
X034249Y032388D01*
X034602Y032388D01*
X034893Y032300D02*
X034982Y032388D01*
X035158Y032388D01*
X035247Y032300D01*
X035247Y032211D01*
X035158Y032123D01*
X035247Y032035D01*
X035247Y031946D01*
X035158Y031858D01*
X034982Y031858D01*
X034893Y031946D01*
X035070Y032123D02*
X035158Y032123D01*
X036182Y032035D02*
X036448Y032035D01*
X036536Y032123D01*
X036536Y032300D01*
X036448Y032388D01*
X036182Y032388D01*
X036182Y031858D01*
X036827Y031858D02*
X036827Y032388D01*
X037004Y032211D01*
X037181Y032388D01*
X037181Y031858D01*
D11*
X045140Y039773D03*
X046140Y039773D03*
X049140Y039773D03*
X050140Y039773D03*
X042140Y052273D03*
X042140Y055273D03*
X044140Y062773D03*
X044140Y063773D03*
X045140Y063773D03*
X045140Y062773D03*
X045140Y064773D03*
X045140Y065773D03*
X045140Y066773D03*
X044140Y066773D03*
X044140Y065773D03*
X044140Y064773D03*
X045140Y069773D03*
X046140Y069773D03*
X049140Y069773D03*
X050140Y069773D03*
X039140Y069773D03*
X038140Y069773D03*
X036140Y069773D03*
X035140Y069773D03*
X033140Y069773D03*
X032140Y069773D03*
X030140Y069773D03*
X029140Y069773D03*
X027140Y069773D03*
X026140Y069773D03*
X024140Y069773D03*
X023140Y069773D03*
X017140Y069773D03*
X016140Y069773D03*
X013140Y069773D03*
X012140Y069773D03*
X008140Y069773D03*
X007140Y069773D03*
X004140Y069773D03*
X003140Y069773D03*
X009140Y064273D03*
X010140Y064273D03*
X010140Y063273D03*
X009140Y063273D03*
X009140Y062273D03*
X010140Y062273D03*
X010140Y061273D03*
X009140Y061273D03*
X009140Y060273D03*
X010140Y060273D03*
X010140Y059273D03*
X009140Y059273D03*
X009140Y058273D03*
X010140Y058273D03*
X010140Y057273D03*
X009140Y057273D03*
X009140Y056273D03*
X010140Y056273D03*
X010140Y055273D03*
X009140Y055273D03*
X009140Y054273D03*
X010140Y054273D03*
X010140Y053273D03*
X009140Y053273D03*
X009140Y052273D03*
X010140Y052273D03*
X010140Y051273D03*
X009140Y051273D03*
X009140Y050273D03*
X010140Y050273D03*
X010140Y049273D03*
X009140Y049273D03*
X009140Y048273D03*
X010140Y048273D03*
X010140Y047273D03*
X009140Y047273D03*
X009140Y046273D03*
X010140Y046273D03*
X010140Y045273D03*
X009140Y045273D03*
X008140Y039773D03*
X007140Y039773D03*
X004140Y039773D03*
X003140Y039773D03*
X012140Y039773D03*
X013140Y039773D03*
X016140Y039773D03*
X017140Y039773D03*
X017140Y029773D03*
X016140Y029773D03*
X013140Y029773D03*
X012140Y029773D03*
X012140Y019773D03*
X013140Y019773D03*
X016140Y019773D03*
X017140Y019773D03*
X008140Y019773D03*
X007140Y019773D03*
X004140Y019773D03*
X003140Y019773D03*
X003140Y009773D03*
X004140Y009773D03*
X007140Y009773D03*
X008140Y009773D03*
X012140Y009773D03*
X013140Y009773D03*
X016140Y009773D03*
X017140Y009773D03*
X045140Y009773D03*
X046140Y009773D03*
X049140Y009773D03*
X050140Y009773D03*
D12*
X039140Y021773D03*
X037140Y021773D03*
X037140Y022773D03*
X035140Y022773D03*
X024140Y034273D03*
X023140Y035273D03*
X022140Y036273D03*
X022140Y038273D03*
X023140Y039273D03*
X024140Y038273D03*
X026140Y038273D03*
X027140Y039273D03*
X027140Y037273D03*
X029140Y037273D03*
X029140Y041273D03*
X027140Y043273D03*
X027140Y045273D03*
X026140Y046273D03*
X027140Y047273D03*
X027140Y048273D03*
X028140Y049273D03*
X024140Y051273D03*
X023140Y051273D03*
X022140Y051273D03*
X021140Y051273D03*
X020140Y051273D03*
X022140Y052273D03*
X026140Y052273D03*
X027140Y052273D03*
X028140Y052273D03*
X032140Y049273D03*
X034140Y051273D03*
X033140Y052273D03*
X035140Y052273D03*
X039140Y051273D03*
X040140Y048273D03*
X042140Y048273D03*
X042140Y046273D03*
X043140Y046273D03*
X043140Y045273D03*
X046140Y045273D03*
X046140Y044273D03*
X046140Y043273D03*
X046140Y042273D03*
X046140Y041273D03*
X049140Y041273D03*
X049140Y042273D03*
X049140Y043273D03*
X049140Y044273D03*
X049140Y045273D03*
X049140Y046273D03*
X049140Y047273D03*
X049140Y048273D03*
X050140Y049273D03*
X051140Y050273D03*
X049140Y051273D03*
X049140Y052273D03*
X049140Y053273D03*
X049140Y054273D03*
X050140Y053273D03*
X051140Y054273D03*
X049140Y055273D03*
X049140Y056273D03*
X049140Y057273D03*
X049140Y058273D03*
X048640Y059773D03*
X046640Y059773D03*
X046140Y058273D03*
X046140Y057273D03*
X046140Y056273D03*
X045140Y056273D03*
X046140Y055273D03*
X046140Y054273D03*
X046140Y053273D03*
X046140Y052273D03*
X046140Y051273D03*
X046640Y049773D03*
X046140Y048273D03*
X046140Y047273D03*
X046140Y046273D03*
X048640Y049773D03*
X043140Y050273D03*
X039140Y055273D03*
X041140Y056273D03*
X038140Y059773D03*
X037140Y059773D03*
X036140Y059773D03*
X033140Y064273D03*
X033140Y065273D03*
X033140Y066273D03*
X033140Y067273D03*
X033140Y068273D03*
X029140Y068273D03*
X029140Y067273D03*
X029140Y066273D03*
X029140Y065273D03*
X029140Y064273D03*
X029140Y063273D03*
X026140Y062273D03*
X023140Y063273D03*
X023140Y064273D03*
X023140Y065273D03*
X023140Y066273D03*
X022140Y067273D03*
X022140Y069273D03*
X027140Y066273D03*
X022640Y061273D03*
X020640Y060273D03*
X018640Y060273D03*
X018640Y059273D03*
X017140Y058273D03*
X016140Y057273D03*
X017140Y056273D03*
X016140Y055273D03*
X017140Y054273D03*
X016140Y053273D03*
X017140Y052273D03*
X016140Y051273D03*
X013140Y052273D03*
X012140Y053273D03*
X013140Y054273D03*
X012140Y055273D03*
X013140Y056273D03*
X012140Y057273D03*
X013140Y058273D03*
X013140Y061273D03*
X012140Y062273D03*
X013140Y063273D03*
X012140Y064273D03*
X013140Y065273D03*
X016140Y064273D03*
X017140Y065273D03*
X019140Y065273D03*
X019140Y064273D03*
X019140Y063273D03*
X017140Y063273D03*
X016140Y062273D03*
X017140Y061273D03*
X018640Y061273D03*
X021140Y058273D03*
X022640Y059273D03*
X025140Y058273D03*
X026140Y058273D03*
X027140Y059273D03*
X026140Y060273D03*
X029140Y059273D03*
X030140Y060273D03*
X027140Y057273D03*
X028140Y056273D03*
X030140Y056273D03*
X022640Y056273D03*
X018640Y056273D03*
X012140Y051273D03*
X013140Y048273D03*
X012140Y047273D03*
X013140Y046273D03*
X012140Y045273D03*
X016140Y045273D03*
X017140Y046273D03*
X016140Y047273D03*
X017140Y048273D03*
X020140Y047273D03*
X021140Y047273D03*
X022140Y047273D03*
X023140Y047273D03*
X024140Y047273D03*
X021140Y046273D03*
X020140Y045273D03*
X021140Y044273D03*
X023140Y043273D03*
X021140Y042273D03*
X020140Y041273D03*
X021140Y040273D03*
X016140Y038273D03*
X016140Y037273D03*
X016140Y036273D03*
X016140Y035273D03*
X016140Y034273D03*
X016140Y033273D03*
X016140Y032273D03*
X016140Y031273D03*
X013140Y031273D03*
X013140Y032273D03*
X013140Y033273D03*
X013140Y034273D03*
X013140Y035273D03*
X013140Y036273D03*
X013140Y037273D03*
X013140Y038273D03*
X030140Y045273D03*
X032140Y045273D03*
X033140Y046273D03*
X034140Y045273D03*
X035140Y048273D03*
X040140Y044273D03*
X043140Y041273D03*
X050140Y062273D03*
X050140Y066273D03*
X007140Y018273D03*
X007140Y017273D03*
X007140Y016273D03*
X007140Y015273D03*
X007140Y014273D03*
X007140Y013273D03*
X007140Y012273D03*
X007140Y011273D03*
X004140Y011273D03*
X004140Y012273D03*
X004140Y013273D03*
X004140Y014273D03*
X004140Y015273D03*
X004140Y016273D03*
X004140Y017273D03*
X004140Y018273D03*
D13*
X033929Y020462D03*
X034185Y020462D03*
X034441Y020462D03*
X034697Y020462D03*
X034953Y020462D03*
X035209Y020462D03*
X035465Y020462D03*
X035721Y020462D03*
X035977Y020462D03*
X036233Y020462D03*
X036488Y020462D03*
X036744Y020462D03*
X037000Y020462D03*
X037256Y020462D03*
X037512Y020462D03*
X037768Y020462D03*
X038024Y020462D03*
X038280Y020462D03*
X038536Y020462D03*
X038792Y020462D03*
X039047Y020462D03*
X039303Y020462D03*
X039559Y020462D03*
X039815Y020462D03*
X040071Y020462D03*
X040327Y020462D03*
X040583Y020462D03*
X040839Y020462D03*
X041095Y020462D03*
X041351Y020462D03*
X041351Y014084D03*
X041095Y014084D03*
X040839Y014084D03*
X040583Y014084D03*
X040327Y014084D03*
X040071Y014084D03*
X039815Y014084D03*
X039559Y014084D03*
X039303Y014084D03*
X039047Y014084D03*
X038792Y014084D03*
X038536Y014084D03*
X038280Y014084D03*
X038024Y014084D03*
X037768Y014084D03*
X037512Y014084D03*
X037256Y014084D03*
X037000Y014084D03*
X036744Y014084D03*
X036488Y014084D03*
X036233Y014084D03*
X035977Y014084D03*
X035721Y014084D03*
X035465Y014084D03*
X035209Y014084D03*
X034953Y014084D03*
X034697Y014084D03*
X034441Y014084D03*
X034185Y014084D03*
X033929Y014084D03*
D14*
X033270Y014842D03*
X033270Y015098D03*
X033270Y015354D03*
X033270Y015609D03*
X033270Y015865D03*
X033270Y016121D03*
X033270Y016377D03*
X033270Y016633D03*
X033270Y016889D03*
X033270Y017145D03*
X033270Y017401D03*
X033270Y017657D03*
X033270Y017913D03*
X033270Y018169D03*
X033270Y018424D03*
X033270Y018680D03*
X033270Y018936D03*
X033270Y019192D03*
X033270Y019448D03*
X033270Y019704D03*
X042010Y019704D03*
X042010Y019448D03*
X042010Y019192D03*
X042010Y018936D03*
X042010Y018680D03*
X042010Y018424D03*
X042010Y018169D03*
X042010Y017913D03*
X042010Y017657D03*
X042010Y017401D03*
X042010Y017145D03*
X042010Y016889D03*
X042010Y016633D03*
X042010Y016377D03*
X042010Y016121D03*
X042010Y015865D03*
X042010Y015609D03*
X042010Y015354D03*
X042010Y015098D03*
X042010Y014842D03*
D15*
X001765Y002273D03*
X003015Y002273D03*
X004265Y002273D03*
X005515Y002273D03*
X006765Y002273D03*
X008015Y002273D03*
X009265Y002273D03*
X010515Y002273D03*
X011765Y002273D03*
X013015Y002273D03*
X016765Y002273D03*
X016765Y004273D03*
X020515Y004273D03*
X021765Y004273D03*
X023015Y004273D03*
X021765Y002273D03*
X020515Y002273D03*
X031765Y002273D03*
X033015Y002273D03*
X034265Y002273D03*
X035515Y002273D03*
X036765Y002273D03*
X036765Y004273D03*
X039265Y002273D03*
X041765Y004273D03*
X043015Y004273D03*
X044265Y004273D03*
X044265Y002273D03*
X043015Y002273D03*
X045515Y002273D03*
X046765Y002273D03*
X048015Y002273D03*
X049265Y002273D03*
X049265Y004273D03*
X050515Y004273D03*
X048015Y004273D03*
X031765Y004273D03*
X009265Y004273D03*
X004390Y004273D03*
X041140Y024773D03*
X042140Y024773D03*
X042140Y028773D03*
X041140Y028773D03*
X041140Y032773D03*
X042140Y032773D03*
D16*
X045140Y032273D03*
X050140Y028273D03*
X051140Y028273D03*
X051140Y027273D03*
X050140Y027273D03*
X050140Y026273D03*
X051140Y026273D03*
X051140Y025273D03*
X050140Y025273D03*
X050140Y024273D03*
X051140Y024273D03*
X051140Y023273D03*
X050140Y023273D03*
X050140Y022273D03*
X051140Y022273D03*
X051140Y021273D03*
X050140Y021273D03*
X050140Y018273D03*
X051140Y018273D03*
X051140Y017273D03*
X050140Y017273D03*
X050140Y016273D03*
X051140Y016273D03*
X051140Y015273D03*
X050140Y015273D03*
X050140Y014273D03*
X051140Y014273D03*
X051140Y013273D03*
X050140Y013273D03*
X050140Y012273D03*
X051140Y012273D03*
X051140Y011273D03*
X050140Y011273D03*
X045140Y024273D03*
X041640Y041273D03*
X041640Y045273D03*
X040640Y050273D03*
X040640Y054273D03*
X047640Y060773D03*
X047640Y068773D03*
X004140Y032273D03*
X004140Y024273D03*
D17*
X041140Y060273D03*
X042140Y064273D03*
X041140Y067273D03*
D18*
X018640Y058523D03*
X018640Y058023D03*
X018640Y041023D03*
X018640Y040523D03*
D19*
X017007Y035906D02*
X017007Y035640D01*
X017007Y035906D02*
X017273Y035906D01*
X017273Y035640D01*
X017007Y035640D01*
X017007Y035904D02*
X017273Y035904D01*
X017007Y035406D02*
X017007Y035140D01*
X017007Y035406D02*
X017273Y035406D01*
X017273Y035140D01*
X017007Y035140D01*
X017007Y035404D02*
X017273Y035404D01*
X017007Y032406D02*
X017007Y032140D01*
X017007Y032406D02*
X017273Y032406D01*
X017273Y032140D01*
X017007Y032140D01*
X017007Y032404D02*
X017273Y032404D01*
X017007Y031906D02*
X017007Y031640D01*
X017007Y031906D02*
X017273Y031906D01*
X017273Y031640D01*
X017007Y031640D01*
X017007Y031904D02*
X017273Y031904D01*
X011507Y032640D02*
X011507Y032906D01*
X011773Y032906D01*
X011773Y032640D01*
X011507Y032640D01*
X011507Y032904D02*
X011773Y032904D01*
X011507Y033140D02*
X011507Y033406D01*
X011773Y033406D01*
X011773Y033140D01*
X011507Y033140D01*
X011507Y033404D02*
X011773Y033404D01*
X011507Y036140D02*
X011507Y036406D01*
X011773Y036406D01*
X011773Y036140D01*
X011507Y036140D01*
X011507Y036404D02*
X011773Y036404D01*
X011507Y036640D02*
X011507Y036906D01*
X011773Y036906D01*
X011773Y036640D01*
X011507Y036640D01*
X011507Y036904D02*
X011773Y036904D01*
D20*
X036140Y061773D03*
X038140Y061773D03*
D21*
X041140Y061773D03*
X042140Y064773D03*
X041140Y066773D03*
D22*
X041140Y061773D02*
X041140Y060273D01*
X038140Y059773D02*
X041265Y056648D01*
X043140Y056648D01*
X046140Y053648D01*
X048765Y053648D01*
X049140Y053273D01*
X050140Y053273D01*
X051515Y053273D01*
X051515Y033523D01*
X039390Y021398D01*
X039265Y021398D01*
X039265Y020523D01*
X039303Y020462D01*
X039047Y020462D02*
X039015Y020398D01*
X039015Y017148D01*
X040265Y017148D01*
X040640Y017523D02*
X041140Y017523D01*
X040890Y017273D01*
X040890Y015648D01*
X038890Y015648D01*
X038890Y016523D01*
X035640Y016523D01*
X035265Y016148D01*
X035015Y016148D01*
X035015Y014148D01*
X034953Y014084D01*
X035209Y014084D02*
X035265Y014023D01*
X035265Y013398D01*
X034890Y013398D01*
X034640Y013648D02*
X032265Y011273D01*
X007765Y011273D01*
X007390Y010898D01*
X007140Y010898D01*
X001765Y005523D01*
X001765Y002273D01*
X007265Y010523D02*
X051015Y010523D01*
X051640Y011148D01*
X051640Y013773D01*
X051265Y013773D01*
X051640Y014148D01*
X051640Y018273D01*
X051140Y018273D01*
X050140Y018273D01*
X050140Y017273D02*
X051140Y017273D01*
X050140Y017273D02*
X048515Y015648D01*
X042015Y015648D01*
X042010Y015609D01*
X042015Y015398D02*
X042010Y015354D01*
X042015Y015398D02*
X049265Y015398D01*
X050140Y016273D01*
X051140Y016273D01*
X051140Y015273D02*
X050140Y015273D01*
X050015Y015148D01*
X042015Y015148D01*
X042010Y015098D01*
X042010Y014842D02*
X042015Y014773D01*
X042515Y014273D01*
X050140Y014273D01*
X051140Y014273D01*
X051265Y013773D02*
X042765Y013773D01*
X042015Y014523D01*
X041515Y014523D01*
X041515Y015773D01*
X041640Y015898D01*
X041890Y015898D01*
X042010Y015865D01*
X042010Y016121D02*
X041890Y016148D01*
X041640Y016148D01*
X041140Y015648D01*
X040890Y015648D01*
X040015Y016523D02*
X039640Y016898D01*
X038515Y016898D01*
X038515Y020398D01*
X038536Y020462D01*
X038765Y020523D02*
X038792Y020462D01*
X038765Y020523D02*
X038765Y021773D01*
X039140Y021773D01*
X040015Y021148D02*
X040640Y021148D01*
X040640Y020523D01*
X040583Y020462D01*
X040839Y020462D02*
X040890Y020398D01*
X040890Y020148D01*
X040640Y019898D01*
X040640Y017523D01*
X041140Y017523D02*
X041390Y017523D01*
X041515Y017398D01*
X041890Y017398D01*
X042010Y017401D01*
X042015Y017648D02*
X042010Y017657D01*
X042015Y017648D02*
X043515Y017648D01*
X050140Y024273D01*
X051140Y024273D01*
X051140Y025273D02*
X050140Y025273D01*
X043015Y018148D01*
X042015Y018148D01*
X042010Y018169D01*
X042010Y018424D02*
X041890Y018398D01*
X041265Y018398D01*
X042015Y018648D02*
X042010Y018680D01*
X042015Y018648D02*
X042515Y018648D01*
X050140Y026273D01*
X051140Y026273D01*
X051140Y027273D02*
X050140Y027273D01*
X049640Y027273D01*
X049640Y026148D01*
X042390Y018898D01*
X042015Y018898D01*
X042010Y018936D01*
X041890Y019148D02*
X042010Y019192D01*
X041890Y019148D02*
X041640Y019148D01*
X041015Y019773D01*
X040265Y019773D02*
X040265Y020398D01*
X040327Y020462D01*
X042015Y020773D02*
X042015Y019773D01*
X042010Y019704D01*
X042010Y019448D02*
X042015Y019398D01*
X042390Y019398D01*
X042765Y019773D01*
X043390Y017398D02*
X044265Y017398D01*
X050140Y023273D01*
X051140Y023273D01*
X051140Y022273D02*
X050140Y022273D01*
X044515Y016648D01*
X042015Y016648D01*
X042010Y016633D01*
X042015Y016398D02*
X042010Y016377D01*
X042015Y016398D02*
X045265Y016398D01*
X050140Y021273D01*
X051140Y021273D01*
X043390Y017398D02*
X042890Y016898D01*
X042015Y016898D01*
X042010Y016889D01*
X042010Y017145D02*
X041890Y017148D01*
X041265Y017148D01*
X038890Y015648D02*
X038765Y015648D01*
X038765Y014148D01*
X038792Y014084D01*
X039015Y014023D02*
X039047Y014084D01*
X039015Y014023D02*
X039015Y011523D01*
X039265Y011773D02*
X040765Y011773D01*
X040890Y012148D02*
X039515Y012148D01*
X039515Y014023D01*
X039559Y014084D01*
X039765Y014148D02*
X039815Y014084D01*
X039765Y014148D02*
X039765Y014773D01*
X039890Y014773D01*
X040390Y014773D02*
X040390Y014148D01*
X040327Y014084D01*
X040071Y014084D02*
X040015Y014023D01*
X040015Y013398D01*
X040640Y014023D02*
X040583Y014084D01*
X040640Y014023D02*
X040640Y012648D01*
X048765Y012648D01*
X050140Y011273D01*
X051140Y011273D01*
X051140Y012273D02*
X050140Y012273D01*
X049515Y012898D01*
X041140Y012898D01*
X041140Y014023D01*
X041095Y014084D01*
X040890Y014148D02*
X040839Y014084D01*
X040890Y014148D02*
X040890Y014773D01*
X041351Y014084D02*
X041390Y014023D01*
X042140Y013273D01*
X050140Y013273D01*
X051140Y013273D01*
X041265Y011773D02*
X040890Y012148D01*
X039265Y011773D02*
X039265Y014023D01*
X039303Y014084D01*
X038536Y014084D02*
X038515Y014148D01*
X038515Y015898D01*
X038265Y015648D02*
X035890Y015648D01*
X035515Y016148D02*
X036640Y016148D01*
X036640Y015273D02*
X036640Y014773D01*
X036765Y014648D01*
X036765Y014148D01*
X036744Y014084D01*
X036515Y014023D02*
X036488Y014084D01*
X036515Y014023D02*
X036515Y013398D01*
X036640Y013398D01*
X037140Y013398D02*
X037265Y013398D01*
X037265Y014023D01*
X037256Y014084D01*
X037015Y014148D02*
X037000Y014084D01*
X037015Y014148D02*
X037015Y014898D01*
X037890Y015273D02*
X038015Y015273D01*
X038015Y014148D01*
X038024Y014084D01*
X038265Y014148D02*
X038280Y014084D01*
X038265Y014148D02*
X038265Y015648D01*
X037015Y017898D02*
X035640Y016523D01*
X035515Y016148D02*
X035515Y014148D01*
X035465Y014084D01*
X035721Y014084D02*
X035765Y014023D01*
X035765Y013023D01*
X034515Y013023D01*
X034140Y013523D02*
X021390Y013523D01*
X021765Y015398D02*
X021390Y015773D01*
X021765Y015398D02*
X033265Y015398D01*
X033270Y015354D01*
X033265Y015148D02*
X033270Y015098D01*
X033265Y015148D02*
X019265Y015148D01*
X019140Y015273D01*
X021390Y018023D02*
X025765Y018023D01*
X026140Y018398D01*
X033265Y018398D01*
X033270Y018424D01*
X033265Y018648D02*
X033270Y018680D01*
X033265Y018648D02*
X008890Y018648D01*
X009390Y019148D02*
X006140Y022398D01*
X006140Y034523D01*
X009265Y034523D01*
X011515Y036773D01*
X011640Y036773D01*
X012140Y037273D01*
X013140Y037273D01*
X013140Y038273D01*
X013140Y036273D02*
X011640Y036273D01*
X010515Y034648D02*
X027140Y034648D01*
X035140Y042648D01*
X047515Y042648D01*
X049140Y044273D01*
X049140Y046273D02*
X048765Y046648D01*
X042515Y046648D01*
X042140Y046273D01*
X043140Y046273D02*
X043515Y046273D01*
X043515Y043648D01*
X015015Y043648D01*
X005890Y034523D01*
X005890Y016898D01*
X007765Y016898D01*
X007140Y016273D01*
X007390Y015898D02*
X007890Y016398D01*
X033265Y016398D01*
X033270Y016377D01*
X033390Y016398D01*
X035015Y016398D01*
X036640Y018023D01*
X036515Y018398D02*
X037015Y018398D01*
X037015Y017898D01*
X037015Y018398D02*
X037015Y019398D01*
X036390Y019398D01*
X037015Y020023D01*
X037015Y020398D01*
X037000Y020462D01*
X037015Y020523D01*
X037015Y021773D01*
X037140Y021773D01*
X037890Y021773D02*
X038015Y021773D01*
X038015Y020523D01*
X038024Y020462D01*
X038265Y020523D02*
X038280Y020462D01*
X038265Y020523D02*
X038265Y023148D01*
X034015Y023148D01*
X035765Y021898D02*
X031640Y021898D01*
X032015Y021023D02*
X024265Y021023D01*
X021390Y023898D01*
X020640Y023148D02*
X024390Y019398D01*
X033265Y019398D01*
X033270Y019448D01*
X033270Y019192D02*
X033265Y019148D01*
X009390Y019148D01*
X007765Y017648D02*
X007140Y018273D01*
X007765Y017648D02*
X032515Y017648D01*
X032515Y017523D01*
X032515Y017648D02*
X033265Y017648D01*
X033270Y017657D01*
X033270Y017913D02*
X033390Y017898D01*
X034015Y017898D01*
X033765Y018148D02*
X034640Y019023D01*
X036390Y019023D01*
X036390Y019398D02*
X034765Y019398D01*
X034265Y018898D01*
X033390Y018898D01*
X033270Y018936D01*
X033270Y018169D02*
X033390Y018148D01*
X033765Y018148D01*
X033890Y017523D02*
X035640Y017523D01*
X036515Y018398D01*
X035265Y019773D02*
X035265Y020398D01*
X035209Y020462D01*
X035015Y020523D02*
X034953Y020462D01*
X035015Y020523D02*
X035015Y021148D01*
X035515Y021523D02*
X029515Y021523D01*
X029140Y021898D01*
X032015Y021023D02*
X033265Y019773D01*
X033270Y019704D01*
X033640Y019898D02*
X032640Y020898D01*
X033140Y020898D02*
X033265Y021023D01*
X034140Y021023D01*
X034140Y020523D01*
X034185Y020462D01*
X034390Y020523D02*
X034441Y020462D01*
X034390Y020523D02*
X034390Y021273D01*
X025765Y021273D01*
X017640Y029398D01*
X017640Y032273D01*
X017140Y032273D01*
X016140Y032273D01*
X015765Y032648D02*
X023640Y032648D01*
X031515Y024773D01*
X041140Y024773D01*
X036015Y022273D02*
X025265Y022273D01*
X021390Y026148D01*
X016640Y031273D02*
X016140Y031273D01*
X016640Y031273D02*
X017140Y031773D01*
X015765Y031773D02*
X015765Y032648D01*
X015765Y031773D02*
X006515Y022523D01*
X007140Y017273D02*
X007265Y017148D01*
X033265Y017148D01*
X033270Y017145D01*
X033265Y016898D02*
X033270Y016889D01*
X033265Y016898D02*
X007765Y016898D01*
X007890Y016148D02*
X007390Y015648D01*
X004640Y015648D01*
X004390Y015898D01*
X003890Y015898D01*
X003765Y016023D01*
X003765Y017273D01*
X004140Y017273D01*
X002640Y016898D02*
X002640Y047773D01*
X009640Y047773D01*
X010140Y048273D01*
X010140Y047273D02*
X012140Y045273D01*
X013140Y046273D01*
X012140Y047273D02*
X010140Y049273D01*
X009640Y049773D02*
X017640Y049773D01*
X020140Y047273D01*
X021140Y047273D01*
X022140Y047273D01*
X023140Y047273D01*
X024140Y047273D01*
X025140Y046898D02*
X027515Y049273D01*
X028140Y049273D01*
X027140Y048273D02*
X027140Y047273D01*
X026140Y046273D02*
X026765Y045648D01*
X031765Y045648D01*
X032140Y045273D01*
X033140Y046273D01*
X034140Y045273D01*
X035140Y048273D02*
X034140Y049273D01*
X032140Y049273D01*
X031640Y049273D01*
X028390Y046023D01*
X025140Y046898D02*
X021765Y046898D01*
X021140Y046273D01*
X020140Y047273D02*
X020140Y045273D01*
X023140Y043273D02*
X027140Y039273D01*
X026140Y038273D02*
X024140Y038273D01*
X023140Y039273D01*
X022140Y038273D01*
X021140Y040273D02*
X018890Y040273D01*
X018765Y040398D01*
X018640Y040523D01*
X018765Y040398D01*
X018765Y037648D01*
X026765Y037648D01*
X027140Y037273D01*
X029140Y037273D01*
X024140Y034273D02*
X022890Y034273D01*
X021640Y033023D01*
X017140Y035273D02*
X016140Y035273D01*
X016140Y036273D02*
X016140Y037273D01*
X016140Y036273D02*
X016640Y036273D01*
X017140Y035773D01*
X013140Y034273D02*
X013140Y033273D01*
X011640Y033273D01*
X011640Y032773D02*
X012140Y032273D01*
X013140Y032273D01*
X018640Y041023D02*
X018890Y041273D01*
X020140Y041273D01*
X013140Y048273D02*
X012140Y047273D01*
X009640Y049773D02*
X009640Y058773D01*
X010140Y059273D01*
X010140Y060273D02*
X010765Y060898D01*
X018265Y060898D01*
X018640Y061273D01*
X018640Y060273D02*
X018640Y059273D01*
X018640Y058648D01*
X018640Y058523D01*
X018640Y058648D01*
X013515Y058648D01*
X013140Y058273D01*
X012140Y057273D01*
X010140Y057273D01*
X010515Y056648D02*
X010140Y056273D01*
X010515Y056648D02*
X018265Y056648D01*
X018640Y056273D01*
X018640Y058023D02*
X018765Y058148D01*
X021015Y058148D01*
X021140Y058273D01*
X022140Y057273D01*
X027140Y057273D01*
X028140Y056273D02*
X023140Y051273D01*
X024140Y051273D01*
X023140Y051273D02*
X022140Y051273D01*
X021140Y051273D01*
X020140Y051273D01*
X026140Y052273D02*
X027140Y052273D01*
X028140Y052273D01*
X028140Y056273D02*
X030140Y056273D01*
X029140Y059273D02*
X027140Y059273D01*
X026140Y060273D02*
X030140Y060273D01*
X026140Y058273D02*
X025765Y058648D01*
X025765Y065523D01*
X028890Y068648D01*
X032765Y068648D01*
X033140Y068273D01*
X033140Y067273D02*
X030140Y067273D01*
X029140Y068273D01*
X029140Y067273D02*
X029890Y066523D01*
X032890Y066523D01*
X033140Y066273D01*
X032140Y066273D02*
X029140Y066273D01*
X027140Y066273D01*
X029140Y065273D02*
X030140Y064273D01*
X033140Y064273D01*
X033140Y065273D02*
X032140Y066273D01*
X037140Y059773D02*
X038140Y059773D01*
X045140Y056273D02*
X046140Y056273D01*
X045140Y054273D02*
X040640Y054273D01*
X042515Y052648D02*
X048765Y052648D01*
X049140Y052273D01*
X051140Y050273D01*
X048515Y047898D02*
X042515Y047898D01*
X042140Y048273D01*
X040140Y048273D01*
X040140Y050273D02*
X040640Y050273D01*
X040140Y050273D02*
X039765Y050648D01*
X044515Y050648D01*
X046140Y052273D01*
X046140Y053273D02*
X045140Y054273D01*
X042515Y052648D02*
X042140Y052273D01*
X039765Y050648D02*
X039140Y051273D01*
X035140Y052273D02*
X033140Y052273D01*
X025765Y058648D02*
X023265Y058648D01*
X022640Y059273D01*
X019140Y063273D02*
X018765Y063648D01*
X013515Y063648D01*
X013140Y063273D01*
X012140Y062273D01*
X011140Y062273D01*
X010140Y061273D01*
X010140Y062273D02*
X011765Y063898D01*
X018765Y063898D01*
X019140Y064273D01*
X018765Y064898D02*
X012765Y064898D01*
X012140Y064273D01*
X011140Y064273D01*
X010140Y063273D01*
X012765Y064898D02*
X013140Y065273D01*
X018765Y064898D02*
X019140Y065273D01*
X013140Y056273D02*
X012140Y055273D01*
X010140Y055273D01*
X010140Y053273D02*
X012140Y053273D01*
X013140Y054273D01*
X013140Y052273D02*
X012140Y051273D01*
X010140Y051273D01*
X041640Y041273D02*
X043140Y041273D01*
X045140Y041273D01*
X046140Y042273D01*
X046140Y046273D02*
X043515Y046273D01*
X048515Y047898D02*
X049140Y047273D01*
X049140Y054273D02*
X051140Y054273D01*
X050140Y062273D02*
X047640Y062273D01*
X047640Y068773D01*
X036015Y022273D02*
X036015Y020523D01*
X035977Y020462D01*
X035765Y020523D02*
X035721Y020462D01*
X035765Y020523D02*
X035765Y021898D01*
X035515Y021523D02*
X035515Y020523D01*
X035465Y020462D01*
X034697Y020462D02*
X034640Y020398D01*
X034640Y019898D01*
X033640Y019898D01*
X033929Y020462D02*
X033890Y020523D01*
X033515Y020523D01*
X033890Y017523D02*
X033765Y017398D01*
X033390Y017398D01*
X033270Y017401D01*
X033765Y017398D02*
X033765Y016773D01*
X033640Y016648D01*
X033390Y016648D01*
X033270Y016633D01*
X033265Y016148D02*
X033270Y016121D01*
X033265Y016148D02*
X007890Y016148D01*
X007390Y015898D02*
X004890Y015898D01*
X004515Y016273D01*
X004140Y016273D01*
X003890Y015648D02*
X002640Y016898D01*
X003890Y015648D02*
X004390Y015648D01*
X005140Y014898D01*
X033265Y014898D01*
X033270Y014842D01*
X033515Y014273D02*
X033765Y014273D01*
X033890Y014148D01*
X033929Y014084D01*
X034140Y014023D02*
X034185Y014084D01*
X034140Y014023D02*
X034140Y013523D01*
X034640Y013648D02*
X034640Y014023D01*
X034697Y014084D01*
X034441Y014084D02*
X034390Y014148D01*
X034390Y014648D01*
X010140Y014648D01*
X007140Y011648D01*
X004765Y011648D01*
X008890Y010898D02*
X032140Y010898D01*
X032515Y011273D01*
X036015Y011273D01*
X036015Y014023D01*
X035977Y014084D01*
X036233Y014084D02*
X036265Y014023D01*
X036265Y010898D01*
X033390Y010898D01*
X036640Y012898D02*
X037515Y012898D01*
X037515Y014023D01*
X037512Y014084D01*
X037768Y014084D02*
X037765Y014023D01*
X037765Y012648D01*
X034015Y015648D02*
X033390Y015648D01*
X033270Y015609D01*
X033270Y015865D02*
X033265Y015898D01*
X032640Y015898D01*
X032515Y015773D01*
X022265Y004773D02*
X048765Y004773D01*
X049265Y004273D01*
X025390Y004398D02*
X023765Y002773D01*
X013515Y002773D01*
X013015Y002273D01*
X021765Y004273D02*
X022265Y004773D01*
X007140Y015273D02*
X006390Y015273D01*
D23*
X006390Y015273D03*
X004765Y011648D03*
X007265Y010523D03*
X008890Y010898D03*
X019140Y015273D03*
X021390Y015773D03*
X021390Y018023D03*
X021390Y013523D03*
X032515Y015773D03*
X034015Y015648D03*
X033515Y014273D03*
X034515Y013023D03*
X034890Y013398D03*
X036640Y013398D03*
X037140Y013398D03*
X036640Y012898D03*
X037765Y012648D03*
X039015Y011523D03*
X040765Y011773D03*
X041265Y011773D03*
X040015Y013398D03*
X039890Y014773D03*
X040390Y014773D03*
X040890Y014773D03*
X040015Y016523D03*
X040265Y017148D03*
X041265Y017148D03*
X041265Y018398D03*
X041015Y019773D03*
X040265Y019773D03*
X040015Y021148D03*
X042015Y020773D03*
X042765Y019773D03*
X037890Y021773D03*
X035015Y021148D03*
X035265Y019773D03*
X036390Y019023D03*
X036640Y018023D03*
X034015Y017898D03*
X032515Y017523D03*
X035890Y015648D03*
X036640Y015273D03*
X037015Y014898D03*
X037890Y015273D03*
X038515Y015898D03*
X036640Y016148D03*
X033515Y020523D03*
X033140Y020898D03*
X032640Y020898D03*
X031640Y021898D03*
X034015Y023148D03*
X029140Y021898D03*
X021390Y023898D03*
X020640Y023148D03*
X021390Y026148D03*
X021640Y033023D03*
X018765Y037648D03*
X010515Y034648D03*
X006515Y022523D03*
X008890Y018648D03*
X025390Y004398D03*
X033390Y010898D03*
X028390Y046023D03*
M02*
