%
M48
M72
T01C0.0200
T02C0.0240
T03C0.0320
T04C0.0354
T05C0.0360
T06C0.0400
T07C0.0440
%
T01
X7265Y10523
X8890Y10898
X4765Y11648
X6390Y15273
X8890Y18648
X6515Y22523
X19140Y15273
X21390Y15773
X21390Y18023
X21390Y13523
X32515Y15773
X34015Y15648
X33515Y14273
X34515Y13023
X34890Y13398
X36640Y13398
X37140Y13398
X36640Y12898
X37765Y12648
X39015Y11523
X40765Y11773
X41265Y11773
X40015Y13398
X39890Y14773
X40390Y14773
X40890Y14773
X40015Y16523
X40265Y17148
X41265Y17148
X41265Y18398
X41015Y19773
X40265Y19773
X40015Y21148
X42015Y20773
X42765Y19773
X37890Y21773
X35015Y21148
X35265Y19773
X36390Y19023
X36640Y18023
X34015Y17898
X32515Y17523
X35890Y15648
X36640Y15273
X37015Y14898
X37890Y15273
X38515Y15898
X36640Y16148
X33515Y20523
X33140Y20898
X32640Y20898
X31640Y21898
X34015Y23148
X29140Y21898
X21390Y23898
X20640Y23148
X21390Y26148
X21640Y33023
X18765Y37648
X10515Y34648
X28390Y46023
X33390Y10898
X25390Y4398
T02
X41140Y61773
X42140Y64773
X41140Y66773
T03
X33140Y67273
X33140Y68273
X33140Y66273
X33140Y65273
X33140Y64273
X29140Y64273
X29140Y65273
X29140Y66273
X29140Y67273
X29140Y68273
X27140Y66273
X23140Y66273
X22140Y67273
X22140Y69273
X23140Y65273
X23140Y64273
X23140Y63273
X26140Y62273
X26140Y60273
X27140Y59273
X26140Y58273
X25140Y58273
X27140Y57273
X28140Y56273
X30140Y56273
X29140Y59273
X30140Y60273
X29140Y63273
X22640Y61273
X20640Y60273
X18640Y60273
X18640Y59273
X17140Y58273
X16140Y57273
X17140Y56273
X16140Y55273
X17140Y54273
X16140Y53273
X17140Y52273
X16140Y51273
X13140Y52273
X12140Y53273
X13140Y54273
X12140Y55273
X13140Y56273
X12140Y57273
X13140Y58273
X13140Y61273
X12140Y62273
X13140Y63273
X12140Y64273
X13140Y65273
X16140Y64273
X17140Y65273
X19140Y65273
X19140Y64273
X19140Y63273
X17140Y63273
X16140Y62273
X17140Y61273
X18640Y61273
X21140Y58273
X22640Y59273
X22640Y56273
X18640Y56273
X22140Y52273
X22140Y51273
X21140Y51273
X20140Y51273
X23140Y51273
X24140Y51273
X26140Y52273
X27140Y52273
X28140Y52273
X28140Y49273
X27140Y48273
X27140Y47273
X26140Y46273
X24140Y47273
X23140Y47273
X22140Y47273
X21140Y47273
X20140Y47273
X21140Y46273
X20140Y45273
X21140Y44273
X23140Y43273
X21140Y42273
X20140Y41273
X21140Y40273
X23140Y39273
X22140Y38273
X24140Y38273
X26140Y38273
X27140Y39273
X27140Y37273
X29140Y37273
X24140Y34273
X23140Y35273
X22140Y36273
X16140Y36273
X16140Y35273
X16140Y34273
X16140Y33273
X16140Y32273
X16140Y31273
X13140Y31273
X13140Y32273
X13140Y33273
X13140Y34273
X13140Y35273
X13140Y36273
X13140Y37273
X13140Y38273
X16140Y38273
X16140Y37273
X16140Y45273
X17140Y46273
X16140Y47273
X17140Y48273
X13140Y48273
X12140Y47273
X13140Y46273
X12140Y45273
X12140Y51273
X27140Y45273
X27140Y43273
X29140Y41273
X30140Y45273
X32140Y45273
X33140Y46273
X34140Y45273
X35140Y48273
X32140Y49273
X34140Y51273
X33140Y52273
X35140Y52273
X39140Y51273
X40140Y48273
X42140Y48273
X42140Y46273
X43140Y46273
X43140Y45273
X46140Y45273
X46140Y44273
X46140Y43273
X46140Y42273
X46140Y41273
X49140Y41273
X49140Y42273
X49140Y43273
X49140Y44273
X49140Y45273
X49140Y46273
X49140Y47273
X49140Y48273
X50140Y49273
X51140Y50273
X49140Y51273
X49140Y52273
X49140Y53273
X49140Y54273
X50140Y53273
X51140Y54273
X49140Y55273
X49140Y56273
X49140Y57273
X49140Y58273
X48640Y59773
X46640Y59773
X46140Y58273
X46140Y57273
X46140Y56273
X45140Y56273
X46140Y55273
X46140Y54273
X46140Y53273
X46140Y52273
X46140Y51273
X46640Y49773
X46140Y48273
X46140Y47273
X46140Y46273
X48640Y49773
X43140Y50273
X39140Y55273
X41140Y56273
X38140Y59773
X37140Y59773
X36140Y59773
X50140Y62273
X50140Y66273
X40140Y44273
X43140Y41273
X42140Y32773
X41140Y32773
X41140Y28773
X42140Y28773
X42140Y24773
X41140Y24773
X39140Y21773
X37140Y21773
X37140Y22773
X35140Y22773
X7140Y18273
X7140Y17273
X7140Y16273
X7140Y15273
X7140Y14273
X7140Y13273
X7140Y12273
X7140Y11273
X4140Y11273
X4140Y12273
X4140Y13273
X4140Y14273
X4140Y15273
X4140Y16273
X4140Y17273
X4140Y18273
T04
X41140Y60273
X42140Y64273
X41140Y67273
T05
X1765Y2273
X3015Y2273
X4265Y2273
X5515Y2273
X6765Y2273
X8015Y2273
X9265Y2273
X10515Y2273
X11765Y2273
X13015Y2273
X16765Y2273
X16765Y4273
X20515Y4273
X21765Y4273
X23015Y4273
X21765Y2273
X20515Y2273
X17140Y9773
X16140Y9773
X13140Y9773
X12140Y9773
X8140Y9773
X7140Y9773
X4140Y9773
X3140Y9773
X4390Y4273
X9265Y4273
X8140Y19773
X7140Y19773
X4140Y19773
X3140Y19773
X12140Y19773
X13140Y19773
X16140Y19773
X17140Y19773
X17140Y29773
X16140Y29773
X13140Y29773
X12140Y29773
X12140Y39773
X13140Y39773
X16140Y39773
X17140Y39773
X10140Y45273
X9140Y45273
X9140Y46273
X9140Y47273
X9140Y48273
X10140Y48273
X10140Y47273
X10140Y46273
X10140Y49273
X10140Y50273
X10140Y51273
X9140Y51273
X9140Y50273
X9140Y49273
X9140Y52273
X9140Y53273
X9140Y54273
X10140Y54273
X10140Y53273
X10140Y52273
X10140Y55273
X10140Y56273
X10140Y57273
X9140Y57273
X9140Y56273
X9140Y55273
X9140Y58273
X9140Y59273
X9140Y60273
X10140Y60273
X10140Y59273
X10140Y58273
X10140Y61273
X10140Y62273
X9140Y62273
X9140Y61273
X9140Y63273
X9140Y64273
X10140Y64273
X10140Y63273
X8140Y69773
X7140Y69773
X4140Y69773
X3140Y69773
X12140Y69773
X13140Y69773
X16140Y69773
X17140Y69773
X23140Y69773
X24140Y69773
X26140Y69773
X27140Y69773
X29140Y69773
X30140Y69773
X32140Y69773
X33140Y69773
X35140Y69773
X36140Y69773
X38140Y69773
X39140Y69773
X44140Y66773
X45140Y66773
X45140Y65773
X44140Y65773
X44140Y64773
X45140Y64773
X45140Y63773
X44140Y63773
X44140Y62773
X45140Y62773
X45140Y69773
X46140Y69773
X49140Y69773
X50140Y69773
X42140Y55273
X42140Y52273
X45140Y39773
X46140Y39773
X49140Y39773
X50140Y39773
X50140Y9773
X49140Y9773
X46140Y9773
X45140Y9773
X44265Y4273
X43015Y4273
X41765Y4273
X43015Y2273
X44265Y2273
X45515Y2273
X46765Y2273
X48015Y2273
X49265Y2273
X49265Y4273
X50515Y4273
X48015Y4273
X39265Y2273
X36765Y2273
X35515Y2273
X34265Y2273
X33015Y2273
X31765Y2273
X31765Y4273
X36765Y4273
X8140Y39773
X7140Y39773
X4140Y39773
X3140Y39773
T06
X4140Y32273
X4140Y24273
X40640Y50273
X40640Y54273
X47640Y60773
X47640Y68773
X41640Y45273
X41640Y41273
X45140Y32273
X50140Y28273
X51140Y28273
X51140Y27273
X50140Y27273
X50140Y26273
X51140Y26273
X51140Y25273
X50140Y25273
X50140Y24273
X51140Y24273
X51140Y23273
X50140Y23273
X50140Y22273
X51140Y22273
X51140Y21273
X50140Y21273
X50140Y18273
X51140Y18273
X51140Y17273
X50140Y17273
X50140Y16273
X51140Y16273
X51140Y15273
X50140Y15273
X50140Y14273
X51140Y14273
X51140Y13273
X50140Y13273
X50140Y12273
X51140Y12273
X51140Y11273
X50140Y11273
X45140Y24273
T07
X38140Y61773
X36140Y61773
M30
