G75*
%MOIN*%
%OFA0B0*%
%FSLAX24Y24*%
%IPPOS*%
%LPD*%
%AMOC8*
5,1,8,0,0,1.08239X$1,22.5*
%
%ADD10R,0.0157X0.0709*%
%ADD11R,0.0709X0.0157*%
%ADD12C,0.0530*%
%ADD13C,0.0265*%
D10*
X033929Y014084D03*
X034185Y014084D03*
X034441Y014084D03*
X034697Y014084D03*
X034953Y014084D03*
X035209Y014084D03*
X035465Y014084D03*
X035721Y014084D03*
X035977Y014084D03*
X036233Y014084D03*
X036488Y014084D03*
X036744Y014084D03*
X037000Y014084D03*
X037256Y014084D03*
X037512Y014084D03*
X037768Y014084D03*
X038024Y014084D03*
X038280Y014084D03*
X038536Y014084D03*
X038792Y014084D03*
X039047Y014084D03*
X039303Y014084D03*
X039559Y014084D03*
X039815Y014084D03*
X040071Y014084D03*
X040327Y014084D03*
X040583Y014084D03*
X040839Y014084D03*
X041095Y014084D03*
X041351Y014084D03*
X041351Y020462D03*
X041095Y020462D03*
X040839Y020462D03*
X040583Y020462D03*
X040327Y020462D03*
X040071Y020462D03*
X039815Y020462D03*
X039559Y020462D03*
X039303Y020462D03*
X039047Y020462D03*
X038792Y020462D03*
X038536Y020462D03*
X038280Y020462D03*
X038024Y020462D03*
X037768Y020462D03*
X037512Y020462D03*
X037256Y020462D03*
X037000Y020462D03*
X036744Y020462D03*
X036488Y020462D03*
X036233Y020462D03*
X035977Y020462D03*
X035721Y020462D03*
X035465Y020462D03*
X035209Y020462D03*
X034953Y020462D03*
X034697Y020462D03*
X034441Y020462D03*
X034185Y020462D03*
X033929Y020462D03*
D11*
X033270Y014842D03*
X033270Y015098D03*
X033270Y015354D03*
X033270Y015609D03*
X033270Y015865D03*
X033270Y016121D03*
X033270Y016377D03*
X033270Y016633D03*
X033270Y016889D03*
X033270Y017145D03*
X033270Y017401D03*
X033270Y017657D03*
X033270Y017913D03*
X033270Y018169D03*
X033270Y018424D03*
X033270Y018680D03*
X033270Y018936D03*
X033270Y019192D03*
X033270Y019448D03*
X033270Y019704D03*
X042010Y019704D03*
X042010Y019448D03*
X042010Y019192D03*
X042010Y018936D03*
X042010Y018680D03*
X042010Y018424D03*
X042010Y018169D03*
X042010Y017913D03*
X042010Y017657D03*
X042010Y017401D03*
X042010Y017145D03*
X042010Y016889D03*
X042010Y016633D03*
X042010Y016377D03*
X042010Y016121D03*
X042010Y015865D03*
X042010Y015609D03*
X042010Y015354D03*
X042010Y015098D03*
X042010Y014842D03*
D12*
X018640Y040523D03*
X018640Y041023D03*
X018640Y058023D03*
X018640Y058523D03*
D13*
X011507Y036906D02*
X011507Y036640D01*
X011507Y036906D02*
X011773Y036906D01*
X011773Y036640D01*
X011507Y036640D01*
X011507Y036904D02*
X011773Y036904D01*
X011507Y036406D02*
X011507Y036140D01*
X011507Y036406D02*
X011773Y036406D01*
X011773Y036140D01*
X011507Y036140D01*
X011507Y036404D02*
X011773Y036404D01*
X011507Y033406D02*
X011507Y033140D01*
X011507Y033406D02*
X011773Y033406D01*
X011773Y033140D01*
X011507Y033140D01*
X011507Y033404D02*
X011773Y033404D01*
X011507Y032906D02*
X011507Y032640D01*
X011507Y032906D02*
X011773Y032906D01*
X011773Y032640D01*
X011507Y032640D01*
X011507Y032904D02*
X011773Y032904D01*
X017007Y032406D02*
X017007Y032140D01*
X017007Y032406D02*
X017273Y032406D01*
X017273Y032140D01*
X017007Y032140D01*
X017007Y032404D02*
X017273Y032404D01*
X017007Y031906D02*
X017007Y031640D01*
X017007Y031906D02*
X017273Y031906D01*
X017273Y031640D01*
X017007Y031640D01*
X017007Y031904D02*
X017273Y031904D01*
X017007Y035140D02*
X017007Y035406D01*
X017273Y035406D01*
X017273Y035140D01*
X017007Y035140D01*
X017007Y035404D02*
X017273Y035404D01*
X017007Y035640D02*
X017007Y035906D01*
X017273Y035906D01*
X017273Y035640D01*
X017007Y035640D01*
X017007Y035904D02*
X017273Y035904D01*
M02*
