G75*
G70*
%OFA0B0*%
%FSLAX24Y24*%
%IPPOS*%
%LPD*%
%AMOC8*
5,1,8,0,0,1.08239X$1,22.5*
%
%ADD10OC8,0.1008*%
%ADD11C,0.1500*%
%ADD12R,0.0396X0.1316*%
%ADD13C,0.1701*%
%ADD14OC8,0.0720*%
%ADD15C,0.3400*%
%ADD16OC8,0.0624*%
%ADD17O,0.0624X0.1144*%
%ADD18O,0.1144X0.0624*%
D10*
X144052Y039377D03*
X144052Y038377D03*
X144052Y035002D03*
X144052Y034002D03*
X144052Y030627D03*
X144052Y029627D03*
X132802Y029627D03*
X132802Y030627D03*
X132802Y034002D03*
X132802Y035002D03*
X132802Y038377D03*
X132802Y039377D03*
X121552Y039377D03*
X121552Y038377D03*
X121552Y035002D03*
X121552Y034002D03*
X121552Y030627D03*
X121552Y029627D03*
X121552Y026252D03*
X121552Y025252D03*
X121552Y021877D03*
X121552Y020877D03*
X121552Y017502D03*
X121552Y016502D03*
X121552Y013127D03*
X121552Y012127D03*
X121552Y008752D03*
X121552Y007752D03*
X099052Y004377D03*
X099052Y003377D03*
X093427Y003377D03*
X093427Y004377D03*
X087802Y004377D03*
X087802Y003377D03*
X082177Y003377D03*
X082177Y004377D03*
X076552Y004377D03*
X076552Y003377D03*
X070927Y003377D03*
X070927Y004377D03*
X065302Y004377D03*
X065302Y003377D03*
X059677Y003377D03*
X059677Y004377D03*
X054052Y004377D03*
X054052Y003377D03*
X048427Y003377D03*
X048427Y004377D03*
X042802Y004377D03*
X042802Y003377D03*
X037177Y003377D03*
X037177Y004377D03*
X025302Y004377D03*
X025302Y003377D03*
X019677Y003377D03*
X019677Y004377D03*
X014052Y004377D03*
X014052Y003377D03*
X008427Y003377D03*
X008427Y004377D03*
X002802Y004377D03*
X002802Y003377D03*
X031552Y012127D03*
X031552Y013127D03*
X037177Y013127D03*
X037177Y012127D03*
X042802Y012127D03*
X042802Y013127D03*
X048427Y013127D03*
X048427Y012127D03*
X054052Y012127D03*
X054052Y013127D03*
X059677Y013127D03*
X059677Y012127D03*
X065302Y012127D03*
X065302Y013127D03*
X070927Y013127D03*
X070927Y012127D03*
X076552Y012127D03*
X076552Y013127D03*
X082177Y013127D03*
X082177Y012127D03*
X087802Y012127D03*
X087802Y013127D03*
X093427Y013127D03*
X093427Y012127D03*
X099052Y012127D03*
X099052Y013127D03*
X099052Y020877D03*
X099052Y021877D03*
X093427Y021877D03*
X093427Y020877D03*
X087802Y020877D03*
X087802Y021877D03*
X082177Y021877D03*
X082177Y020877D03*
X076552Y020877D03*
X076552Y021877D03*
X070927Y021877D03*
X070927Y020877D03*
X065302Y020877D03*
X065302Y021877D03*
X059677Y021877D03*
X059677Y020877D03*
X054052Y020877D03*
X054052Y021877D03*
X048427Y021877D03*
X048427Y020877D03*
X042802Y020877D03*
X042802Y021877D03*
X037177Y021877D03*
X037177Y020877D03*
X037177Y029627D03*
X037177Y030627D03*
X042802Y030627D03*
X042802Y029627D03*
X048427Y029627D03*
X048427Y030627D03*
X054052Y030627D03*
X054052Y029627D03*
X059677Y029627D03*
X059677Y030627D03*
X065302Y030627D03*
X065302Y029627D03*
X070927Y029627D03*
X070927Y030627D03*
X076552Y030627D03*
X076552Y029627D03*
X082177Y029627D03*
X082177Y030627D03*
X087802Y030627D03*
X087802Y029627D03*
X093427Y029627D03*
X093427Y030627D03*
X099052Y030627D03*
X099052Y029627D03*
X099052Y038377D03*
X099052Y039377D03*
X093427Y039377D03*
X093427Y038377D03*
X087802Y038377D03*
X087802Y039377D03*
X082177Y039377D03*
X082177Y038377D03*
X076552Y038377D03*
X076552Y039377D03*
X070927Y039377D03*
X070927Y038377D03*
X065302Y038377D03*
X065302Y039377D03*
X059677Y039377D03*
X059677Y038377D03*
X054052Y038377D03*
X054052Y039377D03*
X048427Y039377D03*
X048427Y038377D03*
X042802Y038377D03*
X042802Y039377D03*
X037177Y039377D03*
X037177Y038377D03*
X031552Y038377D03*
X031552Y039377D03*
X025927Y039377D03*
X025927Y038377D03*
X020302Y038377D03*
X020302Y039377D03*
X014677Y039377D03*
X014677Y038377D03*
X009052Y038377D03*
X009052Y039377D03*
X003427Y039377D03*
X003427Y038377D03*
X132802Y026252D03*
X132802Y025252D03*
X132802Y021877D03*
X132802Y020877D03*
X132802Y017502D03*
X132802Y016502D03*
D11*
X139927Y052627D03*
X119927Y052627D03*
X094927Y052627D03*
X074927Y052627D03*
X061177Y052627D03*
X041177Y052627D03*
X027427Y052627D03*
X007427Y052627D03*
D12*
X011552Y048377D03*
X012177Y048377D03*
X012802Y048377D03*
X013427Y048377D03*
X014052Y048377D03*
X014677Y048377D03*
X015302Y048377D03*
X015927Y048377D03*
X016552Y048377D03*
X017177Y048377D03*
X017802Y048377D03*
X018427Y048377D03*
X019052Y048377D03*
X019677Y048377D03*
X020302Y048377D03*
X020927Y048377D03*
X021552Y048377D03*
X022177Y048377D03*
X022802Y048377D03*
X045302Y048377D03*
X045927Y048377D03*
X046552Y048377D03*
X047177Y048377D03*
X047802Y048377D03*
X048427Y048377D03*
X049052Y048377D03*
X049677Y048377D03*
X050302Y048377D03*
X050927Y048377D03*
X051552Y048377D03*
X052177Y048377D03*
X052802Y048377D03*
X053427Y048377D03*
X054052Y048377D03*
X054677Y048377D03*
X055302Y048377D03*
X055927Y048377D03*
X056552Y048377D03*
X079052Y048377D03*
X079677Y048377D03*
X080302Y048377D03*
X080927Y048377D03*
X081552Y048377D03*
X082177Y048377D03*
X082802Y048377D03*
X083427Y048377D03*
X084052Y048377D03*
X084677Y048377D03*
X085302Y048377D03*
X085927Y048377D03*
X086552Y048377D03*
X087177Y048377D03*
X087802Y048377D03*
X088427Y048377D03*
X089052Y048377D03*
X089677Y048377D03*
X090302Y048377D03*
X124052Y048377D03*
X124677Y048377D03*
X125302Y048377D03*
X125927Y048377D03*
X126552Y048377D03*
X127177Y048377D03*
X127802Y048377D03*
X128427Y048377D03*
X129052Y048377D03*
X129677Y048377D03*
X130302Y048377D03*
X130927Y048377D03*
X131552Y048377D03*
X132177Y048377D03*
X132802Y048377D03*
X133427Y048377D03*
X134052Y048377D03*
X134677Y048377D03*
X135302Y048377D03*
D13*
X146552Y045877D03*
X146552Y015252D03*
X073427Y015252D03*
X005927Y015252D03*
X005927Y045877D03*
X062177Y045877D03*
D14*
X058302Y045752D03*
X057302Y045752D03*
X056302Y045752D03*
X055302Y045752D03*
X054302Y045752D03*
X053302Y045752D03*
X052302Y045752D03*
X051302Y045752D03*
X050302Y045752D03*
X049302Y045752D03*
X048302Y045752D03*
X047302Y045752D03*
X046302Y045752D03*
X045302Y045752D03*
X044302Y045752D03*
X043302Y045752D03*
X042302Y045752D03*
X042302Y044752D03*
X043302Y044752D03*
X044302Y044752D03*
X045302Y044752D03*
X046302Y044752D03*
X047302Y044752D03*
X048302Y044752D03*
X049302Y044752D03*
X050302Y044752D03*
X051302Y044752D03*
X052302Y044752D03*
X053302Y044752D03*
X054302Y044752D03*
X055302Y044752D03*
X056302Y044752D03*
X057302Y044752D03*
X058302Y044752D03*
X077302Y044752D03*
X078302Y044752D03*
X079302Y044752D03*
X080302Y044752D03*
X081302Y044752D03*
X082302Y044752D03*
X083302Y044752D03*
X084302Y044752D03*
X085302Y044752D03*
X086302Y044752D03*
X087302Y044752D03*
X088302Y044752D03*
X089302Y044752D03*
X090302Y044752D03*
X091302Y044752D03*
X092302Y044752D03*
X093302Y044752D03*
X093302Y045752D03*
X092302Y045752D03*
X091302Y045752D03*
X090302Y045752D03*
X089302Y045752D03*
X088302Y045752D03*
X087302Y045752D03*
X086302Y045752D03*
X085302Y045752D03*
X084302Y045752D03*
X083302Y045752D03*
X082302Y045752D03*
X081302Y045752D03*
X080302Y045752D03*
X079302Y045752D03*
X078302Y045752D03*
X077302Y045752D03*
X122302Y045752D03*
X123302Y045752D03*
X124302Y045752D03*
X125302Y045752D03*
X126302Y045752D03*
X127302Y045752D03*
X128302Y045752D03*
X129302Y045752D03*
X130302Y045752D03*
X131302Y045752D03*
X132302Y045752D03*
X133302Y045752D03*
X134302Y045752D03*
X135302Y045752D03*
X136302Y045752D03*
X137302Y045752D03*
X138302Y045752D03*
X138302Y044752D03*
X137302Y044752D03*
X136302Y044752D03*
X135302Y044752D03*
X134302Y044752D03*
X133302Y044752D03*
X132302Y044752D03*
X131302Y044752D03*
X130302Y044752D03*
X129302Y044752D03*
X128302Y044752D03*
X127302Y044752D03*
X126302Y044752D03*
X125302Y044752D03*
X124302Y044752D03*
X123302Y044752D03*
X122302Y044752D03*
X025802Y044752D03*
X024802Y044752D03*
X023802Y044752D03*
X022802Y044752D03*
X021802Y044752D03*
X020802Y044752D03*
X019802Y044752D03*
X018802Y044752D03*
X017802Y044752D03*
X016802Y044752D03*
X015802Y044752D03*
X014802Y044752D03*
X013802Y044752D03*
X012802Y044752D03*
X011802Y044752D03*
X010802Y044752D03*
X009802Y044752D03*
X009802Y045752D03*
X010802Y045752D03*
X011802Y045752D03*
X012802Y045752D03*
X013802Y045752D03*
X014802Y045752D03*
X015802Y045752D03*
X016802Y045752D03*
X017802Y045752D03*
X018802Y045752D03*
X019802Y045752D03*
X020802Y045752D03*
X021802Y045752D03*
X022802Y045752D03*
X023802Y045752D03*
X024802Y045752D03*
X025802Y045752D03*
D15*
X065927Y047752D03*
X070927Y047752D03*
X070927Y052127D03*
X065927Y052127D03*
X111427Y037252D03*
X111427Y027627D03*
X111427Y011752D03*
X111427Y005252D03*
D16*
X002802Y002127D03*
X006802Y002127D03*
X008427Y002127D03*
X012427Y002127D03*
X014052Y002127D03*
X018052Y002127D03*
X019677Y002127D03*
X023677Y002127D03*
X025302Y002127D03*
X029302Y002127D03*
X037177Y002127D03*
X041177Y002127D03*
X042802Y002127D03*
X046802Y002127D03*
X048427Y002127D03*
X052427Y002127D03*
X054052Y002127D03*
X058052Y002127D03*
X059677Y002127D03*
X063677Y002127D03*
X063677Y001502D03*
X067677Y001502D03*
X070927Y002127D03*
X074927Y002127D03*
X076552Y002127D03*
X080552Y002127D03*
X082177Y002127D03*
X086177Y002127D03*
X087802Y002127D03*
X091802Y002127D03*
X093427Y002127D03*
X097427Y002127D03*
X099052Y002127D03*
X103052Y002127D03*
X117552Y006502D03*
X121552Y006502D03*
X121552Y010877D03*
X117552Y010877D03*
X117552Y015252D03*
X121552Y015252D03*
X128802Y015252D03*
X132802Y015252D03*
X132802Y019627D03*
X128802Y019627D03*
X121552Y019627D03*
X117552Y019627D03*
X117552Y023877D03*
X121552Y023877D03*
X128802Y024002D03*
X132802Y024002D03*
X132802Y028377D03*
X128802Y028377D03*
X121552Y028377D03*
X117552Y028377D03*
X117552Y032752D03*
X121552Y032752D03*
X128802Y032752D03*
X132802Y032752D03*
X132802Y037127D03*
X128802Y037127D03*
X121552Y037127D03*
X117552Y037127D03*
X103052Y037127D03*
X099052Y037127D03*
X097427Y037127D03*
X093427Y037127D03*
X091802Y037127D03*
X087802Y037127D03*
X086177Y037127D03*
X082177Y037127D03*
X080552Y037127D03*
X076552Y037127D03*
X074927Y037127D03*
X070927Y037127D03*
X067177Y038377D03*
X063677Y037127D03*
X059677Y037127D03*
X058052Y037127D03*
X054052Y037127D03*
X052427Y037127D03*
X048427Y037127D03*
X046802Y037127D03*
X042802Y037127D03*
X041177Y037127D03*
X037177Y037127D03*
X035552Y037127D03*
X031552Y037127D03*
X029927Y037127D03*
X025927Y037127D03*
X024302Y037127D03*
X020302Y037127D03*
X018677Y037127D03*
X014677Y037127D03*
X013052Y037127D03*
X009052Y037127D03*
X007427Y037127D03*
X003427Y037127D03*
X037177Y028377D03*
X041177Y028377D03*
X042802Y028377D03*
X046802Y028377D03*
X048427Y028377D03*
X052427Y028377D03*
X054052Y028377D03*
X058052Y028377D03*
X059677Y028377D03*
X063677Y028377D03*
X067177Y029627D03*
X070927Y028377D03*
X074927Y028377D03*
X076552Y028377D03*
X080552Y028377D03*
X082177Y028377D03*
X086177Y028377D03*
X087802Y028377D03*
X091802Y028377D03*
X093427Y028377D03*
X097427Y028377D03*
X099052Y028377D03*
X103052Y028377D03*
X103052Y019627D03*
X099052Y019627D03*
X097427Y019627D03*
X093427Y019627D03*
X091802Y019627D03*
X087802Y019627D03*
X086177Y019627D03*
X082177Y019627D03*
X080552Y019627D03*
X076552Y019627D03*
X074927Y019627D03*
X070927Y019627D03*
X067177Y020877D03*
X063677Y019627D03*
X059677Y019627D03*
X058052Y019627D03*
X054052Y019627D03*
X052427Y019627D03*
X048427Y019627D03*
X046802Y019627D03*
X042802Y019627D03*
X041177Y019627D03*
X037177Y019627D03*
X037177Y010877D03*
X035552Y010877D03*
X031552Y010877D03*
X041177Y010877D03*
X042802Y010877D03*
X046802Y010877D03*
X048427Y010877D03*
X052427Y010877D03*
X054052Y010877D03*
X058052Y010877D03*
X059677Y011002D03*
X063677Y011002D03*
X067177Y012127D03*
X070927Y010877D03*
X074927Y010877D03*
X076552Y010877D03*
X080552Y010877D03*
X082177Y011002D03*
X086177Y011002D03*
X087802Y010877D03*
X091802Y010877D03*
X093427Y010877D03*
X097427Y010877D03*
X099052Y010877D03*
X103052Y010877D03*
X067177Y008127D03*
X067177Y016877D03*
X067177Y025627D03*
X067177Y034377D03*
X143927Y037127D03*
X147927Y037127D03*
X148052Y032752D03*
X144052Y032752D03*
X144052Y028377D03*
X148052Y028377D03*
D17*
X100052Y042127D03*
X099052Y042127D03*
X098052Y042127D03*
X094427Y042127D03*
X093427Y042127D03*
X092427Y042127D03*
X088802Y042127D03*
X087802Y042127D03*
X086802Y042127D03*
X083177Y042127D03*
X082177Y042127D03*
X081177Y042127D03*
X077552Y042127D03*
X076552Y042127D03*
X075552Y042127D03*
X071927Y042127D03*
X070927Y042127D03*
X069927Y042127D03*
X066302Y042127D03*
X065302Y042127D03*
X064302Y042127D03*
X060677Y042127D03*
X059677Y042127D03*
X058677Y042127D03*
X055052Y042127D03*
X054052Y042127D03*
X053052Y042127D03*
X049427Y042127D03*
X048427Y042127D03*
X047427Y042127D03*
X043802Y042127D03*
X042802Y042127D03*
X041802Y042127D03*
X038177Y042127D03*
X037177Y042127D03*
X036177Y042127D03*
X032552Y042127D03*
X031552Y042127D03*
X030552Y042127D03*
X026927Y042127D03*
X025927Y042127D03*
X024927Y042127D03*
X021302Y042127D03*
X020302Y042127D03*
X019302Y042127D03*
X015677Y042127D03*
X014677Y042127D03*
X013677Y042127D03*
X010052Y042127D03*
X009052Y042127D03*
X008052Y042127D03*
X004427Y042127D03*
X003427Y042127D03*
X002427Y042127D03*
D18*
X037177Y034377D03*
X037177Y033377D03*
X037177Y032377D03*
X042802Y032377D03*
X042802Y033377D03*
X042802Y034377D03*
X048427Y034377D03*
X048427Y033377D03*
X048427Y032377D03*
X054052Y032377D03*
X054052Y033377D03*
X054052Y034377D03*
X059677Y034377D03*
X059677Y033377D03*
X059677Y032377D03*
X065302Y032377D03*
X065302Y033377D03*
X065302Y034377D03*
X070927Y034377D03*
X070927Y033377D03*
X070927Y032377D03*
X076552Y032377D03*
X076552Y033377D03*
X076552Y034377D03*
X082177Y034377D03*
X082177Y033377D03*
X082177Y032377D03*
X087802Y032377D03*
X087802Y033377D03*
X087802Y034377D03*
X093427Y034377D03*
X093427Y033377D03*
X093427Y032377D03*
X099052Y032377D03*
X099052Y033377D03*
X099052Y034377D03*
X099052Y025627D03*
X099052Y024627D03*
X099052Y023627D03*
X093427Y023627D03*
X093427Y024627D03*
X093427Y025627D03*
X087802Y025627D03*
X087802Y024627D03*
X087802Y023627D03*
X082177Y023627D03*
X082177Y024627D03*
X082177Y025627D03*
X076552Y025627D03*
X076552Y024627D03*
X076552Y023627D03*
X070927Y023627D03*
X070927Y024627D03*
X070927Y025627D03*
X065302Y025627D03*
X065302Y024627D03*
X065302Y023627D03*
X059677Y023627D03*
X059677Y024627D03*
X059677Y025627D03*
X054052Y025627D03*
X054052Y024627D03*
X054052Y023627D03*
X048427Y023627D03*
X048427Y024627D03*
X048427Y025627D03*
X042802Y025627D03*
X042802Y024627D03*
X042802Y023627D03*
X037177Y023627D03*
X037177Y024627D03*
X037177Y025627D03*
X037177Y016877D03*
X037177Y015877D03*
X037177Y014877D03*
X031552Y014877D03*
X031552Y015877D03*
X031552Y016877D03*
X042802Y016877D03*
X042802Y015877D03*
X042802Y014877D03*
X048427Y014877D03*
X048427Y015877D03*
X048427Y016877D03*
X054052Y016877D03*
X054052Y015877D03*
X054052Y014877D03*
X059677Y014877D03*
X059677Y015877D03*
X059677Y016877D03*
X065302Y016877D03*
X065302Y015877D03*
X065302Y014877D03*
X070302Y014877D03*
X070302Y015877D03*
X070302Y016877D03*
X076552Y016877D03*
X076552Y015877D03*
X076552Y014877D03*
X082177Y014877D03*
X082177Y015877D03*
X082177Y016877D03*
X087802Y016877D03*
X087802Y015877D03*
X087802Y014877D03*
X093427Y014877D03*
X093427Y015877D03*
X093427Y016877D03*
X099052Y016877D03*
X099052Y015877D03*
X099052Y014877D03*
X099052Y008127D03*
X099052Y007127D03*
X099052Y006127D03*
X093427Y006127D03*
X093427Y007127D03*
X093427Y008127D03*
X087802Y008127D03*
X087802Y007127D03*
X087802Y006127D03*
X082177Y006127D03*
X082177Y007127D03*
X082177Y008127D03*
X076552Y008127D03*
X076552Y007127D03*
X076552Y006127D03*
X070927Y006127D03*
X070927Y007127D03*
X070927Y008127D03*
X065302Y008127D03*
X065302Y007127D03*
X065302Y006127D03*
X059677Y006127D03*
X059677Y007127D03*
X059677Y008127D03*
X054052Y008127D03*
X054052Y007127D03*
X054052Y006127D03*
X048427Y006127D03*
X048427Y007127D03*
X048427Y008127D03*
X042802Y008127D03*
X042802Y007127D03*
X042802Y006127D03*
X037177Y006127D03*
X037177Y007127D03*
X037177Y008127D03*
X025302Y008127D03*
X025302Y007127D03*
X025302Y006127D03*
X019677Y006127D03*
X019677Y007127D03*
X019677Y008127D03*
X014052Y008127D03*
X014052Y007127D03*
X014052Y006127D03*
X008427Y006127D03*
X008427Y007127D03*
X008427Y008127D03*
X002802Y008127D03*
X002802Y007127D03*
X002802Y006127D03*
X124677Y007377D03*
X124677Y008377D03*
X124677Y009377D03*
X124677Y011752D03*
X124677Y012752D03*
X124677Y013752D03*
X124677Y016127D03*
X124677Y017127D03*
X124677Y018127D03*
X124677Y020502D03*
X124677Y021502D03*
X124677Y022502D03*
X124677Y024877D03*
X124677Y025877D03*
X124677Y026877D03*
X124677Y029252D03*
X124677Y030252D03*
X124677Y031252D03*
X124677Y033627D03*
X124677Y034627D03*
X124677Y035627D03*
X124677Y038002D03*
X124677Y039002D03*
X124677Y040002D03*
X135927Y040002D03*
X135927Y039002D03*
X135927Y038002D03*
X135927Y035627D03*
X135927Y034627D03*
X135927Y033627D03*
X135927Y031252D03*
X135927Y030252D03*
X135927Y029252D03*
X135927Y026877D03*
X135927Y025877D03*
X135927Y024877D03*
X135927Y022502D03*
X135927Y021502D03*
X135927Y020502D03*
X135927Y018127D03*
X135927Y017127D03*
X135927Y016127D03*
X140927Y029252D03*
X140927Y030252D03*
X140927Y031252D03*
X140927Y033627D03*
X140927Y034627D03*
X140927Y035627D03*
X140927Y038002D03*
X140927Y039002D03*
X140927Y040002D03*
M02*
