G75*
G70*
%OFA0B0*%
%FSLAX24Y24*%
%IPPOS*%
%LPD*%
%AMOC8*
5,1,8,0,0,1.08239X$1,22.5*
%
%ADD10OC8,0.1008*%
%ADD11C,0.1500*%
%ADD12R,0.0396X0.1316*%
%ADD13C,0.1701*%
%ADD14OC8,0.0720*%
%ADD15C,0.3400*%
%ADD16OC8,0.0624*%
%ADD17O,0.0624X0.1144*%
%ADD18O,0.1144X0.0624*%
D10*
X146060Y039377D03*
X146060Y038377D03*
X140435Y038377D03*
X140435Y039377D03*
X134810Y039377D03*
X134810Y038377D03*
X129185Y038377D03*
X129185Y039377D03*
X123560Y039377D03*
X123560Y038377D03*
X117935Y038377D03*
X117935Y039377D03*
X112310Y039377D03*
X112310Y038377D03*
X106685Y038377D03*
X106685Y039377D03*
X101060Y039377D03*
X101060Y038377D03*
X095435Y038377D03*
X095435Y039377D03*
X089810Y039377D03*
X089810Y038377D03*
X084185Y038377D03*
X084185Y039377D03*
X078560Y039377D03*
X078560Y038377D03*
X072935Y038377D03*
X072935Y039377D03*
X067310Y039377D03*
X067310Y038377D03*
X061685Y038377D03*
X061685Y039377D03*
X056060Y039377D03*
X056060Y038377D03*
X050435Y038377D03*
X050435Y039377D03*
X050435Y030627D03*
X050435Y029627D03*
X056060Y029627D03*
X056060Y030627D03*
X061685Y030627D03*
X061685Y029627D03*
X067310Y029627D03*
X067310Y030627D03*
X072935Y030627D03*
X072935Y029627D03*
X078560Y029627D03*
X078560Y030627D03*
X084185Y030627D03*
X084185Y029627D03*
X089810Y029627D03*
X089810Y030627D03*
X095435Y030627D03*
X095435Y029627D03*
X101060Y029627D03*
X101060Y030627D03*
X106685Y030627D03*
X106685Y029627D03*
X112310Y029627D03*
X112310Y030627D03*
X112310Y021877D03*
X112310Y020877D03*
X106685Y020877D03*
X106685Y021877D03*
X101060Y021877D03*
X101060Y020877D03*
X095435Y020877D03*
X095435Y021877D03*
X089810Y021877D03*
X089810Y020877D03*
X084185Y020877D03*
X084185Y021877D03*
X078560Y021877D03*
X078560Y020877D03*
X072935Y020877D03*
X072935Y021877D03*
X067310Y021877D03*
X067310Y020877D03*
X061685Y020877D03*
X061685Y021877D03*
X056060Y021877D03*
X056060Y020877D03*
X050435Y020877D03*
X050435Y021877D03*
X027935Y021877D03*
X027935Y020877D03*
X027935Y017502D03*
X027935Y016502D03*
X027935Y013127D03*
X027935Y012127D03*
X027935Y008752D03*
X027935Y007752D03*
X050435Y004377D03*
X050435Y003377D03*
X056060Y003377D03*
X056060Y004377D03*
X061685Y004377D03*
X061685Y003377D03*
X067310Y003377D03*
X067310Y004377D03*
X072935Y004377D03*
X072935Y003377D03*
X078560Y003377D03*
X078560Y004377D03*
X084185Y004377D03*
X084185Y003377D03*
X089810Y003377D03*
X089810Y004377D03*
X095435Y004377D03*
X095435Y003377D03*
X101060Y003377D03*
X101060Y004377D03*
X106685Y004377D03*
X106685Y003377D03*
X112310Y003377D03*
X112310Y004377D03*
X124185Y004377D03*
X124185Y003377D03*
X129810Y003377D03*
X129810Y004377D03*
X135435Y004377D03*
X135435Y003377D03*
X141060Y003377D03*
X141060Y004377D03*
X146685Y004377D03*
X146685Y003377D03*
X117935Y012127D03*
X117935Y013127D03*
X112310Y013127D03*
X112310Y012127D03*
X106685Y012127D03*
X106685Y013127D03*
X101060Y013127D03*
X101060Y012127D03*
X095435Y012127D03*
X095435Y013127D03*
X089810Y013127D03*
X089810Y012127D03*
X084185Y012127D03*
X084185Y013127D03*
X078560Y013127D03*
X078560Y012127D03*
X072935Y012127D03*
X072935Y013127D03*
X067310Y013127D03*
X067310Y012127D03*
X061685Y012127D03*
X061685Y013127D03*
X056060Y013127D03*
X056060Y012127D03*
X050435Y012127D03*
X050435Y013127D03*
X027935Y025252D03*
X027935Y026252D03*
X027935Y029627D03*
X027935Y030627D03*
X027935Y034002D03*
X027935Y035002D03*
X027935Y038377D03*
X027935Y039377D03*
X016685Y039377D03*
X016685Y038377D03*
X016685Y035002D03*
X016685Y034002D03*
X016685Y030627D03*
X016685Y029627D03*
X016685Y026252D03*
X016685Y025252D03*
X016685Y021877D03*
X016685Y020877D03*
X016685Y017502D03*
X016685Y016502D03*
X005435Y029627D03*
X005435Y030627D03*
X005435Y034002D03*
X005435Y035002D03*
X005435Y038377D03*
X005435Y039377D03*
D11*
X009560Y052627D03*
X029560Y052627D03*
X054560Y052627D03*
X074560Y052627D03*
X088310Y052627D03*
X108310Y052627D03*
X122060Y052627D03*
X142060Y052627D03*
D12*
X137935Y048377D03*
X137310Y048377D03*
X136685Y048377D03*
X136060Y048377D03*
X135435Y048377D03*
X134810Y048377D03*
X134185Y048377D03*
X133560Y048377D03*
X132935Y048377D03*
X132310Y048377D03*
X131685Y048377D03*
X131060Y048377D03*
X130435Y048377D03*
X129810Y048377D03*
X129185Y048377D03*
X128560Y048377D03*
X127935Y048377D03*
X127310Y048377D03*
X126685Y048377D03*
X104185Y048377D03*
X103560Y048377D03*
X102935Y048377D03*
X102310Y048377D03*
X101685Y048377D03*
X101060Y048377D03*
X100435Y048377D03*
X099810Y048377D03*
X099185Y048377D03*
X098560Y048377D03*
X097935Y048377D03*
X097310Y048377D03*
X096685Y048377D03*
X096060Y048377D03*
X095435Y048377D03*
X094810Y048377D03*
X094185Y048377D03*
X093560Y048377D03*
X092935Y048377D03*
X070435Y048377D03*
X069810Y048377D03*
X069185Y048377D03*
X068560Y048377D03*
X067935Y048377D03*
X067310Y048377D03*
X066685Y048377D03*
X066060Y048377D03*
X065435Y048377D03*
X064810Y048377D03*
X064185Y048377D03*
X063560Y048377D03*
X062935Y048377D03*
X062310Y048377D03*
X061685Y048377D03*
X061060Y048377D03*
X060435Y048377D03*
X059810Y048377D03*
X059185Y048377D03*
X025435Y048377D03*
X024810Y048377D03*
X024185Y048377D03*
X023560Y048377D03*
X022935Y048377D03*
X022310Y048377D03*
X021685Y048377D03*
X021060Y048377D03*
X020435Y048377D03*
X019810Y048377D03*
X019185Y048377D03*
X018560Y048377D03*
X017935Y048377D03*
X017310Y048377D03*
X016685Y048377D03*
X016060Y048377D03*
X015435Y048377D03*
X014810Y048377D03*
X014185Y048377D03*
D13*
X002935Y045877D03*
X002935Y015252D03*
X076060Y015252D03*
X143560Y015252D03*
X143560Y045877D03*
X087310Y045877D03*
D14*
X091185Y045752D03*
X092185Y045752D03*
X093185Y045752D03*
X094185Y045752D03*
X095185Y045752D03*
X096185Y045752D03*
X097185Y045752D03*
X098185Y045752D03*
X099185Y045752D03*
X100185Y045752D03*
X101185Y045752D03*
X102185Y045752D03*
X103185Y045752D03*
X104185Y045752D03*
X105185Y045752D03*
X106185Y045752D03*
X107185Y045752D03*
X107185Y044752D03*
X106185Y044752D03*
X105185Y044752D03*
X104185Y044752D03*
X103185Y044752D03*
X102185Y044752D03*
X101185Y044752D03*
X100185Y044752D03*
X099185Y044752D03*
X098185Y044752D03*
X097185Y044752D03*
X096185Y044752D03*
X095185Y044752D03*
X094185Y044752D03*
X093185Y044752D03*
X092185Y044752D03*
X091185Y044752D03*
X072185Y044752D03*
X071185Y044752D03*
X070185Y044752D03*
X069185Y044752D03*
X068185Y044752D03*
X067185Y044752D03*
X066185Y044752D03*
X065185Y044752D03*
X064185Y044752D03*
X063185Y044752D03*
X062185Y044752D03*
X061185Y044752D03*
X060185Y044752D03*
X059185Y044752D03*
X058185Y044752D03*
X057185Y044752D03*
X056185Y044752D03*
X056185Y045752D03*
X057185Y045752D03*
X058185Y045752D03*
X059185Y045752D03*
X060185Y045752D03*
X061185Y045752D03*
X062185Y045752D03*
X063185Y045752D03*
X064185Y045752D03*
X065185Y045752D03*
X066185Y045752D03*
X067185Y045752D03*
X068185Y045752D03*
X069185Y045752D03*
X070185Y045752D03*
X071185Y045752D03*
X072185Y045752D03*
X027185Y045752D03*
X026185Y045752D03*
X025185Y045752D03*
X024185Y045752D03*
X023185Y045752D03*
X022185Y045752D03*
X021185Y045752D03*
X020185Y045752D03*
X019185Y045752D03*
X018185Y045752D03*
X017185Y045752D03*
X016185Y045752D03*
X015185Y045752D03*
X014185Y045752D03*
X013185Y045752D03*
X012185Y045752D03*
X011185Y045752D03*
X011185Y044752D03*
X012185Y044752D03*
X013185Y044752D03*
X014185Y044752D03*
X015185Y044752D03*
X016185Y044752D03*
X017185Y044752D03*
X018185Y044752D03*
X019185Y044752D03*
X020185Y044752D03*
X021185Y044752D03*
X022185Y044752D03*
X023185Y044752D03*
X024185Y044752D03*
X025185Y044752D03*
X026185Y044752D03*
X027185Y044752D03*
X123685Y044752D03*
X124685Y044752D03*
X125685Y044752D03*
X126685Y044752D03*
X127685Y044752D03*
X128685Y044752D03*
X129685Y044752D03*
X130685Y044752D03*
X131685Y044752D03*
X132685Y044752D03*
X133685Y044752D03*
X134685Y044752D03*
X135685Y044752D03*
X136685Y044752D03*
X137685Y044752D03*
X138685Y044752D03*
X139685Y044752D03*
X139685Y045752D03*
X138685Y045752D03*
X137685Y045752D03*
X136685Y045752D03*
X135685Y045752D03*
X134685Y045752D03*
X133685Y045752D03*
X132685Y045752D03*
X131685Y045752D03*
X130685Y045752D03*
X129685Y045752D03*
X128685Y045752D03*
X127685Y045752D03*
X126685Y045752D03*
X125685Y045752D03*
X124685Y045752D03*
X123685Y045752D03*
D15*
X083560Y047752D03*
X078560Y047752D03*
X078560Y052127D03*
X083560Y052127D03*
X038060Y037252D03*
X038060Y027627D03*
X038060Y011752D03*
X038060Y005252D03*
D16*
X031935Y006502D03*
X027935Y006502D03*
X027935Y010877D03*
X031935Y010877D03*
X031935Y015252D03*
X027935Y015252D03*
X020685Y015252D03*
X016685Y015252D03*
X016685Y019627D03*
X020685Y019627D03*
X027935Y019627D03*
X031935Y019627D03*
X031935Y023877D03*
X027935Y023877D03*
X020685Y024002D03*
X016685Y024002D03*
X016685Y028377D03*
X020685Y028377D03*
X027935Y028377D03*
X031935Y028377D03*
X031935Y032752D03*
X027935Y032752D03*
X020685Y032752D03*
X016685Y032752D03*
X016685Y037127D03*
X020685Y037127D03*
X027935Y037127D03*
X031935Y037127D03*
X046435Y037127D03*
X050435Y037127D03*
X052060Y037127D03*
X056060Y037127D03*
X057685Y037127D03*
X061685Y037127D03*
X063310Y037127D03*
X067310Y037127D03*
X068935Y037127D03*
X072935Y037127D03*
X074560Y037127D03*
X078560Y037127D03*
X082310Y038377D03*
X085810Y037127D03*
X089810Y037127D03*
X091435Y037127D03*
X095435Y037127D03*
X097060Y037127D03*
X101060Y037127D03*
X102685Y037127D03*
X106685Y037127D03*
X108310Y037127D03*
X112310Y037127D03*
X113935Y037127D03*
X117935Y037127D03*
X119560Y037127D03*
X123560Y037127D03*
X125185Y037127D03*
X129185Y037127D03*
X130810Y037127D03*
X134810Y037127D03*
X136435Y037127D03*
X140435Y037127D03*
X142060Y037127D03*
X146060Y037127D03*
X112310Y028377D03*
X108310Y028377D03*
X106685Y028377D03*
X102685Y028377D03*
X101060Y028377D03*
X097060Y028377D03*
X095435Y028377D03*
X091435Y028377D03*
X089810Y028377D03*
X085810Y028377D03*
X082310Y029627D03*
X078560Y028377D03*
X074560Y028377D03*
X072935Y028377D03*
X068935Y028377D03*
X067310Y028377D03*
X063310Y028377D03*
X061685Y028377D03*
X057685Y028377D03*
X056060Y028377D03*
X052060Y028377D03*
X050435Y028377D03*
X046435Y028377D03*
X046435Y019627D03*
X050435Y019627D03*
X052060Y019627D03*
X056060Y019627D03*
X057685Y019627D03*
X061685Y019627D03*
X063310Y019627D03*
X067310Y019627D03*
X068935Y019627D03*
X072935Y019627D03*
X074560Y019627D03*
X078560Y019627D03*
X082310Y020877D03*
X085810Y019627D03*
X089810Y019627D03*
X091435Y019627D03*
X095435Y019627D03*
X097060Y019627D03*
X101060Y019627D03*
X102685Y019627D03*
X106685Y019627D03*
X108310Y019627D03*
X112310Y019627D03*
X112310Y010877D03*
X113935Y010877D03*
X117935Y010877D03*
X108310Y010877D03*
X106685Y010877D03*
X102685Y010877D03*
X101060Y010877D03*
X097060Y010877D03*
X095435Y010877D03*
X091435Y010877D03*
X089810Y011002D03*
X085810Y011002D03*
X082310Y012127D03*
X078560Y010877D03*
X074560Y010877D03*
X072935Y010877D03*
X068935Y010877D03*
X067310Y011002D03*
X063310Y011002D03*
X061685Y010877D03*
X057685Y010877D03*
X056060Y010877D03*
X052060Y010877D03*
X050435Y010877D03*
X046435Y010877D03*
X046435Y002127D03*
X050435Y002127D03*
X052060Y002127D03*
X056060Y002127D03*
X057685Y002127D03*
X061685Y002127D03*
X063310Y002127D03*
X067310Y002127D03*
X068935Y002127D03*
X072935Y002127D03*
X074560Y002127D03*
X078560Y002127D03*
X081810Y001502D03*
X085810Y001502D03*
X085810Y002127D03*
X089810Y002127D03*
X091435Y002127D03*
X095435Y002127D03*
X097060Y002127D03*
X101060Y002127D03*
X102685Y002127D03*
X106685Y002127D03*
X108310Y002127D03*
X112310Y002127D03*
X120185Y002127D03*
X124185Y002127D03*
X125810Y002127D03*
X129810Y002127D03*
X131435Y002127D03*
X135435Y002127D03*
X137060Y002127D03*
X141060Y002127D03*
X142685Y002127D03*
X146685Y002127D03*
X082310Y008127D03*
X082310Y016877D03*
X082310Y025627D03*
X082310Y034377D03*
X005560Y037127D03*
X001560Y037127D03*
X001435Y032752D03*
X005435Y032752D03*
X005435Y028377D03*
X001435Y028377D03*
D17*
X049435Y042127D03*
X050435Y042127D03*
X051435Y042127D03*
X055060Y042127D03*
X056060Y042127D03*
X057060Y042127D03*
X060685Y042127D03*
X061685Y042127D03*
X062685Y042127D03*
X066310Y042127D03*
X067310Y042127D03*
X068310Y042127D03*
X071935Y042127D03*
X072935Y042127D03*
X073935Y042127D03*
X077560Y042127D03*
X078560Y042127D03*
X079560Y042127D03*
X083185Y042127D03*
X084185Y042127D03*
X085185Y042127D03*
X088810Y042127D03*
X089810Y042127D03*
X090810Y042127D03*
X094435Y042127D03*
X095435Y042127D03*
X096435Y042127D03*
X100060Y042127D03*
X101060Y042127D03*
X102060Y042127D03*
X105685Y042127D03*
X106685Y042127D03*
X107685Y042127D03*
X111310Y042127D03*
X112310Y042127D03*
X113310Y042127D03*
X116935Y042127D03*
X117935Y042127D03*
X118935Y042127D03*
X122560Y042127D03*
X123560Y042127D03*
X124560Y042127D03*
X128185Y042127D03*
X129185Y042127D03*
X130185Y042127D03*
X133810Y042127D03*
X134810Y042127D03*
X135810Y042127D03*
X139435Y042127D03*
X140435Y042127D03*
X141435Y042127D03*
X145060Y042127D03*
X146060Y042127D03*
X147060Y042127D03*
D18*
X024810Y007377D03*
X024810Y008377D03*
X024810Y009377D03*
X024810Y011752D03*
X024810Y012752D03*
X024810Y013752D03*
X024810Y016127D03*
X024810Y017127D03*
X024810Y018127D03*
X024810Y020502D03*
X024810Y021502D03*
X024810Y022502D03*
X024810Y024877D03*
X024810Y025877D03*
X024810Y026877D03*
X024810Y029252D03*
X024810Y030252D03*
X024810Y031252D03*
X024810Y033627D03*
X024810Y034627D03*
X024810Y035627D03*
X024810Y038002D03*
X024810Y039002D03*
X024810Y040002D03*
X013560Y040002D03*
X013560Y039002D03*
X013560Y038002D03*
X013560Y035627D03*
X013560Y034627D03*
X013560Y033627D03*
X013560Y031252D03*
X013560Y030252D03*
X013560Y029252D03*
X013560Y026877D03*
X013560Y025877D03*
X013560Y024877D03*
X013560Y022502D03*
X013560Y021502D03*
X013560Y020502D03*
X013560Y018127D03*
X013560Y017127D03*
X013560Y016127D03*
X008560Y029252D03*
X008560Y030252D03*
X008560Y031252D03*
X008560Y033627D03*
X008560Y034627D03*
X008560Y035627D03*
X008560Y038002D03*
X008560Y039002D03*
X008560Y040002D03*
X050435Y034377D03*
X050435Y033377D03*
X050435Y032377D03*
X056060Y032377D03*
X056060Y033377D03*
X056060Y034377D03*
X061685Y034377D03*
X061685Y033377D03*
X061685Y032377D03*
X067310Y032377D03*
X067310Y033377D03*
X067310Y034377D03*
X072935Y034377D03*
X072935Y033377D03*
X072935Y032377D03*
X078560Y032377D03*
X078560Y033377D03*
X078560Y034377D03*
X084185Y034377D03*
X084185Y033377D03*
X084185Y032377D03*
X089810Y032377D03*
X089810Y033377D03*
X089810Y034377D03*
X095435Y034377D03*
X095435Y033377D03*
X095435Y032377D03*
X101060Y032377D03*
X101060Y033377D03*
X101060Y034377D03*
X106685Y034377D03*
X106685Y033377D03*
X106685Y032377D03*
X112310Y032377D03*
X112310Y033377D03*
X112310Y034377D03*
X112310Y025627D03*
X112310Y024627D03*
X112310Y023627D03*
X106685Y023627D03*
X106685Y024627D03*
X106685Y025627D03*
X101060Y025627D03*
X101060Y024627D03*
X101060Y023627D03*
X095435Y023627D03*
X095435Y024627D03*
X095435Y025627D03*
X089810Y025627D03*
X089810Y024627D03*
X089810Y023627D03*
X084185Y023627D03*
X084185Y024627D03*
X084185Y025627D03*
X078560Y025627D03*
X078560Y024627D03*
X078560Y023627D03*
X072935Y023627D03*
X072935Y024627D03*
X072935Y025627D03*
X067310Y025627D03*
X067310Y024627D03*
X067310Y023627D03*
X061685Y023627D03*
X061685Y024627D03*
X061685Y025627D03*
X056060Y025627D03*
X056060Y024627D03*
X056060Y023627D03*
X050435Y023627D03*
X050435Y024627D03*
X050435Y025627D03*
X050435Y016877D03*
X050435Y015877D03*
X050435Y014877D03*
X056060Y014877D03*
X056060Y015877D03*
X056060Y016877D03*
X061685Y016877D03*
X061685Y015877D03*
X061685Y014877D03*
X067310Y014877D03*
X067310Y015877D03*
X067310Y016877D03*
X072935Y016877D03*
X072935Y015877D03*
X072935Y014877D03*
X079185Y014877D03*
X079185Y015877D03*
X079185Y016877D03*
X084185Y016877D03*
X084185Y015877D03*
X084185Y014877D03*
X089810Y014877D03*
X089810Y015877D03*
X089810Y016877D03*
X095435Y016877D03*
X095435Y015877D03*
X095435Y014877D03*
X101060Y014877D03*
X101060Y015877D03*
X101060Y016877D03*
X106685Y016877D03*
X106685Y015877D03*
X106685Y014877D03*
X112310Y014877D03*
X112310Y015877D03*
X112310Y016877D03*
X117935Y016877D03*
X117935Y015877D03*
X117935Y014877D03*
X112310Y008127D03*
X112310Y007127D03*
X112310Y006127D03*
X106685Y006127D03*
X106685Y007127D03*
X106685Y008127D03*
X101060Y008127D03*
X101060Y007127D03*
X101060Y006127D03*
X095435Y006127D03*
X095435Y007127D03*
X095435Y008127D03*
X089810Y008127D03*
X089810Y007127D03*
X089810Y006127D03*
X084185Y006127D03*
X084185Y007127D03*
X084185Y008127D03*
X078560Y008127D03*
X078560Y007127D03*
X078560Y006127D03*
X072935Y006127D03*
X072935Y007127D03*
X072935Y008127D03*
X067310Y008127D03*
X067310Y007127D03*
X067310Y006127D03*
X061685Y006127D03*
X061685Y007127D03*
X061685Y008127D03*
X056060Y008127D03*
X056060Y007127D03*
X056060Y006127D03*
X050435Y006127D03*
X050435Y007127D03*
X050435Y008127D03*
X124185Y008127D03*
X124185Y007127D03*
X124185Y006127D03*
X129810Y006127D03*
X129810Y007127D03*
X129810Y008127D03*
X135435Y008127D03*
X135435Y007127D03*
X135435Y006127D03*
X141060Y006127D03*
X141060Y007127D03*
X141060Y008127D03*
X146685Y008127D03*
X146685Y007127D03*
X146685Y006127D03*
M02*
